<?xml version="1.0" encoding="utf-8" standalone="no"?>
<!DOCTYPE svg PUBLIC "-//W3C//DTD SVG 1.1//EN"
  "http://www.w3.org/Graphics/SVG/1.1/DTD/svg11.dtd">
<svg xmlns:xlink="http://www.w3.org/1999/xlink" width="1080pt" height="1296pt" viewBox="0 0 1080 1296" xmlns="http://www.w3.org/2000/svg" version="1.1">
 <metadata>
  <rdf:RDF xmlns:dc="http://purl.org/dc/elements/1.1/" xmlns:cc="http://creativecommons.org/ns#" xmlns:rdf="http://www.w3.org/1999/02/22-rdf-syntax-ns#">
   <cc:Work>
    <dc:type rdf:resource="http://purl.org/dc/dcmitype/StillImage"/>
    <dc:date>2024-07-24T16:40:35.483412</dc:date>
    <dc:format>image/svg+xml</dc:format>
    <dc:creator>
     <cc:Agent>
      <dc:title>Matplotlib v3.8.4, https://matplotlib.org/</dc:title>
     </cc:Agent>
    </dc:creator>
   </cc:Work>
  </rdf:RDF>
 </metadata>
 <defs>
  <style type="text/css">*{stroke-linejoin: round; stroke-linecap: butt}</style>
 </defs>
 <g id="figure_1">
  <g id="patch_1">
   <path d="M 0 1296 
L 1080 1296 
L 1080 0 
L 0 0 
z
" style="fill: #ffffff"/>
  </g>
  <g id="axes_1">
   <g id="patch_2">
    <path d="M 135 418.130526 
L 515.454545 418.130526 
L 515.454545 155.52 
L 135 155.52 
z
" style="fill: #ffffff"/>
   </g>
   <g id="matplotlib.axis_1">
    <g id="xtick_1">
     <g id="line2d_1">
      <defs>
       <path id="m722da22725" d="M 0 0 
L 0 3.5 
" style="stroke: #000000; stroke-width: 0.8"/>
      </defs>
      <g>
       <use xlink:href="#m722da22725" x="137.882231" y="418.130526" style="stroke: #000000; stroke-width: 0.8"/>
      </g>
     </g>
     <g id="text_1">
      <!-- 0 -->
      <g transform="translate(131.519731 440.327401) scale(0.2 -0.2)">
       <defs>
        <path id="DejaVuSans-30" d="M 2034 4250 
Q 1547 4250 1301 3770 
Q 1056 3291 1056 2328 
Q 1056 1369 1301 889 
Q 1547 409 2034 409 
Q 2525 409 2770 889 
Q 3016 1369 3016 2328 
Q 3016 3291 2770 3770 
Q 2525 4250 2034 4250 
z
M 2034 4750 
Q 2819 4750 3233 4129 
Q 3647 3509 3647 2328 
Q 3647 1150 3233 529 
Q 2819 -91 2034 -91 
Q 1250 -91 836 529 
Q 422 1150 422 2328 
Q 422 3509 836 4129 
Q 1250 4750 2034 4750 
z
" transform="scale(0.015625)"/>
       </defs>
       <use xlink:href="#DejaVuSans-30"/>
      </g>
     </g>
    </g>
    <g id="xtick_2">
     <g id="line2d_2">
      <g>
       <use xlink:href="#m722da22725" x="209.938017" y="418.130526" style="stroke: #000000; stroke-width: 0.8"/>
      </g>
     </g>
     <g id="text_2">
      <!-- 10 -->
      <g transform="translate(197.213017 440.327401) scale(0.2 -0.2)">
       <defs>
        <path id="DejaVuSans-31" d="M 794 531 
L 1825 531 
L 1825 4091 
L 703 3866 
L 703 4441 
L 1819 4666 
L 2450 4666 
L 2450 531 
L 3481 531 
L 3481 0 
L 794 0 
L 794 531 
z
" transform="scale(0.015625)"/>
       </defs>
       <use xlink:href="#DejaVuSans-31"/>
       <use xlink:href="#DejaVuSans-30" x="63.623047"/>
      </g>
     </g>
    </g>
    <g id="xtick_3">
     <g id="line2d_3">
      <g>
       <use xlink:href="#m722da22725" x="281.993802" y="418.130526" style="stroke: #000000; stroke-width: 0.8"/>
      </g>
     </g>
     <g id="text_3">
      <!-- 20 -->
      <g transform="translate(269.268802 440.327401) scale(0.2 -0.2)">
       <defs>
        <path id="DejaVuSans-32" d="M 1228 531 
L 3431 531 
L 3431 0 
L 469 0 
L 469 531 
Q 828 903 1448 1529 
Q 2069 2156 2228 2338 
Q 2531 2678 2651 2914 
Q 2772 3150 2772 3378 
Q 2772 3750 2511 3984 
Q 2250 4219 1831 4219 
Q 1534 4219 1204 4116 
Q 875 4013 500 3803 
L 500 4441 
Q 881 4594 1212 4672 
Q 1544 4750 1819 4750 
Q 2544 4750 2975 4387 
Q 3406 4025 3406 3419 
Q 3406 3131 3298 2873 
Q 3191 2616 2906 2266 
Q 2828 2175 2409 1742 
Q 1991 1309 1228 531 
z
" transform="scale(0.015625)"/>
       </defs>
       <use xlink:href="#DejaVuSans-32"/>
       <use xlink:href="#DejaVuSans-30" x="63.623047"/>
      </g>
     </g>
    </g>
    <g id="xtick_4">
     <g id="line2d_4">
      <g>
       <use xlink:href="#m722da22725" x="354.049587" y="418.130526" style="stroke: #000000; stroke-width: 0.8"/>
      </g>
     </g>
     <g id="text_4">
      <!-- 30 -->
      <g transform="translate(341.324587 440.327401) scale(0.2 -0.2)">
       <defs>
        <path id="DejaVuSans-33" d="M 2597 2516 
Q 3050 2419 3304 2112 
Q 3559 1806 3559 1356 
Q 3559 666 3084 287 
Q 2609 -91 1734 -91 
Q 1441 -91 1130 -33 
Q 819 25 488 141 
L 488 750 
Q 750 597 1062 519 
Q 1375 441 1716 441 
Q 2309 441 2620 675 
Q 2931 909 2931 1356 
Q 2931 1769 2642 2001 
Q 2353 2234 1838 2234 
L 1294 2234 
L 1294 2753 
L 1863 2753 
Q 2328 2753 2575 2939 
Q 2822 3125 2822 3475 
Q 2822 3834 2567 4026 
Q 2313 4219 1838 4219 
Q 1578 4219 1281 4162 
Q 984 4106 628 3988 
L 628 4550 
Q 988 4650 1302 4700 
Q 1616 4750 1894 4750 
Q 2613 4750 3031 4423 
Q 3450 4097 3450 3541 
Q 3450 3153 3228 2886 
Q 3006 2619 2597 2516 
z
" transform="scale(0.015625)"/>
       </defs>
       <use xlink:href="#DejaVuSans-33"/>
       <use xlink:href="#DejaVuSans-30" x="63.623047"/>
      </g>
     </g>
    </g>
    <g id="xtick_5">
     <g id="line2d_5">
      <g>
       <use xlink:href="#m722da22725" x="426.105372" y="418.130526" style="stroke: #000000; stroke-width: 0.8"/>
      </g>
     </g>
     <g id="text_5">
      <!-- 40 -->
      <g transform="translate(413.380372 440.327401) scale(0.2 -0.2)">
       <defs>
        <path id="DejaVuSans-34" d="M 2419 4116 
L 825 1625 
L 2419 1625 
L 2419 4116 
z
M 2253 4666 
L 3047 4666 
L 3047 1625 
L 3713 1625 
L 3713 1100 
L 3047 1100 
L 3047 0 
L 2419 0 
L 2419 1100 
L 313 1100 
L 313 1709 
L 2253 4666 
z
" transform="scale(0.015625)"/>
       </defs>
       <use xlink:href="#DejaVuSans-34"/>
       <use xlink:href="#DejaVuSans-30" x="63.623047"/>
      </g>
     </g>
    </g>
    <g id="xtick_6">
     <g id="line2d_6">
      <g>
       <use xlink:href="#m722da22725" x="498.161157" y="418.130526" style="stroke: #000000; stroke-width: 0.8"/>
      </g>
     </g>
     <g id="text_6">
      <!-- 50 -->
      <g transform="translate(485.436157 440.327401) scale(0.2 -0.2)">
       <defs>
        <path id="DejaVuSans-35" d="M 691 4666 
L 3169 4666 
L 3169 4134 
L 1269 4134 
L 1269 2991 
Q 1406 3038 1543 3061 
Q 1681 3084 1819 3084 
Q 2600 3084 3056 2656 
Q 3513 2228 3513 1497 
Q 3513 744 3044 326 
Q 2575 -91 1722 -91 
Q 1428 -91 1123 -41 
Q 819 9 494 109 
L 494 744 
Q 775 591 1075 516 
Q 1375 441 1709 441 
Q 2250 441 2565 725 
Q 2881 1009 2881 1497 
Q 2881 1984 2565 2268 
Q 2250 2553 1709 2553 
Q 1456 2553 1204 2497 
Q 953 2441 691 2322 
L 691 4666 
z
" transform="scale(0.015625)"/>
       </defs>
       <use xlink:href="#DejaVuSans-35"/>
       <use xlink:href="#DejaVuSans-30" x="63.623047"/>
      </g>
     </g>
    </g>
    <g id="text_7">
     <!-- k -->
     <g transform="translate(318.278523 466.723026) scale(0.24 -0.24)">
      <defs>
       <path id="DejaVuSans-6b" d="M 581 4863 
L 1159 4863 
L 1159 1991 
L 2875 3500 
L 3609 3500 
L 1753 1863 
L 3688 0 
L 2938 0 
L 1159 1709 
L 1159 0 
L 581 0 
L 581 4863 
z
" transform="scale(0.015625)"/>
      </defs>
      <use xlink:href="#DejaVuSans-6b"/>
     </g>
    </g>
   </g>
   <g id="matplotlib.axis_2">
    <g id="ytick_1">
     <g id="line2d_7">
      <defs>
       <path id="m7b67b309bd" d="M 0 0 
L -3.5 0 
" style="stroke: #000000; stroke-width: 0.8"/>
      </defs>
      <g>
       <use xlink:href="#m7b67b309bd" x="135" y="418.130526" style="stroke: #000000; stroke-width: 0.8"/>
      </g>
     </g>
     <g id="text_8">
      <!-- 0.0 -->
      <g transform="translate(96.19375 425.728964) scale(0.2 -0.2)">
       <defs>
        <path id="DejaVuSans-2e" d="M 684 794 
L 1344 794 
L 1344 0 
L 684 0 
L 684 794 
z
" transform="scale(0.015625)"/>
       </defs>
       <use xlink:href="#DejaVuSans-30"/>
       <use xlink:href="#DejaVuSans-2e" x="63.623047"/>
       <use xlink:href="#DejaVuSans-30" x="95.410156"/>
      </g>
     </g>
    </g>
    <g id="ytick_2">
     <g id="line2d_8">
      <g>
       <use xlink:href="#m7b67b309bd" x="135" y="352.477895" style="stroke: #000000; stroke-width: 0.8"/>
      </g>
     </g>
     <g id="text_9">
      <!-- 0.2 -->
      <g transform="translate(96.19375 360.076332) scale(0.2 -0.2)">
       <use xlink:href="#DejaVuSans-30"/>
       <use xlink:href="#DejaVuSans-2e" x="63.623047"/>
       <use xlink:href="#DejaVuSans-32" x="95.410156"/>
      </g>
     </g>
    </g>
    <g id="ytick_3">
     <g id="line2d_9">
      <g>
       <use xlink:href="#m7b67b309bd" x="135" y="286.825263" style="stroke: #000000; stroke-width: 0.8"/>
      </g>
     </g>
     <g id="text_10">
      <!-- 0.4 -->
      <g transform="translate(96.19375 294.423701) scale(0.2 -0.2)">
       <use xlink:href="#DejaVuSans-30"/>
       <use xlink:href="#DejaVuSans-2e" x="63.623047"/>
       <use xlink:href="#DejaVuSans-34" x="95.410156"/>
      </g>
     </g>
    </g>
    <g id="ytick_4">
     <g id="line2d_10">
      <g>
       <use xlink:href="#m7b67b309bd" x="135" y="221.172632" style="stroke: #000000; stroke-width: 0.8"/>
      </g>
     </g>
     <g id="text_11">
      <!-- 0.6 -->
      <g transform="translate(96.19375 228.771069) scale(0.2 -0.2)">
       <defs>
        <path id="DejaVuSans-36" d="M 2113 2584 
Q 1688 2584 1439 2293 
Q 1191 2003 1191 1497 
Q 1191 994 1439 701 
Q 1688 409 2113 409 
Q 2538 409 2786 701 
Q 3034 994 3034 1497 
Q 3034 2003 2786 2293 
Q 2538 2584 2113 2584 
z
M 3366 4563 
L 3366 3988 
Q 3128 4100 2886 4159 
Q 2644 4219 2406 4219 
Q 1781 4219 1451 3797 
Q 1122 3375 1075 2522 
Q 1259 2794 1537 2939 
Q 1816 3084 2150 3084 
Q 2853 3084 3261 2657 
Q 3669 2231 3669 1497 
Q 3669 778 3244 343 
Q 2819 -91 2113 -91 
Q 1303 -91 875 529 
Q 447 1150 447 2328 
Q 447 3434 972 4092 
Q 1497 4750 2381 4750 
Q 2619 4750 2861 4703 
Q 3103 4656 3366 4563 
z
" transform="scale(0.015625)"/>
       </defs>
       <use xlink:href="#DejaVuSans-30"/>
       <use xlink:href="#DejaVuSans-2e" x="63.623047"/>
       <use xlink:href="#DejaVuSans-36" x="95.410156"/>
      </g>
     </g>
    </g>
    <g id="ytick_5">
     <g id="line2d_11">
      <g>
       <use xlink:href="#m7b67b309bd" x="135" y="155.52" style="stroke: #000000; stroke-width: 0.8"/>
      </g>
     </g>
     <g id="text_12">
      <!-- 0.8 -->
      <g transform="translate(96.19375 163.118438) scale(0.2 -0.2)">
       <defs>
        <path id="DejaVuSans-38" d="M 2034 2216 
Q 1584 2216 1326 1975 
Q 1069 1734 1069 1313 
Q 1069 891 1326 650 
Q 1584 409 2034 409 
Q 2484 409 2743 651 
Q 3003 894 3003 1313 
Q 3003 1734 2745 1975 
Q 2488 2216 2034 2216 
z
M 1403 2484 
Q 997 2584 770 2862 
Q 544 3141 544 3541 
Q 544 4100 942 4425 
Q 1341 4750 2034 4750 
Q 2731 4750 3128 4425 
Q 3525 4100 3525 3541 
Q 3525 3141 3298 2862 
Q 3072 2584 2669 2484 
Q 3125 2378 3379 2068 
Q 3634 1759 3634 1313 
Q 3634 634 3220 271 
Q 2806 -91 2034 -91 
Q 1263 -91 848 271 
Q 434 634 434 1313 
Q 434 1759 690 2068 
Q 947 2378 1403 2484 
z
M 1172 3481 
Q 1172 3119 1398 2916 
Q 1625 2713 2034 2713 
Q 2441 2713 2670 2916 
Q 2900 3119 2900 3481 
Q 2900 3844 2670 4047 
Q 2441 4250 2034 4250 
Q 1625 4250 1398 4047 
Q 1172 3844 1172 3481 
z
" transform="scale(0.015625)"/>
       </defs>
       <use xlink:href="#DejaVuSans-30"/>
       <use xlink:href="#DejaVuSans-2e" x="63.623047"/>
       <use xlink:href="#DejaVuSans-38" x="95.410156"/>
      </g>
     </g>
    </g>
    <g id="text_13">
     <!-- $P_{NN}$ -->
     <g transform="translate(87.2025 306.985263) rotate(-90) scale(0.24 -0.24)">
      <defs>
       <path id="DejaVuSans-Oblique-50" d="M 1081 4666 
L 2541 4666 
Q 3178 4666 3512 4369 
Q 3847 4072 3847 3500 
Q 3847 2731 3353 2303 
Q 2859 1875 1966 1875 
L 1172 1875 
L 806 0 
L 172 0 
L 1081 4666 
z
M 1613 4147 
L 1275 2394 
L 2069 2394 
Q 2606 2394 2893 2669 
Q 3181 2944 3181 3456 
Q 3181 3784 2986 3965 
Q 2791 4147 2438 4147 
L 1613 4147 
z
" transform="scale(0.015625)"/>
       <path id="DejaVuSans-Oblique-4e" d="M 1081 4666 
L 1931 4666 
L 3219 666 
L 4000 4666 
L 4616 4666 
L 3706 0 
L 2853 0 
L 1569 4025 
L 788 0 
L 172 0 
L 1081 4666 
z
" transform="scale(0.015625)"/>
      </defs>
      <use xlink:href="#DejaVuSans-Oblique-50" transform="translate(0 0.09375)"/>
      <use xlink:href="#DejaVuSans-Oblique-4e" transform="translate(60.302734 -16.3125) scale(0.7)"/>
      <use xlink:href="#DejaVuSans-Oblique-4e" transform="translate(112.666016 -16.3125) scale(0.7)"/>
     </g>
    </g>
   </g>
   <g id="line2d_12">
    <path d="M 152.293388 396.796691 
L 173.910124 383.277087 
L 209.938017 370.607568 
L 281.993802 352.052853 
L 498.161157 323.123845 
" clip-path="url(#pd8c563cb38)" style="fill: none; stroke: #1f77b4; stroke-width: 1.5; stroke-linecap: square"/>
    <defs>
     <path id="macac1c92f3" d="M 0 3 
C 0.795609 3 1.55874 2.683901 2.12132 2.12132 
C 2.683901 1.55874 3 0.795609 3 0 
C 3 -0.795609 2.683901 -1.55874 2.12132 -2.12132 
C 1.55874 -2.683901 0.795609 -3 0 -3 
C -0.795609 -3 -1.55874 -2.683901 -2.12132 -2.12132 
C -2.683901 -1.55874 -3 -0.795609 -3 0 
C -3 0.795609 -2.683901 1.55874 -2.12132 2.12132 
C -1.55874 2.683901 -0.795609 3 0 3 
z
" style="stroke: #1f77b4"/>
    </defs>
    <g clip-path="url(#pd8c563cb38)">
     <use xlink:href="#macac1c92f3" x="152.293388" y="396.796691" style="fill: #1f77b4; stroke: #1f77b4"/>
     <use xlink:href="#macac1c92f3" x="173.910124" y="383.277087" style="fill: #1f77b4; stroke: #1f77b4"/>
     <use xlink:href="#macac1c92f3" x="209.938017" y="370.607568" style="fill: #1f77b4; stroke: #1f77b4"/>
     <use xlink:href="#macac1c92f3" x="281.993802" y="352.052853" style="fill: #1f77b4; stroke: #1f77b4"/>
     <use xlink:href="#macac1c92f3" x="498.161157" y="323.123845" style="fill: #1f77b4; stroke: #1f77b4"/>
    </g>
   </g>
   <g id="line2d_13">
    <path d="M 152.293388 298.791828 
L 173.910124 264.624996 
L 209.938017 245.41637 
L 281.993802 237.487703 
L 498.161157 239.34154 
" clip-path="url(#pd8c563cb38)" style="fill: none; stroke: #ff7f0e; stroke-width: 1.5; stroke-linecap: square"/>
    <defs>
     <path id="m04b12c6dc7" d="M 0 3 
C 0.795609 3 1.55874 2.683901 2.12132 2.12132 
C 2.683901 1.55874 3 0.795609 3 0 
C 3 -0.795609 2.683901 -1.55874 2.12132 -2.12132 
C 1.55874 -2.683901 0.795609 -3 0 -3 
C -0.795609 -3 -1.55874 -2.683901 -2.12132 -2.12132 
C -2.683901 -1.55874 -3 -0.795609 -3 0 
C -3 0.795609 -2.683901 1.55874 -2.12132 2.12132 
C -1.55874 2.683901 -0.795609 3 0 3 
z
" style="stroke: #ff7f0e"/>
    </defs>
    <g clip-path="url(#pd8c563cb38)">
     <use xlink:href="#m04b12c6dc7" x="152.293388" y="298.791828" style="fill: #ff7f0e; stroke: #ff7f0e"/>
     <use xlink:href="#m04b12c6dc7" x="173.910124" y="264.624996" style="fill: #ff7f0e; stroke: #ff7f0e"/>
     <use xlink:href="#m04b12c6dc7" x="209.938017" y="245.41637" style="fill: #ff7f0e; stroke: #ff7f0e"/>
     <use xlink:href="#m04b12c6dc7" x="281.993802" y="237.487703" style="fill: #ff7f0e; stroke: #ff7f0e"/>
     <use xlink:href="#m04b12c6dc7" x="498.161157" y="239.34154" style="fill: #ff7f0e; stroke: #ff7f0e"/>
    </g>
   </g>
   <g id="line2d_14">
    <path d="M 152.293388 344.320359 
L 173.910124 294.410627 
L 209.938017 262.140135 
L 281.993802 242.686293 
L 498.161157 243.049213 
" clip-path="url(#pd8c563cb38)" style="fill: none; stroke: #2ca02c; stroke-width: 1.5; stroke-linecap: square"/>
    <defs>
     <path id="mdd0c8ba7e4" d="M 0 3 
C 0.795609 3 1.55874 2.683901 2.12132 2.12132 
C 2.683901 1.55874 3 0.795609 3 0 
C 3 -0.795609 2.683901 -1.55874 2.12132 -2.12132 
C 1.55874 -2.683901 0.795609 -3 0 -3 
C -0.795609 -3 -1.55874 -2.683901 -2.12132 -2.12132 
C -2.683901 -1.55874 -3 -0.795609 -3 0 
C -3 0.795609 -2.683901 1.55874 -2.12132 2.12132 
C -1.55874 2.683901 -0.795609 3 0 3 
z
" style="stroke: #2ca02c"/>
    </defs>
    <g clip-path="url(#pd8c563cb38)">
     <use xlink:href="#mdd0c8ba7e4" x="152.293388" y="344.320359" style="fill: #2ca02c; stroke: #2ca02c"/>
     <use xlink:href="#mdd0c8ba7e4" x="173.910124" y="294.410627" style="fill: #2ca02c; stroke: #2ca02c"/>
     <use xlink:href="#mdd0c8ba7e4" x="209.938017" y="262.140135" style="fill: #2ca02c; stroke: #2ca02c"/>
     <use xlink:href="#mdd0c8ba7e4" x="281.993802" y="242.686293" style="fill: #2ca02c; stroke: #2ca02c"/>
     <use xlink:href="#mdd0c8ba7e4" x="498.161157" y="243.049213" style="fill: #2ca02c; stroke: #2ca02c"/>
    </g>
   </g>
   <g id="line2d_15">
    <path d="M 152.293388 334.593438 
L 173.910124 298.007136 
L 209.938017 267.060813 
L 281.993802 243.348377 
L 498.161157 245.818525 
" clip-path="url(#pd8c563cb38)" style="fill: none; stroke: #d62728; stroke-width: 1.5; stroke-linecap: square"/>
    <defs>
     <path id="m5898fe189d" d="M 0 3 
C 0.795609 3 1.55874 2.683901 2.12132 2.12132 
C 2.683901 1.55874 3 0.795609 3 0 
C 3 -0.795609 2.683901 -1.55874 2.12132 -2.12132 
C 1.55874 -2.683901 0.795609 -3 0 -3 
C -0.795609 -3 -1.55874 -2.683901 -2.12132 -2.12132 
C -2.683901 -1.55874 -3 -0.795609 -3 0 
C -3 0.795609 -2.683901 1.55874 -2.12132 2.12132 
C -1.55874 2.683901 -0.795609 3 0 3 
z
" style="stroke: #d62728"/>
    </defs>
    <g clip-path="url(#pd8c563cb38)">
     <use xlink:href="#m5898fe189d" x="152.293388" y="334.593438" style="fill: #d62728; stroke: #d62728"/>
     <use xlink:href="#m5898fe189d" x="173.910124" y="298.007136" style="fill: #d62728; stroke: #d62728"/>
     <use xlink:href="#m5898fe189d" x="209.938017" y="267.060813" style="fill: #d62728; stroke: #d62728"/>
     <use xlink:href="#m5898fe189d" x="281.993802" y="243.348377" style="fill: #d62728; stroke: #d62728"/>
     <use xlink:href="#m5898fe189d" x="498.161157" y="245.818525" style="fill: #d62728; stroke: #d62728"/>
    </g>
   </g>
   <g id="patch_3">
    <path d="M 135 418.130526 
L 135 155.52 
" style="fill: none; stroke: #000000; stroke-width: 0.8; stroke-linejoin: miter; stroke-linecap: square"/>
   </g>
   <g id="patch_4">
    <path d="M 515.454545 418.130526 
L 515.454545 155.52 
" style="fill: none; stroke: #000000; stroke-width: 0.8; stroke-linejoin: miter; stroke-linecap: square"/>
   </g>
   <g id="patch_5">
    <path d="M 135 418.130526 
L 515.454545 418.130526 
" style="fill: none; stroke: #000000; stroke-width: 0.8; stroke-linejoin: miter; stroke-linecap: square"/>
   </g>
   <g id="patch_6">
    <path d="M 135 155.52 
L 515.454545 155.52 
" style="fill: none; stroke: #000000; stroke-width: 0.8; stroke-linejoin: miter; stroke-linecap: square"/>
   </g>
   <g id="text_14">
    <!-- a -->
    <g transform="translate(89.472557 137.404046) scale(0.28 -0.28)">
     <defs>
      <path id="DejaVuSans-Bold-61" d="M 2106 1575 
Q 1756 1575 1579 1456 
Q 1403 1338 1403 1106 
Q 1403 894 1545 773 
Q 1688 653 1941 653 
Q 2256 653 2472 879 
Q 2688 1106 2688 1447 
L 2688 1575 
L 2106 1575 
z
M 3816 1997 
L 3816 0 
L 2688 0 
L 2688 519 
Q 2463 200 2181 54 
Q 1900 -91 1497 -91 
Q 953 -91 614 226 
Q 275 544 275 1050 
Q 275 1666 698 1953 
Q 1122 2241 2028 2241 
L 2688 2241 
L 2688 2328 
Q 2688 2594 2478 2717 
Q 2269 2841 1825 2841 
Q 1466 2841 1156 2769 
Q 847 2697 581 2553 
L 581 3406 
Q 941 3494 1303 3539 
Q 1666 3584 2028 3584 
Q 2975 3584 3395 3211 
Q 3816 2838 3816 1997 
z
" transform="scale(0.015625)"/>
     </defs>
     <use xlink:href="#DejaVuSans-Bold-61"/>
    </g>
   </g>
   <g id="text_15">
    <!-- $P_{NN}$ -->
    <g transform="translate(303.387273 149.52) scale(0.26 -0.26)">
     <use xlink:href="#DejaVuSans-Oblique-50" transform="translate(0 0.09375)"/>
     <use xlink:href="#DejaVuSans-Oblique-4e" transform="translate(60.302734 -16.3125) scale(0.7)"/>
     <use xlink:href="#DejaVuSans-Oblique-4e" transform="translate(112.666016 -16.3125) scale(0.7)"/>
    </g>
   </g>
  </g>
  <g id="axes_2">
   <g id="patch_7">
    <path d="M 591.545455 418.130526 
L 972 418.130526 
L 972 155.52 
L 591.545455 155.52 
z
" style="fill: #ffffff"/>
   </g>
   <g id="patch_8">
    <path d="M 608.838843 418.130526 
L 628.792753 418.130526 
L 628.792753 174.029671 
L 608.838843 174.029671 
z
" clip-path="url(#p4d53264da3)" style="fill: #1f77b4"/>
   </g>
   <g id="patch_9">
    <path d="M 741.864908 418.130526 
L 761.818818 418.130526 
L 761.818818 320.671839 
L 741.864908 320.671839 
z
" clip-path="url(#p4d53264da3)" style="fill: #1f77b4"/>
   </g>
   <g id="patch_10">
    <path d="M 874.890973 418.130526 
L 894.844882 418.130526 
L 894.844882 168.025263 
L 874.890973 168.025263 
z
" clip-path="url(#p4d53264da3)" style="fill: #1f77b4"/>
   </g>
   <g id="patch_11">
    <path d="M 628.792753 418.130526 
L 648.746662 418.130526 
L 648.746662 175.215307 
L 628.792753 175.215307 
z
" clip-path="url(#p4d53264da3)" style="fill: #ff7f0e"/>
   </g>
   <g id="patch_12">
    <path d="M 761.818818 418.130526 
L 781.772727 418.130526 
L 781.772727 217.129338 
L 761.818818 217.129338 
z
" clip-path="url(#p4d53264da3)" style="fill: #ff7f0e"/>
   </g>
   <g id="patch_13">
    <path d="M 894.844882 418.130526 
L 914.798792 418.130526 
L 914.798792 174.564615 
L 894.844882 174.564615 
z
" clip-path="url(#p4d53264da3)" style="fill: #ff7f0e"/>
   </g>
   <g id="patch_14">
    <path d="M 648.746662 418.130526 
L 668.700572 418.130526 
L 668.700572 172.94786 
L 648.746662 172.94786 
z
" clip-path="url(#p4d53264da3)" style="fill: #2ca02c"/>
   </g>
   <g id="patch_15">
    <path d="M 781.772727 418.130526 
L 801.726637 418.130526 
L 801.726637 234.742871 
L 781.772727 234.742871 
z
" clip-path="url(#p4d53264da3)" style="fill: #2ca02c"/>
   </g>
   <g id="patch_16">
    <path d="M 914.798792 418.130526 
L 934.752702 418.130526 
L 934.752702 172.007064 
L 914.798792 172.007064 
z
" clip-path="url(#p4d53264da3)" style="fill: #2ca02c"/>
   </g>
   <g id="patch_17">
    <path d="M 668.700572 418.130526 
L 688.654482 418.130526 
L 688.654482 177.222688 
L 668.700572 177.222688 
z
" clip-path="url(#p4d53264da3)" style="fill: #d62728"/>
   </g>
   <g id="patch_18">
    <path d="M 801.726637 418.130526 
L 821.680547 418.130526 
L 821.680547 235.88274 
L 801.726637 235.88274 
z
" clip-path="url(#p4d53264da3)" style="fill: #d62728"/>
   </g>
   <g id="patch_19">
    <path d="M 934.752702 418.130526 
L 954.706612 418.130526 
L 954.706612 176.32915 
L 934.752702 176.32915 
z
" clip-path="url(#p4d53264da3)" style="fill: #d62728"/>
   </g>
   <g id="matplotlib.axis_3">
    <g id="xtick_7">
     <g id="line2d_16">
      <g>
       <use xlink:href="#m722da22725" x="648.746662" y="418.130526" style="stroke: #000000; stroke-width: 0.8"/>
      </g>
     </g>
     <g id="text_16">
      <!-- AUC -->
      <g transform="translate(625.490256 441.847089) scale(0.22 -0.22)">
       <defs>
        <path id="DejaVuSans-41" d="M 2188 4044 
L 1331 1722 
L 3047 1722 
L 2188 4044 
z
M 1831 4666 
L 2547 4666 
L 4325 0 
L 3669 0 
L 3244 1197 
L 1141 1197 
L 716 0 
L 50 0 
L 1831 4666 
z
" transform="scale(0.015625)"/>
        <path id="DejaVuSans-55" d="M 556 4666 
L 1191 4666 
L 1191 1831 
Q 1191 1081 1462 751 
Q 1734 422 2344 422 
Q 2950 422 3222 751 
Q 3494 1081 3494 1831 
L 3494 4666 
L 4128 4666 
L 4128 1753 
Q 4128 841 3676 375 
Q 3225 -91 2344 -91 
Q 1459 -91 1007 375 
Q 556 841 556 1753 
L 556 4666 
z
" transform="scale(0.015625)"/>
        <path id="DejaVuSans-43" d="M 4122 4306 
L 4122 3641 
Q 3803 3938 3442 4084 
Q 3081 4231 2675 4231 
Q 1875 4231 1450 3742 
Q 1025 3253 1025 2328 
Q 1025 1406 1450 917 
Q 1875 428 2675 428 
Q 3081 428 3442 575 
Q 3803 722 4122 1019 
L 4122 359 
Q 3791 134 3420 21 
Q 3050 -91 2638 -91 
Q 1578 -91 968 557 
Q 359 1206 359 2328 
Q 359 3453 968 4101 
Q 1578 4750 2638 4750 
Q 3056 4750 3426 4639 
Q 3797 4528 4122 4306 
z
" transform="scale(0.015625)"/>
       </defs>
       <use xlink:href="#DejaVuSans-41"/>
       <use xlink:href="#DejaVuSans-55" x="68.408203"/>
       <use xlink:href="#DejaVuSans-43" x="141.601562"/>
      </g>
     </g>
    </g>
    <g id="xtick_8">
     <g id="line2d_17">
      <g>
       <use xlink:href="#m722da22725" x="781.772727" y="418.130526" style="stroke: #000000; stroke-width: 0.8"/>
      </g>
     </g>
     <g id="text_17">
      <!-- $Q_{local}$ -->
      <g transform="translate(754.822727 441.847089) scale(0.22 -0.22)">
       <defs>
        <path id="DejaVuSans-Oblique-51" d="M 2309 -84 
Q 2275 -88 2237 -89 
Q 2200 -91 2125 -91 
Q 1250 -91 756 411 
Q 263 913 263 1797 
Q 263 2319 452 2844 
Q 641 3369 978 3788 
Q 1369 4269 1858 4509 
Q 2347 4750 2938 4750 
Q 3794 4750 4287 4245 
Q 4781 3741 4781 2869 
Q 4781 1928 4265 1147 
Q 3750 366 2919 44 
L 3553 -825 
L 2847 -825 
L 2309 -84 
z
M 2919 4238 
Q 2400 4238 2003 3986 
Q 1606 3734 1313 3219 
Q 1125 2891 1026 2522 
Q 928 2153 928 1778 
Q 928 1128 1239 775 
Q 1550 422 2119 422 
Q 2631 422 3032 676 
Q 3434 931 3719 1434 
Q 3909 1772 4009 2142 
Q 4109 2513 4109 2881 
Q 4109 3528 3796 3883 
Q 3484 4238 2919 4238 
z
" transform="scale(0.015625)"/>
        <path id="DejaVuSans-Oblique-6c" d="M 1172 4863 
L 1747 4863 
L 800 0 
L 225 0 
L 1172 4863 
z
" transform="scale(0.015625)"/>
        <path id="DejaVuSans-Oblique-6f" d="M 1625 -91 
Q 1009 -91 651 289 
Q 294 669 294 1325 
Q 294 1706 417 2101 
Q 541 2497 738 2766 
Q 1047 3184 1428 3384 
Q 1809 3584 2291 3584 
Q 2888 3584 3255 3212 
Q 3622 2841 3622 2241 
Q 3622 1825 3500 1412 
Q 3378 1000 3181 728 
Q 2875 309 2494 109 
Q 2113 -91 1625 -91 
z
M 891 1344 
Q 891 869 1089 633 
Q 1288 397 1691 397 
Q 2269 397 2648 901 
Q 3028 1406 3028 2181 
Q 3028 2634 2825 2865 
Q 2622 3097 2228 3097 
Q 1903 3097 1650 2945 
Q 1397 2794 1197 2484 
Q 1050 2253 970 1956 
Q 891 1659 891 1344 
z
" transform="scale(0.015625)"/>
        <path id="DejaVuSans-Oblique-63" d="M 3431 3366 
L 3316 2797 
Q 3109 2947 2876 3022 
Q 2644 3097 2394 3097 
Q 2119 3097 1870 3000 
Q 1622 2903 1453 2725 
Q 1184 2453 1037 2087 
Q 891 1722 891 1331 
Q 891 859 1127 628 
Q 1363 397 1844 397 
Q 2081 397 2348 469 
Q 2616 541 2906 684 
L 2797 116 
Q 2547 13 2283 -39 
Q 2019 -91 1741 -91 
Q 1044 -91 669 257 
Q 294 606 294 1253 
Q 294 1797 489 2255 
Q 684 2713 1069 3078 
Q 1331 3328 1684 3456 
Q 2038 3584 2456 3584 
Q 2700 3584 2940 3529 
Q 3181 3475 3431 3366 
z
" transform="scale(0.015625)"/>
        <path id="DejaVuSans-Oblique-61" d="M 3438 1997 
L 3047 0 
L 2472 0 
L 2578 531 
Q 2325 219 2001 64 
Q 1678 -91 1281 -91 
Q 834 -91 548 182 
Q 263 456 263 884 
Q 263 1497 752 1853 
Q 1241 2209 2100 2209 
L 2900 2209 
L 2931 2363 
Q 2938 2388 2941 2417 
Q 2944 2447 2944 2509 
Q 2944 2788 2717 2942 
Q 2491 3097 2081 3097 
Q 1800 3097 1504 3025 
Q 1209 2953 897 2809 
L 997 3341 
Q 1322 3463 1633 3523 
Q 1944 3584 2234 3584 
Q 2853 3584 3176 3315 
Q 3500 3047 3500 2534 
Q 3500 2431 3484 2292 
Q 3469 2153 3438 1997 
z
M 2816 1759 
L 2241 1759 
Q 1534 1759 1195 1570 
Q 856 1381 856 984 
Q 856 709 1029 553 
Q 1203 397 1509 397 
Q 1978 397 2328 733 
Q 2678 1069 2791 1631 
L 2816 1759 
z
" transform="scale(0.015625)"/>
       </defs>
       <use xlink:href="#DejaVuSans-Oblique-51" transform="translate(0 0.78125)"/>
       <use xlink:href="#DejaVuSans-Oblique-6c" transform="translate(78.710938 -15.625) scale(0.7)"/>
       <use xlink:href="#DejaVuSans-Oblique-6f" transform="translate(98.15918 -15.625) scale(0.7)"/>
       <use xlink:href="#DejaVuSans-Oblique-63" transform="translate(140.986328 -15.625) scale(0.7)"/>
       <use xlink:href="#DejaVuSans-Oblique-61" transform="translate(179.472656 -15.625) scale(0.7)"/>
       <use xlink:href="#DejaVuSans-Oblique-6c" transform="translate(222.368164 -15.625) scale(0.7)"/>
      </g>
     </g>
    </g>
    <g id="xtick_9">
     <g id="line2d_18">
      <g>
       <use xlink:href="#m722da22725" x="914.798792" y="418.130526" style="stroke: #000000; stroke-width: 0.8"/>
      </g>
     </g>
     <g id="text_18">
      <!-- $Q_{global}$ -->
      <g transform="translate(882.348792 441.630526) scale(0.22 -0.22)">
       <defs>
        <path id="DejaVuSans-Oblique-67" d="M 3816 3500 
L 3219 434 
Q 3047 -456 2561 -893 
Q 2075 -1331 1253 -1331 
Q 950 -1331 690 -1286 
Q 431 -1241 206 -1147 
L 313 -588 
Q 525 -725 762 -790 
Q 1000 -856 1269 -856 
Q 1816 -856 2167 -557 
Q 2519 -259 2631 300 
L 2681 563 
Q 2441 288 2122 144 
Q 1803 0 1434 0 
Q 903 0 598 351 
Q 294 703 294 1319 
Q 294 1803 478 2267 
Q 663 2731 997 3091 
Q 1219 3328 1514 3456 
Q 1809 3584 2131 3584 
Q 2484 3584 2746 3420 
Q 3009 3256 3138 2956 
L 3238 3500 
L 3816 3500 
z
M 2950 2216 
Q 2950 2641 2750 2872 
Q 2550 3103 2181 3103 
Q 1953 3103 1747 3012 
Q 1541 2922 1394 2759 
Q 1156 2491 1023 2127 
Q 891 1763 891 1375 
Q 891 944 1092 712 
Q 1294 481 1672 481 
Q 2219 481 2584 976 
Q 2950 1472 2950 2216 
z
" transform="scale(0.015625)"/>
        <path id="DejaVuSans-Oblique-62" d="M 3169 2138 
Q 3169 2591 2961 2847 
Q 2753 3103 2388 3103 
Q 2122 3103 1889 2973 
Q 1656 2844 1484 2597 
Q 1303 2338 1198 1995 
Q 1094 1653 1094 1313 
Q 1094 881 1298 636 
Q 1503 391 1863 391 
Q 2134 391 2365 517 
Q 2597 644 2772 891 
Q 2950 1147 3059 1487 
Q 3169 1828 3169 2138 
z
M 1381 2969 
Q 1594 3256 1914 3420 
Q 2234 3584 2584 3584 
Q 3122 3584 3439 3221 
Q 3756 2859 3756 2241 
Q 3756 1734 3570 1259 
Q 3384 784 3041 416 
Q 2816 172 2522 40 
Q 2228 -91 1906 -91 
Q 1566 -91 1316 65 
Q 1066 222 909 531 
L 806 0 
L 231 0 
L 1178 4863 
L 1753 4863 
L 1381 2969 
z
" transform="scale(0.015625)"/>
       </defs>
       <use xlink:href="#DejaVuSans-Oblique-51" transform="translate(0 0.78125)"/>
       <use xlink:href="#DejaVuSans-Oblique-67" transform="translate(78.710938 -15.625) scale(0.7)"/>
       <use xlink:href="#DejaVuSans-Oblique-6c" transform="translate(123.144531 -15.625) scale(0.7)"/>
       <use xlink:href="#DejaVuSans-Oblique-6f" transform="translate(142.592773 -15.625) scale(0.7)"/>
       <use xlink:href="#DejaVuSans-Oblique-62" transform="translate(185.419922 -15.625) scale(0.7)"/>
       <use xlink:href="#DejaVuSans-Oblique-61" transform="translate(229.853516 -15.625) scale(0.7)"/>
       <use xlink:href="#DejaVuSans-Oblique-6c" transform="translate(272.749023 -15.625) scale(0.7)"/>
      </g>
     </g>
    </g>
   </g>
   <g id="matplotlib.axis_4">
    <g id="ytick_6">
     <g id="line2d_19">
      <g>
       <use xlink:href="#m7b67b309bd" x="591.545455" y="418.130526" style="stroke: #000000; stroke-width: 0.8"/>
      </g>
     </g>
     <g id="text_19">
      <!-- 0.0 -->
      <g transform="translate(549.55858 426.488808) scale(0.22 -0.22)">
       <use xlink:href="#DejaVuSans-30"/>
       <use xlink:href="#DejaVuSans-2e" x="63.623047"/>
       <use xlink:href="#DejaVuSans-30" x="95.410156"/>
      </g>
     </g>
    </g>
    <g id="ytick_7">
     <g id="line2d_20">
      <g>
       <use xlink:href="#m7b67b309bd" x="591.545455" y="340.080953" style="stroke: #000000; stroke-width: 0.8"/>
      </g>
     </g>
     <g id="text_20">
      <!-- 0.2 -->
      <g transform="translate(549.55858 348.439234) scale(0.22 -0.22)">
       <use xlink:href="#DejaVuSans-30"/>
       <use xlink:href="#DejaVuSans-2e" x="63.623047"/>
       <use xlink:href="#DejaVuSans-32" x="95.410156"/>
      </g>
     </g>
    </g>
    <g id="ytick_8">
     <g id="line2d_21">
      <g>
       <use xlink:href="#m7b67b309bd" x="591.545455" y="262.03138" style="stroke: #000000; stroke-width: 0.8"/>
      </g>
     </g>
     <g id="text_21">
      <!-- 0.4 -->
      <g transform="translate(549.55858 270.389661) scale(0.22 -0.22)">
       <use xlink:href="#DejaVuSans-30"/>
       <use xlink:href="#DejaVuSans-2e" x="63.623047"/>
       <use xlink:href="#DejaVuSans-34" x="95.410156"/>
      </g>
     </g>
    </g>
    <g id="ytick_9">
     <g id="line2d_22">
      <g>
       <use xlink:href="#m7b67b309bd" x="591.545455" y="183.981807" style="stroke: #000000; stroke-width: 0.8"/>
      </g>
     </g>
     <g id="text_22">
      <!-- 0.6 -->
      <g transform="translate(549.55858 192.340088) scale(0.22 -0.22)">
       <use xlink:href="#DejaVuSans-30"/>
       <use xlink:href="#DejaVuSans-2e" x="63.623047"/>
       <use xlink:href="#DejaVuSans-36" x="95.410156"/>
      </g>
     </g>
    </g>
    <g id="text_23">
     <!-- Metric Value -->
     <g transform="translate(540.983267 354.727919) rotate(-90) scale(0.22 -0.22)">
      <defs>
       <path id="DejaVuSans-4d" d="M 628 4666 
L 1569 4666 
L 2759 1491 
L 3956 4666 
L 4897 4666 
L 4897 0 
L 4281 0 
L 4281 4097 
L 3078 897 
L 2444 897 
L 1241 4097 
L 1241 0 
L 628 0 
L 628 4666 
z
" transform="scale(0.015625)"/>
       <path id="DejaVuSans-65" d="M 3597 1894 
L 3597 1613 
L 953 1613 
Q 991 1019 1311 708 
Q 1631 397 2203 397 
Q 2534 397 2845 478 
Q 3156 559 3463 722 
L 3463 178 
Q 3153 47 2828 -22 
Q 2503 -91 2169 -91 
Q 1331 -91 842 396 
Q 353 884 353 1716 
Q 353 2575 817 3079 
Q 1281 3584 2069 3584 
Q 2775 3584 3186 3129 
Q 3597 2675 3597 1894 
z
M 3022 2063 
Q 3016 2534 2758 2815 
Q 2500 3097 2075 3097 
Q 1594 3097 1305 2825 
Q 1016 2553 972 2059 
L 3022 2063 
z
" transform="scale(0.015625)"/>
       <path id="DejaVuSans-74" d="M 1172 4494 
L 1172 3500 
L 2356 3500 
L 2356 3053 
L 1172 3053 
L 1172 1153 
Q 1172 725 1289 603 
Q 1406 481 1766 481 
L 2356 481 
L 2356 0 
L 1766 0 
Q 1100 0 847 248 
Q 594 497 594 1153 
L 594 3053 
L 172 3053 
L 172 3500 
L 594 3500 
L 594 4494 
L 1172 4494 
z
" transform="scale(0.015625)"/>
       <path id="DejaVuSans-72" d="M 2631 2963 
Q 2534 3019 2420 3045 
Q 2306 3072 2169 3072 
Q 1681 3072 1420 2755 
Q 1159 2438 1159 1844 
L 1159 0 
L 581 0 
L 581 3500 
L 1159 3500 
L 1159 2956 
Q 1341 3275 1631 3429 
Q 1922 3584 2338 3584 
Q 2397 3584 2469 3576 
Q 2541 3569 2628 3553 
L 2631 2963 
z
" transform="scale(0.015625)"/>
       <path id="DejaVuSans-69" d="M 603 3500 
L 1178 3500 
L 1178 0 
L 603 0 
L 603 3500 
z
M 603 4863 
L 1178 4863 
L 1178 4134 
L 603 4134 
L 603 4863 
z
" transform="scale(0.015625)"/>
       <path id="DejaVuSans-63" d="M 3122 3366 
L 3122 2828 
Q 2878 2963 2633 3030 
Q 2388 3097 2138 3097 
Q 1578 3097 1268 2742 
Q 959 2388 959 1747 
Q 959 1106 1268 751 
Q 1578 397 2138 397 
Q 2388 397 2633 464 
Q 2878 531 3122 666 
L 3122 134 
Q 2881 22 2623 -34 
Q 2366 -91 2075 -91 
Q 1284 -91 818 406 
Q 353 903 353 1747 
Q 353 2603 823 3093 
Q 1294 3584 2113 3584 
Q 2378 3584 2631 3529 
Q 2884 3475 3122 3366 
z
" transform="scale(0.015625)"/>
       <path id="DejaVuSans-20" transform="scale(0.015625)"/>
       <path id="DejaVuSans-56" d="M 1831 0 
L 50 4666 
L 709 4666 
L 2188 738 
L 3669 4666 
L 4325 4666 
L 2547 0 
L 1831 0 
z
" transform="scale(0.015625)"/>
       <path id="DejaVuSans-61" d="M 2194 1759 
Q 1497 1759 1228 1600 
Q 959 1441 959 1056 
Q 959 750 1161 570 
Q 1363 391 1709 391 
Q 2188 391 2477 730 
Q 2766 1069 2766 1631 
L 2766 1759 
L 2194 1759 
z
M 3341 1997 
L 3341 0 
L 2766 0 
L 2766 531 
Q 2569 213 2275 61 
Q 1981 -91 1556 -91 
Q 1019 -91 701 211 
Q 384 513 384 1019 
Q 384 1609 779 1909 
Q 1175 2209 1959 2209 
L 2766 2209 
L 2766 2266 
Q 2766 2663 2505 2880 
Q 2244 3097 1772 3097 
Q 1472 3097 1187 3025 
Q 903 2953 641 2809 
L 641 3341 
Q 956 3463 1253 3523 
Q 1550 3584 1831 3584 
Q 2591 3584 2966 3190 
Q 3341 2797 3341 1997 
z
" transform="scale(0.015625)"/>
       <path id="DejaVuSans-6c" d="M 603 4863 
L 1178 4863 
L 1178 0 
L 603 0 
L 603 4863 
z
" transform="scale(0.015625)"/>
       <path id="DejaVuSans-75" d="M 544 1381 
L 544 3500 
L 1119 3500 
L 1119 1403 
Q 1119 906 1312 657 
Q 1506 409 1894 409 
Q 2359 409 2629 706 
Q 2900 1003 2900 1516 
L 2900 3500 
L 3475 3500 
L 3475 0 
L 2900 0 
L 2900 538 
Q 2691 219 2414 64 
Q 2138 -91 1772 -91 
Q 1169 -91 856 284 
Q 544 659 544 1381 
z
M 1991 3584 
L 1991 3584 
z
" transform="scale(0.015625)"/>
      </defs>
      <use xlink:href="#DejaVuSans-4d"/>
      <use xlink:href="#DejaVuSans-65" x="86.279297"/>
      <use xlink:href="#DejaVuSans-74" x="147.802734"/>
      <use xlink:href="#DejaVuSans-72" x="187.011719"/>
      <use xlink:href="#DejaVuSans-69" x="228.125"/>
      <use xlink:href="#DejaVuSans-63" x="255.908203"/>
      <use xlink:href="#DejaVuSans-20" x="310.888672"/>
      <use xlink:href="#DejaVuSans-56" x="342.675781"/>
      <use xlink:href="#DejaVuSans-61" x="403.333984"/>
      <use xlink:href="#DejaVuSans-6c" x="464.613281"/>
      <use xlink:href="#DejaVuSans-75" x="492.396484"/>
      <use xlink:href="#DejaVuSans-65" x="555.775391"/>
     </g>
    </g>
   </g>
   <g id="patch_20">
    <path d="M 591.545455 418.130526 
L 591.545455 155.52 
" style="fill: none; stroke: #000000; stroke-width: 0.8; stroke-linejoin: miter; stroke-linecap: square"/>
   </g>
   <g id="patch_21">
    <path d="M 972 418.130526 
L 972 155.52 
" style="fill: none; stroke: #000000; stroke-width: 0.8; stroke-linejoin: miter; stroke-linecap: square"/>
   </g>
   <g id="patch_22">
    <path d="M 591.545455 418.130526 
L 972 418.130526 
" style="fill: none; stroke: #000000; stroke-width: 0.8; stroke-linejoin: miter; stroke-linecap: square"/>
   </g>
   <g id="patch_23">
    <path d="M 591.545455 155.52 
L 972 155.52 
" style="fill: none; stroke: #000000; stroke-width: 0.8; stroke-linejoin: miter; stroke-linecap: square"/>
   </g>
   <g id="text_24">
    <!-- b -->
    <g transform="translate(544.871761 137.404046) scale(0.28 -0.28)">
     <defs>
      <path id="DejaVuSans-Bold-62" d="M 2400 722 
Q 2759 722 2948 984 
Q 3138 1247 3138 1747 
Q 3138 2247 2948 2509 
Q 2759 2772 2400 2772 
Q 2041 2772 1848 2508 
Q 1656 2244 1656 1747 
Q 1656 1250 1848 986 
Q 2041 722 2400 722 
z
M 1656 2988 
Q 1888 3294 2169 3439 
Q 2450 3584 2816 3584 
Q 3463 3584 3878 3070 
Q 4294 2556 4294 1747 
Q 4294 938 3878 423 
Q 3463 -91 2816 -91 
Q 2450 -91 2169 54 
Q 1888 200 1656 506 
L 1656 0 
L 538 0 
L 538 4863 
L 1656 4863 
L 1656 2988 
z
" transform="scale(0.015625)"/>
     </defs>
     <use xlink:href="#DejaVuSans-Bold-62"/>
    </g>
   </g>
   <g id="text_25">
    <!-- Metrics -->
    <g transform="translate(734.584759 149.52) scale(0.26 -0.26)">
     <defs>
      <path id="DejaVuSans-73" d="M 2834 3397 
L 2834 2853 
Q 2591 2978 2328 3040 
Q 2066 3103 1784 3103 
Q 1356 3103 1142 2972 
Q 928 2841 928 2578 
Q 928 2378 1081 2264 
Q 1234 2150 1697 2047 
L 1894 2003 
Q 2506 1872 2764 1633 
Q 3022 1394 3022 966 
Q 3022 478 2636 193 
Q 2250 -91 1575 -91 
Q 1294 -91 989 -36 
Q 684 19 347 128 
L 347 722 
Q 666 556 975 473 
Q 1284 391 1588 391 
Q 1994 391 2212 530 
Q 2431 669 2431 922 
Q 2431 1156 2273 1281 
Q 2116 1406 1581 1522 
L 1381 1569 
Q 847 1681 609 1914 
Q 372 2147 372 2553 
Q 372 3047 722 3315 
Q 1072 3584 1716 3584 
Q 2034 3584 2315 3537 
Q 2597 3491 2834 3397 
z
" transform="scale(0.015625)"/>
     </defs>
     <use xlink:href="#DejaVuSans-4d"/>
     <use xlink:href="#DejaVuSans-65" x="86.279297"/>
     <use xlink:href="#DejaVuSans-74" x="147.802734"/>
     <use xlink:href="#DejaVuSans-72" x="187.011719"/>
     <use xlink:href="#DejaVuSans-69" x="228.125"/>
     <use xlink:href="#DejaVuSans-63" x="255.908203"/>
     <use xlink:href="#DejaVuSans-73" x="310.888672"/>
    </g>
   </g>
  </g>
  <g id="axes_3">
   <g id="patch_24">
    <path d="M 135 785.785263 
L 515.454545 785.785263 
L 515.454545 523.174737 
L 135 523.174737 
z
" style="fill: #ffffff"/>
   </g>
   <g id="matplotlib.axis_5">
    <g id="xtick_10">
     <g id="line2d_23">
      <g>
       <use xlink:href="#m722da22725" x="137.882231" y="785.785263" style="stroke: #000000; stroke-width: 0.8"/>
      </g>
     </g>
     <g id="text_26">
      <!-- 0 -->
      <g transform="translate(130.883481 809.501826) scale(0.22 -0.22)">
       <use xlink:href="#DejaVuSans-30"/>
      </g>
     </g>
    </g>
    <g id="xtick_11">
     <g id="line2d_24">
      <g>
       <use xlink:href="#m722da22725" x="281.993802" y="785.785263" style="stroke: #000000; stroke-width: 0.8"/>
      </g>
     </g>
     <g id="text_27">
      <!-- 20 -->
      <g transform="translate(267.996302 809.501826) scale(0.22 -0.22)">
       <use xlink:href="#DejaVuSans-32"/>
       <use xlink:href="#DejaVuSans-30" x="63.623047"/>
      </g>
     </g>
    </g>
    <g id="xtick_12">
     <g id="line2d_25">
      <g>
       <use xlink:href="#m722da22725" x="426.105372" y="785.785263" style="stroke: #000000; stroke-width: 0.8"/>
      </g>
     </g>
     <g id="text_28">
      <!-- 40 -->
      <g transform="translate(412.107872 809.501826) scale(0.22 -0.22)">
       <use xlink:href="#DejaVuSans-34"/>
       <use xlink:href="#DejaVuSans-30" x="63.623047"/>
      </g>
     </g>
    </g>
    <g id="text_29">
     <!-- k -->
     <g transform="translate(318.278523 836.313388) scale(0.24 -0.24)">
      <use xlink:href="#DejaVuSans-6b"/>
     </g>
    </g>
   </g>
   <g id="matplotlib.axis_6">
    <g id="ytick_10">
     <g id="line2d_26">
      <g>
       <use xlink:href="#m7b67b309bd" x="135" y="761.959849" style="stroke: #000000; stroke-width: 0.8"/>
      </g>
     </g>
     <g id="text_30">
      <!-- 0.80 -->
      <g transform="translate(79.015625 770.31813) scale(0.22 -0.22)">
       <use xlink:href="#DejaVuSans-30"/>
       <use xlink:href="#DejaVuSans-2e" x="63.623047"/>
       <use xlink:href="#DejaVuSans-38" x="95.410156"/>
       <use xlink:href="#DejaVuSans-30" x="159.033203"/>
      </g>
     </g>
    </g>
    <g id="ytick_11">
     <g id="line2d_27">
      <g>
       <use xlink:href="#m7b67b309bd" x="135" y="698.113424" style="stroke: #000000; stroke-width: 0.8"/>
      </g>
     </g>
     <g id="text_31">
      <!-- 0.85 -->
      <g transform="translate(79.015625 706.471705) scale(0.22 -0.22)">
       <use xlink:href="#DejaVuSans-30"/>
       <use xlink:href="#DejaVuSans-2e" x="63.623047"/>
       <use xlink:href="#DejaVuSans-38" x="95.410156"/>
       <use xlink:href="#DejaVuSans-35" x="159.033203"/>
      </g>
     </g>
    </g>
    <g id="ytick_12">
     <g id="line2d_28">
      <g>
       <use xlink:href="#m7b67b309bd" x="135" y="634.266998" style="stroke: #000000; stroke-width: 0.8"/>
      </g>
     </g>
     <g id="text_32">
      <!-- 0.90 -->
      <g transform="translate(79.015625 642.62528) scale(0.22 -0.22)">
       <defs>
        <path id="DejaVuSans-39" d="M 703 97 
L 703 672 
Q 941 559 1184 500 
Q 1428 441 1663 441 
Q 2288 441 2617 861 
Q 2947 1281 2994 2138 
Q 2813 1869 2534 1725 
Q 2256 1581 1919 1581 
Q 1219 1581 811 2004 
Q 403 2428 403 3163 
Q 403 3881 828 4315 
Q 1253 4750 1959 4750 
Q 2769 4750 3195 4129 
Q 3622 3509 3622 2328 
Q 3622 1225 3098 567 
Q 2575 -91 1691 -91 
Q 1453 -91 1209 -44 
Q 966 3 703 97 
z
M 1959 2075 
Q 2384 2075 2632 2365 
Q 2881 2656 2881 3163 
Q 2881 3666 2632 3958 
Q 2384 4250 1959 4250 
Q 1534 4250 1286 3958 
Q 1038 3666 1038 3163 
Q 1038 2656 1286 2365 
Q 1534 2075 1959 2075 
z
" transform="scale(0.015625)"/>
       </defs>
       <use xlink:href="#DejaVuSans-30"/>
       <use xlink:href="#DejaVuSans-2e" x="63.623047"/>
       <use xlink:href="#DejaVuSans-39" x="95.410156"/>
       <use xlink:href="#DejaVuSans-30" x="159.033203"/>
      </g>
     </g>
    </g>
    <g id="ytick_13">
     <g id="line2d_29">
      <g>
       <use xlink:href="#m7b67b309bd" x="135" y="570.420573" style="stroke: #000000; stroke-width: 0.8"/>
      </g>
     </g>
     <g id="text_33">
      <!-- 0.95 -->
      <g transform="translate(79.015625 578.778854) scale(0.22 -0.22)">
       <use xlink:href="#DejaVuSans-30"/>
       <use xlink:href="#DejaVuSans-2e" x="63.623047"/>
       <use xlink:href="#DejaVuSans-39" x="95.410156"/>
       <use xlink:href="#DejaVuSans-35" x="159.033203"/>
      </g>
     </g>
    </g>
    <g id="text_34">
     <!-- Metric Value -->
     <g transform="translate(70.024375 728.555625) rotate(-90) scale(0.24 -0.24)">
      <use xlink:href="#DejaVuSans-4d"/>
      <use xlink:href="#DejaVuSans-65" x="86.279297"/>
      <use xlink:href="#DejaVuSans-74" x="147.802734"/>
      <use xlink:href="#DejaVuSans-72" x="187.011719"/>
      <use xlink:href="#DejaVuSans-69" x="228.125"/>
      <use xlink:href="#DejaVuSans-63" x="255.908203"/>
      <use xlink:href="#DejaVuSans-20" x="310.888672"/>
      <use xlink:href="#DejaVuSans-56" x="342.675781"/>
      <use xlink:href="#DejaVuSans-61" x="403.333984"/>
      <use xlink:href="#DejaVuSans-6c" x="464.613281"/>
      <use xlink:href="#DejaVuSans-75" x="492.396484"/>
      <use xlink:href="#DejaVuSans-65" x="555.775391"/>
     </g>
    </g>
   </g>
   <g id="line2d_30">
    <path d="M 152.293388 769.661261 
L 173.910124 770.100205 
L 209.938017 769.93249 
L 281.993802 767.852927 
L 498.161157 773.848421 
" clip-path="url(#p9d8c650821)" style="fill: none; stroke: #1f77b4; stroke-width: 1.5; stroke-linecap: square"/>
    <g clip-path="url(#p9d8c650821)">
     <use xlink:href="#macac1c92f3" x="152.293388" y="769.661261" style="fill: #1f77b4; stroke: #1f77b4"/>
     <use xlink:href="#macac1c92f3" x="173.910124" y="770.100205" style="fill: #1f77b4; stroke: #1f77b4"/>
     <use xlink:href="#macac1c92f3" x="209.938017" y="769.93249" style="fill: #1f77b4; stroke: #1f77b4"/>
     <use xlink:href="#macac1c92f3" x="281.993802" y="767.852927" style="fill: #1f77b4; stroke: #1f77b4"/>
     <use xlink:href="#macac1c92f3" x="498.161157" y="773.848421" style="fill: #1f77b4; stroke: #1f77b4"/>
    </g>
   </g>
   <g id="line2d_31">
    <path d="M 152.293388 535.111579 
L 173.910124 547.375765 
L 209.938017 560.216386 
L 281.993802 583.903247 
L 498.161157 643.473904 
" clip-path="url(#p9d8c650821)" style="fill: none; stroke: #ff7f0e; stroke-width: 1.5; stroke-linecap: square"/>
    <g clip-path="url(#p9d8c650821)">
     <use xlink:href="#m04b12c6dc7" x="152.293388" y="535.111579" style="fill: #ff7f0e; stroke: #ff7f0e"/>
     <use xlink:href="#m04b12c6dc7" x="173.910124" y="547.375765" style="fill: #ff7f0e; stroke: #ff7f0e"/>
     <use xlink:href="#m04b12c6dc7" x="209.938017" y="560.216386" style="fill: #ff7f0e; stroke: #ff7f0e"/>
     <use xlink:href="#m04b12c6dc7" x="281.993802" y="583.903247" style="fill: #ff7f0e; stroke: #ff7f0e"/>
     <use xlink:href="#m04b12c6dc7" x="498.161157" y="643.473904" style="fill: #ff7f0e; stroke: #ff7f0e"/>
    </g>
   </g>
   <g id="line2d_32">
    <path d="M 152.293388 553.447157 
L 173.910124 555.770998 
L 209.938017 564.471069 
L 281.993802 585.368388 
L 498.161157 648.647254 
" clip-path="url(#p9d8c650821)" style="fill: none; stroke: #2ca02c; stroke-width: 1.5; stroke-linecap: square"/>
    <g clip-path="url(#p9d8c650821)">
     <use xlink:href="#mdd0c8ba7e4" x="152.293388" y="553.447157" style="fill: #2ca02c; stroke: #2ca02c"/>
     <use xlink:href="#mdd0c8ba7e4" x="173.910124" y="555.770998" style="fill: #2ca02c; stroke: #2ca02c"/>
     <use xlink:href="#mdd0c8ba7e4" x="209.938017" y="564.471069" style="fill: #2ca02c; stroke: #2ca02c"/>
     <use xlink:href="#mdd0c8ba7e4" x="281.993802" y="585.368388" style="fill: #2ca02c; stroke: #2ca02c"/>
     <use xlink:href="#mdd0c8ba7e4" x="498.161157" y="648.647254" style="fill: #2ca02c; stroke: #2ca02c"/>
    </g>
   </g>
   <g id="line2d_33">
    <path d="M 152.293388 545.382751 
L 173.910124 550.040145 
L 209.938017 557.95037 
L 281.993802 582.841235 
L 498.161157 641.066251 
" clip-path="url(#p9d8c650821)" style="fill: none; stroke: #d62728; stroke-width: 1.5; stroke-linecap: square"/>
    <g clip-path="url(#p9d8c650821)">
     <use xlink:href="#m5898fe189d" x="152.293388" y="545.382751" style="fill: #d62728; stroke: #d62728"/>
     <use xlink:href="#m5898fe189d" x="173.910124" y="550.040145" style="fill: #d62728; stroke: #d62728"/>
     <use xlink:href="#m5898fe189d" x="209.938017" y="557.95037" style="fill: #d62728; stroke: #d62728"/>
     <use xlink:href="#m5898fe189d" x="281.993802" y="582.841235" style="fill: #d62728; stroke: #d62728"/>
     <use xlink:href="#m5898fe189d" x="498.161157" y="641.066251" style="fill: #d62728; stroke: #d62728"/>
    </g>
   </g>
   <g id="patch_25">
    <path d="M 135 785.785263 
L 135 523.174737 
" style="fill: none; stroke: #000000; stroke-width: 0.8; stroke-linejoin: miter; stroke-linecap: square"/>
   </g>
   <g id="patch_26">
    <path d="M 515.454545 785.785263 
L 515.454545 523.174737 
" style="fill: none; stroke: #000000; stroke-width: 0.8; stroke-linejoin: miter; stroke-linecap: square"/>
   </g>
   <g id="patch_27">
    <path d="M 135 785.785263 
L 515.454545 785.785263 
" style="fill: none; stroke: #000000; stroke-width: 0.8; stroke-linejoin: miter; stroke-linecap: square"/>
   </g>
   <g id="patch_28">
    <path d="M 135 523.174737 
L 515.454545 523.174737 
" style="fill: none; stroke: #000000; stroke-width: 0.8; stroke-linejoin: miter; stroke-linecap: square"/>
   </g>
   <g id="text_35">
    <!-- c -->
    <g transform="translate(91.769432 505.058783) scale(0.28 -0.28)">
     <defs>
      <path id="DejaVuSans-Bold-63" d="M 3366 3391 
L 3366 2478 
Q 3138 2634 2908 2709 
Q 2678 2784 2431 2784 
Q 1963 2784 1702 2511 
Q 1441 2238 1441 1747 
Q 1441 1256 1702 982 
Q 1963 709 2431 709 
Q 2694 709 2930 787 
Q 3166 866 3366 1019 
L 3366 103 
Q 3103 6 2833 -42 
Q 2563 -91 2291 -91 
Q 1344 -91 809 395 
Q 275 881 275 1747 
Q 275 2613 809 3098 
Q 1344 3584 2291 3584 
Q 2566 3584 2833 3536 
Q 3100 3488 3366 3391 
z
" transform="scale(0.015625)"/>
     </defs>
     <use xlink:href="#DejaVuSans-Bold-63"/>
    </g>
   </g>
   <g id="text_36">
    <!-- Trustworthiness -->
    <g transform="translate(230.950398 517.174737) scale(0.24 -0.24)">
     <defs>
      <path id="DejaVuSans-54" d="M -19 4666 
L 3928 4666 
L 3928 4134 
L 2272 4134 
L 2272 0 
L 1638 0 
L 1638 4134 
L -19 4134 
L -19 4666 
z
" transform="scale(0.015625)"/>
      <path id="DejaVuSans-77" d="M 269 3500 
L 844 3500 
L 1563 769 
L 2278 3500 
L 2956 3500 
L 3675 769 
L 4391 3500 
L 4966 3500 
L 4050 0 
L 3372 0 
L 2619 2869 
L 1863 0 
L 1184 0 
L 269 3500 
z
" transform="scale(0.015625)"/>
      <path id="DejaVuSans-6f" d="M 1959 3097 
Q 1497 3097 1228 2736 
Q 959 2375 959 1747 
Q 959 1119 1226 758 
Q 1494 397 1959 397 
Q 2419 397 2687 759 
Q 2956 1122 2956 1747 
Q 2956 2369 2687 2733 
Q 2419 3097 1959 3097 
z
M 1959 3584 
Q 2709 3584 3137 3096 
Q 3566 2609 3566 1747 
Q 3566 888 3137 398 
Q 2709 -91 1959 -91 
Q 1206 -91 779 398 
Q 353 888 353 1747 
Q 353 2609 779 3096 
Q 1206 3584 1959 3584 
z
" transform="scale(0.015625)"/>
      <path id="DejaVuSans-68" d="M 3513 2113 
L 3513 0 
L 2938 0 
L 2938 2094 
Q 2938 2591 2744 2837 
Q 2550 3084 2163 3084 
Q 1697 3084 1428 2787 
Q 1159 2491 1159 1978 
L 1159 0 
L 581 0 
L 581 4863 
L 1159 4863 
L 1159 2956 
Q 1366 3272 1645 3428 
Q 1925 3584 2291 3584 
Q 2894 3584 3203 3211 
Q 3513 2838 3513 2113 
z
" transform="scale(0.015625)"/>
      <path id="DejaVuSans-6e" d="M 3513 2113 
L 3513 0 
L 2938 0 
L 2938 2094 
Q 2938 2591 2744 2837 
Q 2550 3084 2163 3084 
Q 1697 3084 1428 2787 
Q 1159 2491 1159 1978 
L 1159 0 
L 581 0 
L 581 3500 
L 1159 3500 
L 1159 2956 
Q 1366 3272 1645 3428 
Q 1925 3584 2291 3584 
Q 2894 3584 3203 3211 
Q 3513 2838 3513 2113 
z
" transform="scale(0.015625)"/>
     </defs>
     <use xlink:href="#DejaVuSans-54"/>
     <use xlink:href="#DejaVuSans-72" x="46.333984"/>
     <use xlink:href="#DejaVuSans-75" x="87.447266"/>
     <use xlink:href="#DejaVuSans-73" x="150.826172"/>
     <use xlink:href="#DejaVuSans-74" x="202.925781"/>
     <use xlink:href="#DejaVuSans-77" x="242.134766"/>
     <use xlink:href="#DejaVuSans-6f" x="323.921875"/>
     <use xlink:href="#DejaVuSans-72" x="385.103516"/>
     <use xlink:href="#DejaVuSans-74" x="426.216797"/>
     <use xlink:href="#DejaVuSans-68" x="465.425781"/>
     <use xlink:href="#DejaVuSans-69" x="528.804688"/>
     <use xlink:href="#DejaVuSans-6e" x="556.587891"/>
     <use xlink:href="#DejaVuSans-65" x="619.966797"/>
     <use xlink:href="#DejaVuSans-73" x="681.490234"/>
     <use xlink:href="#DejaVuSans-73" x="733.589844"/>
    </g>
   </g>
  </g>
  <g id="axes_4">
   <g id="patch_29">
    <path d="M 591.545455 785.785263 
L 972 785.785263 
L 972 523.174737 
L 591.545455 523.174737 
z
" style="fill: #ffffff"/>
   </g>
   <g id="matplotlib.axis_7">
    <g id="xtick_13">
     <g id="line2d_34">
      <g>
       <use xlink:href="#m722da22725" x="594.427686" y="785.785263" style="stroke: #000000; stroke-width: 0.8"/>
      </g>
     </g>
     <g id="text_37">
      <!-- 0 -->
      <g transform="translate(587.428936 809.501826) scale(0.22 -0.22)">
       <use xlink:href="#DejaVuSans-30"/>
      </g>
     </g>
    </g>
    <g id="xtick_14">
     <g id="line2d_35">
      <g>
       <use xlink:href="#m722da22725" x="738.539256" y="785.785263" style="stroke: #000000; stroke-width: 0.8"/>
      </g>
     </g>
     <g id="text_38">
      <!-- 20 -->
      <g transform="translate(724.541756 809.501826) scale(0.22 -0.22)">
       <use xlink:href="#DejaVuSans-32"/>
       <use xlink:href="#DejaVuSans-30" x="63.623047"/>
      </g>
     </g>
    </g>
    <g id="xtick_15">
     <g id="line2d_36">
      <g>
       <use xlink:href="#m722da22725" x="882.650826" y="785.785263" style="stroke: #000000; stroke-width: 0.8"/>
      </g>
     </g>
     <g id="text_39">
      <!-- 40 -->
      <g transform="translate(868.653326 809.501826) scale(0.22 -0.22)">
       <use xlink:href="#DejaVuSans-34"/>
       <use xlink:href="#DejaVuSans-30" x="63.623047"/>
      </g>
     </g>
    </g>
    <g id="text_40">
     <!-- k -->
     <g transform="translate(774.823977 836.313388) scale(0.24 -0.24)">
      <use xlink:href="#DejaVuSans-6b"/>
     </g>
    </g>
   </g>
   <g id="matplotlib.axis_8">
    <g id="ytick_14">
     <g id="line2d_37">
      <g>
       <use xlink:href="#m7b67b309bd" x="591.545455" y="772.276083" style="stroke: #000000; stroke-width: 0.8"/>
      </g>
     </g>
     <g id="text_41">
      <!-- 0.85 -->
      <g transform="translate(535.56108 780.634364) scale(0.22 -0.22)">
       <use xlink:href="#DejaVuSans-30"/>
       <use xlink:href="#DejaVuSans-2e" x="63.623047"/>
       <use xlink:href="#DejaVuSans-38" x="95.410156"/>
       <use xlink:href="#DejaVuSans-35" x="159.033203"/>
      </g>
     </g>
    </g>
    <g id="ytick_15">
     <g id="line2d_38">
      <g>
       <use xlink:href="#m7b67b309bd" x="591.545455" y="681.904337" style="stroke: #000000; stroke-width: 0.8"/>
      </g>
     </g>
     <g id="text_42">
      <!-- 0.90 -->
      <g transform="translate(535.56108 690.262619) scale(0.22 -0.22)">
       <use xlink:href="#DejaVuSans-30"/>
       <use xlink:href="#DejaVuSans-2e" x="63.623047"/>
       <use xlink:href="#DejaVuSans-39" x="95.410156"/>
       <use xlink:href="#DejaVuSans-30" x="159.033203"/>
      </g>
     </g>
    </g>
    <g id="ytick_16">
     <g id="line2d_39">
      <g>
       <use xlink:href="#m7b67b309bd" x="591.545455" y="591.532591" style="stroke: #000000; stroke-width: 0.8"/>
      </g>
     </g>
     <g id="text_43">
      <!-- 0.95 -->
      <g transform="translate(535.56108 599.890873) scale(0.22 -0.22)">
       <use xlink:href="#DejaVuSans-30"/>
       <use xlink:href="#DejaVuSans-2e" x="63.623047"/>
       <use xlink:href="#DejaVuSans-39" x="95.410156"/>
       <use xlink:href="#DejaVuSans-35" x="159.033203"/>
      </g>
     </g>
    </g>
   </g>
   <g id="line2d_40">
    <path d="M 608.838843 579.38301 
L 630.455579 598.0651 
L 666.483471 623.59826 
L 738.539256 656.034315 
L 954.706612 729.671797 
" clip-path="url(#p1fc07fd3f4)" style="fill: none; stroke: #1f77b4; stroke-width: 1.5; stroke-linecap: square"/>
    <g clip-path="url(#p1fc07fd3f4)">
     <use xlink:href="#macac1c92f3" x="608.838843" y="579.38301" style="fill: #1f77b4; stroke: #1f77b4"/>
     <use xlink:href="#macac1c92f3" x="630.455579" y="598.0651" style="fill: #1f77b4; stroke: #1f77b4"/>
     <use xlink:href="#macac1c92f3" x="666.483471" y="623.59826" style="fill: #1f77b4; stroke: #1f77b4"/>
     <use xlink:href="#macac1c92f3" x="738.539256" y="656.034315" style="fill: #1f77b4; stroke: #1f77b4"/>
     <use xlink:href="#macac1c92f3" x="954.706612" y="729.671797" style="fill: #1f77b4; stroke: #1f77b4"/>
    </g>
   </g>
   <g id="line2d_41">
    <path d="M 608.838843 535.111579 
L 630.455579 548.289981 
L 666.483471 570.557358 
L 738.539256 604.216162 
L 954.706612 681.963817 
" clip-path="url(#p1fc07fd3f4)" style="fill: none; stroke: #ff7f0e; stroke-width: 1.5; stroke-linecap: square"/>
    <g clip-path="url(#p1fc07fd3f4)">
     <use xlink:href="#m04b12c6dc7" x="608.838843" y="535.111579" style="fill: #ff7f0e; stroke: #ff7f0e"/>
     <use xlink:href="#m04b12c6dc7" x="630.455579" y="548.289981" style="fill: #ff7f0e; stroke: #ff7f0e"/>
     <use xlink:href="#m04b12c6dc7" x="666.483471" y="570.557358" style="fill: #ff7f0e; stroke: #ff7f0e"/>
     <use xlink:href="#m04b12c6dc7" x="738.539256" y="604.216162" style="fill: #ff7f0e; stroke: #ff7f0e"/>
     <use xlink:href="#m04b12c6dc7" x="954.706612" y="681.963817" style="fill: #ff7f0e; stroke: #ff7f0e"/>
    </g>
   </g>
   <g id="line2d_42">
    <path d="M 608.838843 538.005694 
L 630.455579 552.768693 
L 666.483471 577.44008 
L 738.539256 617.365881 
L 954.706612 702.813722 
" clip-path="url(#p1fc07fd3f4)" style="fill: none; stroke: #2ca02c; stroke-width: 1.5; stroke-linecap: square"/>
    <g clip-path="url(#p1fc07fd3f4)">
     <use xlink:href="#mdd0c8ba7e4" x="608.838843" y="538.005694" style="fill: #2ca02c; stroke: #2ca02c"/>
     <use xlink:href="#mdd0c8ba7e4" x="630.455579" y="552.768693" style="fill: #2ca02c; stroke: #2ca02c"/>
     <use xlink:href="#mdd0c8ba7e4" x="666.483471" y="577.44008" style="fill: #2ca02c; stroke: #2ca02c"/>
     <use xlink:href="#mdd0c8ba7e4" x="738.539256" y="617.365881" style="fill: #2ca02c; stroke: #2ca02c"/>
     <use xlink:href="#mdd0c8ba7e4" x="954.706612" y="702.813722" style="fill: #2ca02c; stroke: #2ca02c"/>
    </g>
   </g>
   <g id="line2d_43">
    <path d="M 608.838843 556.15128 
L 630.455579 578.05424 
L 666.483471 611.745492 
L 738.539256 664.894061 
L 954.706612 773.848421 
" clip-path="url(#p1fc07fd3f4)" style="fill: none; stroke: #d62728; stroke-width: 1.5; stroke-linecap: square"/>
    <g clip-path="url(#p1fc07fd3f4)">
     <use xlink:href="#m5898fe189d" x="608.838843" y="556.15128" style="fill: #d62728; stroke: #d62728"/>
     <use xlink:href="#m5898fe189d" x="630.455579" y="578.05424" style="fill: #d62728; stroke: #d62728"/>
     <use xlink:href="#m5898fe189d" x="666.483471" y="611.745492" style="fill: #d62728; stroke: #d62728"/>
     <use xlink:href="#m5898fe189d" x="738.539256" y="664.894061" style="fill: #d62728; stroke: #d62728"/>
     <use xlink:href="#m5898fe189d" x="954.706612" y="773.848421" style="fill: #d62728; stroke: #d62728"/>
    </g>
   </g>
   <g id="patch_30">
    <path d="M 591.545455 785.785263 
L 591.545455 523.174737 
" style="fill: none; stroke: #000000; stroke-width: 0.8; stroke-linejoin: miter; stroke-linecap: square"/>
   </g>
   <g id="patch_31">
    <path d="M 972 785.785263 
L 972 523.174737 
" style="fill: none; stroke: #000000; stroke-width: 0.8; stroke-linejoin: miter; stroke-linecap: square"/>
   </g>
   <g id="patch_32">
    <path d="M 591.545455 785.785263 
L 972 785.785263 
" style="fill: none; stroke: #000000; stroke-width: 0.8; stroke-linejoin: miter; stroke-linecap: square"/>
   </g>
   <g id="patch_33">
    <path d="M 591.545455 523.174737 
L 972 523.174737 
" style="fill: none; stroke: #000000; stroke-width: 0.8; stroke-linejoin: miter; stroke-linecap: square"/>
   </g>
   <g id="text_44">
    <!-- d -->
    <g transform="translate(544.871761 505.058783) scale(0.28 -0.28)">
     <defs>
      <path id="DejaVuSans-Bold-64" d="M 2919 2988 
L 2919 4863 
L 4044 4863 
L 4044 0 
L 2919 0 
L 2919 506 
Q 2688 197 2409 53 
Q 2131 -91 1766 -91 
Q 1119 -91 703 423 
Q 288 938 288 1747 
Q 288 2556 703 3070 
Q 1119 3584 1766 3584 
Q 2128 3584 2408 3439 
Q 2688 3294 2919 2988 
z
M 2181 722 
Q 2541 722 2730 984 
Q 2919 1247 2919 1747 
Q 2919 2247 2730 2509 
Q 2541 2772 2181 2772 
Q 1825 2772 1636 2509 
Q 1447 2247 1447 1747 
Q 1447 1247 1636 984 
Q 1825 722 2181 722 
z
" transform="scale(0.015625)"/>
     </defs>
     <use xlink:href="#DejaVuSans-Bold-64"/>
    </g>
   </g>
   <g id="text_45">
    <!-- Continuity -->
    <g transform="translate(720.057102 517.174737) scale(0.24 -0.24)">
     <defs>
      <path id="DejaVuSans-79" d="M 2059 -325 
Q 1816 -950 1584 -1140 
Q 1353 -1331 966 -1331 
L 506 -1331 
L 506 -850 
L 844 -850 
Q 1081 -850 1212 -737 
Q 1344 -625 1503 -206 
L 1606 56 
L 191 3500 
L 800 3500 
L 1894 763 
L 2988 3500 
L 3597 3500 
L 2059 -325 
z
" transform="scale(0.015625)"/>
     </defs>
     <use xlink:href="#DejaVuSans-43"/>
     <use xlink:href="#DejaVuSans-6f" x="69.824219"/>
     <use xlink:href="#DejaVuSans-6e" x="131.005859"/>
     <use xlink:href="#DejaVuSans-74" x="194.384766"/>
     <use xlink:href="#DejaVuSans-69" x="233.59375"/>
     <use xlink:href="#DejaVuSans-6e" x="261.376953"/>
     <use xlink:href="#DejaVuSans-75" x="324.755859"/>
     <use xlink:href="#DejaVuSans-69" x="388.134766"/>
     <use xlink:href="#DejaVuSans-74" x="415.917969"/>
     <use xlink:href="#DejaVuSans-79" x="455.126953"/>
    </g>
   </g>
  </g>
  <g id="axes_5">
   <g id="patch_34">
    <path d="M 135 1153.44 
L 515.454545 1153.44 
L 515.454545 890.829474 
L 135 890.829474 
z
" style="fill: #ffffff"/>
   </g>
   <g id="matplotlib.axis_9">
    <g id="xtick_16">
     <g id="line2d_44">
      <g>
       <use xlink:href="#m722da22725" x="152.120972" y="1153.44" style="stroke: #000000; stroke-width: 0.8"/>
      </g>
     </g>
     <g id="text_46">
      <!-- 0 -->
      <g transform="translate(145.122222 1177.156562) scale(0.22 -0.22)">
       <use xlink:href="#DejaVuSans-30"/>
      </g>
     </g>
    </g>
    <g id="xtick_17">
     <g id="line2d_45">
      <g>
       <use xlink:href="#m722da22725" x="238.329289" y="1153.44" style="stroke: #000000; stroke-width: 0.8"/>
      </g>
     </g>
     <g id="text_47">
      <!-- 500 -->
      <g transform="translate(217.333039 1177.156562) scale(0.22 -0.22)">
       <use xlink:href="#DejaVuSans-35"/>
       <use xlink:href="#DejaVuSans-30" x="63.623047"/>
       <use xlink:href="#DejaVuSans-30" x="127.246094"/>
      </g>
     </g>
    </g>
    <g id="xtick_18">
     <g id="line2d_46">
      <g>
       <use xlink:href="#m722da22725" x="324.537606" y="1153.44" style="stroke: #000000; stroke-width: 0.8"/>
      </g>
     </g>
     <g id="text_48">
      <!-- 1000 -->
      <g transform="translate(296.542606 1177.156562) scale(0.22 -0.22)">
       <use xlink:href="#DejaVuSans-31"/>
       <use xlink:href="#DejaVuSans-30" x="63.623047"/>
       <use xlink:href="#DejaVuSans-30" x="127.246094"/>
       <use xlink:href="#DejaVuSans-30" x="190.869141"/>
      </g>
     </g>
    </g>
    <g id="xtick_19">
     <g id="line2d_47">
      <g>
       <use xlink:href="#m722da22725" x="410.745923" y="1153.44" style="stroke: #000000; stroke-width: 0.8"/>
      </g>
     </g>
     <g id="text_49">
      <!-- 1500 -->
      <g transform="translate(382.750923 1177.156562) scale(0.22 -0.22)">
       <use xlink:href="#DejaVuSans-31"/>
       <use xlink:href="#DejaVuSans-35" x="63.623047"/>
       <use xlink:href="#DejaVuSans-30" x="127.246094"/>
       <use xlink:href="#DejaVuSans-30" x="190.869141"/>
      </g>
     </g>
    </g>
    <g id="xtick_20">
     <g id="line2d_48">
      <g>
       <use xlink:href="#m722da22725" x="496.954241" y="1153.44" style="stroke: #000000; stroke-width: 0.8"/>
      </g>
     </g>
     <g id="text_50">
      <!-- 2000 -->
      <g transform="translate(468.959241 1177.156562) scale(0.22 -0.22)">
       <use xlink:href="#DejaVuSans-32"/>
       <use xlink:href="#DejaVuSans-30" x="63.623047"/>
       <use xlink:href="#DejaVuSans-30" x="127.246094"/>
       <use xlink:href="#DejaVuSans-30" x="190.869141"/>
      </g>
     </g>
    </g>
    <g id="text_51">
     <!-- k -->
     <g transform="translate(318.278523 1203.968125) scale(0.24 -0.24)">
      <use xlink:href="#DejaVuSans-6b"/>
     </g>
    </g>
   </g>
   <g id="matplotlib.axis_10">
    <g id="ytick_17">
     <g id="line2d_49">
      <g>
       <use xlink:href="#m7b67b309bd" x="135" y="1151.022959" style="stroke: #000000; stroke-width: 0.8"/>
      </g>
     </g>
     <g id="text_52">
      <!-- 0.00 -->
      <g transform="translate(79.015625 1159.381241) scale(0.22 -0.22)">
       <use xlink:href="#DejaVuSans-30"/>
       <use xlink:href="#DejaVuSans-2e" x="63.623047"/>
       <use xlink:href="#DejaVuSans-30" x="95.410156"/>
       <use xlink:href="#DejaVuSans-30" x="159.033203"/>
      </g>
     </g>
    </g>
    <g id="ytick_18">
     <g id="line2d_50">
      <g>
       <use xlink:href="#m7b67b309bd" x="135" y="1088.958799" style="stroke: #000000; stroke-width: 0.8"/>
      </g>
     </g>
     <g id="text_53">
      <!-- 0.25 -->
      <g transform="translate(79.015625 1097.31708) scale(0.22 -0.22)">
       <use xlink:href="#DejaVuSans-30"/>
       <use xlink:href="#DejaVuSans-2e" x="63.623047"/>
       <use xlink:href="#DejaVuSans-32" x="95.410156"/>
       <use xlink:href="#DejaVuSans-35" x="159.033203"/>
      </g>
     </g>
    </g>
    <g id="ytick_19">
     <g id="line2d_51">
      <g>
       <use xlink:href="#m7b67b309bd" x="135" y="1026.894638" style="stroke: #000000; stroke-width: 0.8"/>
      </g>
     </g>
     <g id="text_54">
      <!-- 0.50 -->
      <g transform="translate(79.015625 1035.252919) scale(0.22 -0.22)">
       <use xlink:href="#DejaVuSans-30"/>
       <use xlink:href="#DejaVuSans-2e" x="63.623047"/>
       <use xlink:href="#DejaVuSans-35" x="95.410156"/>
       <use xlink:href="#DejaVuSans-30" x="159.033203"/>
      </g>
     </g>
    </g>
    <g id="ytick_20">
     <g id="line2d_52">
      <g>
       <use xlink:href="#m7b67b309bd" x="135" y="964.830477" style="stroke: #000000; stroke-width: 0.8"/>
      </g>
     </g>
     <g id="text_55">
      <!-- 0.75 -->
      <g transform="translate(79.015625 973.188758) scale(0.22 -0.22)">
       <defs>
        <path id="DejaVuSans-37" d="M 525 4666 
L 3525 4666 
L 3525 4397 
L 1831 0 
L 1172 0 
L 2766 4134 
L 525 4134 
L 525 4666 
z
" transform="scale(0.015625)"/>
       </defs>
       <use xlink:href="#DejaVuSans-30"/>
       <use xlink:href="#DejaVuSans-2e" x="63.623047"/>
       <use xlink:href="#DejaVuSans-37" x="95.410156"/>
       <use xlink:href="#DejaVuSans-35" x="159.033203"/>
      </g>
     </g>
    </g>
    <g id="ytick_21">
     <g id="line2d_53">
      <g>
       <use xlink:href="#m7b67b309bd" x="135" y="902.766316" style="stroke: #000000; stroke-width: 0.8"/>
      </g>
     </g>
     <g id="text_56">
      <!-- 1.00 -->
      <g transform="translate(79.015625 911.124597) scale(0.22 -0.22)">
       <use xlink:href="#DejaVuSans-31"/>
       <use xlink:href="#DejaVuSans-2e" x="63.623047"/>
       <use xlink:href="#DejaVuSans-30" x="95.410156"/>
       <use xlink:href="#DejaVuSans-30" x="159.033203"/>
      </g>
     </g>
    </g>
    <g id="text_57">
     <!-- Metric Value -->
     <g transform="translate(70.024375 1096.210362) rotate(-90) scale(0.24 -0.24)">
      <use xlink:href="#DejaVuSans-4d"/>
      <use xlink:href="#DejaVuSans-65" x="86.279297"/>
      <use xlink:href="#DejaVuSans-74" x="147.802734"/>
      <use xlink:href="#DejaVuSans-72" x="187.011719"/>
      <use xlink:href="#DejaVuSans-69" x="228.125"/>
      <use xlink:href="#DejaVuSans-63" x="255.908203"/>
      <use xlink:href="#DejaVuSans-20" x="310.888672"/>
      <use xlink:href="#DejaVuSans-56" x="342.675781"/>
      <use xlink:href="#DejaVuSans-61" x="403.333984"/>
      <use xlink:href="#DejaVuSans-6c" x="464.613281"/>
      <use xlink:href="#DejaVuSans-75" x="492.396484"/>
      <use xlink:href="#DejaVuSans-65" x="555.775391"/>
     </g>
    </g>
   </g>
   <g id="line2d_54">
    <path d="M 152.293388 1141.503158 
L 152.638222 1131.241554 
L 152.983055 1124.639509 
L 153.500305 1118.27546 
L 154.879638 1105.765266 
L 156.086554 1097.618539 
L 157.810721 1089.385897 
L 158.155554 1088.082765 
L 159.017637 1084.628525 
L 160.39697 1079.348847 
L 163.50047 1070.516759 
L 164.362553 1068.782113 
L 165.741886 1067.108483 
L 166.086719 1066.945879 
L 167.121219 1066.278394 
L 167.983302 1065.876908 
L 168.845385 1065.363864 
L 169.879885 1064.892222 
L 170.914385 1064.782155 
L 171.604051 1064.542767 
L 172.121301 1064.505954 
L 172.466135 1064.487691 
L 172.983385 1064.475222 
L 174.535134 1064.096044 
L 175.742051 1063.860237 
L 177.638634 1063.445129 
L 178.500717 1063.163781 
L 179.88005 1062.628642 
L 189.535381 1058.586478 
L 192.638881 1056.893981 
L 196.949297 1054.515377 
L 198.501046 1053.670774 
L 199.535546 1053.112643 
L 201.432129 1052.077457 
L 202.983879 1051.229539 
L 206.777045 1049.17524 
L 208.846045 1048.091632 
L 210.915044 1047.022291 
L 215.397877 1044.926979 
L 217.984126 1043.782301 
L 220.225542 1042.819921 
L 221.604875 1042.244555 
L 229.363624 1039.097679 
L 230.398124 1038.698669 
L 232.984373 1037.599636 
L 234.536123 1036.890093 
L 236.605123 1035.979955 
L 238.501706 1035.0979 
L 255.743369 1027.02074 
L 258.329619 1025.76387 
L 270.226366 1020.487881 
L 274.191949 1018.772352 
L 275.916115 1018.052067 
L 297.123361 1009.086962 
L 299.882027 1007.864556 
L 321.77894 998.559382 
L 345.227602 988.71233 
L 348.675935 987.278251 
L 354.882934 984.75854 
L 368.503848 979.098013 
L 373.50393 976.974415 
L 389.711094 969.985772 
L 392.814593 968.548789 
L 396.607759 966.7679 
L 401.780258 964.244497 
L 409.88384 959.928294 
L 415.573589 956.67008 
L 424.539254 951.196018 
L 440.746418 940.654089 
L 461.781247 926.415339 
L 473.505578 918.505812 
L 483.67816 911.904158 
L 488.505825 908.965558 
L 493.850741 905.771078 
L 497.47149 903.262085 
L 498.161157 902.766316 
L 498.161157 902.766316 
" clip-path="url(#pfb5d0e7b4b)" style="fill: none; stroke: #1f77b4; stroke-width: 1.5; stroke-linecap: square"/>
   </g>
   <g id="line2d_55">
    <path d="M 152.293388 1077.089955 
L 152.638222 1047.829959 
L 153.155472 1029.779426 
L 153.500305 1024.731046 
L 154.017555 1018.746047 
L 154.534805 1016.818484 
L 154.707221 1016.946239 
L 155.224471 1015.767597 
L 155.569304 1014.42617 
L 155.741721 1014.513597 
L 156.258971 1013.624611 
L 156.603804 1012.981081 
L 157.121054 1012.18648 
L 157.465887 1012.094477 
L 157.810721 1012.64678 
L 157.983137 1012.891293 
L 158.155554 1012.906358 
L 158.327971 1013.040785 
L 158.500387 1013.007556 
L 158.845221 1013.367833 
L 160.224554 1013.907829 
L 161.259053 1015.434019 
L 161.94872 1016.637371 
L 163.50047 1018.779765 
L 164.190136 1019.665594 
L 165.224636 1022.074547 
L 165.914303 1023.309258 
L 168.672969 1029.269437 
L 172.121301 1035.169575 
L 172.983385 1036.149802 
L 173.845468 1037.011021 
L 176.948967 1040.304611 
L 177.466217 1040.9174 
L 178.155884 1041.542376 
L 179.707633 1042.579902 
L 182.121466 1044.538032 
L 183.500799 1045.62176 
L 184.535299 1046.069712 
L 185.052549 1046.293491 
L 185.914632 1046.647658 
L 186.604299 1046.784223 
L 188.328465 1047.083446 
L 190.397465 1047.625016 
L 191.087131 1047.808989 
L 191.949214 1048.016748 
L 193.845797 1048.520333 
L 197.638963 1048.982469 
L 201.604546 1048.781264 
L 206.604628 1048.293846 
L 207.121878 1048.284833 
L 207.639128 1048.19958 
L 209.190878 1047.998664 
L 210.915044 1047.734726 
L 211.604711 1047.596309 
L 215.22546 1046.917231 
L 217.122043 1046.752454 
L 221.949709 1046.060622 
L 223.501458 1045.713551 
L 225.570458 1045.284438 
L 227.294624 1045.022016 
L 230.742957 1044.311818 
L 232.811957 1043.772235 
L 233.846456 1043.443307 
L 235.398206 1043.012337 
L 236.432706 1042.776902 
L 237.467206 1042.488979 
L 238.674122 1042.103071 
L 240.225872 1041.749806 
L 245.915621 1039.875503 
L 252.295036 1037.529484 
L 253.846786 1037.01312 
L 258.502035 1035.402325 
L 261.950368 1034.24881 
L 265.571117 1032.999667 
L 267.4677 1032.398836 
L 271.260866 1031.056856 
L 275.054032 1029.631747 
L 278.674781 1028.13485 
L 281.433448 1026.89167 
L 284.709364 1025.594795 
L 287.98528 1024.391053 
L 291.261196 1023.176432 
L 294.537112 1021.935366 
L 299.364778 1019.884573 
L 302.985527 1018.447695 
L 318.158191 1012.110964 
L 322.123773 1010.314419 
L 336.089521 1004.331529 
L 338.15852 1003.41201 
L 343.675853 1000.881577 
L 346.606935 999.509206 
L 358.6761 993.319809 
L 374.193597 984.351465 
L 376.435013 983.055769 
L 379.366096 981.282119 
L 383.504095 978.729328 
L 386.435178 976.995077 
L 397.297426 970.479723 
L 404.711341 965.782161 
L 408.332091 963.524834 
L 417.470172 957.529496 
L 429.36692 949.854104 
L 435.229085 945.91142 
L 446.436167 938.3115 
L 460.746747 928.52766 
L 466.608913 924.591814 
L 483.505743 913.275059 
L 493.850741 905.878431 
L 498.161157 902.766316 
L 498.161157 902.766316 
" clip-path="url(#pfb5d0e7b4b)" style="fill: none; stroke: #ff7f0e; stroke-width: 1.5; stroke-linecap: square"/>
   </g>
   <g id="line2d_56">
    <path d="M 152.293388 1115.910964 
L 152.810638 1066.859259 
L 153.327888 1044.22103 
L 153.672722 1035.906167 
L 154.362388 1025.534666 
L 154.707221 1022.7323 
L 155.569304 1018.370088 
L 155.914138 1017.717639 
L 156.258971 1016.746364 
L 156.776221 1016.12934 
L 157.121054 1015.545909 
L 157.293471 1015.499724 
L 157.465887 1015.596105 
L 157.810721 1016.056076 
L 158.155554 1016.212678 
L 158.500387 1015.98145 
L 159.017637 1016.595943 
L 159.190054 1016.533523 
L 160.91422 1017.537257 
L 161.603887 1018.725816 
L 161.94872 1019.428892 
L 162.293553 1019.987909 
L 163.155636 1021.166916 
L 163.328053 1021.27786 
L 164.01772 1022.399026 
L 164.362553 1022.795568 
L 164.707386 1023.517572 
L 166.086719 1026.306996 
L 166.603969 1027.673236 
L 169.190219 1033.013886 
L 170.741968 1035.503212 
L 171.948885 1037.372332 
L 172.466135 1038.023774 
L 179.535217 1047.028283 
L 182.811133 1049.989846 
L 184.880132 1051.178916 
L 187.121549 1052.145773 
L 188.500882 1052.415347 
L 189.535381 1052.632685 
L 190.397465 1052.731315 
L 191.087131 1052.857733 
L 191.776798 1052.907186 
L 192.983714 1052.878599 
L 195.397547 1052.833597 
L 196.77688 1052.859165 
L 199.190713 1053.006727 
L 200.225213 1053.030111 
L 203.328712 1052.768234 
L 204.708045 1052.703292 
L 206.087378 1052.437852 
L 208.328795 1052.036668 
L 211.432294 1051.39677 
L 214.880627 1050.463517 
L 218.673793 1049.731976 
L 226.432541 1047.254914 
L 229.191207 1046.146935 
L 230.398124 1045.74062 
L 231.432624 1045.404766 
L 238.156872 1043.104291 
L 239.363789 1042.623494 
L 241.087955 1041.973886 
L 245.743204 1040.21817 
L 248.157037 1039.402515 
L 250.915703 1038.315767 
L 253.501953 1037.279245 
L 260.398618 1034.600094 
L 263.674534 1033.096009 
L 274.191949 1028.097797 
L 278.502365 1026.210857 
L 283.330031 1023.941399 
L 285.91628 1022.76358 
L 290.916362 1020.588086 
L 302.468277 1015.106326 
L 310.054609 1011.204079 
L 313.675358 1009.310271 
L 334.537771 998.380106 
L 337.986104 996.502287 
L 345.055186 992.854798 
L 361.607183 984.441034 
L 370.228014 980.212572 
L 372.98668 978.767218 
L 403.504425 962.487031 
L 411.43559 957.800285 
L 417.297755 954.259547 
L 422.125421 951.353131 
L 427.29792 948.207 
L 449.367249 935.270241 
L 455.746665 931.268643 
L 460.574331 928.214213 
L 466.608913 924.08379 
L 472.988328 919.870163 
L 485.747159 911.461956 
L 494.195574 905.617932 
L 498.161157 902.766316 
L 498.161157 902.766316 
" clip-path="url(#pfb5d0e7b4b)" style="fill: none; stroke: #2ca02c; stroke-width: 1.5; stroke-linecap: square"/>
   </g>
   <g id="line2d_57">
    <path d="M 152.293388 1106.885698 
L 152.638222 1076.059673 
L 152.983055 1060.152126 
L 153.845138 1036.946064 
L 154.189971 1030.459412 
L 154.534805 1026.779835 
L 154.879638 1022.636999 
L 155.224471 1020.75416 
L 155.569304 1018.839896 
L 156.086554 1017.374836 
L 156.603804 1015.534595 
L 157.121054 1014.428941 
L 157.293471 1014.457079 
L 157.465887 1014.299944 
L 157.638304 1014.430807 
L 157.810721 1014.729822 
L 157.983137 1014.658529 
L 158.155554 1014.799721 
L 159.87972 1017.905088 
L 160.741804 1019.511228 
L 161.259053 1020.409696 
L 162.46597 1023.492648 
L 163.50047 1025.958018 
L 167.293636 1035.775196 
L 168.845385 1039.223603 
L 170.397135 1041.603559 
L 171.086802 1042.652326 
L 173.845468 1046.061799 
L 174.190301 1046.473207 
L 175.397217 1048.020446 
L 177.983467 1050.60018 
L 182.811133 1054.015584 
L 183.845633 1054.514694 
L 184.362882 1054.685133 
L 185.397382 1055.001786 
L 186.949132 1055.188413 
L 187.466382 1055.130785 
L 188.500882 1055.063219 
L 189.707798 1054.974253 
L 190.397465 1054.953938 
L 191.259548 1054.969311 
L 193.673381 1055.229347 
L 194.535464 1055.413334 
L 196.949297 1055.402687 
L 197.466547 1055.430538 
L 198.156213 1055.361433 
L 199.535546 1055.239144 
L 200.914879 1055.098868 
L 202.294212 1054.844371 
L 203.328712 1054.696837 
L 206.777045 1053.546494 
L 207.983961 1053.686919 
L 210.225378 1053.594399 
L 211.949544 1053.337304 
L 213.501294 1053.096666 
L 214.880627 1052.702851 
L 216.432376 1052.325411 
L 225.915291 1049.534642 
L 226.949791 1049.144446 
L 230.742957 1048.060688 
L 232.294707 1047.711909 
L 243.846621 1044.251009 
L 244.881121 1043.842348 
L 247.294954 1042.838021 
L 252.467453 1040.710395 
L 254.536453 1040.067256 
L 259.191702 1038.449121 
L 263.846951 1036.30645 
L 265.226284 1035.828686 
L 267.98495 1034.928258 
L 269.5367 1034.327552 
L 274.364366 1032.383001 
L 275.743699 1031.827402 
L 288.50253 1026.383535 
L 291.606029 1024.921693 
L 294.364695 1023.637599 
L 312.123609 1014.333951 
L 314.537441 1013.128501 
L 316.778858 1012.045508 
L 326.779022 1006.820929 
L 332.123938 1004.17835 
L 335.572271 1002.313127 
L 338.15852 1000.889949 
L 342.468936 998.448676 
L 359.19335 989.441424 
L 363.158932 987.325159 
L 374.53843 981.012989 
L 376.60743 979.825204 
L 379.021263 978.491634 
L 408.159674 961.443744 
L 433.504919 945.798298 
L 441.608501 940.700019 
L 447.987916 936.547951 
L 451.436249 934.366214 
L 455.056998 932.090392 
L 457.988081 930.225003 
L 471.091745 921.696854 
L 486.264409 911.19134 
L 498.161157 902.76841 
L 498.161157 902.76841 
" clip-path="url(#pfb5d0e7b4b)" style="fill: none; stroke: #d62728; stroke-width: 1.5; stroke-linecap: square"/>
   </g>
   <g id="patch_35">
    <path d="M 135 1153.44 
L 135 890.829474 
" style="fill: none; stroke: #000000; stroke-width: 0.8; stroke-linejoin: miter; stroke-linecap: square"/>
   </g>
   <g id="patch_36">
    <path d="M 515.454545 1153.44 
L 515.454545 890.829474 
" style="fill: none; stroke: #000000; stroke-width: 0.8; stroke-linejoin: miter; stroke-linecap: square"/>
   </g>
   <g id="patch_37">
    <path d="M 135 1153.44 
L 515.454545 1153.44 
" style="fill: none; stroke: #000000; stroke-width: 0.8; stroke-linejoin: miter; stroke-linecap: square"/>
   </g>
   <g id="patch_38">
    <path d="M 135 890.829474 
L 515.454545 890.829474 
" style="fill: none; stroke: #000000; stroke-width: 0.8; stroke-linejoin: miter; stroke-linecap: square"/>
   </g>
   <g id="text_58">
    <!-- e -->
    <g transform="translate(89.376307 872.71352) scale(0.28 -0.28)">
     <defs>
      <path id="DejaVuSans-Bold-65" d="M 4031 1759 
L 4031 1441 
L 1416 1441 
Q 1456 1047 1700 850 
Q 1944 653 2381 653 
Q 2734 653 3104 758 
Q 3475 863 3866 1075 
L 3866 213 
Q 3469 63 3072 -14 
Q 2675 -91 2278 -91 
Q 1328 -91 801 392 
Q 275 875 275 1747 
Q 275 2603 792 3093 
Q 1309 3584 2216 3584 
Q 3041 3584 3536 3087 
Q 4031 2591 4031 1759 
z
M 2881 2131 
Q 2881 2450 2695 2645 
Q 2509 2841 2209 2841 
Q 1884 2841 1681 2658 
Q 1478 2475 1428 2131 
L 2881 2131 
z
" transform="scale(0.015625)"/>
     </defs>
     <use xlink:href="#DejaVuSans-Bold-65"/>
    </g>
   </g>
   <g id="text_59">
    <!-- $Q_{NN}$ -->
    <g transform="translate(302.787273 884.829474) scale(0.24 -0.24)">
     <use xlink:href="#DejaVuSans-Oblique-51" transform="translate(0 0.78125)"/>
     <use xlink:href="#DejaVuSans-Oblique-4e" transform="translate(78.710938 -15.625) scale(0.7)"/>
     <use xlink:href="#DejaVuSans-Oblique-4e" transform="translate(131.074219 -15.625) scale(0.7)"/>
    </g>
   </g>
  </g>
  <g id="axes_6">
   <g id="patch_39">
    <path d="M 591.545455 1153.44 
L 972 1153.44 
L 972 890.829474 
L 591.545455 890.829474 
z
" style="fill: #ffffff"/>
   </g>
   <g id="matplotlib.axis_11">
    <g id="xtick_21">
     <g id="line2d_58">
      <g>
       <use xlink:href="#m722da22725" x="608.666426" y="1153.44" style="stroke: #000000; stroke-width: 0.8"/>
      </g>
     </g>
     <g id="text_60">
      <!-- 0 -->
      <g transform="translate(601.667676 1177.156562) scale(0.22 -0.22)">
       <use xlink:href="#DejaVuSans-30"/>
      </g>
     </g>
    </g>
    <g id="xtick_22">
     <g id="line2d_59">
      <g>
       <use xlink:href="#m722da22725" x="694.874744" y="1153.44" style="stroke: #000000; stroke-width: 0.8"/>
      </g>
     </g>
     <g id="text_61">
      <!-- 500 -->
      <g transform="translate(673.878494 1177.156562) scale(0.22 -0.22)">
       <use xlink:href="#DejaVuSans-35"/>
       <use xlink:href="#DejaVuSans-30" x="63.623047"/>
       <use xlink:href="#DejaVuSans-30" x="127.246094"/>
      </g>
     </g>
    </g>
    <g id="xtick_23">
     <g id="line2d_60">
      <g>
       <use xlink:href="#m722da22725" x="781.083061" y="1153.44" style="stroke: #000000; stroke-width: 0.8"/>
      </g>
     </g>
     <g id="text_62">
      <!-- 1000 -->
      <g transform="translate(753.088061 1177.156562) scale(0.22 -0.22)">
       <use xlink:href="#DejaVuSans-31"/>
       <use xlink:href="#DejaVuSans-30" x="63.623047"/>
       <use xlink:href="#DejaVuSans-30" x="127.246094"/>
       <use xlink:href="#DejaVuSans-30" x="190.869141"/>
      </g>
     </g>
    </g>
    <g id="xtick_24">
     <g id="line2d_61">
      <g>
       <use xlink:href="#m722da22725" x="867.291378" y="1153.44" style="stroke: #000000; stroke-width: 0.8"/>
      </g>
     </g>
     <g id="text_63">
      <!-- 1500 -->
      <g transform="translate(839.296378 1177.156562) scale(0.22 -0.22)">
       <use xlink:href="#DejaVuSans-31"/>
       <use xlink:href="#DejaVuSans-35" x="63.623047"/>
       <use xlink:href="#DejaVuSans-30" x="127.246094"/>
       <use xlink:href="#DejaVuSans-30" x="190.869141"/>
      </g>
     </g>
    </g>
    <g id="xtick_25">
     <g id="line2d_62">
      <g>
       <use xlink:href="#m722da22725" x="953.499695" y="1153.44" style="stroke: #000000; stroke-width: 0.8"/>
      </g>
     </g>
     <g id="text_64">
      <!-- 2000 -->
      <g transform="translate(925.504695 1177.156562) scale(0.22 -0.22)">
       <use xlink:href="#DejaVuSans-32"/>
       <use xlink:href="#DejaVuSans-30" x="63.623047"/>
       <use xlink:href="#DejaVuSans-30" x="127.246094"/>
       <use xlink:href="#DejaVuSans-30" x="190.869141"/>
      </g>
     </g>
    </g>
    <g id="text_65">
     <!-- k -->
     <g transform="translate(774.823977 1203.968125) scale(0.24 -0.24)">
      <use xlink:href="#DejaVuSans-6b"/>
     </g>
    </g>
   </g>
   <g id="matplotlib.axis_12">
    <g id="ytick_22">
     <g id="line2d_63">
      <g>
       <use xlink:href="#m7b67b309bd" x="591.545455" y="1141.430751" style="stroke: #000000; stroke-width: 0.8"/>
      </g>
     </g>
     <g id="text_66">
      <!-- 0.0 -->
      <g transform="translate(549.55858 1149.789032) scale(0.22 -0.22)">
       <use xlink:href="#DejaVuSans-30"/>
       <use xlink:href="#DejaVuSans-2e" x="63.623047"/>
       <use xlink:href="#DejaVuSans-30" x="95.410156"/>
      </g>
     </g>
    </g>
    <g id="ytick_23">
     <g id="line2d_64">
      <g>
       <use xlink:href="#m7b67b309bd" x="591.545455" y="1053.814732" style="stroke: #000000; stroke-width: 0.8"/>
      </g>
     </g>
     <g id="text_67">
      <!-- 0.2 -->
      <g transform="translate(549.55858 1062.173013) scale(0.22 -0.22)">
       <use xlink:href="#DejaVuSans-30"/>
       <use xlink:href="#DejaVuSans-2e" x="63.623047"/>
       <use xlink:href="#DejaVuSans-32" x="95.410156"/>
      </g>
     </g>
    </g>
    <g id="ytick_24">
     <g id="line2d_65">
      <g>
       <use xlink:href="#m7b67b309bd" x="591.545455" y="966.198714" style="stroke: #000000; stroke-width: 0.8"/>
      </g>
     </g>
     <g id="text_68">
      <!-- 0.4 -->
      <g transform="translate(549.55858 974.556995) scale(0.22 -0.22)">
       <use xlink:href="#DejaVuSans-30"/>
       <use xlink:href="#DejaVuSans-2e" x="63.623047"/>
       <use xlink:href="#DejaVuSans-34" x="95.410156"/>
      </g>
     </g>
    </g>
   </g>
   <g id="line2d_66">
    <path d="M 608.838843 1124.850139 
L 609.183676 1107.178799 
L 609.52851 1095.965213 
L 610.045759 1085.389875 
L 611.425092 1065.060273 
L 612.632009 1052.212279 
L 614.356175 1039.867507 
L 614.701009 1038.004519 
L 615.390675 1033.962384 
L 617.114841 1024.756602 
L 619.011424 1017.08914 
L 620.218341 1013.289122 
L 620.908007 1011.804028 
L 621.425257 1011.142751 
L 621.770091 1010.771107 
L 622.114924 1010.667466 
L 622.28734 1010.596906 
L 622.459757 1010.757188 
L 622.977007 1010.681287 
L 623.32184 1010.911732 
L 623.494257 1010.821261 
L 624.011507 1011.02536 
L 624.35634 1011.264245 
L 625.218423 1011.338435 
L 626.252923 1011.871806 
L 626.42534 1011.92466 
L 627.459839 1013.04009 
L 627.804673 1013.274397 
L 628.149506 1013.490764 
L 628.666756 1014.080631 
L 629.011589 1014.484955 
L 629.528839 1015.11778 
L 630.735756 1016.170571 
L 631.253005 1016.545 
L 631.942672 1017.206377 
L 634.011672 1019.12607 
L 634.356505 1019.35082 
L 635.391005 1020.011415 
L 635.908255 1020.315323 
L 637.460004 1021.15899 
L 638.494504 1021.697105 
L 639.184171 1022.186391 
L 640.21867 1022.768783 
L 641.598004 1023.537186 
L 642.632503 1024.130167 
L 643.32217 1024.498605 
L 644.35667 1024.976114 
L 644.87392 1025.112189 
L 645.908419 1025.642705 
L 647.460169 1026.092179 
L 647.977419 1026.214359 
L 648.667086 1026.429101 
L 649.356752 1026.665236 
L 651.425752 1027.335058 
L 652.977501 1027.701803 
L 653.667168 1027.956918 
L 654.529251 1028.188148 
L 656.943084 1028.948376 
L 658.494834 1029.441899 
L 661.2535 1030.212849 
L 661.77075 1030.425537 
L 663.322499 1030.901149 
L 664.356999 1031.236626 
L 667.288082 1032.276221 
L 669.874332 1033.332068 
L 671.253665 1034.011057 
L 672.115748 1034.415785 
L 676.770997 1036.711923 
L 677.63308 1037.178772 
L 682.977996 1039.883483 
L 688.150495 1042.924579 
L 689.012578 1043.390358 
L 690.391911 1044.085271 
L 691.771244 1044.735419 
L 693.150577 1045.378169 
L 694.357494 1045.890592 
L 695.736827 1046.560804 
L 696.943743 1047.153731 
L 698.840326 1047.955535 
L 705.047325 1050.836921 
L 706.081825 1051.253507 
L 708.495658 1052.253436 
L 715.56474 1055.174594 
L 718.150989 1056.503829 
L 721.599322 1058.13137 
L 725.220071 1059.841539 
L 729.702904 1062.021724 
L 737.978902 1066.365834 
L 739.530652 1067.156698 
L 762.806897 1079.096921 
L 768.84148 1082.091341 
L 771.082896 1083.302146 
L 786.427976 1091.43056 
L 789.186643 1092.836352 
L 798.841974 1097.961679 
L 800.738557 1098.933613 
L 815.049138 1106.718062 
L 820.04922 1109.43843 
L 832.980468 1116.09455 
L 835.739134 1117.504767 
L 844.532382 1121.965923 
L 847.980715 1123.524351 
L 850.739381 1124.752627 
L 854.704964 1126.446858 
L 863.153379 1129.548239 
L 869.187961 1131.32583 
L 872.80871 1132.138333 
L 884.015791 1134.0939 
L 889.877957 1134.830544 
L 892.464207 1135.136494 
L 899.016039 1135.767984 
L 906.257537 1136.376162 
L 912.119703 1136.763754 
L 923.326784 1137.421552 
L 928.499283 1137.854748 
L 938.499448 1138.956028 
L 944.878863 1140.105369 
L 950.051362 1141.235101 
L 952.637612 1141.435242 
L 954.706612 1141.430751 
L 954.706612 1141.430751 
" clip-path="url(#p22cf26fb95)" style="fill: none; stroke: #1f77b4; stroke-width: 1.5; stroke-linecap: square"/>
   </g>
   <g id="line2d_67">
    <path d="M 608.838843 1011.184935 
L 609.183676 959.988542 
L 609.700926 928.790933 
L 610.045759 920.318984 
L 610.563009 910.412528 
L 610.907843 908.22802 
L 611.080259 907.665928 
L 611.252676 908.109644 
L 611.769926 906.68461 
L 612.114759 904.754046 
L 612.287176 905.126598 
L 612.459592 904.860372 
L 612.632009 904.835473 
L 612.976842 903.648481 
L 613.149259 903.513661 
L 613.321675 903.138348 
L 613.494092 903.054768 
L 613.666509 902.766316 
L 614.011342 903.040516 
L 614.528592 905.101427 
L 614.701009 905.346287 
L 615.563092 907.352412 
L 615.735508 907.522531 
L 616.080342 908.305825 
L 616.252758 908.482359 
L 616.597592 909.428974 
L 616.770008 909.732822 
L 617.804508 913.735632 
L 618.494175 916.732204 
L 620.390757 923.710309 
L 620.735591 924.913472 
L 621.770091 930.474029 
L 622.632174 934.428343 
L 623.494257 939.077173 
L 624.35634 943.620371 
L 628.149506 960.273369 
L 629.184006 964.014942 
L 630.218506 967.25776 
L 631.253005 970.513349 
L 634.701338 981.19817 
L 636.770338 986.288634 
L 640.21867 995.540779 
L 640.908337 996.929774 
L 643.32217 1001.399998 
L 644.87392 1003.854375 
L 646.942919 1007.429356 
L 647.632586 1008.627103 
L 648.667086 1010.401322 
L 652.287835 1016.343142 
L 655.046501 1020.038898 
L 655.391334 1020.409517 
L 657.805167 1023.307638 
L 659.874167 1025.536825 
L 663.150083 1029.127543 
L 663.667333 1029.766466 
L 664.012166 1030.084742 
L 666.253582 1032.342218 
L 669.184665 1035.001983 
L 669.874332 1035.599165 
L 674.184747 1040.252729 
L 681.253829 1047.061344 
L 682.460746 1048.184216 
L 684.012496 1049.712163 
L 684.874579 1050.453149 
L 685.736662 1051.236138 
L 687.460828 1052.812337 
L 689.529828 1054.413877 
L 692.116077 1056.37645 
L 699.529993 1062.239048 
L 701.254159 1063.319794 
L 703.323159 1064.515892 
L 704.185242 1065.01228 
L 707.805991 1067.326212 
L 709.185324 1068.224314 
L 710.909491 1069.339203 
L 713.323323 1070.906109 
L 717.116489 1073.556809 
L 729.013237 1081.240545 
L 731.42707 1082.731037 
L 732.633986 1083.450291 
L 742.116901 1088.464981 
L 746.427317 1091.12449 
L 747.2894 1091.652249 
L 751.599816 1094.181703 
L 754.358482 1095.549188 
L 757.289565 1097.19598 
L 760.048231 1098.73855 
L 761.599981 1099.530073 
L 772.462229 1105.439489 
L 786.77281 1112.429418 
L 792.979809 1115.658712 
L 804.531723 1120.819311 
L 807.462806 1121.963028 
L 810.738722 1123.177736 
L 819.704387 1125.890688 
L 824.014803 1126.83542 
L 827.980385 1127.765475 
L 830.049385 1128.284884 
L 834.187384 1129.263157 
L 836.256384 1129.65354 
L 846.084132 1131.756883 
L 847.635882 1132.128281 
L 849.877298 1132.518042 
L 852.808381 1133.066594 
L 856.601547 1133.65339 
L 863.498212 1134.806527 
L 864.532712 1134.895475 
L 872.463877 1135.699275 
L 876.601876 1136.320418 
L 887.808957 1137.504009 
L 890.050374 1137.700793 
L 893.498706 1138.064448 
L 912.464536 1139.149392 
L 914.705952 1139.298096 
L 919.533618 1139.664688 
L 921.085368 1139.774141 
L 923.671617 1140.055489 
L 936.947698 1141.241491 
L 939.533948 1141.406746 
L 954.189362 1141.431731 
L 954.706612 1141.430751 
L 954.706612 1141.430751 
" clip-path="url(#p22cf26fb95)" style="fill: none; stroke: #ff7f0e; stroke-width: 1.5; stroke-linecap: square"/>
   </g>
   <g id="line2d_68">
    <path d="M 608.838843 1079.689492 
L 609.356093 993.786413 
L 609.873343 954.493236 
L 610.218176 940.257167 
L 610.907843 922.828452 
L 611.252676 918.319877 
L 611.597509 916.104198 
L 612.287176 911.380729 
L 612.459592 910.998809 
L 612.804426 909.721425 
L 613.321675 909.287436 
L 613.666509 908.69445 
L 613.838925 908.831227 
L 614.011342 909.21958 
L 614.356175 910.467808 
L 614.701009 911.180706 
L 615.045842 911.209226 
L 615.563092 912.948405 
L 615.735508 913.056533 
L 617.459675 917.010508 
L 618.149341 919.980975 
L 618.666591 922.25031 
L 619.183841 924.48602 
L 619.356258 924.797285 
L 620.045924 927.485145 
L 621.080424 931.367634 
L 621.770091 934.734034 
L 622.459757 937.979278 
L 624.011507 946.791001 
L 624.87359 951.138672 
L 626.42534 957.677236 
L 628.321923 965.313175 
L 629.873672 970.947203 
L 630.908172 974.502758 
L 633.494422 983.956829 
L 635.908255 992.104072 
L 638.494504 999.578968 
L 639.873837 1003.320343 
L 644.184253 1012.132842 
L 645.218753 1013.793979 
L 646.425669 1015.691524 
L 648.667086 1018.975676 
L 649.701585 1020.173894 
L 651.943002 1022.950559 
L 653.322335 1024.741885 
L 655.736168 1028.058143 
L 656.770667 1029.409063 
L 659.874167 1032.875917 
L 660.908667 1034.076377 
L 661.943166 1035.167404 
L 669.184665 1041.621591 
L 670.391581 1042.558184 
L 675.391664 1047.070047 
L 683.150412 1052.479056 
L 683.667662 1052.730557 
L 686.253912 1054.335375 
L 689.529828 1056.471814 
L 692.633327 1058.547831 
L 693.840244 1059.376672 
L 698.840326 1062.336228 
L 702.461075 1064.555406 
L 703.323159 1065.104427 
L 709.530157 1068.75622 
L 712.97849 1070.807401 
L 716.426823 1072.825534 
L 724.185571 1076.299865 
L 726.599404 1077.200588 
L 730.047737 1078.750068 
L 731.082237 1079.236815 
L 733.840903 1080.625645 
L 735.909903 1081.578208 
L 739.875485 1083.287439 
L 741.772068 1084.120541 
L 745.220401 1085.866533 
L 755.048149 1090.303044 
L 765.565564 1094.375789 
L 771.600146 1096.324578 
L 783.324477 1100.492664 
L 785.565893 1101.219803 
L 791.428059 1103.099327 
L 799.014391 1105.620331 
L 802.290307 1106.831768 
L 809.359389 1109.258763 
L 811.945638 1110.251801 
L 815.221554 1111.541838 
L 818.669887 1112.895636 
L 820.221637 1113.520287 
L 829.704552 1117.132639 
L 844.359966 1121.920345 
L 854.36013 1125.497914 
L 867.808628 1128.729224 
L 869.877627 1129.113526 
L 875.222543 1130.234346 
L 878.670876 1130.90855 
L 882.464042 1131.582372 
L 885.395125 1132.268607 
L 894.705623 1134.720078 
L 897.809122 1135.467673 
L 904.016121 1136.732073 
L 911.77487 1137.922437 
L 914.533536 1138.394615 
L 916.602535 1138.698691 
L 917.809452 1138.790331 
L 921.947451 1139.001611 
L 925.05095 1139.262005 
L 928.326867 1139.577348 
L 938.327031 1140.692895 
L 944.878863 1141.255055 
L 948.154779 1141.403019 
L 952.810029 1141.43972 
L 954.706612 1141.430751 
L 954.706612 1141.430751 
" clip-path="url(#p22cf26fb95)" style="fill: none; stroke: #2ca02c; stroke-width: 1.5; stroke-linecap: square"/>
   </g>
   <g id="line2d_69">
    <path d="M 608.838843 1063.763273 
L 609.183676 1009.803426 
L 609.52851 982.169109 
L 610.390593 942.310473 
L 610.735426 931.30051 
L 611.080259 925.243985 
L 611.425092 918.369983 
L 611.769926 915.484027 
L 612.114759 912.542621 
L 612.459592 911.573977 
L 613.149259 908.019657 
L 613.666509 906.723421 
L 613.838925 906.991349 
L 614.011342 906.932341 
L 614.873425 909.419719 
L 615.218258 911.141991 
L 615.390675 911.609644 
L 615.907925 914.193215 
L 616.252758 915.354631 
L 616.942425 918.850702 
L 617.632091 921.607598 
L 618.839008 928.454036 
L 619.356258 930.993942 
L 619.873508 933.880087 
L 620.735591 939.536919 
L 621.597674 944.419218 
L 625.218423 964.577893 
L 626.597756 970.071581 
L 629.528839 980.950245 
L 630.046089 982.627177 
L 630.390922 983.71636 
L 630.908172 985.536278 
L 634.011672 995.466041 
L 637.632421 1004.876235 
L 640.046254 1010.58607 
L 640.73592 1011.928751 
L 642.460087 1014.91943 
L 644.011836 1016.963537 
L 644.87392 1017.933443 
L 646.598086 1019.964195 
L 647.460169 1020.989001 
L 648.667086 1022.652549 
L 649.356752 1023.545257 
L 650.391252 1025.31358 
L 651.253335 1026.615883 
L 654.184418 1030.380024 
L 655.046501 1031.224639 
L 655.736168 1032.021117 
L 656.425834 1032.884393 
L 660.046583 1036.387 
L 661.2535 1037.024678 
L 663.150083 1038.410703 
L 663.667333 1039.157238 
L 665.219082 1041.254414 
L 670.046748 1046.333765 
L 670.908831 1046.916493 
L 671.426081 1047.385038 
L 672.460581 1048.244513 
L 673.667498 1049.253481 
L 674.012331 1049.531957 
L 675.736497 1050.731672 
L 676.253747 1051.16153 
L 679.70208 1053.724593 
L 680.73658 1054.479598 
L 682.288329 1055.661259 
L 684.184912 1056.910611 
L 685.909079 1058.14633 
L 686.943578 1058.976793 
L 688.322911 1060.188596 
L 689.529828 1061.105429 
L 690.047078 1061.4664 
L 693.667827 1064.296015 
L 695.04716 1065.385295 
L 700.219659 1069.059779 
L 701.426576 1069.729603 
L 703.495575 1070.886021 
L 705.564575 1071.793188 
L 709.012908 1073.807025 
L 710.737074 1075.067559 
L 715.04749 1078.084308 
L 716.599239 1078.713992 
L 717.288906 1079.006401 
L 717.806156 1079.223975 
L 719.875156 1080.167419 
L 720.392405 1080.441933 
L 721.426905 1081.139867 
L 722.633822 1081.907594 
L 724.530405 1083.248565 
L 725.737321 1083.980988 
L 729.013237 1085.730792 
L 730.564987 1086.630948 
L 732.116737 1087.511547 
L 739.358235 1091.284283 
L 740.392735 1091.936406 
L 741.944485 1092.791483 
L 742.978985 1093.267393 
L 744.358318 1093.859896 
L 750.737733 1096.667069 
L 753.496399 1097.632499 
L 757.806815 1099.303717 
L 761.255148 1100.324627 
L 770.220813 1103.395458 
L 774.013979 1104.849436 
L 779.186478 1106.483018 
L 781.600311 1107.40496 
L 782.462394 1107.718969 
L 783.841727 1108.29708 
L 784.531393 1108.556218 
L 787.979726 1109.944565 
L 789.703892 1110.50071 
L 795.048808 1112.110194 
L 797.462641 1112.666612 
L 798.324724 1112.936483 
L 804.531723 1114.899408 
L 806.428306 1115.549007 
L 810.393889 1116.593246 
L 812.462888 1117.295777 
L 814.359471 1117.971109 
L 815.738804 1118.449367 
L 818.325054 1119.333185 
L 819.53197 1119.685057 
L 831.601135 1123.10233 
L 832.808051 1123.413491 
L 839.359883 1125.331531 
L 841.256466 1125.76616 
L 842.290966 1125.960802 
L 844.532382 1126.531171 
L 846.084132 1126.903807 
L 847.635882 1127.255561 
L 852.463547 1128.353701 
L 854.36013 1128.85019 
L 857.46363 1129.577972 
L 858.842963 1129.918254 
L 861.084379 1130.415669 
L 862.808545 1130.733526 
L 865.049962 1131.099378 
L 870.567294 1132.208641 
L 880.739875 1133.986197 
L 883.498542 1134.418324 
L 886.257208 1134.88011 
L 888.671041 1135.299776 
L 895.395289 1136.277509 
L 897.464289 1136.655154 
L 901.085038 1137.111422 
L 902.809205 1137.302853 
L 906.429954 1137.801626 
L 910.74037 1138.454908 
L 913.499036 1138.900535 
L 915.568036 1139.202462 
L 922.464701 1140.12851 
L 934.016615 1140.958942 
L 941.430531 1141.20817 
L 948.327196 1141.347325 
L 952.120362 1141.442372 
L 954.706612 1141.434447 
L 954.706612 1141.434447 
" clip-path="url(#p22cf26fb95)" style="fill: none; stroke: #d62728; stroke-width: 1.5; stroke-linecap: square"/>
   </g>
   <g id="patch_40">
    <path d="M 591.545455 1153.44 
L 591.545455 890.829474 
" style="fill: none; stroke: #000000; stroke-width: 0.8; stroke-linejoin: miter; stroke-linecap: square"/>
   </g>
   <g id="patch_41">
    <path d="M 972 1153.44 
L 972 890.829474 
" style="fill: none; stroke: #000000; stroke-width: 0.8; stroke-linejoin: miter; stroke-linecap: square"/>
   </g>
   <g id="patch_42">
    <path d="M 591.545455 1153.44 
L 972 1153.44 
" style="fill: none; stroke: #000000; stroke-width: 0.8; stroke-linejoin: miter; stroke-linecap: square"/>
   </g>
   <g id="patch_43">
    <path d="M 591.545455 890.829474 
L 972 890.829474 
" style="fill: none; stroke: #000000; stroke-width: 0.8; stroke-linejoin: miter; stroke-linecap: square"/>
   </g>
   <g id="text_69">
    <!-- f -->
    <g transform="translate(552.733636 872.71352) scale(0.28 -0.28)">
     <defs>
      <path id="DejaVuSans-Bold-66" d="M 2841 4863 
L 2841 4128 
L 2222 4128 
Q 1984 4128 1890 4042 
Q 1797 3956 1797 3744 
L 1797 3500 
L 2753 3500 
L 2753 2700 
L 1797 2700 
L 1797 0 
L 678 0 
L 678 2700 
L 122 2700 
L 122 3500 
L 678 3500 
L 678 3744 
Q 678 4316 997 4589 
Q 1316 4863 1984 4863 
L 2841 4863 
z
" transform="scale(0.015625)"/>
     </defs>
     <use xlink:href="#DejaVuSans-Bold-66"/>
    </g>
   </g>
   <g id="text_70">
    <!-- LCMC -->
    <g transform="translate(747.973977 884.829474) scale(0.24 -0.24)">
     <defs>
      <path id="DejaVuSans-4c" d="M 628 4666 
L 1259 4666 
L 1259 531 
L 3531 531 
L 3531 0 
L 628 0 
L 628 4666 
z
" transform="scale(0.015625)"/>
     </defs>
     <use xlink:href="#DejaVuSans-4c"/>
     <use xlink:href="#DejaVuSans-43" x="55.712891"/>
     <use xlink:href="#DejaVuSans-4d" x="125.537109"/>
     <use xlink:href="#DejaVuSans-43" x="211.816406"/>
    </g>
   </g>
  </g>
 </g>
 <defs>
  <clipPath id="pd8c563cb38">
   <rect x="135" y="155.52" width="380.454545" height="262.610526"/>
  </clipPath>
  <clipPath id="p4d53264da3">
   <rect x="591.545455" y="155.52" width="380.454545" height="262.610526"/>
  </clipPath>
  <clipPath id="p9d8c650821">
   <rect x="135" y="523.174737" width="380.454545" height="262.610526"/>
  </clipPath>
  <clipPath id="p1fc07fd3f4">
   <rect x="591.545455" y="523.174737" width="380.454545" height="262.610526"/>
  </clipPath>
  <clipPath id="pfb5d0e7b4b">
   <rect x="135" y="890.829474" width="380.454545" height="262.610526"/>
  </clipPath>
  <clipPath id="p22cf26fb95">
   <rect x="591.545455" y="890.829474" width="380.454545" height="262.610526"/>
  </clipPath>
 </defs>
</svg>
