<?xml version="1.0" encoding="utf-8" standalone="no"?>
<!DOCTYPE svg PUBLIC "-//W3C//DTD SVG 1.1//EN"
  "http://www.w3.org/Graphics/SVG/1.1/DTD/svg11.dtd">
<svg xmlns:xlink="http://www.w3.org/1999/xlink" width="1080pt" height="1296pt" viewBox="0 0 1080 1296" xmlns="http://www.w3.org/2000/svg" version="1.1">
 <metadata>
  <rdf:RDF xmlns:dc="http://purl.org/dc/elements/1.1/" xmlns:cc="http://creativecommons.org/ns#" xmlns:rdf="http://www.w3.org/1999/02/22-rdf-syntax-ns#">
   <cc:Work>
    <dc:type rdf:resource="http://purl.org/dc/dcmitype/StillImage"/>
    <dc:date>2024-07-24T13:54:14.353859</dc:date>
    <dc:format>image/svg+xml</dc:format>
    <dc:creator>
     <cc:Agent>
      <dc:title>Matplotlib v3.8.4, https://matplotlib.org/</dc:title>
     </cc:Agent>
    </dc:creator>
   </cc:Work>
  </rdf:RDF>
 </metadata>
 <defs>
  <style type="text/css">*{stroke-linejoin: round; stroke-linecap: butt}</style>
 </defs>
 <g id="figure_1">
  <g id="patch_1">
   <path d="M 0 1296 
L 1080 1296 
L 1080 0 
L 0 0 
z
" style="fill: #ffffff"/>
  </g>
  <g id="axes_1">
   <g id="patch_2">
    <path d="M 135 418.130526 
L 515.454545 418.130526 
L 515.454545 155.52 
L 135 155.52 
z
" style="fill: #ffffff"/>
   </g>
   <g id="matplotlib.axis_1">
    <g id="xtick_1">
     <g id="line2d_1">
      <defs>
       <path id="mdcea97e396" d="M 0 0 
L 0 3.5 
" style="stroke: #000000; stroke-width: 0.8"/>
      </defs>
      <g>
       <use xlink:href="#mdcea97e396" x="137.882231" y="418.130526" style="stroke: #000000; stroke-width: 0.8"/>
      </g>
     </g>
     <g id="text_1">
      <!-- 0 -->
      <g transform="translate(131.519731 440.327401) scale(0.2 -0.2)">
       <defs>
        <path id="DejaVuSans-30" d="M 2034 4250 
Q 1547 4250 1301 3770 
Q 1056 3291 1056 2328 
Q 1056 1369 1301 889 
Q 1547 409 2034 409 
Q 2525 409 2770 889 
Q 3016 1369 3016 2328 
Q 3016 3291 2770 3770 
Q 2525 4250 2034 4250 
z
M 2034 4750 
Q 2819 4750 3233 4129 
Q 3647 3509 3647 2328 
Q 3647 1150 3233 529 
Q 2819 -91 2034 -91 
Q 1250 -91 836 529 
Q 422 1150 422 2328 
Q 422 3509 836 4129 
Q 1250 4750 2034 4750 
z
" transform="scale(0.015625)"/>
       </defs>
       <use xlink:href="#DejaVuSans-30"/>
      </g>
     </g>
    </g>
    <g id="xtick_2">
     <g id="line2d_2">
      <g>
       <use xlink:href="#mdcea97e396" x="209.938017" y="418.130526" style="stroke: #000000; stroke-width: 0.8"/>
      </g>
     </g>
     <g id="text_2">
      <!-- 10 -->
      <g transform="translate(197.213017 440.327401) scale(0.2 -0.2)">
       <defs>
        <path id="DejaVuSans-31" d="M 794 531 
L 1825 531 
L 1825 4091 
L 703 3866 
L 703 4441 
L 1819 4666 
L 2450 4666 
L 2450 531 
L 3481 531 
L 3481 0 
L 794 0 
L 794 531 
z
" transform="scale(0.015625)"/>
       </defs>
       <use xlink:href="#DejaVuSans-31"/>
       <use xlink:href="#DejaVuSans-30" x="63.623047"/>
      </g>
     </g>
    </g>
    <g id="xtick_3">
     <g id="line2d_3">
      <g>
       <use xlink:href="#mdcea97e396" x="281.993802" y="418.130526" style="stroke: #000000; stroke-width: 0.8"/>
      </g>
     </g>
     <g id="text_3">
      <!-- 20 -->
      <g transform="translate(269.268802 440.327401) scale(0.2 -0.2)">
       <defs>
        <path id="DejaVuSans-32" d="M 1228 531 
L 3431 531 
L 3431 0 
L 469 0 
L 469 531 
Q 828 903 1448 1529 
Q 2069 2156 2228 2338 
Q 2531 2678 2651 2914 
Q 2772 3150 2772 3378 
Q 2772 3750 2511 3984 
Q 2250 4219 1831 4219 
Q 1534 4219 1204 4116 
Q 875 4013 500 3803 
L 500 4441 
Q 881 4594 1212 4672 
Q 1544 4750 1819 4750 
Q 2544 4750 2975 4387 
Q 3406 4025 3406 3419 
Q 3406 3131 3298 2873 
Q 3191 2616 2906 2266 
Q 2828 2175 2409 1742 
Q 1991 1309 1228 531 
z
" transform="scale(0.015625)"/>
       </defs>
       <use xlink:href="#DejaVuSans-32"/>
       <use xlink:href="#DejaVuSans-30" x="63.623047"/>
      </g>
     </g>
    </g>
    <g id="xtick_4">
     <g id="line2d_4">
      <g>
       <use xlink:href="#mdcea97e396" x="354.049587" y="418.130526" style="stroke: #000000; stroke-width: 0.8"/>
      </g>
     </g>
     <g id="text_4">
      <!-- 30 -->
      <g transform="translate(341.324587 440.327401) scale(0.2 -0.2)">
       <defs>
        <path id="DejaVuSans-33" d="M 2597 2516 
Q 3050 2419 3304 2112 
Q 3559 1806 3559 1356 
Q 3559 666 3084 287 
Q 2609 -91 1734 -91 
Q 1441 -91 1130 -33 
Q 819 25 488 141 
L 488 750 
Q 750 597 1062 519 
Q 1375 441 1716 441 
Q 2309 441 2620 675 
Q 2931 909 2931 1356 
Q 2931 1769 2642 2001 
Q 2353 2234 1838 2234 
L 1294 2234 
L 1294 2753 
L 1863 2753 
Q 2328 2753 2575 2939 
Q 2822 3125 2822 3475 
Q 2822 3834 2567 4026 
Q 2313 4219 1838 4219 
Q 1578 4219 1281 4162 
Q 984 4106 628 3988 
L 628 4550 
Q 988 4650 1302 4700 
Q 1616 4750 1894 4750 
Q 2613 4750 3031 4423 
Q 3450 4097 3450 3541 
Q 3450 3153 3228 2886 
Q 3006 2619 2597 2516 
z
" transform="scale(0.015625)"/>
       </defs>
       <use xlink:href="#DejaVuSans-33"/>
       <use xlink:href="#DejaVuSans-30" x="63.623047"/>
      </g>
     </g>
    </g>
    <g id="xtick_5">
     <g id="line2d_5">
      <g>
       <use xlink:href="#mdcea97e396" x="426.105372" y="418.130526" style="stroke: #000000; stroke-width: 0.8"/>
      </g>
     </g>
     <g id="text_5">
      <!-- 40 -->
      <g transform="translate(413.380372 440.327401) scale(0.2 -0.2)">
       <defs>
        <path id="DejaVuSans-34" d="M 2419 4116 
L 825 1625 
L 2419 1625 
L 2419 4116 
z
M 2253 4666 
L 3047 4666 
L 3047 1625 
L 3713 1625 
L 3713 1100 
L 3047 1100 
L 3047 0 
L 2419 0 
L 2419 1100 
L 313 1100 
L 313 1709 
L 2253 4666 
z
" transform="scale(0.015625)"/>
       </defs>
       <use xlink:href="#DejaVuSans-34"/>
       <use xlink:href="#DejaVuSans-30" x="63.623047"/>
      </g>
     </g>
    </g>
    <g id="xtick_6">
     <g id="line2d_6">
      <g>
       <use xlink:href="#mdcea97e396" x="498.161157" y="418.130526" style="stroke: #000000; stroke-width: 0.8"/>
      </g>
     </g>
     <g id="text_6">
      <!-- 50 -->
      <g transform="translate(485.436157 440.327401) scale(0.2 -0.2)">
       <defs>
        <path id="DejaVuSans-35" d="M 691 4666 
L 3169 4666 
L 3169 4134 
L 1269 4134 
L 1269 2991 
Q 1406 3038 1543 3061 
Q 1681 3084 1819 3084 
Q 2600 3084 3056 2656 
Q 3513 2228 3513 1497 
Q 3513 744 3044 326 
Q 2575 -91 1722 -91 
Q 1428 -91 1123 -41 
Q 819 9 494 109 
L 494 744 
Q 775 591 1075 516 
Q 1375 441 1709 441 
Q 2250 441 2565 725 
Q 2881 1009 2881 1497 
Q 2881 1984 2565 2268 
Q 2250 2553 1709 2553 
Q 1456 2553 1204 2497 
Q 953 2441 691 2322 
L 691 4666 
z
" transform="scale(0.015625)"/>
       </defs>
       <use xlink:href="#DejaVuSans-35"/>
       <use xlink:href="#DejaVuSans-30" x="63.623047"/>
      </g>
     </g>
    </g>
    <g id="text_7">
     <!-- k -->
     <g transform="translate(318.278523 466.723026) scale(0.24 -0.24)">
      <defs>
       <path id="DejaVuSans-6b" d="M 581 4863 
L 1159 4863 
L 1159 1991 
L 2875 3500 
L 3609 3500 
L 1753 1863 
L 3688 0 
L 2938 0 
L 1159 1709 
L 1159 0 
L 581 0 
L 581 4863 
z
" transform="scale(0.015625)"/>
      </defs>
      <use xlink:href="#DejaVuSans-6b"/>
     </g>
    </g>
   </g>
   <g id="matplotlib.axis_2">
    <g id="ytick_1">
     <g id="line2d_7">
      <defs>
       <path id="m36f5f803e5" d="M 0 0 
L -3.5 0 
" style="stroke: #000000; stroke-width: 0.8"/>
      </defs>
      <g>
       <use xlink:href="#m36f5f803e5" x="135" y="418.130526" style="stroke: #000000; stroke-width: 0.8"/>
      </g>
     </g>
     <g id="text_8">
      <!-- 0.0 -->
      <g transform="translate(96.19375 425.728964) scale(0.2 -0.2)">
       <defs>
        <path id="DejaVuSans-2e" d="M 684 794 
L 1344 794 
L 1344 0 
L 684 0 
L 684 794 
z
" transform="scale(0.015625)"/>
       </defs>
       <use xlink:href="#DejaVuSans-30"/>
       <use xlink:href="#DejaVuSans-2e" x="63.623047"/>
       <use xlink:href="#DejaVuSans-30" x="95.410156"/>
      </g>
     </g>
    </g>
    <g id="ytick_2">
     <g id="line2d_8">
      <g>
       <use xlink:href="#m36f5f803e5" x="135" y="352.477895" style="stroke: #000000; stroke-width: 0.8"/>
      </g>
     </g>
     <g id="text_9">
      <!-- 0.2 -->
      <g transform="translate(96.19375 360.076332) scale(0.2 -0.2)">
       <use xlink:href="#DejaVuSans-30"/>
       <use xlink:href="#DejaVuSans-2e" x="63.623047"/>
       <use xlink:href="#DejaVuSans-32" x="95.410156"/>
      </g>
     </g>
    </g>
    <g id="ytick_3">
     <g id="line2d_9">
      <g>
       <use xlink:href="#m36f5f803e5" x="135" y="286.825263" style="stroke: #000000; stroke-width: 0.8"/>
      </g>
     </g>
     <g id="text_10">
      <!-- 0.4 -->
      <g transform="translate(96.19375 294.423701) scale(0.2 -0.2)">
       <use xlink:href="#DejaVuSans-30"/>
       <use xlink:href="#DejaVuSans-2e" x="63.623047"/>
       <use xlink:href="#DejaVuSans-34" x="95.410156"/>
      </g>
     </g>
    </g>
    <g id="ytick_4">
     <g id="line2d_10">
      <g>
       <use xlink:href="#m36f5f803e5" x="135" y="221.172632" style="stroke: #000000; stroke-width: 0.8"/>
      </g>
     </g>
     <g id="text_11">
      <!-- 0.6 -->
      <g transform="translate(96.19375 228.771069) scale(0.2 -0.2)">
       <defs>
        <path id="DejaVuSans-36" d="M 2113 2584 
Q 1688 2584 1439 2293 
Q 1191 2003 1191 1497 
Q 1191 994 1439 701 
Q 1688 409 2113 409 
Q 2538 409 2786 701 
Q 3034 994 3034 1497 
Q 3034 2003 2786 2293 
Q 2538 2584 2113 2584 
z
M 3366 4563 
L 3366 3988 
Q 3128 4100 2886 4159 
Q 2644 4219 2406 4219 
Q 1781 4219 1451 3797 
Q 1122 3375 1075 2522 
Q 1259 2794 1537 2939 
Q 1816 3084 2150 3084 
Q 2853 3084 3261 2657 
Q 3669 2231 3669 1497 
Q 3669 778 3244 343 
Q 2819 -91 2113 -91 
Q 1303 -91 875 529 
Q 447 1150 447 2328 
Q 447 3434 972 4092 
Q 1497 4750 2381 4750 
Q 2619 4750 2861 4703 
Q 3103 4656 3366 4563 
z
" transform="scale(0.015625)"/>
       </defs>
       <use xlink:href="#DejaVuSans-30"/>
       <use xlink:href="#DejaVuSans-2e" x="63.623047"/>
       <use xlink:href="#DejaVuSans-36" x="95.410156"/>
      </g>
     </g>
    </g>
    <g id="ytick_5">
     <g id="line2d_11">
      <g>
       <use xlink:href="#m36f5f803e5" x="135" y="155.52" style="stroke: #000000; stroke-width: 0.8"/>
      </g>
     </g>
     <g id="text_12">
      <!-- 0.8 -->
      <g transform="translate(96.19375 163.118438) scale(0.2 -0.2)">
       <defs>
        <path id="DejaVuSans-38" d="M 2034 2216 
Q 1584 2216 1326 1975 
Q 1069 1734 1069 1313 
Q 1069 891 1326 650 
Q 1584 409 2034 409 
Q 2484 409 2743 651 
Q 3003 894 3003 1313 
Q 3003 1734 2745 1975 
Q 2488 2216 2034 2216 
z
M 1403 2484 
Q 997 2584 770 2862 
Q 544 3141 544 3541 
Q 544 4100 942 4425 
Q 1341 4750 2034 4750 
Q 2731 4750 3128 4425 
Q 3525 4100 3525 3541 
Q 3525 3141 3298 2862 
Q 3072 2584 2669 2484 
Q 3125 2378 3379 2068 
Q 3634 1759 3634 1313 
Q 3634 634 3220 271 
Q 2806 -91 2034 -91 
Q 1263 -91 848 271 
Q 434 634 434 1313 
Q 434 1759 690 2068 
Q 947 2378 1403 2484 
z
M 1172 3481 
Q 1172 3119 1398 2916 
Q 1625 2713 2034 2713 
Q 2441 2713 2670 2916 
Q 2900 3119 2900 3481 
Q 2900 3844 2670 4047 
Q 2441 4250 2034 4250 
Q 1625 4250 1398 4047 
Q 1172 3844 1172 3481 
z
" transform="scale(0.015625)"/>
       </defs>
       <use xlink:href="#DejaVuSans-30"/>
       <use xlink:href="#DejaVuSans-2e" x="63.623047"/>
       <use xlink:href="#DejaVuSans-38" x="95.410156"/>
      </g>
     </g>
    </g>
    <g id="text_13">
     <!-- $P_{NN}$ -->
     <g transform="translate(87.2025 306.985263) rotate(-90) scale(0.24 -0.24)">
      <defs>
       <path id="DejaVuSans-Oblique-50" d="M 1081 4666 
L 2541 4666 
Q 3178 4666 3512 4369 
Q 3847 4072 3847 3500 
Q 3847 2731 3353 2303 
Q 2859 1875 1966 1875 
L 1172 1875 
L 806 0 
L 172 0 
L 1081 4666 
z
M 1613 4147 
L 1275 2394 
L 2069 2394 
Q 2606 2394 2893 2669 
Q 3181 2944 3181 3456 
Q 3181 3784 2986 3965 
Q 2791 4147 2438 4147 
L 1613 4147 
z
" transform="scale(0.015625)"/>
       <path id="DejaVuSans-Oblique-4e" d="M 1081 4666 
L 1931 4666 
L 3219 666 
L 4000 4666 
L 4616 4666 
L 3706 0 
L 2853 0 
L 1569 4025 
L 788 0 
L 172 0 
L 1081 4666 
z
" transform="scale(0.015625)"/>
      </defs>
      <use xlink:href="#DejaVuSans-Oblique-50" transform="translate(0 0.09375)"/>
      <use xlink:href="#DejaVuSans-Oblique-4e" transform="translate(60.302734 -16.3125) scale(0.7)"/>
      <use xlink:href="#DejaVuSans-Oblique-4e" transform="translate(112.666016 -16.3125) scale(0.7)"/>
     </g>
    </g>
   </g>
   <g id="line2d_12">
    <path d="M 152.293388 370.089334 
L 173.910124 351.642396 
L 209.938017 341.528461 
L 281.993802 332.096117 
L 498.161157 313.873444 
" clip-path="url(#pa3224a5fc2)" style="fill: none; stroke: #1f77b4; stroke-width: 1.5; stroke-linecap: square"/>
    <defs>
     <path id="m0ea2f41d88" d="M 0 3 
C 0.795609 3 1.55874 2.683901 2.12132 2.12132 
C 2.683901 1.55874 3 0.795609 3 0 
C 3 -0.795609 2.683901 -1.55874 2.12132 -2.12132 
C 1.55874 -2.683901 0.795609 -3 0 -3 
C -0.795609 -3 -1.55874 -2.683901 -2.12132 -2.12132 
C -2.683901 -1.55874 -3 -0.795609 -3 0 
C -3 0.795609 -2.683901 1.55874 -2.12132 2.12132 
C -1.55874 2.683901 -0.795609 3 0 3 
z
" style="stroke: #1f77b4"/>
    </defs>
    <g clip-path="url(#pa3224a5fc2)">
     <use xlink:href="#m0ea2f41d88" x="152.293388" y="370.089334" style="fill: #1f77b4; stroke: #1f77b4"/>
     <use xlink:href="#m0ea2f41d88" x="173.910124" y="351.642396" style="fill: #1f77b4; stroke: #1f77b4"/>
     <use xlink:href="#m0ea2f41d88" x="209.938017" y="341.528461" style="fill: #1f77b4; stroke: #1f77b4"/>
     <use xlink:href="#m0ea2f41d88" x="281.993802" y="332.096117" style="fill: #1f77b4; stroke: #1f77b4"/>
     <use xlink:href="#m0ea2f41d88" x="498.161157" y="313.873444" style="fill: #1f77b4; stroke: #1f77b4"/>
    </g>
   </g>
   <g id="line2d_13">
    <path d="M 152.293388 191.666325 
L 173.910124 187.224988 
L 209.938017 187.42287 
L 281.993802 197.998528 
L 498.161157 223.217405 
" clip-path="url(#pa3224a5fc2)" style="fill: none; stroke: #ff7f0e; stroke-width: 1.5; stroke-linecap: square"/>
    <defs>
     <path id="mff22f4e53d" d="M 0 3 
C 0.795609 3 1.55874 2.683901 2.12132 2.12132 
C 2.683901 1.55874 3 0.795609 3 0 
C 3 -0.795609 2.683901 -1.55874 2.12132 -2.12132 
C 1.55874 -2.683901 0.795609 -3 0 -3 
C -0.795609 -3 -1.55874 -2.683901 -2.12132 -2.12132 
C -2.683901 -1.55874 -3 -0.795609 -3 0 
C -3 0.795609 -2.683901 1.55874 -2.12132 2.12132 
C -1.55874 2.683901 -0.795609 3 0 3 
z
" style="stroke: #ff7f0e"/>
    </defs>
    <g clip-path="url(#pa3224a5fc2)">
     <use xlink:href="#mff22f4e53d" x="152.293388" y="191.666325" style="fill: #ff7f0e; stroke: #ff7f0e"/>
     <use xlink:href="#mff22f4e53d" x="173.910124" y="187.224988" style="fill: #ff7f0e; stroke: #ff7f0e"/>
     <use xlink:href="#mff22f4e53d" x="209.938017" y="187.42287" style="fill: #ff7f0e; stroke: #ff7f0e"/>
     <use xlink:href="#mff22f4e53d" x="281.993802" y="197.998528" style="fill: #ff7f0e; stroke: #ff7f0e"/>
     <use xlink:href="#mff22f4e53d" x="498.161157" y="223.217405" style="fill: #ff7f0e; stroke: #ff7f0e"/>
    </g>
   </g>
   <g id="line2d_14">
    <path d="M 152.293388 302.04014 
L 173.910124 248.260388 
L 209.938017 214.334732 
L 281.993802 203.26437 
L 498.161157 230.108073 
" clip-path="url(#pa3224a5fc2)" style="fill: none; stroke: #2ca02c; stroke-width: 1.5; stroke-linecap: square"/>
    <defs>
     <path id="m507e1d99c2" d="M 0 3 
C 0.795609 3 1.55874 2.683901 2.12132 2.12132 
C 2.683901 1.55874 3 0.795609 3 0 
C 3 -0.795609 2.683901 -1.55874 2.12132 -2.12132 
C 1.55874 -2.683901 0.795609 -3 0 -3 
C -0.795609 -3 -1.55874 -2.683901 -2.12132 -2.12132 
C -2.683901 -1.55874 -3 -0.795609 -3 0 
C -3 0.795609 -2.683901 1.55874 -2.12132 2.12132 
C -1.55874 2.683901 -0.795609 3 0 3 
z
" style="stroke: #2ca02c"/>
    </defs>
    <g clip-path="url(#pa3224a5fc2)">
     <use xlink:href="#m507e1d99c2" x="152.293388" y="302.04014" style="fill: #2ca02c; stroke: #2ca02c"/>
     <use xlink:href="#m507e1d99c2" x="173.910124" y="248.260388" style="fill: #2ca02c; stroke: #2ca02c"/>
     <use xlink:href="#m507e1d99c2" x="209.938017" y="214.334732" style="fill: #2ca02c; stroke: #2ca02c"/>
     <use xlink:href="#m507e1d99c2" x="281.993802" y="203.26437" style="fill: #2ca02c; stroke: #2ca02c"/>
     <use xlink:href="#m507e1d99c2" x="498.161157" y="230.108073" style="fill: #2ca02c; stroke: #2ca02c"/>
    </g>
   </g>
   <g id="line2d_15">
    <path d="M 152.293388 281.372533 
L 173.910124 251.514437 
L 209.938017 230.626962 
L 281.993802 210.882802 
L 498.161157 213.077086 
" clip-path="url(#pa3224a5fc2)" style="fill: none; stroke: #d62728; stroke-width: 1.5; stroke-linecap: square"/>
    <defs>
     <path id="mf71d6b52f5" d="M 0 3 
C 0.795609 3 1.55874 2.683901 2.12132 2.12132 
C 2.683901 1.55874 3 0.795609 3 0 
C 3 -0.795609 2.683901 -1.55874 2.12132 -2.12132 
C 1.55874 -2.683901 0.795609 -3 0 -3 
C -0.795609 -3 -1.55874 -2.683901 -2.12132 -2.12132 
C -2.683901 -1.55874 -3 -0.795609 -3 0 
C -3 0.795609 -2.683901 1.55874 -2.12132 2.12132 
C -1.55874 2.683901 -0.795609 3 0 3 
z
" style="stroke: #d62728"/>
    </defs>
    <g clip-path="url(#pa3224a5fc2)">
     <use xlink:href="#mf71d6b52f5" x="152.293388" y="281.372533" style="fill: #d62728; stroke: #d62728"/>
     <use xlink:href="#mf71d6b52f5" x="173.910124" y="251.514437" style="fill: #d62728; stroke: #d62728"/>
     <use xlink:href="#mf71d6b52f5" x="209.938017" y="230.626962" style="fill: #d62728; stroke: #d62728"/>
     <use xlink:href="#mf71d6b52f5" x="281.993802" y="210.882802" style="fill: #d62728; stroke: #d62728"/>
     <use xlink:href="#mf71d6b52f5" x="498.161157" y="213.077086" style="fill: #d62728; stroke: #d62728"/>
    </g>
   </g>
   <g id="patch_3">
    <path d="M 135 418.130526 
L 135 155.52 
" style="fill: none; stroke: #000000; stroke-width: 0.8; stroke-linejoin: miter; stroke-linecap: square"/>
   </g>
   <g id="patch_4">
    <path d="M 515.454545 418.130526 
L 515.454545 155.52 
" style="fill: none; stroke: #000000; stroke-width: 0.8; stroke-linejoin: miter; stroke-linecap: square"/>
   </g>
   <g id="patch_5">
    <path d="M 135 418.130526 
L 515.454545 418.130526 
" style="fill: none; stroke: #000000; stroke-width: 0.8; stroke-linejoin: miter; stroke-linecap: square"/>
   </g>
   <g id="patch_6">
    <path d="M 135 155.52 
L 515.454545 155.52 
" style="fill: none; stroke: #000000; stroke-width: 0.8; stroke-linejoin: miter; stroke-linecap: square"/>
   </g>
   <g id="text_14">
    <!-- a -->
    <g transform="translate(89.472557 137.404046) scale(0.28 -0.28)">
     <defs>
      <path id="DejaVuSans-Bold-61" d="M 2106 1575 
Q 1756 1575 1579 1456 
Q 1403 1338 1403 1106 
Q 1403 894 1545 773 
Q 1688 653 1941 653 
Q 2256 653 2472 879 
Q 2688 1106 2688 1447 
L 2688 1575 
L 2106 1575 
z
M 3816 1997 
L 3816 0 
L 2688 0 
L 2688 519 
Q 2463 200 2181 54 
Q 1900 -91 1497 -91 
Q 953 -91 614 226 
Q 275 544 275 1050 
Q 275 1666 698 1953 
Q 1122 2241 2028 2241 
L 2688 2241 
L 2688 2328 
Q 2688 2594 2478 2717 
Q 2269 2841 1825 2841 
Q 1466 2841 1156 2769 
Q 847 2697 581 2553 
L 581 3406 
Q 941 3494 1303 3539 
Q 1666 3584 2028 3584 
Q 2975 3584 3395 3211 
Q 3816 2838 3816 1997 
z
" transform="scale(0.015625)"/>
     </defs>
     <use xlink:href="#DejaVuSans-Bold-61"/>
    </g>
   </g>
   <g id="text_15">
    <!-- $P_{NN}$ -->
    <g transform="translate(303.387273 149.52) scale(0.26 -0.26)">
     <use xlink:href="#DejaVuSans-Oblique-50" transform="translate(0 0.09375)"/>
     <use xlink:href="#DejaVuSans-Oblique-4e" transform="translate(60.302734 -16.3125) scale(0.7)"/>
     <use xlink:href="#DejaVuSans-Oblique-4e" transform="translate(112.666016 -16.3125) scale(0.7)"/>
    </g>
   </g>
  </g>
  <g id="axes_2">
   <g id="patch_7">
    <path d="M 591.545455 418.130526 
L 972 418.130526 
L 972 155.52 
L 591.545455 155.52 
z
" style="fill: #ffffff"/>
   </g>
   <g id="patch_8">
    <path d="M 608.838843 418.130526 
L 628.792753 418.130526 
L 628.792753 179.538368 
L 608.838843 179.538368 
z
" clip-path="url(#p03df44c74d)" style="fill: #1f77b4"/>
   </g>
   <g id="patch_9">
    <path d="M 741.864908 418.130526 
L 761.818818 418.130526 
L 761.818818 301.848366 
L 741.864908 301.848366 
z
" clip-path="url(#p03df44c74d)" style="fill: #1f77b4"/>
   </g>
   <g id="patch_10">
    <path d="M 874.890973 418.130526 
L 894.844882 418.130526 
L 894.844882 168.025263 
L 874.890973 168.025263 
z
" clip-path="url(#p03df44c74d)" style="fill: #1f77b4"/>
   </g>
   <g id="patch_11">
    <path d="M 628.792753 418.130526 
L 648.746662 418.130526 
L 648.746662 187.186203 
L 628.792753 187.186203 
z
" clip-path="url(#p03df44c74d)" style="fill: #ff7f0e"/>
   </g>
   <g id="patch_12">
    <path d="M 761.818818 418.130526 
L 781.772727 418.130526 
L 781.772727 177.562602 
L 761.818818 177.562602 
z
" clip-path="url(#p03df44c74d)" style="fill: #ff7f0e"/>
   </g>
   <g id="patch_13">
    <path d="M 894.844882 418.130526 
L 914.798792 418.130526 
L 914.798792 187.132634 
L 894.844882 187.132634 
z
" clip-path="url(#p03df44c74d)" style="fill: #ff7f0e"/>
   </g>
   <g id="patch_14">
    <path d="M 648.746662 418.130526 
L 668.700572 418.130526 
L 668.700572 189.060764 
L 648.746662 189.060764 
z
" clip-path="url(#p03df44c74d)" style="fill: #2ca02c"/>
   </g>
   <g id="patch_15">
    <path d="M 781.772727 418.130526 
L 801.726637 418.130526 
L 801.726637 226.242679 
L 781.772727 226.242679 
z
" clip-path="url(#p03df44c74d)" style="fill: #2ca02c"/>
   </g>
   <g id="patch_16">
    <path d="M 914.798792 418.130526 
L 934.752702 418.130526 
L 934.752702 188.584172 
L 914.798792 188.584172 
z
" clip-path="url(#p03df44c74d)" style="fill: #2ca02c"/>
   </g>
   <g id="patch_17">
    <path d="M 668.700572 418.130526 
L 688.654482 418.130526 
L 688.654482 182.67956 
L 668.700572 182.67956 
z
" clip-path="url(#p03df44c74d)" style="fill: #d62728"/>
   </g>
   <g id="patch_18">
    <path d="M 801.726637 418.130526 
L 821.680547 418.130526 
L 821.680547 222.662491 
L 801.726637 222.662491 
z
" clip-path="url(#p03df44c74d)" style="fill: #d62728"/>
   </g>
   <g id="patch_19">
    <path d="M 934.752702 418.130526 
L 954.706612 418.130526 
L 954.706612 181.978891 
L 934.752702 181.978891 
z
" clip-path="url(#p03df44c74d)" style="fill: #d62728"/>
   </g>
   <g id="matplotlib.axis_3">
    <g id="xtick_7">
     <g id="line2d_16">
      <g>
       <use xlink:href="#mdcea97e396" x="648.746662" y="418.130526" style="stroke: #000000; stroke-width: 0.8"/>
      </g>
     </g>
     <g id="text_16">
      <!-- AUC -->
      <g transform="translate(625.490256 441.847089) scale(0.22 -0.22)">
       <defs>
        <path id="DejaVuSans-41" d="M 2188 4044 
L 1331 1722 
L 3047 1722 
L 2188 4044 
z
M 1831 4666 
L 2547 4666 
L 4325 0 
L 3669 0 
L 3244 1197 
L 1141 1197 
L 716 0 
L 50 0 
L 1831 4666 
z
" transform="scale(0.015625)"/>
        <path id="DejaVuSans-55" d="M 556 4666 
L 1191 4666 
L 1191 1831 
Q 1191 1081 1462 751 
Q 1734 422 2344 422 
Q 2950 422 3222 751 
Q 3494 1081 3494 1831 
L 3494 4666 
L 4128 4666 
L 4128 1753 
Q 4128 841 3676 375 
Q 3225 -91 2344 -91 
Q 1459 -91 1007 375 
Q 556 841 556 1753 
L 556 4666 
z
" transform="scale(0.015625)"/>
        <path id="DejaVuSans-43" d="M 4122 4306 
L 4122 3641 
Q 3803 3938 3442 4084 
Q 3081 4231 2675 4231 
Q 1875 4231 1450 3742 
Q 1025 3253 1025 2328 
Q 1025 1406 1450 917 
Q 1875 428 2675 428 
Q 3081 428 3442 575 
Q 3803 722 4122 1019 
L 4122 359 
Q 3791 134 3420 21 
Q 3050 -91 2638 -91 
Q 1578 -91 968 557 
Q 359 1206 359 2328 
Q 359 3453 968 4101 
Q 1578 4750 2638 4750 
Q 3056 4750 3426 4639 
Q 3797 4528 4122 4306 
z
" transform="scale(0.015625)"/>
       </defs>
       <use xlink:href="#DejaVuSans-41"/>
       <use xlink:href="#DejaVuSans-55" x="68.408203"/>
       <use xlink:href="#DejaVuSans-43" x="141.601562"/>
      </g>
     </g>
    </g>
    <g id="xtick_8">
     <g id="line2d_17">
      <g>
       <use xlink:href="#mdcea97e396" x="781.772727" y="418.130526" style="stroke: #000000; stroke-width: 0.8"/>
      </g>
     </g>
     <g id="text_17">
      <!-- $Q_{local}$ -->
      <g transform="translate(754.822727 441.847089) scale(0.22 -0.22)">
       <defs>
        <path id="DejaVuSans-Oblique-51" d="M 2309 -84 
Q 2275 -88 2237 -89 
Q 2200 -91 2125 -91 
Q 1250 -91 756 411 
Q 263 913 263 1797 
Q 263 2319 452 2844 
Q 641 3369 978 3788 
Q 1369 4269 1858 4509 
Q 2347 4750 2938 4750 
Q 3794 4750 4287 4245 
Q 4781 3741 4781 2869 
Q 4781 1928 4265 1147 
Q 3750 366 2919 44 
L 3553 -825 
L 2847 -825 
L 2309 -84 
z
M 2919 4238 
Q 2400 4238 2003 3986 
Q 1606 3734 1313 3219 
Q 1125 2891 1026 2522 
Q 928 2153 928 1778 
Q 928 1128 1239 775 
Q 1550 422 2119 422 
Q 2631 422 3032 676 
Q 3434 931 3719 1434 
Q 3909 1772 4009 2142 
Q 4109 2513 4109 2881 
Q 4109 3528 3796 3883 
Q 3484 4238 2919 4238 
z
" transform="scale(0.015625)"/>
        <path id="DejaVuSans-Oblique-6c" d="M 1172 4863 
L 1747 4863 
L 800 0 
L 225 0 
L 1172 4863 
z
" transform="scale(0.015625)"/>
        <path id="DejaVuSans-Oblique-6f" d="M 1625 -91 
Q 1009 -91 651 289 
Q 294 669 294 1325 
Q 294 1706 417 2101 
Q 541 2497 738 2766 
Q 1047 3184 1428 3384 
Q 1809 3584 2291 3584 
Q 2888 3584 3255 3212 
Q 3622 2841 3622 2241 
Q 3622 1825 3500 1412 
Q 3378 1000 3181 728 
Q 2875 309 2494 109 
Q 2113 -91 1625 -91 
z
M 891 1344 
Q 891 869 1089 633 
Q 1288 397 1691 397 
Q 2269 397 2648 901 
Q 3028 1406 3028 2181 
Q 3028 2634 2825 2865 
Q 2622 3097 2228 3097 
Q 1903 3097 1650 2945 
Q 1397 2794 1197 2484 
Q 1050 2253 970 1956 
Q 891 1659 891 1344 
z
" transform="scale(0.015625)"/>
        <path id="DejaVuSans-Oblique-63" d="M 3431 3366 
L 3316 2797 
Q 3109 2947 2876 3022 
Q 2644 3097 2394 3097 
Q 2119 3097 1870 3000 
Q 1622 2903 1453 2725 
Q 1184 2453 1037 2087 
Q 891 1722 891 1331 
Q 891 859 1127 628 
Q 1363 397 1844 397 
Q 2081 397 2348 469 
Q 2616 541 2906 684 
L 2797 116 
Q 2547 13 2283 -39 
Q 2019 -91 1741 -91 
Q 1044 -91 669 257 
Q 294 606 294 1253 
Q 294 1797 489 2255 
Q 684 2713 1069 3078 
Q 1331 3328 1684 3456 
Q 2038 3584 2456 3584 
Q 2700 3584 2940 3529 
Q 3181 3475 3431 3366 
z
" transform="scale(0.015625)"/>
        <path id="DejaVuSans-Oblique-61" d="M 3438 1997 
L 3047 0 
L 2472 0 
L 2578 531 
Q 2325 219 2001 64 
Q 1678 -91 1281 -91 
Q 834 -91 548 182 
Q 263 456 263 884 
Q 263 1497 752 1853 
Q 1241 2209 2100 2209 
L 2900 2209 
L 2931 2363 
Q 2938 2388 2941 2417 
Q 2944 2447 2944 2509 
Q 2944 2788 2717 2942 
Q 2491 3097 2081 3097 
Q 1800 3097 1504 3025 
Q 1209 2953 897 2809 
L 997 3341 
Q 1322 3463 1633 3523 
Q 1944 3584 2234 3584 
Q 2853 3584 3176 3315 
Q 3500 3047 3500 2534 
Q 3500 2431 3484 2292 
Q 3469 2153 3438 1997 
z
M 2816 1759 
L 2241 1759 
Q 1534 1759 1195 1570 
Q 856 1381 856 984 
Q 856 709 1029 553 
Q 1203 397 1509 397 
Q 1978 397 2328 733 
Q 2678 1069 2791 1631 
L 2816 1759 
z
" transform="scale(0.015625)"/>
       </defs>
       <use xlink:href="#DejaVuSans-Oblique-51" transform="translate(0 0.78125)"/>
       <use xlink:href="#DejaVuSans-Oblique-6c" transform="translate(78.710938 -15.625) scale(0.7)"/>
       <use xlink:href="#DejaVuSans-Oblique-6f" transform="translate(98.15918 -15.625) scale(0.7)"/>
       <use xlink:href="#DejaVuSans-Oblique-63" transform="translate(140.986328 -15.625) scale(0.7)"/>
       <use xlink:href="#DejaVuSans-Oblique-61" transform="translate(179.472656 -15.625) scale(0.7)"/>
       <use xlink:href="#DejaVuSans-Oblique-6c" transform="translate(222.368164 -15.625) scale(0.7)"/>
      </g>
     </g>
    </g>
    <g id="xtick_9">
     <g id="line2d_18">
      <g>
       <use xlink:href="#mdcea97e396" x="914.798792" y="418.130526" style="stroke: #000000; stroke-width: 0.8"/>
      </g>
     </g>
     <g id="text_18">
      <!-- $Q_{global}$ -->
      <g transform="translate(882.348792 441.630526) scale(0.22 -0.22)">
       <defs>
        <path id="DejaVuSans-Oblique-67" d="M 3816 3500 
L 3219 434 
Q 3047 -456 2561 -893 
Q 2075 -1331 1253 -1331 
Q 950 -1331 690 -1286 
Q 431 -1241 206 -1147 
L 313 -588 
Q 525 -725 762 -790 
Q 1000 -856 1269 -856 
Q 1816 -856 2167 -557 
Q 2519 -259 2631 300 
L 2681 563 
Q 2441 288 2122 144 
Q 1803 0 1434 0 
Q 903 0 598 351 
Q 294 703 294 1319 
Q 294 1803 478 2267 
Q 663 2731 997 3091 
Q 1219 3328 1514 3456 
Q 1809 3584 2131 3584 
Q 2484 3584 2746 3420 
Q 3009 3256 3138 2956 
L 3238 3500 
L 3816 3500 
z
M 2950 2216 
Q 2950 2641 2750 2872 
Q 2550 3103 2181 3103 
Q 1953 3103 1747 3012 
Q 1541 2922 1394 2759 
Q 1156 2491 1023 2127 
Q 891 1763 891 1375 
Q 891 944 1092 712 
Q 1294 481 1672 481 
Q 2219 481 2584 976 
Q 2950 1472 2950 2216 
z
" transform="scale(0.015625)"/>
        <path id="DejaVuSans-Oblique-62" d="M 3169 2138 
Q 3169 2591 2961 2847 
Q 2753 3103 2388 3103 
Q 2122 3103 1889 2973 
Q 1656 2844 1484 2597 
Q 1303 2338 1198 1995 
Q 1094 1653 1094 1313 
Q 1094 881 1298 636 
Q 1503 391 1863 391 
Q 2134 391 2365 517 
Q 2597 644 2772 891 
Q 2950 1147 3059 1487 
Q 3169 1828 3169 2138 
z
M 1381 2969 
Q 1594 3256 1914 3420 
Q 2234 3584 2584 3584 
Q 3122 3584 3439 3221 
Q 3756 2859 3756 2241 
Q 3756 1734 3570 1259 
Q 3384 784 3041 416 
Q 2816 172 2522 40 
Q 2228 -91 1906 -91 
Q 1566 -91 1316 65 
Q 1066 222 909 531 
L 806 0 
L 231 0 
L 1178 4863 
L 1753 4863 
L 1381 2969 
z
" transform="scale(0.015625)"/>
       </defs>
       <use xlink:href="#DejaVuSans-Oblique-51" transform="translate(0 0.78125)"/>
       <use xlink:href="#DejaVuSans-Oblique-67" transform="translate(78.710938 -15.625) scale(0.7)"/>
       <use xlink:href="#DejaVuSans-Oblique-6c" transform="translate(123.144531 -15.625) scale(0.7)"/>
       <use xlink:href="#DejaVuSans-Oblique-6f" transform="translate(142.592773 -15.625) scale(0.7)"/>
       <use xlink:href="#DejaVuSans-Oblique-62" transform="translate(185.419922 -15.625) scale(0.7)"/>
       <use xlink:href="#DejaVuSans-Oblique-61" transform="translate(229.853516 -15.625) scale(0.7)"/>
       <use xlink:href="#DejaVuSans-Oblique-6c" transform="translate(272.749023 -15.625) scale(0.7)"/>
      </g>
     </g>
    </g>
   </g>
   <g id="matplotlib.axis_4">
    <g id="ytick_6">
     <g id="line2d_19">
      <g>
       <use xlink:href="#m36f5f803e5" x="591.545455" y="418.130526" style="stroke: #000000; stroke-width: 0.8"/>
      </g>
     </g>
     <g id="text_19">
      <!-- 0.0 -->
      <g transform="translate(549.55858 426.488808) scale(0.22 -0.22)">
       <use xlink:href="#DejaVuSans-30"/>
       <use xlink:href="#DejaVuSans-2e" x="63.623047"/>
       <use xlink:href="#DejaVuSans-30" x="95.410156"/>
      </g>
     </g>
    </g>
    <g id="ytick_7">
     <g id="line2d_20">
      <g>
       <use xlink:href="#m36f5f803e5" x="591.545455" y="348.585665" style="stroke: #000000; stroke-width: 0.8"/>
      </g>
     </g>
     <g id="text_20">
      <!-- 0.2 -->
      <g transform="translate(549.55858 356.943947) scale(0.22 -0.22)">
       <use xlink:href="#DejaVuSans-30"/>
       <use xlink:href="#DejaVuSans-2e" x="63.623047"/>
       <use xlink:href="#DejaVuSans-32" x="95.410156"/>
      </g>
     </g>
    </g>
    <g id="ytick_8">
     <g id="line2d_21">
      <g>
       <use xlink:href="#m36f5f803e5" x="591.545455" y="279.040805" style="stroke: #000000; stroke-width: 0.8"/>
      </g>
     </g>
     <g id="text_21">
      <!-- 0.4 -->
      <g transform="translate(549.55858 287.399086) scale(0.22 -0.22)">
       <use xlink:href="#DejaVuSans-30"/>
       <use xlink:href="#DejaVuSans-2e" x="63.623047"/>
       <use xlink:href="#DejaVuSans-34" x="95.410156"/>
      </g>
     </g>
    </g>
    <g id="ytick_9">
     <g id="line2d_22">
      <g>
       <use xlink:href="#m36f5f803e5" x="591.545455" y="209.495944" style="stroke: #000000; stroke-width: 0.8"/>
      </g>
     </g>
     <g id="text_22">
      <!-- 0.6 -->
      <g transform="translate(549.55858 217.854225) scale(0.22 -0.22)">
       <use xlink:href="#DejaVuSans-30"/>
       <use xlink:href="#DejaVuSans-2e" x="63.623047"/>
       <use xlink:href="#DejaVuSans-36" x="95.410156"/>
      </g>
     </g>
    </g>
    <g id="text_23">
     <!-- Metric Value -->
     <g transform="translate(540.983267 354.727919) rotate(-90) scale(0.22 -0.22)">
      <defs>
       <path id="DejaVuSans-4d" d="M 628 4666 
L 1569 4666 
L 2759 1491 
L 3956 4666 
L 4897 4666 
L 4897 0 
L 4281 0 
L 4281 4097 
L 3078 897 
L 2444 897 
L 1241 4097 
L 1241 0 
L 628 0 
L 628 4666 
z
" transform="scale(0.015625)"/>
       <path id="DejaVuSans-65" d="M 3597 1894 
L 3597 1613 
L 953 1613 
Q 991 1019 1311 708 
Q 1631 397 2203 397 
Q 2534 397 2845 478 
Q 3156 559 3463 722 
L 3463 178 
Q 3153 47 2828 -22 
Q 2503 -91 2169 -91 
Q 1331 -91 842 396 
Q 353 884 353 1716 
Q 353 2575 817 3079 
Q 1281 3584 2069 3584 
Q 2775 3584 3186 3129 
Q 3597 2675 3597 1894 
z
M 3022 2063 
Q 3016 2534 2758 2815 
Q 2500 3097 2075 3097 
Q 1594 3097 1305 2825 
Q 1016 2553 972 2059 
L 3022 2063 
z
" transform="scale(0.015625)"/>
       <path id="DejaVuSans-74" d="M 1172 4494 
L 1172 3500 
L 2356 3500 
L 2356 3053 
L 1172 3053 
L 1172 1153 
Q 1172 725 1289 603 
Q 1406 481 1766 481 
L 2356 481 
L 2356 0 
L 1766 0 
Q 1100 0 847 248 
Q 594 497 594 1153 
L 594 3053 
L 172 3053 
L 172 3500 
L 594 3500 
L 594 4494 
L 1172 4494 
z
" transform="scale(0.015625)"/>
       <path id="DejaVuSans-72" d="M 2631 2963 
Q 2534 3019 2420 3045 
Q 2306 3072 2169 3072 
Q 1681 3072 1420 2755 
Q 1159 2438 1159 1844 
L 1159 0 
L 581 0 
L 581 3500 
L 1159 3500 
L 1159 2956 
Q 1341 3275 1631 3429 
Q 1922 3584 2338 3584 
Q 2397 3584 2469 3576 
Q 2541 3569 2628 3553 
L 2631 2963 
z
" transform="scale(0.015625)"/>
       <path id="DejaVuSans-69" d="M 603 3500 
L 1178 3500 
L 1178 0 
L 603 0 
L 603 3500 
z
M 603 4863 
L 1178 4863 
L 1178 4134 
L 603 4134 
L 603 4863 
z
" transform="scale(0.015625)"/>
       <path id="DejaVuSans-63" d="M 3122 3366 
L 3122 2828 
Q 2878 2963 2633 3030 
Q 2388 3097 2138 3097 
Q 1578 3097 1268 2742 
Q 959 2388 959 1747 
Q 959 1106 1268 751 
Q 1578 397 2138 397 
Q 2388 397 2633 464 
Q 2878 531 3122 666 
L 3122 134 
Q 2881 22 2623 -34 
Q 2366 -91 2075 -91 
Q 1284 -91 818 406 
Q 353 903 353 1747 
Q 353 2603 823 3093 
Q 1294 3584 2113 3584 
Q 2378 3584 2631 3529 
Q 2884 3475 3122 3366 
z
" transform="scale(0.015625)"/>
       <path id="DejaVuSans-20" transform="scale(0.015625)"/>
       <path id="DejaVuSans-56" d="M 1831 0 
L 50 4666 
L 709 4666 
L 2188 738 
L 3669 4666 
L 4325 4666 
L 2547 0 
L 1831 0 
z
" transform="scale(0.015625)"/>
       <path id="DejaVuSans-61" d="M 2194 1759 
Q 1497 1759 1228 1600 
Q 959 1441 959 1056 
Q 959 750 1161 570 
Q 1363 391 1709 391 
Q 2188 391 2477 730 
Q 2766 1069 2766 1631 
L 2766 1759 
L 2194 1759 
z
M 3341 1997 
L 3341 0 
L 2766 0 
L 2766 531 
Q 2569 213 2275 61 
Q 1981 -91 1556 -91 
Q 1019 -91 701 211 
Q 384 513 384 1019 
Q 384 1609 779 1909 
Q 1175 2209 1959 2209 
L 2766 2209 
L 2766 2266 
Q 2766 2663 2505 2880 
Q 2244 3097 1772 3097 
Q 1472 3097 1187 3025 
Q 903 2953 641 2809 
L 641 3341 
Q 956 3463 1253 3523 
Q 1550 3584 1831 3584 
Q 2591 3584 2966 3190 
Q 3341 2797 3341 1997 
z
" transform="scale(0.015625)"/>
       <path id="DejaVuSans-6c" d="M 603 4863 
L 1178 4863 
L 1178 0 
L 603 0 
L 603 4863 
z
" transform="scale(0.015625)"/>
       <path id="DejaVuSans-75" d="M 544 1381 
L 544 3500 
L 1119 3500 
L 1119 1403 
Q 1119 906 1312 657 
Q 1506 409 1894 409 
Q 2359 409 2629 706 
Q 2900 1003 2900 1516 
L 2900 3500 
L 3475 3500 
L 3475 0 
L 2900 0 
L 2900 538 
Q 2691 219 2414 64 
Q 2138 -91 1772 -91 
Q 1169 -91 856 284 
Q 544 659 544 1381 
z
M 1991 3584 
L 1991 3584 
z
" transform="scale(0.015625)"/>
      </defs>
      <use xlink:href="#DejaVuSans-4d"/>
      <use xlink:href="#DejaVuSans-65" x="86.279297"/>
      <use xlink:href="#DejaVuSans-74" x="147.802734"/>
      <use xlink:href="#DejaVuSans-72" x="187.011719"/>
      <use xlink:href="#DejaVuSans-69" x="228.125"/>
      <use xlink:href="#DejaVuSans-63" x="255.908203"/>
      <use xlink:href="#DejaVuSans-20" x="310.888672"/>
      <use xlink:href="#DejaVuSans-56" x="342.675781"/>
      <use xlink:href="#DejaVuSans-61" x="403.333984"/>
      <use xlink:href="#DejaVuSans-6c" x="464.613281"/>
      <use xlink:href="#DejaVuSans-75" x="492.396484"/>
      <use xlink:href="#DejaVuSans-65" x="555.775391"/>
     </g>
    </g>
   </g>
   <g id="patch_20">
    <path d="M 591.545455 418.130526 
L 591.545455 155.52 
" style="fill: none; stroke: #000000; stroke-width: 0.8; stroke-linejoin: miter; stroke-linecap: square"/>
   </g>
   <g id="patch_21">
    <path d="M 972 418.130526 
L 972 155.52 
" style="fill: none; stroke: #000000; stroke-width: 0.8; stroke-linejoin: miter; stroke-linecap: square"/>
   </g>
   <g id="patch_22">
    <path d="M 591.545455 418.130526 
L 972 418.130526 
" style="fill: none; stroke: #000000; stroke-width: 0.8; stroke-linejoin: miter; stroke-linecap: square"/>
   </g>
   <g id="patch_23">
    <path d="M 591.545455 155.52 
L 972 155.52 
" style="fill: none; stroke: #000000; stroke-width: 0.8; stroke-linejoin: miter; stroke-linecap: square"/>
   </g>
   <g id="text_24">
    <!-- b -->
    <g transform="translate(544.871761 137.404046) scale(0.28 -0.28)">
     <defs>
      <path id="DejaVuSans-Bold-62" d="M 2400 722 
Q 2759 722 2948 984 
Q 3138 1247 3138 1747 
Q 3138 2247 2948 2509 
Q 2759 2772 2400 2772 
Q 2041 2772 1848 2508 
Q 1656 2244 1656 1747 
Q 1656 1250 1848 986 
Q 2041 722 2400 722 
z
M 1656 2988 
Q 1888 3294 2169 3439 
Q 2450 3584 2816 3584 
Q 3463 3584 3878 3070 
Q 4294 2556 4294 1747 
Q 4294 938 3878 423 
Q 3463 -91 2816 -91 
Q 2450 -91 2169 54 
Q 1888 200 1656 506 
L 1656 0 
L 538 0 
L 538 4863 
L 1656 4863 
L 1656 2988 
z
" transform="scale(0.015625)"/>
     </defs>
     <use xlink:href="#DejaVuSans-Bold-62"/>
    </g>
   </g>
   <g id="text_25">
    <!-- Metrics -->
    <g transform="translate(734.584759 149.52) scale(0.26 -0.26)">
     <defs>
      <path id="DejaVuSans-73" d="M 2834 3397 
L 2834 2853 
Q 2591 2978 2328 3040 
Q 2066 3103 1784 3103 
Q 1356 3103 1142 2972 
Q 928 2841 928 2578 
Q 928 2378 1081 2264 
Q 1234 2150 1697 2047 
L 1894 2003 
Q 2506 1872 2764 1633 
Q 3022 1394 3022 966 
Q 3022 478 2636 193 
Q 2250 -91 1575 -91 
Q 1294 -91 989 -36 
Q 684 19 347 128 
L 347 722 
Q 666 556 975 473 
Q 1284 391 1588 391 
Q 1994 391 2212 530 
Q 2431 669 2431 922 
Q 2431 1156 2273 1281 
Q 2116 1406 1581 1522 
L 1381 1569 
Q 847 1681 609 1914 
Q 372 2147 372 2553 
Q 372 3047 722 3315 
Q 1072 3584 1716 3584 
Q 2034 3584 2315 3537 
Q 2597 3491 2834 3397 
z
" transform="scale(0.015625)"/>
     </defs>
     <use xlink:href="#DejaVuSans-4d"/>
     <use xlink:href="#DejaVuSans-65" x="86.279297"/>
     <use xlink:href="#DejaVuSans-74" x="147.802734"/>
     <use xlink:href="#DejaVuSans-72" x="187.011719"/>
     <use xlink:href="#DejaVuSans-69" x="228.125"/>
     <use xlink:href="#DejaVuSans-63" x="255.908203"/>
     <use xlink:href="#DejaVuSans-73" x="310.888672"/>
    </g>
   </g>
  </g>
  <g id="axes_3">
   <g id="patch_24">
    <path d="M 135 785.785263 
L 515.454545 785.785263 
L 515.454545 523.174737 
L 135 523.174737 
z
" style="fill: #ffffff"/>
   </g>
   <g id="matplotlib.axis_5">
    <g id="xtick_10">
     <g id="line2d_23">
      <g>
       <use xlink:href="#mdcea97e396" x="137.882231" y="785.785263" style="stroke: #000000; stroke-width: 0.8"/>
      </g>
     </g>
     <g id="text_26">
      <!-- 0 -->
      <g transform="translate(130.883481 809.501826) scale(0.22 -0.22)">
       <use xlink:href="#DejaVuSans-30"/>
      </g>
     </g>
    </g>
    <g id="xtick_11">
     <g id="line2d_24">
      <g>
       <use xlink:href="#mdcea97e396" x="281.993802" y="785.785263" style="stroke: #000000; stroke-width: 0.8"/>
      </g>
     </g>
     <g id="text_27">
      <!-- 20 -->
      <g transform="translate(267.996302 809.501826) scale(0.22 -0.22)">
       <use xlink:href="#DejaVuSans-32"/>
       <use xlink:href="#DejaVuSans-30" x="63.623047"/>
      </g>
     </g>
    </g>
    <g id="xtick_12">
     <g id="line2d_25">
      <g>
       <use xlink:href="#mdcea97e396" x="426.105372" y="785.785263" style="stroke: #000000; stroke-width: 0.8"/>
      </g>
     </g>
     <g id="text_28">
      <!-- 40 -->
      <g transform="translate(412.107872 809.501826) scale(0.22 -0.22)">
       <use xlink:href="#DejaVuSans-34"/>
       <use xlink:href="#DejaVuSans-30" x="63.623047"/>
      </g>
     </g>
    </g>
    <g id="text_29">
     <!-- k -->
     <g transform="translate(318.278523 836.313388) scale(0.24 -0.24)">
      <use xlink:href="#DejaVuSans-6b"/>
     </g>
    </g>
   </g>
   <g id="matplotlib.axis_6">
    <g id="ytick_10">
     <g id="line2d_26">
      <g>
       <use xlink:href="#m36f5f803e5" x="135" y="721.788412" style="stroke: #000000; stroke-width: 0.8"/>
      </g>
     </g>
     <g id="text_30">
      <!-- 0.85 -->
      <g transform="translate(79.015625 730.146693) scale(0.22 -0.22)">
       <use xlink:href="#DejaVuSans-30"/>
       <use xlink:href="#DejaVuSans-2e" x="63.623047"/>
       <use xlink:href="#DejaVuSans-38" x="95.410156"/>
       <use xlink:href="#DejaVuSans-35" x="159.033203"/>
      </g>
     </g>
    </g>
    <g id="ytick_11">
     <g id="line2d_27">
      <g>
       <use xlink:href="#m36f5f803e5" x="135" y="657.699146" style="stroke: #000000; stroke-width: 0.8"/>
      </g>
     </g>
     <g id="text_31">
      <!-- 0.90 -->
      <g transform="translate(79.015625 666.057427) scale(0.22 -0.22)">
       <defs>
        <path id="DejaVuSans-39" d="M 703 97 
L 703 672 
Q 941 559 1184 500 
Q 1428 441 1663 441 
Q 2288 441 2617 861 
Q 2947 1281 2994 2138 
Q 2813 1869 2534 1725 
Q 2256 1581 1919 1581 
Q 1219 1581 811 2004 
Q 403 2428 403 3163 
Q 403 3881 828 4315 
Q 1253 4750 1959 4750 
Q 2769 4750 3195 4129 
Q 3622 3509 3622 2328 
Q 3622 1225 3098 567 
Q 2575 -91 1691 -91 
Q 1453 -91 1209 -44 
Q 966 3 703 97 
z
M 1959 2075 
Q 2384 2075 2632 2365 
Q 2881 2656 2881 3163 
Q 2881 3666 2632 3958 
Q 2384 4250 1959 4250 
Q 1534 4250 1286 3958 
Q 1038 3666 1038 3163 
Q 1038 2656 1286 2365 
Q 1534 2075 1959 2075 
z
" transform="scale(0.015625)"/>
       </defs>
       <use xlink:href="#DejaVuSans-30"/>
       <use xlink:href="#DejaVuSans-2e" x="63.623047"/>
       <use xlink:href="#DejaVuSans-39" x="95.410156"/>
       <use xlink:href="#DejaVuSans-30" x="159.033203"/>
      </g>
     </g>
    </g>
    <g id="ytick_12">
     <g id="line2d_28">
      <g>
       <use xlink:href="#m36f5f803e5" x="135" y="593.60988" style="stroke: #000000; stroke-width: 0.8"/>
      </g>
     </g>
     <g id="text_32">
      <!-- 0.95 -->
      <g transform="translate(79.015625 601.968162) scale(0.22 -0.22)">
       <use xlink:href="#DejaVuSans-30"/>
       <use xlink:href="#DejaVuSans-2e" x="63.623047"/>
       <use xlink:href="#DejaVuSans-39" x="95.410156"/>
       <use xlink:href="#DejaVuSans-35" x="159.033203"/>
      </g>
     </g>
    </g>
    <g id="ytick_13">
     <g id="line2d_29">
      <g>
       <use xlink:href="#m36f5f803e5" x="135" y="529.520615" style="stroke: #000000; stroke-width: 0.8"/>
      </g>
     </g>
     <g id="text_33">
      <!-- 1.00 -->
      <g transform="translate(79.015625 537.878896) scale(0.22 -0.22)">
       <use xlink:href="#DejaVuSans-31"/>
       <use xlink:href="#DejaVuSans-2e" x="63.623047"/>
       <use xlink:href="#DejaVuSans-30" x="95.410156"/>
       <use xlink:href="#DejaVuSans-30" x="159.033203"/>
      </g>
     </g>
    </g>
    <g id="text_34">
     <!-- Metric Value -->
     <g transform="translate(70.024375 728.555625) rotate(-90) scale(0.24 -0.24)">
      <use xlink:href="#DejaVuSans-4d"/>
      <use xlink:href="#DejaVuSans-65" x="86.279297"/>
      <use xlink:href="#DejaVuSans-74" x="147.802734"/>
      <use xlink:href="#DejaVuSans-72" x="187.011719"/>
      <use xlink:href="#DejaVuSans-69" x="228.125"/>
      <use xlink:href="#DejaVuSans-63" x="255.908203"/>
      <use xlink:href="#DejaVuSans-20" x="310.888672"/>
      <use xlink:href="#DejaVuSans-56" x="342.675781"/>
      <use xlink:href="#DejaVuSans-61" x="403.333984"/>
      <use xlink:href="#DejaVuSans-6c" x="464.613281"/>
      <use xlink:href="#DejaVuSans-75" x="492.396484"/>
      <use xlink:href="#DejaVuSans-65" x="555.775391"/>
     </g>
    </g>
   </g>
   <g id="line2d_30">
    <path d="M 152.293388 754.820621 
L 173.910124 753.998405 
L 209.938017 759.890046 
L 281.993802 766.780477 
L 498.161157 773.848421 
" clip-path="url(#pbe5618d3f8)" style="fill: none; stroke: #1f77b4; stroke-width: 1.5; stroke-linecap: square"/>
    <g clip-path="url(#pbe5618d3f8)">
     <use xlink:href="#m0ea2f41d88" x="152.293388" y="754.820621" style="fill: #1f77b4; stroke: #1f77b4"/>
     <use xlink:href="#m0ea2f41d88" x="173.910124" y="753.998405" style="fill: #1f77b4; stroke: #1f77b4"/>
     <use xlink:href="#m0ea2f41d88" x="209.938017" y="759.890046" style="fill: #1f77b4; stroke: #1f77b4"/>
     <use xlink:href="#m0ea2f41d88" x="281.993802" y="766.780477" style="fill: #1f77b4; stroke: #1f77b4"/>
     <use xlink:href="#m0ea2f41d88" x="498.161157" y="773.848421" style="fill: #1f77b4; stroke: #1f77b4"/>
    </g>
   </g>
   <g id="line2d_31">
    <path d="M 152.293388 535.111579 
L 173.910124 540.548071 
L 209.938017 544.80425 
L 281.993802 562.289693 
L 498.161157 612.647737 
" clip-path="url(#pbe5618d3f8)" style="fill: none; stroke: #ff7f0e; stroke-width: 1.5; stroke-linecap: square"/>
    <g clip-path="url(#pbe5618d3f8)">
     <use xlink:href="#mff22f4e53d" x="152.293388" y="535.111579" style="fill: #ff7f0e; stroke: #ff7f0e"/>
     <use xlink:href="#mff22f4e53d" x="173.910124" y="540.548071" style="fill: #ff7f0e; stroke: #ff7f0e"/>
     <use xlink:href="#mff22f4e53d" x="209.938017" y="544.80425" style="fill: #ff7f0e; stroke: #ff7f0e"/>
     <use xlink:href="#mff22f4e53d" x="281.993802" y="562.289693" style="fill: #ff7f0e; stroke: #ff7f0e"/>
     <use xlink:href="#mff22f4e53d" x="498.161157" y="612.647737" style="fill: #ff7f0e; stroke: #ff7f0e"/>
    </g>
   </g>
   <g id="line2d_32">
    <path d="M 152.293388 544.424857 
L 173.910124 545.760418 
L 209.938017 547.93267 
L 281.993802 562.49527 
L 498.161157 629.915691 
" clip-path="url(#pbe5618d3f8)" style="fill: none; stroke: #2ca02c; stroke-width: 1.5; stroke-linecap: square"/>
    <g clip-path="url(#pbe5618d3f8)">
     <use xlink:href="#m507e1d99c2" x="152.293388" y="544.424857" style="fill: #2ca02c; stroke: #2ca02c"/>
     <use xlink:href="#m507e1d99c2" x="173.910124" y="545.760418" style="fill: #2ca02c; stroke: #2ca02c"/>
     <use xlink:href="#m507e1d99c2" x="209.938017" y="547.93267" style="fill: #2ca02c; stroke: #2ca02c"/>
     <use xlink:href="#m507e1d99c2" x="281.993802" y="562.49527" style="fill: #2ca02c; stroke: #2ca02c"/>
     <use xlink:href="#m507e1d99c2" x="498.161157" y="629.915691" style="fill: #2ca02c; stroke: #2ca02c"/>
    </g>
   </g>
   <g id="line2d_33">
    <path d="M 152.293388 543.526556 
L 173.910124 545.295482 
L 209.938017 551.303802 
L 281.993802 560.567848 
L 498.161157 592.539988 
" clip-path="url(#pbe5618d3f8)" style="fill: none; stroke: #d62728; stroke-width: 1.5; stroke-linecap: square"/>
    <g clip-path="url(#pbe5618d3f8)">
     <use xlink:href="#mf71d6b52f5" x="152.293388" y="543.526556" style="fill: #d62728; stroke: #d62728"/>
     <use xlink:href="#mf71d6b52f5" x="173.910124" y="545.295482" style="fill: #d62728; stroke: #d62728"/>
     <use xlink:href="#mf71d6b52f5" x="209.938017" y="551.303802" style="fill: #d62728; stroke: #d62728"/>
     <use xlink:href="#mf71d6b52f5" x="281.993802" y="560.567848" style="fill: #d62728; stroke: #d62728"/>
     <use xlink:href="#mf71d6b52f5" x="498.161157" y="592.539988" style="fill: #d62728; stroke: #d62728"/>
    </g>
   </g>
   <g id="patch_25">
    <path d="M 135 785.785263 
L 135 523.174737 
" style="fill: none; stroke: #000000; stroke-width: 0.8; stroke-linejoin: miter; stroke-linecap: square"/>
   </g>
   <g id="patch_26">
    <path d="M 515.454545 785.785263 
L 515.454545 523.174737 
" style="fill: none; stroke: #000000; stroke-width: 0.8; stroke-linejoin: miter; stroke-linecap: square"/>
   </g>
   <g id="patch_27">
    <path d="M 135 785.785263 
L 515.454545 785.785263 
" style="fill: none; stroke: #000000; stroke-width: 0.8; stroke-linejoin: miter; stroke-linecap: square"/>
   </g>
   <g id="patch_28">
    <path d="M 135 523.174737 
L 515.454545 523.174737 
" style="fill: none; stroke: #000000; stroke-width: 0.8; stroke-linejoin: miter; stroke-linecap: square"/>
   </g>
   <g id="text_35">
    <!-- c -->
    <g transform="translate(91.769432 505.058783) scale(0.28 -0.28)">
     <defs>
      <path id="DejaVuSans-Bold-63" d="M 3366 3391 
L 3366 2478 
Q 3138 2634 2908 2709 
Q 2678 2784 2431 2784 
Q 1963 2784 1702 2511 
Q 1441 2238 1441 1747 
Q 1441 1256 1702 982 
Q 1963 709 2431 709 
Q 2694 709 2930 787 
Q 3166 866 3366 1019 
L 3366 103 
Q 3103 6 2833 -42 
Q 2563 -91 2291 -91 
Q 1344 -91 809 395 
Q 275 881 275 1747 
Q 275 2613 809 3098 
Q 1344 3584 2291 3584 
Q 2566 3584 2833 3536 
Q 3100 3488 3366 3391 
z
" transform="scale(0.015625)"/>
     </defs>
     <use xlink:href="#DejaVuSans-Bold-63"/>
    </g>
   </g>
   <g id="text_36">
    <!-- Trustworthiness -->
    <g transform="translate(230.950398 517.174737) scale(0.24 -0.24)">
     <defs>
      <path id="DejaVuSans-54" d="M -19 4666 
L 3928 4666 
L 3928 4134 
L 2272 4134 
L 2272 0 
L 1638 0 
L 1638 4134 
L -19 4134 
L -19 4666 
z
" transform="scale(0.015625)"/>
      <path id="DejaVuSans-77" d="M 269 3500 
L 844 3500 
L 1563 769 
L 2278 3500 
L 2956 3500 
L 3675 769 
L 4391 3500 
L 4966 3500 
L 4050 0 
L 3372 0 
L 2619 2869 
L 1863 0 
L 1184 0 
L 269 3500 
z
" transform="scale(0.015625)"/>
      <path id="DejaVuSans-6f" d="M 1959 3097 
Q 1497 3097 1228 2736 
Q 959 2375 959 1747 
Q 959 1119 1226 758 
Q 1494 397 1959 397 
Q 2419 397 2687 759 
Q 2956 1122 2956 1747 
Q 2956 2369 2687 2733 
Q 2419 3097 1959 3097 
z
M 1959 3584 
Q 2709 3584 3137 3096 
Q 3566 2609 3566 1747 
Q 3566 888 3137 398 
Q 2709 -91 1959 -91 
Q 1206 -91 779 398 
Q 353 888 353 1747 
Q 353 2609 779 3096 
Q 1206 3584 1959 3584 
z
" transform="scale(0.015625)"/>
      <path id="DejaVuSans-68" d="M 3513 2113 
L 3513 0 
L 2938 0 
L 2938 2094 
Q 2938 2591 2744 2837 
Q 2550 3084 2163 3084 
Q 1697 3084 1428 2787 
Q 1159 2491 1159 1978 
L 1159 0 
L 581 0 
L 581 4863 
L 1159 4863 
L 1159 2956 
Q 1366 3272 1645 3428 
Q 1925 3584 2291 3584 
Q 2894 3584 3203 3211 
Q 3513 2838 3513 2113 
z
" transform="scale(0.015625)"/>
      <path id="DejaVuSans-6e" d="M 3513 2113 
L 3513 0 
L 2938 0 
L 2938 2094 
Q 2938 2591 2744 2837 
Q 2550 3084 2163 3084 
Q 1697 3084 1428 2787 
Q 1159 2491 1159 1978 
L 1159 0 
L 581 0 
L 581 3500 
L 1159 3500 
L 1159 2956 
Q 1366 3272 1645 3428 
Q 1925 3584 2291 3584 
Q 2894 3584 3203 3211 
Q 3513 2838 3513 2113 
z
" transform="scale(0.015625)"/>
     </defs>
     <use xlink:href="#DejaVuSans-54"/>
     <use xlink:href="#DejaVuSans-72" x="46.333984"/>
     <use xlink:href="#DejaVuSans-75" x="87.447266"/>
     <use xlink:href="#DejaVuSans-73" x="150.826172"/>
     <use xlink:href="#DejaVuSans-74" x="202.925781"/>
     <use xlink:href="#DejaVuSans-77" x="242.134766"/>
     <use xlink:href="#DejaVuSans-6f" x="323.921875"/>
     <use xlink:href="#DejaVuSans-72" x="385.103516"/>
     <use xlink:href="#DejaVuSans-74" x="426.216797"/>
     <use xlink:href="#DejaVuSans-68" x="465.425781"/>
     <use xlink:href="#DejaVuSans-69" x="528.804688"/>
     <use xlink:href="#DejaVuSans-6e" x="556.587891"/>
     <use xlink:href="#DejaVuSans-65" x="619.966797"/>
     <use xlink:href="#DejaVuSans-73" x="681.490234"/>
     <use xlink:href="#DejaVuSans-73" x="733.589844"/>
    </g>
   </g>
  </g>
  <g id="axes_4">
   <g id="patch_29">
    <path d="M 591.545455 785.785263 
L 972 785.785263 
L 972 523.174737 
L 591.545455 523.174737 
z
" style="fill: #ffffff"/>
   </g>
   <g id="matplotlib.axis_7">
    <g id="xtick_13">
     <g id="line2d_34">
      <g>
       <use xlink:href="#mdcea97e396" x="594.427686" y="785.785263" style="stroke: #000000; stroke-width: 0.8"/>
      </g>
     </g>
     <g id="text_37">
      <!-- 0 -->
      <g transform="translate(587.428936 809.501826) scale(0.22 -0.22)">
       <use xlink:href="#DejaVuSans-30"/>
      </g>
     </g>
    </g>
    <g id="xtick_14">
     <g id="line2d_35">
      <g>
       <use xlink:href="#mdcea97e396" x="738.539256" y="785.785263" style="stroke: #000000; stroke-width: 0.8"/>
      </g>
     </g>
     <g id="text_38">
      <!-- 20 -->
      <g transform="translate(724.541756 809.501826) scale(0.22 -0.22)">
       <use xlink:href="#DejaVuSans-32"/>
       <use xlink:href="#DejaVuSans-30" x="63.623047"/>
      </g>
     </g>
    </g>
    <g id="xtick_15">
     <g id="line2d_36">
      <g>
       <use xlink:href="#mdcea97e396" x="882.650826" y="785.785263" style="stroke: #000000; stroke-width: 0.8"/>
      </g>
     </g>
     <g id="text_39">
      <!-- 40 -->
      <g transform="translate(868.653326 809.501826) scale(0.22 -0.22)">
       <use xlink:href="#DejaVuSans-34"/>
       <use xlink:href="#DejaVuSans-30" x="63.623047"/>
      </g>
     </g>
    </g>
    <g id="text_40">
     <!-- k -->
     <g transform="translate(774.823977 836.313388) scale(0.24 -0.24)">
      <use xlink:href="#DejaVuSans-6b"/>
     </g>
    </g>
   </g>
   <g id="matplotlib.axis_8">
    <g id="ytick_14">
     <g id="line2d_37">
      <g>
       <use xlink:href="#m36f5f803e5" x="591.545455" y="747.177383" style="stroke: #000000; stroke-width: 0.8"/>
      </g>
     </g>
     <g id="text_41">
      <!-- 0.900 -->
      <g transform="translate(521.56358 755.535664) scale(0.22 -0.22)">
       <use xlink:href="#DejaVuSans-30"/>
       <use xlink:href="#DejaVuSans-2e" x="63.623047"/>
       <use xlink:href="#DejaVuSans-39" x="95.410156"/>
       <use xlink:href="#DejaVuSans-30" x="159.033203"/>
       <use xlink:href="#DejaVuSans-30" x="222.65625"/>
      </g>
     </g>
    </g>
    <g id="ytick_15">
     <g id="line2d_38">
      <g>
       <use xlink:href="#m36f5f803e5" x="591.545455" y="687.480467" style="stroke: #000000; stroke-width: 0.8"/>
      </g>
     </g>
     <g id="text_42">
      <!-- 0.925 -->
      <g transform="translate(521.56358 695.838748) scale(0.22 -0.22)">
       <use xlink:href="#DejaVuSans-30"/>
       <use xlink:href="#DejaVuSans-2e" x="63.623047"/>
       <use xlink:href="#DejaVuSans-39" x="95.410156"/>
       <use xlink:href="#DejaVuSans-32" x="159.033203"/>
       <use xlink:href="#DejaVuSans-35" x="222.65625"/>
      </g>
     </g>
    </g>
    <g id="ytick_16">
     <g id="line2d_39">
      <g>
       <use xlink:href="#m36f5f803e5" x="591.545455" y="627.783551" style="stroke: #000000; stroke-width: 0.8"/>
      </g>
     </g>
     <g id="text_43">
      <!-- 0.950 -->
      <g transform="translate(521.56358 636.141833) scale(0.22 -0.22)">
       <use xlink:href="#DejaVuSans-30"/>
       <use xlink:href="#DejaVuSans-2e" x="63.623047"/>
       <use xlink:href="#DejaVuSans-39" x="95.410156"/>
       <use xlink:href="#DejaVuSans-35" x="159.033203"/>
       <use xlink:href="#DejaVuSans-30" x="222.65625"/>
      </g>
     </g>
    </g>
    <g id="ytick_17">
     <g id="line2d_40">
      <g>
       <use xlink:href="#m36f5f803e5" x="591.545455" y="568.086636" style="stroke: #000000; stroke-width: 0.8"/>
      </g>
     </g>
     <g id="text_44">
      <!-- 0.975 -->
      <g transform="translate(521.56358 576.444917) scale(0.22 -0.22)">
       <defs>
        <path id="DejaVuSans-37" d="M 525 4666 
L 3525 4666 
L 3525 4397 
L 1831 0 
L 1172 0 
L 2766 4134 
L 525 4134 
L 525 4666 
z
" transform="scale(0.015625)"/>
       </defs>
       <use xlink:href="#DejaVuSans-30"/>
       <use xlink:href="#DejaVuSans-2e" x="63.623047"/>
       <use xlink:href="#DejaVuSans-39" x="95.410156"/>
       <use xlink:href="#DejaVuSans-37" x="159.033203"/>
       <use xlink:href="#DejaVuSans-35" x="222.65625"/>
      </g>
     </g>
    </g>
   </g>
   <g id="line2d_41">
    <path d="M 608.838843 571.763133 
L 630.455579 602.094738 
L 666.483471 639.098107 
L 738.539256 689.030432 
L 954.706612 755.980909 
" clip-path="url(#p9032fd66fd)" style="fill: none; stroke: #1f77b4; stroke-width: 1.5; stroke-linecap: square"/>
    <g clip-path="url(#p9032fd66fd)">
     <use xlink:href="#m0ea2f41d88" x="608.838843" y="571.763133" style="fill: #1f77b4; stroke: #1f77b4"/>
     <use xlink:href="#m0ea2f41d88" x="630.455579" y="602.094738" style="fill: #1f77b4; stroke: #1f77b4"/>
     <use xlink:href="#m0ea2f41d88" x="666.483471" y="639.098107" style="fill: #1f77b4; stroke: #1f77b4"/>
     <use xlink:href="#m0ea2f41d88" x="738.539256" y="689.030432" style="fill: #1f77b4; stroke: #1f77b4"/>
     <use xlink:href="#m0ea2f41d88" x="954.706612" y="755.980909" style="fill: #1f77b4; stroke: #1f77b4"/>
    </g>
   </g>
   <g id="line2d_42">
    <path d="M 608.838843 535.111579 
L 630.455579 552.733192 
L 666.483471 569.530152 
L 738.539256 613.065277 
L 954.706612 719.648512 
" clip-path="url(#p9032fd66fd)" style="fill: none; stroke: #ff7f0e; stroke-width: 1.5; stroke-linecap: square"/>
    <g clip-path="url(#p9032fd66fd)">
     <use xlink:href="#mff22f4e53d" x="608.838843" y="535.111579" style="fill: #ff7f0e; stroke: #ff7f0e"/>
     <use xlink:href="#mff22f4e53d" x="630.455579" y="552.733192" style="fill: #ff7f0e; stroke: #ff7f0e"/>
     <use xlink:href="#mff22f4e53d" x="666.483471" y="569.530152" style="fill: #ff7f0e; stroke: #ff7f0e"/>
     <use xlink:href="#mff22f4e53d" x="738.539256" y="613.065277" style="fill: #ff7f0e; stroke: #ff7f0e"/>
     <use xlink:href="#mff22f4e53d" x="954.706612" y="719.648512" style="fill: #ff7f0e; stroke: #ff7f0e"/>
    </g>
   </g>
   <g id="line2d_43">
    <path d="M 608.838843 540.964703 
L 630.455579 555.187947 
L 666.483471 576.784146 
L 738.539256 629.613654 
L 954.706612 759.932978 
" clip-path="url(#p9032fd66fd)" style="fill: none; stroke: #2ca02c; stroke-width: 1.5; stroke-linecap: square"/>
    <g clip-path="url(#p9032fd66fd)">
     <use xlink:href="#m507e1d99c2" x="608.838843" y="540.964703" style="fill: #2ca02c; stroke: #2ca02c"/>
     <use xlink:href="#m507e1d99c2" x="630.455579" y="555.187947" style="fill: #2ca02c; stroke: #2ca02c"/>
     <use xlink:href="#m507e1d99c2" x="666.483471" y="576.784146" style="fill: #2ca02c; stroke: #2ca02c"/>
     <use xlink:href="#m507e1d99c2" x="738.539256" y="629.613654" style="fill: #2ca02c; stroke: #2ca02c"/>
     <use xlink:href="#m507e1d99c2" x="954.706612" y="759.932978" style="fill: #2ca02c; stroke: #2ca02c"/>
    </g>
   </g>
   <g id="line2d_44">
    <path d="M 608.838843 564.195197 
L 630.455579 589.923929 
L 666.483471 616.491458 
L 738.539256 666.859067 
L 954.706612 773.848421 
" clip-path="url(#p9032fd66fd)" style="fill: none; stroke: #d62728; stroke-width: 1.5; stroke-linecap: square"/>
    <g clip-path="url(#p9032fd66fd)">
     <use xlink:href="#mf71d6b52f5" x="608.838843" y="564.195197" style="fill: #d62728; stroke: #d62728"/>
     <use xlink:href="#mf71d6b52f5" x="630.455579" y="589.923929" style="fill: #d62728; stroke: #d62728"/>
     <use xlink:href="#mf71d6b52f5" x="666.483471" y="616.491458" style="fill: #d62728; stroke: #d62728"/>
     <use xlink:href="#mf71d6b52f5" x="738.539256" y="666.859067" style="fill: #d62728; stroke: #d62728"/>
     <use xlink:href="#mf71d6b52f5" x="954.706612" y="773.848421" style="fill: #d62728; stroke: #d62728"/>
    </g>
   </g>
   <g id="patch_30">
    <path d="M 591.545455 785.785263 
L 591.545455 523.174737 
" style="fill: none; stroke: #000000; stroke-width: 0.8; stroke-linejoin: miter; stroke-linecap: square"/>
   </g>
   <g id="patch_31">
    <path d="M 972 785.785263 
L 972 523.174737 
" style="fill: none; stroke: #000000; stroke-width: 0.8; stroke-linejoin: miter; stroke-linecap: square"/>
   </g>
   <g id="patch_32">
    <path d="M 591.545455 785.785263 
L 972 785.785263 
" style="fill: none; stroke: #000000; stroke-width: 0.8; stroke-linejoin: miter; stroke-linecap: square"/>
   </g>
   <g id="patch_33">
    <path d="M 591.545455 523.174737 
L 972 523.174737 
" style="fill: none; stroke: #000000; stroke-width: 0.8; stroke-linejoin: miter; stroke-linecap: square"/>
   </g>
   <g id="text_45">
    <!-- d -->
    <g transform="translate(544.871761 505.058783) scale(0.28 -0.28)">
     <defs>
      <path id="DejaVuSans-Bold-64" d="M 2919 2988 
L 2919 4863 
L 4044 4863 
L 4044 0 
L 2919 0 
L 2919 506 
Q 2688 197 2409 53 
Q 2131 -91 1766 -91 
Q 1119 -91 703 423 
Q 288 938 288 1747 
Q 288 2556 703 3070 
Q 1119 3584 1766 3584 
Q 2128 3584 2408 3439 
Q 2688 3294 2919 2988 
z
M 2181 722 
Q 2541 722 2730 984 
Q 2919 1247 2919 1747 
Q 2919 2247 2730 2509 
Q 2541 2772 2181 2772 
Q 1825 2772 1636 2509 
Q 1447 2247 1447 1747 
Q 1447 1247 1636 984 
Q 1825 722 2181 722 
z
" transform="scale(0.015625)"/>
     </defs>
     <use xlink:href="#DejaVuSans-Bold-64"/>
    </g>
   </g>
   <g id="text_46">
    <!-- Continuity -->
    <g transform="translate(720.057102 517.174737) scale(0.24 -0.24)">
     <defs>
      <path id="DejaVuSans-79" d="M 2059 -325 
Q 1816 -950 1584 -1140 
Q 1353 -1331 966 -1331 
L 506 -1331 
L 506 -850 
L 844 -850 
Q 1081 -850 1212 -737 
Q 1344 -625 1503 -206 
L 1606 56 
L 191 3500 
L 800 3500 
L 1894 763 
L 2988 3500 
L 3597 3500 
L 2059 -325 
z
" transform="scale(0.015625)"/>
     </defs>
     <use xlink:href="#DejaVuSans-43"/>
     <use xlink:href="#DejaVuSans-6f" x="69.824219"/>
     <use xlink:href="#DejaVuSans-6e" x="131.005859"/>
     <use xlink:href="#DejaVuSans-74" x="194.384766"/>
     <use xlink:href="#DejaVuSans-69" x="233.59375"/>
     <use xlink:href="#DejaVuSans-6e" x="261.376953"/>
     <use xlink:href="#DejaVuSans-75" x="324.755859"/>
     <use xlink:href="#DejaVuSans-69" x="388.134766"/>
     <use xlink:href="#DejaVuSans-74" x="415.917969"/>
     <use xlink:href="#DejaVuSans-79" x="455.126953"/>
    </g>
   </g>
  </g>
  <g id="axes_5">
   <g id="patch_34">
    <path d="M 135 1153.44 
L 515.454545 1153.44 
L 515.454545 890.829474 
L 135 890.829474 
z
" style="fill: #ffffff"/>
   </g>
   <g id="matplotlib.axis_9">
    <g id="xtick_16">
     <g id="line2d_45">
      <g>
       <use xlink:href="#mdcea97e396" x="152.061418" y="1153.44" style="stroke: #000000; stroke-width: 0.8"/>
      </g>
     </g>
     <g id="text_47">
      <!-- 0 -->
      <g transform="translate(145.062668 1177.156562) scale(0.22 -0.22)">
       <use xlink:href="#DejaVuSans-30"/>
      </g>
     </g>
    </g>
    <g id="xtick_17">
     <g id="line2d_46">
      <g>
       <use xlink:href="#mdcea97e396" x="268.046585" y="1153.44" style="stroke: #000000; stroke-width: 0.8"/>
      </g>
     </g>
     <g id="text_48">
      <!-- 500 -->
      <g transform="translate(247.050335 1177.156562) scale(0.22 -0.22)">
       <use xlink:href="#DejaVuSans-35"/>
       <use xlink:href="#DejaVuSans-30" x="63.623047"/>
       <use xlink:href="#DejaVuSans-30" x="127.246094"/>
      </g>
     </g>
    </g>
    <g id="xtick_18">
     <g id="line2d_47">
      <g>
       <use xlink:href="#mdcea97e396" x="384.031752" y="1153.44" style="stroke: #000000; stroke-width: 0.8"/>
      </g>
     </g>
     <g id="text_49">
      <!-- 1000 -->
      <g transform="translate(356.036752 1177.156562) scale(0.22 -0.22)">
       <use xlink:href="#DejaVuSans-31"/>
       <use xlink:href="#DejaVuSans-30" x="63.623047"/>
       <use xlink:href="#DejaVuSans-30" x="127.246094"/>
       <use xlink:href="#DejaVuSans-30" x="190.869141"/>
      </g>
     </g>
    </g>
    <g id="xtick_19">
     <g id="line2d_48">
      <g>
       <use xlink:href="#mdcea97e396" x="500.01692" y="1153.44" style="stroke: #000000; stroke-width: 0.8"/>
      </g>
     </g>
     <g id="text_50">
      <!-- 1500 -->
      <g transform="translate(472.02192 1177.156562) scale(0.22 -0.22)">
       <use xlink:href="#DejaVuSans-31"/>
       <use xlink:href="#DejaVuSans-35" x="63.623047"/>
       <use xlink:href="#DejaVuSans-30" x="127.246094"/>
       <use xlink:href="#DejaVuSans-30" x="190.869141"/>
      </g>
     </g>
    </g>
    <g id="text_51">
     <!-- k -->
     <g transform="translate(318.278523 1203.968125) scale(0.24 -0.24)">
      <use xlink:href="#DejaVuSans-6b"/>
     </g>
    </g>
   </g>
   <g id="matplotlib.axis_10">
    <g id="ytick_18">
     <g id="line2d_49">
      <g>
       <use xlink:href="#m36f5f803e5" x="135" y="1115.880878" style="stroke: #000000; stroke-width: 0.8"/>
      </g>
     </g>
     <g id="text_52">
      <!-- 0.2 -->
      <g transform="translate(93.013125 1124.239159) scale(0.22 -0.22)">
       <use xlink:href="#DejaVuSans-30"/>
       <use xlink:href="#DejaVuSans-2e" x="63.623047"/>
       <use xlink:href="#DejaVuSans-32" x="95.410156"/>
      </g>
     </g>
    </g>
    <g id="ytick_19">
     <g id="line2d_50">
      <g>
       <use xlink:href="#m36f5f803e5" x="135" y="1062.602237" style="stroke: #000000; stroke-width: 0.8"/>
      </g>
     </g>
     <g id="text_53">
      <!-- 0.4 -->
      <g transform="translate(93.013125 1070.960519) scale(0.22 -0.22)">
       <use xlink:href="#DejaVuSans-30"/>
       <use xlink:href="#DejaVuSans-2e" x="63.623047"/>
       <use xlink:href="#DejaVuSans-34" x="95.410156"/>
      </g>
     </g>
    </g>
    <g id="ytick_20">
     <g id="line2d_51">
      <g>
       <use xlink:href="#m36f5f803e5" x="135" y="1009.323597" style="stroke: #000000; stroke-width: 0.8"/>
      </g>
     </g>
     <g id="text_54">
      <!-- 0.6 -->
      <g transform="translate(93.013125 1017.681878) scale(0.22 -0.22)">
       <use xlink:href="#DejaVuSans-30"/>
       <use xlink:href="#DejaVuSans-2e" x="63.623047"/>
       <use xlink:href="#DejaVuSans-36" x="95.410156"/>
      </g>
     </g>
    </g>
    <g id="ytick_21">
     <g id="line2d_52">
      <g>
       <use xlink:href="#m36f5f803e5" x="135" y="956.044956" style="stroke: #000000; stroke-width: 0.8"/>
      </g>
     </g>
     <g id="text_55">
      <!-- 0.8 -->
      <g transform="translate(93.013125 964.403238) scale(0.22 -0.22)">
       <use xlink:href="#DejaVuSans-30"/>
       <use xlink:href="#DejaVuSans-2e" x="63.623047"/>
       <use xlink:href="#DejaVuSans-38" x="95.410156"/>
      </g>
     </g>
    </g>
    <g id="ytick_22">
     <g id="line2d_53">
      <g>
       <use xlink:href="#m36f5f803e5" x="135" y="902.766316" style="stroke: #000000; stroke-width: 0.8"/>
      </g>
     </g>
     <g id="text_56">
      <!-- 1.0 -->
      <g transform="translate(93.013125 911.124597) scale(0.22 -0.22)">
       <use xlink:href="#DejaVuSans-31"/>
       <use xlink:href="#DejaVuSans-2e" x="63.623047"/>
       <use xlink:href="#DejaVuSans-30" x="95.410156"/>
      </g>
     </g>
    </g>
    <g id="text_57">
     <!-- Metric Value -->
     <g transform="translate(84.021875 1096.210362) rotate(-90) scale(0.24 -0.24)">
      <use xlink:href="#DejaVuSans-4d"/>
      <use xlink:href="#DejaVuSans-65" x="86.279297"/>
      <use xlink:href="#DejaVuSans-74" x="147.802734"/>
      <use xlink:href="#DejaVuSans-72" x="187.011719"/>
      <use xlink:href="#DejaVuSans-69" x="228.125"/>
      <use xlink:href="#DejaVuSans-63" x="255.908203"/>
      <use xlink:href="#DejaVuSans-20" x="310.888672"/>
      <use xlink:href="#DejaVuSans-56" x="342.675781"/>
      <use xlink:href="#DejaVuSans-61" x="403.333984"/>
      <use xlink:href="#DejaVuSans-6c" x="464.613281"/>
      <use xlink:href="#DejaVuSans-75" x="492.396484"/>
      <use xlink:href="#DejaVuSans-65" x="555.775391"/>
     </g>
    </g>
   </g>
   <g id="line2d_54">
    <path d="M 152.293388 1141.503158 
L 152.757329 1122.351872 
L 153.22127 1115.167165 
L 154.381121 1107.084371 
L 155.309003 1103.357772 
L 155.540973 1102.498768 
L 155.772943 1102.170906 
L 157.396736 1097.625353 
L 158.788558 1094.588864 
L 160.64432 1089.874736 
L 161.804172 1087.333226 
L 162.500083 1085.82565 
L 163.195994 1084.662646 
L 165.051757 1080.534902 
L 168.763282 1072.726547 
L 172.010867 1068.318577 
L 172.706778 1067.441449 
L 173.86663 1065.991992 
L 174.33057 1065.463035 
L 175.490422 1063.860421 
L 176.882244 1062.246048 
L 177.810125 1061.464477 
L 178.738007 1060.444033 
L 180.82574 1058.518248 
L 181.753621 1057.450961 
L 184.537265 1055.665207 
L 185.233176 1055.237523 
L 187.552879 1053.630218 
L 190.336523 1052.171221 
L 191.264405 1051.642949 
L 191.960316 1051.411474 
L 196.831693 1048.884165 
L 198.919426 1047.914952 
L 199.615337 1047.551607 
L 201.70307 1046.752817 
L 202.398981 1046.535812 
L 204.950654 1045.490823 
L 205.878536 1045.039679 
L 210.517942 1042.905329 
L 212.837646 1041.628351 
L 215.62129 1040.271891 
L 217.013112 1039.590106 
L 225.596014 1035.158865 
L 226.987836 1034.54074 
L 230.699361 1032.654102 
L 232.091183 1032.026379 
L 237.426501 1029.531262 
L 239.978175 1028.272853 
L 241.138027 1027.738031 
L 248.329107 1024.125393 
L 250.18487 1023.146673 
L 255.984128 1020.118658 
L 258.303831 1018.928874 
L 275.933577 1008.588901 
L 279.645102 1006.363636 
L 293.563322 998.376592 
L 298.202729 995.888242 
L 301.218343 994.268591 
L 302.610165 993.529325 
L 310.265186 989.570556 
L 312.352919 988.512524 
L 313.744741 987.821752 
L 331.142516 979.377855 
L 335.086012 977.444935 
L 351.323935 969.265588 
L 355.731372 966.962238 
L 371.041414 959.269818 
L 374.984909 957.380735 
L 385.887515 952.294992 
L 393.542536 949.064903 
L 408.388638 943.278867 
L 417.20351 939.912306 
L 420.451095 938.53013 
L 425.322472 936.290205 
L 438.312811 930.534736 
L 445.03995 927.55158 
L 452.463001 924.615151 
L 465.45334 919.239683 
L 481.691263 912.58476 
L 485.866729 910.41777 
L 493.28978 906.069116 
L 497.929187 902.944864 
L 498.161157 902.766316 
L 498.161157 902.766316 
" clip-path="url(#p301f69c7c6)" style="fill: none; stroke: #1f77b4; stroke-width: 1.5; stroke-linecap: square"/>
   </g>
   <g id="line2d_55">
    <path d="M 152.293388 991.623526 
L 152.525359 984.754043 
L 152.757329 983.951116 
L 152.989299 982.122228 
L 153.22127 981.845664 
L 153.45324 982.434477 
L 153.68521 982.421732 
L 153.917181 982.679816 
L 154.149151 982.404739 
L 154.381121 981.75645 
L 154.613092 982.393925 
L 155.077032 984.486401 
L 155.309003 984.805022 
L 155.772943 986.616387 
L 156.236884 988.372169 
L 156.468854 989.867418 
L 157.396736 993.012162 
L 157.628706 993.943092 
L 159.252498 1003.670303 
L 159.948409 1006.154923 
L 161.340231 1008.70802 
L 162.268113 1009.340629 
L 162.964024 1009.120872 
L 163.659935 1009.41638 
L 163.891905 1009.686751 
L 164.355846 1009.809729 
L 164.819786 1009.534466 
L 165.283727 1009.635377 
L 165.747668 1010.043963 
L 166.211608 1010.326304 
L 166.443579 1010.464961 
L 166.907519 1011.077768 
L 167.603431 1011.761937 
L 169.459193 1014.733538 
L 171.314956 1018.215767 
L 172.938748 1020.48725 
L 174.0986 1022.253063 
L 175.258452 1023.494359 
L 175.722392 1023.908522 
L 176.418303 1024.651423 
L 179.433918 1027.802098 
L 180.361799 1028.337308 
L 181.753621 1029.391744 
L 182.913473 1030.574522 
L 185.001206 1031.987237 
L 188.01682 1034.144677 
L 191.496375 1035.766646 
L 199.383366 1037.237279 
L 211.213853 1038.81042 
L 214.461438 1038.980608 
L 215.62129 1039.013778 
L 217.013112 1039.014038 
L 217.709023 1038.976966 
L 221.884489 1039.182626 
L 226.059955 1039.258804 
L 228.611628 1039.184897 
L 229.77148 1039.096062 
L 232.555124 1038.8823 
L 233.714976 1038.777215 
L 236.73059 1038.389295 
L 241.369997 1037.536097 
L 242.993789 1037.301583 
L 252.736543 1035.434211 
L 257.37595 1034.289859 
L 258.767772 1033.892763 
L 263.175208 1032.547266 
L 265.958852 1031.650662 
L 267.350674 1031.194721 
L 274.541755 1028.598364 
L 276.165547 1028.028535 
L 279.877072 1026.532942 
L 285.676331 1024.005444 
L 287.996034 1022.981814 
L 290.315737 1022.024866 
L 296.578936 1019.207714 
L 298.89864 1018.207063 
L 313.04883 1012.336358 
L 316.296415 1010.804046 
L 318.848089 1009.606799 
L 326.50311 1005.853644 
L 335.549953 1001.143603 
L 343.436944 997.006 
L 346.684529 995.2695 
L 349.932113 993.521181 
L 352.251817 992.264255 
L 355.731372 990.388551 
L 378.232494 978.221469 
L 383.103871 975.659583 
L 388.90313 972.438919 
L 393.310566 969.881543 
L 397.718002 967.4097 
L 400.037706 966.110974 
L 426.714294 950.62484 
L 432.513552 947.376448 
L 457.334378 932.513919 
L 462.669696 929.04882 
L 470.092747 923.873154 
L 483.778996 913.844956 
L 496.769335 903.840727 
L 498.161157 902.766316 
L 498.161157 902.766316 
" clip-path="url(#p301f69c7c6)" style="fill: none; stroke: #ff7f0e; stroke-width: 1.5; stroke-linecap: square"/>
   </g>
   <g id="line2d_56">
    <path d="M 152.293388 1102.784253 
L 152.757329 1055.61975 
L 153.22127 1031.805542 
L 153.68521 1016.705424 
L 154.381121 1003.399783 
L 154.613092 1000.690919 
L 155.540973 995.953382 
L 155.772943 995.470883 
L 156.468854 995.379908 
L 156.700825 994.924447 
L 156.932795 995.073137 
L 157.164765 994.932557 
L 157.396736 995.261908 
L 157.860676 997.119113 
L 158.092647 997.964587 
L 159.252498 1003.992625 
L 160.41235 1008.747671 
L 161.804172 1012.903205 
L 162.500083 1013.970658 
L 162.732053 1014.101592 
L 163.427964 1014.902935 
L 163.659935 1015.004749 
L 164.123875 1015.738775 
L 164.587816 1016.008704 
L 165.283727 1016.133917 
L 165.979638 1017.004928 
L 167.603431 1019.996262 
L 169.691164 1024.099794 
L 171.082986 1026.567153 
L 173.86663 1030.099465 
L 175.258452 1031.136436 
L 176.186333 1031.761278 
L 181.05771 1034.97157 
L 181.28968 1035.022629 
L 183.145443 1036.426298 
L 185.001206 1037.807512 
L 188.944701 1041.05373 
L 189.872583 1041.545091 
L 190.568494 1041.877917 
L 192.424256 1042.882647 
L 196.367752 1044.102883 
L 199.615337 1044.485254 
L 201.93504 1044.447382 
L 209.590061 1044.190756 
L 211.445824 1043.900181 
L 216.317201 1042.498089 
L 217.940993 1042.172719 
L 220.724637 1041.609324 
L 222.5804 1041.16081 
L 225.132073 1040.381987 
L 226.059955 1040.187301 
L 229.075569 1039.252552 
L 230.467391 1038.823046 
L 232.091183 1038.403245 
L 241.833938 1036.386857 
L 246.937285 1035.290867 
L 250.18487 1034.149741 
L 251.808662 1033.5309 
L 253.200484 1033.103156 
L 254.824276 1032.555665 
L 259.463683 1031.366755 
L 262.943238 1030.488757 
L 264.799001 1029.899298 
L 267.118704 1029.26179 
L 271.758111 1027.987249 
L 273.381903 1027.449371 
L 278.949191 1026.134202 
L 281.268894 1025.535443 
L 283.356627 1025.034036 
L 291.93953 1022.531244 
L 304.929868 1017.753907 
L 308.409423 1016.353295 
L 322.095673 1010.861876 
L 326.271139 1008.882587 
L 328.126902 1007.835802 
L 336.245864 1003.359558 
L 342.045122 1000.083285 
L 353.643639 993.112754 
L 383.103871 974.090991 
L 395.86224 966.300652 
L 399.341795 964.244014 
L 402.357409 962.497242 
L 405.604994 960.783864 
L 408.156667 959.465411 
L 413.260015 957.20718 
L 417.899421 955.167825 
L 421.610947 953.328273 
L 430.88976 948.262372 
L 433.673404 946.672129 
L 437.6169 944.377757 
L 445.03995 939.611231 
L 451.303149 935.437199 
L 459.886052 929.423102 
L 466.845162 924.690755 
L 469.396836 923.075428 
L 472.18048 921.335254 
L 474.732153 919.71981 
L 478.675649 917.118249 
L 486.794611 911.49322 
L 496.537365 904.022041 
L 498.161157 902.766316 
L 498.161157 902.766316 
" clip-path="url(#p301f69c7c6)" style="fill: none; stroke: #2ca02c; stroke-width: 1.5; stroke-linecap: square"/>
   </g>
   <g id="line2d_57">
    <path d="M 152.293388 1079.053311 
L 152.525359 1058.890932 
L 152.757329 1052.824376 
L 153.22127 1033.946679 
L 153.68521 1025.499382 
L 153.917181 1021.398721 
L 154.381121 1016.585622 
L 154.845062 1012.261713 
L 155.772943 1005.395948 
L 156.700825 1001.026689 
L 156.932795 1000.833816 
L 157.164765 999.952876 
L 157.396736 999.66055 
L 157.628706 999.756875 
L 158.324617 1001.298296 
L 158.556587 1001.50717 
L 158.788558 1001.867762 
L 159.020528 1001.895039 
L 159.484469 1002.546673 
L 159.716439 1002.199448 
L 160.41235 1001.8881 
L 160.876291 1002.038094 
L 161.108261 1001.995233 
L 161.340231 1001.79839 
L 161.572202 1001.880968 
L 161.804172 1001.466811 
L 162.036142 1001.470269 
L 162.268113 1001.059941 
L 162.732053 1001.134521 
L 163.659935 1000.844692 
L 163.891905 1001.052228 
L 164.819786 1001.067241 
L 165.051757 1001.166245 
L 165.747668 1001.993527 
L 166.907519 1003.475057 
L 167.603431 1004.030939 
L 170.619045 1008.462681 
L 171.314956 1009.414746 
L 172.706778 1011.138351 
L 174.562541 1013.047778 
L 175.490422 1013.919976 
L 176.418303 1014.825981 
L 177.114214 1015.488289 
L 178.042096 1016.51903 
L 179.433918 1017.782905 
L 180.82574 1019.026634 
L 181.28968 1019.45265 
L 185.697117 1023.165928 
L 187.552879 1024.103277 
L 188.01682 1024.336885 
L 190.104553 1025.535751 
L 191.032434 1026.037852 
L 193.816078 1027.308161 
L 195.2079 1027.972982 
L 198.687455 1029.308258 
L 199.847307 1029.747382 
L 204.718684 1031.794223 
L 210.981883 1033.490915 
L 212.837646 1033.930062 
L 213.533557 1034.071242 
L 214.925379 1034.211885 
L 217.940993 1034.528581 
L 219.100845 1034.640141 
L 222.5804 1034.817221 
L 224.436162 1034.773968 
L 227.219806 1034.739253 
L 232.091183 1034.173205 
L 233.714976 1033.832424 
L 236.49862 1033.209046 
L 237.658471 1032.969048 
L 239.978175 1032.32868 
L 240.674086 1032.165014 
L 243.921671 1031.308016 
L 249.488959 1030.007241 
L 252.272603 1029.297057 
L 254.360336 1028.907319 
L 258.999742 1027.806894 
L 261.319446 1027.164819 
L 264.56703 1026.169052 
L 267.814615 1025.173379 
L 270.134318 1024.415041 
L 280.572983 1020.547242 
L 297.970758 1013.333606 
L 302.146224 1011.621817 
L 308.177453 1009.116111 
L 310.729127 1008.026393 
L 315.832474 1005.796432 
L 319.544 1004.172065 
L 335.317982 997.384948 
L 349.468173 990.63976 
L 351.787876 989.534611 
L 356.659253 987.053379 
L 367.097918 981.17576 
L 370.113532 979.571845 
L 375.912791 976.320124 
L 384.263723 971.588952 
L 389.36707 968.849434 
L 398.877854 963.93044 
L 406.996816 959.967713 
L 410.2444 958.283115 
L 413.955926 956.371406 
L 416.73957 954.910335 
L 419.523214 953.443774 
L 424.16262 950.888977 
L 428.338086 948.585941 
L 432.049612 946.586314 
L 440.864484 941.850533 
L 450.143298 936.397172 
L 459.422111 930.462537 
L 466.845162 925.41354 
L 470.324717 922.918681 
L 478.443679 917.113231 
L 494.913572 905.279159 
L 498.161157 902.766316 
L 498.161157 902.766316 
" clip-path="url(#p301f69c7c6)" style="fill: none; stroke: #d62728; stroke-width: 1.5; stroke-linecap: square"/>
   </g>
   <g id="patch_35">
    <path d="M 135 1153.44 
L 135 890.829474 
" style="fill: none; stroke: #000000; stroke-width: 0.8; stroke-linejoin: miter; stroke-linecap: square"/>
   </g>
   <g id="patch_36">
    <path d="M 515.454545 1153.44 
L 515.454545 890.829474 
" style="fill: none; stroke: #000000; stroke-width: 0.8; stroke-linejoin: miter; stroke-linecap: square"/>
   </g>
   <g id="patch_37">
    <path d="M 135 1153.44 
L 515.454545 1153.44 
" style="fill: none; stroke: #000000; stroke-width: 0.8; stroke-linejoin: miter; stroke-linecap: square"/>
   </g>
   <g id="patch_38">
    <path d="M 135 890.829474 
L 515.454545 890.829474 
" style="fill: none; stroke: #000000; stroke-width: 0.8; stroke-linejoin: miter; stroke-linecap: square"/>
   </g>
   <g id="text_58">
    <!-- e -->
    <g transform="translate(89.376307 872.71352) scale(0.28 -0.28)">
     <defs>
      <path id="DejaVuSans-Bold-65" d="M 4031 1759 
L 4031 1441 
L 1416 1441 
Q 1456 1047 1700 850 
Q 1944 653 2381 653 
Q 2734 653 3104 758 
Q 3475 863 3866 1075 
L 3866 213 
Q 3469 63 3072 -14 
Q 2675 -91 2278 -91 
Q 1328 -91 801 392 
Q 275 875 275 1747 
Q 275 2603 792 3093 
Q 1309 3584 2216 3584 
Q 3041 3584 3536 3087 
Q 4031 2591 4031 1759 
z
M 2881 2131 
Q 2881 2450 2695 2645 
Q 2509 2841 2209 2841 
Q 1884 2841 1681 2658 
Q 1478 2475 1428 2131 
L 2881 2131 
z
" transform="scale(0.015625)"/>
     </defs>
     <use xlink:href="#DejaVuSans-Bold-65"/>
    </g>
   </g>
   <g id="text_59">
    <!-- $Q_{NN}$ -->
    <g transform="translate(302.787273 884.829474) scale(0.24 -0.24)">
     <use xlink:href="#DejaVuSans-Oblique-51" transform="translate(0 0.78125)"/>
     <use xlink:href="#DejaVuSans-Oblique-4e" transform="translate(78.710938 -15.625) scale(0.7)"/>
     <use xlink:href="#DejaVuSans-Oblique-4e" transform="translate(131.074219 -15.625) scale(0.7)"/>
    </g>
   </g>
  </g>
  <g id="axes_6">
   <g id="patch_39">
    <path d="M 591.545455 1153.44 
L 972 1153.44 
L 972 890.829474 
L 591.545455 890.829474 
z
" style="fill: #ffffff"/>
   </g>
   <g id="matplotlib.axis_11">
    <g id="xtick_20">
     <g id="line2d_58">
      <g>
       <use xlink:href="#mdcea97e396" x="608.606873" y="1153.44" style="stroke: #000000; stroke-width: 0.8"/>
      </g>
     </g>
     <g id="text_60">
      <!-- 0 -->
      <g transform="translate(601.608123 1177.156562) scale(0.22 -0.22)">
       <use xlink:href="#DejaVuSans-30"/>
      </g>
     </g>
    </g>
    <g id="xtick_21">
     <g id="line2d_59">
      <g>
       <use xlink:href="#mdcea97e396" x="724.59204" y="1153.44" style="stroke: #000000; stroke-width: 0.8"/>
      </g>
     </g>
     <g id="text_61">
      <!-- 500 -->
      <g transform="translate(703.59579 1177.156562) scale(0.22 -0.22)">
       <use xlink:href="#DejaVuSans-35"/>
       <use xlink:href="#DejaVuSans-30" x="63.623047"/>
       <use xlink:href="#DejaVuSans-30" x="127.246094"/>
      </g>
     </g>
    </g>
    <g id="xtick_22">
     <g id="line2d_60">
      <g>
       <use xlink:href="#mdcea97e396" x="840.577207" y="1153.44" style="stroke: #000000; stroke-width: 0.8"/>
      </g>
     </g>
     <g id="text_62">
      <!-- 1000 -->
      <g transform="translate(812.582207 1177.156562) scale(0.22 -0.22)">
       <use xlink:href="#DejaVuSans-31"/>
       <use xlink:href="#DejaVuSans-30" x="63.623047"/>
       <use xlink:href="#DejaVuSans-30" x="127.246094"/>
       <use xlink:href="#DejaVuSans-30" x="190.869141"/>
      </g>
     </g>
    </g>
    <g id="xtick_23">
     <g id="line2d_61">
      <g>
       <use xlink:href="#mdcea97e396" x="956.562374" y="1153.44" style="stroke: #000000; stroke-width: 0.8"/>
      </g>
     </g>
     <g id="text_63">
      <!-- 1500 -->
      <g transform="translate(928.567374 1177.156562) scale(0.22 -0.22)">
       <use xlink:href="#DejaVuSans-31"/>
       <use xlink:href="#DejaVuSans-35" x="63.623047"/>
       <use xlink:href="#DejaVuSans-30" x="127.246094"/>
       <use xlink:href="#DejaVuSans-30" x="190.869141"/>
      </g>
     </g>
    </g>
    <g id="text_64">
     <!-- k -->
     <g transform="translate(774.823977 1203.968125) scale(0.24 -0.24)">
      <use xlink:href="#DejaVuSans-6b"/>
     </g>
    </g>
   </g>
   <g id="matplotlib.axis_12">
    <g id="ytick_23">
     <g id="line2d_62">
      <g>
       <use xlink:href="#m36f5f803e5" x="591.545455" y="1141.435534" style="stroke: #000000; stroke-width: 0.8"/>
      </g>
     </g>
     <g id="text_65">
      <!-- 0.0 -->
      <g transform="translate(549.55858 1149.793815) scale(0.22 -0.22)">
       <use xlink:href="#DejaVuSans-30"/>
       <use xlink:href="#DejaVuSans-2e" x="63.623047"/>
       <use xlink:href="#DejaVuSans-30" x="95.410156"/>
      </g>
     </g>
    </g>
    <g id="ytick_24">
     <g id="line2d_63">
      <g>
       <use xlink:href="#m36f5f803e5" x="591.545455" y="1073.22453" style="stroke: #000000; stroke-width: 0.8"/>
      </g>
     </g>
     <g id="text_66">
      <!-- 0.2 -->
      <g transform="translate(549.55858 1081.582811) scale(0.22 -0.22)">
       <use xlink:href="#DejaVuSans-30"/>
       <use xlink:href="#DejaVuSans-2e" x="63.623047"/>
       <use xlink:href="#DejaVuSans-32" x="95.410156"/>
      </g>
     </g>
    </g>
    <g id="ytick_25">
     <g id="line2d_64">
      <g>
       <use xlink:href="#m36f5f803e5" x="591.545455" y="1005.013526" style="stroke: #000000; stroke-width: 0.8"/>
      </g>
     </g>
     <g id="text_67">
      <!-- 0.4 -->
      <g transform="translate(549.55858 1013.371807) scale(0.22 -0.22)">
       <use xlink:href="#DejaVuSans-30"/>
       <use xlink:href="#DejaVuSans-2e" x="63.623047"/>
       <use xlink:href="#DejaVuSans-34" x="95.410156"/>
      </g>
     </g>
    </g>
    <g id="ytick_26">
     <g id="line2d_65">
      <g>
       <use xlink:href="#m36f5f803e5" x="591.545455" y="936.802521" style="stroke: #000000; stroke-width: 0.8"/>
      </g>
     </g>
     <g id="text_68">
      <!-- 0.6 -->
      <g transform="translate(549.55858 945.160803) scale(0.22 -0.22)">
       <use xlink:href="#DejaVuSans-30"/>
       <use xlink:href="#DejaVuSans-2e" x="63.623047"/>
       <use xlink:href="#DejaVuSans-36" x="95.410156"/>
      </g>
     </g>
    </g>
   </g>
   <g id="line2d_66">
    <path d="M 608.838843 1106.256535 
L 609.302784 1082.194911 
L 609.534754 1076.44609 
L 610.230665 1068.761308 
L 611.158546 1063.145954 
L 611.622487 1061.537623 
L 612.086428 1059.520663 
L 612.318398 1059.329501 
L 613.71022 1055.609249 
L 614.638101 1053.799146 
L 615.334012 1052.594105 
L 616.725834 1049.368111 
L 619.045538 1045.032258 
L 619.509478 1044.51294 
L 619.741449 1044.229067 
L 621.365241 1041.040081 
L 621.829182 1040.359306 
L 622.525093 1039.044454 
L 623.221004 1038.036169 
L 624.148885 1036.22542 
L 624.612826 1035.465014 
L 625.308737 1034.433787 
L 627.62844 1032.626169 
L 627.86041 1032.544796 
L 628.324351 1032.180867 
L 629.484203 1031.371058 
L 630.412084 1030.840705 
L 630.644054 1030.790848 
L 631.339965 1030.146239 
L 632.035876 1029.711844 
L 633.195728 1029.048297 
L 634.58755 1028.78272 
L 635.979372 1028.441641 
L 637.371194 1028.129974 
L 638.067105 1027.765775 
L 638.531046 1027.702986 
L 638.994986 1027.874049 
L 639.458927 1027.945509 
L 641.082719 1028.13474 
L 641.54666 1028.244691 
L 643.170452 1028.374837 
L 643.634393 1028.403988 
L 644.330304 1028.583521 
L 646.650007 1029.365403 
L 647.345918 1029.472724 
L 648.041829 1029.77649 
L 648.969711 1030.186249 
L 649.433651 1030.284213 
L 650.593503 1030.714673 
L 652.449266 1031.204796 
L 658.248524 1033.640079 
L 658.944435 1034.048022 
L 661.496109 1035.224636 
L 662.19202 1035.483497 
L 664.743694 1036.418434 
L 665.671575 1036.782629 
L 667.527338 1037.511738 
L 670.079011 1038.285941 
L 671.934774 1038.995733 
L 673.326596 1039.461495 
L 674.486448 1039.821757 
L 683.06935 1042.71847 
L 684.229202 1043.13602 
L 698.379392 1048.383781 
L 700.467125 1049.117434 
L 702.322888 1049.731688 
L 707.658205 1051.457519 
L 708.586087 1051.792938 
L 709.977909 1052.232561 
L 713.689434 1053.406235 
L 714.617315 1053.725078 
L 717.63293 1054.507868 
L 725.983862 1056.541116 
L 727.839625 1056.941784 
L 732.479031 1057.928522 
L 734.334794 1058.337872 
L 735.958586 1058.694254 
L 737.814349 1059.141936 
L 741.293904 1059.905547 
L 743.149667 1060.32241 
L 744.309518 1060.636873 
L 760.083501 1065.262011 
L 762.171234 1065.964932 
L 768.434433 1067.952125 
L 778.177187 1071.4779 
L 780.960831 1072.510569 
L 785.136297 1073.977603 
L 789.543733 1075.596391 
L 794.647081 1077.399128 
L 801.14225 1079.666627 
L 804.157865 1080.690054 
L 812.508797 1083.34699 
L 833.386127 1090.662458 
L 847.072376 1096.235484 
L 850.551931 1097.840851 
L 858.206952 1101.536288 
L 860.758626 1102.797885 
L 870.50138 1107.659234 
L 876.99655 1110.645477 
L 881.172016 1112.289106 
L 893.466443 1117.456578 
L 899.265702 1119.805445 
L 902.745257 1121.392366 
L 909.472396 1124.59282 
L 913.415892 1126.322114 
L 919.679091 1129.205821 
L 925.014409 1131.749273 
L 936.380955 1137.06343 
L 938.932629 1138.027457 
L 944.499917 1139.682713 
L 950.067205 1140.899402 
L 954.706612 1141.435534 
L 954.706612 1141.435534 
" clip-path="url(#pc281136d1f)" style="fill: none; stroke: #1f77b4; stroke-width: 1.5; stroke-linecap: square"/>
   </g>
   <g id="line2d_67">
    <path d="M 608.838843 914.370255 
L 609.070813 905.804056 
L 609.302784 905.004683 
L 609.534754 902.891803 
L 609.766724 902.766316 
L 609.998695 903.748744 
L 610.230665 903.961016 
L 610.462635 904.520022 
L 610.694606 904.396439 
L 610.926576 903.795044 
L 611.158546 904.839772 
L 611.622487 907.975883 
L 611.854457 908.612393 
L 612.550368 912.760215 
L 612.782339 914.093658 
L 613.246279 917.399941 
L 613.47825 919.007305 
L 613.71022 919.731334 
L 614.406131 924.699239 
L 615.565983 935.010084 
L 616.029923 938.018132 
L 616.261894 938.956257 
L 616.725834 941.330914 
L 617.189775 942.714184 
L 618.117656 945.605258 
L 618.813567 946.88225 
L 619.277508 947.058397 
L 619.741449 947.633932 
L 620.9013 949.540127 
L 621.365241 949.644895 
L 621.829182 950.231265 
L 622.525093 951.698124 
L 622.989033 952.436303 
L 623.452974 953.678039 
L 624.380855 955.915561 
L 626.932529 964.022218 
L 627.86041 967.159793 
L 629.948143 972.968102 
L 631.107995 976.225182 
L 632.731787 979.850525 
L 635.515431 986.502759 
L 636.443313 988.207583 
L 638.299075 991.754564 
L 639.458927 994.411784 
L 642.242571 999.600524 
L 644.794245 1004.389003 
L 647.113948 1008.121727 
L 648.969711 1010.696978 
L 650.129562 1012.178346 
L 651.057444 1013.37584 
L 652.681236 1015.357105 
L 654.768969 1017.810929 
L 655.928821 1019.171737 
L 667.991278 1033.078255 
L 668.687189 1033.775089 
L 680.517676 1045.93483 
L 681.677528 1047.133148 
L 684.461172 1049.822666 
L 690.02846 1054.779897 
L 693.971956 1057.956911 
L 696.291659 1059.680065 
L 706.498354 1067.473332 
L 711.13776 1070.715941 
L 712.065642 1071.339636 
L 713.689434 1072.378025 
L 715.081256 1073.276093 
L 728.535536 1080.851885 
L 729.463417 1081.310346 
L 732.942972 1083.16327 
L 735.262675 1084.244439 
L 739.670112 1086.204128 
L 743.845578 1087.915596 
L 747.093162 1089.403342 
L 752.19651 1091.470337 
L 758.227738 1094.15311 
L 760.083501 1094.984934 
L 763.099115 1096.452596 
L 765.650789 1097.695325 
L 778.409157 1102.652314 
L 781.424772 1103.711084 
L 783.512505 1104.401337 
L 790.239644 1106.577277 
L 795.806933 1108.296595 
L 800.67831 1109.801695 
L 814.364559 1113.873662 
L 815.756381 1114.261744 
L 824.339284 1116.740047 
L 847.072376 1123.36782 
L 852.871635 1124.803344 
L 860.062715 1126.711644 
L 862.614389 1127.31206 
L 866.557884 1128.259947 
L 870.26941 1129.118579 
L 883.491719 1132.370414 
L 889.059007 1133.857783 
L 894.858265 1135.270281 
L 897.409939 1135.870114 
L 907.616634 1137.965684 
L 916.199536 1139.71752 
L 926.870171 1140.812604 
L 939.164599 1141.413253 
L 946.123709 1141.486075 
L 954.706612 1141.435534 
L 954.706612 1141.435534 
" clip-path="url(#pc281136d1f)" style="fill: none; stroke: #ff7f0e; stroke-width: 1.5; stroke-linecap: square"/>
   </g>
   <g id="line2d_68">
    <path d="M 608.838843 1056.685913 
L 609.302784 996.759829 
L 609.766724 966.728409 
L 610.230665 947.853371 
L 610.926576 931.504336 
L 611.158546 928.264851 
L 612.086428 923.113884 
L 612.318398 922.724744 
L 613.014309 923.294039 
L 613.246279 922.939515 
L 613.47825 923.358468 
L 613.71022 923.407077 
L 613.94219 924.057325 
L 614.638101 928.203249 
L 615.797953 937.063706 
L 616.957805 944.29439 
L 618.349627 950.986128 
L 619.277508 953.434743 
L 619.973419 955.146445 
L 620.205389 955.505383 
L 620.9013 957.371605 
L 622.061152 959.117 
L 623.221004 962.674029 
L 626.236618 973.092808 
L 627.62844 977.623226 
L 630.644054 985.365738 
L 631.803906 987.587744 
L 633.195728 990.123656 
L 634.123609 991.922292 
L 634.81952 993.248378 
L 635.283461 994.107917 
L 635.747402 994.836553 
L 638.531046 999.902851 
L 639.458927 1001.692539 
L 642.242571 1007.20193 
L 643.402423 1009.602167 
L 646.186067 1014.991372 
L 647.113948 1016.426616 
L 649.201681 1019.869082 
L 652.681236 1024.706151 
L 655.23291 1027.674471 
L 659.640346 1032.082615 
L 660.800198 1033.117181 
L 661.496109 1033.84901 
L 667.991278 1039.588682 
L 672.862655 1042.593999 
L 674.486448 1043.777562 
L 676.574181 1045.322851 
L 680.053736 1047.599925 
L 684.925113 1050.628071 
L 686.780875 1051.658891 
L 688.404668 1052.747438 
L 690.26043 1054.053583 
L 693.276045 1056.212173 
L 696.523629 1058.527879 
L 698.611362 1060.085748 
L 704.17865 1063.978397 
L 711.833671 1068.102287 
L 721.112485 1074.100432 
L 725.519921 1076.85442 
L 728.071595 1078.50773 
L 732.711002 1081.452002 
L 734.566764 1082.760965 
L 736.654497 1084.102317 
L 740.134052 1086.443473 
L 751.500599 1093.208578 
L 756.140005 1095.564106 
L 757.763798 1096.395658 
L 765.418819 1100.094112 
L 772.377929 1103.514526 
L 780.49689 1107.028939 
L 784.440386 1108.332829 
L 800.91028 1112.770975 
L 810.189093 1114.692255 
L 823.643373 1116.640725 
L 826.427017 1117.077528 
L 829.210661 1117.518488 
L 833.154156 1118.079607 
L 839.881296 1119.414305 
L 845.912525 1120.489629 
L 858.902863 1123.499879 
L 861.454537 1124.30059 
L 864.934092 1125.423176 
L 875.836698 1129.945415 
L 881.172016 1131.743109 
L 884.883541 1132.781571 
L 890.218859 1134.099011 
L 893.466443 1134.894173 
L 895.322206 1135.240763 
L 908.080574 1137.103933 
L 913.879833 1137.594434 
L 918.75121 1138.039252 
L 922.230765 1138.403203 
L 923.390616 1138.645182 
L 925.478349 1139.042414 
L 927.334112 1139.343254 
L 935.221103 1140.608383 
L 940.788392 1141.153564 
L 942.180214 1141.326233 
L 943.108095 1141.402056 
L 949.835235 1141.449556 
L 954.706612 1141.435534 
L 954.706612 1141.435534 
" clip-path="url(#pc281136d1f)" style="fill: none; stroke: #2ca02c; stroke-width: 1.5; stroke-linecap: square"/>
   </g>
   <g id="line2d_69">
    <path d="M 608.838843 1026.303918 
L 609.070813 1000.719234 
L 609.302784 993.180998 
L 609.766724 969.469642 
L 610.230665 959.112005 
L 610.462635 954.090644 
L 610.926576 948.38576 
L 611.390517 943.307172 
L 612.318398 935.431499 
L 613.246279 930.752028 
L 613.47825 930.733689 
L 613.71022 929.834437 
L 613.94219 929.68877 
L 614.174161 930.040682 
L 614.870072 932.699883 
L 616.029923 935.441088 
L 616.261894 935.225135 
L 616.957805 935.512293 
L 617.421745 936.161505 
L 617.653716 936.33522 
L 617.885686 936.311797 
L 618.117656 936.646108 
L 618.349627 936.344465 
L 618.581597 936.577482 
L 618.813567 936.28074 
L 619.277508 936.833401 
L 619.509478 936.973025 
L 619.741449 936.973583 
L 619.973419 937.375053 
L 620.205389 937.376698 
L 620.43736 937.87099 
L 621.365241 938.804566 
L 621.597211 939.159908 
L 622.525093 941.555563 
L 625.076766 947.861332 
L 626.236618 951.484561 
L 630.644054 962.731333 
L 632.731787 967.334865 
L 639.922868 983.021421 
L 642.242571 987.66986 
L 648.73774 998.462375 
L 649.665622 999.86713 
L 651.289414 1002.454162 
L 655.23291 1008.334688 
L 656.856702 1010.740458 
L 659.176406 1014.346346 
L 662.887931 1019.728614 
L 666.599456 1024.64065 
L 668.223249 1026.736877 
L 670.310982 1029.298702 
L 676.806151 1036.469117 
L 680.053736 1039.830874 
L 684.693142 1044.292482 
L 685.389053 1044.883989 
L 686.316935 1045.680746 
L 688.636638 1047.479969 
L 690.26043 1048.643802 
L 692.348163 1050.086012 
L 693.276045 1050.77915 
L 695.131807 1052.026552 
L 698.147422 1053.966343 
L 699.771214 1055.056783 
L 701.163036 1055.937877 
L 703.94668 1057.905874 
L 705.106532 1058.676881 
L 708.818057 1061.124443 
L 710.90579 1062.682775 
L 715.545197 1065.845718 
L 717.400959 1067.016245 
L 718.792781 1067.876829 
L 729.927358 1074.227434 
L 733.174942 1075.918746 
L 737.582379 1078.025711 
L 740.829963 1079.513238 
L 742.221785 1080.05658 
L 743.149667 1080.418875 
L 764.490937 1090.282743 
L 768.434433 1092.005215 
L 774.465662 1094.529991 
L 776.089454 1095.248545 
L 791.167526 1101.83428 
L 802.070132 1105.999512 
L 806.941509 1107.745348 
L 813.204708 1109.906282 
L 823.179432 1112.501077 
L 824.803224 1113.047499 
L 828.050809 1113.959895 
L 842.89691 1117.917865 
L 856.81513 1122.402618 
L 862.846359 1124.622371 
L 868.181677 1126.35411 
L 870.733351 1127.14733 
L 881.403986 1130.329759 
L 886.971274 1131.892075 
L 895.322206 1134.439389 
L 898.569791 1135.294122 
L 902.977227 1136.394879 
L 905.528901 1136.969274 
L 918.287269 1139.02789 
L 924.550468 1139.666803 
L 935.917014 1140.462114 
L 949.371294 1141.414596 
L 954.706612 1141.435534 
L 954.706612 1141.435534 
" clip-path="url(#pc281136d1f)" style="fill: none; stroke: #d62728; stroke-width: 1.5; stroke-linecap: square"/>
   </g>
   <g id="patch_40">
    <path d="M 591.545455 1153.44 
L 591.545455 890.829474 
" style="fill: none; stroke: #000000; stroke-width: 0.8; stroke-linejoin: miter; stroke-linecap: square"/>
   </g>
   <g id="patch_41">
    <path d="M 972 1153.44 
L 972 890.829474 
" style="fill: none; stroke: #000000; stroke-width: 0.8; stroke-linejoin: miter; stroke-linecap: square"/>
   </g>
   <g id="patch_42">
    <path d="M 591.545455 1153.44 
L 972 1153.44 
" style="fill: none; stroke: #000000; stroke-width: 0.8; stroke-linejoin: miter; stroke-linecap: square"/>
   </g>
   <g id="patch_43">
    <path d="M 591.545455 890.829474 
L 972 890.829474 
" style="fill: none; stroke: #000000; stroke-width: 0.8; stroke-linejoin: miter; stroke-linecap: square"/>
   </g>
   <g id="text_69">
    <!-- f -->
    <g transform="translate(552.733636 872.71352) scale(0.28 -0.28)">
     <defs>
      <path id="DejaVuSans-Bold-66" d="M 2841 4863 
L 2841 4128 
L 2222 4128 
Q 1984 4128 1890 4042 
Q 1797 3956 1797 3744 
L 1797 3500 
L 2753 3500 
L 2753 2700 
L 1797 2700 
L 1797 0 
L 678 0 
L 678 2700 
L 122 2700 
L 122 3500 
L 678 3500 
L 678 3744 
Q 678 4316 997 4589 
Q 1316 4863 1984 4863 
L 2841 4863 
z
" transform="scale(0.015625)"/>
     </defs>
     <use xlink:href="#DejaVuSans-Bold-66"/>
    </g>
   </g>
   <g id="text_70">
    <!-- LCMC -->
    <g transform="translate(747.973977 884.829474) scale(0.24 -0.24)">
     <defs>
      <path id="DejaVuSans-4c" d="M 628 4666 
L 1259 4666 
L 1259 531 
L 3531 531 
L 3531 0 
L 628 0 
L 628 4666 
z
" transform="scale(0.015625)"/>
     </defs>
     <use xlink:href="#DejaVuSans-4c"/>
     <use xlink:href="#DejaVuSans-43" x="55.712891"/>
     <use xlink:href="#DejaVuSans-4d" x="125.537109"/>
     <use xlink:href="#DejaVuSans-43" x="211.816406"/>
    </g>
   </g>
  </g>
 </g>
 <defs>
  <clipPath id="pa3224a5fc2">
   <rect x="135" y="155.52" width="380.454545" height="262.610526"/>
  </clipPath>
  <clipPath id="p03df44c74d">
   <rect x="591.545455" y="155.52" width="380.454545" height="262.610526"/>
  </clipPath>
  <clipPath id="pbe5618d3f8">
   <rect x="135" y="523.174737" width="380.454545" height="262.610526"/>
  </clipPath>
  <clipPath id="p9032fd66fd">
   <rect x="591.545455" y="523.174737" width="380.454545" height="262.610526"/>
  </clipPath>
  <clipPath id="p301f69c7c6">
   <rect x="135" y="890.829474" width="380.454545" height="262.610526"/>
  </clipPath>
  <clipPath id="pc281136d1f">
   <rect x="591.545455" y="890.829474" width="380.454545" height="262.610526"/>
  </clipPath>
 </defs>
</svg>
