<?xml version="1.0" encoding="utf-8" standalone="no"?>
<!DOCTYPE svg PUBLIC "-//W3C//DTD SVG 1.1//EN"
  "http://www.w3.org/Graphics/SVG/1.1/DTD/svg11.dtd">
<svg xmlns:xlink="http://www.w3.org/1999/xlink" width="1080pt" height="1296pt" viewBox="0 0 1080 1296" xmlns="http://www.w3.org/2000/svg" version="1.1">
 <metadata>
  <rdf:RDF xmlns:dc="http://purl.org/dc/elements/1.1/" xmlns:cc="http://creativecommons.org/ns#" xmlns:rdf="http://www.w3.org/1999/02/22-rdf-syntax-ns#">
   <cc:Work>
    <dc:type rdf:resource="http://purl.org/dc/dcmitype/StillImage"/>
    <dc:date>2024-07-24T11:33:37.255494</dc:date>
    <dc:format>image/svg+xml</dc:format>
    <dc:creator>
     <cc:Agent>
      <dc:title>Matplotlib v3.8.4, https://matplotlib.org/</dc:title>
     </cc:Agent>
    </dc:creator>
   </cc:Work>
  </rdf:RDF>
 </metadata>
 <defs>
  <style type="text/css">*{stroke-linejoin: round; stroke-linecap: butt}</style>
 </defs>
 <g id="figure_1">
  <g id="patch_1">
   <path d="M 0 1296 
L 1080 1296 
L 1080 0 
L 0 0 
z
" style="fill: #ffffff"/>
  </g>
  <g id="axes_1">
   <g id="patch_2">
    <path d="M 135 418.130526 
L 515.454545 418.130526 
L 515.454545 155.52 
L 135 155.52 
z
" style="fill: #ffffff"/>
   </g>
   <g id="matplotlib.axis_1">
    <g id="xtick_1">
     <g id="line2d_1">
      <defs>
       <path id="mba40f82ceb" d="M 0 0 
L 0 3.5 
" style="stroke: #000000; stroke-width: 0.8"/>
      </defs>
      <g>
       <use xlink:href="#mba40f82ceb" x="137.882231" y="418.130526" style="stroke: #000000; stroke-width: 0.8"/>
      </g>
     </g>
     <g id="text_1">
      <!-- 0 -->
      <g transform="translate(131.519731 440.327401) scale(0.2 -0.2)">
       <defs>
        <path id="DejaVuSans-30" d="M 2034 4250 
Q 1547 4250 1301 3770 
Q 1056 3291 1056 2328 
Q 1056 1369 1301 889 
Q 1547 409 2034 409 
Q 2525 409 2770 889 
Q 3016 1369 3016 2328 
Q 3016 3291 2770 3770 
Q 2525 4250 2034 4250 
z
M 2034 4750 
Q 2819 4750 3233 4129 
Q 3647 3509 3647 2328 
Q 3647 1150 3233 529 
Q 2819 -91 2034 -91 
Q 1250 -91 836 529 
Q 422 1150 422 2328 
Q 422 3509 836 4129 
Q 1250 4750 2034 4750 
z
" transform="scale(0.015625)"/>
       </defs>
       <use xlink:href="#DejaVuSans-30"/>
      </g>
     </g>
    </g>
    <g id="xtick_2">
     <g id="line2d_2">
      <g>
       <use xlink:href="#mba40f82ceb" x="209.938017" y="418.130526" style="stroke: #000000; stroke-width: 0.8"/>
      </g>
     </g>
     <g id="text_2">
      <!-- 10 -->
      <g transform="translate(197.213017 440.327401) scale(0.2 -0.2)">
       <defs>
        <path id="DejaVuSans-31" d="M 794 531 
L 1825 531 
L 1825 4091 
L 703 3866 
L 703 4441 
L 1819 4666 
L 2450 4666 
L 2450 531 
L 3481 531 
L 3481 0 
L 794 0 
L 794 531 
z
" transform="scale(0.015625)"/>
       </defs>
       <use xlink:href="#DejaVuSans-31"/>
       <use xlink:href="#DejaVuSans-30" x="63.623047"/>
      </g>
     </g>
    </g>
    <g id="xtick_3">
     <g id="line2d_3">
      <g>
       <use xlink:href="#mba40f82ceb" x="281.993802" y="418.130526" style="stroke: #000000; stroke-width: 0.8"/>
      </g>
     </g>
     <g id="text_3">
      <!-- 20 -->
      <g transform="translate(269.268802 440.327401) scale(0.2 -0.2)">
       <defs>
        <path id="DejaVuSans-32" d="M 1228 531 
L 3431 531 
L 3431 0 
L 469 0 
L 469 531 
Q 828 903 1448 1529 
Q 2069 2156 2228 2338 
Q 2531 2678 2651 2914 
Q 2772 3150 2772 3378 
Q 2772 3750 2511 3984 
Q 2250 4219 1831 4219 
Q 1534 4219 1204 4116 
Q 875 4013 500 3803 
L 500 4441 
Q 881 4594 1212 4672 
Q 1544 4750 1819 4750 
Q 2544 4750 2975 4387 
Q 3406 4025 3406 3419 
Q 3406 3131 3298 2873 
Q 3191 2616 2906 2266 
Q 2828 2175 2409 1742 
Q 1991 1309 1228 531 
z
" transform="scale(0.015625)"/>
       </defs>
       <use xlink:href="#DejaVuSans-32"/>
       <use xlink:href="#DejaVuSans-30" x="63.623047"/>
      </g>
     </g>
    </g>
    <g id="xtick_4">
     <g id="line2d_4">
      <g>
       <use xlink:href="#mba40f82ceb" x="354.049587" y="418.130526" style="stroke: #000000; stroke-width: 0.8"/>
      </g>
     </g>
     <g id="text_4">
      <!-- 30 -->
      <g transform="translate(341.324587 440.327401) scale(0.2 -0.2)">
       <defs>
        <path id="DejaVuSans-33" d="M 2597 2516 
Q 3050 2419 3304 2112 
Q 3559 1806 3559 1356 
Q 3559 666 3084 287 
Q 2609 -91 1734 -91 
Q 1441 -91 1130 -33 
Q 819 25 488 141 
L 488 750 
Q 750 597 1062 519 
Q 1375 441 1716 441 
Q 2309 441 2620 675 
Q 2931 909 2931 1356 
Q 2931 1769 2642 2001 
Q 2353 2234 1838 2234 
L 1294 2234 
L 1294 2753 
L 1863 2753 
Q 2328 2753 2575 2939 
Q 2822 3125 2822 3475 
Q 2822 3834 2567 4026 
Q 2313 4219 1838 4219 
Q 1578 4219 1281 4162 
Q 984 4106 628 3988 
L 628 4550 
Q 988 4650 1302 4700 
Q 1616 4750 1894 4750 
Q 2613 4750 3031 4423 
Q 3450 4097 3450 3541 
Q 3450 3153 3228 2886 
Q 3006 2619 2597 2516 
z
" transform="scale(0.015625)"/>
       </defs>
       <use xlink:href="#DejaVuSans-33"/>
       <use xlink:href="#DejaVuSans-30" x="63.623047"/>
      </g>
     </g>
    </g>
    <g id="xtick_5">
     <g id="line2d_5">
      <g>
       <use xlink:href="#mba40f82ceb" x="426.105372" y="418.130526" style="stroke: #000000; stroke-width: 0.8"/>
      </g>
     </g>
     <g id="text_5">
      <!-- 40 -->
      <g transform="translate(413.380372 440.327401) scale(0.2 -0.2)">
       <defs>
        <path id="DejaVuSans-34" d="M 2419 4116 
L 825 1625 
L 2419 1625 
L 2419 4116 
z
M 2253 4666 
L 3047 4666 
L 3047 1625 
L 3713 1625 
L 3713 1100 
L 3047 1100 
L 3047 0 
L 2419 0 
L 2419 1100 
L 313 1100 
L 313 1709 
L 2253 4666 
z
" transform="scale(0.015625)"/>
       </defs>
       <use xlink:href="#DejaVuSans-34"/>
       <use xlink:href="#DejaVuSans-30" x="63.623047"/>
      </g>
     </g>
    </g>
    <g id="xtick_6">
     <g id="line2d_6">
      <g>
       <use xlink:href="#mba40f82ceb" x="498.161157" y="418.130526" style="stroke: #000000; stroke-width: 0.8"/>
      </g>
     </g>
     <g id="text_6">
      <!-- 50 -->
      <g transform="translate(485.436157 440.327401) scale(0.2 -0.2)">
       <defs>
        <path id="DejaVuSans-35" d="M 691 4666 
L 3169 4666 
L 3169 4134 
L 1269 4134 
L 1269 2991 
Q 1406 3038 1543 3061 
Q 1681 3084 1819 3084 
Q 2600 3084 3056 2656 
Q 3513 2228 3513 1497 
Q 3513 744 3044 326 
Q 2575 -91 1722 -91 
Q 1428 -91 1123 -41 
Q 819 9 494 109 
L 494 744 
Q 775 591 1075 516 
Q 1375 441 1709 441 
Q 2250 441 2565 725 
Q 2881 1009 2881 1497 
Q 2881 1984 2565 2268 
Q 2250 2553 1709 2553 
Q 1456 2553 1204 2497 
Q 953 2441 691 2322 
L 691 4666 
z
" transform="scale(0.015625)"/>
       </defs>
       <use xlink:href="#DejaVuSans-35"/>
       <use xlink:href="#DejaVuSans-30" x="63.623047"/>
      </g>
     </g>
    </g>
    <g id="text_7">
     <!-- k -->
     <g transform="translate(318.278523 466.723026) scale(0.24 -0.24)">
      <defs>
       <path id="DejaVuSans-6b" d="M 581 4863 
L 1159 4863 
L 1159 1991 
L 2875 3500 
L 3609 3500 
L 1753 1863 
L 3688 0 
L 2938 0 
L 1159 1709 
L 1159 0 
L 581 0 
L 581 4863 
z
" transform="scale(0.015625)"/>
      </defs>
      <use xlink:href="#DejaVuSans-6b"/>
     </g>
    </g>
   </g>
   <g id="matplotlib.axis_2">
    <g id="ytick_1">
     <g id="line2d_7">
      <defs>
       <path id="ma3e6d3e943" d="M 0 0 
L -3.5 0 
" style="stroke: #000000; stroke-width: 0.8"/>
      </defs>
      <g>
       <use xlink:href="#ma3e6d3e943" x="135" y="418.130526" style="stroke: #000000; stroke-width: 0.8"/>
      </g>
     </g>
     <g id="text_8">
      <!-- 0.0 -->
      <g transform="translate(96.19375 425.728964) scale(0.2 -0.2)">
       <defs>
        <path id="DejaVuSans-2e" d="M 684 794 
L 1344 794 
L 1344 0 
L 684 0 
L 684 794 
z
" transform="scale(0.015625)"/>
       </defs>
       <use xlink:href="#DejaVuSans-30"/>
       <use xlink:href="#DejaVuSans-2e" x="63.623047"/>
       <use xlink:href="#DejaVuSans-30" x="95.410156"/>
      </g>
     </g>
    </g>
    <g id="ytick_2">
     <g id="line2d_8">
      <g>
       <use xlink:href="#ma3e6d3e943" x="135" y="352.477895" style="stroke: #000000; stroke-width: 0.8"/>
      </g>
     </g>
     <g id="text_9">
      <!-- 0.2 -->
      <g transform="translate(96.19375 360.076332) scale(0.2 -0.2)">
       <use xlink:href="#DejaVuSans-30"/>
       <use xlink:href="#DejaVuSans-2e" x="63.623047"/>
       <use xlink:href="#DejaVuSans-32" x="95.410156"/>
      </g>
     </g>
    </g>
    <g id="ytick_3">
     <g id="line2d_9">
      <g>
       <use xlink:href="#ma3e6d3e943" x="135" y="286.825263" style="stroke: #000000; stroke-width: 0.8"/>
      </g>
     </g>
     <g id="text_10">
      <!-- 0.4 -->
      <g transform="translate(96.19375 294.423701) scale(0.2 -0.2)">
       <use xlink:href="#DejaVuSans-30"/>
       <use xlink:href="#DejaVuSans-2e" x="63.623047"/>
       <use xlink:href="#DejaVuSans-34" x="95.410156"/>
      </g>
     </g>
    </g>
    <g id="ytick_4">
     <g id="line2d_10">
      <g>
       <use xlink:href="#ma3e6d3e943" x="135" y="221.172632" style="stroke: #000000; stroke-width: 0.8"/>
      </g>
     </g>
     <g id="text_11">
      <!-- 0.6 -->
      <g transform="translate(96.19375 228.771069) scale(0.2 -0.2)">
       <defs>
        <path id="DejaVuSans-36" d="M 2113 2584 
Q 1688 2584 1439 2293 
Q 1191 2003 1191 1497 
Q 1191 994 1439 701 
Q 1688 409 2113 409 
Q 2538 409 2786 701 
Q 3034 994 3034 1497 
Q 3034 2003 2786 2293 
Q 2538 2584 2113 2584 
z
M 3366 4563 
L 3366 3988 
Q 3128 4100 2886 4159 
Q 2644 4219 2406 4219 
Q 1781 4219 1451 3797 
Q 1122 3375 1075 2522 
Q 1259 2794 1537 2939 
Q 1816 3084 2150 3084 
Q 2853 3084 3261 2657 
Q 3669 2231 3669 1497 
Q 3669 778 3244 343 
Q 2819 -91 2113 -91 
Q 1303 -91 875 529 
Q 447 1150 447 2328 
Q 447 3434 972 4092 
Q 1497 4750 2381 4750 
Q 2619 4750 2861 4703 
Q 3103 4656 3366 4563 
z
" transform="scale(0.015625)"/>
       </defs>
       <use xlink:href="#DejaVuSans-30"/>
       <use xlink:href="#DejaVuSans-2e" x="63.623047"/>
       <use xlink:href="#DejaVuSans-36" x="95.410156"/>
      </g>
     </g>
    </g>
    <g id="ytick_5">
     <g id="line2d_11">
      <g>
       <use xlink:href="#ma3e6d3e943" x="135" y="155.52" style="stroke: #000000; stroke-width: 0.8"/>
      </g>
     </g>
     <g id="text_12">
      <!-- 0.8 -->
      <g transform="translate(96.19375 163.118438) scale(0.2 -0.2)">
       <defs>
        <path id="DejaVuSans-38" d="M 2034 2216 
Q 1584 2216 1326 1975 
Q 1069 1734 1069 1313 
Q 1069 891 1326 650 
Q 1584 409 2034 409 
Q 2484 409 2743 651 
Q 3003 894 3003 1313 
Q 3003 1734 2745 1975 
Q 2488 2216 2034 2216 
z
M 1403 2484 
Q 997 2584 770 2862 
Q 544 3141 544 3541 
Q 544 4100 942 4425 
Q 1341 4750 2034 4750 
Q 2731 4750 3128 4425 
Q 3525 4100 3525 3541 
Q 3525 3141 3298 2862 
Q 3072 2584 2669 2484 
Q 3125 2378 3379 2068 
Q 3634 1759 3634 1313 
Q 3634 634 3220 271 
Q 2806 -91 2034 -91 
Q 1263 -91 848 271 
Q 434 634 434 1313 
Q 434 1759 690 2068 
Q 947 2378 1403 2484 
z
M 1172 3481 
Q 1172 3119 1398 2916 
Q 1625 2713 2034 2713 
Q 2441 2713 2670 2916 
Q 2900 3119 2900 3481 
Q 2900 3844 2670 4047 
Q 2441 4250 2034 4250 
Q 1625 4250 1398 4047 
Q 1172 3844 1172 3481 
z
" transform="scale(0.015625)"/>
       </defs>
       <use xlink:href="#DejaVuSans-30"/>
       <use xlink:href="#DejaVuSans-2e" x="63.623047"/>
       <use xlink:href="#DejaVuSans-38" x="95.410156"/>
      </g>
     </g>
    </g>
    <g id="text_13">
     <!-- $P_{NN}$ -->
     <g transform="translate(87.2025 306.985263) rotate(-90) scale(0.24 -0.24)">
      <defs>
       <path id="DejaVuSans-Oblique-50" d="M 1081 4666 
L 2541 4666 
Q 3178 4666 3512 4369 
Q 3847 4072 3847 3500 
Q 3847 2731 3353 2303 
Q 2859 1875 1966 1875 
L 1172 1875 
L 806 0 
L 172 0 
L 1081 4666 
z
M 1613 4147 
L 1275 2394 
L 2069 2394 
Q 2606 2394 2893 2669 
Q 3181 2944 3181 3456 
Q 3181 3784 2986 3965 
Q 2791 4147 2438 4147 
L 1613 4147 
z
" transform="scale(0.015625)"/>
       <path id="DejaVuSans-Oblique-4e" d="M 1081 4666 
L 1931 4666 
L 3219 666 
L 4000 4666 
L 4616 4666 
L 3706 0 
L 2853 0 
L 1569 4025 
L 788 0 
L 172 0 
L 1081 4666 
z
" transform="scale(0.015625)"/>
      </defs>
      <use xlink:href="#DejaVuSans-Oblique-50" transform="translate(0 0.09375)"/>
      <use xlink:href="#DejaVuSans-Oblique-4e" transform="translate(60.302734 -16.3125) scale(0.7)"/>
      <use xlink:href="#DejaVuSans-Oblique-4e" transform="translate(112.666016 -16.3125) scale(0.7)"/>
     </g>
    </g>
   </g>
   <g id="line2d_12">
    <path d="M 152.293388 402.052642 
L 173.910124 391.064817 
L 209.938017 382.012435 
L 281.993802 371.923753 
L 498.161157 361.255962 
" clip-path="url(#pd86f333a76)" style="fill: none; stroke: #1f77b4; stroke-width: 1.5; stroke-linecap: square"/>
    <defs>
     <path id="me7ef0857c0" d="M 0 3 
C 0.795609 3 1.55874 2.683901 2.12132 2.12132 
C 2.683901 1.55874 3 0.795609 3 0 
C 3 -0.795609 2.683901 -1.55874 2.12132 -2.12132 
C 1.55874 -2.683901 0.795609 -3 0 -3 
C -0.795609 -3 -1.55874 -2.683901 -2.12132 -2.12132 
C -2.683901 -1.55874 -3 -0.795609 -3 0 
C -3 0.795609 -2.683901 1.55874 -2.12132 2.12132 
C -1.55874 2.683901 -0.795609 3 0 3 
z
" style="stroke: #1f77b4"/>
    </defs>
    <g clip-path="url(#pd86f333a76)">
     <use xlink:href="#me7ef0857c0" x="152.293388" y="402.052642" style="fill: #1f77b4; stroke: #1f77b4"/>
     <use xlink:href="#me7ef0857c0" x="173.910124" y="391.064817" style="fill: #1f77b4; stroke: #1f77b4"/>
     <use xlink:href="#me7ef0857c0" x="209.938017" y="382.012435" style="fill: #1f77b4; stroke: #1f77b4"/>
     <use xlink:href="#me7ef0857c0" x="281.993802" y="371.923753" style="fill: #1f77b4; stroke: #1f77b4"/>
     <use xlink:href="#me7ef0857c0" x="498.161157" y="361.255962" style="fill: #1f77b4; stroke: #1f77b4"/>
    </g>
   </g>
   <g id="line2d_13">
    <path d="M 152.293388 298.72747 
L 173.910124 270.213989 
L 209.938017 261.054929 
L 281.993802 268.65954 
L 498.161157 295.85631 
" clip-path="url(#pd86f333a76)" style="fill: none; stroke: #ff7f0e; stroke-width: 1.5; stroke-linecap: square"/>
    <defs>
     <path id="m641b30aac4" d="M 0 3 
C 0.795609 3 1.55874 2.683901 2.12132 2.12132 
C 2.683901 1.55874 3 0.795609 3 0 
C 3 -0.795609 2.683901 -1.55874 2.12132 -2.12132 
C 1.55874 -2.683901 0.795609 -3 0 -3 
C -0.795609 -3 -1.55874 -2.683901 -2.12132 -2.12132 
C -2.683901 -1.55874 -3 -0.795609 -3 0 
C -3 0.795609 -2.683901 1.55874 -2.12132 2.12132 
C -1.55874 2.683901 -0.795609 3 0 3 
z
" style="stroke: #ff7f0e"/>
    </defs>
    <g clip-path="url(#pd86f333a76)">
     <use xlink:href="#m641b30aac4" x="152.293388" y="298.72747" style="fill: #ff7f0e; stroke: #ff7f0e"/>
     <use xlink:href="#m641b30aac4" x="173.910124" y="270.213989" style="fill: #ff7f0e; stroke: #ff7f0e"/>
     <use xlink:href="#m641b30aac4" x="209.938017" y="261.054929" style="fill: #ff7f0e; stroke: #ff7f0e"/>
     <use xlink:href="#m641b30aac4" x="281.993802" y="268.65954" style="fill: #ff7f0e; stroke: #ff7f0e"/>
     <use xlink:href="#m641b30aac4" x="498.161157" y="295.85631" style="fill: #ff7f0e; stroke: #ff7f0e"/>
    </g>
   </g>
   <g id="line2d_14">
    <path d="M 152.293388 340.865243 
L 173.910124 300.480035 
L 209.938017 275.852678 
L 281.993802 272.568523 
L 498.161157 298.069114 
" clip-path="url(#pd86f333a76)" style="fill: none; stroke: #2ca02c; stroke-width: 1.5; stroke-linecap: square"/>
    <defs>
     <path id="m2546e6b1b5" d="M 0 3 
C 0.795609 3 1.55874 2.683901 2.12132 2.12132 
C 2.683901 1.55874 3 0.795609 3 0 
C 3 -0.795609 2.683901 -1.55874 2.12132 -2.12132 
C 1.55874 -2.683901 0.795609 -3 0 -3 
C -0.795609 -3 -1.55874 -2.683901 -2.12132 -2.12132 
C -2.683901 -1.55874 -3 -0.795609 -3 0 
C -3 0.795609 -2.683901 1.55874 -2.12132 2.12132 
C -1.55874 2.683901 -0.795609 3 0 3 
z
" style="stroke: #2ca02c"/>
    </defs>
    <g clip-path="url(#pd86f333a76)">
     <use xlink:href="#m2546e6b1b5" x="152.293388" y="340.865243" style="fill: #2ca02c; stroke: #2ca02c"/>
     <use xlink:href="#m2546e6b1b5" x="173.910124" y="300.480035" style="fill: #2ca02c; stroke: #2ca02c"/>
     <use xlink:href="#m2546e6b1b5" x="209.938017" y="275.852678" style="fill: #2ca02c; stroke: #2ca02c"/>
     <use xlink:href="#m2546e6b1b5" x="281.993802" y="272.568523" style="fill: #2ca02c; stroke: #2ca02c"/>
     <use xlink:href="#m2546e6b1b5" x="498.161157" y="298.069114" style="fill: #2ca02c; stroke: #2ca02c"/>
    </g>
   </g>
   <g id="line2d_15">
    <path d="M 152.293388 331.950018 
L 173.910124 300.205721 
L 209.938017 275.639323 
L 281.993802 268.583341 
L 498.161157 284.749616 
" clip-path="url(#pd86f333a76)" style="fill: none; stroke: #d62728; stroke-width: 1.5; stroke-linecap: square"/>
    <defs>
     <path id="m9d68e3564d" d="M 0 3 
C 0.795609 3 1.55874 2.683901 2.12132 2.12132 
C 2.683901 1.55874 3 0.795609 3 0 
C 3 -0.795609 2.683901 -1.55874 2.12132 -2.12132 
C 1.55874 -2.683901 0.795609 -3 0 -3 
C -0.795609 -3 -1.55874 -2.683901 -2.12132 -2.12132 
C -2.683901 -1.55874 -3 -0.795609 -3 0 
C -3 0.795609 -2.683901 1.55874 -2.12132 2.12132 
C -1.55874 2.683901 -0.795609 3 0 3 
z
" style="stroke: #d62728"/>
    </defs>
    <g clip-path="url(#pd86f333a76)">
     <use xlink:href="#m9d68e3564d" x="152.293388" y="331.950018" style="fill: #d62728; stroke: #d62728"/>
     <use xlink:href="#m9d68e3564d" x="173.910124" y="300.205721" style="fill: #d62728; stroke: #d62728"/>
     <use xlink:href="#m9d68e3564d" x="209.938017" y="275.639323" style="fill: #d62728; stroke: #d62728"/>
     <use xlink:href="#m9d68e3564d" x="281.993802" y="268.583341" style="fill: #d62728; stroke: #d62728"/>
     <use xlink:href="#m9d68e3564d" x="498.161157" y="284.749616" style="fill: #d62728; stroke: #d62728"/>
    </g>
   </g>
   <g id="patch_3">
    <path d="M 135 418.130526 
L 135 155.52 
" style="fill: none; stroke: #000000; stroke-width: 0.8; stroke-linejoin: miter; stroke-linecap: square"/>
   </g>
   <g id="patch_4">
    <path d="M 515.454545 418.130526 
L 515.454545 155.52 
" style="fill: none; stroke: #000000; stroke-width: 0.8; stroke-linejoin: miter; stroke-linecap: square"/>
   </g>
   <g id="patch_5">
    <path d="M 135 418.130526 
L 515.454545 418.130526 
" style="fill: none; stroke: #000000; stroke-width: 0.8; stroke-linejoin: miter; stroke-linecap: square"/>
   </g>
   <g id="patch_6">
    <path d="M 135 155.52 
L 515.454545 155.52 
" style="fill: none; stroke: #000000; stroke-width: 0.8; stroke-linejoin: miter; stroke-linecap: square"/>
   </g>
   <g id="text_14">
    <!-- a -->
    <g transform="translate(89.472557 137.404046) scale(0.28 -0.28)">
     <defs>
      <path id="DejaVuSans-Bold-61" d="M 2106 1575 
Q 1756 1575 1579 1456 
Q 1403 1338 1403 1106 
Q 1403 894 1545 773 
Q 1688 653 1941 653 
Q 2256 653 2472 879 
Q 2688 1106 2688 1447 
L 2688 1575 
L 2106 1575 
z
M 3816 1997 
L 3816 0 
L 2688 0 
L 2688 519 
Q 2463 200 2181 54 
Q 1900 -91 1497 -91 
Q 953 -91 614 226 
Q 275 544 275 1050 
Q 275 1666 698 1953 
Q 1122 2241 2028 2241 
L 2688 2241 
L 2688 2328 
Q 2688 2594 2478 2717 
Q 2269 2841 1825 2841 
Q 1466 2841 1156 2769 
Q 847 2697 581 2553 
L 581 3406 
Q 941 3494 1303 3539 
Q 1666 3584 2028 3584 
Q 2975 3584 3395 3211 
Q 3816 2838 3816 1997 
z
" transform="scale(0.015625)"/>
     </defs>
     <use xlink:href="#DejaVuSans-Bold-61"/>
    </g>
   </g>
   <g id="text_15">
    <!-- $P_{NN}$ -->
    <g transform="translate(303.387273 149.52) scale(0.26 -0.26)">
     <use xlink:href="#DejaVuSans-Oblique-50" transform="translate(0 0.09375)"/>
     <use xlink:href="#DejaVuSans-Oblique-4e" transform="translate(60.302734 -16.3125) scale(0.7)"/>
     <use xlink:href="#DejaVuSans-Oblique-4e" transform="translate(112.666016 -16.3125) scale(0.7)"/>
    </g>
   </g>
  </g>
  <g id="axes_2">
   <g id="patch_7">
    <path d="M 591.545455 418.130526 
L 972 418.130526 
L 972 155.52 
L 591.545455 155.52 
z
" style="fill: #ffffff"/>
   </g>
   <g id="patch_8">
    <path d="M 608.838843 418.130526 
L 628.792753 418.130526 
L 628.792753 183.381168 
L 608.838843 183.381168 
z
" clip-path="url(#pd7801f54dd)" style="fill: #1f77b4"/>
   </g>
   <g id="patch_9">
    <path d="M 741.864908 418.130526 
L 761.818818 418.130526 
L 761.818818 335.29041 
L 741.864908 335.29041 
z
" clip-path="url(#pd7801f54dd)" style="fill: #1f77b4"/>
   </g>
   <g id="patch_10">
    <path d="M 874.890973 418.130526 
L 894.844882 418.130526 
L 894.844882 168.025263 
L 874.890973 168.025263 
z
" clip-path="url(#pd7801f54dd)" style="fill: #1f77b4"/>
   </g>
   <g id="patch_11">
    <path d="M 628.792753 418.130526 
L 648.746662 418.130526 
L 648.746662 183.665346 
L 628.792753 183.665346 
z
" clip-path="url(#pd7801f54dd)" style="fill: #ff7f0e"/>
   </g>
   <g id="patch_12">
    <path d="M 761.818818 418.130526 
L 781.772727 418.130526 
L 781.772727 236.038511 
L 761.818818 236.038511 
z
" clip-path="url(#pd7801f54dd)" style="fill: #ff7f0e"/>
   </g>
   <g id="patch_13">
    <path d="M 894.844882 418.130526 
L 914.798792 418.130526 
L 914.798792 183.363077 
L 894.844882 183.363077 
z
" clip-path="url(#pd7801f54dd)" style="fill: #ff7f0e"/>
   </g>
   <g id="patch_14">
    <path d="M 648.746662 418.130526 
L 668.700572 418.130526 
L 668.700572 186.831979 
L 648.746662 186.831979 
z
" clip-path="url(#pd7801f54dd)" style="fill: #2ca02c"/>
   </g>
   <g id="patch_15">
    <path d="M 781.772727 418.130526 
L 801.726637 418.130526 
L 801.726637 263.602971 
L 781.772727 263.602971 
z
" clip-path="url(#pd7801f54dd)" style="fill: #2ca02c"/>
   </g>
   <g id="patch_16">
    <path d="M 914.798792 418.130526 
L 934.752702 418.130526 
L 934.752702 186.327504 
L 914.798792 186.327504 
z
" clip-path="url(#pd7801f54dd)" style="fill: #2ca02c"/>
   </g>
   <g id="patch_17">
    <path d="M 668.700572 418.130526 
L 688.654482 418.130526 
L 688.654482 180.298916 
L 668.700572 180.298916 
z
" clip-path="url(#pd7801f54dd)" style="fill: #d62728"/>
   </g>
   <g id="patch_18">
    <path d="M 801.726637 418.130526 
L 821.680547 418.130526 
L 821.680547 254.860108 
L 801.726637 254.860108 
z
" clip-path="url(#pd7801f54dd)" style="fill: #d62728"/>
   </g>
   <g id="patch_19">
    <path d="M 934.752702 418.130526 
L 954.706612 418.130526 
L 954.706612 179.699523 
L 934.752702 179.699523 
z
" clip-path="url(#pd7801f54dd)" style="fill: #d62728"/>
   </g>
   <g id="matplotlib.axis_3">
    <g id="xtick_7">
     <g id="line2d_16">
      <g>
       <use xlink:href="#mba40f82ceb" x="648.746662" y="418.130526" style="stroke: #000000; stroke-width: 0.8"/>
      </g>
     </g>
     <g id="text_16">
      <!-- AUC -->
      <g transform="translate(625.490256 441.847089) scale(0.22 -0.22)">
       <defs>
        <path id="DejaVuSans-41" d="M 2188 4044 
L 1331 1722 
L 3047 1722 
L 2188 4044 
z
M 1831 4666 
L 2547 4666 
L 4325 0 
L 3669 0 
L 3244 1197 
L 1141 1197 
L 716 0 
L 50 0 
L 1831 4666 
z
" transform="scale(0.015625)"/>
        <path id="DejaVuSans-55" d="M 556 4666 
L 1191 4666 
L 1191 1831 
Q 1191 1081 1462 751 
Q 1734 422 2344 422 
Q 2950 422 3222 751 
Q 3494 1081 3494 1831 
L 3494 4666 
L 4128 4666 
L 4128 1753 
Q 4128 841 3676 375 
Q 3225 -91 2344 -91 
Q 1459 -91 1007 375 
Q 556 841 556 1753 
L 556 4666 
z
" transform="scale(0.015625)"/>
        <path id="DejaVuSans-43" d="M 4122 4306 
L 4122 3641 
Q 3803 3938 3442 4084 
Q 3081 4231 2675 4231 
Q 1875 4231 1450 3742 
Q 1025 3253 1025 2328 
Q 1025 1406 1450 917 
Q 1875 428 2675 428 
Q 3081 428 3442 575 
Q 3803 722 4122 1019 
L 4122 359 
Q 3791 134 3420 21 
Q 3050 -91 2638 -91 
Q 1578 -91 968 557 
Q 359 1206 359 2328 
Q 359 3453 968 4101 
Q 1578 4750 2638 4750 
Q 3056 4750 3426 4639 
Q 3797 4528 4122 4306 
z
" transform="scale(0.015625)"/>
       </defs>
       <use xlink:href="#DejaVuSans-41"/>
       <use xlink:href="#DejaVuSans-55" x="68.408203"/>
       <use xlink:href="#DejaVuSans-43" x="141.601562"/>
      </g>
     </g>
    </g>
    <g id="xtick_8">
     <g id="line2d_17">
      <g>
       <use xlink:href="#mba40f82ceb" x="781.772727" y="418.130526" style="stroke: #000000; stroke-width: 0.8"/>
      </g>
     </g>
     <g id="text_17">
      <!-- $Q_{local}$ -->
      <g transform="translate(754.822727 441.847089) scale(0.22 -0.22)">
       <defs>
        <path id="DejaVuSans-Oblique-51" d="M 2309 -84 
Q 2275 -88 2237 -89 
Q 2200 -91 2125 -91 
Q 1250 -91 756 411 
Q 263 913 263 1797 
Q 263 2319 452 2844 
Q 641 3369 978 3788 
Q 1369 4269 1858 4509 
Q 2347 4750 2938 4750 
Q 3794 4750 4287 4245 
Q 4781 3741 4781 2869 
Q 4781 1928 4265 1147 
Q 3750 366 2919 44 
L 3553 -825 
L 2847 -825 
L 2309 -84 
z
M 2919 4238 
Q 2400 4238 2003 3986 
Q 1606 3734 1313 3219 
Q 1125 2891 1026 2522 
Q 928 2153 928 1778 
Q 928 1128 1239 775 
Q 1550 422 2119 422 
Q 2631 422 3032 676 
Q 3434 931 3719 1434 
Q 3909 1772 4009 2142 
Q 4109 2513 4109 2881 
Q 4109 3528 3796 3883 
Q 3484 4238 2919 4238 
z
" transform="scale(0.015625)"/>
        <path id="DejaVuSans-Oblique-6c" d="M 1172 4863 
L 1747 4863 
L 800 0 
L 225 0 
L 1172 4863 
z
" transform="scale(0.015625)"/>
        <path id="DejaVuSans-Oblique-6f" d="M 1625 -91 
Q 1009 -91 651 289 
Q 294 669 294 1325 
Q 294 1706 417 2101 
Q 541 2497 738 2766 
Q 1047 3184 1428 3384 
Q 1809 3584 2291 3584 
Q 2888 3584 3255 3212 
Q 3622 2841 3622 2241 
Q 3622 1825 3500 1412 
Q 3378 1000 3181 728 
Q 2875 309 2494 109 
Q 2113 -91 1625 -91 
z
M 891 1344 
Q 891 869 1089 633 
Q 1288 397 1691 397 
Q 2269 397 2648 901 
Q 3028 1406 3028 2181 
Q 3028 2634 2825 2865 
Q 2622 3097 2228 3097 
Q 1903 3097 1650 2945 
Q 1397 2794 1197 2484 
Q 1050 2253 970 1956 
Q 891 1659 891 1344 
z
" transform="scale(0.015625)"/>
        <path id="DejaVuSans-Oblique-63" d="M 3431 3366 
L 3316 2797 
Q 3109 2947 2876 3022 
Q 2644 3097 2394 3097 
Q 2119 3097 1870 3000 
Q 1622 2903 1453 2725 
Q 1184 2453 1037 2087 
Q 891 1722 891 1331 
Q 891 859 1127 628 
Q 1363 397 1844 397 
Q 2081 397 2348 469 
Q 2616 541 2906 684 
L 2797 116 
Q 2547 13 2283 -39 
Q 2019 -91 1741 -91 
Q 1044 -91 669 257 
Q 294 606 294 1253 
Q 294 1797 489 2255 
Q 684 2713 1069 3078 
Q 1331 3328 1684 3456 
Q 2038 3584 2456 3584 
Q 2700 3584 2940 3529 
Q 3181 3475 3431 3366 
z
" transform="scale(0.015625)"/>
        <path id="DejaVuSans-Oblique-61" d="M 3438 1997 
L 3047 0 
L 2472 0 
L 2578 531 
Q 2325 219 2001 64 
Q 1678 -91 1281 -91 
Q 834 -91 548 182 
Q 263 456 263 884 
Q 263 1497 752 1853 
Q 1241 2209 2100 2209 
L 2900 2209 
L 2931 2363 
Q 2938 2388 2941 2417 
Q 2944 2447 2944 2509 
Q 2944 2788 2717 2942 
Q 2491 3097 2081 3097 
Q 1800 3097 1504 3025 
Q 1209 2953 897 2809 
L 997 3341 
Q 1322 3463 1633 3523 
Q 1944 3584 2234 3584 
Q 2853 3584 3176 3315 
Q 3500 3047 3500 2534 
Q 3500 2431 3484 2292 
Q 3469 2153 3438 1997 
z
M 2816 1759 
L 2241 1759 
Q 1534 1759 1195 1570 
Q 856 1381 856 984 
Q 856 709 1029 553 
Q 1203 397 1509 397 
Q 1978 397 2328 733 
Q 2678 1069 2791 1631 
L 2816 1759 
z
" transform="scale(0.015625)"/>
       </defs>
       <use xlink:href="#DejaVuSans-Oblique-51" transform="translate(0 0.78125)"/>
       <use xlink:href="#DejaVuSans-Oblique-6c" transform="translate(78.710938 -15.625) scale(0.7)"/>
       <use xlink:href="#DejaVuSans-Oblique-6f" transform="translate(98.15918 -15.625) scale(0.7)"/>
       <use xlink:href="#DejaVuSans-Oblique-63" transform="translate(140.986328 -15.625) scale(0.7)"/>
       <use xlink:href="#DejaVuSans-Oblique-61" transform="translate(179.472656 -15.625) scale(0.7)"/>
       <use xlink:href="#DejaVuSans-Oblique-6c" transform="translate(222.368164 -15.625) scale(0.7)"/>
      </g>
     </g>
    </g>
    <g id="xtick_9">
     <g id="line2d_18">
      <g>
       <use xlink:href="#mba40f82ceb" x="914.798792" y="418.130526" style="stroke: #000000; stroke-width: 0.8"/>
      </g>
     </g>
     <g id="text_18">
      <!-- $Q_{global}$ -->
      <g transform="translate(882.348792 441.630526) scale(0.22 -0.22)">
       <defs>
        <path id="DejaVuSans-Oblique-67" d="M 3816 3500 
L 3219 434 
Q 3047 -456 2561 -893 
Q 2075 -1331 1253 -1331 
Q 950 -1331 690 -1286 
Q 431 -1241 206 -1147 
L 313 -588 
Q 525 -725 762 -790 
Q 1000 -856 1269 -856 
Q 1816 -856 2167 -557 
Q 2519 -259 2631 300 
L 2681 563 
Q 2441 288 2122 144 
Q 1803 0 1434 0 
Q 903 0 598 351 
Q 294 703 294 1319 
Q 294 1803 478 2267 
Q 663 2731 997 3091 
Q 1219 3328 1514 3456 
Q 1809 3584 2131 3584 
Q 2484 3584 2746 3420 
Q 3009 3256 3138 2956 
L 3238 3500 
L 3816 3500 
z
M 2950 2216 
Q 2950 2641 2750 2872 
Q 2550 3103 2181 3103 
Q 1953 3103 1747 3012 
Q 1541 2922 1394 2759 
Q 1156 2491 1023 2127 
Q 891 1763 891 1375 
Q 891 944 1092 712 
Q 1294 481 1672 481 
Q 2219 481 2584 976 
Q 2950 1472 2950 2216 
z
" transform="scale(0.015625)"/>
        <path id="DejaVuSans-Oblique-62" d="M 3169 2138 
Q 3169 2591 2961 2847 
Q 2753 3103 2388 3103 
Q 2122 3103 1889 2973 
Q 1656 2844 1484 2597 
Q 1303 2338 1198 1995 
Q 1094 1653 1094 1313 
Q 1094 881 1298 636 
Q 1503 391 1863 391 
Q 2134 391 2365 517 
Q 2597 644 2772 891 
Q 2950 1147 3059 1487 
Q 3169 1828 3169 2138 
z
M 1381 2969 
Q 1594 3256 1914 3420 
Q 2234 3584 2584 3584 
Q 3122 3584 3439 3221 
Q 3756 2859 3756 2241 
Q 3756 1734 3570 1259 
Q 3384 784 3041 416 
Q 2816 172 2522 40 
Q 2228 -91 1906 -91 
Q 1566 -91 1316 65 
Q 1066 222 909 531 
L 806 0 
L 231 0 
L 1178 4863 
L 1753 4863 
L 1381 2969 
z
" transform="scale(0.015625)"/>
       </defs>
       <use xlink:href="#DejaVuSans-Oblique-51" transform="translate(0 0.78125)"/>
       <use xlink:href="#DejaVuSans-Oblique-67" transform="translate(78.710938 -15.625) scale(0.7)"/>
       <use xlink:href="#DejaVuSans-Oblique-6c" transform="translate(123.144531 -15.625) scale(0.7)"/>
       <use xlink:href="#DejaVuSans-Oblique-6f" transform="translate(142.592773 -15.625) scale(0.7)"/>
       <use xlink:href="#DejaVuSans-Oblique-62" transform="translate(185.419922 -15.625) scale(0.7)"/>
       <use xlink:href="#DejaVuSans-Oblique-61" transform="translate(229.853516 -15.625) scale(0.7)"/>
       <use xlink:href="#DejaVuSans-Oblique-6c" transform="translate(272.749023 -15.625) scale(0.7)"/>
      </g>
     </g>
    </g>
   </g>
   <g id="matplotlib.axis_4">
    <g id="ytick_6">
     <g id="line2d_19">
      <g>
       <use xlink:href="#ma3e6d3e943" x="591.545455" y="418.130526" style="stroke: #000000; stroke-width: 0.8"/>
      </g>
     </g>
     <g id="text_19">
      <!-- 0.0 -->
      <g transform="translate(549.55858 426.488808) scale(0.22 -0.22)">
       <use xlink:href="#DejaVuSans-30"/>
       <use xlink:href="#DejaVuSans-2e" x="63.623047"/>
       <use xlink:href="#DejaVuSans-30" x="95.410156"/>
      </g>
     </g>
    </g>
    <g id="ytick_7">
     <g id="line2d_20">
      <g>
       <use xlink:href="#ma3e6d3e943" x="591.545455" y="334.958493" style="stroke: #000000; stroke-width: 0.8"/>
      </g>
     </g>
     <g id="text_20">
      <!-- 0.2 -->
      <g transform="translate(549.55858 343.316774) scale(0.22 -0.22)">
       <use xlink:href="#DejaVuSans-30"/>
       <use xlink:href="#DejaVuSans-2e" x="63.623047"/>
       <use xlink:href="#DejaVuSans-32" x="95.410156"/>
      </g>
     </g>
    </g>
    <g id="ytick_8">
     <g id="line2d_21">
      <g>
       <use xlink:href="#ma3e6d3e943" x="591.545455" y="251.786459" style="stroke: #000000; stroke-width: 0.8"/>
      </g>
     </g>
     <g id="text_21">
      <!-- 0.4 -->
      <g transform="translate(549.55858 260.144741) scale(0.22 -0.22)">
       <use xlink:href="#DejaVuSans-30"/>
       <use xlink:href="#DejaVuSans-2e" x="63.623047"/>
       <use xlink:href="#DejaVuSans-34" x="95.410156"/>
      </g>
     </g>
    </g>
    <g id="ytick_9">
     <g id="line2d_22">
      <g>
       <use xlink:href="#ma3e6d3e943" x="591.545455" y="168.614426" style="stroke: #000000; stroke-width: 0.8"/>
      </g>
     </g>
     <g id="text_22">
      <!-- 0.6 -->
      <g transform="translate(549.55858 176.972707) scale(0.22 -0.22)">
       <use xlink:href="#DejaVuSans-30"/>
       <use xlink:href="#DejaVuSans-2e" x="63.623047"/>
       <use xlink:href="#DejaVuSans-36" x="95.410156"/>
      </g>
     </g>
    </g>
    <g id="text_23">
     <!-- Metric Value -->
     <g transform="translate(540.983267 354.727919) rotate(-90) scale(0.22 -0.22)">
      <defs>
       <path id="DejaVuSans-4d" d="M 628 4666 
L 1569 4666 
L 2759 1491 
L 3956 4666 
L 4897 4666 
L 4897 0 
L 4281 0 
L 4281 4097 
L 3078 897 
L 2444 897 
L 1241 4097 
L 1241 0 
L 628 0 
L 628 4666 
z
" transform="scale(0.015625)"/>
       <path id="DejaVuSans-65" d="M 3597 1894 
L 3597 1613 
L 953 1613 
Q 991 1019 1311 708 
Q 1631 397 2203 397 
Q 2534 397 2845 478 
Q 3156 559 3463 722 
L 3463 178 
Q 3153 47 2828 -22 
Q 2503 -91 2169 -91 
Q 1331 -91 842 396 
Q 353 884 353 1716 
Q 353 2575 817 3079 
Q 1281 3584 2069 3584 
Q 2775 3584 3186 3129 
Q 3597 2675 3597 1894 
z
M 3022 2063 
Q 3016 2534 2758 2815 
Q 2500 3097 2075 3097 
Q 1594 3097 1305 2825 
Q 1016 2553 972 2059 
L 3022 2063 
z
" transform="scale(0.015625)"/>
       <path id="DejaVuSans-74" d="M 1172 4494 
L 1172 3500 
L 2356 3500 
L 2356 3053 
L 1172 3053 
L 1172 1153 
Q 1172 725 1289 603 
Q 1406 481 1766 481 
L 2356 481 
L 2356 0 
L 1766 0 
Q 1100 0 847 248 
Q 594 497 594 1153 
L 594 3053 
L 172 3053 
L 172 3500 
L 594 3500 
L 594 4494 
L 1172 4494 
z
" transform="scale(0.015625)"/>
       <path id="DejaVuSans-72" d="M 2631 2963 
Q 2534 3019 2420 3045 
Q 2306 3072 2169 3072 
Q 1681 3072 1420 2755 
Q 1159 2438 1159 1844 
L 1159 0 
L 581 0 
L 581 3500 
L 1159 3500 
L 1159 2956 
Q 1341 3275 1631 3429 
Q 1922 3584 2338 3584 
Q 2397 3584 2469 3576 
Q 2541 3569 2628 3553 
L 2631 2963 
z
" transform="scale(0.015625)"/>
       <path id="DejaVuSans-69" d="M 603 3500 
L 1178 3500 
L 1178 0 
L 603 0 
L 603 3500 
z
M 603 4863 
L 1178 4863 
L 1178 4134 
L 603 4134 
L 603 4863 
z
" transform="scale(0.015625)"/>
       <path id="DejaVuSans-63" d="M 3122 3366 
L 3122 2828 
Q 2878 2963 2633 3030 
Q 2388 3097 2138 3097 
Q 1578 3097 1268 2742 
Q 959 2388 959 1747 
Q 959 1106 1268 751 
Q 1578 397 2138 397 
Q 2388 397 2633 464 
Q 2878 531 3122 666 
L 3122 134 
Q 2881 22 2623 -34 
Q 2366 -91 2075 -91 
Q 1284 -91 818 406 
Q 353 903 353 1747 
Q 353 2603 823 3093 
Q 1294 3584 2113 3584 
Q 2378 3584 2631 3529 
Q 2884 3475 3122 3366 
z
" transform="scale(0.015625)"/>
       <path id="DejaVuSans-20" transform="scale(0.015625)"/>
       <path id="DejaVuSans-56" d="M 1831 0 
L 50 4666 
L 709 4666 
L 2188 738 
L 3669 4666 
L 4325 4666 
L 2547 0 
L 1831 0 
z
" transform="scale(0.015625)"/>
       <path id="DejaVuSans-61" d="M 2194 1759 
Q 1497 1759 1228 1600 
Q 959 1441 959 1056 
Q 959 750 1161 570 
Q 1363 391 1709 391 
Q 2188 391 2477 730 
Q 2766 1069 2766 1631 
L 2766 1759 
L 2194 1759 
z
M 3341 1997 
L 3341 0 
L 2766 0 
L 2766 531 
Q 2569 213 2275 61 
Q 1981 -91 1556 -91 
Q 1019 -91 701 211 
Q 384 513 384 1019 
Q 384 1609 779 1909 
Q 1175 2209 1959 2209 
L 2766 2209 
L 2766 2266 
Q 2766 2663 2505 2880 
Q 2244 3097 1772 3097 
Q 1472 3097 1187 3025 
Q 903 2953 641 2809 
L 641 3341 
Q 956 3463 1253 3523 
Q 1550 3584 1831 3584 
Q 2591 3584 2966 3190 
Q 3341 2797 3341 1997 
z
" transform="scale(0.015625)"/>
       <path id="DejaVuSans-6c" d="M 603 4863 
L 1178 4863 
L 1178 0 
L 603 0 
L 603 4863 
z
" transform="scale(0.015625)"/>
       <path id="DejaVuSans-75" d="M 544 1381 
L 544 3500 
L 1119 3500 
L 1119 1403 
Q 1119 906 1312 657 
Q 1506 409 1894 409 
Q 2359 409 2629 706 
Q 2900 1003 2900 1516 
L 2900 3500 
L 3475 3500 
L 3475 0 
L 2900 0 
L 2900 538 
Q 2691 219 2414 64 
Q 2138 -91 1772 -91 
Q 1169 -91 856 284 
Q 544 659 544 1381 
z
M 1991 3584 
L 1991 3584 
z
" transform="scale(0.015625)"/>
      </defs>
      <use xlink:href="#DejaVuSans-4d"/>
      <use xlink:href="#DejaVuSans-65" x="86.279297"/>
      <use xlink:href="#DejaVuSans-74" x="147.802734"/>
      <use xlink:href="#DejaVuSans-72" x="187.011719"/>
      <use xlink:href="#DejaVuSans-69" x="228.125"/>
      <use xlink:href="#DejaVuSans-63" x="255.908203"/>
      <use xlink:href="#DejaVuSans-20" x="310.888672"/>
      <use xlink:href="#DejaVuSans-56" x="342.675781"/>
      <use xlink:href="#DejaVuSans-61" x="403.333984"/>
      <use xlink:href="#DejaVuSans-6c" x="464.613281"/>
      <use xlink:href="#DejaVuSans-75" x="492.396484"/>
      <use xlink:href="#DejaVuSans-65" x="555.775391"/>
     </g>
    </g>
   </g>
   <g id="patch_20">
    <path d="M 591.545455 418.130526 
L 591.545455 155.52 
" style="fill: none; stroke: #000000; stroke-width: 0.8; stroke-linejoin: miter; stroke-linecap: square"/>
   </g>
   <g id="patch_21">
    <path d="M 972 418.130526 
L 972 155.52 
" style="fill: none; stroke: #000000; stroke-width: 0.8; stroke-linejoin: miter; stroke-linecap: square"/>
   </g>
   <g id="patch_22">
    <path d="M 591.545455 418.130526 
L 972 418.130526 
" style="fill: none; stroke: #000000; stroke-width: 0.8; stroke-linejoin: miter; stroke-linecap: square"/>
   </g>
   <g id="patch_23">
    <path d="M 591.545455 155.52 
L 972 155.52 
" style="fill: none; stroke: #000000; stroke-width: 0.8; stroke-linejoin: miter; stroke-linecap: square"/>
   </g>
   <g id="text_24">
    <!-- b -->
    <g transform="translate(544.871761 137.404046) scale(0.28 -0.28)">
     <defs>
      <path id="DejaVuSans-Bold-62" d="M 2400 722 
Q 2759 722 2948 984 
Q 3138 1247 3138 1747 
Q 3138 2247 2948 2509 
Q 2759 2772 2400 2772 
Q 2041 2772 1848 2508 
Q 1656 2244 1656 1747 
Q 1656 1250 1848 986 
Q 2041 722 2400 722 
z
M 1656 2988 
Q 1888 3294 2169 3439 
Q 2450 3584 2816 3584 
Q 3463 3584 3878 3070 
Q 4294 2556 4294 1747 
Q 4294 938 3878 423 
Q 3463 -91 2816 -91 
Q 2450 -91 2169 54 
Q 1888 200 1656 506 
L 1656 0 
L 538 0 
L 538 4863 
L 1656 4863 
L 1656 2988 
z
" transform="scale(0.015625)"/>
     </defs>
     <use xlink:href="#DejaVuSans-Bold-62"/>
    </g>
   </g>
   <g id="text_25">
    <!-- Metrics -->
    <g transform="translate(734.584759 149.52) scale(0.26 -0.26)">
     <defs>
      <path id="DejaVuSans-73" d="M 2834 3397 
L 2834 2853 
Q 2591 2978 2328 3040 
Q 2066 3103 1784 3103 
Q 1356 3103 1142 2972 
Q 928 2841 928 2578 
Q 928 2378 1081 2264 
Q 1234 2150 1697 2047 
L 1894 2003 
Q 2506 1872 2764 1633 
Q 3022 1394 3022 966 
Q 3022 478 2636 193 
Q 2250 -91 1575 -91 
Q 1294 -91 989 -36 
Q 684 19 347 128 
L 347 722 
Q 666 556 975 473 
Q 1284 391 1588 391 
Q 1994 391 2212 530 
Q 2431 669 2431 922 
Q 2431 1156 2273 1281 
Q 2116 1406 1581 1522 
L 1381 1569 
Q 847 1681 609 1914 
Q 372 2147 372 2553 
Q 372 3047 722 3315 
Q 1072 3584 1716 3584 
Q 2034 3584 2315 3537 
Q 2597 3491 2834 3397 
z
" transform="scale(0.015625)"/>
     </defs>
     <use xlink:href="#DejaVuSans-4d"/>
     <use xlink:href="#DejaVuSans-65" x="86.279297"/>
     <use xlink:href="#DejaVuSans-74" x="147.802734"/>
     <use xlink:href="#DejaVuSans-72" x="187.011719"/>
     <use xlink:href="#DejaVuSans-69" x="228.125"/>
     <use xlink:href="#DejaVuSans-63" x="255.908203"/>
     <use xlink:href="#DejaVuSans-73" x="310.888672"/>
    </g>
   </g>
  </g>
  <g id="axes_3">
   <g id="patch_24">
    <path d="M 135 785.785263 
L 515.454545 785.785263 
L 515.454545 523.174737 
L 135 523.174737 
z
" style="fill: #ffffff"/>
   </g>
   <g id="matplotlib.axis_5">
    <g id="xtick_10">
     <g id="line2d_23">
      <g>
       <use xlink:href="#mba40f82ceb" x="137.882231" y="785.785263" style="stroke: #000000; stroke-width: 0.8"/>
      </g>
     </g>
     <g id="text_26">
      <!-- 0 -->
      <g transform="translate(130.883481 809.501826) scale(0.22 -0.22)">
       <use xlink:href="#DejaVuSans-30"/>
      </g>
     </g>
    </g>
    <g id="xtick_11">
     <g id="line2d_24">
      <g>
       <use xlink:href="#mba40f82ceb" x="281.993802" y="785.785263" style="stroke: #000000; stroke-width: 0.8"/>
      </g>
     </g>
     <g id="text_27">
      <!-- 20 -->
      <g transform="translate(267.996302 809.501826) scale(0.22 -0.22)">
       <use xlink:href="#DejaVuSans-32"/>
       <use xlink:href="#DejaVuSans-30" x="63.623047"/>
      </g>
     </g>
    </g>
    <g id="xtick_12">
     <g id="line2d_25">
      <g>
       <use xlink:href="#mba40f82ceb" x="426.105372" y="785.785263" style="stroke: #000000; stroke-width: 0.8"/>
      </g>
     </g>
     <g id="text_28">
      <!-- 40 -->
      <g transform="translate(412.107872 809.501826) scale(0.22 -0.22)">
       <use xlink:href="#DejaVuSans-34"/>
       <use xlink:href="#DejaVuSans-30" x="63.623047"/>
      </g>
     </g>
    </g>
    <g id="text_29">
     <!-- k -->
     <g transform="translate(318.278523 836.313388) scale(0.24 -0.24)">
      <use xlink:href="#DejaVuSans-6b"/>
     </g>
    </g>
   </g>
   <g id="matplotlib.axis_6">
    <g id="ytick_10">
     <g id="line2d_26">
      <g>
       <use xlink:href="#ma3e6d3e943" x="135" y="738.722053" style="stroke: #000000; stroke-width: 0.8"/>
      </g>
     </g>
     <g id="text_30">
      <!-- 0.7 -->
      <g transform="translate(93.013125 747.080335) scale(0.22 -0.22)">
       <defs>
        <path id="DejaVuSans-37" d="M 525 4666 
L 3525 4666 
L 3525 4397 
L 1831 0 
L 1172 0 
L 2766 4134 
L 525 4134 
L 525 4666 
z
" transform="scale(0.015625)"/>
       </defs>
       <use xlink:href="#DejaVuSans-30"/>
       <use xlink:href="#DejaVuSans-2e" x="63.623047"/>
       <use xlink:href="#DejaVuSans-37" x="95.410156"/>
      </g>
     </g>
    </g>
    <g id="ytick_11">
     <g id="line2d_27">
      <g>
       <use xlink:href="#ma3e6d3e943" x="135" y="652.930194" style="stroke: #000000; stroke-width: 0.8"/>
      </g>
     </g>
     <g id="text_31">
      <!-- 0.8 -->
      <g transform="translate(93.013125 661.288475) scale(0.22 -0.22)">
       <use xlink:href="#DejaVuSans-30"/>
       <use xlink:href="#DejaVuSans-2e" x="63.623047"/>
       <use xlink:href="#DejaVuSans-38" x="95.410156"/>
      </g>
     </g>
    </g>
    <g id="ytick_12">
     <g id="line2d_28">
      <g>
       <use xlink:href="#ma3e6d3e943" x="135" y="567.138334" style="stroke: #000000; stroke-width: 0.8"/>
      </g>
     </g>
     <g id="text_32">
      <!-- 0.9 -->
      <g transform="translate(93.013125 575.496616) scale(0.22 -0.22)">
       <defs>
        <path id="DejaVuSans-39" d="M 703 97 
L 703 672 
Q 941 559 1184 500 
Q 1428 441 1663 441 
Q 2288 441 2617 861 
Q 2947 1281 2994 2138 
Q 2813 1869 2534 1725 
Q 2256 1581 1919 1581 
Q 1219 1581 811 2004 
Q 403 2428 403 3163 
Q 403 3881 828 4315 
Q 1253 4750 1959 4750 
Q 2769 4750 3195 4129 
Q 3622 3509 3622 2328 
Q 3622 1225 3098 567 
Q 2575 -91 1691 -91 
Q 1453 -91 1209 -44 
Q 966 3 703 97 
z
M 1959 2075 
Q 2384 2075 2632 2365 
Q 2881 2656 2881 3163 
Q 2881 3666 2632 3958 
Q 2384 4250 1959 4250 
Q 1534 4250 1286 3958 
Q 1038 3666 1038 3163 
Q 1038 2656 1286 2365 
Q 1534 2075 1959 2075 
z
" transform="scale(0.015625)"/>
       </defs>
       <use xlink:href="#DejaVuSans-30"/>
       <use xlink:href="#DejaVuSans-2e" x="63.623047"/>
       <use xlink:href="#DejaVuSans-39" x="95.410156"/>
      </g>
     </g>
    </g>
    <g id="text_33">
     <!-- Metric Value -->
     <g transform="translate(84.021875 728.555625) rotate(-90) scale(0.24 -0.24)">
      <use xlink:href="#DejaVuSans-4d"/>
      <use xlink:href="#DejaVuSans-65" x="86.279297"/>
      <use xlink:href="#DejaVuSans-74" x="147.802734"/>
      <use xlink:href="#DejaVuSans-72" x="187.011719"/>
      <use xlink:href="#DejaVuSans-69" x="228.125"/>
      <use xlink:href="#DejaVuSans-63" x="255.908203"/>
      <use xlink:href="#DejaVuSans-20" x="310.888672"/>
      <use xlink:href="#DejaVuSans-56" x="342.675781"/>
      <use xlink:href="#DejaVuSans-61" x="403.333984"/>
      <use xlink:href="#DejaVuSans-6c" x="464.613281"/>
      <use xlink:href="#DejaVuSans-75" x="492.396484"/>
      <use xlink:href="#DejaVuSans-65" x="555.775391"/>
     </g>
    </g>
   </g>
   <g id="line2d_29">
    <path d="M 152.293388 765.779794 
L 173.910124 766.487124 
L 209.938017 768.676584 
L 281.993802 769.954915 
L 498.161157 773.848421 
" clip-path="url(#pcd55c2f8be)" style="fill: none; stroke: #1f77b4; stroke-width: 1.5; stroke-linecap: square"/>
    <g clip-path="url(#pcd55c2f8be)">
     <use xlink:href="#me7ef0857c0" x="152.293388" y="765.779794" style="fill: #1f77b4; stroke: #1f77b4"/>
     <use xlink:href="#me7ef0857c0" x="173.910124" y="766.487124" style="fill: #1f77b4; stroke: #1f77b4"/>
     <use xlink:href="#me7ef0857c0" x="209.938017" y="768.676584" style="fill: #1f77b4; stroke: #1f77b4"/>
     <use xlink:href="#me7ef0857c0" x="281.993802" y="769.954915" style="fill: #1f77b4; stroke: #1f77b4"/>
     <use xlink:href="#me7ef0857c0" x="498.161157" y="773.848421" style="fill: #1f77b4; stroke: #1f77b4"/>
    </g>
   </g>
   <g id="line2d_30">
    <path d="M 152.293388 535.111579 
L 173.910124 554.590352 
L 209.938017 574.590481 
L 281.993802 611.513277 
L 498.161157 688.241429 
" clip-path="url(#pcd55c2f8be)" style="fill: none; stroke: #ff7f0e; stroke-width: 1.5; stroke-linecap: square"/>
    <g clip-path="url(#pcd55c2f8be)">
     <use xlink:href="#m641b30aac4" x="152.293388" y="535.111579" style="fill: #ff7f0e; stroke: #ff7f0e"/>
     <use xlink:href="#m641b30aac4" x="173.910124" y="554.590352" style="fill: #ff7f0e; stroke: #ff7f0e"/>
     <use xlink:href="#m641b30aac4" x="209.938017" y="574.590481" style="fill: #ff7f0e; stroke: #ff7f0e"/>
     <use xlink:href="#m641b30aac4" x="281.993802" y="611.513277" style="fill: #ff7f0e; stroke: #ff7f0e"/>
     <use xlink:href="#m641b30aac4" x="498.161157" y="688.241429" style="fill: #ff7f0e; stroke: #ff7f0e"/>
    </g>
   </g>
   <g id="line2d_31">
    <path d="M 152.293388 568.303814 
L 173.910124 579.034389 
L 209.938017 591.242542 
L 281.993802 624.33271 
L 498.161157 691.682551 
" clip-path="url(#pcd55c2f8be)" style="fill: none; stroke: #2ca02c; stroke-width: 1.5; stroke-linecap: square"/>
    <g clip-path="url(#pcd55c2f8be)">
     <use xlink:href="#m2546e6b1b5" x="152.293388" y="568.303814" style="fill: #2ca02c; stroke: #2ca02c"/>
     <use xlink:href="#m2546e6b1b5" x="173.910124" y="579.034389" style="fill: #2ca02c; stroke: #2ca02c"/>
     <use xlink:href="#m2546e6b1b5" x="209.938017" y="591.242542" style="fill: #2ca02c; stroke: #2ca02c"/>
     <use xlink:href="#m2546e6b1b5" x="281.993802" y="624.33271" style="fill: #2ca02c; stroke: #2ca02c"/>
     <use xlink:href="#m2546e6b1b5" x="498.161157" y="691.682551" style="fill: #2ca02c; stroke: #2ca02c"/>
    </g>
   </g>
   <g id="line2d_32">
    <path d="M 152.293388 544.899293 
L 173.910124 555.084151 
L 209.938017 567.507738 
L 281.993802 590.676989 
L 498.161157 650.236168 
" clip-path="url(#pcd55c2f8be)" style="fill: none; stroke: #d62728; stroke-width: 1.5; stroke-linecap: square"/>
    <g clip-path="url(#pcd55c2f8be)">
     <use xlink:href="#m9d68e3564d" x="152.293388" y="544.899293" style="fill: #d62728; stroke: #d62728"/>
     <use xlink:href="#m9d68e3564d" x="173.910124" y="555.084151" style="fill: #d62728; stroke: #d62728"/>
     <use xlink:href="#m9d68e3564d" x="209.938017" y="567.507738" style="fill: #d62728; stroke: #d62728"/>
     <use xlink:href="#m9d68e3564d" x="281.993802" y="590.676989" style="fill: #d62728; stroke: #d62728"/>
     <use xlink:href="#m9d68e3564d" x="498.161157" y="650.236168" style="fill: #d62728; stroke: #d62728"/>
    </g>
   </g>
   <g id="patch_25">
    <path d="M 135 785.785263 
L 135 523.174737 
" style="fill: none; stroke: #000000; stroke-width: 0.8; stroke-linejoin: miter; stroke-linecap: square"/>
   </g>
   <g id="patch_26">
    <path d="M 515.454545 785.785263 
L 515.454545 523.174737 
" style="fill: none; stroke: #000000; stroke-width: 0.8; stroke-linejoin: miter; stroke-linecap: square"/>
   </g>
   <g id="patch_27">
    <path d="M 135 785.785263 
L 515.454545 785.785263 
" style="fill: none; stroke: #000000; stroke-width: 0.8; stroke-linejoin: miter; stroke-linecap: square"/>
   </g>
   <g id="patch_28">
    <path d="M 135 523.174737 
L 515.454545 523.174737 
" style="fill: none; stroke: #000000; stroke-width: 0.8; stroke-linejoin: miter; stroke-linecap: square"/>
   </g>
   <g id="text_34">
    <!-- c -->
    <g transform="translate(91.769432 505.058783) scale(0.28 -0.28)">
     <defs>
      <path id="DejaVuSans-Bold-63" d="M 3366 3391 
L 3366 2478 
Q 3138 2634 2908 2709 
Q 2678 2784 2431 2784 
Q 1963 2784 1702 2511 
Q 1441 2238 1441 1747 
Q 1441 1256 1702 982 
Q 1963 709 2431 709 
Q 2694 709 2930 787 
Q 3166 866 3366 1019 
L 3366 103 
Q 3103 6 2833 -42 
Q 2563 -91 2291 -91 
Q 1344 -91 809 395 
Q 275 881 275 1747 
Q 275 2613 809 3098 
Q 1344 3584 2291 3584 
Q 2566 3584 2833 3536 
Q 3100 3488 3366 3391 
z
" transform="scale(0.015625)"/>
     </defs>
     <use xlink:href="#DejaVuSans-Bold-63"/>
    </g>
   </g>
   <g id="text_35">
    <!-- Trustworthiness -->
    <g transform="translate(230.950398 517.174737) scale(0.24 -0.24)">
     <defs>
      <path id="DejaVuSans-54" d="M -19 4666 
L 3928 4666 
L 3928 4134 
L 2272 4134 
L 2272 0 
L 1638 0 
L 1638 4134 
L -19 4134 
L -19 4666 
z
" transform="scale(0.015625)"/>
      <path id="DejaVuSans-77" d="M 269 3500 
L 844 3500 
L 1563 769 
L 2278 3500 
L 2956 3500 
L 3675 769 
L 4391 3500 
L 4966 3500 
L 4050 0 
L 3372 0 
L 2619 2869 
L 1863 0 
L 1184 0 
L 269 3500 
z
" transform="scale(0.015625)"/>
      <path id="DejaVuSans-6f" d="M 1959 3097 
Q 1497 3097 1228 2736 
Q 959 2375 959 1747 
Q 959 1119 1226 758 
Q 1494 397 1959 397 
Q 2419 397 2687 759 
Q 2956 1122 2956 1747 
Q 2956 2369 2687 2733 
Q 2419 3097 1959 3097 
z
M 1959 3584 
Q 2709 3584 3137 3096 
Q 3566 2609 3566 1747 
Q 3566 888 3137 398 
Q 2709 -91 1959 -91 
Q 1206 -91 779 398 
Q 353 888 353 1747 
Q 353 2609 779 3096 
Q 1206 3584 1959 3584 
z
" transform="scale(0.015625)"/>
      <path id="DejaVuSans-68" d="M 3513 2113 
L 3513 0 
L 2938 0 
L 2938 2094 
Q 2938 2591 2744 2837 
Q 2550 3084 2163 3084 
Q 1697 3084 1428 2787 
Q 1159 2491 1159 1978 
L 1159 0 
L 581 0 
L 581 4863 
L 1159 4863 
L 1159 2956 
Q 1366 3272 1645 3428 
Q 1925 3584 2291 3584 
Q 2894 3584 3203 3211 
Q 3513 2838 3513 2113 
z
" transform="scale(0.015625)"/>
      <path id="DejaVuSans-6e" d="M 3513 2113 
L 3513 0 
L 2938 0 
L 2938 2094 
Q 2938 2591 2744 2837 
Q 2550 3084 2163 3084 
Q 1697 3084 1428 2787 
Q 1159 2491 1159 1978 
L 1159 0 
L 581 0 
L 581 3500 
L 1159 3500 
L 1159 2956 
Q 1366 3272 1645 3428 
Q 1925 3584 2291 3584 
Q 2894 3584 3203 3211 
Q 3513 2838 3513 2113 
z
" transform="scale(0.015625)"/>
     </defs>
     <use xlink:href="#DejaVuSans-54"/>
     <use xlink:href="#DejaVuSans-72" x="46.333984"/>
     <use xlink:href="#DejaVuSans-75" x="87.447266"/>
     <use xlink:href="#DejaVuSans-73" x="150.826172"/>
     <use xlink:href="#DejaVuSans-74" x="202.925781"/>
     <use xlink:href="#DejaVuSans-77" x="242.134766"/>
     <use xlink:href="#DejaVuSans-6f" x="323.921875"/>
     <use xlink:href="#DejaVuSans-72" x="385.103516"/>
     <use xlink:href="#DejaVuSans-74" x="426.216797"/>
     <use xlink:href="#DejaVuSans-68" x="465.425781"/>
     <use xlink:href="#DejaVuSans-69" x="528.804688"/>
     <use xlink:href="#DejaVuSans-6e" x="556.587891"/>
     <use xlink:href="#DejaVuSans-65" x="619.966797"/>
     <use xlink:href="#DejaVuSans-73" x="681.490234"/>
     <use xlink:href="#DejaVuSans-73" x="733.589844"/>
    </g>
   </g>
  </g>
  <g id="axes_4">
   <g id="patch_29">
    <path d="M 591.545455 785.785263 
L 972 785.785263 
L 972 523.174737 
L 591.545455 523.174737 
z
" style="fill: #ffffff"/>
   </g>
   <g id="matplotlib.axis_7">
    <g id="xtick_13">
     <g id="line2d_33">
      <g>
       <use xlink:href="#mba40f82ceb" x="594.427686" y="785.785263" style="stroke: #000000; stroke-width: 0.8"/>
      </g>
     </g>
     <g id="text_36">
      <!-- 0 -->
      <g transform="translate(587.428936 809.501826) scale(0.22 -0.22)">
       <use xlink:href="#DejaVuSans-30"/>
      </g>
     </g>
    </g>
    <g id="xtick_14">
     <g id="line2d_34">
      <g>
       <use xlink:href="#mba40f82ceb" x="738.539256" y="785.785263" style="stroke: #000000; stroke-width: 0.8"/>
      </g>
     </g>
     <g id="text_37">
      <!-- 20 -->
      <g transform="translate(724.541756 809.501826) scale(0.22 -0.22)">
       <use xlink:href="#DejaVuSans-32"/>
       <use xlink:href="#DejaVuSans-30" x="63.623047"/>
      </g>
     </g>
    </g>
    <g id="xtick_15">
     <g id="line2d_35">
      <g>
       <use xlink:href="#mba40f82ceb" x="882.650826" y="785.785263" style="stroke: #000000; stroke-width: 0.8"/>
      </g>
     </g>
     <g id="text_38">
      <!-- 40 -->
      <g transform="translate(868.653326 809.501826) scale(0.22 -0.22)">
       <use xlink:href="#DejaVuSans-34"/>
       <use xlink:href="#DejaVuSans-30" x="63.623047"/>
      </g>
     </g>
    </g>
    <g id="text_39">
     <!-- k -->
     <g transform="translate(774.823977 836.313388) scale(0.24 -0.24)">
      <use xlink:href="#DejaVuSans-6b"/>
     </g>
    </g>
   </g>
   <g id="matplotlib.axis_8">
    <g id="ytick_13">
     <g id="line2d_36">
      <g>
       <use xlink:href="#ma3e6d3e943" x="591.545455" y="783.950952" style="stroke: #000000; stroke-width: 0.8"/>
      </g>
     </g>
     <g id="text_40">
      <!-- 0.75 -->
      <g transform="translate(535.56108 792.309234) scale(0.22 -0.22)">
       <use xlink:href="#DejaVuSans-30"/>
       <use xlink:href="#DejaVuSans-2e" x="63.623047"/>
       <use xlink:href="#DejaVuSans-37" x="95.410156"/>
       <use xlink:href="#DejaVuSans-35" x="159.033203"/>
      </g>
     </g>
    </g>
    <g id="ytick_14">
     <g id="line2d_37">
      <g>
       <use xlink:href="#ma3e6d3e943" x="591.545455" y="720.332573" style="stroke: #000000; stroke-width: 0.8"/>
      </g>
     </g>
     <g id="text_41">
      <!-- 0.80 -->
      <g transform="translate(535.56108 728.690854) scale(0.22 -0.22)">
       <use xlink:href="#DejaVuSans-30"/>
       <use xlink:href="#DejaVuSans-2e" x="63.623047"/>
       <use xlink:href="#DejaVuSans-38" x="95.410156"/>
       <use xlink:href="#DejaVuSans-30" x="159.033203"/>
      </g>
     </g>
    </g>
    <g id="ytick_15">
     <g id="line2d_38">
      <g>
       <use xlink:href="#ma3e6d3e943" x="591.545455" y="656.714193" style="stroke: #000000; stroke-width: 0.8"/>
      </g>
     </g>
     <g id="text_42">
      <!-- 0.85 -->
      <g transform="translate(535.56108 665.072474) scale(0.22 -0.22)">
       <use xlink:href="#DejaVuSans-30"/>
       <use xlink:href="#DejaVuSans-2e" x="63.623047"/>
       <use xlink:href="#DejaVuSans-38" x="95.410156"/>
       <use xlink:href="#DejaVuSans-35" x="159.033203"/>
      </g>
     </g>
    </g>
    <g id="ytick_16">
     <g id="line2d_39">
      <g>
       <use xlink:href="#ma3e6d3e943" x="591.545455" y="593.095813" style="stroke: #000000; stroke-width: 0.8"/>
      </g>
     </g>
     <g id="text_43">
      <!-- 0.90 -->
      <g transform="translate(535.56108 601.454095) scale(0.22 -0.22)">
       <use xlink:href="#DejaVuSans-30"/>
       <use xlink:href="#DejaVuSans-2e" x="63.623047"/>
       <use xlink:href="#DejaVuSans-39" x="95.410156"/>
       <use xlink:href="#DejaVuSans-30" x="159.033203"/>
      </g>
     </g>
    </g>
    <g id="ytick_17">
     <g id="line2d_40">
      <g>
       <use xlink:href="#ma3e6d3e943" x="591.545455" y="529.477434" style="stroke: #000000; stroke-width: 0.8"/>
      </g>
     </g>
     <g id="text_44">
      <!-- 0.95 -->
      <g transform="translate(535.56108 537.835715) scale(0.22 -0.22)">
       <use xlink:href="#DejaVuSans-30"/>
       <use xlink:href="#DejaVuSans-2e" x="63.623047"/>
       <use xlink:href="#DejaVuSans-39" x="95.410156"/>
       <use xlink:href="#DejaVuSans-35" x="159.033203"/>
      </g>
     </g>
    </g>
   </g>
   <g id="line2d_41">
    <path d="M 608.838843 578.438682 
L 630.455579 610.010144 
L 666.483471 644.241393 
L 738.539256 686.86676 
L 954.706612 753.092025 
" clip-path="url(#p122450a7ca)" style="fill: none; stroke: #1f77b4; stroke-width: 1.5; stroke-linecap: square"/>
    <g clip-path="url(#p122450a7ca)">
     <use xlink:href="#me7ef0857c0" x="608.838843" y="578.438682" style="fill: #1f77b4; stroke: #1f77b4"/>
     <use xlink:href="#me7ef0857c0" x="630.455579" y="610.010144" style="fill: #1f77b4; stroke: #1f77b4"/>
     <use xlink:href="#me7ef0857c0" x="666.483471" y="644.241393" style="fill: #1f77b4; stroke: #1f77b4"/>
     <use xlink:href="#me7ef0857c0" x="738.539256" y="686.86676" style="fill: #1f77b4; stroke: #1f77b4"/>
     <use xlink:href="#me7ef0857c0" x="954.706612" y="753.092025" style="fill: #1f77b4; stroke: #1f77b4"/>
    </g>
   </g>
   <g id="line2d_42">
    <path d="M 608.838843 535.111579 
L 630.455579 562.682696 
L 666.483471 598.479814 
L 738.539256 652.646125 
L 954.706612 752.988896 
" clip-path="url(#p122450a7ca)" style="fill: none; stroke: #ff7f0e; stroke-width: 1.5; stroke-linecap: square"/>
    <g clip-path="url(#p122450a7ca)">
     <use xlink:href="#m641b30aac4" x="608.838843" y="535.111579" style="fill: #ff7f0e; stroke: #ff7f0e"/>
     <use xlink:href="#m641b30aac4" x="630.455579" y="562.682696" style="fill: #ff7f0e; stroke: #ff7f0e"/>
     <use xlink:href="#m641b30aac4" x="666.483471" y="598.479814" style="fill: #ff7f0e; stroke: #ff7f0e"/>
     <use xlink:href="#m641b30aac4" x="738.539256" y="652.646125" style="fill: #ff7f0e; stroke: #ff7f0e"/>
     <use xlink:href="#m641b30aac4" x="954.706612" y="752.988896" style="fill: #ff7f0e; stroke: #ff7f0e"/>
    </g>
   </g>
   <g id="line2d_43">
    <path d="M 608.838843 538.748071 
L 630.455579 567.150655 
L 666.483471 606.076931 
L 738.539256 666.387999 
L 954.706612 770.945116 
" clip-path="url(#p122450a7ca)" style="fill: none; stroke: #2ca02c; stroke-width: 1.5; stroke-linecap: square"/>
    <g clip-path="url(#p122450a7ca)">
     <use xlink:href="#m2546e6b1b5" x="608.838843" y="538.748071" style="fill: #2ca02c; stroke: #2ca02c"/>
     <use xlink:href="#m2546e6b1b5" x="630.455579" y="567.150655" style="fill: #2ca02c; stroke: #2ca02c"/>
     <use xlink:href="#m2546e6b1b5" x="666.483471" y="606.076931" style="fill: #2ca02c; stroke: #2ca02c"/>
     <use xlink:href="#m2546e6b1b5" x="738.539256" y="666.387999" style="fill: #2ca02c; stroke: #2ca02c"/>
     <use xlink:href="#m2546e6b1b5" x="954.706612" y="770.945116" style="fill: #2ca02c; stroke: #2ca02c"/>
    </g>
   </g>
   <g id="line2d_44">
    <path d="M 608.838843 557.483737 
L 630.455579 583.894823 
L 666.483471 618.359539 
L 738.539256 671.857405 
L 954.706612 773.848421 
" clip-path="url(#p122450a7ca)" style="fill: none; stroke: #d62728; stroke-width: 1.5; stroke-linecap: square"/>
    <g clip-path="url(#p122450a7ca)">
     <use xlink:href="#m9d68e3564d" x="608.838843" y="557.483737" style="fill: #d62728; stroke: #d62728"/>
     <use xlink:href="#m9d68e3564d" x="630.455579" y="583.894823" style="fill: #d62728; stroke: #d62728"/>
     <use xlink:href="#m9d68e3564d" x="666.483471" y="618.359539" style="fill: #d62728; stroke: #d62728"/>
     <use xlink:href="#m9d68e3564d" x="738.539256" y="671.857405" style="fill: #d62728; stroke: #d62728"/>
     <use xlink:href="#m9d68e3564d" x="954.706612" y="773.848421" style="fill: #d62728; stroke: #d62728"/>
    </g>
   </g>
   <g id="patch_30">
    <path d="M 591.545455 785.785263 
L 591.545455 523.174737 
" style="fill: none; stroke: #000000; stroke-width: 0.8; stroke-linejoin: miter; stroke-linecap: square"/>
   </g>
   <g id="patch_31">
    <path d="M 972 785.785263 
L 972 523.174737 
" style="fill: none; stroke: #000000; stroke-width: 0.8; stroke-linejoin: miter; stroke-linecap: square"/>
   </g>
   <g id="patch_32">
    <path d="M 591.545455 785.785263 
L 972 785.785263 
" style="fill: none; stroke: #000000; stroke-width: 0.8; stroke-linejoin: miter; stroke-linecap: square"/>
   </g>
   <g id="patch_33">
    <path d="M 591.545455 523.174737 
L 972 523.174737 
" style="fill: none; stroke: #000000; stroke-width: 0.8; stroke-linejoin: miter; stroke-linecap: square"/>
   </g>
   <g id="text_45">
    <!-- d -->
    <g transform="translate(544.871761 505.058783) scale(0.28 -0.28)">
     <defs>
      <path id="DejaVuSans-Bold-64" d="M 2919 2988 
L 2919 4863 
L 4044 4863 
L 4044 0 
L 2919 0 
L 2919 506 
Q 2688 197 2409 53 
Q 2131 -91 1766 -91 
Q 1119 -91 703 423 
Q 288 938 288 1747 
Q 288 2556 703 3070 
Q 1119 3584 1766 3584 
Q 2128 3584 2408 3439 
Q 2688 3294 2919 2988 
z
M 2181 722 
Q 2541 722 2730 984 
Q 2919 1247 2919 1747 
Q 2919 2247 2730 2509 
Q 2541 2772 2181 2772 
Q 1825 2772 1636 2509 
Q 1447 2247 1447 1747 
Q 1447 1247 1636 984 
Q 1825 722 2181 722 
z
" transform="scale(0.015625)"/>
     </defs>
     <use xlink:href="#DejaVuSans-Bold-64"/>
    </g>
   </g>
   <g id="text_46">
    <!-- Continuity -->
    <g transform="translate(720.057102 517.174737) scale(0.24 -0.24)">
     <defs>
      <path id="DejaVuSans-79" d="M 2059 -325 
Q 1816 -950 1584 -1140 
Q 1353 -1331 966 -1331 
L 506 -1331 
L 506 -850 
L 844 -850 
Q 1081 -850 1212 -737 
Q 1344 -625 1503 -206 
L 1606 56 
L 191 3500 
L 800 3500 
L 1894 763 
L 2988 3500 
L 3597 3500 
L 2059 -325 
z
" transform="scale(0.015625)"/>
     </defs>
     <use xlink:href="#DejaVuSans-43"/>
     <use xlink:href="#DejaVuSans-6f" x="69.824219"/>
     <use xlink:href="#DejaVuSans-6e" x="131.005859"/>
     <use xlink:href="#DejaVuSans-74" x="194.384766"/>
     <use xlink:href="#DejaVuSans-69" x="233.59375"/>
     <use xlink:href="#DejaVuSans-6e" x="261.376953"/>
     <use xlink:href="#DejaVuSans-75" x="324.755859"/>
     <use xlink:href="#DejaVuSans-69" x="388.134766"/>
     <use xlink:href="#DejaVuSans-74" x="415.917969"/>
     <use xlink:href="#DejaVuSans-79" x="455.126953"/>
    </g>
   </g>
  </g>
  <g id="axes_5">
   <g id="patch_34">
    <path d="M 135 1153.44 
L 515.454545 1153.44 
L 515.454545 890.829474 
L 135 890.829474 
z
" style="fill: #ffffff"/>
   </g>
   <g id="matplotlib.axis_9">
    <g id="xtick_16">
     <g id="line2d_45">
      <g>
       <use xlink:href="#mba40f82ceb" x="152.132669" y="1153.44" style="stroke: #000000; stroke-width: 0.8"/>
      </g>
     </g>
     <g id="text_47">
      <!-- 0 -->
      <g transform="translate(145.133919 1177.156562) scale(0.22 -0.22)">
       <use xlink:href="#DejaVuSans-30"/>
      </g>
     </g>
    </g>
    <g id="xtick_17">
     <g id="line2d_46">
      <g>
       <use xlink:href="#mba40f82ceb" x="232.492281" y="1153.44" style="stroke: #000000; stroke-width: 0.8"/>
      </g>
     </g>
     <g id="text_48">
      <!-- 500 -->
      <g transform="translate(211.496031 1177.156562) scale(0.22 -0.22)">
       <use xlink:href="#DejaVuSans-35"/>
       <use xlink:href="#DejaVuSans-30" x="63.623047"/>
       <use xlink:href="#DejaVuSans-30" x="127.246094"/>
      </g>
     </g>
    </g>
    <g id="xtick_18">
     <g id="line2d_47">
      <g>
       <use xlink:href="#mba40f82ceb" x="312.851893" y="1153.44" style="stroke: #000000; stroke-width: 0.8"/>
      </g>
     </g>
     <g id="text_49">
      <!-- 1000 -->
      <g transform="translate(284.856893 1177.156562) scale(0.22 -0.22)">
       <use xlink:href="#DejaVuSans-31"/>
       <use xlink:href="#DejaVuSans-30" x="63.623047"/>
       <use xlink:href="#DejaVuSans-30" x="127.246094"/>
       <use xlink:href="#DejaVuSans-30" x="190.869141"/>
      </g>
     </g>
    </g>
    <g id="xtick_19">
     <g id="line2d_48">
      <g>
       <use xlink:href="#mba40f82ceb" x="393.211504" y="1153.44" style="stroke: #000000; stroke-width: 0.8"/>
      </g>
     </g>
     <g id="text_50">
      <!-- 1500 -->
      <g transform="translate(365.216504 1177.156562) scale(0.22 -0.22)">
       <use xlink:href="#DejaVuSans-31"/>
       <use xlink:href="#DejaVuSans-35" x="63.623047"/>
       <use xlink:href="#DejaVuSans-30" x="127.246094"/>
       <use xlink:href="#DejaVuSans-30" x="190.869141"/>
      </g>
     </g>
    </g>
    <g id="xtick_20">
     <g id="line2d_49">
      <g>
       <use xlink:href="#mba40f82ceb" x="473.571116" y="1153.44" style="stroke: #000000; stroke-width: 0.8"/>
      </g>
     </g>
     <g id="text_51">
      <!-- 2000 -->
      <g transform="translate(445.576116 1177.156562) scale(0.22 -0.22)">
       <use xlink:href="#DejaVuSans-32"/>
       <use xlink:href="#DejaVuSans-30" x="63.623047"/>
       <use xlink:href="#DejaVuSans-30" x="127.246094"/>
       <use xlink:href="#DejaVuSans-30" x="190.869141"/>
      </g>
     </g>
    </g>
    <g id="text_52">
     <!-- k -->
     <g transform="translate(318.278523 1203.968125) scale(0.24 -0.24)">
      <use xlink:href="#DejaVuSans-6b"/>
     </g>
    </g>
   </g>
   <g id="matplotlib.axis_10">
    <g id="ytick_18">
     <g id="line2d_50">
      <g>
       <use xlink:href="#ma3e6d3e943" x="135" y="1148.931542" style="stroke: #000000; stroke-width: 0.8"/>
      </g>
     </g>
     <g id="text_53">
      <!-- 0.00 -->
      <g transform="translate(79.015625 1157.289823) scale(0.22 -0.22)">
       <use xlink:href="#DejaVuSans-30"/>
       <use xlink:href="#DejaVuSans-2e" x="63.623047"/>
       <use xlink:href="#DejaVuSans-30" x="95.410156"/>
       <use xlink:href="#DejaVuSans-30" x="159.033203"/>
      </g>
     </g>
    </g>
    <g id="ytick_19">
     <g id="line2d_51">
      <g>
       <use xlink:href="#ma3e6d3e943" x="135" y="1087.390236" style="stroke: #000000; stroke-width: 0.8"/>
      </g>
     </g>
     <g id="text_54">
      <!-- 0.25 -->
      <g transform="translate(79.015625 1095.748517) scale(0.22 -0.22)">
       <use xlink:href="#DejaVuSans-30"/>
       <use xlink:href="#DejaVuSans-2e" x="63.623047"/>
       <use xlink:href="#DejaVuSans-32" x="95.410156"/>
       <use xlink:href="#DejaVuSans-35" x="159.033203"/>
      </g>
     </g>
    </g>
    <g id="ytick_20">
     <g id="line2d_52">
      <g>
       <use xlink:href="#ma3e6d3e943" x="135" y="1025.848929" style="stroke: #000000; stroke-width: 0.8"/>
      </g>
     </g>
     <g id="text_55">
      <!-- 0.50 -->
      <g transform="translate(79.015625 1034.20721) scale(0.22 -0.22)">
       <use xlink:href="#DejaVuSans-30"/>
       <use xlink:href="#DejaVuSans-2e" x="63.623047"/>
       <use xlink:href="#DejaVuSans-35" x="95.410156"/>
       <use xlink:href="#DejaVuSans-30" x="159.033203"/>
      </g>
     </g>
    </g>
    <g id="ytick_21">
     <g id="line2d_53">
      <g>
       <use xlink:href="#ma3e6d3e943" x="135" y="964.307622" style="stroke: #000000; stroke-width: 0.8"/>
      </g>
     </g>
     <g id="text_56">
      <!-- 0.75 -->
      <g transform="translate(79.015625 972.665904) scale(0.22 -0.22)">
       <use xlink:href="#DejaVuSans-30"/>
       <use xlink:href="#DejaVuSans-2e" x="63.623047"/>
       <use xlink:href="#DejaVuSans-37" x="95.410156"/>
       <use xlink:href="#DejaVuSans-35" x="159.033203"/>
      </g>
     </g>
    </g>
    <g id="ytick_22">
     <g id="line2d_54">
      <g>
       <use xlink:href="#ma3e6d3e943" x="135" y="902.766316" style="stroke: #000000; stroke-width: 0.8"/>
      </g>
     </g>
     <g id="text_57">
      <!-- 1.00 -->
      <g transform="translate(79.015625 911.124597) scale(0.22 -0.22)">
       <use xlink:href="#DejaVuSans-31"/>
       <use xlink:href="#DejaVuSans-2e" x="63.623047"/>
       <use xlink:href="#DejaVuSans-30" x="95.410156"/>
       <use xlink:href="#DejaVuSans-30" x="159.033203"/>
      </g>
     </g>
    </g>
    <g id="text_58">
     <!-- Metric Value -->
     <g transform="translate(70.024375 1096.210362) rotate(-90) scale(0.24 -0.24)">
      <use xlink:href="#DejaVuSans-4d"/>
      <use xlink:href="#DejaVuSans-65" x="86.279297"/>
      <use xlink:href="#DejaVuSans-74" x="147.802734"/>
      <use xlink:href="#DejaVuSans-72" x="187.011719"/>
      <use xlink:href="#DejaVuSans-69" x="228.125"/>
      <use xlink:href="#DejaVuSans-63" x="255.908203"/>
      <use xlink:href="#DejaVuSans-20" x="310.888672"/>
      <use xlink:href="#DejaVuSans-56" x="342.675781"/>
      <use xlink:href="#DejaVuSans-61" x="403.333984"/>
      <use xlink:href="#DejaVuSans-6c" x="464.613281"/>
      <use xlink:href="#DejaVuSans-75" x="492.396484"/>
      <use xlink:href="#DejaVuSans-65" x="555.775391"/>
     </g>
    </g>
   </g>
   <g id="line2d_55">
    <path d="M 152.293388 1141.503158 
L 152.614827 1134.455716 
L 152.936265 1128.680624 
L 154.222019 1118.602636 
L 155.347054 1114.246702 
L 156.954246 1111.046782 
L 158.24 1108.559627 
L 160.007911 1106.105799 
L 161.454384 1104.12873 
L 162.740138 1103.19763 
L 163.061576 1102.961272 
L 164.025892 1102.047781 
L 164.990207 1101.2856 
L 165.633084 1100.791258 
L 167.561715 1099.091131 
L 168.204592 1098.479099 
L 168.686749 1098.030189 
L 171.258257 1095.461581 
L 171.901134 1094.72803 
L 172.70473 1093.897214 
L 178.81206 1088.699669 
L 184.115795 1084.582266 
L 184.758672 1084.160197 
L 186.526583 1083.071519 
L 187.490898 1082.579967 
L 188.937371 1081.819072 
L 196.330456 1077.94985 
L 197.294771 1077.477115 
L 209.99159 1071.223341 
L 212.884536 1069.751073 
L 216.741797 1067.855831 
L 223.652724 1064.339388 
L 227.831423 1062.210039 
L 230.402931 1060.932351 
L 236.510261 1057.919958 
L 238.760331 1056.765298 
L 241.813996 1055.179885 
L 246.635573 1052.810932 
L 250.332115 1050.929803 
L 263.67181 1044.372793 
L 268.171948 1042.136449 
L 273.95784 1039.316362 
L 277.332944 1037.610819 
L 290.190482 1031.343153 
L 297.905005 1027.680226 
L 334.548988 1009.019649 
L 349.817314 1000.815785 
L 352.870979 999.16192 
L 363.478448 993.203929 
L 386.300578 979.618346 
L 394.336539 974.584698 
L 414.587161 961.504334 
L 432.587714 949.354483 
L 440.945114 943.734582 
L 456.052721 933.150864 
L 469.231697 923.325641 
L 480.642762 915.045179 
L 492.857423 906.54897 
L 498.161157 902.766316 
L 498.161157 902.766316 
" clip-path="url(#p4a9be733e8)" style="fill: none; stroke: #1f77b4; stroke-width: 1.5; stroke-linecap: square"/>
   </g>
   <g id="line2d_56">
    <path d="M 152.293388 1076.933356 
L 152.614827 1048.21027 
L 152.936265 1038.054336 
L 153.579142 1032.007504 
L 153.900581 1030.908542 
L 154.222019 1030.631226 
L 154.382738 1030.99982 
L 154.864896 1033.734445 
L 155.347054 1036.837224 
L 156.311369 1042.362799 
L 157.757842 1049.596902 
L 162.097261 1062.192714 
L 162.900857 1064.266724 
L 165.954522 1070.525544 
L 167.079557 1072.776164 
L 167.883153 1074.17191 
L 170.133222 1076.94356 
L 171.097538 1077.733336 
L 171.740414 1078.118338 
L 176.72271 1080.653897 
L 177.365587 1080.960916 
L 178.329903 1081.355331 
L 180.90141 1081.966909 
L 182.187164 1082.079139 
L 183.472918 1082.114764 
L 187.973056 1082.447119 
L 189.580248 1082.490543 
L 191.18744 1082.440566 
L 192.955352 1082.108479 
L 197.616209 1081.33264 
L 200.187717 1080.583145 
L 203.241382 1079.6783 
L 205.009294 1079.110635 
L 206.937924 1078.409649 
L 214.331009 1075.18663 
L 219.313305 1072.784178 
L 220.599058 1072.226298 
L 222.206251 1071.489719 
L 223.492004 1070.904422 
L 227.027827 1069.303628 
L 228.956458 1068.286114 
L 231.688685 1066.873696 
L 233.938754 1065.62901 
L 235.867385 1064.532901 
L 239.081769 1062.743906 
L 241.331838 1061.586716 
L 247.921326 1058.44504 
L 250.814272 1057.009056 
L 252.260745 1056.35786 
L 254.028657 1055.518664 
L 274.279279 1045.564222 
L 279.583013 1042.970169 
L 283.600994 1041.106665 
L 290.029763 1037.990082 
L 295.976374 1035.081194 
L 301.601547 1032.227632 
L 305.13737 1030.36094 
L 309.637508 1027.966077 
L 311.887577 1026.746636 
L 341.138476 1010.113077 
L 370.067936 991.996263 
L 382.121878 984.070127 
L 384.211228 982.720771 
L 397.229485 974.046656 
L 405.747604 968.451136 
L 412.979969 963.679771 
L 417.158668 960.808551 
L 437.087852 946.958901 
L 459.427824 930.566213 
L 461.677893 928.931092 
L 472.928239 920.523154 
L 477.428377 917.218351 
L 481.446358 914.410281 
L 485.625058 911.613184 
L 492.214546 907.065532 
L 498.161157 902.766316 
L 498.161157 902.766316 
" clip-path="url(#p4a9be733e8)" style="fill: none; stroke: #ff7f0e; stroke-width: 1.5; stroke-linecap: square"/>
   </g>
   <g id="line2d_57">
    <path d="M 152.293388 1113.846712 
L 152.614827 1077.466676 
L 152.936265 1060.705194 
L 153.257704 1051.611545 
L 153.739861 1042.259944 
L 154.0613 1038.343852 
L 154.382738 1037.448637 
L 154.704177 1037.412923 
L 154.864896 1037.519223 
L 155.668492 1041.656323 
L 157.757842 1052.398464 
L 163.061576 1066.061361 
L 164.025892 1068.419285 
L 165.150926 1070.896119 
L 165.954522 1072.540111 
L 167.883153 1075.89898 
L 169.008188 1077.356747 
L 170.133222 1078.535357 
L 171.258257 1079.42549 
L 172.544011 1080.256557 
L 173.026168 1080.564913 
L 174.151203 1081.040031 
L 175.276237 1081.523717 
L 177.365587 1082.116119 
L 178.329903 1082.39229 
L 179.133499 1082.597159 
L 181.062129 1083.001775 
L 181.705006 1083.097797 
L 183.151479 1083.208846 
L 188.776652 1083.182823 
L 189.740967 1083.121234 
L 195.52686 1082.552262 
L 197.937648 1082.17152 
L 199.223402 1081.888083 
L 199.866279 1081.772099 
L 202.277067 1081.212369 
L 207.259363 1079.699134 
L 208.866555 1079.051959 
L 210.634466 1078.49878 
L 213.205974 1077.457854 
L 215.295324 1076.561428 
L 216.741797 1075.889175 
L 231.367246 1069.704329 
L 232.974439 1069.045341 
L 235.063788 1068.160598 
L 237.474577 1067.157547 
L 239.081769 1066.392085 
L 241.653277 1065.224598 
L 242.617592 1064.803543 
L 244.546223 1064.001309 
L 248.564203 1062.199442 
L 256.921603 1058.413227 
L 275.082875 1049.315154 
L 281.029486 1046.290024 
L 282.636679 1045.469124 
L 286.976098 1043.238036 
L 293.244147 1039.935785 
L 319.762819 1024.850625 
L 327.9595 1019.989479 
L 337.763372 1014.022387 
L 345.156456 1009.344527 
L 351.424506 1005.207329 
L 355.281767 1002.762259 
L 362.353413 998.125294 
L 368.782182 993.913998 
L 371.835847 991.936522 
L 376.496705 988.853709 
L 382.925474 984.576431 
L 394.336539 976.861482 
L 411.694215 965.490892 
L 416.83723 962.21386 
L 426.158945 955.709766 
L 434.194906 949.948912 
L 442.070148 944.136892 
L 448.659636 939.144617 
L 468.267381 924.093863 
L 477.267658 917.427736 
L 480.482042 915.232654 
L 492.535984 906.825623 
L 498.161157 902.766316 
L 498.161157 902.766316 
" clip-path="url(#p4a9be733e8)" style="fill: none; stroke: #2ca02c; stroke-width: 1.5; stroke-linecap: square"/>
   </g>
   <g id="line2d_58">
    <path d="M 152.293388 1100.132772 
L 152.614827 1073.695343 
L 153.096985 1055.20057 
L 153.579142 1044.070692 
L 154.0613 1039.010502 
L 154.704177 1036.47009 
L 154.864896 1036.349505 
L 155.025615 1036.458185 
L 155.186334 1036.808051 
L 155.347054 1036.76294 
L 155.507773 1036.493559 
L 155.668492 1036.975921 
L 155.829211 1036.934364 
L 156.15065 1037.7572 
L 156.472088 1038.538556 
L 157.114965 1040.200641 
L 157.275684 1040.341421 
L 159.847192 1047.153154 
L 160.811507 1050.637722 
L 162.097261 1055.214088 
L 163.383015 1058.736264 
L 165.633084 1063.97586 
L 166.918838 1066.214372 
L 167.722434 1067.476157 
L 168.365311 1068.48661 
L 171.740414 1072.383588 
L 172.70473 1073.290591 
L 176.240553 1075.745577 
L 177.847745 1076.273373 
L 179.133499 1076.721117 
L 180.258533 1076.909847 
L 182.669322 1077.196808 
L 183.472918 1077.354738 
L 185.562268 1077.576747 
L 186.848021 1077.608471 
L 189.901687 1077.711452 
L 194.401825 1077.418732 
L 201.152032 1076.715657 
L 207.420082 1075.295191 
L 212.08094 1073.680738 
L 214.170289 1073.095703 
L 218.027551 1071.872856 
L 218.831147 1071.529293 
L 223.331285 1069.814542 
L 225.259916 1069.103349 
L 236.028104 1064.588621 
L 237.635296 1063.919721 
L 238.599611 1063.525091 
L 239.563927 1063.081394 
L 241.171119 1062.381479 
L 243.09975 1061.505375 
L 244.224784 1061.108076 
L 247.599888 1059.597766 
L 248.885642 1059.016389 
L 252.903622 1056.97323 
L 254.189376 1056.278039 
L 256.278726 1055.277288 
L 260.618145 1052.951738 
L 264.475406 1050.980525 
L 266.243318 1050.001238 
L 284.083152 1040.486737 
L 290.190482 1037.105722 
L 293.083428 1035.555673 
L 294.85134 1034.543305 
L 316.226996 1022.075805 
L 321.69145 1018.671317 
L 324.745115 1016.763976 
L 327.316623 1015.174598 
L 331.334603 1012.771795 
L 358.97831 996.243992 
L 362.99629 993.74155 
L 364.924921 992.551969 
L 367.335709 991.047971 
L 380.514686 982.533322 
L 385.175543 979.526865 
L 394.0151 973.708544 
L 398.354519 970.815627 
L 402.051061 968.311086 
L 406.390481 965.346932 
L 411.212057 962.028417 
L 421.337368 954.981358 
L 424.873191 952.546828 
L 427.605418 950.634088 
L 431.462679 947.971818 
L 439.337921 942.443564 
L 447.052444 937.388846 
L 469.392416 922.58883 
L 474.374712 919.317434 
L 479.999885 915.477312 
L 493.821738 905.888667 
L 498.161157 902.766316 
L 498.161157 902.766316 
" clip-path="url(#p4a9be733e8)" style="fill: none; stroke: #d62728; stroke-width: 1.5; stroke-linecap: square"/>
   </g>
   <g id="patch_35">
    <path d="M 135 1153.44 
L 135 890.829474 
" style="fill: none; stroke: #000000; stroke-width: 0.8; stroke-linejoin: miter; stroke-linecap: square"/>
   </g>
   <g id="patch_36">
    <path d="M 515.454545 1153.44 
L 515.454545 890.829474 
" style="fill: none; stroke: #000000; stroke-width: 0.8; stroke-linejoin: miter; stroke-linecap: square"/>
   </g>
   <g id="patch_37">
    <path d="M 135 1153.44 
L 515.454545 1153.44 
" style="fill: none; stroke: #000000; stroke-width: 0.8; stroke-linejoin: miter; stroke-linecap: square"/>
   </g>
   <g id="patch_38">
    <path d="M 135 890.829474 
L 515.454545 890.829474 
" style="fill: none; stroke: #000000; stroke-width: 0.8; stroke-linejoin: miter; stroke-linecap: square"/>
   </g>
   <g id="text_59">
    <!-- e -->
    <g transform="translate(89.376307 872.71352) scale(0.28 -0.28)">
     <defs>
      <path id="DejaVuSans-Bold-65" d="M 4031 1759 
L 4031 1441 
L 1416 1441 
Q 1456 1047 1700 850 
Q 1944 653 2381 653 
Q 2734 653 3104 758 
Q 3475 863 3866 1075 
L 3866 213 
Q 3469 63 3072 -14 
Q 2675 -91 2278 -91 
Q 1328 -91 801 392 
Q 275 875 275 1747 
Q 275 2603 792 3093 
Q 1309 3584 2216 3584 
Q 3041 3584 3536 3087 
Q 4031 2591 4031 1759 
z
M 2881 2131 
Q 2881 2450 2695 2645 
Q 2509 2841 2209 2841 
Q 1884 2841 1681 2658 
Q 1478 2475 1428 2131 
L 2881 2131 
z
" transform="scale(0.015625)"/>
     </defs>
     <use xlink:href="#DejaVuSans-Bold-65"/>
    </g>
   </g>
   <g id="text_60">
    <!-- $Q_{NN}$ -->
    <g transform="translate(302.787273 884.829474) scale(0.24 -0.24)">
     <use xlink:href="#DejaVuSans-Oblique-51" transform="translate(0 0.78125)"/>
     <use xlink:href="#DejaVuSans-Oblique-4e" transform="translate(78.710938 -15.625) scale(0.7)"/>
     <use xlink:href="#DejaVuSans-Oblique-4e" transform="translate(131.074219 -15.625) scale(0.7)"/>
    </g>
   </g>
  </g>
  <g id="axes_6">
   <g id="patch_39">
    <path d="M 591.545455 1153.44 
L 972 1153.44 
L 972 890.829474 
L 591.545455 890.829474 
z
" style="fill: #ffffff"/>
   </g>
   <g id="matplotlib.axis_11">
    <g id="xtick_21">
     <g id="line2d_59">
      <g>
       <use xlink:href="#mba40f82ceb" x="608.678124" y="1153.44" style="stroke: #000000; stroke-width: 0.8"/>
      </g>
     </g>
     <g id="text_61">
      <!-- 0 -->
      <g transform="translate(601.679374 1177.156562) scale(0.22 -0.22)">
       <use xlink:href="#DejaVuSans-30"/>
      </g>
     </g>
    </g>
    <g id="xtick_22">
     <g id="line2d_60">
      <g>
       <use xlink:href="#mba40f82ceb" x="689.037735" y="1153.44" style="stroke: #000000; stroke-width: 0.8"/>
      </g>
     </g>
     <g id="text_62">
      <!-- 500 -->
      <g transform="translate(668.041485 1177.156562) scale(0.22 -0.22)">
       <use xlink:href="#DejaVuSans-35"/>
       <use xlink:href="#DejaVuSans-30" x="63.623047"/>
       <use xlink:href="#DejaVuSans-30" x="127.246094"/>
      </g>
     </g>
    </g>
    <g id="xtick_23">
     <g id="line2d_61">
      <g>
       <use xlink:href="#mba40f82ceb" x="769.397347" y="1153.44" style="stroke: #000000; stroke-width: 0.8"/>
      </g>
     </g>
     <g id="text_63">
      <!-- 1000 -->
      <g transform="translate(741.402347 1177.156562) scale(0.22 -0.22)">
       <use xlink:href="#DejaVuSans-31"/>
       <use xlink:href="#DejaVuSans-30" x="63.623047"/>
       <use xlink:href="#DejaVuSans-30" x="127.246094"/>
       <use xlink:href="#DejaVuSans-30" x="190.869141"/>
      </g>
     </g>
    </g>
    <g id="xtick_24">
     <g id="line2d_62">
      <g>
       <use xlink:href="#mba40f82ceb" x="849.756959" y="1153.44" style="stroke: #000000; stroke-width: 0.8"/>
      </g>
     </g>
     <g id="text_64">
      <!-- 1500 -->
      <g transform="translate(821.761959 1177.156562) scale(0.22 -0.22)">
       <use xlink:href="#DejaVuSans-31"/>
       <use xlink:href="#DejaVuSans-35" x="63.623047"/>
       <use xlink:href="#DejaVuSans-30" x="127.246094"/>
       <use xlink:href="#DejaVuSans-30" x="190.869141"/>
      </g>
     </g>
    </g>
    <g id="xtick_25">
     <g id="line2d_63">
      <g>
       <use xlink:href="#mba40f82ceb" x="930.11657" y="1153.44" style="stroke: #000000; stroke-width: 0.8"/>
      </g>
     </g>
     <g id="text_65">
      <!-- 2000 -->
      <g transform="translate(902.12157 1177.156562) scale(0.22 -0.22)">
       <use xlink:href="#DejaVuSans-32"/>
       <use xlink:href="#DejaVuSans-30" x="63.623047"/>
       <use xlink:href="#DejaVuSans-30" x="127.246094"/>
       <use xlink:href="#DejaVuSans-30" x="190.869141"/>
      </g>
     </g>
    </g>
    <g id="text_66">
     <!-- k -->
     <g transform="translate(774.823977 1203.968125) scale(0.24 -0.24)">
      <use xlink:href="#DejaVuSans-6b"/>
     </g>
    </g>
   </g>
   <g id="matplotlib.axis_12">
    <g id="ytick_23">
     <g id="line2d_64">
      <g>
       <use xlink:href="#ma3e6d3e943" x="591.545455" y="1137.979974" style="stroke: #000000; stroke-width: 0.8"/>
      </g>
     </g>
     <g id="text_67">
      <!-- 0.0 -->
      <g transform="translate(549.55858 1146.338256) scale(0.22 -0.22)">
       <use xlink:href="#DejaVuSans-30"/>
       <use xlink:href="#DejaVuSans-2e" x="63.623047"/>
       <use xlink:href="#DejaVuSans-30" x="95.410156"/>
      </g>
     </g>
    </g>
    <g id="ytick_24">
     <g id="line2d_65">
      <g>
       <use xlink:href="#ma3e6d3e943" x="591.545455" y="1038.903371" style="stroke: #000000; stroke-width: 0.8"/>
      </g>
     </g>
     <g id="text_68">
      <!-- 0.2 -->
      <g transform="translate(549.55858 1047.261652) scale(0.22 -0.22)">
       <use xlink:href="#DejaVuSans-30"/>
       <use xlink:href="#DejaVuSans-2e" x="63.623047"/>
       <use xlink:href="#DejaVuSans-32" x="95.410156"/>
      </g>
     </g>
    </g>
    <g id="ytick_25">
     <g id="line2d_66">
      <g>
       <use xlink:href="#ma3e6d3e943" x="591.545455" y="939.826767" style="stroke: #000000; stroke-width: 0.8"/>
      </g>
     </g>
     <g id="text_69">
      <!-- 0.4 -->
      <g transform="translate(549.55858 948.185048) scale(0.22 -0.22)">
       <use xlink:href="#DejaVuSans-30"/>
       <use xlink:href="#DejaVuSans-2e" x="63.623047"/>
       <use xlink:href="#DejaVuSans-34" x="95.410156"/>
      </g>
     </g>
    </g>
   </g>
   <g id="line2d_67">
    <path d="M 608.838843 1123.26118 
L 609.160281 1109.539085 
L 609.48172 1098.377465 
L 610.767474 1079.937235 
L 611.731789 1073.853107 
L 612.053227 1072.316644 
L 613.017543 1069.865351 
L 613.66042 1068.194625 
L 613.981858 1067.302109 
L 614.624735 1065.688513 
L 615.106893 1065.21193 
L 615.267612 1065.05175 
L 615.428331 1064.60351 
L 615.58905 1064.614696 
L 616.231927 1063.441198 
L 616.553366 1063.071822 
L 617.356962 1062.031783 
L 617.6784 1061.652191 
L 617.999839 1061.163974 
L 619.124873 1060.953284 
L 619.446312 1061.196894 
L 620.732066 1060.667758 
L 621.535662 1060.504429 
L 621.8571 1060.448059 
L 622.339258 1060.392847 
L 622.660696 1060.265645 
L 623.785731 1059.97935 
L 624.107169 1059.769714 
L 624.589327 1059.468836 
L 625.071485 1059.329978 
L 626.517958 1058.633251 
L 626.839396 1058.521783 
L 627.642992 1057.950758 
L 628.285869 1057.336897 
L 629.089465 1056.722679 
L 630.05378 1056.549134 
L 630.375219 1056.517441 
L 631.339534 1056.112993 
L 631.821692 1055.968147 
L 632.464569 1055.705441 
L 632.946726 1055.566298 
L 633.268165 1055.55574 
L 633.750323 1055.347296 
L 637.768303 1054.582884 
L 638.250461 1054.519611 
L 638.571899 1054.495055 
L 639.375495 1054.429914 
L 640.179092 1054.316495 
L 642.107722 1054.425548 
L 643.072038 1054.682418 
L 643.714914 1054.942535 
L 644.357791 1055.163251 
L 654.322383 1059.136728 
L 660.429714 1061.825058 
L 661.394029 1062.187288 
L 662.197625 1062.57427 
L 662.679783 1062.723868 
L 663.32266 1062.950574 
L 667.662079 1064.88777 
L 668.465675 1065.171413 
L 670.715744 1066.166467 
L 672.483655 1066.931619 
L 673.60869 1067.44971 
L 676.501636 1068.522279 
L 678.108828 1069.223988 
L 681.162493 1070.526914 
L 681.80537 1070.80687 
L 683.573282 1071.49414 
L 685.823351 1072.478475 
L 686.626947 1072.840422 
L 688.07342 1073.425724 
L 690.805647 1074.679915 
L 693.055716 1075.625285 
L 693.859312 1075.949035 
L 695.145066 1076.475998 
L 696.912977 1077.100709 
L 698.35945 1077.70412 
L 699.805923 1078.31761 
L 700.770239 1078.733707 
L 703.823904 1080.077438 
L 706.556131 1081.172048 
L 707.841885 1081.777619 
L 722.628053 1088.248046 
L 723.431649 1088.583845 
L 724.235245 1088.965199 
L 730.824733 1091.923273 
L 741.91436 1096.753458 
L 746.414498 1098.812081 
L 747.539533 1099.363814 
L 749.789602 1100.462925 
L 752.361109 1101.679788 
L 759.272036 1104.719545 
L 760.879228 1105.398071 
L 762.164982 1106.002152 
L 766.182963 1107.675061 
L 768.915189 1108.790767 
L 775.02252 1111.295422 
L 779.522658 1113.129461 
L 782.576323 1114.309547 
L 783.701358 1114.792008 
L 785.790708 1115.594016 
L 786.594304 1115.897921 
L 789.48725 1116.998762 
L 804.755576 1122.379846 
L 815.684483 1125.900256 
L 829.345617 1129.609066 
L 840.274525 1131.999058 
L 846.542574 1133.1751 
L 868.400389 1136.279004 
L 878.686419 1137.13902 
L 883.186557 1137.451738 
L 887.204538 1137.706189 
L 890.258203 1137.94436 
L 894.758341 1138.339371 
L 908.098037 1138.956082 
L 912.758894 1138.834708 
L 933.973832 1137.629174 
L 940.241881 1137.650414 
L 953.260139 1137.988131 
L 954.706612 1137.979974 
L 954.706612 1137.979974 
" clip-path="url(#p40aaeb09c4)" style="fill: none; stroke: #1f77b4; stroke-width: 1.5; stroke-linecap: square"/>
   </g>
   <g id="line2d_68">
    <path d="M 608.838843 993.320881 
L 609.160281 935.978708 
L 609.48172 916.00108 
L 609.963878 907.825511 
L 610.285316 903.306562 
L 610.606754 902.766316 
L 610.767474 902.903528 
L 610.928193 903.875375 
L 611.410351 910.068805 
L 611.892508 917.003108 
L 613.338981 935.978842 
L 614.142577 944.730386 
L 614.624735 948.378622 
L 614.946173 950.306356 
L 615.910489 957.862228 
L 617.035523 966.046826 
L 617.999839 972.925906 
L 619.76775 984.962102 
L 620.249908 987.828042 
L 621.374942 994.16472 
L 622.499977 999.983417 
L 625.553642 1014.893428 
L 626.678677 1018.881366 
L 627.803711 1022.326783 
L 630.05378 1027.932699 
L 635.036076 1039.811652 
L 637.929022 1045.125525 
L 639.214776 1047.183682 
L 647.572176 1059.88864 
L 648.85793 1061.308325 
L 650.465122 1062.877664 
L 651.107999 1063.660127 
L 652.072314 1064.910902 
L 653.518787 1066.437307 
L 654.804541 1067.615051 
L 657.536768 1069.993512 
L 658.179645 1070.587584 
L 659.947556 1071.887858 
L 661.715467 1073.302935 
L 662.197625 1073.707373 
L 669.108552 1077.80623 
L 669.912148 1078.106825 
L 673.287252 1079.826962 
L 675.215882 1080.606262 
L 675.69804 1080.852 
L 676.662355 1081.353149 
L 682.608966 1084.46361 
L 688.877016 1086.942522 
L 690.966366 1087.602845 
L 691.609243 1087.792313 
L 697.716573 1089.829936 
L 705.591815 1093.491411 
L 706.71685 1093.93405 
L 709.288358 1095.290611 
L 709.770515 1095.520084 
L 710.89555 1096.009871 
L 715.556407 1098.208991 
L 717.967196 1099.42226 
L 718.610073 1099.661373 
L 720.056546 1100.400866 
L 720.860142 1100.759095 
L 721.663738 1101.124014 
L 723.592368 1101.887288 
L 725.199561 1102.607707 
L 726.485314 1103.043152 
L 727.44963 1103.390325 
L 728.092507 1103.708016 
L 736.771345 1107.490378 
L 740.146448 1109.206476 
L 745.128744 1111.548687 
L 752.682548 1114.856659 
L 753.646863 1115.299867 
L 754.611179 1115.703791 
L 758.789878 1117.340168 
L 760.236351 1117.823437 
L 763.772174 1119.248057 
L 766.343682 1120.108828 
L 768.272313 1120.76461 
L 770.361662 1121.389218 
L 776.147554 1123.096488 
L 780.004816 1124.3747 
L 784.987112 1125.850203 
L 787.880058 1126.661197 
L 791.094442 1127.611364 
L 792.380196 1127.935339 
L 793.66595 1128.297183 
L 796.076738 1128.888053 
L 798.487526 1129.383528 
L 800.737596 1129.821891 
L 803.309103 1130.309668 
L 813.434414 1132.199511 
L 814.880887 1132.390756 
L 816.48808 1132.724079 
L 821.791814 1133.627933 
L 823.077568 1133.766418 
L 829.827775 1134.610862 
L 831.756406 1134.78769 
L 833.04216 1134.901592 
L 834.97079 1135.083757 
L 836.738702 1135.288776 
L 851.685589 1136.860913 
L 854.578535 1136.979215 
L 860.364427 1137.578612 
L 865.186004 1138.171785 
L 873.704123 1138.819012 
L 879.972173 1139.218916 
L 882.382961 1139.315179 
L 884.150873 1139.308281 
L 886.079503 1139.422455 
L 887.365257 1139.456897 
L 894.115464 1139.427599 
L 896.204814 1139.333202 
L 901.026391 1139.122658 
L 904.401495 1138.919342 
L 906.330125 1138.870982 
L 909.383791 1138.722156 
L 915.008963 1138.454822 
L 918.384067 1138.395868 
L 923.848521 1138.066658 
L 927.223624 1137.773498 
L 930.11657 1137.520339 
L 932.688078 1137.411944 
L 937.509655 1137.411348 
L 941.045478 1137.764933 
L 945.063458 1138.058724 
L 947.956404 1138.145769 
L 954.706612 1137.979974 
L 954.706612 1137.979974 
" clip-path="url(#p40aaeb09c4)" style="fill: none; stroke: #ff7f0e; stroke-width: 1.5; stroke-linecap: square"/>
   </g>
   <g id="line2d_69">
    <path d="M 608.838843 1067.605335 
L 609.160281 994.854313 
L 609.48172 961.583677 
L 609.803158 943.743794 
L 610.285316 925.614896 
L 610.606754 918.194331 
L 610.928193 916.852978 
L 611.088912 916.937412 
L 611.410351 917.685295 
L 612.535385 930.681764 
L 613.821139 947.277317 
L 614.464016 952.815699 
L 615.106893 957.056754 
L 615.58905 960.229233 
L 616.071208 963.117943 
L 616.392646 964.841569 
L 619.607031 986.858079 
L 620.732066 993.859279 
L 622.660696 1004.863574 
L 623.625012 1009.793027 
L 624.589327 1014.252817 
L 626.196519 1020.489381 
L 629.250184 1029.501044 
L 630.375219 1032.159703 
L 632.14313 1036.083247 
L 632.625288 1036.889881 
L 633.107446 1037.850792 
L 634.23248 1040.297649 
L 636.000392 1043.768757 
L 638.089742 1047.559717 
L 640.179092 1050.912515 
L 640.821968 1051.894617 
L 643.554195 1055.879147 
L 645.482826 1058.303836 
L 646.125703 1059.166157 
L 649.018649 1062.933427 
L 649.822245 1063.834264 
L 650.625841 1064.803702 
L 651.590156 1065.96099 
L 655.447418 1070.154269 
L 656.251014 1070.969267 
L 657.215329 1072.027723 
L 658.018925 1072.78754 
L 661.072591 1075.405852 
L 661.715467 1075.956797 
L 663.644098 1077.484622 
L 665.733448 1078.804767 
L 668.626394 1080.91317 
L 670.072867 1081.764691 
L 671.51934 1082.551764 
L 672.805094 1083.302244 
L 673.287252 1083.48552 
L 678.108828 1086.33322 
L 679.71602 1087.284755 
L 681.644651 1088.347113 
L 683.412563 1089.325217 
L 683.89472 1089.572878 
L 686.466228 1091.1071 
L 694.984347 1096.056262 
L 697.073697 1097.080456 
L 697.877293 1097.533689 
L 699.163046 1098.221222 
L 699.966643 1098.700627 
L 700.4488 1098.956373 
L 701.895273 1099.81918 
L 717.485038 1107.711883 
L 722.467334 1109.627061 
L 723.431649 1110.026361 
L 726.003157 1111.185247 
L 727.288911 1111.773764 
L 731.146172 1113.342442 
L 734.521276 1114.631213 
L 749.146725 1120.483595 
L 753.968302 1121.967819 
L 755.575494 1122.441543 
L 757.504125 1123.020975 
L 758.307721 1123.229845 
L 760.075632 1123.63587 
L 762.325701 1124.308384 
L 772.772451 1127.350348 
L 774.058205 1127.70334 
L 775.343958 1128.022511 
L 785.147831 1130.334818 
L 786.594304 1130.600825 
L 791.094442 1131.62583 
L 793.023073 1131.98359 
L 793.826669 1132.152225 
L 796.237457 1132.590366 
L 797.201773 1132.766849 
L 802.505507 1133.492361 
L 805.077015 1133.718815 
L 809.094995 1134.253635 
L 811.023626 1134.548722 
L 820.345341 1135.693176 
L 821.309656 1135.80704 
L 827.095548 1136.402048 
L 829.184898 1136.700872 
L 853.935659 1138.711157 
L 856.185728 1138.810232 
L 863.418093 1139.690386 
L 867.757512 1140.334722 
L 872.418369 1141.121077 
L 875.150596 1141.306515 
L 879.650734 1141.415707 
L 881.418646 1141.428034 
L 883.186557 1141.462164 
L 885.758065 1141.472469 
L 889.454607 1141.412545 
L 893.311868 1141.184382 
L 903.919337 1140.43697 
L 910.026667 1139.618053 
L 913.241052 1139.215804 
L 917.259033 1138.807579 
L 924.491398 1138.128195 
L 932.688078 1137.427116 
L 934.616709 1137.6314 
L 938.313251 1137.816916 
L 944.259862 1138.099147 
L 947.474247 1138.129981 
L 954.706612 1137.979974 
L 954.706612 1137.979974 
" clip-path="url(#p40aaeb09c4)" style="fill: none; stroke: #2ca02c; stroke-width: 1.5; stroke-linecap: square"/>
   </g>
   <g id="line2d_70">
    <path d="M 608.838843 1040.007395 
L 609.160281 987.26488 
L 609.642439 950.73626 
L 610.124597 929.028757 
L 610.606754 919.535897 
L 611.249631 915.343929 
L 611.410351 915.331353 
L 611.57107 915.780152 
L 611.731789 916.714312 
L 611.892508 916.853619 
L 612.053227 916.541606 
L 612.213947 917.742402 
L 612.374666 917.888862 
L 612.856824 920.905496 
L 613.66042 926.302637 
L 613.821139 926.816032 
L 616.553366 945.489579 
L 617.356962 952.598286 
L 618.642716 963.648483 
L 619.928469 972.577229 
L 622.339258 987.196076 
L 623.464292 992.688149 
L 627.321554 1008.841145 
L 631.018096 1020.379286 
L 631.500253 1021.792268 
L 632.14313 1023.661023 
L 635.518234 1031.032385 
L 638.089742 1035.451058 
L 638.41118 1035.954489 
L 641.947003 1042.042583 
L 642.750599 1043.209555 
L 644.67923 1046.234592 
L 645.643545 1047.666287 
L 646.76858 1049.148464 
L 647.732895 1050.589741 
L 649.018649 1052.281831 
L 650.143683 1053.585115 
L 650.465122 1053.95433 
L 651.750876 1055.691053 
L 652.072314 1056.000345 
L 655.608137 1060.462058 
L 657.215329 1062.295337 
L 658.661802 1063.71617 
L 660.590433 1065.583414 
L 662.036906 1067.065735 
L 663.804817 1068.811897 
L 664.929852 1069.633609 
L 665.733448 1070.177495 
L 666.858483 1071.026296 
L 668.626394 1072.36866 
L 669.42999 1073.010655 
L 670.233586 1073.719969 
L 670.876463 1074.316069 
L 671.358621 1074.692029 
L 674.573005 1077.243796 
L 674.894444 1077.411786 
L 675.858759 1078.024415 
L 677.305232 1078.96201 
L 677.78739 1079.217693 
L 679.555301 1080.460971 
L 680.358897 1081.037252 
L 683.251843 1082.908007 
L 683.734001 1083.190035 
L 685.180474 1084.1356 
L 685.98407 1084.555326 
L 687.591262 1085.361671 
L 691.448524 1087.679911 
L 694.180751 1089.309839 
L 694.984347 1089.836875 
L 695.948662 1090.270586 
L 696.912977 1090.845639 
L 699.484485 1092.175238 
L 703.181027 1094.331575 
L 704.145342 1094.877894 
L 705.109658 1095.433231 
L 707.038288 1096.223421 
L 708.324042 1096.80212 
L 709.127638 1097.09765 
L 709.609796 1097.213386 
L 710.734831 1097.630948 
L 712.020584 1098.253046 
L 713.627777 1098.859667 
L 716.199284 1099.760499 
L 718.770792 1100.830844 
L 720.056546 1101.332745 
L 721.342299 1101.771701 
L 725.038841 1102.995413 
L 726.163876 1103.464049 
L 727.128191 1103.831826 
L 728.413945 1104.331415 
L 729.37826 1104.747596 
L 735.324872 1107.019093 
L 739.021414 1108.075823 
L 744.968025 1109.954343 
L 746.575217 1110.514965 
L 748.343129 1111.212182 
L 751.236075 1112.042586 
L 752.843267 1112.546928 
L 755.254055 1113.238744 
L 758.307721 1114.044365 
L 759.111317 1114.143561 
L 760.55779 1114.401205 
L 761.522105 1114.635645 
L 769.397347 1116.914575 
L 772.451012 1117.519692 
L 773.254608 1117.699942 
L 774.701081 1117.97428 
L 778.236904 1118.588817 
L 780.004816 1118.926307 
L 790.451565 1121.051963 
L 791.5766 1121.405348 
L 792.540915 1121.60714 
L 793.66595 1121.805913 
L 795.273142 1122.134349 
L 798.487526 1122.886562 
L 799.291123 1123.106779 
L 802.987665 1123.927035 
L 807.166365 1124.970659 
L 813.755853 1126.593704 
L 827.738425 1128.900103 
L 829.184898 1129.123005 
L 830.309933 1129.249508 
L 831.434967 1129.397308 
L 832.077844 1129.493012 
L 833.845756 1129.617966 
L 847.989047 1131.437555 
L 849.756959 1131.59014 
L 851.685589 1131.699381 
L 852.649905 1131.800328 
L 856.346447 1132.147569 
L 859.400112 1132.310357 
L 863.739531 1132.591506 
L 864.864566 1132.691543 
L 866.471758 1132.766503 
L 869.846862 1132.843147 
L 884.63303 1133.327851 
L 886.561661 1133.426275 
L 891.865395 1133.449105 
L 893.954745 1133.46873 
L 901.18711 1134.210721 
L 903.758618 1134.499752 
L 909.865948 1135.042497 
L 911.63386 1135.164833 
L 915.81256 1135.54827 
L 920.312698 1136.016909 
L 923.687801 1136.432789 
L 926.259309 1136.730031 
L 931.080886 1137.250935 
L 934.938147 1137.527376 
L 941.206197 1137.768141 
L 943.295547 1137.98189 
L 946.67065 1138.063324 
L 951.010069 1138.035391 
L 954.706612 1137.979974 
L 954.706612 1137.979974 
" clip-path="url(#p40aaeb09c4)" style="fill: none; stroke: #d62728; stroke-width: 1.5; stroke-linecap: square"/>
   </g>
   <g id="patch_40">
    <path d="M 591.545455 1153.44 
L 591.545455 890.829474 
" style="fill: none; stroke: #000000; stroke-width: 0.8; stroke-linejoin: miter; stroke-linecap: square"/>
   </g>
   <g id="patch_41">
    <path d="M 972 1153.44 
L 972 890.829474 
" style="fill: none; stroke: #000000; stroke-width: 0.8; stroke-linejoin: miter; stroke-linecap: square"/>
   </g>
   <g id="patch_42">
    <path d="M 591.545455 1153.44 
L 972 1153.44 
" style="fill: none; stroke: #000000; stroke-width: 0.8; stroke-linejoin: miter; stroke-linecap: square"/>
   </g>
   <g id="patch_43">
    <path d="M 591.545455 890.829474 
L 972 890.829474 
" style="fill: none; stroke: #000000; stroke-width: 0.8; stroke-linejoin: miter; stroke-linecap: square"/>
   </g>
   <g id="text_70">
    <!-- f -->
    <g transform="translate(552.733636 872.71352) scale(0.28 -0.28)">
     <defs>
      <path id="DejaVuSans-Bold-66" d="M 2841 4863 
L 2841 4128 
L 2222 4128 
Q 1984 4128 1890 4042 
Q 1797 3956 1797 3744 
L 1797 3500 
L 2753 3500 
L 2753 2700 
L 1797 2700 
L 1797 0 
L 678 0 
L 678 2700 
L 122 2700 
L 122 3500 
L 678 3500 
L 678 3744 
Q 678 4316 997 4589 
Q 1316 4863 1984 4863 
L 2841 4863 
z
" transform="scale(0.015625)"/>
     </defs>
     <use xlink:href="#DejaVuSans-Bold-66"/>
    </g>
   </g>
   <g id="text_71">
    <!-- LCMC -->
    <g transform="translate(747.973977 884.829474) scale(0.24 -0.24)">
     <defs>
      <path id="DejaVuSans-4c" d="M 628 4666 
L 1259 4666 
L 1259 531 
L 3531 531 
L 3531 0 
L 628 0 
L 628 4666 
z
" transform="scale(0.015625)"/>
     </defs>
     <use xlink:href="#DejaVuSans-4c"/>
     <use xlink:href="#DejaVuSans-43" x="55.712891"/>
     <use xlink:href="#DejaVuSans-4d" x="125.537109"/>
     <use xlink:href="#DejaVuSans-43" x="211.816406"/>
    </g>
   </g>
  </g>
 </g>
 <defs>
  <clipPath id="pd86f333a76">
   <rect x="135" y="155.52" width="380.454545" height="262.610526"/>
  </clipPath>
  <clipPath id="pd7801f54dd">
   <rect x="591.545455" y="155.52" width="380.454545" height="262.610526"/>
  </clipPath>
  <clipPath id="pcd55c2f8be">
   <rect x="135" y="523.174737" width="380.454545" height="262.610526"/>
  </clipPath>
  <clipPath id="p122450a7ca">
   <rect x="591.545455" y="523.174737" width="380.454545" height="262.610526"/>
  </clipPath>
  <clipPath id="p4a9be733e8">
   <rect x="135" y="890.829474" width="380.454545" height="262.610526"/>
  </clipPath>
  <clipPath id="p40aaeb09c4">
   <rect x="591.545455" y="890.829474" width="380.454545" height="262.610526"/>
  </clipPath>
 </defs>
</svg>
