<?xml version="1.0" encoding="utf-8" standalone="no"?>
<!DOCTYPE svg PUBLIC "-//W3C//DTD SVG 1.1//EN"
  "http://www.w3.org/Graphics/SVG/1.1/DTD/svg11.dtd">
<svg xmlns:xlink="http://www.w3.org/1999/xlink" width="1080pt" height="1296pt" viewBox="0 0 1080 1296" xmlns="http://www.w3.org/2000/svg" version="1.1">
 <metadata>
  <rdf:RDF xmlns:dc="http://purl.org/dc/elements/1.1/" xmlns:cc="http://creativecommons.org/ns#" xmlns:rdf="http://www.w3.org/1999/02/22-rdf-syntax-ns#">
   <cc:Work>
    <dc:type rdf:resource="http://purl.org/dc/dcmitype/StillImage"/>
    <dc:date>2024-07-24T13:08:10.990221</dc:date>
    <dc:format>image/svg+xml</dc:format>
    <dc:creator>
     <cc:Agent>
      <dc:title>Matplotlib v3.8.4, https://matplotlib.org/</dc:title>
     </cc:Agent>
    </dc:creator>
   </cc:Work>
  </rdf:RDF>
 </metadata>
 <defs>
  <style type="text/css">*{stroke-linejoin: round; stroke-linecap: butt}</style>
 </defs>
 <g id="figure_1">
  <g id="patch_1">
   <path d="M 0 1296 
L 1080 1296 
L 1080 0 
L 0 0 
z
" style="fill: #ffffff"/>
  </g>
  <g id="axes_1">
   <g id="patch_2">
    <path d="M 135 418.130526 
L 515.454545 418.130526 
L 515.454545 155.52 
L 135 155.52 
z
" style="fill: #ffffff"/>
   </g>
   <g id="matplotlib.axis_1">
    <g id="xtick_1">
     <g id="line2d_1">
      <defs>
       <path id="mc1a4178a3d" d="M 0 0 
L 0 3.5 
" style="stroke: #000000; stroke-width: 0.8"/>
      </defs>
      <g>
       <use xlink:href="#mc1a4178a3d" x="137.882231" y="418.130526" style="stroke: #000000; stroke-width: 0.8"/>
      </g>
     </g>
     <g id="text_1">
      <!-- 0 -->
      <g transform="translate(131.519731 440.327401) scale(0.2 -0.2)">
       <defs>
        <path id="DejaVuSans-30" d="M 2034 4250 
Q 1547 4250 1301 3770 
Q 1056 3291 1056 2328 
Q 1056 1369 1301 889 
Q 1547 409 2034 409 
Q 2525 409 2770 889 
Q 3016 1369 3016 2328 
Q 3016 3291 2770 3770 
Q 2525 4250 2034 4250 
z
M 2034 4750 
Q 2819 4750 3233 4129 
Q 3647 3509 3647 2328 
Q 3647 1150 3233 529 
Q 2819 -91 2034 -91 
Q 1250 -91 836 529 
Q 422 1150 422 2328 
Q 422 3509 836 4129 
Q 1250 4750 2034 4750 
z
" transform="scale(0.015625)"/>
       </defs>
       <use xlink:href="#DejaVuSans-30"/>
      </g>
     </g>
    </g>
    <g id="xtick_2">
     <g id="line2d_2">
      <g>
       <use xlink:href="#mc1a4178a3d" x="209.938017" y="418.130526" style="stroke: #000000; stroke-width: 0.8"/>
      </g>
     </g>
     <g id="text_2">
      <!-- 10 -->
      <g transform="translate(197.213017 440.327401) scale(0.2 -0.2)">
       <defs>
        <path id="DejaVuSans-31" d="M 794 531 
L 1825 531 
L 1825 4091 
L 703 3866 
L 703 4441 
L 1819 4666 
L 2450 4666 
L 2450 531 
L 3481 531 
L 3481 0 
L 794 0 
L 794 531 
z
" transform="scale(0.015625)"/>
       </defs>
       <use xlink:href="#DejaVuSans-31"/>
       <use xlink:href="#DejaVuSans-30" x="63.623047"/>
      </g>
     </g>
    </g>
    <g id="xtick_3">
     <g id="line2d_3">
      <g>
       <use xlink:href="#mc1a4178a3d" x="281.993802" y="418.130526" style="stroke: #000000; stroke-width: 0.8"/>
      </g>
     </g>
     <g id="text_3">
      <!-- 20 -->
      <g transform="translate(269.268802 440.327401) scale(0.2 -0.2)">
       <defs>
        <path id="DejaVuSans-32" d="M 1228 531 
L 3431 531 
L 3431 0 
L 469 0 
L 469 531 
Q 828 903 1448 1529 
Q 2069 2156 2228 2338 
Q 2531 2678 2651 2914 
Q 2772 3150 2772 3378 
Q 2772 3750 2511 3984 
Q 2250 4219 1831 4219 
Q 1534 4219 1204 4116 
Q 875 4013 500 3803 
L 500 4441 
Q 881 4594 1212 4672 
Q 1544 4750 1819 4750 
Q 2544 4750 2975 4387 
Q 3406 4025 3406 3419 
Q 3406 3131 3298 2873 
Q 3191 2616 2906 2266 
Q 2828 2175 2409 1742 
Q 1991 1309 1228 531 
z
" transform="scale(0.015625)"/>
       </defs>
       <use xlink:href="#DejaVuSans-32"/>
       <use xlink:href="#DejaVuSans-30" x="63.623047"/>
      </g>
     </g>
    </g>
    <g id="xtick_4">
     <g id="line2d_4">
      <g>
       <use xlink:href="#mc1a4178a3d" x="354.049587" y="418.130526" style="stroke: #000000; stroke-width: 0.8"/>
      </g>
     </g>
     <g id="text_4">
      <!-- 30 -->
      <g transform="translate(341.324587 440.327401) scale(0.2 -0.2)">
       <defs>
        <path id="DejaVuSans-33" d="M 2597 2516 
Q 3050 2419 3304 2112 
Q 3559 1806 3559 1356 
Q 3559 666 3084 287 
Q 2609 -91 1734 -91 
Q 1441 -91 1130 -33 
Q 819 25 488 141 
L 488 750 
Q 750 597 1062 519 
Q 1375 441 1716 441 
Q 2309 441 2620 675 
Q 2931 909 2931 1356 
Q 2931 1769 2642 2001 
Q 2353 2234 1838 2234 
L 1294 2234 
L 1294 2753 
L 1863 2753 
Q 2328 2753 2575 2939 
Q 2822 3125 2822 3475 
Q 2822 3834 2567 4026 
Q 2313 4219 1838 4219 
Q 1578 4219 1281 4162 
Q 984 4106 628 3988 
L 628 4550 
Q 988 4650 1302 4700 
Q 1616 4750 1894 4750 
Q 2613 4750 3031 4423 
Q 3450 4097 3450 3541 
Q 3450 3153 3228 2886 
Q 3006 2619 2597 2516 
z
" transform="scale(0.015625)"/>
       </defs>
       <use xlink:href="#DejaVuSans-33"/>
       <use xlink:href="#DejaVuSans-30" x="63.623047"/>
      </g>
     </g>
    </g>
    <g id="xtick_5">
     <g id="line2d_5">
      <g>
       <use xlink:href="#mc1a4178a3d" x="426.105372" y="418.130526" style="stroke: #000000; stroke-width: 0.8"/>
      </g>
     </g>
     <g id="text_5">
      <!-- 40 -->
      <g transform="translate(413.380372 440.327401) scale(0.2 -0.2)">
       <defs>
        <path id="DejaVuSans-34" d="M 2419 4116 
L 825 1625 
L 2419 1625 
L 2419 4116 
z
M 2253 4666 
L 3047 4666 
L 3047 1625 
L 3713 1625 
L 3713 1100 
L 3047 1100 
L 3047 0 
L 2419 0 
L 2419 1100 
L 313 1100 
L 313 1709 
L 2253 4666 
z
" transform="scale(0.015625)"/>
       </defs>
       <use xlink:href="#DejaVuSans-34"/>
       <use xlink:href="#DejaVuSans-30" x="63.623047"/>
      </g>
     </g>
    </g>
    <g id="xtick_6">
     <g id="line2d_6">
      <g>
       <use xlink:href="#mc1a4178a3d" x="498.161157" y="418.130526" style="stroke: #000000; stroke-width: 0.8"/>
      </g>
     </g>
     <g id="text_6">
      <!-- 50 -->
      <g transform="translate(485.436157 440.327401) scale(0.2 -0.2)">
       <defs>
        <path id="DejaVuSans-35" d="M 691 4666 
L 3169 4666 
L 3169 4134 
L 1269 4134 
L 1269 2991 
Q 1406 3038 1543 3061 
Q 1681 3084 1819 3084 
Q 2600 3084 3056 2656 
Q 3513 2228 3513 1497 
Q 3513 744 3044 326 
Q 2575 -91 1722 -91 
Q 1428 -91 1123 -41 
Q 819 9 494 109 
L 494 744 
Q 775 591 1075 516 
Q 1375 441 1709 441 
Q 2250 441 2565 725 
Q 2881 1009 2881 1497 
Q 2881 1984 2565 2268 
Q 2250 2553 1709 2553 
Q 1456 2553 1204 2497 
Q 953 2441 691 2322 
L 691 4666 
z
" transform="scale(0.015625)"/>
       </defs>
       <use xlink:href="#DejaVuSans-35"/>
       <use xlink:href="#DejaVuSans-30" x="63.623047"/>
      </g>
     </g>
    </g>
    <g id="text_7">
     <!-- k -->
     <g transform="translate(318.278523 466.723026) scale(0.24 -0.24)">
      <defs>
       <path id="DejaVuSans-6b" d="M 581 4863 
L 1159 4863 
L 1159 1991 
L 2875 3500 
L 3609 3500 
L 1753 1863 
L 3688 0 
L 2938 0 
L 1159 1709 
L 1159 0 
L 581 0 
L 581 4863 
z
" transform="scale(0.015625)"/>
      </defs>
      <use xlink:href="#DejaVuSans-6b"/>
     </g>
    </g>
   </g>
   <g id="matplotlib.axis_2">
    <g id="ytick_1">
     <g id="line2d_7">
      <defs>
       <path id="m063fc0178f" d="M 0 0 
L -3.5 0 
" style="stroke: #000000; stroke-width: 0.8"/>
      </defs>
      <g>
       <use xlink:href="#m063fc0178f" x="135" y="418.130526" style="stroke: #000000; stroke-width: 0.8"/>
      </g>
     </g>
     <g id="text_8">
      <!-- 0.0 -->
      <g transform="translate(96.19375 425.728964) scale(0.2 -0.2)">
       <defs>
        <path id="DejaVuSans-2e" d="M 684 794 
L 1344 794 
L 1344 0 
L 684 0 
L 684 794 
z
" transform="scale(0.015625)"/>
       </defs>
       <use xlink:href="#DejaVuSans-30"/>
       <use xlink:href="#DejaVuSans-2e" x="63.623047"/>
       <use xlink:href="#DejaVuSans-30" x="95.410156"/>
      </g>
     </g>
    </g>
    <g id="ytick_2">
     <g id="line2d_8">
      <g>
       <use xlink:href="#m063fc0178f" x="135" y="352.477895" style="stroke: #000000; stroke-width: 0.8"/>
      </g>
     </g>
     <g id="text_9">
      <!-- 0.2 -->
      <g transform="translate(96.19375 360.076332) scale(0.2 -0.2)">
       <use xlink:href="#DejaVuSans-30"/>
       <use xlink:href="#DejaVuSans-2e" x="63.623047"/>
       <use xlink:href="#DejaVuSans-32" x="95.410156"/>
      </g>
     </g>
    </g>
    <g id="ytick_3">
     <g id="line2d_9">
      <g>
       <use xlink:href="#m063fc0178f" x="135" y="286.825263" style="stroke: #000000; stroke-width: 0.8"/>
      </g>
     </g>
     <g id="text_10">
      <!-- 0.4 -->
      <g transform="translate(96.19375 294.423701) scale(0.2 -0.2)">
       <use xlink:href="#DejaVuSans-30"/>
       <use xlink:href="#DejaVuSans-2e" x="63.623047"/>
       <use xlink:href="#DejaVuSans-34" x="95.410156"/>
      </g>
     </g>
    </g>
    <g id="ytick_4">
     <g id="line2d_10">
      <g>
       <use xlink:href="#m063fc0178f" x="135" y="221.172632" style="stroke: #000000; stroke-width: 0.8"/>
      </g>
     </g>
     <g id="text_11">
      <!-- 0.6 -->
      <g transform="translate(96.19375 228.771069) scale(0.2 -0.2)">
       <defs>
        <path id="DejaVuSans-36" d="M 2113 2584 
Q 1688 2584 1439 2293 
Q 1191 2003 1191 1497 
Q 1191 994 1439 701 
Q 1688 409 2113 409 
Q 2538 409 2786 701 
Q 3034 994 3034 1497 
Q 3034 2003 2786 2293 
Q 2538 2584 2113 2584 
z
M 3366 4563 
L 3366 3988 
Q 3128 4100 2886 4159 
Q 2644 4219 2406 4219 
Q 1781 4219 1451 3797 
Q 1122 3375 1075 2522 
Q 1259 2794 1537 2939 
Q 1816 3084 2150 3084 
Q 2853 3084 3261 2657 
Q 3669 2231 3669 1497 
Q 3669 778 3244 343 
Q 2819 -91 2113 -91 
Q 1303 -91 875 529 
Q 447 1150 447 2328 
Q 447 3434 972 4092 
Q 1497 4750 2381 4750 
Q 2619 4750 2861 4703 
Q 3103 4656 3366 4563 
z
" transform="scale(0.015625)"/>
       </defs>
       <use xlink:href="#DejaVuSans-30"/>
       <use xlink:href="#DejaVuSans-2e" x="63.623047"/>
       <use xlink:href="#DejaVuSans-36" x="95.410156"/>
      </g>
     </g>
    </g>
    <g id="ytick_5">
     <g id="line2d_11">
      <g>
       <use xlink:href="#m063fc0178f" x="135" y="155.52" style="stroke: #000000; stroke-width: 0.8"/>
      </g>
     </g>
     <g id="text_12">
      <!-- 0.8 -->
      <g transform="translate(96.19375 163.118438) scale(0.2 -0.2)">
       <defs>
        <path id="DejaVuSans-38" d="M 2034 2216 
Q 1584 2216 1326 1975 
Q 1069 1734 1069 1313 
Q 1069 891 1326 650 
Q 1584 409 2034 409 
Q 2484 409 2743 651 
Q 3003 894 3003 1313 
Q 3003 1734 2745 1975 
Q 2488 2216 2034 2216 
z
M 1403 2484 
Q 997 2584 770 2862 
Q 544 3141 544 3541 
Q 544 4100 942 4425 
Q 1341 4750 2034 4750 
Q 2731 4750 3128 4425 
Q 3525 4100 3525 3541 
Q 3525 3141 3298 2862 
Q 3072 2584 2669 2484 
Q 3125 2378 3379 2068 
Q 3634 1759 3634 1313 
Q 3634 634 3220 271 
Q 2806 -91 2034 -91 
Q 1263 -91 848 271 
Q 434 634 434 1313 
Q 434 1759 690 2068 
Q 947 2378 1403 2484 
z
M 1172 3481 
Q 1172 3119 1398 2916 
Q 1625 2713 2034 2713 
Q 2441 2713 2670 2916 
Q 2900 3119 2900 3481 
Q 2900 3844 2670 4047 
Q 2441 4250 2034 4250 
Q 1625 4250 1398 4047 
Q 1172 3844 1172 3481 
z
" transform="scale(0.015625)"/>
       </defs>
       <use xlink:href="#DejaVuSans-30"/>
       <use xlink:href="#DejaVuSans-2e" x="63.623047"/>
       <use xlink:href="#DejaVuSans-38" x="95.410156"/>
      </g>
     </g>
    </g>
    <g id="text_13">
     <!-- $P_{NN}$ -->
     <g transform="translate(87.2025 306.985263) rotate(-90) scale(0.24 -0.24)">
      <defs>
       <path id="DejaVuSans-Oblique-50" d="M 1081 4666 
L 2541 4666 
Q 3178 4666 3512 4369 
Q 3847 4072 3847 3500 
Q 3847 2731 3353 2303 
Q 2859 1875 1966 1875 
L 1172 1875 
L 806 0 
L 172 0 
L 1081 4666 
z
M 1613 4147 
L 1275 2394 
L 2069 2394 
Q 2606 2394 2893 2669 
Q 3181 2944 3181 3456 
Q 3181 3784 2986 3965 
Q 2791 4147 2438 4147 
L 1613 4147 
z
" transform="scale(0.015625)"/>
       <path id="DejaVuSans-Oblique-4e" d="M 1081 4666 
L 1931 4666 
L 3219 666 
L 4000 4666 
L 4616 4666 
L 3706 0 
L 2853 0 
L 1569 4025 
L 788 0 
L 172 0 
L 1081 4666 
z
" transform="scale(0.015625)"/>
      </defs>
      <use xlink:href="#DejaVuSans-Oblique-50" transform="translate(0 0.09375)"/>
      <use xlink:href="#DejaVuSans-Oblique-4e" transform="translate(60.302734 -16.3125) scale(0.7)"/>
      <use xlink:href="#DejaVuSans-Oblique-4e" transform="translate(112.666016 -16.3125) scale(0.7)"/>
     </g>
    </g>
   </g>
   <g id="line2d_12">
    <path d="M 152.293388 394.409065 
L 173.910124 381.11807 
L 209.938017 368.943379 
L 281.993802 355.059348 
L 498.161157 334.746103 
" clip-path="url(#p08f0db176d)" style="fill: none; stroke: #1f77b4; stroke-width: 1.5; stroke-linecap: square"/>
    <defs>
     <path id="m23a7d2459c" d="M 0 3 
C 0.795609 3 1.55874 2.683901 2.12132 2.12132 
C 2.683901 1.55874 3 0.795609 3 0 
C 3 -0.795609 2.683901 -1.55874 2.12132 -2.12132 
C 1.55874 -2.683901 0.795609 -3 0 -3 
C -0.795609 -3 -1.55874 -2.683901 -2.12132 -2.12132 
C -2.683901 -1.55874 -3 -0.795609 -3 0 
C -3 0.795609 -2.683901 1.55874 -2.12132 2.12132 
C -1.55874 2.683901 -0.795609 3 0 3 
z
" style="stroke: #1f77b4"/>
    </defs>
    <g clip-path="url(#p08f0db176d)">
     <use xlink:href="#m23a7d2459c" x="152.293388" y="394.409065" style="fill: #1f77b4; stroke: #1f77b4"/>
     <use xlink:href="#m23a7d2459c" x="173.910124" y="381.11807" style="fill: #1f77b4; stroke: #1f77b4"/>
     <use xlink:href="#m23a7d2459c" x="209.938017" y="368.943379" style="fill: #1f77b4; stroke: #1f77b4"/>
     <use xlink:href="#m23a7d2459c" x="281.993802" y="355.059348" style="fill: #1f77b4; stroke: #1f77b4"/>
     <use xlink:href="#m23a7d2459c" x="498.161157" y="334.746103" style="fill: #1f77b4; stroke: #1f77b4"/>
    </g>
   </g>
   <g id="line2d_13">
    <path d="M 152.293388 285.569421 
L 173.910124 258.289741 
L 209.938017 236.643908 
L 281.993802 234.838635 
L 498.161157 260.358392 
" clip-path="url(#p08f0db176d)" style="fill: none; stroke: #ff7f0e; stroke-width: 1.5; stroke-linecap: square"/>
    <defs>
     <path id="mb584ae2bda" d="M 0 3 
C 0.795609 3 1.55874 2.683901 2.12132 2.12132 
C 2.683901 1.55874 3 0.795609 3 0 
C 3 -0.795609 2.683901 -1.55874 2.12132 -2.12132 
C 1.55874 -2.683901 0.795609 -3 0 -3 
C -0.795609 -3 -1.55874 -2.683901 -2.12132 -2.12132 
C -2.683901 -1.55874 -3 -0.795609 -3 0 
C -3 0.795609 -2.683901 1.55874 -2.12132 2.12132 
C -1.55874 2.683901 -0.795609 3 0 3 
z
" style="stroke: #ff7f0e"/>
    </defs>
    <g clip-path="url(#p08f0db176d)">
     <use xlink:href="#mb584ae2bda" x="152.293388" y="285.569421" style="fill: #ff7f0e; stroke: #ff7f0e"/>
     <use xlink:href="#mb584ae2bda" x="173.910124" y="258.289741" style="fill: #ff7f0e; stroke: #ff7f0e"/>
     <use xlink:href="#mb584ae2bda" x="209.938017" y="236.643908" style="fill: #ff7f0e; stroke: #ff7f0e"/>
     <use xlink:href="#mb584ae2bda" x="281.993802" y="234.838635" style="fill: #ff7f0e; stroke: #ff7f0e"/>
     <use xlink:href="#mb584ae2bda" x="498.161157" y="260.358392" style="fill: #ff7f0e; stroke: #ff7f0e"/>
    </g>
   </g>
   <g id="line2d_14">
    <path d="M 152.293388 336.151948 
L 173.910124 291.255595 
L 209.938017 251.557032 
L 281.993802 239.434668 
L 498.161157 262.782865 
" clip-path="url(#p08f0db176d)" style="fill: none; stroke: #2ca02c; stroke-width: 1.5; stroke-linecap: square"/>
    <defs>
     <path id="m26251d4e2f" d="M 0 3 
C 0.795609 3 1.55874 2.683901 2.12132 2.12132 
C 2.683901 1.55874 3 0.795609 3 0 
C 3 -0.795609 2.683901 -1.55874 2.12132 -2.12132 
C 1.55874 -2.683901 0.795609 -3 0 -3 
C -0.795609 -3 -1.55874 -2.683901 -2.12132 -2.12132 
C -2.683901 -1.55874 -3 -0.795609 -3 0 
C -3 0.795609 -2.683901 1.55874 -2.12132 2.12132 
C -1.55874 2.683901 -0.795609 3 0 3 
z
" style="stroke: #2ca02c"/>
    </defs>
    <g clip-path="url(#p08f0db176d)">
     <use xlink:href="#m26251d4e2f" x="152.293388" y="336.151948" style="fill: #2ca02c; stroke: #2ca02c"/>
     <use xlink:href="#m26251d4e2f" x="173.910124" y="291.255595" style="fill: #2ca02c; stroke: #2ca02c"/>
     <use xlink:href="#m26251d4e2f" x="209.938017" y="251.557032" style="fill: #2ca02c; stroke: #2ca02c"/>
     <use xlink:href="#m26251d4e2f" x="281.993802" y="239.434668" style="fill: #2ca02c; stroke: #2ca02c"/>
     <use xlink:href="#m26251d4e2f" x="498.161157" y="262.782865" style="fill: #2ca02c; stroke: #2ca02c"/>
    </g>
   </g>
   <g id="line2d_15">
    <path d="M 152.293388 333.884456 
L 173.910124 287.313646 
L 209.938017 248.173236 
L 281.993802 234.315367 
L 498.161157 253.737314 
" clip-path="url(#p08f0db176d)" style="fill: none; stroke: #d62728; stroke-width: 1.5; stroke-linecap: square"/>
    <defs>
     <path id="me0d622f9ba" d="M 0 3 
C 0.795609 3 1.55874 2.683901 2.12132 2.12132 
C 2.683901 1.55874 3 0.795609 3 0 
C 3 -0.795609 2.683901 -1.55874 2.12132 -2.12132 
C 1.55874 -2.683901 0.795609 -3 0 -3 
C -0.795609 -3 -1.55874 -2.683901 -2.12132 -2.12132 
C -2.683901 -1.55874 -3 -0.795609 -3 0 
C -3 0.795609 -2.683901 1.55874 -2.12132 2.12132 
C -1.55874 2.683901 -0.795609 3 0 3 
z
" style="stroke: #d62728"/>
    </defs>
    <g clip-path="url(#p08f0db176d)">
     <use xlink:href="#me0d622f9ba" x="152.293388" y="333.884456" style="fill: #d62728; stroke: #d62728"/>
     <use xlink:href="#me0d622f9ba" x="173.910124" y="287.313646" style="fill: #d62728; stroke: #d62728"/>
     <use xlink:href="#me0d622f9ba" x="209.938017" y="248.173236" style="fill: #d62728; stroke: #d62728"/>
     <use xlink:href="#me0d622f9ba" x="281.993802" y="234.315367" style="fill: #d62728; stroke: #d62728"/>
     <use xlink:href="#me0d622f9ba" x="498.161157" y="253.737314" style="fill: #d62728; stroke: #d62728"/>
    </g>
   </g>
   <g id="patch_3">
    <path d="M 135 418.130526 
L 135 155.52 
" style="fill: none; stroke: #000000; stroke-width: 0.8; stroke-linejoin: miter; stroke-linecap: square"/>
   </g>
   <g id="patch_4">
    <path d="M 515.454545 418.130526 
L 515.454545 155.52 
" style="fill: none; stroke: #000000; stroke-width: 0.8; stroke-linejoin: miter; stroke-linecap: square"/>
   </g>
   <g id="patch_5">
    <path d="M 135 418.130526 
L 515.454545 418.130526 
" style="fill: none; stroke: #000000; stroke-width: 0.8; stroke-linejoin: miter; stroke-linecap: square"/>
   </g>
   <g id="patch_6">
    <path d="M 135 155.52 
L 515.454545 155.52 
" style="fill: none; stroke: #000000; stroke-width: 0.8; stroke-linejoin: miter; stroke-linecap: square"/>
   </g>
   <g id="text_14">
    <!-- a -->
    <g transform="translate(89.472557 137.404046) scale(0.28 -0.28)">
     <defs>
      <path id="DejaVuSans-Bold-61" d="M 2106 1575 
Q 1756 1575 1579 1456 
Q 1403 1338 1403 1106 
Q 1403 894 1545 773 
Q 1688 653 1941 653 
Q 2256 653 2472 879 
Q 2688 1106 2688 1447 
L 2688 1575 
L 2106 1575 
z
M 3816 1997 
L 3816 0 
L 2688 0 
L 2688 519 
Q 2463 200 2181 54 
Q 1900 -91 1497 -91 
Q 953 -91 614 226 
Q 275 544 275 1050 
Q 275 1666 698 1953 
Q 1122 2241 2028 2241 
L 2688 2241 
L 2688 2328 
Q 2688 2594 2478 2717 
Q 2269 2841 1825 2841 
Q 1466 2841 1156 2769 
Q 847 2697 581 2553 
L 581 3406 
Q 941 3494 1303 3539 
Q 1666 3584 2028 3584 
Q 2975 3584 3395 3211 
Q 3816 2838 3816 1997 
z
" transform="scale(0.015625)"/>
     </defs>
     <use xlink:href="#DejaVuSans-Bold-61"/>
    </g>
   </g>
   <g id="text_15">
    <!-- $P_{NN}$ -->
    <g transform="translate(303.387273 149.52) scale(0.26 -0.26)">
     <use xlink:href="#DejaVuSans-Oblique-50" transform="translate(0 0.09375)"/>
     <use xlink:href="#DejaVuSans-Oblique-4e" transform="translate(60.302734 -16.3125) scale(0.7)"/>
     <use xlink:href="#DejaVuSans-Oblique-4e" transform="translate(112.666016 -16.3125) scale(0.7)"/>
    </g>
   </g>
  </g>
  <g id="axes_2">
   <g id="patch_7">
    <path d="M 591.545455 418.130526 
L 972 418.130526 
L 972 155.52 
L 591.545455 155.52 
z
" style="fill: #ffffff"/>
   </g>
   <g id="patch_8">
    <path d="M 608.838843 418.130526 
L 628.792753 418.130526 
L 628.792753 180.474239 
L 608.838843 180.474239 
z
" clip-path="url(#pb3637a38e0)" style="fill: #1f77b4"/>
   </g>
   <g id="patch_9">
    <path d="M 741.864908 418.130526 
L 761.818818 418.130526 
L 761.818818 308.210297 
L 741.864908 308.210297 
z
" clip-path="url(#pb3637a38e0)" style="fill: #1f77b4"/>
   </g>
   <g id="patch_10">
    <path d="M 874.890973 418.130526 
L 894.844882 418.130526 
L 894.844882 168.025263 
L 874.890973 168.025263 
z
" clip-path="url(#pb3637a38e0)" style="fill: #1f77b4"/>
   </g>
   <g id="patch_11">
    <path d="M 628.792753 418.130526 
L 648.746662 418.130526 
L 648.746662 180.934965 
L 628.792753 180.934965 
z
" clip-path="url(#pb3637a38e0)" style="fill: #ff7f0e"/>
   </g>
   <g id="patch_12">
    <path d="M 761.818818 418.130526 
L 781.772727 418.130526 
L 781.772727 226.137877 
L 761.818818 226.137877 
z
" clip-path="url(#pb3637a38e0)" style="fill: #ff7f0e"/>
   </g>
   <g id="patch_13">
    <path d="M 894.844882 418.130526 
L 914.798792 418.130526 
L 914.798792 180.581518 
L 894.844882 180.581518 
z
" clip-path="url(#pb3637a38e0)" style="fill: #ff7f0e"/>
   </g>
   <g id="patch_14">
    <path d="M 648.746662 418.130526 
L 668.700572 418.130526 
L 668.700572 187.442743 
L 648.746662 187.442743 
z
" clip-path="url(#pb3637a38e0)" style="fill: #2ca02c"/>
   </g>
   <g id="patch_15">
    <path d="M 781.772727 418.130526 
L 801.726637 418.130526 
L 801.726637 249.438511 
L 781.772727 249.438511 
z
" clip-path="url(#pb3637a38e0)" style="fill: #2ca02c"/>
   </g>
   <g id="patch_16">
    <path d="M 914.798792 418.130526 
L 934.752702 418.130526 
L 934.752702 186.880769 
L 914.798792 186.880769 
z
" clip-path="url(#pb3637a38e0)" style="fill: #2ca02c"/>
   </g>
   <g id="patch_17">
    <path d="M 668.700572 418.130526 
L 688.654482 418.130526 
L 688.654482 179.492743 
L 668.700572 179.492743 
z
" clip-path="url(#pb3637a38e0)" style="fill: #d62728"/>
   </g>
   <g id="patch_18">
    <path d="M 801.726637 418.130526 
L 821.680547 418.130526 
L 821.680547 242.701017 
L 801.726637 242.701017 
z
" clip-path="url(#pb3637a38e0)" style="fill: #d62728"/>
   </g>
   <g id="patch_19">
    <path d="M 934.752702 418.130526 
L 954.706612 418.130526 
L 954.706612 178.879058 
L 934.752702 178.879058 
z
" clip-path="url(#pb3637a38e0)" style="fill: #d62728"/>
   </g>
   <g id="matplotlib.axis_3">
    <g id="xtick_7">
     <g id="line2d_16">
      <g>
       <use xlink:href="#mc1a4178a3d" x="648.746662" y="418.130526" style="stroke: #000000; stroke-width: 0.8"/>
      </g>
     </g>
     <g id="text_16">
      <!-- AUC -->
      <g transform="translate(625.490256 441.847089) scale(0.22 -0.22)">
       <defs>
        <path id="DejaVuSans-41" d="M 2188 4044 
L 1331 1722 
L 3047 1722 
L 2188 4044 
z
M 1831 4666 
L 2547 4666 
L 4325 0 
L 3669 0 
L 3244 1197 
L 1141 1197 
L 716 0 
L 50 0 
L 1831 4666 
z
" transform="scale(0.015625)"/>
        <path id="DejaVuSans-55" d="M 556 4666 
L 1191 4666 
L 1191 1831 
Q 1191 1081 1462 751 
Q 1734 422 2344 422 
Q 2950 422 3222 751 
Q 3494 1081 3494 1831 
L 3494 4666 
L 4128 4666 
L 4128 1753 
Q 4128 841 3676 375 
Q 3225 -91 2344 -91 
Q 1459 -91 1007 375 
Q 556 841 556 1753 
L 556 4666 
z
" transform="scale(0.015625)"/>
        <path id="DejaVuSans-43" d="M 4122 4306 
L 4122 3641 
Q 3803 3938 3442 4084 
Q 3081 4231 2675 4231 
Q 1875 4231 1450 3742 
Q 1025 3253 1025 2328 
Q 1025 1406 1450 917 
Q 1875 428 2675 428 
Q 3081 428 3442 575 
Q 3803 722 4122 1019 
L 4122 359 
Q 3791 134 3420 21 
Q 3050 -91 2638 -91 
Q 1578 -91 968 557 
Q 359 1206 359 2328 
Q 359 3453 968 4101 
Q 1578 4750 2638 4750 
Q 3056 4750 3426 4639 
Q 3797 4528 4122 4306 
z
" transform="scale(0.015625)"/>
       </defs>
       <use xlink:href="#DejaVuSans-41"/>
       <use xlink:href="#DejaVuSans-55" x="68.408203"/>
       <use xlink:href="#DejaVuSans-43" x="141.601562"/>
      </g>
     </g>
    </g>
    <g id="xtick_8">
     <g id="line2d_17">
      <g>
       <use xlink:href="#mc1a4178a3d" x="781.772727" y="418.130526" style="stroke: #000000; stroke-width: 0.8"/>
      </g>
     </g>
     <g id="text_17">
      <!-- $Q_{local}$ -->
      <g transform="translate(754.822727 441.847089) scale(0.22 -0.22)">
       <defs>
        <path id="DejaVuSans-Oblique-51" d="M 2309 -84 
Q 2275 -88 2237 -89 
Q 2200 -91 2125 -91 
Q 1250 -91 756 411 
Q 263 913 263 1797 
Q 263 2319 452 2844 
Q 641 3369 978 3788 
Q 1369 4269 1858 4509 
Q 2347 4750 2938 4750 
Q 3794 4750 4287 4245 
Q 4781 3741 4781 2869 
Q 4781 1928 4265 1147 
Q 3750 366 2919 44 
L 3553 -825 
L 2847 -825 
L 2309 -84 
z
M 2919 4238 
Q 2400 4238 2003 3986 
Q 1606 3734 1313 3219 
Q 1125 2891 1026 2522 
Q 928 2153 928 1778 
Q 928 1128 1239 775 
Q 1550 422 2119 422 
Q 2631 422 3032 676 
Q 3434 931 3719 1434 
Q 3909 1772 4009 2142 
Q 4109 2513 4109 2881 
Q 4109 3528 3796 3883 
Q 3484 4238 2919 4238 
z
" transform="scale(0.015625)"/>
        <path id="DejaVuSans-Oblique-6c" d="M 1172 4863 
L 1747 4863 
L 800 0 
L 225 0 
L 1172 4863 
z
" transform="scale(0.015625)"/>
        <path id="DejaVuSans-Oblique-6f" d="M 1625 -91 
Q 1009 -91 651 289 
Q 294 669 294 1325 
Q 294 1706 417 2101 
Q 541 2497 738 2766 
Q 1047 3184 1428 3384 
Q 1809 3584 2291 3584 
Q 2888 3584 3255 3212 
Q 3622 2841 3622 2241 
Q 3622 1825 3500 1412 
Q 3378 1000 3181 728 
Q 2875 309 2494 109 
Q 2113 -91 1625 -91 
z
M 891 1344 
Q 891 869 1089 633 
Q 1288 397 1691 397 
Q 2269 397 2648 901 
Q 3028 1406 3028 2181 
Q 3028 2634 2825 2865 
Q 2622 3097 2228 3097 
Q 1903 3097 1650 2945 
Q 1397 2794 1197 2484 
Q 1050 2253 970 1956 
Q 891 1659 891 1344 
z
" transform="scale(0.015625)"/>
        <path id="DejaVuSans-Oblique-63" d="M 3431 3366 
L 3316 2797 
Q 3109 2947 2876 3022 
Q 2644 3097 2394 3097 
Q 2119 3097 1870 3000 
Q 1622 2903 1453 2725 
Q 1184 2453 1037 2087 
Q 891 1722 891 1331 
Q 891 859 1127 628 
Q 1363 397 1844 397 
Q 2081 397 2348 469 
Q 2616 541 2906 684 
L 2797 116 
Q 2547 13 2283 -39 
Q 2019 -91 1741 -91 
Q 1044 -91 669 257 
Q 294 606 294 1253 
Q 294 1797 489 2255 
Q 684 2713 1069 3078 
Q 1331 3328 1684 3456 
Q 2038 3584 2456 3584 
Q 2700 3584 2940 3529 
Q 3181 3475 3431 3366 
z
" transform="scale(0.015625)"/>
        <path id="DejaVuSans-Oblique-61" d="M 3438 1997 
L 3047 0 
L 2472 0 
L 2578 531 
Q 2325 219 2001 64 
Q 1678 -91 1281 -91 
Q 834 -91 548 182 
Q 263 456 263 884 
Q 263 1497 752 1853 
Q 1241 2209 2100 2209 
L 2900 2209 
L 2931 2363 
Q 2938 2388 2941 2417 
Q 2944 2447 2944 2509 
Q 2944 2788 2717 2942 
Q 2491 3097 2081 3097 
Q 1800 3097 1504 3025 
Q 1209 2953 897 2809 
L 997 3341 
Q 1322 3463 1633 3523 
Q 1944 3584 2234 3584 
Q 2853 3584 3176 3315 
Q 3500 3047 3500 2534 
Q 3500 2431 3484 2292 
Q 3469 2153 3438 1997 
z
M 2816 1759 
L 2241 1759 
Q 1534 1759 1195 1570 
Q 856 1381 856 984 
Q 856 709 1029 553 
Q 1203 397 1509 397 
Q 1978 397 2328 733 
Q 2678 1069 2791 1631 
L 2816 1759 
z
" transform="scale(0.015625)"/>
       </defs>
       <use xlink:href="#DejaVuSans-Oblique-51" transform="translate(0 0.78125)"/>
       <use xlink:href="#DejaVuSans-Oblique-6c" transform="translate(78.710938 -15.625) scale(0.7)"/>
       <use xlink:href="#DejaVuSans-Oblique-6f" transform="translate(98.15918 -15.625) scale(0.7)"/>
       <use xlink:href="#DejaVuSans-Oblique-63" transform="translate(140.986328 -15.625) scale(0.7)"/>
       <use xlink:href="#DejaVuSans-Oblique-61" transform="translate(179.472656 -15.625) scale(0.7)"/>
       <use xlink:href="#DejaVuSans-Oblique-6c" transform="translate(222.368164 -15.625) scale(0.7)"/>
      </g>
     </g>
    </g>
    <g id="xtick_9">
     <g id="line2d_18">
      <g>
       <use xlink:href="#mc1a4178a3d" x="914.798792" y="418.130526" style="stroke: #000000; stroke-width: 0.8"/>
      </g>
     </g>
     <g id="text_18">
      <!-- $Q_{global}$ -->
      <g transform="translate(882.348792 441.630526) scale(0.22 -0.22)">
       <defs>
        <path id="DejaVuSans-Oblique-67" d="M 3816 3500 
L 3219 434 
Q 3047 -456 2561 -893 
Q 2075 -1331 1253 -1331 
Q 950 -1331 690 -1286 
Q 431 -1241 206 -1147 
L 313 -588 
Q 525 -725 762 -790 
Q 1000 -856 1269 -856 
Q 1816 -856 2167 -557 
Q 2519 -259 2631 300 
L 2681 563 
Q 2441 288 2122 144 
Q 1803 0 1434 0 
Q 903 0 598 351 
Q 294 703 294 1319 
Q 294 1803 478 2267 
Q 663 2731 997 3091 
Q 1219 3328 1514 3456 
Q 1809 3584 2131 3584 
Q 2484 3584 2746 3420 
Q 3009 3256 3138 2956 
L 3238 3500 
L 3816 3500 
z
M 2950 2216 
Q 2950 2641 2750 2872 
Q 2550 3103 2181 3103 
Q 1953 3103 1747 3012 
Q 1541 2922 1394 2759 
Q 1156 2491 1023 2127 
Q 891 1763 891 1375 
Q 891 944 1092 712 
Q 1294 481 1672 481 
Q 2219 481 2584 976 
Q 2950 1472 2950 2216 
z
" transform="scale(0.015625)"/>
        <path id="DejaVuSans-Oblique-62" d="M 3169 2138 
Q 3169 2591 2961 2847 
Q 2753 3103 2388 3103 
Q 2122 3103 1889 2973 
Q 1656 2844 1484 2597 
Q 1303 2338 1198 1995 
Q 1094 1653 1094 1313 
Q 1094 881 1298 636 
Q 1503 391 1863 391 
Q 2134 391 2365 517 
Q 2597 644 2772 891 
Q 2950 1147 3059 1487 
Q 3169 1828 3169 2138 
z
M 1381 2969 
Q 1594 3256 1914 3420 
Q 2234 3584 2584 3584 
Q 3122 3584 3439 3221 
Q 3756 2859 3756 2241 
Q 3756 1734 3570 1259 
Q 3384 784 3041 416 
Q 2816 172 2522 40 
Q 2228 -91 1906 -91 
Q 1566 -91 1316 65 
Q 1066 222 909 531 
L 806 0 
L 231 0 
L 1178 4863 
L 1753 4863 
L 1381 2969 
z
" transform="scale(0.015625)"/>
       </defs>
       <use xlink:href="#DejaVuSans-Oblique-51" transform="translate(0 0.78125)"/>
       <use xlink:href="#DejaVuSans-Oblique-67" transform="translate(78.710938 -15.625) scale(0.7)"/>
       <use xlink:href="#DejaVuSans-Oblique-6c" transform="translate(123.144531 -15.625) scale(0.7)"/>
       <use xlink:href="#DejaVuSans-Oblique-6f" transform="translate(142.592773 -15.625) scale(0.7)"/>
       <use xlink:href="#DejaVuSans-Oblique-62" transform="translate(185.419922 -15.625) scale(0.7)"/>
       <use xlink:href="#DejaVuSans-Oblique-61" transform="translate(229.853516 -15.625) scale(0.7)"/>
       <use xlink:href="#DejaVuSans-Oblique-6c" transform="translate(272.749023 -15.625) scale(0.7)"/>
      </g>
     </g>
    </g>
   </g>
   <g id="matplotlib.axis_4">
    <g id="ytick_6">
     <g id="line2d_19">
      <g>
       <use xlink:href="#m063fc0178f" x="591.545455" y="418.130526" style="stroke: #000000; stroke-width: 0.8"/>
      </g>
     </g>
     <g id="text_19">
      <!-- 0.0 -->
      <g transform="translate(549.55858 426.488808) scale(0.22 -0.22)">
       <use xlink:href="#DejaVuSans-30"/>
       <use xlink:href="#DejaVuSans-2e" x="63.623047"/>
       <use xlink:href="#DejaVuSans-30" x="95.410156"/>
      </g>
     </g>
    </g>
    <g id="ytick_7">
     <g id="line2d_20">
      <g>
       <use xlink:href="#m063fc0178f" x="591.545455" y="341.062793" style="stroke: #000000; stroke-width: 0.8"/>
      </g>
     </g>
     <g id="text_20">
      <!-- 0.2 -->
      <g transform="translate(549.55858 349.421074) scale(0.22 -0.22)">
       <use xlink:href="#DejaVuSans-30"/>
       <use xlink:href="#DejaVuSans-2e" x="63.623047"/>
       <use xlink:href="#DejaVuSans-32" x="95.410156"/>
      </g>
     </g>
    </g>
    <g id="ytick_8">
     <g id="line2d_21">
      <g>
       <use xlink:href="#m063fc0178f" x="591.545455" y="263.995059" style="stroke: #000000; stroke-width: 0.8"/>
      </g>
     </g>
     <g id="text_21">
      <!-- 0.4 -->
      <g transform="translate(549.55858 272.35334) scale(0.22 -0.22)">
       <use xlink:href="#DejaVuSans-30"/>
       <use xlink:href="#DejaVuSans-2e" x="63.623047"/>
       <use xlink:href="#DejaVuSans-34" x="95.410156"/>
      </g>
     </g>
    </g>
    <g id="ytick_9">
     <g id="line2d_22">
      <g>
       <use xlink:href="#m063fc0178f" x="591.545455" y="186.927325" style="stroke: #000000; stroke-width: 0.8"/>
      </g>
     </g>
     <g id="text_22">
      <!-- 0.6 -->
      <g transform="translate(549.55858 195.285606) scale(0.22 -0.22)">
       <use xlink:href="#DejaVuSans-30"/>
       <use xlink:href="#DejaVuSans-2e" x="63.623047"/>
       <use xlink:href="#DejaVuSans-36" x="95.410156"/>
      </g>
     </g>
    </g>
    <g id="text_23">
     <!-- Metric Value -->
     <g transform="translate(540.983267 354.727919) rotate(-90) scale(0.22 -0.22)">
      <defs>
       <path id="DejaVuSans-4d" d="M 628 4666 
L 1569 4666 
L 2759 1491 
L 3956 4666 
L 4897 4666 
L 4897 0 
L 4281 0 
L 4281 4097 
L 3078 897 
L 2444 897 
L 1241 4097 
L 1241 0 
L 628 0 
L 628 4666 
z
" transform="scale(0.015625)"/>
       <path id="DejaVuSans-65" d="M 3597 1894 
L 3597 1613 
L 953 1613 
Q 991 1019 1311 708 
Q 1631 397 2203 397 
Q 2534 397 2845 478 
Q 3156 559 3463 722 
L 3463 178 
Q 3153 47 2828 -22 
Q 2503 -91 2169 -91 
Q 1331 -91 842 396 
Q 353 884 353 1716 
Q 353 2575 817 3079 
Q 1281 3584 2069 3584 
Q 2775 3584 3186 3129 
Q 3597 2675 3597 1894 
z
M 3022 2063 
Q 3016 2534 2758 2815 
Q 2500 3097 2075 3097 
Q 1594 3097 1305 2825 
Q 1016 2553 972 2059 
L 3022 2063 
z
" transform="scale(0.015625)"/>
       <path id="DejaVuSans-74" d="M 1172 4494 
L 1172 3500 
L 2356 3500 
L 2356 3053 
L 1172 3053 
L 1172 1153 
Q 1172 725 1289 603 
Q 1406 481 1766 481 
L 2356 481 
L 2356 0 
L 1766 0 
Q 1100 0 847 248 
Q 594 497 594 1153 
L 594 3053 
L 172 3053 
L 172 3500 
L 594 3500 
L 594 4494 
L 1172 4494 
z
" transform="scale(0.015625)"/>
       <path id="DejaVuSans-72" d="M 2631 2963 
Q 2534 3019 2420 3045 
Q 2306 3072 2169 3072 
Q 1681 3072 1420 2755 
Q 1159 2438 1159 1844 
L 1159 0 
L 581 0 
L 581 3500 
L 1159 3500 
L 1159 2956 
Q 1341 3275 1631 3429 
Q 1922 3584 2338 3584 
Q 2397 3584 2469 3576 
Q 2541 3569 2628 3553 
L 2631 2963 
z
" transform="scale(0.015625)"/>
       <path id="DejaVuSans-69" d="M 603 3500 
L 1178 3500 
L 1178 0 
L 603 0 
L 603 3500 
z
M 603 4863 
L 1178 4863 
L 1178 4134 
L 603 4134 
L 603 4863 
z
" transform="scale(0.015625)"/>
       <path id="DejaVuSans-63" d="M 3122 3366 
L 3122 2828 
Q 2878 2963 2633 3030 
Q 2388 3097 2138 3097 
Q 1578 3097 1268 2742 
Q 959 2388 959 1747 
Q 959 1106 1268 751 
Q 1578 397 2138 397 
Q 2388 397 2633 464 
Q 2878 531 3122 666 
L 3122 134 
Q 2881 22 2623 -34 
Q 2366 -91 2075 -91 
Q 1284 -91 818 406 
Q 353 903 353 1747 
Q 353 2603 823 3093 
Q 1294 3584 2113 3584 
Q 2378 3584 2631 3529 
Q 2884 3475 3122 3366 
z
" transform="scale(0.015625)"/>
       <path id="DejaVuSans-20" transform="scale(0.015625)"/>
       <path id="DejaVuSans-56" d="M 1831 0 
L 50 4666 
L 709 4666 
L 2188 738 
L 3669 4666 
L 4325 4666 
L 2547 0 
L 1831 0 
z
" transform="scale(0.015625)"/>
       <path id="DejaVuSans-61" d="M 2194 1759 
Q 1497 1759 1228 1600 
Q 959 1441 959 1056 
Q 959 750 1161 570 
Q 1363 391 1709 391 
Q 2188 391 2477 730 
Q 2766 1069 2766 1631 
L 2766 1759 
L 2194 1759 
z
M 3341 1997 
L 3341 0 
L 2766 0 
L 2766 531 
Q 2569 213 2275 61 
Q 1981 -91 1556 -91 
Q 1019 -91 701 211 
Q 384 513 384 1019 
Q 384 1609 779 1909 
Q 1175 2209 1959 2209 
L 2766 2209 
L 2766 2266 
Q 2766 2663 2505 2880 
Q 2244 3097 1772 3097 
Q 1472 3097 1187 3025 
Q 903 2953 641 2809 
L 641 3341 
Q 956 3463 1253 3523 
Q 1550 3584 1831 3584 
Q 2591 3584 2966 3190 
Q 3341 2797 3341 1997 
z
" transform="scale(0.015625)"/>
       <path id="DejaVuSans-6c" d="M 603 4863 
L 1178 4863 
L 1178 0 
L 603 0 
L 603 4863 
z
" transform="scale(0.015625)"/>
       <path id="DejaVuSans-75" d="M 544 1381 
L 544 3500 
L 1119 3500 
L 1119 1403 
Q 1119 906 1312 657 
Q 1506 409 1894 409 
Q 2359 409 2629 706 
Q 2900 1003 2900 1516 
L 2900 3500 
L 3475 3500 
L 3475 0 
L 2900 0 
L 2900 538 
Q 2691 219 2414 64 
Q 2138 -91 1772 -91 
Q 1169 -91 856 284 
Q 544 659 544 1381 
z
M 1991 3584 
L 1991 3584 
z
" transform="scale(0.015625)"/>
      </defs>
      <use xlink:href="#DejaVuSans-4d"/>
      <use xlink:href="#DejaVuSans-65" x="86.279297"/>
      <use xlink:href="#DejaVuSans-74" x="147.802734"/>
      <use xlink:href="#DejaVuSans-72" x="187.011719"/>
      <use xlink:href="#DejaVuSans-69" x="228.125"/>
      <use xlink:href="#DejaVuSans-63" x="255.908203"/>
      <use xlink:href="#DejaVuSans-20" x="310.888672"/>
      <use xlink:href="#DejaVuSans-56" x="342.675781"/>
      <use xlink:href="#DejaVuSans-61" x="403.333984"/>
      <use xlink:href="#DejaVuSans-6c" x="464.613281"/>
      <use xlink:href="#DejaVuSans-75" x="492.396484"/>
      <use xlink:href="#DejaVuSans-65" x="555.775391"/>
     </g>
    </g>
   </g>
   <g id="patch_20">
    <path d="M 591.545455 418.130526 
L 591.545455 155.52 
" style="fill: none; stroke: #000000; stroke-width: 0.8; stroke-linejoin: miter; stroke-linecap: square"/>
   </g>
   <g id="patch_21">
    <path d="M 972 418.130526 
L 972 155.52 
" style="fill: none; stroke: #000000; stroke-width: 0.8; stroke-linejoin: miter; stroke-linecap: square"/>
   </g>
   <g id="patch_22">
    <path d="M 591.545455 418.130526 
L 972 418.130526 
" style="fill: none; stroke: #000000; stroke-width: 0.8; stroke-linejoin: miter; stroke-linecap: square"/>
   </g>
   <g id="patch_23">
    <path d="M 591.545455 155.52 
L 972 155.52 
" style="fill: none; stroke: #000000; stroke-width: 0.8; stroke-linejoin: miter; stroke-linecap: square"/>
   </g>
   <g id="text_24">
    <!-- b -->
    <g transform="translate(544.871761 137.404046) scale(0.28 -0.28)">
     <defs>
      <path id="DejaVuSans-Bold-62" d="M 2400 722 
Q 2759 722 2948 984 
Q 3138 1247 3138 1747 
Q 3138 2247 2948 2509 
Q 2759 2772 2400 2772 
Q 2041 2772 1848 2508 
Q 1656 2244 1656 1747 
Q 1656 1250 1848 986 
Q 2041 722 2400 722 
z
M 1656 2988 
Q 1888 3294 2169 3439 
Q 2450 3584 2816 3584 
Q 3463 3584 3878 3070 
Q 4294 2556 4294 1747 
Q 4294 938 3878 423 
Q 3463 -91 2816 -91 
Q 2450 -91 2169 54 
Q 1888 200 1656 506 
L 1656 0 
L 538 0 
L 538 4863 
L 1656 4863 
L 1656 2988 
z
" transform="scale(0.015625)"/>
     </defs>
     <use xlink:href="#DejaVuSans-Bold-62"/>
    </g>
   </g>
   <g id="text_25">
    <!-- Metrics -->
    <g transform="translate(734.584759 149.52) scale(0.26 -0.26)">
     <defs>
      <path id="DejaVuSans-73" d="M 2834 3397 
L 2834 2853 
Q 2591 2978 2328 3040 
Q 2066 3103 1784 3103 
Q 1356 3103 1142 2972 
Q 928 2841 928 2578 
Q 928 2378 1081 2264 
Q 1234 2150 1697 2047 
L 1894 2003 
Q 2506 1872 2764 1633 
Q 3022 1394 3022 966 
Q 3022 478 2636 193 
Q 2250 -91 1575 -91 
Q 1294 -91 989 -36 
Q 684 19 347 128 
L 347 722 
Q 666 556 975 473 
Q 1284 391 1588 391 
Q 1994 391 2212 530 
Q 2431 669 2431 922 
Q 2431 1156 2273 1281 
Q 2116 1406 1581 1522 
L 1381 1569 
Q 847 1681 609 1914 
Q 372 2147 372 2553 
Q 372 3047 722 3315 
Q 1072 3584 1716 3584 
Q 2034 3584 2315 3537 
Q 2597 3491 2834 3397 
z
" transform="scale(0.015625)"/>
     </defs>
     <use xlink:href="#DejaVuSans-4d"/>
     <use xlink:href="#DejaVuSans-65" x="86.279297"/>
     <use xlink:href="#DejaVuSans-74" x="147.802734"/>
     <use xlink:href="#DejaVuSans-72" x="187.011719"/>
     <use xlink:href="#DejaVuSans-69" x="228.125"/>
     <use xlink:href="#DejaVuSans-63" x="255.908203"/>
     <use xlink:href="#DejaVuSans-73" x="310.888672"/>
    </g>
   </g>
  </g>
  <g id="axes_3">
   <g id="patch_24">
    <path d="M 135 785.785263 
L 515.454545 785.785263 
L 515.454545 523.174737 
L 135 523.174737 
z
" style="fill: #ffffff"/>
   </g>
   <g id="matplotlib.axis_5">
    <g id="xtick_10">
     <g id="line2d_23">
      <g>
       <use xlink:href="#mc1a4178a3d" x="137.882231" y="785.785263" style="stroke: #000000; stroke-width: 0.8"/>
      </g>
     </g>
     <g id="text_26">
      <!-- 0 -->
      <g transform="translate(130.883481 809.501826) scale(0.22 -0.22)">
       <use xlink:href="#DejaVuSans-30"/>
      </g>
     </g>
    </g>
    <g id="xtick_11">
     <g id="line2d_24">
      <g>
       <use xlink:href="#mc1a4178a3d" x="281.993802" y="785.785263" style="stroke: #000000; stroke-width: 0.8"/>
      </g>
     </g>
     <g id="text_27">
      <!-- 20 -->
      <g transform="translate(267.996302 809.501826) scale(0.22 -0.22)">
       <use xlink:href="#DejaVuSans-32"/>
       <use xlink:href="#DejaVuSans-30" x="63.623047"/>
      </g>
     </g>
    </g>
    <g id="xtick_12">
     <g id="line2d_25">
      <g>
       <use xlink:href="#mc1a4178a3d" x="426.105372" y="785.785263" style="stroke: #000000; stroke-width: 0.8"/>
      </g>
     </g>
     <g id="text_28">
      <!-- 40 -->
      <g transform="translate(412.107872 809.501826) scale(0.22 -0.22)">
       <use xlink:href="#DejaVuSans-34"/>
       <use xlink:href="#DejaVuSans-30" x="63.623047"/>
      </g>
     </g>
    </g>
    <g id="text_29">
     <!-- k -->
     <g transform="translate(318.278523 836.313388) scale(0.24 -0.24)">
      <use xlink:href="#DejaVuSans-6b"/>
     </g>
    </g>
   </g>
   <g id="matplotlib.axis_6">
    <g id="ytick_10">
     <g id="line2d_26">
      <g>
       <use xlink:href="#m063fc0178f" x="135" y="741.93824" style="stroke: #000000; stroke-width: 0.8"/>
      </g>
     </g>
     <g id="text_30">
      <!-- 0.80 -->
      <g transform="translate(79.015625 750.296521) scale(0.22 -0.22)">
       <use xlink:href="#DejaVuSans-30"/>
       <use xlink:href="#DejaVuSans-2e" x="63.623047"/>
       <use xlink:href="#DejaVuSans-38" x="95.410156"/>
       <use xlink:href="#DejaVuSans-30" x="159.033203"/>
      </g>
     </g>
    </g>
    <g id="ytick_11">
     <g id="line2d_27">
      <g>
       <use xlink:href="#m063fc0178f" x="135" y="683.903797" style="stroke: #000000; stroke-width: 0.8"/>
      </g>
     </g>
     <g id="text_31">
      <!-- 0.85 -->
      <g transform="translate(79.015625 692.262078) scale(0.22 -0.22)">
       <use xlink:href="#DejaVuSans-30"/>
       <use xlink:href="#DejaVuSans-2e" x="63.623047"/>
       <use xlink:href="#DejaVuSans-38" x="95.410156"/>
       <use xlink:href="#DejaVuSans-35" x="159.033203"/>
      </g>
     </g>
    </g>
    <g id="ytick_12">
     <g id="line2d_28">
      <g>
       <use xlink:href="#m063fc0178f" x="135" y="625.869354" style="stroke: #000000; stroke-width: 0.8"/>
      </g>
     </g>
     <g id="text_32">
      <!-- 0.90 -->
      <g transform="translate(79.015625 634.227635) scale(0.22 -0.22)">
       <defs>
        <path id="DejaVuSans-39" d="M 703 97 
L 703 672 
Q 941 559 1184 500 
Q 1428 441 1663 441 
Q 2288 441 2617 861 
Q 2947 1281 2994 2138 
Q 2813 1869 2534 1725 
Q 2256 1581 1919 1581 
Q 1219 1581 811 2004 
Q 403 2428 403 3163 
Q 403 3881 828 4315 
Q 1253 4750 1959 4750 
Q 2769 4750 3195 4129 
Q 3622 3509 3622 2328 
Q 3622 1225 3098 567 
Q 2575 -91 1691 -91 
Q 1453 -91 1209 -44 
Q 966 3 703 97 
z
M 1959 2075 
Q 2384 2075 2632 2365 
Q 2881 2656 2881 3163 
Q 2881 3666 2632 3958 
Q 2384 4250 1959 4250 
Q 1534 4250 1286 3958 
Q 1038 3666 1038 3163 
Q 1038 2656 1286 2365 
Q 1534 2075 1959 2075 
z
" transform="scale(0.015625)"/>
       </defs>
       <use xlink:href="#DejaVuSans-30"/>
       <use xlink:href="#DejaVuSans-2e" x="63.623047"/>
       <use xlink:href="#DejaVuSans-39" x="95.410156"/>
       <use xlink:href="#DejaVuSans-30" x="159.033203"/>
      </g>
     </g>
    </g>
    <g id="ytick_13">
     <g id="line2d_29">
      <g>
       <use xlink:href="#m063fc0178f" x="135" y="567.834911" style="stroke: #000000; stroke-width: 0.8"/>
      </g>
     </g>
     <g id="text_33">
      <!-- 0.95 -->
      <g transform="translate(79.015625 576.193192) scale(0.22 -0.22)">
       <use xlink:href="#DejaVuSans-30"/>
       <use xlink:href="#DejaVuSans-2e" x="63.623047"/>
       <use xlink:href="#DejaVuSans-39" x="95.410156"/>
       <use xlink:href="#DejaVuSans-35" x="159.033203"/>
      </g>
     </g>
    </g>
    <g id="text_34">
     <!-- Metric Value -->
     <g transform="translate(70.024375 728.555625) rotate(-90) scale(0.24 -0.24)">
      <use xlink:href="#DejaVuSans-4d"/>
      <use xlink:href="#DejaVuSans-65" x="86.279297"/>
      <use xlink:href="#DejaVuSans-74" x="147.802734"/>
      <use xlink:href="#DejaVuSans-72" x="187.011719"/>
      <use xlink:href="#DejaVuSans-69" x="228.125"/>
      <use xlink:href="#DejaVuSans-63" x="255.908203"/>
      <use xlink:href="#DejaVuSans-20" x="310.888672"/>
      <use xlink:href="#DejaVuSans-56" x="342.675781"/>
      <use xlink:href="#DejaVuSans-61" x="403.333984"/>
      <use xlink:href="#DejaVuSans-6c" x="464.613281"/>
      <use xlink:href="#DejaVuSans-75" x="492.396484"/>
      <use xlink:href="#DejaVuSans-65" x="555.775391"/>
     </g>
    </g>
   </g>
   <g id="line2d_30">
    <path d="M 152.293388 766.022159 
L 173.910124 766.425512 
L 209.938017 769.335595 
L 281.993802 769.003297 
L 498.161157 773.848421 
" clip-path="url(#p2c9d4b4346)" style="fill: none; stroke: #1f77b4; stroke-width: 1.5; stroke-linecap: square"/>
    <g clip-path="url(#p2c9d4b4346)">
     <use xlink:href="#m23a7d2459c" x="152.293388" y="766.022159" style="fill: #1f77b4; stroke: #1f77b4"/>
     <use xlink:href="#m23a7d2459c" x="173.910124" y="766.425512" style="fill: #1f77b4; stroke: #1f77b4"/>
     <use xlink:href="#m23a7d2459c" x="209.938017" y="769.335595" style="fill: #1f77b4; stroke: #1f77b4"/>
     <use xlink:href="#m23a7d2459c" x="281.993802" y="769.003297" style="fill: #1f77b4; stroke: #1f77b4"/>
     <use xlink:href="#m23a7d2459c" x="498.161157" y="773.848421" style="fill: #1f77b4; stroke: #1f77b4"/>
    </g>
   </g>
   <g id="line2d_31">
    <path d="M 152.293388 535.111579 
L 173.910124 547.046383 
L 209.938017 562.469544 
L 281.993802 600.279256 
L 498.161157 679.828845 
" clip-path="url(#p2c9d4b4346)" style="fill: none; stroke: #ff7f0e; stroke-width: 1.5; stroke-linecap: square"/>
    <g clip-path="url(#p2c9d4b4346)">
     <use xlink:href="#mb584ae2bda" x="152.293388" y="535.111579" style="fill: #ff7f0e; stroke: #ff7f0e"/>
     <use xlink:href="#mb584ae2bda" x="173.910124" y="547.046383" style="fill: #ff7f0e; stroke: #ff7f0e"/>
     <use xlink:href="#mb584ae2bda" x="209.938017" y="562.469544" style="fill: #ff7f0e; stroke: #ff7f0e"/>
     <use xlink:href="#mb584ae2bda" x="281.993802" y="600.279256" style="fill: #ff7f0e; stroke: #ff7f0e"/>
     <use xlink:href="#mb584ae2bda" x="498.161157" y="679.828845" style="fill: #ff7f0e; stroke: #ff7f0e"/>
    </g>
   </g>
   <g id="line2d_32">
    <path d="M 152.293388 544.23008 
L 173.910124 555.427087 
L 209.938017 567.787941 
L 281.993802 599.130267 
L 498.161157 676.730582 
" clip-path="url(#p2c9d4b4346)" style="fill: none; stroke: #2ca02c; stroke-width: 1.5; stroke-linecap: square"/>
    <g clip-path="url(#p2c9d4b4346)">
     <use xlink:href="#m26251d4e2f" x="152.293388" y="544.23008" style="fill: #2ca02c; stroke: #2ca02c"/>
     <use xlink:href="#m26251d4e2f" x="173.910124" y="555.427087" style="fill: #2ca02c; stroke: #2ca02c"/>
     <use xlink:href="#m26251d4e2f" x="209.938017" y="567.787941" style="fill: #2ca02c; stroke: #2ca02c"/>
     <use xlink:href="#m26251d4e2f" x="281.993802" y="599.130267" style="fill: #2ca02c; stroke: #2ca02c"/>
     <use xlink:href="#m26251d4e2f" x="498.161157" y="676.730582" style="fill: #2ca02c; stroke: #2ca02c"/>
    </g>
   </g>
   <g id="line2d_33">
    <path d="M 152.293388 543.020419 
L 173.910124 549.574127 
L 209.938017 558.297941 
L 281.993802 589.764108 
L 498.161157 659.455099 
" clip-path="url(#p2c9d4b4346)" style="fill: none; stroke: #d62728; stroke-width: 1.5; stroke-linecap: square"/>
    <g clip-path="url(#p2c9d4b4346)">
     <use xlink:href="#me0d622f9ba" x="152.293388" y="543.020419" style="fill: #d62728; stroke: #d62728"/>
     <use xlink:href="#me0d622f9ba" x="173.910124" y="549.574127" style="fill: #d62728; stroke: #d62728"/>
     <use xlink:href="#me0d622f9ba" x="209.938017" y="558.297941" style="fill: #d62728; stroke: #d62728"/>
     <use xlink:href="#me0d622f9ba" x="281.993802" y="589.764108" style="fill: #d62728; stroke: #d62728"/>
     <use xlink:href="#me0d622f9ba" x="498.161157" y="659.455099" style="fill: #d62728; stroke: #d62728"/>
    </g>
   </g>
   <g id="patch_25">
    <path d="M 135 785.785263 
L 135 523.174737 
" style="fill: none; stroke: #000000; stroke-width: 0.8; stroke-linejoin: miter; stroke-linecap: square"/>
   </g>
   <g id="patch_26">
    <path d="M 515.454545 785.785263 
L 515.454545 523.174737 
" style="fill: none; stroke: #000000; stroke-width: 0.8; stroke-linejoin: miter; stroke-linecap: square"/>
   </g>
   <g id="patch_27">
    <path d="M 135 785.785263 
L 515.454545 785.785263 
" style="fill: none; stroke: #000000; stroke-width: 0.8; stroke-linejoin: miter; stroke-linecap: square"/>
   </g>
   <g id="patch_28">
    <path d="M 135 523.174737 
L 515.454545 523.174737 
" style="fill: none; stroke: #000000; stroke-width: 0.8; stroke-linejoin: miter; stroke-linecap: square"/>
   </g>
   <g id="text_35">
    <!-- c -->
    <g transform="translate(91.769432 505.058783) scale(0.28 -0.28)">
     <defs>
      <path id="DejaVuSans-Bold-63" d="M 3366 3391 
L 3366 2478 
Q 3138 2634 2908 2709 
Q 2678 2784 2431 2784 
Q 1963 2784 1702 2511 
Q 1441 2238 1441 1747 
Q 1441 1256 1702 982 
Q 1963 709 2431 709 
Q 2694 709 2930 787 
Q 3166 866 3366 1019 
L 3366 103 
Q 3103 6 2833 -42 
Q 2563 -91 2291 -91 
Q 1344 -91 809 395 
Q 275 881 275 1747 
Q 275 2613 809 3098 
Q 1344 3584 2291 3584 
Q 2566 3584 2833 3536 
Q 3100 3488 3366 3391 
z
" transform="scale(0.015625)"/>
     </defs>
     <use xlink:href="#DejaVuSans-Bold-63"/>
    </g>
   </g>
   <g id="text_36">
    <!-- Trustworthiness -->
    <g transform="translate(230.950398 517.174737) scale(0.24 -0.24)">
     <defs>
      <path id="DejaVuSans-54" d="M -19 4666 
L 3928 4666 
L 3928 4134 
L 2272 4134 
L 2272 0 
L 1638 0 
L 1638 4134 
L -19 4134 
L -19 4666 
z
" transform="scale(0.015625)"/>
      <path id="DejaVuSans-77" d="M 269 3500 
L 844 3500 
L 1563 769 
L 2278 3500 
L 2956 3500 
L 3675 769 
L 4391 3500 
L 4966 3500 
L 4050 0 
L 3372 0 
L 2619 2869 
L 1863 0 
L 1184 0 
L 269 3500 
z
" transform="scale(0.015625)"/>
      <path id="DejaVuSans-6f" d="M 1959 3097 
Q 1497 3097 1228 2736 
Q 959 2375 959 1747 
Q 959 1119 1226 758 
Q 1494 397 1959 397 
Q 2419 397 2687 759 
Q 2956 1122 2956 1747 
Q 2956 2369 2687 2733 
Q 2419 3097 1959 3097 
z
M 1959 3584 
Q 2709 3584 3137 3096 
Q 3566 2609 3566 1747 
Q 3566 888 3137 398 
Q 2709 -91 1959 -91 
Q 1206 -91 779 398 
Q 353 888 353 1747 
Q 353 2609 779 3096 
Q 1206 3584 1959 3584 
z
" transform="scale(0.015625)"/>
      <path id="DejaVuSans-68" d="M 3513 2113 
L 3513 0 
L 2938 0 
L 2938 2094 
Q 2938 2591 2744 2837 
Q 2550 3084 2163 3084 
Q 1697 3084 1428 2787 
Q 1159 2491 1159 1978 
L 1159 0 
L 581 0 
L 581 4863 
L 1159 4863 
L 1159 2956 
Q 1366 3272 1645 3428 
Q 1925 3584 2291 3584 
Q 2894 3584 3203 3211 
Q 3513 2838 3513 2113 
z
" transform="scale(0.015625)"/>
      <path id="DejaVuSans-6e" d="M 3513 2113 
L 3513 0 
L 2938 0 
L 2938 2094 
Q 2938 2591 2744 2837 
Q 2550 3084 2163 3084 
Q 1697 3084 1428 2787 
Q 1159 2491 1159 1978 
L 1159 0 
L 581 0 
L 581 3500 
L 1159 3500 
L 1159 2956 
Q 1366 3272 1645 3428 
Q 1925 3584 2291 3584 
Q 2894 3584 3203 3211 
Q 3513 2838 3513 2113 
z
" transform="scale(0.015625)"/>
     </defs>
     <use xlink:href="#DejaVuSans-54"/>
     <use xlink:href="#DejaVuSans-72" x="46.333984"/>
     <use xlink:href="#DejaVuSans-75" x="87.447266"/>
     <use xlink:href="#DejaVuSans-73" x="150.826172"/>
     <use xlink:href="#DejaVuSans-74" x="202.925781"/>
     <use xlink:href="#DejaVuSans-77" x="242.134766"/>
     <use xlink:href="#DejaVuSans-6f" x="323.921875"/>
     <use xlink:href="#DejaVuSans-72" x="385.103516"/>
     <use xlink:href="#DejaVuSans-74" x="426.216797"/>
     <use xlink:href="#DejaVuSans-68" x="465.425781"/>
     <use xlink:href="#DejaVuSans-69" x="528.804688"/>
     <use xlink:href="#DejaVuSans-6e" x="556.587891"/>
     <use xlink:href="#DejaVuSans-65" x="619.966797"/>
     <use xlink:href="#DejaVuSans-73" x="681.490234"/>
     <use xlink:href="#DejaVuSans-73" x="733.589844"/>
    </g>
   </g>
  </g>
  <g id="axes_4">
   <g id="patch_29">
    <path d="M 591.545455 785.785263 
L 972 785.785263 
L 972 523.174737 
L 591.545455 523.174737 
z
" style="fill: #ffffff"/>
   </g>
   <g id="matplotlib.axis_7">
    <g id="xtick_13">
     <g id="line2d_34">
      <g>
       <use xlink:href="#mc1a4178a3d" x="594.427686" y="785.785263" style="stroke: #000000; stroke-width: 0.8"/>
      </g>
     </g>
     <g id="text_37">
      <!-- 0 -->
      <g transform="translate(587.428936 809.501826) scale(0.22 -0.22)">
       <use xlink:href="#DejaVuSans-30"/>
      </g>
     </g>
    </g>
    <g id="xtick_14">
     <g id="line2d_35">
      <g>
       <use xlink:href="#mc1a4178a3d" x="738.539256" y="785.785263" style="stroke: #000000; stroke-width: 0.8"/>
      </g>
     </g>
     <g id="text_38">
      <!-- 20 -->
      <g transform="translate(724.541756 809.501826) scale(0.22 -0.22)">
       <use xlink:href="#DejaVuSans-32"/>
       <use xlink:href="#DejaVuSans-30" x="63.623047"/>
      </g>
     </g>
    </g>
    <g id="xtick_15">
     <g id="line2d_36">
      <g>
       <use xlink:href="#mc1a4178a3d" x="882.650826" y="785.785263" style="stroke: #000000; stroke-width: 0.8"/>
      </g>
     </g>
     <g id="text_39">
      <!-- 40 -->
      <g transform="translate(868.653326 809.501826) scale(0.22 -0.22)">
       <use xlink:href="#DejaVuSans-34"/>
       <use xlink:href="#DejaVuSans-30" x="63.623047"/>
      </g>
     </g>
    </g>
    <g id="text_40">
     <!-- k -->
     <g transform="translate(774.823977 836.313388) scale(0.24 -0.24)">
      <use xlink:href="#DejaVuSans-6b"/>
     </g>
    </g>
   </g>
   <g id="matplotlib.axis_8">
    <g id="ytick_14">
     <g id="line2d_37">
      <g>
       <use xlink:href="#m063fc0178f" x="591.545455" y="770.533351" style="stroke: #000000; stroke-width: 0.8"/>
      </g>
     </g>
     <g id="text_41">
      <!-- 0.85 -->
      <g transform="translate(535.56108 778.891632) scale(0.22 -0.22)">
       <use xlink:href="#DejaVuSans-30"/>
       <use xlink:href="#DejaVuSans-2e" x="63.623047"/>
       <use xlink:href="#DejaVuSans-38" x="95.410156"/>
       <use xlink:href="#DejaVuSans-35" x="159.033203"/>
      </g>
     </g>
    </g>
    <g id="ytick_15">
     <g id="line2d_38">
      <g>
       <use xlink:href="#m063fc0178f" x="591.545455" y="681.0606" style="stroke: #000000; stroke-width: 0.8"/>
      </g>
     </g>
     <g id="text_42">
      <!-- 0.90 -->
      <g transform="translate(535.56108 689.418881) scale(0.22 -0.22)">
       <use xlink:href="#DejaVuSans-30"/>
       <use xlink:href="#DejaVuSans-2e" x="63.623047"/>
       <use xlink:href="#DejaVuSans-39" x="95.410156"/>
       <use xlink:href="#DejaVuSans-30" x="159.033203"/>
      </g>
     </g>
    </g>
    <g id="ytick_16">
     <g id="line2d_39">
      <g>
       <use xlink:href="#m063fc0178f" x="591.545455" y="591.587849" style="stroke: #000000; stroke-width: 0.8"/>
      </g>
     </g>
     <g id="text_43">
      <!-- 0.95 -->
      <g transform="translate(535.56108 599.946131) scale(0.22 -0.22)">
       <use xlink:href="#DejaVuSans-30"/>
       <use xlink:href="#DejaVuSans-2e" x="63.623047"/>
       <use xlink:href="#DejaVuSans-39" x="95.410156"/>
       <use xlink:href="#DejaVuSans-35" x="159.033203"/>
      </g>
     </g>
    </g>
   </g>
   <g id="line2d_40">
    <path d="M 608.838843 577.590001 
L 630.455579 599.408167 
L 666.483471 623.875622 
L 738.539256 667.182131 
L 954.706612 744.059069 
" clip-path="url(#p4a7bb227c1)" style="fill: none; stroke: #1f77b4; stroke-width: 1.5; stroke-linecap: square"/>
    <g clip-path="url(#p4a7bb227c1)">
     <use xlink:href="#m23a7d2459c" x="608.838843" y="577.590001" style="fill: #1f77b4; stroke: #1f77b4"/>
     <use xlink:href="#m23a7d2459c" x="630.455579" y="599.408167" style="fill: #1f77b4; stroke: #1f77b4"/>
     <use xlink:href="#m23a7d2459c" x="666.483471" y="623.875622" style="fill: #1f77b4; stroke: #1f77b4"/>
     <use xlink:href="#m23a7d2459c" x="738.539256" y="667.182131" style="fill: #1f77b4; stroke: #1f77b4"/>
     <use xlink:href="#m23a7d2459c" x="954.706612" y="744.059069" style="fill: #1f77b4; stroke: #1f77b4"/>
    </g>
   </g>
   <g id="line2d_41">
    <path d="M 608.838843 535.111579 
L 630.455579 554.972717 
L 666.483471 574.339128 
L 738.539256 623.587659 
L 954.706612 722.268163 
" clip-path="url(#p4a7bb227c1)" style="fill: none; stroke: #ff7f0e; stroke-width: 1.5; stroke-linecap: square"/>
    <g clip-path="url(#p4a7bb227c1)">
     <use xlink:href="#mb584ae2bda" x="608.838843" y="535.111579" style="fill: #ff7f0e; stroke: #ff7f0e"/>
     <use xlink:href="#mb584ae2bda" x="630.455579" y="554.972717" style="fill: #ff7f0e; stroke: #ff7f0e"/>
     <use xlink:href="#mb584ae2bda" x="666.483471" y="574.339128" style="fill: #ff7f0e; stroke: #ff7f0e"/>
     <use xlink:href="#mb584ae2bda" x="738.539256" y="623.587659" style="fill: #ff7f0e; stroke: #ff7f0e"/>
     <use xlink:href="#mb584ae2bda" x="954.706612" y="722.268163" style="fill: #ff7f0e; stroke: #ff7f0e"/>
    </g>
   </g>
   <g id="line2d_42">
    <path d="M 608.838843 539.049776 
L 630.455579 559.103281 
L 666.483471 578.99326 
L 738.539256 633.206642 
L 954.706612 736.790293 
" clip-path="url(#p4a7bb227c1)" style="fill: none; stroke: #2ca02c; stroke-width: 1.5; stroke-linecap: square"/>
    <g clip-path="url(#p4a7bb227c1)">
     <use xlink:href="#m26251d4e2f" x="608.838843" y="539.049776" style="fill: #2ca02c; stroke: #2ca02c"/>
     <use xlink:href="#m26251d4e2f" x="630.455579" y="559.103281" style="fill: #2ca02c; stroke: #2ca02c"/>
     <use xlink:href="#m26251d4e2f" x="666.483471" y="578.99326" style="fill: #2ca02c; stroke: #2ca02c"/>
     <use xlink:href="#m26251d4e2f" x="738.539256" y="633.206642" style="fill: #2ca02c; stroke: #2ca02c"/>
     <use xlink:href="#m26251d4e2f" x="954.706612" y="736.790293" style="fill: #2ca02c; stroke: #2ca02c"/>
    </g>
   </g>
   <g id="line2d_43">
    <path d="M 608.838843 561.58818 
L 630.455579 585.045312 
L 666.483471 610.800525 
L 738.539256 666.18126 
L 954.706612 773.848421 
" clip-path="url(#p4a7bb227c1)" style="fill: none; stroke: #d62728; stroke-width: 1.5; stroke-linecap: square"/>
    <g clip-path="url(#p4a7bb227c1)">
     <use xlink:href="#me0d622f9ba" x="608.838843" y="561.58818" style="fill: #d62728; stroke: #d62728"/>
     <use xlink:href="#me0d622f9ba" x="630.455579" y="585.045312" style="fill: #d62728; stroke: #d62728"/>
     <use xlink:href="#me0d622f9ba" x="666.483471" y="610.800525" style="fill: #d62728; stroke: #d62728"/>
     <use xlink:href="#me0d622f9ba" x="738.539256" y="666.18126" style="fill: #d62728; stroke: #d62728"/>
     <use xlink:href="#me0d622f9ba" x="954.706612" y="773.848421" style="fill: #d62728; stroke: #d62728"/>
    </g>
   </g>
   <g id="patch_30">
    <path d="M 591.545455 785.785263 
L 591.545455 523.174737 
" style="fill: none; stroke: #000000; stroke-width: 0.8; stroke-linejoin: miter; stroke-linecap: square"/>
   </g>
   <g id="patch_31">
    <path d="M 972 785.785263 
L 972 523.174737 
" style="fill: none; stroke: #000000; stroke-width: 0.8; stroke-linejoin: miter; stroke-linecap: square"/>
   </g>
   <g id="patch_32">
    <path d="M 591.545455 785.785263 
L 972 785.785263 
" style="fill: none; stroke: #000000; stroke-width: 0.8; stroke-linejoin: miter; stroke-linecap: square"/>
   </g>
   <g id="patch_33">
    <path d="M 591.545455 523.174737 
L 972 523.174737 
" style="fill: none; stroke: #000000; stroke-width: 0.8; stroke-linejoin: miter; stroke-linecap: square"/>
   </g>
   <g id="text_44">
    <!-- d -->
    <g transform="translate(544.871761 505.058783) scale(0.28 -0.28)">
     <defs>
      <path id="DejaVuSans-Bold-64" d="M 2919 2988 
L 2919 4863 
L 4044 4863 
L 4044 0 
L 2919 0 
L 2919 506 
Q 2688 197 2409 53 
Q 2131 -91 1766 -91 
Q 1119 -91 703 423 
Q 288 938 288 1747 
Q 288 2556 703 3070 
Q 1119 3584 1766 3584 
Q 2128 3584 2408 3439 
Q 2688 3294 2919 2988 
z
M 2181 722 
Q 2541 722 2730 984 
Q 2919 1247 2919 1747 
Q 2919 2247 2730 2509 
Q 2541 2772 2181 2772 
Q 1825 2772 1636 2509 
Q 1447 2247 1447 1747 
Q 1447 1247 1636 984 
Q 1825 722 2181 722 
z
" transform="scale(0.015625)"/>
     </defs>
     <use xlink:href="#DejaVuSans-Bold-64"/>
    </g>
   </g>
   <g id="text_45">
    <!-- Continuity -->
    <g transform="translate(720.057102 517.174737) scale(0.24 -0.24)">
     <defs>
      <path id="DejaVuSans-79" d="M 2059 -325 
Q 1816 -950 1584 -1140 
Q 1353 -1331 966 -1331 
L 506 -1331 
L 506 -850 
L 844 -850 
Q 1081 -850 1212 -737 
Q 1344 -625 1503 -206 
L 1606 56 
L 191 3500 
L 800 3500 
L 1894 763 
L 2988 3500 
L 3597 3500 
L 2059 -325 
z
" transform="scale(0.015625)"/>
     </defs>
     <use xlink:href="#DejaVuSans-43"/>
     <use xlink:href="#DejaVuSans-6f" x="69.824219"/>
     <use xlink:href="#DejaVuSans-6e" x="131.005859"/>
     <use xlink:href="#DejaVuSans-74" x="194.384766"/>
     <use xlink:href="#DejaVuSans-69" x="233.59375"/>
     <use xlink:href="#DejaVuSans-6e" x="261.376953"/>
     <use xlink:href="#DejaVuSans-75" x="324.755859"/>
     <use xlink:href="#DejaVuSans-69" x="388.134766"/>
     <use xlink:href="#DejaVuSans-74" x="415.917969"/>
     <use xlink:href="#DejaVuSans-79" x="455.126953"/>
    </g>
   </g>
  </g>
  <g id="axes_5">
   <g id="patch_34">
    <path d="M 135 1153.44 
L 515.454545 1153.44 
L 515.454545 890.829474 
L 135 890.829474 
z
" style="fill: #ffffff"/>
   </g>
   <g id="matplotlib.axis_9">
    <g id="xtick_16">
     <g id="line2d_44">
      <g>
       <use xlink:href="#mc1a4178a3d" x="152.109416" y="1153.44" style="stroke: #000000; stroke-width: 0.8"/>
      </g>
     </g>
     <g id="text_46">
      <!-- 0 -->
      <g transform="translate(145.110666 1177.156562) scale(0.22 -0.22)">
       <use xlink:href="#DejaVuSans-30"/>
      </g>
     </g>
    </g>
    <g id="xtick_17">
     <g id="line2d_45">
      <g>
       <use xlink:href="#mc1a4178a3d" x="244.095525" y="1153.44" style="stroke: #000000; stroke-width: 0.8"/>
      </g>
     </g>
     <g id="text_47">
      <!-- 500 -->
      <g transform="translate(223.099275 1177.156562) scale(0.22 -0.22)">
       <use xlink:href="#DejaVuSans-35"/>
       <use xlink:href="#DejaVuSans-30" x="63.623047"/>
       <use xlink:href="#DejaVuSans-30" x="127.246094"/>
      </g>
     </g>
    </g>
    <g id="xtick_18">
     <g id="line2d_46">
      <g>
       <use xlink:href="#mc1a4178a3d" x="336.081634" y="1153.44" style="stroke: #000000; stroke-width: 0.8"/>
      </g>
     </g>
     <g id="text_48">
      <!-- 1000 -->
      <g transform="translate(308.086634 1177.156562) scale(0.22 -0.22)">
       <use xlink:href="#DejaVuSans-31"/>
       <use xlink:href="#DejaVuSans-30" x="63.623047"/>
       <use xlink:href="#DejaVuSans-30" x="127.246094"/>
       <use xlink:href="#DejaVuSans-30" x="190.869141"/>
      </g>
     </g>
    </g>
    <g id="xtick_19">
     <g id="line2d_47">
      <g>
       <use xlink:href="#mc1a4178a3d" x="428.067742" y="1153.44" style="stroke: #000000; stroke-width: 0.8"/>
      </g>
     </g>
     <g id="text_49">
      <!-- 1500 -->
      <g transform="translate(400.072742 1177.156562) scale(0.22 -0.22)">
       <use xlink:href="#DejaVuSans-31"/>
       <use xlink:href="#DejaVuSans-35" x="63.623047"/>
       <use xlink:href="#DejaVuSans-30" x="127.246094"/>
       <use xlink:href="#DejaVuSans-30" x="190.869141"/>
      </g>
     </g>
    </g>
    <g id="text_50">
     <!-- k -->
     <g transform="translate(318.278523 1203.968125) scale(0.24 -0.24)">
      <use xlink:href="#DejaVuSans-6b"/>
     </g>
    </g>
   </g>
   <g id="matplotlib.axis_10">
    <g id="ytick_17">
     <g id="line2d_48">
      <g>
       <use xlink:href="#m063fc0178f" x="135" y="1153.213772" style="stroke: #000000; stroke-width: 0.8"/>
      </g>
     </g>
     <g id="text_51">
      <!-- 0.00 -->
      <g transform="translate(79.015625 1161.572053) scale(0.22 -0.22)">
       <use xlink:href="#DejaVuSans-30"/>
       <use xlink:href="#DejaVuSans-2e" x="63.623047"/>
       <use xlink:href="#DejaVuSans-30" x="95.410156"/>
       <use xlink:href="#DejaVuSans-30" x="159.033203"/>
      </g>
     </g>
    </g>
    <g id="ytick_18">
     <g id="line2d_49">
      <g>
       <use xlink:href="#m063fc0178f" x="135" y="1090.601908" style="stroke: #000000; stroke-width: 0.8"/>
      </g>
     </g>
     <g id="text_52">
      <!-- 0.25 -->
      <g transform="translate(79.015625 1098.960189) scale(0.22 -0.22)">
       <use xlink:href="#DejaVuSans-30"/>
       <use xlink:href="#DejaVuSans-2e" x="63.623047"/>
       <use xlink:href="#DejaVuSans-32" x="95.410156"/>
       <use xlink:href="#DejaVuSans-35" x="159.033203"/>
      </g>
     </g>
    </g>
    <g id="ytick_19">
     <g id="line2d_50">
      <g>
       <use xlink:href="#m063fc0178f" x="135" y="1027.990044" style="stroke: #000000; stroke-width: 0.8"/>
      </g>
     </g>
     <g id="text_53">
      <!-- 0.50 -->
      <g transform="translate(79.015625 1036.348325) scale(0.22 -0.22)">
       <use xlink:href="#DejaVuSans-30"/>
       <use xlink:href="#DejaVuSans-2e" x="63.623047"/>
       <use xlink:href="#DejaVuSans-35" x="95.410156"/>
       <use xlink:href="#DejaVuSans-30" x="159.033203"/>
      </g>
     </g>
    </g>
    <g id="ytick_20">
     <g id="line2d_51">
      <g>
       <use xlink:href="#m063fc0178f" x="135" y="965.37818" style="stroke: #000000; stroke-width: 0.8"/>
      </g>
     </g>
     <g id="text_54">
      <!-- 0.75 -->
      <g transform="translate(79.015625 973.736461) scale(0.22 -0.22)">
       <defs>
        <path id="DejaVuSans-37" d="M 525 4666 
L 3525 4666 
L 3525 4397 
L 1831 0 
L 1172 0 
L 2766 4134 
L 525 4134 
L 525 4666 
z
" transform="scale(0.015625)"/>
       </defs>
       <use xlink:href="#DejaVuSans-30"/>
       <use xlink:href="#DejaVuSans-2e" x="63.623047"/>
       <use xlink:href="#DejaVuSans-37" x="95.410156"/>
       <use xlink:href="#DejaVuSans-35" x="159.033203"/>
      </g>
     </g>
    </g>
    <g id="ytick_21">
     <g id="line2d_52">
      <g>
       <use xlink:href="#m063fc0178f" x="135" y="902.766316" style="stroke: #000000; stroke-width: 0.8"/>
      </g>
     </g>
     <g id="text_55">
      <!-- 1.00 -->
      <g transform="translate(79.015625 911.124597) scale(0.22 -0.22)">
       <use xlink:href="#DejaVuSans-31"/>
       <use xlink:href="#DejaVuSans-2e" x="63.623047"/>
       <use xlink:href="#DejaVuSans-30" x="95.410156"/>
       <use xlink:href="#DejaVuSans-30" x="159.033203"/>
      </g>
     </g>
    </g>
    <g id="text_56">
     <!-- Metric Value -->
     <g transform="translate(70.024375 1096.210362) rotate(-90) scale(0.24 -0.24)">
      <use xlink:href="#DejaVuSans-4d"/>
      <use xlink:href="#DejaVuSans-65" x="86.279297"/>
      <use xlink:href="#DejaVuSans-74" x="147.802734"/>
      <use xlink:href="#DejaVuSans-72" x="187.011719"/>
      <use xlink:href="#DejaVuSans-69" x="228.125"/>
      <use xlink:href="#DejaVuSans-63" x="255.908203"/>
      <use xlink:href="#DejaVuSans-20" x="310.888672"/>
      <use xlink:href="#DejaVuSans-56" x="342.675781"/>
      <use xlink:href="#DejaVuSans-61" x="403.333984"/>
      <use xlink:href="#DejaVuSans-6c" x="464.613281"/>
      <use xlink:href="#DejaVuSans-75" x="492.396484"/>
      <use xlink:href="#DejaVuSans-65" x="555.775391"/>
     </g>
    </g>
   </g>
   <g id="line2d_53">
    <path d="M 152.293388 1141.503158 
L 152.661333 1130.901503 
L 153.029277 1124.975223 
L 154.133111 1114.27114 
L 154.868999 1109.538504 
L 155.420916 1106.541355 
L 157.628583 1098.315832 
L 160.020222 1092.101325 
L 160.75611 1090.079517 
L 161.491999 1088.440089 
L 162.963777 1085.119888 
L 163.883638 1083.14762 
L 165.539388 1079.426329 
L 167.747055 1075.125267 
L 169.402805 1073.079873 
L 170.138694 1072.467022 
L 170.69061 1072.03924 
L 171.058555 1071.760145 
L 171.426499 1071.425777 
L 172.530332 1070.55971 
L 176.761693 1066.65831 
L 183.200721 1061.411596 
L 184.672499 1060.465647 
L 186.144276 1059.556192 
L 187.24811 1058.976352 
L 188.167971 1058.378708 
L 191.663443 1056.850024 
L 193.503165 1056.085464 
L 195.52686 1055.245642 
L 197.182609 1054.596386 
L 208.220943 1050.303913 
L 234.712942 1038.655322 
L 237.104581 1037.718933 
L 241.151969 1035.94211 
L 251.822358 1032.097205 
L 255.501802 1030.854712 
L 260.469052 1028.936708 
L 267.276024 1026.276223 
L 277.394496 1022.817895 
L 280.338052 1021.778661 
L 287.145024 1019.42682 
L 294.503912 1016.569135 
L 302.230746 1013.44457 
L 305.174301 1012.246069 
L 320.443995 1005.515612 
L 329.274662 1001.355112 
L 352.639133 989.986219 
L 355.214744 988.685137 
L 363.309522 984.588067 
L 366.437049 982.995904 
L 378.763188 976.612554 
L 386.673993 972.456474 
L 394.952743 968.034844 
L 401.759715 964.292151 
L 418.685159 954.606393 
L 429.53952 948.221279 
L 455.663575 932.256336 
L 461.91863 928.176007 
L 472.037102 921.393548 
L 480.499824 915.430598 
L 497.425268 903.294646 
L 498.161157 902.766316 
L 498.161157 902.766316 
" clip-path="url(#p0546a3f375)" style="fill: none; stroke: #1f77b4; stroke-width: 1.5; stroke-linecap: square"/>
   </g>
   <g id="line2d_54">
    <path d="M 152.293388 1073.102524 
L 152.661333 1040.898335 
L 153.581194 1020.288319 
L 154.317083 1010.291047 
L 154.501055 1009.973714 
L 154.685027 1010.119951 
L 155.052972 1011.339014 
L 155.788861 1013.398352 
L 156.156805 1015.136193 
L 156.708722 1017.189664 
L 157.076666 1018.206555 
L 157.444611 1019.285093 
L 158.548444 1024.309565 
L 158.916388 1024.968878 
L 159.284333 1026.024626 
L 159.468305 1026.436391 
L 160.020222 1028.126214 
L 162.043916 1033.786207 
L 164.619527 1039.450164 
L 166.275277 1041.707155 
L 166.459249 1041.807682 
L 167.195138 1042.633181 
L 167.747055 1043.290557 
L 168.482944 1044.456974 
L 169.402805 1045.536146 
L 171.058555 1047.69938 
L 171.978416 1048.712804 
L 173.082249 1049.898418 
L 173.818138 1050.636505 
L 176.945666 1052.8889 
L 178.049499 1053.402681 
L 180.809082 1054.447263 
L 181.360999 1054.602566 
L 182.28086 1054.989696 
L 182.832777 1055.223438 
L 184.120582 1055.685739 
L 185.040443 1055.932111 
L 187.616054 1056.34057 
L 188.351943 1056.530951 
L 189.823721 1056.805685 
L 190.191665 1056.875069 
L 192.399332 1057.329775 
L 193.503165 1057.239373 
L 195.52686 1057.041593 
L 197.918498 1056.77169 
L 201.597943 1056.606646 
L 203.621637 1056.401116 
L 209.324776 1055.169897 
L 213.740109 1053.840788 
L 214.843942 1053.535402 
L 217.051609 1052.945972 
L 218.155442 1052.635638 
L 229.929664 1048.615121 
L 231.033497 1048.216228 
L 233.241164 1047.502906 
L 234.712942 1046.92169 
L 244.279497 1043.538057 
L 247.223053 1042.345173 
L 249.798664 1041.479254 
L 252.374275 1040.409253 
L 253.478108 1040.019942 
L 260.469052 1037.12388 
L 261.94083 1036.48657 
L 279.050246 1029.837474 
L 281.257913 1028.931238 
L 286.593107 1026.748495 
L 292.296246 1024.388807 
L 293.951996 1023.728877 
L 295.97569 1022.711453 
L 300.023079 1020.895185 
L 302.230746 1019.912088 
L 323.939467 1009.059176 
L 337.921356 1001.94091 
L 342.152717 999.876273 
L 347.671883 997.01608 
L 395.320688 971.396861 
L 403.415465 966.758908 
L 409.118604 963.405343 
L 414.63777 960.094574 
L 418.685159 957.665193 
L 423.468437 954.82568 
L 425.860076 953.370114 
L 446.280992 940.677258 
L 459.526991 931.714026 
L 474.244769 920.713299 
L 486.75488 911.219698 
L 488.226657 910.119975 
L 497.977185 902.899533 
L 498.161157 902.766316 
L 498.161157 902.766316 
" clip-path="url(#p0546a3f375)" style="fill: none; stroke: #ff7f0e; stroke-width: 1.5; stroke-linecap: square"/>
   </g>
   <g id="line2d_55">
    <path d="M 152.293388 1110.62972 
L 152.661333 1074.921218 
L 153.21325 1048.749769 
L 153.949138 1026.180222 
L 154.317083 1020.471297 
L 154.868999 1017.370646 
L 155.052972 1016.570532 
L 155.604888 1016.363477 
L 155.788861 1016.878268 
L 155.972833 1017.05887 
L 156.708722 1018.791889 
L 157.260638 1020.556846 
L 157.444611 1021.12979 
L 158.548444 1026.419757 
L 160.204194 1031.289703 
L 160.388166 1031.500271 
L 161.124055 1033.321198 
L 161.491999 1033.96277 
L 163.147749 1037.227678 
L 163.699666 1037.985467 
L 164.619527 1039.326874 
L 165.171444 1039.816865 
L 165.72336 1040.357043 
L 167.747055 1042.686239 
L 169.586777 1044.529186 
L 170.874582 1046.355721 
L 171.794443 1047.326984 
L 172.530332 1047.948921 
L 178.233471 1051.909836 
L 179.705249 1052.654195 
L 180.257165 1052.914239 
L 182.096888 1053.650691 
L 183.568665 1053.70857 
L 184.120582 1053.730146 
L 184.672499 1053.781063 
L 185.040443 1053.810343 
L 185.59236 1053.781765 
L 191.847415 1055.852656 
L 195.158915 1056.489171 
L 195.894804 1056.72701 
L 196.630693 1056.876153 
L 197.182609 1056.973271 
L 200.678082 1057.122415 
L 201.046026 1057.047956 
L 202.333832 1057.004817 
L 203.621637 1056.970012 
L 205.277387 1056.974183 
L 206.197248 1056.962408 
L 207.301081 1057.002204 
L 208.956831 1056.830748 
L 210.244637 1056.465181 
L 212.820248 1055.956798 
L 213.924081 1055.743344 
L 218.523387 1054.466472 
L 226.066248 1052.855237 
L 229.929664 1051.743174 
L 234.161025 1050.278642 
L 237.288553 1049.070817 
L 240.416081 1047.950487 
L 242.623747 1047.447147 
L 246.119219 1046.581764 
L 248.510858 1045.988206 
L 253.294136 1044.600002 
L 254.949886 1044.271397 
L 256.97358 1043.799373 
L 258.261386 1043.410157 
L 265.804247 1040.839119 
L 269.851635 1039.442825 
L 272.611219 1038.666939 
L 273.899024 1038.275628 
L 278.314357 1036.711123 
L 281.257913 1035.778732 
L 285.673246 1034.204984 
L 292.66419 1031.26763 
L 295.791718 1029.81987 
L 306.830051 1025.2336 
L 311.061412 1023.325636 
L 315.108801 1021.498199 
L 316.580579 1020.822592 
L 322.467689 1017.940426 
L 331.6663 1013.345504 
L 341.968745 1008.056751 
L 345.464217 1006.259921 
L 350.247494 1003.743675 
L 354.8468 1001.206313 
L 357.606383 999.666955 
L 360.181994 998.276749 
L 370.66841 992.778782 
L 372.508133 991.755499 
L 377.475382 989.153063 
L 384.466327 984.954822 
L 388.329743 982.391383 
L 392.561104 979.634786 
L 398.264243 976.037321 
L 402.311632 973.422769 
L 414.453798 965.236053 
L 432.299103 952.920885 
L 447.568797 941.568829 
L 452.168103 938.076272 
L 457.319325 934.117669 
L 463.390408 929.406123 
L 486.018991 911.833097 
L 498.161157 902.766316 
L 498.161157 902.766316 
" clip-path="url(#p0546a3f375)" style="fill: none; stroke: #2ca02c; stroke-width: 1.5; stroke-linecap: square"/>
   </g>
   <g id="line2d_56">
    <path d="M 152.293388 1107.302841 
L 152.661333 1074.078409 
L 153.21325 1045.689041 
L 153.765166 1027.649963 
L 154.133111 1020.283782 
L 154.501055 1016.392032 
L 154.868999 1014.123612 
L 155.052972 1013.343459 
L 155.236944 1013.179561 
L 155.420916 1013.196522 
L 155.788861 1012.959204 
L 155.972833 1012.832149 
L 156.156805 1013.079577 
L 156.524749 1013.950614 
L 156.892694 1014.979388 
L 157.260638 1016.341215 
L 157.444611 1016.605234 
L 157.996527 1018.500121 
L 159.10036 1021.746017 
L 159.836249 1023.0726 
L 160.388166 1024.562619 
L 160.940083 1025.658456 
L 161.491999 1027.168109 
L 161.675972 1027.406561 
L 163.515694 1031.990884 
L 164.06761 1032.99367 
L 164.435555 1033.509684 
L 164.803499 1033.939854 
L 165.355416 1034.616078 
L 165.907333 1035.62501 
L 166.091305 1035.692645 
L 167.195138 1037.040778 
L 167.931027 1037.962944 
L 169.03486 1039.493813 
L 170.69061 1042.555845 
L 171.610471 1044.222703 
L 172.714305 1046.11203 
L 173.634166 1047.367835 
L 174.186082 1047.966844 
L 176.577721 1050.27363 
L 177.31361 1050.817777 
L 177.681554 1051.067575 
L 178.96936 1052.233422 
L 181.177027 1054.314501 
L 181.728943 1054.641445 
L 183.568665 1055.89147 
L 184.488526 1056.313883 
L 186.880165 1057.474994 
L 188.351943 1057.954247 
L 188.90386 1058.11693 
L 190.007693 1058.315031 
L 190.55961 1058.32354 
L 192.031387 1058.6329 
L 192.951248 1058.850894 
L 194.055082 1059.0129 
L 194.974943 1059.018831 
L 195.894804 1059.131869 
L 196.630693 1059.219815 
L 199.574248 1059.00481 
L 200.310137 1058.875164 
L 201.046026 1058.845972 
L 203.621637 1058.766052 
L 205.461359 1058.50372 
L 206.749165 1058.228126 
L 209.69272 1057.753388 
L 210.980526 1057.573484 
L 213.188192 1057.05374 
L 215.395859 1056.66426 
L 217.787498 1055.928373 
L 220.179137 1055.492364 
L 228.089942 1053.120628 
L 230.297609 1052.461157 
L 237.472525 1050.144477 
L 238.576358 1049.687808 
L 240.232108 1049.10121 
L 244.831414 1047.177159 
L 255.31783 1042.006346 
L 256.789608 1041.421982 
L 259.181247 1040.301097 
L 261.020969 1039.445298 
L 272.427246 1033.969473 
L 274.266969 1032.927854 
L 279.050246 1030.593688 
L 284.569413 1028.002243 
L 285.857218 1027.299591 
L 289.720635 1025.276592 
L 297.815412 1021.003094 
L 303.886496 1017.803423 
L 314.556884 1011.979429 
L 316.396606 1010.985333 
L 323.755495 1007.108511 
L 329.826578 1003.662775 
L 331.6663 1002.645497 
L 336.449578 999.913442 
L 338.473272 998.685264 
L 341.048883 997.199406 
L 343.072578 996.146106 
L 345.832161 994.564798 
L 347.855855 993.385124 
L 349.143661 992.671076 
L 351.351328 991.551656 
L 355.030772 989.59044 
L 356.318577 988.893161 
L 362.573633 985.54942 
L 366.253077 983.687905 
L 367.908827 982.783515 
L 375.083744 978.855554 
L 377.843327 977.325499 
L 380.050993 976.145078 
L 410.222437 959.204128 
L 429.723492 947.705066 
L 452.352075 933.651577 
L 464.678213 925.647411 
L 478.108185 916.961651 
L 487.674741 910.25121 
L 496.505407 903.942595 
L 498.161157 902.766316 
L 498.161157 902.766316 
" clip-path="url(#p0546a3f375)" style="fill: none; stroke: #d62728; stroke-width: 1.5; stroke-linecap: square"/>
   </g>
   <g id="patch_35">
    <path d="M 135 1153.44 
L 135 890.829474 
" style="fill: none; stroke: #000000; stroke-width: 0.8; stroke-linejoin: miter; stroke-linecap: square"/>
   </g>
   <g id="patch_36">
    <path d="M 515.454545 1153.44 
L 515.454545 890.829474 
" style="fill: none; stroke: #000000; stroke-width: 0.8; stroke-linejoin: miter; stroke-linecap: square"/>
   </g>
   <g id="patch_37">
    <path d="M 135 1153.44 
L 515.454545 1153.44 
" style="fill: none; stroke: #000000; stroke-width: 0.8; stroke-linejoin: miter; stroke-linecap: square"/>
   </g>
   <g id="patch_38">
    <path d="M 135 890.829474 
L 515.454545 890.829474 
" style="fill: none; stroke: #000000; stroke-width: 0.8; stroke-linejoin: miter; stroke-linecap: square"/>
   </g>
   <g id="text_57">
    <!-- e -->
    <g transform="translate(89.376307 872.71352) scale(0.28 -0.28)">
     <defs>
      <path id="DejaVuSans-Bold-65" d="M 4031 1759 
L 4031 1441 
L 1416 1441 
Q 1456 1047 1700 850 
Q 1944 653 2381 653 
Q 2734 653 3104 758 
Q 3475 863 3866 1075 
L 3866 213 
Q 3469 63 3072 -14 
Q 2675 -91 2278 -91 
Q 1328 -91 801 392 
Q 275 875 275 1747 
Q 275 2603 792 3093 
Q 1309 3584 2216 3584 
Q 3041 3584 3536 3087 
Q 4031 2591 4031 1759 
z
M 2881 2131 
Q 2881 2450 2695 2645 
Q 2509 2841 2209 2841 
Q 1884 2841 1681 2658 
Q 1478 2475 1428 2131 
L 2881 2131 
z
" transform="scale(0.015625)"/>
     </defs>
     <use xlink:href="#DejaVuSans-Bold-65"/>
    </g>
   </g>
   <g id="text_58">
    <!-- $Q_{NN}$ -->
    <g transform="translate(302.787273 884.829474) scale(0.24 -0.24)">
     <use xlink:href="#DejaVuSans-Oblique-51" transform="translate(0 0.78125)"/>
     <use xlink:href="#DejaVuSans-Oblique-4e" transform="translate(78.710938 -15.625) scale(0.7)"/>
     <use xlink:href="#DejaVuSans-Oblique-4e" transform="translate(131.074219 -15.625) scale(0.7)"/>
    </g>
   </g>
  </g>
  <g id="axes_6">
   <g id="patch_39">
    <path d="M 591.545455 1153.44 
L 972 1153.44 
L 972 890.829474 
L 591.545455 890.829474 
z
" style="fill: #ffffff"/>
   </g>
   <g id="matplotlib.axis_11">
    <g id="xtick_20">
     <g id="line2d_57">
      <g>
       <use xlink:href="#mc1a4178a3d" x="608.654871" y="1153.44" style="stroke: #000000; stroke-width: 0.8"/>
      </g>
     </g>
     <g id="text_59">
      <!-- 0 -->
      <g transform="translate(601.656121 1177.156562) scale(0.22 -0.22)">
       <use xlink:href="#DejaVuSans-30"/>
      </g>
     </g>
    </g>
    <g id="xtick_21">
     <g id="line2d_58">
      <g>
       <use xlink:href="#mc1a4178a3d" x="700.640979" y="1153.44" style="stroke: #000000; stroke-width: 0.8"/>
      </g>
     </g>
     <g id="text_60">
      <!-- 500 -->
      <g transform="translate(679.644729 1177.156562) scale(0.22 -0.22)">
       <use xlink:href="#DejaVuSans-35"/>
       <use xlink:href="#DejaVuSans-30" x="63.623047"/>
       <use xlink:href="#DejaVuSans-30" x="127.246094"/>
      </g>
     </g>
    </g>
    <g id="xtick_22">
     <g id="line2d_59">
      <g>
       <use xlink:href="#mc1a4178a3d" x="792.627088" y="1153.44" style="stroke: #000000; stroke-width: 0.8"/>
      </g>
     </g>
     <g id="text_61">
      <!-- 1000 -->
      <g transform="translate(764.632088 1177.156562) scale(0.22 -0.22)">
       <use xlink:href="#DejaVuSans-31"/>
       <use xlink:href="#DejaVuSans-30" x="63.623047"/>
       <use xlink:href="#DejaVuSans-30" x="127.246094"/>
       <use xlink:href="#DejaVuSans-30" x="190.869141"/>
      </g>
     </g>
    </g>
    <g id="xtick_23">
     <g id="line2d_60">
      <g>
       <use xlink:href="#mc1a4178a3d" x="884.613197" y="1153.44" style="stroke: #000000; stroke-width: 0.8"/>
      </g>
     </g>
     <g id="text_62">
      <!-- 1500 -->
      <g transform="translate(856.618197 1177.156562) scale(0.22 -0.22)">
       <use xlink:href="#DejaVuSans-31"/>
       <use xlink:href="#DejaVuSans-35" x="63.623047"/>
       <use xlink:href="#DejaVuSans-30" x="127.246094"/>
       <use xlink:href="#DejaVuSans-30" x="190.869141"/>
      </g>
     </g>
    </g>
    <g id="text_63">
     <!-- k -->
     <g transform="translate(774.823977 1203.968125) scale(0.24 -0.24)">
      <use xlink:href="#DejaVuSans-6b"/>
     </g>
    </g>
   </g>
   <g id="matplotlib.axis_12">
    <g id="ytick_22">
     <g id="line2d_61">
      <g>
       <use xlink:href="#m063fc0178f" x="591.545455" y="1137.334503" style="stroke: #000000; stroke-width: 0.8"/>
      </g>
     </g>
     <g id="text_64">
      <!-- 0.0 -->
      <g transform="translate(549.55858 1145.692785) scale(0.22 -0.22)">
       <use xlink:href="#DejaVuSans-30"/>
       <use xlink:href="#DejaVuSans-2e" x="63.623047"/>
       <use xlink:href="#DejaVuSans-30" x="95.410156"/>
      </g>
     </g>
    </g>
    <g id="ytick_23">
     <g id="line2d_62">
      <g>
       <use xlink:href="#m063fc0178f" x="591.545455" y="1054.305242" style="stroke: #000000; stroke-width: 0.8"/>
      </g>
     </g>
     <g id="text_65">
      <!-- 0.2 -->
      <g transform="translate(549.55858 1062.663523) scale(0.22 -0.22)">
       <use xlink:href="#DejaVuSans-30"/>
       <use xlink:href="#DejaVuSans-2e" x="63.623047"/>
       <use xlink:href="#DejaVuSans-32" x="95.410156"/>
      </g>
     </g>
    </g>
    <g id="ytick_24">
     <g id="line2d_63">
      <g>
       <use xlink:href="#m063fc0178f" x="591.545455" y="971.27598" style="stroke: #000000; stroke-width: 0.8"/>
      </g>
     </g>
     <g id="text_66">
      <!-- 0.4 -->
      <g transform="translate(549.55858 979.634261) scale(0.22 -0.22)">
       <use xlink:href="#DejaVuSans-30"/>
       <use xlink:href="#DejaVuSans-2e" x="63.623047"/>
       <use xlink:href="#DejaVuSans-34" x="95.410156"/>
      </g>
     </g>
    </g>
   </g>
   <g id="line2d_64">
    <path d="M 608.838843 1118.143479 
L 609.206787 1101.011391 
L 609.574732 1091.62929 
L 610.678565 1075.210237 
L 611.230482 1069.86778 
L 611.966371 1063.942139 
L 614.174037 1052.955821 
L 616.197732 1046.742273 
L 617.117593 1043.489364 
L 618.221426 1040.697677 
L 619.325259 1037.764913 
L 619.877176 1036.721058 
L 620.613065 1034.806112 
L 622.084843 1031.134553 
L 624.108537 1026.96115 
L 624.660454 1026.244501 
L 625.764287 1025.194284 
L 625.948259 1025.249359 
L 626.500176 1025.084863 
L 626.86812 1025.046851 
L 627.604009 1025.048099 
L 627.787981 1024.914776 
L 628.707842 1024.970937 
L 633.859065 1023.403266 
L 636.434676 1022.87735 
L 636.986592 1022.741426 
L 638.274398 1022.581944 
L 639.746175 1022.460691 
L 640.11412 1022.521173 
L 640.482064 1022.522884 
L 641.401925 1022.668291 
L 642.689731 1022.916421 
L 643.793564 1023.279498 
L 644.161509 1023.253792 
L 644.897398 1023.469337 
L 645.817259 1023.850462 
L 646.369175 1024.184071 
L 646.921092 1024.394592 
L 649.496703 1025.755016 
L 649.864647 1025.935356 
L 650.600536 1026.262371 
L 653.912036 1028.042352 
L 655.01587 1028.766563 
L 655.935731 1029.271452 
L 658.143397 1030.520354 
L 660.167092 1031.749095 
L 664.398453 1033.895413 
L 664.950369 1034.149698 
L 666.054203 1034.687454 
L 668.629814 1035.783239 
L 669.18173 1036.016662 
L 670.83748 1036.741056 
L 678.012397 1040.308364 
L 680.588008 1041.341716 
L 681.691841 1041.757066 
L 683.163619 1042.554828 
L 685.003341 1043.357473 
L 686.659091 1044.09274 
L 689.970591 1045.895785 
L 691.074424 1046.401944 
L 692.178257 1047.090551 
L 693.834007 1047.932571 
L 695.489757 1048.699992 
L 699.353174 1050.742463 
L 701.376868 1051.912758 
L 702.296729 1052.431474 
L 710.207535 1057.418563 
L 711.863285 1058.43024 
L 714.070951 1059.708585 
L 715.542729 1060.493797 
L 717.750396 1061.742417 
L 721.981757 1064.038369 
L 722.901618 1064.573914 
L 724.557368 1065.540517 
L 726.39709 1066.650149 
L 728.604756 1068.067554 
L 739.091173 1074.654342 
L 740.562951 1075.608768 
L 742.402673 1076.768421 
L 747.921839 1079.975153 
L 749.393617 1080.795426 
L 750.865395 1081.563068 
L 755.096756 1083.810597 
L 761.903728 1087.379142 
L 763.559478 1088.228797 
L 766.319061 1089.608113 
L 767.422894 1090.116423 
L 771.470283 1092.044552 
L 781.404783 1096.359608 
L 783.980394 1097.412696 
L 787.291894 1098.759176 
L 792.627088 1100.927503 
L 796.674477 1102.462908 
L 803.849393 1105.280132 
L 806.05706 1106.148581 
L 807.160893 1106.589782 
L 817.279365 1110.321569 
L 820.406893 1111.371316 
L 827.397837 1113.82837 
L 834.020837 1116.062954 
L 835.492615 1116.56154 
L 840.643837 1118.281445 
L 845.611087 1119.895724 
L 847.818753 1120.603333 
L 859.225031 1123.914957 
L 860.696809 1124.297411 
L 864.008308 1125.163111 
L 868.975558 1126.457644 
L 871.367197 1127.065135 
L 891.604141 1131.504494 
L 898.779057 1132.935494 
L 903.746307 1133.872181 
L 907.425752 1134.512652 
L 913.496835 1135.40668 
L 919.567918 1136.09352 
L 928.766529 1136.881737 
L 936.677334 1137.131125 
L 954.706612 1137.334503 
L 954.706612 1137.334503 
" clip-path="url(#pd60e86f4b9)" style="fill: none; stroke: #1f77b4; stroke-width: 1.5; stroke-linecap: square"/>
   </g>
   <g id="line2d_65">
    <path d="M 608.838843 1004.761331 
L 609.206787 951.820484 
L 610.126648 918.760469 
L 610.678565 906.15974 
L 610.862537 903.071628 
L 611.04651 902.766316 
L 611.230482 903.229425 
L 611.598426 905.691577 
L 612.334315 909.987995 
L 612.70226 913.310082 
L 613.254176 917.376068 
L 613.806093 920.547212 
L 614.174037 923.397231 
L 615.277871 932.149145 
L 615.461843 932.919498 
L 615.829787 935.110935 
L 616.197732 937.395268 
L 616.933621 941.65386 
L 618.405398 950.19483 
L 618.957315 953.114775 
L 619.509232 955.891102 
L 620.24512 959.78619 
L 621.164982 963.765802 
L 622.820731 969.493378 
L 623.188676 970.517934 
L 624.844426 975.90962 
L 625.21237 977.242406 
L 625.764287 978.979946 
L 629.259759 990.278576 
L 631.283453 995.763818 
L 632.203315 997.963851 
L 633.123176 1000.079782 
L 634.043037 1001.930535 
L 635.514814 1004.70128 
L 641.76987 1015.841126 
L 642.873703 1017.41583 
L 646.369175 1022.771233 
L 646.73712 1023.327655 
L 648.944786 1026.729846 
L 649.864647 1027.707937 
L 654.096008 1032.066267 
L 655.01587 1033.045267 
L 656.303675 1034.503661 
L 657.775453 1036.158959 
L 658.879286 1037.382051 
L 664.398453 1042.396417 
L 666.238175 1043.70454 
L 668.813786 1045.420778 
L 673.229119 1048.746489 
L 673.965008 1049.328034 
L 675.620758 1050.466189 
L 679.484174 1052.899095 
L 680.220063 1053.379253 
L 682.243758 1054.648841 
L 684.267452 1056.051806 
L 685.371285 1056.692163 
L 695.67373 1063.112032 
L 696.961535 1063.879438 
L 698.801257 1064.929762 
L 699.721118 1065.444822 
L 700.640979 1065.988415 
L 701.560841 1066.456608 
L 702.664674 1067.013096 
L 705.240285 1068.647876 
L 706.896035 1069.585782 
L 707.631924 1069.922728 
L 713.15109 1073.133935 
L 716.646562 1074.75339 
L 718.11834 1075.431332 
L 719.406146 1076.114294 
L 728.05284 1081.17261 
L 735.595701 1085.110208 
L 736.883506 1085.770837 
L 737.803367 1086.256476 
L 742.218701 1088.594682 
L 743.690478 1089.329427 
L 749.393617 1092.284736 
L 751.233339 1093.163514 
L 757.304422 1095.797127 
L 758.592228 1096.397224 
L 762.0877 1097.829914 
L 767.606867 1099.891215 
L 771.470283 1101.255901 
L 774.045894 1102.292853 
L 775.885616 1102.929906 
L 778.093283 1103.766101 
L 781.036838 1104.704161 
L 786.18806 1106.471881 
L 787.291894 1106.901616 
L 798.146255 1110.917934 
L 799.066116 1111.281801 
L 804.953227 1113.207995 
L 805.873088 1113.451331 
L 811.208282 1115.130554 
L 813.415949 1115.735242 
L 814.887726 1116.240535 
L 816.543476 1116.750894 
L 817.831282 1117.152225 
L 819.119087 1117.554247 
L 822.246615 1118.521952 
L 837.516309 1123.509413 
L 839.356031 1124.052266 
L 852.050114 1127.764781 
L 853.889836 1128.168053 
L 857.753253 1129.199089 
L 861.984614 1130.305976 
L 889.580447 1135.775888 
L 895.283585 1136.77149 
L 897.123308 1137.131794 
L 898.595085 1137.403991 
L 903.378363 1138.001277 
L 907.609724 1138.402534 
L 910.185335 1138.673661 
L 913.680807 1138.884131 
L 919.567918 1138.967949 
L 928.950501 1138.545319 
L 937.96514 1137.918433 
L 939.62089 1137.82872 
L 943.300334 1137.663268 
L 944.036223 1137.648722 
L 949.187445 1137.426561 
L 954.706612 1137.334503 
L 954.706612 1137.334503 
" clip-path="url(#pd60e86f4b9)" style="fill: none; stroke: #ff7f0e; stroke-width: 1.5; stroke-linecap: square"/>
   </g>
   <g id="line2d_66">
    <path d="M 608.838843 1066.967101 
L 609.206787 1008.217441 
L 609.758704 965.497282 
L 610.494593 928.968405 
L 610.862537 919.946597 
L 611.230482 916.433183 
L 611.598426 914.363437 
L 612.150343 914.682335 
L 612.518287 916.276441 
L 613.254176 920.031945 
L 613.806093 923.619686 
L 614.174037 926.617814 
L 615.645815 938.368731 
L 617.301565 947.554688 
L 618.037454 950.917811 
L 619.877176 959.070523 
L 621.348954 964.14278 
L 622.084843 966.106468 
L 622.820731 968.341738 
L 623.924565 971.908675 
L 624.660454 973.818125 
L 625.21237 975.284076 
L 625.580315 976.335353 
L 626.316204 978.839614 
L 627.971954 984.431127 
L 629.259759 987.783176 
L 629.627704 988.646516 
L 631.83537 994.026709 
L 634.043037 999.158801 
L 634.962898 1001.105119 
L 635.882759 1002.985548 
L 636.618648 1004.570061 
L 637.170564 1005.529389 
L 638.274398 1007.673768 
L 639.562203 1009.473659 
L 639.930148 1009.89749 
L 642.505759 1013.297002 
L 643.977536 1015.933755 
L 644.345481 1016.560398 
L 645.265342 1018.221564 
L 646.001231 1019.586137 
L 647.473009 1022.158034 
L 649.496703 1025.257203 
L 653.912036 1032.116053 
L 655.383814 1034.106603 
L 656.671619 1035.700319 
L 657.775453 1036.871945 
L 665.318314 1045.623272 
L 668.997758 1048.620663 
L 671.941314 1050.956995 
L 673.229119 1051.926474 
L 675.988702 1054.11516 
L 677.276508 1055.297098 
L 679.11623 1056.912662 
L 679.484174 1057.231211 
L 680.588008 1058.152088 
L 683.163619 1060.115798 
L 685.555258 1061.910819 
L 690.154563 1064.811065 
L 696.225646 1068.248087 
L 698.249341 1069.865012 
L 699.905091 1071.143827 
L 704.136452 1074.582662 
L 709.471646 1078.395145 
L 715.174785 1082.924447 
L 726.765034 1090.257252 
L 728.05284 1091.232639 
L 730.444479 1092.917705 
L 734.491867 1095.363065 
L 736.147617 1096.522671 
L 740.930895 1099.534778 
L 747.737867 1103.292445 
L 754.544839 1106.23115 
L 756.936478 1107.494215 
L 758.592228 1108.446462 
L 760.983867 1109.629278 
L 765.767144 1111.932478 
L 768.894672 1113.271769 
L 770.36645 1113.980239 
L 773.310005 1115.268289 
L 780.116977 1117.846512 
L 781.588755 1118.420211 
L 792.81106 1122.510537 
L 796.490505 1123.798101 
L 798.146255 1124.380431 
L 799.985977 1124.956771 
L 804.953227 1126.793063 
L 808.080754 1127.624914 
L 812.68006 1128.904397 
L 813.967865 1129.284851 
L 820.222921 1131.270848 
L 824.822226 1132.911667 
L 827.949754 1133.757793 
L 829.973448 1134.404038 
L 836.964392 1136.44411 
L 839.356031 1136.919538 
L 843.035476 1137.297776 
L 844.323281 1137.490067 
L 847.818753 1137.937634 
L 850.946281 1138.229268 
L 856.64942 1139.200996 
L 857.937225 1139.377275 
L 858.673114 1139.465369 
L 860.880781 1139.597062 
L 866.767892 1140.2736 
L 868.607614 1140.331632 
L 869.895419 1140.402381 
L 880.933752 1141.143293 
L 882.773475 1141.36464 
L 884.429225 1141.47234 
L 898.043169 1141.394895 
L 902.458502 1141.14567 
L 905.770002 1140.870003 
L 907.977668 1140.758333 
L 909.449446 1140.663312 
L 910.737252 1140.611263 
L 916.072446 1140.183855 
L 918.09614 1139.962811 
L 919.75189 1139.784084 
L 921.039696 1139.659614 
L 924.351196 1139.393513 
L 926.926807 1139.204543 
L 935.021584 1138.335491 
L 953.234834 1137.342045 
L 954.706612 1137.334503 
L 954.706612 1137.334503 
" clip-path="url(#pd60e86f4b9)" style="fill: none; stroke: #2ca02c; stroke-width: 1.5; stroke-linecap: square"/>
   </g>
   <g id="line2d_67">
    <path d="M 608.838843 1061.452405 
L 609.206787 1006.820385 
L 609.758704 960.423762 
L 610.310621 931.18397 
L 610.678565 919.415064 
L 611.04651 913.405437 
L 611.414454 910.086673 
L 611.598426 909.014182 
L 611.782398 908.963207 
L 611.966371 909.212026 
L 612.150343 909.132809 
L 612.518287 909.270151 
L 612.70226 909.900997 
L 613.806093 916.631778 
L 613.990065 917.290127 
L 614.541982 921.093242 
L 615.645815 927.797929 
L 616.381704 930.879718 
L 616.933621 934.011716 
L 617.669509 937.694752 
L 618.405398 941.2964 
L 619.325259 946.076438 
L 619.877176 949.270637 
L 620.981009 953.698048 
L 621.348954 954.852516 
L 621.90087 956.635553 
L 622.452787 958.970091 
L 622.636759 959.302909 
L 623.924565 963.398768 
L 625.028398 967.100701 
L 625.764287 969.957192 
L 626.500176 973.101178 
L 629.075787 983.85217 
L 630.547565 988.831673 
L 633.307148 996.549331 
L 634.227009 998.693099 
L 635.882759 1003.15546 
L 636.986592 1006.536814 
L 637.722481 1008.26866 
L 638.274398 1009.472724 
L 640.482064 1014.484816 
L 642.689731 1018.916031 
L 644.345481 1022.094424 
L 646.73712 1025.677395 
L 647.473009 1026.703607 
L 648.944786 1029.091848 
L 650.968481 1031.947344 
L 652.072314 1033.3223 
L 653.176147 1034.939028 
L 656.119703 1038.113913 
L 656.671619 1038.558664 
L 659.063258 1041.299023 
L 659.615175 1041.940052 
L 660.719008 1043.158757 
L 662.006814 1044.345861 
L 663.110647 1045.246966 
L 664.950369 1046.968303 
L 666.054203 1047.987769 
L 667.709953 1049.558947 
L 669.365702 1050.953573 
L 670.285564 1051.728422 
L 672.125286 1053.328439 
L 672.677202 1053.640044 
L 673.229119 1053.979637 
L 676.908563 1057.135767 
L 677.46048 1057.60578 
L 679.300202 1058.895647 
L 680.955952 1059.926757 
L 683.715535 1061.876431 
L 684.267452 1062.279789 
L 684.819369 1062.714604 
L 687.027035 1064.251308 
L 689.602646 1066.173832 
L 690.70648 1066.830353 
L 693.650035 1068.697058 
L 696.225646 1070.185182 
L 697.145507 1070.653689 
L 701.744813 1072.931189 
L 704.504396 1074.034815 
L 706.344118 1074.675884 
L 712.231229 1077.030769 
L 714.254924 1078.022185 
L 715.358757 1078.494539 
L 716.46259 1078.906417 
L 720.877923 1080.815134 
L 723.08559 1081.615037 
L 728.604756 1083.950217 
L 729.892562 1084.17748 
L 731.548312 1084.76962 
L 734.123923 1085.806956 
L 735.963645 1086.535413 
L 736.515562 1086.718892 
L 741.482812 1088.780778 
L 743.138562 1089.270219 
L 745.714173 1090.145308 
L 749.025673 1091.373452 
L 749.945534 1091.605774 
L 752.705117 1092.450636 
L 753.624978 1092.738001 
L 754.912784 1093.179757 
L 758.408256 1094.39501 
L 759.144145 1094.611043 
L 761.351811 1095.24694 
L 763.927422 1096.086591 
L 765.215228 1096.437624 
L 766.870978 1096.88567 
L 767.790839 1097.130593 
L 769.630561 1097.753742 
L 770.550422 1098.021413 
L 771.654255 1098.251699 
L 774.045894 1099.046115 
L 779.197116 1100.764478 
L 780.668894 1101.156627 
L 785.084227 1102.3574 
L 786.372033 1102.637155 
L 787.475866 1102.965075 
L 797.962282 1105.540896 
L 798.698171 1105.800543 
L 806.425004 1107.860761 
L 807.528838 1108.264505 
L 812.68006 1109.89625 
L 814.519782 1110.402422 
L 816.543476 1111.086082 
L 818.015254 1111.547337 
L 821.326754 1112.698208 
L 824.454282 1113.713267 
L 826.661948 1114.311375 
L 827.765782 1114.644907 
L 829.605504 1115.277708 
L 836.044531 1117.100954 
L 837.700281 1117.534405 
L 840.275892 1118.352505 
L 842.299587 1118.86183 
L 846.163003 1119.797354 
L 847.634781 1120.192855 
L 850.210392 1120.951281 
L 851.866142 1121.406981 
L 856.097503 1122.594928 
L 857.937225 1123.118568 
L 864.376253 1124.889091 
L 878.358141 1127.985034 
L 880.013891 1128.415222 
L 882.589502 1128.994638 
L 887.37278 1129.942877 
L 894.547697 1131.152344 
L 896.571391 1131.530871 
L 900.250835 1132.105052 
L 901.354669 1132.327632 
L 903.378363 1132.651402 
L 905.402057 1133.030126 
L 919.75189 1134.897626 
L 922.327501 1135.246677 
L 923.799279 1135.452876 
L 925.639001 1135.648699 
L 931.710084 1136.488746 
L 936.493362 1136.929995 
L 944.58814 1137.158445 
L 949.555389 1137.256937 
L 950.659223 1137.296088 
L 954.706612 1137.334503 
L 954.706612 1137.334503 
" clip-path="url(#pd60e86f4b9)" style="fill: none; stroke: #d62728; stroke-width: 1.5; stroke-linecap: square"/>
   </g>
   <g id="patch_40">
    <path d="M 591.545455 1153.44 
L 591.545455 890.829474 
" style="fill: none; stroke: #000000; stroke-width: 0.8; stroke-linejoin: miter; stroke-linecap: square"/>
   </g>
   <g id="patch_41">
    <path d="M 972 1153.44 
L 972 890.829474 
" style="fill: none; stroke: #000000; stroke-width: 0.8; stroke-linejoin: miter; stroke-linecap: square"/>
   </g>
   <g id="patch_42">
    <path d="M 591.545455 1153.44 
L 972 1153.44 
" style="fill: none; stroke: #000000; stroke-width: 0.8; stroke-linejoin: miter; stroke-linecap: square"/>
   </g>
   <g id="patch_43">
    <path d="M 591.545455 890.829474 
L 972 890.829474 
" style="fill: none; stroke: #000000; stroke-width: 0.8; stroke-linejoin: miter; stroke-linecap: square"/>
   </g>
   <g id="text_67">
    <!-- f -->
    <g transform="translate(552.733636 872.71352) scale(0.28 -0.28)">
     <defs>
      <path id="DejaVuSans-Bold-66" d="M 2841 4863 
L 2841 4128 
L 2222 4128 
Q 1984 4128 1890 4042 
Q 1797 3956 1797 3744 
L 1797 3500 
L 2753 3500 
L 2753 2700 
L 1797 2700 
L 1797 0 
L 678 0 
L 678 2700 
L 122 2700 
L 122 3500 
L 678 3500 
L 678 3744 
Q 678 4316 997 4589 
Q 1316 4863 1984 4863 
L 2841 4863 
z
" transform="scale(0.015625)"/>
     </defs>
     <use xlink:href="#DejaVuSans-Bold-66"/>
    </g>
   </g>
   <g id="text_68">
    <!-- LCMC -->
    <g transform="translate(747.973977 884.829474) scale(0.24 -0.24)">
     <defs>
      <path id="DejaVuSans-4c" d="M 628 4666 
L 1259 4666 
L 1259 531 
L 3531 531 
L 3531 0 
L 628 0 
L 628 4666 
z
" transform="scale(0.015625)"/>
     </defs>
     <use xlink:href="#DejaVuSans-4c"/>
     <use xlink:href="#DejaVuSans-43" x="55.712891"/>
     <use xlink:href="#DejaVuSans-4d" x="125.537109"/>
     <use xlink:href="#DejaVuSans-43" x="211.816406"/>
    </g>
   </g>
  </g>
 </g>
 <defs>
  <clipPath id="p08f0db176d">
   <rect x="135" y="155.52" width="380.454545" height="262.610526"/>
  </clipPath>
  <clipPath id="pb3637a38e0">
   <rect x="591.545455" y="155.52" width="380.454545" height="262.610526"/>
  </clipPath>
  <clipPath id="p2c9d4b4346">
   <rect x="135" y="523.174737" width="380.454545" height="262.610526"/>
  </clipPath>
  <clipPath id="p4a7bb227c1">
   <rect x="591.545455" y="523.174737" width="380.454545" height="262.610526"/>
  </clipPath>
  <clipPath id="p0546a3f375">
   <rect x="135" y="890.829474" width="380.454545" height="262.610526"/>
  </clipPath>
  <clipPath id="pd60e86f4b9">
   <rect x="591.545455" y="890.829474" width="380.454545" height="262.610526"/>
  </clipPath>
 </defs>
</svg>
