<?xml version="1.0" encoding="utf-8" standalone="no"?>
<!DOCTYPE svg PUBLIC "-//W3C//DTD SVG 1.1//EN"
  "http://www.w3.org/Graphics/SVG/1.1/DTD/svg11.dtd">
<svg xmlns:xlink="http://www.w3.org/1999/xlink" width="1080pt" height="1296pt" viewBox="0 0 1080 1296" xmlns="http://www.w3.org/2000/svg" version="1.1">
 <metadata>
  <rdf:RDF xmlns:dc="http://purl.org/dc/elements/1.1/" xmlns:cc="http://creativecommons.org/ns#" xmlns:rdf="http://www.w3.org/1999/02/22-rdf-syntax-ns#">
   <cc:Work>
    <dc:type rdf:resource="http://purl.org/dc/dcmitype/StillImage"/>
    <dc:date>2024-07-24T03:20:10.030467</dc:date>
    <dc:format>image/svg+xml</dc:format>
    <dc:creator>
     <cc:Agent>
      <dc:title>Matplotlib v3.8.4, https://matplotlib.org/</dc:title>
     </cc:Agent>
    </dc:creator>
   </cc:Work>
  </rdf:RDF>
 </metadata>
 <defs>
  <style type="text/css">*{stroke-linejoin: round; stroke-linecap: butt}</style>
 </defs>
 <g id="figure_1">
  <g id="patch_1">
   <path d="M 0 1296 
L 1080 1296 
L 1080 0 
L 0 0 
z
" style="fill: #ffffff"/>
  </g>
  <g id="axes_1">
   <g id="patch_2">
    <path d="M 135 418.130526 
L 515.454545 418.130526 
L 515.454545 155.52 
L 135 155.52 
z
" style="fill: #ffffff"/>
   </g>
   <g id="matplotlib.axis_1">
    <g id="xtick_1">
     <g id="line2d_1">
      <defs>
       <path id="m1f277b8ca6" d="M 0 0 
L 0 3.5 
" style="stroke: #000000; stroke-width: 0.8"/>
      </defs>
      <g>
       <use xlink:href="#m1f277b8ca6" x="137.882231" y="418.130526" style="stroke: #000000; stroke-width: 0.8"/>
      </g>
     </g>
     <g id="text_1">
      <!-- 0 -->
      <g transform="translate(131.519731 440.327401) scale(0.2 -0.2)">
       <defs>
        <path id="DejaVuSans-30" d="M 2034 4250 
Q 1547 4250 1301 3770 
Q 1056 3291 1056 2328 
Q 1056 1369 1301 889 
Q 1547 409 2034 409 
Q 2525 409 2770 889 
Q 3016 1369 3016 2328 
Q 3016 3291 2770 3770 
Q 2525 4250 2034 4250 
z
M 2034 4750 
Q 2819 4750 3233 4129 
Q 3647 3509 3647 2328 
Q 3647 1150 3233 529 
Q 2819 -91 2034 -91 
Q 1250 -91 836 529 
Q 422 1150 422 2328 
Q 422 3509 836 4129 
Q 1250 4750 2034 4750 
z
" transform="scale(0.015625)"/>
       </defs>
       <use xlink:href="#DejaVuSans-30"/>
      </g>
     </g>
    </g>
    <g id="xtick_2">
     <g id="line2d_2">
      <g>
       <use xlink:href="#m1f277b8ca6" x="209.938017" y="418.130526" style="stroke: #000000; stroke-width: 0.8"/>
      </g>
     </g>
     <g id="text_2">
      <!-- 10 -->
      <g transform="translate(197.213017 440.327401) scale(0.2 -0.2)">
       <defs>
        <path id="DejaVuSans-31" d="M 794 531 
L 1825 531 
L 1825 4091 
L 703 3866 
L 703 4441 
L 1819 4666 
L 2450 4666 
L 2450 531 
L 3481 531 
L 3481 0 
L 794 0 
L 794 531 
z
" transform="scale(0.015625)"/>
       </defs>
       <use xlink:href="#DejaVuSans-31"/>
       <use xlink:href="#DejaVuSans-30" x="63.623047"/>
      </g>
     </g>
    </g>
    <g id="xtick_3">
     <g id="line2d_3">
      <g>
       <use xlink:href="#m1f277b8ca6" x="281.993802" y="418.130526" style="stroke: #000000; stroke-width: 0.8"/>
      </g>
     </g>
     <g id="text_3">
      <!-- 20 -->
      <g transform="translate(269.268802 440.327401) scale(0.2 -0.2)">
       <defs>
        <path id="DejaVuSans-32" d="M 1228 531 
L 3431 531 
L 3431 0 
L 469 0 
L 469 531 
Q 828 903 1448 1529 
Q 2069 2156 2228 2338 
Q 2531 2678 2651 2914 
Q 2772 3150 2772 3378 
Q 2772 3750 2511 3984 
Q 2250 4219 1831 4219 
Q 1534 4219 1204 4116 
Q 875 4013 500 3803 
L 500 4441 
Q 881 4594 1212 4672 
Q 1544 4750 1819 4750 
Q 2544 4750 2975 4387 
Q 3406 4025 3406 3419 
Q 3406 3131 3298 2873 
Q 3191 2616 2906 2266 
Q 2828 2175 2409 1742 
Q 1991 1309 1228 531 
z
" transform="scale(0.015625)"/>
       </defs>
       <use xlink:href="#DejaVuSans-32"/>
       <use xlink:href="#DejaVuSans-30" x="63.623047"/>
      </g>
     </g>
    </g>
    <g id="xtick_4">
     <g id="line2d_4">
      <g>
       <use xlink:href="#m1f277b8ca6" x="354.049587" y="418.130526" style="stroke: #000000; stroke-width: 0.8"/>
      </g>
     </g>
     <g id="text_4">
      <!-- 30 -->
      <g transform="translate(341.324587 440.327401) scale(0.2 -0.2)">
       <defs>
        <path id="DejaVuSans-33" d="M 2597 2516 
Q 3050 2419 3304 2112 
Q 3559 1806 3559 1356 
Q 3559 666 3084 287 
Q 2609 -91 1734 -91 
Q 1441 -91 1130 -33 
Q 819 25 488 141 
L 488 750 
Q 750 597 1062 519 
Q 1375 441 1716 441 
Q 2309 441 2620 675 
Q 2931 909 2931 1356 
Q 2931 1769 2642 2001 
Q 2353 2234 1838 2234 
L 1294 2234 
L 1294 2753 
L 1863 2753 
Q 2328 2753 2575 2939 
Q 2822 3125 2822 3475 
Q 2822 3834 2567 4026 
Q 2313 4219 1838 4219 
Q 1578 4219 1281 4162 
Q 984 4106 628 3988 
L 628 4550 
Q 988 4650 1302 4700 
Q 1616 4750 1894 4750 
Q 2613 4750 3031 4423 
Q 3450 4097 3450 3541 
Q 3450 3153 3228 2886 
Q 3006 2619 2597 2516 
z
" transform="scale(0.015625)"/>
       </defs>
       <use xlink:href="#DejaVuSans-33"/>
       <use xlink:href="#DejaVuSans-30" x="63.623047"/>
      </g>
     </g>
    </g>
    <g id="xtick_5">
     <g id="line2d_5">
      <g>
       <use xlink:href="#m1f277b8ca6" x="426.105372" y="418.130526" style="stroke: #000000; stroke-width: 0.8"/>
      </g>
     </g>
     <g id="text_5">
      <!-- 40 -->
      <g transform="translate(413.380372 440.327401) scale(0.2 -0.2)">
       <defs>
        <path id="DejaVuSans-34" d="M 2419 4116 
L 825 1625 
L 2419 1625 
L 2419 4116 
z
M 2253 4666 
L 3047 4666 
L 3047 1625 
L 3713 1625 
L 3713 1100 
L 3047 1100 
L 3047 0 
L 2419 0 
L 2419 1100 
L 313 1100 
L 313 1709 
L 2253 4666 
z
" transform="scale(0.015625)"/>
       </defs>
       <use xlink:href="#DejaVuSans-34"/>
       <use xlink:href="#DejaVuSans-30" x="63.623047"/>
      </g>
     </g>
    </g>
    <g id="xtick_6">
     <g id="line2d_6">
      <g>
       <use xlink:href="#m1f277b8ca6" x="498.161157" y="418.130526" style="stroke: #000000; stroke-width: 0.8"/>
      </g>
     </g>
     <g id="text_6">
      <!-- 50 -->
      <g transform="translate(485.436157 440.327401) scale(0.2 -0.2)">
       <defs>
        <path id="DejaVuSans-35" d="M 691 4666 
L 3169 4666 
L 3169 4134 
L 1269 4134 
L 1269 2991 
Q 1406 3038 1543 3061 
Q 1681 3084 1819 3084 
Q 2600 3084 3056 2656 
Q 3513 2228 3513 1497 
Q 3513 744 3044 326 
Q 2575 -91 1722 -91 
Q 1428 -91 1123 -41 
Q 819 9 494 109 
L 494 744 
Q 775 591 1075 516 
Q 1375 441 1709 441 
Q 2250 441 2565 725 
Q 2881 1009 2881 1497 
Q 2881 1984 2565 2268 
Q 2250 2553 1709 2553 
Q 1456 2553 1204 2497 
Q 953 2441 691 2322 
L 691 4666 
z
" transform="scale(0.015625)"/>
       </defs>
       <use xlink:href="#DejaVuSans-35"/>
       <use xlink:href="#DejaVuSans-30" x="63.623047"/>
      </g>
     </g>
    </g>
    <g id="text_7">
     <!-- k -->
     <g transform="translate(318.278523 466.723026) scale(0.24 -0.24)">
      <defs>
       <path id="DejaVuSans-6b" d="M 581 4863 
L 1159 4863 
L 1159 1991 
L 2875 3500 
L 3609 3500 
L 1753 1863 
L 3688 0 
L 2938 0 
L 1159 1709 
L 1159 0 
L 581 0 
L 581 4863 
z
" transform="scale(0.015625)"/>
      </defs>
      <use xlink:href="#DejaVuSans-6b"/>
     </g>
    </g>
   </g>
   <g id="matplotlib.axis_2">
    <g id="ytick_1">
     <g id="line2d_7">
      <defs>
       <path id="md735427dda" d="M 0 0 
L -3.5 0 
" style="stroke: #000000; stroke-width: 0.8"/>
      </defs>
      <g>
       <use xlink:href="#md735427dda" x="135" y="418.130526" style="stroke: #000000; stroke-width: 0.8"/>
      </g>
     </g>
     <g id="text_8">
      <!-- 0.0 -->
      <g transform="translate(96.19375 425.728964) scale(0.2 -0.2)">
       <defs>
        <path id="DejaVuSans-2e" d="M 684 794 
L 1344 794 
L 1344 0 
L 684 0 
L 684 794 
z
" transform="scale(0.015625)"/>
       </defs>
       <use xlink:href="#DejaVuSans-30"/>
       <use xlink:href="#DejaVuSans-2e" x="63.623047"/>
       <use xlink:href="#DejaVuSans-30" x="95.410156"/>
      </g>
     </g>
    </g>
    <g id="ytick_2">
     <g id="line2d_8">
      <g>
       <use xlink:href="#md735427dda" x="135" y="352.477895" style="stroke: #000000; stroke-width: 0.8"/>
      </g>
     </g>
     <g id="text_9">
      <!-- 0.2 -->
      <g transform="translate(96.19375 360.076332) scale(0.2 -0.2)">
       <use xlink:href="#DejaVuSans-30"/>
       <use xlink:href="#DejaVuSans-2e" x="63.623047"/>
       <use xlink:href="#DejaVuSans-32" x="95.410156"/>
      </g>
     </g>
    </g>
    <g id="ytick_3">
     <g id="line2d_9">
      <g>
       <use xlink:href="#md735427dda" x="135" y="286.825263" style="stroke: #000000; stroke-width: 0.8"/>
      </g>
     </g>
     <g id="text_10">
      <!-- 0.4 -->
      <g transform="translate(96.19375 294.423701) scale(0.2 -0.2)">
       <use xlink:href="#DejaVuSans-30"/>
       <use xlink:href="#DejaVuSans-2e" x="63.623047"/>
       <use xlink:href="#DejaVuSans-34" x="95.410156"/>
      </g>
     </g>
    </g>
    <g id="ytick_4">
     <g id="line2d_10">
      <g>
       <use xlink:href="#md735427dda" x="135" y="221.172632" style="stroke: #000000; stroke-width: 0.8"/>
      </g>
     </g>
     <g id="text_11">
      <!-- 0.6 -->
      <g transform="translate(96.19375 228.771069) scale(0.2 -0.2)">
       <defs>
        <path id="DejaVuSans-36" d="M 2113 2584 
Q 1688 2584 1439 2293 
Q 1191 2003 1191 1497 
Q 1191 994 1439 701 
Q 1688 409 2113 409 
Q 2538 409 2786 701 
Q 3034 994 3034 1497 
Q 3034 2003 2786 2293 
Q 2538 2584 2113 2584 
z
M 3366 4563 
L 3366 3988 
Q 3128 4100 2886 4159 
Q 2644 4219 2406 4219 
Q 1781 4219 1451 3797 
Q 1122 3375 1075 2522 
Q 1259 2794 1537 2939 
Q 1816 3084 2150 3084 
Q 2853 3084 3261 2657 
Q 3669 2231 3669 1497 
Q 3669 778 3244 343 
Q 2819 -91 2113 -91 
Q 1303 -91 875 529 
Q 447 1150 447 2328 
Q 447 3434 972 4092 
Q 1497 4750 2381 4750 
Q 2619 4750 2861 4703 
Q 3103 4656 3366 4563 
z
" transform="scale(0.015625)"/>
       </defs>
       <use xlink:href="#DejaVuSans-30"/>
       <use xlink:href="#DejaVuSans-2e" x="63.623047"/>
       <use xlink:href="#DejaVuSans-36" x="95.410156"/>
      </g>
     </g>
    </g>
    <g id="ytick_5">
     <g id="line2d_11">
      <g>
       <use xlink:href="#md735427dda" x="135" y="155.52" style="stroke: #000000; stroke-width: 0.8"/>
      </g>
     </g>
     <g id="text_12">
      <!-- 0.8 -->
      <g transform="translate(96.19375 163.118438) scale(0.2 -0.2)">
       <defs>
        <path id="DejaVuSans-38" d="M 2034 2216 
Q 1584 2216 1326 1975 
Q 1069 1734 1069 1313 
Q 1069 891 1326 650 
Q 1584 409 2034 409 
Q 2484 409 2743 651 
Q 3003 894 3003 1313 
Q 3003 1734 2745 1975 
Q 2488 2216 2034 2216 
z
M 1403 2484 
Q 997 2584 770 2862 
Q 544 3141 544 3541 
Q 544 4100 942 4425 
Q 1341 4750 2034 4750 
Q 2731 4750 3128 4425 
Q 3525 4100 3525 3541 
Q 3525 3141 3298 2862 
Q 3072 2584 2669 2484 
Q 3125 2378 3379 2068 
Q 3634 1759 3634 1313 
Q 3634 634 3220 271 
Q 2806 -91 2034 -91 
Q 1263 -91 848 271 
Q 434 634 434 1313 
Q 434 1759 690 2068 
Q 947 2378 1403 2484 
z
M 1172 3481 
Q 1172 3119 1398 2916 
Q 1625 2713 2034 2713 
Q 2441 2713 2670 2916 
Q 2900 3119 2900 3481 
Q 2900 3844 2670 4047 
Q 2441 4250 2034 4250 
Q 1625 4250 1398 4047 
Q 1172 3844 1172 3481 
z
" transform="scale(0.015625)"/>
       </defs>
       <use xlink:href="#DejaVuSans-30"/>
       <use xlink:href="#DejaVuSans-2e" x="63.623047"/>
       <use xlink:href="#DejaVuSans-38" x="95.410156"/>
      </g>
     </g>
    </g>
    <g id="text_13">
     <!-- $P_{NN}$ -->
     <g transform="translate(87.2025 306.985263) rotate(-90) scale(0.24 -0.24)">
      <defs>
       <path id="DejaVuSans-Oblique-50" d="M 1081 4666 
L 2541 4666 
Q 3178 4666 3512 4369 
Q 3847 4072 3847 3500 
Q 3847 2731 3353 2303 
Q 2859 1875 1966 1875 
L 1172 1875 
L 806 0 
L 172 0 
L 1081 4666 
z
M 1613 4147 
L 1275 2394 
L 2069 2394 
Q 2606 2394 2893 2669 
Q 3181 2944 3181 3456 
Q 3181 3784 2986 3965 
Q 2791 4147 2438 4147 
L 1613 4147 
z
" transform="scale(0.015625)"/>
       <path id="DejaVuSans-Oblique-4e" d="M 1081 4666 
L 1931 4666 
L 3219 666 
L 4000 4666 
L 4616 4666 
L 3706 0 
L 2853 0 
L 1569 4025 
L 788 0 
L 172 0 
L 1081 4666 
z
" transform="scale(0.015625)"/>
      </defs>
      <use xlink:href="#DejaVuSans-Oblique-50" transform="translate(0 0.09375)"/>
      <use xlink:href="#DejaVuSans-Oblique-4e" transform="translate(60.302734 -16.3125) scale(0.7)"/>
      <use xlink:href="#DejaVuSans-Oblique-4e" transform="translate(112.666016 -16.3125) scale(0.7)"/>
     </g>
    </g>
   </g>
   <g id="line2d_12">
    <path d="M 152.293388 327.215693 
L 173.910124 319.085887 
L 209.938017 309.598419 
L 281.993802 295.698551 
L 498.161157 266.440945 
" clip-path="url(#pe104700dde)" style="fill: none; stroke: #1f77b4; stroke-width: 1.5; stroke-linecap: square"/>
    <defs>
     <path id="m0e8ea90614" d="M 0 3 
C 0.795609 3 1.55874 2.683901 2.12132 2.12132 
C 2.683901 1.55874 3 0.795609 3 0 
C 3 -0.795609 2.683901 -1.55874 2.12132 -2.12132 
C 1.55874 -2.683901 0.795609 -3 0 -3 
C -0.795609 -3 -1.55874 -2.683901 -2.12132 -2.12132 
C -2.683901 -1.55874 -3 -0.795609 -3 0 
C -3 0.795609 -2.683901 1.55874 -2.12132 2.12132 
C -1.55874 2.683901 -0.795609 3 0 3 
z
" style="stroke: #1f77b4"/>
    </defs>
    <g clip-path="url(#pe104700dde)">
     <use xlink:href="#m0e8ea90614" x="152.293388" y="327.215693" style="fill: #1f77b4; stroke: #1f77b4"/>
     <use xlink:href="#m0e8ea90614" x="173.910124" y="319.085887" style="fill: #1f77b4; stroke: #1f77b4"/>
     <use xlink:href="#m0e8ea90614" x="209.938017" y="309.598419" style="fill: #1f77b4; stroke: #1f77b4"/>
     <use xlink:href="#m0e8ea90614" x="281.993802" y="295.698551" style="fill: #1f77b4; stroke: #1f77b4"/>
     <use xlink:href="#m0e8ea90614" x="498.161157" y="266.440945" style="fill: #1f77b4; stroke: #1f77b4"/>
    </g>
   </g>
   <g id="line2d_13">
    <path d="M 152.293388 189.752465 
L 173.910124 188.750382 
L 209.938017 191.320241 
L 281.993802 203.426056 
L 498.161157 221.059493 
" clip-path="url(#pe104700dde)" style="fill: none; stroke: #ff7f0e; stroke-width: 1.5; stroke-linecap: square"/>
    <defs>
     <path id="m2a72bcc91a" d="M 0 3 
C 0.795609 3 1.55874 2.683901 2.12132 2.12132 
C 2.683901 1.55874 3 0.795609 3 0 
C 3 -0.795609 2.683901 -1.55874 2.12132 -2.12132 
C 1.55874 -2.683901 0.795609 -3 0 -3 
C -0.795609 -3 -1.55874 -2.683901 -2.12132 -2.12132 
C -2.683901 -1.55874 -3 -0.795609 -3 0 
C -3 0.795609 -2.683901 1.55874 -2.12132 2.12132 
C -1.55874 2.683901 -0.795609 3 0 3 
z
" style="stroke: #ff7f0e"/>
    </defs>
    <g clip-path="url(#pe104700dde)">
     <use xlink:href="#m2a72bcc91a" x="152.293388" y="189.752465" style="fill: #ff7f0e; stroke: #ff7f0e"/>
     <use xlink:href="#m2a72bcc91a" x="173.910124" y="188.750382" style="fill: #ff7f0e; stroke: #ff7f0e"/>
     <use xlink:href="#m2a72bcc91a" x="209.938017" y="191.320241" style="fill: #ff7f0e; stroke: #ff7f0e"/>
     <use xlink:href="#m2a72bcc91a" x="281.993802" y="203.426056" style="fill: #ff7f0e; stroke: #ff7f0e"/>
     <use xlink:href="#m2a72bcc91a" x="498.161157" y="221.059493" style="fill: #ff7f0e; stroke: #ff7f0e"/>
    </g>
   </g>
   <g id="line2d_14">
    <path d="M 152.293388 275.495255 
L 173.910124 239.113159 
L 209.938017 221.544372 
L 281.993802 218.950269 
L 498.161157 228.471678 
" clip-path="url(#pe104700dde)" style="fill: none; stroke: #2ca02c; stroke-width: 1.5; stroke-linecap: square"/>
    <defs>
     <path id="m68e3b1ad7b" d="M 0 3 
C 0.795609 3 1.55874 2.683901 2.12132 2.12132 
C 2.683901 1.55874 3 0.795609 3 0 
C 3 -0.795609 2.683901 -1.55874 2.12132 -2.12132 
C 1.55874 -2.683901 0.795609 -3 0 -3 
C -0.795609 -3 -1.55874 -2.683901 -2.12132 -2.12132 
C -2.683901 -1.55874 -3 -0.795609 -3 0 
C -3 0.795609 -2.683901 1.55874 -2.12132 2.12132 
C -1.55874 2.683901 -0.795609 3 0 3 
z
" style="stroke: #2ca02c"/>
    </defs>
    <g clip-path="url(#pe104700dde)">
     <use xlink:href="#m68e3b1ad7b" x="152.293388" y="275.495255" style="fill: #2ca02c; stroke: #2ca02c"/>
     <use xlink:href="#m68e3b1ad7b" x="173.910124" y="239.113159" style="fill: #2ca02c; stroke: #2ca02c"/>
     <use xlink:href="#m68e3b1ad7b" x="209.938017" y="221.544372" style="fill: #2ca02c; stroke: #2ca02c"/>
     <use xlink:href="#m68e3b1ad7b" x="281.993802" y="218.950269" style="fill: #2ca02c; stroke: #2ca02c"/>
     <use xlink:href="#m68e3b1ad7b" x="498.161157" y="228.471678" style="fill: #2ca02c; stroke: #2ca02c"/>
    </g>
   </g>
   <g id="line2d_15">
    <path d="M 152.293388 285.758529 
L 173.910124 258.831576 
L 209.938017 243.800323 
L 281.993802 241.181976 
L 498.161157 258.18507 
" clip-path="url(#pe104700dde)" style="fill: none; stroke: #d62728; stroke-width: 1.5; stroke-linecap: square"/>
    <defs>
     <path id="m51768dd837" d="M 0 3 
C 0.795609 3 1.55874 2.683901 2.12132 2.12132 
C 2.683901 1.55874 3 0.795609 3 0 
C 3 -0.795609 2.683901 -1.55874 2.12132 -2.12132 
C 1.55874 -2.683901 0.795609 -3 0 -3 
C -0.795609 -3 -1.55874 -2.683901 -2.12132 -2.12132 
C -2.683901 -1.55874 -3 -0.795609 -3 0 
C -3 0.795609 -2.683901 1.55874 -2.12132 2.12132 
C -1.55874 2.683901 -0.795609 3 0 3 
z
" style="stroke: #d62728"/>
    </defs>
    <g clip-path="url(#pe104700dde)">
     <use xlink:href="#m51768dd837" x="152.293388" y="285.758529" style="fill: #d62728; stroke: #d62728"/>
     <use xlink:href="#m51768dd837" x="173.910124" y="258.831576" style="fill: #d62728; stroke: #d62728"/>
     <use xlink:href="#m51768dd837" x="209.938017" y="243.800323" style="fill: #d62728; stroke: #d62728"/>
     <use xlink:href="#m51768dd837" x="281.993802" y="241.181976" style="fill: #d62728; stroke: #d62728"/>
     <use xlink:href="#m51768dd837" x="498.161157" y="258.18507" style="fill: #d62728; stroke: #d62728"/>
    </g>
   </g>
   <g id="patch_3">
    <path d="M 135 418.130526 
L 135 155.52 
" style="fill: none; stroke: #000000; stroke-width: 0.8; stroke-linejoin: miter; stroke-linecap: square"/>
   </g>
   <g id="patch_4">
    <path d="M 515.454545 418.130526 
L 515.454545 155.52 
" style="fill: none; stroke: #000000; stroke-width: 0.8; stroke-linejoin: miter; stroke-linecap: square"/>
   </g>
   <g id="patch_5">
    <path d="M 135 418.130526 
L 515.454545 418.130526 
" style="fill: none; stroke: #000000; stroke-width: 0.8; stroke-linejoin: miter; stroke-linecap: square"/>
   </g>
   <g id="patch_6">
    <path d="M 135 155.52 
L 515.454545 155.52 
" style="fill: none; stroke: #000000; stroke-width: 0.8; stroke-linejoin: miter; stroke-linecap: square"/>
   </g>
   <g id="text_14">
    <!-- a -->
    <g transform="translate(89.472557 137.404046) scale(0.28 -0.28)">
     <defs>
      <path id="DejaVuSans-Bold-61" d="M 2106 1575 
Q 1756 1575 1579 1456 
Q 1403 1338 1403 1106 
Q 1403 894 1545 773 
Q 1688 653 1941 653 
Q 2256 653 2472 879 
Q 2688 1106 2688 1447 
L 2688 1575 
L 2106 1575 
z
M 3816 1997 
L 3816 0 
L 2688 0 
L 2688 519 
Q 2463 200 2181 54 
Q 1900 -91 1497 -91 
Q 953 -91 614 226 
Q 275 544 275 1050 
Q 275 1666 698 1953 
Q 1122 2241 2028 2241 
L 2688 2241 
L 2688 2328 
Q 2688 2594 2478 2717 
Q 2269 2841 1825 2841 
Q 1466 2841 1156 2769 
Q 847 2697 581 2553 
L 581 3406 
Q 941 3494 1303 3539 
Q 1666 3584 2028 3584 
Q 2975 3584 3395 3211 
Q 3816 2838 3816 1997 
z
" transform="scale(0.015625)"/>
     </defs>
     <use xlink:href="#DejaVuSans-Bold-61"/>
    </g>
   </g>
   <g id="text_15">
    <!-- $P_{NN}$ -->
    <g transform="translate(303.387273 149.52) scale(0.26 -0.26)">
     <use xlink:href="#DejaVuSans-Oblique-50" transform="translate(0 0.09375)"/>
     <use xlink:href="#DejaVuSans-Oblique-4e" transform="translate(60.302734 -16.3125) scale(0.7)"/>
     <use xlink:href="#DejaVuSans-Oblique-4e" transform="translate(112.666016 -16.3125) scale(0.7)"/>
    </g>
   </g>
  </g>
  <g id="axes_2">
   <g id="patch_7">
    <path d="M 591.545455 418.130526 
L 972 418.130526 
L 972 155.52 
L 591.545455 155.52 
z
" style="fill: #ffffff"/>
   </g>
   <g id="patch_8">
    <path d="M 608.838843 418.130526 
L 628.792753 418.130526 
L 628.792753 182.063601 
L 608.838843 182.063601 
z
" clip-path="url(#p503fa01d7f)" style="fill: #1f77b4"/>
   </g>
   <g id="patch_9">
    <path d="M 741.864908 418.130526 
L 761.818818 418.130526 
L 761.818818 253.031454 
L 741.864908 253.031454 
z
" clip-path="url(#p503fa01d7f)" style="fill: #1f77b4"/>
   </g>
   <g id="patch_10">
    <path d="M 874.890973 418.130526 
L 894.844882 418.130526 
L 894.844882 168.025263 
L 874.890973 168.025263 
z
" clip-path="url(#p503fa01d7f)" style="fill: #1f77b4"/>
   </g>
   <g id="patch_11">
    <path d="M 628.792753 418.130526 
L 648.746662 418.130526 
L 648.746662 191.930315 
L 628.792753 191.930315 
z
" clip-path="url(#p503fa01d7f)" style="fill: #ff7f0e"/>
   </g>
   <g id="patch_12">
    <path d="M 761.818818 418.130526 
L 781.772727 418.130526 
L 781.772727 236.224211 
L 761.818818 236.224211 
z
" clip-path="url(#p503fa01d7f)" style="fill: #ff7f0e"/>
   </g>
   <g id="patch_13">
    <path d="M 894.844882 418.130526 
L 914.798792 418.130526 
L 914.798792 191.79221 
L 894.844882 191.79221 
z
" clip-path="url(#p503fa01d7f)" style="fill: #ff7f0e"/>
   </g>
   <g id="patch_14">
    <path d="M 648.746662 418.130526 
L 668.700572 418.130526 
L 668.700572 193.926655 
L 648.746662 193.926655 
z
" clip-path="url(#p503fa01d7f)" style="fill: #2ca02c"/>
   </g>
   <g id="patch_15">
    <path d="M 781.772727 418.130526 
L 801.726637 418.130526 
L 801.726637 271.179269 
L 781.772727 271.179269 
z
" clip-path="url(#p503fa01d7f)" style="fill: #2ca02c"/>
   </g>
   <g id="patch_16">
    <path d="M 914.798792 418.130526 
L 934.752702 418.130526 
L 934.752702 193.291301 
L 914.798792 193.291301 
z
" clip-path="url(#p503fa01d7f)" style="fill: #2ca02c"/>
   </g>
   <g id="patch_17">
    <path d="M 668.700572 418.130526 
L 688.654482 418.130526 
L 688.654482 245.372554 
L 668.700572 245.372554 
z
" clip-path="url(#p503fa01d7f)" style="fill: #d62728"/>
   </g>
   <g id="patch_18">
    <path d="M 801.726637 418.130526 
L 821.680547 418.130526 
L 821.680547 285.304192 
L 801.726637 285.304192 
z
" clip-path="url(#p503fa01d7f)" style="fill: #d62728"/>
   </g>
   <g id="patch_19">
    <path d="M 934.752702 418.130526 
L 954.706612 418.130526 
L 954.706612 245.00987 
L 934.752702 245.00987 
z
" clip-path="url(#p503fa01d7f)" style="fill: #d62728"/>
   </g>
   <g id="matplotlib.axis_3">
    <g id="xtick_7">
     <g id="line2d_16">
      <g>
       <use xlink:href="#m1f277b8ca6" x="648.746662" y="418.130526" style="stroke: #000000; stroke-width: 0.8"/>
      </g>
     </g>
     <g id="text_16">
      <!-- AUC -->
      <g transform="translate(625.490256 441.847089) scale(0.22 -0.22)">
       <defs>
        <path id="DejaVuSans-41" d="M 2188 4044 
L 1331 1722 
L 3047 1722 
L 2188 4044 
z
M 1831 4666 
L 2547 4666 
L 4325 0 
L 3669 0 
L 3244 1197 
L 1141 1197 
L 716 0 
L 50 0 
L 1831 4666 
z
" transform="scale(0.015625)"/>
        <path id="DejaVuSans-55" d="M 556 4666 
L 1191 4666 
L 1191 1831 
Q 1191 1081 1462 751 
Q 1734 422 2344 422 
Q 2950 422 3222 751 
Q 3494 1081 3494 1831 
L 3494 4666 
L 4128 4666 
L 4128 1753 
Q 4128 841 3676 375 
Q 3225 -91 2344 -91 
Q 1459 -91 1007 375 
Q 556 841 556 1753 
L 556 4666 
z
" transform="scale(0.015625)"/>
        <path id="DejaVuSans-43" d="M 4122 4306 
L 4122 3641 
Q 3803 3938 3442 4084 
Q 3081 4231 2675 4231 
Q 1875 4231 1450 3742 
Q 1025 3253 1025 2328 
Q 1025 1406 1450 917 
Q 1875 428 2675 428 
Q 3081 428 3442 575 
Q 3803 722 4122 1019 
L 4122 359 
Q 3791 134 3420 21 
Q 3050 -91 2638 -91 
Q 1578 -91 968 557 
Q 359 1206 359 2328 
Q 359 3453 968 4101 
Q 1578 4750 2638 4750 
Q 3056 4750 3426 4639 
Q 3797 4528 4122 4306 
z
" transform="scale(0.015625)"/>
       </defs>
       <use xlink:href="#DejaVuSans-41"/>
       <use xlink:href="#DejaVuSans-55" x="68.408203"/>
       <use xlink:href="#DejaVuSans-43" x="141.601562"/>
      </g>
     </g>
    </g>
    <g id="xtick_8">
     <g id="line2d_17">
      <g>
       <use xlink:href="#m1f277b8ca6" x="781.772727" y="418.130526" style="stroke: #000000; stroke-width: 0.8"/>
      </g>
     </g>
     <g id="text_17">
      <!-- $Q_{local}$ -->
      <g transform="translate(754.822727 441.847089) scale(0.22 -0.22)">
       <defs>
        <path id="DejaVuSans-Oblique-51" d="M 2309 -84 
Q 2275 -88 2237 -89 
Q 2200 -91 2125 -91 
Q 1250 -91 756 411 
Q 263 913 263 1797 
Q 263 2319 452 2844 
Q 641 3369 978 3788 
Q 1369 4269 1858 4509 
Q 2347 4750 2938 4750 
Q 3794 4750 4287 4245 
Q 4781 3741 4781 2869 
Q 4781 1928 4265 1147 
Q 3750 366 2919 44 
L 3553 -825 
L 2847 -825 
L 2309 -84 
z
M 2919 4238 
Q 2400 4238 2003 3986 
Q 1606 3734 1313 3219 
Q 1125 2891 1026 2522 
Q 928 2153 928 1778 
Q 928 1128 1239 775 
Q 1550 422 2119 422 
Q 2631 422 3032 676 
Q 3434 931 3719 1434 
Q 3909 1772 4009 2142 
Q 4109 2513 4109 2881 
Q 4109 3528 3796 3883 
Q 3484 4238 2919 4238 
z
" transform="scale(0.015625)"/>
        <path id="DejaVuSans-Oblique-6c" d="M 1172 4863 
L 1747 4863 
L 800 0 
L 225 0 
L 1172 4863 
z
" transform="scale(0.015625)"/>
        <path id="DejaVuSans-Oblique-6f" d="M 1625 -91 
Q 1009 -91 651 289 
Q 294 669 294 1325 
Q 294 1706 417 2101 
Q 541 2497 738 2766 
Q 1047 3184 1428 3384 
Q 1809 3584 2291 3584 
Q 2888 3584 3255 3212 
Q 3622 2841 3622 2241 
Q 3622 1825 3500 1412 
Q 3378 1000 3181 728 
Q 2875 309 2494 109 
Q 2113 -91 1625 -91 
z
M 891 1344 
Q 891 869 1089 633 
Q 1288 397 1691 397 
Q 2269 397 2648 901 
Q 3028 1406 3028 2181 
Q 3028 2634 2825 2865 
Q 2622 3097 2228 3097 
Q 1903 3097 1650 2945 
Q 1397 2794 1197 2484 
Q 1050 2253 970 1956 
Q 891 1659 891 1344 
z
" transform="scale(0.015625)"/>
        <path id="DejaVuSans-Oblique-63" d="M 3431 3366 
L 3316 2797 
Q 3109 2947 2876 3022 
Q 2644 3097 2394 3097 
Q 2119 3097 1870 3000 
Q 1622 2903 1453 2725 
Q 1184 2453 1037 2087 
Q 891 1722 891 1331 
Q 891 859 1127 628 
Q 1363 397 1844 397 
Q 2081 397 2348 469 
Q 2616 541 2906 684 
L 2797 116 
Q 2547 13 2283 -39 
Q 2019 -91 1741 -91 
Q 1044 -91 669 257 
Q 294 606 294 1253 
Q 294 1797 489 2255 
Q 684 2713 1069 3078 
Q 1331 3328 1684 3456 
Q 2038 3584 2456 3584 
Q 2700 3584 2940 3529 
Q 3181 3475 3431 3366 
z
" transform="scale(0.015625)"/>
        <path id="DejaVuSans-Oblique-61" d="M 3438 1997 
L 3047 0 
L 2472 0 
L 2578 531 
Q 2325 219 2001 64 
Q 1678 -91 1281 -91 
Q 834 -91 548 182 
Q 263 456 263 884 
Q 263 1497 752 1853 
Q 1241 2209 2100 2209 
L 2900 2209 
L 2931 2363 
Q 2938 2388 2941 2417 
Q 2944 2447 2944 2509 
Q 2944 2788 2717 2942 
Q 2491 3097 2081 3097 
Q 1800 3097 1504 3025 
Q 1209 2953 897 2809 
L 997 3341 
Q 1322 3463 1633 3523 
Q 1944 3584 2234 3584 
Q 2853 3584 3176 3315 
Q 3500 3047 3500 2534 
Q 3500 2431 3484 2292 
Q 3469 2153 3438 1997 
z
M 2816 1759 
L 2241 1759 
Q 1534 1759 1195 1570 
Q 856 1381 856 984 
Q 856 709 1029 553 
Q 1203 397 1509 397 
Q 1978 397 2328 733 
Q 2678 1069 2791 1631 
L 2816 1759 
z
" transform="scale(0.015625)"/>
       </defs>
       <use xlink:href="#DejaVuSans-Oblique-51" transform="translate(0 0.78125)"/>
       <use xlink:href="#DejaVuSans-Oblique-6c" transform="translate(78.710938 -15.625) scale(0.7)"/>
       <use xlink:href="#DejaVuSans-Oblique-6f" transform="translate(98.15918 -15.625) scale(0.7)"/>
       <use xlink:href="#DejaVuSans-Oblique-63" transform="translate(140.986328 -15.625) scale(0.7)"/>
       <use xlink:href="#DejaVuSans-Oblique-61" transform="translate(179.472656 -15.625) scale(0.7)"/>
       <use xlink:href="#DejaVuSans-Oblique-6c" transform="translate(222.368164 -15.625) scale(0.7)"/>
      </g>
     </g>
    </g>
    <g id="xtick_9">
     <g id="line2d_18">
      <g>
       <use xlink:href="#m1f277b8ca6" x="914.798792" y="418.130526" style="stroke: #000000; stroke-width: 0.8"/>
      </g>
     </g>
     <g id="text_18">
      <!-- $Q_{global}$ -->
      <g transform="translate(882.348792 441.630526) scale(0.22 -0.22)">
       <defs>
        <path id="DejaVuSans-Oblique-67" d="M 3816 3500 
L 3219 434 
Q 3047 -456 2561 -893 
Q 2075 -1331 1253 -1331 
Q 950 -1331 690 -1286 
Q 431 -1241 206 -1147 
L 313 -588 
Q 525 -725 762 -790 
Q 1000 -856 1269 -856 
Q 1816 -856 2167 -557 
Q 2519 -259 2631 300 
L 2681 563 
Q 2441 288 2122 144 
Q 1803 0 1434 0 
Q 903 0 598 351 
Q 294 703 294 1319 
Q 294 1803 478 2267 
Q 663 2731 997 3091 
Q 1219 3328 1514 3456 
Q 1809 3584 2131 3584 
Q 2484 3584 2746 3420 
Q 3009 3256 3138 2956 
L 3238 3500 
L 3816 3500 
z
M 2950 2216 
Q 2950 2641 2750 2872 
Q 2550 3103 2181 3103 
Q 1953 3103 1747 3012 
Q 1541 2922 1394 2759 
Q 1156 2491 1023 2127 
Q 891 1763 891 1375 
Q 891 944 1092 712 
Q 1294 481 1672 481 
Q 2219 481 2584 976 
Q 2950 1472 2950 2216 
z
" transform="scale(0.015625)"/>
        <path id="DejaVuSans-Oblique-62" d="M 3169 2138 
Q 3169 2591 2961 2847 
Q 2753 3103 2388 3103 
Q 2122 3103 1889 2973 
Q 1656 2844 1484 2597 
Q 1303 2338 1198 1995 
Q 1094 1653 1094 1313 
Q 1094 881 1298 636 
Q 1503 391 1863 391 
Q 2134 391 2365 517 
Q 2597 644 2772 891 
Q 2950 1147 3059 1487 
Q 3169 1828 3169 2138 
z
M 1381 2969 
Q 1594 3256 1914 3420 
Q 2234 3584 2584 3584 
Q 3122 3584 3439 3221 
Q 3756 2859 3756 2241 
Q 3756 1734 3570 1259 
Q 3384 784 3041 416 
Q 2816 172 2522 40 
Q 2228 -91 1906 -91 
Q 1566 -91 1316 65 
Q 1066 222 909 531 
L 806 0 
L 231 0 
L 1178 4863 
L 1753 4863 
L 1381 2969 
z
" transform="scale(0.015625)"/>
       </defs>
       <use xlink:href="#DejaVuSans-Oblique-51" transform="translate(0 0.78125)"/>
       <use xlink:href="#DejaVuSans-Oblique-67" transform="translate(78.710938 -15.625) scale(0.7)"/>
       <use xlink:href="#DejaVuSans-Oblique-6c" transform="translate(123.144531 -15.625) scale(0.7)"/>
       <use xlink:href="#DejaVuSans-Oblique-6f" transform="translate(142.592773 -15.625) scale(0.7)"/>
       <use xlink:href="#DejaVuSans-Oblique-62" transform="translate(185.419922 -15.625) scale(0.7)"/>
       <use xlink:href="#DejaVuSans-Oblique-61" transform="translate(229.853516 -15.625) scale(0.7)"/>
       <use xlink:href="#DejaVuSans-Oblique-6c" transform="translate(272.749023 -15.625) scale(0.7)"/>
      </g>
     </g>
    </g>
   </g>
   <g id="matplotlib.axis_4">
    <g id="ytick_6">
     <g id="line2d_19">
      <g>
       <use xlink:href="#md735427dda" x="591.545455" y="418.130526" style="stroke: #000000; stroke-width: 0.8"/>
      </g>
     </g>
     <g id="text_19">
      <!-- 0.0 -->
      <g transform="translate(549.55858 426.488808) scale(0.22 -0.22)">
       <use xlink:href="#DejaVuSans-30"/>
       <use xlink:href="#DejaVuSans-2e" x="63.623047"/>
       <use xlink:href="#DejaVuSans-30" x="95.410156"/>
      </g>
     </g>
    </g>
    <g id="ytick_7">
     <g id="line2d_20">
      <g>
       <use xlink:href="#md735427dda" x="591.545455" y="364.929478" style="stroke: #000000; stroke-width: 0.8"/>
      </g>
     </g>
     <g id="text_20">
      <!-- 0.2 -->
      <g transform="translate(549.55858 373.287759) scale(0.22 -0.22)">
       <use xlink:href="#DejaVuSans-30"/>
       <use xlink:href="#DejaVuSans-2e" x="63.623047"/>
       <use xlink:href="#DejaVuSans-32" x="95.410156"/>
      </g>
     </g>
    </g>
    <g id="ytick_8">
     <g id="line2d_21">
      <g>
       <use xlink:href="#md735427dda" x="591.545455" y="311.728429" style="stroke: #000000; stroke-width: 0.8"/>
      </g>
     </g>
     <g id="text_21">
      <!-- 0.4 -->
      <g transform="translate(549.55858 320.086711) scale(0.22 -0.22)">
       <use xlink:href="#DejaVuSans-30"/>
       <use xlink:href="#DejaVuSans-2e" x="63.623047"/>
       <use xlink:href="#DejaVuSans-34" x="95.410156"/>
      </g>
     </g>
    </g>
    <g id="ytick_9">
     <g id="line2d_22">
      <g>
       <use xlink:href="#md735427dda" x="591.545455" y="258.527381" style="stroke: #000000; stroke-width: 0.8"/>
      </g>
     </g>
     <g id="text_22">
      <!-- 0.6 -->
      <g transform="translate(549.55858 266.885662) scale(0.22 -0.22)">
       <use xlink:href="#DejaVuSans-30"/>
       <use xlink:href="#DejaVuSans-2e" x="63.623047"/>
       <use xlink:href="#DejaVuSans-36" x="95.410156"/>
      </g>
     </g>
    </g>
    <g id="ytick_10">
     <g id="line2d_23">
      <g>
       <use xlink:href="#md735427dda" x="591.545455" y="205.326332" style="stroke: #000000; stroke-width: 0.8"/>
      </g>
     </g>
     <g id="text_23">
      <!-- 0.8 -->
      <g transform="translate(549.55858 213.684614) scale(0.22 -0.22)">
       <use xlink:href="#DejaVuSans-30"/>
       <use xlink:href="#DejaVuSans-2e" x="63.623047"/>
       <use xlink:href="#DejaVuSans-38" x="95.410156"/>
      </g>
     </g>
    </g>
    <g id="text_24">
     <!-- Metric Value -->
     <g transform="translate(540.983267 354.727919) rotate(-90) scale(0.22 -0.22)">
      <defs>
       <path id="DejaVuSans-4d" d="M 628 4666 
L 1569 4666 
L 2759 1491 
L 3956 4666 
L 4897 4666 
L 4897 0 
L 4281 0 
L 4281 4097 
L 3078 897 
L 2444 897 
L 1241 4097 
L 1241 0 
L 628 0 
L 628 4666 
z
" transform="scale(0.015625)"/>
       <path id="DejaVuSans-65" d="M 3597 1894 
L 3597 1613 
L 953 1613 
Q 991 1019 1311 708 
Q 1631 397 2203 397 
Q 2534 397 2845 478 
Q 3156 559 3463 722 
L 3463 178 
Q 3153 47 2828 -22 
Q 2503 -91 2169 -91 
Q 1331 -91 842 396 
Q 353 884 353 1716 
Q 353 2575 817 3079 
Q 1281 3584 2069 3584 
Q 2775 3584 3186 3129 
Q 3597 2675 3597 1894 
z
M 3022 2063 
Q 3016 2534 2758 2815 
Q 2500 3097 2075 3097 
Q 1594 3097 1305 2825 
Q 1016 2553 972 2059 
L 3022 2063 
z
" transform="scale(0.015625)"/>
       <path id="DejaVuSans-74" d="M 1172 4494 
L 1172 3500 
L 2356 3500 
L 2356 3053 
L 1172 3053 
L 1172 1153 
Q 1172 725 1289 603 
Q 1406 481 1766 481 
L 2356 481 
L 2356 0 
L 1766 0 
Q 1100 0 847 248 
Q 594 497 594 1153 
L 594 3053 
L 172 3053 
L 172 3500 
L 594 3500 
L 594 4494 
L 1172 4494 
z
" transform="scale(0.015625)"/>
       <path id="DejaVuSans-72" d="M 2631 2963 
Q 2534 3019 2420 3045 
Q 2306 3072 2169 3072 
Q 1681 3072 1420 2755 
Q 1159 2438 1159 1844 
L 1159 0 
L 581 0 
L 581 3500 
L 1159 3500 
L 1159 2956 
Q 1341 3275 1631 3429 
Q 1922 3584 2338 3584 
Q 2397 3584 2469 3576 
Q 2541 3569 2628 3553 
L 2631 2963 
z
" transform="scale(0.015625)"/>
       <path id="DejaVuSans-69" d="M 603 3500 
L 1178 3500 
L 1178 0 
L 603 0 
L 603 3500 
z
M 603 4863 
L 1178 4863 
L 1178 4134 
L 603 4134 
L 603 4863 
z
" transform="scale(0.015625)"/>
       <path id="DejaVuSans-63" d="M 3122 3366 
L 3122 2828 
Q 2878 2963 2633 3030 
Q 2388 3097 2138 3097 
Q 1578 3097 1268 2742 
Q 959 2388 959 1747 
Q 959 1106 1268 751 
Q 1578 397 2138 397 
Q 2388 397 2633 464 
Q 2878 531 3122 666 
L 3122 134 
Q 2881 22 2623 -34 
Q 2366 -91 2075 -91 
Q 1284 -91 818 406 
Q 353 903 353 1747 
Q 353 2603 823 3093 
Q 1294 3584 2113 3584 
Q 2378 3584 2631 3529 
Q 2884 3475 3122 3366 
z
" transform="scale(0.015625)"/>
       <path id="DejaVuSans-20" transform="scale(0.015625)"/>
       <path id="DejaVuSans-56" d="M 1831 0 
L 50 4666 
L 709 4666 
L 2188 738 
L 3669 4666 
L 4325 4666 
L 2547 0 
L 1831 0 
z
" transform="scale(0.015625)"/>
       <path id="DejaVuSans-61" d="M 2194 1759 
Q 1497 1759 1228 1600 
Q 959 1441 959 1056 
Q 959 750 1161 570 
Q 1363 391 1709 391 
Q 2188 391 2477 730 
Q 2766 1069 2766 1631 
L 2766 1759 
L 2194 1759 
z
M 3341 1997 
L 3341 0 
L 2766 0 
L 2766 531 
Q 2569 213 2275 61 
Q 1981 -91 1556 -91 
Q 1019 -91 701 211 
Q 384 513 384 1019 
Q 384 1609 779 1909 
Q 1175 2209 1959 2209 
L 2766 2209 
L 2766 2266 
Q 2766 2663 2505 2880 
Q 2244 3097 1772 3097 
Q 1472 3097 1187 3025 
Q 903 2953 641 2809 
L 641 3341 
Q 956 3463 1253 3523 
Q 1550 3584 1831 3584 
Q 2591 3584 2966 3190 
Q 3341 2797 3341 1997 
z
" transform="scale(0.015625)"/>
       <path id="DejaVuSans-6c" d="M 603 4863 
L 1178 4863 
L 1178 0 
L 603 0 
L 603 4863 
z
" transform="scale(0.015625)"/>
       <path id="DejaVuSans-75" d="M 544 1381 
L 544 3500 
L 1119 3500 
L 1119 1403 
Q 1119 906 1312 657 
Q 1506 409 1894 409 
Q 2359 409 2629 706 
Q 2900 1003 2900 1516 
L 2900 3500 
L 3475 3500 
L 3475 0 
L 2900 0 
L 2900 538 
Q 2691 219 2414 64 
Q 2138 -91 1772 -91 
Q 1169 -91 856 284 
Q 544 659 544 1381 
z
M 1991 3584 
L 1991 3584 
z
" transform="scale(0.015625)"/>
      </defs>
      <use xlink:href="#DejaVuSans-4d"/>
      <use xlink:href="#DejaVuSans-65" x="86.279297"/>
      <use xlink:href="#DejaVuSans-74" x="147.802734"/>
      <use xlink:href="#DejaVuSans-72" x="187.011719"/>
      <use xlink:href="#DejaVuSans-69" x="228.125"/>
      <use xlink:href="#DejaVuSans-63" x="255.908203"/>
      <use xlink:href="#DejaVuSans-20" x="310.888672"/>
      <use xlink:href="#DejaVuSans-56" x="342.675781"/>
      <use xlink:href="#DejaVuSans-61" x="403.333984"/>
      <use xlink:href="#DejaVuSans-6c" x="464.613281"/>
      <use xlink:href="#DejaVuSans-75" x="492.396484"/>
      <use xlink:href="#DejaVuSans-65" x="555.775391"/>
     </g>
    </g>
   </g>
   <g id="patch_20">
    <path d="M 591.545455 418.130526 
L 591.545455 155.52 
" style="fill: none; stroke: #000000; stroke-width: 0.8; stroke-linejoin: miter; stroke-linecap: square"/>
   </g>
   <g id="patch_21">
    <path d="M 972 418.130526 
L 972 155.52 
" style="fill: none; stroke: #000000; stroke-width: 0.8; stroke-linejoin: miter; stroke-linecap: square"/>
   </g>
   <g id="patch_22">
    <path d="M 591.545455 418.130526 
L 972 418.130526 
" style="fill: none; stroke: #000000; stroke-width: 0.8; stroke-linejoin: miter; stroke-linecap: square"/>
   </g>
   <g id="patch_23">
    <path d="M 591.545455 155.52 
L 972 155.52 
" style="fill: none; stroke: #000000; stroke-width: 0.8; stroke-linejoin: miter; stroke-linecap: square"/>
   </g>
   <g id="text_25">
    <!-- b -->
    <g transform="translate(544.871761 137.404046) scale(0.28 -0.28)">
     <defs>
      <path id="DejaVuSans-Bold-62" d="M 2400 722 
Q 2759 722 2948 984 
Q 3138 1247 3138 1747 
Q 3138 2247 2948 2509 
Q 2759 2772 2400 2772 
Q 2041 2772 1848 2508 
Q 1656 2244 1656 1747 
Q 1656 1250 1848 986 
Q 2041 722 2400 722 
z
M 1656 2988 
Q 1888 3294 2169 3439 
Q 2450 3584 2816 3584 
Q 3463 3584 3878 3070 
Q 4294 2556 4294 1747 
Q 4294 938 3878 423 
Q 3463 -91 2816 -91 
Q 2450 -91 2169 54 
Q 1888 200 1656 506 
L 1656 0 
L 538 0 
L 538 4863 
L 1656 4863 
L 1656 2988 
z
" transform="scale(0.015625)"/>
     </defs>
     <use xlink:href="#DejaVuSans-Bold-62"/>
    </g>
   </g>
   <g id="text_26">
    <!-- Metrics -->
    <g transform="translate(734.584759 149.52) scale(0.26 -0.26)">
     <defs>
      <path id="DejaVuSans-73" d="M 2834 3397 
L 2834 2853 
Q 2591 2978 2328 3040 
Q 2066 3103 1784 3103 
Q 1356 3103 1142 2972 
Q 928 2841 928 2578 
Q 928 2378 1081 2264 
Q 1234 2150 1697 2047 
L 1894 2003 
Q 2506 1872 2764 1633 
Q 3022 1394 3022 966 
Q 3022 478 2636 193 
Q 2250 -91 1575 -91 
Q 1294 -91 989 -36 
Q 684 19 347 128 
L 347 722 
Q 666 556 975 473 
Q 1284 391 1588 391 
Q 1994 391 2212 530 
Q 2431 669 2431 922 
Q 2431 1156 2273 1281 
Q 2116 1406 1581 1522 
L 1381 1569 
Q 847 1681 609 1914 
Q 372 2147 372 2553 
Q 372 3047 722 3315 
Q 1072 3584 1716 3584 
Q 2034 3584 2315 3537 
Q 2597 3491 2834 3397 
z
" transform="scale(0.015625)"/>
     </defs>
     <use xlink:href="#DejaVuSans-4d"/>
     <use xlink:href="#DejaVuSans-65" x="86.279297"/>
     <use xlink:href="#DejaVuSans-74" x="147.802734"/>
     <use xlink:href="#DejaVuSans-72" x="187.011719"/>
     <use xlink:href="#DejaVuSans-69" x="228.125"/>
     <use xlink:href="#DejaVuSans-63" x="255.908203"/>
     <use xlink:href="#DejaVuSans-73" x="310.888672"/>
    </g>
   </g>
  </g>
  <g id="axes_3">
   <g id="patch_24">
    <path d="M 135 785.785263 
L 515.454545 785.785263 
L 515.454545 523.174737 
L 135 523.174737 
z
" style="fill: #ffffff"/>
   </g>
   <g id="matplotlib.axis_5">
    <g id="xtick_10">
     <g id="line2d_24">
      <g>
       <use xlink:href="#m1f277b8ca6" x="137.882231" y="785.785263" style="stroke: #000000; stroke-width: 0.8"/>
      </g>
     </g>
     <g id="text_27">
      <!-- 0 -->
      <g transform="translate(130.883481 809.501826) scale(0.22 -0.22)">
       <use xlink:href="#DejaVuSans-30"/>
      </g>
     </g>
    </g>
    <g id="xtick_11">
     <g id="line2d_25">
      <g>
       <use xlink:href="#m1f277b8ca6" x="281.993802" y="785.785263" style="stroke: #000000; stroke-width: 0.8"/>
      </g>
     </g>
     <g id="text_28">
      <!-- 20 -->
      <g transform="translate(267.996302 809.501826) scale(0.22 -0.22)">
       <use xlink:href="#DejaVuSans-32"/>
       <use xlink:href="#DejaVuSans-30" x="63.623047"/>
      </g>
     </g>
    </g>
    <g id="xtick_12">
     <g id="line2d_26">
      <g>
       <use xlink:href="#m1f277b8ca6" x="426.105372" y="785.785263" style="stroke: #000000; stroke-width: 0.8"/>
      </g>
     </g>
     <g id="text_29">
      <!-- 40 -->
      <g transform="translate(412.107872 809.501826) scale(0.22 -0.22)">
       <use xlink:href="#DejaVuSans-34"/>
       <use xlink:href="#DejaVuSans-30" x="63.623047"/>
      </g>
     </g>
    </g>
    <g id="text_30">
     <!-- k -->
     <g transform="translate(318.278523 836.313388) scale(0.24 -0.24)">
      <use xlink:href="#DejaVuSans-6b"/>
     </g>
    </g>
   </g>
   <g id="matplotlib.axis_6">
    <g id="ytick_11">
     <g id="line2d_27">
      <g>
       <use xlink:href="#md735427dda" x="135" y="727.693379" style="stroke: #000000; stroke-width: 0.8"/>
      </g>
     </g>
     <g id="text_31">
      <!-- 0.96 -->
      <g transform="translate(79.015625 736.05166) scale(0.22 -0.22)">
       <defs>
        <path id="DejaVuSans-39" d="M 703 97 
L 703 672 
Q 941 559 1184 500 
Q 1428 441 1663 441 
Q 2288 441 2617 861 
Q 2947 1281 2994 2138 
Q 2813 1869 2534 1725 
Q 2256 1581 1919 1581 
Q 1219 1581 811 2004 
Q 403 2428 403 3163 
Q 403 3881 828 4315 
Q 1253 4750 1959 4750 
Q 2769 4750 3195 4129 
Q 3622 3509 3622 2328 
Q 3622 1225 3098 567 
Q 2575 -91 1691 -91 
Q 1453 -91 1209 -44 
Q 966 3 703 97 
z
M 1959 2075 
Q 2384 2075 2632 2365 
Q 2881 2656 2881 3163 
Q 2881 3666 2632 3958 
Q 2384 4250 1959 4250 
Q 1534 4250 1286 3958 
Q 1038 3666 1038 3163 
Q 1038 2656 1286 2365 
Q 1534 2075 1959 2075 
z
" transform="scale(0.015625)"/>
       </defs>
       <use xlink:href="#DejaVuSans-30"/>
       <use xlink:href="#DejaVuSans-2e" x="63.623047"/>
       <use xlink:href="#DejaVuSans-39" x="95.410156"/>
       <use xlink:href="#DejaVuSans-36" x="159.033203"/>
      </g>
     </g>
    </g>
    <g id="ytick_12">
     <g id="line2d_28">
      <g>
       <use xlink:href="#md735427dda" x="135" y="628.514061" style="stroke: #000000; stroke-width: 0.8"/>
      </g>
     </g>
     <g id="text_32">
      <!-- 0.98 -->
      <g transform="translate(79.015625 636.872342) scale(0.22 -0.22)">
       <use xlink:href="#DejaVuSans-30"/>
       <use xlink:href="#DejaVuSans-2e" x="63.623047"/>
       <use xlink:href="#DejaVuSans-39" x="95.410156"/>
       <use xlink:href="#DejaVuSans-38" x="159.033203"/>
      </g>
     </g>
    </g>
    <g id="ytick_13">
     <g id="line2d_29">
      <g>
       <use xlink:href="#md735427dda" x="135" y="529.334743" style="stroke: #000000; stroke-width: 0.8"/>
      </g>
     </g>
     <g id="text_33">
      <!-- 1.00 -->
      <g transform="translate(79.015625 537.693024) scale(0.22 -0.22)">
       <use xlink:href="#DejaVuSans-31"/>
       <use xlink:href="#DejaVuSans-2e" x="63.623047"/>
       <use xlink:href="#DejaVuSans-30" x="95.410156"/>
       <use xlink:href="#DejaVuSans-30" x="159.033203"/>
      </g>
     </g>
    </g>
    <g id="text_34">
     <!-- Metric Value -->
     <g transform="translate(70.024375 728.555625) rotate(-90) scale(0.24 -0.24)">
      <use xlink:href="#DejaVuSans-4d"/>
      <use xlink:href="#DejaVuSans-65" x="86.279297"/>
      <use xlink:href="#DejaVuSans-74" x="147.802734"/>
      <use xlink:href="#DejaVuSans-72" x="187.011719"/>
      <use xlink:href="#DejaVuSans-69" x="228.125"/>
      <use xlink:href="#DejaVuSans-63" x="255.908203"/>
      <use xlink:href="#DejaVuSans-20" x="310.888672"/>
      <use xlink:href="#DejaVuSans-56" x="342.675781"/>
      <use xlink:href="#DejaVuSans-61" x="403.333984"/>
      <use xlink:href="#DejaVuSans-6c" x="464.613281"/>
      <use xlink:href="#DejaVuSans-75" x="492.396484"/>
      <use xlink:href="#DejaVuSans-65" x="555.775391"/>
     </g>
    </g>
   </g>
   <g id="line2d_30">
    <path d="M 152.293388 751.064336 
L 173.910124 765.489011 
L 209.938017 769.291687 
L 281.993802 773.848421 
L 498.161157 762.002988 
" clip-path="url(#pf086e1ce88)" style="fill: none; stroke: #1f77b4; stroke-width: 1.5; stroke-linecap: square"/>
    <g clip-path="url(#pf086e1ce88)">
     <use xlink:href="#m0e8ea90614" x="152.293388" y="751.064336" style="fill: #1f77b4; stroke: #1f77b4"/>
     <use xlink:href="#m0e8ea90614" x="173.910124" y="765.489011" style="fill: #1f77b4; stroke: #1f77b4"/>
     <use xlink:href="#m0e8ea90614" x="209.938017" y="769.291687" style="fill: #1f77b4; stroke: #1f77b4"/>
     <use xlink:href="#m0e8ea90614" x="281.993802" y="773.848421" style="fill: #1f77b4; stroke: #1f77b4"/>
     <use xlink:href="#m0e8ea90614" x="498.161157" y="762.002988" style="fill: #1f77b4; stroke: #1f77b4"/>
    </g>
   </g>
   <g id="line2d_31">
    <path d="M 152.293388 535.111579 
L 173.910124 546.642248 
L 209.938017 561.94608 
L 281.993802 586.769491 
L 498.161157 639.494712 
" clip-path="url(#pf086e1ce88)" style="fill: none; stroke: #ff7f0e; stroke-width: 1.5; stroke-linecap: square"/>
    <g clip-path="url(#pf086e1ce88)">
     <use xlink:href="#m2a72bcc91a" x="152.293388" y="535.111579" style="fill: #ff7f0e; stroke: #ff7f0e"/>
     <use xlink:href="#m2a72bcc91a" x="173.910124" y="546.642248" style="fill: #ff7f0e; stroke: #ff7f0e"/>
     <use xlink:href="#m2a72bcc91a" x="209.938017" y="561.94608" style="fill: #ff7f0e; stroke: #ff7f0e"/>
     <use xlink:href="#m2a72bcc91a" x="281.993802" y="586.769491" style="fill: #ff7f0e; stroke: #ff7f0e"/>
     <use xlink:href="#m2a72bcc91a" x="498.161157" y="639.494712" style="fill: #ff7f0e; stroke: #ff7f0e"/>
    </g>
   </g>
   <g id="line2d_32">
    <path d="M 152.293388 567.308078 
L 173.910124 573.734166 
L 209.938017 585.352366 
L 281.993802 605.482712 
L 498.161157 662.020982 
" clip-path="url(#pf086e1ce88)" style="fill: none; stroke: #2ca02c; stroke-width: 1.5; stroke-linecap: square"/>
    <g clip-path="url(#pf086e1ce88)">
     <use xlink:href="#m68e3b1ad7b" x="152.293388" y="567.308078" style="fill: #2ca02c; stroke: #2ca02c"/>
     <use xlink:href="#m68e3b1ad7b" x="173.910124" y="573.734166" style="fill: #2ca02c; stroke: #2ca02c"/>
     <use xlink:href="#m68e3b1ad7b" x="209.938017" y="585.352366" style="fill: #2ca02c; stroke: #2ca02c"/>
     <use xlink:href="#m68e3b1ad7b" x="281.993802" y="605.482712" style="fill: #2ca02c; stroke: #2ca02c"/>
     <use xlink:href="#m68e3b1ad7b" x="498.161157" y="662.020982" style="fill: #2ca02c; stroke: #2ca02c"/>
    </g>
   </g>
   <g id="line2d_33">
    <path d="M 152.293388 597.697584 
L 173.910124 602.883915 
L 209.938017 619.149451 
L 281.993802 646.650027 
L 498.161157 757.513446 
" clip-path="url(#pf086e1ce88)" style="fill: none; stroke: #d62728; stroke-width: 1.5; stroke-linecap: square"/>
    <g clip-path="url(#pf086e1ce88)">
     <use xlink:href="#m51768dd837" x="152.293388" y="597.697584" style="fill: #d62728; stroke: #d62728"/>
     <use xlink:href="#m51768dd837" x="173.910124" y="602.883915" style="fill: #d62728; stroke: #d62728"/>
     <use xlink:href="#m51768dd837" x="209.938017" y="619.149451" style="fill: #d62728; stroke: #d62728"/>
     <use xlink:href="#m51768dd837" x="281.993802" y="646.650027" style="fill: #d62728; stroke: #d62728"/>
     <use xlink:href="#m51768dd837" x="498.161157" y="757.513446" style="fill: #d62728; stroke: #d62728"/>
    </g>
   </g>
   <g id="patch_25">
    <path d="M 135 785.785263 
L 135 523.174737 
" style="fill: none; stroke: #000000; stroke-width: 0.8; stroke-linejoin: miter; stroke-linecap: square"/>
   </g>
   <g id="patch_26">
    <path d="M 515.454545 785.785263 
L 515.454545 523.174737 
" style="fill: none; stroke: #000000; stroke-width: 0.8; stroke-linejoin: miter; stroke-linecap: square"/>
   </g>
   <g id="patch_27">
    <path d="M 135 785.785263 
L 515.454545 785.785263 
" style="fill: none; stroke: #000000; stroke-width: 0.8; stroke-linejoin: miter; stroke-linecap: square"/>
   </g>
   <g id="patch_28">
    <path d="M 135 523.174737 
L 515.454545 523.174737 
" style="fill: none; stroke: #000000; stroke-width: 0.8; stroke-linejoin: miter; stroke-linecap: square"/>
   </g>
   <g id="text_35">
    <!-- c -->
    <g transform="translate(91.769432 505.058783) scale(0.28 -0.28)">
     <defs>
      <path id="DejaVuSans-Bold-63" d="M 3366 3391 
L 3366 2478 
Q 3138 2634 2908 2709 
Q 2678 2784 2431 2784 
Q 1963 2784 1702 2511 
Q 1441 2238 1441 1747 
Q 1441 1256 1702 982 
Q 1963 709 2431 709 
Q 2694 709 2930 787 
Q 3166 866 3366 1019 
L 3366 103 
Q 3103 6 2833 -42 
Q 2563 -91 2291 -91 
Q 1344 -91 809 395 
Q 275 881 275 1747 
Q 275 2613 809 3098 
Q 1344 3584 2291 3584 
Q 2566 3584 2833 3536 
Q 3100 3488 3366 3391 
z
" transform="scale(0.015625)"/>
     </defs>
     <use xlink:href="#DejaVuSans-Bold-63"/>
    </g>
   </g>
   <g id="text_36">
    <!-- Trustworthiness -->
    <g transform="translate(230.950398 517.174737) scale(0.24 -0.24)">
     <defs>
      <path id="DejaVuSans-54" d="M -19 4666 
L 3928 4666 
L 3928 4134 
L 2272 4134 
L 2272 0 
L 1638 0 
L 1638 4134 
L -19 4134 
L -19 4666 
z
" transform="scale(0.015625)"/>
      <path id="DejaVuSans-77" d="M 269 3500 
L 844 3500 
L 1563 769 
L 2278 3500 
L 2956 3500 
L 3675 769 
L 4391 3500 
L 4966 3500 
L 4050 0 
L 3372 0 
L 2619 2869 
L 1863 0 
L 1184 0 
L 269 3500 
z
" transform="scale(0.015625)"/>
      <path id="DejaVuSans-6f" d="M 1959 3097 
Q 1497 3097 1228 2736 
Q 959 2375 959 1747 
Q 959 1119 1226 758 
Q 1494 397 1959 397 
Q 2419 397 2687 759 
Q 2956 1122 2956 1747 
Q 2956 2369 2687 2733 
Q 2419 3097 1959 3097 
z
M 1959 3584 
Q 2709 3584 3137 3096 
Q 3566 2609 3566 1747 
Q 3566 888 3137 398 
Q 2709 -91 1959 -91 
Q 1206 -91 779 398 
Q 353 888 353 1747 
Q 353 2609 779 3096 
Q 1206 3584 1959 3584 
z
" transform="scale(0.015625)"/>
      <path id="DejaVuSans-68" d="M 3513 2113 
L 3513 0 
L 2938 0 
L 2938 2094 
Q 2938 2591 2744 2837 
Q 2550 3084 2163 3084 
Q 1697 3084 1428 2787 
Q 1159 2491 1159 1978 
L 1159 0 
L 581 0 
L 581 4863 
L 1159 4863 
L 1159 2956 
Q 1366 3272 1645 3428 
Q 1925 3584 2291 3584 
Q 2894 3584 3203 3211 
Q 3513 2838 3513 2113 
z
" transform="scale(0.015625)"/>
      <path id="DejaVuSans-6e" d="M 3513 2113 
L 3513 0 
L 2938 0 
L 2938 2094 
Q 2938 2591 2744 2837 
Q 2550 3084 2163 3084 
Q 1697 3084 1428 2787 
Q 1159 2491 1159 1978 
L 1159 0 
L 581 0 
L 581 3500 
L 1159 3500 
L 1159 2956 
Q 1366 3272 1645 3428 
Q 1925 3584 2291 3584 
Q 2894 3584 3203 3211 
Q 3513 2838 3513 2113 
z
" transform="scale(0.015625)"/>
     </defs>
     <use xlink:href="#DejaVuSans-54"/>
     <use xlink:href="#DejaVuSans-72" x="46.333984"/>
     <use xlink:href="#DejaVuSans-75" x="87.447266"/>
     <use xlink:href="#DejaVuSans-73" x="150.826172"/>
     <use xlink:href="#DejaVuSans-74" x="202.925781"/>
     <use xlink:href="#DejaVuSans-77" x="242.134766"/>
     <use xlink:href="#DejaVuSans-6f" x="323.921875"/>
     <use xlink:href="#DejaVuSans-72" x="385.103516"/>
     <use xlink:href="#DejaVuSans-74" x="426.216797"/>
     <use xlink:href="#DejaVuSans-68" x="465.425781"/>
     <use xlink:href="#DejaVuSans-69" x="528.804688"/>
     <use xlink:href="#DejaVuSans-6e" x="556.587891"/>
     <use xlink:href="#DejaVuSans-65" x="619.966797"/>
     <use xlink:href="#DejaVuSans-73" x="681.490234"/>
     <use xlink:href="#DejaVuSans-73" x="733.589844"/>
    </g>
   </g>
  </g>
  <g id="axes_4">
   <g id="patch_29">
    <path d="M 591.545455 785.785263 
L 972 785.785263 
L 972 523.174737 
L 591.545455 523.174737 
z
" style="fill: #ffffff"/>
   </g>
   <g id="matplotlib.axis_7">
    <g id="xtick_13">
     <g id="line2d_34">
      <g>
       <use xlink:href="#m1f277b8ca6" x="594.427686" y="785.785263" style="stroke: #000000; stroke-width: 0.8"/>
      </g>
     </g>
     <g id="text_37">
      <!-- 0 -->
      <g transform="translate(587.428936 809.501826) scale(0.22 -0.22)">
       <use xlink:href="#DejaVuSans-30"/>
      </g>
     </g>
    </g>
    <g id="xtick_14">
     <g id="line2d_35">
      <g>
       <use xlink:href="#m1f277b8ca6" x="738.539256" y="785.785263" style="stroke: #000000; stroke-width: 0.8"/>
      </g>
     </g>
     <g id="text_38">
      <!-- 20 -->
      <g transform="translate(724.541756 809.501826) scale(0.22 -0.22)">
       <use xlink:href="#DejaVuSans-32"/>
       <use xlink:href="#DejaVuSans-30" x="63.623047"/>
      </g>
     </g>
    </g>
    <g id="xtick_15">
     <g id="line2d_36">
      <g>
       <use xlink:href="#m1f277b8ca6" x="882.650826" y="785.785263" style="stroke: #000000; stroke-width: 0.8"/>
      </g>
     </g>
     <g id="text_39">
      <!-- 40 -->
      <g transform="translate(868.653326 809.501826) scale(0.22 -0.22)">
       <use xlink:href="#DejaVuSans-34"/>
       <use xlink:href="#DejaVuSans-30" x="63.623047"/>
      </g>
     </g>
    </g>
    <g id="text_40">
     <!-- k -->
     <g transform="translate(774.823977 836.313388) scale(0.24 -0.24)">
      <use xlink:href="#DejaVuSans-6b"/>
     </g>
    </g>
   </g>
   <g id="matplotlib.axis_8">
    <g id="ytick_14">
     <g id="line2d_37">
      <g>
       <use xlink:href="#md735427dda" x="591.545455" y="767.661584" style="stroke: #000000; stroke-width: 0.8"/>
      </g>
     </g>
     <g id="text_41">
      <!-- 0.85 -->
      <g transform="translate(535.56108 776.019866) scale(0.22 -0.22)">
       <use xlink:href="#DejaVuSans-30"/>
       <use xlink:href="#DejaVuSans-2e" x="63.623047"/>
       <use xlink:href="#DejaVuSans-38" x="95.410156"/>
       <use xlink:href="#DejaVuSans-35" x="159.033203"/>
      </g>
     </g>
    </g>
    <g id="ytick_15">
     <g id="line2d_38">
      <g>
       <use xlink:href="#md735427dda" x="591.545455" y="687.923013" style="stroke: #000000; stroke-width: 0.8"/>
      </g>
     </g>
     <g id="text_42">
      <!-- 0.90 -->
      <g transform="translate(535.56108 696.281294) scale(0.22 -0.22)">
       <use xlink:href="#DejaVuSans-30"/>
       <use xlink:href="#DejaVuSans-2e" x="63.623047"/>
       <use xlink:href="#DejaVuSans-39" x="95.410156"/>
       <use xlink:href="#DejaVuSans-30" x="159.033203"/>
      </g>
     </g>
    </g>
    <g id="ytick_16">
     <g id="line2d_39">
      <g>
       <use xlink:href="#md735427dda" x="591.545455" y="608.184441" style="stroke: #000000; stroke-width: 0.8"/>
      </g>
     </g>
     <g id="text_43">
      <!-- 0.95 -->
      <g transform="translate(535.56108 616.542722) scale(0.22 -0.22)">
       <use xlink:href="#DejaVuSans-30"/>
       <use xlink:href="#DejaVuSans-2e" x="63.623047"/>
       <use xlink:href="#DejaVuSans-39" x="95.410156"/>
       <use xlink:href="#DejaVuSans-35" x="159.033203"/>
      </g>
     </g>
    </g>
    <g id="ytick_17">
     <g id="line2d_40">
      <g>
       <use xlink:href="#md735427dda" x="591.545455" y="528.445869" style="stroke: #000000; stroke-width: 0.8"/>
      </g>
     </g>
     <g id="text_44">
      <!-- 1.00 -->
      <g transform="translate(535.56108 536.804151) scale(0.22 -0.22)">
       <use xlink:href="#DejaVuSans-31"/>
       <use xlink:href="#DejaVuSans-2e" x="63.623047"/>
       <use xlink:href="#DejaVuSans-30" x="95.410156"/>
       <use xlink:href="#DejaVuSans-30" x="159.033203"/>
      </g>
     </g>
    </g>
   </g>
   <g id="line2d_41">
    <path d="M 608.838843 539.543831 
L 630.455579 543.660873 
L 666.483471 547.877162 
L 738.539256 553.204238 
L 954.706612 558.215267 
" clip-path="url(#p93127a6e80)" style="fill: none; stroke: #1f77b4; stroke-width: 1.5; stroke-linecap: square"/>
    <g clip-path="url(#p93127a6e80)">
     <use xlink:href="#m0e8ea90614" x="608.838843" y="539.543831" style="fill: #1f77b4; stroke: #1f77b4"/>
     <use xlink:href="#m0e8ea90614" x="630.455579" y="543.660873" style="fill: #1f77b4; stroke: #1f77b4"/>
     <use xlink:href="#m0e8ea90614" x="666.483471" y="547.877162" style="fill: #1f77b4; stroke: #1f77b4"/>
     <use xlink:href="#m0e8ea90614" x="738.539256" y="553.204238" style="fill: #1f77b4; stroke: #1f77b4"/>
     <use xlink:href="#m0e8ea90614" x="954.706612" y="558.215267" style="fill: #1f77b4; stroke: #1f77b4"/>
    </g>
   </g>
   <g id="line2d_42">
    <path d="M 608.838843 536.184351 
L 630.455579 542.509328 
L 666.483471 550.22295 
L 738.539256 560.599506 
L 954.706612 576.05775 
" clip-path="url(#p93127a6e80)" style="fill: none; stroke: #ff7f0e; stroke-width: 1.5; stroke-linecap: square"/>
    <g clip-path="url(#p93127a6e80)">
     <use xlink:href="#m2a72bcc91a" x="608.838843" y="536.184351" style="fill: #ff7f0e; stroke: #ff7f0e"/>
     <use xlink:href="#m2a72bcc91a" x="630.455579" y="542.509328" style="fill: #ff7f0e; stroke: #ff7f0e"/>
     <use xlink:href="#m2a72bcc91a" x="666.483471" y="550.22295" style="fill: #ff7f0e; stroke: #ff7f0e"/>
     <use xlink:href="#m2a72bcc91a" x="738.539256" y="560.599506" style="fill: #ff7f0e; stroke: #ff7f0e"/>
     <use xlink:href="#m2a72bcc91a" x="954.706612" y="576.05775" style="fill: #ff7f0e; stroke: #ff7f0e"/>
    </g>
   </g>
   <g id="line2d_43">
    <path d="M 608.838843 535.111579 
L 630.455579 539.864594 
L 666.483471 547.973702 
L 738.539256 560.845276 
L 954.706612 582.535093 
" clip-path="url(#p93127a6e80)" style="fill: none; stroke: #2ca02c; stroke-width: 1.5; stroke-linecap: square"/>
    <g clip-path="url(#p93127a6e80)">
     <use xlink:href="#m68e3b1ad7b" x="608.838843" y="535.111579" style="fill: #2ca02c; stroke: #2ca02c"/>
     <use xlink:href="#m68e3b1ad7b" x="630.455579" y="539.864594" style="fill: #2ca02c; stroke: #2ca02c"/>
     <use xlink:href="#m68e3b1ad7b" x="666.483471" y="547.973702" style="fill: #2ca02c; stroke: #2ca02c"/>
     <use xlink:href="#m68e3b1ad7b" x="738.539256" y="560.845276" style="fill: #2ca02c; stroke: #2ca02c"/>
     <use xlink:href="#m68e3b1ad7b" x="954.706612" y="582.535093" style="fill: #2ca02c; stroke: #2ca02c"/>
    </g>
   </g>
   <g id="line2d_44">
    <path d="M 608.838843 588.48431 
L 630.455579 615.601151 
L 666.483471 645.921107 
L 738.539256 693.655062 
L 954.706612 773.848421 
" clip-path="url(#p93127a6e80)" style="fill: none; stroke: #d62728; stroke-width: 1.5; stroke-linecap: square"/>
    <g clip-path="url(#p93127a6e80)">
     <use xlink:href="#m51768dd837" x="608.838843" y="588.48431" style="fill: #d62728; stroke: #d62728"/>
     <use xlink:href="#m51768dd837" x="630.455579" y="615.601151" style="fill: #d62728; stroke: #d62728"/>
     <use xlink:href="#m51768dd837" x="666.483471" y="645.921107" style="fill: #d62728; stroke: #d62728"/>
     <use xlink:href="#m51768dd837" x="738.539256" y="693.655062" style="fill: #d62728; stroke: #d62728"/>
     <use xlink:href="#m51768dd837" x="954.706612" y="773.848421" style="fill: #d62728; stroke: #d62728"/>
    </g>
   </g>
   <g id="patch_30">
    <path d="M 591.545455 785.785263 
L 591.545455 523.174737 
" style="fill: none; stroke: #000000; stroke-width: 0.8; stroke-linejoin: miter; stroke-linecap: square"/>
   </g>
   <g id="patch_31">
    <path d="M 972 785.785263 
L 972 523.174737 
" style="fill: none; stroke: #000000; stroke-width: 0.8; stroke-linejoin: miter; stroke-linecap: square"/>
   </g>
   <g id="patch_32">
    <path d="M 591.545455 785.785263 
L 972 785.785263 
" style="fill: none; stroke: #000000; stroke-width: 0.8; stroke-linejoin: miter; stroke-linecap: square"/>
   </g>
   <g id="patch_33">
    <path d="M 591.545455 523.174737 
L 972 523.174737 
" style="fill: none; stroke: #000000; stroke-width: 0.8; stroke-linejoin: miter; stroke-linecap: square"/>
   </g>
   <g id="text_45">
    <!-- d -->
    <g transform="translate(544.871761 505.058783) scale(0.28 -0.28)">
     <defs>
      <path id="DejaVuSans-Bold-64" d="M 2919 2988 
L 2919 4863 
L 4044 4863 
L 4044 0 
L 2919 0 
L 2919 506 
Q 2688 197 2409 53 
Q 2131 -91 1766 -91 
Q 1119 -91 703 423 
Q 288 938 288 1747 
Q 288 2556 703 3070 
Q 1119 3584 1766 3584 
Q 2128 3584 2408 3439 
Q 2688 3294 2919 2988 
z
M 2181 722 
Q 2541 722 2730 984 
Q 2919 1247 2919 1747 
Q 2919 2247 2730 2509 
Q 2541 2772 2181 2772 
Q 1825 2772 1636 2509 
Q 1447 2247 1447 1747 
Q 1447 1247 1636 984 
Q 1825 722 2181 722 
z
" transform="scale(0.015625)"/>
     </defs>
     <use xlink:href="#DejaVuSans-Bold-64"/>
    </g>
   </g>
   <g id="text_46">
    <!-- Continuity -->
    <g transform="translate(720.057102 517.174737) scale(0.24 -0.24)">
     <defs>
      <path id="DejaVuSans-79" d="M 2059 -325 
Q 1816 -950 1584 -1140 
Q 1353 -1331 966 -1331 
L 506 -1331 
L 506 -850 
L 844 -850 
Q 1081 -850 1212 -737 
Q 1344 -625 1503 -206 
L 1606 56 
L 191 3500 
L 800 3500 
L 1894 763 
L 2988 3500 
L 3597 3500 
L 2059 -325 
z
" transform="scale(0.015625)"/>
     </defs>
     <use xlink:href="#DejaVuSans-43"/>
     <use xlink:href="#DejaVuSans-6f" x="69.824219"/>
     <use xlink:href="#DejaVuSans-6e" x="131.005859"/>
     <use xlink:href="#DejaVuSans-74" x="194.384766"/>
     <use xlink:href="#DejaVuSans-69" x="233.59375"/>
     <use xlink:href="#DejaVuSans-6e" x="261.376953"/>
     <use xlink:href="#DejaVuSans-75" x="324.755859"/>
     <use xlink:href="#DejaVuSans-69" x="388.134766"/>
     <use xlink:href="#DejaVuSans-74" x="415.917969"/>
     <use xlink:href="#DejaVuSans-79" x="455.126953"/>
    </g>
   </g>
  </g>
  <g id="axes_5">
   <g id="patch_34">
    <path d="M 135 1153.44 
L 515.454545 1153.44 
L 515.454545 890.829474 
L 135 890.829474 
z
" style="fill: #ffffff"/>
   </g>
   <g id="matplotlib.axis_9">
    <g id="xtick_16">
     <g id="line2d_45">
      <g>
       <use xlink:href="#m1f277b8ca6" x="152.122926" y="1153.44" style="stroke: #000000; stroke-width: 0.8"/>
      </g>
     </g>
     <g id="text_47">
      <!-- 0 -->
      <g transform="translate(145.124176 1177.156562) scale(0.22 -0.22)">
       <use xlink:href="#DejaVuSans-30"/>
      </g>
     </g>
    </g>
    <g id="xtick_17">
     <g id="line2d_46">
      <g>
       <use xlink:href="#m1f277b8ca6" x="237.354018" y="1153.44" style="stroke: #000000; stroke-width: 0.8"/>
      </g>
     </g>
     <g id="text_48">
      <!-- 500 -->
      <g transform="translate(216.357768 1177.156562) scale(0.22 -0.22)">
       <use xlink:href="#DejaVuSans-35"/>
       <use xlink:href="#DejaVuSans-30" x="63.623047"/>
       <use xlink:href="#DejaVuSans-30" x="127.246094"/>
      </g>
     </g>
    </g>
    <g id="xtick_18">
     <g id="line2d_47">
      <g>
       <use xlink:href="#m1f277b8ca6" x="322.585109" y="1153.44" style="stroke: #000000; stroke-width: 0.8"/>
      </g>
     </g>
     <g id="text_49">
      <!-- 1000 -->
      <g transform="translate(294.590109 1177.156562) scale(0.22 -0.22)">
       <use xlink:href="#DejaVuSans-31"/>
       <use xlink:href="#DejaVuSans-30" x="63.623047"/>
       <use xlink:href="#DejaVuSans-30" x="127.246094"/>
       <use xlink:href="#DejaVuSans-30" x="190.869141"/>
      </g>
     </g>
    </g>
    <g id="xtick_19">
     <g id="line2d_48">
      <g>
       <use xlink:href="#m1f277b8ca6" x="407.8162" y="1153.44" style="stroke: #000000; stroke-width: 0.8"/>
      </g>
     </g>
     <g id="text_50">
      <!-- 1500 -->
      <g transform="translate(379.8212 1177.156562) scale(0.22 -0.22)">
       <use xlink:href="#DejaVuSans-31"/>
       <use xlink:href="#DejaVuSans-35" x="63.623047"/>
       <use xlink:href="#DejaVuSans-30" x="127.246094"/>
       <use xlink:href="#DejaVuSans-30" x="190.869141"/>
      </g>
     </g>
    </g>
    <g id="xtick_20">
     <g id="line2d_49">
      <g>
       <use xlink:href="#m1f277b8ca6" x="493.047292" y="1153.44" style="stroke: #000000; stroke-width: 0.8"/>
      </g>
     </g>
     <g id="text_51">
      <!-- 2000 -->
      <g transform="translate(465.052292 1177.156562) scale(0.22 -0.22)">
       <use xlink:href="#DejaVuSans-32"/>
       <use xlink:href="#DejaVuSans-30" x="63.623047"/>
       <use xlink:href="#DejaVuSans-30" x="127.246094"/>
       <use xlink:href="#DejaVuSans-30" x="190.869141"/>
      </g>
     </g>
    </g>
    <g id="text_52">
     <!-- k -->
     <g transform="translate(318.278523 1203.968125) scale(0.24 -0.24)">
      <use xlink:href="#DejaVuSans-6b"/>
     </g>
    </g>
   </g>
   <g id="matplotlib.axis_10">
    <g id="ytick_18">
     <g id="line2d_50">
      <g>
       <use xlink:href="#md735427dda" x="135" y="1093.912647" style="stroke: #000000; stroke-width: 0.8"/>
      </g>
     </g>
     <g id="text_53">
      <!-- 0.4 -->
      <g transform="translate(93.013125 1102.270928) scale(0.22 -0.22)">
       <use xlink:href="#DejaVuSans-30"/>
       <use xlink:href="#DejaVuSans-2e" x="63.623047"/>
       <use xlink:href="#DejaVuSans-34" x="95.410156"/>
      </g>
     </g>
    </g>
    <g id="ytick_19">
     <g id="line2d_51">
      <g>
       <use xlink:href="#md735427dda" x="135" y="1030.197203" style="stroke: #000000; stroke-width: 0.8"/>
      </g>
     </g>
     <g id="text_54">
      <!-- 0.6 -->
      <g transform="translate(93.013125 1038.555484) scale(0.22 -0.22)">
       <use xlink:href="#DejaVuSans-30"/>
       <use xlink:href="#DejaVuSans-2e" x="63.623047"/>
       <use xlink:href="#DejaVuSans-36" x="95.410156"/>
      </g>
     </g>
    </g>
    <g id="ytick_20">
     <g id="line2d_52">
      <g>
       <use xlink:href="#md735427dda" x="135" y="966.481759" style="stroke: #000000; stroke-width: 0.8"/>
      </g>
     </g>
     <g id="text_55">
      <!-- 0.8 -->
      <g transform="translate(93.013125 974.840041) scale(0.22 -0.22)">
       <use xlink:href="#DejaVuSans-30"/>
       <use xlink:href="#DejaVuSans-2e" x="63.623047"/>
       <use xlink:href="#DejaVuSans-38" x="95.410156"/>
      </g>
     </g>
    </g>
    <g id="ytick_21">
     <g id="line2d_53">
      <g>
       <use xlink:href="#md735427dda" x="135" y="902.766316" style="stroke: #000000; stroke-width: 0.8"/>
      </g>
     </g>
     <g id="text_56">
      <!-- 1.0 -->
      <g transform="translate(93.013125 911.124597) scale(0.22 -0.22)">
       <use xlink:href="#DejaVuSans-31"/>
       <use xlink:href="#DejaVuSans-2e" x="63.623047"/>
       <use xlink:href="#DejaVuSans-30" x="95.410156"/>
      </g>
     </g>
    </g>
    <g id="text_57">
     <!-- Metric Value -->
     <g transform="translate(84.021875 1096.210362) rotate(-90) scale(0.24 -0.24)">
      <use xlink:href="#DejaVuSans-4d"/>
      <use xlink:href="#DejaVuSans-65" x="86.279297"/>
      <use xlink:href="#DejaVuSans-74" x="147.802734"/>
      <use xlink:href="#DejaVuSans-72" x="187.011719"/>
      <use xlink:href="#DejaVuSans-69" x="228.125"/>
      <use xlink:href="#DejaVuSans-63" x="255.908203"/>
      <use xlink:href="#DejaVuSans-20" x="310.888672"/>
      <use xlink:href="#DejaVuSans-56" x="342.675781"/>
      <use xlink:href="#DejaVuSans-61" x="403.333984"/>
      <use xlink:href="#DejaVuSans-6c" x="464.613281"/>
      <use xlink:href="#DejaVuSans-75" x="492.396484"/>
      <use xlink:href="#DejaVuSans-65" x="555.775391"/>
     </g>
    </g>
   </g>
   <g id="line2d_54">
    <path d="M 152.293388 1141.503158 
L 152.634313 1129.791145 
L 153.486624 1118.739239 
L 153.99801 1114.922972 
L 155.53217 1102.524114 
L 157.236792 1091.51273 
L 160.816498 1071.655516 
L 163.714355 1057.847458 
L 166.271287 1048.789142 
L 167.294061 1045.749695 
L 167.975909 1043.840079 
L 170.36238 1037.075763 
L 173.430699 1029.299979 
L 175.305783 1025.033137 
L 183.828892 1007.003065 
L 187.749522 1000.004345 
L 191.49969 994.269136 
L 195.079396 989.213995 
L 196.443094 987.427038 
L 197.465867 986.13834 
L 198.829564 984.43345 
L 200.0228 983.060518 
L 200.87511 982.088953 
L 207.523136 975.158624 
L 209.39822 973.409064 
L 213.659774 969.53887 
L 215.193934 968.287314 
L 218.262253 965.649931 
L 219.455488 964.677702 
L 220.478261 963.856179 
L 223.205656 961.584426 
L 224.739816 960.287294 
L 227.296749 958.215912 
L 228.489984 957.250076 
L 231.728766 954.70725 
L 237.354018 950.533135 
L 238.888177 949.429982 
L 247.922673 943.611739 
L 250.82053 942.018032 
L 263.946118 936.130777 
L 272.469227 932.767167 
L 285.594815 928.333258 
L 287.299437 927.873377 
L 299.061328 924.774199 
L 303.322882 924.009607 
L 308.777672 923.127045 
L 310.482294 922.840338 
L 312.868764 922.462306 
L 320.028176 921.33456 
L 324.630655 920.521728 
L 327.187588 920.039713 
L 330.255907 919.42006 
L 333.494689 918.775492 
L 336.73347 918.077212 
L 340.142714 917.427711 
L 343.381495 916.82322 
L 353.268302 914.989622 
L 365.712041 913.324453 
L 388.553974 911.179048 
L 410.88452 910.879601 
L 413.952839 910.77186 
L 416.168847 910.634194 
L 433.385528 909.521638 
L 439.692628 908.91741 
L 447.704351 907.895659 
L 467.989351 905.975415 
L 471.05767 905.627222 
L 473.614603 905.339408 
L 477.364771 904.813929 
L 491.683594 903.501466 
L 492.706367 903.41188 
L 498.161157 902.766316 
L 498.161157 902.766316 
" clip-path="url(#pdd7e2c4ef2)" style="fill: none; stroke: #1f77b4; stroke-width: 1.5; stroke-linecap: square"/>
   </g>
   <g id="line2d_55">
    <path d="M 152.293388 1013.037012 
L 152.463851 999.70414 
L 152.634313 997.717281 
L 152.804775 997.664995 
L 153.145699 999.233568 
L 153.486624 1001.213892 
L 153.657086 1000.470998 
L 153.99801 1001.871623 
L 154.850321 1008.850882 
L 155.361708 1011.724364 
L 155.702632 1013.582278 
L 156.043556 1015.50581 
L 157.236792 1021.606651 
L 157.748178 1023.318297 
L 158.430027 1025.199814 
L 159.4528 1026.9353 
L 160.646035 1027.994926 
L 160.98696 1028.218991 
L 161.668808 1029.036459 
L 161.839271 1029.000684 
L 162.009733 1029.141932 
L 162.862044 1029.168418 
L 163.37343 1029.583083 
L 163.714355 1029.543939 
L 163.884817 1029.722994 
L 164.396203 1029.713995 
L 164.90759 1029.440105 
L 165.589439 1029.159562 
L 167.464523 1028.356744 
L 170.021455 1027.996719 
L 170.532842 1027.891981 
L 171.214691 1027.69757 
L 176.328556 1024.96811 
L 178.033178 1023.651712 
L 178.885489 1022.858079 
L 181.442422 1019.825651 
L 182.294733 1018.646655 
L 183.317506 1017.397303 
L 183.999354 1016.510521 
L 184.851665 1015.425819 
L 185.363052 1014.936997 
L 186.385825 1013.839248 
L 190.476917 1010.1599 
L 191.329228 1009.496129 
L 192.181539 1008.789183 
L 193.374774 1007.838683 
L 193.715699 1007.571435 
L 195.931707 1005.701339 
L 200.193262 1002.333447 
L 203.091119 1000.099693 
L 204.284354 999.216139 
L 209.568682 995.220441 
L 210.932379 994.020904 
L 211.614228 993.559738 
L 212.637001 992.756023 
L 213.31885 992.228731 
L 216.728093 989.48441 
L 217.750867 988.715164 
L 220.648724 986.626063 
L 227.978598 981.717011 
L 230.365068 979.898767 
L 231.387841 979.080607 
L 233.774312 977.360322 
L 236.672169 975.394101 
L 238.035866 974.461938 
L 244.172505 970.135954 
L 255.423009 963.80918 
L 256.957169 963.071707 
L 260.025488 961.474319 
L 270.423681 956.93159 
L 281.503723 953.44425 
L 283.549269 952.719167 
L 286.958513 951.525939 
L 290.197294 950.328554 
L 296.674857 947.781777 
L 299.23179 946.799419 
L 303.322882 945.406396 
L 305.368428 944.706718 
L 309.629983 943.38642 
L 315.255235 941.68283 
L 316.959857 941.22799 
L 322.926033 939.828945 
L 326.676201 938.871378 
L 328.210361 938.454925 
L 343.551957 933.22946 
L 353.09784 929.680052 
L 362.302797 927.024625 
L 364.348344 926.547649 
L 372.360066 924.540224 
L 375.428386 923.880987 
L 382.928722 921.664263 
L 384.974268 921.103924 
L 388.213049 920.535475 
L 391.451831 920.047993 
L 393.156453 919.808742 
L 394.861074 919.86839 
L 396.395234 919.988002 
L 402.020486 920.581284 
L 404.918343 920.852504 
L 407.304814 921.03595 
L 410.88452 921.135465 
L 417.19162 921.079685 
L 422.135024 921.101491 
L 425.032881 921.051314 
L 427.930738 920.997926 
L 429.294435 920.935912 
L 433.385528 920.723152 
L 435.601536 920.608247 
L 439.01078 920.430985 
L 441.056326 920.250586 
L 448.727124 919.109316 
L 453.500065 918.38675 
L 457.079771 917.739746 
L 459.466242 917.24817 
L 464.750569 916.309329 
L 468.500737 915.685663 
L 471.228132 915.106764 
L 474.637376 914.102739 
L 476.853384 913.342122 
L 477.705695 913.050325 
L 482.649098 911.067215 
L 485.88788 909.089156 
L 486.910653 908.572912 
L 488.444813 907.818982 
L 490.831283 906.406716 
L 492.024518 905.949166 
L 493.217754 905.328789 
L 493.899602 904.969281 
L 494.922376 904.530512 
L 495.945149 903.978013 
L 498.161157 902.766316 
L 498.161157 902.766316 
" clip-path="url(#pdd7e2c4ef2)" style="fill: none; stroke: #ff7f0e; stroke-width: 1.5; stroke-linecap: square"/>
   </g>
   <g id="line2d_56">
    <path d="M 152.293388 1112.484554 
L 152.634313 1067.62336 
L 152.975237 1047.608366 
L 153.316162 1036.56561 
L 153.99801 1029.107758 
L 154.338935 1027.286897 
L 154.509397 1027.142967 
L 154.679859 1026.589485 
L 155.702632 1028.125193 
L 156.043556 1029.275155 
L 156.214019 1029.716174 
L 156.384481 1029.839568 
L 156.895867 1031.030788 
L 157.236792 1032.163148 
L 157.407254 1032.51262 
L 157.748178 1033.490256 
L 157.91864 1033.696044 
L 158.259565 1034.247608 
L 158.430027 1034.229708 
L 158.941414 1034.953901 
L 159.282338 1035.08667 
L 159.4528 1035.288865 
L 160.98696 1035.45856 
L 162.521119 1035.03818 
L 163.032506 1034.734791 
L 163.543892 1034.458572 
L 164.90759 1034.313139 
L 165.248514 1034.279975 
L 166.44175 1033.678689 
L 166.782674 1033.523308 
L 167.975909 1032.831394 
L 168.487296 1032.537972 
L 169.339607 1031.962392 
L 169.680531 1031.948218 
L 171.385153 1030.592539 
L 172.919313 1029.270459 
L 176.499018 1025.803882 
L 178.885489 1023.869159 
L 182.806119 1020.827593 
L 183.828892 1019.97331 
L 186.726749 1017.242797 
L 189.11322 1014.57884 
L 189.965531 1013.617102 
L 190.817842 1012.781342 
L 192.352001 1011.326869 
L 193.715699 1010.19108 
L 195.761245 1008.553099 
L 198.829564 1005.904584 
L 200.87511 1004.113695 
L 202.579732 1002.782995 
L 203.602505 1002.052325 
L 204.454816 1001.42395 
L 207.523136 999.184822 
L 208.545909 998.443121 
L 209.909606 997.49148 
L 212.466539 995.745487 
L 213.31885 995.169696 
L 215.193934 993.882614 
L 216.387169 993.119877 
L 222.864732 988.866244 
L 226.785362 986.655975 
L 228.489984 985.626896 
L 231.217379 984.015365 
L 232.410614 983.325372 
L 236.501707 981.114171 
L 237.52448 980.580383 
L 239.91095 979.21766 
L 242.97927 977.19379 
L 248.945446 973.005809 
L 254.059311 969.884462 
L 254.911622 969.392958 
L 258.320866 967.302403 
L 260.536874 966.023716 
L 262.752883 964.757586 
L 271.275992 960.201901 
L 278.605866 956.60368 
L 280.48095 955.673061 
L 285.594815 953.197447 
L 289.85637 951.082059 
L 297.527168 947.693158 
L 300.595487 946.393361 
L 305.709353 944.0661 
L 308.266286 943.102964 
L 311.334605 942.073182 
L 314.914311 941.106515 
L 318.323554 940.460497 
L 322.926033 939.572683 
L 325.994353 938.835349 
L 335.19931 936.299753 
L 342.017798 934.030909 
L 344.915655 933.158635 
L 350.881831 931.249238 
L 354.120613 930.067829 
L 357.01847 929.120303 
L 372.019142 925.430739 
L 374.576075 925.190662 
L 376.280696 925.091228 
L 380.712713 924.512753 
L 383.099184 923.819115 
L 383.951495 923.583128 
L 385.656116 923.032282 
L 388.383511 922.235523 
L 390.769982 921.841735 
L 395.883847 921.593692 
L 406.282041 922.450595 
L 410.202671 922.541838 
L 417.021158 922.719294 
L 418.72578 922.638654 
L 420.600864 922.55195 
L 425.032881 922.460776 
L 439.692628 922.005187 
L 440.885864 921.946429 
L 443.613259 921.88493 
L 447.022502 921.64142 
L 450.431746 921.130006 
L 458.784393 919.707342 
L 462.534561 919.007896 
L 465.261956 918.341641 
L 469.353048 917.185221 
L 472.762292 915.73669 
L 477.535233 913.182003 
L 487.081115 907.913391 
L 488.103888 907.541989 
L 489.297124 907.042462 
L 493.388216 905.225105 
L 494.922376 904.241445 
L 495.2633 904.074473 
L 495.604224 903.997665 
L 496.115611 903.709014 
L 497.479308 903.2197 
L 498.161157 902.766316 
L 498.161157 902.766316 
" clip-path="url(#pdd7e2c4ef2)" style="fill: none; stroke: #2ca02c; stroke-width: 1.5; stroke-linecap: square"/>
   </g>
   <g id="line2d_57">
    <path d="M 152.293388 1111.857124 
L 152.634313 1080.694803 
L 153.145699 1060.878495 
L 153.657086 1053.907059 
L 153.827548 1052.157228 
L 153.99801 1051.852069 
L 154.168472 1050.944198 
L 154.338935 1050.779297 
L 155.020783 1048.726666 
L 155.361708 1048.833504 
L 155.53217 1049.616139 
L 155.702632 1049.577299 
L 156.554943 1052.890838 
L 156.725405 1054.040678 
L 156.895867 1054.38012 
L 157.748178 1057.161452 
L 158.089103 1057.786165 
L 158.600489 1059.074636 
L 158.941414 1059.917744 
L 160.646035 1064.417196 
L 161.327884 1065.572596 
L 162.350657 1067.377617 
L 162.691582 1067.808047 
L 164.737128 1071.156889 
L 165.589439 1072.579257 
L 166.782674 1074.472188 
L 168.657758 1076.813258 
L 170.021455 1077.887804 
L 171.214691 1078.590768 
L 172.067002 1078.858098 
L 172.407926 1079.106897 
L 173.260237 1079.682399 
L 175.987632 1080.616748 
L 176.499018 1080.763177 
L 178.20364 1081.004417 
L 179.055951 1081.067422 
L 179.908262 1081.095768 
L 180.249186 1081.0551 
L 180.931035 1080.950663 
L 183.828892 1080.780822 
L 184.510741 1080.622704 
L 185.363052 1080.48566 
L 188.260909 1079.938879 
L 188.942758 1079.751481 
L 190.817842 1079.399406 
L 193.374774 1078.499665 
L 196.272632 1077.403626 
L 197.977253 1076.894852 
L 199.852337 1076.382721 
L 200.87511 1076.151243 
L 202.750194 1075.347395 
L 203.602505 1074.929171 
L 204.795741 1074.51696 
L 207.011749 1073.457283 
L 211.273304 1071.549765 
L 212.296077 1071.151983 
L 223.717043 1065.015047 
L 232.06969 1059.806915 
L 236.501707 1056.703238 
L 237.52448 1056.012474 
L 239.399564 1054.697336 
L 240.763261 1053.726405 
L 246.218051 1049.531914 
L 257.979942 1041.364535 
L 265.480278 1036.900318 
L 268.548597 1035.145856 
L 269.400908 1034.689706 
L 271.10553 1033.870047 
L 280.821874 1029.696922 
L 286.958513 1027.693951 
L 290.879143 1026.415169 
L 293.436076 1025.622116 
L 304.004731 1023.048946 
L 317.641706 1020.157785 
L 321.562336 1019.514715 
L 328.721747 1018.034644 
L 334.176537 1016.832578 
L 336.903932 1016.257507 
L 354.631999 1012.140496 
L 356.848008 1011.592514 
L 376.621621 1006.381593 
L 379.860402 1005.538857 
L 385.826579 1003.576262 
L 389.917671 1001.934775 
L 393.667839 1000.136189 
L 400.827251 996.281554 
L 405.259267 993.526813 
L 411.907293 989.076336 
L 416.509772 985.810991 
L 419.066704 983.864856 
L 428.612587 975.90931 
L 432.874141 971.957251 
L 437.306158 967.494291 
L 451.624981 951.766864 
L 459.466242 942.815217 
L 470.375821 930.579967 
L 477.364771 923.136557 
L 484.524182 915.83615 
L 491.854056 908.680695 
L 498.161157 902.766316 
L 498.161157 902.766316 
" clip-path="url(#pdd7e2c4ef2)" style="fill: none; stroke: #d62728; stroke-width: 1.5; stroke-linecap: square"/>
   </g>
   <g id="patch_35">
    <path d="M 135 1153.44 
L 135 890.829474 
" style="fill: none; stroke: #000000; stroke-width: 0.8; stroke-linejoin: miter; stroke-linecap: square"/>
   </g>
   <g id="patch_36">
    <path d="M 515.454545 1153.44 
L 515.454545 890.829474 
" style="fill: none; stroke: #000000; stroke-width: 0.8; stroke-linejoin: miter; stroke-linecap: square"/>
   </g>
   <g id="patch_37">
    <path d="M 135 1153.44 
L 515.454545 1153.44 
" style="fill: none; stroke: #000000; stroke-width: 0.8; stroke-linejoin: miter; stroke-linecap: square"/>
   </g>
   <g id="patch_38">
    <path d="M 135 890.829474 
L 515.454545 890.829474 
" style="fill: none; stroke: #000000; stroke-width: 0.8; stroke-linejoin: miter; stroke-linecap: square"/>
   </g>
   <g id="text_58">
    <!-- e -->
    <g transform="translate(89.376307 872.71352) scale(0.28 -0.28)">
     <defs>
      <path id="DejaVuSans-Bold-65" d="M 4031 1759 
L 4031 1441 
L 1416 1441 
Q 1456 1047 1700 850 
Q 1944 653 2381 653 
Q 2734 653 3104 758 
Q 3475 863 3866 1075 
L 3866 213 
Q 3469 63 3072 -14 
Q 2675 -91 2278 -91 
Q 1328 -91 801 392 
Q 275 875 275 1747 
Q 275 2603 792 3093 
Q 1309 3584 2216 3584 
Q 3041 3584 3536 3087 
Q 4031 2591 4031 1759 
z
M 2881 2131 
Q 2881 2450 2695 2645 
Q 2509 2841 2209 2841 
Q 1884 2841 1681 2658 
Q 1478 2475 1428 2131 
L 2881 2131 
z
" transform="scale(0.015625)"/>
     </defs>
     <use xlink:href="#DejaVuSans-Bold-65"/>
    </g>
   </g>
   <g id="text_59">
    <!-- $Q_{NN}$ -->
    <g transform="translate(302.787273 884.829474) scale(0.24 -0.24)">
     <use xlink:href="#DejaVuSans-Oblique-51" transform="translate(0 0.78125)"/>
     <use xlink:href="#DejaVuSans-Oblique-4e" transform="translate(78.710938 -15.625) scale(0.7)"/>
     <use xlink:href="#DejaVuSans-Oblique-4e" transform="translate(131.074219 -15.625) scale(0.7)"/>
    </g>
   </g>
  </g>
  <g id="axes_6">
   <g id="patch_39">
    <path d="M 591.545455 1153.44 
L 972 1153.44 
L 972 890.829474 
L 591.545455 890.829474 
z
" style="fill: #ffffff"/>
   </g>
   <g id="matplotlib.axis_11">
    <g id="xtick_21">
     <g id="line2d_58">
      <g>
       <use xlink:href="#m1f277b8ca6" x="608.668381" y="1153.44" style="stroke: #000000; stroke-width: 0.8"/>
      </g>
     </g>
     <g id="text_60">
      <!-- 0 -->
      <g transform="translate(601.669631 1177.156562) scale(0.22 -0.22)">
       <use xlink:href="#DejaVuSans-30"/>
      </g>
     </g>
    </g>
    <g id="xtick_22">
     <g id="line2d_59">
      <g>
       <use xlink:href="#m1f277b8ca6" x="693.899472" y="1153.44" style="stroke: #000000; stroke-width: 0.8"/>
      </g>
     </g>
     <g id="text_61">
      <!-- 500 -->
      <g transform="translate(672.903222 1177.156562) scale(0.22 -0.22)">
       <use xlink:href="#DejaVuSans-35"/>
       <use xlink:href="#DejaVuSans-30" x="63.623047"/>
       <use xlink:href="#DejaVuSans-30" x="127.246094"/>
      </g>
     </g>
    </g>
    <g id="xtick_23">
     <g id="line2d_60">
      <g>
       <use xlink:href="#m1f277b8ca6" x="779.130563" y="1153.44" style="stroke: #000000; stroke-width: 0.8"/>
      </g>
     </g>
     <g id="text_62">
      <!-- 1000 -->
      <g transform="translate(751.135563 1177.156562) scale(0.22 -0.22)">
       <use xlink:href="#DejaVuSans-31"/>
       <use xlink:href="#DejaVuSans-30" x="63.623047"/>
       <use xlink:href="#DejaVuSans-30" x="127.246094"/>
       <use xlink:href="#DejaVuSans-30" x="190.869141"/>
      </g>
     </g>
    </g>
    <g id="xtick_24">
     <g id="line2d_61">
      <g>
       <use xlink:href="#m1f277b8ca6" x="864.361655" y="1153.44" style="stroke: #000000; stroke-width: 0.8"/>
      </g>
     </g>
     <g id="text_63">
      <!-- 1500 -->
      <g transform="translate(836.366655 1177.156562) scale(0.22 -0.22)">
       <use xlink:href="#DejaVuSans-31"/>
       <use xlink:href="#DejaVuSans-35" x="63.623047"/>
       <use xlink:href="#DejaVuSans-30" x="127.246094"/>
       <use xlink:href="#DejaVuSans-30" x="190.869141"/>
      </g>
     </g>
    </g>
    <g id="xtick_25">
     <g id="line2d_62">
      <g>
       <use xlink:href="#m1f277b8ca6" x="949.592746" y="1153.44" style="stroke: #000000; stroke-width: 0.8"/>
      </g>
     </g>
     <g id="text_64">
      <!-- 2000 -->
      <g transform="translate(921.597746 1177.156562) scale(0.22 -0.22)">
       <use xlink:href="#DejaVuSans-32"/>
       <use xlink:href="#DejaVuSans-30" x="63.623047"/>
       <use xlink:href="#DejaVuSans-30" x="127.246094"/>
       <use xlink:href="#DejaVuSans-30" x="190.869141"/>
      </g>
     </g>
    </g>
    <g id="text_65">
     <!-- k -->
     <g transform="translate(774.823977 1203.968125) scale(0.24 -0.24)">
      <use xlink:href="#DejaVuSans-6b"/>
     </g>
    </g>
   </g>
   <g id="matplotlib.axis_12">
    <g id="ytick_22">
     <g id="line2d_63">
      <g>
       <use xlink:href="#md735427dda" x="591.545455" y="1132.116039" style="stroke: #000000; stroke-width: 0.8"/>
      </g>
     </g>
     <g id="text_66">
      <!-- 0.0 -->
      <g transform="translate(549.55858 1140.47432) scale(0.22 -0.22)">
       <use xlink:href="#DejaVuSans-30"/>
       <use xlink:href="#DejaVuSans-2e" x="63.623047"/>
       <use xlink:href="#DejaVuSans-30" x="95.410156"/>
      </g>
     </g>
    </g>
    <g id="ytick_23">
     <g id="line2d_64">
      <g>
       <use xlink:href="#md735427dda" x="591.545455" y="1066.632004" style="stroke: #000000; stroke-width: 0.8"/>
      </g>
     </g>
     <g id="text_67">
      <!-- 0.2 -->
      <g transform="translate(549.55858 1074.990285) scale(0.22 -0.22)">
       <use xlink:href="#DejaVuSans-30"/>
       <use xlink:href="#DejaVuSans-2e" x="63.623047"/>
       <use xlink:href="#DejaVuSans-32" x="95.410156"/>
      </g>
     </g>
    </g>
    <g id="ytick_24">
     <g id="line2d_65">
      <g>
       <use xlink:href="#md735427dda" x="591.545455" y="1001.147968" style="stroke: #000000; stroke-width: 0.8"/>
      </g>
     </g>
     <g id="text_68">
      <!-- 0.4 -->
      <g transform="translate(549.55858 1009.50625) scale(0.22 -0.22)">
       <use xlink:href="#DejaVuSans-30"/>
       <use xlink:href="#DejaVuSans-2e" x="63.623047"/>
       <use xlink:href="#DejaVuSans-34" x="95.410156"/>
      </g>
     </g>
    </g>
    <g id="ytick_25">
     <g id="line2d_66">
      <g>
       <use xlink:href="#md735427dda" x="591.545455" y="935.663933" style="stroke: #000000; stroke-width: 0.8"/>
      </g>
     </g>
     <g id="text_69">
      <!-- 0.6 -->
      <g transform="translate(549.55858 944.022214) scale(0.22 -0.22)">
       <use xlink:href="#DejaVuSans-30"/>
       <use xlink:href="#DejaVuSans-2e" x="63.623047"/>
       <use xlink:href="#DejaVuSans-36" x="95.410156"/>
      </g>
     </g>
    </g>
   </g>
   <g id="line2d_67">
    <path d="M 608.838843 1050.220771 
L 609.179767 1038.506241 
L 610.032078 1027.954015 
L 610.373003 1025.47555 
L 610.713927 1023.178447 
L 611.225314 1018.549234 
L 611.7367 1015.078055 
L 613.952708 1002.681418 
L 616.509641 990.025938 
L 620.430271 974.566665 
L 622.64628 968.528456 
L 624.691826 964.328252 
L 628.10107 957.891016 
L 630.828465 953.634437 
L 631.169389 953.269898 
L 633.555859 950.020684 
L 634.578633 948.71206 
L 636.624179 946.133476 
L 637.306027 945.25956 
L 638.499263 943.792747 
L 639.010649 943.263876 
L 640.203885 942.039064 
L 641.056195 941.108449 
L 642.249431 940.077455 
L 643.272204 939.201926 
L 644.806364 937.969817 
L 648.215607 935.902772 
L 650.261153 934.861 
L 652.647624 933.771631 
L 654.181784 933.210332 
L 655.375019 932.823544 
L 656.22733 932.661442 
L 657.420565 932.349458 
L 663.727666 931.512963 
L 664.920901 931.485944 
L 665.60275 931.452337 
L 666.284599 931.47963 
L 669.182456 931.507897 
L 683.330817 932.763345 
L 686.569598 933.160071 
L 687.762834 933.330697 
L 691.683464 934.028658 
L 692.535775 934.174839 
L 698.672413 935.537264 
L 705.320438 937.618817 
L 715.036783 942.04346 
L 718.275564 943.617058 
L 722.878043 946.000257 
L 728.503295 949.113326 
L 741.799345 957.036935 
L 756.800018 967.234711 
L 762.42527 971.577415 
L 774.528085 981.057123 
L 789.01737 992.011128 
L 794.47216 995.996198 
L 797.199555 998.057547 
L 810.154681 1007.8512 
L 834.019386 1027.555129 
L 837.599092 1030.64396 
L 840.326487 1032.921116 
L 842.372033 1034.653033 
L 855.497621 1046.664007 
L 862.827495 1053.517373 
L 871.00968 1061.103321 
L 881.578335 1070.49945 
L 887.714974 1075.84867 
L 896.749469 1083.530378 
L 903.908881 1089.361509 
L 915.670772 1099.370882 
L 925.387116 1107.560777 
L 929.478209 1110.995883 
L 943.115183 1122.375596 
L 945.331192 1124.260068 
L 948.058586 1126.59443 
L 952.149679 1130.043022 
L 952.831528 1130.525809 
L 954.706612 1132.116039 
L 954.706612 1132.116039 
" clip-path="url(#p2bcb55a000)" style="fill: none; stroke: #1f77b4; stroke-width: 1.5; stroke-linecap: square"/>
   </g>
   <g id="line2d_68">
    <path d="M 608.838843 918.188706 
L 609.009305 904.647035 
L 609.179767 902.766316 
L 609.35023 902.873869 
L 610.032078 907.166438 
L 610.20254 906.564214 
L 610.543465 908.326299 
L 611.395776 916.30574 
L 611.907162 919.742855 
L 612.248087 921.974922 
L 613.100398 927.280529 
L 613.782246 931.673648 
L 614.464095 934.615915 
L 615.145944 936.985489 
L 615.486868 938.053037 
L 618.214263 943.50325 
L 618.384725 943.627773 
L 618.72565 944.090953 
L 619.237036 944.499596 
L 620.600734 946.468347 
L 620.771196 946.560644 
L 620.941658 946.780245 
L 621.11212 946.799494 
L 621.623507 947.100275 
L 623.157666 947.786187 
L 623.328129 947.922072 
L 623.498591 947.867682 
L 624.009977 948.288552 
L 626.737372 950.424098 
L 628.271532 951.328787 
L 628.612456 951.388158 
L 630.146616 952.160483 
L 631.680775 952.671103 
L 632.362624 953.047984 
L 633.555859 953.302328 
L 633.896784 953.306322 
L 634.40817 953.431162 
L 635.260481 953.485625 
L 637.987876 952.746496 
L 638.499263 952.477892 
L 639.86296 952.02494 
L 640.374347 951.816823 
L 641.738044 951.460099 
L 643.272204 951.315804 
L 644.294977 951.275141 
L 645.488212 951.336944 
L 647.363296 951.419735 
L 648.386069 951.544661 
L 649.067918 951.599956 
L 650.602078 951.831862 
L 651.454389 951.915212 
L 652.477162 951.939837 
L 654.352246 952.239332 
L 655.204557 952.355217 
L 656.738716 952.510729 
L 659.466111 952.954953 
L 660.318422 953.068916 
L 661.000271 953.21109 
L 666.625523 954.069498 
L 667.648296 954.190455 
L 669.693842 954.517972 
L 672.932624 954.936687 
L 673.614472 955.024992 
L 674.807708 955.215358 
L 678.216951 956.005719 
L 678.728338 956.156524 
L 679.580649 956.36364 
L 681.455733 956.915517 
L 682.81943 957.234086 
L 683.842203 957.472206 
L 684.694514 957.629729 
L 686.228674 957.898687 
L 689.637918 958.47691 
L 692.024388 959.051176 
L 694.922245 959.756016 
L 698.331489 960.405546 
L 699.865649 960.762575 
L 710.604766 964.557141 
L 713.673085 965.932803 
L 718.616489 968.086387 
L 727.821446 972.81359 
L 737.878715 979.093545 
L 741.628883 981.313542 
L 745.379051 983.42792 
L 748.276908 985.049872 
L 750.492917 986.229682 
L 759.868337 991.584406 
L 762.084345 992.903087 
L 763.788967 993.960235 
L 775.72132 1001.782467 
L 779.982874 1004.744111 
L 783.903505 1007.435646 
L 791.574303 1012.198584 
L 811.859303 1023.86074 
L 815.950395 1026.51433 
L 818.67779 1028.373771 
L 822.427958 1030.992275 
L 833.167075 1038.490265 
L 843.053882 1045.017769 
L 848.33821 1049.160299 
L 849.701907 1050.276435 
L 851.917915 1052.45281 
L 862.316109 1063.375092 
L 869.305058 1070.17522 
L 877.828167 1078.1994 
L 880.726024 1080.937789 
L 887.203587 1086.836699 
L 894.703923 1093.517462 
L 897.260856 1095.776738 
L 913.625226 1108.634031 
L 916.35262 1110.638846 
L 921.80741 1114.826003 
L 928.966822 1120.123447 
L 931.18283 1121.509015 
L 933.569301 1122.946327 
L 938.342242 1125.593778 
L 940.217326 1126.309329 
L 944.137956 1127.754806 
L 945.160729 1128.165181 
L 947.5472 1129.031443 
L 949.251822 1129.875581 
L 950.445057 1130.347885 
L 951.46783 1130.864682 
L 952.320141 1131.199477 
L 953.172452 1131.436977 
L 953.683838 1131.620459 
L 954.706612 1132.116039 
L 954.706612 1132.116039 
" clip-path="url(#p2bcb55a000)" style="fill: none; stroke: #ff7f0e; stroke-width: 1.5; stroke-linecap: square"/>
   </g>
   <g id="line2d_69">
    <path d="M 608.838843 1020.396678 
L 609.179767 974.612824 
L 609.520692 954.364842 
L 609.861616 943.338147 
L 610.543465 936.318445 
L 610.884389 934.769622 
L 611.054851 934.782988 
L 611.225314 934.375434 
L 612.248087 936.921513 
L 612.589011 938.425977 
L 613.100398 939.898415 
L 613.441322 941.036796 
L 613.782246 942.52317 
L 614.805019 945.633233 
L 614.975482 945.776128 
L 615.486868 947.004295 
L 617.361952 949.315943 
L 618.555187 950.204796 
L 618.72565 950.249772 
L 618.896112 950.47327 
L 619.407498 950.515218 
L 619.748423 950.684068 
L 620.089347 950.850066 
L 622.475818 952.556952 
L 623.839515 953.057188 
L 624.009977 953.228783 
L 624.350902 953.345256 
L 625.03275 953.553586 
L 625.885061 953.768482 
L 626.225986 954.076497 
L 627.078297 954.190614 
L 627.760145 954.27287 
L 629.294305 954.422817 
L 630.48754 954.245893 
L 631.169389 954.267698 
L 631.851238 954.125842 
L 635.430943 954.482881 
L 639.010649 955.074869 
L 639.351574 955.066575 
L 640.033422 955.115373 
L 642.590355 955.226325 
L 644.294977 954.884269 
L 644.806364 954.797389 
L 646.340523 954.436414 
L 649.749767 954.396695 
L 653.670397 954.843031 
L 655.204557 954.876727 
L 659.807036 955.356612 
L 661.341195 955.66584 
L 661.852582 955.748255 
L 678.046489 959.636412 
L 687.592371 963.006625 
L 688.27422 963.197111 
L 689.126531 963.520683 
L 690.831153 964.201896 
L 693.217623 965.146034 
L 699.1838 967.064465 
L 701.399808 967.567528 
L 704.63859 968.254086 
L 710.604766 970.128906 
L 711.457077 970.430213 
L 714.525396 971.388093 
L 727.821446 976.467944 
L 735.15132 979.705346 
L 736.855942 980.449973 
L 740.776572 982.242119 
L 741.969808 982.741026 
L 751.174765 986.985031 
L 757.311404 990.096003 
L 759.186488 990.988056 
L 766.686824 994.973091 
L 773.846236 999.908046 
L 777.596404 1002.724323 
L 783.392118 1006.860912 
L 793.790311 1013.594993 
L 796.688168 1015.346332 
L 803.506656 1019.578775 
L 805.38174 1020.756882 
L 808.790983 1022.830142 
L 814.75716 1026.438228 
L 817.825479 1028.530694 
L 821.234723 1030.942432 
L 824.643966 1033.237364 
L 826.689512 1034.645944 
L 828.735059 1036.192189 
L 832.314764 1039.289527 
L 834.871697 1041.476096 
L 836.746781 1042.976652 
L 837.769554 1043.658506 
L 843.906193 1047.57322 
L 846.463126 1049.408237 
L 847.997285 1050.681022 
L 850.213294 1052.680286 
L 852.088378 1054.323173 
L 857.543167 1059.973651 
L 860.952411 1063.50102 
L 863.679806 1066.224737 
L 866.236739 1068.721764 
L 876.975856 1078.907951 
L 889.590058 1090.566257 
L 892.487915 1093.244228 
L 895.897159 1096.27849 
L 897.772243 1097.956251 
L 902.886108 1102.584249 
L 906.465814 1105.445529 
L 909.022747 1107.378829 
L 916.182158 1112.918056 
L 919.761864 1115.565574 
L 926.239427 1119.860495 
L 927.944049 1120.730642 
L 930.500982 1121.877749 
L 940.899175 1125.780346 
L 942.603797 1126.350491 
L 943.456108 1126.806256 
L 944.649343 1127.50812 
L 945.842578 1128.123763 
L 949.93367 1130.126938 
L 951.297368 1130.523672 
L 951.808754 1130.718565 
L 952.320141 1130.997244 
L 952.831528 1131.260961 
L 953.342914 1131.492324 
L 953.683838 1131.739615 
L 954.706612 1132.116039 
L 954.706612 1132.116039 
" clip-path="url(#p2bcb55a000)" style="fill: none; stroke: #2ca02c; stroke-width: 1.5; stroke-linecap: square"/>
   </g>
   <g id="line2d_70">
    <path d="M 608.838843 1019.751833 
L 609.179767 988.0471 
L 609.691154 968.16461 
L 610.20254 961.483535 
L 610.373003 959.846424 
L 610.543465 959.694085 
L 610.713927 958.922305 
L 610.884389 958.914117 
L 611.566238 957.449673 
L 611.907162 957.882058 
L 612.077624 958.847708 
L 612.248087 958.96908 
L 614.293633 968.69924 
L 614.634557 969.663875 
L 615.145944 971.471983 
L 615.65733 973.306492 
L 616.339179 975.812706 
L 617.19149 978.898329 
L 618.043801 981.238342 
L 618.72565 983.079499 
L 619.918885 986.088257 
L 620.259809 986.950652 
L 622.134893 991.964381 
L 623.669053 995.88298 
L 626.396448 1001.34162 
L 628.10107 1003.904119 
L 628.782918 1004.787599 
L 629.635229 1006.234189 
L 630.317078 1007.170855 
L 632.192162 1009.683501 
L 633.555859 1011.280983 
L 634.237708 1012.085709 
L 636.794641 1014.546496 
L 637.47649 1015.084323 
L 640.544809 1017.748446 
L 643.442666 1019.994757 
L 644.124515 1020.539451 
L 648.386069 1023.448366 
L 654.69317 1027.150106 
L 658.784262 1029.812973 
L 660.14796 1030.347356 
L 661.511657 1031.13969 
L 663.557204 1032.060426 
L 667.648296 1034.043637 
L 670.034767 1035.172441 
L 672.080313 1035.969165 
L 673.44401 1036.511847 
L 674.637245 1036.955449 
L 678.387413 1038.464645 
L 680.43296 1039.245039 
L 682.137582 1039.882412 
L 683.160355 1040.190572 
L 684.864976 1040.689904 
L 691.853926 1042.427484 
L 693.047161 1042.744624 
L 694.069934 1043.00243 
L 695.604094 1043.344912 
L 697.64964 1043.776943 
L 704.297665 1044.80791 
L 717.252791 1048.150983 
L 727.650984 1052.019654 
L 737.367329 1056.924264 
L 744.015354 1060.979935 
L 745.890438 1062.132951 
L 751.345228 1065.574694 
L 755.43632 1068.441724 
L 759.016026 1070.907323 
L 766.175438 1076.097302 
L 773.334849 1081.314229 
L 781.517034 1087.575372 
L 783.392118 1088.935872 
L 813.223 1110.141911 
L 816.802706 1112.606487 
L 830.43968 1121.750783 
L 836.405857 1125.80554 
L 842.542495 1129.529641 
L 847.997285 1132.375544 
L 856.17947 1135.72204 
L 859.247789 1136.735509 
L 866.407201 1138.72295 
L 871.861991 1139.95508 
L 876.46447 1140.733177 
L 881.748797 1141.283472 
L 884.30573 1141.455132 
L 888.396823 1141.481576 
L 892.146991 1141.279526 
L 899.647327 1140.162476 
L 904.420268 1139.229859 
L 912.43199 1137.490319 
L 923.682494 1135.006791 
L 929.307746 1134.019716 
L 935.103461 1133.229914 
L 941.069637 1132.645404 
L 947.206276 1132.273269 
L 953.513376 1132.119946 
L 954.706612 1132.116039 
L 954.706612 1132.116039 
" clip-path="url(#p2bcb55a000)" style="fill: none; stroke: #d62728; stroke-width: 1.5; stroke-linecap: square"/>
   </g>
   <g id="patch_40">
    <path d="M 591.545455 1153.44 
L 591.545455 890.829474 
" style="fill: none; stroke: #000000; stroke-width: 0.8; stroke-linejoin: miter; stroke-linecap: square"/>
   </g>
   <g id="patch_41">
    <path d="M 972 1153.44 
L 972 890.829474 
" style="fill: none; stroke: #000000; stroke-width: 0.8; stroke-linejoin: miter; stroke-linecap: square"/>
   </g>
   <g id="patch_42">
    <path d="M 591.545455 1153.44 
L 972 1153.44 
" style="fill: none; stroke: #000000; stroke-width: 0.8; stroke-linejoin: miter; stroke-linecap: square"/>
   </g>
   <g id="patch_43">
    <path d="M 591.545455 890.829474 
L 972 890.829474 
" style="fill: none; stroke: #000000; stroke-width: 0.8; stroke-linejoin: miter; stroke-linecap: square"/>
   </g>
   <g id="text_70">
    <!-- f -->
    <g transform="translate(552.733636 872.71352) scale(0.28 -0.28)">
     <defs>
      <path id="DejaVuSans-Bold-66" d="M 2841 4863 
L 2841 4128 
L 2222 4128 
Q 1984 4128 1890 4042 
Q 1797 3956 1797 3744 
L 1797 3500 
L 2753 3500 
L 2753 2700 
L 1797 2700 
L 1797 0 
L 678 0 
L 678 2700 
L 122 2700 
L 122 3500 
L 678 3500 
L 678 3744 
Q 678 4316 997 4589 
Q 1316 4863 1984 4863 
L 2841 4863 
z
" transform="scale(0.015625)"/>
     </defs>
     <use xlink:href="#DejaVuSans-Bold-66"/>
    </g>
   </g>
   <g id="text_71">
    <!-- LCMC -->
    <g transform="translate(747.973977 884.829474) scale(0.24 -0.24)">
     <defs>
      <path id="DejaVuSans-4c" d="M 628 4666 
L 1259 4666 
L 1259 531 
L 3531 531 
L 3531 0 
L 628 0 
L 628 4666 
z
" transform="scale(0.015625)"/>
     </defs>
     <use xlink:href="#DejaVuSans-4c"/>
     <use xlink:href="#DejaVuSans-43" x="55.712891"/>
     <use xlink:href="#DejaVuSans-4d" x="125.537109"/>
     <use xlink:href="#DejaVuSans-43" x="211.816406"/>
    </g>
   </g>
  </g>
 </g>
 <defs>
  <clipPath id="pe104700dde">
   <rect x="135" y="155.52" width="380.454545" height="262.610526"/>
  </clipPath>
  <clipPath id="p503fa01d7f">
   <rect x="591.545455" y="155.52" width="380.454545" height="262.610526"/>
  </clipPath>
  <clipPath id="pf086e1ce88">
   <rect x="135" y="523.174737" width="380.454545" height="262.610526"/>
  </clipPath>
  <clipPath id="p93127a6e80">
   <rect x="591.545455" y="523.174737" width="380.454545" height="262.610526"/>
  </clipPath>
  <clipPath id="pdd7e2c4ef2">
   <rect x="135" y="890.829474" width="380.454545" height="262.610526"/>
  </clipPath>
  <clipPath id="p2bcb55a000">
   <rect x="591.545455" y="890.829474" width="380.454545" height="262.610526"/>
  </clipPath>
 </defs>
</svg>
