<?xml version="1.0" encoding="utf-8" standalone="no"?>
<!DOCTYPE svg PUBLIC "-//W3C//DTD SVG 1.1//EN"
  "http://www.w3.org/Graphics/SVG/1.1/DTD/svg11.dtd">
<svg xmlns:xlink="http://www.w3.org/1999/xlink" width="1080pt" height="1296pt" viewBox="0 0 1080 1296" xmlns="http://www.w3.org/2000/svg" version="1.1">
 <metadata>
  <rdf:RDF xmlns:dc="http://purl.org/dc/elements/1.1/" xmlns:cc="http://creativecommons.org/ns#" xmlns:rdf="http://www.w3.org/1999/02/22-rdf-syntax-ns#">
   <cc:Work>
    <dc:type rdf:resource="http://purl.org/dc/dcmitype/StillImage"/>
    <dc:date>2024-07-24T10:45:33.934047</dc:date>
    <dc:format>image/svg+xml</dc:format>
    <dc:creator>
     <cc:Agent>
      <dc:title>Matplotlib v3.8.4, https://matplotlib.org/</dc:title>
     </cc:Agent>
    </dc:creator>
   </cc:Work>
  </rdf:RDF>
 </metadata>
 <defs>
  <style type="text/css">*{stroke-linejoin: round; stroke-linecap: butt}</style>
 </defs>
 <g id="figure_1">
  <g id="patch_1">
   <path d="M 0 1296 
L 1080 1296 
L 1080 0 
L 0 0 
z
" style="fill: #ffffff"/>
  </g>
  <g id="axes_1">
   <g id="patch_2">
    <path d="M 135 418.130526 
L 515.454545 418.130526 
L 515.454545 155.52 
L 135 155.52 
z
" style="fill: #ffffff"/>
   </g>
   <g id="matplotlib.axis_1">
    <g id="xtick_1">
     <g id="line2d_1">
      <defs>
       <path id="m0b4472ea7d" d="M 0 0 
L 0 3.5 
" style="stroke: #000000; stroke-width: 0.8"/>
      </defs>
      <g>
       <use xlink:href="#m0b4472ea7d" x="137.882231" y="418.130526" style="stroke: #000000; stroke-width: 0.8"/>
      </g>
     </g>
     <g id="text_1">
      <!-- 0 -->
      <g transform="translate(131.519731 440.327401) scale(0.2 -0.2)">
       <defs>
        <path id="DejaVuSans-30" d="M 2034 4250 
Q 1547 4250 1301 3770 
Q 1056 3291 1056 2328 
Q 1056 1369 1301 889 
Q 1547 409 2034 409 
Q 2525 409 2770 889 
Q 3016 1369 3016 2328 
Q 3016 3291 2770 3770 
Q 2525 4250 2034 4250 
z
M 2034 4750 
Q 2819 4750 3233 4129 
Q 3647 3509 3647 2328 
Q 3647 1150 3233 529 
Q 2819 -91 2034 -91 
Q 1250 -91 836 529 
Q 422 1150 422 2328 
Q 422 3509 836 4129 
Q 1250 4750 2034 4750 
z
" transform="scale(0.015625)"/>
       </defs>
       <use xlink:href="#DejaVuSans-30"/>
      </g>
     </g>
    </g>
    <g id="xtick_2">
     <g id="line2d_2">
      <g>
       <use xlink:href="#m0b4472ea7d" x="209.938017" y="418.130526" style="stroke: #000000; stroke-width: 0.8"/>
      </g>
     </g>
     <g id="text_2">
      <!-- 10 -->
      <g transform="translate(197.213017 440.327401) scale(0.2 -0.2)">
       <defs>
        <path id="DejaVuSans-31" d="M 794 531 
L 1825 531 
L 1825 4091 
L 703 3866 
L 703 4441 
L 1819 4666 
L 2450 4666 
L 2450 531 
L 3481 531 
L 3481 0 
L 794 0 
L 794 531 
z
" transform="scale(0.015625)"/>
       </defs>
       <use xlink:href="#DejaVuSans-31"/>
       <use xlink:href="#DejaVuSans-30" x="63.623047"/>
      </g>
     </g>
    </g>
    <g id="xtick_3">
     <g id="line2d_3">
      <g>
       <use xlink:href="#m0b4472ea7d" x="281.993802" y="418.130526" style="stroke: #000000; stroke-width: 0.8"/>
      </g>
     </g>
     <g id="text_3">
      <!-- 20 -->
      <g transform="translate(269.268802 440.327401) scale(0.2 -0.2)">
       <defs>
        <path id="DejaVuSans-32" d="M 1228 531 
L 3431 531 
L 3431 0 
L 469 0 
L 469 531 
Q 828 903 1448 1529 
Q 2069 2156 2228 2338 
Q 2531 2678 2651 2914 
Q 2772 3150 2772 3378 
Q 2772 3750 2511 3984 
Q 2250 4219 1831 4219 
Q 1534 4219 1204 4116 
Q 875 4013 500 3803 
L 500 4441 
Q 881 4594 1212 4672 
Q 1544 4750 1819 4750 
Q 2544 4750 2975 4387 
Q 3406 4025 3406 3419 
Q 3406 3131 3298 2873 
Q 3191 2616 2906 2266 
Q 2828 2175 2409 1742 
Q 1991 1309 1228 531 
z
" transform="scale(0.015625)"/>
       </defs>
       <use xlink:href="#DejaVuSans-32"/>
       <use xlink:href="#DejaVuSans-30" x="63.623047"/>
      </g>
     </g>
    </g>
    <g id="xtick_4">
     <g id="line2d_4">
      <g>
       <use xlink:href="#m0b4472ea7d" x="354.049587" y="418.130526" style="stroke: #000000; stroke-width: 0.8"/>
      </g>
     </g>
     <g id="text_4">
      <!-- 30 -->
      <g transform="translate(341.324587 440.327401) scale(0.2 -0.2)">
       <defs>
        <path id="DejaVuSans-33" d="M 2597 2516 
Q 3050 2419 3304 2112 
Q 3559 1806 3559 1356 
Q 3559 666 3084 287 
Q 2609 -91 1734 -91 
Q 1441 -91 1130 -33 
Q 819 25 488 141 
L 488 750 
Q 750 597 1062 519 
Q 1375 441 1716 441 
Q 2309 441 2620 675 
Q 2931 909 2931 1356 
Q 2931 1769 2642 2001 
Q 2353 2234 1838 2234 
L 1294 2234 
L 1294 2753 
L 1863 2753 
Q 2328 2753 2575 2939 
Q 2822 3125 2822 3475 
Q 2822 3834 2567 4026 
Q 2313 4219 1838 4219 
Q 1578 4219 1281 4162 
Q 984 4106 628 3988 
L 628 4550 
Q 988 4650 1302 4700 
Q 1616 4750 1894 4750 
Q 2613 4750 3031 4423 
Q 3450 4097 3450 3541 
Q 3450 3153 3228 2886 
Q 3006 2619 2597 2516 
z
" transform="scale(0.015625)"/>
       </defs>
       <use xlink:href="#DejaVuSans-33"/>
       <use xlink:href="#DejaVuSans-30" x="63.623047"/>
      </g>
     </g>
    </g>
    <g id="xtick_5">
     <g id="line2d_5">
      <g>
       <use xlink:href="#m0b4472ea7d" x="426.105372" y="418.130526" style="stroke: #000000; stroke-width: 0.8"/>
      </g>
     </g>
     <g id="text_5">
      <!-- 40 -->
      <g transform="translate(413.380372 440.327401) scale(0.2 -0.2)">
       <defs>
        <path id="DejaVuSans-34" d="M 2419 4116 
L 825 1625 
L 2419 1625 
L 2419 4116 
z
M 2253 4666 
L 3047 4666 
L 3047 1625 
L 3713 1625 
L 3713 1100 
L 3047 1100 
L 3047 0 
L 2419 0 
L 2419 1100 
L 313 1100 
L 313 1709 
L 2253 4666 
z
" transform="scale(0.015625)"/>
       </defs>
       <use xlink:href="#DejaVuSans-34"/>
       <use xlink:href="#DejaVuSans-30" x="63.623047"/>
      </g>
     </g>
    </g>
    <g id="xtick_6">
     <g id="line2d_6">
      <g>
       <use xlink:href="#m0b4472ea7d" x="498.161157" y="418.130526" style="stroke: #000000; stroke-width: 0.8"/>
      </g>
     </g>
     <g id="text_6">
      <!-- 50 -->
      <g transform="translate(485.436157 440.327401) scale(0.2 -0.2)">
       <defs>
        <path id="DejaVuSans-35" d="M 691 4666 
L 3169 4666 
L 3169 4134 
L 1269 4134 
L 1269 2991 
Q 1406 3038 1543 3061 
Q 1681 3084 1819 3084 
Q 2600 3084 3056 2656 
Q 3513 2228 3513 1497 
Q 3513 744 3044 326 
Q 2575 -91 1722 -91 
Q 1428 -91 1123 -41 
Q 819 9 494 109 
L 494 744 
Q 775 591 1075 516 
Q 1375 441 1709 441 
Q 2250 441 2565 725 
Q 2881 1009 2881 1497 
Q 2881 1984 2565 2268 
Q 2250 2553 1709 2553 
Q 1456 2553 1204 2497 
Q 953 2441 691 2322 
L 691 4666 
z
" transform="scale(0.015625)"/>
       </defs>
       <use xlink:href="#DejaVuSans-35"/>
       <use xlink:href="#DejaVuSans-30" x="63.623047"/>
      </g>
     </g>
    </g>
    <g id="text_7">
     <!-- k -->
     <g transform="translate(318.278523 466.723026) scale(0.24 -0.24)">
      <defs>
       <path id="DejaVuSans-6b" d="M 581 4863 
L 1159 4863 
L 1159 1991 
L 2875 3500 
L 3609 3500 
L 1753 1863 
L 3688 0 
L 2938 0 
L 1159 1709 
L 1159 0 
L 581 0 
L 581 4863 
z
" transform="scale(0.015625)"/>
      </defs>
      <use xlink:href="#DejaVuSans-6b"/>
     </g>
    </g>
   </g>
   <g id="matplotlib.axis_2">
    <g id="ytick_1">
     <g id="line2d_7">
      <defs>
       <path id="m284e7f510a" d="M 0 0 
L -3.5 0 
" style="stroke: #000000; stroke-width: 0.8"/>
      </defs>
      <g>
       <use xlink:href="#m284e7f510a" x="135" y="418.130526" style="stroke: #000000; stroke-width: 0.8"/>
      </g>
     </g>
     <g id="text_8">
      <!-- 0.0 -->
      <g transform="translate(96.19375 425.728964) scale(0.2 -0.2)">
       <defs>
        <path id="DejaVuSans-2e" d="M 684 794 
L 1344 794 
L 1344 0 
L 684 0 
L 684 794 
z
" transform="scale(0.015625)"/>
       </defs>
       <use xlink:href="#DejaVuSans-30"/>
       <use xlink:href="#DejaVuSans-2e" x="63.623047"/>
       <use xlink:href="#DejaVuSans-30" x="95.410156"/>
      </g>
     </g>
    </g>
    <g id="ytick_2">
     <g id="line2d_8">
      <g>
       <use xlink:href="#m284e7f510a" x="135" y="352.477895" style="stroke: #000000; stroke-width: 0.8"/>
      </g>
     </g>
     <g id="text_9">
      <!-- 0.2 -->
      <g transform="translate(96.19375 360.076332) scale(0.2 -0.2)">
       <use xlink:href="#DejaVuSans-30"/>
       <use xlink:href="#DejaVuSans-2e" x="63.623047"/>
       <use xlink:href="#DejaVuSans-32" x="95.410156"/>
      </g>
     </g>
    </g>
    <g id="ytick_3">
     <g id="line2d_9">
      <g>
       <use xlink:href="#m284e7f510a" x="135" y="286.825263" style="stroke: #000000; stroke-width: 0.8"/>
      </g>
     </g>
     <g id="text_10">
      <!-- 0.4 -->
      <g transform="translate(96.19375 294.423701) scale(0.2 -0.2)">
       <use xlink:href="#DejaVuSans-30"/>
       <use xlink:href="#DejaVuSans-2e" x="63.623047"/>
       <use xlink:href="#DejaVuSans-34" x="95.410156"/>
      </g>
     </g>
    </g>
    <g id="ytick_4">
     <g id="line2d_10">
      <g>
       <use xlink:href="#m284e7f510a" x="135" y="221.172632" style="stroke: #000000; stroke-width: 0.8"/>
      </g>
     </g>
     <g id="text_11">
      <!-- 0.6 -->
      <g transform="translate(96.19375 228.771069) scale(0.2 -0.2)">
       <defs>
        <path id="DejaVuSans-36" d="M 2113 2584 
Q 1688 2584 1439 2293 
Q 1191 2003 1191 1497 
Q 1191 994 1439 701 
Q 1688 409 2113 409 
Q 2538 409 2786 701 
Q 3034 994 3034 1497 
Q 3034 2003 2786 2293 
Q 2538 2584 2113 2584 
z
M 3366 4563 
L 3366 3988 
Q 3128 4100 2886 4159 
Q 2644 4219 2406 4219 
Q 1781 4219 1451 3797 
Q 1122 3375 1075 2522 
Q 1259 2794 1537 2939 
Q 1816 3084 2150 3084 
Q 2853 3084 3261 2657 
Q 3669 2231 3669 1497 
Q 3669 778 3244 343 
Q 2819 -91 2113 -91 
Q 1303 -91 875 529 
Q 447 1150 447 2328 
Q 447 3434 972 4092 
Q 1497 4750 2381 4750 
Q 2619 4750 2861 4703 
Q 3103 4656 3366 4563 
z
" transform="scale(0.015625)"/>
       </defs>
       <use xlink:href="#DejaVuSans-30"/>
       <use xlink:href="#DejaVuSans-2e" x="63.623047"/>
       <use xlink:href="#DejaVuSans-36" x="95.410156"/>
      </g>
     </g>
    </g>
    <g id="ytick_5">
     <g id="line2d_11">
      <g>
       <use xlink:href="#m284e7f510a" x="135" y="155.52" style="stroke: #000000; stroke-width: 0.8"/>
      </g>
     </g>
     <g id="text_12">
      <!-- 0.8 -->
      <g transform="translate(96.19375 163.118438) scale(0.2 -0.2)">
       <defs>
        <path id="DejaVuSans-38" d="M 2034 2216 
Q 1584 2216 1326 1975 
Q 1069 1734 1069 1313 
Q 1069 891 1326 650 
Q 1584 409 2034 409 
Q 2484 409 2743 651 
Q 3003 894 3003 1313 
Q 3003 1734 2745 1975 
Q 2488 2216 2034 2216 
z
M 1403 2484 
Q 997 2584 770 2862 
Q 544 3141 544 3541 
Q 544 4100 942 4425 
Q 1341 4750 2034 4750 
Q 2731 4750 3128 4425 
Q 3525 4100 3525 3541 
Q 3525 3141 3298 2862 
Q 3072 2584 2669 2484 
Q 3125 2378 3379 2068 
Q 3634 1759 3634 1313 
Q 3634 634 3220 271 
Q 2806 -91 2034 -91 
Q 1263 -91 848 271 
Q 434 634 434 1313 
Q 434 1759 690 2068 
Q 947 2378 1403 2484 
z
M 1172 3481 
Q 1172 3119 1398 2916 
Q 1625 2713 2034 2713 
Q 2441 2713 2670 2916 
Q 2900 3119 2900 3481 
Q 2900 3844 2670 4047 
Q 2441 4250 2034 4250 
Q 1625 4250 1398 4047 
Q 1172 3844 1172 3481 
z
" transform="scale(0.015625)"/>
       </defs>
       <use xlink:href="#DejaVuSans-30"/>
       <use xlink:href="#DejaVuSans-2e" x="63.623047"/>
       <use xlink:href="#DejaVuSans-38" x="95.410156"/>
      </g>
     </g>
    </g>
    <g id="text_13">
     <!-- $P_{NN}$ -->
     <g transform="translate(87.2025 306.985263) rotate(-90) scale(0.24 -0.24)">
      <defs>
       <path id="DejaVuSans-Oblique-50" d="M 1081 4666 
L 2541 4666 
Q 3178 4666 3512 4369 
Q 3847 4072 3847 3500 
Q 3847 2731 3353 2303 
Q 2859 1875 1966 1875 
L 1172 1875 
L 806 0 
L 172 0 
L 1081 4666 
z
M 1613 4147 
L 1275 2394 
L 2069 2394 
Q 2606 2394 2893 2669 
Q 3181 2944 3181 3456 
Q 3181 3784 2986 3965 
Q 2791 4147 2438 4147 
L 1613 4147 
z
" transform="scale(0.015625)"/>
       <path id="DejaVuSans-Oblique-4e" d="M 1081 4666 
L 1931 4666 
L 3219 666 
L 4000 4666 
L 4616 4666 
L 3706 0 
L 2853 0 
L 1569 4025 
L 788 0 
L 172 0 
L 1081 4666 
z
" transform="scale(0.015625)"/>
      </defs>
      <use xlink:href="#DejaVuSans-Oblique-50" transform="translate(0 0.09375)"/>
      <use xlink:href="#DejaVuSans-Oblique-4e" transform="translate(60.302734 -16.3125) scale(0.7)"/>
      <use xlink:href="#DejaVuSans-Oblique-4e" transform="translate(112.666016 -16.3125) scale(0.7)"/>
     </g>
    </g>
   </g>
   <g id="line2d_12">
    <path d="M 152.293388 368.459127 
L 173.910124 354.205596 
L 209.938017 348.022245 
L 281.993802 337.815171 
L 498.161157 317.664723 
" clip-path="url(#p417e49c7f5)" style="fill: none; stroke: #1f77b4; stroke-width: 1.5; stroke-linecap: square"/>
    <defs>
     <path id="m52919fd739" d="M 0 3 
C 0.795609 3 1.55874 2.683901 2.12132 2.12132 
C 2.683901 1.55874 3 0.795609 3 0 
C 3 -0.795609 2.683901 -1.55874 2.12132 -2.12132 
C 1.55874 -2.683901 0.795609 -3 0 -3 
C -0.795609 -3 -1.55874 -2.683901 -2.12132 -2.12132 
C -2.683901 -1.55874 -3 -0.795609 -3 0 
C -3 0.795609 -2.683901 1.55874 -2.12132 2.12132 
C -1.55874 2.683901 -0.795609 3 0 3 
z
" style="stroke: #1f77b4"/>
    </defs>
    <g clip-path="url(#p417e49c7f5)">
     <use xlink:href="#m52919fd739" x="152.293388" y="368.459127" style="fill: #1f77b4; stroke: #1f77b4"/>
     <use xlink:href="#m52919fd739" x="173.910124" y="354.205596" style="fill: #1f77b4; stroke: #1f77b4"/>
     <use xlink:href="#m52919fd739" x="209.938017" y="348.022245" style="fill: #1f77b4; stroke: #1f77b4"/>
     <use xlink:href="#m52919fd739" x="281.993802" y="337.815171" style="fill: #1f77b4; stroke: #1f77b4"/>
     <use xlink:href="#m52919fd739" x="498.161157" y="317.664723" style="fill: #1f77b4; stroke: #1f77b4"/>
    </g>
   </g>
   <g id="line2d_13">
    <path d="M 152.293388 216.603318 
L 173.910124 214.625555 
L 209.938017 215.330275 
L 281.993802 214.489157 
L 498.161157 222.750295 
" clip-path="url(#p417e49c7f5)" style="fill: none; stroke: #ff7f0e; stroke-width: 1.5; stroke-linecap: square"/>
    <defs>
     <path id="mc154c7fb1c" d="M 0 3 
C 0.795609 3 1.55874 2.683901 2.12132 2.12132 
C 2.683901 1.55874 3 0.795609 3 0 
C 3 -0.795609 2.683901 -1.55874 2.12132 -2.12132 
C 1.55874 -2.683901 0.795609 -3 0 -3 
C -0.795609 -3 -1.55874 -2.683901 -2.12132 -2.12132 
C -2.683901 -1.55874 -3 -0.795609 -3 0 
C -3 0.795609 -2.683901 1.55874 -2.12132 2.12132 
C -1.55874 2.683901 -0.795609 3 0 3 
z
" style="stroke: #ff7f0e"/>
    </defs>
    <g clip-path="url(#p417e49c7f5)">
     <use xlink:href="#mc154c7fb1c" x="152.293388" y="216.603318" style="fill: #ff7f0e; stroke: #ff7f0e"/>
     <use xlink:href="#mc154c7fb1c" x="173.910124" y="214.625555" style="fill: #ff7f0e; stroke: #ff7f0e"/>
     <use xlink:href="#mc154c7fb1c" x="209.938017" y="215.330275" style="fill: #ff7f0e; stroke: #ff7f0e"/>
     <use xlink:href="#mc154c7fb1c" x="281.993802" y="214.489157" style="fill: #ff7f0e; stroke: #ff7f0e"/>
     <use xlink:href="#mc154c7fb1c" x="498.161157" y="222.750295" style="fill: #ff7f0e; stroke: #ff7f0e"/>
    </g>
   </g>
   <g id="line2d_14">
    <path d="M 152.293388 312.081521 
L 173.910124 264.456084 
L 209.938017 238.586037 
L 281.993802 221.411327 
L 498.161157 235.708051 
" clip-path="url(#p417e49c7f5)" style="fill: none; stroke: #2ca02c; stroke-width: 1.5; stroke-linecap: square"/>
    <defs>
     <path id="mfed52faf5b" d="M 0 3 
C 0.795609 3 1.55874 2.683901 2.12132 2.12132 
C 2.683901 1.55874 3 0.795609 3 0 
C 3 -0.795609 2.683901 -1.55874 2.12132 -2.12132 
C 1.55874 -2.683901 0.795609 -3 0 -3 
C -0.795609 -3 -1.55874 -2.683901 -2.12132 -2.12132 
C -2.683901 -1.55874 -3 -0.795609 -3 0 
C -3 0.795609 -2.683901 1.55874 -2.12132 2.12132 
C -1.55874 2.683901 -0.795609 3 0 3 
z
" style="stroke: #2ca02c"/>
    </defs>
    <g clip-path="url(#p417e49c7f5)">
     <use xlink:href="#mfed52faf5b" x="152.293388" y="312.081521" style="fill: #2ca02c; stroke: #2ca02c"/>
     <use xlink:href="#mfed52faf5b" x="173.910124" y="264.456084" style="fill: #2ca02c; stroke: #2ca02c"/>
     <use xlink:href="#mfed52faf5b" x="209.938017" y="238.586037" style="fill: #2ca02c; stroke: #2ca02c"/>
     <use xlink:href="#mfed52faf5b" x="281.993802" y="221.411327" style="fill: #2ca02c; stroke: #2ca02c"/>
     <use xlink:href="#mfed52faf5b" x="498.161157" y="235.708051" style="fill: #2ca02c; stroke: #2ca02c"/>
    </g>
   </g>
   <g id="line2d_15">
    <path d="M 152.293388 294.349855 
L 173.910124 267.547759 
L 209.938017 249.225037 
L 281.993802 224.821263 
L 498.161157 222.336556 
" clip-path="url(#p417e49c7f5)" style="fill: none; stroke: #d62728; stroke-width: 1.5; stroke-linecap: square"/>
    <defs>
     <path id="mc7606cf605" d="M 0 3 
C 0.795609 3 1.55874 2.683901 2.12132 2.12132 
C 2.683901 1.55874 3 0.795609 3 0 
C 3 -0.795609 2.683901 -1.55874 2.12132 -2.12132 
C 1.55874 -2.683901 0.795609 -3 0 -3 
C -0.795609 -3 -1.55874 -2.683901 -2.12132 -2.12132 
C -2.683901 -1.55874 -3 -0.795609 -3 0 
C -3 0.795609 -2.683901 1.55874 -2.12132 2.12132 
C -1.55874 2.683901 -0.795609 3 0 3 
z
" style="stroke: #d62728"/>
    </defs>
    <g clip-path="url(#p417e49c7f5)">
     <use xlink:href="#mc7606cf605" x="152.293388" y="294.349855" style="fill: #d62728; stroke: #d62728"/>
     <use xlink:href="#mc7606cf605" x="173.910124" y="267.547759" style="fill: #d62728; stroke: #d62728"/>
     <use xlink:href="#mc7606cf605" x="209.938017" y="249.225037" style="fill: #d62728; stroke: #d62728"/>
     <use xlink:href="#mc7606cf605" x="281.993802" y="224.821263" style="fill: #d62728; stroke: #d62728"/>
     <use xlink:href="#mc7606cf605" x="498.161157" y="222.336556" style="fill: #d62728; stroke: #d62728"/>
    </g>
   </g>
   <g id="patch_3">
    <path d="M 135 418.130526 
L 135 155.52 
" style="fill: none; stroke: #000000; stroke-width: 0.8; stroke-linejoin: miter; stroke-linecap: square"/>
   </g>
   <g id="patch_4">
    <path d="M 515.454545 418.130526 
L 515.454545 155.52 
" style="fill: none; stroke: #000000; stroke-width: 0.8; stroke-linejoin: miter; stroke-linecap: square"/>
   </g>
   <g id="patch_5">
    <path d="M 135 418.130526 
L 515.454545 418.130526 
" style="fill: none; stroke: #000000; stroke-width: 0.8; stroke-linejoin: miter; stroke-linecap: square"/>
   </g>
   <g id="patch_6">
    <path d="M 135 155.52 
L 515.454545 155.52 
" style="fill: none; stroke: #000000; stroke-width: 0.8; stroke-linejoin: miter; stroke-linecap: square"/>
   </g>
   <g id="text_14">
    <!-- a -->
    <g transform="translate(89.472557 137.404046) scale(0.28 -0.28)">
     <defs>
      <path id="DejaVuSans-Bold-61" d="M 2106 1575 
Q 1756 1575 1579 1456 
Q 1403 1338 1403 1106 
Q 1403 894 1545 773 
Q 1688 653 1941 653 
Q 2256 653 2472 879 
Q 2688 1106 2688 1447 
L 2688 1575 
L 2106 1575 
z
M 3816 1997 
L 3816 0 
L 2688 0 
L 2688 519 
Q 2463 200 2181 54 
Q 1900 -91 1497 -91 
Q 953 -91 614 226 
Q 275 544 275 1050 
Q 275 1666 698 1953 
Q 1122 2241 2028 2241 
L 2688 2241 
L 2688 2328 
Q 2688 2594 2478 2717 
Q 2269 2841 1825 2841 
Q 1466 2841 1156 2769 
Q 847 2697 581 2553 
L 581 3406 
Q 941 3494 1303 3539 
Q 1666 3584 2028 3584 
Q 2975 3584 3395 3211 
Q 3816 2838 3816 1997 
z
" transform="scale(0.015625)"/>
     </defs>
     <use xlink:href="#DejaVuSans-Bold-61"/>
    </g>
   </g>
   <g id="text_15">
    <!-- $P_{NN}$ -->
    <g transform="translate(303.387273 149.52) scale(0.26 -0.26)">
     <use xlink:href="#DejaVuSans-Oblique-50" transform="translate(0 0.09375)"/>
     <use xlink:href="#DejaVuSans-Oblique-4e" transform="translate(60.302734 -16.3125) scale(0.7)"/>
     <use xlink:href="#DejaVuSans-Oblique-4e" transform="translate(112.666016 -16.3125) scale(0.7)"/>
    </g>
   </g>
  </g>
  <g id="axes_2">
   <g id="patch_7">
    <path d="M 591.545455 418.130526 
L 972 418.130526 
L 972 155.52 
L 591.545455 155.52 
z
" style="fill: #ffffff"/>
   </g>
   <g id="patch_8">
    <path d="M 608.838843 418.130526 
L 628.792753 418.130526 
L 628.792753 184.691841 
L 608.838843 184.691841 
z
" clip-path="url(#p5f2e596c6d)" style="fill: #1f77b4"/>
   </g>
   <g id="patch_9">
    <path d="M 741.864908 418.130526 
L 761.818818 418.130526 
L 761.818818 301.358473 
L 741.864908 301.358473 
z
" clip-path="url(#p5f2e596c6d)" style="fill: #1f77b4"/>
   </g>
   <g id="patch_10">
    <path d="M 874.890973 418.130526 
L 894.844882 418.130526 
L 894.844882 168.025263 
L 874.890973 168.025263 
z
" clip-path="url(#p5f2e596c6d)" style="fill: #1f77b4"/>
   </g>
   <g id="patch_11">
    <path d="M 628.792753 418.130526 
L 648.746662 418.130526 
L 648.746662 185.132827 
L 628.792753 185.132827 
z
" clip-path="url(#p5f2e596c6d)" style="fill: #ff7f0e"/>
   </g>
   <g id="patch_12">
    <path d="M 761.818818 418.130526 
L 781.772727 418.130526 
L 781.772727 207.346577 
L 761.818818 207.346577 
z
" clip-path="url(#p5f2e596c6d)" style="fill: #ff7f0e"/>
   </g>
   <g id="patch_13">
    <path d="M 894.844882 418.130526 
L 914.798792 418.130526 
L 914.798792 185.014883 
L 894.844882 185.014883 
z
" clip-path="url(#p5f2e596c6d)" style="fill: #ff7f0e"/>
   </g>
   <g id="patch_14">
    <path d="M 648.746662 418.130526 
L 668.700572 418.130526 
L 668.700572 191.988618 
L 648.746662 191.988618 
z
" clip-path="url(#p5f2e596c6d)" style="fill: #2ca02c"/>
   </g>
   <g id="patch_15">
    <path d="M 781.772727 418.130526 
L 801.726637 418.130526 
L 801.726637 237.658179 
L 781.772727 237.658179 
z
" clip-path="url(#p5f2e596c6d)" style="fill: #2ca02c"/>
   </g>
   <g id="patch_16">
    <path d="M 914.798792 418.130526 
L 934.752702 418.130526 
L 934.752702 191.218971 
L 914.798792 191.218971 
z
" clip-path="url(#p5f2e596c6d)" style="fill: #2ca02c"/>
   </g>
   <g id="patch_17">
    <path d="M 668.700572 418.130526 
L 688.654482 418.130526 
L 688.654482 199.287821 
L 668.700572 199.287821 
z
" clip-path="url(#p5f2e596c6d)" style="fill: #d62728"/>
   </g>
   <g id="patch_18">
    <path d="M 801.726637 418.130526 
L 821.680547 418.130526 
L 821.680547 232.638054 
L 801.726637 232.638054 
z
" clip-path="url(#p5f2e596c6d)" style="fill: #d62728"/>
   </g>
   <g id="patch_19">
    <path d="M 934.752702 418.130526 
L 954.706612 418.130526 
L 954.706612 198.519813 
L 934.752702 198.519813 
z
" clip-path="url(#p5f2e596c6d)" style="fill: #d62728"/>
   </g>
   <g id="matplotlib.axis_3">
    <g id="xtick_7">
     <g id="line2d_16">
      <g>
       <use xlink:href="#m0b4472ea7d" x="648.746662" y="418.130526" style="stroke: #000000; stroke-width: 0.8"/>
      </g>
     </g>
     <g id="text_16">
      <!-- AUC -->
      <g transform="translate(625.490256 441.847089) scale(0.22 -0.22)">
       <defs>
        <path id="DejaVuSans-41" d="M 2188 4044 
L 1331 1722 
L 3047 1722 
L 2188 4044 
z
M 1831 4666 
L 2547 4666 
L 4325 0 
L 3669 0 
L 3244 1197 
L 1141 1197 
L 716 0 
L 50 0 
L 1831 4666 
z
" transform="scale(0.015625)"/>
        <path id="DejaVuSans-55" d="M 556 4666 
L 1191 4666 
L 1191 1831 
Q 1191 1081 1462 751 
Q 1734 422 2344 422 
Q 2950 422 3222 751 
Q 3494 1081 3494 1831 
L 3494 4666 
L 4128 4666 
L 4128 1753 
Q 4128 841 3676 375 
Q 3225 -91 2344 -91 
Q 1459 -91 1007 375 
Q 556 841 556 1753 
L 556 4666 
z
" transform="scale(0.015625)"/>
        <path id="DejaVuSans-43" d="M 4122 4306 
L 4122 3641 
Q 3803 3938 3442 4084 
Q 3081 4231 2675 4231 
Q 1875 4231 1450 3742 
Q 1025 3253 1025 2328 
Q 1025 1406 1450 917 
Q 1875 428 2675 428 
Q 3081 428 3442 575 
Q 3803 722 4122 1019 
L 4122 359 
Q 3791 134 3420 21 
Q 3050 -91 2638 -91 
Q 1578 -91 968 557 
Q 359 1206 359 2328 
Q 359 3453 968 4101 
Q 1578 4750 2638 4750 
Q 3056 4750 3426 4639 
Q 3797 4528 4122 4306 
z
" transform="scale(0.015625)"/>
       </defs>
       <use xlink:href="#DejaVuSans-41"/>
       <use xlink:href="#DejaVuSans-55" x="68.408203"/>
       <use xlink:href="#DejaVuSans-43" x="141.601562"/>
      </g>
     </g>
    </g>
    <g id="xtick_8">
     <g id="line2d_17">
      <g>
       <use xlink:href="#m0b4472ea7d" x="781.772727" y="418.130526" style="stroke: #000000; stroke-width: 0.8"/>
      </g>
     </g>
     <g id="text_17">
      <!-- $Q_{local}$ -->
      <g transform="translate(754.822727 441.847089) scale(0.22 -0.22)">
       <defs>
        <path id="DejaVuSans-Oblique-51" d="M 2309 -84 
Q 2275 -88 2237 -89 
Q 2200 -91 2125 -91 
Q 1250 -91 756 411 
Q 263 913 263 1797 
Q 263 2319 452 2844 
Q 641 3369 978 3788 
Q 1369 4269 1858 4509 
Q 2347 4750 2938 4750 
Q 3794 4750 4287 4245 
Q 4781 3741 4781 2869 
Q 4781 1928 4265 1147 
Q 3750 366 2919 44 
L 3553 -825 
L 2847 -825 
L 2309 -84 
z
M 2919 4238 
Q 2400 4238 2003 3986 
Q 1606 3734 1313 3219 
Q 1125 2891 1026 2522 
Q 928 2153 928 1778 
Q 928 1128 1239 775 
Q 1550 422 2119 422 
Q 2631 422 3032 676 
Q 3434 931 3719 1434 
Q 3909 1772 4009 2142 
Q 4109 2513 4109 2881 
Q 4109 3528 3796 3883 
Q 3484 4238 2919 4238 
z
" transform="scale(0.015625)"/>
        <path id="DejaVuSans-Oblique-6c" d="M 1172 4863 
L 1747 4863 
L 800 0 
L 225 0 
L 1172 4863 
z
" transform="scale(0.015625)"/>
        <path id="DejaVuSans-Oblique-6f" d="M 1625 -91 
Q 1009 -91 651 289 
Q 294 669 294 1325 
Q 294 1706 417 2101 
Q 541 2497 738 2766 
Q 1047 3184 1428 3384 
Q 1809 3584 2291 3584 
Q 2888 3584 3255 3212 
Q 3622 2841 3622 2241 
Q 3622 1825 3500 1412 
Q 3378 1000 3181 728 
Q 2875 309 2494 109 
Q 2113 -91 1625 -91 
z
M 891 1344 
Q 891 869 1089 633 
Q 1288 397 1691 397 
Q 2269 397 2648 901 
Q 3028 1406 3028 2181 
Q 3028 2634 2825 2865 
Q 2622 3097 2228 3097 
Q 1903 3097 1650 2945 
Q 1397 2794 1197 2484 
Q 1050 2253 970 1956 
Q 891 1659 891 1344 
z
" transform="scale(0.015625)"/>
        <path id="DejaVuSans-Oblique-63" d="M 3431 3366 
L 3316 2797 
Q 3109 2947 2876 3022 
Q 2644 3097 2394 3097 
Q 2119 3097 1870 3000 
Q 1622 2903 1453 2725 
Q 1184 2453 1037 2087 
Q 891 1722 891 1331 
Q 891 859 1127 628 
Q 1363 397 1844 397 
Q 2081 397 2348 469 
Q 2616 541 2906 684 
L 2797 116 
Q 2547 13 2283 -39 
Q 2019 -91 1741 -91 
Q 1044 -91 669 257 
Q 294 606 294 1253 
Q 294 1797 489 2255 
Q 684 2713 1069 3078 
Q 1331 3328 1684 3456 
Q 2038 3584 2456 3584 
Q 2700 3584 2940 3529 
Q 3181 3475 3431 3366 
z
" transform="scale(0.015625)"/>
        <path id="DejaVuSans-Oblique-61" d="M 3438 1997 
L 3047 0 
L 2472 0 
L 2578 531 
Q 2325 219 2001 64 
Q 1678 -91 1281 -91 
Q 834 -91 548 182 
Q 263 456 263 884 
Q 263 1497 752 1853 
Q 1241 2209 2100 2209 
L 2900 2209 
L 2931 2363 
Q 2938 2388 2941 2417 
Q 2944 2447 2944 2509 
Q 2944 2788 2717 2942 
Q 2491 3097 2081 3097 
Q 1800 3097 1504 3025 
Q 1209 2953 897 2809 
L 997 3341 
Q 1322 3463 1633 3523 
Q 1944 3584 2234 3584 
Q 2853 3584 3176 3315 
Q 3500 3047 3500 2534 
Q 3500 2431 3484 2292 
Q 3469 2153 3438 1997 
z
M 2816 1759 
L 2241 1759 
Q 1534 1759 1195 1570 
Q 856 1381 856 984 
Q 856 709 1029 553 
Q 1203 397 1509 397 
Q 1978 397 2328 733 
Q 2678 1069 2791 1631 
L 2816 1759 
z
" transform="scale(0.015625)"/>
       </defs>
       <use xlink:href="#DejaVuSans-Oblique-51" transform="translate(0 0.78125)"/>
       <use xlink:href="#DejaVuSans-Oblique-6c" transform="translate(78.710938 -15.625) scale(0.7)"/>
       <use xlink:href="#DejaVuSans-Oblique-6f" transform="translate(98.15918 -15.625) scale(0.7)"/>
       <use xlink:href="#DejaVuSans-Oblique-63" transform="translate(140.986328 -15.625) scale(0.7)"/>
       <use xlink:href="#DejaVuSans-Oblique-61" transform="translate(179.472656 -15.625) scale(0.7)"/>
       <use xlink:href="#DejaVuSans-Oblique-6c" transform="translate(222.368164 -15.625) scale(0.7)"/>
      </g>
     </g>
    </g>
    <g id="xtick_9">
     <g id="line2d_18">
      <g>
       <use xlink:href="#m0b4472ea7d" x="914.798792" y="418.130526" style="stroke: #000000; stroke-width: 0.8"/>
      </g>
     </g>
     <g id="text_18">
      <!-- $Q_{global}$ -->
      <g transform="translate(882.348792 441.630526) scale(0.22 -0.22)">
       <defs>
        <path id="DejaVuSans-Oblique-67" d="M 3816 3500 
L 3219 434 
Q 3047 -456 2561 -893 
Q 2075 -1331 1253 -1331 
Q 950 -1331 690 -1286 
Q 431 -1241 206 -1147 
L 313 -588 
Q 525 -725 762 -790 
Q 1000 -856 1269 -856 
Q 1816 -856 2167 -557 
Q 2519 -259 2631 300 
L 2681 563 
Q 2441 288 2122 144 
Q 1803 0 1434 0 
Q 903 0 598 351 
Q 294 703 294 1319 
Q 294 1803 478 2267 
Q 663 2731 997 3091 
Q 1219 3328 1514 3456 
Q 1809 3584 2131 3584 
Q 2484 3584 2746 3420 
Q 3009 3256 3138 2956 
L 3238 3500 
L 3816 3500 
z
M 2950 2216 
Q 2950 2641 2750 2872 
Q 2550 3103 2181 3103 
Q 1953 3103 1747 3012 
Q 1541 2922 1394 2759 
Q 1156 2491 1023 2127 
Q 891 1763 891 1375 
Q 891 944 1092 712 
Q 1294 481 1672 481 
Q 2219 481 2584 976 
Q 2950 1472 2950 2216 
z
" transform="scale(0.015625)"/>
        <path id="DejaVuSans-Oblique-62" d="M 3169 2138 
Q 3169 2591 2961 2847 
Q 2753 3103 2388 3103 
Q 2122 3103 1889 2973 
Q 1656 2844 1484 2597 
Q 1303 2338 1198 1995 
Q 1094 1653 1094 1313 
Q 1094 881 1298 636 
Q 1503 391 1863 391 
Q 2134 391 2365 517 
Q 2597 644 2772 891 
Q 2950 1147 3059 1487 
Q 3169 1828 3169 2138 
z
M 1381 2969 
Q 1594 3256 1914 3420 
Q 2234 3584 2584 3584 
Q 3122 3584 3439 3221 
Q 3756 2859 3756 2241 
Q 3756 1734 3570 1259 
Q 3384 784 3041 416 
Q 2816 172 2522 40 
Q 2228 -91 1906 -91 
Q 1566 -91 1316 65 
Q 1066 222 909 531 
L 806 0 
L 231 0 
L 1178 4863 
L 1753 4863 
L 1381 2969 
z
" transform="scale(0.015625)"/>
       </defs>
       <use xlink:href="#DejaVuSans-Oblique-51" transform="translate(0 0.78125)"/>
       <use xlink:href="#DejaVuSans-Oblique-67" transform="translate(78.710938 -15.625) scale(0.7)"/>
       <use xlink:href="#DejaVuSans-Oblique-6c" transform="translate(123.144531 -15.625) scale(0.7)"/>
       <use xlink:href="#DejaVuSans-Oblique-6f" transform="translate(142.592773 -15.625) scale(0.7)"/>
       <use xlink:href="#DejaVuSans-Oblique-62" transform="translate(185.419922 -15.625) scale(0.7)"/>
       <use xlink:href="#DejaVuSans-Oblique-61" transform="translate(229.853516 -15.625) scale(0.7)"/>
       <use xlink:href="#DejaVuSans-Oblique-6c" transform="translate(272.749023 -15.625) scale(0.7)"/>
      </g>
     </g>
    </g>
   </g>
   <g id="matplotlib.axis_4">
    <g id="ytick_6">
     <g id="line2d_19">
      <g>
       <use xlink:href="#m284e7f510a" x="591.545455" y="418.130526" style="stroke: #000000; stroke-width: 0.8"/>
      </g>
     </g>
     <g id="text_19">
      <!-- 0.0 -->
      <g transform="translate(549.55858 426.488808) scale(0.22 -0.22)">
       <use xlink:href="#DejaVuSans-30"/>
       <use xlink:href="#DejaVuSans-2e" x="63.623047"/>
       <use xlink:href="#DejaVuSans-30" x="95.410156"/>
      </g>
     </g>
    </g>
    <g id="ytick_7">
     <g id="line2d_20">
      <g>
       <use xlink:href="#m284e7f510a" x="591.545455" y="348.989986" style="stroke: #000000; stroke-width: 0.8"/>
      </g>
     </g>
     <g id="text_20">
      <!-- 0.2 -->
      <g transform="translate(549.55858 357.348267) scale(0.22 -0.22)">
       <use xlink:href="#DejaVuSans-30"/>
       <use xlink:href="#DejaVuSans-2e" x="63.623047"/>
       <use xlink:href="#DejaVuSans-32" x="95.410156"/>
      </g>
     </g>
    </g>
    <g id="ytick_8">
     <g id="line2d_21">
      <g>
       <use xlink:href="#m284e7f510a" x="591.545455" y="279.849446" style="stroke: #000000; stroke-width: 0.8"/>
      </g>
     </g>
     <g id="text_21">
      <!-- 0.4 -->
      <g transform="translate(549.55858 288.207727) scale(0.22 -0.22)">
       <use xlink:href="#DejaVuSans-30"/>
       <use xlink:href="#DejaVuSans-2e" x="63.623047"/>
       <use xlink:href="#DejaVuSans-34" x="95.410156"/>
      </g>
     </g>
    </g>
    <g id="ytick_9">
     <g id="line2d_22">
      <g>
       <use xlink:href="#m284e7f510a" x="591.545455" y="210.708906" style="stroke: #000000; stroke-width: 0.8"/>
      </g>
     </g>
     <g id="text_22">
      <!-- 0.6 -->
      <g transform="translate(549.55858 219.067187) scale(0.22 -0.22)">
       <use xlink:href="#DejaVuSans-30"/>
       <use xlink:href="#DejaVuSans-2e" x="63.623047"/>
       <use xlink:href="#DejaVuSans-36" x="95.410156"/>
      </g>
     </g>
    </g>
    <g id="text_23">
     <!-- Metric Value -->
     <g transform="translate(540.983267 354.727919) rotate(-90) scale(0.22 -0.22)">
      <defs>
       <path id="DejaVuSans-4d" d="M 628 4666 
L 1569 4666 
L 2759 1491 
L 3956 4666 
L 4897 4666 
L 4897 0 
L 4281 0 
L 4281 4097 
L 3078 897 
L 2444 897 
L 1241 4097 
L 1241 0 
L 628 0 
L 628 4666 
z
" transform="scale(0.015625)"/>
       <path id="DejaVuSans-65" d="M 3597 1894 
L 3597 1613 
L 953 1613 
Q 991 1019 1311 708 
Q 1631 397 2203 397 
Q 2534 397 2845 478 
Q 3156 559 3463 722 
L 3463 178 
Q 3153 47 2828 -22 
Q 2503 -91 2169 -91 
Q 1331 -91 842 396 
Q 353 884 353 1716 
Q 353 2575 817 3079 
Q 1281 3584 2069 3584 
Q 2775 3584 3186 3129 
Q 3597 2675 3597 1894 
z
M 3022 2063 
Q 3016 2534 2758 2815 
Q 2500 3097 2075 3097 
Q 1594 3097 1305 2825 
Q 1016 2553 972 2059 
L 3022 2063 
z
" transform="scale(0.015625)"/>
       <path id="DejaVuSans-74" d="M 1172 4494 
L 1172 3500 
L 2356 3500 
L 2356 3053 
L 1172 3053 
L 1172 1153 
Q 1172 725 1289 603 
Q 1406 481 1766 481 
L 2356 481 
L 2356 0 
L 1766 0 
Q 1100 0 847 248 
Q 594 497 594 1153 
L 594 3053 
L 172 3053 
L 172 3500 
L 594 3500 
L 594 4494 
L 1172 4494 
z
" transform="scale(0.015625)"/>
       <path id="DejaVuSans-72" d="M 2631 2963 
Q 2534 3019 2420 3045 
Q 2306 3072 2169 3072 
Q 1681 3072 1420 2755 
Q 1159 2438 1159 1844 
L 1159 0 
L 581 0 
L 581 3500 
L 1159 3500 
L 1159 2956 
Q 1341 3275 1631 3429 
Q 1922 3584 2338 3584 
Q 2397 3584 2469 3576 
Q 2541 3569 2628 3553 
L 2631 2963 
z
" transform="scale(0.015625)"/>
       <path id="DejaVuSans-69" d="M 603 3500 
L 1178 3500 
L 1178 0 
L 603 0 
L 603 3500 
z
M 603 4863 
L 1178 4863 
L 1178 4134 
L 603 4134 
L 603 4863 
z
" transform="scale(0.015625)"/>
       <path id="DejaVuSans-63" d="M 3122 3366 
L 3122 2828 
Q 2878 2963 2633 3030 
Q 2388 3097 2138 3097 
Q 1578 3097 1268 2742 
Q 959 2388 959 1747 
Q 959 1106 1268 751 
Q 1578 397 2138 397 
Q 2388 397 2633 464 
Q 2878 531 3122 666 
L 3122 134 
Q 2881 22 2623 -34 
Q 2366 -91 2075 -91 
Q 1284 -91 818 406 
Q 353 903 353 1747 
Q 353 2603 823 3093 
Q 1294 3584 2113 3584 
Q 2378 3584 2631 3529 
Q 2884 3475 3122 3366 
z
" transform="scale(0.015625)"/>
       <path id="DejaVuSans-20" transform="scale(0.015625)"/>
       <path id="DejaVuSans-56" d="M 1831 0 
L 50 4666 
L 709 4666 
L 2188 738 
L 3669 4666 
L 4325 4666 
L 2547 0 
L 1831 0 
z
" transform="scale(0.015625)"/>
       <path id="DejaVuSans-61" d="M 2194 1759 
Q 1497 1759 1228 1600 
Q 959 1441 959 1056 
Q 959 750 1161 570 
Q 1363 391 1709 391 
Q 2188 391 2477 730 
Q 2766 1069 2766 1631 
L 2766 1759 
L 2194 1759 
z
M 3341 1997 
L 3341 0 
L 2766 0 
L 2766 531 
Q 2569 213 2275 61 
Q 1981 -91 1556 -91 
Q 1019 -91 701 211 
Q 384 513 384 1019 
Q 384 1609 779 1909 
Q 1175 2209 1959 2209 
L 2766 2209 
L 2766 2266 
Q 2766 2663 2505 2880 
Q 2244 3097 1772 3097 
Q 1472 3097 1187 3025 
Q 903 2953 641 2809 
L 641 3341 
Q 956 3463 1253 3523 
Q 1550 3584 1831 3584 
Q 2591 3584 2966 3190 
Q 3341 2797 3341 1997 
z
" transform="scale(0.015625)"/>
       <path id="DejaVuSans-6c" d="M 603 4863 
L 1178 4863 
L 1178 0 
L 603 0 
L 603 4863 
z
" transform="scale(0.015625)"/>
       <path id="DejaVuSans-75" d="M 544 1381 
L 544 3500 
L 1119 3500 
L 1119 1403 
Q 1119 906 1312 657 
Q 1506 409 1894 409 
Q 2359 409 2629 706 
Q 2900 1003 2900 1516 
L 2900 3500 
L 3475 3500 
L 3475 0 
L 2900 0 
L 2900 538 
Q 2691 219 2414 64 
Q 2138 -91 1772 -91 
Q 1169 -91 856 284 
Q 544 659 544 1381 
z
M 1991 3584 
L 1991 3584 
z
" transform="scale(0.015625)"/>
      </defs>
      <use xlink:href="#DejaVuSans-4d"/>
      <use xlink:href="#DejaVuSans-65" x="86.279297"/>
      <use xlink:href="#DejaVuSans-74" x="147.802734"/>
      <use xlink:href="#DejaVuSans-72" x="187.011719"/>
      <use xlink:href="#DejaVuSans-69" x="228.125"/>
      <use xlink:href="#DejaVuSans-63" x="255.908203"/>
      <use xlink:href="#DejaVuSans-20" x="310.888672"/>
      <use xlink:href="#DejaVuSans-56" x="342.675781"/>
      <use xlink:href="#DejaVuSans-61" x="403.333984"/>
      <use xlink:href="#DejaVuSans-6c" x="464.613281"/>
      <use xlink:href="#DejaVuSans-75" x="492.396484"/>
      <use xlink:href="#DejaVuSans-65" x="555.775391"/>
     </g>
    </g>
   </g>
   <g id="patch_20">
    <path d="M 591.545455 418.130526 
L 591.545455 155.52 
" style="fill: none; stroke: #000000; stroke-width: 0.8; stroke-linejoin: miter; stroke-linecap: square"/>
   </g>
   <g id="patch_21">
    <path d="M 972 418.130526 
L 972 155.52 
" style="fill: none; stroke: #000000; stroke-width: 0.8; stroke-linejoin: miter; stroke-linecap: square"/>
   </g>
   <g id="patch_22">
    <path d="M 591.545455 418.130526 
L 972 418.130526 
" style="fill: none; stroke: #000000; stroke-width: 0.8; stroke-linejoin: miter; stroke-linecap: square"/>
   </g>
   <g id="patch_23">
    <path d="M 591.545455 155.52 
L 972 155.52 
" style="fill: none; stroke: #000000; stroke-width: 0.8; stroke-linejoin: miter; stroke-linecap: square"/>
   </g>
   <g id="text_24">
    <!-- b -->
    <g transform="translate(544.871761 137.404046) scale(0.28 -0.28)">
     <defs>
      <path id="DejaVuSans-Bold-62" d="M 2400 722 
Q 2759 722 2948 984 
Q 3138 1247 3138 1747 
Q 3138 2247 2948 2509 
Q 2759 2772 2400 2772 
Q 2041 2772 1848 2508 
Q 1656 2244 1656 1747 
Q 1656 1250 1848 986 
Q 2041 722 2400 722 
z
M 1656 2988 
Q 1888 3294 2169 3439 
Q 2450 3584 2816 3584 
Q 3463 3584 3878 3070 
Q 4294 2556 4294 1747 
Q 4294 938 3878 423 
Q 3463 -91 2816 -91 
Q 2450 -91 2169 54 
Q 1888 200 1656 506 
L 1656 0 
L 538 0 
L 538 4863 
L 1656 4863 
L 1656 2988 
z
" transform="scale(0.015625)"/>
     </defs>
     <use xlink:href="#DejaVuSans-Bold-62"/>
    </g>
   </g>
   <g id="text_25">
    <!-- Metrics -->
    <g transform="translate(734.584759 149.52) scale(0.26 -0.26)">
     <defs>
      <path id="DejaVuSans-73" d="M 2834 3397 
L 2834 2853 
Q 2591 2978 2328 3040 
Q 2066 3103 1784 3103 
Q 1356 3103 1142 2972 
Q 928 2841 928 2578 
Q 928 2378 1081 2264 
Q 1234 2150 1697 2047 
L 1894 2003 
Q 2506 1872 2764 1633 
Q 3022 1394 3022 966 
Q 3022 478 2636 193 
Q 2250 -91 1575 -91 
Q 1294 -91 989 -36 
Q 684 19 347 128 
L 347 722 
Q 666 556 975 473 
Q 1284 391 1588 391 
Q 1994 391 2212 530 
Q 2431 669 2431 922 
Q 2431 1156 2273 1281 
Q 2116 1406 1581 1522 
L 1381 1569 
Q 847 1681 609 1914 
Q 372 2147 372 2553 
Q 372 3047 722 3315 
Q 1072 3584 1716 3584 
Q 2034 3584 2315 3537 
Q 2597 3491 2834 3397 
z
" transform="scale(0.015625)"/>
     </defs>
     <use xlink:href="#DejaVuSans-4d"/>
     <use xlink:href="#DejaVuSans-65" x="86.279297"/>
     <use xlink:href="#DejaVuSans-74" x="147.802734"/>
     <use xlink:href="#DejaVuSans-72" x="187.011719"/>
     <use xlink:href="#DejaVuSans-69" x="228.125"/>
     <use xlink:href="#DejaVuSans-63" x="255.908203"/>
     <use xlink:href="#DejaVuSans-73" x="310.888672"/>
    </g>
   </g>
  </g>
  <g id="axes_3">
   <g id="patch_24">
    <path d="M 135 785.785263 
L 515.454545 785.785263 
L 515.454545 523.174737 
L 135 523.174737 
z
" style="fill: #ffffff"/>
   </g>
   <g id="matplotlib.axis_5">
    <g id="xtick_10">
     <g id="line2d_23">
      <g>
       <use xlink:href="#m0b4472ea7d" x="137.882231" y="785.785263" style="stroke: #000000; stroke-width: 0.8"/>
      </g>
     </g>
     <g id="text_26">
      <!-- 0 -->
      <g transform="translate(130.883481 809.501826) scale(0.22 -0.22)">
       <use xlink:href="#DejaVuSans-30"/>
      </g>
     </g>
    </g>
    <g id="xtick_11">
     <g id="line2d_24">
      <g>
       <use xlink:href="#m0b4472ea7d" x="281.993802" y="785.785263" style="stroke: #000000; stroke-width: 0.8"/>
      </g>
     </g>
     <g id="text_27">
      <!-- 20 -->
      <g transform="translate(267.996302 809.501826) scale(0.22 -0.22)">
       <use xlink:href="#DejaVuSans-32"/>
       <use xlink:href="#DejaVuSans-30" x="63.623047"/>
      </g>
     </g>
    </g>
    <g id="xtick_12">
     <g id="line2d_25">
      <g>
       <use xlink:href="#m0b4472ea7d" x="426.105372" y="785.785263" style="stroke: #000000; stroke-width: 0.8"/>
      </g>
     </g>
     <g id="text_28">
      <!-- 40 -->
      <g transform="translate(412.107872 809.501826) scale(0.22 -0.22)">
       <use xlink:href="#DejaVuSans-34"/>
       <use xlink:href="#DejaVuSans-30" x="63.623047"/>
      </g>
     </g>
    </g>
    <g id="text_29">
     <!-- k -->
     <g transform="translate(318.278523 836.313388) scale(0.24 -0.24)">
      <use xlink:href="#DejaVuSans-6b"/>
     </g>
    </g>
   </g>
   <g id="matplotlib.axis_6">
    <g id="ytick_10">
     <g id="line2d_26">
      <g>
       <use xlink:href="#m284e7f510a" x="135" y="724.738282" style="stroke: #000000; stroke-width: 0.8"/>
      </g>
     </g>
     <g id="text_30">
      <!-- 0.85 -->
      <g transform="translate(79.015625 733.096563) scale(0.22 -0.22)">
       <use xlink:href="#DejaVuSans-30"/>
       <use xlink:href="#DejaVuSans-2e" x="63.623047"/>
       <use xlink:href="#DejaVuSans-38" x="95.410156"/>
       <use xlink:href="#DejaVuSans-35" x="159.033203"/>
      </g>
     </g>
    </g>
    <g id="ytick_11">
     <g id="line2d_27">
      <g>
       <use xlink:href="#m284e7f510a" x="135" y="658.867306" style="stroke: #000000; stroke-width: 0.8"/>
      </g>
     </g>
     <g id="text_31">
      <!-- 0.90 -->
      <g transform="translate(79.015625 667.225587) scale(0.22 -0.22)">
       <defs>
        <path id="DejaVuSans-39" d="M 703 97 
L 703 672 
Q 941 559 1184 500 
Q 1428 441 1663 441 
Q 2288 441 2617 861 
Q 2947 1281 2994 2138 
Q 2813 1869 2534 1725 
Q 2256 1581 1919 1581 
Q 1219 1581 811 2004 
Q 403 2428 403 3163 
Q 403 3881 828 4315 
Q 1253 4750 1959 4750 
Q 2769 4750 3195 4129 
Q 3622 3509 3622 2328 
Q 3622 1225 3098 567 
Q 2575 -91 1691 -91 
Q 1453 -91 1209 -44 
Q 966 3 703 97 
z
M 1959 2075 
Q 2384 2075 2632 2365 
Q 2881 2656 2881 3163 
Q 2881 3666 2632 3958 
Q 2384 4250 1959 4250 
Q 1534 4250 1286 3958 
Q 1038 3666 1038 3163 
Q 1038 2656 1286 2365 
Q 1534 2075 1959 2075 
z
" transform="scale(0.015625)"/>
       </defs>
       <use xlink:href="#DejaVuSans-30"/>
       <use xlink:href="#DejaVuSans-2e" x="63.623047"/>
       <use xlink:href="#DejaVuSans-39" x="95.410156"/>
       <use xlink:href="#DejaVuSans-30" x="159.033203"/>
      </g>
     </g>
    </g>
    <g id="ytick_12">
     <g id="line2d_28">
      <g>
       <use xlink:href="#m284e7f510a" x="135" y="592.99633" style="stroke: #000000; stroke-width: 0.8"/>
      </g>
     </g>
     <g id="text_32">
      <!-- 0.95 -->
      <g transform="translate(79.015625 601.354612) scale(0.22 -0.22)">
       <use xlink:href="#DejaVuSans-30"/>
       <use xlink:href="#DejaVuSans-2e" x="63.623047"/>
       <use xlink:href="#DejaVuSans-39" x="95.410156"/>
       <use xlink:href="#DejaVuSans-35" x="159.033203"/>
      </g>
     </g>
    </g>
    <g id="ytick_13">
     <g id="line2d_29">
      <g>
       <use xlink:href="#m284e7f510a" x="135" y="527.125355" style="stroke: #000000; stroke-width: 0.8"/>
      </g>
     </g>
     <g id="text_33">
      <!-- 1.00 -->
      <g transform="translate(79.015625 535.483636) scale(0.22 -0.22)">
       <use xlink:href="#DejaVuSans-31"/>
       <use xlink:href="#DejaVuSans-2e" x="63.623047"/>
       <use xlink:href="#DejaVuSans-30" x="95.410156"/>
       <use xlink:href="#DejaVuSans-30" x="159.033203"/>
      </g>
     </g>
    </g>
    <g id="text_34">
     <!-- Metric Value -->
     <g transform="translate(70.024375 728.555625) rotate(-90) scale(0.24 -0.24)">
      <use xlink:href="#DejaVuSans-4d"/>
      <use xlink:href="#DejaVuSans-65" x="86.279297"/>
      <use xlink:href="#DejaVuSans-74" x="147.802734"/>
      <use xlink:href="#DejaVuSans-72" x="187.011719"/>
      <use xlink:href="#DejaVuSans-69" x="228.125"/>
      <use xlink:href="#DejaVuSans-63" x="255.908203"/>
      <use xlink:href="#DejaVuSans-20" x="310.888672"/>
      <use xlink:href="#DejaVuSans-56" x="342.675781"/>
      <use xlink:href="#DejaVuSans-61" x="403.333984"/>
      <use xlink:href="#DejaVuSans-6c" x="464.613281"/>
      <use xlink:href="#DejaVuSans-75" x="492.396484"/>
      <use xlink:href="#DejaVuSans-65" x="555.775391"/>
     </g>
    </g>
   </g>
   <g id="line2d_30">
    <path d="M 152.293388 764.447857 
L 173.910124 761.180054 
L 209.938017 760.815292 
L 281.993802 765.535032 
L 498.161157 773.848421 
" clip-path="url(#p1e72b294a7)" style="fill: none; stroke: #1f77b4; stroke-width: 1.5; stroke-linecap: square"/>
    <g clip-path="url(#p1e72b294a7)">
     <use xlink:href="#m52919fd739" x="152.293388" y="764.447857" style="fill: #1f77b4; stroke: #1f77b4"/>
     <use xlink:href="#m52919fd739" x="173.910124" y="761.180054" style="fill: #1f77b4; stroke: #1f77b4"/>
     <use xlink:href="#m52919fd739" x="209.938017" y="760.815292" style="fill: #1f77b4; stroke: #1f77b4"/>
     <use xlink:href="#m52919fd739" x="281.993802" y="765.535032" style="fill: #1f77b4; stroke: #1f77b4"/>
     <use xlink:href="#m52919fd739" x="498.161157" y="773.848421" style="fill: #1f77b4; stroke: #1f77b4"/>
    </g>
   </g>
   <g id="line2d_31">
    <path d="M 152.293388 535.111579 
L 173.910124 548.646168 
L 209.938017 561.037976 
L 281.993802 578.214867 
L 498.161157 620.466049 
" clip-path="url(#p1e72b294a7)" style="fill: none; stroke: #ff7f0e; stroke-width: 1.5; stroke-linecap: square"/>
    <g clip-path="url(#p1e72b294a7)">
     <use xlink:href="#mc154c7fb1c" x="152.293388" y="535.111579" style="fill: #ff7f0e; stroke: #ff7f0e"/>
     <use xlink:href="#mc154c7fb1c" x="173.910124" y="548.646168" style="fill: #ff7f0e; stroke: #ff7f0e"/>
     <use xlink:href="#mc154c7fb1c" x="209.938017" y="561.037976" style="fill: #ff7f0e; stroke: #ff7f0e"/>
     <use xlink:href="#mc154c7fb1c" x="281.993802" y="578.214867" style="fill: #ff7f0e; stroke: #ff7f0e"/>
     <use xlink:href="#mc154c7fb1c" x="498.161157" y="620.466049" style="fill: #ff7f0e; stroke: #ff7f0e"/>
    </g>
   </g>
   <g id="line2d_32">
    <path d="M 152.293388 555.341405 
L 173.910124 557.861568 
L 209.938017 564.719782 
L 281.993802 577.303237 
L 498.161157 647.194962 
" clip-path="url(#p1e72b294a7)" style="fill: none; stroke: #2ca02c; stroke-width: 1.5; stroke-linecap: square"/>
    <g clip-path="url(#p1e72b294a7)">
     <use xlink:href="#mfed52faf5b" x="152.293388" y="555.341405" style="fill: #2ca02c; stroke: #2ca02c"/>
     <use xlink:href="#mfed52faf5b" x="173.910124" y="557.861568" style="fill: #2ca02c; stroke: #2ca02c"/>
     <use xlink:href="#mfed52faf5b" x="209.938017" y="564.719782" style="fill: #2ca02c; stroke: #2ca02c"/>
     <use xlink:href="#mfed52faf5b" x="281.993802" y="577.303237" style="fill: #2ca02c; stroke: #2ca02c"/>
     <use xlink:href="#mfed52faf5b" x="498.161157" y="647.194962" style="fill: #2ca02c; stroke: #2ca02c"/>
    </g>
   </g>
   <g id="line2d_33">
    <path d="M 152.293388 548.080999 
L 173.910124 553.95388 
L 209.938017 560.913308 
L 281.993802 570.968393 
L 498.161157 614.693538 
" clip-path="url(#p1e72b294a7)" style="fill: none; stroke: #d62728; stroke-width: 1.5; stroke-linecap: square"/>
    <g clip-path="url(#p1e72b294a7)">
     <use xlink:href="#mc7606cf605" x="152.293388" y="548.080999" style="fill: #d62728; stroke: #d62728"/>
     <use xlink:href="#mc7606cf605" x="173.910124" y="553.95388" style="fill: #d62728; stroke: #d62728"/>
     <use xlink:href="#mc7606cf605" x="209.938017" y="560.913308" style="fill: #d62728; stroke: #d62728"/>
     <use xlink:href="#mc7606cf605" x="281.993802" y="570.968393" style="fill: #d62728; stroke: #d62728"/>
     <use xlink:href="#mc7606cf605" x="498.161157" y="614.693538" style="fill: #d62728; stroke: #d62728"/>
    </g>
   </g>
   <g id="patch_25">
    <path d="M 135 785.785263 
L 135 523.174737 
" style="fill: none; stroke: #000000; stroke-width: 0.8; stroke-linejoin: miter; stroke-linecap: square"/>
   </g>
   <g id="patch_26">
    <path d="M 515.454545 785.785263 
L 515.454545 523.174737 
" style="fill: none; stroke: #000000; stroke-width: 0.8; stroke-linejoin: miter; stroke-linecap: square"/>
   </g>
   <g id="patch_27">
    <path d="M 135 785.785263 
L 515.454545 785.785263 
" style="fill: none; stroke: #000000; stroke-width: 0.8; stroke-linejoin: miter; stroke-linecap: square"/>
   </g>
   <g id="patch_28">
    <path d="M 135 523.174737 
L 515.454545 523.174737 
" style="fill: none; stroke: #000000; stroke-width: 0.8; stroke-linejoin: miter; stroke-linecap: square"/>
   </g>
   <g id="text_35">
    <!-- c -->
    <g transform="translate(91.769432 505.058783) scale(0.28 -0.28)">
     <defs>
      <path id="DejaVuSans-Bold-63" d="M 3366 3391 
L 3366 2478 
Q 3138 2634 2908 2709 
Q 2678 2784 2431 2784 
Q 1963 2784 1702 2511 
Q 1441 2238 1441 1747 
Q 1441 1256 1702 982 
Q 1963 709 2431 709 
Q 2694 709 2930 787 
Q 3166 866 3366 1019 
L 3366 103 
Q 3103 6 2833 -42 
Q 2563 -91 2291 -91 
Q 1344 -91 809 395 
Q 275 881 275 1747 
Q 275 2613 809 3098 
Q 1344 3584 2291 3584 
Q 2566 3584 2833 3536 
Q 3100 3488 3366 3391 
z
" transform="scale(0.015625)"/>
     </defs>
     <use xlink:href="#DejaVuSans-Bold-63"/>
    </g>
   </g>
   <g id="text_36">
    <!-- Trustworthiness -->
    <g transform="translate(230.950398 517.174737) scale(0.24 -0.24)">
     <defs>
      <path id="DejaVuSans-54" d="M -19 4666 
L 3928 4666 
L 3928 4134 
L 2272 4134 
L 2272 0 
L 1638 0 
L 1638 4134 
L -19 4134 
L -19 4666 
z
" transform="scale(0.015625)"/>
      <path id="DejaVuSans-77" d="M 269 3500 
L 844 3500 
L 1563 769 
L 2278 3500 
L 2956 3500 
L 3675 769 
L 4391 3500 
L 4966 3500 
L 4050 0 
L 3372 0 
L 2619 2869 
L 1863 0 
L 1184 0 
L 269 3500 
z
" transform="scale(0.015625)"/>
      <path id="DejaVuSans-6f" d="M 1959 3097 
Q 1497 3097 1228 2736 
Q 959 2375 959 1747 
Q 959 1119 1226 758 
Q 1494 397 1959 397 
Q 2419 397 2687 759 
Q 2956 1122 2956 1747 
Q 2956 2369 2687 2733 
Q 2419 3097 1959 3097 
z
M 1959 3584 
Q 2709 3584 3137 3096 
Q 3566 2609 3566 1747 
Q 3566 888 3137 398 
Q 2709 -91 1959 -91 
Q 1206 -91 779 398 
Q 353 888 353 1747 
Q 353 2609 779 3096 
Q 1206 3584 1959 3584 
z
" transform="scale(0.015625)"/>
      <path id="DejaVuSans-68" d="M 3513 2113 
L 3513 0 
L 2938 0 
L 2938 2094 
Q 2938 2591 2744 2837 
Q 2550 3084 2163 3084 
Q 1697 3084 1428 2787 
Q 1159 2491 1159 1978 
L 1159 0 
L 581 0 
L 581 4863 
L 1159 4863 
L 1159 2956 
Q 1366 3272 1645 3428 
Q 1925 3584 2291 3584 
Q 2894 3584 3203 3211 
Q 3513 2838 3513 2113 
z
" transform="scale(0.015625)"/>
      <path id="DejaVuSans-6e" d="M 3513 2113 
L 3513 0 
L 2938 0 
L 2938 2094 
Q 2938 2591 2744 2837 
Q 2550 3084 2163 3084 
Q 1697 3084 1428 2787 
Q 1159 2491 1159 1978 
L 1159 0 
L 581 0 
L 581 3500 
L 1159 3500 
L 1159 2956 
Q 1366 3272 1645 3428 
Q 1925 3584 2291 3584 
Q 2894 3584 3203 3211 
Q 3513 2838 3513 2113 
z
" transform="scale(0.015625)"/>
     </defs>
     <use xlink:href="#DejaVuSans-54"/>
     <use xlink:href="#DejaVuSans-72" x="46.333984"/>
     <use xlink:href="#DejaVuSans-75" x="87.447266"/>
     <use xlink:href="#DejaVuSans-73" x="150.826172"/>
     <use xlink:href="#DejaVuSans-74" x="202.925781"/>
     <use xlink:href="#DejaVuSans-77" x="242.134766"/>
     <use xlink:href="#DejaVuSans-6f" x="323.921875"/>
     <use xlink:href="#DejaVuSans-72" x="385.103516"/>
     <use xlink:href="#DejaVuSans-74" x="426.216797"/>
     <use xlink:href="#DejaVuSans-68" x="465.425781"/>
     <use xlink:href="#DejaVuSans-69" x="528.804688"/>
     <use xlink:href="#DejaVuSans-6e" x="556.587891"/>
     <use xlink:href="#DejaVuSans-65" x="619.966797"/>
     <use xlink:href="#DejaVuSans-73" x="681.490234"/>
     <use xlink:href="#DejaVuSans-73" x="733.589844"/>
    </g>
   </g>
  </g>
  <g id="axes_4">
   <g id="patch_29">
    <path d="M 591.545455 785.785263 
L 972 785.785263 
L 972 523.174737 
L 591.545455 523.174737 
z
" style="fill: #ffffff"/>
   </g>
   <g id="matplotlib.axis_7">
    <g id="xtick_13">
     <g id="line2d_34">
      <g>
       <use xlink:href="#m0b4472ea7d" x="594.427686" y="785.785263" style="stroke: #000000; stroke-width: 0.8"/>
      </g>
     </g>
     <g id="text_37">
      <!-- 0 -->
      <g transform="translate(587.428936 809.501826) scale(0.22 -0.22)">
       <use xlink:href="#DejaVuSans-30"/>
      </g>
     </g>
    </g>
    <g id="xtick_14">
     <g id="line2d_35">
      <g>
       <use xlink:href="#m0b4472ea7d" x="738.539256" y="785.785263" style="stroke: #000000; stroke-width: 0.8"/>
      </g>
     </g>
     <g id="text_38">
      <!-- 20 -->
      <g transform="translate(724.541756 809.501826) scale(0.22 -0.22)">
       <use xlink:href="#DejaVuSans-32"/>
       <use xlink:href="#DejaVuSans-30" x="63.623047"/>
      </g>
     </g>
    </g>
    <g id="xtick_15">
     <g id="line2d_36">
      <g>
       <use xlink:href="#m0b4472ea7d" x="882.650826" y="785.785263" style="stroke: #000000; stroke-width: 0.8"/>
      </g>
     </g>
     <g id="text_39">
      <!-- 40 -->
      <g transform="translate(868.653326 809.501826) scale(0.22 -0.22)">
       <use xlink:href="#DejaVuSans-34"/>
       <use xlink:href="#DejaVuSans-30" x="63.623047"/>
      </g>
     </g>
    </g>
    <g id="text_40">
     <!-- k -->
     <g transform="translate(774.823977 836.313388) scale(0.24 -0.24)">
      <use xlink:href="#DejaVuSans-6b"/>
     </g>
    </g>
   </g>
   <g id="matplotlib.axis_8">
    <g id="ytick_14">
     <g id="line2d_37">
      <g>
       <use xlink:href="#m284e7f510a" x="591.545455" y="758.855619" style="stroke: #000000; stroke-width: 0.8"/>
      </g>
     </g>
     <g id="text_41">
      <!-- 0.85 -->
      <g transform="translate(535.56108 767.2139) scale(0.22 -0.22)">
       <use xlink:href="#DejaVuSans-30"/>
       <use xlink:href="#DejaVuSans-2e" x="63.623047"/>
       <use xlink:href="#DejaVuSans-38" x="95.410156"/>
       <use xlink:href="#DejaVuSans-35" x="159.033203"/>
      </g>
     </g>
    </g>
    <g id="ytick_15">
     <g id="line2d_38">
      <g>
       <use xlink:href="#m284e7f510a" x="591.545455" y="673.249015" style="stroke: #000000; stroke-width: 0.8"/>
      </g>
     </g>
     <g id="text_42">
      <!-- 0.90 -->
      <g transform="translate(535.56108 681.607296) scale(0.22 -0.22)">
       <use xlink:href="#DejaVuSans-30"/>
       <use xlink:href="#DejaVuSans-2e" x="63.623047"/>
       <use xlink:href="#DejaVuSans-39" x="95.410156"/>
       <use xlink:href="#DejaVuSans-30" x="159.033203"/>
      </g>
     </g>
    </g>
    <g id="ytick_16">
     <g id="line2d_39">
      <g>
       <use xlink:href="#m284e7f510a" x="591.545455" y="587.642412" style="stroke: #000000; stroke-width: 0.8"/>
      </g>
     </g>
     <g id="text_43">
      <!-- 0.95 -->
      <g transform="translate(535.56108 596.000693) scale(0.22 -0.22)">
       <use xlink:href="#DejaVuSans-30"/>
       <use xlink:href="#DejaVuSans-2e" x="63.623047"/>
       <use xlink:href="#DejaVuSans-39" x="95.410156"/>
       <use xlink:href="#DejaVuSans-35" x="159.033203"/>
      </g>
     </g>
    </g>
   </g>
   <g id="line2d_40">
    <path d="M 608.838843 569.584987 
L 630.455579 593.134223 
L 666.483471 617.881623 
L 738.539256 644.666241 
L 954.706612 691.564808 
" clip-path="url(#p7dfecff20e)" style="fill: none; stroke: #1f77b4; stroke-width: 1.5; stroke-linecap: square"/>
    <g clip-path="url(#p7dfecff20e)">
     <use xlink:href="#m52919fd739" x="608.838843" y="569.584987" style="fill: #1f77b4; stroke: #1f77b4"/>
     <use xlink:href="#m52919fd739" x="630.455579" y="593.134223" style="fill: #1f77b4; stroke: #1f77b4"/>
     <use xlink:href="#m52919fd739" x="666.483471" y="617.881623" style="fill: #1f77b4; stroke: #1f77b4"/>
     <use xlink:href="#m52919fd739" x="738.539256" y="644.666241" style="fill: #1f77b4; stroke: #1f77b4"/>
     <use xlink:href="#m52919fd739" x="954.706612" y="691.564808" style="fill: #1f77b4; stroke: #1f77b4"/>
    </g>
   </g>
   <g id="line2d_41">
    <path d="M 608.838843 535.111579 
L 630.455579 552.358149 
L 666.483471 570.046019 
L 738.539256 591.862275 
L 954.706612 647.455986 
" clip-path="url(#p7dfecff20e)" style="fill: none; stroke: #ff7f0e; stroke-width: 1.5; stroke-linecap: square"/>
    <g clip-path="url(#p7dfecff20e)">
     <use xlink:href="#mc154c7fb1c" x="608.838843" y="535.111579" style="fill: #ff7f0e; stroke: #ff7f0e"/>
     <use xlink:href="#mc154c7fb1c" x="630.455579" y="552.358149" style="fill: #ff7f0e; stroke: #ff7f0e"/>
     <use xlink:href="#mc154c7fb1c" x="666.483471" y="570.046019" style="fill: #ff7f0e; stroke: #ff7f0e"/>
     <use xlink:href="#mc154c7fb1c" x="738.539256" y="591.862275" style="fill: #ff7f0e; stroke: #ff7f0e"/>
     <use xlink:href="#mc154c7fb1c" x="954.706612" y="647.455986" style="fill: #ff7f0e; stroke: #ff7f0e"/>
    </g>
   </g>
   <g id="line2d_42">
    <path d="M 608.838843 540.173281 
L 630.455579 554.361927 
L 666.483471 571.907843 
L 738.539256 606.083347 
L 954.706612 702.235974 
" clip-path="url(#p7dfecff20e)" style="fill: none; stroke: #2ca02c; stroke-width: 1.5; stroke-linecap: square"/>
    <g clip-path="url(#p7dfecff20e)">
     <use xlink:href="#mfed52faf5b" x="608.838843" y="540.173281" style="fill: #2ca02c; stroke: #2ca02c"/>
     <use xlink:href="#mfed52faf5b" x="630.455579" y="554.361927" style="fill: #2ca02c; stroke: #2ca02c"/>
     <use xlink:href="#mfed52faf5b" x="666.483471" y="571.907843" style="fill: #2ca02c; stroke: #2ca02c"/>
     <use xlink:href="#mfed52faf5b" x="738.539256" y="606.083347" style="fill: #2ca02c; stroke: #2ca02c"/>
     <use xlink:href="#mfed52faf5b" x="954.706612" y="702.235974" style="fill: #2ca02c; stroke: #2ca02c"/>
    </g>
   </g>
   <g id="line2d_43">
    <path d="M 608.838843 575.985886 
L 630.455579 600.837721 
L 666.483471 629.412294 
L 738.539256 675.874094 
L 954.706612 773.848421 
" clip-path="url(#p7dfecff20e)" style="fill: none; stroke: #d62728; stroke-width: 1.5; stroke-linecap: square"/>
    <g clip-path="url(#p7dfecff20e)">
     <use xlink:href="#mc7606cf605" x="608.838843" y="575.985886" style="fill: #d62728; stroke: #d62728"/>
     <use xlink:href="#mc7606cf605" x="630.455579" y="600.837721" style="fill: #d62728; stroke: #d62728"/>
     <use xlink:href="#mc7606cf605" x="666.483471" y="629.412294" style="fill: #d62728; stroke: #d62728"/>
     <use xlink:href="#mc7606cf605" x="738.539256" y="675.874094" style="fill: #d62728; stroke: #d62728"/>
     <use xlink:href="#mc7606cf605" x="954.706612" y="773.848421" style="fill: #d62728; stroke: #d62728"/>
    </g>
   </g>
   <g id="patch_30">
    <path d="M 591.545455 785.785263 
L 591.545455 523.174737 
" style="fill: none; stroke: #000000; stroke-width: 0.8; stroke-linejoin: miter; stroke-linecap: square"/>
   </g>
   <g id="patch_31">
    <path d="M 972 785.785263 
L 972 523.174737 
" style="fill: none; stroke: #000000; stroke-width: 0.8; stroke-linejoin: miter; stroke-linecap: square"/>
   </g>
   <g id="patch_32">
    <path d="M 591.545455 785.785263 
L 972 785.785263 
" style="fill: none; stroke: #000000; stroke-width: 0.8; stroke-linejoin: miter; stroke-linecap: square"/>
   </g>
   <g id="patch_33">
    <path d="M 591.545455 523.174737 
L 972 523.174737 
" style="fill: none; stroke: #000000; stroke-width: 0.8; stroke-linejoin: miter; stroke-linecap: square"/>
   </g>
   <g id="text_44">
    <!-- d -->
    <g transform="translate(544.871761 505.058783) scale(0.28 -0.28)">
     <defs>
      <path id="DejaVuSans-Bold-64" d="M 2919 2988 
L 2919 4863 
L 4044 4863 
L 4044 0 
L 2919 0 
L 2919 506 
Q 2688 197 2409 53 
Q 2131 -91 1766 -91 
Q 1119 -91 703 423 
Q 288 938 288 1747 
Q 288 2556 703 3070 
Q 1119 3584 1766 3584 
Q 2128 3584 2408 3439 
Q 2688 3294 2919 2988 
z
M 2181 722 
Q 2541 722 2730 984 
Q 2919 1247 2919 1747 
Q 2919 2247 2730 2509 
Q 2541 2772 2181 2772 
Q 1825 2772 1636 2509 
Q 1447 2247 1447 1747 
Q 1447 1247 1636 984 
Q 1825 722 2181 722 
z
" transform="scale(0.015625)"/>
     </defs>
     <use xlink:href="#DejaVuSans-Bold-64"/>
    </g>
   </g>
   <g id="text_45">
    <!-- Continuity -->
    <g transform="translate(720.057102 517.174737) scale(0.24 -0.24)">
     <defs>
      <path id="DejaVuSans-79" d="M 2059 -325 
Q 1816 -950 1584 -1140 
Q 1353 -1331 966 -1331 
L 506 -1331 
L 506 -850 
L 844 -850 
Q 1081 -850 1212 -737 
Q 1344 -625 1503 -206 
L 1606 56 
L 191 3500 
L 800 3500 
L 1894 763 
L 2988 3500 
L 3597 3500 
L 2059 -325 
z
" transform="scale(0.015625)"/>
     </defs>
     <use xlink:href="#DejaVuSans-43"/>
     <use xlink:href="#DejaVuSans-6f" x="69.824219"/>
     <use xlink:href="#DejaVuSans-6e" x="131.005859"/>
     <use xlink:href="#DejaVuSans-74" x="194.384766"/>
     <use xlink:href="#DejaVuSans-69" x="233.59375"/>
     <use xlink:href="#DejaVuSans-6e" x="261.376953"/>
     <use xlink:href="#DejaVuSans-75" x="324.755859"/>
     <use xlink:href="#DejaVuSans-69" x="388.134766"/>
     <use xlink:href="#DejaVuSans-74" x="415.917969"/>
     <use xlink:href="#DejaVuSans-79" x="455.126953"/>
    </g>
   </g>
  </g>
  <g id="axes_5">
   <g id="patch_34">
    <path d="M 135 1153.44 
L 515.454545 1153.44 
L 515.454545 890.829474 
L 135 890.829474 
z
" style="fill: #ffffff"/>
   </g>
   <g id="matplotlib.axis_9">
    <g id="xtick_16">
     <g id="line2d_44">
      <g>
       <use xlink:href="#m0b4472ea7d" x="152.053536" y="1153.44" style="stroke: #000000; stroke-width: 0.8"/>
      </g>
     </g>
     <g id="text_46">
      <!-- 0 -->
      <g transform="translate(145.054786 1177.156562) scale(0.22 -0.22)">
       <use xlink:href="#DejaVuSans-30"/>
      </g>
     </g>
    </g>
    <g id="xtick_17">
     <g id="line2d_45">
      <g>
       <use xlink:href="#m0b4472ea7d" x="271.979946" y="1153.44" style="stroke: #000000; stroke-width: 0.8"/>
      </g>
     </g>
     <g id="text_47">
      <!-- 500 -->
      <g transform="translate(250.983696 1177.156562) scale(0.22 -0.22)">
       <use xlink:href="#DejaVuSans-35"/>
       <use xlink:href="#DejaVuSans-30" x="63.623047"/>
       <use xlink:href="#DejaVuSans-30" x="127.246094"/>
      </g>
     </g>
    </g>
    <g id="xtick_18">
     <g id="line2d_46">
      <g>
       <use xlink:href="#m0b4472ea7d" x="391.906357" y="1153.44" style="stroke: #000000; stroke-width: 0.8"/>
      </g>
     </g>
     <g id="text_48">
      <!-- 1000 -->
      <g transform="translate(363.911357 1177.156562) scale(0.22 -0.22)">
       <use xlink:href="#DejaVuSans-31"/>
       <use xlink:href="#DejaVuSans-30" x="63.623047"/>
       <use xlink:href="#DejaVuSans-30" x="127.246094"/>
       <use xlink:href="#DejaVuSans-30" x="190.869141"/>
      </g>
     </g>
    </g>
    <g id="xtick_19">
     <g id="line2d_47">
      <g>
       <use xlink:href="#m0b4472ea7d" x="511.832768" y="1153.44" style="stroke: #000000; stroke-width: 0.8"/>
      </g>
     </g>
     <g id="text_49">
      <!-- 1500 -->
      <g transform="translate(483.837768 1177.156562) scale(0.22 -0.22)">
       <use xlink:href="#DejaVuSans-31"/>
       <use xlink:href="#DejaVuSans-35" x="63.623047"/>
       <use xlink:href="#DejaVuSans-30" x="127.246094"/>
       <use xlink:href="#DejaVuSans-30" x="190.869141"/>
      </g>
     </g>
    </g>
    <g id="text_50">
     <!-- k -->
     <g transform="translate(318.278523 1203.968125) scale(0.24 -0.24)">
      <use xlink:href="#DejaVuSans-6b"/>
     </g>
    </g>
   </g>
   <g id="matplotlib.axis_10">
    <g id="ytick_17">
     <g id="line2d_48">
      <g>
       <use xlink:href="#m284e7f510a" x="135" y="1116.390483" style="stroke: #000000; stroke-width: 0.8"/>
      </g>
     </g>
     <g id="text_51">
      <!-- 0.2 -->
      <g transform="translate(93.013125 1124.748764) scale(0.22 -0.22)">
       <use xlink:href="#DejaVuSans-30"/>
       <use xlink:href="#DejaVuSans-2e" x="63.623047"/>
       <use xlink:href="#DejaVuSans-32" x="95.410156"/>
      </g>
     </g>
    </g>
    <g id="ytick_18">
     <g id="line2d_49">
      <g>
       <use xlink:href="#m284e7f510a" x="135" y="1062.984441" style="stroke: #000000; stroke-width: 0.8"/>
      </g>
     </g>
     <g id="text_52">
      <!-- 0.4 -->
      <g transform="translate(93.013125 1071.342723) scale(0.22 -0.22)">
       <use xlink:href="#DejaVuSans-30"/>
       <use xlink:href="#DejaVuSans-2e" x="63.623047"/>
       <use xlink:href="#DejaVuSans-34" x="95.410156"/>
      </g>
     </g>
    </g>
    <g id="ytick_19">
     <g id="line2d_50">
      <g>
       <use xlink:href="#m284e7f510a" x="135" y="1009.578399" style="stroke: #000000; stroke-width: 0.8"/>
      </g>
     </g>
     <g id="text_53">
      <!-- 0.6 -->
      <g transform="translate(93.013125 1017.936681) scale(0.22 -0.22)">
       <use xlink:href="#DejaVuSans-30"/>
       <use xlink:href="#DejaVuSans-2e" x="63.623047"/>
       <use xlink:href="#DejaVuSans-36" x="95.410156"/>
      </g>
     </g>
    </g>
    <g id="ytick_20">
     <g id="line2d_51">
      <g>
       <use xlink:href="#m284e7f510a" x="135" y="956.172358" style="stroke: #000000; stroke-width: 0.8"/>
      </g>
     </g>
     <g id="text_54">
      <!-- 0.8 -->
      <g transform="translate(93.013125 964.530639) scale(0.22 -0.22)">
       <use xlink:href="#DejaVuSans-30"/>
       <use xlink:href="#DejaVuSans-2e" x="63.623047"/>
       <use xlink:href="#DejaVuSans-38" x="95.410156"/>
      </g>
     </g>
    </g>
    <g id="ytick_21">
     <g id="line2d_52">
      <g>
       <use xlink:href="#m284e7f510a" x="135" y="902.766316" style="stroke: #000000; stroke-width: 0.8"/>
      </g>
     </g>
     <g id="text_55">
      <!-- 1.0 -->
      <g transform="translate(93.013125 911.124597) scale(0.22 -0.22)">
       <use xlink:href="#DejaVuSans-31"/>
       <use xlink:href="#DejaVuSans-2e" x="63.623047"/>
       <use xlink:href="#DejaVuSans-30" x="95.410156"/>
      </g>
     </g>
    </g>
    <g id="text_56">
     <!-- Metric Value -->
     <g transform="translate(84.021875 1096.210362) rotate(-90) scale(0.24 -0.24)">
      <use xlink:href="#DejaVuSans-4d"/>
      <use xlink:href="#DejaVuSans-65" x="86.279297"/>
      <use xlink:href="#DejaVuSans-74" x="147.802734"/>
      <use xlink:href="#DejaVuSans-72" x="187.011719"/>
      <use xlink:href="#DejaVuSans-69" x="228.125"/>
      <use xlink:href="#DejaVuSans-63" x="255.908203"/>
      <use xlink:href="#DejaVuSans-20" x="310.888672"/>
      <use xlink:href="#DejaVuSans-56" x="342.675781"/>
      <use xlink:href="#DejaVuSans-61" x="403.333984"/>
      <use xlink:href="#DejaVuSans-6c" x="464.613281"/>
      <use xlink:href="#DejaVuSans-75" x="492.396484"/>
      <use xlink:href="#DejaVuSans-65" x="555.775391"/>
     </g>
    </g>
   </g>
   <g id="line2d_53">
    <path d="M 152.293388 1141.503158 
L 152.533241 1129.575562 
L 153.012947 1120.329364 
L 153.492653 1115.829547 
L 153.732505 1114.609929 
L 153.972358 1114.157526 
L 154.691917 1111.74721 
L 155.891181 1107.67363 
L 156.131034 1107.118178 
L 156.610739 1105.141266 
L 156.850592 1104.499872 
L 157.570151 1101.374657 
L 158.289709 1099.56098 
L 158.769415 1097.755431 
L 159.24912 1096.449515 
L 159.968679 1094.375565 
L 160.208532 1094.129989 
L 161.167943 1091.875405 
L 161.647648 1090.917207 
L 162.367207 1089.707245 
L 162.846913 1088.968313 
L 165.245441 1085.750263 
L 165.485294 1085.609889 
L 167.164263 1083.748174 
L 168.123675 1082.669736 
L 168.60338 1081.992481 
L 169.802644 1080.950554 
L 170.28235 1080.315224 
L 176.758376 1072.668353 
L 179.156904 1070.618364 
L 179.876463 1069.99019 
L 182.514844 1067.785475 
L 182.99455 1067.433225 
L 189.710429 1061.687853 
L 192.828515 1059.370809 
L 196.906013 1056.300676 
L 199.544394 1054.397431 
L 201.463217 1052.942531 
L 206.500126 1049.574765 
L 212.016741 1045.784293 
L 219.212326 1041.138977 
L 222.090559 1039.360531 
L 226.647763 1036.319475 
L 227.367322 1035.901561 
L 228.566586 1035.171877 
L 240.319374 1028.695518 
L 242.478049 1027.483062 
L 244.396872 1026.37622 
L 248.714223 1024.026881 
L 260.706864 1017.20241 
L 277.736414 1007.529625 
L 280.134942 1006.193875 
L 282.293618 1005.004068 
L 302.681108 994.165576 
L 305.319489 992.833259 
L 327.865654 981.53661 
L 330.504035 980.325516 
L 333.142416 979.076477 
L 337.699619 977.039809 
L 340.338 975.922708 
L 381.352833 958.723419 
L 387.589006 956.106523 
L 395.264297 952.984115 
L 402.220028 950.251883 
L 404.858409 949.210304 
L 414.452522 945.46837 
L 431.961778 937.860353 
L 436.039276 936.057316 
L 445.633389 931.82612 
L 454.507944 927.949998 
L 458.825294 926.057338 
L 464.341909 923.653918 
L 471.537494 920.40809 
L 475.854845 918.078294 
L 487.36778 910.443571 
L 496.482187 904.031809 
L 498.161157 902.766316 
L 498.161157 902.766316 
" clip-path="url(#p53b3302550)" style="fill: none; stroke: #1f77b4; stroke-width: 1.5; stroke-linecap: square"/>
   </g>
   <g id="line2d_54">
    <path d="M 152.293388 1012.241305 
L 152.533241 1005.584042 
L 152.773094 1003.118389 
L 153.012947 1004.382036 
L 153.2528 1004.141635 
L 153.492653 1002.563617 
L 153.732505 1002.757347 
L 153.972358 1002.46345 
L 154.452064 1005.066255 
L 154.691917 1004.171895 
L 154.931769 1003.996778 
L 155.411475 1004.382036 
L 155.651328 1004.043009 
L 155.891181 1003.919726 
L 156.131034 1004.25694 
L 156.370886 1004.299848 
L 156.850592 1004.095404 
L 157.090445 1004.633004 
L 157.330298 1004.608988 
L 157.810003 1004.929103 
L 158.049856 1005.53966 
L 158.289709 1005.726291 
L 159.24912 1005.214194 
L 159.488973 1005.709313 
L 159.968679 1005.847418 
L 160.208532 1006.166008 
L 160.448384 1006.693586 
L 160.688237 1006.863099 
L 160.92809 1006.863516 
L 161.167943 1007.097498 
L 161.407796 1007.0824 
L 161.647648 1007.271473 
L 161.887501 1007.257378 
L 162.60706 1007.895591 
L 163.086765 1008.454383 
L 163.326618 1008.794637 
L 163.566471 1008.897263 
L 164.525882 1009.975986 
L 165.005588 1010.967384 
L 166.444705 1014.602167 
L 168.363527 1019.431584 
L 171.96132 1027.451858 
L 172.920731 1029.007744 
L 174.359848 1031.121445 
L 175.559112 1032.47727 
L 176.518523 1033.507561 
L 178.917052 1036.060172 
L 181.795285 1038.853951 
L 182.514844 1039.650822 
L 186.352489 1042.862386 
L 187.3119 1043.512325 
L 188.031459 1043.934807 
L 189.710429 1044.757299 
L 191.389398 1045.420498 
L 191.869104 1045.537645 
L 193.068368 1045.935317 
L 194.987191 1046.368558 
L 197.385719 1046.559866 
L 198.105277 1046.575521 
L 199.544394 1046.686662 
L 200.263953 1046.616002 
L 200.983511 1046.600903 
L 201.70307 1046.487973 
L 202.902334 1046.408624 
L 207.219685 1045.578272 
L 215.134828 1043.290953 
L 220.651443 1041.322215 
L 226.40791 1038.753436 
L 227.847027 1038.148216 
L 229.046291 1037.643866 
L 233.603495 1035.65703 
L 234.802759 1035.156332 
L 235.522317 1034.836038 
L 243.917166 1031.299578 
L 247.035253 1030.197609 
L 250.633045 1028.737782 
L 252.551868 1028.056497 
L 258.788041 1025.601957 
L 264.784362 1023.366645 
L 282.773323 1016.257717 
L 286.610968 1014.880674 
L 293.086995 1012.104184 
L 295.485523 1011.118464 
L 308.917281 1005.070553 
L 314.433896 1002.493053 
L 317.072277 1001.239941 
L 319.950511 999.907668 
L 321.149775 999.349612 
L 335.780797 992.746794 
L 344.895204 988.839222 
L 390.46724 966.917817 
L 394.544738 964.844798 
L 405.577968 959.197168 
L 411.814141 956.089646 
L 431.961778 945.893215 
L 448.511623 936.680414 
L 461.703528 928.77055 
L 472.257052 922.00949 
L 484.729399 913.047395 
L 488.567044 910.098558 
L 498.161157 902.766316 
L 498.161157 902.766316 
" clip-path="url(#p53b3302550)" style="fill: none; stroke: #ff7f0e; stroke-width: 1.5; stroke-linecap: square"/>
   </g>
   <g id="line2d_55">
    <path d="M 152.293388 1111.175627 
L 152.773094 1064.266581 
L 153.2528 1044.713953 
L 153.732505 1035.145459 
L 154.691917 1021.302579 
L 155.411475 1013.852785 
L 155.891181 1011.80211 
L 156.850592 1009.883524 
L 157.090445 1009.71401 
L 157.330298 1009.341361 
L 157.810003 1009.228585 
L 158.289709 1009.844405 
L 159.24912 1009.492102 
L 159.488973 1009.926772 
L 159.728826 1010.010659 
L 162.60706 1017.637722 
L 163.086765 1018.460378 
L 163.806324 1019.706195 
L 165.245441 1022.001928 
L 165.964999 1023.633259 
L 168.363527 1029.504501 
L 169.322939 1031.686573 
L 170.522203 1034.37214 
L 171.241761 1035.805241 
L 173.880142 1039.985996 
L 178.197493 1045.559853 
L 179.156904 1046.812268 
L 180.596021 1048.404041 
L 182.274991 1050.011291 
L 183.474255 1050.815597 
L 183.953961 1051.179618 
L 185.632931 1051.922025 
L 187.791606 1053.11943 
L 188.271312 1053.460979 
L 191.869104 1055.326361 
L 193.548074 1055.84488 
L 194.987191 1055.998034 
L 196.906013 1056.141463 
L 198.105277 1056.073101 
L 202.182775 1055.456001 
L 208.418949 1054.108878 
L 209.858066 1053.658135 
L 212.736299 1052.863911 
L 215.854386 1051.634281 
L 217.773209 1050.882315 
L 219.452178 1050.320506 
L 220.171737 1050.092115 
L 221.610854 1049.503484 
L 226.40791 1047.342856 
L 229.046291 1046.252336 
L 230.245555 1045.699496 
L 231.684672 1045.116553 
L 233.363642 1044.416438 
L 236.241876 1043.352786 
L 237.920846 1042.665946 
L 239.599815 1041.854978 
L 257.348924 1033.548842 
L 258.308336 1033.103483 
L 265.024215 1030.051328 
L 267.662596 1029.010302 
L 275.337886 1025.87423 
L 279.655237 1024.04863 
L 289.968908 1019.583912 
L 292.847142 1018.258737 
L 295.965229 1016.909094 
L 297.644198 1016.137808 
L 307.478164 1011.521014 
L 311.555662 1009.580346 
L 322.109186 1004.477628 
L 328.825065 1001.298172 
L 331.463446 1000.004431 
L 335.780797 997.888211 
L 341.537265 994.833405 
L 365.522547 982.515504 
L 368.640633 980.98813 
L 371.279014 979.648556 
L 383.271656 973.943628 
L 386.869448 972.068414 
L 396.703414 966.800047 
L 408.456202 959.866997 
L 410.85473 958.526291 
L 413.253258 957.194755 
L 424.766194 951.778811 
L 426.685016 950.765795 
L 429.56325 949.133963 
L 436.039276 945.30695 
L 446.832653 938.704009 
L 452.109415 935.28337 
L 461.703528 929.129942 
L 491.445278 907.797293 
L 498.161157 902.766316 
L 498.161157 902.766316 
" clip-path="url(#p53b3302550)" style="fill: none; stroke: #2ca02c; stroke-width: 1.5; stroke-linecap: square"/>
   </g>
   <g id="line2d_56">
    <path d="M 152.293388 1082.88226 
L 152.773094 1060.629743 
L 153.2528 1047.672737 
L 153.732505 1040.561089 
L 153.972358 1038.454277 
L 154.691917 1029.304743 
L 155.411475 1023.376369 
L 155.891181 1018.228218 
L 156.370886 1015.241182 
L 156.850592 1012.657384 
L 157.570151 1009.845333 
L 158.289709 1008.457476 
L 158.769415 1007.697459 
L 159.009267 1007.452411 
L 159.24912 1006.9833 
L 159.488973 1006.973954 
L 159.728826 1006.803384 
L 160.208532 1007.139579 
L 160.448384 1007.501967 
L 160.92809 1007.658189 
L 161.167943 1007.963721 
L 163.086765 1008.406142 
L 163.326618 1008.554629 
L 163.566471 1008.51971 
L 165.245441 1010.496295 
L 166.204852 1012.598615 
L 166.684558 1013.405416 
L 168.123675 1016.800922 
L 171.721467 1024.746224 
L 173.160584 1027.379853 
L 174.359848 1029.759371 
L 178.917052 1037.417382 
L 179.63661 1038.407242 
L 180.356169 1039.522291 
L 183.714108 1043.971175 
L 185.872783 1046.213542 
L 188.271312 1048.038176 
L 189.230723 1048.69638 
L 189.710429 1049.042352 
L 190.66984 1049.486829 
L 191.869104 1049.957996 
L 197.385719 1051.867869 
L 199.064689 1052.345275 
L 199.544394 1052.54539 
L 201.223364 1052.773932 
L 202.182775 1052.788318 
L 205.061009 1052.911189 
L 207.219685 1053.102265 
L 213.216005 1053.358967 
L 215.37468 1053.499663 
L 218.252914 1053.656233 
L 219.212326 1053.60021 
L 222.330412 1053.639659 
L 227.607174 1053.153531 
L 230.245555 1052.743624 
L 231.684672 1052.480649 
L 240.319374 1050.339662 
L 242.717902 1049.607687 
L 245.11643 1048.894379 
L 245.835989 1048.698284 
L 247.035253 1048.339771 
L 256.14966 1045.0325 
L 258.308336 1044.381341 
L 260.467011 1043.623147 
L 264.304656 1042.136951 
L 266.463331 1041.329031 
L 273.898769 1038.426611 
L 275.577739 1037.684329 
L 278.455973 1036.305282 
L 290.448614 1030.117074 
L 298.363757 1026.565333 
L 309.636839 1021.689878 
L 312.515073 1020.487974 
L 315.153454 1019.466393 
L 317.072277 1018.646178 
L 323.068597 1015.944971 
L 326.906242 1014.081666 
L 328.585212 1013.20914 
L 330.98374 1012.013496 
L 353.529906 1000.37579 
L 365.042841 993.813465 
L 368.880486 991.783682 
L 393.82518 977.207752 
L 405.338115 970.080566 
L 412.293847 965.769826 
L 415.651786 963.659137 
L 418.769873 961.648468 
L 424.046635 958.152186 
L 430.042956 954.027591 
L 439.397216 947.505258 
L 442.755155 945.192329 
L 447.552212 941.764709 
L 449.95074 940.107408 
L 453.548532 937.621026 
L 458.585441 933.881727 
L 474.175875 921.837856 
L 498.161157 902.766316 
L 498.161157 902.766316 
" clip-path="url(#p53b3302550)" style="fill: none; stroke: #d62728; stroke-width: 1.5; stroke-linecap: square"/>
   </g>
   <g id="patch_35">
    <path d="M 135 1153.44 
L 135 890.829474 
" style="fill: none; stroke: #000000; stroke-width: 0.8; stroke-linejoin: miter; stroke-linecap: square"/>
   </g>
   <g id="patch_36">
    <path d="M 515.454545 1153.44 
L 515.454545 890.829474 
" style="fill: none; stroke: #000000; stroke-width: 0.8; stroke-linejoin: miter; stroke-linecap: square"/>
   </g>
   <g id="patch_37">
    <path d="M 135 1153.44 
L 515.454545 1153.44 
" style="fill: none; stroke: #000000; stroke-width: 0.8; stroke-linejoin: miter; stroke-linecap: square"/>
   </g>
   <g id="patch_38">
    <path d="M 135 890.829474 
L 515.454545 890.829474 
" style="fill: none; stroke: #000000; stroke-width: 0.8; stroke-linejoin: miter; stroke-linecap: square"/>
   </g>
   <g id="text_57">
    <!-- e -->
    <g transform="translate(89.376307 872.71352) scale(0.28 -0.28)">
     <defs>
      <path id="DejaVuSans-Bold-65" d="M 4031 1759 
L 4031 1441 
L 1416 1441 
Q 1456 1047 1700 850 
Q 1944 653 2381 653 
Q 2734 653 3104 758 
Q 3475 863 3866 1075 
L 3866 213 
Q 3469 63 3072 -14 
Q 2675 -91 2278 -91 
Q 1328 -91 801 392 
Q 275 875 275 1747 
Q 275 2603 792 3093 
Q 1309 3584 2216 3584 
Q 3041 3584 3536 3087 
Q 4031 2591 4031 1759 
z
M 2881 2131 
Q 2881 2450 2695 2645 
Q 2509 2841 2209 2841 
Q 1884 2841 1681 2658 
Q 1478 2475 1428 2131 
L 2881 2131 
z
" transform="scale(0.015625)"/>
     </defs>
     <use xlink:href="#DejaVuSans-Bold-65"/>
    </g>
   </g>
   <g id="text_58">
    <!-- $Q_{NN}$ -->
    <g transform="translate(302.787273 884.829474) scale(0.24 -0.24)">
     <use xlink:href="#DejaVuSans-Oblique-51" transform="translate(0 0.78125)"/>
     <use xlink:href="#DejaVuSans-Oblique-4e" transform="translate(78.710938 -15.625) scale(0.7)"/>
     <use xlink:href="#DejaVuSans-Oblique-4e" transform="translate(131.074219 -15.625) scale(0.7)"/>
    </g>
   </g>
  </g>
  <g id="axes_6">
   <g id="patch_39">
    <path d="M 591.545455 1153.44 
L 972 1153.44 
L 972 890.829474 
L 591.545455 890.829474 
z
" style="fill: #ffffff"/>
   </g>
   <g id="matplotlib.axis_11">
    <g id="xtick_20">
     <g id="line2d_57">
      <g>
       <use xlink:href="#m0b4472ea7d" x="608.59899" y="1153.44" style="stroke: #000000; stroke-width: 0.8"/>
      </g>
     </g>
     <g id="text_59">
      <!-- 0 -->
      <g transform="translate(601.60024 1177.156562) scale(0.22 -0.22)">
       <use xlink:href="#DejaVuSans-30"/>
      </g>
     </g>
    </g>
    <g id="xtick_21">
     <g id="line2d_58">
      <g>
       <use xlink:href="#m0b4472ea7d" x="728.525401" y="1153.44" style="stroke: #000000; stroke-width: 0.8"/>
      </g>
     </g>
     <g id="text_60">
      <!-- 500 -->
      <g transform="translate(707.529151 1177.156562) scale(0.22 -0.22)">
       <use xlink:href="#DejaVuSans-35"/>
       <use xlink:href="#DejaVuSans-30" x="63.623047"/>
       <use xlink:href="#DejaVuSans-30" x="127.246094"/>
      </g>
     </g>
    </g>
    <g id="xtick_22">
     <g id="line2d_59">
      <g>
       <use xlink:href="#m0b4472ea7d" x="848.451812" y="1153.44" style="stroke: #000000; stroke-width: 0.8"/>
      </g>
     </g>
     <g id="text_61">
      <!-- 1000 -->
      <g transform="translate(820.456812 1177.156562) scale(0.22 -0.22)">
       <use xlink:href="#DejaVuSans-31"/>
       <use xlink:href="#DejaVuSans-30" x="63.623047"/>
       <use xlink:href="#DejaVuSans-30" x="127.246094"/>
       <use xlink:href="#DejaVuSans-30" x="190.869141"/>
      </g>
     </g>
    </g>
    <g id="xtick_23">
     <g id="line2d_60">
      <g>
       <use xlink:href="#m0b4472ea7d" x="968.378222" y="1153.44" style="stroke: #000000; stroke-width: 0.8"/>
      </g>
     </g>
     <g id="text_62">
      <!-- 1500 -->
      <g transform="translate(940.383222 1177.156562) scale(0.22 -0.22)">
       <use xlink:href="#DejaVuSans-31"/>
       <use xlink:href="#DejaVuSans-35" x="63.623047"/>
       <use xlink:href="#DejaVuSans-30" x="127.246094"/>
       <use xlink:href="#DejaVuSans-30" x="190.869141"/>
      </g>
     </g>
    </g>
    <g id="text_63">
     <!-- k -->
     <g transform="translate(774.823977 1203.968125) scale(0.24 -0.24)">
      <use xlink:href="#DejaVuSans-6b"/>
     </g>
    </g>
   </g>
   <g id="matplotlib.axis_12">
    <g id="ytick_22">
     <g id="line2d_61">
      <g>
       <use xlink:href="#m284e7f510a" x="591.545455" y="1140.644243" style="stroke: #000000; stroke-width: 0.8"/>
      </g>
     </g>
     <g id="text_64">
      <!-- 0.0 -->
      <g transform="translate(549.55858 1149.002524) scale(0.22 -0.22)">
       <use xlink:href="#DejaVuSans-30"/>
       <use xlink:href="#DejaVuSans-2e" x="63.623047"/>
       <use xlink:href="#DejaVuSans-30" x="95.410156"/>
      </g>
     </g>
    </g>
    <g id="ytick_23">
     <g id="line2d_62">
      <g>
       <use xlink:href="#m284e7f510a" x="591.545455" y="1064.170064" style="stroke: #000000; stroke-width: 0.8"/>
      </g>
     </g>
     <g id="text_65">
      <!-- 0.2 -->
      <g transform="translate(549.55858 1072.528345) scale(0.22 -0.22)">
       <use xlink:href="#DejaVuSans-30"/>
       <use xlink:href="#DejaVuSans-2e" x="63.623047"/>
       <use xlink:href="#DejaVuSans-32" x="95.410156"/>
      </g>
     </g>
    </g>
    <g id="ytick_24">
     <g id="line2d_63">
      <g>
       <use xlink:href="#m284e7f510a" x="591.545455" y="987.695885" style="stroke: #000000; stroke-width: 0.8"/>
      </g>
     </g>
     <g id="text_66">
      <!-- 0.4 -->
      <g transform="translate(549.55858 996.054166) scale(0.22 -0.22)">
       <use xlink:href="#DejaVuSans-30"/>
       <use xlink:href="#DejaVuSans-2e" x="63.623047"/>
       <use xlink:href="#DejaVuSans-34" x="95.410156"/>
      </g>
     </g>
    </g>
    <g id="ytick_25">
     <g id="line2d_64">
      <g>
       <use xlink:href="#m284e7f510a" x="591.545455" y="911.221705" style="stroke: #000000; stroke-width: 0.8"/>
      </g>
     </g>
     <g id="text_67">
      <!-- 0.6 -->
      <g transform="translate(549.55858 919.579986) scale(0.22 -0.22)">
       <use xlink:href="#DejaVuSans-30"/>
       <use xlink:href="#DejaVuSans-2e" x="63.623047"/>
       <use xlink:href="#DejaVuSans-36" x="95.410156"/>
      </g>
     </g>
    </g>
   </g>
   <g id="line2d_65">
    <path d="M 608.838843 1100.394859 
L 609.078696 1083.580255 
L 609.558401 1070.870233 
L 610.038107 1064.956738 
L 610.27796 1063.475303 
L 610.517813 1063.092473 
L 611.237371 1060.435998 
L 612.436635 1055.927796 
L 612.676488 1055.397407 
L 613.156194 1053.096557 
L 613.396047 1052.443103 
L 614.115605 1048.762937 
L 614.835164 1046.960812 
L 615.314869 1044.905343 
L 615.554722 1044.390276 
L 616.514133 1041.390499 
L 616.753986 1041.303832 
L 617.473545 1039.762313 
L 617.95325 1038.567686 
L 618.432956 1037.870697 
L 619.152514 1036.995236 
L 619.872073 1036.394993 
L 621.551043 1034.969614 
L 621.790895 1034.869227 
L 622.030748 1034.933203 
L 623.469865 1034.176208 
L 624.189424 1033.909265 
L 624.669129 1033.637901 
L 624.908982 1033.288195 
L 625.388688 1033.189985 
L 625.868393 1033.196552 
L 626.348099 1033.031022 
L 626.587952 1032.753857 
L 627.547363 1032.271829 
L 628.266922 1031.810431 
L 628.746627 1031.587363 
L 629.466186 1031.054401 
L 630.185744 1030.707059 
L 632.584272 1029.150106 
L 634.023389 1028.615912 
L 636.421917 1028.46575 
L 637.861034 1028.315553 
L 638.34074 1028.364126 
L 639.060298 1028.223549 
L 639.300151 1028.297459 
L 640.259563 1028.204786 
L 641.218974 1028.086454 
L 644.816766 1027.500731 
L 648.174706 1027.62106 
L 648.654411 1027.649776 
L 649.853675 1027.530859 
L 650.093528 1027.626378 
L 651.05294 1027.424696 
L 651.532645 1027.443375 
L 652.252204 1027.436448 
L 654.171026 1027.7197 
L 655.610143 1027.890361 
L 655.849996 1027.938859 
L 656.329702 1027.852099 
L 656.569554 1027.913306 
L 657.289113 1027.802432 
L 664.244845 1028.739281 
L 667.123079 1029.027071 
L 670.001312 1029.524959 
L 671.440429 1029.798819 
L 674.318663 1030.345493 
L 675.278075 1030.512827 
L 676.477339 1030.776192 
L 679.595425 1031.428391 
L 683.672923 1032.068624 
L 686.311304 1032.737306 
L 688.709833 1033.449727 
L 699.982915 1037.046084 
L 700.462621 1037.152918 
L 704.540119 1038.525449 
L 705.49953 1038.772427 
L 710.776292 1040.263841 
L 713.414673 1041.019134 
L 714.613937 1041.378103 
L 723.728344 1043.986068 
L 724.927609 1044.313907 
L 727.805842 1045.20346 
L 732.602899 1046.584096 
L 739.078925 1048.638039 
L 741.2376 1049.367289 
L 742.91657 1049.961817 
L 744.59554 1050.519281 
L 749.392596 1051.959224 
L 753.709947 1053.505703 
L 754.429506 1053.74121 
L 758.267151 1055.190227 
L 777.695229 1062.614107 
L 779.853905 1063.404403 
L 783.211844 1064.765383 
L 792.566104 1068.904106 
L 812.953594 1079.272868 
L 816.071681 1080.905264 
L 819.42962 1082.606227 
L 824.226677 1085.017461 
L 829.743292 1087.657894 
L 834.300495 1089.952569 
L 845.093872 1095.355888 
L 848.931517 1097.356553 
L 861.643717 1104.205866 
L 866.440773 1106.904032 
L 868.119743 1107.829214 
L 875.075475 1111.305662 
L 880.112384 1113.761457 
L 885.149293 1116.204412 
L 894.263701 1120.510123 
L 898.820904 1122.683951 
L 904.097666 1125.113876 
L 928.082948 1136.493037 
L 932.160446 1137.877708 
L 935.998091 1138.54936 
L 939.595884 1139.104327 
L 941.035001 1139.330609 
L 949.669702 1140.36032 
L 952.068231 1140.55291 
L 954.706612 1140.644243 
L 954.706612 1140.644243 
" clip-path="url(#p9b4a6a9aab)" style="fill: none; stroke: #1f77b4; stroke-width: 1.5; stroke-linecap: square"/>
   </g>
   <g id="line2d_66">
    <path d="M 608.838843 915.299805 
L 609.078696 906.031996 
L 609.318549 902.766316 
L 609.558401 904.840764 
L 609.798254 904.761508 
L 610.038107 902.766866 
L 610.27796 903.309259 
L 610.517813 903.1534 
L 610.997518 907.410423 
L 611.237371 906.394739 
L 611.477224 906.408964 
L 611.95693 907.490597 
L 612.196782 907.270114 
L 612.436635 907.358564 
L 612.676488 908.106418 
L 612.916341 908.432842 
L 613.396047 908.670057 
L 613.635899 909.704851 
L 613.875752 909.935445 
L 614.355458 910.923796 
L 614.595311 912.06306 
L 614.835164 912.595288 
L 615.794575 912.921929 
L 616.034428 913.895892 
L 616.514133 914.623618 
L 617.233692 916.87296 
L 617.473545 917.13854 
L 617.713397 917.738572 
L 617.95325 917.981936 
L 618.193103 918.51766 
L 618.432956 918.76246 
L 621.31119 926.45592 
L 622.990159 934.314431 
L 624.908982 943.349725 
L 628.506774 958.809016 
L 629.706038 962.913533 
L 631.385008 968.059598 
L 640.739268 992.03513 
L 644.097208 999.175277 
L 647.695 1005.639258 
L 651.772498 1011.637394 
L 657.528966 1018.292254 
L 658.248524 1018.925495 
L 659.447788 1020.136789 
L 663.765139 1023.717475 
L 664.964403 1024.679143 
L 665.683962 1025.174016 
L 671.920135 1029.33535 
L 674.558516 1030.942416 
L 677.196897 1032.462127 
L 682.473659 1034.894333 
L 684.152629 1035.769877 
L 685.591746 1036.469372 
L 689.669244 1038.471613 
L 690.628655 1038.859738 
L 691.348214 1039.266975 
L 691.827919 1039.501745 
L 694.226447 1040.632494 
L 696.385123 1041.744294 
L 700.702474 1043.968313 
L 704.779972 1046.336184 
L 706.458941 1047.151978 
L 712.455262 1050.438592 
L 713.17482 1050.853876 
L 723.728344 1056.77314 
L 731.403635 1060.889166 
L 733.082605 1061.848534 
L 734.521721 1062.598418 
L 736.200691 1063.515897 
L 737.399955 1064.159432 
L 739.558631 1065.35361 
L 743.875981 1067.814648 
L 746.27451 1069.052495 
L 747.713627 1069.741417 
L 752.510683 1072.119565 
L 768.580822 1079.466086 
L 770.97935 1080.469614 
L 772.65832 1081.186712 
L 775.056848 1082.165756 
L 778.414788 1083.690736 
L 787.529195 1087.721437 
L 793.765368 1090.810438 
L 802.639923 1095.106717 
L 805.997862 1096.498093 
L 809.115949 1097.819635 
L 817.270945 1101.256197 
L 823.507118 1103.782502 
L 828.544027 1105.87454 
L 832.381673 1107.481901 
L 842.215638 1111.680321 
L 844.854019 1112.711055 
L 847.012695 1113.527762 
L 849.651076 1114.514945 
L 870.518271 1122.41219 
L 875.795033 1124.547556 
L 885.868852 1128.420407 
L 897.861493 1132.181392 
L 900.260021 1132.944298 
L 908.894723 1135.458711 
L 916.570013 1137.295375 
L 927.843096 1139.448306 
L 930.721329 1139.762681 
L 942.71397 1140.551997 
L 951.108819 1140.580668 
L 954.706612 1140.644243 
L 954.706612 1140.644243 
" clip-path="url(#p9b4a6a9aab)" style="fill: none; stroke: #ff7f0e; stroke-width: 1.5; stroke-linecap: square"/>
   </g>
   <g id="line2d_67">
    <path d="M 608.838843 1056.967693 
L 609.318549 990.32678 
L 609.798254 962.858582 
L 610.27796 949.687051 
L 611.237371 930.924828 
L 611.95693 921.052129 
L 612.436635 918.645655 
L 612.676488 918.16881 
L 612.916341 917.37719 
L 613.156194 917.031276 
L 613.875752 916.711913 
L 614.355458 917.080391 
L 614.835164 918.492175 
L 615.554722 918.929961 
L 615.794575 919.047631 
L 616.034428 919.935036 
L 616.27428 920.32014 
L 619.152514 934.421427 
L 619.63222 936.129386 
L 620.351778 938.708269 
L 621.790895 943.585518 
L 622.750307 947.853894 
L 627.787216 969.975599 
L 630.66545 979.573627 
L 633.303831 987.20781 
L 636.421917 996.484327 
L 638.820446 1002.507024 
L 640.01971 1004.983657 
L 640.499415 1006.03488 
L 642.418238 1009.391396 
L 644.337061 1013.052304 
L 645.056619 1014.52291 
L 649.37397 1022.230493 
L 650.573234 1023.973793 
L 652.971762 1026.903026 
L 655.849996 1029.788425 
L 663.285433 1036.048355 
L 669.281754 1040.244679 
L 672.159988 1041.747683 
L 673.119399 1042.359368 
L 678.156308 1045.237136 
L 680.554837 1046.369666 
L 689.669244 1050.798122 
L 694.4663 1053.465065 
L 695.425712 1053.865119 
L 696.624976 1054.337795 
L 697.344534 1054.576347 
L 699.743062 1055.628925 
L 702.621296 1056.930687 
L 704.300266 1057.681159 
L 705.49953 1058.160491 
L 713.414673 1061.594139 
L 714.374084 1062.118061 
L 716.53276 1063.010436 
L 718.691435 1063.944033 
L 720.370405 1064.749833 
L 727.56599 1068.655265 
L 728.285548 1069.009563 
L 729.244959 1069.480661 
L 730.204371 1069.989776 
L 735.001427 1072.263826 
L 736.440544 1073.033292 
L 747.233921 1078.203042 
L 749.152744 1079.072406 
L 752.510683 1080.708788 
L 753.470094 1081.129095 
L 755.62877 1082.108547 
L 764.98303 1086.09979 
L 767.141705 1086.986346 
L 780.813316 1092.816259 
L 783.69155 1093.996786 
L 791.36684 1097.053536 
L 792.805957 1097.644532 
L 794.72478 1098.32006 
L 795.444338 1098.536162 
L 796.403749 1098.889703 
L 800.7211 1100.37075 
L 810.794919 1104.110504 
L 823.507118 1108.897926 
L 831.662114 1112.248986 
L 835.020054 1113.789662 
L 839.337404 1115.489181 
L 841.016374 1116.068336 
L 842.935197 1116.750057 
L 850.85034 1119.554101 
L 853.728574 1120.364214 
L 861.164011 1122.235353 
L 869.798713 1124.778345 
L 873.636358 1126.370018 
L 878.91312 1128.707858 
L 880.352237 1129.333014 
L 882.750765 1130.265011 
L 890.905761 1132.521174 
L 892.105025 1132.804468 
L 900.499874 1134.856376 
L 903.138255 1135.35343 
L 918.728688 1138.167575 
L 948.470438 1140.448487 
L 954.706612 1140.644243 
L 954.706612 1140.644243 
" clip-path="url(#p9b4a6a9aab)" style="fill: none; stroke: #2ca02c; stroke-width: 1.5; stroke-linecap: square"/>
   </g>
   <g id="line2d_68">
    <path d="M 608.838843 1016.453325 
L 609.318549 985.11905 
L 609.798254 967.095378 
L 610.27796 957.441902 
L 610.517813 954.690059 
L 611.237371 942.383437 
L 611.95693 934.689319 
L 612.436635 927.847448 
L 612.916341 924.100163 
L 613.396047 920.930288 
L 614.115605 917.698554 
L 614.595311 917.073072 
L 615.075016 916.138206 
L 615.794575 915.45518 
L 616.034428 915.706781 
L 616.27428 915.727519 
L 616.753986 916.738895 
L 616.993839 917.522797 
L 617.473545 918.276463 
L 617.713397 918.97895 
L 620.111926 922.424925 
L 621.790895 927.110156 
L 622.750307 931.180484 
L 623.469865 934.000739 
L 624.908982 940.366833 
L 628.266922 954.669731 
L 630.185744 961.888536 
L 632.584272 970.793529 
L 634.023389 975.571018 
L 635.702359 981.450005 
L 636.421917 983.846985 
L 640.499415 996.085973 
L 643.857355 1004.380388 
L 645.296472 1007.285916 
L 646.735589 1010.25203 
L 647.934853 1012.275504 
L 651.05294 1017.293486 
L 651.772498 1018.413327 
L 653.451468 1021.085345 
L 654.650732 1022.904253 
L 655.849996 1024.849976 
L 657.289113 1026.919331 
L 661.126758 1031.206041 
L 662.805728 1033.37853 
L 670.241165 1042.095212 
L 671.200577 1043.225524 
L 673.119399 1045.521215 
L 675.038222 1047.691079 
L 675.997633 1048.733951 
L 677.43675 1050.384496 
L 679.595425 1052.700044 
L 682.473659 1055.541838 
L 686.311304 1058.989263 
L 692.547478 1063.971761 
L 703.580707 1071.658999 
L 712.455262 1076.838459 
L 717.971877 1080.267626 
L 722.768933 1082.92513 
L 725.167461 1084.389372 
L 726.126873 1084.875997 
L 734.281869 1088.880069 
L 735.481133 1089.305085 
L 737.160102 1089.873871 
L 738.359367 1090.35863 
L 741.717306 1091.671293 
L 743.875981 1092.387975 
L 746.034657 1093.167227 
L 751.071566 1095.295949 
L 779.614052 1109.271336 
L 782.732139 1110.520628 
L 784.890814 1111.370131 
L 787.049489 1112.189513 
L 805.038451 1118.96779 
L 806.957274 1119.566232 
L 809.355802 1120.396549 
L 813.193447 1121.559173 
L 814.632564 1121.966564 
L 819.669473 1123.392134 
L 822.307854 1124.220463 
L 823.986824 1124.819902 
L 825.665794 1125.351568 
L 827.584616 1125.820288 
L 829.743292 1126.414588 
L 832.861378 1127.341619 
L 842.455491 1129.949804 
L 852.289457 1132.371948 
L 854.208279 1132.785498 
L 861.164011 1134.32838 
L 873.396505 1136.912734 
L 879.392826 1137.927835 
L 881.311648 1138.181603 
L 884.189882 1138.520982 
L 888.26738 1138.968958 
L 890.905761 1139.217437 
L 897.381787 1139.974895 
L 902.418696 1140.459409 
L 906.016489 1140.769288 
L 908.415017 1141.08589 
L 912.492515 1141.427663 
L 914.891043 1141.483867 
L 918.728688 1141.486686 
L 921.846775 1141.484061 
L 938.636473 1141.315309 
L 950.868966 1140.691224 
L 954.706612 1140.644243 
L 954.706612 1140.644243 
" clip-path="url(#p9b4a6a9aab)" style="fill: none; stroke: #d62728; stroke-width: 1.5; stroke-linecap: square"/>
   </g>
   <g id="patch_40">
    <path d="M 591.545455 1153.44 
L 591.545455 890.829474 
" style="fill: none; stroke: #000000; stroke-width: 0.8; stroke-linejoin: miter; stroke-linecap: square"/>
   </g>
   <g id="patch_41">
    <path d="M 972 1153.44 
L 972 890.829474 
" style="fill: none; stroke: #000000; stroke-width: 0.8; stroke-linejoin: miter; stroke-linecap: square"/>
   </g>
   <g id="patch_42">
    <path d="M 591.545455 1153.44 
L 972 1153.44 
" style="fill: none; stroke: #000000; stroke-width: 0.8; stroke-linejoin: miter; stroke-linecap: square"/>
   </g>
   <g id="patch_43">
    <path d="M 591.545455 890.829474 
L 972 890.829474 
" style="fill: none; stroke: #000000; stroke-width: 0.8; stroke-linejoin: miter; stroke-linecap: square"/>
   </g>
   <g id="text_68">
    <!-- f -->
    <g transform="translate(552.733636 872.71352) scale(0.28 -0.28)">
     <defs>
      <path id="DejaVuSans-Bold-66" d="M 2841 4863 
L 2841 4128 
L 2222 4128 
Q 1984 4128 1890 4042 
Q 1797 3956 1797 3744 
L 1797 3500 
L 2753 3500 
L 2753 2700 
L 1797 2700 
L 1797 0 
L 678 0 
L 678 2700 
L 122 2700 
L 122 3500 
L 678 3500 
L 678 3744 
Q 678 4316 997 4589 
Q 1316 4863 1984 4863 
L 2841 4863 
z
" transform="scale(0.015625)"/>
     </defs>
     <use xlink:href="#DejaVuSans-Bold-66"/>
    </g>
   </g>
   <g id="text_69">
    <!-- LCMC -->
    <g transform="translate(747.973977 884.829474) scale(0.24 -0.24)">
     <defs>
      <path id="DejaVuSans-4c" d="M 628 4666 
L 1259 4666 
L 1259 531 
L 3531 531 
L 3531 0 
L 628 0 
L 628 4666 
z
" transform="scale(0.015625)"/>
     </defs>
     <use xlink:href="#DejaVuSans-4c"/>
     <use xlink:href="#DejaVuSans-43" x="55.712891"/>
     <use xlink:href="#DejaVuSans-4d" x="125.537109"/>
     <use xlink:href="#DejaVuSans-43" x="211.816406"/>
    </g>
   </g>
  </g>
 </g>
 <defs>
  <clipPath id="p417e49c7f5">
   <rect x="135" y="155.52" width="380.454545" height="262.610526"/>
  </clipPath>
  <clipPath id="p5f2e596c6d">
   <rect x="591.545455" y="155.52" width="380.454545" height="262.610526"/>
  </clipPath>
  <clipPath id="p1e72b294a7">
   <rect x="135" y="523.174737" width="380.454545" height="262.610526"/>
  </clipPath>
  <clipPath id="p7dfecff20e">
   <rect x="591.545455" y="523.174737" width="380.454545" height="262.610526"/>
  </clipPath>
  <clipPath id="p53b3302550">
   <rect x="135" y="890.829474" width="380.454545" height="262.610526"/>
  </clipPath>
  <clipPath id="p9b4a6a9aab">
   <rect x="591.545455" y="890.829474" width="380.454545" height="262.610526"/>
  </clipPath>
 </defs>
</svg>
