<?xml version="1.0" encoding="utf-8" standalone="no"?>
<!DOCTYPE svg PUBLIC "-//W3C//DTD SVG 1.1//EN"
  "http://www.w3.org/Graphics/SVG/1.1/DTD/svg11.dtd">
<svg xmlns:xlink="http://www.w3.org/1999/xlink" width="1080pt" height="1296pt" viewBox="0 0 1080 1296" xmlns="http://www.w3.org/2000/svg" version="1.1">
 <metadata>
  <rdf:RDF xmlns:dc="http://purl.org/dc/elements/1.1/" xmlns:cc="http://creativecommons.org/ns#" xmlns:rdf="http://www.w3.org/1999/02/22-rdf-syntax-ns#">
   <cc:Work>
    <dc:type rdf:resource="http://purl.org/dc/dcmitype/StillImage"/>
    <dc:date>2024-07-24T16:14:51.398059</dc:date>
    <dc:format>image/svg+xml</dc:format>
    <dc:creator>
     <cc:Agent>
      <dc:title>Matplotlib v3.8.4, https://matplotlib.org/</dc:title>
     </cc:Agent>
    </dc:creator>
   </cc:Work>
  </rdf:RDF>
 </metadata>
 <defs>
  <style type="text/css">*{stroke-linejoin: round; stroke-linecap: butt}</style>
 </defs>
 <g id="figure_1">
  <g id="patch_1">
   <path d="M 0 1296 
L 1080 1296 
L 1080 0 
L 0 0 
z
" style="fill: #ffffff"/>
  </g>
  <g id="axes_1">
   <g id="patch_2">
    <path d="M 135 418.130526 
L 515.454545 418.130526 
L 515.454545 155.52 
L 135 155.52 
z
" style="fill: #ffffff"/>
   </g>
   <g id="matplotlib.axis_1">
    <g id="xtick_1">
     <g id="line2d_1">
      <defs>
       <path id="m6c6bf6dee2" d="M 0 0 
L 0 3.5 
" style="stroke: #000000; stroke-width: 0.8"/>
      </defs>
      <g>
       <use xlink:href="#m6c6bf6dee2" x="137.882231" y="418.130526" style="stroke: #000000; stroke-width: 0.8"/>
      </g>
     </g>
     <g id="text_1">
      <!-- 0 -->
      <g transform="translate(131.519731 440.327401) scale(0.2 -0.2)">
       <defs>
        <path id="DejaVuSans-30" d="M 2034 4250 
Q 1547 4250 1301 3770 
Q 1056 3291 1056 2328 
Q 1056 1369 1301 889 
Q 1547 409 2034 409 
Q 2525 409 2770 889 
Q 3016 1369 3016 2328 
Q 3016 3291 2770 3770 
Q 2525 4250 2034 4250 
z
M 2034 4750 
Q 2819 4750 3233 4129 
Q 3647 3509 3647 2328 
Q 3647 1150 3233 529 
Q 2819 -91 2034 -91 
Q 1250 -91 836 529 
Q 422 1150 422 2328 
Q 422 3509 836 4129 
Q 1250 4750 2034 4750 
z
" transform="scale(0.015625)"/>
       </defs>
       <use xlink:href="#DejaVuSans-30"/>
      </g>
     </g>
    </g>
    <g id="xtick_2">
     <g id="line2d_2">
      <g>
       <use xlink:href="#m6c6bf6dee2" x="209.938017" y="418.130526" style="stroke: #000000; stroke-width: 0.8"/>
      </g>
     </g>
     <g id="text_2">
      <!-- 10 -->
      <g transform="translate(197.213017 440.327401) scale(0.2 -0.2)">
       <defs>
        <path id="DejaVuSans-31" d="M 794 531 
L 1825 531 
L 1825 4091 
L 703 3866 
L 703 4441 
L 1819 4666 
L 2450 4666 
L 2450 531 
L 3481 531 
L 3481 0 
L 794 0 
L 794 531 
z
" transform="scale(0.015625)"/>
       </defs>
       <use xlink:href="#DejaVuSans-31"/>
       <use xlink:href="#DejaVuSans-30" x="63.623047"/>
      </g>
     </g>
    </g>
    <g id="xtick_3">
     <g id="line2d_3">
      <g>
       <use xlink:href="#m6c6bf6dee2" x="281.993802" y="418.130526" style="stroke: #000000; stroke-width: 0.8"/>
      </g>
     </g>
     <g id="text_3">
      <!-- 20 -->
      <g transform="translate(269.268802 440.327401) scale(0.2 -0.2)">
       <defs>
        <path id="DejaVuSans-32" d="M 1228 531 
L 3431 531 
L 3431 0 
L 469 0 
L 469 531 
Q 828 903 1448 1529 
Q 2069 2156 2228 2338 
Q 2531 2678 2651 2914 
Q 2772 3150 2772 3378 
Q 2772 3750 2511 3984 
Q 2250 4219 1831 4219 
Q 1534 4219 1204 4116 
Q 875 4013 500 3803 
L 500 4441 
Q 881 4594 1212 4672 
Q 1544 4750 1819 4750 
Q 2544 4750 2975 4387 
Q 3406 4025 3406 3419 
Q 3406 3131 3298 2873 
Q 3191 2616 2906 2266 
Q 2828 2175 2409 1742 
Q 1991 1309 1228 531 
z
" transform="scale(0.015625)"/>
       </defs>
       <use xlink:href="#DejaVuSans-32"/>
       <use xlink:href="#DejaVuSans-30" x="63.623047"/>
      </g>
     </g>
    </g>
    <g id="xtick_4">
     <g id="line2d_4">
      <g>
       <use xlink:href="#m6c6bf6dee2" x="354.049587" y="418.130526" style="stroke: #000000; stroke-width: 0.8"/>
      </g>
     </g>
     <g id="text_4">
      <!-- 30 -->
      <g transform="translate(341.324587 440.327401) scale(0.2 -0.2)">
       <defs>
        <path id="DejaVuSans-33" d="M 2597 2516 
Q 3050 2419 3304 2112 
Q 3559 1806 3559 1356 
Q 3559 666 3084 287 
Q 2609 -91 1734 -91 
Q 1441 -91 1130 -33 
Q 819 25 488 141 
L 488 750 
Q 750 597 1062 519 
Q 1375 441 1716 441 
Q 2309 441 2620 675 
Q 2931 909 2931 1356 
Q 2931 1769 2642 2001 
Q 2353 2234 1838 2234 
L 1294 2234 
L 1294 2753 
L 1863 2753 
Q 2328 2753 2575 2939 
Q 2822 3125 2822 3475 
Q 2822 3834 2567 4026 
Q 2313 4219 1838 4219 
Q 1578 4219 1281 4162 
Q 984 4106 628 3988 
L 628 4550 
Q 988 4650 1302 4700 
Q 1616 4750 1894 4750 
Q 2613 4750 3031 4423 
Q 3450 4097 3450 3541 
Q 3450 3153 3228 2886 
Q 3006 2619 2597 2516 
z
" transform="scale(0.015625)"/>
       </defs>
       <use xlink:href="#DejaVuSans-33"/>
       <use xlink:href="#DejaVuSans-30" x="63.623047"/>
      </g>
     </g>
    </g>
    <g id="xtick_5">
     <g id="line2d_5">
      <g>
       <use xlink:href="#m6c6bf6dee2" x="426.105372" y="418.130526" style="stroke: #000000; stroke-width: 0.8"/>
      </g>
     </g>
     <g id="text_5">
      <!-- 40 -->
      <g transform="translate(413.380372 440.327401) scale(0.2 -0.2)">
       <defs>
        <path id="DejaVuSans-34" d="M 2419 4116 
L 825 1625 
L 2419 1625 
L 2419 4116 
z
M 2253 4666 
L 3047 4666 
L 3047 1625 
L 3713 1625 
L 3713 1100 
L 3047 1100 
L 3047 0 
L 2419 0 
L 2419 1100 
L 313 1100 
L 313 1709 
L 2253 4666 
z
" transform="scale(0.015625)"/>
       </defs>
       <use xlink:href="#DejaVuSans-34"/>
       <use xlink:href="#DejaVuSans-30" x="63.623047"/>
      </g>
     </g>
    </g>
    <g id="xtick_6">
     <g id="line2d_6">
      <g>
       <use xlink:href="#m6c6bf6dee2" x="498.161157" y="418.130526" style="stroke: #000000; stroke-width: 0.8"/>
      </g>
     </g>
     <g id="text_6">
      <!-- 50 -->
      <g transform="translate(485.436157 440.327401) scale(0.2 -0.2)">
       <defs>
        <path id="DejaVuSans-35" d="M 691 4666 
L 3169 4666 
L 3169 4134 
L 1269 4134 
L 1269 2991 
Q 1406 3038 1543 3061 
Q 1681 3084 1819 3084 
Q 2600 3084 3056 2656 
Q 3513 2228 3513 1497 
Q 3513 744 3044 326 
Q 2575 -91 1722 -91 
Q 1428 -91 1123 -41 
Q 819 9 494 109 
L 494 744 
Q 775 591 1075 516 
Q 1375 441 1709 441 
Q 2250 441 2565 725 
Q 2881 1009 2881 1497 
Q 2881 1984 2565 2268 
Q 2250 2553 1709 2553 
Q 1456 2553 1204 2497 
Q 953 2441 691 2322 
L 691 4666 
z
" transform="scale(0.015625)"/>
       </defs>
       <use xlink:href="#DejaVuSans-35"/>
       <use xlink:href="#DejaVuSans-30" x="63.623047"/>
      </g>
     </g>
    </g>
    <g id="text_7">
     <!-- k -->
     <g transform="translate(318.278523 466.723026) scale(0.24 -0.24)">
      <defs>
       <path id="DejaVuSans-6b" d="M 581 4863 
L 1159 4863 
L 1159 1991 
L 2875 3500 
L 3609 3500 
L 1753 1863 
L 3688 0 
L 2938 0 
L 1159 1709 
L 1159 0 
L 581 0 
L 581 4863 
z
" transform="scale(0.015625)"/>
      </defs>
      <use xlink:href="#DejaVuSans-6b"/>
     </g>
    </g>
   </g>
   <g id="matplotlib.axis_2">
    <g id="ytick_1">
     <g id="line2d_7">
      <defs>
       <path id="m78df0046e0" d="M 0 0 
L -3.5 0 
" style="stroke: #000000; stroke-width: 0.8"/>
      </defs>
      <g>
       <use xlink:href="#m78df0046e0" x="135" y="418.130526" style="stroke: #000000; stroke-width: 0.8"/>
      </g>
     </g>
     <g id="text_8">
      <!-- 0.0 -->
      <g transform="translate(96.19375 425.728964) scale(0.2 -0.2)">
       <defs>
        <path id="DejaVuSans-2e" d="M 684 794 
L 1344 794 
L 1344 0 
L 684 0 
L 684 794 
z
" transform="scale(0.015625)"/>
       </defs>
       <use xlink:href="#DejaVuSans-30"/>
       <use xlink:href="#DejaVuSans-2e" x="63.623047"/>
       <use xlink:href="#DejaVuSans-30" x="95.410156"/>
      </g>
     </g>
    </g>
    <g id="ytick_2">
     <g id="line2d_8">
      <g>
       <use xlink:href="#m78df0046e0" x="135" y="352.477895" style="stroke: #000000; stroke-width: 0.8"/>
      </g>
     </g>
     <g id="text_9">
      <!-- 0.2 -->
      <g transform="translate(96.19375 360.076332) scale(0.2 -0.2)">
       <use xlink:href="#DejaVuSans-30"/>
       <use xlink:href="#DejaVuSans-2e" x="63.623047"/>
       <use xlink:href="#DejaVuSans-32" x="95.410156"/>
      </g>
     </g>
    </g>
    <g id="ytick_3">
     <g id="line2d_9">
      <g>
       <use xlink:href="#m78df0046e0" x="135" y="286.825263" style="stroke: #000000; stroke-width: 0.8"/>
      </g>
     </g>
     <g id="text_10">
      <!-- 0.4 -->
      <g transform="translate(96.19375 294.423701) scale(0.2 -0.2)">
       <use xlink:href="#DejaVuSans-30"/>
       <use xlink:href="#DejaVuSans-2e" x="63.623047"/>
       <use xlink:href="#DejaVuSans-34" x="95.410156"/>
      </g>
     </g>
    </g>
    <g id="ytick_4">
     <g id="line2d_10">
      <g>
       <use xlink:href="#m78df0046e0" x="135" y="221.172632" style="stroke: #000000; stroke-width: 0.8"/>
      </g>
     </g>
     <g id="text_11">
      <!-- 0.6 -->
      <g transform="translate(96.19375 228.771069) scale(0.2 -0.2)">
       <defs>
        <path id="DejaVuSans-36" d="M 2113 2584 
Q 1688 2584 1439 2293 
Q 1191 2003 1191 1497 
Q 1191 994 1439 701 
Q 1688 409 2113 409 
Q 2538 409 2786 701 
Q 3034 994 3034 1497 
Q 3034 2003 2786 2293 
Q 2538 2584 2113 2584 
z
M 3366 4563 
L 3366 3988 
Q 3128 4100 2886 4159 
Q 2644 4219 2406 4219 
Q 1781 4219 1451 3797 
Q 1122 3375 1075 2522 
Q 1259 2794 1537 2939 
Q 1816 3084 2150 3084 
Q 2853 3084 3261 2657 
Q 3669 2231 3669 1497 
Q 3669 778 3244 343 
Q 2819 -91 2113 -91 
Q 1303 -91 875 529 
Q 447 1150 447 2328 
Q 447 3434 972 4092 
Q 1497 4750 2381 4750 
Q 2619 4750 2861 4703 
Q 3103 4656 3366 4563 
z
" transform="scale(0.015625)"/>
       </defs>
       <use xlink:href="#DejaVuSans-30"/>
       <use xlink:href="#DejaVuSans-2e" x="63.623047"/>
       <use xlink:href="#DejaVuSans-36" x="95.410156"/>
      </g>
     </g>
    </g>
    <g id="ytick_5">
     <g id="line2d_11">
      <g>
       <use xlink:href="#m78df0046e0" x="135" y="155.52" style="stroke: #000000; stroke-width: 0.8"/>
      </g>
     </g>
     <g id="text_12">
      <!-- 0.8 -->
      <g transform="translate(96.19375 163.118438) scale(0.2 -0.2)">
       <defs>
        <path id="DejaVuSans-38" d="M 2034 2216 
Q 1584 2216 1326 1975 
Q 1069 1734 1069 1313 
Q 1069 891 1326 650 
Q 1584 409 2034 409 
Q 2484 409 2743 651 
Q 3003 894 3003 1313 
Q 3003 1734 2745 1975 
Q 2488 2216 2034 2216 
z
M 1403 2484 
Q 997 2584 770 2862 
Q 544 3141 544 3541 
Q 544 4100 942 4425 
Q 1341 4750 2034 4750 
Q 2731 4750 3128 4425 
Q 3525 4100 3525 3541 
Q 3525 3141 3298 2862 
Q 3072 2584 2669 2484 
Q 3125 2378 3379 2068 
Q 3634 1759 3634 1313 
Q 3634 634 3220 271 
Q 2806 -91 2034 -91 
Q 1263 -91 848 271 
Q 434 634 434 1313 
Q 434 1759 690 2068 
Q 947 2378 1403 2484 
z
M 1172 3481 
Q 1172 3119 1398 2916 
Q 1625 2713 2034 2713 
Q 2441 2713 2670 2916 
Q 2900 3119 2900 3481 
Q 2900 3844 2670 4047 
Q 2441 4250 2034 4250 
Q 1625 4250 1398 4047 
Q 1172 3844 1172 3481 
z
" transform="scale(0.015625)"/>
       </defs>
       <use xlink:href="#DejaVuSans-30"/>
       <use xlink:href="#DejaVuSans-2e" x="63.623047"/>
       <use xlink:href="#DejaVuSans-38" x="95.410156"/>
      </g>
     </g>
    </g>
    <g id="text_13">
     <!-- $P_{NN}$ -->
     <g transform="translate(87.2025 306.985263) rotate(-90) scale(0.24 -0.24)">
      <defs>
       <path id="DejaVuSans-Oblique-50" d="M 1081 4666 
L 2541 4666 
Q 3178 4666 3512 4369 
Q 3847 4072 3847 3500 
Q 3847 2731 3353 2303 
Q 2859 1875 1966 1875 
L 1172 1875 
L 806 0 
L 172 0 
L 1081 4666 
z
M 1613 4147 
L 1275 2394 
L 2069 2394 
Q 2606 2394 2893 2669 
Q 3181 2944 3181 3456 
Q 3181 3784 2986 3965 
Q 2791 4147 2438 4147 
L 1613 4147 
z
" transform="scale(0.015625)"/>
       <path id="DejaVuSans-Oblique-4e" d="M 1081 4666 
L 1931 4666 
L 3219 666 
L 4000 4666 
L 4616 4666 
L 3706 0 
L 2853 0 
L 1569 4025 
L 788 0 
L 172 0 
L 1081 4666 
z
" transform="scale(0.015625)"/>
      </defs>
      <use xlink:href="#DejaVuSans-Oblique-50" transform="translate(0 0.09375)"/>
      <use xlink:href="#DejaVuSans-Oblique-4e" transform="translate(60.302734 -16.3125) scale(0.7)"/>
      <use xlink:href="#DejaVuSans-Oblique-4e" transform="translate(112.666016 -16.3125) scale(0.7)"/>
     </g>
    </g>
   </g>
   <g id="line2d_12">
    <path d="M 152.293388 389.003814 
L 173.910124 372.835934 
L 209.938017 361.10349 
L 281.993802 352.314376 
L 498.161157 343.778717 
" clip-path="url(#p97055b9d05)" style="fill: none; stroke: #1f77b4; stroke-width: 1.5; stroke-linecap: square"/>
    <defs>
     <path id="m86eaa81dc8" d="M 0 3 
C 0.795609 3 1.55874 2.683901 2.12132 2.12132 
C 2.683901 1.55874 3 0.795609 3 0 
C 3 -0.795609 2.683901 -1.55874 2.12132 -2.12132 
C 1.55874 -2.683901 0.795609 -3 0 -3 
C -0.795609 -3 -1.55874 -2.683901 -2.12132 -2.12132 
C -2.683901 -1.55874 -3 -0.795609 -3 0 
C -3 0.795609 -2.683901 1.55874 -2.12132 2.12132 
C -1.55874 2.683901 -0.795609 3 0 3 
z
" style="stroke: #1f77b4"/>
    </defs>
    <g clip-path="url(#p97055b9d05)">
     <use xlink:href="#m86eaa81dc8" x="152.293388" y="389.003814" style="fill: #1f77b4; stroke: #1f77b4"/>
     <use xlink:href="#m86eaa81dc8" x="173.910124" y="372.835934" style="fill: #1f77b4; stroke: #1f77b4"/>
     <use xlink:href="#m86eaa81dc8" x="209.938017" y="361.10349" style="fill: #1f77b4; stroke: #1f77b4"/>
     <use xlink:href="#m86eaa81dc8" x="281.993802" y="352.314376" style="fill: #1f77b4; stroke: #1f77b4"/>
     <use xlink:href="#m86eaa81dc8" x="498.161157" y="343.778717" style="fill: #1f77b4; stroke: #1f77b4"/>
    </g>
   </g>
   <g id="line2d_13">
    <path d="M 152.293388 294.980743 
L 173.910124 262.992459 
L 209.938017 245.209834 
L 281.993802 254.469063 
L 498.161157 302.551644 
" clip-path="url(#p97055b9d05)" style="fill: none; stroke: #ff7f0e; stroke-width: 1.5; stroke-linecap: square"/>
    <defs>
     <path id="mbc73560656" d="M 0 3 
C 0.795609 3 1.55874 2.683901 2.12132 2.12132 
C 2.683901 1.55874 3 0.795609 3 0 
C 3 -0.795609 2.683901 -1.55874 2.12132 -2.12132 
C 1.55874 -2.683901 0.795609 -3 0 -3 
C -0.795609 -3 -1.55874 -2.683901 -2.12132 -2.12132 
C -2.683901 -1.55874 -3 -0.795609 -3 0 
C -3 0.795609 -2.683901 1.55874 -2.12132 2.12132 
C -1.55874 2.683901 -0.795609 3 0 3 
z
" style="stroke: #ff7f0e"/>
    </defs>
    <g clip-path="url(#p97055b9d05)">
     <use xlink:href="#mbc73560656" x="152.293388" y="294.980743" style="fill: #ff7f0e; stroke: #ff7f0e"/>
     <use xlink:href="#mbc73560656" x="173.910124" y="262.992459" style="fill: #ff7f0e; stroke: #ff7f0e"/>
     <use xlink:href="#mbc73560656" x="209.938017" y="245.209834" style="fill: #ff7f0e; stroke: #ff7f0e"/>
     <use xlink:href="#mbc73560656" x="281.993802" y="254.469063" style="fill: #ff7f0e; stroke: #ff7f0e"/>
     <use xlink:href="#mbc73560656" x="498.161157" y="302.551644" style="fill: #ff7f0e; stroke: #ff7f0e"/>
    </g>
   </g>
   <g id="line2d_14">
    <path d="M 152.293388 328.399813 
L 173.910124 282.819063 
L 209.938017 255.041377 
L 281.993802 259.79363 
L 498.161157 308.663143 
" clip-path="url(#p97055b9d05)" style="fill: none; stroke: #2ca02c; stroke-width: 1.5; stroke-linecap: square"/>
    <defs>
     <path id="m642282544b" d="M 0 3 
C 0.795609 3 1.55874 2.683901 2.12132 2.12132 
C 2.683901 1.55874 3 0.795609 3 0 
C 3 -0.795609 2.683901 -1.55874 2.12132 -2.12132 
C 1.55874 -2.683901 0.795609 -3 0 -3 
C -0.795609 -3 -1.55874 -2.683901 -2.12132 -2.12132 
C -2.683901 -1.55874 -3 -0.795609 -3 0 
C -3 0.795609 -2.683901 1.55874 -2.12132 2.12132 
C -1.55874 2.683901 -0.795609 3 0 3 
z
" style="stroke: #2ca02c"/>
    </defs>
    <g clip-path="url(#p97055b9d05)">
     <use xlink:href="#m642282544b" x="152.293388" y="328.399813" style="fill: #2ca02c; stroke: #2ca02c"/>
     <use xlink:href="#m642282544b" x="173.910124" y="282.819063" style="fill: #2ca02c; stroke: #2ca02c"/>
     <use xlink:href="#m642282544b" x="209.938017" y="255.041377" style="fill: #2ca02c; stroke: #2ca02c"/>
     <use xlink:href="#m642282544b" x="281.993802" y="259.79363" style="fill: #2ca02c; stroke: #2ca02c"/>
     <use xlink:href="#m642282544b" x="498.161157" y="308.663143" style="fill: #2ca02c; stroke: #2ca02c"/>
    </g>
   </g>
   <g id="line2d_15">
    <path d="M 152.293388 317.668919 
L 173.910124 278.894621 
L 209.938017 251.811889 
L 281.993802 249.399993 
L 498.161157 294.0446 
" clip-path="url(#p97055b9d05)" style="fill: none; stroke: #d62728; stroke-width: 1.5; stroke-linecap: square"/>
    <defs>
     <path id="md1a1d53553" d="M 0 3 
C 0.795609 3 1.55874 2.683901 2.12132 2.12132 
C 2.683901 1.55874 3 0.795609 3 0 
C 3 -0.795609 2.683901 -1.55874 2.12132 -2.12132 
C 1.55874 -2.683901 0.795609 -3 0 -3 
C -0.795609 -3 -1.55874 -2.683901 -2.12132 -2.12132 
C -2.683901 -1.55874 -3 -0.795609 -3 0 
C -3 0.795609 -2.683901 1.55874 -2.12132 2.12132 
C -1.55874 2.683901 -0.795609 3 0 3 
z
" style="stroke: #d62728"/>
    </defs>
    <g clip-path="url(#p97055b9d05)">
     <use xlink:href="#md1a1d53553" x="152.293388" y="317.668919" style="fill: #d62728; stroke: #d62728"/>
     <use xlink:href="#md1a1d53553" x="173.910124" y="278.894621" style="fill: #d62728; stroke: #d62728"/>
     <use xlink:href="#md1a1d53553" x="209.938017" y="251.811889" style="fill: #d62728; stroke: #d62728"/>
     <use xlink:href="#md1a1d53553" x="281.993802" y="249.399993" style="fill: #d62728; stroke: #d62728"/>
     <use xlink:href="#md1a1d53553" x="498.161157" y="294.0446" style="fill: #d62728; stroke: #d62728"/>
    </g>
   </g>
   <g id="patch_3">
    <path d="M 135 418.130526 
L 135 155.52 
" style="fill: none; stroke: #000000; stroke-width: 0.8; stroke-linejoin: miter; stroke-linecap: square"/>
   </g>
   <g id="patch_4">
    <path d="M 515.454545 418.130526 
L 515.454545 155.52 
" style="fill: none; stroke: #000000; stroke-width: 0.8; stroke-linejoin: miter; stroke-linecap: square"/>
   </g>
   <g id="patch_5">
    <path d="M 135 418.130526 
L 515.454545 418.130526 
" style="fill: none; stroke: #000000; stroke-width: 0.8; stroke-linejoin: miter; stroke-linecap: square"/>
   </g>
   <g id="patch_6">
    <path d="M 135 155.52 
L 515.454545 155.52 
" style="fill: none; stroke: #000000; stroke-width: 0.8; stroke-linejoin: miter; stroke-linecap: square"/>
   </g>
   <g id="text_14">
    <!-- a -->
    <g transform="translate(89.472557 137.404046) scale(0.28 -0.28)">
     <defs>
      <path id="DejaVuSans-Bold-61" d="M 2106 1575 
Q 1756 1575 1579 1456 
Q 1403 1338 1403 1106 
Q 1403 894 1545 773 
Q 1688 653 1941 653 
Q 2256 653 2472 879 
Q 2688 1106 2688 1447 
L 2688 1575 
L 2106 1575 
z
M 3816 1997 
L 3816 0 
L 2688 0 
L 2688 519 
Q 2463 200 2181 54 
Q 1900 -91 1497 -91 
Q 953 -91 614 226 
Q 275 544 275 1050 
Q 275 1666 698 1953 
Q 1122 2241 2028 2241 
L 2688 2241 
L 2688 2328 
Q 2688 2594 2478 2717 
Q 2269 2841 1825 2841 
Q 1466 2841 1156 2769 
Q 847 2697 581 2553 
L 581 3406 
Q 941 3494 1303 3539 
Q 1666 3584 2028 3584 
Q 2975 3584 3395 3211 
Q 3816 2838 3816 1997 
z
" transform="scale(0.015625)"/>
     </defs>
     <use xlink:href="#DejaVuSans-Bold-61"/>
    </g>
   </g>
   <g id="text_15">
    <!-- $P_{NN}$ -->
    <g transform="translate(303.387273 149.52) scale(0.26 -0.26)">
     <use xlink:href="#DejaVuSans-Oblique-50" transform="translate(0 0.09375)"/>
     <use xlink:href="#DejaVuSans-Oblique-4e" transform="translate(60.302734 -16.3125) scale(0.7)"/>
     <use xlink:href="#DejaVuSans-Oblique-4e" transform="translate(112.666016 -16.3125) scale(0.7)"/>
    </g>
   </g>
  </g>
  <g id="axes_2">
   <g id="patch_7">
    <path d="M 591.545455 418.130526 
L 972 418.130526 
L 972 155.52 
L 591.545455 155.52 
z
" style="fill: #ffffff"/>
   </g>
   <g id="patch_8">
    <path d="M 608.838843 418.130526 
L 628.792753 418.130526 
L 628.792753 175.384577 
L 608.838843 175.384577 
z
" clip-path="url(#p01898876b0)" style="fill: #1f77b4"/>
   </g>
   <g id="patch_9">
    <path d="M 741.864908 418.130526 
L 761.818818 418.130526 
L 761.818818 330.743968 
L 741.864908 330.743968 
z
" clip-path="url(#p01898876b0)" style="fill: #1f77b4"/>
   </g>
   <g id="patch_10">
    <path d="M 874.890973 418.130526 
L 894.844882 418.130526 
L 894.844882 168.025263 
L 874.890973 168.025263 
z
" clip-path="url(#p01898876b0)" style="fill: #1f77b4"/>
   </g>
   <g id="patch_11">
    <path d="M 628.792753 418.130526 
L 648.746662 418.130526 
L 648.746662 171.349647 
L 628.792753 171.349647 
z
" clip-path="url(#p01898876b0)" style="fill: #ff7f0e"/>
   </g>
   <g id="patch_12">
    <path d="M 761.818818 418.130526 
L 781.772727 418.130526 
L 781.772727 220.027849 
L 761.818818 220.027849 
z
" clip-path="url(#p01898876b0)" style="fill: #ff7f0e"/>
   </g>
   <g id="patch_13">
    <path d="M 894.844882 418.130526 
L 914.798792 418.130526 
L 914.798792 170.951436 
L 894.844882 170.951436 
z
" clip-path="url(#p01898876b0)" style="fill: #ff7f0e"/>
   </g>
   <g id="patch_14">
    <path d="M 648.746662 418.130526 
L 668.700572 418.130526 
L 668.700572 174.651797 
L 648.746662 174.651797 
z
" clip-path="url(#p01898876b0)" style="fill: #2ca02c"/>
   </g>
   <g id="patch_15">
    <path d="M 781.772727 418.130526 
L 801.726637 418.130526 
L 801.726637 239.708332 
L 781.772727 239.708332 
z
" clip-path="url(#p01898876b0)" style="fill: #2ca02c"/>
   </g>
   <g id="patch_16">
    <path d="M 914.798792 418.130526 
L 934.752702 418.130526 
L 934.752702 174.055821 
L 914.798792 174.055821 
z
" clip-path="url(#p01898876b0)" style="fill: #2ca02c"/>
   </g>
   <g id="patch_17">
    <path d="M 668.700572 418.130526 
L 688.654482 418.130526 
L 688.654482 174.20707 
L 668.700572 174.20707 
z
" clip-path="url(#p01898876b0)" style="fill: #d62728"/>
   </g>
   <g id="patch_18">
    <path d="M 801.726637 418.130526 
L 821.680547 418.130526 
L 821.680547 230.438794 
L 801.726637 230.438794 
z
" clip-path="url(#p01898876b0)" style="fill: #d62728"/>
   </g>
   <g id="patch_19">
    <path d="M 934.752702 418.130526 
L 954.706612 418.130526 
L 954.706612 173.647728 
L 934.752702 173.647728 
z
" clip-path="url(#p01898876b0)" style="fill: #d62728"/>
   </g>
   <g id="matplotlib.axis_3">
    <g id="xtick_7">
     <g id="line2d_16">
      <g>
       <use xlink:href="#m6c6bf6dee2" x="648.746662" y="418.130526" style="stroke: #000000; stroke-width: 0.8"/>
      </g>
     </g>
     <g id="text_16">
      <!-- AUC -->
      <g transform="translate(625.490256 441.847089) scale(0.22 -0.22)">
       <defs>
        <path id="DejaVuSans-41" d="M 2188 4044 
L 1331 1722 
L 3047 1722 
L 2188 4044 
z
M 1831 4666 
L 2547 4666 
L 4325 0 
L 3669 0 
L 3244 1197 
L 1141 1197 
L 716 0 
L 50 0 
L 1831 4666 
z
" transform="scale(0.015625)"/>
        <path id="DejaVuSans-55" d="M 556 4666 
L 1191 4666 
L 1191 1831 
Q 1191 1081 1462 751 
Q 1734 422 2344 422 
Q 2950 422 3222 751 
Q 3494 1081 3494 1831 
L 3494 4666 
L 4128 4666 
L 4128 1753 
Q 4128 841 3676 375 
Q 3225 -91 2344 -91 
Q 1459 -91 1007 375 
Q 556 841 556 1753 
L 556 4666 
z
" transform="scale(0.015625)"/>
        <path id="DejaVuSans-43" d="M 4122 4306 
L 4122 3641 
Q 3803 3938 3442 4084 
Q 3081 4231 2675 4231 
Q 1875 4231 1450 3742 
Q 1025 3253 1025 2328 
Q 1025 1406 1450 917 
Q 1875 428 2675 428 
Q 3081 428 3442 575 
Q 3803 722 4122 1019 
L 4122 359 
Q 3791 134 3420 21 
Q 3050 -91 2638 -91 
Q 1578 -91 968 557 
Q 359 1206 359 2328 
Q 359 3453 968 4101 
Q 1578 4750 2638 4750 
Q 3056 4750 3426 4639 
Q 3797 4528 4122 4306 
z
" transform="scale(0.015625)"/>
       </defs>
       <use xlink:href="#DejaVuSans-41"/>
       <use xlink:href="#DejaVuSans-55" x="68.408203"/>
       <use xlink:href="#DejaVuSans-43" x="141.601562"/>
      </g>
     </g>
    </g>
    <g id="xtick_8">
     <g id="line2d_17">
      <g>
       <use xlink:href="#m6c6bf6dee2" x="781.772727" y="418.130526" style="stroke: #000000; stroke-width: 0.8"/>
      </g>
     </g>
     <g id="text_17">
      <!-- $Q_{local}$ -->
      <g transform="translate(754.822727 441.847089) scale(0.22 -0.22)">
       <defs>
        <path id="DejaVuSans-Oblique-51" d="M 2309 -84 
Q 2275 -88 2237 -89 
Q 2200 -91 2125 -91 
Q 1250 -91 756 411 
Q 263 913 263 1797 
Q 263 2319 452 2844 
Q 641 3369 978 3788 
Q 1369 4269 1858 4509 
Q 2347 4750 2938 4750 
Q 3794 4750 4287 4245 
Q 4781 3741 4781 2869 
Q 4781 1928 4265 1147 
Q 3750 366 2919 44 
L 3553 -825 
L 2847 -825 
L 2309 -84 
z
M 2919 4238 
Q 2400 4238 2003 3986 
Q 1606 3734 1313 3219 
Q 1125 2891 1026 2522 
Q 928 2153 928 1778 
Q 928 1128 1239 775 
Q 1550 422 2119 422 
Q 2631 422 3032 676 
Q 3434 931 3719 1434 
Q 3909 1772 4009 2142 
Q 4109 2513 4109 2881 
Q 4109 3528 3796 3883 
Q 3484 4238 2919 4238 
z
" transform="scale(0.015625)"/>
        <path id="DejaVuSans-Oblique-6c" d="M 1172 4863 
L 1747 4863 
L 800 0 
L 225 0 
L 1172 4863 
z
" transform="scale(0.015625)"/>
        <path id="DejaVuSans-Oblique-6f" d="M 1625 -91 
Q 1009 -91 651 289 
Q 294 669 294 1325 
Q 294 1706 417 2101 
Q 541 2497 738 2766 
Q 1047 3184 1428 3384 
Q 1809 3584 2291 3584 
Q 2888 3584 3255 3212 
Q 3622 2841 3622 2241 
Q 3622 1825 3500 1412 
Q 3378 1000 3181 728 
Q 2875 309 2494 109 
Q 2113 -91 1625 -91 
z
M 891 1344 
Q 891 869 1089 633 
Q 1288 397 1691 397 
Q 2269 397 2648 901 
Q 3028 1406 3028 2181 
Q 3028 2634 2825 2865 
Q 2622 3097 2228 3097 
Q 1903 3097 1650 2945 
Q 1397 2794 1197 2484 
Q 1050 2253 970 1956 
Q 891 1659 891 1344 
z
" transform="scale(0.015625)"/>
        <path id="DejaVuSans-Oblique-63" d="M 3431 3366 
L 3316 2797 
Q 3109 2947 2876 3022 
Q 2644 3097 2394 3097 
Q 2119 3097 1870 3000 
Q 1622 2903 1453 2725 
Q 1184 2453 1037 2087 
Q 891 1722 891 1331 
Q 891 859 1127 628 
Q 1363 397 1844 397 
Q 2081 397 2348 469 
Q 2616 541 2906 684 
L 2797 116 
Q 2547 13 2283 -39 
Q 2019 -91 1741 -91 
Q 1044 -91 669 257 
Q 294 606 294 1253 
Q 294 1797 489 2255 
Q 684 2713 1069 3078 
Q 1331 3328 1684 3456 
Q 2038 3584 2456 3584 
Q 2700 3584 2940 3529 
Q 3181 3475 3431 3366 
z
" transform="scale(0.015625)"/>
        <path id="DejaVuSans-Oblique-61" d="M 3438 1997 
L 3047 0 
L 2472 0 
L 2578 531 
Q 2325 219 2001 64 
Q 1678 -91 1281 -91 
Q 834 -91 548 182 
Q 263 456 263 884 
Q 263 1497 752 1853 
Q 1241 2209 2100 2209 
L 2900 2209 
L 2931 2363 
Q 2938 2388 2941 2417 
Q 2944 2447 2944 2509 
Q 2944 2788 2717 2942 
Q 2491 3097 2081 3097 
Q 1800 3097 1504 3025 
Q 1209 2953 897 2809 
L 997 3341 
Q 1322 3463 1633 3523 
Q 1944 3584 2234 3584 
Q 2853 3584 3176 3315 
Q 3500 3047 3500 2534 
Q 3500 2431 3484 2292 
Q 3469 2153 3438 1997 
z
M 2816 1759 
L 2241 1759 
Q 1534 1759 1195 1570 
Q 856 1381 856 984 
Q 856 709 1029 553 
Q 1203 397 1509 397 
Q 1978 397 2328 733 
Q 2678 1069 2791 1631 
L 2816 1759 
z
" transform="scale(0.015625)"/>
       </defs>
       <use xlink:href="#DejaVuSans-Oblique-51" transform="translate(0 0.78125)"/>
       <use xlink:href="#DejaVuSans-Oblique-6c" transform="translate(78.710938 -15.625) scale(0.7)"/>
       <use xlink:href="#DejaVuSans-Oblique-6f" transform="translate(98.15918 -15.625) scale(0.7)"/>
       <use xlink:href="#DejaVuSans-Oblique-63" transform="translate(140.986328 -15.625) scale(0.7)"/>
       <use xlink:href="#DejaVuSans-Oblique-61" transform="translate(179.472656 -15.625) scale(0.7)"/>
       <use xlink:href="#DejaVuSans-Oblique-6c" transform="translate(222.368164 -15.625) scale(0.7)"/>
      </g>
     </g>
    </g>
    <g id="xtick_9">
     <g id="line2d_18">
      <g>
       <use xlink:href="#m6c6bf6dee2" x="914.798792" y="418.130526" style="stroke: #000000; stroke-width: 0.8"/>
      </g>
     </g>
     <g id="text_18">
      <!-- $Q_{global}$ -->
      <g transform="translate(882.348792 441.630526) scale(0.22 -0.22)">
       <defs>
        <path id="DejaVuSans-Oblique-67" d="M 3816 3500 
L 3219 434 
Q 3047 -456 2561 -893 
Q 2075 -1331 1253 -1331 
Q 950 -1331 690 -1286 
Q 431 -1241 206 -1147 
L 313 -588 
Q 525 -725 762 -790 
Q 1000 -856 1269 -856 
Q 1816 -856 2167 -557 
Q 2519 -259 2631 300 
L 2681 563 
Q 2441 288 2122 144 
Q 1803 0 1434 0 
Q 903 0 598 351 
Q 294 703 294 1319 
Q 294 1803 478 2267 
Q 663 2731 997 3091 
Q 1219 3328 1514 3456 
Q 1809 3584 2131 3584 
Q 2484 3584 2746 3420 
Q 3009 3256 3138 2956 
L 3238 3500 
L 3816 3500 
z
M 2950 2216 
Q 2950 2641 2750 2872 
Q 2550 3103 2181 3103 
Q 1953 3103 1747 3012 
Q 1541 2922 1394 2759 
Q 1156 2491 1023 2127 
Q 891 1763 891 1375 
Q 891 944 1092 712 
Q 1294 481 1672 481 
Q 2219 481 2584 976 
Q 2950 1472 2950 2216 
z
" transform="scale(0.015625)"/>
        <path id="DejaVuSans-Oblique-62" d="M 3169 2138 
Q 3169 2591 2961 2847 
Q 2753 3103 2388 3103 
Q 2122 3103 1889 2973 
Q 1656 2844 1484 2597 
Q 1303 2338 1198 1995 
Q 1094 1653 1094 1313 
Q 1094 881 1298 636 
Q 1503 391 1863 391 
Q 2134 391 2365 517 
Q 2597 644 2772 891 
Q 2950 1147 3059 1487 
Q 3169 1828 3169 2138 
z
M 1381 2969 
Q 1594 3256 1914 3420 
Q 2234 3584 2584 3584 
Q 3122 3584 3439 3221 
Q 3756 2859 3756 2241 
Q 3756 1734 3570 1259 
Q 3384 784 3041 416 
Q 2816 172 2522 40 
Q 2228 -91 1906 -91 
Q 1566 -91 1316 65 
Q 1066 222 909 531 
L 806 0 
L 231 0 
L 1178 4863 
L 1753 4863 
L 1381 2969 
z
" transform="scale(0.015625)"/>
       </defs>
       <use xlink:href="#DejaVuSans-Oblique-51" transform="translate(0 0.78125)"/>
       <use xlink:href="#DejaVuSans-Oblique-67" transform="translate(78.710938 -15.625) scale(0.7)"/>
       <use xlink:href="#DejaVuSans-Oblique-6c" transform="translate(123.144531 -15.625) scale(0.7)"/>
       <use xlink:href="#DejaVuSans-Oblique-6f" transform="translate(142.592773 -15.625) scale(0.7)"/>
       <use xlink:href="#DejaVuSans-Oblique-62" transform="translate(185.419922 -15.625) scale(0.7)"/>
       <use xlink:href="#DejaVuSans-Oblique-61" transform="translate(229.853516 -15.625) scale(0.7)"/>
       <use xlink:href="#DejaVuSans-Oblique-6c" transform="translate(272.749023 -15.625) scale(0.7)"/>
      </g>
     </g>
    </g>
   </g>
   <g id="matplotlib.axis_4">
    <g id="ytick_6">
     <g id="line2d_19">
      <g>
       <use xlink:href="#m78df0046e0" x="591.545455" y="418.130526" style="stroke: #000000; stroke-width: 0.8"/>
      </g>
     </g>
     <g id="text_19">
      <!-- 0.0 -->
      <g transform="translate(549.55858 426.488808) scale(0.22 -0.22)">
       <use xlink:href="#DejaVuSans-30"/>
       <use xlink:href="#DejaVuSans-2e" x="63.623047"/>
       <use xlink:href="#DejaVuSans-30" x="95.410156"/>
      </g>
     </g>
    </g>
    <g id="ytick_7">
     <g id="line2d_20">
      <g>
       <use xlink:href="#m78df0046e0" x="591.545455" y="334.186382" style="stroke: #000000; stroke-width: 0.8"/>
      </g>
     </g>
     <g id="text_20">
      <!-- 0.2 -->
      <g transform="translate(549.55858 342.544663) scale(0.22 -0.22)">
       <use xlink:href="#DejaVuSans-30"/>
       <use xlink:href="#DejaVuSans-2e" x="63.623047"/>
       <use xlink:href="#DejaVuSans-32" x="95.410156"/>
      </g>
     </g>
    </g>
    <g id="ytick_8">
     <g id="line2d_21">
      <g>
       <use xlink:href="#m78df0046e0" x="591.545455" y="250.242237" style="stroke: #000000; stroke-width: 0.8"/>
      </g>
     </g>
     <g id="text_21">
      <!-- 0.4 -->
      <g transform="translate(549.55858 258.600518) scale(0.22 -0.22)">
       <use xlink:href="#DejaVuSans-30"/>
       <use xlink:href="#DejaVuSans-2e" x="63.623047"/>
       <use xlink:href="#DejaVuSans-34" x="95.410156"/>
      </g>
     </g>
    </g>
    <g id="ytick_9">
     <g id="line2d_22">
      <g>
       <use xlink:href="#m78df0046e0" x="591.545455" y="166.298092" style="stroke: #000000; stroke-width: 0.8"/>
      </g>
     </g>
     <g id="text_22">
      <!-- 0.6 -->
      <g transform="translate(549.55858 174.656373) scale(0.22 -0.22)">
       <use xlink:href="#DejaVuSans-30"/>
       <use xlink:href="#DejaVuSans-2e" x="63.623047"/>
       <use xlink:href="#DejaVuSans-36" x="95.410156"/>
      </g>
     </g>
    </g>
    <g id="text_23">
     <!-- Metric Value -->
     <g transform="translate(540.983267 354.727919) rotate(-90) scale(0.22 -0.22)">
      <defs>
       <path id="DejaVuSans-4d" d="M 628 4666 
L 1569 4666 
L 2759 1491 
L 3956 4666 
L 4897 4666 
L 4897 0 
L 4281 0 
L 4281 4097 
L 3078 897 
L 2444 897 
L 1241 4097 
L 1241 0 
L 628 0 
L 628 4666 
z
" transform="scale(0.015625)"/>
       <path id="DejaVuSans-65" d="M 3597 1894 
L 3597 1613 
L 953 1613 
Q 991 1019 1311 708 
Q 1631 397 2203 397 
Q 2534 397 2845 478 
Q 3156 559 3463 722 
L 3463 178 
Q 3153 47 2828 -22 
Q 2503 -91 2169 -91 
Q 1331 -91 842 396 
Q 353 884 353 1716 
Q 353 2575 817 3079 
Q 1281 3584 2069 3584 
Q 2775 3584 3186 3129 
Q 3597 2675 3597 1894 
z
M 3022 2063 
Q 3016 2534 2758 2815 
Q 2500 3097 2075 3097 
Q 1594 3097 1305 2825 
Q 1016 2553 972 2059 
L 3022 2063 
z
" transform="scale(0.015625)"/>
       <path id="DejaVuSans-74" d="M 1172 4494 
L 1172 3500 
L 2356 3500 
L 2356 3053 
L 1172 3053 
L 1172 1153 
Q 1172 725 1289 603 
Q 1406 481 1766 481 
L 2356 481 
L 2356 0 
L 1766 0 
Q 1100 0 847 248 
Q 594 497 594 1153 
L 594 3053 
L 172 3053 
L 172 3500 
L 594 3500 
L 594 4494 
L 1172 4494 
z
" transform="scale(0.015625)"/>
       <path id="DejaVuSans-72" d="M 2631 2963 
Q 2534 3019 2420 3045 
Q 2306 3072 2169 3072 
Q 1681 3072 1420 2755 
Q 1159 2438 1159 1844 
L 1159 0 
L 581 0 
L 581 3500 
L 1159 3500 
L 1159 2956 
Q 1341 3275 1631 3429 
Q 1922 3584 2338 3584 
Q 2397 3584 2469 3576 
Q 2541 3569 2628 3553 
L 2631 2963 
z
" transform="scale(0.015625)"/>
       <path id="DejaVuSans-69" d="M 603 3500 
L 1178 3500 
L 1178 0 
L 603 0 
L 603 3500 
z
M 603 4863 
L 1178 4863 
L 1178 4134 
L 603 4134 
L 603 4863 
z
" transform="scale(0.015625)"/>
       <path id="DejaVuSans-63" d="M 3122 3366 
L 3122 2828 
Q 2878 2963 2633 3030 
Q 2388 3097 2138 3097 
Q 1578 3097 1268 2742 
Q 959 2388 959 1747 
Q 959 1106 1268 751 
Q 1578 397 2138 397 
Q 2388 397 2633 464 
Q 2878 531 3122 666 
L 3122 134 
Q 2881 22 2623 -34 
Q 2366 -91 2075 -91 
Q 1284 -91 818 406 
Q 353 903 353 1747 
Q 353 2603 823 3093 
Q 1294 3584 2113 3584 
Q 2378 3584 2631 3529 
Q 2884 3475 3122 3366 
z
" transform="scale(0.015625)"/>
       <path id="DejaVuSans-20" transform="scale(0.015625)"/>
       <path id="DejaVuSans-56" d="M 1831 0 
L 50 4666 
L 709 4666 
L 2188 738 
L 3669 4666 
L 4325 4666 
L 2547 0 
L 1831 0 
z
" transform="scale(0.015625)"/>
       <path id="DejaVuSans-61" d="M 2194 1759 
Q 1497 1759 1228 1600 
Q 959 1441 959 1056 
Q 959 750 1161 570 
Q 1363 391 1709 391 
Q 2188 391 2477 730 
Q 2766 1069 2766 1631 
L 2766 1759 
L 2194 1759 
z
M 3341 1997 
L 3341 0 
L 2766 0 
L 2766 531 
Q 2569 213 2275 61 
Q 1981 -91 1556 -91 
Q 1019 -91 701 211 
Q 384 513 384 1019 
Q 384 1609 779 1909 
Q 1175 2209 1959 2209 
L 2766 2209 
L 2766 2266 
Q 2766 2663 2505 2880 
Q 2244 3097 1772 3097 
Q 1472 3097 1187 3025 
Q 903 2953 641 2809 
L 641 3341 
Q 956 3463 1253 3523 
Q 1550 3584 1831 3584 
Q 2591 3584 2966 3190 
Q 3341 2797 3341 1997 
z
" transform="scale(0.015625)"/>
       <path id="DejaVuSans-6c" d="M 603 4863 
L 1178 4863 
L 1178 0 
L 603 0 
L 603 4863 
z
" transform="scale(0.015625)"/>
       <path id="DejaVuSans-75" d="M 544 1381 
L 544 3500 
L 1119 3500 
L 1119 1403 
Q 1119 906 1312 657 
Q 1506 409 1894 409 
Q 2359 409 2629 706 
Q 2900 1003 2900 1516 
L 2900 3500 
L 3475 3500 
L 3475 0 
L 2900 0 
L 2900 538 
Q 2691 219 2414 64 
Q 2138 -91 1772 -91 
Q 1169 -91 856 284 
Q 544 659 544 1381 
z
M 1991 3584 
L 1991 3584 
z
" transform="scale(0.015625)"/>
      </defs>
      <use xlink:href="#DejaVuSans-4d"/>
      <use xlink:href="#DejaVuSans-65" x="86.279297"/>
      <use xlink:href="#DejaVuSans-74" x="147.802734"/>
      <use xlink:href="#DejaVuSans-72" x="187.011719"/>
      <use xlink:href="#DejaVuSans-69" x="228.125"/>
      <use xlink:href="#DejaVuSans-63" x="255.908203"/>
      <use xlink:href="#DejaVuSans-20" x="310.888672"/>
      <use xlink:href="#DejaVuSans-56" x="342.675781"/>
      <use xlink:href="#DejaVuSans-61" x="403.333984"/>
      <use xlink:href="#DejaVuSans-6c" x="464.613281"/>
      <use xlink:href="#DejaVuSans-75" x="492.396484"/>
      <use xlink:href="#DejaVuSans-65" x="555.775391"/>
     </g>
    </g>
   </g>
   <g id="patch_20">
    <path d="M 591.545455 418.130526 
L 591.545455 155.52 
" style="fill: none; stroke: #000000; stroke-width: 0.8; stroke-linejoin: miter; stroke-linecap: square"/>
   </g>
   <g id="patch_21">
    <path d="M 972 418.130526 
L 972 155.52 
" style="fill: none; stroke: #000000; stroke-width: 0.8; stroke-linejoin: miter; stroke-linecap: square"/>
   </g>
   <g id="patch_22">
    <path d="M 591.545455 418.130526 
L 972 418.130526 
" style="fill: none; stroke: #000000; stroke-width: 0.8; stroke-linejoin: miter; stroke-linecap: square"/>
   </g>
   <g id="patch_23">
    <path d="M 591.545455 155.52 
L 972 155.52 
" style="fill: none; stroke: #000000; stroke-width: 0.8; stroke-linejoin: miter; stroke-linecap: square"/>
   </g>
   <g id="text_24">
    <!-- b -->
    <g transform="translate(544.871761 137.404046) scale(0.28 -0.28)">
     <defs>
      <path id="DejaVuSans-Bold-62" d="M 2400 722 
Q 2759 722 2948 984 
Q 3138 1247 3138 1747 
Q 3138 2247 2948 2509 
Q 2759 2772 2400 2772 
Q 2041 2772 1848 2508 
Q 1656 2244 1656 1747 
Q 1656 1250 1848 986 
Q 2041 722 2400 722 
z
M 1656 2988 
Q 1888 3294 2169 3439 
Q 2450 3584 2816 3584 
Q 3463 3584 3878 3070 
Q 4294 2556 4294 1747 
Q 4294 938 3878 423 
Q 3463 -91 2816 -91 
Q 2450 -91 2169 54 
Q 1888 200 1656 506 
L 1656 0 
L 538 0 
L 538 4863 
L 1656 4863 
L 1656 2988 
z
" transform="scale(0.015625)"/>
     </defs>
     <use xlink:href="#DejaVuSans-Bold-62"/>
    </g>
   </g>
   <g id="text_25">
    <!-- Metrics -->
    <g transform="translate(734.584759 149.52) scale(0.26 -0.26)">
     <defs>
      <path id="DejaVuSans-73" d="M 2834 3397 
L 2834 2853 
Q 2591 2978 2328 3040 
Q 2066 3103 1784 3103 
Q 1356 3103 1142 2972 
Q 928 2841 928 2578 
Q 928 2378 1081 2264 
Q 1234 2150 1697 2047 
L 1894 2003 
Q 2506 1872 2764 1633 
Q 3022 1394 3022 966 
Q 3022 478 2636 193 
Q 2250 -91 1575 -91 
Q 1294 -91 989 -36 
Q 684 19 347 128 
L 347 722 
Q 666 556 975 473 
Q 1284 391 1588 391 
Q 1994 391 2212 530 
Q 2431 669 2431 922 
Q 2431 1156 2273 1281 
Q 2116 1406 1581 1522 
L 1381 1569 
Q 847 1681 609 1914 
Q 372 2147 372 2553 
Q 372 3047 722 3315 
Q 1072 3584 1716 3584 
Q 2034 3584 2315 3537 
Q 2597 3491 2834 3397 
z
" transform="scale(0.015625)"/>
     </defs>
     <use xlink:href="#DejaVuSans-4d"/>
     <use xlink:href="#DejaVuSans-65" x="86.279297"/>
     <use xlink:href="#DejaVuSans-74" x="147.802734"/>
     <use xlink:href="#DejaVuSans-72" x="187.011719"/>
     <use xlink:href="#DejaVuSans-69" x="228.125"/>
     <use xlink:href="#DejaVuSans-63" x="255.908203"/>
     <use xlink:href="#DejaVuSans-73" x="310.888672"/>
    </g>
   </g>
  </g>
  <g id="axes_3">
   <g id="patch_24">
    <path d="M 135 785.785263 
L 515.454545 785.785263 
L 515.454545 523.174737 
L 135 523.174737 
z
" style="fill: #ffffff"/>
   </g>
   <g id="matplotlib.axis_5">
    <g id="xtick_10">
     <g id="line2d_23">
      <g>
       <use xlink:href="#m6c6bf6dee2" x="137.882231" y="785.785263" style="stroke: #000000; stroke-width: 0.8"/>
      </g>
     </g>
     <g id="text_26">
      <!-- 0 -->
      <g transform="translate(130.883481 809.501826) scale(0.22 -0.22)">
       <use xlink:href="#DejaVuSans-30"/>
      </g>
     </g>
    </g>
    <g id="xtick_11">
     <g id="line2d_24">
      <g>
       <use xlink:href="#m6c6bf6dee2" x="281.993802" y="785.785263" style="stroke: #000000; stroke-width: 0.8"/>
      </g>
     </g>
     <g id="text_27">
      <!-- 20 -->
      <g transform="translate(267.996302 809.501826) scale(0.22 -0.22)">
       <use xlink:href="#DejaVuSans-32"/>
       <use xlink:href="#DejaVuSans-30" x="63.623047"/>
      </g>
     </g>
    </g>
    <g id="xtick_12">
     <g id="line2d_25">
      <g>
       <use xlink:href="#m6c6bf6dee2" x="426.105372" y="785.785263" style="stroke: #000000; stroke-width: 0.8"/>
      </g>
     </g>
     <g id="text_28">
      <!-- 40 -->
      <g transform="translate(412.107872 809.501826) scale(0.22 -0.22)">
       <use xlink:href="#DejaVuSans-34"/>
       <use xlink:href="#DejaVuSans-30" x="63.623047"/>
      </g>
     </g>
    </g>
    <g id="text_29">
     <!-- k -->
     <g transform="translate(318.278523 836.313388) scale(0.24 -0.24)">
      <use xlink:href="#DejaVuSans-6b"/>
     </g>
    </g>
   </g>
   <g id="matplotlib.axis_6">
    <g id="ytick_10">
     <g id="line2d_26">
      <g>
       <use xlink:href="#m78df0046e0" x="135" y="779.374883" style="stroke: #000000; stroke-width: 0.8"/>
      </g>
     </g>
     <g id="text_30">
      <!-- 0.7 -->
      <g transform="translate(93.013125 787.733164) scale(0.22 -0.22)">
       <defs>
        <path id="DejaVuSans-37" d="M 525 4666 
L 3525 4666 
L 3525 4397 
L 1831 0 
L 1172 0 
L 2766 4134 
L 525 4134 
L 525 4666 
z
" transform="scale(0.015625)"/>
       </defs>
       <use xlink:href="#DejaVuSans-30"/>
       <use xlink:href="#DejaVuSans-2e" x="63.623047"/>
       <use xlink:href="#DejaVuSans-37" x="95.410156"/>
      </g>
     </g>
    </g>
    <g id="ytick_11">
     <g id="line2d_27">
      <g>
       <use xlink:href="#m78df0046e0" x="135" y="679.435739" style="stroke: #000000; stroke-width: 0.8"/>
      </g>
     </g>
     <g id="text_31">
      <!-- 0.8 -->
      <g transform="translate(93.013125 687.79402) scale(0.22 -0.22)">
       <use xlink:href="#DejaVuSans-30"/>
       <use xlink:href="#DejaVuSans-2e" x="63.623047"/>
       <use xlink:href="#DejaVuSans-38" x="95.410156"/>
      </g>
     </g>
    </g>
    <g id="ytick_12">
     <g id="line2d_28">
      <g>
       <use xlink:href="#m78df0046e0" x="135" y="579.496595" style="stroke: #000000; stroke-width: 0.8"/>
      </g>
     </g>
     <g id="text_32">
      <!-- 0.9 -->
      <g transform="translate(93.013125 587.854876) scale(0.22 -0.22)">
       <defs>
        <path id="DejaVuSans-39" d="M 703 97 
L 703 672 
Q 941 559 1184 500 
Q 1428 441 1663 441 
Q 2288 441 2617 861 
Q 2947 1281 2994 2138 
Q 2813 1869 2534 1725 
Q 2256 1581 1919 1581 
Q 1219 1581 811 2004 
Q 403 2428 403 3163 
Q 403 3881 828 4315 
Q 1253 4750 1959 4750 
Q 2769 4750 3195 4129 
Q 3622 3509 3622 2328 
Q 3622 1225 3098 567 
Q 2575 -91 1691 -91 
Q 1453 -91 1209 -44 
Q 966 3 703 97 
z
M 1959 2075 
Q 2384 2075 2632 2365 
Q 2881 2656 2881 3163 
Q 2881 3666 2632 3958 
Q 2384 4250 1959 4250 
Q 1534 4250 1286 3958 
Q 1038 3666 1038 3163 
Q 1038 2656 1286 2365 
Q 1534 2075 1959 2075 
z
" transform="scale(0.015625)"/>
       </defs>
       <use xlink:href="#DejaVuSans-30"/>
       <use xlink:href="#DejaVuSans-2e" x="63.623047"/>
       <use xlink:href="#DejaVuSans-39" x="95.410156"/>
      </g>
     </g>
    </g>
    <g id="text_33">
     <!-- Metric Value -->
     <g transform="translate(84.021875 728.555625) rotate(-90) scale(0.24 -0.24)">
      <use xlink:href="#DejaVuSans-4d"/>
      <use xlink:href="#DejaVuSans-65" x="86.279297"/>
      <use xlink:href="#DejaVuSans-74" x="147.802734"/>
      <use xlink:href="#DejaVuSans-72" x="187.011719"/>
      <use xlink:href="#DejaVuSans-69" x="228.125"/>
      <use xlink:href="#DejaVuSans-63" x="255.908203"/>
      <use xlink:href="#DejaVuSans-20" x="310.888672"/>
      <use xlink:href="#DejaVuSans-56" x="342.675781"/>
      <use xlink:href="#DejaVuSans-61" x="403.333984"/>
      <use xlink:href="#DejaVuSans-6c" x="464.613281"/>
      <use xlink:href="#DejaVuSans-75" x="492.396484"/>
      <use xlink:href="#DejaVuSans-65" x="555.775391"/>
     </g>
    </g>
   </g>
   <g id="line2d_29">
    <path d="M 152.293388 757.911158 
L 173.910124 753.786386 
L 209.938017 758.445686 
L 281.993802 762.845673 
L 498.161157 773.848421 
" clip-path="url(#pdf776ab323)" style="fill: none; stroke: #1f77b4; stroke-width: 1.5; stroke-linecap: square"/>
    <g clip-path="url(#pdf776ab323)">
     <use xlink:href="#m86eaa81dc8" x="152.293388" y="757.911158" style="fill: #1f77b4; stroke: #1f77b4"/>
     <use xlink:href="#m86eaa81dc8" x="173.910124" y="753.786386" style="fill: #1f77b4; stroke: #1f77b4"/>
     <use xlink:href="#m86eaa81dc8" x="209.938017" y="758.445686" style="fill: #1f77b4; stroke: #1f77b4"/>
     <use xlink:href="#m86eaa81dc8" x="281.993802" y="762.845673" style="fill: #1f77b4; stroke: #1f77b4"/>
     <use xlink:href="#m86eaa81dc8" x="498.161157" y="773.848421" style="fill: #1f77b4; stroke: #1f77b4"/>
    </g>
   </g>
   <g id="line2d_30">
    <path d="M 152.293388 535.457574 
L 173.910124 555.49076 
L 209.938017 580.015277 
L 281.993802 632.138047 
L 498.161157 726.052825 
" clip-path="url(#pdf776ab323)" style="fill: none; stroke: #ff7f0e; stroke-width: 1.5; stroke-linecap: square"/>
    <g clip-path="url(#pdf776ab323)">
     <use xlink:href="#mbc73560656" x="152.293388" y="535.457574" style="fill: #ff7f0e; stroke: #ff7f0e"/>
     <use xlink:href="#mbc73560656" x="173.910124" y="555.49076" style="fill: #ff7f0e; stroke: #ff7f0e"/>
     <use xlink:href="#mbc73560656" x="209.938017" y="580.015277" style="fill: #ff7f0e; stroke: #ff7f0e"/>
     <use xlink:href="#mbc73560656" x="281.993802" y="632.138047" style="fill: #ff7f0e; stroke: #ff7f0e"/>
     <use xlink:href="#mbc73560656" x="498.161157" y="726.052825" style="fill: #ff7f0e; stroke: #ff7f0e"/>
    </g>
   </g>
   <g id="line2d_31">
    <path d="M 152.293388 558.866598 
L 173.910124 571.07081 
L 209.938017 594.213924 
L 281.993802 643.378358 
L 498.161157 745.368967 
" clip-path="url(#pdf776ab323)" style="fill: none; stroke: #2ca02c; stroke-width: 1.5; stroke-linecap: square"/>
    <g clip-path="url(#pdf776ab323)">
     <use xlink:href="#m642282544b" x="152.293388" y="558.866598" style="fill: #2ca02c; stroke: #2ca02c"/>
     <use xlink:href="#m642282544b" x="173.910124" y="571.07081" style="fill: #2ca02c; stroke: #2ca02c"/>
     <use xlink:href="#m642282544b" x="209.938017" y="594.213924" style="fill: #2ca02c; stroke: #2ca02c"/>
     <use xlink:href="#m642282544b" x="281.993802" y="643.378358" style="fill: #2ca02c; stroke: #2ca02c"/>
     <use xlink:href="#m642282544b" x="498.161157" y="745.368967" style="fill: #2ca02c; stroke: #2ca02c"/>
    </g>
   </g>
   <g id="line2d_32">
    <path d="M 152.293388 535.111579 
L 173.910124 547.292784 
L 209.938017 565.0326 
L 281.993802 600.909555 
L 498.161157 686.6717 
" clip-path="url(#pdf776ab323)" style="fill: none; stroke: #d62728; stroke-width: 1.5; stroke-linecap: square"/>
    <g clip-path="url(#pdf776ab323)">
     <use xlink:href="#md1a1d53553" x="152.293388" y="535.111579" style="fill: #d62728; stroke: #d62728"/>
     <use xlink:href="#md1a1d53553" x="173.910124" y="547.292784" style="fill: #d62728; stroke: #d62728"/>
     <use xlink:href="#md1a1d53553" x="209.938017" y="565.0326" style="fill: #d62728; stroke: #d62728"/>
     <use xlink:href="#md1a1d53553" x="281.993802" y="600.909555" style="fill: #d62728; stroke: #d62728"/>
     <use xlink:href="#md1a1d53553" x="498.161157" y="686.6717" style="fill: #d62728; stroke: #d62728"/>
    </g>
   </g>
   <g id="patch_25">
    <path d="M 135 785.785263 
L 135 523.174737 
" style="fill: none; stroke: #000000; stroke-width: 0.8; stroke-linejoin: miter; stroke-linecap: square"/>
   </g>
   <g id="patch_26">
    <path d="M 515.454545 785.785263 
L 515.454545 523.174737 
" style="fill: none; stroke: #000000; stroke-width: 0.8; stroke-linejoin: miter; stroke-linecap: square"/>
   </g>
   <g id="patch_27">
    <path d="M 135 785.785263 
L 515.454545 785.785263 
" style="fill: none; stroke: #000000; stroke-width: 0.8; stroke-linejoin: miter; stroke-linecap: square"/>
   </g>
   <g id="patch_28">
    <path d="M 135 523.174737 
L 515.454545 523.174737 
" style="fill: none; stroke: #000000; stroke-width: 0.8; stroke-linejoin: miter; stroke-linecap: square"/>
   </g>
   <g id="text_34">
    <!-- c -->
    <g transform="translate(91.769432 505.058783) scale(0.28 -0.28)">
     <defs>
      <path id="DejaVuSans-Bold-63" d="M 3366 3391 
L 3366 2478 
Q 3138 2634 2908 2709 
Q 2678 2784 2431 2784 
Q 1963 2784 1702 2511 
Q 1441 2238 1441 1747 
Q 1441 1256 1702 982 
Q 1963 709 2431 709 
Q 2694 709 2930 787 
Q 3166 866 3366 1019 
L 3366 103 
Q 3103 6 2833 -42 
Q 2563 -91 2291 -91 
Q 1344 -91 809 395 
Q 275 881 275 1747 
Q 275 2613 809 3098 
Q 1344 3584 2291 3584 
Q 2566 3584 2833 3536 
Q 3100 3488 3366 3391 
z
" transform="scale(0.015625)"/>
     </defs>
     <use xlink:href="#DejaVuSans-Bold-63"/>
    </g>
   </g>
   <g id="text_35">
    <!-- Trustworthiness -->
    <g transform="translate(230.950398 517.174737) scale(0.24 -0.24)">
     <defs>
      <path id="DejaVuSans-54" d="M -19 4666 
L 3928 4666 
L 3928 4134 
L 2272 4134 
L 2272 0 
L 1638 0 
L 1638 4134 
L -19 4134 
L -19 4666 
z
" transform="scale(0.015625)"/>
      <path id="DejaVuSans-77" d="M 269 3500 
L 844 3500 
L 1563 769 
L 2278 3500 
L 2956 3500 
L 3675 769 
L 4391 3500 
L 4966 3500 
L 4050 0 
L 3372 0 
L 2619 2869 
L 1863 0 
L 1184 0 
L 269 3500 
z
" transform="scale(0.015625)"/>
      <path id="DejaVuSans-6f" d="M 1959 3097 
Q 1497 3097 1228 2736 
Q 959 2375 959 1747 
Q 959 1119 1226 758 
Q 1494 397 1959 397 
Q 2419 397 2687 759 
Q 2956 1122 2956 1747 
Q 2956 2369 2687 2733 
Q 2419 3097 1959 3097 
z
M 1959 3584 
Q 2709 3584 3137 3096 
Q 3566 2609 3566 1747 
Q 3566 888 3137 398 
Q 2709 -91 1959 -91 
Q 1206 -91 779 398 
Q 353 888 353 1747 
Q 353 2609 779 3096 
Q 1206 3584 1959 3584 
z
" transform="scale(0.015625)"/>
      <path id="DejaVuSans-68" d="M 3513 2113 
L 3513 0 
L 2938 0 
L 2938 2094 
Q 2938 2591 2744 2837 
Q 2550 3084 2163 3084 
Q 1697 3084 1428 2787 
Q 1159 2491 1159 1978 
L 1159 0 
L 581 0 
L 581 4863 
L 1159 4863 
L 1159 2956 
Q 1366 3272 1645 3428 
Q 1925 3584 2291 3584 
Q 2894 3584 3203 3211 
Q 3513 2838 3513 2113 
z
" transform="scale(0.015625)"/>
      <path id="DejaVuSans-6e" d="M 3513 2113 
L 3513 0 
L 2938 0 
L 2938 2094 
Q 2938 2591 2744 2837 
Q 2550 3084 2163 3084 
Q 1697 3084 1428 2787 
Q 1159 2491 1159 1978 
L 1159 0 
L 581 0 
L 581 3500 
L 1159 3500 
L 1159 2956 
Q 1366 3272 1645 3428 
Q 1925 3584 2291 3584 
Q 2894 3584 3203 3211 
Q 3513 2838 3513 2113 
z
" transform="scale(0.015625)"/>
     </defs>
     <use xlink:href="#DejaVuSans-54"/>
     <use xlink:href="#DejaVuSans-72" x="46.333984"/>
     <use xlink:href="#DejaVuSans-75" x="87.447266"/>
     <use xlink:href="#DejaVuSans-73" x="150.826172"/>
     <use xlink:href="#DejaVuSans-74" x="202.925781"/>
     <use xlink:href="#DejaVuSans-77" x="242.134766"/>
     <use xlink:href="#DejaVuSans-6f" x="323.921875"/>
     <use xlink:href="#DejaVuSans-72" x="385.103516"/>
     <use xlink:href="#DejaVuSans-74" x="426.216797"/>
     <use xlink:href="#DejaVuSans-68" x="465.425781"/>
     <use xlink:href="#DejaVuSans-69" x="528.804688"/>
     <use xlink:href="#DejaVuSans-6e" x="556.587891"/>
     <use xlink:href="#DejaVuSans-65" x="619.966797"/>
     <use xlink:href="#DejaVuSans-73" x="681.490234"/>
     <use xlink:href="#DejaVuSans-73" x="733.589844"/>
    </g>
   </g>
  </g>
  <g id="axes_4">
   <g id="patch_29">
    <path d="M 591.545455 785.785263 
L 972 785.785263 
L 972 523.174737 
L 591.545455 523.174737 
z
" style="fill: #ffffff"/>
   </g>
   <g id="matplotlib.axis_7">
    <g id="xtick_13">
     <g id="line2d_33">
      <g>
       <use xlink:href="#m6c6bf6dee2" x="594.427686" y="785.785263" style="stroke: #000000; stroke-width: 0.8"/>
      </g>
     </g>
     <g id="text_36">
      <!-- 0 -->
      <g transform="translate(587.428936 809.501826) scale(0.22 -0.22)">
       <use xlink:href="#DejaVuSans-30"/>
      </g>
     </g>
    </g>
    <g id="xtick_14">
     <g id="line2d_34">
      <g>
       <use xlink:href="#m6c6bf6dee2" x="738.539256" y="785.785263" style="stroke: #000000; stroke-width: 0.8"/>
      </g>
     </g>
     <g id="text_37">
      <!-- 20 -->
      <g transform="translate(724.541756 809.501826) scale(0.22 -0.22)">
       <use xlink:href="#DejaVuSans-32"/>
       <use xlink:href="#DejaVuSans-30" x="63.623047"/>
      </g>
     </g>
    </g>
    <g id="xtick_15">
     <g id="line2d_35">
      <g>
       <use xlink:href="#m6c6bf6dee2" x="882.650826" y="785.785263" style="stroke: #000000; stroke-width: 0.8"/>
      </g>
     </g>
     <g id="text_38">
      <!-- 40 -->
      <g transform="translate(868.653326 809.501826) scale(0.22 -0.22)">
       <use xlink:href="#DejaVuSans-34"/>
       <use xlink:href="#DejaVuSans-30" x="63.623047"/>
      </g>
     </g>
    </g>
    <g id="text_39">
     <!-- k -->
     <g transform="translate(774.823977 836.313388) scale(0.24 -0.24)">
      <use xlink:href="#DejaVuSans-6b"/>
     </g>
    </g>
   </g>
   <g id="matplotlib.axis_8">
    <g id="ytick_13">
     <g id="line2d_36">
      <g>
       <use xlink:href="#m78df0046e0" x="591.545455" y="770.436983" style="stroke: #000000; stroke-width: 0.8"/>
      </g>
     </g>
     <g id="text_40">
      <!-- 0.75 -->
      <g transform="translate(535.56108 778.795265) scale(0.22 -0.22)">
       <use xlink:href="#DejaVuSans-30"/>
       <use xlink:href="#DejaVuSans-2e" x="63.623047"/>
       <use xlink:href="#DejaVuSans-37" x="95.410156"/>
       <use xlink:href="#DejaVuSans-35" x="159.033203"/>
      </g>
     </g>
    </g>
    <g id="ytick_14">
     <g id="line2d_37">
      <g>
       <use xlink:href="#m78df0046e0" x="591.545455" y="711.498369" style="stroke: #000000; stroke-width: 0.8"/>
      </g>
     </g>
     <g id="text_41">
      <!-- 0.80 -->
      <g transform="translate(535.56108 719.856651) scale(0.22 -0.22)">
       <use xlink:href="#DejaVuSans-30"/>
       <use xlink:href="#DejaVuSans-2e" x="63.623047"/>
       <use xlink:href="#DejaVuSans-38" x="95.410156"/>
       <use xlink:href="#DejaVuSans-30" x="159.033203"/>
      </g>
     </g>
    </g>
    <g id="ytick_15">
     <g id="line2d_38">
      <g>
       <use xlink:href="#m78df0046e0" x="591.545455" y="652.559755" style="stroke: #000000; stroke-width: 0.8"/>
      </g>
     </g>
     <g id="text_42">
      <!-- 0.85 -->
      <g transform="translate(535.56108 660.918036) scale(0.22 -0.22)">
       <use xlink:href="#DejaVuSans-30"/>
       <use xlink:href="#DejaVuSans-2e" x="63.623047"/>
       <use xlink:href="#DejaVuSans-38" x="95.410156"/>
       <use xlink:href="#DejaVuSans-35" x="159.033203"/>
      </g>
     </g>
    </g>
    <g id="ytick_16">
     <g id="line2d_39">
      <g>
       <use xlink:href="#m78df0046e0" x="591.545455" y="593.621141" style="stroke: #000000; stroke-width: 0.8"/>
      </g>
     </g>
     <g id="text_43">
      <!-- 0.90 -->
      <g transform="translate(535.56108 601.979422) scale(0.22 -0.22)">
       <use xlink:href="#DejaVuSans-30"/>
       <use xlink:href="#DejaVuSans-2e" x="63.623047"/>
       <use xlink:href="#DejaVuSans-39" x="95.410156"/>
       <use xlink:href="#DejaVuSans-30" x="159.033203"/>
      </g>
     </g>
    </g>
    <g id="ytick_17">
     <g id="line2d_40">
      <g>
       <use xlink:href="#m78df0046e0" x="591.545455" y="534.682527" style="stroke: #000000; stroke-width: 0.8"/>
      </g>
     </g>
     <g id="text_44">
      <!-- 0.95 -->
      <g transform="translate(535.56108 543.040808) scale(0.22 -0.22)">
       <use xlink:href="#DejaVuSans-30"/>
       <use xlink:href="#DejaVuSans-2e" x="63.623047"/>
       <use xlink:href="#DejaVuSans-39" x="95.410156"/>
       <use xlink:href="#DejaVuSans-35" x="159.033203"/>
      </g>
     </g>
    </g>
   </g>
   <g id="line2d_41">
    <path d="M 608.838843 550.891582 
L 630.455579 577.885119 
L 666.483471 607.925011 
L 738.539256 654.293915 
L 954.706612 726.401856 
" clip-path="url(#p37f2e9f3e5)" style="fill: none; stroke: #1f77b4; stroke-width: 1.5; stroke-linecap: square"/>
    <g clip-path="url(#p37f2e9f3e5)">
     <use xlink:href="#m86eaa81dc8" x="608.838843" y="550.891582" style="fill: #1f77b4; stroke: #1f77b4"/>
     <use xlink:href="#m86eaa81dc8" x="630.455579" y="577.885119" style="fill: #1f77b4; stroke: #1f77b4"/>
     <use xlink:href="#m86eaa81dc8" x="666.483471" y="607.925011" style="fill: #1f77b4; stroke: #1f77b4"/>
     <use xlink:href="#m86eaa81dc8" x="738.539256" y="654.293915" style="fill: #1f77b4; stroke: #1f77b4"/>
     <use xlink:href="#m86eaa81dc8" x="954.706612" y="726.401856" style="fill: #1f77b4; stroke: #1f77b4"/>
    </g>
   </g>
   <g id="line2d_42">
    <path d="M 608.838843 538.036736 
L 630.455579 566.671664 
L 666.483471 595.673378 
L 738.539256 652.442589 
L 954.706612 748.489574 
" clip-path="url(#p37f2e9f3e5)" style="fill: none; stroke: #ff7f0e; stroke-width: 1.5; stroke-linecap: square"/>
    <g clip-path="url(#p37f2e9f3e5)">
     <use xlink:href="#mbc73560656" x="608.838843" y="538.036736" style="fill: #ff7f0e; stroke: #ff7f0e"/>
     <use xlink:href="#mbc73560656" x="630.455579" y="566.671664" style="fill: #ff7f0e; stroke: #ff7f0e"/>
     <use xlink:href="#mbc73560656" x="666.483471" y="595.673378" style="fill: #ff7f0e; stroke: #ff7f0e"/>
     <use xlink:href="#mbc73560656" x="738.539256" y="652.442589" style="fill: #ff7f0e; stroke: #ff7f0e"/>
     <use xlink:href="#mbc73560656" x="954.706612" y="748.489574" style="fill: #ff7f0e; stroke: #ff7f0e"/>
    </g>
   </g>
   <g id="line2d_43">
    <path d="M 608.838843 535.111579 
L 630.455579 569.406591 
L 666.483471 607.724683 
L 738.539256 671.516711 
L 954.706612 773.848421 
" clip-path="url(#p37f2e9f3e5)" style="fill: none; stroke: #2ca02c; stroke-width: 1.5; stroke-linecap: square"/>
    <g clip-path="url(#p37f2e9f3e5)">
     <use xlink:href="#m642282544b" x="608.838843" y="535.111579" style="fill: #2ca02c; stroke: #2ca02c"/>
     <use xlink:href="#m642282544b" x="630.455579" y="569.406591" style="fill: #2ca02c; stroke: #2ca02c"/>
     <use xlink:href="#m642282544b" x="666.483471" y="607.724683" style="fill: #2ca02c; stroke: #2ca02c"/>
     <use xlink:href="#m642282544b" x="738.539256" y="671.516711" style="fill: #2ca02c; stroke: #2ca02c"/>
     <use xlink:href="#m642282544b" x="954.706612" y="773.848421" style="fill: #2ca02c; stroke: #2ca02c"/>
    </g>
   </g>
   <g id="line2d_44">
    <path d="M 608.838843 548.380934 
L 630.455579 574.978869 
L 666.483471 611.774796 
L 738.539256 669.716864 
L 954.706612 766.931368 
" clip-path="url(#p37f2e9f3e5)" style="fill: none; stroke: #d62728; stroke-width: 1.5; stroke-linecap: square"/>
    <g clip-path="url(#p37f2e9f3e5)">
     <use xlink:href="#md1a1d53553" x="608.838843" y="548.380934" style="fill: #d62728; stroke: #d62728"/>
     <use xlink:href="#md1a1d53553" x="630.455579" y="574.978869" style="fill: #d62728; stroke: #d62728"/>
     <use xlink:href="#md1a1d53553" x="666.483471" y="611.774796" style="fill: #d62728; stroke: #d62728"/>
     <use xlink:href="#md1a1d53553" x="738.539256" y="669.716864" style="fill: #d62728; stroke: #d62728"/>
     <use xlink:href="#md1a1d53553" x="954.706612" y="766.931368" style="fill: #d62728; stroke: #d62728"/>
    </g>
   </g>
   <g id="patch_30">
    <path d="M 591.545455 785.785263 
L 591.545455 523.174737 
" style="fill: none; stroke: #000000; stroke-width: 0.8; stroke-linejoin: miter; stroke-linecap: square"/>
   </g>
   <g id="patch_31">
    <path d="M 972 785.785263 
L 972 523.174737 
" style="fill: none; stroke: #000000; stroke-width: 0.8; stroke-linejoin: miter; stroke-linecap: square"/>
   </g>
   <g id="patch_32">
    <path d="M 591.545455 785.785263 
L 972 785.785263 
" style="fill: none; stroke: #000000; stroke-width: 0.8; stroke-linejoin: miter; stroke-linecap: square"/>
   </g>
   <g id="patch_33">
    <path d="M 591.545455 523.174737 
L 972 523.174737 
" style="fill: none; stroke: #000000; stroke-width: 0.8; stroke-linejoin: miter; stroke-linecap: square"/>
   </g>
   <g id="text_45">
    <!-- d -->
    <g transform="translate(544.871761 505.058783) scale(0.28 -0.28)">
     <defs>
      <path id="DejaVuSans-Bold-64" d="M 2919 2988 
L 2919 4863 
L 4044 4863 
L 4044 0 
L 2919 0 
L 2919 506 
Q 2688 197 2409 53 
Q 2131 -91 1766 -91 
Q 1119 -91 703 423 
Q 288 938 288 1747 
Q 288 2556 703 3070 
Q 1119 3584 1766 3584 
Q 2128 3584 2408 3439 
Q 2688 3294 2919 2988 
z
M 2181 722 
Q 2541 722 2730 984 
Q 2919 1247 2919 1747 
Q 2919 2247 2730 2509 
Q 2541 2772 2181 2772 
Q 1825 2772 1636 2509 
Q 1447 2247 1447 1747 
Q 1447 1247 1636 984 
Q 1825 722 2181 722 
z
" transform="scale(0.015625)"/>
     </defs>
     <use xlink:href="#DejaVuSans-Bold-64"/>
    </g>
   </g>
   <g id="text_46">
    <!-- Continuity -->
    <g transform="translate(720.057102 517.174737) scale(0.24 -0.24)">
     <defs>
      <path id="DejaVuSans-79" d="M 2059 -325 
Q 1816 -950 1584 -1140 
Q 1353 -1331 966 -1331 
L 506 -1331 
L 506 -850 
L 844 -850 
Q 1081 -850 1212 -737 
Q 1344 -625 1503 -206 
L 1606 56 
L 191 3500 
L 800 3500 
L 1894 763 
L 2988 3500 
L 3597 3500 
L 2059 -325 
z
" transform="scale(0.015625)"/>
     </defs>
     <use xlink:href="#DejaVuSans-43"/>
     <use xlink:href="#DejaVuSans-6f" x="69.824219"/>
     <use xlink:href="#DejaVuSans-6e" x="131.005859"/>
     <use xlink:href="#DejaVuSans-74" x="194.384766"/>
     <use xlink:href="#DejaVuSans-69" x="233.59375"/>
     <use xlink:href="#DejaVuSans-6e" x="261.376953"/>
     <use xlink:href="#DejaVuSans-75" x="324.755859"/>
     <use xlink:href="#DejaVuSans-69" x="388.134766"/>
     <use xlink:href="#DejaVuSans-74" x="415.917969"/>
     <use xlink:href="#DejaVuSans-79" x="455.126953"/>
    </g>
   </g>
  </g>
  <g id="axes_5">
   <g id="patch_34">
    <path d="M 135 1153.44 
L 515.454545 1153.44 
L 515.454545 890.829474 
L 135 890.829474 
z
" style="fill: #ffffff"/>
   </g>
   <g id="matplotlib.axis_9">
    <g id="xtick_16">
     <g id="line2d_45">
      <g>
       <use xlink:href="#m6c6bf6dee2" x="152.07776" y="1153.44" style="stroke: #000000; stroke-width: 0.8"/>
      </g>
     </g>
     <g id="text_47">
      <!-- 0 -->
      <g transform="translate(145.07901 1177.156562) scale(0.22 -0.22)">
       <use xlink:href="#DejaVuSans-30"/>
      </g>
     </g>
    </g>
    <g id="xtick_17">
     <g id="line2d_46">
      <g>
       <use xlink:href="#m6c6bf6dee2" x="259.891902" y="1153.44" style="stroke: #000000; stroke-width: 0.8"/>
      </g>
     </g>
     <g id="text_48">
      <!-- 500 -->
      <g transform="translate(238.895652 1177.156562) scale(0.22 -0.22)">
       <use xlink:href="#DejaVuSans-35"/>
       <use xlink:href="#DejaVuSans-30" x="63.623047"/>
       <use xlink:href="#DejaVuSans-30" x="127.246094"/>
      </g>
     </g>
    </g>
    <g id="xtick_18">
     <g id="line2d_47">
      <g>
       <use xlink:href="#m6c6bf6dee2" x="367.706045" y="1153.44" style="stroke: #000000; stroke-width: 0.8"/>
      </g>
     </g>
     <g id="text_49">
      <!-- 1000 -->
      <g transform="translate(339.711045 1177.156562) scale(0.22 -0.22)">
       <use xlink:href="#DejaVuSans-31"/>
       <use xlink:href="#DejaVuSans-30" x="63.623047"/>
       <use xlink:href="#DejaVuSans-30" x="127.246094"/>
       <use xlink:href="#DejaVuSans-30" x="190.869141"/>
      </g>
     </g>
    </g>
    <g id="xtick_19">
     <g id="line2d_48">
      <g>
       <use xlink:href="#m6c6bf6dee2" x="475.520187" y="1153.44" style="stroke: #000000; stroke-width: 0.8"/>
      </g>
     </g>
     <g id="text_50">
      <!-- 1500 -->
      <g transform="translate(447.525187 1177.156562) scale(0.22 -0.22)">
       <use xlink:href="#DejaVuSans-31"/>
       <use xlink:href="#DejaVuSans-35" x="63.623047"/>
       <use xlink:href="#DejaVuSans-30" x="127.246094"/>
       <use xlink:href="#DejaVuSans-30" x="190.869141"/>
      </g>
     </g>
    </g>
    <g id="text_51">
     <!-- k -->
     <g transform="translate(318.278523 1203.968125) scale(0.24 -0.24)">
      <use xlink:href="#DejaVuSans-6b"/>
     </g>
    </g>
   </g>
   <g id="matplotlib.axis_10">
    <g id="ytick_18">
     <g id="line2d_49">
      <g>
       <use xlink:href="#m78df0046e0" x="135" y="1093.835104" style="stroke: #000000; stroke-width: 0.8"/>
      </g>
     </g>
     <g id="text_52">
      <!-- 0.25 -->
      <g transform="translate(79.015625 1102.193385) scale(0.22 -0.22)">
       <use xlink:href="#DejaVuSans-30"/>
       <use xlink:href="#DejaVuSans-2e" x="63.623047"/>
       <use xlink:href="#DejaVuSans-32" x="95.410156"/>
       <use xlink:href="#DejaVuSans-35" x="159.033203"/>
      </g>
     </g>
    </g>
    <g id="ytick_19">
     <g id="line2d_50">
      <g>
       <use xlink:href="#m78df0046e0" x="135" y="1030.145508" style="stroke: #000000; stroke-width: 0.8"/>
      </g>
     </g>
     <g id="text_53">
      <!-- 0.50 -->
      <g transform="translate(79.015625 1038.503789) scale(0.22 -0.22)">
       <use xlink:href="#DejaVuSans-30"/>
       <use xlink:href="#DejaVuSans-2e" x="63.623047"/>
       <use xlink:href="#DejaVuSans-35" x="95.410156"/>
       <use xlink:href="#DejaVuSans-30" x="159.033203"/>
      </g>
     </g>
    </g>
    <g id="ytick_20">
     <g id="line2d_51">
      <g>
       <use xlink:href="#m78df0046e0" x="135" y="966.455912" style="stroke: #000000; stroke-width: 0.8"/>
      </g>
     </g>
     <g id="text_54">
      <!-- 0.75 -->
      <g transform="translate(79.015625 974.814193) scale(0.22 -0.22)">
       <use xlink:href="#DejaVuSans-30"/>
       <use xlink:href="#DejaVuSans-2e" x="63.623047"/>
       <use xlink:href="#DejaVuSans-37" x="95.410156"/>
       <use xlink:href="#DejaVuSans-35" x="159.033203"/>
      </g>
     </g>
    </g>
    <g id="ytick_21">
     <g id="line2d_52">
      <g>
       <use xlink:href="#m78df0046e0" x="135" y="902.766316" style="stroke: #000000; stroke-width: 0.8"/>
      </g>
     </g>
     <g id="text_55">
      <!-- 1.00 -->
      <g transform="translate(79.015625 911.124597) scale(0.22 -0.22)">
       <use xlink:href="#DejaVuSans-31"/>
       <use xlink:href="#DejaVuSans-2e" x="63.623047"/>
       <use xlink:href="#DejaVuSans-30" x="95.410156"/>
       <use xlink:href="#DejaVuSans-30" x="159.033203"/>
      </g>
     </g>
    </g>
    <g id="text_56">
     <!-- Metric Value -->
     <g transform="translate(70.024375 1096.210362) rotate(-90) scale(0.24 -0.24)">
      <use xlink:href="#DejaVuSans-4d"/>
      <use xlink:href="#DejaVuSans-65" x="86.279297"/>
      <use xlink:href="#DejaVuSans-74" x="147.802734"/>
      <use xlink:href="#DejaVuSans-72" x="187.011719"/>
      <use xlink:href="#DejaVuSans-69" x="228.125"/>
      <use xlink:href="#DejaVuSans-63" x="255.908203"/>
      <use xlink:href="#DejaVuSans-20" x="310.888672"/>
      <use xlink:href="#DejaVuSans-56" x="342.675781"/>
      <use xlink:href="#DejaVuSans-61" x="403.333984"/>
      <use xlink:href="#DejaVuSans-6c" x="464.613281"/>
      <use xlink:href="#DejaVuSans-75" x="492.396484"/>
      <use xlink:href="#DejaVuSans-65" x="555.775391"/>
     </g>
    </g>
   </g>
   <g id="line2d_53">
    <path d="M 152.293388 1141.503158 
L 152.940273 1124.450526 
L 153.802786 1116.618213 
L 155.096556 1109.256122 
L 155.312184 1108.614051 
L 155.527813 1108.379412 
L 156.390326 1106.438188 
L 156.821582 1105.75392 
L 157.252839 1104.99202 
L 158.115352 1104.032691 
L 159.62475 1102.493988 
L 159.840378 1102.136695 
L 160.271635 1101.845875 
L 161.996661 1100.152682 
L 162.21229 1100.009827 
L 163.290431 1098.773961 
L 164.368572 1097.933023 
L 164.799829 1097.449966 
L 165.87797 1096.541714 
L 166.309227 1096.272224 
L 166.956112 1095.815669 
L 167.818625 1095.098705 
L 168.896766 1094.469621 
L 169.543651 1094.055422 
L 171.268677 1092.746979 
L 171.915562 1092.328127 
L 172.131191 1092.263311 
L 172.993704 1091.628197 
L 174.071845 1091.032656 
L 174.503102 1090.786069 
L 175.149987 1090.351934 
L 175.581243 1090.104409 
L 176.228128 1089.787229 
L 179.678181 1087.527118 
L 180.325065 1087.014657 
L 181.618835 1086.168222 
L 183.128233 1085.160073 
L 184.422003 1084.388211 
L 185.068888 1084.043125 
L 189.165825 1081.299714 
L 191.10648 1079.980471 
L 192.831506 1078.805204 
L 193.694019 1078.17808 
L 194.340904 1077.752862 
L 196.281559 1076.497714 
L 198.437841 1075.0619 
L 199.300354 1074.441425 
L 200.809752 1073.515134 
L 202.31915 1072.548504 
L 203.828548 1071.666022 
L 208.141114 1069.213422 
L 209.650512 1068.297893 
L 213.100565 1066.486153 
L 222.803838 1061.530862 
L 224.96012 1060.510315 
L 228.625801 1058.667473 
L 238.760331 1053.802951 
L 240.269729 1053.130442 
L 246.307321 1050.415552 
L 251.913656 1047.86469 
L 260.970044 1044.00561 
L 262.479442 1043.327837 
L 271.320202 1039.559415 
L 273.260856 1038.737731 
L 280.592218 1035.577491 
L 284.904783 1033.727024 
L 287.276695 1032.681044 
L 289.648606 1031.642788 
L 298.704994 1027.659929 
L 301.72379 1026.310523 
L 311.211434 1022.078851 
L 338.811855 1009.080805 
L 341.183766 1007.866164 
L 343.555677 1006.690369 
L 353.25895 1001.736272 
L 360.80594 997.625717 
L 368.137301 993.522918 
L 378.487459 987.444359 
L 393.581439 977.913184 
L 404.79411 970.448439 
L 420.103718 959.927168 
L 423.985027 957.238125 
L 430.022619 952.996618 
L 441.23529 945.002475 
L 465.601286 927.220949 
L 488.457884 910.014142 
L 498.161157 902.766316 
L 498.161157 902.766316 
" clip-path="url(#p4fded22cea)" style="fill: none; stroke: #1f77b4; stroke-width: 1.5; stroke-linecap: square"/>
   </g>
   <g id="line2d_54">
    <path d="M 152.293388 1077.416989 
L 152.724645 1048.916622 
L 153.155902 1037.030012 
L 153.587158 1028.468571 
L 154.018415 1024.487736 
L 154.234043 1023.387907 
L 154.449671 1023.194668 
L 154.6653 1022.319804 
L 154.880928 1022.201849 
L 155.096556 1022.610624 
L 155.312184 1023.398482 
L 155.959069 1027.254933 
L 156.390326 1030.502424 
L 157.037211 1035.925126 
L 158.762237 1047.031835 
L 160.702892 1057.794565 
L 162.21229 1064.78741 
L 164.152944 1071.762994 
L 165.446714 1075.219208 
L 167.602997 1079.587124 
L 168.46551 1080.904743 
L 171.268677 1084.058024 
L 172.562447 1085.072932 
L 173.42496 1085.57277 
L 174.287473 1085.907498 
L 174.71873 1086.158209 
L 175.581243 1086.518517 
L 176.443756 1086.670823 
L 177.953154 1087.043133 
L 180.756322 1086.864368 
L 181.403207 1086.911409 
L 182.050092 1086.824039 
L 183.128233 1086.537062 
L 188.51894 1084.98801 
L 190.675223 1083.903946 
L 191.537736 1083.698876 
L 192.184621 1083.359611 
L 193.262763 1082.845261 
L 194.125276 1082.44838 
L 201.025381 1079.241573 
L 205.337946 1076.898073 
L 205.984831 1076.651128 
L 209.003627 1075.059784 
L 211.375538 1073.943876 
L 213.100565 1073.292071 
L 214.178706 1072.856401 
L 215.472476 1072.279348 
L 216.334989 1071.893714 
L 218.922528 1070.443959 
L 219.569413 1070.087614 
L 223.450722 1068.322891 
L 224.097607 1068.10109 
L 225.175749 1067.625033 
L 227.116403 1066.736417 
L 232.291482 1063.993212 
L 232.938367 1063.543497 
L 234.232137 1062.83893 
L 235.525906 1062.137356 
L 247.60109 1056.038222 
L 248.89486 1055.450917 
L 252.129284 1053.733044 
L 258.813761 1050.527268 
L 264.635725 1047.763066 
L 269.595175 1045.088663 
L 273.907741 1042.737011 
L 276.926537 1041.061329 
L 282.101616 1038.289785 
L 330.402352 1011.258283 
L 333.205519 1009.506347 
L 348.515127 1000.221019 
L 358.865285 994.002051 
L 361.237196 992.594885 
L 365.76539 989.826977 
L 369.862328 987.345484 
L 378.487459 982.088737 
L 381.937512 979.93418 
L 385.603192 977.71836 
L 392.718926 973.367792 
L 396.600235 970.96719 
L 399.619031 969.109772 
L 414.713011 959.545386 
L 422.906886 954.262182 
L 427.650708 951.197353 
L 431.747645 948.389742 
L 445.116599 939.480964 
L 468.620082 923.108773 
L 481.773407 913.761836 
L 489.104769 908.781131 
L 495.142361 904.991511 
L 498.161157 902.766316 
L 498.161157 902.766316 
" clip-path="url(#p4fded22cea)" style="fill: none; stroke: #ff7f0e; stroke-width: 1.5; stroke-linecap: square"/>
   </g>
   <g id="line2d_55">
    <path d="M 152.293388 1111.046365 
L 152.724645 1073.239755 
L 153.155902 1052.48049 
L 153.802786 1035.994957 
L 154.234043 1030.970379 
L 155.096556 1028.207966 
L 155.312184 1028.12563 
L 156.390326 1034.642644 
L 157.037211 1039.194265 
L 157.684096 1043.805917 
L 158.33098 1048.349568 
L 160.487263 1061.155469 
L 162.21229 1069.539534 
L 163.290431 1073.597688 
L 164.368572 1076.957799 
L 166.524855 1082.133246 
L 168.681138 1085.888197 
L 169.974908 1087.697303 
L 171.484306 1089.019829 
L 174.071845 1090.083992 
L 174.503102 1090.185109 
L 175.149987 1090.39641 
L 176.875013 1090.563895 
L 177.306269 1090.690315 
L 178.168783 1090.836227 
L 178.815667 1090.643332 
L 181.618835 1090.318053 
L 186.362657 1089.056776 
L 188.303312 1088.741976 
L 188.950197 1088.593385 
L 189.597082 1088.51647 
L 190.675223 1088.128443 
L 191.753365 1087.835647 
L 196.281559 1085.979867 
L 197.3597 1085.532757 
L 201.241009 1083.83312 
L 202.103522 1083.436691 
L 203.397292 1082.747061 
L 209.650512 1079.434015 
L 210.728654 1078.938546 
L 217.41313 1075.875721 
L 219.353785 1075.01569 
L 224.097607 1072.726506 
L 226.25389 1071.552784 
L 227.763288 1070.726546 
L 231.428969 1068.654885 
L 232.938367 1067.8654 
L 238.760331 1064.392827 
L 240.269729 1063.546054 
L 241.779127 1062.657616 
L 245.229179 1060.662521 
L 246.738577 1059.886844 
L 249.326117 1058.452542 
L 251.913656 1057.045308 
L 253.854311 1056.057509 
L 257.304363 1054.284441 
L 260.754416 1052.362714 
L 267.007636 1048.904519 
L 269.163919 1047.770285 
L 270.673317 1046.950101 
L 278.220307 1042.81984 
L 280.160961 1041.65066 
L 293.314287 1034.091377 
L 313.367717 1022.749743 
L 344.633818 1004.069046 
L 350.455782 1000.369441 
L 353.043321 998.673795 
L 356.709002 996.29365 
L 359.296542 994.588483 
L 362.099709 992.812451 
L 384.093794 978.839009 
L 408.891047 963.702678 
L 412.125471 961.601545 
L 415.359896 959.51618 
L 426.356938 952.292276 
L 432.178902 948.376404 
L 438.863379 943.995339 
L 453.957359 933.680641 
L 489.751654 908.048889 
L 494.926733 905.11692 
L 498.161157 902.766316 
L 498.161157 902.766316 
" clip-path="url(#p4fded22cea)" style="fill: none; stroke: #2ca02c; stroke-width: 1.5; stroke-linecap: square"/>
   </g>
   <g id="line2d_56">
    <path d="M 152.293388 1102.956279 
L 152.724645 1065.519804 
L 153.37153 1043.919804 
L 153.802786 1034.844896 
L 154.449671 1026.497038 
L 154.6653 1024.619927 
L 155.096556 1023.505746 
L 155.312184 1023.31388 
L 155.743441 1023.632382 
L 155.959069 1024.240979 
L 157.252839 1031.540122 
L 158.33098 1038.186364 
L 158.762237 1040.236368 
L 159.840378 1046.219927 
L 161.996661 1057.012455 
L 162.859174 1060.548367 
L 163.721688 1063.328372 
L 165.87797 1068.568458 
L 168.249881 1072.520636 
L 168.681138 1073.022756 
L 169.759279 1074.364345 
L 170.837421 1075.411333 
L 173.42496 1077.203881 
L 177.090641 1078.467223 
L 177.521898 1078.500507 
L 178.815667 1078.893263 
L 179.678181 1079.02063 
L 182.050092 1079.383305 
L 182.696977 1079.360754 
L 183.55949 1079.433535 
L 184.206375 1079.419549 
L 184.637631 1079.38357 
L 185.068888 1079.28114 
L 185.500144 1079.229455 
L 188.51894 1078.708549 
L 194.340904 1077.442078 
L 195.850302 1077.009867 
L 198.437841 1076.212145 
L 199.947239 1075.710654 
L 201.241009 1075.371508 
L 206.416088 1073.426711 
L 208.141114 1072.920463 
L 211.591167 1072.245449 
L 212.669308 1071.942308 
L 213.316193 1071.72589 
L 214.825591 1071.269156 
L 215.688104 1071.03257 
L 216.981874 1070.650745 
L 220.216298 1069.555309 
L 222.803838 1068.583087 
L 223.450722 1068.384234 
L 227.978916 1066.58289 
L 228.841429 1066.240319 
L 230.135199 1065.71568 
L 231.428969 1065.089178 
L 234.879021 1063.392769 
L 236.172791 1062.664887 
L 237.682189 1061.954045 
L 238.760331 1061.505935 
L 240.0541 1061.014037 
L 241.132242 1060.645319 
L 243.719781 1059.552736 
L 246.522949 1058.268859 
L 249.110488 1057.272499 
L 250.404258 1056.787201 
L 254.069939 1055.14016 
L 257.73562 1053.46399 
L 259.891902 1052.666403 
L 260.754416 1052.315503 
L 262.69507 1051.442628 
L 266.145123 1049.94956 
L 267.870149 1049.108631 
L 268.94829 1048.544438 
L 271.53583 1047.401437 
L 274.554626 1046.027691 
L 278.435935 1044.215046 
L 293.314287 1036.901414 
L 295.470569 1035.741657 
L 298.704994 1034.032621 
L 300.645648 1032.935447 
L 312.505204 1026.622619 
L 316.602141 1024.453155 
L 325.874158 1019.425052 
L 329.108582 1017.509278 
L 332.989891 1015.269537 
L 335.146174 1013.985516 
L 340.536881 1010.872432 
L 356.493374 1001.488687 
L 383.015653 984.699521 
L 390.562643 979.730273 
L 400.481544 972.870202 
L 406.950393 968.364427 
L 411.478587 965.08106 
L 427.003823 953.647698 
L 433.041415 949.209224 
L 447.48851 938.84298 
L 452.232332 935.523345 
L 496.220502 904.201731 
L 498.161157 902.766316 
L 498.161157 902.766316 
" clip-path="url(#p4fded22cea)" style="fill: none; stroke: #d62728; stroke-width: 1.5; stroke-linecap: square"/>
   </g>
   <g id="patch_35">
    <path d="M 135 1153.44 
L 135 890.829474 
" style="fill: none; stroke: #000000; stroke-width: 0.8; stroke-linejoin: miter; stroke-linecap: square"/>
   </g>
   <g id="patch_36">
    <path d="M 515.454545 1153.44 
L 515.454545 890.829474 
" style="fill: none; stroke: #000000; stroke-width: 0.8; stroke-linejoin: miter; stroke-linecap: square"/>
   </g>
   <g id="patch_37">
    <path d="M 135 1153.44 
L 515.454545 1153.44 
" style="fill: none; stroke: #000000; stroke-width: 0.8; stroke-linejoin: miter; stroke-linecap: square"/>
   </g>
   <g id="patch_38">
    <path d="M 135 890.829474 
L 515.454545 890.829474 
" style="fill: none; stroke: #000000; stroke-width: 0.8; stroke-linejoin: miter; stroke-linecap: square"/>
   </g>
   <g id="text_57">
    <!-- e -->
    <g transform="translate(89.376307 872.71352) scale(0.28 -0.28)">
     <defs>
      <path id="DejaVuSans-Bold-65" d="M 4031 1759 
L 4031 1441 
L 1416 1441 
Q 1456 1047 1700 850 
Q 1944 653 2381 653 
Q 2734 653 3104 758 
Q 3475 863 3866 1075 
L 3866 213 
Q 3469 63 3072 -14 
Q 2675 -91 2278 -91 
Q 1328 -91 801 392 
Q 275 875 275 1747 
Q 275 2603 792 3093 
Q 1309 3584 2216 3584 
Q 3041 3584 3536 3087 
Q 4031 2591 4031 1759 
z
M 2881 2131 
Q 2881 2450 2695 2645 
Q 2509 2841 2209 2841 
Q 1884 2841 1681 2658 
Q 1478 2475 1428 2131 
L 2881 2131 
z
" transform="scale(0.015625)"/>
     </defs>
     <use xlink:href="#DejaVuSans-Bold-65"/>
    </g>
   </g>
   <g id="text_58">
    <!-- $Q_{NN}$ -->
    <g transform="translate(302.787273 884.829474) scale(0.24 -0.24)">
     <use xlink:href="#DejaVuSans-Oblique-51" transform="translate(0 0.78125)"/>
     <use xlink:href="#DejaVuSans-Oblique-4e" transform="translate(78.710938 -15.625) scale(0.7)"/>
     <use xlink:href="#DejaVuSans-Oblique-4e" transform="translate(131.074219 -15.625) scale(0.7)"/>
    </g>
   </g>
  </g>
  <g id="axes_6">
   <g id="patch_39">
    <path d="M 591.545455 1153.44 
L 972 1153.44 
L 972 890.829474 
L 591.545455 890.829474 
z
" style="fill: #ffffff"/>
   </g>
   <g id="matplotlib.axis_11">
    <g id="xtick_20">
     <g id="line2d_57">
      <g>
       <use xlink:href="#m6c6bf6dee2" x="608.623215" y="1153.44" style="stroke: #000000; stroke-width: 0.8"/>
      </g>
     </g>
     <g id="text_59">
      <!-- 0 -->
      <g transform="translate(601.624465 1177.156562) scale(0.22 -0.22)">
       <use xlink:href="#DejaVuSans-30"/>
      </g>
     </g>
    </g>
    <g id="xtick_21">
     <g id="line2d_58">
      <g>
       <use xlink:href="#m6c6bf6dee2" x="716.437357" y="1153.44" style="stroke: #000000; stroke-width: 0.8"/>
      </g>
     </g>
     <g id="text_60">
      <!-- 500 -->
      <g transform="translate(695.441107 1177.156562) scale(0.22 -0.22)">
       <use xlink:href="#DejaVuSans-35"/>
       <use xlink:href="#DejaVuSans-30" x="63.623047"/>
       <use xlink:href="#DejaVuSans-30" x="127.246094"/>
      </g>
     </g>
    </g>
    <g id="xtick_22">
     <g id="line2d_59">
      <g>
       <use xlink:href="#m6c6bf6dee2" x="824.251499" y="1153.44" style="stroke: #000000; stroke-width: 0.8"/>
      </g>
     </g>
     <g id="text_61">
      <!-- 1000 -->
      <g transform="translate(796.256499 1177.156562) scale(0.22 -0.22)">
       <use xlink:href="#DejaVuSans-31"/>
       <use xlink:href="#DejaVuSans-30" x="63.623047"/>
       <use xlink:href="#DejaVuSans-30" x="127.246094"/>
       <use xlink:href="#DejaVuSans-30" x="190.869141"/>
      </g>
     </g>
    </g>
    <g id="xtick_23">
     <g id="line2d_60">
      <g>
       <use xlink:href="#m6c6bf6dee2" x="932.065642" y="1153.44" style="stroke: #000000; stroke-width: 0.8"/>
      </g>
     </g>
     <g id="text_62">
      <!-- 1500 -->
      <g transform="translate(904.070642 1177.156562) scale(0.22 -0.22)">
       <use xlink:href="#DejaVuSans-31"/>
       <use xlink:href="#DejaVuSans-35" x="63.623047"/>
       <use xlink:href="#DejaVuSans-30" x="127.246094"/>
       <use xlink:href="#DejaVuSans-30" x="190.869141"/>
      </g>
     </g>
    </g>
    <g id="text_63">
     <!-- k -->
     <g transform="translate(774.823977 1203.968125) scale(0.24 -0.24)">
      <use xlink:href="#DejaVuSans-6b"/>
     </g>
    </g>
   </g>
   <g id="matplotlib.axis_12">
    <g id="ytick_22">
     <g id="line2d_61">
      <g>
       <use xlink:href="#m78df0046e0" x="591.545455" y="1140.619733" style="stroke: #000000; stroke-width: 0.8"/>
      </g>
     </g>
     <g id="text_64">
      <!-- 0.0 -->
      <g transform="translate(549.55858 1148.978014) scale(0.22 -0.22)">
       <use xlink:href="#DejaVuSans-30"/>
       <use xlink:href="#DejaVuSans-2e" x="63.623047"/>
       <use xlink:href="#DejaVuSans-30" x="95.410156"/>
      </g>
     </g>
    </g>
    <g id="ytick_23">
     <g id="line2d_62">
      <g>
       <use xlink:href="#m78df0046e0" x="591.545455" y="1049.704385" style="stroke: #000000; stroke-width: 0.8"/>
      </g>
     </g>
     <g id="text_65">
      <!-- 0.2 -->
      <g transform="translate(549.55858 1058.062666) scale(0.22 -0.22)">
       <use xlink:href="#DejaVuSans-30"/>
       <use xlink:href="#DejaVuSans-2e" x="63.623047"/>
       <use xlink:href="#DejaVuSans-32" x="95.410156"/>
      </g>
     </g>
    </g>
    <g id="ytick_24">
     <g id="line2d_63">
      <g>
       <use xlink:href="#m78df0046e0" x="591.545455" y="958.789037" style="stroke: #000000; stroke-width: 0.8"/>
      </g>
     </g>
     <g id="text_66">
      <!-- 0.4 -->
      <g transform="translate(549.55858 967.147318) scale(0.22 -0.22)">
       <use xlink:href="#DejaVuSans-30"/>
       <use xlink:href="#DejaVuSans-2e" x="63.623047"/>
       <use xlink:href="#DejaVuSans-34" x="95.410156"/>
      </g>
     </g>
    </g>
   </g>
   <g id="line2d_64">
    <path d="M 608.838843 1112.315006 
L 609.485728 1082.736912 
L 610.348241 1069.894268 
L 610.563869 1067.81482 
L 610.995126 1062.500141 
L 611.426382 1059.452273 
L 611.857639 1057.594663 
L 612.073267 1057.459212 
L 612.720152 1055.276353 
L 613.151409 1054.926973 
L 613.798294 1053.680739 
L 614.22955 1053.194828 
L 614.445178 1053.267178 
L 615.092063 1052.898695 
L 615.307692 1052.889132 
L 615.52332 1052.720962 
L 615.738948 1052.897508 
L 615.954576 1052.356057 
L 616.170205 1052.33887 
L 616.385833 1051.984561 
L 616.601461 1052.093112 
L 617.248346 1051.798926 
L 617.679603 1051.372346 
L 617.895231 1051.46029 
L 618.110859 1051.299792 
L 618.326488 1051.379165 
L 618.542116 1051.276651 
L 618.757744 1051.304975 
L 618.973372 1051.084458 
L 619.404629 1050.91333 
L 620.051514 1050.507337 
L 620.698399 1050.427949 
L 620.914027 1050.431495 
L 621.129655 1050.142115 
L 621.560912 1050.078212 
L 622.207797 1049.924862 
L 622.423425 1049.931496 
L 622.639053 1050.059861 
L 623.07031 1050.068533 
L 623.501566 1050.05211 
L 623.717195 1049.963387 
L 624.148451 1049.982048 
L 624.579708 1049.923219 
L 625.010964 1050.042549 
L 625.657849 1050.290864 
L 625.873477 1050.401349 
L 626.304734 1050.324295 
L 627.382875 1050.173257 
L 628.461017 1050.343317 
L 628.676645 1050.510888 
L 629.107902 1050.498779 
L 629.539158 1050.510527 
L 629.970415 1050.627601 
L 631.479813 1051.104144 
L 631.911069 1051.056382 
L 632.773583 1051.473986 
L 633.204839 1051.620918 
L 633.636096 1051.796956 
L 636.439263 1051.874797 
L 636.87052 1051.908045 
L 637.517405 1052.006772 
L 639.458059 1052.185202 
L 640.536201 1052.562123 
L 640.967457 1052.602842 
L 641.398714 1052.782161 
L 642.261227 1052.88753 
L 643.554997 1053.107528 
L 651.533243 1053.913813 
L 652.180128 1054.053564 
L 653.25827 1054.153994 
L 653.905154 1054.17855 
L 654.552039 1054.311396 
L 655.414552 1054.37631 
L 656.061437 1054.467528 
L 657.139579 1054.687988 
L 660.158375 1055.298321 
L 661.883401 1055.947979 
L 662.530286 1056.172554 
L 664.255312 1056.626001 
L 665.980338 1056.963938 
L 667.920993 1057.646348 
L 668.35225 1057.848642 
L 670.077276 1058.503344 
L 672.01793 1059.192934 
L 686.033769 1065.168875 
L 687.758795 1066.00193 
L 689.268193 1066.666098 
L 690.777591 1067.425515 
L 692.718246 1068.339728 
L 697.462068 1070.508598 
L 698.108953 1070.874614 
L 708.45911 1076.081842 
L 713.202933 1078.677842 
L 716.0061 1080.266359 
L 717.946755 1081.29453 
L 719.456153 1082.097754 
L 721.396808 1083.249766 
L 722.690577 1083.941629 
L 723.984347 1084.618527 
L 724.84686 1085.067559 
L 726.787515 1086.166939 
L 730.237567 1088.096167 
L 731.315709 1088.662935 
L 748.997228 1098.175009 
L 750.290998 1098.837879 
L 753.094165 1100.334543 
L 757.406731 1102.591331 
L 768.403774 1108.245993 
L 770.344428 1109.213921 
L 773.363224 1110.730523 
L 794.063539 1120.471845 
L 807.86375 1126.147457 
L 809.588776 1126.801716 
L 812.607572 1127.9204 
L 817.998279 1129.680351 
L 821.232703 1130.693705 
L 823.604614 1131.440177 
L 825.114012 1131.910914 
L 828.132808 1132.811329 
L 829.857835 1133.28801 
L 833.307887 1134.117615 
L 838.05171 1135.10383 
L 852.067548 1137.629333 
L 871.042837 1139.658202 
L 882.03988 1140.502039 
L 890.880639 1140.949183 
L 894.977577 1141.11929 
L 906.621504 1141.295606 
L 909.855928 1141.327245 
L 916.324777 1141.413488 
L 923.224882 1141.478634 
L 932.928155 1141.195119 
L 946.728365 1140.749678 
L 954.706612 1140.619733 
L 954.706612 1140.619733 
" clip-path="url(#pac33e094ac)" style="fill: none; stroke: #1f77b4; stroke-width: 1.5; stroke-linecap: square"/>
   </g>
   <g id="line2d_65">
    <path d="M 608.838843 997.963199 
L 609.2701 947.675174 
L 609.701356 927.031818 
L 610.132613 912.321708 
L 610.348241 907.848699 
L 610.779498 904.105728 
L 610.995126 904.044149 
L 611.210754 902.766316 
L 611.426382 902.839069 
L 611.642011 903.85169 
L 611.857639 905.540725 
L 615.092063 949.444275 
L 616.170205 962.337366 
L 617.679603 978.305261 
L 619.620257 995.235876 
L 620.914027 1004.820875 
L 621.560912 1008.866274 
L 622.639053 1014.421811 
L 623.717195 1019.895493 
L 624.579708 1023.867409 
L 626.735991 1031.29675 
L 627.814132 1034.736928 
L 629.539158 1039.37532 
L 630.401671 1041.130398 
L 632.989211 1046.19647 
L 634.498609 1048.843378 
L 636.654892 1051.499633 
L 639.242431 1054.406513 
L 640.751829 1055.579328 
L 642.908112 1057.449161 
L 643.770625 1058.067622 
L 644.41751 1058.563084 
L 644.848767 1058.898736 
L 645.495651 1059.234395 
L 646.142536 1059.59266 
L 647.220678 1059.952283 
L 648.083191 1060.719269 
L 648.514447 1060.907502 
L 649.161332 1061.128155 
L 650.67073 1061.886658 
L 651.9645 1062.661795 
L 652.611385 1062.918513 
L 654.767668 1063.937959 
L 656.492694 1064.998093 
L 660.589631 1066.10759 
L 662.961542 1067.238785 
L 663.824056 1067.460219 
L 664.47094 1067.785202 
L 665.76471 1068.329816 
L 666.411595 1068.618344 
L 667.274108 1069.047972 
L 668.35225 1069.61408 
L 669.861648 1070.635116 
L 670.292904 1070.916399 
L 670.939789 1071.193426 
L 672.880444 1072.225712 
L 674.821098 1072.891468 
L 675.683611 1073.053165 
L 679.133664 1074.664654 
L 681.289947 1076.01296 
L 684.739999 1077.645444 
L 685.171256 1077.791236 
L 685.602512 1077.973457 
L 686.033769 1078.09846 
L 686.896282 1078.479242 
L 688.40568 1078.989476 
L 690.561963 1079.484844 
L 692.502617 1080.206797 
L 694.443272 1080.925329 
L 695.305785 1081.331303 
L 699.187094 1082.883733 
L 699.833979 1083.141028 
L 700.912121 1083.527245 
L 701.559005 1083.858709 
L 703.715288 1084.771253 
L 706.518456 1086.061983 
L 707.812226 1086.53081 
L 708.890367 1086.927901 
L 709.75288 1087.321448 
L 710.831022 1087.786294 
L 711.909163 1088.211907 
L 712.987304 1088.761498 
L 714.065446 1089.275556 
L 715.143587 1089.774643 
L 716.221729 1090.271687 
L 717.29987 1090.780789 
L 718.162383 1091.189113 
L 722.474949 1093.001932 
L 725.278117 1094.003157 
L 727.650028 1094.876983 
L 728.296913 1095.121216 
L 734.118876 1097.090509 
L 734.98139 1097.405466 
L 741.881495 1099.720961 
L 742.312751 1099.806574 
L 747.272202 1101.340011 
L 747.919087 1101.50464 
L 749.859741 1102.202981 
L 753.74105 1103.420949 
L 755.03482 1103.911839 
L 756.112961 1104.265105 
L 761.503669 1106.024353 
L 762.150553 1106.207353 
L 770.344428 1108.856147 
L 771.638198 1109.18972 
L 775.519507 1110.498875 
L 777.028905 1111.036593 
L 778.753931 1111.545634 
L 780.263329 1111.971607 
L 782.203984 1112.538721 
L 783.282125 1112.836473 
L 786.947806 1113.857438 
L 789.104089 1114.219913 
L 792.122885 1114.951482 
L 795.141681 1115.671557 
L 796.435451 1116.022634 
L 800.748016 1117.14783 
L 803.551184 1117.664008 
L 805.707467 1118.063604 
L 811.313802 1119.333401 
L 814.332598 1120.158329 
L 815.841996 1120.58375 
L 817.998279 1121.11513 
L 827.485924 1123.26029 
L 831.367233 1124.174626 
L 833.523516 1124.680731 
L 842.364275 1126.570976 
L 843.873673 1126.937804 
L 848.401867 1127.923872 
L 853.145689 1128.914437 
L 855.086344 1129.361411 
L 860.045795 1130.308853 
L 865.436502 1131.317327 
L 870.827209 1132.263567 
L 874.277261 1132.802958 
L 876.217916 1133.139929 
L 880.530482 1133.875877 
L 883.333649 1134.320728 
L 895.408833 1135.792389 
L 899.937027 1136.326899 
L 904.249593 1136.681225 
L 906.621504 1136.807374 
L 910.287185 1137.044785 
L 924.087395 1138.077044 
L 930.771872 1138.341828 
L 936.378207 1138.611481 
L 940.259516 1138.817972 
L 945.003339 1139.303058 
L 948.453391 1140.161488 
L 949.962789 1140.493371 
L 952.119072 1140.633963 
L 954.706612 1140.619733 
L 954.706612 1140.619733 
" clip-path="url(#pac33e094ac)" style="fill: none; stroke: #ff7f0e; stroke-width: 1.5; stroke-linecap: square"/>
   </g>
   <g id="line2d_66">
    <path d="M 608.838843 1057.969593 
L 609.2701 991.076025 
L 609.701356 954.600793 
L 610.348241 926.034599 
L 610.779498 917.635472 
L 611.210754 915.24406 
L 611.426382 913.877981 
L 611.642011 913.839277 
L 611.857639 913.975586 
L 612.93578 927.020311 
L 613.582665 935.991648 
L 614.22955 945.070099 
L 614.876435 954.027215 
L 617.032718 979.709609 
L 618.757744 996.935472 
L 619.835885 1005.592744 
L 621.129655 1014.25345 
L 623.285938 1026.063468 
L 624.364079 1031.034472 
L 625.226593 1034.603881 
L 626.520362 1039.531303 
L 628.02976 1043.873722 
L 630.6173 1049.17126 
L 631.264185 1050.36448 
L 634.714237 1055.894789 
L 635.145494 1056.157042 
L 638.595546 1059.928438 
L 639.889316 1060.95041 
L 640.967457 1061.775518 
L 641.398714 1062.186093 
L 642.476855 1063.039704 
L 646.573793 1067.009777 
L 649.592589 1069.220604 
L 650.239474 1069.491137 
L 651.101987 1070.110611 
L 653.689526 1071.472095 
L 654.120783 1071.743225 
L 654.552039 1071.909604 
L 655.414552 1072.422316 
L 656.061437 1072.715185 
L 658.433348 1074.064303 
L 660.374003 1074.747015 
L 663.177171 1075.801372 
L 665.333454 1076.50654 
L 668.136621 1077.888953 
L 671.155417 1079.316583 
L 672.664815 1080.090088 
L 673.958585 1080.747111 
L 675.467983 1081.597505 
L 676.546124 1082.12547 
L 677.839894 1082.638065 
L 678.486779 1082.924387 
L 680.211805 1083.743652 
L 681.721203 1084.264255 
L 684.739999 1085.247676 
L 685.171256 1085.352233 
L 687.543167 1086.09139 
L 689.268193 1086.779986 
L 690.777591 1087.151283 
L 691.855733 1087.305932 
L 697.677696 1089.000824 
L 698.324581 1089.165926 
L 700.696492 1089.827082 
L 704.577801 1091.163994 
L 705.440315 1091.399214 
L 714.927959 1094.961245 
L 717.731127 1095.871429 
L 721.181179 1097.055002 
L 724.199975 1097.946395 
L 725.709373 1098.571422 
L 726.787515 1098.973358 
L 729.375054 1099.871989 
L 731.10008 1100.492057 
L 734.334505 1101.548173 
L 736.706416 1102.096396 
L 746.840945 1104.95688 
L 748.7816 1105.58098 
L 750.722254 1106.161877 
L 758.269244 1108.680906 
L 770.1288 1112.042186 
L 774.656994 1113.124059 
L 784.144638 1115.731528 
L 793.201026 1118.08213 
L 794.279168 1118.330816 
L 806.354352 1120.650089 
L 817.351394 1122.301611 
L 819.723305 1122.799255 
L 821.232703 1123.061716 
L 824.898384 1123.676806 
L 829.642206 1124.515374 
L 831.798489 1124.89928 
L 835.46417 1125.442852 
L 839.776736 1126.292489 
L 842.148647 1126.915448 
L 845.5987 1127.67456 
L 849.911265 1128.655071 
L 851.205035 1128.955987 
L 855.301972 1129.805085 
L 860.045795 1131.086145 
L 866.730271 1132.282606 
L 877.296057 1133.887959 
L 878.374199 1134.116637 
L 881.392995 1134.519528 
L 887.861843 1135.254232 
L 890.018126 1135.571933 
L 891.958781 1135.87721 
L 895.84009 1136.350715 
L 898.858886 1136.751633 
L 900.368284 1136.981845 
L 906.837132 1137.482188 
L 909.6403 1137.67777 
L 911.580955 1137.75095 
L 913.737237 1137.837549 
L 918.912316 1137.954896 
L 922.362369 1138.031054 
L 924.518652 1138.080061 
L 927.753076 1138.133823 
L 932.928155 1138.200144 
L 946.08148 1138.935726 
L 947.590878 1139.476315 
L 949.315904 1140.13844 
L 951.256559 1140.546728 
L 953.197214 1140.622041 
L 954.706612 1140.619733 
L 954.706612 1140.619733 
" clip-path="url(#pac33e094ac)" style="fill: none; stroke: #2ca02c; stroke-width: 1.5; stroke-linecap: square"/>
   </g>
   <g id="line2d_67">
    <path d="M 608.838843 1043.534092 
L 609.2701 977.300973 
L 609.916984 939.608806 
L 610.348241 923.982494 
L 610.779498 913.050078 
L 611.210754 906.870527 
L 611.426382 905.865516 
L 611.642011 905.448895 
L 611.857639 905.389766 
L 612.288896 906.524535 
L 612.504524 907.893706 
L 613.798294 922.617245 
L 614.876435 935.892557 
L 615.307692 940.116921 
L 616.385833 952.209779 
L 618.757744 976.327094 
L 620.267142 987.835197 
L 622.423425 1000.017569 
L 624.795336 1010.185097 
L 625.442221 1012.473969 
L 626.089106 1014.77155 
L 627.598504 1019.303713 
L 628.461017 1021.564615 
L 629.107902 1023.272441 
L 630.186043 1025.75909 
L 635.792379 1036.232805 
L 639.889316 1042.351161 
L 641.183086 1043.956064 
L 641.614342 1044.339746 
L 642.045599 1044.813971 
L 644.633138 1047.434529 
L 645.71128 1048.3695 
L 646.358165 1049.186941 
L 646.573793 1049.291873 
L 648.298819 1051.051781 
L 649.161332 1051.760437 
L 650.023845 1052.454336 
L 650.886358 1053.236916 
L 651.748872 1053.859434 
L 652.395756 1054.44828 
L 653.25827 1055.050999 
L 653.689526 1055.358615 
L 655.414552 1056.682442 
L 657.139579 1058.104704 
L 657.786464 1058.605518 
L 659.295862 1059.441763 
L 659.727118 1059.682038 
L 660.374003 1060.067385 
L 663.824056 1062.519023 
L 665.333454 1063.888796 
L 666.195967 1064.626281 
L 667.274108 1065.748161 
L 668.567878 1067.033249 
L 670.508532 1068.461285 
L 677.193009 1073.392033 
L 681.721203 1076.325523 
L 682.368088 1076.694413 
L 683.230601 1077.234412 
L 684.524371 1078.043542 
L 685.171256 1078.399593 
L 686.249397 1079.122415 
L 688.836937 1080.27263 
L 690.130706 1080.876937 
L 692.502617 1081.753016 
L 693.365131 1082.085647 
L 694.443272 1082.686918 
L 696.815183 1084.156106 
L 698.108953 1085.006604 
L 698.971466 1085.442995 
L 700.265236 1086.174779 
L 701.343377 1086.745762 
L 703.930917 1088.048001 
L 709.105995 1091.247296 
L 711.04665 1092.095938 
L 716.221729 1094.954758 
L 717.084242 1095.536515 
L 719.240525 1096.627385 
L 721.828064 1098.086213 
L 727.218771 1100.572141 
L 728.296913 1101.122365 
L 737.353301 1105.475693 
L 739.509583 1106.407435 
L 740.587725 1106.90099 
L 741.23461 1107.099205 
L 742.097123 1107.522535 
L 743.606521 1108.18537 
L 745.978432 1109.254975 
L 753.525422 1112.258962 
L 758.269244 1113.823508 
L 759.994271 1114.426022 
L 764.738093 1116.183918 
L 765.600606 1116.531097 
L 771.42257 1118.628569 
L 772.500711 1119.017086 
L 776.38202 1120.42252 
L 778.322675 1121.11449 
L 782.419612 1122.482034 
L 785.007152 1123.095226 
L 788.888461 1124.282268 
L 790.613487 1124.632434 
L 791.907257 1125.024449 
L 798.160477 1126.857044 
L 799.885503 1127.30628 
L 801.394901 1127.636193 
L 802.473043 1127.925205 
L 803.335556 1128.162454 
L 806.354352 1129.076122 
L 814.332598 1130.95929 
L 815.195111 1131.128081 
L 817.135766 1131.529852 
L 818.429536 1131.770411 
L 823.820243 1132.64517 
L 827.054667 1133.512033 
L 828.995322 1133.882714 
L 830.289091 1134.079987 
L 833.307887 1134.528878 
L 834.1704 1134.600663 
L 837.189196 1135.183873 
L 839.992364 1135.641008 
L 841.501762 1135.816215 
L 845.814328 1136.530934 
L 847.539354 1136.645014 
L 850.126894 1136.734267 
L 853.145689 1136.876501 
L 861.339564 1137.758768 
L 865.867758 1137.972823 
L 868.024041 1137.954104 
L 877.942942 1138.002484 
L 879.667969 1137.96093 
L 899.721399 1138.232794 
L 907.915274 1138.68944 
L 913.521609 1138.99625 
L 937.887605 1140.311435 
L 942.415799 1140.556289 
L 951.687816 1140.651422 
L 954.706612 1140.619733 
L 954.706612 1140.619733 
" clip-path="url(#pac33e094ac)" style="fill: none; stroke: #d62728; stroke-width: 1.5; stroke-linecap: square"/>
   </g>
   <g id="patch_40">
    <path d="M 591.545455 1153.44 
L 591.545455 890.829474 
" style="fill: none; stroke: #000000; stroke-width: 0.8; stroke-linejoin: miter; stroke-linecap: square"/>
   </g>
   <g id="patch_41">
    <path d="M 972 1153.44 
L 972 890.829474 
" style="fill: none; stroke: #000000; stroke-width: 0.8; stroke-linejoin: miter; stroke-linecap: square"/>
   </g>
   <g id="patch_42">
    <path d="M 591.545455 1153.44 
L 972 1153.44 
" style="fill: none; stroke: #000000; stroke-width: 0.8; stroke-linejoin: miter; stroke-linecap: square"/>
   </g>
   <g id="patch_43">
    <path d="M 591.545455 890.829474 
L 972 890.829474 
" style="fill: none; stroke: #000000; stroke-width: 0.8; stroke-linejoin: miter; stroke-linecap: square"/>
   </g>
   <g id="text_67">
    <!-- f -->
    <g transform="translate(552.733636 872.71352) scale(0.28 -0.28)">
     <defs>
      <path id="DejaVuSans-Bold-66" d="M 2841 4863 
L 2841 4128 
L 2222 4128 
Q 1984 4128 1890 4042 
Q 1797 3956 1797 3744 
L 1797 3500 
L 2753 3500 
L 2753 2700 
L 1797 2700 
L 1797 0 
L 678 0 
L 678 2700 
L 122 2700 
L 122 3500 
L 678 3500 
L 678 3744 
Q 678 4316 997 4589 
Q 1316 4863 1984 4863 
L 2841 4863 
z
" transform="scale(0.015625)"/>
     </defs>
     <use xlink:href="#DejaVuSans-Bold-66"/>
    </g>
   </g>
   <g id="text_68">
    <!-- LCMC -->
    <g transform="translate(747.973977 884.829474) scale(0.24 -0.24)">
     <defs>
      <path id="DejaVuSans-4c" d="M 628 4666 
L 1259 4666 
L 1259 531 
L 3531 531 
L 3531 0 
L 628 0 
L 628 4666 
z
" transform="scale(0.015625)"/>
     </defs>
     <use xlink:href="#DejaVuSans-4c"/>
     <use xlink:href="#DejaVuSans-43" x="55.712891"/>
     <use xlink:href="#DejaVuSans-4d" x="125.537109"/>
     <use xlink:href="#DejaVuSans-43" x="211.816406"/>
    </g>
   </g>
  </g>
 </g>
 <defs>
  <clipPath id="p97055b9d05">
   <rect x="135" y="155.52" width="380.454545" height="262.610526"/>
  </clipPath>
  <clipPath id="p01898876b0">
   <rect x="591.545455" y="155.52" width="380.454545" height="262.610526"/>
  </clipPath>
  <clipPath id="pdf776ab323">
   <rect x="135" y="523.174737" width="380.454545" height="262.610526"/>
  </clipPath>
  <clipPath id="p37f2e9f3e5">
   <rect x="591.545455" y="523.174737" width="380.454545" height="262.610526"/>
  </clipPath>
  <clipPath id="p4fded22cea">
   <rect x="135" y="890.829474" width="380.454545" height="262.610526"/>
  </clipPath>
  <clipPath id="pac33e094ac">
   <rect x="591.545455" y="890.829474" width="380.454545" height="262.610526"/>
  </clipPath>
 </defs>
</svg>
