<?xml version="1.0" encoding="utf-8" standalone="no"?>
<!DOCTYPE svg PUBLIC "-//W3C//DTD SVG 1.1//EN"
  "http://www.w3.org/Graphics/SVG/1.1/DTD/svg11.dtd">
<svg xmlns:xlink="http://www.w3.org/1999/xlink" width="1080pt" height="1296pt" viewBox="0 0 1080 1296" xmlns="http://www.w3.org/2000/svg" version="1.1">
 <metadata>
  <rdf:RDF xmlns:dc="http://purl.org/dc/elements/1.1/" xmlns:cc="http://creativecommons.org/ns#" xmlns:rdf="http://www.w3.org/1999/02/22-rdf-syntax-ns#">
   <cc:Work>
    <dc:type rdf:resource="http://purl.org/dc/dcmitype/StillImage"/>
    <dc:date>2024-07-24T03:58:19.263909</dc:date>
    <dc:format>image/svg+xml</dc:format>
    <dc:creator>
     <cc:Agent>
      <dc:title>Matplotlib v3.8.4, https://matplotlib.org/</dc:title>
     </cc:Agent>
    </dc:creator>
   </cc:Work>
  </rdf:RDF>
 </metadata>
 <defs>
  <style type="text/css">*{stroke-linejoin: round; stroke-linecap: butt}</style>
 </defs>
 <g id="figure_1">
  <g id="patch_1">
   <path d="M 0 1296 
L 1080 1296 
L 1080 0 
L 0 0 
z
" style="fill: #ffffff"/>
  </g>
  <g id="axes_1">
   <g id="patch_2">
    <path d="M 135 418.130526 
L 515.454545 418.130526 
L 515.454545 155.52 
L 135 155.52 
z
" style="fill: #ffffff"/>
   </g>
   <g id="matplotlib.axis_1">
    <g id="xtick_1">
     <g id="line2d_1">
      <defs>
       <path id="mc2cb8a5772" d="M 0 0 
L 0 3.5 
" style="stroke: #000000; stroke-width: 0.8"/>
      </defs>
      <g>
       <use xlink:href="#mc2cb8a5772" x="137.882231" y="418.130526" style="stroke: #000000; stroke-width: 0.8"/>
      </g>
     </g>
     <g id="text_1">
      <!-- 0 -->
      <g transform="translate(131.519731 440.327401) scale(0.2 -0.2)">
       <defs>
        <path id="DejaVuSans-30" d="M 2034 4250 
Q 1547 4250 1301 3770 
Q 1056 3291 1056 2328 
Q 1056 1369 1301 889 
Q 1547 409 2034 409 
Q 2525 409 2770 889 
Q 3016 1369 3016 2328 
Q 3016 3291 2770 3770 
Q 2525 4250 2034 4250 
z
M 2034 4750 
Q 2819 4750 3233 4129 
Q 3647 3509 3647 2328 
Q 3647 1150 3233 529 
Q 2819 -91 2034 -91 
Q 1250 -91 836 529 
Q 422 1150 422 2328 
Q 422 3509 836 4129 
Q 1250 4750 2034 4750 
z
" transform="scale(0.015625)"/>
       </defs>
       <use xlink:href="#DejaVuSans-30"/>
      </g>
     </g>
    </g>
    <g id="xtick_2">
     <g id="line2d_2">
      <g>
       <use xlink:href="#mc2cb8a5772" x="209.938017" y="418.130526" style="stroke: #000000; stroke-width: 0.8"/>
      </g>
     </g>
     <g id="text_2">
      <!-- 10 -->
      <g transform="translate(197.213017 440.327401) scale(0.2 -0.2)">
       <defs>
        <path id="DejaVuSans-31" d="M 794 531 
L 1825 531 
L 1825 4091 
L 703 3866 
L 703 4441 
L 1819 4666 
L 2450 4666 
L 2450 531 
L 3481 531 
L 3481 0 
L 794 0 
L 794 531 
z
" transform="scale(0.015625)"/>
       </defs>
       <use xlink:href="#DejaVuSans-31"/>
       <use xlink:href="#DejaVuSans-30" x="63.623047"/>
      </g>
     </g>
    </g>
    <g id="xtick_3">
     <g id="line2d_3">
      <g>
       <use xlink:href="#mc2cb8a5772" x="281.993802" y="418.130526" style="stroke: #000000; stroke-width: 0.8"/>
      </g>
     </g>
     <g id="text_3">
      <!-- 20 -->
      <g transform="translate(269.268802 440.327401) scale(0.2 -0.2)">
       <defs>
        <path id="DejaVuSans-32" d="M 1228 531 
L 3431 531 
L 3431 0 
L 469 0 
L 469 531 
Q 828 903 1448 1529 
Q 2069 2156 2228 2338 
Q 2531 2678 2651 2914 
Q 2772 3150 2772 3378 
Q 2772 3750 2511 3984 
Q 2250 4219 1831 4219 
Q 1534 4219 1204 4116 
Q 875 4013 500 3803 
L 500 4441 
Q 881 4594 1212 4672 
Q 1544 4750 1819 4750 
Q 2544 4750 2975 4387 
Q 3406 4025 3406 3419 
Q 3406 3131 3298 2873 
Q 3191 2616 2906 2266 
Q 2828 2175 2409 1742 
Q 1991 1309 1228 531 
z
" transform="scale(0.015625)"/>
       </defs>
       <use xlink:href="#DejaVuSans-32"/>
       <use xlink:href="#DejaVuSans-30" x="63.623047"/>
      </g>
     </g>
    </g>
    <g id="xtick_4">
     <g id="line2d_4">
      <g>
       <use xlink:href="#mc2cb8a5772" x="354.049587" y="418.130526" style="stroke: #000000; stroke-width: 0.8"/>
      </g>
     </g>
     <g id="text_4">
      <!-- 30 -->
      <g transform="translate(341.324587 440.327401) scale(0.2 -0.2)">
       <defs>
        <path id="DejaVuSans-33" d="M 2597 2516 
Q 3050 2419 3304 2112 
Q 3559 1806 3559 1356 
Q 3559 666 3084 287 
Q 2609 -91 1734 -91 
Q 1441 -91 1130 -33 
Q 819 25 488 141 
L 488 750 
Q 750 597 1062 519 
Q 1375 441 1716 441 
Q 2309 441 2620 675 
Q 2931 909 2931 1356 
Q 2931 1769 2642 2001 
Q 2353 2234 1838 2234 
L 1294 2234 
L 1294 2753 
L 1863 2753 
Q 2328 2753 2575 2939 
Q 2822 3125 2822 3475 
Q 2822 3834 2567 4026 
Q 2313 4219 1838 4219 
Q 1578 4219 1281 4162 
Q 984 4106 628 3988 
L 628 4550 
Q 988 4650 1302 4700 
Q 1616 4750 1894 4750 
Q 2613 4750 3031 4423 
Q 3450 4097 3450 3541 
Q 3450 3153 3228 2886 
Q 3006 2619 2597 2516 
z
" transform="scale(0.015625)"/>
       </defs>
       <use xlink:href="#DejaVuSans-33"/>
       <use xlink:href="#DejaVuSans-30" x="63.623047"/>
      </g>
     </g>
    </g>
    <g id="xtick_5">
     <g id="line2d_5">
      <g>
       <use xlink:href="#mc2cb8a5772" x="426.105372" y="418.130526" style="stroke: #000000; stroke-width: 0.8"/>
      </g>
     </g>
     <g id="text_5">
      <!-- 40 -->
      <g transform="translate(413.380372 440.327401) scale(0.2 -0.2)">
       <defs>
        <path id="DejaVuSans-34" d="M 2419 4116 
L 825 1625 
L 2419 1625 
L 2419 4116 
z
M 2253 4666 
L 3047 4666 
L 3047 1625 
L 3713 1625 
L 3713 1100 
L 3047 1100 
L 3047 0 
L 2419 0 
L 2419 1100 
L 313 1100 
L 313 1709 
L 2253 4666 
z
" transform="scale(0.015625)"/>
       </defs>
       <use xlink:href="#DejaVuSans-34"/>
       <use xlink:href="#DejaVuSans-30" x="63.623047"/>
      </g>
     </g>
    </g>
    <g id="xtick_6">
     <g id="line2d_6">
      <g>
       <use xlink:href="#mc2cb8a5772" x="498.161157" y="418.130526" style="stroke: #000000; stroke-width: 0.8"/>
      </g>
     </g>
     <g id="text_6">
      <!-- 50 -->
      <g transform="translate(485.436157 440.327401) scale(0.2 -0.2)">
       <defs>
        <path id="DejaVuSans-35" d="M 691 4666 
L 3169 4666 
L 3169 4134 
L 1269 4134 
L 1269 2991 
Q 1406 3038 1543 3061 
Q 1681 3084 1819 3084 
Q 2600 3084 3056 2656 
Q 3513 2228 3513 1497 
Q 3513 744 3044 326 
Q 2575 -91 1722 -91 
Q 1428 -91 1123 -41 
Q 819 9 494 109 
L 494 744 
Q 775 591 1075 516 
Q 1375 441 1709 441 
Q 2250 441 2565 725 
Q 2881 1009 2881 1497 
Q 2881 1984 2565 2268 
Q 2250 2553 1709 2553 
Q 1456 2553 1204 2497 
Q 953 2441 691 2322 
L 691 4666 
z
" transform="scale(0.015625)"/>
       </defs>
       <use xlink:href="#DejaVuSans-35"/>
       <use xlink:href="#DejaVuSans-30" x="63.623047"/>
      </g>
     </g>
    </g>
    <g id="text_7">
     <!-- k -->
     <g transform="translate(318.278523 466.723026) scale(0.24 -0.24)">
      <defs>
       <path id="DejaVuSans-6b" d="M 581 4863 
L 1159 4863 
L 1159 1991 
L 2875 3500 
L 3609 3500 
L 1753 1863 
L 3688 0 
L 2938 0 
L 1159 1709 
L 1159 0 
L 581 0 
L 581 4863 
z
" transform="scale(0.015625)"/>
      </defs>
      <use xlink:href="#DejaVuSans-6b"/>
     </g>
    </g>
   </g>
   <g id="matplotlib.axis_2">
    <g id="ytick_1">
     <g id="line2d_7">
      <defs>
       <path id="m5c0000f902" d="M 0 0 
L -3.5 0 
" style="stroke: #000000; stroke-width: 0.8"/>
      </defs>
      <g>
       <use xlink:href="#m5c0000f902" x="135" y="418.130526" style="stroke: #000000; stroke-width: 0.8"/>
      </g>
     </g>
     <g id="text_8">
      <!-- 0.0 -->
      <g transform="translate(96.19375 425.728964) scale(0.2 -0.2)">
       <defs>
        <path id="DejaVuSans-2e" d="M 684 794 
L 1344 794 
L 1344 0 
L 684 0 
L 684 794 
z
" transform="scale(0.015625)"/>
       </defs>
       <use xlink:href="#DejaVuSans-30"/>
       <use xlink:href="#DejaVuSans-2e" x="63.623047"/>
       <use xlink:href="#DejaVuSans-30" x="95.410156"/>
      </g>
     </g>
    </g>
    <g id="ytick_2">
     <g id="line2d_8">
      <g>
       <use xlink:href="#m5c0000f902" x="135" y="352.477895" style="stroke: #000000; stroke-width: 0.8"/>
      </g>
     </g>
     <g id="text_9">
      <!-- 0.2 -->
      <g transform="translate(96.19375 360.076332) scale(0.2 -0.2)">
       <use xlink:href="#DejaVuSans-30"/>
       <use xlink:href="#DejaVuSans-2e" x="63.623047"/>
       <use xlink:href="#DejaVuSans-32" x="95.410156"/>
      </g>
     </g>
    </g>
    <g id="ytick_3">
     <g id="line2d_9">
      <g>
       <use xlink:href="#m5c0000f902" x="135" y="286.825263" style="stroke: #000000; stroke-width: 0.8"/>
      </g>
     </g>
     <g id="text_10">
      <!-- 0.4 -->
      <g transform="translate(96.19375 294.423701) scale(0.2 -0.2)">
       <use xlink:href="#DejaVuSans-30"/>
       <use xlink:href="#DejaVuSans-2e" x="63.623047"/>
       <use xlink:href="#DejaVuSans-34" x="95.410156"/>
      </g>
     </g>
    </g>
    <g id="ytick_4">
     <g id="line2d_10">
      <g>
       <use xlink:href="#m5c0000f902" x="135" y="221.172632" style="stroke: #000000; stroke-width: 0.8"/>
      </g>
     </g>
     <g id="text_11">
      <!-- 0.6 -->
      <g transform="translate(96.19375 228.771069) scale(0.2 -0.2)">
       <defs>
        <path id="DejaVuSans-36" d="M 2113 2584 
Q 1688 2584 1439 2293 
Q 1191 2003 1191 1497 
Q 1191 994 1439 701 
Q 1688 409 2113 409 
Q 2538 409 2786 701 
Q 3034 994 3034 1497 
Q 3034 2003 2786 2293 
Q 2538 2584 2113 2584 
z
M 3366 4563 
L 3366 3988 
Q 3128 4100 2886 4159 
Q 2644 4219 2406 4219 
Q 1781 4219 1451 3797 
Q 1122 3375 1075 2522 
Q 1259 2794 1537 2939 
Q 1816 3084 2150 3084 
Q 2853 3084 3261 2657 
Q 3669 2231 3669 1497 
Q 3669 778 3244 343 
Q 2819 -91 2113 -91 
Q 1303 -91 875 529 
Q 447 1150 447 2328 
Q 447 3434 972 4092 
Q 1497 4750 2381 4750 
Q 2619 4750 2861 4703 
Q 3103 4656 3366 4563 
z
" transform="scale(0.015625)"/>
       </defs>
       <use xlink:href="#DejaVuSans-30"/>
       <use xlink:href="#DejaVuSans-2e" x="63.623047"/>
       <use xlink:href="#DejaVuSans-36" x="95.410156"/>
      </g>
     </g>
    </g>
    <g id="ytick_5">
     <g id="line2d_11">
      <g>
       <use xlink:href="#m5c0000f902" x="135" y="155.52" style="stroke: #000000; stroke-width: 0.8"/>
      </g>
     </g>
     <g id="text_12">
      <!-- 0.8 -->
      <g transform="translate(96.19375 163.118438) scale(0.2 -0.2)">
       <defs>
        <path id="DejaVuSans-38" d="M 2034 2216 
Q 1584 2216 1326 1975 
Q 1069 1734 1069 1313 
Q 1069 891 1326 650 
Q 1584 409 2034 409 
Q 2484 409 2743 651 
Q 3003 894 3003 1313 
Q 3003 1734 2745 1975 
Q 2488 2216 2034 2216 
z
M 1403 2484 
Q 997 2584 770 2862 
Q 544 3141 544 3541 
Q 544 4100 942 4425 
Q 1341 4750 2034 4750 
Q 2731 4750 3128 4425 
Q 3525 4100 3525 3541 
Q 3525 3141 3298 2862 
Q 3072 2584 2669 2484 
Q 3125 2378 3379 2068 
Q 3634 1759 3634 1313 
Q 3634 634 3220 271 
Q 2806 -91 2034 -91 
Q 1263 -91 848 271 
Q 434 634 434 1313 
Q 434 1759 690 2068 
Q 947 2378 1403 2484 
z
M 1172 3481 
Q 1172 3119 1398 2916 
Q 1625 2713 2034 2713 
Q 2441 2713 2670 2916 
Q 2900 3119 2900 3481 
Q 2900 3844 2670 4047 
Q 2441 4250 2034 4250 
Q 1625 4250 1398 4047 
Q 1172 3844 1172 3481 
z
" transform="scale(0.015625)"/>
       </defs>
       <use xlink:href="#DejaVuSans-30"/>
       <use xlink:href="#DejaVuSans-2e" x="63.623047"/>
       <use xlink:href="#DejaVuSans-38" x="95.410156"/>
      </g>
     </g>
    </g>
    <g id="text_13">
     <!-- $P_{NN}$ -->
     <g transform="translate(87.2025 306.985263) rotate(-90) scale(0.24 -0.24)">
      <defs>
       <path id="DejaVuSans-Oblique-50" d="M 1081 4666 
L 2541 4666 
Q 3178 4666 3512 4369 
Q 3847 4072 3847 3500 
Q 3847 2731 3353 2303 
Q 2859 1875 1966 1875 
L 1172 1875 
L 806 0 
L 172 0 
L 1081 4666 
z
M 1613 4147 
L 1275 2394 
L 2069 2394 
Q 2606 2394 2893 2669 
Q 3181 2944 3181 3456 
Q 3181 3784 2986 3965 
Q 2791 4147 2438 4147 
L 1613 4147 
z
" transform="scale(0.015625)"/>
       <path id="DejaVuSans-Oblique-4e" d="M 1081 4666 
L 1931 4666 
L 3219 666 
L 4000 4666 
L 4616 4666 
L 3706 0 
L 2853 0 
L 1569 4025 
L 788 0 
L 172 0 
L 1081 4666 
z
" transform="scale(0.015625)"/>
      </defs>
      <use xlink:href="#DejaVuSans-Oblique-50" transform="translate(0 0.09375)"/>
      <use xlink:href="#DejaVuSans-Oblique-4e" transform="translate(60.302734 -16.3125) scale(0.7)"/>
      <use xlink:href="#DejaVuSans-Oblique-4e" transform="translate(112.666016 -16.3125) scale(0.7)"/>
     </g>
    </g>
   </g>
   <g id="line2d_12">
    <path d="M 152.293388 382.087846 
L 173.910124 372.681191 
L 209.938017 366.555552 
L 281.993802 359.209633 
L 498.161157 346.917948 
" clip-path="url(#pfccb5353c8)" style="fill: none; stroke: #1f77b4; stroke-width: 1.5; stroke-linecap: square"/>
    <defs>
     <path id="m6598313d18" d="M 0 3 
C 0.795609 3 1.55874 2.683901 2.12132 2.12132 
C 2.683901 1.55874 3 0.795609 3 0 
C 3 -0.795609 2.683901 -1.55874 2.12132 -2.12132 
C 1.55874 -2.683901 0.795609 -3 0 -3 
C -0.795609 -3 -1.55874 -2.683901 -2.12132 -2.12132 
C -2.683901 -1.55874 -3 -0.795609 -3 0 
C -3 0.795609 -2.683901 1.55874 -2.12132 2.12132 
C -1.55874 2.683901 -0.795609 3 0 3 
z
" style="stroke: #1f77b4"/>
    </defs>
    <g clip-path="url(#pfccb5353c8)">
     <use xlink:href="#m6598313d18" x="152.293388" y="382.087846" style="fill: #1f77b4; stroke: #1f77b4"/>
     <use xlink:href="#m6598313d18" x="173.910124" y="372.681191" style="fill: #1f77b4; stroke: #1f77b4"/>
     <use xlink:href="#m6598313d18" x="209.938017" y="366.555552" style="fill: #1f77b4; stroke: #1f77b4"/>
     <use xlink:href="#m6598313d18" x="281.993802" y="359.209633" style="fill: #1f77b4; stroke: #1f77b4"/>
     <use xlink:href="#m6598313d18" x="498.161157" y="346.917948" style="fill: #1f77b4; stroke: #1f77b4"/>
    </g>
   </g>
   <g id="line2d_13">
    <path d="M 152.293388 222.239366 
L 173.910124 213.188289 
L 209.938017 218.8937 
L 281.993802 235.064418 
L 498.161157 269.95147 
" clip-path="url(#pfccb5353c8)" style="fill: none; stroke: #ff7f0e; stroke-width: 1.5; stroke-linecap: square"/>
    <defs>
     <path id="m54ac2d300b" d="M 0 3 
C 0.795609 3 1.55874 2.683901 2.12132 2.12132 
C 2.683901 1.55874 3 0.795609 3 0 
C 3 -0.795609 2.683901 -1.55874 2.12132 -2.12132 
C 1.55874 -2.683901 0.795609 -3 0 -3 
C -0.795609 -3 -1.55874 -2.683901 -2.12132 -2.12132 
C -2.683901 -1.55874 -3 -0.795609 -3 0 
C -3 0.795609 -2.683901 1.55874 -2.12132 2.12132 
C -1.55874 2.683901 -0.795609 3 0 3 
z
" style="stroke: #ff7f0e"/>
    </defs>
    <g clip-path="url(#pfccb5353c8)">
     <use xlink:href="#m54ac2d300b" x="152.293388" y="222.239366" style="fill: #ff7f0e; stroke: #ff7f0e"/>
     <use xlink:href="#m54ac2d300b" x="173.910124" y="213.188289" style="fill: #ff7f0e; stroke: #ff7f0e"/>
     <use xlink:href="#m54ac2d300b" x="209.938017" y="218.8937" style="fill: #ff7f0e; stroke: #ff7f0e"/>
     <use xlink:href="#m54ac2d300b" x="281.993802" y="235.064418" style="fill: #ff7f0e; stroke: #ff7f0e"/>
     <use xlink:href="#m54ac2d300b" x="498.161157" y="269.95147" style="fill: #ff7f0e; stroke: #ff7f0e"/>
    </g>
   </g>
   <g id="line2d_14">
    <path d="M 152.293388 301.193847 
L 173.910124 258.799251 
L 209.938017 240.632447 
L 281.993802 244.802407 
L 498.161157 272.621538 
" clip-path="url(#pfccb5353c8)" style="fill: none; stroke: #2ca02c; stroke-width: 1.5; stroke-linecap: square"/>
    <defs>
     <path id="m59610c2ba2" d="M 0 3 
C 0.795609 3 1.55874 2.683901 2.12132 2.12132 
C 2.683901 1.55874 3 0.795609 3 0 
C 3 -0.795609 2.683901 -1.55874 2.12132 -2.12132 
C 1.55874 -2.683901 0.795609 -3 0 -3 
C -0.795609 -3 -1.55874 -2.683901 -2.12132 -2.12132 
C -2.683901 -1.55874 -3 -0.795609 -3 0 
C -3 0.795609 -2.683901 1.55874 -2.12132 2.12132 
C -1.55874 2.683901 -0.795609 3 0 3 
z
" style="stroke: #2ca02c"/>
    </defs>
    <g clip-path="url(#pfccb5353c8)">
     <use xlink:href="#m59610c2ba2" x="152.293388" y="301.193847" style="fill: #2ca02c; stroke: #2ca02c"/>
     <use xlink:href="#m59610c2ba2" x="173.910124" y="258.799251" style="fill: #2ca02c; stroke: #2ca02c"/>
     <use xlink:href="#m59610c2ba2" x="209.938017" y="240.632447" style="fill: #2ca02c; stroke: #2ca02c"/>
     <use xlink:href="#m59610c2ba2" x="281.993802" y="244.802407" style="fill: #2ca02c; stroke: #2ca02c"/>
     <use xlink:href="#m59610c2ba2" x="498.161157" y="272.621538" style="fill: #2ca02c; stroke: #2ca02c"/>
    </g>
   </g>
   <g id="line2d_15">
    <path d="M 152.293388 297.799694 
L 173.910124 269.111013 
L 209.938017 250.669444 
L 281.993802 247.404591 
L 498.161157 271.241249 
" clip-path="url(#pfccb5353c8)" style="fill: none; stroke: #d62728; stroke-width: 1.5; stroke-linecap: square"/>
    <defs>
     <path id="m3f0b9e02f6" d="M 0 3 
C 0.795609 3 1.55874 2.683901 2.12132 2.12132 
C 2.683901 1.55874 3 0.795609 3 0 
C 3 -0.795609 2.683901 -1.55874 2.12132 -2.12132 
C 1.55874 -2.683901 0.795609 -3 0 -3 
C -0.795609 -3 -1.55874 -2.683901 -2.12132 -2.12132 
C -2.683901 -1.55874 -3 -0.795609 -3 0 
C -3 0.795609 -2.683901 1.55874 -2.12132 2.12132 
C -1.55874 2.683901 -0.795609 3 0 3 
z
" style="stroke: #d62728"/>
    </defs>
    <g clip-path="url(#pfccb5353c8)">
     <use xlink:href="#m3f0b9e02f6" x="152.293388" y="297.799694" style="fill: #d62728; stroke: #d62728"/>
     <use xlink:href="#m3f0b9e02f6" x="173.910124" y="269.111013" style="fill: #d62728; stroke: #d62728"/>
     <use xlink:href="#m3f0b9e02f6" x="209.938017" y="250.669444" style="fill: #d62728; stroke: #d62728"/>
     <use xlink:href="#m3f0b9e02f6" x="281.993802" y="247.404591" style="fill: #d62728; stroke: #d62728"/>
     <use xlink:href="#m3f0b9e02f6" x="498.161157" y="271.241249" style="fill: #d62728; stroke: #d62728"/>
    </g>
   </g>
   <g id="patch_3">
    <path d="M 135 418.130526 
L 135 155.52 
" style="fill: none; stroke: #000000; stroke-width: 0.8; stroke-linejoin: miter; stroke-linecap: square"/>
   </g>
   <g id="patch_4">
    <path d="M 515.454545 418.130526 
L 515.454545 155.52 
" style="fill: none; stroke: #000000; stroke-width: 0.8; stroke-linejoin: miter; stroke-linecap: square"/>
   </g>
   <g id="patch_5">
    <path d="M 135 418.130526 
L 515.454545 418.130526 
" style="fill: none; stroke: #000000; stroke-width: 0.8; stroke-linejoin: miter; stroke-linecap: square"/>
   </g>
   <g id="patch_6">
    <path d="M 135 155.52 
L 515.454545 155.52 
" style="fill: none; stroke: #000000; stroke-width: 0.8; stroke-linejoin: miter; stroke-linecap: square"/>
   </g>
   <g id="text_14">
    <!-- a -->
    <g transform="translate(89.472557 137.404046) scale(0.28 -0.28)">
     <defs>
      <path id="DejaVuSans-Bold-61" d="M 2106 1575 
Q 1756 1575 1579 1456 
Q 1403 1338 1403 1106 
Q 1403 894 1545 773 
Q 1688 653 1941 653 
Q 2256 653 2472 879 
Q 2688 1106 2688 1447 
L 2688 1575 
L 2106 1575 
z
M 3816 1997 
L 3816 0 
L 2688 0 
L 2688 519 
Q 2463 200 2181 54 
Q 1900 -91 1497 -91 
Q 953 -91 614 226 
Q 275 544 275 1050 
Q 275 1666 698 1953 
Q 1122 2241 2028 2241 
L 2688 2241 
L 2688 2328 
Q 2688 2594 2478 2717 
Q 2269 2841 1825 2841 
Q 1466 2841 1156 2769 
Q 847 2697 581 2553 
L 581 3406 
Q 941 3494 1303 3539 
Q 1666 3584 2028 3584 
Q 2975 3584 3395 3211 
Q 3816 2838 3816 1997 
z
" transform="scale(0.015625)"/>
     </defs>
     <use xlink:href="#DejaVuSans-Bold-61"/>
    </g>
   </g>
   <g id="text_15">
    <!-- $P_{NN}$ -->
    <g transform="translate(303.387273 149.52) scale(0.26 -0.26)">
     <use xlink:href="#DejaVuSans-Oblique-50" transform="translate(0 0.09375)"/>
     <use xlink:href="#DejaVuSans-Oblique-4e" transform="translate(60.302734 -16.3125) scale(0.7)"/>
     <use xlink:href="#DejaVuSans-Oblique-4e" transform="translate(112.666016 -16.3125) scale(0.7)"/>
    </g>
   </g>
  </g>
  <g id="axes_2">
   <g id="patch_7">
    <path d="M 591.545455 418.130526 
L 972 418.130526 
L 972 155.52 
L 591.545455 155.52 
z
" style="fill: #ffffff"/>
   </g>
   <g id="patch_8">
    <path d="M 608.838843 418.130526 
L 628.792753 418.130526 
L 628.792753 183.85556 
L 608.838843 183.85556 
z
" clip-path="url(#pa2144cd136)" style="fill: #1f77b4"/>
   </g>
   <g id="patch_9">
    <path d="M 741.864908 418.130526 
L 761.818818 418.130526 
L 761.818818 323.130699 
L 741.864908 323.130699 
z
" clip-path="url(#pa2144cd136)" style="fill: #1f77b4"/>
   </g>
   <g id="patch_10">
    <path d="M 874.890973 418.130526 
L 894.844882 418.130526 
L 894.844882 168.025263 
L 874.890973 168.025263 
z
" clip-path="url(#pa2144cd136)" style="fill: #1f77b4"/>
   </g>
   <g id="patch_11">
    <path d="M 628.792753 418.130526 
L 648.746662 418.130526 
L 648.746662 178.689126 
L 628.792753 178.689126 
z
" clip-path="url(#pa2144cd136)" style="fill: #ff7f0e"/>
   </g>
   <g id="patch_12">
    <path d="M 761.818818 418.130526 
L 781.772727 418.130526 
L 781.772727 205.870717 
L 761.818818 205.870717 
z
" clip-path="url(#pa2144cd136)" style="fill: #ff7f0e"/>
   </g>
   <g id="patch_13">
    <path d="M 894.844882 418.130526 
L 914.798792 418.130526 
L 914.798792 178.568648 
L 894.844882 178.568648 
z
" clip-path="url(#pa2144cd136)" style="fill: #ff7f0e"/>
   </g>
   <g id="patch_14">
    <path d="M 648.746662 418.130526 
L 668.700572 418.130526 
L 668.700572 180.144192 
L 648.746662 180.144192 
z
" clip-path="url(#pa2144cd136)" style="fill: #2ca02c"/>
   </g>
   <g id="patch_15">
    <path d="M 781.772727 418.130526 
L 801.726637 418.130526 
L 801.726637 247.908812 
L 781.772727 247.908812 
z
" clip-path="url(#pa2144cd136)" style="fill: #2ca02c"/>
   </g>
   <g id="patch_16">
    <path d="M 914.798792 418.130526 
L 934.752702 418.130526 
L 934.752702 179.633977 
L 914.798792 179.633977 
z
" clip-path="url(#pa2144cd136)" style="fill: #2ca02c"/>
   </g>
   <g id="patch_17">
    <path d="M 668.700572 418.130526 
L 688.654482 418.130526 
L 688.654482 209.723208 
L 668.700572 209.723208 
z
" clip-path="url(#pa2144cd136)" style="fill: #d62728"/>
   </g>
   <g id="patch_18">
    <path d="M 801.726637 418.130526 
L 821.680547 418.130526 
L 821.680547 255.761837 
L 801.726637 255.761837 
z
" clip-path="url(#pa2144cd136)" style="fill: #d62728"/>
   </g>
   <g id="patch_19">
    <path d="M 934.752702 418.130526 
L 954.706612 418.130526 
L 954.706612 209.383162 
L 934.752702 209.383162 
z
" clip-path="url(#pa2144cd136)" style="fill: #d62728"/>
   </g>
   <g id="matplotlib.axis_3">
    <g id="xtick_7">
     <g id="line2d_16">
      <g>
       <use xlink:href="#mc2cb8a5772" x="648.746662" y="418.130526" style="stroke: #000000; stroke-width: 0.8"/>
      </g>
     </g>
     <g id="text_16">
      <!-- AUC -->
      <g transform="translate(625.490256 441.847089) scale(0.22 -0.22)">
       <defs>
        <path id="DejaVuSans-41" d="M 2188 4044 
L 1331 1722 
L 3047 1722 
L 2188 4044 
z
M 1831 4666 
L 2547 4666 
L 4325 0 
L 3669 0 
L 3244 1197 
L 1141 1197 
L 716 0 
L 50 0 
L 1831 4666 
z
" transform="scale(0.015625)"/>
        <path id="DejaVuSans-55" d="M 556 4666 
L 1191 4666 
L 1191 1831 
Q 1191 1081 1462 751 
Q 1734 422 2344 422 
Q 2950 422 3222 751 
Q 3494 1081 3494 1831 
L 3494 4666 
L 4128 4666 
L 4128 1753 
Q 4128 841 3676 375 
Q 3225 -91 2344 -91 
Q 1459 -91 1007 375 
Q 556 841 556 1753 
L 556 4666 
z
" transform="scale(0.015625)"/>
        <path id="DejaVuSans-43" d="M 4122 4306 
L 4122 3641 
Q 3803 3938 3442 4084 
Q 3081 4231 2675 4231 
Q 1875 4231 1450 3742 
Q 1025 3253 1025 2328 
Q 1025 1406 1450 917 
Q 1875 428 2675 428 
Q 3081 428 3442 575 
Q 3803 722 4122 1019 
L 4122 359 
Q 3791 134 3420 21 
Q 3050 -91 2638 -91 
Q 1578 -91 968 557 
Q 359 1206 359 2328 
Q 359 3453 968 4101 
Q 1578 4750 2638 4750 
Q 3056 4750 3426 4639 
Q 3797 4528 4122 4306 
z
" transform="scale(0.015625)"/>
       </defs>
       <use xlink:href="#DejaVuSans-41"/>
       <use xlink:href="#DejaVuSans-55" x="68.408203"/>
       <use xlink:href="#DejaVuSans-43" x="141.601562"/>
      </g>
     </g>
    </g>
    <g id="xtick_8">
     <g id="line2d_17">
      <g>
       <use xlink:href="#mc2cb8a5772" x="781.772727" y="418.130526" style="stroke: #000000; stroke-width: 0.8"/>
      </g>
     </g>
     <g id="text_17">
      <!-- $Q_{local}$ -->
      <g transform="translate(754.822727 441.847089) scale(0.22 -0.22)">
       <defs>
        <path id="DejaVuSans-Oblique-51" d="M 2309 -84 
Q 2275 -88 2237 -89 
Q 2200 -91 2125 -91 
Q 1250 -91 756 411 
Q 263 913 263 1797 
Q 263 2319 452 2844 
Q 641 3369 978 3788 
Q 1369 4269 1858 4509 
Q 2347 4750 2938 4750 
Q 3794 4750 4287 4245 
Q 4781 3741 4781 2869 
Q 4781 1928 4265 1147 
Q 3750 366 2919 44 
L 3553 -825 
L 2847 -825 
L 2309 -84 
z
M 2919 4238 
Q 2400 4238 2003 3986 
Q 1606 3734 1313 3219 
Q 1125 2891 1026 2522 
Q 928 2153 928 1778 
Q 928 1128 1239 775 
Q 1550 422 2119 422 
Q 2631 422 3032 676 
Q 3434 931 3719 1434 
Q 3909 1772 4009 2142 
Q 4109 2513 4109 2881 
Q 4109 3528 3796 3883 
Q 3484 4238 2919 4238 
z
" transform="scale(0.015625)"/>
        <path id="DejaVuSans-Oblique-6c" d="M 1172 4863 
L 1747 4863 
L 800 0 
L 225 0 
L 1172 4863 
z
" transform="scale(0.015625)"/>
        <path id="DejaVuSans-Oblique-6f" d="M 1625 -91 
Q 1009 -91 651 289 
Q 294 669 294 1325 
Q 294 1706 417 2101 
Q 541 2497 738 2766 
Q 1047 3184 1428 3384 
Q 1809 3584 2291 3584 
Q 2888 3584 3255 3212 
Q 3622 2841 3622 2241 
Q 3622 1825 3500 1412 
Q 3378 1000 3181 728 
Q 2875 309 2494 109 
Q 2113 -91 1625 -91 
z
M 891 1344 
Q 891 869 1089 633 
Q 1288 397 1691 397 
Q 2269 397 2648 901 
Q 3028 1406 3028 2181 
Q 3028 2634 2825 2865 
Q 2622 3097 2228 3097 
Q 1903 3097 1650 2945 
Q 1397 2794 1197 2484 
Q 1050 2253 970 1956 
Q 891 1659 891 1344 
z
" transform="scale(0.015625)"/>
        <path id="DejaVuSans-Oblique-63" d="M 3431 3366 
L 3316 2797 
Q 3109 2947 2876 3022 
Q 2644 3097 2394 3097 
Q 2119 3097 1870 3000 
Q 1622 2903 1453 2725 
Q 1184 2453 1037 2087 
Q 891 1722 891 1331 
Q 891 859 1127 628 
Q 1363 397 1844 397 
Q 2081 397 2348 469 
Q 2616 541 2906 684 
L 2797 116 
Q 2547 13 2283 -39 
Q 2019 -91 1741 -91 
Q 1044 -91 669 257 
Q 294 606 294 1253 
Q 294 1797 489 2255 
Q 684 2713 1069 3078 
Q 1331 3328 1684 3456 
Q 2038 3584 2456 3584 
Q 2700 3584 2940 3529 
Q 3181 3475 3431 3366 
z
" transform="scale(0.015625)"/>
        <path id="DejaVuSans-Oblique-61" d="M 3438 1997 
L 3047 0 
L 2472 0 
L 2578 531 
Q 2325 219 2001 64 
Q 1678 -91 1281 -91 
Q 834 -91 548 182 
Q 263 456 263 884 
Q 263 1497 752 1853 
Q 1241 2209 2100 2209 
L 2900 2209 
L 2931 2363 
Q 2938 2388 2941 2417 
Q 2944 2447 2944 2509 
Q 2944 2788 2717 2942 
Q 2491 3097 2081 3097 
Q 1800 3097 1504 3025 
Q 1209 2953 897 2809 
L 997 3341 
Q 1322 3463 1633 3523 
Q 1944 3584 2234 3584 
Q 2853 3584 3176 3315 
Q 3500 3047 3500 2534 
Q 3500 2431 3484 2292 
Q 3469 2153 3438 1997 
z
M 2816 1759 
L 2241 1759 
Q 1534 1759 1195 1570 
Q 856 1381 856 984 
Q 856 709 1029 553 
Q 1203 397 1509 397 
Q 1978 397 2328 733 
Q 2678 1069 2791 1631 
L 2816 1759 
z
" transform="scale(0.015625)"/>
       </defs>
       <use xlink:href="#DejaVuSans-Oblique-51" transform="translate(0 0.78125)"/>
       <use xlink:href="#DejaVuSans-Oblique-6c" transform="translate(78.710938 -15.625) scale(0.7)"/>
       <use xlink:href="#DejaVuSans-Oblique-6f" transform="translate(98.15918 -15.625) scale(0.7)"/>
       <use xlink:href="#DejaVuSans-Oblique-63" transform="translate(140.986328 -15.625) scale(0.7)"/>
       <use xlink:href="#DejaVuSans-Oblique-61" transform="translate(179.472656 -15.625) scale(0.7)"/>
       <use xlink:href="#DejaVuSans-Oblique-6c" transform="translate(222.368164 -15.625) scale(0.7)"/>
      </g>
     </g>
    </g>
    <g id="xtick_9">
     <g id="line2d_18">
      <g>
       <use xlink:href="#mc2cb8a5772" x="914.798792" y="418.130526" style="stroke: #000000; stroke-width: 0.8"/>
      </g>
     </g>
     <g id="text_18">
      <!-- $Q_{global}$ -->
      <g transform="translate(882.348792 441.630526) scale(0.22 -0.22)">
       <defs>
        <path id="DejaVuSans-Oblique-67" d="M 3816 3500 
L 3219 434 
Q 3047 -456 2561 -893 
Q 2075 -1331 1253 -1331 
Q 950 -1331 690 -1286 
Q 431 -1241 206 -1147 
L 313 -588 
Q 525 -725 762 -790 
Q 1000 -856 1269 -856 
Q 1816 -856 2167 -557 
Q 2519 -259 2631 300 
L 2681 563 
Q 2441 288 2122 144 
Q 1803 0 1434 0 
Q 903 0 598 351 
Q 294 703 294 1319 
Q 294 1803 478 2267 
Q 663 2731 997 3091 
Q 1219 3328 1514 3456 
Q 1809 3584 2131 3584 
Q 2484 3584 2746 3420 
Q 3009 3256 3138 2956 
L 3238 3500 
L 3816 3500 
z
M 2950 2216 
Q 2950 2641 2750 2872 
Q 2550 3103 2181 3103 
Q 1953 3103 1747 3012 
Q 1541 2922 1394 2759 
Q 1156 2491 1023 2127 
Q 891 1763 891 1375 
Q 891 944 1092 712 
Q 1294 481 1672 481 
Q 2219 481 2584 976 
Q 2950 1472 2950 2216 
z
" transform="scale(0.015625)"/>
        <path id="DejaVuSans-Oblique-62" d="M 3169 2138 
Q 3169 2591 2961 2847 
Q 2753 3103 2388 3103 
Q 2122 3103 1889 2973 
Q 1656 2844 1484 2597 
Q 1303 2338 1198 1995 
Q 1094 1653 1094 1313 
Q 1094 881 1298 636 
Q 1503 391 1863 391 
Q 2134 391 2365 517 
Q 2597 644 2772 891 
Q 2950 1147 3059 1487 
Q 3169 1828 3169 2138 
z
M 1381 2969 
Q 1594 3256 1914 3420 
Q 2234 3584 2584 3584 
Q 3122 3584 3439 3221 
Q 3756 2859 3756 2241 
Q 3756 1734 3570 1259 
Q 3384 784 3041 416 
Q 2816 172 2522 40 
Q 2228 -91 1906 -91 
Q 1566 -91 1316 65 
Q 1066 222 909 531 
L 806 0 
L 231 0 
L 1178 4863 
L 1753 4863 
L 1381 2969 
z
" transform="scale(0.015625)"/>
       </defs>
       <use xlink:href="#DejaVuSans-Oblique-51" transform="translate(0 0.78125)"/>
       <use xlink:href="#DejaVuSans-Oblique-67" transform="translate(78.710938 -15.625) scale(0.7)"/>
       <use xlink:href="#DejaVuSans-Oblique-6c" transform="translate(123.144531 -15.625) scale(0.7)"/>
       <use xlink:href="#DejaVuSans-Oblique-6f" transform="translate(142.592773 -15.625) scale(0.7)"/>
       <use xlink:href="#DejaVuSans-Oblique-62" transform="translate(185.419922 -15.625) scale(0.7)"/>
       <use xlink:href="#DejaVuSans-Oblique-61" transform="translate(229.853516 -15.625) scale(0.7)"/>
       <use xlink:href="#DejaVuSans-Oblique-6c" transform="translate(272.749023 -15.625) scale(0.7)"/>
      </g>
     </g>
    </g>
   </g>
   <g id="matplotlib.axis_4">
    <g id="ytick_6">
     <g id="line2d_19">
      <g>
       <use xlink:href="#m5c0000f902" x="591.545455" y="418.130526" style="stroke: #000000; stroke-width: 0.8"/>
      </g>
     </g>
     <g id="text_19">
      <!-- 0.0 -->
      <g transform="translate(549.55858 426.488808) scale(0.22 -0.22)">
       <use xlink:href="#DejaVuSans-30"/>
       <use xlink:href="#DejaVuSans-2e" x="63.623047"/>
       <use xlink:href="#DejaVuSans-30" x="95.410156"/>
      </g>
     </g>
    </g>
    <g id="ytick_7">
     <g id="line2d_20">
      <g>
       <use xlink:href="#m5c0000f902" x="591.545455" y="348.123137" style="stroke: #000000; stroke-width: 0.8"/>
      </g>
     </g>
     <g id="text_20">
      <!-- 0.2 -->
      <g transform="translate(549.55858 356.481418) scale(0.22 -0.22)">
       <use xlink:href="#DejaVuSans-30"/>
       <use xlink:href="#DejaVuSans-2e" x="63.623047"/>
       <use xlink:href="#DejaVuSans-32" x="95.410156"/>
      </g>
     </g>
    </g>
    <g id="ytick_8">
     <g id="line2d_21">
      <g>
       <use xlink:href="#m5c0000f902" x="591.545455" y="278.115747" style="stroke: #000000; stroke-width: 0.8"/>
      </g>
     </g>
     <g id="text_21">
      <!-- 0.4 -->
      <g transform="translate(549.55858 286.474028) scale(0.22 -0.22)">
       <use xlink:href="#DejaVuSans-30"/>
       <use xlink:href="#DejaVuSans-2e" x="63.623047"/>
       <use xlink:href="#DejaVuSans-34" x="95.410156"/>
      </g>
     </g>
    </g>
    <g id="ytick_9">
     <g id="line2d_22">
      <g>
       <use xlink:href="#m5c0000f902" x="591.545455" y="208.108357" style="stroke: #000000; stroke-width: 0.8"/>
      </g>
     </g>
     <g id="text_22">
      <!-- 0.6 -->
      <g transform="translate(549.55858 216.466638) scale(0.22 -0.22)">
       <use xlink:href="#DejaVuSans-30"/>
       <use xlink:href="#DejaVuSans-2e" x="63.623047"/>
       <use xlink:href="#DejaVuSans-36" x="95.410156"/>
      </g>
     </g>
    </g>
    <g id="text_23">
     <!-- Metric Value -->
     <g transform="translate(540.983267 354.727919) rotate(-90) scale(0.22 -0.22)">
      <defs>
       <path id="DejaVuSans-4d" d="M 628 4666 
L 1569 4666 
L 2759 1491 
L 3956 4666 
L 4897 4666 
L 4897 0 
L 4281 0 
L 4281 4097 
L 3078 897 
L 2444 897 
L 1241 4097 
L 1241 0 
L 628 0 
L 628 4666 
z
" transform="scale(0.015625)"/>
       <path id="DejaVuSans-65" d="M 3597 1894 
L 3597 1613 
L 953 1613 
Q 991 1019 1311 708 
Q 1631 397 2203 397 
Q 2534 397 2845 478 
Q 3156 559 3463 722 
L 3463 178 
Q 3153 47 2828 -22 
Q 2503 -91 2169 -91 
Q 1331 -91 842 396 
Q 353 884 353 1716 
Q 353 2575 817 3079 
Q 1281 3584 2069 3584 
Q 2775 3584 3186 3129 
Q 3597 2675 3597 1894 
z
M 3022 2063 
Q 3016 2534 2758 2815 
Q 2500 3097 2075 3097 
Q 1594 3097 1305 2825 
Q 1016 2553 972 2059 
L 3022 2063 
z
" transform="scale(0.015625)"/>
       <path id="DejaVuSans-74" d="M 1172 4494 
L 1172 3500 
L 2356 3500 
L 2356 3053 
L 1172 3053 
L 1172 1153 
Q 1172 725 1289 603 
Q 1406 481 1766 481 
L 2356 481 
L 2356 0 
L 1766 0 
Q 1100 0 847 248 
Q 594 497 594 1153 
L 594 3053 
L 172 3053 
L 172 3500 
L 594 3500 
L 594 4494 
L 1172 4494 
z
" transform="scale(0.015625)"/>
       <path id="DejaVuSans-72" d="M 2631 2963 
Q 2534 3019 2420 3045 
Q 2306 3072 2169 3072 
Q 1681 3072 1420 2755 
Q 1159 2438 1159 1844 
L 1159 0 
L 581 0 
L 581 3500 
L 1159 3500 
L 1159 2956 
Q 1341 3275 1631 3429 
Q 1922 3584 2338 3584 
Q 2397 3584 2469 3576 
Q 2541 3569 2628 3553 
L 2631 2963 
z
" transform="scale(0.015625)"/>
       <path id="DejaVuSans-69" d="M 603 3500 
L 1178 3500 
L 1178 0 
L 603 0 
L 603 3500 
z
M 603 4863 
L 1178 4863 
L 1178 4134 
L 603 4134 
L 603 4863 
z
" transform="scale(0.015625)"/>
       <path id="DejaVuSans-63" d="M 3122 3366 
L 3122 2828 
Q 2878 2963 2633 3030 
Q 2388 3097 2138 3097 
Q 1578 3097 1268 2742 
Q 959 2388 959 1747 
Q 959 1106 1268 751 
Q 1578 397 2138 397 
Q 2388 397 2633 464 
Q 2878 531 3122 666 
L 3122 134 
Q 2881 22 2623 -34 
Q 2366 -91 2075 -91 
Q 1284 -91 818 406 
Q 353 903 353 1747 
Q 353 2603 823 3093 
Q 1294 3584 2113 3584 
Q 2378 3584 2631 3529 
Q 2884 3475 3122 3366 
z
" transform="scale(0.015625)"/>
       <path id="DejaVuSans-20" transform="scale(0.015625)"/>
       <path id="DejaVuSans-56" d="M 1831 0 
L 50 4666 
L 709 4666 
L 2188 738 
L 3669 4666 
L 4325 4666 
L 2547 0 
L 1831 0 
z
" transform="scale(0.015625)"/>
       <path id="DejaVuSans-61" d="M 2194 1759 
Q 1497 1759 1228 1600 
Q 959 1441 959 1056 
Q 959 750 1161 570 
Q 1363 391 1709 391 
Q 2188 391 2477 730 
Q 2766 1069 2766 1631 
L 2766 1759 
L 2194 1759 
z
M 3341 1997 
L 3341 0 
L 2766 0 
L 2766 531 
Q 2569 213 2275 61 
Q 1981 -91 1556 -91 
Q 1019 -91 701 211 
Q 384 513 384 1019 
Q 384 1609 779 1909 
Q 1175 2209 1959 2209 
L 2766 2209 
L 2766 2266 
Q 2766 2663 2505 2880 
Q 2244 3097 1772 3097 
Q 1472 3097 1187 3025 
Q 903 2953 641 2809 
L 641 3341 
Q 956 3463 1253 3523 
Q 1550 3584 1831 3584 
Q 2591 3584 2966 3190 
Q 3341 2797 3341 1997 
z
" transform="scale(0.015625)"/>
       <path id="DejaVuSans-6c" d="M 603 4863 
L 1178 4863 
L 1178 0 
L 603 0 
L 603 4863 
z
" transform="scale(0.015625)"/>
       <path id="DejaVuSans-75" d="M 544 1381 
L 544 3500 
L 1119 3500 
L 1119 1403 
Q 1119 906 1312 657 
Q 1506 409 1894 409 
Q 2359 409 2629 706 
Q 2900 1003 2900 1516 
L 2900 3500 
L 3475 3500 
L 3475 0 
L 2900 0 
L 2900 538 
Q 2691 219 2414 64 
Q 2138 -91 1772 -91 
Q 1169 -91 856 284 
Q 544 659 544 1381 
z
M 1991 3584 
L 1991 3584 
z
" transform="scale(0.015625)"/>
      </defs>
      <use xlink:href="#DejaVuSans-4d"/>
      <use xlink:href="#DejaVuSans-65" x="86.279297"/>
      <use xlink:href="#DejaVuSans-74" x="147.802734"/>
      <use xlink:href="#DejaVuSans-72" x="187.011719"/>
      <use xlink:href="#DejaVuSans-69" x="228.125"/>
      <use xlink:href="#DejaVuSans-63" x="255.908203"/>
      <use xlink:href="#DejaVuSans-20" x="310.888672"/>
      <use xlink:href="#DejaVuSans-56" x="342.675781"/>
      <use xlink:href="#DejaVuSans-61" x="403.333984"/>
      <use xlink:href="#DejaVuSans-6c" x="464.613281"/>
      <use xlink:href="#DejaVuSans-75" x="492.396484"/>
      <use xlink:href="#DejaVuSans-65" x="555.775391"/>
     </g>
    </g>
   </g>
   <g id="patch_20">
    <path d="M 591.545455 418.130526 
L 591.545455 155.52 
" style="fill: none; stroke: #000000; stroke-width: 0.8; stroke-linejoin: miter; stroke-linecap: square"/>
   </g>
   <g id="patch_21">
    <path d="M 972 418.130526 
L 972 155.52 
" style="fill: none; stroke: #000000; stroke-width: 0.8; stroke-linejoin: miter; stroke-linecap: square"/>
   </g>
   <g id="patch_22">
    <path d="M 591.545455 418.130526 
L 972 418.130526 
" style="fill: none; stroke: #000000; stroke-width: 0.8; stroke-linejoin: miter; stroke-linecap: square"/>
   </g>
   <g id="patch_23">
    <path d="M 591.545455 155.52 
L 972 155.52 
" style="fill: none; stroke: #000000; stroke-width: 0.8; stroke-linejoin: miter; stroke-linecap: square"/>
   </g>
   <g id="text_24">
    <!-- b -->
    <g transform="translate(544.871761 137.404046) scale(0.28 -0.28)">
     <defs>
      <path id="DejaVuSans-Bold-62" d="M 2400 722 
Q 2759 722 2948 984 
Q 3138 1247 3138 1747 
Q 3138 2247 2948 2509 
Q 2759 2772 2400 2772 
Q 2041 2772 1848 2508 
Q 1656 2244 1656 1747 
Q 1656 1250 1848 986 
Q 2041 722 2400 722 
z
M 1656 2988 
Q 1888 3294 2169 3439 
Q 2450 3584 2816 3584 
Q 3463 3584 3878 3070 
Q 4294 2556 4294 1747 
Q 4294 938 3878 423 
Q 3463 -91 2816 -91 
Q 2450 -91 2169 54 
Q 1888 200 1656 506 
L 1656 0 
L 538 0 
L 538 4863 
L 1656 4863 
L 1656 2988 
z
" transform="scale(0.015625)"/>
     </defs>
     <use xlink:href="#DejaVuSans-Bold-62"/>
    </g>
   </g>
   <g id="text_25">
    <!-- Metrics -->
    <g transform="translate(734.584759 149.52) scale(0.26 -0.26)">
     <defs>
      <path id="DejaVuSans-73" d="M 2834 3397 
L 2834 2853 
Q 2591 2978 2328 3040 
Q 2066 3103 1784 3103 
Q 1356 3103 1142 2972 
Q 928 2841 928 2578 
Q 928 2378 1081 2264 
Q 1234 2150 1697 2047 
L 1894 2003 
Q 2506 1872 2764 1633 
Q 3022 1394 3022 966 
Q 3022 478 2636 193 
Q 2250 -91 1575 -91 
Q 1294 -91 989 -36 
Q 684 19 347 128 
L 347 722 
Q 666 556 975 473 
Q 1284 391 1588 391 
Q 1994 391 2212 530 
Q 2431 669 2431 922 
Q 2431 1156 2273 1281 
Q 2116 1406 1581 1522 
L 1381 1569 
Q 847 1681 609 1914 
Q 372 2147 372 2553 
Q 372 3047 722 3315 
Q 1072 3584 1716 3584 
Q 2034 3584 2315 3537 
Q 2597 3491 2834 3397 
z
" transform="scale(0.015625)"/>
     </defs>
     <use xlink:href="#DejaVuSans-4d"/>
     <use xlink:href="#DejaVuSans-65" x="86.279297"/>
     <use xlink:href="#DejaVuSans-74" x="147.802734"/>
     <use xlink:href="#DejaVuSans-72" x="187.011719"/>
     <use xlink:href="#DejaVuSans-69" x="228.125"/>
     <use xlink:href="#DejaVuSans-63" x="255.908203"/>
     <use xlink:href="#DejaVuSans-73" x="310.888672"/>
    </g>
   </g>
  </g>
  <g id="axes_3">
   <g id="patch_24">
    <path d="M 135 785.785263 
L 515.454545 785.785263 
L 515.454545 523.174737 
L 135 523.174737 
z
" style="fill: #ffffff"/>
   </g>
   <g id="matplotlib.axis_5">
    <g id="xtick_10">
     <g id="line2d_23">
      <g>
       <use xlink:href="#mc2cb8a5772" x="137.882231" y="785.785263" style="stroke: #000000; stroke-width: 0.8"/>
      </g>
     </g>
     <g id="text_26">
      <!-- 0 -->
      <g transform="translate(130.883481 809.501826) scale(0.22 -0.22)">
       <use xlink:href="#DejaVuSans-30"/>
      </g>
     </g>
    </g>
    <g id="xtick_11">
     <g id="line2d_24">
      <g>
       <use xlink:href="#mc2cb8a5772" x="281.993802" y="785.785263" style="stroke: #000000; stroke-width: 0.8"/>
      </g>
     </g>
     <g id="text_27">
      <!-- 20 -->
      <g transform="translate(267.996302 809.501826) scale(0.22 -0.22)">
       <use xlink:href="#DejaVuSans-32"/>
       <use xlink:href="#DejaVuSans-30" x="63.623047"/>
      </g>
     </g>
    </g>
    <g id="xtick_12">
     <g id="line2d_25">
      <g>
       <use xlink:href="#mc2cb8a5772" x="426.105372" y="785.785263" style="stroke: #000000; stroke-width: 0.8"/>
      </g>
     </g>
     <g id="text_28">
      <!-- 40 -->
      <g transform="translate(412.107872 809.501826) scale(0.22 -0.22)">
       <use xlink:href="#DejaVuSans-34"/>
       <use xlink:href="#DejaVuSans-30" x="63.623047"/>
      </g>
     </g>
    </g>
    <g id="text_29">
     <!-- k -->
     <g transform="translate(318.278523 836.313388) scale(0.24 -0.24)">
      <use xlink:href="#DejaVuSans-6b"/>
     </g>
    </g>
   </g>
   <g id="matplotlib.axis_6">
    <g id="ytick_10">
     <g id="line2d_26">
      <g>
       <use xlink:href="#m5c0000f902" x="135" y="735.70406" style="stroke: #000000; stroke-width: 0.8"/>
      </g>
     </g>
     <g id="text_30">
      <!-- 0.8 -->
      <g transform="translate(93.013125 744.062341) scale(0.22 -0.22)">
       <use xlink:href="#DejaVuSans-30"/>
       <use xlink:href="#DejaVuSans-2e" x="63.623047"/>
       <use xlink:href="#DejaVuSans-38" x="95.410156"/>
      </g>
     </g>
    </g>
    <g id="ytick_11">
     <g id="line2d_27">
      <g>
       <use xlink:href="#m5c0000f902" x="135" y="632.110987" style="stroke: #000000; stroke-width: 0.8"/>
      </g>
     </g>
     <g id="text_31">
      <!-- 0.9 -->
      <g transform="translate(93.013125 640.469268) scale(0.22 -0.22)">
       <defs>
        <path id="DejaVuSans-39" d="M 703 97 
L 703 672 
Q 941 559 1184 500 
Q 1428 441 1663 441 
Q 2288 441 2617 861 
Q 2947 1281 2994 2138 
Q 2813 1869 2534 1725 
Q 2256 1581 1919 1581 
Q 1219 1581 811 2004 
Q 403 2428 403 3163 
Q 403 3881 828 4315 
Q 1253 4750 1959 4750 
Q 2769 4750 3195 4129 
Q 3622 3509 3622 2328 
Q 3622 1225 3098 567 
Q 2575 -91 1691 -91 
Q 1453 -91 1209 -44 
Q 966 3 703 97 
z
M 1959 2075 
Q 2384 2075 2632 2365 
Q 2881 2656 2881 3163 
Q 2881 3666 2632 3958 
Q 2384 4250 1959 4250 
Q 1534 4250 1286 3958 
Q 1038 3666 1038 3163 
Q 1038 2656 1286 2365 
Q 1534 2075 1959 2075 
z
" transform="scale(0.015625)"/>
       </defs>
       <use xlink:href="#DejaVuSans-30"/>
       <use xlink:href="#DejaVuSans-2e" x="63.623047"/>
       <use xlink:href="#DejaVuSans-39" x="95.410156"/>
      </g>
     </g>
    </g>
    <g id="ytick_12">
     <g id="line2d_28">
      <g>
       <use xlink:href="#m5c0000f902" x="135" y="528.517913" style="stroke: #000000; stroke-width: 0.8"/>
      </g>
     </g>
     <g id="text_32">
      <!-- 1.0 -->
      <g transform="translate(93.013125 536.876194) scale(0.22 -0.22)">
       <use xlink:href="#DejaVuSans-31"/>
       <use xlink:href="#DejaVuSans-2e" x="63.623047"/>
       <use xlink:href="#DejaVuSans-30" x="95.410156"/>
      </g>
     </g>
    </g>
    <g id="text_33">
     <!-- Metric Value -->
     <g transform="translate(84.021875 728.555625) rotate(-90) scale(0.24 -0.24)">
      <use xlink:href="#DejaVuSans-4d"/>
      <use xlink:href="#DejaVuSans-65" x="86.279297"/>
      <use xlink:href="#DejaVuSans-74" x="147.802734"/>
      <use xlink:href="#DejaVuSans-72" x="187.011719"/>
      <use xlink:href="#DejaVuSans-69" x="228.125"/>
      <use xlink:href="#DejaVuSans-63" x="255.908203"/>
      <use xlink:href="#DejaVuSans-20" x="310.888672"/>
      <use xlink:href="#DejaVuSans-56" x="342.675781"/>
      <use xlink:href="#DejaVuSans-61" x="403.333984"/>
      <use xlink:href="#DejaVuSans-6c" x="464.613281"/>
      <use xlink:href="#DejaVuSans-75" x="492.396484"/>
      <use xlink:href="#DejaVuSans-65" x="555.775391"/>
     </g>
    </g>
   </g>
   <g id="line2d_29">
    <path d="M 152.293388 751.679047 
L 173.910124 761.156001 
L 209.938017 765.552901 
L 281.993802 769.310718 
L 498.161157 773.848421 
" clip-path="url(#p73e91b20dc)" style="fill: none; stroke: #1f77b4; stroke-width: 1.5; stroke-linecap: square"/>
    <g clip-path="url(#p73e91b20dc)">
     <use xlink:href="#m6598313d18" x="152.293388" y="751.679047" style="fill: #1f77b4; stroke: #1f77b4"/>
     <use xlink:href="#m6598313d18" x="173.910124" y="761.156001" style="fill: #1f77b4; stroke: #1f77b4"/>
     <use xlink:href="#m6598313d18" x="209.938017" y="765.552901" style="fill: #1f77b4; stroke: #1f77b4"/>
     <use xlink:href="#m6598313d18" x="281.993802" y="769.310718" style="fill: #1f77b4; stroke: #1f77b4"/>
     <use xlink:href="#m6598313d18" x="498.161157" y="773.848421" style="fill: #1f77b4; stroke: #1f77b4"/>
    </g>
   </g>
   <g id="line2d_30">
    <path d="M 152.293388 535.111579 
L 173.910124 542.996037 
L 209.938017 555.98872 
L 281.993802 583.224549 
L 498.161157 646.874877 
" clip-path="url(#p73e91b20dc)" style="fill: none; stroke: #ff7f0e; stroke-width: 1.5; stroke-linecap: square"/>
    <g clip-path="url(#p73e91b20dc)">
     <use xlink:href="#m54ac2d300b" x="152.293388" y="535.111579" style="fill: #ff7f0e; stroke: #ff7f0e"/>
     <use xlink:href="#m54ac2d300b" x="173.910124" y="542.996037" style="fill: #ff7f0e; stroke: #ff7f0e"/>
     <use xlink:href="#m54ac2d300b" x="209.938017" y="555.98872" style="fill: #ff7f0e; stroke: #ff7f0e"/>
     <use xlink:href="#m54ac2d300b" x="281.993802" y="583.224549" style="fill: #ff7f0e; stroke: #ff7f0e"/>
     <use xlink:href="#m54ac2d300b" x="498.161157" y="646.874877" style="fill: #ff7f0e; stroke: #ff7f0e"/>
    </g>
   </g>
   <g id="line2d_31">
    <path d="M 152.293388 559.713928 
L 173.910124 567.740804 
L 209.938017 580.506826 
L 281.993802 604.954815 
L 498.161157 667.788107 
" clip-path="url(#p73e91b20dc)" style="fill: none; stroke: #2ca02c; stroke-width: 1.5; stroke-linecap: square"/>
    <g clip-path="url(#p73e91b20dc)">
     <use xlink:href="#m59610c2ba2" x="152.293388" y="559.713928" style="fill: #2ca02c; stroke: #2ca02c"/>
     <use xlink:href="#m59610c2ba2" x="173.910124" y="567.740804" style="fill: #2ca02c; stroke: #2ca02c"/>
     <use xlink:href="#m59610c2ba2" x="209.938017" y="580.506826" style="fill: #2ca02c; stroke: #2ca02c"/>
     <use xlink:href="#m59610c2ba2" x="281.993802" y="604.954815" style="fill: #2ca02c; stroke: #2ca02c"/>
     <use xlink:href="#m59610c2ba2" x="498.161157" y="667.788107" style="fill: #2ca02c; stroke: #2ca02c"/>
    </g>
   </g>
   <g id="line2d_32">
    <path d="M 152.293388 547.353383 
L 173.910124 551.68384 
L 209.938017 558.793452 
L 281.993802 573.181757 
L 498.161157 626.191237 
" clip-path="url(#p73e91b20dc)" style="fill: none; stroke: #d62728; stroke-width: 1.5; stroke-linecap: square"/>
    <g clip-path="url(#p73e91b20dc)">
     <use xlink:href="#m3f0b9e02f6" x="152.293388" y="547.353383" style="fill: #d62728; stroke: #d62728"/>
     <use xlink:href="#m3f0b9e02f6" x="173.910124" y="551.68384" style="fill: #d62728; stroke: #d62728"/>
     <use xlink:href="#m3f0b9e02f6" x="209.938017" y="558.793452" style="fill: #d62728; stroke: #d62728"/>
     <use xlink:href="#m3f0b9e02f6" x="281.993802" y="573.181757" style="fill: #d62728; stroke: #d62728"/>
     <use xlink:href="#m3f0b9e02f6" x="498.161157" y="626.191237" style="fill: #d62728; stroke: #d62728"/>
    </g>
   </g>
   <g id="patch_25">
    <path d="M 135 785.785263 
L 135 523.174737 
" style="fill: none; stroke: #000000; stroke-width: 0.8; stroke-linejoin: miter; stroke-linecap: square"/>
   </g>
   <g id="patch_26">
    <path d="M 515.454545 785.785263 
L 515.454545 523.174737 
" style="fill: none; stroke: #000000; stroke-width: 0.8; stroke-linejoin: miter; stroke-linecap: square"/>
   </g>
   <g id="patch_27">
    <path d="M 135 785.785263 
L 515.454545 785.785263 
" style="fill: none; stroke: #000000; stroke-width: 0.8; stroke-linejoin: miter; stroke-linecap: square"/>
   </g>
   <g id="patch_28">
    <path d="M 135 523.174737 
L 515.454545 523.174737 
" style="fill: none; stroke: #000000; stroke-width: 0.8; stroke-linejoin: miter; stroke-linecap: square"/>
   </g>
   <g id="text_34">
    <!-- c -->
    <g transform="translate(91.769432 505.058783) scale(0.28 -0.28)">
     <defs>
      <path id="DejaVuSans-Bold-63" d="M 3366 3391 
L 3366 2478 
Q 3138 2634 2908 2709 
Q 2678 2784 2431 2784 
Q 1963 2784 1702 2511 
Q 1441 2238 1441 1747 
Q 1441 1256 1702 982 
Q 1963 709 2431 709 
Q 2694 709 2930 787 
Q 3166 866 3366 1019 
L 3366 103 
Q 3103 6 2833 -42 
Q 2563 -91 2291 -91 
Q 1344 -91 809 395 
Q 275 881 275 1747 
Q 275 2613 809 3098 
Q 1344 3584 2291 3584 
Q 2566 3584 2833 3536 
Q 3100 3488 3366 3391 
z
" transform="scale(0.015625)"/>
     </defs>
     <use xlink:href="#DejaVuSans-Bold-63"/>
    </g>
   </g>
   <g id="text_35">
    <!-- Trustworthiness -->
    <g transform="translate(230.950398 517.174737) scale(0.24 -0.24)">
     <defs>
      <path id="DejaVuSans-54" d="M -19 4666 
L 3928 4666 
L 3928 4134 
L 2272 4134 
L 2272 0 
L 1638 0 
L 1638 4134 
L -19 4134 
L -19 4666 
z
" transform="scale(0.015625)"/>
      <path id="DejaVuSans-77" d="M 269 3500 
L 844 3500 
L 1563 769 
L 2278 3500 
L 2956 3500 
L 3675 769 
L 4391 3500 
L 4966 3500 
L 4050 0 
L 3372 0 
L 2619 2869 
L 1863 0 
L 1184 0 
L 269 3500 
z
" transform="scale(0.015625)"/>
      <path id="DejaVuSans-6f" d="M 1959 3097 
Q 1497 3097 1228 2736 
Q 959 2375 959 1747 
Q 959 1119 1226 758 
Q 1494 397 1959 397 
Q 2419 397 2687 759 
Q 2956 1122 2956 1747 
Q 2956 2369 2687 2733 
Q 2419 3097 1959 3097 
z
M 1959 3584 
Q 2709 3584 3137 3096 
Q 3566 2609 3566 1747 
Q 3566 888 3137 398 
Q 2709 -91 1959 -91 
Q 1206 -91 779 398 
Q 353 888 353 1747 
Q 353 2609 779 3096 
Q 1206 3584 1959 3584 
z
" transform="scale(0.015625)"/>
      <path id="DejaVuSans-68" d="M 3513 2113 
L 3513 0 
L 2938 0 
L 2938 2094 
Q 2938 2591 2744 2837 
Q 2550 3084 2163 3084 
Q 1697 3084 1428 2787 
Q 1159 2491 1159 1978 
L 1159 0 
L 581 0 
L 581 4863 
L 1159 4863 
L 1159 2956 
Q 1366 3272 1645 3428 
Q 1925 3584 2291 3584 
Q 2894 3584 3203 3211 
Q 3513 2838 3513 2113 
z
" transform="scale(0.015625)"/>
      <path id="DejaVuSans-6e" d="M 3513 2113 
L 3513 0 
L 2938 0 
L 2938 2094 
Q 2938 2591 2744 2837 
Q 2550 3084 2163 3084 
Q 1697 3084 1428 2787 
Q 1159 2491 1159 1978 
L 1159 0 
L 581 0 
L 581 3500 
L 1159 3500 
L 1159 2956 
Q 1366 3272 1645 3428 
Q 1925 3584 2291 3584 
Q 2894 3584 3203 3211 
Q 3513 2838 3513 2113 
z
" transform="scale(0.015625)"/>
     </defs>
     <use xlink:href="#DejaVuSans-54"/>
     <use xlink:href="#DejaVuSans-72" x="46.333984"/>
     <use xlink:href="#DejaVuSans-75" x="87.447266"/>
     <use xlink:href="#DejaVuSans-73" x="150.826172"/>
     <use xlink:href="#DejaVuSans-74" x="202.925781"/>
     <use xlink:href="#DejaVuSans-77" x="242.134766"/>
     <use xlink:href="#DejaVuSans-6f" x="323.921875"/>
     <use xlink:href="#DejaVuSans-72" x="385.103516"/>
     <use xlink:href="#DejaVuSans-74" x="426.216797"/>
     <use xlink:href="#DejaVuSans-68" x="465.425781"/>
     <use xlink:href="#DejaVuSans-69" x="528.804688"/>
     <use xlink:href="#DejaVuSans-6e" x="556.587891"/>
     <use xlink:href="#DejaVuSans-65" x="619.966797"/>
     <use xlink:href="#DejaVuSans-73" x="681.490234"/>
     <use xlink:href="#DejaVuSans-73" x="733.589844"/>
    </g>
   </g>
  </g>
  <g id="axes_4">
   <g id="patch_29">
    <path d="M 591.545455 785.785263 
L 972 785.785263 
L 972 523.174737 
L 591.545455 523.174737 
z
" style="fill: #ffffff"/>
   </g>
   <g id="matplotlib.axis_7">
    <g id="xtick_13">
     <g id="line2d_33">
      <g>
       <use xlink:href="#mc2cb8a5772" x="594.427686" y="785.785263" style="stroke: #000000; stroke-width: 0.8"/>
      </g>
     </g>
     <g id="text_36">
      <!-- 0 -->
      <g transform="translate(587.428936 809.501826) scale(0.22 -0.22)">
       <use xlink:href="#DejaVuSans-30"/>
      </g>
     </g>
    </g>
    <g id="xtick_14">
     <g id="line2d_34">
      <g>
       <use xlink:href="#mc2cb8a5772" x="738.539256" y="785.785263" style="stroke: #000000; stroke-width: 0.8"/>
      </g>
     </g>
     <g id="text_37">
      <!-- 20 -->
      <g transform="translate(724.541756 809.501826) scale(0.22 -0.22)">
       <use xlink:href="#DejaVuSans-32"/>
       <use xlink:href="#DejaVuSans-30" x="63.623047"/>
      </g>
     </g>
    </g>
    <g id="xtick_15">
     <g id="line2d_35">
      <g>
       <use xlink:href="#mc2cb8a5772" x="882.650826" y="785.785263" style="stroke: #000000; stroke-width: 0.8"/>
      </g>
     </g>
     <g id="text_38">
      <!-- 40 -->
      <g transform="translate(868.653326 809.501826) scale(0.22 -0.22)">
       <use xlink:href="#DejaVuSans-34"/>
       <use xlink:href="#DejaVuSans-30" x="63.623047"/>
      </g>
     </g>
    </g>
    <g id="text_39">
     <!-- k -->
     <g transform="translate(774.823977 836.313388) scale(0.24 -0.24)">
      <use xlink:href="#DejaVuSans-6b"/>
     </g>
    </g>
   </g>
   <g id="matplotlib.axis_8">
    <g id="ytick_13">
     <g id="line2d_36">
      <g>
       <use xlink:href="#m5c0000f902" x="591.545455" y="751.792746" style="stroke: #000000; stroke-width: 0.8"/>
      </g>
     </g>
     <g id="text_40">
      <!-- 0.80 -->
      <g transform="translate(535.56108 760.151027) scale(0.22 -0.22)">
       <use xlink:href="#DejaVuSans-30"/>
       <use xlink:href="#DejaVuSans-2e" x="63.623047"/>
       <use xlink:href="#DejaVuSans-38" x="95.410156"/>
       <use xlink:href="#DejaVuSans-30" x="159.033203"/>
      </g>
     </g>
    </g>
    <g id="ytick_14">
     <g id="line2d_37">
      <g>
       <use xlink:href="#m5c0000f902" x="591.545455" y="693.395677" style="stroke: #000000; stroke-width: 0.8"/>
      </g>
     </g>
     <g id="text_41">
      <!-- 0.85 -->
      <g transform="translate(535.56108 701.753958) scale(0.22 -0.22)">
       <use xlink:href="#DejaVuSans-30"/>
       <use xlink:href="#DejaVuSans-2e" x="63.623047"/>
       <use xlink:href="#DejaVuSans-38" x="95.410156"/>
       <use xlink:href="#DejaVuSans-35" x="159.033203"/>
      </g>
     </g>
    </g>
    <g id="ytick_15">
     <g id="line2d_38">
      <g>
       <use xlink:href="#m5c0000f902" x="591.545455" y="634.998607" style="stroke: #000000; stroke-width: 0.8"/>
      </g>
     </g>
     <g id="text_42">
      <!-- 0.90 -->
      <g transform="translate(535.56108 643.356889) scale(0.22 -0.22)">
       <use xlink:href="#DejaVuSans-30"/>
       <use xlink:href="#DejaVuSans-2e" x="63.623047"/>
       <use xlink:href="#DejaVuSans-39" x="95.410156"/>
       <use xlink:href="#DejaVuSans-30" x="159.033203"/>
      </g>
     </g>
    </g>
    <g id="ytick_16">
     <g id="line2d_39">
      <g>
       <use xlink:href="#m5c0000f902" x="591.545455" y="576.601538" style="stroke: #000000; stroke-width: 0.8"/>
      </g>
     </g>
     <g id="text_43">
      <!-- 0.95 -->
      <g transform="translate(535.56108 584.959819) scale(0.22 -0.22)">
       <use xlink:href="#DejaVuSans-30"/>
       <use xlink:href="#DejaVuSans-2e" x="63.623047"/>
       <use xlink:href="#DejaVuSans-39" x="95.410156"/>
       <use xlink:href="#DejaVuSans-35" x="159.033203"/>
      </g>
     </g>
    </g>
   </g>
   <g id="line2d_40">
    <path d="M 608.838843 583.583024 
L 630.455579 607.126066 
L 666.483471 626.645611 
L 738.539256 649.705256 
L 954.706612 675.710432 
" clip-path="url(#p0c300fd14a)" style="fill: none; stroke: #1f77b4; stroke-width: 1.5; stroke-linecap: square"/>
    <g clip-path="url(#p0c300fd14a)">
     <use xlink:href="#m6598313d18" x="608.838843" y="583.583024" style="fill: #1f77b4; stroke: #1f77b4"/>
     <use xlink:href="#m6598313d18" x="630.455579" y="607.126066" style="fill: #1f77b4; stroke: #1f77b4"/>
     <use xlink:href="#m6598313d18" x="666.483471" y="626.645611" style="fill: #1f77b4; stroke: #1f77b4"/>
     <use xlink:href="#m6598313d18" x="738.539256" y="649.705256" style="fill: #1f77b4; stroke: #1f77b4"/>
     <use xlink:href="#m6598313d18" x="954.706612" y="675.710432" style="fill: #1f77b4; stroke: #1f77b4"/>
    </g>
   </g>
   <g id="line2d_41">
    <path d="M 608.838843 535.111579 
L 630.455579 550.234677 
L 666.483471 568.10124 
L 738.539256 594.857236 
L 954.706612 636.159247 
" clip-path="url(#p0c300fd14a)" style="fill: none; stroke: #ff7f0e; stroke-width: 1.5; stroke-linecap: square"/>
    <g clip-path="url(#p0c300fd14a)">
     <use xlink:href="#m54ac2d300b" x="608.838843" y="535.111579" style="fill: #ff7f0e; stroke: #ff7f0e"/>
     <use xlink:href="#m54ac2d300b" x="630.455579" y="550.234677" style="fill: #ff7f0e; stroke: #ff7f0e"/>
     <use xlink:href="#m54ac2d300b" x="666.483471" y="568.10124" style="fill: #ff7f0e; stroke: #ff7f0e"/>
     <use xlink:href="#m54ac2d300b" x="738.539256" y="594.857236" style="fill: #ff7f0e; stroke: #ff7f0e"/>
     <use xlink:href="#m54ac2d300b" x="954.706612" y="636.159247" style="fill: #ff7f0e; stroke: #ff7f0e"/>
    </g>
   </g>
   <g id="line2d_42">
    <path d="M 608.838843 535.449948 
L 630.455579 545.981527 
L 666.483471 564.038405 
L 738.539256 595.394809 
L 954.706612 646.730273 
" clip-path="url(#p0c300fd14a)" style="fill: none; stroke: #2ca02c; stroke-width: 1.5; stroke-linecap: square"/>
    <g clip-path="url(#p0c300fd14a)">
     <use xlink:href="#m59610c2ba2" x="608.838843" y="535.449948" style="fill: #2ca02c; stroke: #2ca02c"/>
     <use xlink:href="#m59610c2ba2" x="630.455579" y="545.981527" style="fill: #2ca02c; stroke: #2ca02c"/>
     <use xlink:href="#m59610c2ba2" x="666.483471" y="564.038405" style="fill: #2ca02c; stroke: #2ca02c"/>
     <use xlink:href="#m59610c2ba2" x="738.539256" y="595.394809" style="fill: #2ca02c; stroke: #2ca02c"/>
     <use xlink:href="#m59610c2ba2" x="954.706612" y="646.730273" style="fill: #2ca02c; stroke: #2ca02c"/>
    </g>
   </g>
   <g id="line2d_43">
    <path d="M 608.838843 584.786036 
L 630.455579 604.300468 
L 666.483471 637.95237 
L 738.539256 692.608138 
L 954.706612 773.848421 
" clip-path="url(#p0c300fd14a)" style="fill: none; stroke: #d62728; stroke-width: 1.5; stroke-linecap: square"/>
    <g clip-path="url(#p0c300fd14a)">
     <use xlink:href="#m3f0b9e02f6" x="608.838843" y="584.786036" style="fill: #d62728; stroke: #d62728"/>
     <use xlink:href="#m3f0b9e02f6" x="630.455579" y="604.300468" style="fill: #d62728; stroke: #d62728"/>
     <use xlink:href="#m3f0b9e02f6" x="666.483471" y="637.95237" style="fill: #d62728; stroke: #d62728"/>
     <use xlink:href="#m3f0b9e02f6" x="738.539256" y="692.608138" style="fill: #d62728; stroke: #d62728"/>
     <use xlink:href="#m3f0b9e02f6" x="954.706612" y="773.848421" style="fill: #d62728; stroke: #d62728"/>
    </g>
   </g>
   <g id="patch_30">
    <path d="M 591.545455 785.785263 
L 591.545455 523.174737 
" style="fill: none; stroke: #000000; stroke-width: 0.8; stroke-linejoin: miter; stroke-linecap: square"/>
   </g>
   <g id="patch_31">
    <path d="M 972 785.785263 
L 972 523.174737 
" style="fill: none; stroke: #000000; stroke-width: 0.8; stroke-linejoin: miter; stroke-linecap: square"/>
   </g>
   <g id="patch_32">
    <path d="M 591.545455 785.785263 
L 972 785.785263 
" style="fill: none; stroke: #000000; stroke-width: 0.8; stroke-linejoin: miter; stroke-linecap: square"/>
   </g>
   <g id="patch_33">
    <path d="M 591.545455 523.174737 
L 972 523.174737 
" style="fill: none; stroke: #000000; stroke-width: 0.8; stroke-linejoin: miter; stroke-linecap: square"/>
   </g>
   <g id="text_44">
    <!-- d -->
    <g transform="translate(544.871761 505.058783) scale(0.28 -0.28)">
     <defs>
      <path id="DejaVuSans-Bold-64" d="M 2919 2988 
L 2919 4863 
L 4044 4863 
L 4044 0 
L 2919 0 
L 2919 506 
Q 2688 197 2409 53 
Q 2131 -91 1766 -91 
Q 1119 -91 703 423 
Q 288 938 288 1747 
Q 288 2556 703 3070 
Q 1119 3584 1766 3584 
Q 2128 3584 2408 3439 
Q 2688 3294 2919 2988 
z
M 2181 722 
Q 2541 722 2730 984 
Q 2919 1247 2919 1747 
Q 2919 2247 2730 2509 
Q 2541 2772 2181 2772 
Q 1825 2772 1636 2509 
Q 1447 2247 1447 1747 
Q 1447 1247 1636 984 
Q 1825 722 2181 722 
z
" transform="scale(0.015625)"/>
     </defs>
     <use xlink:href="#DejaVuSans-Bold-64"/>
    </g>
   </g>
   <g id="text_45">
    <!-- Continuity -->
    <g transform="translate(720.057102 517.174737) scale(0.24 -0.24)">
     <defs>
      <path id="DejaVuSans-79" d="M 2059 -325 
Q 1816 -950 1584 -1140 
Q 1353 -1331 966 -1331 
L 506 -1331 
L 506 -850 
L 844 -850 
Q 1081 -850 1212 -737 
Q 1344 -625 1503 -206 
L 1606 56 
L 191 3500 
L 800 3500 
L 1894 763 
L 2988 3500 
L 3597 3500 
L 2059 -325 
z
" transform="scale(0.015625)"/>
     </defs>
     <use xlink:href="#DejaVuSans-43"/>
     <use xlink:href="#DejaVuSans-6f" x="69.824219"/>
     <use xlink:href="#DejaVuSans-6e" x="131.005859"/>
     <use xlink:href="#DejaVuSans-74" x="194.384766"/>
     <use xlink:href="#DejaVuSans-69" x="233.59375"/>
     <use xlink:href="#DejaVuSans-6e" x="261.376953"/>
     <use xlink:href="#DejaVuSans-75" x="324.755859"/>
     <use xlink:href="#DejaVuSans-69" x="388.134766"/>
     <use xlink:href="#DejaVuSans-74" x="415.917969"/>
     <use xlink:href="#DejaVuSans-79" x="455.126953"/>
    </g>
   </g>
  </g>
  <g id="axes_5">
   <g id="patch_34">
    <path d="M 135 1153.44 
L 515.454545 1153.44 
L 515.454545 890.829474 
L 135 890.829474 
z
" style="fill: #ffffff"/>
   </g>
   <g id="matplotlib.axis_9">
    <g id="xtick_16">
     <g id="line2d_44">
      <g>
       <use xlink:href="#mc2cb8a5772" x="152.122926" y="1153.44" style="stroke: #000000; stroke-width: 0.8"/>
      </g>
     </g>
     <g id="text_46">
      <!-- 0 -->
      <g transform="translate(145.124176 1177.156562) scale(0.22 -0.22)">
       <use xlink:href="#DejaVuSans-30"/>
      </g>
     </g>
    </g>
    <g id="xtick_17">
     <g id="line2d_45">
      <g>
       <use xlink:href="#mc2cb8a5772" x="237.354018" y="1153.44" style="stroke: #000000; stroke-width: 0.8"/>
      </g>
     </g>
     <g id="text_47">
      <!-- 500 -->
      <g transform="translate(216.357768 1177.156562) scale(0.22 -0.22)">
       <use xlink:href="#DejaVuSans-35"/>
       <use xlink:href="#DejaVuSans-30" x="63.623047"/>
       <use xlink:href="#DejaVuSans-30" x="127.246094"/>
      </g>
     </g>
    </g>
    <g id="xtick_18">
     <g id="line2d_46">
      <g>
       <use xlink:href="#mc2cb8a5772" x="322.585109" y="1153.44" style="stroke: #000000; stroke-width: 0.8"/>
      </g>
     </g>
     <g id="text_48">
      <!-- 1000 -->
      <g transform="translate(294.590109 1177.156562) scale(0.22 -0.22)">
       <use xlink:href="#DejaVuSans-31"/>
       <use xlink:href="#DejaVuSans-30" x="63.623047"/>
       <use xlink:href="#DejaVuSans-30" x="127.246094"/>
       <use xlink:href="#DejaVuSans-30" x="190.869141"/>
      </g>
     </g>
    </g>
    <g id="xtick_19">
     <g id="line2d_47">
      <g>
       <use xlink:href="#mc2cb8a5772" x="407.8162" y="1153.44" style="stroke: #000000; stroke-width: 0.8"/>
      </g>
     </g>
     <g id="text_49">
      <!-- 1500 -->
      <g transform="translate(379.8212 1177.156562) scale(0.22 -0.22)">
       <use xlink:href="#DejaVuSans-31"/>
       <use xlink:href="#DejaVuSans-35" x="63.623047"/>
       <use xlink:href="#DejaVuSans-30" x="127.246094"/>
       <use xlink:href="#DejaVuSans-30" x="190.869141"/>
      </g>
     </g>
    </g>
    <g id="xtick_20">
     <g id="line2d_48">
      <g>
       <use xlink:href="#mc2cb8a5772" x="493.047292" y="1153.44" style="stroke: #000000; stroke-width: 0.8"/>
      </g>
     </g>
     <g id="text_50">
      <!-- 2000 -->
      <g transform="translate(465.052292 1177.156562) scale(0.22 -0.22)">
       <use xlink:href="#DejaVuSans-32"/>
       <use xlink:href="#DejaVuSans-30" x="63.623047"/>
       <use xlink:href="#DejaVuSans-30" x="127.246094"/>
       <use xlink:href="#DejaVuSans-30" x="190.869141"/>
      </g>
     </g>
    </g>
    <g id="text_51">
     <!-- k -->
     <g transform="translate(318.278523 1203.968125) scale(0.24 -0.24)">
      <use xlink:href="#DejaVuSans-6b"/>
     </g>
    </g>
   </g>
   <g id="matplotlib.axis_10">
    <g id="ytick_17">
     <g id="line2d_49">
      <g>
       <use xlink:href="#m5c0000f902" x="135" y="1113.810723" style="stroke: #000000; stroke-width: 0.8"/>
      </g>
     </g>
     <g id="text_52">
      <!-- 0.2 -->
      <g transform="translate(93.013125 1122.169005) scale(0.22 -0.22)">
       <use xlink:href="#DejaVuSans-30"/>
       <use xlink:href="#DejaVuSans-2e" x="63.623047"/>
       <use xlink:href="#DejaVuSans-32" x="95.410156"/>
      </g>
     </g>
    </g>
    <g id="ytick_18">
     <g id="line2d_50">
      <g>
       <use xlink:href="#m5c0000f902" x="135" y="1061.049621" style="stroke: #000000; stroke-width: 0.8"/>
      </g>
     </g>
     <g id="text_53">
      <!-- 0.4 -->
      <g transform="translate(93.013125 1069.407903) scale(0.22 -0.22)">
       <use xlink:href="#DejaVuSans-30"/>
       <use xlink:href="#DejaVuSans-2e" x="63.623047"/>
       <use xlink:href="#DejaVuSans-34" x="95.410156"/>
      </g>
     </g>
    </g>
    <g id="ytick_19">
     <g id="line2d_51">
      <g>
       <use xlink:href="#m5c0000f902" x="135" y="1008.28852" style="stroke: #000000; stroke-width: 0.8"/>
      </g>
     </g>
     <g id="text_54">
      <!-- 0.6 -->
      <g transform="translate(93.013125 1016.646801) scale(0.22 -0.22)">
       <use xlink:href="#DejaVuSans-30"/>
       <use xlink:href="#DejaVuSans-2e" x="63.623047"/>
       <use xlink:href="#DejaVuSans-36" x="95.410156"/>
      </g>
     </g>
    </g>
    <g id="ytick_20">
     <g id="line2d_52">
      <g>
       <use xlink:href="#m5c0000f902" x="135" y="955.527418" style="stroke: #000000; stroke-width: 0.8"/>
      </g>
     </g>
     <g id="text_55">
      <!-- 0.8 -->
      <g transform="translate(93.013125 963.885699) scale(0.22 -0.22)">
       <use xlink:href="#DejaVuSans-30"/>
       <use xlink:href="#DejaVuSans-2e" x="63.623047"/>
       <use xlink:href="#DejaVuSans-38" x="95.410156"/>
      </g>
     </g>
    </g>
    <g id="ytick_21">
     <g id="line2d_53">
      <g>
       <use xlink:href="#m5c0000f902" x="135" y="902.766316" style="stroke: #000000; stroke-width: 0.8"/>
      </g>
     </g>
     <g id="text_56">
      <!-- 1.0 -->
      <g transform="translate(93.013125 911.124597) scale(0.22 -0.22)">
       <use xlink:href="#DejaVuSans-31"/>
       <use xlink:href="#DejaVuSans-2e" x="63.623047"/>
       <use xlink:href="#DejaVuSans-30" x="95.410156"/>
      </g>
     </g>
    </g>
    <g id="text_57">
     <!-- Metric Value -->
     <g transform="translate(84.021875 1096.210362) rotate(-90) scale(0.24 -0.24)">
      <use xlink:href="#DejaVuSans-4d"/>
      <use xlink:href="#DejaVuSans-65" x="86.279297"/>
      <use xlink:href="#DejaVuSans-74" x="147.802734"/>
      <use xlink:href="#DejaVuSans-72" x="187.011719"/>
      <use xlink:href="#DejaVuSans-69" x="228.125"/>
      <use xlink:href="#DejaVuSans-63" x="255.908203"/>
      <use xlink:href="#DejaVuSans-20" x="310.888672"/>
      <use xlink:href="#DejaVuSans-56" x="342.675781"/>
      <use xlink:href="#DejaVuSans-61" x="403.333984"/>
      <use xlink:href="#DejaVuSans-6c" x="464.613281"/>
      <use xlink:href="#DejaVuSans-75" x="492.396484"/>
      <use xlink:href="#DejaVuSans-65" x="555.775391"/>
     </g>
    </g>
   </g>
   <g id="line2d_54">
    <path d="M 152.293388 1141.503158 
L 152.804775 1131.761448 
L 153.316162 1127.011204 
L 155.191246 1119.883778 
L 156.214019 1117.911983 
L 156.725405 1116.718323 
L 157.91864 1113.978052 
L 159.793724 1110.191137 
L 160.816498 1108.445015 
L 161.157422 1108.087254 
L 163.884817 1103.682733 
L 172.237464 1089.414179 
L 173.430699 1087.59695 
L 174.964859 1085.240662 
L 182.635657 1074.606454 
L 186.556287 1070.348164 
L 187.749522 1069.422582 
L 189.11322 1068.624392 
L 195.931707 1064.880502 
L 206.159438 1058.707432 
L 207.693598 1057.707717 
L 209.057295 1056.826114 
L 210.250531 1056.043887 
L 216.046245 1052.375083 
L 217.23948 1051.579863 
L 218.944102 1050.459919 
L 230.365068 1042.598129 
L 238.547253 1037.159643 
L 272.128303 1014.180667 
L 275.537546 1011.972321 
L 284.572042 1006.375483 
L 285.93574 1005.516993 
L 289.515445 1003.27369 
L 296.163471 998.982439 
L 300.084101 996.578685 
L 303.663807 994.372142 
L 305.879815 993.079672 
L 315.766622 987.278086 
L 319.687252 985.04581 
L 323.266958 982.991174 
L 347.472588 969.613828 
L 357.01847 964.475268 
L 359.234478 963.320251 
L 361.961873 961.952019 
L 370.825907 957.583215 
L 410.202671 938.929122 
L 419.748553 934.423192 
L 427.760276 930.913773 
L 435.260612 927.991773 
L 439.863091 926.271693 
L 444.806494 924.541525 
L 448.215738 923.425322 
L 450.431746 922.778126 
L 455.034225 921.620901 
L 459.295779 920.58323 
L 462.875485 919.631142 
L 475.830611 915.573527 
L 478.728468 914.471214 
L 484.865107 911.677518 
L 489.978972 908.792676 
L 492.876829 906.74721 
L 498.161157 902.766316 
L 498.161157 902.766316 
" clip-path="url(#pba3b35c5e8)" style="fill: none; stroke: #1f77b4; stroke-width: 1.5; stroke-linecap: square"/>
   </g>
   <g id="line2d_55">
    <path d="M 152.293388 1013.821811 
L 152.804775 1002.748734 
L 152.975237 1001.87198 
L 153.145699 1002.088462 
L 153.316162 1002.59565 
L 153.657086 1004.974895 
L 153.99801 1007.114791 
L 154.850321 1014.179007 
L 155.702632 1020.798731 
L 156.214019 1024.754174 
L 156.725405 1028.374242 
L 158.430027 1037.472226 
L 158.941414 1039.936088 
L 160.305111 1045.282122 
L 161.327884 1048.754862 
L 162.350657 1051.517899 
L 163.37343 1052.87918 
L 163.884817 1053.391037 
L 164.396203 1053.809727 
L 164.737128 1053.991006 
L 165.759901 1054.826292 
L 166.782674 1055.446854 
L 167.123598 1055.476478 
L 167.805447 1055.718224 
L 168.146371 1055.734655 
L 168.487296 1055.736872 
L 168.82822 1055.685982 
L 169.169145 1055.720257 
L 169.850993 1055.752379 
L 170.873766 1055.950869 
L 172.067002 1055.807194 
L 172.578388 1055.657044 
L 173.089775 1055.589195 
L 175.476245 1054.50945 
L 175.987632 1054.499481 
L 176.839943 1054.144876 
L 177.521791 1053.938478 
L 178.20364 1053.618076 
L 178.715027 1053.243264 
L 185.022127 1049.76014 
L 187.408598 1048.811649 
L 188.090447 1048.841489 
L 190.476917 1048.558873 
L 191.840615 1048.469408 
L 193.03385 1048.247391 
L 193.886161 1048.137548 
L 194.397548 1048.013118 
L 198.659102 1047.290473 
L 199.852337 1046.97285 
L 201.727421 1046.246864 
L 202.920657 1045.904945 
L 203.772968 1045.643016 
L 209.057295 1043.858556 
L 214.682547 1041.728581 
L 222.69427 1037.870815 
L 223.717043 1037.526639 
L 224.739816 1037.10526 
L 232.922001 1033.662016 
L 236.672169 1031.83769 
L 245.195278 1028.001887 
L 246.558975 1027.418941 
L 247.581749 1026.940415 
L 250.650068 1025.4013 
L 252.525152 1024.490389 
L 264.968891 1018.064213 
L 272.469227 1013.968626 
L 285.253891 1007.68391 
L 287.128975 1006.744967 
L 291.901916 1004.434762 
L 300.425025 1000.046958 
L 310.311832 994.835134 
L 312.357378 993.812753 
L 317.471243 991.121149 
L 318.834941 990.367864 
L 322.414647 988.434986 
L 324.630655 987.271351 
L 334.346999 982.153325 
L 337.756243 980.56963 
L 358.893554 970.253478 
L 361.791411 968.804339 
L 378.496705 960.818692 
L 386.337965 957.282079 
L 411.566368 945.279856 
L 423.498721 939.438061 
L 440.715401 931.741104 
L 444.465569 930.265014 
L 450.943132 927.991028 
L 452.477292 927.476866 
L 458.784393 925.352282 
L 464.06872 923.700949 
L 470.375821 920.655859 
L 473.444141 919.055558 
L 478.728468 916.113814 
L 486.228804 911.566261 
L 489.126661 909.655779 
L 492.365443 907.247828 
L 498.161157 902.766316 
L 498.161157 902.766316 
" clip-path="url(#pba3b35c5e8)" style="fill: none; stroke: #ff7f0e; stroke-width: 1.5; stroke-linecap: square"/>
   </g>
   <g id="line2d_56">
    <path d="M 152.293388 1094.48317 
L 152.634313 1057.811044 
L 153.145699 1032.504246 
L 153.486624 1025.495627 
L 153.657086 1024.083079 
L 153.827548 1023.927211 
L 153.99801 1023.032155 
L 154.168472 1023.379511 
L 154.509397 1022.301738 
L 155.191246 1025.46135 
L 157.748178 1038.673996 
L 158.770951 1042.23763 
L 161.498346 1051.421269 
L 162.350657 1053.247594 
L 162.691582 1053.549133 
L 164.566666 1056.607046 
L 166.953136 1058.572465 
L 167.634985 1058.949123 
L 168.487296 1058.992226 
L 170.021455 1059.221273 
L 170.873766 1059.47914 
L 171.726077 1059.502243 
L 172.067002 1059.522921 
L 175.987632 1058.952834 
L 177.180867 1058.571825 
L 178.374102 1058.026402 
L 181.612884 1055.975823 
L 182.294733 1055.368829 
L 182.806119 1055.008318 
L 185.363052 1052.917209 
L 186.215363 1052.465227 
L 186.726749 1052.223024 
L 188.090447 1052.07272 
L 193.886161 1050.989815 
L 194.397548 1050.874877 
L 196.443094 1050.606508 
L 197.124942 1050.56823 
L 197.977253 1050.441949 
L 198.829564 1050.376689 
L 207.011749 1048.334895 
L 207.693598 1048.087529 
L 208.375447 1047.903233 
L 210.080068 1047.309226 
L 211.78469 1046.740255 
L 214.341623 1045.75398 
L 215.364396 1045.284471 
L 220.648724 1043.133534 
L 223.035194 1042.174559 
L 224.398892 1041.730891 
L 227.126287 1040.684429 
L 231.899228 1038.440306 
L 233.092463 1037.892927 
L 235.478934 1036.805872 
L 237.013093 1036.102289 
L 239.399564 1034.961322 
L 242.126959 1033.811259 
L 243.149732 1033.334906 
L 244.683891 1032.556513 
L 252.184227 1028.993211 
L 259.684563 1024.905644 
L 273.321538 1017.083662 
L 296.504395 1004.50228 
L 298.549941 1003.471631 
L 302.300109 1001.415376 
L 310.652756 996.920118 
L 330.596831 986.840282 
L 332.81284 985.756863 
L 338.438092 982.742101 
L 341.676873 980.89705 
L 346.10889 978.413919 
L 349.688596 976.47674 
L 354.461537 973.941039 
L 364.348344 968.560496 
L 377.133007 961.140709 
L 384.121957 956.978897 
L 387.360738 955.00306 
L 398.781705 948.024043 
L 417.362082 937.587044 
L 429.464897 931.439635 
L 436.283385 928.379475 
L 445.829267 924.595963 
L 447.533889 923.949617 
L 449.920359 923.393462 
L 460.489015 921.230581 
L 461.511788 921.061981 
L 464.921031 920.247173 
L 465.943805 919.999424 
L 473.444141 917.442999 
L 481.626325 913.769627 
L 487.592502 910.386894 
L 491.001745 908.026317 
L 495.2633 904.942174 
L 497.820233 903.026479 
L 498.161157 902.766316 
L 498.161157 902.766316 
" clip-path="url(#pba3b35c5e8)" style="fill: none; stroke: #2ca02c; stroke-width: 1.5; stroke-linecap: square"/>
   </g>
   <g id="line2d_57">
    <path d="M 152.293388 1086.430023 
L 152.634313 1060.062461 
L 153.145699 1041.618157 
L 153.657086 1033.521714 
L 153.99801 1031.108918 
L 154.168472 1030.674969 
L 154.509397 1029.195157 
L 154.850321 1029.35172 
L 155.020783 1029.500234 
L 155.191246 1029.235361 
L 155.361708 1029.456401 
L 155.53217 1029.36958 
L 156.043556 1030.701794 
L 156.554943 1032.321069 
L 157.577716 1036.739184 
L 158.600489 1041.102017 
L 159.793724 1044.934668 
L 160.134649 1046.125598 
L 160.305111 1046.353711 
L 162.350657 1052.381664 
L 162.691582 1053.381534 
L 163.032506 1054.067251 
L 164.055279 1056.41999 
L 167.123598 1061.20047 
L 167.634985 1061.922307 
L 169.680531 1064.41565 
L 170.021455 1064.719927 
L 171.044229 1065.817384 
L 171.896539 1066.522223 
L 174.112548 1067.685664 
L 174.623934 1067.944391 
L 175.305783 1068.170047 
L 175.646707 1068.350916 
L 176.158094 1068.5845 
L 176.499018 1068.649699 
L 177.180867 1068.867554 
L 178.033178 1069.164124 
L 180.760573 1069.978131 
L 181.271959 1070.085219 
L 181.783346 1070.125163 
L 182.294733 1070.103578 
L 187.408598 1071.474538 
L 189.11322 1072.112254 
L 190.135993 1072.487001 
L 190.64738 1072.669211 
L 192.181539 1073.170796 
L 193.886161 1073.630344 
L 198.318178 1074.34551 
L 199.852337 1074.393909 
L 203.432043 1074.566929 
L 204.113892 1074.527038 
L 205.477589 1074.498867 
L 212.296077 1073.776655 
L 213.148388 1073.678724 
L 214.171161 1073.50281 
L 220.478261 1072.175545 
L 224.398892 1071.129105 
L 233.944774 1068.374034 
L 235.308471 1067.924234 
L 236.501707 1067.525727 
L 237.694942 1067.063038 
L 239.058639 1066.519751 
L 242.638345 1065.127417 
L 243.661118 1064.719858 
L 246.388513 1063.43395 
L 269.059984 1052.305258 
L 273.662462 1049.873881 
L 297.527168 1036.24122 
L 305.368428 1031.313111 
L 307.754899 1029.939344 
L 315.937084 1024.896611 
L 322.585109 1020.726475 
L 324.971579 1019.248219 
L 328.210361 1017.206104 
L 333.494689 1013.958903 
L 351.734142 1002.276845 
L 360.768638 996.815841 
L 364.518806 994.61954 
L 369.632671 991.596359 
L 371.678217 990.404192 
L 387.360738 981.055687 
L 402.36141 971.710902 
L 421.623637 958.774802 
L 443.101872 943.255762 
L 448.897586 938.913264 
L 458.613931 931.786498 
L 465.261956 926.970656 
L 491.854056 907.601684 
L 494.922376 905.25876 
L 498.161157 902.766316 
L 498.161157 902.766316 
" clip-path="url(#pba3b35c5e8)" style="fill: none; stroke: #d62728; stroke-width: 1.5; stroke-linecap: square"/>
   </g>
   <g id="patch_35">
    <path d="M 135 1153.44 
L 135 890.829474 
" style="fill: none; stroke: #000000; stroke-width: 0.8; stroke-linejoin: miter; stroke-linecap: square"/>
   </g>
   <g id="patch_36">
    <path d="M 515.454545 1153.44 
L 515.454545 890.829474 
" style="fill: none; stroke: #000000; stroke-width: 0.8; stroke-linejoin: miter; stroke-linecap: square"/>
   </g>
   <g id="patch_37">
    <path d="M 135 1153.44 
L 515.454545 1153.44 
" style="fill: none; stroke: #000000; stroke-width: 0.8; stroke-linejoin: miter; stroke-linecap: square"/>
   </g>
   <g id="patch_38">
    <path d="M 135 890.829474 
L 515.454545 890.829474 
" style="fill: none; stroke: #000000; stroke-width: 0.8; stroke-linejoin: miter; stroke-linecap: square"/>
   </g>
   <g id="text_58">
    <!-- e -->
    <g transform="translate(89.376307 872.71352) scale(0.28 -0.28)">
     <defs>
      <path id="DejaVuSans-Bold-65" d="M 4031 1759 
L 4031 1441 
L 1416 1441 
Q 1456 1047 1700 850 
Q 1944 653 2381 653 
Q 2734 653 3104 758 
Q 3475 863 3866 1075 
L 3866 213 
Q 3469 63 3072 -14 
Q 2675 -91 2278 -91 
Q 1328 -91 801 392 
Q 275 875 275 1747 
Q 275 2603 792 3093 
Q 1309 3584 2216 3584 
Q 3041 3584 3536 3087 
Q 4031 2591 4031 1759 
z
M 2881 2131 
Q 2881 2450 2695 2645 
Q 2509 2841 2209 2841 
Q 1884 2841 1681 2658 
Q 1478 2475 1428 2131 
L 2881 2131 
z
" transform="scale(0.015625)"/>
     </defs>
     <use xlink:href="#DejaVuSans-Bold-65"/>
    </g>
   </g>
   <g id="text_59">
    <!-- $Q_{NN}$ -->
    <g transform="translate(302.787273 884.829474) scale(0.24 -0.24)">
     <use xlink:href="#DejaVuSans-Oblique-51" transform="translate(0 0.78125)"/>
     <use xlink:href="#DejaVuSans-Oblique-4e" transform="translate(78.710938 -15.625) scale(0.7)"/>
     <use xlink:href="#DejaVuSans-Oblique-4e" transform="translate(131.074219 -15.625) scale(0.7)"/>
    </g>
   </g>
  </g>
  <g id="axes_6">
   <g id="patch_39">
    <path d="M 591.545455 1153.44 
L 972 1153.44 
L 972 890.829474 
L 591.545455 890.829474 
z
" style="fill: #ffffff"/>
   </g>
   <g id="matplotlib.axis_11">
    <g id="xtick_21">
     <g id="line2d_58">
      <g>
       <use xlink:href="#mc2cb8a5772" x="608.668381" y="1153.44" style="stroke: #000000; stroke-width: 0.8"/>
      </g>
     </g>
     <g id="text_60">
      <!-- 0 -->
      <g transform="translate(601.669631 1177.156562) scale(0.22 -0.22)">
       <use xlink:href="#DejaVuSans-30"/>
      </g>
     </g>
    </g>
    <g id="xtick_22">
     <g id="line2d_59">
      <g>
       <use xlink:href="#mc2cb8a5772" x="693.899472" y="1153.44" style="stroke: #000000; stroke-width: 0.8"/>
      </g>
     </g>
     <g id="text_61">
      <!-- 500 -->
      <g transform="translate(672.903222 1177.156562) scale(0.22 -0.22)">
       <use xlink:href="#DejaVuSans-35"/>
       <use xlink:href="#DejaVuSans-30" x="63.623047"/>
       <use xlink:href="#DejaVuSans-30" x="127.246094"/>
      </g>
     </g>
    </g>
    <g id="xtick_23">
     <g id="line2d_60">
      <g>
       <use xlink:href="#mc2cb8a5772" x="779.130563" y="1153.44" style="stroke: #000000; stroke-width: 0.8"/>
      </g>
     </g>
     <g id="text_62">
      <!-- 1000 -->
      <g transform="translate(751.135563 1177.156562) scale(0.22 -0.22)">
       <use xlink:href="#DejaVuSans-31"/>
       <use xlink:href="#DejaVuSans-30" x="63.623047"/>
       <use xlink:href="#DejaVuSans-30" x="127.246094"/>
       <use xlink:href="#DejaVuSans-30" x="190.869141"/>
      </g>
     </g>
    </g>
    <g id="xtick_24">
     <g id="line2d_61">
      <g>
       <use xlink:href="#mc2cb8a5772" x="864.361655" y="1153.44" style="stroke: #000000; stroke-width: 0.8"/>
      </g>
     </g>
     <g id="text_63">
      <!-- 1500 -->
      <g transform="translate(836.366655 1177.156562) scale(0.22 -0.22)">
       <use xlink:href="#DejaVuSans-31"/>
       <use xlink:href="#DejaVuSans-35" x="63.623047"/>
       <use xlink:href="#DejaVuSans-30" x="127.246094"/>
       <use xlink:href="#DejaVuSans-30" x="190.869141"/>
      </g>
     </g>
    </g>
    <g id="xtick_25">
     <g id="line2d_62">
      <g>
       <use xlink:href="#mc2cb8a5772" x="949.592746" y="1153.44" style="stroke: #000000; stroke-width: 0.8"/>
      </g>
     </g>
     <g id="text_64">
      <!-- 2000 -->
      <g transform="translate(921.597746 1177.156562) scale(0.22 -0.22)">
       <use xlink:href="#DejaVuSans-32"/>
       <use xlink:href="#DejaVuSans-30" x="63.623047"/>
       <use xlink:href="#DejaVuSans-30" x="127.246094"/>
       <use xlink:href="#DejaVuSans-30" x="190.869141"/>
      </g>
     </g>
    </g>
    <g id="text_65">
     <!-- k -->
     <g transform="translate(774.823977 1203.968125) scale(0.24 -0.24)">
      <use xlink:href="#DejaVuSans-6b"/>
     </g>
    </g>
   </g>
   <g id="matplotlib.axis_12">
    <g id="ytick_22">
     <g id="line2d_63">
      <g>
       <use xlink:href="#m5c0000f902" x="591.545455" y="1141.410662" style="stroke: #000000; stroke-width: 0.8"/>
      </g>
     </g>
     <g id="text_66">
      <!-- 0.0 -->
      <g transform="translate(549.55858 1149.768943) scale(0.22 -0.22)">
       <use xlink:href="#DejaVuSans-30"/>
       <use xlink:href="#DejaVuSans-2e" x="63.623047"/>
       <use xlink:href="#DejaVuSans-30" x="95.410156"/>
      </g>
     </g>
    </g>
    <g id="ytick_23">
     <g id="line2d_64">
      <g>
       <use xlink:href="#m5c0000f902" x="591.545455" y="1064.658863" style="stroke: #000000; stroke-width: 0.8"/>
      </g>
     </g>
     <g id="text_67">
      <!-- 0.2 -->
      <g transform="translate(549.55858 1073.017144) scale(0.22 -0.22)">
       <use xlink:href="#DejaVuSans-30"/>
       <use xlink:href="#DejaVuSans-2e" x="63.623047"/>
       <use xlink:href="#DejaVuSans-32" x="95.410156"/>
      </g>
     </g>
    </g>
    <g id="ytick_24">
     <g id="line2d_65">
      <g>
       <use xlink:href="#m5c0000f902" x="591.545455" y="987.907063" style="stroke: #000000; stroke-width: 0.8"/>
      </g>
     </g>
     <g id="text_68">
      <!-- 0.4 -->
      <g transform="translate(549.55858 996.265345) scale(0.22 -0.22)">
       <use xlink:href="#DejaVuSans-30"/>
       <use xlink:href="#DejaVuSans-2e" x="63.623047"/>
       <use xlink:href="#DejaVuSans-34" x="95.410156"/>
      </g>
     </g>
    </g>
    <g id="ytick_25">
     <g id="line2d_66">
      <g>
       <use xlink:href="#m5c0000f902" x="591.545455" y="911.155264" style="stroke: #000000; stroke-width: 0.8"/>
      </g>
     </g>
     <g id="text_69">
      <!-- 0.6 -->
      <g transform="translate(549.55858 919.513545) scale(0.22 -0.22)">
       <use xlink:href="#DejaVuSans-30"/>
       <use xlink:href="#DejaVuSans-2e" x="63.623047"/>
       <use xlink:href="#DejaVuSans-36" x="95.410156"/>
      </g>
     </g>
    </g>
   </g>
   <g id="line2d_67">
    <path d="M 608.838843 1105.132209 
L 609.35023 1091.528033 
L 609.861616 1085.184965 
L 611.395776 1078.326216 
L 611.907162 1076.632153 
L 613.441322 1073.552952 
L 613.952708 1072.257569 
L 614.123171 1071.808904 
L 614.293633 1071.696628 
L 615.65733 1069.009468 
L 615.827792 1068.884472 
L 616.339179 1067.900407 
L 617.361952 1066.494579 
L 617.702876 1066.352231 
L 619.237036 1064.446426 
L 620.089347 1063.408435 
L 621.964431 1060.866759 
L 622.64628 1059.932126 
L 624.862288 1056.757629 
L 625.714599 1055.624987 
L 627.419221 1053.225556 
L 628.953381 1051.325569 
L 629.294305 1051.014451 
L 629.976154 1050.156056 
L 631.169389 1048.78268 
L 637.646952 1042.530768 
L 638.499263 1041.844501 
L 641.39712 1040.204067 
L 643.101742 1039.620549 
L 643.954053 1039.542567 
L 647.874683 1040.561117 
L 648.556532 1040.837156 
L 650.602078 1041.636065 
L 651.624851 1041.849568 
L 652.3067 1042.027937 
L 654.011321 1042.467132 
L 654.522708 1042.597594 
L 656.738716 1043.10747 
L 657.079641 1043.148769 
L 658.784262 1043.533254 
L 659.466111 1043.670964 
L 661.170733 1044.119259 
L 662.363968 1044.381674 
L 663.898128 1044.559816 
L 668.159683 1045.351668 
L 670.887077 1045.883176 
L 672.591699 1046.179616 
L 673.273548 1046.253642 
L 675.830481 1046.63098 
L 676.682792 1046.722853 
L 679.239724 1046.99618 
L 683.501279 1047.434101 
L 684.35359 1047.547716 
L 689.637918 1048.189574 
L 691.172077 1048.489205 
L 692.365312 1048.663453 
L 694.410859 1048.924574 
L 695.604094 1049.041203 
L 697.64964 1049.195533 
L 699.1838 1049.476294 
L 710.775228 1050.720526 
L 711.798001 1050.87461 
L 712.47985 1050.92177 
L 727.480522 1052.620155 
L 737.537791 1054.575926 
L 738.901488 1054.854528 
L 740.435648 1055.13187 
L 743.674429 1055.769683 
L 748.788295 1056.707817 
L 752.368001 1057.297555 
L 758.163715 1058.52955 
L 761.743421 1059.362738 
L 763.959429 1059.89901 
L 764.81174 1060.089292 
L 767.368673 1060.698036 
L 790.892454 1067.525247 
L 793.960773 1068.493755 
L 797.710941 1069.625022 
L 803.506656 1071.380446 
L 806.404513 1072.271274 
L 809.131908 1073.190964 
L 810.666067 1073.692102 
L 814.075311 1074.810973 
L 820.552874 1077.19919 
L 823.109807 1078.246824 
L 824.984891 1078.974314 
L 829.928294 1080.945538 
L 834.360311 1082.76065 
L 836.576319 1083.730449 
L 839.644638 1085.061563 
L 842.88342 1086.439465 
L 846.292663 1087.880973 
L 853.281613 1091.031174 
L 859.588714 1093.605013 
L 869.816445 1097.797961 
L 880.555562 1102.446671 
L 884.646655 1104.45955 
L 887.544512 1105.996308 
L 890.953755 1107.854091 
L 897.090394 1111.320954 
L 899.476864 1112.70418 
L 906.465814 1117.202517 
L 916.35262 1124.613194 
L 919.080015 1126.579585 
L 927.432662 1132.183864 
L 933.228377 1135.790053 
L 936.63762 1137.550089 
L 941.921948 1139.798614 
L 945.331192 1140.856102 
L 946.524427 1141.103129 
L 948.740435 1141.322921 
L 951.126906 1141.328575 
L 954.195225 1141.306073 
L 954.536149 1141.410755 
L 954.706612 1141.410662 
L 954.706612 1141.410662 
" clip-path="url(#pa1cd82585f)" style="fill: none; stroke: #1f77b4; stroke-width: 1.5; stroke-linecap: square"/>
   </g>
   <g id="line2d_68">
    <path d="M 608.838843 919.39361 
L 609.35023 903.85269 
L 609.520692 902.766316 
L 609.691154 903.270278 
L 609.861616 904.197129 
L 610.20254 908.036315 
L 610.713927 913.552907 
L 611.054851 916.722517 
L 611.566238 925.085852 
L 612.929935 942.032146 
L 615.486868 964.754871 
L 616.850566 974.04412 
L 618.043801 981.175229 
L 619.237036 986.488999 
L 620.941658 990.986314 
L 621.282582 991.62811 
L 622.475818 994.323533 
L 623.157666 995.79311 
L 624.009977 997.081652 
L 625.03275 998.326792 
L 625.373675 998.63085 
L 625.714599 999.058798 
L 626.396448 999.861702 
L 627.419221 1001.28471 
L 628.612456 1002.399011 
L 629.123843 1002.747718 
L 629.635229 1003.21615 
L 630.658002 1003.579427 
L 630.998927 1003.599862 
L 631.680775 1003.983243 
L 632.192162 1004.505404 
L 632.703549 1004.959794 
L 633.385397 1005.274058 
L 633.726322 1005.49548 
L 634.237708 1005.842375 
L 634.578633 1005.986893 
L 636.112792 1006.179152 
L 636.624179 1006.32498 
L 637.646952 1006.722376 
L 639.010649 1007.022732 
L 640.203885 1007.397446 
L 640.715271 1007.524384 
L 641.738044 1008.050909 
L 642.419893 1008.352406 
L 643.272204 1008.643711 
L 643.613128 1008.890462 
L 644.124515 1009.46245 
L 645.658674 1011.046998 
L 646.510985 1011.73365 
L 647.704221 1013.036222 
L 653.840859 1018.348524 
L 654.352246 1018.840405 
L 655.886405 1019.98749 
L 657.079641 1020.740806 
L 659.295649 1022.074866 
L 660.318422 1022.775292 
L 662.534431 1024.336047 
L 663.727666 1025.087422 
L 664.239052 1025.371915 
L 665.773212 1026.139577 
L 666.284599 1026.394588 
L 668.841531 1028.044157 
L 671.909851 1029.46462 
L 673.955397 1030.179967 
L 674.97817 1030.593975 
L 676.512329 1031.203958 
L 677.36464 1031.54869 
L 678.387413 1031.988955 
L 684.183128 1035.049158 
L 684.864976 1035.378185 
L 687.933296 1037.116552 
L 689.467455 1037.672978 
L 690.831153 1038.271554 
L 697.64964 1041.179605 
L 698.842875 1041.725688 
L 699.865649 1042.172308 
L 702.422581 1043.4129 
L 703.274892 1043.815972 
L 704.297665 1044.207464 
L 706.854598 1045.182381 
L 707.877371 1045.599269 
L 710.093379 1046.443182 
L 712.47985 1047.448054 
L 714.695858 1048.145411 
L 715.889094 1048.581435 
L 717.252791 1049.037436 
L 720.662035 1050.234193 
L 723.048505 1051.012448 
L 724.582665 1051.550621 
L 725.434976 1051.811354 
L 726.969136 1052.281515 
L 733.276236 1054.436505 
L 737.026404 1056.106874 
L 748.788295 1060.703137 
L 751.004303 1061.541166 
L 752.708925 1062.144976 
L 756.800018 1063.583822 
L 763.107118 1065.550967 
L 764.470816 1066.113065 
L 767.709597 1067.360152 
L 770.607454 1068.40259 
L 772.312076 1068.967725 
L 773.505311 1069.359777 
L 775.380395 1069.970886 
L 777.766866 1070.745317 
L 787.824135 1074.209836 
L 789.528757 1074.687988 
L 792.085689 1075.737336 
L 798.222328 1078.339362 
L 818.848252 1086.439462 
L 821.06426 1087.346297 
L 823.791655 1088.506029 
L 830.951067 1091.390968 
L 840.496949 1095.59276 
L 842.712958 1096.625978 
L 853.452075 1101.307548 
L 855.668083 1102.243384 
L 860.611487 1104.280572 
L 864.873041 1105.992239 
L 867.941361 1107.161209 
L 875.441697 1109.904241 
L 878.339554 1111.186168 
L 879.873713 1111.878161 
L 898.965478 1120.716135 
L 901.863335 1122.354575 
L 912.091066 1128.589481 
L 914.818461 1130.283395 
L 915.841234 1130.948914 
L 919.932326 1133.687636 
L 922.659721 1135.02146 
L 933.398839 1138.780794 
L 937.660393 1139.856265 
L 943.285645 1141.081679 
L 946.01304 1141.436181 
L 950.956444 1141.455193 
L 954.706612 1141.410662 
L 954.706612 1141.410662 
" clip-path="url(#pa1cd82585f)" style="fill: none; stroke: #ff7f0e; stroke-width: 1.5; stroke-linecap: square"/>
   </g>
   <g id="line2d_69">
    <path d="M 608.838843 1036.732033 
L 609.179767 983.763023 
L 609.691154 947.516247 
L 610.032078 937.698867 
L 610.20254 935.833071 
L 610.373003 935.795374 
L 610.543465 934.682376 
L 610.713927 935.37672 
L 611.054851 934.186966 
L 611.7367 939.539443 
L 614.464095 962.755324 
L 617.021028 978.485681 
L 618.896112 987.900051 
L 619.407498 989.326159 
L 620.089347 992.041451 
L 620.600734 993.62799 
L 621.623507 996.477585 
L 623.669053 1001.086411 
L 624.350902 1002.228236 
L 625.203213 1003.273309 
L 625.714599 1003.943175 
L 626.055523 1004.278952 
L 627.419221 1006.417299 
L 627.760145 1006.849342 
L 628.10107 1007.194961 
L 629.805691 1009.048481 
L 630.317078 1009.503608 
L 631.169389 1010.29112 
L 631.510313 1010.501408 
L 632.192162 1011.114573 
L 632.703549 1011.452464 
L 633.214935 1011.847144 
L 633.555859 1011.986509 
L 634.749095 1012.606178 
L 635.260481 1012.712166 
L 636.112792 1013.001331 
L 636.794641 1013.056308 
L 637.646952 1013.275633 
L 641.567582 1012.904906 
L 642.078969 1013.028187 
L 643.272204 1013.442874 
L 644.635901 1014.736577 
L 650.090691 1019.295663 
L 651.283926 1020.277948 
L 651.965775 1020.917194 
L 656.397792 1025.018761 
L 657.761489 1026.062034 
L 658.102414 1026.302137 
L 659.466111 1027.387593 
L 666.625523 1032.193757 
L 667.818758 1032.934038 
L 669.352918 1033.901092 
L 672.080313 1035.191468 
L 685.546825 1042.258518 
L 690.319766 1044.363352 
L 691.683464 1044.968498 
L 692.876699 1045.441352 
L 695.26317 1046.458859 
L 697.308716 1047.35468 
L 698.331489 1047.905645 
L 699.524724 1048.479128 
L 701.911195 1049.441519 
L 703.956741 1050.382004 
L 704.979514 1050.786952 
L 708.218295 1052.06122 
L 709.752455 1052.625543 
L 711.627539 1053.237825 
L 730.889766 1058.715912 
L 732.935312 1059.333663 
L 736.344556 1060.408392 
L 738.901488 1061.277617 
L 740.60611 1061.820185 
L 744.356278 1062.943428 
L 747.765522 1063.932284 
L 751.174765 1065.058571 
L 752.879387 1065.699157 
L 756.118169 1066.897347 
L 759.016026 1067.75633 
L 765.152664 1069.607342 
L 772.312076 1072.286567 
L 774.18716 1072.957061 
L 791.915227 1079.66248 
L 795.494933 1080.774144 
L 797.370017 1081.29866 
L 799.074639 1081.763224 
L 813.904849 1086.543707 
L 816.461781 1087.418796 
L 820.041487 1088.476478 
L 822.427958 1089.15412 
L 827.030437 1090.491213 
L 833.678462 1092.107013 
L 836.746781 1092.876709 
L 839.644638 1093.563371 
L 855.327159 1097.034711 
L 872.884764 1102.097383 
L 876.46447 1103.354557 
L 879.021402 1104.202863 
L 881.237411 1105.02157 
L 890.101444 1108.816342 
L 897.60178 1112.529653 
L 899.988251 1113.864953 
L 904.079343 1116.080079 
L 906.12489 1117.639466 
L 916.693545 1126.189564 
L 920.614175 1129.349687 
L 928.114511 1134.400123 
L 936.808082 1138.601571 
L 939.705939 1139.54546 
L 944.137956 1140.775631 
L 945.842578 1140.94615 
L 954.706612 1141.410662 
L 954.706612 1141.410662 
" clip-path="url(#pa1cd82585f)" style="fill: none; stroke: #2ca02c; stroke-width: 1.5; stroke-linecap: square"/>
   </g>
   <g id="line2d_70">
    <path d="M 608.838843 1025.017086 
L 609.179767 987.038169 
L 609.691154 960.774293 
L 610.20254 949.563493 
L 610.543465 946.431677 
L 610.713927 945.989454 
L 610.884389 944.597852 
L 611.054851 944.214853 
L 611.395776 944.820693 
L 611.566238 945.22578 
L 611.7367 945.029513 
L 611.907162 945.540104 
L 612.077624 945.60285 
L 612.589011 948.107959 
L 613.27086 952.203481 
L 614.634557 962.455954 
L 616.680103 975.082083 
L 616.850566 975.602964 
L 620.430271 993.805463 
L 623.498591 1004.236163 
L 626.055523 1011.861065 
L 629.464767 1019.914288 
L 636.453717 1031.418237 
L 636.965103 1032.169319 
L 638.158338 1033.836235 
L 639.010649 1034.790002 
L 642.249431 1039.456972 
L 645.31775 1044.567483 
L 646.170061 1045.828066 
L 647.363296 1047.82292 
L 651.454389 1053.958103 
L 654.863632 1058.47953 
L 656.397792 1060.25133 
L 660.14796 1064.6184 
L 661.000271 1065.528423 
L 661.68212 1066.299177 
L 664.409515 1069.038287 
L 665.943674 1070.562907 
L 667.477834 1071.970234 
L 670.546153 1074.689135 
L 675.319094 1078.633734 
L 676.682792 1079.669425 
L 688.27422 1087.858873 
L 690.831153 1089.509747 
L 692.535775 1090.62755 
L 695.774556 1092.361718 
L 696.456405 1092.768738 
L 697.308716 1093.196678 
L 700.036111 1094.689951 
L 712.309388 1099.817907 
L 714.525396 1100.689482 
L 715.889094 1101.305907 
L 719.980186 1102.826527 
L 721.514346 1103.425532 
L 722.878043 1103.825573 
L 726.798673 1105.295321 
L 728.673757 1105.934927 
L 730.037455 1106.395518 
L 735.15132 1107.769077 
L 736.68548 1108.296181 
L 741.287959 1109.633459 
L 742.310732 1109.849808 
L 743.503967 1110.153098 
L 744.697203 1110.4892 
L 746.913211 1111.170386 
L 748.276908 1111.551925 
L 749.299681 1111.840734 
L 752.708925 1112.777519 
L 754.754471 1113.182211 
L 757.140942 1113.578001 
L 761.402496 1114.442048 
L 767.198211 1115.923857 
L 785.949051 1119.708905 
L 789.01737 1120.357013 
L 794.301698 1121.19869 
L 798.904177 1122.054133 
L 801.461109 1122.472337 
L 809.984219 1124.147838 
L 811.006992 1124.354962 
L 814.586697 1125.267705 
L 815.609471 1125.50518 
L 822.59842 1127.204557 
L 824.814428 1127.759719 
L 830.269218 1129.189692 
L 831.97384 1129.645717 
L 836.746781 1130.853411 
L 839.303714 1131.44079 
L 856.009008 1134.874885 
L 858.906865 1135.462006 
L 861.975184 1136.004938 
L 864.702579 1136.438355 
L 867.259512 1136.699926 
L 870.498293 1137.1048 
L 873.225688 1137.482696 
L 874.418924 1137.654466 
L 889.76052 1138.87839 
L 897.942705 1139.235404 
L 900.499637 1139.279647 
L 905.613503 1139.363861 
L 928.455435 1140.409876 
L 936.63762 1140.815971 
L 946.183502 1141.266394 
L 951.979217 1141.434691 
L 954.706612 1141.410662 
L 954.706612 1141.410662 
" clip-path="url(#pa1cd82585f)" style="fill: none; stroke: #d62728; stroke-width: 1.5; stroke-linecap: square"/>
   </g>
   <g id="patch_40">
    <path d="M 591.545455 1153.44 
L 591.545455 890.829474 
" style="fill: none; stroke: #000000; stroke-width: 0.8; stroke-linejoin: miter; stroke-linecap: square"/>
   </g>
   <g id="patch_41">
    <path d="M 972 1153.44 
L 972 890.829474 
" style="fill: none; stroke: #000000; stroke-width: 0.8; stroke-linejoin: miter; stroke-linecap: square"/>
   </g>
   <g id="patch_42">
    <path d="M 591.545455 1153.44 
L 972 1153.44 
" style="fill: none; stroke: #000000; stroke-width: 0.8; stroke-linejoin: miter; stroke-linecap: square"/>
   </g>
   <g id="patch_43">
    <path d="M 591.545455 890.829474 
L 972 890.829474 
" style="fill: none; stroke: #000000; stroke-width: 0.8; stroke-linejoin: miter; stroke-linecap: square"/>
   </g>
   <g id="text_70">
    <!-- f -->
    <g transform="translate(552.733636 872.71352) scale(0.28 -0.28)">
     <defs>
      <path id="DejaVuSans-Bold-66" d="M 2841 4863 
L 2841 4128 
L 2222 4128 
Q 1984 4128 1890 4042 
Q 1797 3956 1797 3744 
L 1797 3500 
L 2753 3500 
L 2753 2700 
L 1797 2700 
L 1797 0 
L 678 0 
L 678 2700 
L 122 2700 
L 122 3500 
L 678 3500 
L 678 3744 
Q 678 4316 997 4589 
Q 1316 4863 1984 4863 
L 2841 4863 
z
" transform="scale(0.015625)"/>
     </defs>
     <use xlink:href="#DejaVuSans-Bold-66"/>
    </g>
   </g>
   <g id="text_71">
    <!-- LCMC -->
    <g transform="translate(747.973977 884.829474) scale(0.24 -0.24)">
     <defs>
      <path id="DejaVuSans-4c" d="M 628 4666 
L 1259 4666 
L 1259 531 
L 3531 531 
L 3531 0 
L 628 0 
L 628 4666 
z
" transform="scale(0.015625)"/>
     </defs>
     <use xlink:href="#DejaVuSans-4c"/>
     <use xlink:href="#DejaVuSans-43" x="55.712891"/>
     <use xlink:href="#DejaVuSans-4d" x="125.537109"/>
     <use xlink:href="#DejaVuSans-43" x="211.816406"/>
    </g>
   </g>
  </g>
 </g>
 <defs>
  <clipPath id="pfccb5353c8">
   <rect x="135" y="155.52" width="380.454545" height="262.610526"/>
  </clipPath>
  <clipPath id="pa2144cd136">
   <rect x="591.545455" y="155.52" width="380.454545" height="262.610526"/>
  </clipPath>
  <clipPath id="p73e91b20dc">
   <rect x="135" y="523.174737" width="380.454545" height="262.610526"/>
  </clipPath>
  <clipPath id="p0c300fd14a">
   <rect x="591.545455" y="523.174737" width="380.454545" height="262.610526"/>
  </clipPath>
  <clipPath id="pba3b35c5e8">
   <rect x="135" y="890.829474" width="380.454545" height="262.610526"/>
  </clipPath>
  <clipPath id="pa1cd82585f">
   <rect x="591.545455" y="890.829474" width="380.454545" height="262.610526"/>
  </clipPath>
 </defs>
</svg>
