<?xml version="1.0" encoding="utf-8" standalone="no"?>
<!DOCTYPE svg PUBLIC "-//W3C//DTD SVG 1.1//EN"
  "http://www.w3.org/Graphics/SVG/1.1/DTD/svg11.dtd">
<svg xmlns:xlink="http://www.w3.org/1999/xlink" width="1080pt" height="1296pt" viewBox="0 0 1080 1296" xmlns="http://www.w3.org/2000/svg" version="1.1">
 <metadata>
  <rdf:RDF xmlns:dc="http://purl.org/dc/elements/1.1/" xmlns:cc="http://creativecommons.org/ns#" xmlns:rdf="http://www.w3.org/1999/02/22-rdf-syntax-ns#">
   <cc:Work>
    <dc:type rdf:resource="http://purl.org/dc/dcmitype/StillImage"/>
    <dc:date>2024-07-24T00:38:27.821377</dc:date>
    <dc:format>image/svg+xml</dc:format>
    <dc:creator>
     <cc:Agent>
      <dc:title>Matplotlib v3.8.4, https://matplotlib.org/</dc:title>
     </cc:Agent>
    </dc:creator>
   </cc:Work>
  </rdf:RDF>
 </metadata>
 <defs>
  <style type="text/css">*{stroke-linejoin: round; stroke-linecap: butt}</style>
 </defs>
 <g id="figure_1">
  <g id="patch_1">
   <path d="M 0 1296 
L 1080 1296 
L 1080 0 
L 0 0 
z
" style="fill: #ffffff"/>
  </g>
  <g id="axes_1">
   <g id="patch_2">
    <path d="M 135 418.130526 
L 515.454545 418.130526 
L 515.454545 155.52 
L 135 155.52 
z
" style="fill: #ffffff"/>
   </g>
   <g id="matplotlib.axis_1">
    <g id="xtick_1">
     <g id="line2d_1">
      <defs>
       <path id="m085d092151" d="M 0 0 
L 0 3.5 
" style="stroke: #000000; stroke-width: 0.8"/>
      </defs>
      <g>
       <use xlink:href="#m085d092151" x="137.882231" y="418.130526" style="stroke: #000000; stroke-width: 0.8"/>
      </g>
     </g>
     <g id="text_1">
      <!-- 0 -->
      <g transform="translate(131.519731 440.327401) scale(0.2 -0.2)">
       <defs>
        <path id="DejaVuSans-30" d="M 2034 4250 
Q 1547 4250 1301 3770 
Q 1056 3291 1056 2328 
Q 1056 1369 1301 889 
Q 1547 409 2034 409 
Q 2525 409 2770 889 
Q 3016 1369 3016 2328 
Q 3016 3291 2770 3770 
Q 2525 4250 2034 4250 
z
M 2034 4750 
Q 2819 4750 3233 4129 
Q 3647 3509 3647 2328 
Q 3647 1150 3233 529 
Q 2819 -91 2034 -91 
Q 1250 -91 836 529 
Q 422 1150 422 2328 
Q 422 3509 836 4129 
Q 1250 4750 2034 4750 
z
" transform="scale(0.015625)"/>
       </defs>
       <use xlink:href="#DejaVuSans-30"/>
      </g>
     </g>
    </g>
    <g id="xtick_2">
     <g id="line2d_2">
      <g>
       <use xlink:href="#m085d092151" x="209.938017" y="418.130526" style="stroke: #000000; stroke-width: 0.8"/>
      </g>
     </g>
     <g id="text_2">
      <!-- 10 -->
      <g transform="translate(197.213017 440.327401) scale(0.2 -0.2)">
       <defs>
        <path id="DejaVuSans-31" d="M 794 531 
L 1825 531 
L 1825 4091 
L 703 3866 
L 703 4441 
L 1819 4666 
L 2450 4666 
L 2450 531 
L 3481 531 
L 3481 0 
L 794 0 
L 794 531 
z
" transform="scale(0.015625)"/>
       </defs>
       <use xlink:href="#DejaVuSans-31"/>
       <use xlink:href="#DejaVuSans-30" x="63.623047"/>
      </g>
     </g>
    </g>
    <g id="xtick_3">
     <g id="line2d_3">
      <g>
       <use xlink:href="#m085d092151" x="281.993802" y="418.130526" style="stroke: #000000; stroke-width: 0.8"/>
      </g>
     </g>
     <g id="text_3">
      <!-- 20 -->
      <g transform="translate(269.268802 440.327401) scale(0.2 -0.2)">
       <defs>
        <path id="DejaVuSans-32" d="M 1228 531 
L 3431 531 
L 3431 0 
L 469 0 
L 469 531 
Q 828 903 1448 1529 
Q 2069 2156 2228 2338 
Q 2531 2678 2651 2914 
Q 2772 3150 2772 3378 
Q 2772 3750 2511 3984 
Q 2250 4219 1831 4219 
Q 1534 4219 1204 4116 
Q 875 4013 500 3803 
L 500 4441 
Q 881 4594 1212 4672 
Q 1544 4750 1819 4750 
Q 2544 4750 2975 4387 
Q 3406 4025 3406 3419 
Q 3406 3131 3298 2873 
Q 3191 2616 2906 2266 
Q 2828 2175 2409 1742 
Q 1991 1309 1228 531 
z
" transform="scale(0.015625)"/>
       </defs>
       <use xlink:href="#DejaVuSans-32"/>
       <use xlink:href="#DejaVuSans-30" x="63.623047"/>
      </g>
     </g>
    </g>
    <g id="xtick_4">
     <g id="line2d_4">
      <g>
       <use xlink:href="#m085d092151" x="354.049587" y="418.130526" style="stroke: #000000; stroke-width: 0.8"/>
      </g>
     </g>
     <g id="text_4">
      <!-- 30 -->
      <g transform="translate(341.324587 440.327401) scale(0.2 -0.2)">
       <defs>
        <path id="DejaVuSans-33" d="M 2597 2516 
Q 3050 2419 3304 2112 
Q 3559 1806 3559 1356 
Q 3559 666 3084 287 
Q 2609 -91 1734 -91 
Q 1441 -91 1130 -33 
Q 819 25 488 141 
L 488 750 
Q 750 597 1062 519 
Q 1375 441 1716 441 
Q 2309 441 2620 675 
Q 2931 909 2931 1356 
Q 2931 1769 2642 2001 
Q 2353 2234 1838 2234 
L 1294 2234 
L 1294 2753 
L 1863 2753 
Q 2328 2753 2575 2939 
Q 2822 3125 2822 3475 
Q 2822 3834 2567 4026 
Q 2313 4219 1838 4219 
Q 1578 4219 1281 4162 
Q 984 4106 628 3988 
L 628 4550 
Q 988 4650 1302 4700 
Q 1616 4750 1894 4750 
Q 2613 4750 3031 4423 
Q 3450 4097 3450 3541 
Q 3450 3153 3228 2886 
Q 3006 2619 2597 2516 
z
" transform="scale(0.015625)"/>
       </defs>
       <use xlink:href="#DejaVuSans-33"/>
       <use xlink:href="#DejaVuSans-30" x="63.623047"/>
      </g>
     </g>
    </g>
    <g id="xtick_5">
     <g id="line2d_5">
      <g>
       <use xlink:href="#m085d092151" x="426.105372" y="418.130526" style="stroke: #000000; stroke-width: 0.8"/>
      </g>
     </g>
     <g id="text_5">
      <!-- 40 -->
      <g transform="translate(413.380372 440.327401) scale(0.2 -0.2)">
       <defs>
        <path id="DejaVuSans-34" d="M 2419 4116 
L 825 1625 
L 2419 1625 
L 2419 4116 
z
M 2253 4666 
L 3047 4666 
L 3047 1625 
L 3713 1625 
L 3713 1100 
L 3047 1100 
L 3047 0 
L 2419 0 
L 2419 1100 
L 313 1100 
L 313 1709 
L 2253 4666 
z
" transform="scale(0.015625)"/>
       </defs>
       <use xlink:href="#DejaVuSans-34"/>
       <use xlink:href="#DejaVuSans-30" x="63.623047"/>
      </g>
     </g>
    </g>
    <g id="xtick_6">
     <g id="line2d_6">
      <g>
       <use xlink:href="#m085d092151" x="498.161157" y="418.130526" style="stroke: #000000; stroke-width: 0.8"/>
      </g>
     </g>
     <g id="text_6">
      <!-- 50 -->
      <g transform="translate(485.436157 440.327401) scale(0.2 -0.2)">
       <defs>
        <path id="DejaVuSans-35" d="M 691 4666 
L 3169 4666 
L 3169 4134 
L 1269 4134 
L 1269 2991 
Q 1406 3038 1543 3061 
Q 1681 3084 1819 3084 
Q 2600 3084 3056 2656 
Q 3513 2228 3513 1497 
Q 3513 744 3044 326 
Q 2575 -91 1722 -91 
Q 1428 -91 1123 -41 
Q 819 9 494 109 
L 494 744 
Q 775 591 1075 516 
Q 1375 441 1709 441 
Q 2250 441 2565 725 
Q 2881 1009 2881 1497 
Q 2881 1984 2565 2268 
Q 2250 2553 1709 2553 
Q 1456 2553 1204 2497 
Q 953 2441 691 2322 
L 691 4666 
z
" transform="scale(0.015625)"/>
       </defs>
       <use xlink:href="#DejaVuSans-35"/>
       <use xlink:href="#DejaVuSans-30" x="63.623047"/>
      </g>
     </g>
    </g>
    <g id="text_7">
     <!-- k -->
     <g transform="translate(318.278523 466.723026) scale(0.24 -0.24)">
      <defs>
       <path id="DejaVuSans-6b" d="M 581 4863 
L 1159 4863 
L 1159 1991 
L 2875 3500 
L 3609 3500 
L 1753 1863 
L 3688 0 
L 2938 0 
L 1159 1709 
L 1159 0 
L 581 0 
L 581 4863 
z
" transform="scale(0.015625)"/>
      </defs>
      <use xlink:href="#DejaVuSans-6b"/>
     </g>
    </g>
   </g>
   <g id="matplotlib.axis_2">
    <g id="ytick_1">
     <g id="line2d_7">
      <defs>
       <path id="m573adf39f7" d="M 0 0 
L -3.5 0 
" style="stroke: #000000; stroke-width: 0.8"/>
      </defs>
      <g>
       <use xlink:href="#m573adf39f7" x="135" y="418.130526" style="stroke: #000000; stroke-width: 0.8"/>
      </g>
     </g>
     <g id="text_8">
      <!-- 0.0 -->
      <g transform="translate(96.19375 425.728964) scale(0.2 -0.2)">
       <defs>
        <path id="DejaVuSans-2e" d="M 684 794 
L 1344 794 
L 1344 0 
L 684 0 
L 684 794 
z
" transform="scale(0.015625)"/>
       </defs>
       <use xlink:href="#DejaVuSans-30"/>
       <use xlink:href="#DejaVuSans-2e" x="63.623047"/>
       <use xlink:href="#DejaVuSans-30" x="95.410156"/>
      </g>
     </g>
    </g>
    <g id="ytick_2">
     <g id="line2d_8">
      <g>
       <use xlink:href="#m573adf39f7" x="135" y="352.477895" style="stroke: #000000; stroke-width: 0.8"/>
      </g>
     </g>
     <g id="text_9">
      <!-- 0.2 -->
      <g transform="translate(96.19375 360.076332) scale(0.2 -0.2)">
       <use xlink:href="#DejaVuSans-30"/>
       <use xlink:href="#DejaVuSans-2e" x="63.623047"/>
       <use xlink:href="#DejaVuSans-32" x="95.410156"/>
      </g>
     </g>
    </g>
    <g id="ytick_3">
     <g id="line2d_9">
      <g>
       <use xlink:href="#m573adf39f7" x="135" y="286.825263" style="stroke: #000000; stroke-width: 0.8"/>
      </g>
     </g>
     <g id="text_10">
      <!-- 0.4 -->
      <g transform="translate(96.19375 294.423701) scale(0.2 -0.2)">
       <use xlink:href="#DejaVuSans-30"/>
       <use xlink:href="#DejaVuSans-2e" x="63.623047"/>
       <use xlink:href="#DejaVuSans-34" x="95.410156"/>
      </g>
     </g>
    </g>
    <g id="ytick_4">
     <g id="line2d_10">
      <g>
       <use xlink:href="#m573adf39f7" x="135" y="221.172632" style="stroke: #000000; stroke-width: 0.8"/>
      </g>
     </g>
     <g id="text_11">
      <!-- 0.6 -->
      <g transform="translate(96.19375 228.771069) scale(0.2 -0.2)">
       <defs>
        <path id="DejaVuSans-36" d="M 2113 2584 
Q 1688 2584 1439 2293 
Q 1191 2003 1191 1497 
Q 1191 994 1439 701 
Q 1688 409 2113 409 
Q 2538 409 2786 701 
Q 3034 994 3034 1497 
Q 3034 2003 2786 2293 
Q 2538 2584 2113 2584 
z
M 3366 4563 
L 3366 3988 
Q 3128 4100 2886 4159 
Q 2644 4219 2406 4219 
Q 1781 4219 1451 3797 
Q 1122 3375 1075 2522 
Q 1259 2794 1537 2939 
Q 1816 3084 2150 3084 
Q 2853 3084 3261 2657 
Q 3669 2231 3669 1497 
Q 3669 778 3244 343 
Q 2819 -91 2113 -91 
Q 1303 -91 875 529 
Q 447 1150 447 2328 
Q 447 3434 972 4092 
Q 1497 4750 2381 4750 
Q 2619 4750 2861 4703 
Q 3103 4656 3366 4563 
z
" transform="scale(0.015625)"/>
       </defs>
       <use xlink:href="#DejaVuSans-30"/>
       <use xlink:href="#DejaVuSans-2e" x="63.623047"/>
       <use xlink:href="#DejaVuSans-36" x="95.410156"/>
      </g>
     </g>
    </g>
    <g id="ytick_5">
     <g id="line2d_11">
      <g>
       <use xlink:href="#m573adf39f7" x="135" y="155.52" style="stroke: #000000; stroke-width: 0.8"/>
      </g>
     </g>
     <g id="text_12">
      <!-- 0.8 -->
      <g transform="translate(96.19375 163.118438) scale(0.2 -0.2)">
       <defs>
        <path id="DejaVuSans-38" d="M 2034 2216 
Q 1584 2216 1326 1975 
Q 1069 1734 1069 1313 
Q 1069 891 1326 650 
Q 1584 409 2034 409 
Q 2484 409 2743 651 
Q 3003 894 3003 1313 
Q 3003 1734 2745 1975 
Q 2488 2216 2034 2216 
z
M 1403 2484 
Q 997 2584 770 2862 
Q 544 3141 544 3541 
Q 544 4100 942 4425 
Q 1341 4750 2034 4750 
Q 2731 4750 3128 4425 
Q 3525 4100 3525 3541 
Q 3525 3141 3298 2862 
Q 3072 2584 2669 2484 
Q 3125 2378 3379 2068 
Q 3634 1759 3634 1313 
Q 3634 634 3220 271 
Q 2806 -91 2034 -91 
Q 1263 -91 848 271 
Q 434 634 434 1313 
Q 434 1759 690 2068 
Q 947 2378 1403 2484 
z
M 1172 3481 
Q 1172 3119 1398 2916 
Q 1625 2713 2034 2713 
Q 2441 2713 2670 2916 
Q 2900 3119 2900 3481 
Q 2900 3844 2670 4047 
Q 2441 4250 2034 4250 
Q 1625 4250 1398 4047 
Q 1172 3844 1172 3481 
z
" transform="scale(0.015625)"/>
       </defs>
       <use xlink:href="#DejaVuSans-30"/>
       <use xlink:href="#DejaVuSans-2e" x="63.623047"/>
       <use xlink:href="#DejaVuSans-38" x="95.410156"/>
      </g>
     </g>
    </g>
    <g id="text_13">
     <!-- $P_{NN}$ -->
     <g transform="translate(87.2025 306.985263) rotate(-90) scale(0.24 -0.24)">
      <defs>
       <path id="DejaVuSans-Oblique-50" d="M 1081 4666 
L 2541 4666 
Q 3178 4666 3512 4369 
Q 3847 4072 3847 3500 
Q 3847 2731 3353 2303 
Q 2859 1875 1966 1875 
L 1172 1875 
L 806 0 
L 172 0 
L 1081 4666 
z
M 1613 4147 
L 1275 2394 
L 2069 2394 
Q 2606 2394 2893 2669 
Q 3181 2944 3181 3456 
Q 3181 3784 2986 3965 
Q 2791 4147 2438 4147 
L 1613 4147 
z
" transform="scale(0.015625)"/>
       <path id="DejaVuSans-Oblique-4e" d="M 1081 4666 
L 1931 4666 
L 3219 666 
L 4000 4666 
L 4616 4666 
L 3706 0 
L 2853 0 
L 1569 4025 
L 788 0 
L 172 0 
L 1081 4666 
z
" transform="scale(0.015625)"/>
      </defs>
      <use xlink:href="#DejaVuSans-Oblique-50" transform="translate(0 0.09375)"/>
      <use xlink:href="#DejaVuSans-Oblique-4e" transform="translate(60.302734 -16.3125) scale(0.7)"/>
      <use xlink:href="#DejaVuSans-Oblique-4e" transform="translate(112.666016 -16.3125) scale(0.7)"/>
     </g>
    </g>
   </g>
   <g id="line2d_12">
    <path d="M 152.293388 397.100943 
L 173.910124 386.816612 
L 209.938017 380.075622 
L 281.993802 373.953997 
L 498.161157 368.094521 
" clip-path="url(#pae27291ca6)" style="fill: none; stroke: #1f77b4; stroke-width: 1.5; stroke-linecap: square"/>
    <defs>
     <path id="mc14d5d24fe" d="M 0 3 
C 0.795609 3 1.55874 2.683901 2.12132 2.12132 
C 2.683901 1.55874 3 0.795609 3 0 
C 3 -0.795609 2.683901 -1.55874 2.12132 -2.12132 
C 1.55874 -2.683901 0.795609 -3 0 -3 
C -0.795609 -3 -1.55874 -2.683901 -2.12132 -2.12132 
C -2.683901 -1.55874 -3 -0.795609 -3 0 
C -3 0.795609 -2.683901 1.55874 -2.12132 2.12132 
C -1.55874 2.683901 -0.795609 3 0 3 
z
" style="stroke: #1f77b4"/>
    </defs>
    <g clip-path="url(#pae27291ca6)">
     <use xlink:href="#mc14d5d24fe" x="152.293388" y="397.100943" style="fill: #1f77b4; stroke: #1f77b4"/>
     <use xlink:href="#mc14d5d24fe" x="173.910124" y="386.816612" style="fill: #1f77b4; stroke: #1f77b4"/>
     <use xlink:href="#mc14d5d24fe" x="209.938017" y="380.075622" style="fill: #1f77b4; stroke: #1f77b4"/>
     <use xlink:href="#mc14d5d24fe" x="281.993802" y="373.953997" style="fill: #1f77b4; stroke: #1f77b4"/>
     <use xlink:href="#mc14d5d24fe" x="498.161157" y="368.094521" style="fill: #1f77b4; stroke: #1f77b4"/>
    </g>
   </g>
   <g id="line2d_13">
    <path d="M 152.293388 251.982412 
L 173.910124 235.317187 
L 209.938017 239.177412 
L 281.993802 261.748205 
L 498.161157 309.871382 
" clip-path="url(#pae27291ca6)" style="fill: none; stroke: #ff7f0e; stroke-width: 1.5; stroke-linecap: square"/>
    <defs>
     <path id="m16d6161cef" d="M 0 3 
C 0.795609 3 1.55874 2.683901 2.12132 2.12132 
C 2.683901 1.55874 3 0.795609 3 0 
C 3 -0.795609 2.683901 -1.55874 2.12132 -2.12132 
C 1.55874 -2.683901 0.795609 -3 0 -3 
C -0.795609 -3 -1.55874 -2.683901 -2.12132 -2.12132 
C -2.683901 -1.55874 -3 -0.795609 -3 0 
C -3 0.795609 -2.683901 1.55874 -2.12132 2.12132 
C -1.55874 2.683901 -0.795609 3 0 3 
z
" style="stroke: #ff7f0e"/>
    </defs>
    <g clip-path="url(#pae27291ca6)">
     <use xlink:href="#m16d6161cef" x="152.293388" y="251.982412" style="fill: #ff7f0e; stroke: #ff7f0e"/>
     <use xlink:href="#m16d6161cef" x="173.910124" y="235.317187" style="fill: #ff7f0e; stroke: #ff7f0e"/>
     <use xlink:href="#m16d6161cef" x="209.938017" y="239.177412" style="fill: #ff7f0e; stroke: #ff7f0e"/>
     <use xlink:href="#m16d6161cef" x="281.993802" y="261.748205" style="fill: #ff7f0e; stroke: #ff7f0e"/>
     <use xlink:href="#m16d6161cef" x="498.161157" y="309.871382" style="fill: #ff7f0e; stroke: #ff7f0e"/>
    </g>
   </g>
   <g id="line2d_14">
    <path d="M 152.293388 323.569419 
L 173.910124 279.162429 
L 209.938017 261.244071 
L 281.993802 269.879164 
L 498.161157 314.365375 
" clip-path="url(#pae27291ca6)" style="fill: none; stroke: #2ca02c; stroke-width: 1.5; stroke-linecap: square"/>
    <defs>
     <path id="m977b6b004d" d="M 0 3 
C 0.795609 3 1.55874 2.683901 2.12132 2.12132 
C 2.683901 1.55874 3 0.795609 3 0 
C 3 -0.795609 2.683901 -1.55874 2.12132 -2.12132 
C 1.55874 -2.683901 0.795609 -3 0 -3 
C -0.795609 -3 -1.55874 -2.683901 -2.12132 -2.12132 
C -2.683901 -1.55874 -3 -0.795609 -3 0 
C -3 0.795609 -2.683901 1.55874 -2.12132 2.12132 
C -1.55874 2.683901 -0.795609 3 0 3 
z
" style="stroke: #2ca02c"/>
    </defs>
    <g clip-path="url(#pae27291ca6)">
     <use xlink:href="#m977b6b004d" x="152.293388" y="323.569419" style="fill: #2ca02c; stroke: #2ca02c"/>
     <use xlink:href="#m977b6b004d" x="173.910124" y="279.162429" style="fill: #2ca02c; stroke: #2ca02c"/>
     <use xlink:href="#m977b6b004d" x="209.938017" y="261.244071" style="fill: #2ca02c; stroke: #2ca02c"/>
     <use xlink:href="#m977b6b004d" x="281.993802" y="269.879164" style="fill: #2ca02c; stroke: #2ca02c"/>
     <use xlink:href="#m977b6b004d" x="498.161157" y="314.365375" style="fill: #2ca02c; stroke: #2ca02c"/>
    </g>
   </g>
   <g id="line2d_15">
    <path d="M 152.293388 322.921247 
L 173.910124 292.615601 
L 209.938017 275.331011 
L 281.993802 274.344349 
L 498.161157 309.012914 
" clip-path="url(#pae27291ca6)" style="fill: none; stroke: #d62728; stroke-width: 1.5; stroke-linecap: square"/>
    <defs>
     <path id="mb99b51d6c4" d="M 0 3 
C 0.795609 3 1.55874 2.683901 2.12132 2.12132 
C 2.683901 1.55874 3 0.795609 3 0 
C 3 -0.795609 2.683901 -1.55874 2.12132 -2.12132 
C 1.55874 -2.683901 0.795609 -3 0 -3 
C -0.795609 -3 -1.55874 -2.683901 -2.12132 -2.12132 
C -2.683901 -1.55874 -3 -0.795609 -3 0 
C -3 0.795609 -2.683901 1.55874 -2.12132 2.12132 
C -1.55874 2.683901 -0.795609 3 0 3 
z
" style="stroke: #d62728"/>
    </defs>
    <g clip-path="url(#pae27291ca6)">
     <use xlink:href="#mb99b51d6c4" x="152.293388" y="322.921247" style="fill: #d62728; stroke: #d62728"/>
     <use xlink:href="#mb99b51d6c4" x="173.910124" y="292.615601" style="fill: #d62728; stroke: #d62728"/>
     <use xlink:href="#mb99b51d6c4" x="209.938017" y="275.331011" style="fill: #d62728; stroke: #d62728"/>
     <use xlink:href="#mb99b51d6c4" x="281.993802" y="274.344349" style="fill: #d62728; stroke: #d62728"/>
     <use xlink:href="#mb99b51d6c4" x="498.161157" y="309.012914" style="fill: #d62728; stroke: #d62728"/>
    </g>
   </g>
   <g id="patch_3">
    <path d="M 135 418.130526 
L 135 155.52 
" style="fill: none; stroke: #000000; stroke-width: 0.8; stroke-linejoin: miter; stroke-linecap: square"/>
   </g>
   <g id="patch_4">
    <path d="M 515.454545 418.130526 
L 515.454545 155.52 
" style="fill: none; stroke: #000000; stroke-width: 0.8; stroke-linejoin: miter; stroke-linecap: square"/>
   </g>
   <g id="patch_5">
    <path d="M 135 418.130526 
L 515.454545 418.130526 
" style="fill: none; stroke: #000000; stroke-width: 0.8; stroke-linejoin: miter; stroke-linecap: square"/>
   </g>
   <g id="patch_6">
    <path d="M 135 155.52 
L 515.454545 155.52 
" style="fill: none; stroke: #000000; stroke-width: 0.8; stroke-linejoin: miter; stroke-linecap: square"/>
   </g>
   <g id="text_14">
    <!-- a -->
    <g transform="translate(89.472557 137.404046) scale(0.28 -0.28)">
     <defs>
      <path id="DejaVuSans-Bold-61" d="M 2106 1575 
Q 1756 1575 1579 1456 
Q 1403 1338 1403 1106 
Q 1403 894 1545 773 
Q 1688 653 1941 653 
Q 2256 653 2472 879 
Q 2688 1106 2688 1447 
L 2688 1575 
L 2106 1575 
z
M 3816 1997 
L 3816 0 
L 2688 0 
L 2688 519 
Q 2463 200 2181 54 
Q 1900 -91 1497 -91 
Q 953 -91 614 226 
Q 275 544 275 1050 
Q 275 1666 698 1953 
Q 1122 2241 2028 2241 
L 2688 2241 
L 2688 2328 
Q 2688 2594 2478 2717 
Q 2269 2841 1825 2841 
Q 1466 2841 1156 2769 
Q 847 2697 581 2553 
L 581 3406 
Q 941 3494 1303 3539 
Q 1666 3584 2028 3584 
Q 2975 3584 3395 3211 
Q 3816 2838 3816 1997 
z
" transform="scale(0.015625)"/>
     </defs>
     <use xlink:href="#DejaVuSans-Bold-61"/>
    </g>
   </g>
   <g id="text_15">
    <!-- $P_{NN}$ -->
    <g transform="translate(303.387273 149.52) scale(0.26 -0.26)">
     <use xlink:href="#DejaVuSans-Oblique-50" transform="translate(0 0.09375)"/>
     <use xlink:href="#DejaVuSans-Oblique-4e" transform="translate(60.302734 -16.3125) scale(0.7)"/>
     <use xlink:href="#DejaVuSans-Oblique-4e" transform="translate(112.666016 -16.3125) scale(0.7)"/>
    </g>
   </g>
  </g>
  <g id="axes_2">
   <g id="patch_7">
    <path d="M 591.545455 418.130526 
L 972 418.130526 
L 972 155.52 
L 591.545455 155.52 
z
" style="fill: #ffffff"/>
   </g>
   <g id="patch_8">
    <path d="M 608.838843 418.130526 
L 628.792753 418.130526 
L 628.792753 171.725009 
L 608.838843 171.725009 
z
" clip-path="url(#p41ddc95b32)" style="fill: #1f77b4"/>
   </g>
   <g id="patch_9">
    <path d="M 741.864908 418.130526 
L 761.818818 418.130526 
L 761.818818 362.234967 
L 741.864908 362.234967 
z
" clip-path="url(#p41ddc95b32)" style="fill: #1f77b4"/>
   </g>
   <g id="patch_10">
    <path d="M 874.890973 418.130526 
L 894.844882 418.130526 
L 894.844882 168.025263 
L 874.890973 168.025263 
z
" clip-path="url(#p41ddc95b32)" style="fill: #1f77b4"/>
   </g>
   <g id="patch_11">
    <path d="M 628.792753 418.130526 
L 648.746662 418.130526 
L 648.746662 177.960442 
L 628.792753 177.960442 
z
" clip-path="url(#p41ddc95b32)" style="fill: #ff7f0e"/>
   </g>
   <g id="patch_12">
    <path d="M 761.818818 418.130526 
L 781.772727 418.130526 
L 781.772727 194.493397 
L 761.818818 194.493397 
z
" clip-path="url(#p41ddc95b32)" style="fill: #ff7f0e"/>
   </g>
   <g id="patch_13">
    <path d="M 894.844882 418.130526 
L 914.798792 418.130526 
L 914.798792 177.902752 
L 894.844882 177.902752 
z
" clip-path="url(#p41ddc95b32)" style="fill: #ff7f0e"/>
   </g>
   <g id="patch_14">
    <path d="M 648.746662 418.130526 
L 668.700572 418.130526 
L 668.700572 185.200451 
L 648.746662 185.200451 
z
" clip-path="url(#p41ddc95b32)" style="fill: #2ca02c"/>
   </g>
   <g id="patch_15">
    <path d="M 781.772727 418.130526 
L 801.726637 418.130526 
L 801.726637 240.052881 
L 781.772727 240.052881 
z
" clip-path="url(#p41ddc95b32)" style="fill: #2ca02c"/>
   </g>
   <g id="patch_16">
    <path d="M 914.798792 418.130526 
L 934.752702 418.130526 
L 934.752702 184.906301 
L 914.798792 184.906301 
z
" clip-path="url(#p41ddc95b32)" style="fill: #2ca02c"/>
   </g>
   <g id="patch_17">
    <path d="M 668.700572 418.130526 
L 688.654482 418.130526 
L 688.654482 182.409756 
L 668.700572 182.409756 
z
" clip-path="url(#p41ddc95b32)" style="fill: #d62728"/>
   </g>
   <g id="patch_18">
    <path d="M 801.726637 418.130526 
L 821.680547 418.130526 
L 821.680547 249.022044 
L 801.726637 249.022044 
z
" clip-path="url(#p41ddc95b32)" style="fill: #d62728"/>
   </g>
   <g id="patch_19">
    <path d="M 934.752702 418.130526 
L 954.706612 418.130526 
L 954.706612 181.998322 
L 934.752702 181.998322 
z
" clip-path="url(#p41ddc95b32)" style="fill: #d62728"/>
   </g>
   <g id="matplotlib.axis_3">
    <g id="xtick_7">
     <g id="line2d_16">
      <g>
       <use xlink:href="#m085d092151" x="648.746662" y="418.130526" style="stroke: #000000; stroke-width: 0.8"/>
      </g>
     </g>
     <g id="text_16">
      <!-- AUC -->
      <g transform="translate(625.490256 441.847089) scale(0.22 -0.22)">
       <defs>
        <path id="DejaVuSans-41" d="M 2188 4044 
L 1331 1722 
L 3047 1722 
L 2188 4044 
z
M 1831 4666 
L 2547 4666 
L 4325 0 
L 3669 0 
L 3244 1197 
L 1141 1197 
L 716 0 
L 50 0 
L 1831 4666 
z
" transform="scale(0.015625)"/>
        <path id="DejaVuSans-55" d="M 556 4666 
L 1191 4666 
L 1191 1831 
Q 1191 1081 1462 751 
Q 1734 422 2344 422 
Q 2950 422 3222 751 
Q 3494 1081 3494 1831 
L 3494 4666 
L 4128 4666 
L 4128 1753 
Q 4128 841 3676 375 
Q 3225 -91 2344 -91 
Q 1459 -91 1007 375 
Q 556 841 556 1753 
L 556 4666 
z
" transform="scale(0.015625)"/>
        <path id="DejaVuSans-43" d="M 4122 4306 
L 4122 3641 
Q 3803 3938 3442 4084 
Q 3081 4231 2675 4231 
Q 1875 4231 1450 3742 
Q 1025 3253 1025 2328 
Q 1025 1406 1450 917 
Q 1875 428 2675 428 
Q 3081 428 3442 575 
Q 3803 722 4122 1019 
L 4122 359 
Q 3791 134 3420 21 
Q 3050 -91 2638 -91 
Q 1578 -91 968 557 
Q 359 1206 359 2328 
Q 359 3453 968 4101 
Q 1578 4750 2638 4750 
Q 3056 4750 3426 4639 
Q 3797 4528 4122 4306 
z
" transform="scale(0.015625)"/>
       </defs>
       <use xlink:href="#DejaVuSans-41"/>
       <use xlink:href="#DejaVuSans-55" x="68.408203"/>
       <use xlink:href="#DejaVuSans-43" x="141.601562"/>
      </g>
     </g>
    </g>
    <g id="xtick_8">
     <g id="line2d_17">
      <g>
       <use xlink:href="#m085d092151" x="781.772727" y="418.130526" style="stroke: #000000; stroke-width: 0.8"/>
      </g>
     </g>
     <g id="text_17">
      <!-- $Q_{local}$ -->
      <g transform="translate(754.822727 441.847089) scale(0.22 -0.22)">
       <defs>
        <path id="DejaVuSans-Oblique-51" d="M 2309 -84 
Q 2275 -88 2237 -89 
Q 2200 -91 2125 -91 
Q 1250 -91 756 411 
Q 263 913 263 1797 
Q 263 2319 452 2844 
Q 641 3369 978 3788 
Q 1369 4269 1858 4509 
Q 2347 4750 2938 4750 
Q 3794 4750 4287 4245 
Q 4781 3741 4781 2869 
Q 4781 1928 4265 1147 
Q 3750 366 2919 44 
L 3553 -825 
L 2847 -825 
L 2309 -84 
z
M 2919 4238 
Q 2400 4238 2003 3986 
Q 1606 3734 1313 3219 
Q 1125 2891 1026 2522 
Q 928 2153 928 1778 
Q 928 1128 1239 775 
Q 1550 422 2119 422 
Q 2631 422 3032 676 
Q 3434 931 3719 1434 
Q 3909 1772 4009 2142 
Q 4109 2513 4109 2881 
Q 4109 3528 3796 3883 
Q 3484 4238 2919 4238 
z
" transform="scale(0.015625)"/>
        <path id="DejaVuSans-Oblique-6c" d="M 1172 4863 
L 1747 4863 
L 800 0 
L 225 0 
L 1172 4863 
z
" transform="scale(0.015625)"/>
        <path id="DejaVuSans-Oblique-6f" d="M 1625 -91 
Q 1009 -91 651 289 
Q 294 669 294 1325 
Q 294 1706 417 2101 
Q 541 2497 738 2766 
Q 1047 3184 1428 3384 
Q 1809 3584 2291 3584 
Q 2888 3584 3255 3212 
Q 3622 2841 3622 2241 
Q 3622 1825 3500 1412 
Q 3378 1000 3181 728 
Q 2875 309 2494 109 
Q 2113 -91 1625 -91 
z
M 891 1344 
Q 891 869 1089 633 
Q 1288 397 1691 397 
Q 2269 397 2648 901 
Q 3028 1406 3028 2181 
Q 3028 2634 2825 2865 
Q 2622 3097 2228 3097 
Q 1903 3097 1650 2945 
Q 1397 2794 1197 2484 
Q 1050 2253 970 1956 
Q 891 1659 891 1344 
z
" transform="scale(0.015625)"/>
        <path id="DejaVuSans-Oblique-63" d="M 3431 3366 
L 3316 2797 
Q 3109 2947 2876 3022 
Q 2644 3097 2394 3097 
Q 2119 3097 1870 3000 
Q 1622 2903 1453 2725 
Q 1184 2453 1037 2087 
Q 891 1722 891 1331 
Q 891 859 1127 628 
Q 1363 397 1844 397 
Q 2081 397 2348 469 
Q 2616 541 2906 684 
L 2797 116 
Q 2547 13 2283 -39 
Q 2019 -91 1741 -91 
Q 1044 -91 669 257 
Q 294 606 294 1253 
Q 294 1797 489 2255 
Q 684 2713 1069 3078 
Q 1331 3328 1684 3456 
Q 2038 3584 2456 3584 
Q 2700 3584 2940 3529 
Q 3181 3475 3431 3366 
z
" transform="scale(0.015625)"/>
        <path id="DejaVuSans-Oblique-61" d="M 3438 1997 
L 3047 0 
L 2472 0 
L 2578 531 
Q 2325 219 2001 64 
Q 1678 -91 1281 -91 
Q 834 -91 548 182 
Q 263 456 263 884 
Q 263 1497 752 1853 
Q 1241 2209 2100 2209 
L 2900 2209 
L 2931 2363 
Q 2938 2388 2941 2417 
Q 2944 2447 2944 2509 
Q 2944 2788 2717 2942 
Q 2491 3097 2081 3097 
Q 1800 3097 1504 3025 
Q 1209 2953 897 2809 
L 997 3341 
Q 1322 3463 1633 3523 
Q 1944 3584 2234 3584 
Q 2853 3584 3176 3315 
Q 3500 3047 3500 2534 
Q 3500 2431 3484 2292 
Q 3469 2153 3438 1997 
z
M 2816 1759 
L 2241 1759 
Q 1534 1759 1195 1570 
Q 856 1381 856 984 
Q 856 709 1029 553 
Q 1203 397 1509 397 
Q 1978 397 2328 733 
Q 2678 1069 2791 1631 
L 2816 1759 
z
" transform="scale(0.015625)"/>
       </defs>
       <use xlink:href="#DejaVuSans-Oblique-51" transform="translate(0 0.78125)"/>
       <use xlink:href="#DejaVuSans-Oblique-6c" transform="translate(78.710938 -15.625) scale(0.7)"/>
       <use xlink:href="#DejaVuSans-Oblique-6f" transform="translate(98.15918 -15.625) scale(0.7)"/>
       <use xlink:href="#DejaVuSans-Oblique-63" transform="translate(140.986328 -15.625) scale(0.7)"/>
       <use xlink:href="#DejaVuSans-Oblique-61" transform="translate(179.472656 -15.625) scale(0.7)"/>
       <use xlink:href="#DejaVuSans-Oblique-6c" transform="translate(222.368164 -15.625) scale(0.7)"/>
      </g>
     </g>
    </g>
    <g id="xtick_9">
     <g id="line2d_18">
      <g>
       <use xlink:href="#m085d092151" x="914.798792" y="418.130526" style="stroke: #000000; stroke-width: 0.8"/>
      </g>
     </g>
     <g id="text_18">
      <!-- $Q_{global}$ -->
      <g transform="translate(882.348792 441.630526) scale(0.22 -0.22)">
       <defs>
        <path id="DejaVuSans-Oblique-67" d="M 3816 3500 
L 3219 434 
Q 3047 -456 2561 -893 
Q 2075 -1331 1253 -1331 
Q 950 -1331 690 -1286 
Q 431 -1241 206 -1147 
L 313 -588 
Q 525 -725 762 -790 
Q 1000 -856 1269 -856 
Q 1816 -856 2167 -557 
Q 2519 -259 2631 300 
L 2681 563 
Q 2441 288 2122 144 
Q 1803 0 1434 0 
Q 903 0 598 351 
Q 294 703 294 1319 
Q 294 1803 478 2267 
Q 663 2731 997 3091 
Q 1219 3328 1514 3456 
Q 1809 3584 2131 3584 
Q 2484 3584 2746 3420 
Q 3009 3256 3138 2956 
L 3238 3500 
L 3816 3500 
z
M 2950 2216 
Q 2950 2641 2750 2872 
Q 2550 3103 2181 3103 
Q 1953 3103 1747 3012 
Q 1541 2922 1394 2759 
Q 1156 2491 1023 2127 
Q 891 1763 891 1375 
Q 891 944 1092 712 
Q 1294 481 1672 481 
Q 2219 481 2584 976 
Q 2950 1472 2950 2216 
z
" transform="scale(0.015625)"/>
        <path id="DejaVuSans-Oblique-62" d="M 3169 2138 
Q 3169 2591 2961 2847 
Q 2753 3103 2388 3103 
Q 2122 3103 1889 2973 
Q 1656 2844 1484 2597 
Q 1303 2338 1198 1995 
Q 1094 1653 1094 1313 
Q 1094 881 1298 636 
Q 1503 391 1863 391 
Q 2134 391 2365 517 
Q 2597 644 2772 891 
Q 2950 1147 3059 1487 
Q 3169 1828 3169 2138 
z
M 1381 2969 
Q 1594 3256 1914 3420 
Q 2234 3584 2584 3584 
Q 3122 3584 3439 3221 
Q 3756 2859 3756 2241 
Q 3756 1734 3570 1259 
Q 3384 784 3041 416 
Q 2816 172 2522 40 
Q 2228 -91 1906 -91 
Q 1566 -91 1316 65 
Q 1066 222 909 531 
L 806 0 
L 231 0 
L 1178 4863 
L 1753 4863 
L 1381 2969 
z
" transform="scale(0.015625)"/>
       </defs>
       <use xlink:href="#DejaVuSans-Oblique-51" transform="translate(0 0.78125)"/>
       <use xlink:href="#DejaVuSans-Oblique-67" transform="translate(78.710938 -15.625) scale(0.7)"/>
       <use xlink:href="#DejaVuSans-Oblique-6c" transform="translate(123.144531 -15.625) scale(0.7)"/>
       <use xlink:href="#DejaVuSans-Oblique-6f" transform="translate(142.592773 -15.625) scale(0.7)"/>
       <use xlink:href="#DejaVuSans-Oblique-62" transform="translate(185.419922 -15.625) scale(0.7)"/>
       <use xlink:href="#DejaVuSans-Oblique-61" transform="translate(229.853516 -15.625) scale(0.7)"/>
       <use xlink:href="#DejaVuSans-Oblique-6c" transform="translate(272.749023 -15.625) scale(0.7)"/>
      </g>
     </g>
    </g>
   </g>
   <g id="matplotlib.axis_4">
    <g id="ytick_6">
     <g id="line2d_19">
      <g>
       <use xlink:href="#m573adf39f7" x="591.545455" y="418.130526" style="stroke: #000000; stroke-width: 0.8"/>
      </g>
     </g>
     <g id="text_19">
      <!-- 0.0 -->
      <g transform="translate(549.55858 426.488808) scale(0.22 -0.22)">
       <use xlink:href="#DejaVuSans-30"/>
       <use xlink:href="#DejaVuSans-2e" x="63.623047"/>
       <use xlink:href="#DejaVuSans-30" x="95.410156"/>
      </g>
     </g>
    </g>
    <g id="ytick_7">
     <g id="line2d_20">
      <g>
       <use xlink:href="#m573adf39f7" x="591.545455" y="331.572832" style="stroke: #000000; stroke-width: 0.8"/>
      </g>
     </g>
     <g id="text_20">
      <!-- 0.2 -->
      <g transform="translate(549.55858 339.931113) scale(0.22 -0.22)">
       <use xlink:href="#DejaVuSans-30"/>
       <use xlink:href="#DejaVuSans-2e" x="63.623047"/>
       <use xlink:href="#DejaVuSans-32" x="95.410156"/>
      </g>
     </g>
    </g>
    <g id="ytick_8">
     <g id="line2d_21">
      <g>
       <use xlink:href="#m573adf39f7" x="591.545455" y="245.015137" style="stroke: #000000; stroke-width: 0.8"/>
      </g>
     </g>
     <g id="text_21">
      <!-- 0.4 -->
      <g transform="translate(549.55858 253.373418) scale(0.22 -0.22)">
       <use xlink:href="#DejaVuSans-30"/>
       <use xlink:href="#DejaVuSans-2e" x="63.623047"/>
       <use xlink:href="#DejaVuSans-34" x="95.410156"/>
      </g>
     </g>
    </g>
    <g id="ytick_9">
     <g id="line2d_22">
      <g>
       <use xlink:href="#m573adf39f7" x="591.545455" y="158.457442" style="stroke: #000000; stroke-width: 0.8"/>
      </g>
     </g>
     <g id="text_22">
      <!-- 0.6 -->
      <g transform="translate(549.55858 166.815723) scale(0.22 -0.22)">
       <use xlink:href="#DejaVuSans-30"/>
       <use xlink:href="#DejaVuSans-2e" x="63.623047"/>
       <use xlink:href="#DejaVuSans-36" x="95.410156"/>
      </g>
     </g>
    </g>
    <g id="text_23">
     <!-- Metric Value -->
     <g transform="translate(540.983267 354.727919) rotate(-90) scale(0.22 -0.22)">
      <defs>
       <path id="DejaVuSans-4d" d="M 628 4666 
L 1569 4666 
L 2759 1491 
L 3956 4666 
L 4897 4666 
L 4897 0 
L 4281 0 
L 4281 4097 
L 3078 897 
L 2444 897 
L 1241 4097 
L 1241 0 
L 628 0 
L 628 4666 
z
" transform="scale(0.015625)"/>
       <path id="DejaVuSans-65" d="M 3597 1894 
L 3597 1613 
L 953 1613 
Q 991 1019 1311 708 
Q 1631 397 2203 397 
Q 2534 397 2845 478 
Q 3156 559 3463 722 
L 3463 178 
Q 3153 47 2828 -22 
Q 2503 -91 2169 -91 
Q 1331 -91 842 396 
Q 353 884 353 1716 
Q 353 2575 817 3079 
Q 1281 3584 2069 3584 
Q 2775 3584 3186 3129 
Q 3597 2675 3597 1894 
z
M 3022 2063 
Q 3016 2534 2758 2815 
Q 2500 3097 2075 3097 
Q 1594 3097 1305 2825 
Q 1016 2553 972 2059 
L 3022 2063 
z
" transform="scale(0.015625)"/>
       <path id="DejaVuSans-74" d="M 1172 4494 
L 1172 3500 
L 2356 3500 
L 2356 3053 
L 1172 3053 
L 1172 1153 
Q 1172 725 1289 603 
Q 1406 481 1766 481 
L 2356 481 
L 2356 0 
L 1766 0 
Q 1100 0 847 248 
Q 594 497 594 1153 
L 594 3053 
L 172 3053 
L 172 3500 
L 594 3500 
L 594 4494 
L 1172 4494 
z
" transform="scale(0.015625)"/>
       <path id="DejaVuSans-72" d="M 2631 2963 
Q 2534 3019 2420 3045 
Q 2306 3072 2169 3072 
Q 1681 3072 1420 2755 
Q 1159 2438 1159 1844 
L 1159 0 
L 581 0 
L 581 3500 
L 1159 3500 
L 1159 2956 
Q 1341 3275 1631 3429 
Q 1922 3584 2338 3584 
Q 2397 3584 2469 3576 
Q 2541 3569 2628 3553 
L 2631 2963 
z
" transform="scale(0.015625)"/>
       <path id="DejaVuSans-69" d="M 603 3500 
L 1178 3500 
L 1178 0 
L 603 0 
L 603 3500 
z
M 603 4863 
L 1178 4863 
L 1178 4134 
L 603 4134 
L 603 4863 
z
" transform="scale(0.015625)"/>
       <path id="DejaVuSans-63" d="M 3122 3366 
L 3122 2828 
Q 2878 2963 2633 3030 
Q 2388 3097 2138 3097 
Q 1578 3097 1268 2742 
Q 959 2388 959 1747 
Q 959 1106 1268 751 
Q 1578 397 2138 397 
Q 2388 397 2633 464 
Q 2878 531 3122 666 
L 3122 134 
Q 2881 22 2623 -34 
Q 2366 -91 2075 -91 
Q 1284 -91 818 406 
Q 353 903 353 1747 
Q 353 2603 823 3093 
Q 1294 3584 2113 3584 
Q 2378 3584 2631 3529 
Q 2884 3475 3122 3366 
z
" transform="scale(0.015625)"/>
       <path id="DejaVuSans-20" transform="scale(0.015625)"/>
       <path id="DejaVuSans-56" d="M 1831 0 
L 50 4666 
L 709 4666 
L 2188 738 
L 3669 4666 
L 4325 4666 
L 2547 0 
L 1831 0 
z
" transform="scale(0.015625)"/>
       <path id="DejaVuSans-61" d="M 2194 1759 
Q 1497 1759 1228 1600 
Q 959 1441 959 1056 
Q 959 750 1161 570 
Q 1363 391 1709 391 
Q 2188 391 2477 730 
Q 2766 1069 2766 1631 
L 2766 1759 
L 2194 1759 
z
M 3341 1997 
L 3341 0 
L 2766 0 
L 2766 531 
Q 2569 213 2275 61 
Q 1981 -91 1556 -91 
Q 1019 -91 701 211 
Q 384 513 384 1019 
Q 384 1609 779 1909 
Q 1175 2209 1959 2209 
L 2766 2209 
L 2766 2266 
Q 2766 2663 2505 2880 
Q 2244 3097 1772 3097 
Q 1472 3097 1187 3025 
Q 903 2953 641 2809 
L 641 3341 
Q 956 3463 1253 3523 
Q 1550 3584 1831 3584 
Q 2591 3584 2966 3190 
Q 3341 2797 3341 1997 
z
" transform="scale(0.015625)"/>
       <path id="DejaVuSans-6c" d="M 603 4863 
L 1178 4863 
L 1178 0 
L 603 0 
L 603 4863 
z
" transform="scale(0.015625)"/>
       <path id="DejaVuSans-75" d="M 544 1381 
L 544 3500 
L 1119 3500 
L 1119 1403 
Q 1119 906 1312 657 
Q 1506 409 1894 409 
Q 2359 409 2629 706 
Q 2900 1003 2900 1516 
L 2900 3500 
L 3475 3500 
L 3475 0 
L 2900 0 
L 2900 538 
Q 2691 219 2414 64 
Q 2138 -91 1772 -91 
Q 1169 -91 856 284 
Q 544 659 544 1381 
z
M 1991 3584 
L 1991 3584 
z
" transform="scale(0.015625)"/>
      </defs>
      <use xlink:href="#DejaVuSans-4d"/>
      <use xlink:href="#DejaVuSans-65" x="86.279297"/>
      <use xlink:href="#DejaVuSans-74" x="147.802734"/>
      <use xlink:href="#DejaVuSans-72" x="187.011719"/>
      <use xlink:href="#DejaVuSans-69" x="228.125"/>
      <use xlink:href="#DejaVuSans-63" x="255.908203"/>
      <use xlink:href="#DejaVuSans-20" x="310.888672"/>
      <use xlink:href="#DejaVuSans-56" x="342.675781"/>
      <use xlink:href="#DejaVuSans-61" x="403.333984"/>
      <use xlink:href="#DejaVuSans-6c" x="464.613281"/>
      <use xlink:href="#DejaVuSans-75" x="492.396484"/>
      <use xlink:href="#DejaVuSans-65" x="555.775391"/>
     </g>
    </g>
   </g>
   <g id="patch_20">
    <path d="M 591.545455 418.130526 
L 591.545455 155.52 
" style="fill: none; stroke: #000000; stroke-width: 0.8; stroke-linejoin: miter; stroke-linecap: square"/>
   </g>
   <g id="patch_21">
    <path d="M 972 418.130526 
L 972 155.52 
" style="fill: none; stroke: #000000; stroke-width: 0.8; stroke-linejoin: miter; stroke-linecap: square"/>
   </g>
   <g id="patch_22">
    <path d="M 591.545455 418.130526 
L 972 418.130526 
" style="fill: none; stroke: #000000; stroke-width: 0.8; stroke-linejoin: miter; stroke-linecap: square"/>
   </g>
   <g id="patch_23">
    <path d="M 591.545455 155.52 
L 972 155.52 
" style="fill: none; stroke: #000000; stroke-width: 0.8; stroke-linejoin: miter; stroke-linecap: square"/>
   </g>
   <g id="text_24">
    <!-- b -->
    <g transform="translate(544.871761 137.404046) scale(0.28 -0.28)">
     <defs>
      <path id="DejaVuSans-Bold-62" d="M 2400 722 
Q 2759 722 2948 984 
Q 3138 1247 3138 1747 
Q 3138 2247 2948 2509 
Q 2759 2772 2400 2772 
Q 2041 2772 1848 2508 
Q 1656 2244 1656 1747 
Q 1656 1250 1848 986 
Q 2041 722 2400 722 
z
M 1656 2988 
Q 1888 3294 2169 3439 
Q 2450 3584 2816 3584 
Q 3463 3584 3878 3070 
Q 4294 2556 4294 1747 
Q 4294 938 3878 423 
Q 3463 -91 2816 -91 
Q 2450 -91 2169 54 
Q 1888 200 1656 506 
L 1656 0 
L 538 0 
L 538 4863 
L 1656 4863 
L 1656 2988 
z
" transform="scale(0.015625)"/>
     </defs>
     <use xlink:href="#DejaVuSans-Bold-62"/>
    </g>
   </g>
   <g id="text_25">
    <!-- Metrics -->
    <g transform="translate(734.584759 149.52) scale(0.26 -0.26)">
     <defs>
      <path id="DejaVuSans-73" d="M 2834 3397 
L 2834 2853 
Q 2591 2978 2328 3040 
Q 2066 3103 1784 3103 
Q 1356 3103 1142 2972 
Q 928 2841 928 2578 
Q 928 2378 1081 2264 
Q 1234 2150 1697 2047 
L 1894 2003 
Q 2506 1872 2764 1633 
Q 3022 1394 3022 966 
Q 3022 478 2636 193 
Q 2250 -91 1575 -91 
Q 1294 -91 989 -36 
Q 684 19 347 128 
L 347 722 
Q 666 556 975 473 
Q 1284 391 1588 391 
Q 1994 391 2212 530 
Q 2431 669 2431 922 
Q 2431 1156 2273 1281 
Q 2116 1406 1581 1522 
L 1381 1569 
Q 847 1681 609 1914 
Q 372 2147 372 2553 
Q 372 3047 722 3315 
Q 1072 3584 1716 3584 
Q 2034 3584 2315 3537 
Q 2597 3491 2834 3397 
z
" transform="scale(0.015625)"/>
     </defs>
     <use xlink:href="#DejaVuSans-4d"/>
     <use xlink:href="#DejaVuSans-65" x="86.279297"/>
     <use xlink:href="#DejaVuSans-74" x="147.802734"/>
     <use xlink:href="#DejaVuSans-72" x="187.011719"/>
     <use xlink:href="#DejaVuSans-69" x="228.125"/>
     <use xlink:href="#DejaVuSans-63" x="255.908203"/>
     <use xlink:href="#DejaVuSans-73" x="310.888672"/>
    </g>
   </g>
  </g>
  <g id="axes_3">
   <g id="patch_24">
    <path d="M 135 785.785263 
L 515.454545 785.785263 
L 515.454545 523.174737 
L 135 523.174737 
z
" style="fill: #ffffff"/>
   </g>
   <g id="matplotlib.axis_5">
    <g id="xtick_10">
     <g id="line2d_23">
      <g>
       <use xlink:href="#m085d092151" x="137.882231" y="785.785263" style="stroke: #000000; stroke-width: 0.8"/>
      </g>
     </g>
     <g id="text_26">
      <!-- 0 -->
      <g transform="translate(130.883481 809.501826) scale(0.22 -0.22)">
       <use xlink:href="#DejaVuSans-30"/>
      </g>
     </g>
    </g>
    <g id="xtick_11">
     <g id="line2d_24">
      <g>
       <use xlink:href="#m085d092151" x="281.993802" y="785.785263" style="stroke: #000000; stroke-width: 0.8"/>
      </g>
     </g>
     <g id="text_27">
      <!-- 20 -->
      <g transform="translate(267.996302 809.501826) scale(0.22 -0.22)">
       <use xlink:href="#DejaVuSans-32"/>
       <use xlink:href="#DejaVuSans-30" x="63.623047"/>
      </g>
     </g>
    </g>
    <g id="xtick_12">
     <g id="line2d_25">
      <g>
       <use xlink:href="#m085d092151" x="426.105372" y="785.785263" style="stroke: #000000; stroke-width: 0.8"/>
      </g>
     </g>
     <g id="text_28">
      <!-- 40 -->
      <g transform="translate(412.107872 809.501826) scale(0.22 -0.22)">
       <use xlink:href="#DejaVuSans-34"/>
       <use xlink:href="#DejaVuSans-30" x="63.623047"/>
      </g>
     </g>
    </g>
    <g id="text_29">
     <!-- k -->
     <g transform="translate(318.278523 836.313388) scale(0.24 -0.24)">
      <use xlink:href="#DejaVuSans-6b"/>
     </g>
    </g>
   </g>
   <g id="matplotlib.axis_6">
    <g id="ytick_10">
     <g id="line2d_26">
      <g>
       <use xlink:href="#m573adf39f7" x="135" y="720.536472" style="stroke: #000000; stroke-width: 0.8"/>
      </g>
     </g>
     <g id="text_30">
      <!-- 0.7 -->
      <g transform="translate(93.013125 728.894753) scale(0.22 -0.22)">
       <defs>
        <path id="DejaVuSans-37" d="M 525 4666 
L 3525 4666 
L 3525 4397 
L 1831 0 
L 1172 0 
L 2766 4134 
L 525 4134 
L 525 4666 
z
" transform="scale(0.015625)"/>
       </defs>
       <use xlink:href="#DejaVuSans-30"/>
       <use xlink:href="#DejaVuSans-2e" x="63.623047"/>
       <use xlink:href="#DejaVuSans-37" x="95.410156"/>
      </g>
     </g>
    </g>
    <g id="ytick_11">
     <g id="line2d_27">
      <g>
       <use xlink:href="#m573adf39f7" x="135" y="648.816841" style="stroke: #000000; stroke-width: 0.8"/>
      </g>
     </g>
     <g id="text_31">
      <!-- 0.8 -->
      <g transform="translate(93.013125 657.175122) scale(0.22 -0.22)">
       <use xlink:href="#DejaVuSans-30"/>
       <use xlink:href="#DejaVuSans-2e" x="63.623047"/>
       <use xlink:href="#DejaVuSans-38" x="95.410156"/>
      </g>
     </g>
    </g>
    <g id="ytick_12">
     <g id="line2d_28">
      <g>
       <use xlink:href="#m573adf39f7" x="135" y="577.097211" style="stroke: #000000; stroke-width: 0.8"/>
      </g>
     </g>
     <g id="text_32">
      <!-- 0.9 -->
      <g transform="translate(93.013125 585.455492) scale(0.22 -0.22)">
       <defs>
        <path id="DejaVuSans-39" d="M 703 97 
L 703 672 
Q 941 559 1184 500 
Q 1428 441 1663 441 
Q 2288 441 2617 861 
Q 2947 1281 2994 2138 
Q 2813 1869 2534 1725 
Q 2256 1581 1919 1581 
Q 1219 1581 811 2004 
Q 403 2428 403 3163 
Q 403 3881 828 4315 
Q 1253 4750 1959 4750 
Q 2769 4750 3195 4129 
Q 3622 3509 3622 2328 
Q 3622 1225 3098 567 
Q 2575 -91 1691 -91 
Q 1453 -91 1209 -44 
Q 966 3 703 97 
z
M 1959 2075 
Q 2384 2075 2632 2365 
Q 2881 2656 2881 3163 
Q 2881 3666 2632 3958 
Q 2384 4250 1959 4250 
Q 1534 4250 1286 3958 
Q 1038 3666 1038 3163 
Q 1038 2656 1286 2365 
Q 1534 2075 1959 2075 
z
" transform="scale(0.015625)"/>
       </defs>
       <use xlink:href="#DejaVuSans-30"/>
       <use xlink:href="#DejaVuSans-2e" x="63.623047"/>
       <use xlink:href="#DejaVuSans-39" x="95.410156"/>
      </g>
     </g>
    </g>
    <g id="text_33">
     <!-- Metric Value -->
     <g transform="translate(84.021875 728.555625) rotate(-90) scale(0.24 -0.24)">
      <use xlink:href="#DejaVuSans-4d"/>
      <use xlink:href="#DejaVuSans-65" x="86.279297"/>
      <use xlink:href="#DejaVuSans-74" x="147.802734"/>
      <use xlink:href="#DejaVuSans-72" x="187.011719"/>
      <use xlink:href="#DejaVuSans-69" x="228.125"/>
      <use xlink:href="#DejaVuSans-63" x="255.908203"/>
      <use xlink:href="#DejaVuSans-20" x="310.888672"/>
      <use xlink:href="#DejaVuSans-56" x="342.675781"/>
      <use xlink:href="#DejaVuSans-61" x="403.333984"/>
      <use xlink:href="#DejaVuSans-6c" x="464.613281"/>
      <use xlink:href="#DejaVuSans-75" x="492.396484"/>
      <use xlink:href="#DejaVuSans-65" x="555.775391"/>
     </g>
    </g>
   </g>
   <g id="line2d_29">
    <path d="M 152.293388 757.87109 
L 173.910124 760.021624 
L 209.938017 763.621841 
L 281.993802 766.551736 
L 498.161157 773.848421 
" clip-path="url(#p2050a41590)" style="fill: none; stroke: #1f77b4; stroke-width: 1.5; stroke-linecap: square"/>
    <g clip-path="url(#p2050a41590)">
     <use xlink:href="#mc14d5d24fe" x="152.293388" y="757.87109" style="fill: #1f77b4; stroke: #1f77b4"/>
     <use xlink:href="#mc14d5d24fe" x="173.910124" y="760.021624" style="fill: #1f77b4; stroke: #1f77b4"/>
     <use xlink:href="#mc14d5d24fe" x="209.938017" y="763.621841" style="fill: #1f77b4; stroke: #1f77b4"/>
     <use xlink:href="#mc14d5d24fe" x="281.993802" y="766.551736" style="fill: #1f77b4; stroke: #1f77b4"/>
     <use xlink:href="#mc14d5d24fe" x="498.161157" y="773.848421" style="fill: #1f77b4; stroke: #1f77b4"/>
    </g>
   </g>
   <g id="line2d_30">
    <path d="M 152.293388 535.111579 
L 173.910124 555.646973 
L 209.938017 588.801946 
L 281.993802 632.764104 
L 498.161157 707.432511 
" clip-path="url(#p2050a41590)" style="fill: none; stroke: #ff7f0e; stroke-width: 1.5; stroke-linecap: square"/>
    <g clip-path="url(#p2050a41590)">
     <use xlink:href="#m16d6161cef" x="152.293388" y="535.111579" style="fill: #ff7f0e; stroke: #ff7f0e"/>
     <use xlink:href="#m16d6161cef" x="173.910124" y="555.646973" style="fill: #ff7f0e; stroke: #ff7f0e"/>
     <use xlink:href="#m16d6161cef" x="209.938017" y="588.801946" style="fill: #ff7f0e; stroke: #ff7f0e"/>
     <use xlink:href="#m16d6161cef" x="281.993802" y="632.764104" style="fill: #ff7f0e; stroke: #ff7f0e"/>
     <use xlink:href="#m16d6161cef" x="498.161157" y="707.432511" style="fill: #ff7f0e; stroke: #ff7f0e"/>
    </g>
   </g>
   <g id="line2d_31">
    <path d="M 152.293388 582.020845 
L 173.910124 590.934671 
L 209.938017 610.287972 
L 281.993802 649.150482 
L 498.161157 724.041771 
" clip-path="url(#p2050a41590)" style="fill: none; stroke: #2ca02c; stroke-width: 1.5; stroke-linecap: square"/>
    <g clip-path="url(#p2050a41590)">
     <use xlink:href="#m977b6b004d" x="152.293388" y="582.020845" style="fill: #2ca02c; stroke: #2ca02c"/>
     <use xlink:href="#m977b6b004d" x="173.910124" y="590.934671" style="fill: #2ca02c; stroke: #2ca02c"/>
     <use xlink:href="#m977b6b004d" x="209.938017" y="610.287972" style="fill: #2ca02c; stroke: #2ca02c"/>
     <use xlink:href="#m977b6b004d" x="281.993802" y="649.150482" style="fill: #2ca02c; stroke: #2ca02c"/>
     <use xlink:href="#m977b6b004d" x="498.161157" y="724.041771" style="fill: #2ca02c; stroke: #2ca02c"/>
    </g>
   </g>
   <g id="line2d_32">
    <path d="M 152.293388 564.631838 
L 173.910124 578.124905 
L 209.938017 594.622778 
L 281.993802 626.686692 
L 498.161157 688.827259 
" clip-path="url(#p2050a41590)" style="fill: none; stroke: #d62728; stroke-width: 1.5; stroke-linecap: square"/>
    <g clip-path="url(#p2050a41590)">
     <use xlink:href="#mb99b51d6c4" x="152.293388" y="564.631838" style="fill: #d62728; stroke: #d62728"/>
     <use xlink:href="#mb99b51d6c4" x="173.910124" y="578.124905" style="fill: #d62728; stroke: #d62728"/>
     <use xlink:href="#mb99b51d6c4" x="209.938017" y="594.622778" style="fill: #d62728; stroke: #d62728"/>
     <use xlink:href="#mb99b51d6c4" x="281.993802" y="626.686692" style="fill: #d62728; stroke: #d62728"/>
     <use xlink:href="#mb99b51d6c4" x="498.161157" y="688.827259" style="fill: #d62728; stroke: #d62728"/>
    </g>
   </g>
   <g id="patch_25">
    <path d="M 135 785.785263 
L 135 523.174737 
" style="fill: none; stroke: #000000; stroke-width: 0.8; stroke-linejoin: miter; stroke-linecap: square"/>
   </g>
   <g id="patch_26">
    <path d="M 515.454545 785.785263 
L 515.454545 523.174737 
" style="fill: none; stroke: #000000; stroke-width: 0.8; stroke-linejoin: miter; stroke-linecap: square"/>
   </g>
   <g id="patch_27">
    <path d="M 135 785.785263 
L 515.454545 785.785263 
" style="fill: none; stroke: #000000; stroke-width: 0.8; stroke-linejoin: miter; stroke-linecap: square"/>
   </g>
   <g id="patch_28">
    <path d="M 135 523.174737 
L 515.454545 523.174737 
" style="fill: none; stroke: #000000; stroke-width: 0.8; stroke-linejoin: miter; stroke-linecap: square"/>
   </g>
   <g id="text_34">
    <!-- c -->
    <g transform="translate(91.769432 505.058783) scale(0.28 -0.28)">
     <defs>
      <path id="DejaVuSans-Bold-63" d="M 3366 3391 
L 3366 2478 
Q 3138 2634 2908 2709 
Q 2678 2784 2431 2784 
Q 1963 2784 1702 2511 
Q 1441 2238 1441 1747 
Q 1441 1256 1702 982 
Q 1963 709 2431 709 
Q 2694 709 2930 787 
Q 3166 866 3366 1019 
L 3366 103 
Q 3103 6 2833 -42 
Q 2563 -91 2291 -91 
Q 1344 -91 809 395 
Q 275 881 275 1747 
Q 275 2613 809 3098 
Q 1344 3584 2291 3584 
Q 2566 3584 2833 3536 
Q 3100 3488 3366 3391 
z
" transform="scale(0.015625)"/>
     </defs>
     <use xlink:href="#DejaVuSans-Bold-63"/>
    </g>
   </g>
   <g id="text_35">
    <!-- Trustworthiness -->
    <g transform="translate(230.950398 517.174737) scale(0.24 -0.24)">
     <defs>
      <path id="DejaVuSans-54" d="M -19 4666 
L 3928 4666 
L 3928 4134 
L 2272 4134 
L 2272 0 
L 1638 0 
L 1638 4134 
L -19 4134 
L -19 4666 
z
" transform="scale(0.015625)"/>
      <path id="DejaVuSans-77" d="M 269 3500 
L 844 3500 
L 1563 769 
L 2278 3500 
L 2956 3500 
L 3675 769 
L 4391 3500 
L 4966 3500 
L 4050 0 
L 3372 0 
L 2619 2869 
L 1863 0 
L 1184 0 
L 269 3500 
z
" transform="scale(0.015625)"/>
      <path id="DejaVuSans-6f" d="M 1959 3097 
Q 1497 3097 1228 2736 
Q 959 2375 959 1747 
Q 959 1119 1226 758 
Q 1494 397 1959 397 
Q 2419 397 2687 759 
Q 2956 1122 2956 1747 
Q 2956 2369 2687 2733 
Q 2419 3097 1959 3097 
z
M 1959 3584 
Q 2709 3584 3137 3096 
Q 3566 2609 3566 1747 
Q 3566 888 3137 398 
Q 2709 -91 1959 -91 
Q 1206 -91 779 398 
Q 353 888 353 1747 
Q 353 2609 779 3096 
Q 1206 3584 1959 3584 
z
" transform="scale(0.015625)"/>
      <path id="DejaVuSans-68" d="M 3513 2113 
L 3513 0 
L 2938 0 
L 2938 2094 
Q 2938 2591 2744 2837 
Q 2550 3084 2163 3084 
Q 1697 3084 1428 2787 
Q 1159 2491 1159 1978 
L 1159 0 
L 581 0 
L 581 4863 
L 1159 4863 
L 1159 2956 
Q 1366 3272 1645 3428 
Q 1925 3584 2291 3584 
Q 2894 3584 3203 3211 
Q 3513 2838 3513 2113 
z
" transform="scale(0.015625)"/>
      <path id="DejaVuSans-6e" d="M 3513 2113 
L 3513 0 
L 2938 0 
L 2938 2094 
Q 2938 2591 2744 2837 
Q 2550 3084 2163 3084 
Q 1697 3084 1428 2787 
Q 1159 2491 1159 1978 
L 1159 0 
L 581 0 
L 581 3500 
L 1159 3500 
L 1159 2956 
Q 1366 3272 1645 3428 
Q 1925 3584 2291 3584 
Q 2894 3584 3203 3211 
Q 3513 2838 3513 2113 
z
" transform="scale(0.015625)"/>
     </defs>
     <use xlink:href="#DejaVuSans-54"/>
     <use xlink:href="#DejaVuSans-72" x="46.333984"/>
     <use xlink:href="#DejaVuSans-75" x="87.447266"/>
     <use xlink:href="#DejaVuSans-73" x="150.826172"/>
     <use xlink:href="#DejaVuSans-74" x="202.925781"/>
     <use xlink:href="#DejaVuSans-77" x="242.134766"/>
     <use xlink:href="#DejaVuSans-6f" x="323.921875"/>
     <use xlink:href="#DejaVuSans-72" x="385.103516"/>
     <use xlink:href="#DejaVuSans-74" x="426.216797"/>
     <use xlink:href="#DejaVuSans-68" x="465.425781"/>
     <use xlink:href="#DejaVuSans-69" x="528.804688"/>
     <use xlink:href="#DejaVuSans-6e" x="556.587891"/>
     <use xlink:href="#DejaVuSans-65" x="619.966797"/>
     <use xlink:href="#DejaVuSans-73" x="681.490234"/>
     <use xlink:href="#DejaVuSans-73" x="733.589844"/>
    </g>
   </g>
  </g>
  <g id="axes_4">
   <g id="patch_29">
    <path d="M 591.545455 785.785263 
L 972 785.785263 
L 972 523.174737 
L 591.545455 523.174737 
z
" style="fill: #ffffff"/>
   </g>
   <g id="matplotlib.axis_7">
    <g id="xtick_13">
     <g id="line2d_33">
      <g>
       <use xlink:href="#m085d092151" x="594.427686" y="785.785263" style="stroke: #000000; stroke-width: 0.8"/>
      </g>
     </g>
     <g id="text_36">
      <!-- 0 -->
      <g transform="translate(587.428936 809.501826) scale(0.22 -0.22)">
       <use xlink:href="#DejaVuSans-30"/>
      </g>
     </g>
    </g>
    <g id="xtick_14">
     <g id="line2d_34">
      <g>
       <use xlink:href="#m085d092151" x="738.539256" y="785.785263" style="stroke: #000000; stroke-width: 0.8"/>
      </g>
     </g>
     <g id="text_37">
      <!-- 20 -->
      <g transform="translate(724.541756 809.501826) scale(0.22 -0.22)">
       <use xlink:href="#DejaVuSans-32"/>
       <use xlink:href="#DejaVuSans-30" x="63.623047"/>
      </g>
     </g>
    </g>
    <g id="xtick_15">
     <g id="line2d_35">
      <g>
       <use xlink:href="#m085d092151" x="882.650826" y="785.785263" style="stroke: #000000; stroke-width: 0.8"/>
      </g>
     </g>
     <g id="text_38">
      <!-- 40 -->
      <g transform="translate(868.653326 809.501826) scale(0.22 -0.22)">
       <use xlink:href="#DejaVuSans-34"/>
       <use xlink:href="#DejaVuSans-30" x="63.623047"/>
      </g>
     </g>
    </g>
    <g id="text_39">
     <!-- k -->
     <g transform="translate(774.823977 836.313388) scale(0.24 -0.24)">
      <use xlink:href="#DejaVuSans-6b"/>
     </g>
    </g>
   </g>
   <g id="matplotlib.axis_8">
    <g id="ytick_13">
     <g id="line2d_36">
      <g>
       <use xlink:href="#m573adf39f7" x="591.545455" y="775.264761" style="stroke: #000000; stroke-width: 0.8"/>
      </g>
     </g>
     <g id="text_40">
      <!-- 0.6 -->
      <g transform="translate(549.55858 783.623042) scale(0.22 -0.22)">
       <use xlink:href="#DejaVuSans-30"/>
       <use xlink:href="#DejaVuSans-2e" x="63.623047"/>
       <use xlink:href="#DejaVuSans-36" x="95.410156"/>
      </g>
     </g>
    </g>
    <g id="ytick_14">
     <g id="line2d_37">
      <g>
       <use xlink:href="#m573adf39f7" x="591.545455" y="713.692613" style="stroke: #000000; stroke-width: 0.8"/>
      </g>
     </g>
     <g id="text_41">
      <!-- 0.7 -->
      <g transform="translate(549.55858 722.050894) scale(0.22 -0.22)">
       <use xlink:href="#DejaVuSans-30"/>
       <use xlink:href="#DejaVuSans-2e" x="63.623047"/>
       <use xlink:href="#DejaVuSans-37" x="95.410156"/>
      </g>
     </g>
    </g>
    <g id="ytick_15">
     <g id="line2d_38">
      <g>
       <use xlink:href="#m573adf39f7" x="591.545455" y="652.120465" style="stroke: #000000; stroke-width: 0.8"/>
      </g>
     </g>
     <g id="text_42">
      <!-- 0.8 -->
      <g transform="translate(549.55858 660.478746) scale(0.22 -0.22)">
       <use xlink:href="#DejaVuSans-30"/>
       <use xlink:href="#DejaVuSans-2e" x="63.623047"/>
       <use xlink:href="#DejaVuSans-38" x="95.410156"/>
      </g>
     </g>
    </g>
    <g id="ytick_16">
     <g id="line2d_39">
      <g>
       <use xlink:href="#m573adf39f7" x="591.545455" y="590.548317" style="stroke: #000000; stroke-width: 0.8"/>
      </g>
     </g>
     <g id="text_43">
      <!-- 0.9 -->
      <g transform="translate(549.55858 598.906598) scale(0.22 -0.22)">
       <use xlink:href="#DejaVuSans-30"/>
       <use xlink:href="#DejaVuSans-2e" x="63.623047"/>
       <use xlink:href="#DejaVuSans-39" x="95.410156"/>
      </g>
     </g>
    </g>
    <g id="ytick_17">
     <g id="line2d_40">
      <g>
       <use xlink:href="#m573adf39f7" x="591.545455" y="528.976168" style="stroke: #000000; stroke-width: 0.8"/>
      </g>
     </g>
     <g id="text_44">
      <!-- 1.0 -->
      <g transform="translate(549.55858 537.33445) scale(0.22 -0.22)">
       <use xlink:href="#DejaVuSans-31"/>
       <use xlink:href="#DejaVuSans-2e" x="63.623047"/>
       <use xlink:href="#DejaVuSans-30" x="95.410156"/>
      </g>
     </g>
    </g>
   </g>
   <g id="line2d_41">
    <path d="M 608.838843 569.070052 
L 630.455579 582.238863 
L 666.483471 595.511271 
L 738.539256 611.848793 
L 954.706612 642.938663 
" clip-path="url(#p41a98144cd)" style="fill: none; stroke: #1f77b4; stroke-width: 1.5; stroke-linecap: square"/>
    <g clip-path="url(#p41a98144cd)">
     <use xlink:href="#mc14d5d24fe" x="608.838843" y="569.070052" style="fill: #1f77b4; stroke: #1f77b4"/>
     <use xlink:href="#mc14d5d24fe" x="630.455579" y="582.238863" style="fill: #1f77b4; stroke: #1f77b4"/>
     <use xlink:href="#mc14d5d24fe" x="666.483471" y="595.511271" style="fill: #1f77b4; stroke: #1f77b4"/>
     <use xlink:href="#mc14d5d24fe" x="738.539256" y="611.848793" style="fill: #1f77b4; stroke: #1f77b4"/>
     <use xlink:href="#mc14d5d24fe" x="954.706612" y="642.938663" style="fill: #1f77b4; stroke: #1f77b4"/>
    </g>
   </g>
   <g id="line2d_42">
    <path d="M 608.838843 535.111579 
L 630.455579 544.194632 
L 666.483471 559.321621 
L 738.539256 581.641828 
L 954.706612 624.907476 
" clip-path="url(#p41a98144cd)" style="fill: none; stroke: #ff7f0e; stroke-width: 1.5; stroke-linecap: square"/>
    <g clip-path="url(#p41a98144cd)">
     <use xlink:href="#m16d6161cef" x="608.838843" y="535.111579" style="fill: #ff7f0e; stroke: #ff7f0e"/>
     <use xlink:href="#m16d6161cef" x="630.455579" y="544.194632" style="fill: #ff7f0e; stroke: #ff7f0e"/>
     <use xlink:href="#m16d6161cef" x="666.483471" y="559.321621" style="fill: #ff7f0e; stroke: #ff7f0e"/>
     <use xlink:href="#m16d6161cef" x="738.539256" y="581.641828" style="fill: #ff7f0e; stroke: #ff7f0e"/>
     <use xlink:href="#m16d6161cef" x="954.706612" y="624.907476" style="fill: #ff7f0e; stroke: #ff7f0e"/>
    </g>
   </g>
   <g id="line2d_43">
    <path d="M 608.838843 537.163662 
L 630.455579 543.717602 
L 666.483471 557.453635 
L 738.539256 582.694657 
L 954.706612 634.111615 
" clip-path="url(#p41a98144cd)" style="fill: none; stroke: #2ca02c; stroke-width: 1.5; stroke-linecap: square"/>
    <g clip-path="url(#p41a98144cd)">
     <use xlink:href="#m977b6b004d" x="608.838843" y="537.163662" style="fill: #2ca02c; stroke: #2ca02c"/>
     <use xlink:href="#m977b6b004d" x="630.455579" y="543.717602" style="fill: #2ca02c; stroke: #2ca02c"/>
     <use xlink:href="#m977b6b004d" x="666.483471" y="557.453635" style="fill: #2ca02c; stroke: #2ca02c"/>
     <use xlink:href="#m977b6b004d" x="738.539256" y="582.694657" style="fill: #2ca02c; stroke: #2ca02c"/>
     <use xlink:href="#m977b6b004d" x="954.706612" y="634.111615" style="fill: #2ca02c; stroke: #2ca02c"/>
    </g>
   </g>
   <g id="line2d_44">
    <path d="M 608.838843 570.814503 
L 630.455579 596.344185 
L 666.483471 637.139568 
L 738.539256 694.227827 
L 954.706612 773.848421 
" clip-path="url(#p41a98144cd)" style="fill: none; stroke: #d62728; stroke-width: 1.5; stroke-linecap: square"/>
    <g clip-path="url(#p41a98144cd)">
     <use xlink:href="#mb99b51d6c4" x="608.838843" y="570.814503" style="fill: #d62728; stroke: #d62728"/>
     <use xlink:href="#mb99b51d6c4" x="630.455579" y="596.344185" style="fill: #d62728; stroke: #d62728"/>
     <use xlink:href="#mb99b51d6c4" x="666.483471" y="637.139568" style="fill: #d62728; stroke: #d62728"/>
     <use xlink:href="#mb99b51d6c4" x="738.539256" y="694.227827" style="fill: #d62728; stroke: #d62728"/>
     <use xlink:href="#mb99b51d6c4" x="954.706612" y="773.848421" style="fill: #d62728; stroke: #d62728"/>
    </g>
   </g>
   <g id="patch_30">
    <path d="M 591.545455 785.785263 
L 591.545455 523.174737 
" style="fill: none; stroke: #000000; stroke-width: 0.8; stroke-linejoin: miter; stroke-linecap: square"/>
   </g>
   <g id="patch_31">
    <path d="M 972 785.785263 
L 972 523.174737 
" style="fill: none; stroke: #000000; stroke-width: 0.8; stroke-linejoin: miter; stroke-linecap: square"/>
   </g>
   <g id="patch_32">
    <path d="M 591.545455 785.785263 
L 972 785.785263 
" style="fill: none; stroke: #000000; stroke-width: 0.8; stroke-linejoin: miter; stroke-linecap: square"/>
   </g>
   <g id="patch_33">
    <path d="M 591.545455 523.174737 
L 972 523.174737 
" style="fill: none; stroke: #000000; stroke-width: 0.8; stroke-linejoin: miter; stroke-linecap: square"/>
   </g>
   <g id="text_45">
    <!-- d -->
    <g transform="translate(544.871761 505.058783) scale(0.28 -0.28)">
     <defs>
      <path id="DejaVuSans-Bold-64" d="M 2919 2988 
L 2919 4863 
L 4044 4863 
L 4044 0 
L 2919 0 
L 2919 506 
Q 2688 197 2409 53 
Q 2131 -91 1766 -91 
Q 1119 -91 703 423 
Q 288 938 288 1747 
Q 288 2556 703 3070 
Q 1119 3584 1766 3584 
Q 2128 3584 2408 3439 
Q 2688 3294 2919 2988 
z
M 2181 722 
Q 2541 722 2730 984 
Q 2919 1247 2919 1747 
Q 2919 2247 2730 2509 
Q 2541 2772 2181 2772 
Q 1825 2772 1636 2509 
Q 1447 2247 1447 1747 
Q 1447 1247 1636 984 
Q 1825 722 2181 722 
z
" transform="scale(0.015625)"/>
     </defs>
     <use xlink:href="#DejaVuSans-Bold-64"/>
    </g>
   </g>
   <g id="text_46">
    <!-- Continuity -->
    <g transform="translate(720.057102 517.174737) scale(0.24 -0.24)">
     <defs>
      <path id="DejaVuSans-79" d="M 2059 -325 
Q 1816 -950 1584 -1140 
Q 1353 -1331 966 -1331 
L 506 -1331 
L 506 -850 
L 844 -850 
Q 1081 -850 1212 -737 
Q 1344 -625 1503 -206 
L 1606 56 
L 191 3500 
L 800 3500 
L 1894 763 
L 2988 3500 
L 3597 3500 
L 2059 -325 
z
" transform="scale(0.015625)"/>
     </defs>
     <use xlink:href="#DejaVuSans-43"/>
     <use xlink:href="#DejaVuSans-6f" x="69.824219"/>
     <use xlink:href="#DejaVuSans-6e" x="131.005859"/>
     <use xlink:href="#DejaVuSans-74" x="194.384766"/>
     <use xlink:href="#DejaVuSans-69" x="233.59375"/>
     <use xlink:href="#DejaVuSans-6e" x="261.376953"/>
     <use xlink:href="#DejaVuSans-75" x="324.755859"/>
     <use xlink:href="#DejaVuSans-69" x="388.134766"/>
     <use xlink:href="#DejaVuSans-74" x="415.917969"/>
     <use xlink:href="#DejaVuSans-79" x="455.126953"/>
    </g>
   </g>
  </g>
  <g id="axes_5">
   <g id="patch_34">
    <path d="M 135 1153.44 
L 515.454545 1153.44 
L 515.454545 890.829474 
L 135 890.829474 
z
" style="fill: #ffffff"/>
   </g>
   <g id="matplotlib.axis_9">
    <g id="xtick_16">
     <g id="line2d_45">
      <g>
       <use xlink:href="#m085d092151" x="152.141492" y="1153.44" style="stroke: #000000; stroke-width: 0.8"/>
      </g>
     </g>
     <g id="text_47">
      <!-- 0 -->
      <g transform="translate(145.142742 1177.156562) scale(0.22 -0.22)">
       <use xlink:href="#DejaVuSans-30"/>
      </g>
     </g>
    </g>
    <g id="xtick_17">
     <g id="line2d_46">
      <g>
       <use xlink:href="#m085d092151" x="304.037745" y="1153.44" style="stroke: #000000; stroke-width: 0.8"/>
      </g>
     </g>
     <g id="text_48">
      <!-- 1000 -->
      <g transform="translate(276.042745 1177.156562) scale(0.22 -0.22)">
       <use xlink:href="#DejaVuSans-31"/>
       <use xlink:href="#DejaVuSans-30" x="63.623047"/>
       <use xlink:href="#DejaVuSans-30" x="127.246094"/>
       <use xlink:href="#DejaVuSans-30" x="190.869141"/>
      </g>
     </g>
    </g>
    <g id="xtick_18">
     <g id="line2d_47">
      <g>
       <use xlink:href="#m085d092151" x="455.933999" y="1153.44" style="stroke: #000000; stroke-width: 0.8"/>
      </g>
     </g>
     <g id="text_49">
      <!-- 2000 -->
      <g transform="translate(427.938999 1177.156562) scale(0.22 -0.22)">
       <use xlink:href="#DejaVuSans-32"/>
       <use xlink:href="#DejaVuSans-30" x="63.623047"/>
       <use xlink:href="#DejaVuSans-30" x="127.246094"/>
       <use xlink:href="#DejaVuSans-30" x="190.869141"/>
      </g>
     </g>
    </g>
    <g id="text_50">
     <!-- k -->
     <g transform="translate(318.278523 1203.968125) scale(0.24 -0.24)">
      <use xlink:href="#DejaVuSans-6b"/>
     </g>
    </g>
   </g>
   <g id="matplotlib.axis_10">
    <g id="ytick_18">
     <g id="line2d_48">
      <g>
       <use xlink:href="#m573adf39f7" x="135" y="1091.50866" style="stroke: #000000; stroke-width: 0.8"/>
      </g>
     </g>
     <g id="text_51">
      <!-- 0.25 -->
      <g transform="translate(79.015625 1099.866941) scale(0.22 -0.22)">
       <use xlink:href="#DejaVuSans-30"/>
       <use xlink:href="#DejaVuSans-2e" x="63.623047"/>
       <use xlink:href="#DejaVuSans-32" x="95.410156"/>
       <use xlink:href="#DejaVuSans-35" x="159.033203"/>
      </g>
     </g>
    </g>
    <g id="ytick_19">
     <g id="line2d_49">
      <g>
       <use xlink:href="#m573adf39f7" x="135" y="1028.594545" style="stroke: #000000; stroke-width: 0.8"/>
      </g>
     </g>
     <g id="text_52">
      <!-- 0.50 -->
      <g transform="translate(79.015625 1036.952826) scale(0.22 -0.22)">
       <use xlink:href="#DejaVuSans-30"/>
       <use xlink:href="#DejaVuSans-2e" x="63.623047"/>
       <use xlink:href="#DejaVuSans-35" x="95.410156"/>
       <use xlink:href="#DejaVuSans-30" x="159.033203"/>
      </g>
     </g>
    </g>
    <g id="ytick_20">
     <g id="line2d_50">
      <g>
       <use xlink:href="#m573adf39f7" x="135" y="965.68043" style="stroke: #000000; stroke-width: 0.8"/>
      </g>
     </g>
     <g id="text_53">
      <!-- 0.75 -->
      <g transform="translate(79.015625 974.038712) scale(0.22 -0.22)">
       <use xlink:href="#DejaVuSans-30"/>
       <use xlink:href="#DejaVuSans-2e" x="63.623047"/>
       <use xlink:href="#DejaVuSans-37" x="95.410156"/>
       <use xlink:href="#DejaVuSans-35" x="159.033203"/>
      </g>
     </g>
    </g>
    <g id="ytick_21">
     <g id="line2d_51">
      <g>
       <use xlink:href="#m573adf39f7" x="135" y="902.766316" style="stroke: #000000; stroke-width: 0.8"/>
      </g>
     </g>
     <g id="text_54">
      <!-- 1.00 -->
      <g transform="translate(79.015625 911.124597) scale(0.22 -0.22)">
       <use xlink:href="#DejaVuSans-31"/>
       <use xlink:href="#DejaVuSans-2e" x="63.623047"/>
       <use xlink:href="#DejaVuSans-30" x="95.410156"/>
       <use xlink:href="#DejaVuSans-30" x="159.033203"/>
      </g>
     </g>
    </g>
    <g id="text_55">
     <!-- Metric Value -->
     <g transform="translate(70.024375 1096.210362) rotate(-90) scale(0.24 -0.24)">
      <use xlink:href="#DejaVuSans-4d"/>
      <use xlink:href="#DejaVuSans-65" x="86.279297"/>
      <use xlink:href="#DejaVuSans-74" x="147.802734"/>
      <use xlink:href="#DejaVuSans-72" x="187.011719"/>
      <use xlink:href="#DejaVuSans-69" x="228.125"/>
      <use xlink:href="#DejaVuSans-63" x="255.908203"/>
      <use xlink:href="#DejaVuSans-20" x="310.888672"/>
      <use xlink:href="#DejaVuSans-56" x="342.675781"/>
      <use xlink:href="#DejaVuSans-61" x="403.333984"/>
      <use xlink:href="#DejaVuSans-6c" x="464.613281"/>
      <use xlink:href="#DejaVuSans-75" x="492.396484"/>
      <use xlink:href="#DejaVuSans-65" x="555.775391"/>
     </g>
    </g>
   </g>
   <g id="line2d_52">
    <path d="M 152.293388 1141.503158 
L 152.900973 1130.416581 
L 153.356662 1126.595908 
L 154.26804 1122.19472 
L 154.571832 1121.550909 
L 155.331313 1120.328028 
L 155.635106 1119.72081 
L 155.938899 1119.316753 
L 156.242691 1118.763979 
L 156.69838 1118.170552 
L 157.305965 1117.502161 
L 157.91355 1117.026791 
L 159.12872 1116.211245 
L 159.432512 1115.999798 
L 160.191994 1115.453494 
L 161.407164 1114.805876 
L 161.862852 1114.65458 
L 163.533711 1114.022287 
L 163.837504 1113.994657 
L 165.812155 1113.121718 
L 167.331117 1112.662599 
L 167.938703 1112.396859 
L 173.406968 1110.413261 
L 174.014553 1110.163426 
L 175.229723 1109.629104 
L 175.685411 1109.451681 
L 181.00178 1107.11594 
L 190.875037 1101.872608 
L 201.811567 1094.979504 
L 203.178633 1094.193016 
L 204.697596 1093.223903 
L 207.127936 1091.757114 
L 211.83672 1088.642621 
L 222.013769 1081.653071 
L 237.659083 1069.851469 
L 245.86148 1063.153968 
L 251.633538 1058.347089 
L 259.835936 1051.690697 
L 262.721965 1049.423437 
L 266.519371 1046.384332 
L 270.164881 1043.565676 
L 272.443325 1041.804164 
L 277.000212 1038.467021 
L 279.12676 1036.9346 
L 302.21499 1020.405505 
L 305.252915 1018.400037 
L 310.113596 1015.287383 
L 361.302633 983.703391 
L 378.315013 974.245026 
L 405.504443 959.777443 
L 414.92201 954.726267 
L 423.883889 949.768393 
L 431.478702 945.465245 
L 442.11144 939.325765 
L 448.946771 935.359614 
L 455.933999 931.411314 
L 459.731405 929.029904 
L 469.300869 922.866617 
L 472.338794 920.884873 
L 482.819635 913.804259 
L 487.832212 909.984852 
L 491.477722 907.33374 
L 496.642194 903.779023 
L 497.097883 903.541861 
L 498.161157 902.766316 
L 498.161157 902.766316 
" clip-path="url(#p4f119ce1c3)" style="fill: none; stroke: #1f77b4; stroke-width: 1.5; stroke-linecap: square"/>
   </g>
   <g id="line2d_53">
    <path d="M 152.293388 1043.11531 
L 152.597181 1020.478376 
L 152.900973 1014.272543 
L 153.05287 1014.828344 
L 153.204766 1014.341952 
L 153.356662 1014.6259 
L 153.508558 1015.37433 
L 153.964247 1019.935457 
L 154.116143 1020.903084 
L 154.723728 1028.851119 
L 155.787002 1041.859237 
L 156.69838 1051.658453 
L 157.457861 1057.946841 
L 158.369239 1064.270946 
L 159.736305 1070.96647 
L 160.647682 1074.461944 
L 162.318541 1079.654141 
L 164.293192 1084.154416 
L 168.242495 1089.96741 
L 171.28042 1093.536168 
L 172.49559 1094.838275 
L 173.103175 1095.395507 
L 173.558864 1095.696747 
L 174.166449 1096.19045 
L 175.229723 1096.864954 
L 175.989204 1097.193565 
L 179.179025 1097.934658 
L 181.761262 1098.068557 
L 183.735913 1097.796461 
L 187.381423 1097.419679 
L 188.140904 1097.317222 
L 189.204178 1097.184638 
L 192.090207 1096.167569 
L 194.824339 1095.52116 
L 196.950887 1094.87126 
L 198.166057 1094.382328 
L 199.229331 1093.945648 
L 201.811567 1092.876044 
L 204.697596 1091.563712 
L 207.735521 1089.953521 
L 213.05189 1087.173689 
L 214.26706 1086.466343 
L 216.393607 1085.248489 
L 218.672051 1083.80532 
L 222.77325 1081.113777 
L 224.444109 1079.971664 
L 235.684431 1073.490563 
L 238.266668 1072.073293 
L 239.633734 1071.254661 
L 242.064074 1069.846329 
L 244.494414 1068.233517 
L 245.86148 1067.425608 
L 256.949907 1060.459571 
L 261.051106 1057.718239 
L 264.696616 1055.347198 
L 266.367475 1054.333192 
L 270.316777 1052.104795 
L 273.354702 1050.272949 
L 279.582449 1046.613477 
L 281.708996 1045.398357 
L 289.151913 1041.032188 
L 293.101215 1038.715244 
L 303.278264 1032.739665 
L 305.252915 1031.592865 
L 333.04993 1015.023835 
L 339.581469 1011.245348 
L 346.720593 1007.068963 
L 348.999036 1005.727134 
L 350.973688 1004.562125 
L 363.581077 997.108057 
L 365.707624 995.866452 
L 369.960719 993.276938 
L 405.808235 970.800305 
L 409.301849 968.555777 
L 413.403048 965.882789 
L 431.174909 953.75711 
L 435.276108 950.780349 
L 444.997468 943.463142 
L 452.136592 937.977617 
L 458.060546 933.454064 
L 462.76933 929.823777 
L 467.63001 926.004176 
L 482.060154 914.887239 
L 498.161157 902.766316 
L 498.161157 902.766316 
" clip-path="url(#p4f119ce1c3)" style="fill: none; stroke: #ff7f0e; stroke-width: 1.5; stroke-linecap: square"/>
   </g>
   <g id="line2d_54">
    <path d="M 152.293388 1106.719575 
L 152.597181 1066.488405 
L 153.05287 1041.808626 
L 153.356662 1035.730701 
L 153.660455 1034.148876 
L 153.964247 1033.545224 
L 154.419936 1035.444518 
L 155.48321 1044.209513 
L 156.090795 1050.602912 
L 157.154069 1059.524997 
L 158.521135 1068.610125 
L 159.280616 1072.499861 
L 160.647682 1078.311011 
L 162.77423 1084.625296 
L 164.141296 1087.529549 
L 164.748881 1088.414457 
L 165.356466 1089.407112 
L 165.660259 1089.778786 
L 169.001976 1094.19291 
L 173.255071 1098.550577 
L 174.470241 1099.258814 
L 176.444893 1100.129329 
L 178.419544 1100.586891 
L 179.179025 1100.625159 
L 181.457469 1100.911155 
L 184.039705 1100.819249 
L 186.166253 1100.397797 
L 190.875037 1099.00548 
L 193.761066 1097.84817 
L 195.887613 1096.950496 
L 196.798991 1096.587228 
L 197.862264 1096.230389 
L 203.026737 1094.328676 
L 206.064662 1093.120307 
L 206.672247 1092.86766 
L 207.735521 1092.357205 
L 209.862068 1091.288974 
L 213.507578 1089.076323 
L 215.634126 1087.922915 
L 217.153089 1087.048095 
L 221.861872 1084.560423 
L 223.380835 1083.686856 
L 226.722553 1081.821309 
L 229.456685 1080.398729 
L 237.203394 1076.219067 
L 241.760282 1073.639893 
L 244.038725 1072.416383 
L 251.481642 1068.295207 
L 253.000604 1067.44303 
L 256.038529 1065.766936 
L 258.468869 1064.400812 
L 260.899209 1063.163911 
L 265.304201 1060.815622 
L 290.06329 1048.626907 
L 306.619982 1039.720829 
L 309.050322 1038.346337 
L 312.240143 1036.484837 
L 323.176673 1029.880211 
L 338.670091 1019.760979 
L 341.55612 1017.838116 
L 348.087659 1013.485194 
L 353.555924 1009.634665 
L 356.290057 1007.696543 
L 360.99884 1004.30137 
L 368.745549 998.758518 
L 375.884673 993.949311 
L 379.074494 991.78556 
L 394.719809 981.110155 
L 398.213422 978.683615 
L 401.403244 976.507793 
L 403.833584 974.746017 
L 420.086483 963.44065 
L 421.605445 962.525284 
L 431.174909 955.577875 
L 438.010241 950.361731 
L 442.415232 946.799518 
L 445.75695 944.111819 
L 450.010045 940.737387 
L 465.351566 928.375007 
L 471.731209 923.1986 
L 492.996684 906.579292 
L 498.161157 902.766316 
L 498.161157 902.766316 
" clip-path="url(#p4f119ce1c3)" style="fill: none; stroke: #2ca02c; stroke-width: 1.5; stroke-linecap: square"/>
   </g>
   <g id="line2d_55">
    <path d="M 152.293388 1099.762859 
L 152.597181 1071.531105 
L 153.05287 1053.366345 
L 153.508558 1045.679603 
L 153.812351 1043.818009 
L 154.116143 1041.076712 
L 154.26804 1040.701756 
L 154.419936 1040.980445 
L 155.331313 1045.313275 
L 156.090795 1051.787847 
L 156.546484 1054.492797 
L 157.457861 1058.713499 
L 158.065446 1061.96385 
L 159.432512 1069.235204 
L 159.736305 1070.275215 
L 160.34389 1072.338836 
L 162.470437 1078.941426 
L 165.052674 1085.105038 
L 167.179221 1089.287072 
L 168.242495 1090.798716 
L 169.305769 1092.000926 
L 170.520939 1093.581849 
L 170.976628 1094.023479 
L 171.888005 1095.088523 
L 172.647486 1095.970815 
L 174.014553 1097.348866 
L 175.229723 1098.445035 
L 175.989204 1098.944877 
L 178.57144 1100.400019 
L 179.179025 1100.686575 
L 180.090403 1101.14256 
L 181.761262 1101.796361 
L 182.672639 1101.969143 
L 183.280224 1102.180338 
L 185.710564 1102.467999 
L 186.166253 1102.471699 
L 187.989008 1102.411165 
L 189.356074 1102.524362 
L 191.634518 1102.369292 
L 192.090207 1102.307231 
L 192.545896 1102.300122 
L 195.431924 1101.873702 
L 199.381227 1101.058478 
L 200.140708 1100.819575 
L 201.659671 1100.49789 
L 202.571048 1100.127391 
L 204.241907 1099.510783 
L 212.444305 1096.492971 
L 214.874645 1095.426107 
L 216.241711 1094.876463 
L 220.34291 1092.768269 
L 222.317561 1091.843159 
L 224.899797 1090.443897 
L 226.114967 1089.816076 
L 229.152893 1088.069886 
L 230.368063 1087.128844 
L 232.038921 1086.011283 
L 233.557884 1085.066981 
L 235.228743 1084.076585 
L 235.988224 1083.585332 
L 236.747705 1083.108847 
L 241.0008 1080.346721 
L 241.912178 1079.709399 
L 243.43114 1078.771813 
L 244.494414 1078.105575 
L 248.747509 1075.318859 
L 252.089227 1072.772564 
L 254.215774 1071.100911 
L 256.798011 1069.393515 
L 258.468869 1068.276382 
L 261.203002 1066.313285 
L 263.937135 1064.301279 
L 266.671267 1062.192021 
L 267.886437 1061.258188 
L 269.709192 1059.961259 
L 278.671071 1053.333978 
L 283.98744 1049.772304 
L 294.316385 1043.031195 
L 296.746725 1041.335882 
L 299.025169 1039.685427 
L 300.240339 1038.851809 
L 302.366887 1037.425735 
L 305.404812 1035.377308 
L 309.506011 1032.605092 
L 311.176869 1031.496525 
L 313.607209 1029.861617 
L 322.720985 1023.788148 
L 325.910806 1021.613118 
L 328.18925 1020.053162 
L 330.61959 1018.414432 
L 332.442345 1017.242495 
L 335.176477 1015.380174 
L 344.897838 1008.826678 
L 346.264904 1007.918718 
L 349.910414 1005.354773 
L 352.948339 1003.243116 
L 356.745745 1000.636064 
L 358.5685 999.365846 
L 362.062114 996.92433 
L 374.821399 988.391069 
L 380.441561 984.746968 
L 383.935175 982.471293 
L 391.226195 977.509241 
L 395.631186 974.506761 
L 400.036177 971.506856 
L 407.63099 966.41588 
L 410.517019 964.499539 
L 415.073907 961.528252 
L 417.35235 960.047506 
L 423.276304 956.098297 
L 433.909042 948.775711 
L 449.858148 937.664886 
L 456.237791 933.228743 
L 464.440189 927.367628 
L 468.541388 924.417545 
L 474.161549 920.326816 
L 480.085503 915.96969 
L 486.161353 911.476962 
L 498.161157 902.766316 
L 498.161157 902.766316 
" clip-path="url(#p4f119ce1c3)" style="fill: none; stroke: #d62728; stroke-width: 1.5; stroke-linecap: square"/>
   </g>
   <g id="patch_35">
    <path d="M 135 1153.44 
L 135 890.829474 
" style="fill: none; stroke: #000000; stroke-width: 0.8; stroke-linejoin: miter; stroke-linecap: square"/>
   </g>
   <g id="patch_36">
    <path d="M 515.454545 1153.44 
L 515.454545 890.829474 
" style="fill: none; stroke: #000000; stroke-width: 0.8; stroke-linejoin: miter; stroke-linecap: square"/>
   </g>
   <g id="patch_37">
    <path d="M 135 1153.44 
L 515.454545 1153.44 
" style="fill: none; stroke: #000000; stroke-width: 0.8; stroke-linejoin: miter; stroke-linecap: square"/>
   </g>
   <g id="patch_38">
    <path d="M 135 890.829474 
L 515.454545 890.829474 
" style="fill: none; stroke: #000000; stroke-width: 0.8; stroke-linejoin: miter; stroke-linecap: square"/>
   </g>
   <g id="text_56">
    <!-- e -->
    <g transform="translate(89.376307 872.71352) scale(0.28 -0.28)">
     <defs>
      <path id="DejaVuSans-Bold-65" d="M 4031 1759 
L 4031 1441 
L 1416 1441 
Q 1456 1047 1700 850 
Q 1944 653 2381 653 
Q 2734 653 3104 758 
Q 3475 863 3866 1075 
L 3866 213 
Q 3469 63 3072 -14 
Q 2675 -91 2278 -91 
Q 1328 -91 801 392 
Q 275 875 275 1747 
Q 275 2603 792 3093 
Q 1309 3584 2216 3584 
Q 3041 3584 3536 3087 
Q 4031 2591 4031 1759 
z
M 2881 2131 
Q 2881 2450 2695 2645 
Q 2509 2841 2209 2841 
Q 1884 2841 1681 2658 
Q 1478 2475 1428 2131 
L 2881 2131 
z
" transform="scale(0.015625)"/>
     </defs>
     <use xlink:href="#DejaVuSans-Bold-65"/>
    </g>
   </g>
   <g id="text_57">
    <!-- $Q_{NN}$ -->
    <g transform="translate(302.787273 884.829474) scale(0.24 -0.24)">
     <use xlink:href="#DejaVuSans-Oblique-51" transform="translate(0 0.78125)"/>
     <use xlink:href="#DejaVuSans-Oblique-4e" transform="translate(78.710938 -15.625) scale(0.7)"/>
     <use xlink:href="#DejaVuSans-Oblique-4e" transform="translate(131.074219 -15.625) scale(0.7)"/>
    </g>
   </g>
  </g>
  <g id="axes_6">
   <g id="patch_39">
    <path d="M 591.545455 1153.44 
L 972 1153.44 
L 972 890.829474 
L 591.545455 890.829474 
z
" style="fill: #ffffff"/>
   </g>
   <g id="matplotlib.axis_11">
    <g id="xtick_19">
     <g id="line2d_56">
      <g>
       <use xlink:href="#m085d092151" x="608.686947" y="1153.44" style="stroke: #000000; stroke-width: 0.8"/>
      </g>
     </g>
     <g id="text_58">
      <!-- 0 -->
      <g transform="translate(601.688197 1177.156562) scale(0.22 -0.22)">
       <use xlink:href="#DejaVuSans-30"/>
      </g>
     </g>
    </g>
    <g id="xtick_20">
     <g id="line2d_57">
      <g>
       <use xlink:href="#m085d092151" x="760.5832" y="1153.44" style="stroke: #000000; stroke-width: 0.8"/>
      </g>
     </g>
     <g id="text_59">
      <!-- 1000 -->
      <g transform="translate(732.5882 1177.156562) scale(0.22 -0.22)">
       <use xlink:href="#DejaVuSans-31"/>
       <use xlink:href="#DejaVuSans-30" x="63.623047"/>
       <use xlink:href="#DejaVuSans-30" x="127.246094"/>
       <use xlink:href="#DejaVuSans-30" x="190.869141"/>
      </g>
     </g>
    </g>
    <g id="xtick_21">
     <g id="line2d_58">
      <g>
       <use xlink:href="#m085d092151" x="912.479453" y="1153.44" style="stroke: #000000; stroke-width: 0.8"/>
      </g>
     </g>
     <g id="text_60">
      <!-- 2000 -->
      <g transform="translate(884.484453 1177.156562) scale(0.22 -0.22)">
       <use xlink:href="#DejaVuSans-32"/>
       <use xlink:href="#DejaVuSans-30" x="63.623047"/>
       <use xlink:href="#DejaVuSans-30" x="127.246094"/>
       <use xlink:href="#DejaVuSans-30" x="190.869141"/>
      </g>
     </g>
    </g>
    <g id="text_61">
     <!-- k -->
     <g transform="translate(774.823977 1203.968125) scale(0.24 -0.24)">
      <use xlink:href="#DejaVuSans-6b"/>
     </g>
    </g>
   </g>
   <g id="matplotlib.axis_12">
    <g id="ytick_22">
     <g id="line2d_59">
      <g>
       <use xlink:href="#m573adf39f7" x="591.545455" y="1134.470462" style="stroke: #000000; stroke-width: 0.8"/>
      </g>
     </g>
     <g id="text_62">
      <!-- 0.0 -->
      <g transform="translate(549.55858 1142.828744) scale(0.22 -0.22)">
       <use xlink:href="#DejaVuSans-30"/>
       <use xlink:href="#DejaVuSans-2e" x="63.623047"/>
       <use xlink:href="#DejaVuSans-30" x="95.410156"/>
      </g>
     </g>
    </g>
    <g id="ytick_23">
     <g id="line2d_60">
      <g>
       <use xlink:href="#m573adf39f7" x="591.545455" y="1050.930727" style="stroke: #000000; stroke-width: 0.8"/>
      </g>
     </g>
     <g id="text_63">
      <!-- 0.2 -->
      <g transform="translate(549.55858 1059.289008) scale(0.22 -0.22)">
       <use xlink:href="#DejaVuSans-30"/>
       <use xlink:href="#DejaVuSans-2e" x="63.623047"/>
       <use xlink:href="#DejaVuSans-32" x="95.410156"/>
      </g>
     </g>
    </g>
    <g id="ytick_24">
     <g id="line2d_61">
      <g>
       <use xlink:href="#m573adf39f7" x="591.545455" y="967.390992" style="stroke: #000000; stroke-width: 0.8"/>
      </g>
     </g>
     <g id="text_64">
      <!-- 0.4 -->
      <g transform="translate(549.55858 975.749273) scale(0.22 -0.22)">
       <use xlink:href="#DejaVuSans-30"/>
       <use xlink:href="#DejaVuSans-2e" x="63.623047"/>
       <use xlink:href="#DejaVuSans-34" x="95.410156"/>
      </g>
     </g>
    </g>
   </g>
   <g id="line2d_62">
    <path d="M 608.838843 1113.209882 
L 609.446428 1095.541861 
L 609.902117 1089.750405 
L 610.813494 1083.545498 
L 611.117287 1082.843625 
L 611.421079 1082.511588 
L 611.724872 1081.925248 
L 611.876768 1081.730701 
L 612.180561 1081.089566 
L 612.332457 1081.022908 
L 612.484353 1080.785639 
L 612.636249 1080.334001 
L 612.788146 1080.234869 
L 613.091938 1079.911771 
L 613.851419 1079.424042 
L 614.003316 1079.457391 
L 614.307108 1079.370086 
L 614.914693 1079.471412 
L 615.218486 1079.468142 
L 615.370382 1079.343742 
L 616.129863 1079.452532 
L 616.433656 1079.500879 
L 616.585552 1079.437308 
L 617.800722 1079.903205 
L 617.952618 1079.89953 
L 618.408307 1080.198496 
L 618.863996 1080.49533 
L 619.319684 1080.774597 
L 620.079166 1081.166 
L 620.382958 1081.486864 
L 622.053817 1082.215222 
L 622.965195 1082.831621 
L 623.420883 1083.127308 
L 623.876572 1083.493244 
L 624.180365 1083.625224 
L 625.395535 1084.323481 
L 625.851223 1084.630214 
L 626.306912 1084.802592 
L 627.370186 1085.442856 
L 628.281563 1086.101613 
L 629.344837 1086.596402 
L 630.256215 1087.302374 
L 631.775177 1087.993083 
L 632.07897 1088.225681 
L 632.382762 1088.326607 
L 633.901725 1089.060906 
L 634.357414 1089.224359 
L 634.964999 1089.61642 
L 635.420687 1089.839942 
L 636.180169 1090.186581 
L 636.787754 1090.46607 
L 637.547235 1090.789496 
L 640.737056 1091.988701 
L 641.192745 1092.194175 
L 641.648434 1092.331473 
L 642.407915 1092.662151 
L 648.028076 1094.11133 
L 663.065805 1096.687461 
L 664.584768 1096.934323 
L 672.483373 1097.732737 
L 682.052837 1098.08752 
L 688.128687 1097.857281 
L 689.343857 1097.757811 
L 691.166612 1097.642154 
L 692.07799 1097.528815 
L 696.634877 1097.013968 
L 697.850047 1096.823824 
L 699.217114 1096.635408 
L 705.141068 1095.598611 
L 710.001748 1094.82732 
L 711.216918 1094.66334 
L 717.59656 1093.83402 
L 729.596364 1092.758974 
L 731.722912 1092.741328 
L 745.697367 1092.785521 
L 747.21633 1092.838442 
L 748.583396 1092.848904 
L 755.266831 1092.964651 
L 756.93769 1093.096371 
L 758.760445 1093.190652 
L 760.431304 1093.385874 
L 767.418531 1094.362385 
L 774.101966 1095.617902 
L 776.836099 1096.171396 
L 802.050877 1100.421324 
L 803.56984 1100.705028 
L 806.607765 1101.242107 
L 811.164652 1102.121614 
L 814.354474 1102.819035 
L 819.36705 1103.966636 
L 829.847891 1106.831907 
L 839.873044 1110.11339 
L 842.45528 1111.026945 
L 852.328537 1114.356045 
L 855.670254 1115.346465 
L 865.847303 1118.48093 
L 869.189021 1119.53458 
L 872.986427 1120.685273 
L 879.36607 1122.527437 
L 885.897609 1124.299198 
L 899.264479 1127.63036 
L 903.973263 1128.738763 
L 910.656698 1130.598401 
L 913.998416 1131.383903 
L 917.643926 1131.826408 
L 922.504606 1132.494617 
L 925.694427 1132.976723 
L 937.998024 1134.278077 
L 941.643534 1134.181932 
L 947.567488 1133.952408 
L 951.212998 1134.165852 
L 952.276272 1134.246029 
L 952.73196 1134.315104 
L 953.339545 1134.422403 
L 953.795234 1134.473368 
L 954.706612 1134.470462 
L 954.706612 1134.470462 
" clip-path="url(#pfe8132e699)" style="fill: none; stroke: #1f77b4; stroke-width: 1.5; stroke-linecap: square"/>
   </g>
   <g id="line2d_63">
    <path d="M 608.838843 949.906011 
L 609.142635 912.700015 
L 609.446428 902.766316 
L 609.598324 903.872195 
L 609.75022 903.248245 
L 609.902117 903.902903 
L 610.054013 905.328507 
L 610.509702 913.449139 
L 610.813494 918.277897 
L 611.876768 942.174884 
L 612.940042 964.439793 
L 614.610901 988.694267 
L 615.370382 997.116969 
L 617.952618 1017.30437 
L 618.863996 1022.654952 
L 620.838647 1032.508203 
L 624.939846 1047.415191 
L 626.762601 1053.196975 
L 629.041045 1060.14279 
L 629.800526 1062.114438 
L 632.230866 1067.696315 
L 632.838451 1068.75088 
L 635.116895 1072.431014 
L 637.243442 1075.508897 
L 638.458612 1076.824544 
L 640.129471 1078.45697 
L 643.774981 1082.245076 
L 646.053425 1084.408941 
L 648.635661 1086.002848 
L 650.914105 1087.876022 
L 652.129275 1088.894174 
L 653.040653 1089.473226 
L 654.407719 1090.147849 
L 655.1672 1090.644669 
L 656.078578 1091.05666 
L 656.534266 1091.316998 
L 657.901333 1092.002361 
L 660.939258 1093.475038 
L 662.45822 1093.959548 
L 663.521494 1094.324799 
L 666.559419 1095.282711 
L 667.167004 1095.552917 
L 670.508722 1096.583289 
L 673.546647 1097.256596 
L 674.458024 1097.376181 
L 675.369402 1097.598137 
L 675.976987 1097.735604 
L 676.736468 1097.882106 
L 677.344053 1097.991222 
L 681.597148 1098.294173 
L 689.495753 1100.116622 
L 691.014716 1100.618817 
L 693.748849 1101.484254 
L 694.660226 1101.741631 
L 695.7235 1101.90716 
L 696.331085 1102.093203 
L 697.850047 1102.487443 
L 699.217114 1102.705533 
L 699.976595 1102.780611 
L 701.79935 1103.082361 
L 703.622105 1103.418894 
L 704.685379 1103.515697 
L 705.900549 1103.835181 
L 707.115719 1104.044685 
L 707.8752 1104.138679 
L 711.976399 1104.911994 
L 712.73588 1104.954367 
L 714.862428 1105.15498 
L 715.773805 1105.222673 
L 718.963627 1105.6282 
L 720.634485 1105.81026 
L 722.912929 1106.230295 
L 725.798958 1107.033842 
L 738.862036 1110.123188 
L 740.532895 1110.553219 
L 741.596168 1110.74149 
L 746.456848 1111.768632 
L 747.520122 1112.031851 
L 750.558047 1112.815559 
L 764.684399 1116.130172 
L 766.203361 1116.459747 
L 777.443684 1118.716306 
L 779.570232 1118.965427 
L 785.038497 1120.202397 
L 788.532111 1121.188027 
L 789.747281 1121.523086 
L 791.873828 1122.033376 
L 800.531915 1124.112261 
L 802.050877 1124.480737 
L 804.481217 1125.064717 
L 809.038105 1126.058787 
L 810.405171 1126.303555 
L 813.443096 1127.054993 
L 815.873436 1127.811822 
L 818.759465 1128.356258 
L 821.189805 1128.811815 
L 825.291004 1129.720907 
L 827.113759 1130.045799 
L 829.544099 1130.460587 
L 831.670646 1130.835671 
L 836.227534 1131.596695 
L 850.505782 1134.168207 
L 853.088018 1134.630788 
L 860.075246 1135.654138 
L 861.594208 1135.817384 
L 866.454888 1136.494572 
L 869.64471 1136.886052 
L 881.036929 1138.012433 
L 885.44192 1138.166401 
L 892.429148 1138.229971 
L 894.403799 1138.21416 
L 898.201205 1138.09174 
L 903.517574 1137.712011 
L 919.770473 1136.595224 
L 926.150116 1135.981747 
L 932.377862 1135.543445 
L 942.099223 1134.954762 
L 946.200421 1134.69708 
L 954.706612 1134.470462 
L 954.706612 1134.470462 
" clip-path="url(#pfe8132e699)" style="fill: none; stroke: #ff7f0e; stroke-width: 1.5; stroke-linecap: square"/>
   </g>
   <g id="line2d_64">
    <path d="M 608.838843 1055.47619 
L 609.142635 989.067332 
L 609.598324 948.65399 
L 609.902117 938.932591 
L 610.205909 936.673807 
L 610.357806 936.077389 
L 610.509702 936.038592 
L 610.965391 939.741121 
L 612.028664 955.572767 
L 612.636249 966.917961 
L 613.699523 983.010347 
L 615.066589 999.740075 
L 615.977967 1008.456796 
L 616.585552 1013.544063 
L 617.496929 1020.508759 
L 618.256411 1025.708107 
L 620.231062 1036.044733 
L 621.446232 1040.787615 
L 622.205713 1043.493773 
L 625.699327 1055.303476 
L 626.914497 1058.994079 
L 628.281563 1063.042236 
L 629.952422 1067.576102 
L 631.471385 1070.795854 
L 632.686555 1073.180133 
L 633.142243 1073.943581 
L 633.901725 1075.260688 
L 636.332065 1078.695004 
L 637.091546 1079.719605 
L 638.002924 1081.040898 
L 640.58516 1084.005507 
L 642.559811 1085.746194 
L 643.926877 1086.806693 
L 644.382566 1087.070141 
L 646.964803 1088.993999 
L 648.331869 1089.744779 
L 648.635661 1089.868486 
L 648.939454 1090.111364 
L 649.395143 1090.330743 
L 653.800134 1092.676541 
L 655.1672 1093.599336 
L 656.078578 1094.054959 
L 657.141852 1094.783783 
L 659.116503 1095.958914 
L 660.483569 1096.663962 
L 661.091154 1096.988188 
L 661.546843 1097.200664 
L 662.610117 1097.814317 
L 663.065805 1098.082551 
L 663.977183 1098.438095 
L 665.040457 1098.921458 
L 666.255627 1099.277528 
L 666.863212 1099.480622 
L 668.837863 1099.828322 
L 669.445448 1099.931161 
L 670.356826 1100.176659 
L 671.268203 1100.432369 
L 672.179581 1100.739508 
L 672.787166 1100.90352 
L 675.217506 1101.501213 
L 676.584572 1102.004497 
L 677.495949 1102.291028 
L 678.711119 1102.783543 
L 679.622497 1103.003623 
L 681.597148 1103.383291 
L 682.660422 1103.754849 
L 684.179385 1104.336847 
L 686.00214 1104.936829 
L 689.191961 1105.89732 
L 692.07799 1106.827767 
L 692.989367 1107.18701 
L 695.875396 1107.975623 
L 696.93867 1108.219932 
L 708.027096 1111.43493 
L 708.786578 1111.63971 
L 712.128295 1112.62082 
L 713.343465 1112.905058 
L 714.406739 1113.212606 
L 716.685183 1114.038026 
L 720.0269 1115.14985 
L 720.482589 1115.295823 
L 722.305344 1115.87268 
L 735.520318 1121.068535 
L 736.279799 1121.399159 
L 737.494969 1121.829584 
L 746.456848 1125.312877 
L 758.760445 1129.302314 
L 759.823719 1129.634888 
L 760.735096 1129.877046 
L 762.861644 1130.489957 
L 766.355258 1131.450904 
L 768.329909 1131.920896 
L 771.367834 1132.487484 
L 780.937298 1134.455191 
L 784.279015 1134.943035 
L 785.797978 1135.130468 
L 787.924526 1135.415176 
L 789.747281 1135.615009 
L 791.721932 1135.854795 
L 795.975027 1136.194822 
L 797.190197 1136.322044 
L 800.380018 1136.68453 
L 801.898981 1136.813248 
L 804.633113 1137.079669 
L 807.822935 1137.180889 
L 809.190001 1137.257714 
L 818.911361 1137.406523 
L 819.974635 1137.423836 
L 825.898589 1137.596717 
L 828.784618 1137.812117 
L 832.885816 1138.272854 
L 834.860468 1138.431052 
L 836.37943 1138.549656 
L 837.5946 1138.72254 
L 842.607177 1139.224725 
L 843.822347 1139.225593 
L 846.556479 1139.348554 
L 848.075442 1139.504348 
L 850.809574 1139.621707 
L 856.581632 1140.00105 
L 857.948698 1140.064752 
L 859.315765 1140.049789 
L 868.581436 1140.359909 
L 871.011776 1140.395782 
L 873.594012 1140.503744 
L 874.961079 1140.694925 
L 878.758485 1141.293809 
L 883.467269 1141.498642 
L 893.94811 1140.963415 
L 898.353102 1140.316675 
L 902.302404 1139.835715 
L 904.580848 1139.57062 
L 913.694623 1138.450265 
L 920.681851 1137.552165 
L 922.048917 1137.342581 
L 925.99822 1136.765972 
L 929.947522 1136.286091 
L 935.415787 1135.717312 
L 945.744733 1134.746874 
L 952.124375 1134.4939 
L 954.706612 1134.470462 
L 954.706612 1134.470462 
" clip-path="url(#pfe8132e699)" style="fill: none; stroke: #2ca02c; stroke-width: 1.5; stroke-linecap: square"/>
   </g>
   <g id="line2d_65">
    <path d="M 608.838843 1043.929452 
L 609.142635 997.43719 
L 609.598324 967.83746 
L 610.054013 955.629113 
L 610.357806 952.905969 
L 610.661598 948.722696 
L 610.813494 948.283706 
L 610.965391 948.929636 
L 611.876768 957.221428 
L 612.788146 971.026212 
L 616.129863 1002.784733 
L 617.041241 1009.130294 
L 618.560203 1019.177492 
L 621.901921 1036.415507 
L 623.876572 1045.099422 
L 625.699327 1051.142003 
L 626.458808 1053.684038 
L 627.066393 1055.673671 
L 627.673978 1057.402559 
L 629.496733 1063.108702 
L 633.142243 1072.537664 
L 637.699131 1081.819729 
L 638.914301 1083.785636 
L 640.129471 1085.833389 
L 641.344641 1087.617977 
L 641.80033 1088.184186 
L 643.926877 1090.687996 
L 644.382566 1091.176427 
L 645.597736 1092.905464 
L 646.964803 1094.357894 
L 649.395143 1097.04856 
L 650.002728 1097.66623 
L 653.95203 1101.30141 
L 654.711511 1102.005614 
L 655.622889 1102.649411 
L 656.38237 1103.213533 
L 656.686163 1103.442423 
L 657.59754 1104.184332 
L 658.81271 1105.050887 
L 659.572192 1105.536193 
L 660.179777 1105.958257 
L 661.546843 1106.572777 
L 662.762013 1107.340485 
L 663.977183 1108.264806 
L 664.584768 1108.593621 
L 664.88856 1108.705086 
L 668.078382 1110.750318 
L 668.837863 1111.039507 
L 674.306128 1113.583545 
L 674.913713 1113.736714 
L 675.673194 1114.036594 
L 677.040261 1114.545677 
L 677.647846 1114.839748 
L 679.774393 1115.637948 
L 680.837667 1115.92663 
L 682.964215 1116.649037 
L 683.875592 1116.991534 
L 685.242658 1117.251999 
L 685.850243 1117.263025 
L 687.065413 1117.203237 
L 688.128687 1117.306503 
L 688.888168 1117.449014 
L 690.86282 1117.775403 
L 691.926093 1118.065033 
L 692.989367 1118.185225 
L 696.482981 1118.765534 
L 698.15384 1118.79858 
L 705.141068 1119.79524 
L 707.267615 1119.651739 
L 708.330889 1119.593059 
L 709.242266 1119.525646 
L 711.065021 1119.385742 
L 713.039673 1119.644181 
L 715.014324 1119.838336 
L 716.077598 1119.873894 
L 716.837079 1119.913103 
L 719.875004 1119.834783 
L 720.786382 1119.823357 
L 721.393967 1119.751295 
L 721.849655 1119.773408 
L 722.45724 1119.738263 
L 724.279995 1119.560164 
L 730.203949 1119.378818 
L 731.722912 1119.272804 
L 733.545667 1119.329357 
L 734.457044 1119.377837 
L 736.583592 1119.536111 
L 737.950658 1119.711647 
L 739.013932 1119.808827 
L 739.92531 1119.903969 
L 741.596168 1120.060991 
L 750.86184 1121.209883 
L 751.925114 1121.277371 
L 752.532699 1121.286902 
L 755.570624 1121.34081 
L 756.330105 1121.365594 
L 757.393379 1121.508532 
L 759.36803 1121.623014 
L 760.279407 1121.68634 
L 761.79837 1121.863679 
L 763.469229 1122.060884 
L 765.899569 1122.210829 
L 767.266635 1122.374663 
L 768.329909 1122.479192 
L 768.937494 1122.51835 
L 771.823523 1122.80501 
L 773.342485 1122.941617 
L 775.924722 1123.249358 
L 776.987995 1123.388863 
L 779.722128 1123.591835 
L 781.848675 1123.735871 
L 787.165044 1124.174573 
L 788.228318 1124.331877 
L 793.088998 1124.700675 
L 794.304168 1124.756618 
L 795.367442 1124.857957 
L 797.949678 1125.153188 
L 799.316745 1125.244961 
L 802.810358 1125.640103 
L 805.240698 1125.706098 
L 809.493793 1125.947482 
L 811.468445 1126.076492 
L 816.632917 1126.35543 
L 818.303776 1126.440339 
L 832.278231 1127.819555 
L 837.5946 1128.498907 
L 839.265459 1128.774192 
L 841.695799 1128.957199 
L 844.278035 1129.281504 
L 846.100791 1129.433142 
L 847.315961 1129.438377 
L 850.961471 1129.610775 
L 852.328537 1129.794888 
L 855.366462 1130.037369 
L 861.13852 1130.561622 
L 869.340917 1131.389565 
L 873.442116 1131.945178 
L 876.328145 1132.264206 
L 883.619165 1132.943469 
L 886.201401 1133.065032 
L 888.176053 1133.189904 
L 889.543119 1133.239313 
L 896.530347 1133.620345 
L 898.80879 1133.724329 
L 916.732548 1134.385639 
L 918.099615 1134.449363 
L 921.897021 1134.639476 
L 925.846323 1134.636965 
L 932.377862 1134.636326 
L 934.808202 1134.601716 
L 944.985251 1134.460843 
L 947.111799 1134.507818 
L 954.706612 1134.470462 
L 954.706612 1134.470462 
" clip-path="url(#pfe8132e699)" style="fill: none; stroke: #d62728; stroke-width: 1.5; stroke-linecap: square"/>
   </g>
   <g id="patch_40">
    <path d="M 591.545455 1153.44 
L 591.545455 890.829474 
" style="fill: none; stroke: #000000; stroke-width: 0.8; stroke-linejoin: miter; stroke-linecap: square"/>
   </g>
   <g id="patch_41">
    <path d="M 972 1153.44 
L 972 890.829474 
" style="fill: none; stroke: #000000; stroke-width: 0.8; stroke-linejoin: miter; stroke-linecap: square"/>
   </g>
   <g id="patch_42">
    <path d="M 591.545455 1153.44 
L 972 1153.44 
" style="fill: none; stroke: #000000; stroke-width: 0.8; stroke-linejoin: miter; stroke-linecap: square"/>
   </g>
   <g id="patch_43">
    <path d="M 591.545455 890.829474 
L 972 890.829474 
" style="fill: none; stroke: #000000; stroke-width: 0.8; stroke-linejoin: miter; stroke-linecap: square"/>
   </g>
   <g id="text_65">
    <!-- f -->
    <g transform="translate(552.733636 872.71352) scale(0.28 -0.28)">
     <defs>
      <path id="DejaVuSans-Bold-66" d="M 2841 4863 
L 2841 4128 
L 2222 4128 
Q 1984 4128 1890 4042 
Q 1797 3956 1797 3744 
L 1797 3500 
L 2753 3500 
L 2753 2700 
L 1797 2700 
L 1797 0 
L 678 0 
L 678 2700 
L 122 2700 
L 122 3500 
L 678 3500 
L 678 3744 
Q 678 4316 997 4589 
Q 1316 4863 1984 4863 
L 2841 4863 
z
" transform="scale(0.015625)"/>
     </defs>
     <use xlink:href="#DejaVuSans-Bold-66"/>
    </g>
   </g>
   <g id="text_66">
    <!-- LCMC -->
    <g transform="translate(747.973977 884.829474) scale(0.24 -0.24)">
     <defs>
      <path id="DejaVuSans-4c" d="M 628 4666 
L 1259 4666 
L 1259 531 
L 3531 531 
L 3531 0 
L 628 0 
L 628 4666 
z
" transform="scale(0.015625)"/>
     </defs>
     <use xlink:href="#DejaVuSans-4c"/>
     <use xlink:href="#DejaVuSans-43" x="55.712891"/>
     <use xlink:href="#DejaVuSans-4d" x="125.537109"/>
     <use xlink:href="#DejaVuSans-43" x="211.816406"/>
    </g>
   </g>
  </g>
 </g>
 <defs>
  <clipPath id="pae27291ca6">
   <rect x="135" y="155.52" width="380.454545" height="262.610526"/>
  </clipPath>
  <clipPath id="p41ddc95b32">
   <rect x="591.545455" y="155.52" width="380.454545" height="262.610526"/>
  </clipPath>
  <clipPath id="p2050a41590">
   <rect x="135" y="523.174737" width="380.454545" height="262.610526"/>
  </clipPath>
  <clipPath id="p41a98144cd">
   <rect x="591.545455" y="523.174737" width="380.454545" height="262.610526"/>
  </clipPath>
  <clipPath id="p4f119ce1c3">
   <rect x="135" y="890.829474" width="380.454545" height="262.610526"/>
  </clipPath>
  <clipPath id="pfe8132e699">
   <rect x="591.545455" y="890.829474" width="380.454545" height="262.610526"/>
  </clipPath>
 </defs>
</svg>
