<?xml version="1.0" encoding="utf-8" standalone="no"?>
<!DOCTYPE svg PUBLIC "-//W3C//DTD SVG 1.1//EN"
  "http://www.w3.org/Graphics/SVG/1.1/DTD/svg11.dtd">
<svg xmlns:xlink="http://www.w3.org/1999/xlink" width="1080pt" height="1296pt" viewBox="0 0 1080 1296" xmlns="http://www.w3.org/2000/svg" version="1.1">
 <metadata>
  <rdf:RDF xmlns:dc="http://purl.org/dc/elements/1.1/" xmlns:cc="http://creativecommons.org/ns#" xmlns:rdf="http://www.w3.org/1999/02/22-rdf-syntax-ns#">
   <cc:Work>
    <dc:type rdf:resource="http://purl.org/dc/dcmitype/StillImage"/>
    <dc:date>2024-07-24T00:29:14.047021</dc:date>
    <dc:format>image/svg+xml</dc:format>
    <dc:creator>
     <cc:Agent>
      <dc:title>Matplotlib v3.8.4, https://matplotlib.org/</dc:title>
     </cc:Agent>
    </dc:creator>
   </cc:Work>
  </rdf:RDF>
 </metadata>
 <defs>
  <style type="text/css">*{stroke-linejoin: round; stroke-linecap: butt}</style>
 </defs>
 <g id="figure_1">
  <g id="patch_1">
   <path d="M 0 1296 
L 1080 1296 
L 1080 0 
L 0 0 
z
" style="fill: #ffffff"/>
  </g>
  <g id="axes_1">
   <g id="patch_2">
    <path d="M 135 418.130526 
L 515.454545 418.130526 
L 515.454545 155.52 
L 135 155.52 
z
" style="fill: #ffffff"/>
   </g>
   <g id="matplotlib.axis_1">
    <g id="xtick_1">
     <g id="line2d_1">
      <defs>
       <path id="m894e1951d3" d="M 0 0 
L 0 3.5 
" style="stroke: #000000; stroke-width: 0.8"/>
      </defs>
      <g>
       <use xlink:href="#m894e1951d3" x="137.882231" y="418.130526" style="stroke: #000000; stroke-width: 0.8"/>
      </g>
     </g>
     <g id="text_1">
      <!-- 0 -->
      <g transform="translate(131.519731 440.327401) scale(0.2 -0.2)">
       <defs>
        <path id="DejaVuSans-30" d="M 2034 4250 
Q 1547 4250 1301 3770 
Q 1056 3291 1056 2328 
Q 1056 1369 1301 889 
Q 1547 409 2034 409 
Q 2525 409 2770 889 
Q 3016 1369 3016 2328 
Q 3016 3291 2770 3770 
Q 2525 4250 2034 4250 
z
M 2034 4750 
Q 2819 4750 3233 4129 
Q 3647 3509 3647 2328 
Q 3647 1150 3233 529 
Q 2819 -91 2034 -91 
Q 1250 -91 836 529 
Q 422 1150 422 2328 
Q 422 3509 836 4129 
Q 1250 4750 2034 4750 
z
" transform="scale(0.015625)"/>
       </defs>
       <use xlink:href="#DejaVuSans-30"/>
      </g>
     </g>
    </g>
    <g id="xtick_2">
     <g id="line2d_2">
      <g>
       <use xlink:href="#m894e1951d3" x="209.938017" y="418.130526" style="stroke: #000000; stroke-width: 0.8"/>
      </g>
     </g>
     <g id="text_2">
      <!-- 10 -->
      <g transform="translate(197.213017 440.327401) scale(0.2 -0.2)">
       <defs>
        <path id="DejaVuSans-31" d="M 794 531 
L 1825 531 
L 1825 4091 
L 703 3866 
L 703 4441 
L 1819 4666 
L 2450 4666 
L 2450 531 
L 3481 531 
L 3481 0 
L 794 0 
L 794 531 
z
" transform="scale(0.015625)"/>
       </defs>
       <use xlink:href="#DejaVuSans-31"/>
       <use xlink:href="#DejaVuSans-30" x="63.623047"/>
      </g>
     </g>
    </g>
    <g id="xtick_3">
     <g id="line2d_3">
      <g>
       <use xlink:href="#m894e1951d3" x="281.993802" y="418.130526" style="stroke: #000000; stroke-width: 0.8"/>
      </g>
     </g>
     <g id="text_3">
      <!-- 20 -->
      <g transform="translate(269.268802 440.327401) scale(0.2 -0.2)">
       <defs>
        <path id="DejaVuSans-32" d="M 1228 531 
L 3431 531 
L 3431 0 
L 469 0 
L 469 531 
Q 828 903 1448 1529 
Q 2069 2156 2228 2338 
Q 2531 2678 2651 2914 
Q 2772 3150 2772 3378 
Q 2772 3750 2511 3984 
Q 2250 4219 1831 4219 
Q 1534 4219 1204 4116 
Q 875 4013 500 3803 
L 500 4441 
Q 881 4594 1212 4672 
Q 1544 4750 1819 4750 
Q 2544 4750 2975 4387 
Q 3406 4025 3406 3419 
Q 3406 3131 3298 2873 
Q 3191 2616 2906 2266 
Q 2828 2175 2409 1742 
Q 1991 1309 1228 531 
z
" transform="scale(0.015625)"/>
       </defs>
       <use xlink:href="#DejaVuSans-32"/>
       <use xlink:href="#DejaVuSans-30" x="63.623047"/>
      </g>
     </g>
    </g>
    <g id="xtick_4">
     <g id="line2d_4">
      <g>
       <use xlink:href="#m894e1951d3" x="354.049587" y="418.130526" style="stroke: #000000; stroke-width: 0.8"/>
      </g>
     </g>
     <g id="text_4">
      <!-- 30 -->
      <g transform="translate(341.324587 440.327401) scale(0.2 -0.2)">
       <defs>
        <path id="DejaVuSans-33" d="M 2597 2516 
Q 3050 2419 3304 2112 
Q 3559 1806 3559 1356 
Q 3559 666 3084 287 
Q 2609 -91 1734 -91 
Q 1441 -91 1130 -33 
Q 819 25 488 141 
L 488 750 
Q 750 597 1062 519 
Q 1375 441 1716 441 
Q 2309 441 2620 675 
Q 2931 909 2931 1356 
Q 2931 1769 2642 2001 
Q 2353 2234 1838 2234 
L 1294 2234 
L 1294 2753 
L 1863 2753 
Q 2328 2753 2575 2939 
Q 2822 3125 2822 3475 
Q 2822 3834 2567 4026 
Q 2313 4219 1838 4219 
Q 1578 4219 1281 4162 
Q 984 4106 628 3988 
L 628 4550 
Q 988 4650 1302 4700 
Q 1616 4750 1894 4750 
Q 2613 4750 3031 4423 
Q 3450 4097 3450 3541 
Q 3450 3153 3228 2886 
Q 3006 2619 2597 2516 
z
" transform="scale(0.015625)"/>
       </defs>
       <use xlink:href="#DejaVuSans-33"/>
       <use xlink:href="#DejaVuSans-30" x="63.623047"/>
      </g>
     </g>
    </g>
    <g id="xtick_5">
     <g id="line2d_5">
      <g>
       <use xlink:href="#m894e1951d3" x="426.105372" y="418.130526" style="stroke: #000000; stroke-width: 0.8"/>
      </g>
     </g>
     <g id="text_5">
      <!-- 40 -->
      <g transform="translate(413.380372 440.327401) scale(0.2 -0.2)">
       <defs>
        <path id="DejaVuSans-34" d="M 2419 4116 
L 825 1625 
L 2419 1625 
L 2419 4116 
z
M 2253 4666 
L 3047 4666 
L 3047 1625 
L 3713 1625 
L 3713 1100 
L 3047 1100 
L 3047 0 
L 2419 0 
L 2419 1100 
L 313 1100 
L 313 1709 
L 2253 4666 
z
" transform="scale(0.015625)"/>
       </defs>
       <use xlink:href="#DejaVuSans-34"/>
       <use xlink:href="#DejaVuSans-30" x="63.623047"/>
      </g>
     </g>
    </g>
    <g id="xtick_6">
     <g id="line2d_6">
      <g>
       <use xlink:href="#m894e1951d3" x="498.161157" y="418.130526" style="stroke: #000000; stroke-width: 0.8"/>
      </g>
     </g>
     <g id="text_6">
      <!-- 50 -->
      <g transform="translate(485.436157 440.327401) scale(0.2 -0.2)">
       <defs>
        <path id="DejaVuSans-35" d="M 691 4666 
L 3169 4666 
L 3169 4134 
L 1269 4134 
L 1269 2991 
Q 1406 3038 1543 3061 
Q 1681 3084 1819 3084 
Q 2600 3084 3056 2656 
Q 3513 2228 3513 1497 
Q 3513 744 3044 326 
Q 2575 -91 1722 -91 
Q 1428 -91 1123 -41 
Q 819 9 494 109 
L 494 744 
Q 775 591 1075 516 
Q 1375 441 1709 441 
Q 2250 441 2565 725 
Q 2881 1009 2881 1497 
Q 2881 1984 2565 2268 
Q 2250 2553 1709 2553 
Q 1456 2553 1204 2497 
Q 953 2441 691 2322 
L 691 4666 
z
" transform="scale(0.015625)"/>
       </defs>
       <use xlink:href="#DejaVuSans-35"/>
       <use xlink:href="#DejaVuSans-30" x="63.623047"/>
      </g>
     </g>
    </g>
    <g id="text_7">
     <!-- k -->
     <g transform="translate(318.278523 466.723026) scale(0.24 -0.24)">
      <defs>
       <path id="DejaVuSans-6b" d="M 581 4863 
L 1159 4863 
L 1159 1991 
L 2875 3500 
L 3609 3500 
L 1753 1863 
L 3688 0 
L 2938 0 
L 1159 1709 
L 1159 0 
L 581 0 
L 581 4863 
z
" transform="scale(0.015625)"/>
      </defs>
      <use xlink:href="#DejaVuSans-6b"/>
     </g>
    </g>
   </g>
   <g id="matplotlib.axis_2">
    <g id="ytick_1">
     <g id="line2d_7">
      <defs>
       <path id="m31f6279df9" d="M 0 0 
L -3.5 0 
" style="stroke: #000000; stroke-width: 0.8"/>
      </defs>
      <g>
       <use xlink:href="#m31f6279df9" x="135" y="418.130526" style="stroke: #000000; stroke-width: 0.8"/>
      </g>
     </g>
     <g id="text_8">
      <!-- 0.0 -->
      <g transform="translate(96.19375 425.728964) scale(0.2 -0.2)">
       <defs>
        <path id="DejaVuSans-2e" d="M 684 794 
L 1344 794 
L 1344 0 
L 684 0 
L 684 794 
z
" transform="scale(0.015625)"/>
       </defs>
       <use xlink:href="#DejaVuSans-30"/>
       <use xlink:href="#DejaVuSans-2e" x="63.623047"/>
       <use xlink:href="#DejaVuSans-30" x="95.410156"/>
      </g>
     </g>
    </g>
    <g id="ytick_2">
     <g id="line2d_8">
      <g>
       <use xlink:href="#m31f6279df9" x="135" y="352.477895" style="stroke: #000000; stroke-width: 0.8"/>
      </g>
     </g>
     <g id="text_9">
      <!-- 0.2 -->
      <g transform="translate(96.19375 360.076332) scale(0.2 -0.2)">
       <use xlink:href="#DejaVuSans-30"/>
       <use xlink:href="#DejaVuSans-2e" x="63.623047"/>
       <use xlink:href="#DejaVuSans-32" x="95.410156"/>
      </g>
     </g>
    </g>
    <g id="ytick_3">
     <g id="line2d_9">
      <g>
       <use xlink:href="#m31f6279df9" x="135" y="286.825263" style="stroke: #000000; stroke-width: 0.8"/>
      </g>
     </g>
     <g id="text_10">
      <!-- 0.4 -->
      <g transform="translate(96.19375 294.423701) scale(0.2 -0.2)">
       <use xlink:href="#DejaVuSans-30"/>
       <use xlink:href="#DejaVuSans-2e" x="63.623047"/>
       <use xlink:href="#DejaVuSans-34" x="95.410156"/>
      </g>
     </g>
    </g>
    <g id="ytick_4">
     <g id="line2d_10">
      <g>
       <use xlink:href="#m31f6279df9" x="135" y="221.172632" style="stroke: #000000; stroke-width: 0.8"/>
      </g>
     </g>
     <g id="text_11">
      <!-- 0.6 -->
      <g transform="translate(96.19375 228.771069) scale(0.2 -0.2)">
       <defs>
        <path id="DejaVuSans-36" d="M 2113 2584 
Q 1688 2584 1439 2293 
Q 1191 2003 1191 1497 
Q 1191 994 1439 701 
Q 1688 409 2113 409 
Q 2538 409 2786 701 
Q 3034 994 3034 1497 
Q 3034 2003 2786 2293 
Q 2538 2584 2113 2584 
z
M 3366 4563 
L 3366 3988 
Q 3128 4100 2886 4159 
Q 2644 4219 2406 4219 
Q 1781 4219 1451 3797 
Q 1122 3375 1075 2522 
Q 1259 2794 1537 2939 
Q 1816 3084 2150 3084 
Q 2853 3084 3261 2657 
Q 3669 2231 3669 1497 
Q 3669 778 3244 343 
Q 2819 -91 2113 -91 
Q 1303 -91 875 529 
Q 447 1150 447 2328 
Q 447 3434 972 4092 
Q 1497 4750 2381 4750 
Q 2619 4750 2861 4703 
Q 3103 4656 3366 4563 
z
" transform="scale(0.015625)"/>
       </defs>
       <use xlink:href="#DejaVuSans-30"/>
       <use xlink:href="#DejaVuSans-2e" x="63.623047"/>
       <use xlink:href="#DejaVuSans-36" x="95.410156"/>
      </g>
     </g>
    </g>
    <g id="ytick_5">
     <g id="line2d_11">
      <g>
       <use xlink:href="#m31f6279df9" x="135" y="155.52" style="stroke: #000000; stroke-width: 0.8"/>
      </g>
     </g>
     <g id="text_12">
      <!-- 0.8 -->
      <g transform="translate(96.19375 163.118438) scale(0.2 -0.2)">
       <defs>
        <path id="DejaVuSans-38" d="M 2034 2216 
Q 1584 2216 1326 1975 
Q 1069 1734 1069 1313 
Q 1069 891 1326 650 
Q 1584 409 2034 409 
Q 2484 409 2743 651 
Q 3003 894 3003 1313 
Q 3003 1734 2745 1975 
Q 2488 2216 2034 2216 
z
M 1403 2484 
Q 997 2584 770 2862 
Q 544 3141 544 3541 
Q 544 4100 942 4425 
Q 1341 4750 2034 4750 
Q 2731 4750 3128 4425 
Q 3525 4100 3525 3541 
Q 3525 3141 3298 2862 
Q 3072 2584 2669 2484 
Q 3125 2378 3379 2068 
Q 3634 1759 3634 1313 
Q 3634 634 3220 271 
Q 2806 -91 2034 -91 
Q 1263 -91 848 271 
Q 434 634 434 1313 
Q 434 1759 690 2068 
Q 947 2378 1403 2484 
z
M 1172 3481 
Q 1172 3119 1398 2916 
Q 1625 2713 2034 2713 
Q 2441 2713 2670 2916 
Q 2900 3119 2900 3481 
Q 2900 3844 2670 4047 
Q 2441 4250 2034 4250 
Q 1625 4250 1398 4047 
Q 1172 3844 1172 3481 
z
" transform="scale(0.015625)"/>
       </defs>
       <use xlink:href="#DejaVuSans-30"/>
       <use xlink:href="#DejaVuSans-2e" x="63.623047"/>
       <use xlink:href="#DejaVuSans-38" x="95.410156"/>
      </g>
     </g>
    </g>
    <g id="text_13">
     <!-- $P_{NN}$ -->
     <g transform="translate(87.2025 306.985263) rotate(-90) scale(0.24 -0.24)">
      <defs>
       <path id="DejaVuSans-Oblique-50" d="M 1081 4666 
L 2541 4666 
Q 3178 4666 3512 4369 
Q 3847 4072 3847 3500 
Q 3847 2731 3353 2303 
Q 2859 1875 1966 1875 
L 1172 1875 
L 806 0 
L 172 0 
L 1081 4666 
z
M 1613 4147 
L 1275 2394 
L 2069 2394 
Q 2606 2394 2893 2669 
Q 3181 2944 3181 3456 
Q 3181 3784 2986 3965 
Q 2791 4147 2438 4147 
L 1613 4147 
z
" transform="scale(0.015625)"/>
       <path id="DejaVuSans-Oblique-4e" d="M 1081 4666 
L 1931 4666 
L 3219 666 
L 4000 4666 
L 4616 4666 
L 3706 0 
L 2853 0 
L 1569 4025 
L 788 0 
L 172 0 
L 1081 4666 
z
" transform="scale(0.015625)"/>
      </defs>
      <use xlink:href="#DejaVuSans-Oblique-50" transform="translate(0 0.09375)"/>
      <use xlink:href="#DejaVuSans-Oblique-4e" transform="translate(60.302734 -16.3125) scale(0.7)"/>
      <use xlink:href="#DejaVuSans-Oblique-4e" transform="translate(112.666016 -16.3125) scale(0.7)"/>
     </g>
    </g>
   </g>
   <g id="line2d_12">
    <path d="M 152.293388 389.82274 
L 173.910124 372.087957 
L 209.938017 357.800116 
L 281.993802 344.637442 
L 498.161157 328.902956 
" clip-path="url(#pc4a5e69f33)" style="fill: none; stroke: #1f77b4; stroke-width: 1.5; stroke-linecap: square"/>
    <defs>
     <path id="m19ae36e9c3" d="M 0 3 
C 0.795609 3 1.55874 2.683901 2.12132 2.12132 
C 2.683901 1.55874 3 0.795609 3 0 
C 3 -0.795609 2.683901 -1.55874 2.12132 -2.12132 
C 1.55874 -2.683901 0.795609 -3 0 -3 
C -0.795609 -3 -1.55874 -2.683901 -2.12132 -2.12132 
C -2.683901 -1.55874 -3 -0.795609 -3 0 
C -3 0.795609 -2.683901 1.55874 -2.12132 2.12132 
C -1.55874 2.683901 -0.795609 3 0 3 
z
" style="stroke: #1f77b4"/>
    </defs>
    <g clip-path="url(#pc4a5e69f33)">
     <use xlink:href="#m19ae36e9c3" x="152.293388" y="389.82274" style="fill: #1f77b4; stroke: #1f77b4"/>
     <use xlink:href="#m19ae36e9c3" x="173.910124" y="372.087957" style="fill: #1f77b4; stroke: #1f77b4"/>
     <use xlink:href="#m19ae36e9c3" x="209.938017" y="357.800116" style="fill: #1f77b4; stroke: #1f77b4"/>
     <use xlink:href="#m19ae36e9c3" x="281.993802" y="344.637442" style="fill: #1f77b4; stroke: #1f77b4"/>
     <use xlink:href="#m19ae36e9c3" x="498.161157" y="328.902956" style="fill: #1f77b4; stroke: #1f77b4"/>
    </g>
   </g>
   <g id="line2d_13">
    <path d="M 152.293388 225.066068 
L 173.910124 214.278748 
L 209.938017 214.13587 
L 281.993802 214.778823 
L 498.161157 228.198678 
" clip-path="url(#pc4a5e69f33)" style="fill: none; stroke: #ff7f0e; stroke-width: 1.5; stroke-linecap: square"/>
    <defs>
     <path id="mfcf68e911d" d="M 0 3 
C 0.795609 3 1.55874 2.683901 2.12132 2.12132 
C 2.683901 1.55874 3 0.795609 3 0 
C 3 -0.795609 2.683901 -1.55874 2.12132 -2.12132 
C 1.55874 -2.683901 0.795609 -3 0 -3 
C -0.795609 -3 -1.55874 -2.683901 -2.12132 -2.12132 
C -2.683901 -1.55874 -3 -0.795609 -3 0 
C -3 0.795609 -2.683901 1.55874 -2.12132 2.12132 
C -1.55874 2.683901 -0.795609 3 0 3 
z
" style="stroke: #ff7f0e"/>
    </defs>
    <g clip-path="url(#pc4a5e69f33)">
     <use xlink:href="#mfcf68e911d" x="152.293388" y="225.066068" style="fill: #ff7f0e; stroke: #ff7f0e"/>
     <use xlink:href="#mfcf68e911d" x="173.910124" y="214.278748" style="fill: #ff7f0e; stroke: #ff7f0e"/>
     <use xlink:href="#mfcf68e911d" x="209.938017" y="214.13587" style="fill: #ff7f0e; stroke: #ff7f0e"/>
     <use xlink:href="#mfcf68e911d" x="281.993802" y="214.778823" style="fill: #ff7f0e; stroke: #ff7f0e"/>
     <use xlink:href="#mfcf68e911d" x="498.161157" y="228.198678" style="fill: #ff7f0e; stroke: #ff7f0e"/>
    </g>
   </g>
   <g id="line2d_14">
    <path d="M 152.293388 296.862472 
L 173.910124 256.999394 
L 209.938017 233.585194 
L 281.993802 225.217877 
L 498.161157 233.260145 
" clip-path="url(#pc4a5e69f33)" style="fill: none; stroke: #2ca02c; stroke-width: 1.5; stroke-linecap: square"/>
    <defs>
     <path id="mc5eed0f7c3" d="M 0 3 
C 0.795609 3 1.55874 2.683901 2.12132 2.12132 
C 2.683901 1.55874 3 0.795609 3 0 
C 3 -0.795609 2.683901 -1.55874 2.12132 -2.12132 
C 1.55874 -2.683901 0.795609 -3 0 -3 
C -0.795609 -3 -1.55874 -2.683901 -2.12132 -2.12132 
C -2.683901 -1.55874 -3 -0.795609 -3 0 
C -3 0.795609 -2.683901 1.55874 -2.12132 2.12132 
C -1.55874 2.683901 -0.795609 3 0 3 
z
" style="stroke: #2ca02c"/>
    </defs>
    <g clip-path="url(#pc4a5e69f33)">
     <use xlink:href="#mc5eed0f7c3" x="152.293388" y="296.862472" style="fill: #2ca02c; stroke: #2ca02c"/>
     <use xlink:href="#mc5eed0f7c3" x="173.910124" y="256.999394" style="fill: #2ca02c; stroke: #2ca02c"/>
     <use xlink:href="#mc5eed0f7c3" x="209.938017" y="233.585194" style="fill: #2ca02c; stroke: #2ca02c"/>
     <use xlink:href="#mc5eed0f7c3" x="281.993802" y="225.217877" style="fill: #2ca02c; stroke: #2ca02c"/>
     <use xlink:href="#mc5eed0f7c3" x="498.161157" y="233.260145" style="fill: #2ca02c; stroke: #2ca02c"/>
    </g>
   </g>
   <g id="line2d_15">
    <path d="M 152.293388 299.541442 
L 173.910124 274.216243 
L 209.938017 253.945368 
L 281.993802 237.666159 
L 498.161157 228.284405 
" clip-path="url(#pc4a5e69f33)" style="fill: none; stroke: #d62728; stroke-width: 1.5; stroke-linecap: square"/>
    <defs>
     <path id="m71b8917a6f" d="M 0 3 
C 0.795609 3 1.55874 2.683901 2.12132 2.12132 
C 2.683901 1.55874 3 0.795609 3 0 
C 3 -0.795609 2.683901 -1.55874 2.12132 -2.12132 
C 1.55874 -2.683901 0.795609 -3 0 -3 
C -0.795609 -3 -1.55874 -2.683901 -2.12132 -2.12132 
C -2.683901 -1.55874 -3 -0.795609 -3 0 
C -3 0.795609 -2.683901 1.55874 -2.12132 2.12132 
C -1.55874 2.683901 -0.795609 3 0 3 
z
" style="stroke: #d62728"/>
    </defs>
    <g clip-path="url(#pc4a5e69f33)">
     <use xlink:href="#m71b8917a6f" x="152.293388" y="299.541442" style="fill: #d62728; stroke: #d62728"/>
     <use xlink:href="#m71b8917a6f" x="173.910124" y="274.216243" style="fill: #d62728; stroke: #d62728"/>
     <use xlink:href="#m71b8917a6f" x="209.938017" y="253.945368" style="fill: #d62728; stroke: #d62728"/>
     <use xlink:href="#m71b8917a6f" x="281.993802" y="237.666159" style="fill: #d62728; stroke: #d62728"/>
     <use xlink:href="#m71b8917a6f" x="498.161157" y="228.284405" style="fill: #d62728; stroke: #d62728"/>
    </g>
   </g>
   <g id="patch_3">
    <path d="M 135 418.130526 
L 135 155.52 
" style="fill: none; stroke: #000000; stroke-width: 0.8; stroke-linejoin: miter; stroke-linecap: square"/>
   </g>
   <g id="patch_4">
    <path d="M 515.454545 418.130526 
L 515.454545 155.52 
" style="fill: none; stroke: #000000; stroke-width: 0.8; stroke-linejoin: miter; stroke-linecap: square"/>
   </g>
   <g id="patch_5">
    <path d="M 135 418.130526 
L 515.454545 418.130526 
" style="fill: none; stroke: #000000; stroke-width: 0.8; stroke-linejoin: miter; stroke-linecap: square"/>
   </g>
   <g id="patch_6">
    <path d="M 135 155.52 
L 515.454545 155.52 
" style="fill: none; stroke: #000000; stroke-width: 0.8; stroke-linejoin: miter; stroke-linecap: square"/>
   </g>
   <g id="text_14">
    <!-- a -->
    <g transform="translate(89.472557 137.404046) scale(0.28 -0.28)">
     <defs>
      <path id="DejaVuSans-Bold-61" d="M 2106 1575 
Q 1756 1575 1579 1456 
Q 1403 1338 1403 1106 
Q 1403 894 1545 773 
Q 1688 653 1941 653 
Q 2256 653 2472 879 
Q 2688 1106 2688 1447 
L 2688 1575 
L 2106 1575 
z
M 3816 1997 
L 3816 0 
L 2688 0 
L 2688 519 
Q 2463 200 2181 54 
Q 1900 -91 1497 -91 
Q 953 -91 614 226 
Q 275 544 275 1050 
Q 275 1666 698 1953 
Q 1122 2241 2028 2241 
L 2688 2241 
L 2688 2328 
Q 2688 2594 2478 2717 
Q 2269 2841 1825 2841 
Q 1466 2841 1156 2769 
Q 847 2697 581 2553 
L 581 3406 
Q 941 3494 1303 3539 
Q 1666 3584 2028 3584 
Q 2975 3584 3395 3211 
Q 3816 2838 3816 1997 
z
" transform="scale(0.015625)"/>
     </defs>
     <use xlink:href="#DejaVuSans-Bold-61"/>
    </g>
   </g>
   <g id="text_15">
    <!-- $P_{NN}$ -->
    <g transform="translate(303.387273 149.52) scale(0.26 -0.26)">
     <use xlink:href="#DejaVuSans-Oblique-50" transform="translate(0 0.09375)"/>
     <use xlink:href="#DejaVuSans-Oblique-4e" transform="translate(60.302734 -16.3125) scale(0.7)"/>
     <use xlink:href="#DejaVuSans-Oblique-4e" transform="translate(112.666016 -16.3125) scale(0.7)"/>
    </g>
   </g>
  </g>
  <g id="axes_2">
   <g id="patch_7">
    <path d="M 591.545455 418.130526 
L 972 418.130526 
L 972 155.52 
L 591.545455 155.52 
z
" style="fill: #ffffff"/>
   </g>
   <g id="patch_8">
    <path d="M 608.838843 418.130526 
L 628.792753 418.130526 
L 628.792753 178.588524 
L 608.838843 178.588524 
z
" clip-path="url(#p000770802f)" style="fill: #1f77b4"/>
   </g>
   <g id="patch_9">
    <path d="M 741.864908 418.130526 
L 761.818818 418.130526 
L 761.818818 317.17576 
L 741.864908 317.17576 
z
" clip-path="url(#p000770802f)" style="fill: #1f77b4"/>
   </g>
   <g id="patch_10">
    <path d="M 874.890973 418.130526 
L 894.844882 418.130526 
L 894.844882 168.025263 
L 874.890973 168.025263 
z
" clip-path="url(#p000770802f)" style="fill: #1f77b4"/>
   </g>
   <g id="patch_11">
    <path d="M 628.792753 418.130526 
L 648.746662 418.130526 
L 648.746662 179.016123 
L 628.792753 179.016123 
z
" clip-path="url(#p000770802f)" style="fill: #ff7f0e"/>
   </g>
   <g id="patch_12">
    <path d="M 761.818818 418.130526 
L 781.772727 418.130526 
L 781.772727 199.773399 
L 761.818818 199.773399 
z
" clip-path="url(#p000770802f)" style="fill: #ff7f0e"/>
   </g>
   <g id="patch_13">
    <path d="M 894.844882 418.130526 
L 914.798792 418.130526 
L 914.798792 178.878945 
L 894.844882 178.878945 
z
" clip-path="url(#p000770802f)" style="fill: #ff7f0e"/>
   </g>
   <g id="patch_14">
    <path d="M 648.746662 418.130526 
L 668.700572 418.130526 
L 668.700572 179.345433 
L 648.746662 179.345433 
z
" clip-path="url(#p000770802f)" style="fill: #2ca02c"/>
   </g>
   <g id="patch_15">
    <path d="M 781.772727 418.130526 
L 801.726637 418.130526 
L 801.726637 228.930357 
L 781.772727 228.930357 
z
" clip-path="url(#p000770802f)" style="fill: #2ca02c"/>
   </g>
   <g id="patch_16">
    <path d="M 914.798792 418.130526 
L 934.752702 418.130526 
L 934.752702 178.804856 
L 914.798792 178.804856 
z
" clip-path="url(#p000770802f)" style="fill: #2ca02c"/>
   </g>
   <g id="patch_17">
    <path d="M 668.700572 418.130526 
L 688.654482 418.130526 
L 688.654482 177.408415 
L 668.700572 177.408415 
z
" clip-path="url(#p000770802f)" style="fill: #d62728"/>
   </g>
   <g id="patch_18">
    <path d="M 801.726637 418.130526 
L 821.680547 418.130526 
L 821.680547 225.921109 
L 801.726637 225.921109 
z
" clip-path="url(#p000770802f)" style="fill: #d62728"/>
   </g>
   <g id="patch_19">
    <path d="M 934.752702 418.130526 
L 954.706612 418.130526 
L 954.706612 176.139443 
L 934.752702 176.139443 
z
" clip-path="url(#p000770802f)" style="fill: #d62728"/>
   </g>
   <g id="matplotlib.axis_3">
    <g id="xtick_7">
     <g id="line2d_16">
      <g>
       <use xlink:href="#m894e1951d3" x="648.746662" y="418.130526" style="stroke: #000000; stroke-width: 0.8"/>
      </g>
     </g>
     <g id="text_16">
      <!-- AUC -->
      <g transform="translate(625.490256 441.847089) scale(0.22 -0.22)">
       <defs>
        <path id="DejaVuSans-41" d="M 2188 4044 
L 1331 1722 
L 3047 1722 
L 2188 4044 
z
M 1831 4666 
L 2547 4666 
L 4325 0 
L 3669 0 
L 3244 1197 
L 1141 1197 
L 716 0 
L 50 0 
L 1831 4666 
z
" transform="scale(0.015625)"/>
        <path id="DejaVuSans-55" d="M 556 4666 
L 1191 4666 
L 1191 1831 
Q 1191 1081 1462 751 
Q 1734 422 2344 422 
Q 2950 422 3222 751 
Q 3494 1081 3494 1831 
L 3494 4666 
L 4128 4666 
L 4128 1753 
Q 4128 841 3676 375 
Q 3225 -91 2344 -91 
Q 1459 -91 1007 375 
Q 556 841 556 1753 
L 556 4666 
z
" transform="scale(0.015625)"/>
        <path id="DejaVuSans-43" d="M 4122 4306 
L 4122 3641 
Q 3803 3938 3442 4084 
Q 3081 4231 2675 4231 
Q 1875 4231 1450 3742 
Q 1025 3253 1025 2328 
Q 1025 1406 1450 917 
Q 1875 428 2675 428 
Q 3081 428 3442 575 
Q 3803 722 4122 1019 
L 4122 359 
Q 3791 134 3420 21 
Q 3050 -91 2638 -91 
Q 1578 -91 968 557 
Q 359 1206 359 2328 
Q 359 3453 968 4101 
Q 1578 4750 2638 4750 
Q 3056 4750 3426 4639 
Q 3797 4528 4122 4306 
z
" transform="scale(0.015625)"/>
       </defs>
       <use xlink:href="#DejaVuSans-41"/>
       <use xlink:href="#DejaVuSans-55" x="68.408203"/>
       <use xlink:href="#DejaVuSans-43" x="141.601562"/>
      </g>
     </g>
    </g>
    <g id="xtick_8">
     <g id="line2d_17">
      <g>
       <use xlink:href="#m894e1951d3" x="781.772727" y="418.130526" style="stroke: #000000; stroke-width: 0.8"/>
      </g>
     </g>
     <g id="text_17">
      <!-- $Q_{local}$ -->
      <g transform="translate(754.822727 441.847089) scale(0.22 -0.22)">
       <defs>
        <path id="DejaVuSans-Oblique-51" d="M 2309 -84 
Q 2275 -88 2237 -89 
Q 2200 -91 2125 -91 
Q 1250 -91 756 411 
Q 263 913 263 1797 
Q 263 2319 452 2844 
Q 641 3369 978 3788 
Q 1369 4269 1858 4509 
Q 2347 4750 2938 4750 
Q 3794 4750 4287 4245 
Q 4781 3741 4781 2869 
Q 4781 1928 4265 1147 
Q 3750 366 2919 44 
L 3553 -825 
L 2847 -825 
L 2309 -84 
z
M 2919 4238 
Q 2400 4238 2003 3986 
Q 1606 3734 1313 3219 
Q 1125 2891 1026 2522 
Q 928 2153 928 1778 
Q 928 1128 1239 775 
Q 1550 422 2119 422 
Q 2631 422 3032 676 
Q 3434 931 3719 1434 
Q 3909 1772 4009 2142 
Q 4109 2513 4109 2881 
Q 4109 3528 3796 3883 
Q 3484 4238 2919 4238 
z
" transform="scale(0.015625)"/>
        <path id="DejaVuSans-Oblique-6c" d="M 1172 4863 
L 1747 4863 
L 800 0 
L 225 0 
L 1172 4863 
z
" transform="scale(0.015625)"/>
        <path id="DejaVuSans-Oblique-6f" d="M 1625 -91 
Q 1009 -91 651 289 
Q 294 669 294 1325 
Q 294 1706 417 2101 
Q 541 2497 738 2766 
Q 1047 3184 1428 3384 
Q 1809 3584 2291 3584 
Q 2888 3584 3255 3212 
Q 3622 2841 3622 2241 
Q 3622 1825 3500 1412 
Q 3378 1000 3181 728 
Q 2875 309 2494 109 
Q 2113 -91 1625 -91 
z
M 891 1344 
Q 891 869 1089 633 
Q 1288 397 1691 397 
Q 2269 397 2648 901 
Q 3028 1406 3028 2181 
Q 3028 2634 2825 2865 
Q 2622 3097 2228 3097 
Q 1903 3097 1650 2945 
Q 1397 2794 1197 2484 
Q 1050 2253 970 1956 
Q 891 1659 891 1344 
z
" transform="scale(0.015625)"/>
        <path id="DejaVuSans-Oblique-63" d="M 3431 3366 
L 3316 2797 
Q 3109 2947 2876 3022 
Q 2644 3097 2394 3097 
Q 2119 3097 1870 3000 
Q 1622 2903 1453 2725 
Q 1184 2453 1037 2087 
Q 891 1722 891 1331 
Q 891 859 1127 628 
Q 1363 397 1844 397 
Q 2081 397 2348 469 
Q 2616 541 2906 684 
L 2797 116 
Q 2547 13 2283 -39 
Q 2019 -91 1741 -91 
Q 1044 -91 669 257 
Q 294 606 294 1253 
Q 294 1797 489 2255 
Q 684 2713 1069 3078 
Q 1331 3328 1684 3456 
Q 2038 3584 2456 3584 
Q 2700 3584 2940 3529 
Q 3181 3475 3431 3366 
z
" transform="scale(0.015625)"/>
        <path id="DejaVuSans-Oblique-61" d="M 3438 1997 
L 3047 0 
L 2472 0 
L 2578 531 
Q 2325 219 2001 64 
Q 1678 -91 1281 -91 
Q 834 -91 548 182 
Q 263 456 263 884 
Q 263 1497 752 1853 
Q 1241 2209 2100 2209 
L 2900 2209 
L 2931 2363 
Q 2938 2388 2941 2417 
Q 2944 2447 2944 2509 
Q 2944 2788 2717 2942 
Q 2491 3097 2081 3097 
Q 1800 3097 1504 3025 
Q 1209 2953 897 2809 
L 997 3341 
Q 1322 3463 1633 3523 
Q 1944 3584 2234 3584 
Q 2853 3584 3176 3315 
Q 3500 3047 3500 2534 
Q 3500 2431 3484 2292 
Q 3469 2153 3438 1997 
z
M 2816 1759 
L 2241 1759 
Q 1534 1759 1195 1570 
Q 856 1381 856 984 
Q 856 709 1029 553 
Q 1203 397 1509 397 
Q 1978 397 2328 733 
Q 2678 1069 2791 1631 
L 2816 1759 
z
" transform="scale(0.015625)"/>
       </defs>
       <use xlink:href="#DejaVuSans-Oblique-51" transform="translate(0 0.78125)"/>
       <use xlink:href="#DejaVuSans-Oblique-6c" transform="translate(78.710938 -15.625) scale(0.7)"/>
       <use xlink:href="#DejaVuSans-Oblique-6f" transform="translate(98.15918 -15.625) scale(0.7)"/>
       <use xlink:href="#DejaVuSans-Oblique-63" transform="translate(140.986328 -15.625) scale(0.7)"/>
       <use xlink:href="#DejaVuSans-Oblique-61" transform="translate(179.472656 -15.625) scale(0.7)"/>
       <use xlink:href="#DejaVuSans-Oblique-6c" transform="translate(222.368164 -15.625) scale(0.7)"/>
      </g>
     </g>
    </g>
    <g id="xtick_9">
     <g id="line2d_18">
      <g>
       <use xlink:href="#m894e1951d3" x="914.798792" y="418.130526" style="stroke: #000000; stroke-width: 0.8"/>
      </g>
     </g>
     <g id="text_18">
      <!-- $Q_{global}$ -->
      <g transform="translate(882.348792 441.630526) scale(0.22 -0.22)">
       <defs>
        <path id="DejaVuSans-Oblique-67" d="M 3816 3500 
L 3219 434 
Q 3047 -456 2561 -893 
Q 2075 -1331 1253 -1331 
Q 950 -1331 690 -1286 
Q 431 -1241 206 -1147 
L 313 -588 
Q 525 -725 762 -790 
Q 1000 -856 1269 -856 
Q 1816 -856 2167 -557 
Q 2519 -259 2631 300 
L 2681 563 
Q 2441 288 2122 144 
Q 1803 0 1434 0 
Q 903 0 598 351 
Q 294 703 294 1319 
Q 294 1803 478 2267 
Q 663 2731 997 3091 
Q 1219 3328 1514 3456 
Q 1809 3584 2131 3584 
Q 2484 3584 2746 3420 
Q 3009 3256 3138 2956 
L 3238 3500 
L 3816 3500 
z
M 2950 2216 
Q 2950 2641 2750 2872 
Q 2550 3103 2181 3103 
Q 1953 3103 1747 3012 
Q 1541 2922 1394 2759 
Q 1156 2491 1023 2127 
Q 891 1763 891 1375 
Q 891 944 1092 712 
Q 1294 481 1672 481 
Q 2219 481 2584 976 
Q 2950 1472 2950 2216 
z
" transform="scale(0.015625)"/>
        <path id="DejaVuSans-Oblique-62" d="M 3169 2138 
Q 3169 2591 2961 2847 
Q 2753 3103 2388 3103 
Q 2122 3103 1889 2973 
Q 1656 2844 1484 2597 
Q 1303 2338 1198 1995 
Q 1094 1653 1094 1313 
Q 1094 881 1298 636 
Q 1503 391 1863 391 
Q 2134 391 2365 517 
Q 2597 644 2772 891 
Q 2950 1147 3059 1487 
Q 3169 1828 3169 2138 
z
M 1381 2969 
Q 1594 3256 1914 3420 
Q 2234 3584 2584 3584 
Q 3122 3584 3439 3221 
Q 3756 2859 3756 2241 
Q 3756 1734 3570 1259 
Q 3384 784 3041 416 
Q 2816 172 2522 40 
Q 2228 -91 1906 -91 
Q 1566 -91 1316 65 
Q 1066 222 909 531 
L 806 0 
L 231 0 
L 1178 4863 
L 1753 4863 
L 1381 2969 
z
" transform="scale(0.015625)"/>
       </defs>
       <use xlink:href="#DejaVuSans-Oblique-51" transform="translate(0 0.78125)"/>
       <use xlink:href="#DejaVuSans-Oblique-67" transform="translate(78.710938 -15.625) scale(0.7)"/>
       <use xlink:href="#DejaVuSans-Oblique-6c" transform="translate(123.144531 -15.625) scale(0.7)"/>
       <use xlink:href="#DejaVuSans-Oblique-6f" transform="translate(142.592773 -15.625) scale(0.7)"/>
       <use xlink:href="#DejaVuSans-Oblique-62" transform="translate(185.419922 -15.625) scale(0.7)"/>
       <use xlink:href="#DejaVuSans-Oblique-61" transform="translate(229.853516 -15.625) scale(0.7)"/>
       <use xlink:href="#DejaVuSans-Oblique-6c" transform="translate(272.749023 -15.625) scale(0.7)"/>
      </g>
     </g>
    </g>
   </g>
   <g id="matplotlib.axis_4">
    <g id="ytick_6">
     <g id="line2d_19">
      <g>
       <use xlink:href="#m31f6279df9" x="591.545455" y="418.130526" style="stroke: #000000; stroke-width: 0.8"/>
      </g>
     </g>
     <g id="text_19">
      <!-- 0.0 -->
      <g transform="translate(549.55858 426.488808) scale(0.22 -0.22)">
       <use xlink:href="#DejaVuSans-30"/>
       <use xlink:href="#DejaVuSans-2e" x="63.623047"/>
       <use xlink:href="#DejaVuSans-30" x="95.410156"/>
      </g>
     </g>
    </g>
    <g id="ytick_7">
     <g id="line2d_20">
      <g>
       <use xlink:href="#m31f6279df9" x="591.545455" y="345.800606" style="stroke: #000000; stroke-width: 0.8"/>
      </g>
     </g>
     <g id="text_20">
      <!-- 0.2 -->
      <g transform="translate(549.55858 354.158887) scale(0.22 -0.22)">
       <use xlink:href="#DejaVuSans-30"/>
       <use xlink:href="#DejaVuSans-2e" x="63.623047"/>
       <use xlink:href="#DejaVuSans-32" x="95.410156"/>
      </g>
     </g>
    </g>
    <g id="ytick_8">
     <g id="line2d_21">
      <g>
       <use xlink:href="#m31f6279df9" x="591.545455" y="273.470685" style="stroke: #000000; stroke-width: 0.8"/>
      </g>
     </g>
     <g id="text_21">
      <!-- 0.4 -->
      <g transform="translate(549.55858 281.828967) scale(0.22 -0.22)">
       <use xlink:href="#DejaVuSans-30"/>
       <use xlink:href="#DejaVuSans-2e" x="63.623047"/>
       <use xlink:href="#DejaVuSans-34" x="95.410156"/>
      </g>
     </g>
    </g>
    <g id="ytick_9">
     <g id="line2d_22">
      <g>
       <use xlink:href="#m31f6279df9" x="591.545455" y="201.140765" style="stroke: #000000; stroke-width: 0.8"/>
      </g>
     </g>
     <g id="text_22">
      <!-- 0.6 -->
      <g transform="translate(549.55858 209.499046) scale(0.22 -0.22)">
       <use xlink:href="#DejaVuSans-30"/>
       <use xlink:href="#DejaVuSans-2e" x="63.623047"/>
       <use xlink:href="#DejaVuSans-36" x="95.410156"/>
      </g>
     </g>
    </g>
    <g id="text_23">
     <!-- Metric Value -->
     <g transform="translate(540.983267 354.727919) rotate(-90) scale(0.22 -0.22)">
      <defs>
       <path id="DejaVuSans-4d" d="M 628 4666 
L 1569 4666 
L 2759 1491 
L 3956 4666 
L 4897 4666 
L 4897 0 
L 4281 0 
L 4281 4097 
L 3078 897 
L 2444 897 
L 1241 4097 
L 1241 0 
L 628 0 
L 628 4666 
z
" transform="scale(0.015625)"/>
       <path id="DejaVuSans-65" d="M 3597 1894 
L 3597 1613 
L 953 1613 
Q 991 1019 1311 708 
Q 1631 397 2203 397 
Q 2534 397 2845 478 
Q 3156 559 3463 722 
L 3463 178 
Q 3153 47 2828 -22 
Q 2503 -91 2169 -91 
Q 1331 -91 842 396 
Q 353 884 353 1716 
Q 353 2575 817 3079 
Q 1281 3584 2069 3584 
Q 2775 3584 3186 3129 
Q 3597 2675 3597 1894 
z
M 3022 2063 
Q 3016 2534 2758 2815 
Q 2500 3097 2075 3097 
Q 1594 3097 1305 2825 
Q 1016 2553 972 2059 
L 3022 2063 
z
" transform="scale(0.015625)"/>
       <path id="DejaVuSans-74" d="M 1172 4494 
L 1172 3500 
L 2356 3500 
L 2356 3053 
L 1172 3053 
L 1172 1153 
Q 1172 725 1289 603 
Q 1406 481 1766 481 
L 2356 481 
L 2356 0 
L 1766 0 
Q 1100 0 847 248 
Q 594 497 594 1153 
L 594 3053 
L 172 3053 
L 172 3500 
L 594 3500 
L 594 4494 
L 1172 4494 
z
" transform="scale(0.015625)"/>
       <path id="DejaVuSans-72" d="M 2631 2963 
Q 2534 3019 2420 3045 
Q 2306 3072 2169 3072 
Q 1681 3072 1420 2755 
Q 1159 2438 1159 1844 
L 1159 0 
L 581 0 
L 581 3500 
L 1159 3500 
L 1159 2956 
Q 1341 3275 1631 3429 
Q 1922 3584 2338 3584 
Q 2397 3584 2469 3576 
Q 2541 3569 2628 3553 
L 2631 2963 
z
" transform="scale(0.015625)"/>
       <path id="DejaVuSans-69" d="M 603 3500 
L 1178 3500 
L 1178 0 
L 603 0 
L 603 3500 
z
M 603 4863 
L 1178 4863 
L 1178 4134 
L 603 4134 
L 603 4863 
z
" transform="scale(0.015625)"/>
       <path id="DejaVuSans-63" d="M 3122 3366 
L 3122 2828 
Q 2878 2963 2633 3030 
Q 2388 3097 2138 3097 
Q 1578 3097 1268 2742 
Q 959 2388 959 1747 
Q 959 1106 1268 751 
Q 1578 397 2138 397 
Q 2388 397 2633 464 
Q 2878 531 3122 666 
L 3122 134 
Q 2881 22 2623 -34 
Q 2366 -91 2075 -91 
Q 1284 -91 818 406 
Q 353 903 353 1747 
Q 353 2603 823 3093 
Q 1294 3584 2113 3584 
Q 2378 3584 2631 3529 
Q 2884 3475 3122 3366 
z
" transform="scale(0.015625)"/>
       <path id="DejaVuSans-20" transform="scale(0.015625)"/>
       <path id="DejaVuSans-56" d="M 1831 0 
L 50 4666 
L 709 4666 
L 2188 738 
L 3669 4666 
L 4325 4666 
L 2547 0 
L 1831 0 
z
" transform="scale(0.015625)"/>
       <path id="DejaVuSans-61" d="M 2194 1759 
Q 1497 1759 1228 1600 
Q 959 1441 959 1056 
Q 959 750 1161 570 
Q 1363 391 1709 391 
Q 2188 391 2477 730 
Q 2766 1069 2766 1631 
L 2766 1759 
L 2194 1759 
z
M 3341 1997 
L 3341 0 
L 2766 0 
L 2766 531 
Q 2569 213 2275 61 
Q 1981 -91 1556 -91 
Q 1019 -91 701 211 
Q 384 513 384 1019 
Q 384 1609 779 1909 
Q 1175 2209 1959 2209 
L 2766 2209 
L 2766 2266 
Q 2766 2663 2505 2880 
Q 2244 3097 1772 3097 
Q 1472 3097 1187 3025 
Q 903 2953 641 2809 
L 641 3341 
Q 956 3463 1253 3523 
Q 1550 3584 1831 3584 
Q 2591 3584 2966 3190 
Q 3341 2797 3341 1997 
z
" transform="scale(0.015625)"/>
       <path id="DejaVuSans-6c" d="M 603 4863 
L 1178 4863 
L 1178 0 
L 603 0 
L 603 4863 
z
" transform="scale(0.015625)"/>
       <path id="DejaVuSans-75" d="M 544 1381 
L 544 3500 
L 1119 3500 
L 1119 1403 
Q 1119 906 1312 657 
Q 1506 409 1894 409 
Q 2359 409 2629 706 
Q 2900 1003 2900 1516 
L 2900 3500 
L 3475 3500 
L 3475 0 
L 2900 0 
L 2900 538 
Q 2691 219 2414 64 
Q 2138 -91 1772 -91 
Q 1169 -91 856 284 
Q 544 659 544 1381 
z
M 1991 3584 
L 1991 3584 
z
" transform="scale(0.015625)"/>
      </defs>
      <use xlink:href="#DejaVuSans-4d"/>
      <use xlink:href="#DejaVuSans-65" x="86.279297"/>
      <use xlink:href="#DejaVuSans-74" x="147.802734"/>
      <use xlink:href="#DejaVuSans-72" x="187.011719"/>
      <use xlink:href="#DejaVuSans-69" x="228.125"/>
      <use xlink:href="#DejaVuSans-63" x="255.908203"/>
      <use xlink:href="#DejaVuSans-20" x="310.888672"/>
      <use xlink:href="#DejaVuSans-56" x="342.675781"/>
      <use xlink:href="#DejaVuSans-61" x="403.333984"/>
      <use xlink:href="#DejaVuSans-6c" x="464.613281"/>
      <use xlink:href="#DejaVuSans-75" x="492.396484"/>
      <use xlink:href="#DejaVuSans-65" x="555.775391"/>
     </g>
    </g>
   </g>
   <g id="patch_20">
    <path d="M 591.545455 418.130526 
L 591.545455 155.52 
" style="fill: none; stroke: #000000; stroke-width: 0.8; stroke-linejoin: miter; stroke-linecap: square"/>
   </g>
   <g id="patch_21">
    <path d="M 972 418.130526 
L 972 155.52 
" style="fill: none; stroke: #000000; stroke-width: 0.8; stroke-linejoin: miter; stroke-linecap: square"/>
   </g>
   <g id="patch_22">
    <path d="M 591.545455 418.130526 
L 972 418.130526 
" style="fill: none; stroke: #000000; stroke-width: 0.8; stroke-linejoin: miter; stroke-linecap: square"/>
   </g>
   <g id="patch_23">
    <path d="M 591.545455 155.52 
L 972 155.52 
" style="fill: none; stroke: #000000; stroke-width: 0.8; stroke-linejoin: miter; stroke-linecap: square"/>
   </g>
   <g id="text_24">
    <!-- b -->
    <g transform="translate(544.871761 137.404046) scale(0.28 -0.28)">
     <defs>
      <path id="DejaVuSans-Bold-62" d="M 2400 722 
Q 2759 722 2948 984 
Q 3138 1247 3138 1747 
Q 3138 2247 2948 2509 
Q 2759 2772 2400 2772 
Q 2041 2772 1848 2508 
Q 1656 2244 1656 1747 
Q 1656 1250 1848 986 
Q 2041 722 2400 722 
z
M 1656 2988 
Q 1888 3294 2169 3439 
Q 2450 3584 2816 3584 
Q 3463 3584 3878 3070 
Q 4294 2556 4294 1747 
Q 4294 938 3878 423 
Q 3463 -91 2816 -91 
Q 2450 -91 2169 54 
Q 1888 200 1656 506 
L 1656 0 
L 538 0 
L 538 4863 
L 1656 4863 
L 1656 2988 
z
" transform="scale(0.015625)"/>
     </defs>
     <use xlink:href="#DejaVuSans-Bold-62"/>
    </g>
   </g>
   <g id="text_25">
    <!-- Metrics -->
    <g transform="translate(734.584759 149.52) scale(0.26 -0.26)">
     <defs>
      <path id="DejaVuSans-73" d="M 2834 3397 
L 2834 2853 
Q 2591 2978 2328 3040 
Q 2066 3103 1784 3103 
Q 1356 3103 1142 2972 
Q 928 2841 928 2578 
Q 928 2378 1081 2264 
Q 1234 2150 1697 2047 
L 1894 2003 
Q 2506 1872 2764 1633 
Q 3022 1394 3022 966 
Q 3022 478 2636 193 
Q 2250 -91 1575 -91 
Q 1294 -91 989 -36 
Q 684 19 347 128 
L 347 722 
Q 666 556 975 473 
Q 1284 391 1588 391 
Q 1994 391 2212 530 
Q 2431 669 2431 922 
Q 2431 1156 2273 1281 
Q 2116 1406 1581 1522 
L 1381 1569 
Q 847 1681 609 1914 
Q 372 2147 372 2553 
Q 372 3047 722 3315 
Q 1072 3584 1716 3584 
Q 2034 3584 2315 3537 
Q 2597 3491 2834 3397 
z
" transform="scale(0.015625)"/>
     </defs>
     <use xlink:href="#DejaVuSans-4d"/>
     <use xlink:href="#DejaVuSans-65" x="86.279297"/>
     <use xlink:href="#DejaVuSans-74" x="147.802734"/>
     <use xlink:href="#DejaVuSans-72" x="187.011719"/>
     <use xlink:href="#DejaVuSans-69" x="228.125"/>
     <use xlink:href="#DejaVuSans-63" x="255.908203"/>
     <use xlink:href="#DejaVuSans-73" x="310.888672"/>
    </g>
   </g>
  </g>
  <g id="axes_3">
   <g id="patch_24">
    <path d="M 135 785.785263 
L 515.454545 785.785263 
L 515.454545 523.174737 
L 135 523.174737 
z
" style="fill: #ffffff"/>
   </g>
   <g id="matplotlib.axis_5">
    <g id="xtick_10">
     <g id="line2d_23">
      <g>
       <use xlink:href="#m894e1951d3" x="137.882231" y="785.785263" style="stroke: #000000; stroke-width: 0.8"/>
      </g>
     </g>
     <g id="text_26">
      <!-- 0 -->
      <g transform="translate(130.883481 809.501826) scale(0.22 -0.22)">
       <use xlink:href="#DejaVuSans-30"/>
      </g>
     </g>
    </g>
    <g id="xtick_11">
     <g id="line2d_24">
      <g>
       <use xlink:href="#m894e1951d3" x="281.993802" y="785.785263" style="stroke: #000000; stroke-width: 0.8"/>
      </g>
     </g>
     <g id="text_27">
      <!-- 20 -->
      <g transform="translate(267.996302 809.501826) scale(0.22 -0.22)">
       <use xlink:href="#DejaVuSans-32"/>
       <use xlink:href="#DejaVuSans-30" x="63.623047"/>
      </g>
     </g>
    </g>
    <g id="xtick_12">
     <g id="line2d_25">
      <g>
       <use xlink:href="#m894e1951d3" x="426.105372" y="785.785263" style="stroke: #000000; stroke-width: 0.8"/>
      </g>
     </g>
     <g id="text_28">
      <!-- 40 -->
      <g transform="translate(412.107872 809.501826) scale(0.22 -0.22)">
       <use xlink:href="#DejaVuSans-34"/>
       <use xlink:href="#DejaVuSans-30" x="63.623047"/>
      </g>
     </g>
    </g>
    <g id="text_29">
     <!-- k -->
     <g transform="translate(318.278523 836.313388) scale(0.24 -0.24)">
      <use xlink:href="#DejaVuSans-6b"/>
     </g>
    </g>
   </g>
   <g id="matplotlib.axis_6">
    <g id="ytick_10">
     <g id="line2d_26">
      <g>
       <use xlink:href="#m31f6279df9" x="135" y="737.489437" style="stroke: #000000; stroke-width: 0.8"/>
      </g>
     </g>
     <g id="text_30">
      <!-- 0.80 -->
      <g transform="translate(79.015625 745.847718) scale(0.22 -0.22)">
       <use xlink:href="#DejaVuSans-30"/>
       <use xlink:href="#DejaVuSans-2e" x="63.623047"/>
       <use xlink:href="#DejaVuSans-38" x="95.410156"/>
       <use xlink:href="#DejaVuSans-30" x="159.033203"/>
      </g>
     </g>
    </g>
    <g id="ytick_11">
     <g id="line2d_27">
      <g>
       <use xlink:href="#m31f6279df9" x="135" y="683.701875" style="stroke: #000000; stroke-width: 0.8"/>
      </g>
     </g>
     <g id="text_31">
      <!-- 0.85 -->
      <g transform="translate(79.015625 692.060156) scale(0.22 -0.22)">
       <use xlink:href="#DejaVuSans-30"/>
       <use xlink:href="#DejaVuSans-2e" x="63.623047"/>
       <use xlink:href="#DejaVuSans-38" x="95.410156"/>
       <use xlink:href="#DejaVuSans-35" x="159.033203"/>
      </g>
     </g>
    </g>
    <g id="ytick_12">
     <g id="line2d_28">
      <g>
       <use xlink:href="#m31f6279df9" x="135" y="629.914312" style="stroke: #000000; stroke-width: 0.8"/>
      </g>
     </g>
     <g id="text_32">
      <!-- 0.90 -->
      <g transform="translate(79.015625 638.272594) scale(0.22 -0.22)">
       <defs>
        <path id="DejaVuSans-39" d="M 703 97 
L 703 672 
Q 941 559 1184 500 
Q 1428 441 1663 441 
Q 2288 441 2617 861 
Q 2947 1281 2994 2138 
Q 2813 1869 2534 1725 
Q 2256 1581 1919 1581 
Q 1219 1581 811 2004 
Q 403 2428 403 3163 
Q 403 3881 828 4315 
Q 1253 4750 1959 4750 
Q 2769 4750 3195 4129 
Q 3622 3509 3622 2328 
Q 3622 1225 3098 567 
Q 2575 -91 1691 -91 
Q 1453 -91 1209 -44 
Q 966 3 703 97 
z
M 1959 2075 
Q 2384 2075 2632 2365 
Q 2881 2656 2881 3163 
Q 2881 3666 2632 3958 
Q 2384 4250 1959 4250 
Q 1534 4250 1286 3958 
Q 1038 3666 1038 3163 
Q 1038 2656 1286 2365 
Q 1534 2075 1959 2075 
z
" transform="scale(0.015625)"/>
       </defs>
       <use xlink:href="#DejaVuSans-30"/>
       <use xlink:href="#DejaVuSans-2e" x="63.623047"/>
       <use xlink:href="#DejaVuSans-39" x="95.410156"/>
       <use xlink:href="#DejaVuSans-30" x="159.033203"/>
      </g>
     </g>
    </g>
    <g id="ytick_13">
     <g id="line2d_29">
      <g>
       <use xlink:href="#m31f6279df9" x="135" y="576.12675" style="stroke: #000000; stroke-width: 0.8"/>
      </g>
     </g>
     <g id="text_33">
      <!-- 0.95 -->
      <g transform="translate(79.015625 584.485032) scale(0.22 -0.22)">
       <use xlink:href="#DejaVuSans-30"/>
       <use xlink:href="#DejaVuSans-2e" x="63.623047"/>
       <use xlink:href="#DejaVuSans-39" x="95.410156"/>
       <use xlink:href="#DejaVuSans-35" x="159.033203"/>
      </g>
     </g>
    </g>
    <g id="text_34">
     <!-- Metric Value -->
     <g transform="translate(70.024375 728.555625) rotate(-90) scale(0.24 -0.24)">
      <use xlink:href="#DejaVuSans-4d"/>
      <use xlink:href="#DejaVuSans-65" x="86.279297"/>
      <use xlink:href="#DejaVuSans-74" x="147.802734"/>
      <use xlink:href="#DejaVuSans-72" x="187.011719"/>
      <use xlink:href="#DejaVuSans-69" x="228.125"/>
      <use xlink:href="#DejaVuSans-63" x="255.908203"/>
      <use xlink:href="#DejaVuSans-20" x="310.888672"/>
      <use xlink:href="#DejaVuSans-56" x="342.675781"/>
      <use xlink:href="#DejaVuSans-61" x="403.333984"/>
      <use xlink:href="#DejaVuSans-6c" x="464.613281"/>
      <use xlink:href="#DejaVuSans-75" x="492.396484"/>
      <use xlink:href="#DejaVuSans-65" x="555.775391"/>
     </g>
    </g>
   </g>
   <g id="line2d_30">
    <path d="M 152.293388 773.848421 
L 173.910124 766.363427 
L 209.938017 767.639586 
L 281.993802 769.846439 
L 498.161157 770.71018 
" clip-path="url(#pba9ab9f959)" style="fill: none; stroke: #1f77b4; stroke-width: 1.5; stroke-linecap: square"/>
    <g clip-path="url(#pba9ab9f959)">
     <use xlink:href="#m19ae36e9c3" x="152.293388" y="773.848421" style="fill: #1f77b4; stroke: #1f77b4"/>
     <use xlink:href="#m19ae36e9c3" x="173.910124" y="766.363427" style="fill: #1f77b4; stroke: #1f77b4"/>
     <use xlink:href="#m19ae36e9c3" x="209.938017" y="767.639586" style="fill: #1f77b4; stroke: #1f77b4"/>
     <use xlink:href="#m19ae36e9c3" x="281.993802" y="769.846439" style="fill: #1f77b4; stroke: #1f77b4"/>
     <use xlink:href="#m19ae36e9c3" x="498.161157" y="770.71018" style="fill: #1f77b4; stroke: #1f77b4"/>
    </g>
   </g>
   <g id="line2d_31">
    <path d="M 152.293388 535.111579 
L 173.910124 541.885102 
L 209.938017 554.44038 
L 281.993802 567.300949 
L 498.161157 617.295432 
" clip-path="url(#pba9ab9f959)" style="fill: none; stroke: #ff7f0e; stroke-width: 1.5; stroke-linecap: square"/>
    <g clip-path="url(#pba9ab9f959)">
     <use xlink:href="#mfcf68e911d" x="152.293388" y="535.111579" style="fill: #ff7f0e; stroke: #ff7f0e"/>
     <use xlink:href="#mfcf68e911d" x="173.910124" y="541.885102" style="fill: #ff7f0e; stroke: #ff7f0e"/>
     <use xlink:href="#mfcf68e911d" x="209.938017" y="554.44038" style="fill: #ff7f0e; stroke: #ff7f0e"/>
     <use xlink:href="#mfcf68e911d" x="281.993802" y="567.300949" style="fill: #ff7f0e; stroke: #ff7f0e"/>
     <use xlink:href="#mfcf68e911d" x="498.161157" y="617.295432" style="fill: #ff7f0e; stroke: #ff7f0e"/>
    </g>
   </g>
   <g id="line2d_32">
    <path d="M 152.293388 551.689988 
L 173.910124 558.709862 
L 209.938017 562.752338 
L 281.993802 578.743138 
L 498.161157 626.002944 
" clip-path="url(#pba9ab9f959)" style="fill: none; stroke: #2ca02c; stroke-width: 1.5; stroke-linecap: square"/>
    <g clip-path="url(#pba9ab9f959)">
     <use xlink:href="#mc5eed0f7c3" x="152.293388" y="551.689988" style="fill: #2ca02c; stroke: #2ca02c"/>
     <use xlink:href="#mc5eed0f7c3" x="173.910124" y="558.709862" style="fill: #2ca02c; stroke: #2ca02c"/>
     <use xlink:href="#mc5eed0f7c3" x="209.938017" y="562.752338" style="fill: #2ca02c; stroke: #2ca02c"/>
     <use xlink:href="#mc5eed0f7c3" x="281.993802" y="578.743138" style="fill: #2ca02c; stroke: #2ca02c"/>
     <use xlink:href="#mc5eed0f7c3" x="498.161157" y="626.002944" style="fill: #2ca02c; stroke: #2ca02c"/>
    </g>
   </g>
   <g id="line2d_33">
    <path d="M 152.293388 551.539081 
L 173.910124 557.971701 
L 209.938017 564.873007 
L 281.993802 576.771048 
L 498.161157 611.18887 
" clip-path="url(#pba9ab9f959)" style="fill: none; stroke: #d62728; stroke-width: 1.5; stroke-linecap: square"/>
    <g clip-path="url(#pba9ab9f959)">
     <use xlink:href="#m71b8917a6f" x="152.293388" y="551.539081" style="fill: #d62728; stroke: #d62728"/>
     <use xlink:href="#m71b8917a6f" x="173.910124" y="557.971701" style="fill: #d62728; stroke: #d62728"/>
     <use xlink:href="#m71b8917a6f" x="209.938017" y="564.873007" style="fill: #d62728; stroke: #d62728"/>
     <use xlink:href="#m71b8917a6f" x="281.993802" y="576.771048" style="fill: #d62728; stroke: #d62728"/>
     <use xlink:href="#m71b8917a6f" x="498.161157" y="611.18887" style="fill: #d62728; stroke: #d62728"/>
    </g>
   </g>
   <g id="patch_25">
    <path d="M 135 785.785263 
L 135 523.174737 
" style="fill: none; stroke: #000000; stroke-width: 0.8; stroke-linejoin: miter; stroke-linecap: square"/>
   </g>
   <g id="patch_26">
    <path d="M 515.454545 785.785263 
L 515.454545 523.174737 
" style="fill: none; stroke: #000000; stroke-width: 0.8; stroke-linejoin: miter; stroke-linecap: square"/>
   </g>
   <g id="patch_27">
    <path d="M 135 785.785263 
L 515.454545 785.785263 
" style="fill: none; stroke: #000000; stroke-width: 0.8; stroke-linejoin: miter; stroke-linecap: square"/>
   </g>
   <g id="patch_28">
    <path d="M 135 523.174737 
L 515.454545 523.174737 
" style="fill: none; stroke: #000000; stroke-width: 0.8; stroke-linejoin: miter; stroke-linecap: square"/>
   </g>
   <g id="text_35">
    <!-- c -->
    <g transform="translate(91.769432 505.058783) scale(0.28 -0.28)">
     <defs>
      <path id="DejaVuSans-Bold-63" d="M 3366 3391 
L 3366 2478 
Q 3138 2634 2908 2709 
Q 2678 2784 2431 2784 
Q 1963 2784 1702 2511 
Q 1441 2238 1441 1747 
Q 1441 1256 1702 982 
Q 1963 709 2431 709 
Q 2694 709 2930 787 
Q 3166 866 3366 1019 
L 3366 103 
Q 3103 6 2833 -42 
Q 2563 -91 2291 -91 
Q 1344 -91 809 395 
Q 275 881 275 1747 
Q 275 2613 809 3098 
Q 1344 3584 2291 3584 
Q 2566 3584 2833 3536 
Q 3100 3488 3366 3391 
z
" transform="scale(0.015625)"/>
     </defs>
     <use xlink:href="#DejaVuSans-Bold-63"/>
    </g>
   </g>
   <g id="text_36">
    <!-- Trustworthiness -->
    <g transform="translate(230.950398 517.174737) scale(0.24 -0.24)">
     <defs>
      <path id="DejaVuSans-54" d="M -19 4666 
L 3928 4666 
L 3928 4134 
L 2272 4134 
L 2272 0 
L 1638 0 
L 1638 4134 
L -19 4134 
L -19 4666 
z
" transform="scale(0.015625)"/>
      <path id="DejaVuSans-77" d="M 269 3500 
L 844 3500 
L 1563 769 
L 2278 3500 
L 2956 3500 
L 3675 769 
L 4391 3500 
L 4966 3500 
L 4050 0 
L 3372 0 
L 2619 2869 
L 1863 0 
L 1184 0 
L 269 3500 
z
" transform="scale(0.015625)"/>
      <path id="DejaVuSans-6f" d="M 1959 3097 
Q 1497 3097 1228 2736 
Q 959 2375 959 1747 
Q 959 1119 1226 758 
Q 1494 397 1959 397 
Q 2419 397 2687 759 
Q 2956 1122 2956 1747 
Q 2956 2369 2687 2733 
Q 2419 3097 1959 3097 
z
M 1959 3584 
Q 2709 3584 3137 3096 
Q 3566 2609 3566 1747 
Q 3566 888 3137 398 
Q 2709 -91 1959 -91 
Q 1206 -91 779 398 
Q 353 888 353 1747 
Q 353 2609 779 3096 
Q 1206 3584 1959 3584 
z
" transform="scale(0.015625)"/>
      <path id="DejaVuSans-68" d="M 3513 2113 
L 3513 0 
L 2938 0 
L 2938 2094 
Q 2938 2591 2744 2837 
Q 2550 3084 2163 3084 
Q 1697 3084 1428 2787 
Q 1159 2491 1159 1978 
L 1159 0 
L 581 0 
L 581 4863 
L 1159 4863 
L 1159 2956 
Q 1366 3272 1645 3428 
Q 1925 3584 2291 3584 
Q 2894 3584 3203 3211 
Q 3513 2838 3513 2113 
z
" transform="scale(0.015625)"/>
      <path id="DejaVuSans-6e" d="M 3513 2113 
L 3513 0 
L 2938 0 
L 2938 2094 
Q 2938 2591 2744 2837 
Q 2550 3084 2163 3084 
Q 1697 3084 1428 2787 
Q 1159 2491 1159 1978 
L 1159 0 
L 581 0 
L 581 3500 
L 1159 3500 
L 1159 2956 
Q 1366 3272 1645 3428 
Q 1925 3584 2291 3584 
Q 2894 3584 3203 3211 
Q 3513 2838 3513 2113 
z
" transform="scale(0.015625)"/>
     </defs>
     <use xlink:href="#DejaVuSans-54"/>
     <use xlink:href="#DejaVuSans-72" x="46.333984"/>
     <use xlink:href="#DejaVuSans-75" x="87.447266"/>
     <use xlink:href="#DejaVuSans-73" x="150.826172"/>
     <use xlink:href="#DejaVuSans-74" x="202.925781"/>
     <use xlink:href="#DejaVuSans-77" x="242.134766"/>
     <use xlink:href="#DejaVuSans-6f" x="323.921875"/>
     <use xlink:href="#DejaVuSans-72" x="385.103516"/>
     <use xlink:href="#DejaVuSans-74" x="426.216797"/>
     <use xlink:href="#DejaVuSans-68" x="465.425781"/>
     <use xlink:href="#DejaVuSans-69" x="528.804688"/>
     <use xlink:href="#DejaVuSans-6e" x="556.587891"/>
     <use xlink:href="#DejaVuSans-65" x="619.966797"/>
     <use xlink:href="#DejaVuSans-73" x="681.490234"/>
     <use xlink:href="#DejaVuSans-73" x="733.589844"/>
    </g>
   </g>
  </g>
  <g id="axes_4">
   <g id="patch_29">
    <path d="M 591.545455 785.785263 
L 972 785.785263 
L 972 523.174737 
L 591.545455 523.174737 
z
" style="fill: #ffffff"/>
   </g>
   <g id="matplotlib.axis_7">
    <g id="xtick_13">
     <g id="line2d_34">
      <g>
       <use xlink:href="#m894e1951d3" x="594.427686" y="785.785263" style="stroke: #000000; stroke-width: 0.8"/>
      </g>
     </g>
     <g id="text_37">
      <!-- 0 -->
      <g transform="translate(587.428936 809.501826) scale(0.22 -0.22)">
       <use xlink:href="#DejaVuSans-30"/>
      </g>
     </g>
    </g>
    <g id="xtick_14">
     <g id="line2d_35">
      <g>
       <use xlink:href="#m894e1951d3" x="738.539256" y="785.785263" style="stroke: #000000; stroke-width: 0.8"/>
      </g>
     </g>
     <g id="text_38">
      <!-- 20 -->
      <g transform="translate(724.541756 809.501826) scale(0.22 -0.22)">
       <use xlink:href="#DejaVuSans-32"/>
       <use xlink:href="#DejaVuSans-30" x="63.623047"/>
      </g>
     </g>
    </g>
    <g id="xtick_15">
     <g id="line2d_36">
      <g>
       <use xlink:href="#m894e1951d3" x="882.650826" y="785.785263" style="stroke: #000000; stroke-width: 0.8"/>
      </g>
     </g>
     <g id="text_39">
      <!-- 40 -->
      <g transform="translate(868.653326 809.501826) scale(0.22 -0.22)">
       <use xlink:href="#DejaVuSans-34"/>
       <use xlink:href="#DejaVuSans-30" x="63.623047"/>
      </g>
     </g>
    </g>
    <g id="text_40">
     <!-- k -->
     <g transform="translate(774.823977 836.313388) scale(0.24 -0.24)">
      <use xlink:href="#DejaVuSans-6b"/>
     </g>
    </g>
   </g>
   <g id="matplotlib.axis_8">
    <g id="ytick_14">
     <g id="line2d_37">
      <g>
       <use xlink:href="#m31f6279df9" x="591.545455" y="737.372526" style="stroke: #000000; stroke-width: 0.8"/>
      </g>
     </g>
     <g id="text_41">
      <!-- 0.900 -->
      <g transform="translate(521.56358 745.730807) scale(0.22 -0.22)">
       <use xlink:href="#DejaVuSans-30"/>
       <use xlink:href="#DejaVuSans-2e" x="63.623047"/>
       <use xlink:href="#DejaVuSans-39" x="95.410156"/>
       <use xlink:href="#DejaVuSans-30" x="159.033203"/>
       <use xlink:href="#DejaVuSans-30" x="222.65625"/>
      </g>
     </g>
    </g>
    <g id="ytick_15">
     <g id="line2d_38">
      <g>
       <use xlink:href="#m31f6279df9" x="591.545455" y="682.522765" style="stroke: #000000; stroke-width: 0.8"/>
      </g>
     </g>
     <g id="text_42">
      <!-- 0.925 -->
      <g transform="translate(521.56358 690.881047) scale(0.22 -0.22)">
       <use xlink:href="#DejaVuSans-30"/>
       <use xlink:href="#DejaVuSans-2e" x="63.623047"/>
       <use xlink:href="#DejaVuSans-39" x="95.410156"/>
       <use xlink:href="#DejaVuSans-32" x="159.033203"/>
       <use xlink:href="#DejaVuSans-35" x="222.65625"/>
      </g>
     </g>
    </g>
    <g id="ytick_16">
     <g id="line2d_39">
      <g>
       <use xlink:href="#m31f6279df9" x="591.545455" y="627.673005" style="stroke: #000000; stroke-width: 0.8"/>
      </g>
     </g>
     <g id="text_43">
      <!-- 0.950 -->
      <g transform="translate(521.56358 636.031286) scale(0.22 -0.22)">
       <use xlink:href="#DejaVuSans-30"/>
       <use xlink:href="#DejaVuSans-2e" x="63.623047"/>
       <use xlink:href="#DejaVuSans-39" x="95.410156"/>
       <use xlink:href="#DejaVuSans-35" x="159.033203"/>
       <use xlink:href="#DejaVuSans-30" x="222.65625"/>
      </g>
     </g>
    </g>
    <g id="ytick_17">
     <g id="line2d_40">
      <g>
       <use xlink:href="#m31f6279df9" x="591.545455" y="572.823245" style="stroke: #000000; stroke-width: 0.8"/>
      </g>
     </g>
     <g id="text_44">
      <!-- 0.975 -->
      <g transform="translate(521.56358 581.181526) scale(0.22 -0.22)">
       <defs>
        <path id="DejaVuSans-37" d="M 525 4666 
L 3525 4666 
L 3525 4397 
L 1831 0 
L 1172 0 
L 2766 4134 
L 525 4134 
L 525 4666 
z
" transform="scale(0.015625)"/>
       </defs>
       <use xlink:href="#DejaVuSans-30"/>
       <use xlink:href="#DejaVuSans-2e" x="63.623047"/>
       <use xlink:href="#DejaVuSans-39" x="95.410156"/>
       <use xlink:href="#DejaVuSans-37" x="159.033203"/>
       <use xlink:href="#DejaVuSans-35" x="222.65625"/>
      </g>
     </g>
    </g>
   </g>
   <g id="line2d_41">
    <path d="M 608.838843 611.317978 
L 630.455579 645.033078 
L 666.483471 676.788155 
L 738.539256 714.675499 
L 954.706612 773.848421 
" clip-path="url(#p2aaeb646b8)" style="fill: none; stroke: #1f77b4; stroke-width: 1.5; stroke-linecap: square"/>
    <g clip-path="url(#p2aaeb646b8)">
     <use xlink:href="#m19ae36e9c3" x="608.838843" y="611.317978" style="fill: #1f77b4; stroke: #1f77b4"/>
     <use xlink:href="#m19ae36e9c3" x="630.455579" y="645.033078" style="fill: #1f77b4; stroke: #1f77b4"/>
     <use xlink:href="#m19ae36e9c3" x="666.483471" y="676.788155" style="fill: #1f77b4; stroke: #1f77b4"/>
     <use xlink:href="#m19ae36e9c3" x="738.539256" y="714.675499" style="fill: #1f77b4; stroke: #1f77b4"/>
     <use xlink:href="#m19ae36e9c3" x="954.706612" y="773.848421" style="fill: #1f77b4; stroke: #1f77b4"/>
    </g>
   </g>
   <g id="line2d_42">
    <path d="M 608.838843 535.111579 
L 630.455579 553.945106 
L 666.483471 571.814672 
L 738.539256 603.813532 
L 954.706612 671.154871 
" clip-path="url(#p2aaeb646b8)" style="fill: none; stroke: #ff7f0e; stroke-width: 1.5; stroke-linecap: square"/>
    <g clip-path="url(#p2aaeb646b8)">
     <use xlink:href="#mfcf68e911d" x="608.838843" y="535.111579" style="fill: #ff7f0e; stroke: #ff7f0e"/>
     <use xlink:href="#mfcf68e911d" x="630.455579" y="553.945106" style="fill: #ff7f0e; stroke: #ff7f0e"/>
     <use xlink:href="#mfcf68e911d" x="666.483471" y="571.814672" style="fill: #ff7f0e; stroke: #ff7f0e"/>
     <use xlink:href="#mfcf68e911d" x="738.539256" y="603.813532" style="fill: #ff7f0e; stroke: #ff7f0e"/>
     <use xlink:href="#mfcf68e911d" x="954.706612" y="671.154871" style="fill: #ff7f0e; stroke: #ff7f0e"/>
    </g>
   </g>
   <g id="line2d_43">
    <path d="M 608.838843 537.050298 
L 630.455579 549.314136 
L 666.483471 567.908887 
L 738.539256 606.445315 
L 954.706612 685.251336 
" clip-path="url(#p2aaeb646b8)" style="fill: none; stroke: #2ca02c; stroke-width: 1.5; stroke-linecap: square"/>
    <g clip-path="url(#p2aaeb646b8)">
     <use xlink:href="#mc5eed0f7c3" x="608.838843" y="537.050298" style="fill: #2ca02c; stroke: #2ca02c"/>
     <use xlink:href="#mc5eed0f7c3" x="630.455579" y="549.314136" style="fill: #2ca02c; stroke: #2ca02c"/>
     <use xlink:href="#mc5eed0f7c3" x="666.483471" y="567.908887" style="fill: #2ca02c; stroke: #2ca02c"/>
     <use xlink:href="#mc5eed0f7c3" x="738.539256" y="606.445315" style="fill: #2ca02c; stroke: #2ca02c"/>
     <use xlink:href="#mc5eed0f7c3" x="954.706612" y="685.251336" style="fill: #2ca02c; stroke: #2ca02c"/>
    </g>
   </g>
   <g id="line2d_44">
    <path d="M 608.838843 571.040836 
L 630.455579 594.062137 
L 666.483471 617.297193 
L 738.539256 654.09789 
L 954.706612 745.248887 
" clip-path="url(#p2aaeb646b8)" style="fill: none; stroke: #d62728; stroke-width: 1.5; stroke-linecap: square"/>
    <g clip-path="url(#p2aaeb646b8)">
     <use xlink:href="#m71b8917a6f" x="608.838843" y="571.040836" style="fill: #d62728; stroke: #d62728"/>
     <use xlink:href="#m71b8917a6f" x="630.455579" y="594.062137" style="fill: #d62728; stroke: #d62728"/>
     <use xlink:href="#m71b8917a6f" x="666.483471" y="617.297193" style="fill: #d62728; stroke: #d62728"/>
     <use xlink:href="#m71b8917a6f" x="738.539256" y="654.09789" style="fill: #d62728; stroke: #d62728"/>
     <use xlink:href="#m71b8917a6f" x="954.706612" y="745.248887" style="fill: #d62728; stroke: #d62728"/>
    </g>
   </g>
   <g id="patch_30">
    <path d="M 591.545455 785.785263 
L 591.545455 523.174737 
" style="fill: none; stroke: #000000; stroke-width: 0.8; stroke-linejoin: miter; stroke-linecap: square"/>
   </g>
   <g id="patch_31">
    <path d="M 972 785.785263 
L 972 523.174737 
" style="fill: none; stroke: #000000; stroke-width: 0.8; stroke-linejoin: miter; stroke-linecap: square"/>
   </g>
   <g id="patch_32">
    <path d="M 591.545455 785.785263 
L 972 785.785263 
" style="fill: none; stroke: #000000; stroke-width: 0.8; stroke-linejoin: miter; stroke-linecap: square"/>
   </g>
   <g id="patch_33">
    <path d="M 591.545455 523.174737 
L 972 523.174737 
" style="fill: none; stroke: #000000; stroke-width: 0.8; stroke-linejoin: miter; stroke-linecap: square"/>
   </g>
   <g id="text_45">
    <!-- d -->
    <g transform="translate(544.871761 505.058783) scale(0.28 -0.28)">
     <defs>
      <path id="DejaVuSans-Bold-64" d="M 2919 2988 
L 2919 4863 
L 4044 4863 
L 4044 0 
L 2919 0 
L 2919 506 
Q 2688 197 2409 53 
Q 2131 -91 1766 -91 
Q 1119 -91 703 423 
Q 288 938 288 1747 
Q 288 2556 703 3070 
Q 1119 3584 1766 3584 
Q 2128 3584 2408 3439 
Q 2688 3294 2919 2988 
z
M 2181 722 
Q 2541 722 2730 984 
Q 2919 1247 2919 1747 
Q 2919 2247 2730 2509 
Q 2541 2772 2181 2772 
Q 1825 2772 1636 2509 
Q 1447 2247 1447 1747 
Q 1447 1247 1636 984 
Q 1825 722 2181 722 
z
" transform="scale(0.015625)"/>
     </defs>
     <use xlink:href="#DejaVuSans-Bold-64"/>
    </g>
   </g>
   <g id="text_46">
    <!-- Continuity -->
    <g transform="translate(720.057102 517.174737) scale(0.24 -0.24)">
     <defs>
      <path id="DejaVuSans-79" d="M 2059 -325 
Q 1816 -950 1584 -1140 
Q 1353 -1331 966 -1331 
L 506 -1331 
L 506 -850 
L 844 -850 
Q 1081 -850 1212 -737 
Q 1344 -625 1503 -206 
L 1606 56 
L 191 3500 
L 800 3500 
L 1894 763 
L 2988 3500 
L 3597 3500 
L 2059 -325 
z
" transform="scale(0.015625)"/>
     </defs>
     <use xlink:href="#DejaVuSans-43"/>
     <use xlink:href="#DejaVuSans-6f" x="69.824219"/>
     <use xlink:href="#DejaVuSans-6e" x="131.005859"/>
     <use xlink:href="#DejaVuSans-74" x="194.384766"/>
     <use xlink:href="#DejaVuSans-69" x="233.59375"/>
     <use xlink:href="#DejaVuSans-6e" x="261.376953"/>
     <use xlink:href="#DejaVuSans-75" x="324.755859"/>
     <use xlink:href="#DejaVuSans-69" x="388.134766"/>
     <use xlink:href="#DejaVuSans-74" x="415.917969"/>
     <use xlink:href="#DejaVuSans-79" x="455.126953"/>
    </g>
   </g>
  </g>
  <g id="axes_5">
   <g id="patch_34">
    <path d="M 135 1153.44 
L 515.454545 1153.44 
L 515.454545 890.829474 
L 135 890.829474 
z
" style="fill: #ffffff"/>
   </g>
   <g id="matplotlib.axis_9">
    <g id="xtick_16">
     <g id="line2d_45">
      <g>
       <use xlink:href="#m894e1951d3" x="152.105007" y="1153.44" style="stroke: #000000; stroke-width: 0.8"/>
      </g>
     </g>
     <g id="text_47">
      <!-- 0 -->
      <g transform="translate(145.106257 1177.156562) scale(0.22 -0.22)">
       <use xlink:href="#DejaVuSans-30"/>
      </g>
     </g>
    </g>
    <g id="xtick_17">
     <g id="line2d_46">
      <g>
       <use xlink:href="#m894e1951d3" x="246.295576" y="1153.44" style="stroke: #000000; stroke-width: 0.8"/>
      </g>
     </g>
     <g id="text_48">
      <!-- 500 -->
      <g transform="translate(225.299326 1177.156562) scale(0.22 -0.22)">
       <use xlink:href="#DejaVuSans-35"/>
       <use xlink:href="#DejaVuSans-30" x="63.623047"/>
       <use xlink:href="#DejaVuSans-30" x="127.246094"/>
      </g>
     </g>
    </g>
    <g id="xtick_18">
     <g id="line2d_47">
      <g>
       <use xlink:href="#m894e1951d3" x="340.486145" y="1153.44" style="stroke: #000000; stroke-width: 0.8"/>
      </g>
     </g>
     <g id="text_49">
      <!-- 1000 -->
      <g transform="translate(312.491145 1177.156562) scale(0.22 -0.22)">
       <use xlink:href="#DejaVuSans-31"/>
       <use xlink:href="#DejaVuSans-30" x="63.623047"/>
       <use xlink:href="#DejaVuSans-30" x="127.246094"/>
       <use xlink:href="#DejaVuSans-30" x="190.869141"/>
      </g>
     </g>
    </g>
    <g id="xtick_19">
     <g id="line2d_48">
      <g>
       <use xlink:href="#m894e1951d3" x="434.676714" y="1153.44" style="stroke: #000000; stroke-width: 0.8"/>
      </g>
     </g>
     <g id="text_50">
      <!-- 1500 -->
      <g transform="translate(406.681714 1177.156562) scale(0.22 -0.22)">
       <use xlink:href="#DejaVuSans-31"/>
       <use xlink:href="#DejaVuSans-35" x="63.623047"/>
       <use xlink:href="#DejaVuSans-30" x="127.246094"/>
       <use xlink:href="#DejaVuSans-30" x="190.869141"/>
      </g>
     </g>
    </g>
    <g id="text_51">
     <!-- k -->
     <g transform="translate(318.278523 1203.968125) scale(0.24 -0.24)">
      <use xlink:href="#DejaVuSans-6b"/>
     </g>
    </g>
   </g>
   <g id="matplotlib.axis_10">
    <g id="ytick_18">
     <g id="line2d_49">
      <g>
       <use xlink:href="#m31f6279df9" x="135" y="1092.557975" style="stroke: #000000; stroke-width: 0.8"/>
      </g>
     </g>
     <g id="text_52">
      <!-- 0.25 -->
      <g transform="translate(79.015625 1100.916256) scale(0.22 -0.22)">
       <use xlink:href="#DejaVuSans-30"/>
       <use xlink:href="#DejaVuSans-2e" x="63.623047"/>
       <use xlink:href="#DejaVuSans-32" x="95.410156"/>
       <use xlink:href="#DejaVuSans-35" x="159.033203"/>
      </g>
     </g>
    </g>
    <g id="ytick_19">
     <g id="line2d_50">
      <g>
       <use xlink:href="#m31f6279df9" x="135" y="1029.294089" style="stroke: #000000; stroke-width: 0.8"/>
      </g>
     </g>
     <g id="text_53">
      <!-- 0.50 -->
      <g transform="translate(79.015625 1037.65237) scale(0.22 -0.22)">
       <use xlink:href="#DejaVuSans-30"/>
       <use xlink:href="#DejaVuSans-2e" x="63.623047"/>
       <use xlink:href="#DejaVuSans-35" x="95.410156"/>
       <use xlink:href="#DejaVuSans-30" x="159.033203"/>
      </g>
     </g>
    </g>
    <g id="ytick_20">
     <g id="line2d_51">
      <g>
       <use xlink:href="#m31f6279df9" x="135" y="966.030202" style="stroke: #000000; stroke-width: 0.8"/>
      </g>
     </g>
     <g id="text_54">
      <!-- 0.75 -->
      <g transform="translate(79.015625 974.388483) scale(0.22 -0.22)">
       <use xlink:href="#DejaVuSans-30"/>
       <use xlink:href="#DejaVuSans-2e" x="63.623047"/>
       <use xlink:href="#DejaVuSans-37" x="95.410156"/>
       <use xlink:href="#DejaVuSans-35" x="159.033203"/>
      </g>
     </g>
    </g>
    <g id="ytick_21">
     <g id="line2d_52">
      <g>
       <use xlink:href="#m31f6279df9" x="135" y="902.766316" style="stroke: #000000; stroke-width: 0.8"/>
      </g>
     </g>
     <g id="text_55">
      <!-- 1.00 -->
      <g transform="translate(79.015625 911.124597) scale(0.22 -0.22)">
       <use xlink:href="#DejaVuSans-31"/>
       <use xlink:href="#DejaVuSans-2e" x="63.623047"/>
       <use xlink:href="#DejaVuSans-30" x="95.410156"/>
       <use xlink:href="#DejaVuSans-30" x="159.033203"/>
      </g>
     </g>
    </g>
    <g id="text_56">
     <!-- Metric Value -->
     <g transform="translate(70.024375 1096.210362) rotate(-90) scale(0.24 -0.24)">
      <use xlink:href="#DejaVuSans-4d"/>
      <use xlink:href="#DejaVuSans-65" x="86.279297"/>
      <use xlink:href="#DejaVuSans-74" x="147.802734"/>
      <use xlink:href="#DejaVuSans-72" x="187.011719"/>
      <use xlink:href="#DejaVuSans-69" x="228.125"/>
      <use xlink:href="#DejaVuSans-63" x="255.908203"/>
      <use xlink:href="#DejaVuSans-20" x="310.888672"/>
      <use xlink:href="#DejaVuSans-56" x="342.675781"/>
      <use xlink:href="#DejaVuSans-61" x="403.333984"/>
      <use xlink:href="#DejaVuSans-6c" x="464.613281"/>
      <use xlink:href="#DejaVuSans-75" x="492.396484"/>
      <use xlink:href="#DejaVuSans-65" x="555.775391"/>
     </g>
    </g>
   </g>
   <g id="line2d_53">
    <path d="M 152.293388 1141.503158 
L 152.858532 1123.294999 
L 153.612056 1112.728071 
L 154.1772 1107.79663 
L 155.119105 1102.660233 
L 155.684249 1099.815152 
L 156.437773 1096.876932 
L 157.002917 1095.01503 
L 157.756441 1093.021497 
L 158.321585 1092.130333 
L 159.263491 1090.260895 
L 160.77054 1087.831965 
L 161.524064 1086.26876 
L 162.842732 1084.151051 
L 164.1614 1082.503044 
L 164.538162 1082.113082 
L 164.914925 1081.598255 
L 166.610355 1079.727823 
L 168.117404 1077.613233 
L 168.682547 1076.834311 
L 169.436072 1075.829874 
L 173.392076 1070.00224 
L 174.1456 1069.300084 
L 175.841031 1067.788716 
L 179.04351 1065.558766 
L 181.115702 1064.386355 
L 182.057608 1063.845667 
L 184.129801 1062.619089 
L 184.694944 1062.23777 
L 185.825231 1061.543476 
L 188.085805 1060.14951 
L 189.02771 1059.536589 
L 190.534759 1058.58075 
L 192.418571 1057.223152 
L 192.983714 1056.857339 
L 196.751337 1054.225177 
L 198.823529 1052.766836 
L 202.591152 1050.187518 
L 205.793632 1047.909852 
L 206.735537 1047.285045 
L 208.242586 1046.301707 
L 209.938017 1045.210685 
L 212.19859 1043.806148 
L 219.922217 1039.211626 
L 221.052504 1038.531804 
L 228.022606 1034.527631 
L 234.239183 1031.260763 
L 236.499757 1030.133382 
L 239.890617 1028.450578 
L 242.151191 1027.226299 
L 275.494652 1009.252738 
L 282.841517 1005.094377 
L 289.246475 1001.548575 
L 294.144385 998.873235 
L 300.737725 995.405479 
L 302.433155 994.50888 
L 316.373359 987.834931 
L 319.76422 986.257072 
L 332.762518 980.16952 
L 342.369956 976.151851 
L 346.32596 974.455047 
L 349.905202 972.892559 
L 361.019689 967.986957 
L 367.424648 965.331504 
L 372.887701 963.270027 
L 389.27686 956.714832 
L 403.593826 951.015416 
L 407.738211 949.076355 
L 412.070977 946.826159 
L 418.475936 943.221307 
L 426.576325 938.248499 
L 432.039378 934.501056 
L 439.197861 929.465093 
L 444.472533 926.10917 
L 448.240156 924.151446 
L 451.254254 922.891848 
L 454.456733 921.717152 
L 461.238454 919.606884 
L 463.499028 918.913337 
L 468.396937 917.467062 
L 470.280749 917.057793 
L 473.483228 916.437698 
L 474.990277 915.7965 
L 477.627613 914.456195 
L 489.307244 908.403575 
L 491.944579 907.045762 
L 496.277346 904.04349 
L 496.654108 903.863614 
L 498.161157 902.766316 
L 498.161157 902.766316 
" clip-path="url(#p1de440b863)" style="fill: none; stroke: #1f77b4; stroke-width: 1.5; stroke-linecap: square"/>
   </g>
   <g id="line2d_54">
    <path d="M 152.293388 1019.38114 
L 152.48177 1006.989954 
L 152.858532 1000.828782 
L 153.235294 996.526287 
L 153.423675 996.191921 
L 153.988819 998.563948 
L 154.1772 998.403739 
L 154.553962 997.320593 
L 155.307487 999.004524 
L 155.684249 998.627716 
L 156.249392 999.793054 
L 156.814536 1000.673203 
L 157.191298 1001.747922 
L 157.56806 1003.068453 
L 157.944823 1003.858848 
L 158.698347 1006.124538 
L 159.075109 1007.142519 
L 159.640253 1007.843569 
L 159.828634 1007.601119 
L 161.147302 1007.724247 
L 161.335683 1007.827273 
L 161.712445 1008.264168 
L 161.900826 1008.229073 
L 163.784638 1010.081089 
L 164.1614 1010.588992 
L 164.538162 1010.932604 
L 165.291687 1011.914959 
L 165.668449 1012.237086 
L 166.421974 1012.931927 
L 166.610355 1012.974557 
L 168.870929 1015.027982 
L 169.812834 1015.97869 
L 170.566359 1016.555894 
L 171.885027 1016.939618 
L 172.261789 1016.994261 
L 172.638551 1017.279312 
L 173.203695 1017.796593 
L 174.899125 1018.53458 
L 176.029412 1018.579995 
L 176.594555 1018.742517 
L 176.971317 1018.882572 
L 178.101604 1019.919887 
L 179.231891 1021.045728 
L 181.304084 1022.454509 
L 182.057608 1022.833527 
L 182.811133 1023.204078 
L 184.506563 1023.961396 
L 185.448469 1024.364839 
L 186.201993 1024.754457 
L 190.534759 1025.827796 
L 195.997812 1026.935804 
L 197.31648 1027.344771 
L 198.446767 1027.641371 
L 200.51896 1028.040506 
L 211.068303 1030.089377 
L 213.89402 1030.726714 
L 216.908119 1031.069918 
L 219.357073 1031.018365 
L 220.48736 1030.946626 
L 221.429266 1030.964205 
L 222.371172 1030.969132 
L 225.573651 1031.097694 
L 231.225085 1030.806928 
L 240.26738 1030.731195 
L 241.397667 1030.557025 
L 243.65824 1030.234617 
L 254.395965 1028.295846 
L 256.468158 1027.857148 
L 258.54035 1027.531543 
L 264.191784 1026.182061 
L 267.017501 1025.595692 
L 268.712931 1025.080062 
L 270.785124 1024.435957 
L 272.668935 1023.835298 
L 278.131988 1022.085345 
L 281.899611 1020.702787 
L 284.160185 1019.800072 
L 285.667234 1019.198214 
L 289.434857 1017.763355 
L 293.014098 1016.314266 
L 296.216578 1014.916534 
L 299.230676 1013.610751 
L 308.084589 1009.574777 
L 311.663831 1008.129267 
L 317.503646 1005.880989 
L 328.429752 1001.151358 
L 340.486145 995.184872 
L 342.746719 994.080973 
L 362.149976 984.846838 
L 367.424648 982.297443 
L 371.569033 980.363028 
L 375.148274 978.570347 
L 384.944093 973.559262 
L 389.27686 971.308677 
L 399.26106 965.844145 
L 412.447739 957.761143 
L 417.157268 954.809784 
L 424.504132 950.052009 
L 429.967185 946.281733 
L 446.733106 934.437873 
L 452.007778 931.138135 
L 457.470831 928.007761 
L 458.97788 927.339336 
L 461.615216 926.137196 
L 471.599417 920.505909 
L 475.932183 917.812103 
L 478.381138 916.308861 
L 481.018474 914.689421 
L 484.597715 912.232838 
L 488.7421 909.604004 
L 498.161157 902.766316 
L 498.161157 902.766316 
" clip-path="url(#p1de440b863)" style="fill: none; stroke: #ff7f0e; stroke-width: 1.5; stroke-linecap: square"/>
   </g>
   <g id="line2d_55">
    <path d="M 152.293388 1083.402266 
L 152.670151 1047.743187 
L 153.235294 1025.140747 
L 153.612056 1017.591302 
L 154.1772 1011.470807 
L 154.553962 1008.811565 
L 154.930724 1007.136813 
L 155.119105 1007.351364 
L 155.307487 1007.249117 
L 155.495868 1006.706946 
L 155.87263 1007.106982 
L 156.061011 1007.173528 
L 156.249392 1007.096343 
L 156.626155 1007.75293 
L 157.002917 1008.04903 
L 157.756441 1009.47737 
L 158.509966 1010.618223 
L 159.263491 1011.413825 
L 159.451872 1011.897005 
L 159.640253 1012.001501 
L 160.205396 1011.885593 
L 160.77054 1012.126011 
L 161.147302 1011.94356 
L 161.524064 1011.960197 
L 162.46597 1012.749978 
L 163.031113 1013.017008 
L 163.407876 1013.336995 
L 164.1614 1014.188029 
L 164.538162 1014.670821 
L 164.914925 1015.14546 
L 166.045211 1016.244272 
L 166.421974 1016.63479 
L 167.363879 1017.47062 
L 168.494166 1018.453779 
L 170.377978 1019.569918 
L 171.508264 1019.929186 
L 172.638551 1020.313321 
L 175.087506 1022.256617 
L 177.34808 1023.351251 
L 180.73894 1026.553173 
L 181.869227 1027.348272 
L 184.129801 1028.487447 
L 186.955518 1029.749548 
L 188.085805 1030.045921 
L 189.02771 1030.372346 
L 189.969616 1030.435941 
L 191.853427 1030.56518 
L 192.795333 1030.63073 
L 195.809431 1030.91064 
L 199.011911 1031.231006 
L 199.765435 1031.256979 
L 202.21439 1031.274401 
L 203.533058 1031.347182 
L 207.300681 1031.223956 
L 209.372873 1031.35838 
L 210.50316 1031.227824 
L 213.517258 1031.160368 
L 214.459164 1031.197897 
L 217.473262 1031.129555 
L 222.371172 1030.660183 
L 225.573651 1030.279735 
L 227.457462 1029.991093 
L 229.529655 1029.635776 
L 236.499757 1028.405009 
L 239.702236 1028.217817 
L 244.600146 1027.576876 
L 246.483957 1027.334693 
L 247.802625 1027.156799 
L 251.193486 1026.834959 
L 257.221682 1025.461753 
L 258.728731 1025.079772 
L 261.931211 1024.37044 
L 264.756928 1023.800479 
L 268.52455 1023.242859 
L 270.219981 1022.91624 
L 279.827419 1020.450291 
L 283.783422 1019.286005 
L 286.797521 1018.520015 
L 291.69543 1017.169716 
L 297.158483 1015.560077 
L 303.18668 1013.514983 
L 310.345163 1010.901045 
L 312.417355 1009.963257 
L 320.517744 1006.212233 
L 323.15508 1004.983134 
L 325.792416 1003.702214 
L 331.255469 1001.139358 
L 334.834711 999.433886 
L 339.355858 997.244327 
L 343.500243 995.114526 
L 352.165775 990.713268 
L 362.338357 985.485992 
L 375.901799 977.847606 
L 390.97229 968.95579 
L 397.56563 964.75109 
L 407.926592 957.816657 
L 417.157268 952.038868 
L 420.736509 949.728272 
L 435.053476 940.049411 
L 445.979582 932.33465 
L 449.935586 929.94341 
L 452.572922 928.557159 
L 455.775401 926.963804 
L 458.97788 925.418749 
L 465.194458 922.716141 
L 469.338843 920.745308 
L 471.222654 919.916559 
L 474.048371 918.64727 
L 479.699806 915.355431 
L 482.902285 913.265109 
L 490.060768 908.721775 
L 495.900583 904.430243 
L 498.161157 902.766316 
L 498.161157 902.766316 
" clip-path="url(#p1de440b863)" style="fill: none; stroke: #2ca02c; stroke-width: 1.5; stroke-linecap: square"/>
   </g>
   <g id="line2d_56">
    <path d="M 152.293388 1078.170432 
L 152.670151 1055.958084 
L 153.235294 1040.331422 
L 153.612056 1032.581195 
L 154.742343 1021.731532 
L 156.249392 1015.451006 
L 156.626155 1014.338616 
L 157.002917 1013.206729 
L 157.56806 1012.587352 
L 157.756441 1012.203431 
L 157.944823 1012.128521 
L 158.698347 1010.730912 
L 159.075109 1010.175196 
L 159.828634 1009.159251 
L 160.958921 1008.202709 
L 161.147302 1008.206126 
L 162.089208 1007.491317 
L 162.46597 1007.252798 
L 162.842732 1007.265314 
L 163.219494 1007.447332 
L 163.784638 1007.753856 
L 166.798736 1008.74449 
L 167.175498 1008.8624 
L 167.552261 1009.011497 
L 167.740642 1009.041882 
L 168.494166 1009.484017 
L 169.436072 1009.936602 
L 170.189596 1010.104961 
L 171.131502 1010.209754 
L 172.45017 1010.70986 
L 173.392076 1011.061866 
L 173.957219 1011.395709 
L 174.522363 1011.632889 
L 177.34808 1014.376375 
L 179.608653 1017.097164 
L 180.927321 1018.462375 
L 183.94142 1021.286662 
L 185.63685 1022.894296 
L 186.578755 1023.756049 
L 187.897423 1024.830363 
L 189.404473 1026.216457 
L 190.534759 1027.179623 
L 194.679144 1030.129306 
L 196.939718 1031.385896 
L 199.200292 1032.475044 
L 200.51896 1033.054302 
L 202.402771 1033.828757 
L 205.228488 1034.520064 
L 207.865824 1034.977103 
L 210.126398 1035.284503 
L 216.154594 1035.604684 
L 222.747934 1034.942266 
L 230.471561 1033.541644 
L 233.108896 1032.908344 
L 234.992708 1032.496709 
L 236.876519 1032.056252 
L 238.760331 1031.699295 
L 247.614244 1029.950444 
L 249.309674 1029.534761 
L 251.381867 1028.974316 
L 256.091395 1027.813781 
L 258.917112 1026.953046 
L 266.82912 1024.305059 
L 274.929509 1020.949043 
L 280.957705 1018.228172 
L 283.595041 1017.108436 
L 286.043996 1016.059396 
L 288.30457 1015.050985 
L 293.014098 1012.955651 
L 295.651434 1011.715155 
L 323.720224 998.008725 
L 325.227273 997.228169 
L 328.618133 995.46599 
L 332.574137 993.55496 
L 370.438746 975.731404 
L 374.39475 973.914823 
L 378.539135 971.946197 
L 390.595527 965.906986 
L 398.695916 962.149661 
L 404.724113 959.394824 
L 410.752309 956.34062 
L 417.53403 952.461507 
L 444.849295 936.219062 
L 450.68911 933.024349 
L 463.122265 926.127107 
L 475.178658 918.995999 
L 482.14876 914.216925 
L 497.407632 903.318537 
L 498.161157 902.766316 
L 498.161157 902.766316 
" clip-path="url(#p1de440b863)" style="fill: none; stroke: #d62728; stroke-width: 1.5; stroke-linecap: square"/>
   </g>
   <g id="patch_35">
    <path d="M 135 1153.44 
L 135 890.829474 
" style="fill: none; stroke: #000000; stroke-width: 0.8; stroke-linejoin: miter; stroke-linecap: square"/>
   </g>
   <g id="patch_36">
    <path d="M 515.454545 1153.44 
L 515.454545 890.829474 
" style="fill: none; stroke: #000000; stroke-width: 0.8; stroke-linejoin: miter; stroke-linecap: square"/>
   </g>
   <g id="patch_37">
    <path d="M 135 1153.44 
L 515.454545 1153.44 
" style="fill: none; stroke: #000000; stroke-width: 0.8; stroke-linejoin: miter; stroke-linecap: square"/>
   </g>
   <g id="patch_38">
    <path d="M 135 890.829474 
L 515.454545 890.829474 
" style="fill: none; stroke: #000000; stroke-width: 0.8; stroke-linejoin: miter; stroke-linecap: square"/>
   </g>
   <g id="text_57">
    <!-- e -->
    <g transform="translate(89.376307 872.71352) scale(0.28 -0.28)">
     <defs>
      <path id="DejaVuSans-Bold-65" d="M 4031 1759 
L 4031 1441 
L 1416 1441 
Q 1456 1047 1700 850 
Q 1944 653 2381 653 
Q 2734 653 3104 758 
Q 3475 863 3866 1075 
L 3866 213 
Q 3469 63 3072 -14 
Q 2675 -91 2278 -91 
Q 1328 -91 801 392 
Q 275 875 275 1747 
Q 275 2603 792 3093 
Q 1309 3584 2216 3584 
Q 3041 3584 3536 3087 
Q 4031 2591 4031 1759 
z
M 2881 2131 
Q 2881 2450 2695 2645 
Q 2509 2841 2209 2841 
Q 1884 2841 1681 2658 
Q 1478 2475 1428 2131 
L 2881 2131 
z
" transform="scale(0.015625)"/>
     </defs>
     <use xlink:href="#DejaVuSans-Bold-65"/>
    </g>
   </g>
   <g id="text_58">
    <!-- $Q_{NN}$ -->
    <g transform="translate(302.787273 884.829474) scale(0.24 -0.24)">
     <use xlink:href="#DejaVuSans-Oblique-51" transform="translate(0 0.78125)"/>
     <use xlink:href="#DejaVuSans-Oblique-4e" transform="translate(78.710938 -15.625) scale(0.7)"/>
     <use xlink:href="#DejaVuSans-Oblique-4e" transform="translate(131.074219 -15.625) scale(0.7)"/>
    </g>
   </g>
  </g>
  <g id="axes_6">
   <g id="patch_39">
    <path d="M 591.545455 1153.44 
L 972 1153.44 
L 972 890.829474 
L 591.545455 890.829474 
z
" style="fill: #ffffff"/>
   </g>
   <g id="matplotlib.axis_11">
    <g id="xtick_20">
     <g id="line2d_57">
      <g>
       <use xlink:href="#m894e1951d3" x="608.650462" y="1153.44" style="stroke: #000000; stroke-width: 0.8"/>
      </g>
     </g>
     <g id="text_59">
      <!-- 0 -->
      <g transform="translate(601.651712 1177.156562) scale(0.22 -0.22)">
       <use xlink:href="#DejaVuSans-30"/>
      </g>
     </g>
    </g>
    <g id="xtick_21">
     <g id="line2d_58">
      <g>
       <use xlink:href="#m894e1951d3" x="702.841031" y="1153.44" style="stroke: #000000; stroke-width: 0.8"/>
      </g>
     </g>
     <g id="text_60">
      <!-- 500 -->
      <g transform="translate(681.844781 1177.156562) scale(0.22 -0.22)">
       <use xlink:href="#DejaVuSans-35"/>
       <use xlink:href="#DejaVuSans-30" x="63.623047"/>
       <use xlink:href="#DejaVuSans-30" x="127.246094"/>
      </g>
     </g>
    </g>
    <g id="xtick_22">
     <g id="line2d_59">
      <g>
       <use xlink:href="#m894e1951d3" x="797.031599" y="1153.44" style="stroke: #000000; stroke-width: 0.8"/>
      </g>
     </g>
     <g id="text_61">
      <!-- 1000 -->
      <g transform="translate(769.036599 1177.156562) scale(0.22 -0.22)">
       <use xlink:href="#DejaVuSans-31"/>
       <use xlink:href="#DejaVuSans-30" x="63.623047"/>
       <use xlink:href="#DejaVuSans-30" x="127.246094"/>
       <use xlink:href="#DejaVuSans-30" x="190.869141"/>
      </g>
     </g>
    </g>
    <g id="xtick_23">
     <g id="line2d_60">
      <g>
       <use xlink:href="#m894e1951d3" x="891.222168" y="1153.44" style="stroke: #000000; stroke-width: 0.8"/>
      </g>
     </g>
     <g id="text_62">
      <!-- 1500 -->
      <g transform="translate(863.227168 1177.156562) scale(0.22 -0.22)">
       <use xlink:href="#DejaVuSans-31"/>
       <use xlink:href="#DejaVuSans-35" x="63.623047"/>
       <use xlink:href="#DejaVuSans-30" x="127.246094"/>
       <use xlink:href="#DejaVuSans-30" x="190.869141"/>
      </g>
     </g>
    </g>
    <g id="text_63">
     <!-- k -->
     <g transform="translate(774.823977 1203.968125) scale(0.24 -0.24)">
      <use xlink:href="#DejaVuSans-6b"/>
     </g>
    </g>
   </g>
   <g id="matplotlib.axis_12">
    <g id="ytick_22">
     <g id="line2d_61">
      <g>
       <use xlink:href="#m31f6279df9" x="591.545455" y="1141.404945" style="stroke: #000000; stroke-width: 0.8"/>
      </g>
     </g>
     <g id="text_64">
      <!-- 0.0 -->
      <g transform="translate(549.55858 1149.763226) scale(0.22 -0.22)">
       <use xlink:href="#DejaVuSans-30"/>
       <use xlink:href="#DejaVuSans-2e" x="63.623047"/>
       <use xlink:href="#DejaVuSans-30" x="95.410156"/>
      </g>
     </g>
    </g>
    <g id="ytick_23">
     <g id="line2d_62">
      <g>
       <use xlink:href="#m31f6279df9" x="591.545455" y="1065.284088" style="stroke: #000000; stroke-width: 0.8"/>
      </g>
     </g>
     <g id="text_65">
      <!-- 0.2 -->
      <g transform="translate(549.55858 1073.642369) scale(0.22 -0.22)">
       <use xlink:href="#DejaVuSans-30"/>
       <use xlink:href="#DejaVuSans-2e" x="63.623047"/>
       <use xlink:href="#DejaVuSans-32" x="95.410156"/>
      </g>
     </g>
    </g>
    <g id="ytick_24">
     <g id="line2d_63">
      <g>
       <use xlink:href="#m31f6279df9" x="591.545455" y="989.163231" style="stroke: #000000; stroke-width: 0.8"/>
      </g>
     </g>
     <g id="text_66">
      <!-- 0.4 -->
      <g transform="translate(549.55858 997.521513) scale(0.22 -0.22)">
       <use xlink:href="#DejaVuSans-30"/>
       <use xlink:href="#DejaVuSans-2e" x="63.623047"/>
       <use xlink:href="#DejaVuSans-34" x="95.410156"/>
      </g>
     </g>
    </g>
    <g id="ytick_25">
     <g id="line2d_64">
      <g>
       <use xlink:href="#m31f6279df9" x="591.545455" y="913.042375" style="stroke: #000000; stroke-width: 0.8"/>
      </g>
     </g>
     <g id="text_67">
      <!-- 0.6 -->
      <g transform="translate(549.55858 921.400656) scale(0.22 -0.22)">
       <use xlink:href="#DejaVuSans-30"/>
       <use xlink:href="#DejaVuSans-2e" x="63.623047"/>
       <use xlink:href="#DejaVuSans-36" x="95.410156"/>
      </g>
     </g>
    </g>
   </g>
   <g id="line2d_65">
    <path d="M 608.838843 1120.076308 
L 609.403986 1093.312172 
L 610.157511 1078.2479 
L 610.722654 1071.452405 
L 611.476179 1065.782759 
L 611.852941 1063.327316 
L 612.229703 1061.10549 
L 612.794847 1058.445555 
L 613.35999 1056.051351 
L 614.113515 1053.601173 
L 614.301896 1053.166666 
L 614.678658 1052.812706 
L 615.997326 1050.444907 
L 616.185707 1050.270466 
L 616.56247 1049.640837 
L 617.881138 1047.49551 
L 618.446281 1046.677868 
L 619.388187 1045.419283 
L 619.576568 1045.250028 
L 619.95333 1044.755891 
L 620.330092 1044.594241 
L 621.083617 1044.218799 
L 621.460379 1043.858857 
L 622.590666 1043.447112 
L 622.779047 1043.403309 
L 624.85124 1041.134844 
L 625.228002 1040.837481 
L 625.793145 1040.367039 
L 627.300194 1038.547821 
L 628.053719 1037.567319 
L 629.372387 1036.176062 
L 630.502674 1035.547236 
L 631.444579 1035.288248 
L 632.386485 1035.105736 
L 634.83544 1035.183569 
L 635.212202 1035.264674 
L 635.965727 1035.333076 
L 639.921731 1036.402832 
L 641.42878 1036.558803 
L 642.747448 1036.768837 
L 643.312591 1036.844814 
L 644.066116 1037.026073 
L 645.573165 1037.197409 
L 646.51507 1037.350147 
L 648.398882 1037.388635 
L 648.775644 1037.408162 
L 649.71755 1037.518595 
L 653.861935 1037.771861 
L 661.020418 1038.058812 
L 661.962324 1038.124596 
L 668.367282 1038.924066 
L 669.309188 1039.110063 
L 673.265192 1039.909127 
L 674.018717 1040.089982 
L 674.772241 1040.294453 
L 682.87263 1042.00752 
L 687.205396 1043.345465 
L 688.147302 1043.681108 
L 689.089208 1043.896394 
L 692.291687 1044.922489 
L 693.987117 1045.532634 
L 695.117404 1045.941315 
L 701.522363 1047.823449 
L 707.73894 1049.722822 
L 708.869227 1050.119045 
L 710.753038 1050.571093 
L 711.694944 1050.832765 
L 713.955518 1051.470615 
L 733.735537 1057.098195 
L 736.184492 1057.58979 
L 737.50316 1057.952016 
L 743.908119 1059.794412 
L 747.48736 1060.634556 
L 751.443364 1061.778171 
L 755.399368 1063.004066 
L 764.818425 1066.233165 
L 768.209285 1067.475549 
L 769.716334 1068.093274 
L 776.309674 1070.770928 
L 788.177686 1075.428645 
L 793.82912 1078.060991 
L 796.843218 1079.458 
L 801.741128 1081.695341 
L 811.913709 1086.18874 
L 814.362664 1087.22218 
L 824.535246 1092.025438 
L 829.809917 1094.809187 
L 833.57754 1096.706189 
L 836.403257 1098.145522 
L 846.76422 1103.276518 
L 858.255469 1109.143045 
L 862.023092 1110.744996 
L 868.804813 1113.040615 
L 874.456247 1114.490563 
L 878.977394 1115.46065 
L 880.672825 1115.735514 
L 885.382353 1116.242656 
L 889.338357 1116.428551 
L 894.236266 1116.569178 
L 898.569033 1116.994736 
L 901.206368 1117.515944 
L 903.466942 1118.175109 
L 906.292659 1119.349722 
L 911.002188 1121.840051 
L 917.218765 1125.736322 
L 920.044482 1127.568038 
L 924.188867 1130.263714 
L 926.449441 1131.928613 
L 928.898396 1134.03224 
L 929.65192 1134.626588 
L 931.535732 1135.518672 
L 933.607924 1136.236326 
L 938.129071 1137.485932 
L 940.954789 1138.313009 
L 943.026981 1139.138094 
L 944.722411 1139.795762 
L 946.606223 1140.455908 
L 947.736509 1140.869051 
L 948.678415 1141.007952 
L 949.997083 1141.11677 
L 950.562227 1141.155343 
L 952.634419 1141.218516 
L 954.141468 1141.405961 
L 954.706612 1141.404945 
L 954.706612 1141.404945 
" clip-path="url(#p4854cd1e84)" style="fill: none; stroke: #1f77b4; stroke-width: 1.5; stroke-linecap: square"/>
   </g>
   <g id="line2d_66">
    <path d="M 608.838843 936.400574 
L 609.027224 917.970991 
L 609.215605 911.620796 
L 609.96913 902.766316 
L 610.534273 906.95549 
L 610.722654 906.921718 
L 611.099417 905.707005 
L 611.852941 909.068447 
L 612.041322 908.84998 
L 612.229703 908.91609 
L 612.983228 911.860137 
L 613.548371 914.071125 
L 614.301896 918.353785 
L 615.055421 922.475439 
L 615.808945 926.045534 
L 616.185707 927.128 
L 616.374088 926.970533 
L 617.692756 928.606038 
L 618.069519 929.522917 
L 618.2579 930.039662 
L 618.446281 930.194066 
L 620.330092 935.051442 
L 620.895236 936.672208 
L 621.64876 938.827118 
L 622.213904 940.366015 
L 623.909334 944.383267 
L 624.286096 945.15937 
L 624.85124 946.698906 
L 625.039621 946.994907 
L 626.735051 951.447965 
L 628.2421 954.045438 
L 628.995625 955.126101 
L 629.93753 957.355286 
L 630.879436 959.183264 
L 633.516772 962.792334 
L 634.647059 965.595619 
L 635.777346 968.53205 
L 638.037919 973.319915 
L 644.442878 984.391402 
L 645.761546 986.467602 
L 647.080214 988.155723 
L 652.543267 995.830657 
L 654.050316 998.204787 
L 657.817939 1003.530193 
L 659.890131 1006.507057 
L 663.280992 1010.934537 
L 666.29509 1015.218285 
L 667.802139 1017.429313 
L 672.134905 1023.479483 
L 675.714147 1027.485058 
L 677.221196 1029.035981 
L 679.293388 1031.346694 
L 681.742343 1034.239748 
L 685.698347 1038.247587 
L 687.017015 1039.644493 
L 688.335683 1040.999598 
L 693.798736 1046.937504 
L 696.247691 1049.672711 
L 697.943121 1051.209397 
L 700.015314 1053.070512 
L 701.1456 1054.03743 
L 704.913223 1057.348667 
L 712.825231 1063.562058 
L 716.02771 1066.16647 
L 722.62105 1071.176064 
L 724.128099 1072.317672 
L 734.300681 1078.668656 
L 738.068303 1080.730069 
L 741.270783 1082.301083 
L 742.589451 1083.035413 
L 744.0965 1083.80618 
L 745.415168 1084.49403 
L 746.733836 1085.172148 
L 757.848323 1090.151591 
L 761.992708 1091.704521 
L 767.078999 1094.150676 
L 770.469859 1095.92184 
L 772.918814 1097.242334 
L 776.121293 1098.799442 
L 779.700535 1100.426126 
L 782.337871 1101.657225 
L 789.496354 1104.412181 
L 791.191784 1105.011448 
L 793.263977 1105.808671 
L 794.394263 1106.188342 
L 796.278075 1106.76122 
L 797.973505 1107.319088 
L 799.480554 1107.88934 
L 804.378464 1109.777571 
L 808.899611 1111.685483 
L 823.970102 1117.234063 
L 827.172581 1118.53286 
L 842.808216 1123.7909 
L 849.778318 1126.055313 
L 850.908605 1126.416348 
L 856.371658 1127.605912 
L 864.848809 1129.06933 
L 868.993194 1129.848543 
L 871.253768 1130.219292 
L 874.833009 1130.730658 
L 883.31016 1131.68323 
L 890.657025 1131.958873 
L 897.438746 1132.018386 
L 899.699319 1132.107255 
L 904.408848 1132.614905 
L 907.422946 1133.101214 
L 914.016286 1134.616351 
L 914.958192 1135.001561 
L 917.783909 1136.250262 
L 923.05858 1137.724907 
L 930.028683 1139.245019 
L 935.114973 1140.064259 
L 936.810404 1140.41152 
L 937.94069 1140.495059 
L 940.766407 1140.658156 
L 945.287555 1141.329665 
L 946.606223 1141.428377 
L 947.736509 1141.462091 
L 950.750608 1141.455258 
L 954.706612 1141.404945 
L 954.706612 1141.404945 
" clip-path="url(#p4854cd1e84)" style="fill: none; stroke: #ff7f0e; stroke-width: 1.5; stroke-linecap: square"/>
   </g>
   <g id="line2d_67">
    <path d="M 608.838843 1032.690559 
L 609.215605 979.472449 
L 609.780749 946.099161 
L 610.157511 935.158912 
L 610.722654 926.57504 
L 611.099417 922.989823 
L 611.287798 921.46304 
L 611.476179 920.885315 
L 611.66456 921.415195 
L 611.852941 921.468599 
L 612.041322 920.860344 
L 612.418085 921.876388 
L 612.606466 922.183662 
L 612.794847 922.274763 
L 613.171609 923.676668 
L 613.548371 924.536388 
L 614.301896 927.513413 
L 615.055421 930.058047 
L 615.808945 932.083412 
L 615.997326 933.017319 
L 616.374088 933.516131 
L 616.750851 933.828907 
L 617.315994 934.812068 
L 617.692756 934.952031 
L 618.069519 935.391429 
L 619.011424 937.615228 
L 619.576568 938.638414 
L 619.95333 939.534061 
L 620.706855 941.642797 
L 621.271998 943.423847 
L 624.85124 952.429592 
L 626.923432 956.574546 
L 628.807244 959.465609 
L 629.184006 960.178906 
L 631.632961 965.795135 
L 633.893534 969.927757 
L 637.661157 979.353661 
L 639.356587 982.696975 
L 641.240399 986.218565 
L 643.312591 989.856742 
L 644.631259 991.806486 
L 645.761546 993.592251 
L 660.078512 1010.75304 
L 663.657754 1014.485139 
L 666.29509 1017.495436 
L 667.802139 1019.040411 
L 668.367282 1019.561551 
L 671.004618 1022.545412 
L 674.018717 1025.757631 
L 678.539864 1030.058708 
L 679.670151 1031.153788 
L 688.712445 1038.936968 
L 691.1614 1040.849793 
L 699.073408 1048.345516 
L 704.913223 1053.708439 
L 707.927321 1056.532069 
L 710.564657 1058.715832 
L 712.071706 1059.727559 
L 720.548858 1066.12092 
L 724.881624 1069.871101 
L 726.388673 1071.110901 
L 730.533058 1074.291085 
L 738.068303 1079.384532 
L 739.763734 1080.47386 
L 744.850024 1084.058438 
L 748.806028 1086.787829 
L 753.515557 1089.882772 
L 755.210987 1090.884841 
L 762.36947 1095.077309 
L 765.195187 1096.66845 
L 768.209285 1098.03956 
L 771.411765 1099.255875 
L 775.179387 1100.821337 
L 779.323772 1102.539902 
L 782.337871 1103.639039 
L 785.917112 1105.031448 
L 787.800924 1105.792865 
L 790.249878 1106.735282 
L 801.552747 1110.660907 
L 805.320369 1111.932887 
L 807.957705 1112.846636 
L 818.130287 1116.258177 
L 825.853913 1118.238324 
L 828.302868 1118.877982 
L 831.88211 1119.738656 
L 835.461351 1120.594592 
L 838.287069 1121.222313 
L 846.76422 1122.950467 
L 856.560039 1124.223013 
L 861.64633 1124.611474 
L 871.065386 1125.948676 
L 875.398153 1126.668454 
L 879.165775 1127.087125 
L 890.657025 1128.054738 
L 900.829606 1128.243655 
L 903.466942 1128.636444 
L 906.857803 1129.33063 
L 908.553233 1129.84537 
L 911.567331 1130.904446 
L 916.465241 1132.807955 
L 923.246962 1135.761981 
L 927.391347 1137.383676 
L 928.521633 1137.919241 
L 930.593826 1138.77039 
L 935.680117 1139.969917 
L 940.389645 1140.59912 
L 942.085075 1141.000205 
L 943.592124 1141.263893 
L 946.041079 1141.426121 
L 948.678415 1141.495755 
L 951.12737 1141.446086 
L 954.706612 1141.404945 
L 954.706612 1141.404945 
" clip-path="url(#p4854cd1e84)" style="fill: none; stroke: #2ca02c; stroke-width: 1.5; stroke-linecap: square"/>
   </g>
   <g id="line2d_68">
    <path d="M 608.838843 1024.8217 
L 609.215605 991.827938 
L 609.780749 968.946462 
L 610.157511 957.704228 
L 611.287798 942.629088 
L 612.794847 934.840465 
L 613.171609 933.581767 
L 613.548371 932.293745 
L 613.736753 932.200645 
L 613.925134 932.254717 
L 614.301896 931.613503 
L 614.490277 931.708024 
L 615.055421 930.600097 
L 615.620564 930.013283 
L 616.185707 929.131453 
L 616.374088 929.314019 
L 617.504375 929.118474 
L 617.692756 929.330802 
L 617.881138 929.361201 
L 618.069519 929.527058 
L 618.634662 929.291643 
L 618.823043 929.23561 
L 619.199806 929.532616 
L 619.576568 930.087634 
L 620.895236 932.530703 
L 622.025523 934.378544 
L 622.590666 935.107587 
L 623.155809 936.07298 
L 624.286096 937.839385 
L 625.416383 940.114581 
L 625.981526 941.049768 
L 626.923432 942.33759 
L 627.676957 943.325289 
L 628.995625 945.527781 
L 629.93753 947.09315 
L 630.691055 948.494809 
L 631.256198 949.663352 
L 633.516772 955.339194 
L 634.83544 959.316566 
L 636.719251 964.484985 
L 639.168206 970.762534 
L 641.805542 977.394137 
L 643.12421 980.688797 
L 644.81964 984.694362 
L 646.326689 988.386466 
L 650.471074 997.666588 
L 656.499271 1009.007333 
L 659.136607 1013.529109 
L 660.832037 1016.034546 
L 664.59966 1021.237176 
L 670.251094 1028.3268 
L 671.569762 1029.807343 
L 672.88843 1031.221062 
L 674.772241 1033.054489 
L 675.902528 1034.138452 
L 678.163102 1036.21865 
L 684.944823 1042.149586 
L 689.277589 1045.340285 
L 690.407876 1046.229795 
L 693.421974 1048.491775 
L 694.740642 1049.574414 
L 701.899125 1055.266827 
L 703.594555 1056.672255 
L 705.289985 1057.988848 
L 709.622752 1061.052179 
L 712.63685 1063.244123 
L 715.085805 1064.82954 
L 716.969616 1066.05116 
L 719.418571 1067.645031 
L 725.446767 1070.777679 
L 726.577054 1071.32497 
L 729.026009 1072.540366 
L 734.300681 1074.837609 
L 736.561254 1075.801734 
L 737.879922 1076.338699 
L 739.575352 1077.138607 
L 744.284881 1079.238715 
L 747.48736 1080.614928 
L 748.994409 1081.258382 
L 756.718036 1084.225652 
L 760.108896 1085.353976 
L 784.598444 1094.187552 
L 785.728731 1094.553732 
L 788.177686 1095.453233 
L 792.698833 1097.275159 
L 804.943607 1102.089476 
L 812.290472 1105.067383 
L 817.941906 1107.283367 
L 820.014098 1108.052044 
L 822.274672 1108.914955 
L 831.316966 1112.446217 
L 833.389159 1113.290926 
L 842.243072 1116.24731 
L 843.938503 1116.848576 
L 854.864609 1121.148948 
L 856.936801 1122.076189 
L 861.834711 1124.016681 
L 868.239669 1126.107628 
L 875.02139 1127.640212 
L 882.368255 1129.039755 
L 884.81721 1129.451778 
L 892.352455 1131.102971 
L 898.757414 1132.437783 
L 922.116675 1138.576736 
L 929.65192 1140.254806 
L 932.100875 1140.574936 
L 938.694215 1141.01608 
L 945.287555 1141.166276 
L 948.678415 1141.273192 
L 949.808702 1141.320144 
L 954.706612 1141.404945 
L 954.706612 1141.404945 
" clip-path="url(#p4854cd1e84)" style="fill: none; stroke: #d62728; stroke-width: 1.5; stroke-linecap: square"/>
   </g>
   <g id="patch_40">
    <path d="M 591.545455 1153.44 
L 591.545455 890.829474 
" style="fill: none; stroke: #000000; stroke-width: 0.8; stroke-linejoin: miter; stroke-linecap: square"/>
   </g>
   <g id="patch_41">
    <path d="M 972 1153.44 
L 972 890.829474 
" style="fill: none; stroke: #000000; stroke-width: 0.8; stroke-linejoin: miter; stroke-linecap: square"/>
   </g>
   <g id="patch_42">
    <path d="M 591.545455 1153.44 
L 972 1153.44 
" style="fill: none; stroke: #000000; stroke-width: 0.8; stroke-linejoin: miter; stroke-linecap: square"/>
   </g>
   <g id="patch_43">
    <path d="M 591.545455 890.829474 
L 972 890.829474 
" style="fill: none; stroke: #000000; stroke-width: 0.8; stroke-linejoin: miter; stroke-linecap: square"/>
   </g>
   <g id="text_68">
    <!-- f -->
    <g transform="translate(552.733636 872.71352) scale(0.28 -0.28)">
     <defs>
      <path id="DejaVuSans-Bold-66" d="M 2841 4863 
L 2841 4128 
L 2222 4128 
Q 1984 4128 1890 4042 
Q 1797 3956 1797 3744 
L 1797 3500 
L 2753 3500 
L 2753 2700 
L 1797 2700 
L 1797 0 
L 678 0 
L 678 2700 
L 122 2700 
L 122 3500 
L 678 3500 
L 678 3744 
Q 678 4316 997 4589 
Q 1316 4863 1984 4863 
L 2841 4863 
z
" transform="scale(0.015625)"/>
     </defs>
     <use xlink:href="#DejaVuSans-Bold-66"/>
    </g>
   </g>
   <g id="text_69">
    <!-- LCMC -->
    <g transform="translate(747.973977 884.829474) scale(0.24 -0.24)">
     <defs>
      <path id="DejaVuSans-4c" d="M 628 4666 
L 1259 4666 
L 1259 531 
L 3531 531 
L 3531 0 
L 628 0 
L 628 4666 
z
" transform="scale(0.015625)"/>
     </defs>
     <use xlink:href="#DejaVuSans-4c"/>
     <use xlink:href="#DejaVuSans-43" x="55.712891"/>
     <use xlink:href="#DejaVuSans-4d" x="125.537109"/>
     <use xlink:href="#DejaVuSans-43" x="211.816406"/>
    </g>
   </g>
  </g>
 </g>
 <defs>
  <clipPath id="pc4a5e69f33">
   <rect x="135" y="155.52" width="380.454545" height="262.610526"/>
  </clipPath>
  <clipPath id="p000770802f">
   <rect x="591.545455" y="155.52" width="380.454545" height="262.610526"/>
  </clipPath>
  <clipPath id="pba9ab9f959">
   <rect x="135" y="523.174737" width="380.454545" height="262.610526"/>
  </clipPath>
  <clipPath id="p2aaeb646b8">
   <rect x="591.545455" y="523.174737" width="380.454545" height="262.610526"/>
  </clipPath>
  <clipPath id="p1de440b863">
   <rect x="135" y="890.829474" width="380.454545" height="262.610526"/>
  </clipPath>
  <clipPath id="p4854cd1e84">
   <rect x="591.545455" y="890.829474" width="380.454545" height="262.610526"/>
  </clipPath>
 </defs>
</svg>
