<?xml version="1.0" encoding="utf-8" standalone="no"?>
<!DOCTYPE svg PUBLIC "-//W3C//DTD SVG 1.1//EN"
  "http://www.w3.org/Graphics/SVG/1.1/DTD/svg11.dtd">
<svg xmlns:xlink="http://www.w3.org/1999/xlink" width="1080pt" height="1296pt" viewBox="0 0 1080 1296" xmlns="http://www.w3.org/2000/svg" version="1.1">
 <metadata>
  <rdf:RDF xmlns:dc="http://purl.org/dc/elements/1.1/" xmlns:cc="http://creativecommons.org/ns#" xmlns:rdf="http://www.w3.org/1999/02/22-rdf-syntax-ns#">
   <cc:Work>
    <dc:type rdf:resource="http://purl.org/dc/dcmitype/StillImage"/>
    <dc:date>2024-07-24T15:05:44.576574</dc:date>
    <dc:format>image/svg+xml</dc:format>
    <dc:creator>
     <cc:Agent>
      <dc:title>Matplotlib v3.8.4, https://matplotlib.org/</dc:title>
     </cc:Agent>
    </dc:creator>
   </cc:Work>
  </rdf:RDF>
 </metadata>
 <defs>
  <style type="text/css">*{stroke-linejoin: round; stroke-linecap: butt}</style>
 </defs>
 <g id="figure_1">
  <g id="patch_1">
   <path d="M 0 1296 
L 1080 1296 
L 1080 0 
L 0 0 
z
" style="fill: #ffffff"/>
  </g>
  <g id="axes_1">
   <g id="patch_2">
    <path d="M 135 418.130526 
L 515.454545 418.130526 
L 515.454545 155.52 
L 135 155.52 
z
" style="fill: #ffffff"/>
   </g>
   <g id="matplotlib.axis_1">
    <g id="xtick_1">
     <g id="line2d_1">
      <defs>
       <path id="m532e554d0e" d="M 0 0 
L 0 3.5 
" style="stroke: #000000; stroke-width: 0.8"/>
      </defs>
      <g>
       <use xlink:href="#m532e554d0e" x="137.882231" y="418.130526" style="stroke: #000000; stroke-width: 0.8"/>
      </g>
     </g>
     <g id="text_1">
      <!-- 0 -->
      <g transform="translate(131.519731 440.327401) scale(0.2 -0.2)">
       <defs>
        <path id="DejaVuSans-30" d="M 2034 4250 
Q 1547 4250 1301 3770 
Q 1056 3291 1056 2328 
Q 1056 1369 1301 889 
Q 1547 409 2034 409 
Q 2525 409 2770 889 
Q 3016 1369 3016 2328 
Q 3016 3291 2770 3770 
Q 2525 4250 2034 4250 
z
M 2034 4750 
Q 2819 4750 3233 4129 
Q 3647 3509 3647 2328 
Q 3647 1150 3233 529 
Q 2819 -91 2034 -91 
Q 1250 -91 836 529 
Q 422 1150 422 2328 
Q 422 3509 836 4129 
Q 1250 4750 2034 4750 
z
" transform="scale(0.015625)"/>
       </defs>
       <use xlink:href="#DejaVuSans-30"/>
      </g>
     </g>
    </g>
    <g id="xtick_2">
     <g id="line2d_2">
      <g>
       <use xlink:href="#m532e554d0e" x="209.938017" y="418.130526" style="stroke: #000000; stroke-width: 0.8"/>
      </g>
     </g>
     <g id="text_2">
      <!-- 10 -->
      <g transform="translate(197.213017 440.327401) scale(0.2 -0.2)">
       <defs>
        <path id="DejaVuSans-31" d="M 794 531 
L 1825 531 
L 1825 4091 
L 703 3866 
L 703 4441 
L 1819 4666 
L 2450 4666 
L 2450 531 
L 3481 531 
L 3481 0 
L 794 0 
L 794 531 
z
" transform="scale(0.015625)"/>
       </defs>
       <use xlink:href="#DejaVuSans-31"/>
       <use xlink:href="#DejaVuSans-30" x="63.623047"/>
      </g>
     </g>
    </g>
    <g id="xtick_3">
     <g id="line2d_3">
      <g>
       <use xlink:href="#m532e554d0e" x="281.993802" y="418.130526" style="stroke: #000000; stroke-width: 0.8"/>
      </g>
     </g>
     <g id="text_3">
      <!-- 20 -->
      <g transform="translate(269.268802 440.327401) scale(0.2 -0.2)">
       <defs>
        <path id="DejaVuSans-32" d="M 1228 531 
L 3431 531 
L 3431 0 
L 469 0 
L 469 531 
Q 828 903 1448 1529 
Q 2069 2156 2228 2338 
Q 2531 2678 2651 2914 
Q 2772 3150 2772 3378 
Q 2772 3750 2511 3984 
Q 2250 4219 1831 4219 
Q 1534 4219 1204 4116 
Q 875 4013 500 3803 
L 500 4441 
Q 881 4594 1212 4672 
Q 1544 4750 1819 4750 
Q 2544 4750 2975 4387 
Q 3406 4025 3406 3419 
Q 3406 3131 3298 2873 
Q 3191 2616 2906 2266 
Q 2828 2175 2409 1742 
Q 1991 1309 1228 531 
z
" transform="scale(0.015625)"/>
       </defs>
       <use xlink:href="#DejaVuSans-32"/>
       <use xlink:href="#DejaVuSans-30" x="63.623047"/>
      </g>
     </g>
    </g>
    <g id="xtick_4">
     <g id="line2d_4">
      <g>
       <use xlink:href="#m532e554d0e" x="354.049587" y="418.130526" style="stroke: #000000; stroke-width: 0.8"/>
      </g>
     </g>
     <g id="text_4">
      <!-- 30 -->
      <g transform="translate(341.324587 440.327401) scale(0.2 -0.2)">
       <defs>
        <path id="DejaVuSans-33" d="M 2597 2516 
Q 3050 2419 3304 2112 
Q 3559 1806 3559 1356 
Q 3559 666 3084 287 
Q 2609 -91 1734 -91 
Q 1441 -91 1130 -33 
Q 819 25 488 141 
L 488 750 
Q 750 597 1062 519 
Q 1375 441 1716 441 
Q 2309 441 2620 675 
Q 2931 909 2931 1356 
Q 2931 1769 2642 2001 
Q 2353 2234 1838 2234 
L 1294 2234 
L 1294 2753 
L 1863 2753 
Q 2328 2753 2575 2939 
Q 2822 3125 2822 3475 
Q 2822 3834 2567 4026 
Q 2313 4219 1838 4219 
Q 1578 4219 1281 4162 
Q 984 4106 628 3988 
L 628 4550 
Q 988 4650 1302 4700 
Q 1616 4750 1894 4750 
Q 2613 4750 3031 4423 
Q 3450 4097 3450 3541 
Q 3450 3153 3228 2886 
Q 3006 2619 2597 2516 
z
" transform="scale(0.015625)"/>
       </defs>
       <use xlink:href="#DejaVuSans-33"/>
       <use xlink:href="#DejaVuSans-30" x="63.623047"/>
      </g>
     </g>
    </g>
    <g id="xtick_5">
     <g id="line2d_5">
      <g>
       <use xlink:href="#m532e554d0e" x="426.105372" y="418.130526" style="stroke: #000000; stroke-width: 0.8"/>
      </g>
     </g>
     <g id="text_5">
      <!-- 40 -->
      <g transform="translate(413.380372 440.327401) scale(0.2 -0.2)">
       <defs>
        <path id="DejaVuSans-34" d="M 2419 4116 
L 825 1625 
L 2419 1625 
L 2419 4116 
z
M 2253 4666 
L 3047 4666 
L 3047 1625 
L 3713 1625 
L 3713 1100 
L 3047 1100 
L 3047 0 
L 2419 0 
L 2419 1100 
L 313 1100 
L 313 1709 
L 2253 4666 
z
" transform="scale(0.015625)"/>
       </defs>
       <use xlink:href="#DejaVuSans-34"/>
       <use xlink:href="#DejaVuSans-30" x="63.623047"/>
      </g>
     </g>
    </g>
    <g id="xtick_6">
     <g id="line2d_6">
      <g>
       <use xlink:href="#m532e554d0e" x="498.161157" y="418.130526" style="stroke: #000000; stroke-width: 0.8"/>
      </g>
     </g>
     <g id="text_6">
      <!-- 50 -->
      <g transform="translate(485.436157 440.327401) scale(0.2 -0.2)">
       <defs>
        <path id="DejaVuSans-35" d="M 691 4666 
L 3169 4666 
L 3169 4134 
L 1269 4134 
L 1269 2991 
Q 1406 3038 1543 3061 
Q 1681 3084 1819 3084 
Q 2600 3084 3056 2656 
Q 3513 2228 3513 1497 
Q 3513 744 3044 326 
Q 2575 -91 1722 -91 
Q 1428 -91 1123 -41 
Q 819 9 494 109 
L 494 744 
Q 775 591 1075 516 
Q 1375 441 1709 441 
Q 2250 441 2565 725 
Q 2881 1009 2881 1497 
Q 2881 1984 2565 2268 
Q 2250 2553 1709 2553 
Q 1456 2553 1204 2497 
Q 953 2441 691 2322 
L 691 4666 
z
" transform="scale(0.015625)"/>
       </defs>
       <use xlink:href="#DejaVuSans-35"/>
       <use xlink:href="#DejaVuSans-30" x="63.623047"/>
      </g>
     </g>
    </g>
    <g id="text_7">
     <!-- k -->
     <g transform="translate(318.278523 466.723026) scale(0.24 -0.24)">
      <defs>
       <path id="DejaVuSans-6b" d="M 581 4863 
L 1159 4863 
L 1159 1991 
L 2875 3500 
L 3609 3500 
L 1753 1863 
L 3688 0 
L 2938 0 
L 1159 1709 
L 1159 0 
L 581 0 
L 581 4863 
z
" transform="scale(0.015625)"/>
      </defs>
      <use xlink:href="#DejaVuSans-6b"/>
     </g>
    </g>
   </g>
   <g id="matplotlib.axis_2">
    <g id="ytick_1">
     <g id="line2d_7">
      <defs>
       <path id="m93ddb6e5fe" d="M 0 0 
L -3.5 0 
" style="stroke: #000000; stroke-width: 0.8"/>
      </defs>
      <g>
       <use xlink:href="#m93ddb6e5fe" x="135" y="418.130526" style="stroke: #000000; stroke-width: 0.8"/>
      </g>
     </g>
     <g id="text_8">
      <!-- 0.0 -->
      <g transform="translate(96.19375 425.728964) scale(0.2 -0.2)">
       <defs>
        <path id="DejaVuSans-2e" d="M 684 794 
L 1344 794 
L 1344 0 
L 684 0 
L 684 794 
z
" transform="scale(0.015625)"/>
       </defs>
       <use xlink:href="#DejaVuSans-30"/>
       <use xlink:href="#DejaVuSans-2e" x="63.623047"/>
       <use xlink:href="#DejaVuSans-30" x="95.410156"/>
      </g>
     </g>
    </g>
    <g id="ytick_2">
     <g id="line2d_8">
      <g>
       <use xlink:href="#m93ddb6e5fe" x="135" y="352.477895" style="stroke: #000000; stroke-width: 0.8"/>
      </g>
     </g>
     <g id="text_9">
      <!-- 0.2 -->
      <g transform="translate(96.19375 360.076332) scale(0.2 -0.2)">
       <use xlink:href="#DejaVuSans-30"/>
       <use xlink:href="#DejaVuSans-2e" x="63.623047"/>
       <use xlink:href="#DejaVuSans-32" x="95.410156"/>
      </g>
     </g>
    </g>
    <g id="ytick_3">
     <g id="line2d_9">
      <g>
       <use xlink:href="#m93ddb6e5fe" x="135" y="286.825263" style="stroke: #000000; stroke-width: 0.8"/>
      </g>
     </g>
     <g id="text_10">
      <!-- 0.4 -->
      <g transform="translate(96.19375 294.423701) scale(0.2 -0.2)">
       <use xlink:href="#DejaVuSans-30"/>
       <use xlink:href="#DejaVuSans-2e" x="63.623047"/>
       <use xlink:href="#DejaVuSans-34" x="95.410156"/>
      </g>
     </g>
    </g>
    <g id="ytick_4">
     <g id="line2d_10">
      <g>
       <use xlink:href="#m93ddb6e5fe" x="135" y="221.172632" style="stroke: #000000; stroke-width: 0.8"/>
      </g>
     </g>
     <g id="text_11">
      <!-- 0.6 -->
      <g transform="translate(96.19375 228.771069) scale(0.2 -0.2)">
       <defs>
        <path id="DejaVuSans-36" d="M 2113 2584 
Q 1688 2584 1439 2293 
Q 1191 2003 1191 1497 
Q 1191 994 1439 701 
Q 1688 409 2113 409 
Q 2538 409 2786 701 
Q 3034 994 3034 1497 
Q 3034 2003 2786 2293 
Q 2538 2584 2113 2584 
z
M 3366 4563 
L 3366 3988 
Q 3128 4100 2886 4159 
Q 2644 4219 2406 4219 
Q 1781 4219 1451 3797 
Q 1122 3375 1075 2522 
Q 1259 2794 1537 2939 
Q 1816 3084 2150 3084 
Q 2853 3084 3261 2657 
Q 3669 2231 3669 1497 
Q 3669 778 3244 343 
Q 2819 -91 2113 -91 
Q 1303 -91 875 529 
Q 447 1150 447 2328 
Q 447 3434 972 4092 
Q 1497 4750 2381 4750 
Q 2619 4750 2861 4703 
Q 3103 4656 3366 4563 
z
" transform="scale(0.015625)"/>
       </defs>
       <use xlink:href="#DejaVuSans-30"/>
       <use xlink:href="#DejaVuSans-2e" x="63.623047"/>
       <use xlink:href="#DejaVuSans-36" x="95.410156"/>
      </g>
     </g>
    </g>
    <g id="ytick_5">
     <g id="line2d_11">
      <g>
       <use xlink:href="#m93ddb6e5fe" x="135" y="155.52" style="stroke: #000000; stroke-width: 0.8"/>
      </g>
     </g>
     <g id="text_12">
      <!-- 0.8 -->
      <g transform="translate(96.19375 163.118438) scale(0.2 -0.2)">
       <defs>
        <path id="DejaVuSans-38" d="M 2034 2216 
Q 1584 2216 1326 1975 
Q 1069 1734 1069 1313 
Q 1069 891 1326 650 
Q 1584 409 2034 409 
Q 2484 409 2743 651 
Q 3003 894 3003 1313 
Q 3003 1734 2745 1975 
Q 2488 2216 2034 2216 
z
M 1403 2484 
Q 997 2584 770 2862 
Q 544 3141 544 3541 
Q 544 4100 942 4425 
Q 1341 4750 2034 4750 
Q 2731 4750 3128 4425 
Q 3525 4100 3525 3541 
Q 3525 3141 3298 2862 
Q 3072 2584 2669 2484 
Q 3125 2378 3379 2068 
Q 3634 1759 3634 1313 
Q 3634 634 3220 271 
Q 2806 -91 2034 -91 
Q 1263 -91 848 271 
Q 434 634 434 1313 
Q 434 1759 690 2068 
Q 947 2378 1403 2484 
z
M 1172 3481 
Q 1172 3119 1398 2916 
Q 1625 2713 2034 2713 
Q 2441 2713 2670 2916 
Q 2900 3119 2900 3481 
Q 2900 3844 2670 4047 
Q 2441 4250 2034 4250 
Q 1625 4250 1398 4047 
Q 1172 3844 1172 3481 
z
" transform="scale(0.015625)"/>
       </defs>
       <use xlink:href="#DejaVuSans-30"/>
       <use xlink:href="#DejaVuSans-2e" x="63.623047"/>
       <use xlink:href="#DejaVuSans-38" x="95.410156"/>
      </g>
     </g>
    </g>
    <g id="text_13">
     <!-- $P_{NN}$ -->
     <g transform="translate(87.2025 306.985263) rotate(-90) scale(0.24 -0.24)">
      <defs>
       <path id="DejaVuSans-Oblique-50" d="M 1081 4666 
L 2541 4666 
Q 3178 4666 3512 4369 
Q 3847 4072 3847 3500 
Q 3847 2731 3353 2303 
Q 2859 1875 1966 1875 
L 1172 1875 
L 806 0 
L 172 0 
L 1081 4666 
z
M 1613 4147 
L 1275 2394 
L 2069 2394 
Q 2606 2394 2893 2669 
Q 3181 2944 3181 3456 
Q 3181 3784 2986 3965 
Q 2791 4147 2438 4147 
L 1613 4147 
z
" transform="scale(0.015625)"/>
       <path id="DejaVuSans-Oblique-4e" d="M 1081 4666 
L 1931 4666 
L 3219 666 
L 4000 4666 
L 4616 4666 
L 3706 0 
L 2853 0 
L 1569 4025 
L 788 0 
L 172 0 
L 1081 4666 
z
" transform="scale(0.015625)"/>
      </defs>
      <use xlink:href="#DejaVuSans-Oblique-50" transform="translate(0 0.09375)"/>
      <use xlink:href="#DejaVuSans-Oblique-4e" transform="translate(60.302734 -16.3125) scale(0.7)"/>
      <use xlink:href="#DejaVuSans-Oblique-4e" transform="translate(112.666016 -16.3125) scale(0.7)"/>
     </g>
    </g>
   </g>
   <g id="line2d_12">
    <path d="M 152.293388 403.201629 
L 173.910124 397.385399 
L 209.938017 391.41384 
L 281.993802 383.138226 
L 498.161157 374.969616 
" clip-path="url(#pf4edef1885)" style="fill: none; stroke: #1f77b4; stroke-width: 1.5; stroke-linecap: square"/>
    <defs>
     <path id="m9925f70d21" d="M 0 3 
C 0.795609 3 1.55874 2.683901 2.12132 2.12132 
C 2.683901 1.55874 3 0.795609 3 0 
C 3 -0.795609 2.683901 -1.55874 2.12132 -2.12132 
C 1.55874 -2.683901 0.795609 -3 0 -3 
C -0.795609 -3 -1.55874 -2.683901 -2.12132 -2.12132 
C -2.683901 -1.55874 -3 -0.795609 -3 0 
C -3 0.795609 -2.683901 1.55874 -2.12132 2.12132 
C -1.55874 2.683901 -0.795609 3 0 3 
z
" style="stroke: #1f77b4"/>
    </defs>
    <g clip-path="url(#pf4edef1885)">
     <use xlink:href="#m9925f70d21" x="152.293388" y="403.201629" style="fill: #1f77b4; stroke: #1f77b4"/>
     <use xlink:href="#m9925f70d21" x="173.910124" y="397.385399" style="fill: #1f77b4; stroke: #1f77b4"/>
     <use xlink:href="#m9925f70d21" x="209.938017" y="391.41384" style="fill: #1f77b4; stroke: #1f77b4"/>
     <use xlink:href="#m9925f70d21" x="281.993802" y="383.138226" style="fill: #1f77b4; stroke: #1f77b4"/>
     <use xlink:href="#m9925f70d21" x="498.161157" y="374.969616" style="fill: #1f77b4; stroke: #1f77b4"/>
    </g>
   </g>
   <g id="line2d_13">
    <path d="M 152.293388 276.866912 
L 173.910124 262.317709 
L 209.938017 271.568448 
L 281.993802 297.404933 
L 498.161157 339.461277 
" clip-path="url(#pf4edef1885)" style="fill: none; stroke: #ff7f0e; stroke-width: 1.5; stroke-linecap: square"/>
    <defs>
     <path id="m1423ae780b" d="M 0 3 
C 0.795609 3 1.55874 2.683901 2.12132 2.12132 
C 2.683901 1.55874 3 0.795609 3 0 
C 3 -0.795609 2.683901 -1.55874 2.12132 -2.12132 
C 1.55874 -2.683901 0.795609 -3 0 -3 
C -0.795609 -3 -1.55874 -2.683901 -2.12132 -2.12132 
C -2.683901 -1.55874 -3 -0.795609 -3 0 
C -3 0.795609 -2.683901 1.55874 -2.12132 2.12132 
C -1.55874 2.683901 -0.795609 3 0 3 
z
" style="stroke: #ff7f0e"/>
    </defs>
    <g clip-path="url(#pf4edef1885)">
     <use xlink:href="#m1423ae780b" x="152.293388" y="276.866912" style="fill: #ff7f0e; stroke: #ff7f0e"/>
     <use xlink:href="#m1423ae780b" x="173.910124" y="262.317709" style="fill: #ff7f0e; stroke: #ff7f0e"/>
     <use xlink:href="#m1423ae780b" x="209.938017" y="271.568448" style="fill: #ff7f0e; stroke: #ff7f0e"/>
     <use xlink:href="#m1423ae780b" x="281.993802" y="297.404933" style="fill: #ff7f0e; stroke: #ff7f0e"/>
     <use xlink:href="#m1423ae780b" x="498.161157" y="339.461277" style="fill: #ff7f0e; stroke: #ff7f0e"/>
    </g>
   </g>
   <g id="line2d_14">
    <path d="M 152.293388 333.217028 
L 173.910124 295.316613 
L 209.938017 287.412064 
L 281.993802 301.245025 
L 498.161157 341.352846 
" clip-path="url(#pf4edef1885)" style="fill: none; stroke: #2ca02c; stroke-width: 1.5; stroke-linecap: square"/>
    <defs>
     <path id="m95f495829f" d="M 0 3 
C 0.795609 3 1.55874 2.683901 2.12132 2.12132 
C 2.683901 1.55874 3 0.795609 3 0 
C 3 -0.795609 2.683901 -1.55874 2.12132 -2.12132 
C 1.55874 -2.683901 0.795609 -3 0 -3 
C -0.795609 -3 -1.55874 -2.683901 -2.12132 -2.12132 
C -2.683901 -1.55874 -3 -0.795609 -3 0 
C -3 0.795609 -2.683901 1.55874 -2.12132 2.12132 
C -1.55874 2.683901 -0.795609 3 0 3 
z
" style="stroke: #2ca02c"/>
    </defs>
    <g clip-path="url(#pf4edef1885)">
     <use xlink:href="#m95f495829f" x="152.293388" y="333.217028" style="fill: #2ca02c; stroke: #2ca02c"/>
     <use xlink:href="#m95f495829f" x="173.910124" y="295.316613" style="fill: #2ca02c; stroke: #2ca02c"/>
     <use xlink:href="#m95f495829f" x="209.938017" y="287.412064" style="fill: #2ca02c; stroke: #2ca02c"/>
     <use xlink:href="#m95f495829f" x="281.993802" y="301.245025" style="fill: #2ca02c; stroke: #2ca02c"/>
     <use xlink:href="#m95f495829f" x="498.161157" y="341.352846" style="fill: #2ca02c; stroke: #2ca02c"/>
    </g>
   </g>
   <g id="line2d_15">
    <path d="M 152.293388 323.81096 
L 173.910124 293.694282 
L 209.938017 283.269942 
L 281.993802 288.344041 
L 498.161157 318.205288 
" clip-path="url(#pf4edef1885)" style="fill: none; stroke: #d62728; stroke-width: 1.5; stroke-linecap: square"/>
    <defs>
     <path id="m67dac10edd" d="M 0 3 
C 0.795609 3 1.55874 2.683901 2.12132 2.12132 
C 2.683901 1.55874 3 0.795609 3 0 
C 3 -0.795609 2.683901 -1.55874 2.12132 -2.12132 
C 1.55874 -2.683901 0.795609 -3 0 -3 
C -0.795609 -3 -1.55874 -2.683901 -2.12132 -2.12132 
C -2.683901 -1.55874 -3 -0.795609 -3 0 
C -3 0.795609 -2.683901 1.55874 -2.12132 2.12132 
C -1.55874 2.683901 -0.795609 3 0 3 
z
" style="stroke: #d62728"/>
    </defs>
    <g clip-path="url(#pf4edef1885)">
     <use xlink:href="#m67dac10edd" x="152.293388" y="323.81096" style="fill: #d62728; stroke: #d62728"/>
     <use xlink:href="#m67dac10edd" x="173.910124" y="293.694282" style="fill: #d62728; stroke: #d62728"/>
     <use xlink:href="#m67dac10edd" x="209.938017" y="283.269942" style="fill: #d62728; stroke: #d62728"/>
     <use xlink:href="#m67dac10edd" x="281.993802" y="288.344041" style="fill: #d62728; stroke: #d62728"/>
     <use xlink:href="#m67dac10edd" x="498.161157" y="318.205288" style="fill: #d62728; stroke: #d62728"/>
    </g>
   </g>
   <g id="patch_3">
    <path d="M 135 418.130526 
L 135 155.52 
" style="fill: none; stroke: #000000; stroke-width: 0.8; stroke-linejoin: miter; stroke-linecap: square"/>
   </g>
   <g id="patch_4">
    <path d="M 515.454545 418.130526 
L 515.454545 155.52 
" style="fill: none; stroke: #000000; stroke-width: 0.8; stroke-linejoin: miter; stroke-linecap: square"/>
   </g>
   <g id="patch_5">
    <path d="M 135 418.130526 
L 515.454545 418.130526 
" style="fill: none; stroke: #000000; stroke-width: 0.8; stroke-linejoin: miter; stroke-linecap: square"/>
   </g>
   <g id="patch_6">
    <path d="M 135 155.52 
L 515.454545 155.52 
" style="fill: none; stroke: #000000; stroke-width: 0.8; stroke-linejoin: miter; stroke-linecap: square"/>
   </g>
   <g id="text_14">
    <!-- a -->
    <g transform="translate(89.472557 137.404046) scale(0.28 -0.28)">
     <defs>
      <path id="DejaVuSans-Bold-61" d="M 2106 1575 
Q 1756 1575 1579 1456 
Q 1403 1338 1403 1106 
Q 1403 894 1545 773 
Q 1688 653 1941 653 
Q 2256 653 2472 879 
Q 2688 1106 2688 1447 
L 2688 1575 
L 2106 1575 
z
M 3816 1997 
L 3816 0 
L 2688 0 
L 2688 519 
Q 2463 200 2181 54 
Q 1900 -91 1497 -91 
Q 953 -91 614 226 
Q 275 544 275 1050 
Q 275 1666 698 1953 
Q 1122 2241 2028 2241 
L 2688 2241 
L 2688 2328 
Q 2688 2594 2478 2717 
Q 2269 2841 1825 2841 
Q 1466 2841 1156 2769 
Q 847 2697 581 2553 
L 581 3406 
Q 941 3494 1303 3539 
Q 1666 3584 2028 3584 
Q 2975 3584 3395 3211 
Q 3816 2838 3816 1997 
z
" transform="scale(0.015625)"/>
     </defs>
     <use xlink:href="#DejaVuSans-Bold-61"/>
    </g>
   </g>
   <g id="text_15">
    <!-- $P_{NN}$ -->
    <g transform="translate(303.387273 149.52) scale(0.26 -0.26)">
     <use xlink:href="#DejaVuSans-Oblique-50" transform="translate(0 0.09375)"/>
     <use xlink:href="#DejaVuSans-Oblique-4e" transform="translate(60.302734 -16.3125) scale(0.7)"/>
     <use xlink:href="#DejaVuSans-Oblique-4e" transform="translate(112.666016 -16.3125) scale(0.7)"/>
    </g>
   </g>
  </g>
  <g id="axes_2">
   <g id="patch_7">
    <path d="M 591.545455 418.130526 
L 972 418.130526 
L 972 155.52 
L 591.545455 155.52 
z
" style="fill: #ffffff"/>
   </g>
   <g id="patch_8">
    <path d="M 608.838843 418.130526 
L 628.792753 418.130526 
L 628.792753 175.735204 
L 608.838843 175.735204 
z
" clip-path="url(#pacf3b1bc5f)" style="fill: #1f77b4"/>
   </g>
   <g id="patch_9">
    <path d="M 741.864908 418.130526 
L 761.818818 418.130526 
L 761.818818 370.491408 
L 741.864908 370.491408 
z
" clip-path="url(#pacf3b1bc5f)" style="fill: #1f77b4"/>
   </g>
   <g id="patch_10">
    <path d="M 874.890973 418.130526 
L 894.844882 418.130526 
L 894.844882 170.661412 
L 874.890973 170.661412 
z
" clip-path="url(#pacf3b1bc5f)" style="fill: #1f77b4"/>
   </g>
   <g id="patch_11">
    <path d="M 628.792753 418.130526 
L 648.746662 418.130526 
L 648.746662 177.932726 
L 628.792753 177.932726 
z
" clip-path="url(#pacf3b1bc5f)" style="fill: #ff7f0e"/>
   </g>
   <g id="patch_12">
    <path d="M 761.818818 418.130526 
L 781.772727 418.130526 
L 781.772727 215.033824 
L 761.818818 215.033824 
z
" clip-path="url(#pacf3b1bc5f)" style="fill: #ff7f0e"/>
   </g>
   <g id="patch_13">
    <path d="M 894.844882 418.130526 
L 914.798792 418.130526 
L 914.798792 177.813589 
L 894.844882 177.813589 
z
" clip-path="url(#pacf3b1bc5f)" style="fill: #ff7f0e"/>
   </g>
   <g id="patch_14">
    <path d="M 648.746662 418.130526 
L 668.700572 418.130526 
L 668.700572 181.270929 
L 648.746662 181.270929 
z
" clip-path="url(#pacf3b1bc5f)" style="fill: #2ca02c"/>
   </g>
   <g id="patch_15">
    <path d="M 781.772727 418.130526 
L 801.726637 418.130526 
L 801.726637 266.623858 
L 781.772727 266.623858 
z
" clip-path="url(#pacf3b1bc5f)" style="fill: #2ca02c"/>
   </g>
   <g id="patch_16">
    <path d="M 914.798792 418.130526 
L 934.752702 418.130526 
L 934.752702 180.928172 
L 914.798792 180.928172 
z
" clip-path="url(#pacf3b1bc5f)" style="fill: #2ca02c"/>
   </g>
   <g id="patch_17">
    <path d="M 668.700572 418.130526 
L 688.654482 418.130526 
L 688.654482 168.473307 
L 668.700572 168.473307 
z
" clip-path="url(#pacf3b1bc5f)" style="fill: #d62728"/>
   </g>
   <g id="patch_18">
    <path d="M 801.726637 418.130526 
L 821.680547 418.130526 
L 821.680547 254.921904 
L 801.726637 254.921904 
z
" clip-path="url(#pacf3b1bc5f)" style="fill: #d62728"/>
   </g>
   <g id="patch_19">
    <path d="M 934.752702 418.130526 
L 954.706612 418.130526 
L 954.706612 168.025263 
L 934.752702 168.025263 
z
" clip-path="url(#pacf3b1bc5f)" style="fill: #d62728"/>
   </g>
   <g id="matplotlib.axis_3">
    <g id="xtick_7">
     <g id="line2d_16">
      <g>
       <use xlink:href="#m532e554d0e" x="648.746662" y="418.130526" style="stroke: #000000; stroke-width: 0.8"/>
      </g>
     </g>
     <g id="text_16">
      <!-- AUC -->
      <g transform="translate(625.490256 441.847089) scale(0.22 -0.22)">
       <defs>
        <path id="DejaVuSans-41" d="M 2188 4044 
L 1331 1722 
L 3047 1722 
L 2188 4044 
z
M 1831 4666 
L 2547 4666 
L 4325 0 
L 3669 0 
L 3244 1197 
L 1141 1197 
L 716 0 
L 50 0 
L 1831 4666 
z
" transform="scale(0.015625)"/>
        <path id="DejaVuSans-55" d="M 556 4666 
L 1191 4666 
L 1191 1831 
Q 1191 1081 1462 751 
Q 1734 422 2344 422 
Q 2950 422 3222 751 
Q 3494 1081 3494 1831 
L 3494 4666 
L 4128 4666 
L 4128 1753 
Q 4128 841 3676 375 
Q 3225 -91 2344 -91 
Q 1459 -91 1007 375 
Q 556 841 556 1753 
L 556 4666 
z
" transform="scale(0.015625)"/>
        <path id="DejaVuSans-43" d="M 4122 4306 
L 4122 3641 
Q 3803 3938 3442 4084 
Q 3081 4231 2675 4231 
Q 1875 4231 1450 3742 
Q 1025 3253 1025 2328 
Q 1025 1406 1450 917 
Q 1875 428 2675 428 
Q 3081 428 3442 575 
Q 3803 722 4122 1019 
L 4122 359 
Q 3791 134 3420 21 
Q 3050 -91 2638 -91 
Q 1578 -91 968 557 
Q 359 1206 359 2328 
Q 359 3453 968 4101 
Q 1578 4750 2638 4750 
Q 3056 4750 3426 4639 
Q 3797 4528 4122 4306 
z
" transform="scale(0.015625)"/>
       </defs>
       <use xlink:href="#DejaVuSans-41"/>
       <use xlink:href="#DejaVuSans-55" x="68.408203"/>
       <use xlink:href="#DejaVuSans-43" x="141.601562"/>
      </g>
     </g>
    </g>
    <g id="xtick_8">
     <g id="line2d_17">
      <g>
       <use xlink:href="#m532e554d0e" x="781.772727" y="418.130526" style="stroke: #000000; stroke-width: 0.8"/>
      </g>
     </g>
     <g id="text_17">
      <!-- $Q_{local}$ -->
      <g transform="translate(754.822727 441.847089) scale(0.22 -0.22)">
       <defs>
        <path id="DejaVuSans-Oblique-51" d="M 2309 -84 
Q 2275 -88 2237 -89 
Q 2200 -91 2125 -91 
Q 1250 -91 756 411 
Q 263 913 263 1797 
Q 263 2319 452 2844 
Q 641 3369 978 3788 
Q 1369 4269 1858 4509 
Q 2347 4750 2938 4750 
Q 3794 4750 4287 4245 
Q 4781 3741 4781 2869 
Q 4781 1928 4265 1147 
Q 3750 366 2919 44 
L 3553 -825 
L 2847 -825 
L 2309 -84 
z
M 2919 4238 
Q 2400 4238 2003 3986 
Q 1606 3734 1313 3219 
Q 1125 2891 1026 2522 
Q 928 2153 928 1778 
Q 928 1128 1239 775 
Q 1550 422 2119 422 
Q 2631 422 3032 676 
Q 3434 931 3719 1434 
Q 3909 1772 4009 2142 
Q 4109 2513 4109 2881 
Q 4109 3528 3796 3883 
Q 3484 4238 2919 4238 
z
" transform="scale(0.015625)"/>
        <path id="DejaVuSans-Oblique-6c" d="M 1172 4863 
L 1747 4863 
L 800 0 
L 225 0 
L 1172 4863 
z
" transform="scale(0.015625)"/>
        <path id="DejaVuSans-Oblique-6f" d="M 1625 -91 
Q 1009 -91 651 289 
Q 294 669 294 1325 
Q 294 1706 417 2101 
Q 541 2497 738 2766 
Q 1047 3184 1428 3384 
Q 1809 3584 2291 3584 
Q 2888 3584 3255 3212 
Q 3622 2841 3622 2241 
Q 3622 1825 3500 1412 
Q 3378 1000 3181 728 
Q 2875 309 2494 109 
Q 2113 -91 1625 -91 
z
M 891 1344 
Q 891 869 1089 633 
Q 1288 397 1691 397 
Q 2269 397 2648 901 
Q 3028 1406 3028 2181 
Q 3028 2634 2825 2865 
Q 2622 3097 2228 3097 
Q 1903 3097 1650 2945 
Q 1397 2794 1197 2484 
Q 1050 2253 970 1956 
Q 891 1659 891 1344 
z
" transform="scale(0.015625)"/>
        <path id="DejaVuSans-Oblique-63" d="M 3431 3366 
L 3316 2797 
Q 3109 2947 2876 3022 
Q 2644 3097 2394 3097 
Q 2119 3097 1870 3000 
Q 1622 2903 1453 2725 
Q 1184 2453 1037 2087 
Q 891 1722 891 1331 
Q 891 859 1127 628 
Q 1363 397 1844 397 
Q 2081 397 2348 469 
Q 2616 541 2906 684 
L 2797 116 
Q 2547 13 2283 -39 
Q 2019 -91 1741 -91 
Q 1044 -91 669 257 
Q 294 606 294 1253 
Q 294 1797 489 2255 
Q 684 2713 1069 3078 
Q 1331 3328 1684 3456 
Q 2038 3584 2456 3584 
Q 2700 3584 2940 3529 
Q 3181 3475 3431 3366 
z
" transform="scale(0.015625)"/>
        <path id="DejaVuSans-Oblique-61" d="M 3438 1997 
L 3047 0 
L 2472 0 
L 2578 531 
Q 2325 219 2001 64 
Q 1678 -91 1281 -91 
Q 834 -91 548 182 
Q 263 456 263 884 
Q 263 1497 752 1853 
Q 1241 2209 2100 2209 
L 2900 2209 
L 2931 2363 
Q 2938 2388 2941 2417 
Q 2944 2447 2944 2509 
Q 2944 2788 2717 2942 
Q 2491 3097 2081 3097 
Q 1800 3097 1504 3025 
Q 1209 2953 897 2809 
L 997 3341 
Q 1322 3463 1633 3523 
Q 1944 3584 2234 3584 
Q 2853 3584 3176 3315 
Q 3500 3047 3500 2534 
Q 3500 2431 3484 2292 
Q 3469 2153 3438 1997 
z
M 2816 1759 
L 2241 1759 
Q 1534 1759 1195 1570 
Q 856 1381 856 984 
Q 856 709 1029 553 
Q 1203 397 1509 397 
Q 1978 397 2328 733 
Q 2678 1069 2791 1631 
L 2816 1759 
z
" transform="scale(0.015625)"/>
       </defs>
       <use xlink:href="#DejaVuSans-Oblique-51" transform="translate(0 0.78125)"/>
       <use xlink:href="#DejaVuSans-Oblique-6c" transform="translate(78.710938 -15.625) scale(0.7)"/>
       <use xlink:href="#DejaVuSans-Oblique-6f" transform="translate(98.15918 -15.625) scale(0.7)"/>
       <use xlink:href="#DejaVuSans-Oblique-63" transform="translate(140.986328 -15.625) scale(0.7)"/>
       <use xlink:href="#DejaVuSans-Oblique-61" transform="translate(179.472656 -15.625) scale(0.7)"/>
       <use xlink:href="#DejaVuSans-Oblique-6c" transform="translate(222.368164 -15.625) scale(0.7)"/>
      </g>
     </g>
    </g>
    <g id="xtick_9">
     <g id="line2d_18">
      <g>
       <use xlink:href="#m532e554d0e" x="914.798792" y="418.130526" style="stroke: #000000; stroke-width: 0.8"/>
      </g>
     </g>
     <g id="text_18">
      <!-- $Q_{global}$ -->
      <g transform="translate(882.348792 441.630526) scale(0.22 -0.22)">
       <defs>
        <path id="DejaVuSans-Oblique-67" d="M 3816 3500 
L 3219 434 
Q 3047 -456 2561 -893 
Q 2075 -1331 1253 -1331 
Q 950 -1331 690 -1286 
Q 431 -1241 206 -1147 
L 313 -588 
Q 525 -725 762 -790 
Q 1000 -856 1269 -856 
Q 1816 -856 2167 -557 
Q 2519 -259 2631 300 
L 2681 563 
Q 2441 288 2122 144 
Q 1803 0 1434 0 
Q 903 0 598 351 
Q 294 703 294 1319 
Q 294 1803 478 2267 
Q 663 2731 997 3091 
Q 1219 3328 1514 3456 
Q 1809 3584 2131 3584 
Q 2484 3584 2746 3420 
Q 3009 3256 3138 2956 
L 3238 3500 
L 3816 3500 
z
M 2950 2216 
Q 2950 2641 2750 2872 
Q 2550 3103 2181 3103 
Q 1953 3103 1747 3012 
Q 1541 2922 1394 2759 
Q 1156 2491 1023 2127 
Q 891 1763 891 1375 
Q 891 944 1092 712 
Q 1294 481 1672 481 
Q 2219 481 2584 976 
Q 2950 1472 2950 2216 
z
" transform="scale(0.015625)"/>
        <path id="DejaVuSans-Oblique-62" d="M 3169 2138 
Q 3169 2591 2961 2847 
Q 2753 3103 2388 3103 
Q 2122 3103 1889 2973 
Q 1656 2844 1484 2597 
Q 1303 2338 1198 1995 
Q 1094 1653 1094 1313 
Q 1094 881 1298 636 
Q 1503 391 1863 391 
Q 2134 391 2365 517 
Q 2597 644 2772 891 
Q 2950 1147 3059 1487 
Q 3169 1828 3169 2138 
z
M 1381 2969 
Q 1594 3256 1914 3420 
Q 2234 3584 2584 3584 
Q 3122 3584 3439 3221 
Q 3756 2859 3756 2241 
Q 3756 1734 3570 1259 
Q 3384 784 3041 416 
Q 2816 172 2522 40 
Q 2228 -91 1906 -91 
Q 1566 -91 1316 65 
Q 1066 222 909 531 
L 806 0 
L 231 0 
L 1178 4863 
L 1753 4863 
L 1381 2969 
z
" transform="scale(0.015625)"/>
       </defs>
       <use xlink:href="#DejaVuSans-Oblique-51" transform="translate(0 0.78125)"/>
       <use xlink:href="#DejaVuSans-Oblique-67" transform="translate(78.710938 -15.625) scale(0.7)"/>
       <use xlink:href="#DejaVuSans-Oblique-6c" transform="translate(123.144531 -15.625) scale(0.7)"/>
       <use xlink:href="#DejaVuSans-Oblique-6f" transform="translate(142.592773 -15.625) scale(0.7)"/>
       <use xlink:href="#DejaVuSans-Oblique-62" transform="translate(185.419922 -15.625) scale(0.7)"/>
       <use xlink:href="#DejaVuSans-Oblique-61" transform="translate(229.853516 -15.625) scale(0.7)"/>
       <use xlink:href="#DejaVuSans-Oblique-6c" transform="translate(272.749023 -15.625) scale(0.7)"/>
      </g>
     </g>
    </g>
   </g>
   <g id="matplotlib.axis_4">
    <g id="ytick_6">
     <g id="line2d_19">
      <g>
       <use xlink:href="#m93ddb6e5fe" x="591.545455" y="418.130526" style="stroke: #000000; stroke-width: 0.8"/>
      </g>
     </g>
     <g id="text_19">
      <!-- 0.0 -->
      <g transform="translate(549.55858 426.488808) scale(0.22 -0.22)">
       <use xlink:href="#DejaVuSans-30"/>
       <use xlink:href="#DejaVuSans-2e" x="63.623047"/>
       <use xlink:href="#DejaVuSans-30" x="95.410156"/>
      </g>
     </g>
    </g>
    <g id="ytick_7">
     <g id="line2d_20">
      <g>
       <use xlink:href="#m93ddb6e5fe" x="591.545455" y="327.370766" style="stroke: #000000; stroke-width: 0.8"/>
      </g>
     </g>
     <g id="text_20">
      <!-- 0.2 -->
      <g transform="translate(549.55858 335.729047) scale(0.22 -0.22)">
       <use xlink:href="#DejaVuSans-30"/>
       <use xlink:href="#DejaVuSans-2e" x="63.623047"/>
       <use xlink:href="#DejaVuSans-32" x="95.410156"/>
      </g>
     </g>
    </g>
    <g id="ytick_8">
     <g id="line2d_21">
      <g>
       <use xlink:href="#m93ddb6e5fe" x="591.545455" y="236.611005" style="stroke: #000000; stroke-width: 0.8"/>
      </g>
     </g>
     <g id="text_21">
      <!-- 0.4 -->
      <g transform="translate(549.55858 244.969287) scale(0.22 -0.22)">
       <use xlink:href="#DejaVuSans-30"/>
       <use xlink:href="#DejaVuSans-2e" x="63.623047"/>
       <use xlink:href="#DejaVuSans-34" x="95.410156"/>
      </g>
     </g>
    </g>
    <g id="text_22">
     <!-- Metric Value -->
     <g transform="translate(540.983267 354.727919) rotate(-90) scale(0.22 -0.22)">
      <defs>
       <path id="DejaVuSans-4d" d="M 628 4666 
L 1569 4666 
L 2759 1491 
L 3956 4666 
L 4897 4666 
L 4897 0 
L 4281 0 
L 4281 4097 
L 3078 897 
L 2444 897 
L 1241 4097 
L 1241 0 
L 628 0 
L 628 4666 
z
" transform="scale(0.015625)"/>
       <path id="DejaVuSans-65" d="M 3597 1894 
L 3597 1613 
L 953 1613 
Q 991 1019 1311 708 
Q 1631 397 2203 397 
Q 2534 397 2845 478 
Q 3156 559 3463 722 
L 3463 178 
Q 3153 47 2828 -22 
Q 2503 -91 2169 -91 
Q 1331 -91 842 396 
Q 353 884 353 1716 
Q 353 2575 817 3079 
Q 1281 3584 2069 3584 
Q 2775 3584 3186 3129 
Q 3597 2675 3597 1894 
z
M 3022 2063 
Q 3016 2534 2758 2815 
Q 2500 3097 2075 3097 
Q 1594 3097 1305 2825 
Q 1016 2553 972 2059 
L 3022 2063 
z
" transform="scale(0.015625)"/>
       <path id="DejaVuSans-74" d="M 1172 4494 
L 1172 3500 
L 2356 3500 
L 2356 3053 
L 1172 3053 
L 1172 1153 
Q 1172 725 1289 603 
Q 1406 481 1766 481 
L 2356 481 
L 2356 0 
L 1766 0 
Q 1100 0 847 248 
Q 594 497 594 1153 
L 594 3053 
L 172 3053 
L 172 3500 
L 594 3500 
L 594 4494 
L 1172 4494 
z
" transform="scale(0.015625)"/>
       <path id="DejaVuSans-72" d="M 2631 2963 
Q 2534 3019 2420 3045 
Q 2306 3072 2169 3072 
Q 1681 3072 1420 2755 
Q 1159 2438 1159 1844 
L 1159 0 
L 581 0 
L 581 3500 
L 1159 3500 
L 1159 2956 
Q 1341 3275 1631 3429 
Q 1922 3584 2338 3584 
Q 2397 3584 2469 3576 
Q 2541 3569 2628 3553 
L 2631 2963 
z
" transform="scale(0.015625)"/>
       <path id="DejaVuSans-69" d="M 603 3500 
L 1178 3500 
L 1178 0 
L 603 0 
L 603 3500 
z
M 603 4863 
L 1178 4863 
L 1178 4134 
L 603 4134 
L 603 4863 
z
" transform="scale(0.015625)"/>
       <path id="DejaVuSans-63" d="M 3122 3366 
L 3122 2828 
Q 2878 2963 2633 3030 
Q 2388 3097 2138 3097 
Q 1578 3097 1268 2742 
Q 959 2388 959 1747 
Q 959 1106 1268 751 
Q 1578 397 2138 397 
Q 2388 397 2633 464 
Q 2878 531 3122 666 
L 3122 134 
Q 2881 22 2623 -34 
Q 2366 -91 2075 -91 
Q 1284 -91 818 406 
Q 353 903 353 1747 
Q 353 2603 823 3093 
Q 1294 3584 2113 3584 
Q 2378 3584 2631 3529 
Q 2884 3475 3122 3366 
z
" transform="scale(0.015625)"/>
       <path id="DejaVuSans-20" transform="scale(0.015625)"/>
       <path id="DejaVuSans-56" d="M 1831 0 
L 50 4666 
L 709 4666 
L 2188 738 
L 3669 4666 
L 4325 4666 
L 2547 0 
L 1831 0 
z
" transform="scale(0.015625)"/>
       <path id="DejaVuSans-61" d="M 2194 1759 
Q 1497 1759 1228 1600 
Q 959 1441 959 1056 
Q 959 750 1161 570 
Q 1363 391 1709 391 
Q 2188 391 2477 730 
Q 2766 1069 2766 1631 
L 2766 1759 
L 2194 1759 
z
M 3341 1997 
L 3341 0 
L 2766 0 
L 2766 531 
Q 2569 213 2275 61 
Q 1981 -91 1556 -91 
Q 1019 -91 701 211 
Q 384 513 384 1019 
Q 384 1609 779 1909 
Q 1175 2209 1959 2209 
L 2766 2209 
L 2766 2266 
Q 2766 2663 2505 2880 
Q 2244 3097 1772 3097 
Q 1472 3097 1187 3025 
Q 903 2953 641 2809 
L 641 3341 
Q 956 3463 1253 3523 
Q 1550 3584 1831 3584 
Q 2591 3584 2966 3190 
Q 3341 2797 3341 1997 
z
" transform="scale(0.015625)"/>
       <path id="DejaVuSans-6c" d="M 603 4863 
L 1178 4863 
L 1178 0 
L 603 0 
L 603 4863 
z
" transform="scale(0.015625)"/>
       <path id="DejaVuSans-75" d="M 544 1381 
L 544 3500 
L 1119 3500 
L 1119 1403 
Q 1119 906 1312 657 
Q 1506 409 1894 409 
Q 2359 409 2629 706 
Q 2900 1003 2900 1516 
L 2900 3500 
L 3475 3500 
L 3475 0 
L 2900 0 
L 2900 538 
Q 2691 219 2414 64 
Q 2138 -91 1772 -91 
Q 1169 -91 856 284 
Q 544 659 544 1381 
z
M 1991 3584 
L 1991 3584 
z
" transform="scale(0.015625)"/>
      </defs>
      <use xlink:href="#DejaVuSans-4d"/>
      <use xlink:href="#DejaVuSans-65" x="86.279297"/>
      <use xlink:href="#DejaVuSans-74" x="147.802734"/>
      <use xlink:href="#DejaVuSans-72" x="187.011719"/>
      <use xlink:href="#DejaVuSans-69" x="228.125"/>
      <use xlink:href="#DejaVuSans-63" x="255.908203"/>
      <use xlink:href="#DejaVuSans-20" x="310.888672"/>
      <use xlink:href="#DejaVuSans-56" x="342.675781"/>
      <use xlink:href="#DejaVuSans-61" x="403.333984"/>
      <use xlink:href="#DejaVuSans-6c" x="464.613281"/>
      <use xlink:href="#DejaVuSans-75" x="492.396484"/>
      <use xlink:href="#DejaVuSans-65" x="555.775391"/>
     </g>
    </g>
   </g>
   <g id="patch_20">
    <path d="M 591.545455 418.130526 
L 591.545455 155.52 
" style="fill: none; stroke: #000000; stroke-width: 0.8; stroke-linejoin: miter; stroke-linecap: square"/>
   </g>
   <g id="patch_21">
    <path d="M 972 418.130526 
L 972 155.52 
" style="fill: none; stroke: #000000; stroke-width: 0.8; stroke-linejoin: miter; stroke-linecap: square"/>
   </g>
   <g id="patch_22">
    <path d="M 591.545455 418.130526 
L 972 418.130526 
" style="fill: none; stroke: #000000; stroke-width: 0.8; stroke-linejoin: miter; stroke-linecap: square"/>
   </g>
   <g id="patch_23">
    <path d="M 591.545455 155.52 
L 972 155.52 
" style="fill: none; stroke: #000000; stroke-width: 0.8; stroke-linejoin: miter; stroke-linecap: square"/>
   </g>
   <g id="text_23">
    <!-- b -->
    <g transform="translate(544.871761 137.404046) scale(0.28 -0.28)">
     <defs>
      <path id="DejaVuSans-Bold-62" d="M 2400 722 
Q 2759 722 2948 984 
Q 3138 1247 3138 1747 
Q 3138 2247 2948 2509 
Q 2759 2772 2400 2772 
Q 2041 2772 1848 2508 
Q 1656 2244 1656 1747 
Q 1656 1250 1848 986 
Q 2041 722 2400 722 
z
M 1656 2988 
Q 1888 3294 2169 3439 
Q 2450 3584 2816 3584 
Q 3463 3584 3878 3070 
Q 4294 2556 4294 1747 
Q 4294 938 3878 423 
Q 3463 -91 2816 -91 
Q 2450 -91 2169 54 
Q 1888 200 1656 506 
L 1656 0 
L 538 0 
L 538 4863 
L 1656 4863 
L 1656 2988 
z
" transform="scale(0.015625)"/>
     </defs>
     <use xlink:href="#DejaVuSans-Bold-62"/>
    </g>
   </g>
   <g id="text_24">
    <!-- Metrics -->
    <g transform="translate(734.584759 149.52) scale(0.26 -0.26)">
     <defs>
      <path id="DejaVuSans-73" d="M 2834 3397 
L 2834 2853 
Q 2591 2978 2328 3040 
Q 2066 3103 1784 3103 
Q 1356 3103 1142 2972 
Q 928 2841 928 2578 
Q 928 2378 1081 2264 
Q 1234 2150 1697 2047 
L 1894 2003 
Q 2506 1872 2764 1633 
Q 3022 1394 3022 966 
Q 3022 478 2636 193 
Q 2250 -91 1575 -91 
Q 1294 -91 989 -36 
Q 684 19 347 128 
L 347 722 
Q 666 556 975 473 
Q 1284 391 1588 391 
Q 1994 391 2212 530 
Q 2431 669 2431 922 
Q 2431 1156 2273 1281 
Q 2116 1406 1581 1522 
L 1381 1569 
Q 847 1681 609 1914 
Q 372 2147 372 2553 
Q 372 3047 722 3315 
Q 1072 3584 1716 3584 
Q 2034 3584 2315 3537 
Q 2597 3491 2834 3397 
z
" transform="scale(0.015625)"/>
     </defs>
     <use xlink:href="#DejaVuSans-4d"/>
     <use xlink:href="#DejaVuSans-65" x="86.279297"/>
     <use xlink:href="#DejaVuSans-74" x="147.802734"/>
     <use xlink:href="#DejaVuSans-72" x="187.011719"/>
     <use xlink:href="#DejaVuSans-69" x="228.125"/>
     <use xlink:href="#DejaVuSans-63" x="255.908203"/>
     <use xlink:href="#DejaVuSans-73" x="310.888672"/>
    </g>
   </g>
  </g>
  <g id="axes_3">
   <g id="patch_24">
    <path d="M 135 785.785263 
L 515.454545 785.785263 
L 515.454545 523.174737 
L 135 523.174737 
z
" style="fill: #ffffff"/>
   </g>
   <g id="matplotlib.axis_5">
    <g id="xtick_10">
     <g id="line2d_22">
      <g>
       <use xlink:href="#m532e554d0e" x="137.882231" y="785.785263" style="stroke: #000000; stroke-width: 0.8"/>
      </g>
     </g>
     <g id="text_25">
      <!-- 0 -->
      <g transform="translate(130.883481 809.501826) scale(0.22 -0.22)">
       <use xlink:href="#DejaVuSans-30"/>
      </g>
     </g>
    </g>
    <g id="xtick_11">
     <g id="line2d_23">
      <g>
       <use xlink:href="#m532e554d0e" x="281.993802" y="785.785263" style="stroke: #000000; stroke-width: 0.8"/>
      </g>
     </g>
     <g id="text_26">
      <!-- 20 -->
      <g transform="translate(267.996302 809.501826) scale(0.22 -0.22)">
       <use xlink:href="#DejaVuSans-32"/>
       <use xlink:href="#DejaVuSans-30" x="63.623047"/>
      </g>
     </g>
    </g>
    <g id="xtick_12">
     <g id="line2d_24">
      <g>
       <use xlink:href="#m532e554d0e" x="426.105372" y="785.785263" style="stroke: #000000; stroke-width: 0.8"/>
      </g>
     </g>
     <g id="text_27">
      <!-- 40 -->
      <g transform="translate(412.107872 809.501826) scale(0.22 -0.22)">
       <use xlink:href="#DejaVuSans-34"/>
       <use xlink:href="#DejaVuSans-30" x="63.623047"/>
      </g>
     </g>
    </g>
    <g id="text_28">
     <!-- k -->
     <g transform="translate(318.278523 836.313388) scale(0.24 -0.24)">
      <use xlink:href="#DejaVuSans-6b"/>
     </g>
    </g>
   </g>
   <g id="matplotlib.axis_6">
    <g id="ytick_9">
     <g id="line2d_25">
      <g>
       <use xlink:href="#m93ddb6e5fe" x="135" y="779.076643" style="stroke: #000000; stroke-width: 0.8"/>
      </g>
     </g>
     <g id="text_29">
      <!-- 0.6 -->
      <g transform="translate(93.013125 787.434924) scale(0.22 -0.22)">
       <use xlink:href="#DejaVuSans-30"/>
       <use xlink:href="#DejaVuSans-2e" x="63.623047"/>
       <use xlink:href="#DejaVuSans-36" x="95.410156"/>
      </g>
     </g>
    </g>
    <g id="ytick_10">
     <g id="line2d_26">
      <g>
       <use xlink:href="#m93ddb6e5fe" x="135" y="703.166608" style="stroke: #000000; stroke-width: 0.8"/>
      </g>
     </g>
     <g id="text_30">
      <!-- 0.7 -->
      <g transform="translate(93.013125 711.524889) scale(0.22 -0.22)">
       <defs>
        <path id="DejaVuSans-37" d="M 525 4666 
L 3525 4666 
L 3525 4397 
L 1831 0 
L 1172 0 
L 2766 4134 
L 525 4134 
L 525 4666 
z
" transform="scale(0.015625)"/>
       </defs>
       <use xlink:href="#DejaVuSans-30"/>
       <use xlink:href="#DejaVuSans-2e" x="63.623047"/>
       <use xlink:href="#DejaVuSans-37" x="95.410156"/>
      </g>
     </g>
    </g>
    <g id="ytick_11">
     <g id="line2d_27">
      <g>
       <use xlink:href="#m93ddb6e5fe" x="135" y="627.256572" style="stroke: #000000; stroke-width: 0.8"/>
      </g>
     </g>
     <g id="text_31">
      <!-- 0.8 -->
      <g transform="translate(93.013125 635.614854) scale(0.22 -0.22)">
       <use xlink:href="#DejaVuSans-30"/>
       <use xlink:href="#DejaVuSans-2e" x="63.623047"/>
       <use xlink:href="#DejaVuSans-38" x="95.410156"/>
      </g>
     </g>
    </g>
    <g id="ytick_12">
     <g id="line2d_28">
      <g>
       <use xlink:href="#m93ddb6e5fe" x="135" y="551.346537" style="stroke: #000000; stroke-width: 0.8"/>
      </g>
     </g>
     <g id="text_32">
      <!-- 0.9 -->
      <g transform="translate(93.013125 559.704819) scale(0.22 -0.22)">
       <defs>
        <path id="DejaVuSans-39" d="M 703 97 
L 703 672 
Q 941 559 1184 500 
Q 1428 441 1663 441 
Q 2288 441 2617 861 
Q 2947 1281 2994 2138 
Q 2813 1869 2534 1725 
Q 2256 1581 1919 1581 
Q 1219 1581 811 2004 
Q 403 2428 403 3163 
Q 403 3881 828 4315 
Q 1253 4750 1959 4750 
Q 2769 4750 3195 4129 
Q 3622 3509 3622 2328 
Q 3622 1225 3098 567 
Q 2575 -91 1691 -91 
Q 1453 -91 1209 -44 
Q 966 3 703 97 
z
M 1959 2075 
Q 2384 2075 2632 2365 
Q 2881 2656 2881 3163 
Q 2881 3666 2632 3958 
Q 2384 4250 1959 4250 
Q 1534 4250 1286 3958 
Q 1038 3666 1038 3163 
Q 1038 2656 1286 2365 
Q 1534 2075 1959 2075 
z
" transform="scale(0.015625)"/>
       </defs>
       <use xlink:href="#DejaVuSans-30"/>
       <use xlink:href="#DejaVuSans-2e" x="63.623047"/>
       <use xlink:href="#DejaVuSans-39" x="95.410156"/>
      </g>
     </g>
    </g>
    <g id="text_33">
     <!-- Metric Value -->
     <g transform="translate(84.021875 728.555625) rotate(-90) scale(0.24 -0.24)">
      <use xlink:href="#DejaVuSans-4d"/>
      <use xlink:href="#DejaVuSans-65" x="86.279297"/>
      <use xlink:href="#DejaVuSans-74" x="147.802734"/>
      <use xlink:href="#DejaVuSans-72" x="187.011719"/>
      <use xlink:href="#DejaVuSans-69" x="228.125"/>
      <use xlink:href="#DejaVuSans-63" x="255.908203"/>
      <use xlink:href="#DejaVuSans-20" x="310.888672"/>
      <use xlink:href="#DejaVuSans-56" x="342.675781"/>
      <use xlink:href="#DejaVuSans-61" x="403.333984"/>
      <use xlink:href="#DejaVuSans-6c" x="464.613281"/>
      <use xlink:href="#DejaVuSans-75" x="492.396484"/>
      <use xlink:href="#DejaVuSans-65" x="555.775391"/>
     </g>
    </g>
   </g>
   <g id="line2d_29">
    <path d="M 152.293388 766.617985 
L 173.910124 765.497543 
L 209.938017 766.708026 
L 281.993802 769.074213 
L 498.161157 773.848421 
" clip-path="url(#pfc2d40d477)" style="fill: none; stroke: #1f77b4; stroke-width: 1.5; stroke-linecap: square"/>
    <g clip-path="url(#pfc2d40d477)">
     <use xlink:href="#m9925f70d21" x="152.293388" y="766.617985" style="fill: #1f77b4; stroke: #1f77b4"/>
     <use xlink:href="#m9925f70d21" x="173.910124" y="765.497543" style="fill: #1f77b4; stroke: #1f77b4"/>
     <use xlink:href="#m9925f70d21" x="209.938017" y="766.708026" style="fill: #1f77b4; stroke: #1f77b4"/>
     <use xlink:href="#m9925f70d21" x="281.993802" y="769.074213" style="fill: #1f77b4; stroke: #1f77b4"/>
     <use xlink:href="#m9925f70d21" x="498.161157" y="773.848421" style="fill: #1f77b4; stroke: #1f77b4"/>
    </g>
   </g>
   <g id="line2d_30">
    <path d="M 152.293388 535.111579 
L 173.910124 567.120385 
L 209.938017 610.1935 
L 281.993802 666.067915 
L 498.161157 733.56918 
" clip-path="url(#pfc2d40d477)" style="fill: none; stroke: #ff7f0e; stroke-width: 1.5; stroke-linecap: square"/>
    <g clip-path="url(#pfc2d40d477)">
     <use xlink:href="#m1423ae780b" x="152.293388" y="535.111579" style="fill: #ff7f0e; stroke: #ff7f0e"/>
     <use xlink:href="#m1423ae780b" x="173.910124" y="567.120385" style="fill: #ff7f0e; stroke: #ff7f0e"/>
     <use xlink:href="#m1423ae780b" x="209.938017" y="610.1935" style="fill: #ff7f0e; stroke: #ff7f0e"/>
     <use xlink:href="#m1423ae780b" x="281.993802" y="666.067915" style="fill: #ff7f0e; stroke: #ff7f0e"/>
     <use xlink:href="#m1423ae780b" x="498.161157" y="733.56918" style="fill: #ff7f0e; stroke: #ff7f0e"/>
    </g>
   </g>
   <g id="line2d_31">
    <path d="M 152.293388 583.727194 
L 173.910124 597.433168 
L 209.938017 630.493639 
L 281.993802 681.255752 
L 498.161157 748.182054 
" clip-path="url(#pfc2d40d477)" style="fill: none; stroke: #2ca02c; stroke-width: 1.5; stroke-linecap: square"/>
    <g clip-path="url(#pfc2d40d477)">
     <use xlink:href="#m95f495829f" x="152.293388" y="583.727194" style="fill: #2ca02c; stroke: #2ca02c"/>
     <use xlink:href="#m95f495829f" x="173.910124" y="597.433168" style="fill: #2ca02c; stroke: #2ca02c"/>
     <use xlink:href="#m95f495829f" x="209.938017" y="630.493639" style="fill: #2ca02c; stroke: #2ca02c"/>
     <use xlink:href="#m95f495829f" x="281.993802" y="681.255752" style="fill: #2ca02c; stroke: #2ca02c"/>
     <use xlink:href="#m95f495829f" x="498.161157" y="748.182054" style="fill: #2ca02c; stroke: #2ca02c"/>
    </g>
   </g>
   <g id="line2d_32">
    <path d="M 152.293388 557.956399 
L 173.910124 563.06994 
L 209.938017 578.11859 
L 281.993802 605.604918 
L 498.161157 656.884758 
" clip-path="url(#pfc2d40d477)" style="fill: none; stroke: #d62728; stroke-width: 1.5; stroke-linecap: square"/>
    <g clip-path="url(#pfc2d40d477)">
     <use xlink:href="#m67dac10edd" x="152.293388" y="557.956399" style="fill: #d62728; stroke: #d62728"/>
     <use xlink:href="#m67dac10edd" x="173.910124" y="563.06994" style="fill: #d62728; stroke: #d62728"/>
     <use xlink:href="#m67dac10edd" x="209.938017" y="578.11859" style="fill: #d62728; stroke: #d62728"/>
     <use xlink:href="#m67dac10edd" x="281.993802" y="605.604918" style="fill: #d62728; stroke: #d62728"/>
     <use xlink:href="#m67dac10edd" x="498.161157" y="656.884758" style="fill: #d62728; stroke: #d62728"/>
    </g>
   </g>
   <g id="patch_25">
    <path d="M 135 785.785263 
L 135 523.174737 
" style="fill: none; stroke: #000000; stroke-width: 0.8; stroke-linejoin: miter; stroke-linecap: square"/>
   </g>
   <g id="patch_26">
    <path d="M 515.454545 785.785263 
L 515.454545 523.174737 
" style="fill: none; stroke: #000000; stroke-width: 0.8; stroke-linejoin: miter; stroke-linecap: square"/>
   </g>
   <g id="patch_27">
    <path d="M 135 785.785263 
L 515.454545 785.785263 
" style="fill: none; stroke: #000000; stroke-width: 0.8; stroke-linejoin: miter; stroke-linecap: square"/>
   </g>
   <g id="patch_28">
    <path d="M 135 523.174737 
L 515.454545 523.174737 
" style="fill: none; stroke: #000000; stroke-width: 0.8; stroke-linejoin: miter; stroke-linecap: square"/>
   </g>
   <g id="text_34">
    <!-- c -->
    <g transform="translate(91.769432 505.058783) scale(0.28 -0.28)">
     <defs>
      <path id="DejaVuSans-Bold-63" d="M 3366 3391 
L 3366 2478 
Q 3138 2634 2908 2709 
Q 2678 2784 2431 2784 
Q 1963 2784 1702 2511 
Q 1441 2238 1441 1747 
Q 1441 1256 1702 982 
Q 1963 709 2431 709 
Q 2694 709 2930 787 
Q 3166 866 3366 1019 
L 3366 103 
Q 3103 6 2833 -42 
Q 2563 -91 2291 -91 
Q 1344 -91 809 395 
Q 275 881 275 1747 
Q 275 2613 809 3098 
Q 1344 3584 2291 3584 
Q 2566 3584 2833 3536 
Q 3100 3488 3366 3391 
z
" transform="scale(0.015625)"/>
     </defs>
     <use xlink:href="#DejaVuSans-Bold-63"/>
    </g>
   </g>
   <g id="text_35">
    <!-- Trustworthiness -->
    <g transform="translate(230.950398 517.174737) scale(0.24 -0.24)">
     <defs>
      <path id="DejaVuSans-54" d="M -19 4666 
L 3928 4666 
L 3928 4134 
L 2272 4134 
L 2272 0 
L 1638 0 
L 1638 4134 
L -19 4134 
L -19 4666 
z
" transform="scale(0.015625)"/>
      <path id="DejaVuSans-77" d="M 269 3500 
L 844 3500 
L 1563 769 
L 2278 3500 
L 2956 3500 
L 3675 769 
L 4391 3500 
L 4966 3500 
L 4050 0 
L 3372 0 
L 2619 2869 
L 1863 0 
L 1184 0 
L 269 3500 
z
" transform="scale(0.015625)"/>
      <path id="DejaVuSans-6f" d="M 1959 3097 
Q 1497 3097 1228 2736 
Q 959 2375 959 1747 
Q 959 1119 1226 758 
Q 1494 397 1959 397 
Q 2419 397 2687 759 
Q 2956 1122 2956 1747 
Q 2956 2369 2687 2733 
Q 2419 3097 1959 3097 
z
M 1959 3584 
Q 2709 3584 3137 3096 
Q 3566 2609 3566 1747 
Q 3566 888 3137 398 
Q 2709 -91 1959 -91 
Q 1206 -91 779 398 
Q 353 888 353 1747 
Q 353 2609 779 3096 
Q 1206 3584 1959 3584 
z
" transform="scale(0.015625)"/>
      <path id="DejaVuSans-68" d="M 3513 2113 
L 3513 0 
L 2938 0 
L 2938 2094 
Q 2938 2591 2744 2837 
Q 2550 3084 2163 3084 
Q 1697 3084 1428 2787 
Q 1159 2491 1159 1978 
L 1159 0 
L 581 0 
L 581 4863 
L 1159 4863 
L 1159 2956 
Q 1366 3272 1645 3428 
Q 1925 3584 2291 3584 
Q 2894 3584 3203 3211 
Q 3513 2838 3513 2113 
z
" transform="scale(0.015625)"/>
      <path id="DejaVuSans-6e" d="M 3513 2113 
L 3513 0 
L 2938 0 
L 2938 2094 
Q 2938 2591 2744 2837 
Q 2550 3084 2163 3084 
Q 1697 3084 1428 2787 
Q 1159 2491 1159 1978 
L 1159 0 
L 581 0 
L 581 3500 
L 1159 3500 
L 1159 2956 
Q 1366 3272 1645 3428 
Q 1925 3584 2291 3584 
Q 2894 3584 3203 3211 
Q 3513 2838 3513 2113 
z
" transform="scale(0.015625)"/>
     </defs>
     <use xlink:href="#DejaVuSans-54"/>
     <use xlink:href="#DejaVuSans-72" x="46.333984"/>
     <use xlink:href="#DejaVuSans-75" x="87.447266"/>
     <use xlink:href="#DejaVuSans-73" x="150.826172"/>
     <use xlink:href="#DejaVuSans-74" x="202.925781"/>
     <use xlink:href="#DejaVuSans-77" x="242.134766"/>
     <use xlink:href="#DejaVuSans-6f" x="323.921875"/>
     <use xlink:href="#DejaVuSans-72" x="385.103516"/>
     <use xlink:href="#DejaVuSans-74" x="426.216797"/>
     <use xlink:href="#DejaVuSans-68" x="465.425781"/>
     <use xlink:href="#DejaVuSans-69" x="528.804688"/>
     <use xlink:href="#DejaVuSans-6e" x="556.587891"/>
     <use xlink:href="#DejaVuSans-65" x="619.966797"/>
     <use xlink:href="#DejaVuSans-73" x="681.490234"/>
     <use xlink:href="#DejaVuSans-73" x="733.589844"/>
    </g>
   </g>
  </g>
  <g id="axes_4">
   <g id="patch_29">
    <path d="M 591.545455 785.785263 
L 972 785.785263 
L 972 523.174737 
L 591.545455 523.174737 
z
" style="fill: #ffffff"/>
   </g>
   <g id="matplotlib.axis_7">
    <g id="xtick_13">
     <g id="line2d_33">
      <g>
       <use xlink:href="#m532e554d0e" x="594.427686" y="785.785263" style="stroke: #000000; stroke-width: 0.8"/>
      </g>
     </g>
     <g id="text_36">
      <!-- 0 -->
      <g transform="translate(587.428936 809.501826) scale(0.22 -0.22)">
       <use xlink:href="#DejaVuSans-30"/>
      </g>
     </g>
    </g>
    <g id="xtick_14">
     <g id="line2d_34">
      <g>
       <use xlink:href="#m532e554d0e" x="738.539256" y="785.785263" style="stroke: #000000; stroke-width: 0.8"/>
      </g>
     </g>
     <g id="text_37">
      <!-- 20 -->
      <g transform="translate(724.541756 809.501826) scale(0.22 -0.22)">
       <use xlink:href="#DejaVuSans-32"/>
       <use xlink:href="#DejaVuSans-30" x="63.623047"/>
      </g>
     </g>
    </g>
    <g id="xtick_15">
     <g id="line2d_35">
      <g>
       <use xlink:href="#m532e554d0e" x="882.650826" y="785.785263" style="stroke: #000000; stroke-width: 0.8"/>
      </g>
     </g>
     <g id="text_38">
      <!-- 40 -->
      <g transform="translate(868.653326 809.501826) scale(0.22 -0.22)">
       <use xlink:href="#DejaVuSans-34"/>
       <use xlink:href="#DejaVuSans-30" x="63.623047"/>
      </g>
     </g>
    </g>
    <g id="text_39">
     <!-- k -->
     <g transform="translate(774.823977 836.313388) scale(0.24 -0.24)">
      <use xlink:href="#DejaVuSans-6b"/>
     </g>
    </g>
   </g>
   <g id="matplotlib.axis_8">
    <g id="ytick_13">
     <g id="line2d_36">
      <g>
       <use xlink:href="#m93ddb6e5fe" x="591.545455" y="725.323231" style="stroke: #000000; stroke-width: 0.8"/>
      </g>
     </g>
     <g id="text_40">
      <!-- 0.7 -->
      <g transform="translate(549.55858 733.681512) scale(0.22 -0.22)">
       <use xlink:href="#DejaVuSans-30"/>
       <use xlink:href="#DejaVuSans-2e" x="63.623047"/>
       <use xlink:href="#DejaVuSans-37" x="95.410156"/>
      </g>
     </g>
    </g>
    <g id="ytick_14">
     <g id="line2d_37">
      <g>
       <use xlink:href="#m93ddb6e5fe" x="591.545455" y="638.362611" style="stroke: #000000; stroke-width: 0.8"/>
      </g>
     </g>
     <g id="text_41">
      <!-- 0.8 -->
      <g transform="translate(549.55858 646.720892) scale(0.22 -0.22)">
       <use xlink:href="#DejaVuSans-30"/>
       <use xlink:href="#DejaVuSans-2e" x="63.623047"/>
       <use xlink:href="#DejaVuSans-38" x="95.410156"/>
      </g>
     </g>
    </g>
    <g id="ytick_15">
     <g id="line2d_38">
      <g>
       <use xlink:href="#m93ddb6e5fe" x="591.545455" y="551.401991" style="stroke: #000000; stroke-width: 0.8"/>
      </g>
     </g>
     <g id="text_42">
      <!-- 0.9 -->
      <g transform="translate(549.55858 559.760273) scale(0.22 -0.22)">
       <use xlink:href="#DejaVuSans-30"/>
       <use xlink:href="#DejaVuSans-2e" x="63.623047"/>
       <use xlink:href="#DejaVuSans-39" x="95.410156"/>
      </g>
     </g>
    </g>
   </g>
   <g id="line2d_39">
    <path d="M 608.838843 570.853857 
L 630.455579 602.448122 
L 666.483471 640.285082 
L 738.539256 679.977537 
L 954.706612 732.586188 
" clip-path="url(#pc9c1e20db9)" style="fill: none; stroke: #1f77b4; stroke-width: 1.5; stroke-linecap: square"/>
    <g clip-path="url(#pc9c1e20db9)">
     <use xlink:href="#m9925f70d21" x="608.838843" y="570.853857" style="fill: #1f77b4; stroke: #1f77b4"/>
     <use xlink:href="#m9925f70d21" x="630.455579" y="602.448122" style="fill: #1f77b4; stroke: #1f77b4"/>
     <use xlink:href="#m9925f70d21" x="666.483471" y="640.285082" style="fill: #1f77b4; stroke: #1f77b4"/>
     <use xlink:href="#m9925f70d21" x="738.539256" y="679.977537" style="fill: #1f77b4; stroke: #1f77b4"/>
     <use xlink:href="#m9925f70d21" x="954.706612" y="732.586188" style="fill: #1f77b4; stroke: #1f77b4"/>
    </g>
   </g>
   <g id="line2d_40">
    <path d="M 608.838843 535.111579 
L 630.455579 572.307178 
L 666.483471 620.494755 
L 738.539256 681.893051 
L 954.706612 758.400063 
" clip-path="url(#pc9c1e20db9)" style="fill: none; stroke: #ff7f0e; stroke-width: 1.5; stroke-linecap: square"/>
    <g clip-path="url(#pc9c1e20db9)">
     <use xlink:href="#m1423ae780b" x="608.838843" y="535.111579" style="fill: #ff7f0e; stroke: #ff7f0e"/>
     <use xlink:href="#m1423ae780b" x="630.455579" y="572.307178" style="fill: #ff7f0e; stroke: #ff7f0e"/>
     <use xlink:href="#m1423ae780b" x="666.483471" y="620.494755" style="fill: #ff7f0e; stroke: #ff7f0e"/>
     <use xlink:href="#m1423ae780b" x="738.539256" y="681.893051" style="fill: #ff7f0e; stroke: #ff7f0e"/>
     <use xlink:href="#m1423ae780b" x="954.706612" y="758.400063" style="fill: #ff7f0e; stroke: #ff7f0e"/>
    </g>
   </g>
   <g id="line2d_41">
    <path d="M 608.838843 535.998176 
L 630.455579 575.128676 
L 666.483471 627.410432 
L 738.539256 691.820118 
L 954.706612 773.848421 
" clip-path="url(#pc9c1e20db9)" style="fill: none; stroke: #2ca02c; stroke-width: 1.5; stroke-linecap: square"/>
    <g clip-path="url(#pc9c1e20db9)">
     <use xlink:href="#m95f495829f" x="608.838843" y="535.998176" style="fill: #2ca02c; stroke: #2ca02c"/>
     <use xlink:href="#m95f495829f" x="630.455579" y="575.128676" style="fill: #2ca02c; stroke: #2ca02c"/>
     <use xlink:href="#m95f495829f" x="666.483471" y="627.410432" style="fill: #2ca02c; stroke: #2ca02c"/>
     <use xlink:href="#m95f495829f" x="738.539256" y="691.820118" style="fill: #2ca02c; stroke: #2ca02c"/>
     <use xlink:href="#m95f495829f" x="954.706612" y="773.848421" style="fill: #2ca02c; stroke: #2ca02c"/>
    </g>
   </g>
   <g id="line2d_42">
    <path d="M 608.838843 536.864785 
L 630.455579 571.203655 
L 666.483471 616.41063 
L 738.539256 668.808452 
L 954.706612 739.406543 
" clip-path="url(#pc9c1e20db9)" style="fill: none; stroke: #d62728; stroke-width: 1.5; stroke-linecap: square"/>
    <g clip-path="url(#pc9c1e20db9)">
     <use xlink:href="#m67dac10edd" x="608.838843" y="536.864785" style="fill: #d62728; stroke: #d62728"/>
     <use xlink:href="#m67dac10edd" x="630.455579" y="571.203655" style="fill: #d62728; stroke: #d62728"/>
     <use xlink:href="#m67dac10edd" x="666.483471" y="616.41063" style="fill: #d62728; stroke: #d62728"/>
     <use xlink:href="#m67dac10edd" x="738.539256" y="668.808452" style="fill: #d62728; stroke: #d62728"/>
     <use xlink:href="#m67dac10edd" x="954.706612" y="739.406543" style="fill: #d62728; stroke: #d62728"/>
    </g>
   </g>
   <g id="patch_30">
    <path d="M 591.545455 785.785263 
L 591.545455 523.174737 
" style="fill: none; stroke: #000000; stroke-width: 0.8; stroke-linejoin: miter; stroke-linecap: square"/>
   </g>
   <g id="patch_31">
    <path d="M 972 785.785263 
L 972 523.174737 
" style="fill: none; stroke: #000000; stroke-width: 0.8; stroke-linejoin: miter; stroke-linecap: square"/>
   </g>
   <g id="patch_32">
    <path d="M 591.545455 785.785263 
L 972 785.785263 
" style="fill: none; stroke: #000000; stroke-width: 0.8; stroke-linejoin: miter; stroke-linecap: square"/>
   </g>
   <g id="patch_33">
    <path d="M 591.545455 523.174737 
L 972 523.174737 
" style="fill: none; stroke: #000000; stroke-width: 0.8; stroke-linejoin: miter; stroke-linecap: square"/>
   </g>
   <g id="text_43">
    <!-- d -->
    <g transform="translate(544.871761 505.058783) scale(0.28 -0.28)">
     <defs>
      <path id="DejaVuSans-Bold-64" d="M 2919 2988 
L 2919 4863 
L 4044 4863 
L 4044 0 
L 2919 0 
L 2919 506 
Q 2688 197 2409 53 
Q 2131 -91 1766 -91 
Q 1119 -91 703 423 
Q 288 938 288 1747 
Q 288 2556 703 3070 
Q 1119 3584 1766 3584 
Q 2128 3584 2408 3439 
Q 2688 3294 2919 2988 
z
M 2181 722 
Q 2541 722 2730 984 
Q 2919 1247 2919 1747 
Q 2919 2247 2730 2509 
Q 2541 2772 2181 2772 
Q 1825 2772 1636 2509 
Q 1447 2247 1447 1747 
Q 1447 1247 1636 984 
Q 1825 722 2181 722 
z
" transform="scale(0.015625)"/>
     </defs>
     <use xlink:href="#DejaVuSans-Bold-64"/>
    </g>
   </g>
   <g id="text_44">
    <!-- Continuity -->
    <g transform="translate(720.057102 517.174737) scale(0.24 -0.24)">
     <defs>
      <path id="DejaVuSans-79" d="M 2059 -325 
Q 1816 -950 1584 -1140 
Q 1353 -1331 966 -1331 
L 506 -1331 
L 506 -850 
L 844 -850 
Q 1081 -850 1212 -737 
Q 1344 -625 1503 -206 
L 1606 56 
L 191 3500 
L 800 3500 
L 1894 763 
L 2988 3500 
L 3597 3500 
L 2059 -325 
z
" transform="scale(0.015625)"/>
     </defs>
     <use xlink:href="#DejaVuSans-43"/>
     <use xlink:href="#DejaVuSans-6f" x="69.824219"/>
     <use xlink:href="#DejaVuSans-6e" x="131.005859"/>
     <use xlink:href="#DejaVuSans-74" x="194.384766"/>
     <use xlink:href="#DejaVuSans-69" x="233.59375"/>
     <use xlink:href="#DejaVuSans-6e" x="261.376953"/>
     <use xlink:href="#DejaVuSans-75" x="324.755859"/>
     <use xlink:href="#DejaVuSans-69" x="388.134766"/>
     <use xlink:href="#DejaVuSans-74" x="415.917969"/>
     <use xlink:href="#DejaVuSans-79" x="455.126953"/>
    </g>
   </g>
  </g>
  <g id="axes_5">
   <g id="patch_34">
    <path d="M 135 1153.44 
L 515.454545 1153.44 
L 515.454545 890.829474 
L 135 890.829474 
z
" style="fill: #ffffff"/>
   </g>
   <g id="matplotlib.axis_9">
    <g id="xtick_16">
     <g id="line2d_43">
      <g>
       <use xlink:href="#m532e554d0e" x="152.111353" y="1153.44" style="stroke: #000000; stroke-width: 0.8"/>
      </g>
     </g>
     <g id="text_45">
      <!-- 0 -->
      <g transform="translate(145.112603 1177.156562) scale(0.22 -0.22)">
       <use xlink:href="#DejaVuSans-30"/>
      </g>
     </g>
    </g>
    <g id="xtick_17">
     <g id="line2d_44">
      <g>
       <use xlink:href="#m532e554d0e" x="243.129187" y="1153.44" style="stroke: #000000; stroke-width: 0.8"/>
      </g>
     </g>
     <g id="text_46">
      <!-- 500 -->
      <g transform="translate(222.132937 1177.156562) scale(0.22 -0.22)">
       <use xlink:href="#DejaVuSans-35"/>
       <use xlink:href="#DejaVuSans-30" x="63.623047"/>
       <use xlink:href="#DejaVuSans-30" x="127.246094"/>
      </g>
     </g>
    </g>
    <g id="xtick_18">
     <g id="line2d_45">
      <g>
       <use xlink:href="#m532e554d0e" x="334.14702" y="1153.44" style="stroke: #000000; stroke-width: 0.8"/>
      </g>
     </g>
     <g id="text_47">
      <!-- 1000 -->
      <g transform="translate(306.15202 1177.156562) scale(0.22 -0.22)">
       <use xlink:href="#DejaVuSans-31"/>
       <use xlink:href="#DejaVuSans-30" x="63.623047"/>
       <use xlink:href="#DejaVuSans-30" x="127.246094"/>
       <use xlink:href="#DejaVuSans-30" x="190.869141"/>
      </g>
     </g>
    </g>
    <g id="xtick_19">
     <g id="line2d_46">
      <g>
       <use xlink:href="#m532e554d0e" x="425.164854" y="1153.44" style="stroke: #000000; stroke-width: 0.8"/>
      </g>
     </g>
     <g id="text_48">
      <!-- 1500 -->
      <g transform="translate(397.169854 1177.156562) scale(0.22 -0.22)">
       <use xlink:href="#DejaVuSans-31"/>
       <use xlink:href="#DejaVuSans-35" x="63.623047"/>
       <use xlink:href="#DejaVuSans-30" x="127.246094"/>
       <use xlink:href="#DejaVuSans-30" x="190.869141"/>
      </g>
     </g>
    </g>
    <g id="text_49">
     <!-- k -->
     <g transform="translate(318.278523 1203.968125) scale(0.24 -0.24)">
      <use xlink:href="#DejaVuSans-6b"/>
     </g>
    </g>
   </g>
   <g id="matplotlib.axis_10">
    <g id="ytick_16">
     <g id="line2d_47">
      <g>
       <use xlink:href="#m93ddb6e5fe" x="135" y="1150.896083" style="stroke: #000000; stroke-width: 0.8"/>
      </g>
     </g>
     <g id="text_50">
      <!-- 0.00 -->
      <g transform="translate(79.015625 1159.254364) scale(0.22 -0.22)">
       <use xlink:href="#DejaVuSans-30"/>
       <use xlink:href="#DejaVuSans-2e" x="63.623047"/>
       <use xlink:href="#DejaVuSans-30" x="95.410156"/>
       <use xlink:href="#DejaVuSans-30" x="159.033203"/>
      </g>
     </g>
    </g>
    <g id="ytick_17">
     <g id="line2d_48">
      <g>
       <use xlink:href="#m93ddb6e5fe" x="135" y="1088.863641" style="stroke: #000000; stroke-width: 0.8"/>
      </g>
     </g>
     <g id="text_51">
      <!-- 0.25 -->
      <g transform="translate(79.015625 1097.221922) scale(0.22 -0.22)">
       <use xlink:href="#DejaVuSans-30"/>
       <use xlink:href="#DejaVuSans-2e" x="63.623047"/>
       <use xlink:href="#DejaVuSans-32" x="95.410156"/>
       <use xlink:href="#DejaVuSans-35" x="159.033203"/>
      </g>
     </g>
    </g>
    <g id="ytick_18">
     <g id="line2d_49">
      <g>
       <use xlink:href="#m93ddb6e5fe" x="135" y="1026.831199" style="stroke: #000000; stroke-width: 0.8"/>
      </g>
     </g>
     <g id="text_52">
      <!-- 0.50 -->
      <g transform="translate(79.015625 1035.189481) scale(0.22 -0.22)">
       <use xlink:href="#DejaVuSans-30"/>
       <use xlink:href="#DejaVuSans-2e" x="63.623047"/>
       <use xlink:href="#DejaVuSans-35" x="95.410156"/>
       <use xlink:href="#DejaVuSans-30" x="159.033203"/>
      </g>
     </g>
    </g>
    <g id="ytick_19">
     <g id="line2d_50">
      <g>
       <use xlink:href="#m93ddb6e5fe" x="135" y="964.798758" style="stroke: #000000; stroke-width: 0.8"/>
      </g>
     </g>
     <g id="text_53">
      <!-- 0.75 -->
      <g transform="translate(79.015625 973.157039) scale(0.22 -0.22)">
       <use xlink:href="#DejaVuSans-30"/>
       <use xlink:href="#DejaVuSans-2e" x="63.623047"/>
       <use xlink:href="#DejaVuSans-37" x="95.410156"/>
       <use xlink:href="#DejaVuSans-35" x="159.033203"/>
      </g>
     </g>
    </g>
    <g id="ytick_20">
     <g id="line2d_51">
      <g>
       <use xlink:href="#m93ddb6e5fe" x="135" y="902.766316" style="stroke: #000000; stroke-width: 0.8"/>
      </g>
     </g>
     <g id="text_54">
      <!-- 1.00 -->
      <g transform="translate(79.015625 911.124597) scale(0.22 -0.22)">
       <use xlink:href="#DejaVuSans-31"/>
       <use xlink:href="#DejaVuSans-2e" x="63.623047"/>
       <use xlink:href="#DejaVuSans-30" x="95.410156"/>
       <use xlink:href="#DejaVuSans-30" x="159.033203"/>
      </g>
     </g>
    </g>
    <g id="text_55">
     <!-- Metric Value -->
     <g transform="translate(70.024375 1096.210362) rotate(-90) scale(0.24 -0.24)">
      <use xlink:href="#DejaVuSans-4d"/>
      <use xlink:href="#DejaVuSans-65" x="86.279297"/>
      <use xlink:href="#DejaVuSans-74" x="147.802734"/>
      <use xlink:href="#DejaVuSans-72" x="187.011719"/>
      <use xlink:href="#DejaVuSans-69" x="228.125"/>
      <use xlink:href="#DejaVuSans-63" x="255.908203"/>
      <use xlink:href="#DejaVuSans-20" x="310.888672"/>
      <use xlink:href="#DejaVuSans-56" x="342.675781"/>
      <use xlink:href="#DejaVuSans-61" x="403.333984"/>
      <use xlink:href="#DejaVuSans-6c" x="464.613281"/>
      <use xlink:href="#DejaVuSans-75" x="492.396484"/>
      <use xlink:href="#DejaVuSans-65" x="555.775391"/>
     </g>
    </g>
   </g>
   <g id="line2d_52">
    <path d="M 152.293388 1141.503158 
L 152.839495 1136.480552 
L 153.385602 1132.967524 
L 154.113745 1129.904319 
L 155.57003 1124.790892 
L 157.572423 1121.260535 
L 158.300565 1120.399773 
L 158.482601 1120.320621 
L 159.028708 1119.778586 
L 159.574815 1119.312691 
L 160.120922 1118.853993 
L 162.123314 1117.553571 
L 163.215528 1117.434857 
L 163.761635 1117.399135 
L 164.125707 1117.273681 
L 164.671814 1117.115207 
L 166.492171 1116.546183 
L 175.411918 1111.741569 
L 180.144846 1108.736353 
L 181.419095 1107.946464 
L 182.875381 1107.058573 
L 184.513702 1106.076674 
L 193.979556 1100.259369 
L 194.889735 1099.679661 
L 196.163984 1098.847397 
L 197.62027 1097.8725 
L 198.530448 1097.270462 
L 200.53284 1095.984353 
L 205.265768 1093.106184 
L 206.540017 1092.323813 
L 208.724445 1090.918448 
L 211.45498 1089.151768 
L 213.821444 1087.687024 
L 242.947151 1069.418838 
L 244.585472 1068.405986 
L 249.682471 1065.328756 
L 250.774685 1064.684032 
L 263.699217 1056.897668 
L 269.342323 1053.485001 
L 273.529143 1050.992203 
L 276.623749 1049.111931 
L 283.541105 1045.019873 
L 287.909961 1042.370132 
L 292.278817 1039.716313 
L 296.465637 1037.180427 
L 299.560244 1035.292885 
L 309.754241 1029.154122 
L 322.314702 1021.632581 
L 348.527838 1005.846316 
L 354.899087 1002.04045 
L 364.729013 996.08561 
L 374.194867 990.284659 
L 379.10983 987.225747 
L 385.117007 983.473617 
L 389.849935 980.467018 
L 398.951718 974.600757 
L 405.869074 970.054015 
L 416.245107 963.062759 
L 427.349282 955.426713 
L 434.448673 950.340582 
L 453.380383 936.307634 
L 479.411483 916.492338 
L 485.054589 912.524008 
L 493.246194 906.340804 
L 498.161157 902.766316 
L 498.161157 902.766316 
" clip-path="url(#pf3faa36b0a)" style="fill: none; stroke: #1f77b4; stroke-width: 1.5; stroke-linecap: square"/>
   </g>
   <g id="line2d_53">
    <path d="M 152.293388 1058.662778 
L 152.65746 1036.528525 
L 153.021531 1033.223607 
L 153.203567 1032.440863 
L 153.567638 1034.772787 
L 154.113745 1042.450495 
L 156.116137 1063.276222 
L 156.662244 1067.596494 
L 157.390387 1072.329304 
L 159.028708 1082.316745 
L 159.756851 1085.900397 
L 161.0311 1090.528968 
L 162.123314 1093.931314 
L 163.761635 1098.107763 
L 164.853849 1100.364383 
L 166.310135 1102.936303 
L 166.856242 1103.638332 
L 167.948456 1105.006606 
L 168.858634 1105.847195 
L 170.678991 1107.063712 
L 171.953241 1107.697964 
L 172.681383 1107.847486 
L 173.22749 1107.927275 
L 175.229883 1108.157453 
L 177.050239 1108.292731 
L 178.324489 1108.176756 
L 179.052632 1108.108736 
L 181.23706 1107.41956 
L 181.783167 1107.234509 
L 183.057416 1107.054759 
L 183.967595 1106.794809 
L 189.792736 1104.753276 
L 190.88495 1104.4539 
L 193.251414 1103.479476 
L 195.617877 1102.564113 
L 207.632231 1096.184861 
L 213.821444 1092.591679 
L 215.823836 1091.457877 
L 224.92562 1086.57542 
L 226.563941 1085.758662 
L 228.384298 1084.814328 
L 230.932797 1083.391515 
L 235.483689 1080.586154 
L 238.578295 1078.853996 
L 242.219008 1076.687232 
L 250.228578 1071.957804 
L 253.687255 1069.858258 
L 281.174641 1053.601256 
L 293.371031 1045.923523 
L 297.375816 1043.443415 
L 300.106351 1041.754839 
L 315.761418 1032.116679 
L 318.491953 1030.405643 
L 353.988908 1007.141089 
L 357.811657 1004.553943 
L 372.920618 994.222577 
L 380.566116 988.865633 
L 385.299043 985.496097 
L 390.760113 981.550877 
L 396.403219 977.498998 
L 434.266638 950.129635 
L 451.195955 937.684802 
L 457.203132 933.232997 
L 461.936059 929.700458 
L 484.690518 912.656078 
L 498.161157 902.766316 
L 498.161157 902.766316 
" clip-path="url(#pf3faa36b0a)" style="fill: none; stroke: #ff7f0e; stroke-width: 1.5; stroke-linecap: square"/>
   </g>
   <g id="line2d_54">
    <path d="M 152.293388 1106.801519 
L 152.65746 1071.925936 
L 153.021531 1058.088766 
L 153.385602 1052.10264 
L 153.567638 1051.047334 
L 153.931709 1052.087731 
L 154.295781 1053.564072 
L 155.023923 1057.553891 
L 156.116137 1065.179713 
L 157.754458 1076.139847 
L 159.210744 1084.901419 
L 160.667029 1090.880178 
L 163.215528 1098.548491 
L 164.307742 1100.70118 
L 165.035885 1101.662236 
L 166.128099 1103.014869 
L 168.130492 1104.898028 
L 169.586777 1105.942675 
L 170.31492 1106.420583 
L 171.407134 1107.04028 
L 173.045455 1107.677284 
L 173.591562 1107.82196 
L 173.955633 1107.854961 
L 176.686168 1108.200794 
L 177.414311 1108.18399 
L 180.326881 1108.087575 
L 181.783167 1107.737129 
L 182.329274 1107.561472 
L 182.875381 1107.390506 
L 185.42388 1106.64112 
L 186.334058 1106.358103 
L 190.338843 1105.202485 
L 191.795128 1104.80636 
L 192.887342 1104.470759 
L 195.799913 1103.608033 
L 197.802305 1102.6799 
L 202.535233 1100.502833 
L 204.901696 1099.552142 
L 206.540017 1098.86064 
L 207.632231 1098.402208 
L 209.998695 1097.259265 
L 211.272945 1096.676427 
L 213.093301 1095.737183 
L 217.280122 1093.247443 
L 226.928012 1088.019795 
L 228.748369 1087.034295 
L 232.935189 1084.810063 
L 236.575903 1082.670856 
L 243.311222 1078.895116 
L 246.587864 1076.892614 
L 248.590257 1075.622472 
L 258.420183 1069.97146 
L 261.150718 1068.339268 
L 263.335146 1067.031261 
L 286.089604 1052.975478 
L 290.640496 1050.268254 
L 305.567421 1040.826806 
L 312.30274 1036.64307 
L 319.220096 1032.164316 
L 327.593736 1026.781398 
L 335.239234 1021.825063 
L 339.790126 1018.92607 
L 342.15659 1017.325561 
L 348.527838 1013.070192 
L 351.80448 1010.904707 
L 353.806873 1009.530537 
L 365.821227 1001.384249 
L 376.379295 994.101032 
L 407.68943 970.943723 
L 410.602001 968.792588 
L 415.334928 965.250396 
L 419.339713 962.336954 
L 421.342105 960.899902 
L 429.897782 954.658482 
L 435.540887 950.280168 
L 440.091779 946.846614 
L 458.659417 932.378571 
L 462.482166 929.403246 
L 472.858199 921.477164 
L 476.498913 918.872374 
L 477.227055 918.343837 
L 481.413876 915.219759 
L 497.433014 903.28952 
L 498.161157 902.766316 
L 498.161157 902.766316 
" clip-path="url(#pf3faa36b0a)" style="fill: none; stroke: #2ca02c; stroke-width: 1.5; stroke-linecap: square"/>
   </g>
   <g id="line2d_55">
    <path d="M 152.293388 1098.321795 
L 152.65746 1068.360104 
L 153.021531 1056.862468 
L 153.385602 1051.152166 
L 153.567638 1049.628611 
L 153.931709 1048.94371 
L 154.113745 1049.317292 
L 154.295781 1049.422053 
L 154.477816 1049.851894 
L 154.841888 1049.852563 
L 155.023923 1049.938447 
L 155.205959 1050.443969 
L 157.754458 1061.987335 
L 160.302958 1072.091182 
L 161.577207 1075.710034 
L 163.943671 1080.790342 
L 165.035885 1082.372931 
L 166.856242 1084.589957 
L 167.584385 1085.125656 
L 168.130492 1085.471752 
L 168.494563 1085.670336 
L 169.586777 1086.198779 
L 174.319704 1087.662792 
L 178.142453 1088.282057 
L 178.68856 1088.300709 
L 180.144846 1088.499377 
L 181.783167 1088.487876 
L 182.511309 1088.543747 
L 185.605916 1088.186539 
L 187.972379 1087.807732 
L 188.882558 1087.615255 
L 190.88495 1087.251299 
L 192.341235 1086.804954 
L 194.889735 1086.031608 
L 205.447803 1083.300061 
L 209.816659 1081.567292 
L 210.908873 1081.102644 
L 212.001087 1080.644633 
L 213.821444 1079.868438 
L 220.738799 1076.958981 
L 223.65137 1075.698907 
L 224.561548 1075.287888 
L 225.835798 1074.680357 
L 232.025011 1071.854417 
L 239.852545 1068.068153 
L 242.219008 1066.82835 
L 244.585472 1065.67229 
L 253.323184 1061.380326 
L 260.786646 1057.948869 
L 265.701609 1055.719336 
L 268.068073 1054.686596 
L 273.893214 1052.056257 
L 275.895607 1051.118894 
L 279.354284 1049.484856 
L 286.999783 1045.570923 
L 289.730318 1044.10195 
L 296.465637 1040.670036 
L 303.747064 1036.799358 
L 305.749456 1035.754076 
L 308.297956 1034.410342 
L 312.120705 1032.408805 
L 327.593736 1023.142804 
L 332.508699 1020.070721 
L 335.603306 1018.13767 
L 346.525446 1010.868748 
L 349.620052 1008.768937 
L 354.35298 1005.717667 
L 359.267943 1002.616813 
L 362.908656 1000.166878 
L 366.731405 997.463039 
L 388.757721 982.174364 
L 397.677468 976.079348 
L 441.7301 944.443197 
L 455.382775 934.228683 
L 461.207916 929.807777 
L 466.668987 925.789763 
L 498.161157 902.766316 
L 498.161157 902.766316 
" clip-path="url(#pf3faa36b0a)" style="fill: none; stroke: #d62728; stroke-width: 1.5; stroke-linecap: square"/>
   </g>
   <g id="patch_35">
    <path d="M 135 1153.44 
L 135 890.829474 
" style="fill: none; stroke: #000000; stroke-width: 0.8; stroke-linejoin: miter; stroke-linecap: square"/>
   </g>
   <g id="patch_36">
    <path d="M 515.454545 1153.44 
L 515.454545 890.829474 
" style="fill: none; stroke: #000000; stroke-width: 0.8; stroke-linejoin: miter; stroke-linecap: square"/>
   </g>
   <g id="patch_37">
    <path d="M 135 1153.44 
L 515.454545 1153.44 
" style="fill: none; stroke: #000000; stroke-width: 0.8; stroke-linejoin: miter; stroke-linecap: square"/>
   </g>
   <g id="patch_38">
    <path d="M 135 890.829474 
L 515.454545 890.829474 
" style="fill: none; stroke: #000000; stroke-width: 0.8; stroke-linejoin: miter; stroke-linecap: square"/>
   </g>
   <g id="text_56">
    <!-- e -->
    <g transform="translate(89.376307 872.71352) scale(0.28 -0.28)">
     <defs>
      <path id="DejaVuSans-Bold-65" d="M 4031 1759 
L 4031 1441 
L 1416 1441 
Q 1456 1047 1700 850 
Q 1944 653 2381 653 
Q 2734 653 3104 758 
Q 3475 863 3866 1075 
L 3866 213 
Q 3469 63 3072 -14 
Q 2675 -91 2278 -91 
Q 1328 -91 801 392 
Q 275 875 275 1747 
Q 275 2603 792 3093 
Q 1309 3584 2216 3584 
Q 3041 3584 3536 3087 
Q 4031 2591 4031 1759 
z
M 2881 2131 
Q 2881 2450 2695 2645 
Q 2509 2841 2209 2841 
Q 1884 2841 1681 2658 
Q 1478 2475 1428 2131 
L 2881 2131 
z
" transform="scale(0.015625)"/>
     </defs>
     <use xlink:href="#DejaVuSans-Bold-65"/>
    </g>
   </g>
   <g id="text_57">
    <!-- $Q_{NN}$ -->
    <g transform="translate(302.787273 884.829474) scale(0.24 -0.24)">
     <use xlink:href="#DejaVuSans-Oblique-51" transform="translate(0 0.78125)"/>
     <use xlink:href="#DejaVuSans-Oblique-4e" transform="translate(78.710938 -15.625) scale(0.7)"/>
     <use xlink:href="#DejaVuSans-Oblique-4e" transform="translate(131.074219 -15.625) scale(0.7)"/>
    </g>
   </g>
  </g>
  <g id="axes_6">
   <g id="patch_39">
    <path d="M 591.545455 1153.44 
L 972 1153.44 
L 972 890.829474 
L 591.545455 890.829474 
z
" style="fill: #ffffff"/>
   </g>
   <g id="matplotlib.axis_11">
    <g id="xtick_20">
     <g id="line2d_56">
      <g>
       <use xlink:href="#m532e554d0e" x="608.656807" y="1153.44" style="stroke: #000000; stroke-width: 0.8"/>
      </g>
     </g>
     <g id="text_58">
      <!-- 0 -->
      <g transform="translate(601.658057 1177.156562) scale(0.22 -0.22)">
       <use xlink:href="#DejaVuSans-30"/>
      </g>
     </g>
    </g>
    <g id="xtick_21">
     <g id="line2d_57">
      <g>
       <use xlink:href="#m532e554d0e" x="699.674641" y="1153.44" style="stroke: #000000; stroke-width: 0.8"/>
      </g>
     </g>
     <g id="text_59">
      <!-- 500 -->
      <g transform="translate(678.678391 1177.156562) scale(0.22 -0.22)">
       <use xlink:href="#DejaVuSans-35"/>
       <use xlink:href="#DejaVuSans-30" x="63.623047"/>
       <use xlink:href="#DejaVuSans-30" x="127.246094"/>
      </g>
     </g>
    </g>
    <g id="xtick_22">
     <g id="line2d_58">
      <g>
       <use xlink:href="#m532e554d0e" x="790.692475" y="1153.44" style="stroke: #000000; stroke-width: 0.8"/>
      </g>
     </g>
     <g id="text_60">
      <!-- 1000 -->
      <g transform="translate(762.697475 1177.156562) scale(0.22 -0.22)">
       <use xlink:href="#DejaVuSans-31"/>
       <use xlink:href="#DejaVuSans-30" x="63.623047"/>
       <use xlink:href="#DejaVuSans-30" x="127.246094"/>
       <use xlink:href="#DejaVuSans-30" x="190.869141"/>
      </g>
     </g>
    </g>
    <g id="xtick_23">
     <g id="line2d_59">
      <g>
       <use xlink:href="#m532e554d0e" x="881.710309" y="1153.44" style="stroke: #000000; stroke-width: 0.8"/>
      </g>
     </g>
     <g id="text_61">
      <!-- 1500 -->
      <g transform="translate(853.715309 1177.156562) scale(0.22 -0.22)">
       <use xlink:href="#DejaVuSans-31"/>
       <use xlink:href="#DejaVuSans-35" x="63.623047"/>
       <use xlink:href="#DejaVuSans-30" x="127.246094"/>
       <use xlink:href="#DejaVuSans-30" x="190.869141"/>
      </g>
     </g>
    </g>
    <g id="text_62">
     <!-- k -->
     <g transform="translate(774.823977 1203.968125) scale(0.24 -0.24)">
      <use xlink:href="#DejaVuSans-6b"/>
     </g>
    </g>
   </g>
   <g id="matplotlib.axis_12">
    <g id="ytick_21">
     <g id="line2d_60">
      <g>
       <use xlink:href="#m93ddb6e5fe" x="591.545455" y="1133.549626" style="stroke: #000000; stroke-width: 0.8"/>
      </g>
     </g>
     <g id="text_63">
      <!-- 0.0 -->
      <g transform="translate(549.55858 1141.907907) scale(0.22 -0.22)">
       <use xlink:href="#DejaVuSans-30"/>
       <use xlink:href="#DejaVuSans-2e" x="63.623047"/>
       <use xlink:href="#DejaVuSans-30" x="95.410156"/>
      </g>
     </g>
    </g>
    <g id="ytick_22">
     <g id="line2d_61">
      <g>
       <use xlink:href="#m93ddb6e5fe" x="591.545455" y="1036.221158" style="stroke: #000000; stroke-width: 0.8"/>
      </g>
     </g>
     <g id="text_64">
      <!-- 0.2 -->
      <g transform="translate(549.55858 1044.579439) scale(0.22 -0.22)">
       <use xlink:href="#DejaVuSans-30"/>
       <use xlink:href="#DejaVuSans-2e" x="63.623047"/>
       <use xlink:href="#DejaVuSans-32" x="95.410156"/>
      </g>
     </g>
    </g>
    <g id="ytick_23">
     <g id="line2d_62">
      <g>
       <use xlink:href="#m93ddb6e5fe" x="591.545455" y="938.892689" style="stroke: #000000; stroke-width: 0.8"/>
      </g>
     </g>
     <g id="text_65">
      <!-- 0.4 -->
      <g transform="translate(549.55858 947.250971) scale(0.22 -0.22)">
       <use xlink:href="#DejaVuSans-30"/>
       <use xlink:href="#DejaVuSans-2e" x="63.623047"/>
       <use xlink:href="#DejaVuSans-34" x="95.410156"/>
      </g>
     </g>
    </g>
   </g>
   <g id="line2d_63">
    <path d="M 608.838843 1115.383827 
L 609.38495 1106.301263 
L 609.931057 1100.179345 
L 610.477164 1096.553873 
L 611.387342 1090.209262 
L 611.933449 1087.938213 
L 612.297521 1086.80702 
L 612.479556 1086.474539 
L 613.025663 1085.014419 
L 614.299913 1082.91863 
L 614.84602 1082.442759 
L 615.028056 1082.543517 
L 615.392127 1082.161678 
L 615.756198 1082.265142 
L 616.484341 1081.949405 
L 616.848412 1081.98035 
L 617.212484 1081.856259 
L 617.394519 1081.915368 
L 617.758591 1081.82694 
L 617.940626 1082.068785 
L 618.122662 1082.079918 
L 618.304698 1081.921673 
L 619.760983 1083.53965 
L 620.30709 1084.237569 
L 620.489126 1084.24859 
L 621.035233 1084.85165 
L 621.399304 1085.125085 
L 622.673554 1086.329226 
L 622.855589 1086.288677 
L 624.311875 1087.090207 
L 624.857982 1087.26564 
L 627.588517 1088.193072 
L 628.316659 1088.563912 
L 630.137016 1089.109057 
L 630.683123 1089.296095 
L 631.047194 1089.354712 
L 631.593301 1089.502112 
L 632.867551 1089.684956 
L 633.413658 1089.73904 
L 640.695085 1091.1401 
L 641.787299 1091.31534 
L 642.333406 1091.461645 
L 643.789691 1091.836244 
L 645.792084 1092.316181 
L 646.156155 1092.329528 
L 646.702262 1092.511898 
L 651.435189 1093.260176 
L 651.981296 1093.369991 
L 652.891475 1093.403114 
L 656.168117 1093.899281 
L 656.714224 1093.924226 
L 657.624402 1094.069527 
L 658.170509 1094.232982 
L 658.716616 1094.407766 
L 659.080687 1094.469233 
L 660.354937 1094.741544 
L 661.629187 1094.916393 
L 663.99565 1095.384344 
L 665.633971 1095.588224 
L 667.818399 1095.90742 
L 668.364506 1095.996654 
L 671.277077 1096.533672 
L 672.187255 1096.59466 
L 673.825576 1096.827123 
L 674.371683 1096.894961 
L 675.099826 1097.015232 
L 676.010004 1097.105052 
L 677.102218 1097.337092 
L 679.468682 1097.735132 
L 680.924967 1098.014275 
L 682.745324 1098.217389 
L 683.473467 1098.429729 
L 684.383645 1098.548119 
L 690.390822 1099.682915 
L 691.665072 1099.923 
L 692.57525 1100.08259 
L 693.485428 1100.282145 
L 693.8495 1100.347219 
L 696.033928 1100.728452 
L 702.041105 1101.989009 
L 703.49739 1102.26803 
L 705.135711 1102.639425 
L 706.04589 1102.913863 
L 707.502175 1103.259453 
L 714.41953 1104.882306 
L 738.266203 1110.257067 
L 739.722488 1110.638481 
L 741.178773 1110.940542 
L 742.453023 1111.198123 
L 744.27338 1111.63613 
L 760.110483 1115.096201 
L 763.023054 1115.765451 
L 763.933232 1115.944526 
L 815.995433 1127.727883 
L 817.633754 1128.078376 
L 828.009787 1130.358898 
L 830.376251 1130.786733 
L 833.470857 1131.369409 
L 835.291214 1131.708345 
L 839.478034 1132.475905 
L 852.038495 1134.472463 
L 857.499565 1135.176114 
L 866.601348 1136.093804 
L 870.424097 1136.412421 
L 887.171379 1137.277698 
L 898.45759 1137.033963 
L 900.459983 1136.945488 
L 913.930622 1136.030458 
L 926.673119 1134.676673 
L 934.318617 1134.135368 
L 938.141366 1134.230881 
L 938.869508 1134.489275 
L 941.600043 1134.255331 
L 946.879078 1133.800661 
L 951.976077 1133.580166 
L 954.706612 1133.549626 
L 954.706612 1133.549626 
" clip-path="url(#p37a4d0da44)" style="fill: none; stroke: #1f77b4; stroke-width: 1.5; stroke-linecap: square"/>
   </g>
   <g id="line2d_64">
    <path d="M 608.838843 952.913855 
L 609.202914 910.015228 
L 609.38495 905.644452 
L 609.749021 902.766316 
L 610.113093 907.851767 
L 610.6592 923.677584 
L 612.661592 967.337781 
L 613.207699 976.578853 
L 613.935842 986.885008 
L 615.574163 1008.776725 
L 616.302305 1016.829102 
L 617.758591 1029.161083 
L 619.214876 1039.591294 
L 620.853197 1049.560771 
L 622.855589 1059.456366 
L 623.583732 1062.34783 
L 624.857982 1067.012593 
L 626.314267 1071.331103 
L 627.04241 1073.299742 
L 627.952588 1075.532351 
L 629.044802 1077.748772 
L 633.595694 1085.065189 
L 633.959765 1085.500121 
L 634.323836 1086.051558 
L 635.234015 1087.083692 
L 635.780122 1087.680048 
L 636.508264 1088.316758 
L 636.872336 1088.638482 
L 637.418443 1089.014315 
L 638.692692 1090.06353 
L 639.784906 1091.282718 
L 640.87712 1092.109961 
L 641.969334 1093.027019 
L 642.515441 1093.223342 
L 645.974119 1095.792574 
L 647.794476 1097.225275 
L 652.163332 1099.941254 
L 657.078295 1101.918644 
L 657.806438 1102.318195 
L 658.170509 1102.419505 
L 659.262723 1102.899701 
L 661.08308 1103.444203 
L 662.539365 1103.830387 
L 666.180078 1104.927939 
L 667.090257 1105.281041 
L 668.728578 1105.65975 
L 669.274685 1105.760451 
L 670.184863 1105.957131 
L 671.095041 1106.183901 
L 672.00522 1106.480638 
L 672.551327 1106.643552 
L 675.099826 1107.715713 
L 676.920183 1108.271498 
L 677.830361 1108.6519 
L 683.291431 1110.595041 
L 685.475859 1111.407994 
L 686.932144 1111.822065 
L 687.842323 1112.099613 
L 689.116572 1112.217747 
L 691.118965 1112.638693 
L 693.8495 1113.451752 
L 694.577642 1113.70554 
L 695.305785 1113.885732 
L 697.308177 1114.25138 
L 704.225533 1116.203408 
L 705.863854 1116.487621 
L 707.502175 1116.877424 
L 709.504567 1117.294061 
L 719.152458 1119.918671 
L 721.15485 1120.266488 
L 721.882993 1120.460757 
L 722.611135 1120.621078 
L 724.431492 1121.257079 
L 724.977599 1121.413294 
L 726.979991 1121.898335 
L 727.708134 1122.068866 
L 729.346455 1122.461753 
L 730.256633 1122.660611 
L 731.348847 1122.920868 
L 732.805133 1123.273907 
L 733.533275 1123.417324 
L 734.625489 1123.677603 
L 736.627882 1124.061389 
L 737.356024 1124.167171 
L 743.181166 1125.332139 
L 751.008699 1126.563808 
L 752.100913 1126.821542 
L 767.755981 1129.858367 
L 769.212266 1130.146369 
L 771.032623 1130.470593 
L 772.85298 1130.822264 
L 774.673336 1131.156434 
L 776.311657 1131.401975 
L 782.318834 1132.341073 
L 784.321227 1132.549753 
L 795.789474 1133.993373 
L 796.881688 1134.061446 
L 797.791866 1134.212264 
L 798.88408 1134.364319 
L 801.432579 1134.628855 
L 803.981079 1135.007909 
L 807.075685 1135.350489 
L 831.832536 1136.911402 
L 833.652893 1136.915658 
L 835.291214 1137.019715 
L 837.839713 1137.058443 
L 841.298391 1137.102446 
L 842.390605 1137.05338 
L 845.12114 1136.942089 
L 847.123532 1137.022019 
L 849.672031 1137.014366 
L 851.492388 1137.016584 
L 853.130709 1137.017674 
L 865.327099 1137.148665 
L 867.511527 1137.12043 
L 869.87799 1137.165024 
L 871.880383 1137.061024 
L 876.067203 1136.932593 
L 880.80013 1136.787937 
L 883.166594 1136.711926 
L 902.280339 1136.323718 
L 907.195302 1136.008647 
L 934.500652 1134.383163 
L 938.869508 1134.098576 
L 950.15572 1133.629047 
L 954.706612 1133.549626 
L 954.706612 1133.549626 
" clip-path="url(#p37a4d0da44)" style="fill: none; stroke: #ff7f0e; stroke-width: 1.5; stroke-linecap: square"/>
   </g>
   <g id="line2d_65">
    <path d="M 608.838843 1047.325539 
L 609.202914 979.438093 
L 609.566986 952.81205 
L 609.931057 941.583798 
L 610.113093 939.770081 
L 610.477164 942.322536 
L 611.023271 947.699898 
L 611.751414 957.130144 
L 612.297521 965.3895 
L 614.117877 992.34551 
L 615.756198 1014.101887 
L 617.212484 1027.875618 
L 619.760983 1046.49893 
L 620.853197 1052.256829 
L 621.763375 1055.92056 
L 622.491518 1058.63716 
L 623.765768 1063.258355 
L 625.76816 1068.947188 
L 628.862766 1076.697194 
L 630.137016 1079.27803 
L 630.501087 1079.854739 
L 633.231622 1084.372893 
L 633.777729 1085.073796 
L 635.41605 1087.537557 
L 637.054371 1089.417037 
L 638.510657 1090.816854 
L 639.238799 1091.285574 
L 640.513049 1092.54083 
L 645.428012 1096.50397 
L 652.345368 1102.244626 
L 653.437582 1102.76638 
L 655.439974 1103.831986 
L 655.986081 1104.047756 
L 657.078295 1104.482997 
L 657.624402 1104.68907 
L 664.359722 1108.775908 
L 665.087864 1109.060323 
L 667.272292 1110.122342 
L 670.73097 1111.386127 
L 674.371683 1112.291106 
L 680.37886 1114.694472 
L 684.929752 1115.924323 
L 686.750109 1116.639015 
L 687.478251 1116.92453 
L 688.752501 1117.42465 
L 691.301 1118.086223 
L 692.757286 1118.397104 
L 693.303393 1118.586455 
L 694.031535 1118.900083 
L 695.305785 1119.306056 
L 696.033928 1119.595331 
L 696.580035 1119.77816 
L 701.312962 1120.942846 
L 705.863854 1121.787815 
L 714.055459 1124.108214 
L 717.696172 1124.975489 
L 718.970422 1125.300596 
L 725.887777 1126.415459 
L 726.61592 1126.605083 
L 727.344063 1126.730777 
L 729.710526 1127.285765 
L 731.530883 1127.652634 
L 733.35124 1128.01929 
L 733.897347 1128.094043 
L 743.181166 1130.060149 
L 747.914093 1131.150863 
L 750.826664 1131.563322 
L 751.736842 1131.701322 
L 753.92127 1131.898405 
L 755.19552 1132.188615 
L 761.566768 1133.36479 
L 763.569161 1133.819602 
L 769.940409 1134.899072 
L 770.850587 1135.003972 
L 771.942801 1135.172987 
L 773.035015 1135.304631 
L 773.945194 1135.480595 
L 776.857764 1135.836599 
L 780.134406 1136.290945 
L 782.864941 1136.757284 
L 785.959548 1137.149777 
L 787.779904 1137.445052 
L 790.692475 1137.758248 
L 792.330796 1138.036793 
L 795.607438 1138.563358 
L 796.699652 1138.706254 
L 798.88408 1138.852489 
L 801.796651 1139.164803 
L 805.801435 1139.534531 
L 807.985863 1139.801383 
L 809.260113 1139.886603 
L 810.170291 1139.937214 
L 813.082862 1140.052344 
L 816.359504 1140.329945 
L 819.45411 1140.571233 
L 829.102001 1141.410547 
L 832.196607 1141.473992 
L 834.199 1141.375198 
L 835.473249 1141.374798 
L 840.206177 1141.231432 
L 843.118747 1141.1969 
L 859.319922 1140.574381 
L 860.958243 1140.373531 
L 863.870813 1140.099009 
L 865.327099 1139.947681 
L 867.875598 1139.873976 
L 872.244454 1139.579955 
L 873.518704 1139.529611 
L 875.33906 1139.554522 
L 881.164202 1139.470916 
L 888.263593 1139.111224 
L 890.630057 1138.80276 
L 892.814485 1138.583822 
L 898.093519 1138.217812 
L 901.734232 1137.975583 
L 902.826446 1137.859749 
L 906.285124 1137.426499 
L 909.561766 1136.938061 
L 922.668334 1135.206889 
L 930.495868 1134.730409 
L 931.952153 1134.699147 
L 934.682688 1134.658825 
L 935.228795 1134.641234 
L 937.95933 1134.422493 
L 950.883863 1133.609131 
L 954.706612 1133.549626 
L 954.706612 1133.549626 
" clip-path="url(#p37a4d0da44)" style="fill: none; stroke: #2ca02c; stroke-width: 1.5; stroke-linecap: square"/>
   </g>
   <g id="line2d_66">
    <path d="M 608.838843 1030.694755 
L 609.202914 972.444635 
L 609.566986 950.406982 
L 609.931057 939.719688 
L 610.113093 936.987622 
L 610.295128 936.369433 
L 610.477164 936.156352 
L 611.023271 938.705498 
L 611.205307 938.879953 
L 611.569378 939.643228 
L 611.933449 942.838172 
L 615.392127 977.992806 
L 616.484341 987.507969 
L 617.576555 995.930605 
L 618.486733 1001.690408 
L 619.760983 1008.850021 
L 621.399304 1016.598943 
L 623.401696 1024.242733 
L 626.496303 1031.921831 
L 631.775337 1042.48925 
L 632.685515 1044.117806 
L 633.595694 1045.586452 
L 634.869943 1047.566885 
L 636.144193 1049.692507 
L 636.872336 1050.83089 
L 638.328621 1052.878903 
L 639.056764 1054.012452 
L 641.969334 1057.496281 
L 643.243584 1058.809385 
L 644.517834 1060.248732 
L 645.245977 1060.946039 
L 646.520226 1062.24607 
L 649.068726 1064.558868 
L 650.342975 1065.526629 
L 651.435189 1066.493051 
L 653.437582 1068.470978 
L 654.893867 1069.809639 
L 655.804045 1070.574211 
L 657.078295 1071.85434 
L 658.170509 1072.816144 
L 658.716616 1073.287833 
L 660.354937 1074.555772 
L 663.267508 1076.904614 
L 665.2699 1078.163214 
L 665.633971 1078.301036 
L 674.553719 1083.527176 
L 675.827969 1084.326127 
L 677.648325 1085.203602 
L 678.558504 1085.664538 
L 679.468682 1086.210988 
L 680.560896 1086.888907 
L 682.017181 1087.560814 
L 683.291431 1088.171252 
L 684.201609 1088.587381 
L 685.293823 1089.205467 
L 686.021966 1089.641354 
L 687.296216 1090.329825 
L 687.842323 1090.581054 
L 689.298608 1091.269623 
L 690.572858 1091.796704 
L 694.031535 1093.408094 
L 695.123749 1093.953377 
L 696.580035 1094.542487 
L 697.854284 1094.997693 
L 698.946498 1095.487318 
L 701.494998 1096.616653 
L 702.587212 1097.085397 
L 703.49739 1097.538336 
L 704.407569 1097.922848 
L 706.409961 1098.757526 
L 707.138104 1099.091038 
L 709.140496 1099.969294 
L 710.414746 1100.559192 
L 715.511744 1103.05815 
L 720.244672 1105.635481 
L 720.972814 1105.985052 
L 734.443454 1112.962915 
L 737.720096 1114.264783 
L 738.630274 1114.648072 
L 740.814702 1115.55189 
L 750.280557 1119.232222 
L 755.377555 1121.291202 
L 769.758373 1126.485339 
L 776.311657 1128.224165 
L 784.685298 1129.863069 
L 785.777512 1130.018892 
L 789.418225 1130.755463 
L 791.420618 1131.148089 
L 793.058939 1131.347882 
L 794.879295 1131.636195 
L 803.0709 1132.322563 
L 804.34515 1132.415258 
L 808.53197 1132.787456 
L 812.718791 1133.600761 
L 815.085254 1133.993308 
L 821.638538 1134.461551 
L 823.640931 1134.455788 
L 827.281644 1134.656305 
L 828.555894 1134.685024 
L 830.376251 1134.654646 
L 832.014572 1134.702545 
L 833.106786 1134.771174 
L 836.383428 1134.904437 
L 838.021749 1134.942863 
L 839.295998 1134.996819 
L 854.586994 1136.026418 
L 874.792953 1136.046322 
L 878.797738 1136.262942 
L 883.712701 1136.339684 
L 887.717486 1136.355928 
L 896.273162 1136.067595 
L 899.185733 1135.871096 
L 904.464767 1135.608941 
L 908.469552 1135.357091 
L 919.391692 1134.574527 
L 927.765333 1134.278307 
L 931.588082 1134.213283 
L 932.862331 1134.20609 
L 936.503045 1133.97543 
L 948.335363 1133.374891 
L 949.973684 1133.449651 
L 951.247934 1133.590845 
L 954.706612 1133.549626 
L 954.706612 1133.549626 
" clip-path="url(#p37a4d0da44)" style="fill: none; stroke: #d62728; stroke-width: 1.5; stroke-linecap: square"/>
   </g>
   <g id="patch_40">
    <path d="M 591.545455 1153.44 
L 591.545455 890.829474 
" style="fill: none; stroke: #000000; stroke-width: 0.8; stroke-linejoin: miter; stroke-linecap: square"/>
   </g>
   <g id="patch_41">
    <path d="M 972 1153.44 
L 972 890.829474 
" style="fill: none; stroke: #000000; stroke-width: 0.8; stroke-linejoin: miter; stroke-linecap: square"/>
   </g>
   <g id="patch_42">
    <path d="M 591.545455 1153.44 
L 972 1153.44 
" style="fill: none; stroke: #000000; stroke-width: 0.8; stroke-linejoin: miter; stroke-linecap: square"/>
   </g>
   <g id="patch_43">
    <path d="M 591.545455 890.829474 
L 972 890.829474 
" style="fill: none; stroke: #000000; stroke-width: 0.8; stroke-linejoin: miter; stroke-linecap: square"/>
   </g>
   <g id="text_66">
    <!-- f -->
    <g transform="translate(552.733636 872.71352) scale(0.28 -0.28)">
     <defs>
      <path id="DejaVuSans-Bold-66" d="M 2841 4863 
L 2841 4128 
L 2222 4128 
Q 1984 4128 1890 4042 
Q 1797 3956 1797 3744 
L 1797 3500 
L 2753 3500 
L 2753 2700 
L 1797 2700 
L 1797 0 
L 678 0 
L 678 2700 
L 122 2700 
L 122 3500 
L 678 3500 
L 678 3744 
Q 678 4316 997 4589 
Q 1316 4863 1984 4863 
L 2841 4863 
z
" transform="scale(0.015625)"/>
     </defs>
     <use xlink:href="#DejaVuSans-Bold-66"/>
    </g>
   </g>
   <g id="text_67">
    <!-- LCMC -->
    <g transform="translate(747.973977 884.829474) scale(0.24 -0.24)">
     <defs>
      <path id="DejaVuSans-4c" d="M 628 4666 
L 1259 4666 
L 1259 531 
L 3531 531 
L 3531 0 
L 628 0 
L 628 4666 
z
" transform="scale(0.015625)"/>
     </defs>
     <use xlink:href="#DejaVuSans-4c"/>
     <use xlink:href="#DejaVuSans-43" x="55.712891"/>
     <use xlink:href="#DejaVuSans-4d" x="125.537109"/>
     <use xlink:href="#DejaVuSans-43" x="211.816406"/>
    </g>
   </g>
  </g>
 </g>
 <defs>
  <clipPath id="pf4edef1885">
   <rect x="135" y="155.52" width="380.454545" height="262.610526"/>
  </clipPath>
  <clipPath id="pacf3b1bc5f">
   <rect x="591.545455" y="155.52" width="380.454545" height="262.610526"/>
  </clipPath>
  <clipPath id="pfc2d40d477">
   <rect x="135" y="523.174737" width="380.454545" height="262.610526"/>
  </clipPath>
  <clipPath id="pc9c1e20db9">
   <rect x="591.545455" y="523.174737" width="380.454545" height="262.610526"/>
  </clipPath>
  <clipPath id="pf3faa36b0a">
   <rect x="135" y="890.829474" width="380.454545" height="262.610526"/>
  </clipPath>
  <clipPath id="p37a4d0da44">
   <rect x="591.545455" y="890.829474" width="380.454545" height="262.610526"/>
  </clipPath>
 </defs>
</svg>
