<?xml version="1.0" encoding="utf-8" standalone="no"?>
<!DOCTYPE svg PUBLIC "-//W3C//DTD SVG 1.1//EN"
  "http://www.w3.org/Graphics/SVG/1.1/DTD/svg11.dtd">
<svg xmlns:xlink="http://www.w3.org/1999/xlink" width="1080pt" height="1296pt" viewBox="0 0 1080 1296" xmlns="http://www.w3.org/2000/svg" version="1.1">
 <metadata>
  <rdf:RDF xmlns:dc="http://purl.org/dc/elements/1.1/" xmlns:cc="http://creativecommons.org/ns#" xmlns:rdf="http://www.w3.org/1999/02/22-rdf-syntax-ns#">
   <cc:Work>
    <dc:type rdf:resource="http://purl.org/dc/dcmitype/StillImage"/>
    <dc:date>2024-07-24T01:47:25.463011</dc:date>
    <dc:format>image/svg+xml</dc:format>
    <dc:creator>
     <cc:Agent>
      <dc:title>Matplotlib v3.8.4, https://matplotlib.org/</dc:title>
     </cc:Agent>
    </dc:creator>
   </cc:Work>
  </rdf:RDF>
 </metadata>
 <defs>
  <style type="text/css">*{stroke-linejoin: round; stroke-linecap: butt}</style>
 </defs>
 <g id="figure_1">
  <g id="patch_1">
   <path d="M 0 1296 
L 1080 1296 
L 1080 0 
L 0 0 
z
" style="fill: #ffffff"/>
  </g>
  <g id="axes_1">
   <g id="patch_2">
    <path d="M 135 418.130526 
L 515.454545 418.130526 
L 515.454545 155.52 
L 135 155.52 
z
" style="fill: #ffffff"/>
   </g>
   <g id="matplotlib.axis_1">
    <g id="xtick_1">
     <g id="line2d_1">
      <defs>
       <path id="mab54c37809" d="M 0 0 
L 0 3.5 
" style="stroke: #000000; stroke-width: 0.8"/>
      </defs>
      <g>
       <use xlink:href="#mab54c37809" x="137.882231" y="418.130526" style="stroke: #000000; stroke-width: 0.8"/>
      </g>
     </g>
     <g id="text_1">
      <!-- 0 -->
      <g transform="translate(131.519731 440.327401) scale(0.2 -0.2)">
       <defs>
        <path id="DejaVuSans-30" d="M 2034 4250 
Q 1547 4250 1301 3770 
Q 1056 3291 1056 2328 
Q 1056 1369 1301 889 
Q 1547 409 2034 409 
Q 2525 409 2770 889 
Q 3016 1369 3016 2328 
Q 3016 3291 2770 3770 
Q 2525 4250 2034 4250 
z
M 2034 4750 
Q 2819 4750 3233 4129 
Q 3647 3509 3647 2328 
Q 3647 1150 3233 529 
Q 2819 -91 2034 -91 
Q 1250 -91 836 529 
Q 422 1150 422 2328 
Q 422 3509 836 4129 
Q 1250 4750 2034 4750 
z
" transform="scale(0.015625)"/>
       </defs>
       <use xlink:href="#DejaVuSans-30"/>
      </g>
     </g>
    </g>
    <g id="xtick_2">
     <g id="line2d_2">
      <g>
       <use xlink:href="#mab54c37809" x="209.938017" y="418.130526" style="stroke: #000000; stroke-width: 0.8"/>
      </g>
     </g>
     <g id="text_2">
      <!-- 10 -->
      <g transform="translate(197.213017 440.327401) scale(0.2 -0.2)">
       <defs>
        <path id="DejaVuSans-31" d="M 794 531 
L 1825 531 
L 1825 4091 
L 703 3866 
L 703 4441 
L 1819 4666 
L 2450 4666 
L 2450 531 
L 3481 531 
L 3481 0 
L 794 0 
L 794 531 
z
" transform="scale(0.015625)"/>
       </defs>
       <use xlink:href="#DejaVuSans-31"/>
       <use xlink:href="#DejaVuSans-30" x="63.623047"/>
      </g>
     </g>
    </g>
    <g id="xtick_3">
     <g id="line2d_3">
      <g>
       <use xlink:href="#mab54c37809" x="281.993802" y="418.130526" style="stroke: #000000; stroke-width: 0.8"/>
      </g>
     </g>
     <g id="text_3">
      <!-- 20 -->
      <g transform="translate(269.268802 440.327401) scale(0.2 -0.2)">
       <defs>
        <path id="DejaVuSans-32" d="M 1228 531 
L 3431 531 
L 3431 0 
L 469 0 
L 469 531 
Q 828 903 1448 1529 
Q 2069 2156 2228 2338 
Q 2531 2678 2651 2914 
Q 2772 3150 2772 3378 
Q 2772 3750 2511 3984 
Q 2250 4219 1831 4219 
Q 1534 4219 1204 4116 
Q 875 4013 500 3803 
L 500 4441 
Q 881 4594 1212 4672 
Q 1544 4750 1819 4750 
Q 2544 4750 2975 4387 
Q 3406 4025 3406 3419 
Q 3406 3131 3298 2873 
Q 3191 2616 2906 2266 
Q 2828 2175 2409 1742 
Q 1991 1309 1228 531 
z
" transform="scale(0.015625)"/>
       </defs>
       <use xlink:href="#DejaVuSans-32"/>
       <use xlink:href="#DejaVuSans-30" x="63.623047"/>
      </g>
     </g>
    </g>
    <g id="xtick_4">
     <g id="line2d_4">
      <g>
       <use xlink:href="#mab54c37809" x="354.049587" y="418.130526" style="stroke: #000000; stroke-width: 0.8"/>
      </g>
     </g>
     <g id="text_4">
      <!-- 30 -->
      <g transform="translate(341.324587 440.327401) scale(0.2 -0.2)">
       <defs>
        <path id="DejaVuSans-33" d="M 2597 2516 
Q 3050 2419 3304 2112 
Q 3559 1806 3559 1356 
Q 3559 666 3084 287 
Q 2609 -91 1734 -91 
Q 1441 -91 1130 -33 
Q 819 25 488 141 
L 488 750 
Q 750 597 1062 519 
Q 1375 441 1716 441 
Q 2309 441 2620 675 
Q 2931 909 2931 1356 
Q 2931 1769 2642 2001 
Q 2353 2234 1838 2234 
L 1294 2234 
L 1294 2753 
L 1863 2753 
Q 2328 2753 2575 2939 
Q 2822 3125 2822 3475 
Q 2822 3834 2567 4026 
Q 2313 4219 1838 4219 
Q 1578 4219 1281 4162 
Q 984 4106 628 3988 
L 628 4550 
Q 988 4650 1302 4700 
Q 1616 4750 1894 4750 
Q 2613 4750 3031 4423 
Q 3450 4097 3450 3541 
Q 3450 3153 3228 2886 
Q 3006 2619 2597 2516 
z
" transform="scale(0.015625)"/>
       </defs>
       <use xlink:href="#DejaVuSans-33"/>
       <use xlink:href="#DejaVuSans-30" x="63.623047"/>
      </g>
     </g>
    </g>
    <g id="xtick_5">
     <g id="line2d_5">
      <g>
       <use xlink:href="#mab54c37809" x="426.105372" y="418.130526" style="stroke: #000000; stroke-width: 0.8"/>
      </g>
     </g>
     <g id="text_5">
      <!-- 40 -->
      <g transform="translate(413.380372 440.327401) scale(0.2 -0.2)">
       <defs>
        <path id="DejaVuSans-34" d="M 2419 4116 
L 825 1625 
L 2419 1625 
L 2419 4116 
z
M 2253 4666 
L 3047 4666 
L 3047 1625 
L 3713 1625 
L 3713 1100 
L 3047 1100 
L 3047 0 
L 2419 0 
L 2419 1100 
L 313 1100 
L 313 1709 
L 2253 4666 
z
" transform="scale(0.015625)"/>
       </defs>
       <use xlink:href="#DejaVuSans-34"/>
       <use xlink:href="#DejaVuSans-30" x="63.623047"/>
      </g>
     </g>
    </g>
    <g id="xtick_6">
     <g id="line2d_6">
      <g>
       <use xlink:href="#mab54c37809" x="498.161157" y="418.130526" style="stroke: #000000; stroke-width: 0.8"/>
      </g>
     </g>
     <g id="text_6">
      <!-- 50 -->
      <g transform="translate(485.436157 440.327401) scale(0.2 -0.2)">
       <defs>
        <path id="DejaVuSans-35" d="M 691 4666 
L 3169 4666 
L 3169 4134 
L 1269 4134 
L 1269 2991 
Q 1406 3038 1543 3061 
Q 1681 3084 1819 3084 
Q 2600 3084 3056 2656 
Q 3513 2228 3513 1497 
Q 3513 744 3044 326 
Q 2575 -91 1722 -91 
Q 1428 -91 1123 -41 
Q 819 9 494 109 
L 494 744 
Q 775 591 1075 516 
Q 1375 441 1709 441 
Q 2250 441 2565 725 
Q 2881 1009 2881 1497 
Q 2881 1984 2565 2268 
Q 2250 2553 1709 2553 
Q 1456 2553 1204 2497 
Q 953 2441 691 2322 
L 691 4666 
z
" transform="scale(0.015625)"/>
       </defs>
       <use xlink:href="#DejaVuSans-35"/>
       <use xlink:href="#DejaVuSans-30" x="63.623047"/>
      </g>
     </g>
    </g>
    <g id="text_7">
     <!-- k -->
     <g transform="translate(318.278523 466.723026) scale(0.24 -0.24)">
      <defs>
       <path id="DejaVuSans-6b" d="M 581 4863 
L 1159 4863 
L 1159 1991 
L 2875 3500 
L 3609 3500 
L 1753 1863 
L 3688 0 
L 2938 0 
L 1159 1709 
L 1159 0 
L 581 0 
L 581 4863 
z
" transform="scale(0.015625)"/>
      </defs>
      <use xlink:href="#DejaVuSans-6b"/>
     </g>
    </g>
   </g>
   <g id="matplotlib.axis_2">
    <g id="ytick_1">
     <g id="line2d_7">
      <defs>
       <path id="ma65da63a1e" d="M 0 0 
L -3.5 0 
" style="stroke: #000000; stroke-width: 0.8"/>
      </defs>
      <g>
       <use xlink:href="#ma65da63a1e" x="135" y="418.130526" style="stroke: #000000; stroke-width: 0.8"/>
      </g>
     </g>
     <g id="text_8">
      <!-- 0.0 -->
      <g transform="translate(96.19375 425.728964) scale(0.2 -0.2)">
       <defs>
        <path id="DejaVuSans-2e" d="M 684 794 
L 1344 794 
L 1344 0 
L 684 0 
L 684 794 
z
" transform="scale(0.015625)"/>
       </defs>
       <use xlink:href="#DejaVuSans-30"/>
       <use xlink:href="#DejaVuSans-2e" x="63.623047"/>
       <use xlink:href="#DejaVuSans-30" x="95.410156"/>
      </g>
     </g>
    </g>
    <g id="ytick_2">
     <g id="line2d_8">
      <g>
       <use xlink:href="#ma65da63a1e" x="135" y="352.477895" style="stroke: #000000; stroke-width: 0.8"/>
      </g>
     </g>
     <g id="text_9">
      <!-- 0.2 -->
      <g transform="translate(96.19375 360.076332) scale(0.2 -0.2)">
       <use xlink:href="#DejaVuSans-30"/>
       <use xlink:href="#DejaVuSans-2e" x="63.623047"/>
       <use xlink:href="#DejaVuSans-32" x="95.410156"/>
      </g>
     </g>
    </g>
    <g id="ytick_3">
     <g id="line2d_9">
      <g>
       <use xlink:href="#ma65da63a1e" x="135" y="286.825263" style="stroke: #000000; stroke-width: 0.8"/>
      </g>
     </g>
     <g id="text_10">
      <!-- 0.4 -->
      <g transform="translate(96.19375 294.423701) scale(0.2 -0.2)">
       <use xlink:href="#DejaVuSans-30"/>
       <use xlink:href="#DejaVuSans-2e" x="63.623047"/>
       <use xlink:href="#DejaVuSans-34" x="95.410156"/>
      </g>
     </g>
    </g>
    <g id="ytick_4">
     <g id="line2d_10">
      <g>
       <use xlink:href="#ma65da63a1e" x="135" y="221.172632" style="stroke: #000000; stroke-width: 0.8"/>
      </g>
     </g>
     <g id="text_11">
      <!-- 0.6 -->
      <g transform="translate(96.19375 228.771069) scale(0.2 -0.2)">
       <defs>
        <path id="DejaVuSans-36" d="M 2113 2584 
Q 1688 2584 1439 2293 
Q 1191 2003 1191 1497 
Q 1191 994 1439 701 
Q 1688 409 2113 409 
Q 2538 409 2786 701 
Q 3034 994 3034 1497 
Q 3034 2003 2786 2293 
Q 2538 2584 2113 2584 
z
M 3366 4563 
L 3366 3988 
Q 3128 4100 2886 4159 
Q 2644 4219 2406 4219 
Q 1781 4219 1451 3797 
Q 1122 3375 1075 2522 
Q 1259 2794 1537 2939 
Q 1816 3084 2150 3084 
Q 2853 3084 3261 2657 
Q 3669 2231 3669 1497 
Q 3669 778 3244 343 
Q 2819 -91 2113 -91 
Q 1303 -91 875 529 
Q 447 1150 447 2328 
Q 447 3434 972 4092 
Q 1497 4750 2381 4750 
Q 2619 4750 2861 4703 
Q 3103 4656 3366 4563 
z
" transform="scale(0.015625)"/>
       </defs>
       <use xlink:href="#DejaVuSans-30"/>
       <use xlink:href="#DejaVuSans-2e" x="63.623047"/>
       <use xlink:href="#DejaVuSans-36" x="95.410156"/>
      </g>
     </g>
    </g>
    <g id="ytick_5">
     <g id="line2d_11">
      <g>
       <use xlink:href="#ma65da63a1e" x="135" y="155.52" style="stroke: #000000; stroke-width: 0.8"/>
      </g>
     </g>
     <g id="text_12">
      <!-- 0.8 -->
      <g transform="translate(96.19375 163.118438) scale(0.2 -0.2)">
       <defs>
        <path id="DejaVuSans-38" d="M 2034 2216 
Q 1584 2216 1326 1975 
Q 1069 1734 1069 1313 
Q 1069 891 1326 650 
Q 1584 409 2034 409 
Q 2484 409 2743 651 
Q 3003 894 3003 1313 
Q 3003 1734 2745 1975 
Q 2488 2216 2034 2216 
z
M 1403 2484 
Q 997 2584 770 2862 
Q 544 3141 544 3541 
Q 544 4100 942 4425 
Q 1341 4750 2034 4750 
Q 2731 4750 3128 4425 
Q 3525 4100 3525 3541 
Q 3525 3141 3298 2862 
Q 3072 2584 2669 2484 
Q 3125 2378 3379 2068 
Q 3634 1759 3634 1313 
Q 3634 634 3220 271 
Q 2806 -91 2034 -91 
Q 1263 -91 848 271 
Q 434 634 434 1313 
Q 434 1759 690 2068 
Q 947 2378 1403 2484 
z
M 1172 3481 
Q 1172 3119 1398 2916 
Q 1625 2713 2034 2713 
Q 2441 2713 2670 2916 
Q 2900 3119 2900 3481 
Q 2900 3844 2670 4047 
Q 2441 4250 2034 4250 
Q 1625 4250 1398 4047 
Q 1172 3844 1172 3481 
z
" transform="scale(0.015625)"/>
       </defs>
       <use xlink:href="#DejaVuSans-30"/>
       <use xlink:href="#DejaVuSans-2e" x="63.623047"/>
       <use xlink:href="#DejaVuSans-38" x="95.410156"/>
      </g>
     </g>
    </g>
    <g id="text_13">
     <!-- $P_{NN}$ -->
     <g transform="translate(87.2025 306.985263) rotate(-90) scale(0.24 -0.24)">
      <defs>
       <path id="DejaVuSans-Oblique-50" d="M 1081 4666 
L 2541 4666 
Q 3178 4666 3512 4369 
Q 3847 4072 3847 3500 
Q 3847 2731 3353 2303 
Q 2859 1875 1966 1875 
L 1172 1875 
L 806 0 
L 172 0 
L 1081 4666 
z
M 1613 4147 
L 1275 2394 
L 2069 2394 
Q 2606 2394 2893 2669 
Q 3181 2944 3181 3456 
Q 3181 3784 2986 3965 
Q 2791 4147 2438 4147 
L 1613 4147 
z
" transform="scale(0.015625)"/>
       <path id="DejaVuSans-Oblique-4e" d="M 1081 4666 
L 1931 4666 
L 3219 666 
L 4000 4666 
L 4616 4666 
L 3706 0 
L 2853 0 
L 1569 4025 
L 788 0 
L 172 0 
L 1081 4666 
z
" transform="scale(0.015625)"/>
      </defs>
      <use xlink:href="#DejaVuSans-Oblique-50" transform="translate(0 0.09375)"/>
      <use xlink:href="#DejaVuSans-Oblique-4e" transform="translate(60.302734 -16.3125) scale(0.7)"/>
      <use xlink:href="#DejaVuSans-Oblique-4e" transform="translate(112.666016 -16.3125) scale(0.7)"/>
     </g>
    </g>
   </g>
   <g id="line2d_12">
    <path d="M 152.293388 379.125545 
L 173.910124 372.843327 
L 209.938017 367.493087 
L 281.993802 362.315434 
L 498.161157 349.485212 
" clip-path="url(#p575d3e1f90)" style="fill: none; stroke: #1f77b4; stroke-width: 1.5; stroke-linecap: square"/>
    <defs>
     <path id="mf848069504" d="M 0 3 
C 0.795609 3 1.55874 2.683901 2.12132 2.12132 
C 2.683901 1.55874 3 0.795609 3 0 
C 3 -0.795609 2.683901 -1.55874 2.12132 -2.12132 
C 1.55874 -2.683901 0.795609 -3 0 -3 
C -0.795609 -3 -1.55874 -2.683901 -2.12132 -2.12132 
C -2.683901 -1.55874 -3 -0.795609 -3 0 
C -3 0.795609 -2.683901 1.55874 -2.12132 2.12132 
C -1.55874 2.683901 -0.795609 3 0 3 
z
" style="stroke: #1f77b4"/>
    </defs>
    <g clip-path="url(#p575d3e1f90)">
     <use xlink:href="#mf848069504" x="152.293388" y="379.125545" style="fill: #1f77b4; stroke: #1f77b4"/>
     <use xlink:href="#mf848069504" x="173.910124" y="372.843327" style="fill: #1f77b4; stroke: #1f77b4"/>
     <use xlink:href="#mf848069504" x="209.938017" y="367.493087" style="fill: #1f77b4; stroke: #1f77b4"/>
     <use xlink:href="#mf848069504" x="281.993802" y="362.315434" style="fill: #1f77b4; stroke: #1f77b4"/>
     <use xlink:href="#mf848069504" x="498.161157" y="349.485212" style="fill: #1f77b4; stroke: #1f77b4"/>
    </g>
   </g>
   <g id="line2d_13">
    <path d="M 152.293388 217.065027 
L 173.910124 210.541185 
L 209.938017 220.499537 
L 281.993802 236.222341 
L 498.161157 271.105911 
" clip-path="url(#p575d3e1f90)" style="fill: none; stroke: #ff7f0e; stroke-width: 1.5; stroke-linecap: square"/>
    <defs>
     <path id="m1dc146b4ee" d="M 0 3 
C 0.795609 3 1.55874 2.683901 2.12132 2.12132 
C 2.683901 1.55874 3 0.795609 3 0 
C 3 -0.795609 2.683901 -1.55874 2.12132 -2.12132 
C 1.55874 -2.683901 0.795609 -3 0 -3 
C -0.795609 -3 -1.55874 -2.683901 -2.12132 -2.12132 
C -2.683901 -1.55874 -3 -0.795609 -3 0 
C -3 0.795609 -2.683901 1.55874 -2.12132 2.12132 
C -1.55874 2.683901 -0.795609 3 0 3 
z
" style="stroke: #ff7f0e"/>
    </defs>
    <g clip-path="url(#p575d3e1f90)">
     <use xlink:href="#m1dc146b4ee" x="152.293388" y="217.065027" style="fill: #ff7f0e; stroke: #ff7f0e"/>
     <use xlink:href="#m1dc146b4ee" x="173.910124" y="210.541185" style="fill: #ff7f0e; stroke: #ff7f0e"/>
     <use xlink:href="#m1dc146b4ee" x="209.938017" y="220.499537" style="fill: #ff7f0e; stroke: #ff7f0e"/>
     <use xlink:href="#m1dc146b4ee" x="281.993802" y="236.222341" style="fill: #ff7f0e; stroke: #ff7f0e"/>
     <use xlink:href="#m1dc146b4ee" x="498.161157" y="271.105911" style="fill: #ff7f0e; stroke: #ff7f0e"/>
    </g>
   </g>
   <g id="line2d_14">
    <path d="M 152.293388 302.323702 
L 173.910124 258.27914 
L 209.938017 239.36345 
L 281.993802 243.410648 
L 498.161157 276.891074 
" clip-path="url(#p575d3e1f90)" style="fill: none; stroke: #2ca02c; stroke-width: 1.5; stroke-linecap: square"/>
    <defs>
     <path id="m0a7b9672f0" d="M 0 3 
C 0.795609 3 1.55874 2.683901 2.12132 2.12132 
C 2.683901 1.55874 3 0.795609 3 0 
C 3 -0.795609 2.683901 -1.55874 2.12132 -2.12132 
C 1.55874 -2.683901 0.795609 -3 0 -3 
C -0.795609 -3 -1.55874 -2.683901 -2.12132 -2.12132 
C -2.683901 -1.55874 -3 -0.795609 -3 0 
C -3 0.795609 -2.683901 1.55874 -2.12132 2.12132 
C -1.55874 2.683901 -0.795609 3 0 3 
z
" style="stroke: #2ca02c"/>
    </defs>
    <g clip-path="url(#p575d3e1f90)">
     <use xlink:href="#m0a7b9672f0" x="152.293388" y="302.323702" style="fill: #2ca02c; stroke: #2ca02c"/>
     <use xlink:href="#m0a7b9672f0" x="173.910124" y="258.27914" style="fill: #2ca02c; stroke: #2ca02c"/>
     <use xlink:href="#m0a7b9672f0" x="209.938017" y="239.36345" style="fill: #2ca02c; stroke: #2ca02c"/>
     <use xlink:href="#m0a7b9672f0" x="281.993802" y="243.410648" style="fill: #2ca02c; stroke: #2ca02c"/>
     <use xlink:href="#m0a7b9672f0" x="498.161157" y="276.891074" style="fill: #2ca02c; stroke: #2ca02c"/>
    </g>
   </g>
   <g id="line2d_15">
    <path d="M 152.293388 284.63339 
L 173.910124 251.548192 
L 209.938017 243.332984 
L 281.993802 250.279667 
L 498.161157 281.975529 
" clip-path="url(#p575d3e1f90)" style="fill: none; stroke: #d62728; stroke-width: 1.5; stroke-linecap: square"/>
    <defs>
     <path id="m7d4d095a22" d="M 0 3 
C 0.795609 3 1.55874 2.683901 2.12132 2.12132 
C 2.683901 1.55874 3 0.795609 3 0 
C 3 -0.795609 2.683901 -1.55874 2.12132 -2.12132 
C 1.55874 -2.683901 0.795609 -3 0 -3 
C -0.795609 -3 -1.55874 -2.683901 -2.12132 -2.12132 
C -2.683901 -1.55874 -3 -0.795609 -3 0 
C -3 0.795609 -2.683901 1.55874 -2.12132 2.12132 
C -1.55874 2.683901 -0.795609 3 0 3 
z
" style="stroke: #d62728"/>
    </defs>
    <g clip-path="url(#p575d3e1f90)">
     <use xlink:href="#m7d4d095a22" x="152.293388" y="284.63339" style="fill: #d62728; stroke: #d62728"/>
     <use xlink:href="#m7d4d095a22" x="173.910124" y="251.548192" style="fill: #d62728; stroke: #d62728"/>
     <use xlink:href="#m7d4d095a22" x="209.938017" y="243.332984" style="fill: #d62728; stroke: #d62728"/>
     <use xlink:href="#m7d4d095a22" x="281.993802" y="250.279667" style="fill: #d62728; stroke: #d62728"/>
     <use xlink:href="#m7d4d095a22" x="498.161157" y="281.975529" style="fill: #d62728; stroke: #d62728"/>
    </g>
   </g>
   <g id="patch_3">
    <path d="M 135 418.130526 
L 135 155.52 
" style="fill: none; stroke: #000000; stroke-width: 0.8; stroke-linejoin: miter; stroke-linecap: square"/>
   </g>
   <g id="patch_4">
    <path d="M 515.454545 418.130526 
L 515.454545 155.52 
" style="fill: none; stroke: #000000; stroke-width: 0.8; stroke-linejoin: miter; stroke-linecap: square"/>
   </g>
   <g id="patch_5">
    <path d="M 135 418.130526 
L 515.454545 418.130526 
" style="fill: none; stroke: #000000; stroke-width: 0.8; stroke-linejoin: miter; stroke-linecap: square"/>
   </g>
   <g id="patch_6">
    <path d="M 135 155.52 
L 515.454545 155.52 
" style="fill: none; stroke: #000000; stroke-width: 0.8; stroke-linejoin: miter; stroke-linecap: square"/>
   </g>
   <g id="text_14">
    <!-- a -->
    <g transform="translate(89.472557 137.404046) scale(0.28 -0.28)">
     <defs>
      <path id="DejaVuSans-Bold-61" d="M 2106 1575 
Q 1756 1575 1579 1456 
Q 1403 1338 1403 1106 
Q 1403 894 1545 773 
Q 1688 653 1941 653 
Q 2256 653 2472 879 
Q 2688 1106 2688 1447 
L 2688 1575 
L 2106 1575 
z
M 3816 1997 
L 3816 0 
L 2688 0 
L 2688 519 
Q 2463 200 2181 54 
Q 1900 -91 1497 -91 
Q 953 -91 614 226 
Q 275 544 275 1050 
Q 275 1666 698 1953 
Q 1122 2241 2028 2241 
L 2688 2241 
L 2688 2328 
Q 2688 2594 2478 2717 
Q 2269 2841 1825 2841 
Q 1466 2841 1156 2769 
Q 847 2697 581 2553 
L 581 3406 
Q 941 3494 1303 3539 
Q 1666 3584 2028 3584 
Q 2975 3584 3395 3211 
Q 3816 2838 3816 1997 
z
" transform="scale(0.015625)"/>
     </defs>
     <use xlink:href="#DejaVuSans-Bold-61"/>
    </g>
   </g>
   <g id="text_15">
    <!-- $P_{NN}$ -->
    <g transform="translate(303.387273 149.52) scale(0.26 -0.26)">
     <use xlink:href="#DejaVuSans-Oblique-50" transform="translate(0 0.09375)"/>
     <use xlink:href="#DejaVuSans-Oblique-4e" transform="translate(60.302734 -16.3125) scale(0.7)"/>
     <use xlink:href="#DejaVuSans-Oblique-4e" transform="translate(112.666016 -16.3125) scale(0.7)"/>
    </g>
   </g>
  </g>
  <g id="axes_2">
   <g id="patch_7">
    <path d="M 591.545455 418.130526 
L 972 418.130526 
L 972 155.52 
L 591.545455 155.52 
z
" style="fill: #ffffff"/>
   </g>
   <g id="patch_8">
    <path d="M 608.838843 418.130526 
L 628.792753 418.130526 
L 628.792753 194.054968 
L 608.838843 194.054968 
z
" clip-path="url(#p7984b4ec03)" style="fill: #1f77b4"/>
   </g>
   <g id="patch_9">
    <path d="M 741.864908 418.130526 
L 761.818818 418.130526 
L 761.818818 305.253251 
L 741.864908 305.253251 
z
" clip-path="url(#p7984b4ec03)" style="fill: #1f77b4"/>
   </g>
   <g id="patch_10">
    <path d="M 874.890973 418.130526 
L 894.844882 418.130526 
L 894.844882 168.025263 
L 874.890973 168.025263 
z
" clip-path="url(#p7984b4ec03)" style="fill: #1f77b4"/>
   </g>
   <g id="patch_11">
    <path d="M 628.792753 418.130526 
L 648.746662 418.130526 
L 648.746662 188.26407 
L 628.792753 188.26407 
z
" clip-path="url(#p7984b4ec03)" style="fill: #ff7f0e"/>
   </g>
   <g id="patch_12">
    <path d="M 761.818818 418.130526 
L 781.772727 418.130526 
L 781.772727 215.864025 
L 761.818818 215.864025 
z
" clip-path="url(#p7984b4ec03)" style="fill: #ff7f0e"/>
   </g>
   <g id="patch_13">
    <path d="M 894.844882 418.130526 
L 914.798792 418.130526 
L 914.798792 188.148004 
L 894.844882 188.148004 
z
" clip-path="url(#p7984b4ec03)" style="fill: #ff7f0e"/>
   </g>
   <g id="patch_14">
    <path d="M 648.746662 418.130526 
L 668.700572 418.130526 
L 668.700572 190.032061 
L 648.746662 190.032061 
z
" clip-path="url(#p7984b4ec03)" style="fill: #2ca02c"/>
   </g>
   <g id="patch_15">
    <path d="M 781.772727 418.130526 
L 801.726637 418.130526 
L 801.726637 263.518817 
L 781.772727 263.518817 
z
" clip-path="url(#p7984b4ec03)" style="fill: #2ca02c"/>
   </g>
   <g id="patch_16">
    <path d="M 914.798792 418.130526 
L 934.752702 418.130526 
L 934.752702 189.562972 
L 914.798792 189.562972 
z
" clip-path="url(#p7984b4ec03)" style="fill: #2ca02c"/>
   </g>
   <g id="patch_17">
    <path d="M 668.700572 418.130526 
L 688.654482 418.130526 
L 688.654482 223.422396 
L 668.700572 223.422396 
z
" clip-path="url(#p7984b4ec03)" style="fill: #d62728"/>
   </g>
   <g id="patch_18">
    <path d="M 801.726637 418.130526 
L 821.680547 418.130526 
L 821.680547 259.189418 
L 801.726637 259.189418 
z
" clip-path="url(#p7984b4ec03)" style="fill: #d62728"/>
   </g>
   <g id="patch_19">
    <path d="M 934.752702 418.130526 
L 954.706612 418.130526 
L 954.706612 223.211888 
L 934.752702 223.211888 
z
" clip-path="url(#p7984b4ec03)" style="fill: #d62728"/>
   </g>
   <g id="matplotlib.axis_3">
    <g id="xtick_7">
     <g id="line2d_16">
      <g>
       <use xlink:href="#mab54c37809" x="648.746662" y="418.130526" style="stroke: #000000; stroke-width: 0.8"/>
      </g>
     </g>
     <g id="text_16">
      <!-- AUC -->
      <g transform="translate(625.490256 441.847089) scale(0.22 -0.22)">
       <defs>
        <path id="DejaVuSans-41" d="M 2188 4044 
L 1331 1722 
L 3047 1722 
L 2188 4044 
z
M 1831 4666 
L 2547 4666 
L 4325 0 
L 3669 0 
L 3244 1197 
L 1141 1197 
L 716 0 
L 50 0 
L 1831 4666 
z
" transform="scale(0.015625)"/>
        <path id="DejaVuSans-55" d="M 556 4666 
L 1191 4666 
L 1191 1831 
Q 1191 1081 1462 751 
Q 1734 422 2344 422 
Q 2950 422 3222 751 
Q 3494 1081 3494 1831 
L 3494 4666 
L 4128 4666 
L 4128 1753 
Q 4128 841 3676 375 
Q 3225 -91 2344 -91 
Q 1459 -91 1007 375 
Q 556 841 556 1753 
L 556 4666 
z
" transform="scale(0.015625)"/>
        <path id="DejaVuSans-43" d="M 4122 4306 
L 4122 3641 
Q 3803 3938 3442 4084 
Q 3081 4231 2675 4231 
Q 1875 4231 1450 3742 
Q 1025 3253 1025 2328 
Q 1025 1406 1450 917 
Q 1875 428 2675 428 
Q 3081 428 3442 575 
Q 3803 722 4122 1019 
L 4122 359 
Q 3791 134 3420 21 
Q 3050 -91 2638 -91 
Q 1578 -91 968 557 
Q 359 1206 359 2328 
Q 359 3453 968 4101 
Q 1578 4750 2638 4750 
Q 3056 4750 3426 4639 
Q 3797 4528 4122 4306 
z
" transform="scale(0.015625)"/>
       </defs>
       <use xlink:href="#DejaVuSans-41"/>
       <use xlink:href="#DejaVuSans-55" x="68.408203"/>
       <use xlink:href="#DejaVuSans-43" x="141.601562"/>
      </g>
     </g>
    </g>
    <g id="xtick_8">
     <g id="line2d_17">
      <g>
       <use xlink:href="#mab54c37809" x="781.772727" y="418.130526" style="stroke: #000000; stroke-width: 0.8"/>
      </g>
     </g>
     <g id="text_17">
      <!-- $Q_{local}$ -->
      <g transform="translate(754.822727 441.847089) scale(0.22 -0.22)">
       <defs>
        <path id="DejaVuSans-Oblique-51" d="M 2309 -84 
Q 2275 -88 2237 -89 
Q 2200 -91 2125 -91 
Q 1250 -91 756 411 
Q 263 913 263 1797 
Q 263 2319 452 2844 
Q 641 3369 978 3788 
Q 1369 4269 1858 4509 
Q 2347 4750 2938 4750 
Q 3794 4750 4287 4245 
Q 4781 3741 4781 2869 
Q 4781 1928 4265 1147 
Q 3750 366 2919 44 
L 3553 -825 
L 2847 -825 
L 2309 -84 
z
M 2919 4238 
Q 2400 4238 2003 3986 
Q 1606 3734 1313 3219 
Q 1125 2891 1026 2522 
Q 928 2153 928 1778 
Q 928 1128 1239 775 
Q 1550 422 2119 422 
Q 2631 422 3032 676 
Q 3434 931 3719 1434 
Q 3909 1772 4009 2142 
Q 4109 2513 4109 2881 
Q 4109 3528 3796 3883 
Q 3484 4238 2919 4238 
z
" transform="scale(0.015625)"/>
        <path id="DejaVuSans-Oblique-6c" d="M 1172 4863 
L 1747 4863 
L 800 0 
L 225 0 
L 1172 4863 
z
" transform="scale(0.015625)"/>
        <path id="DejaVuSans-Oblique-6f" d="M 1625 -91 
Q 1009 -91 651 289 
Q 294 669 294 1325 
Q 294 1706 417 2101 
Q 541 2497 738 2766 
Q 1047 3184 1428 3384 
Q 1809 3584 2291 3584 
Q 2888 3584 3255 3212 
Q 3622 2841 3622 2241 
Q 3622 1825 3500 1412 
Q 3378 1000 3181 728 
Q 2875 309 2494 109 
Q 2113 -91 1625 -91 
z
M 891 1344 
Q 891 869 1089 633 
Q 1288 397 1691 397 
Q 2269 397 2648 901 
Q 3028 1406 3028 2181 
Q 3028 2634 2825 2865 
Q 2622 3097 2228 3097 
Q 1903 3097 1650 2945 
Q 1397 2794 1197 2484 
Q 1050 2253 970 1956 
Q 891 1659 891 1344 
z
" transform="scale(0.015625)"/>
        <path id="DejaVuSans-Oblique-63" d="M 3431 3366 
L 3316 2797 
Q 3109 2947 2876 3022 
Q 2644 3097 2394 3097 
Q 2119 3097 1870 3000 
Q 1622 2903 1453 2725 
Q 1184 2453 1037 2087 
Q 891 1722 891 1331 
Q 891 859 1127 628 
Q 1363 397 1844 397 
Q 2081 397 2348 469 
Q 2616 541 2906 684 
L 2797 116 
Q 2547 13 2283 -39 
Q 2019 -91 1741 -91 
Q 1044 -91 669 257 
Q 294 606 294 1253 
Q 294 1797 489 2255 
Q 684 2713 1069 3078 
Q 1331 3328 1684 3456 
Q 2038 3584 2456 3584 
Q 2700 3584 2940 3529 
Q 3181 3475 3431 3366 
z
" transform="scale(0.015625)"/>
        <path id="DejaVuSans-Oblique-61" d="M 3438 1997 
L 3047 0 
L 2472 0 
L 2578 531 
Q 2325 219 2001 64 
Q 1678 -91 1281 -91 
Q 834 -91 548 182 
Q 263 456 263 884 
Q 263 1497 752 1853 
Q 1241 2209 2100 2209 
L 2900 2209 
L 2931 2363 
Q 2938 2388 2941 2417 
Q 2944 2447 2944 2509 
Q 2944 2788 2717 2942 
Q 2491 3097 2081 3097 
Q 1800 3097 1504 3025 
Q 1209 2953 897 2809 
L 997 3341 
Q 1322 3463 1633 3523 
Q 1944 3584 2234 3584 
Q 2853 3584 3176 3315 
Q 3500 3047 3500 2534 
Q 3500 2431 3484 2292 
Q 3469 2153 3438 1997 
z
M 2816 1759 
L 2241 1759 
Q 1534 1759 1195 1570 
Q 856 1381 856 984 
Q 856 709 1029 553 
Q 1203 397 1509 397 
Q 1978 397 2328 733 
Q 2678 1069 2791 1631 
L 2816 1759 
z
" transform="scale(0.015625)"/>
       </defs>
       <use xlink:href="#DejaVuSans-Oblique-51" transform="translate(0 0.78125)"/>
       <use xlink:href="#DejaVuSans-Oblique-6c" transform="translate(78.710938 -15.625) scale(0.7)"/>
       <use xlink:href="#DejaVuSans-Oblique-6f" transform="translate(98.15918 -15.625) scale(0.7)"/>
       <use xlink:href="#DejaVuSans-Oblique-63" transform="translate(140.986328 -15.625) scale(0.7)"/>
       <use xlink:href="#DejaVuSans-Oblique-61" transform="translate(179.472656 -15.625) scale(0.7)"/>
       <use xlink:href="#DejaVuSans-Oblique-6c" transform="translate(222.368164 -15.625) scale(0.7)"/>
      </g>
     </g>
    </g>
    <g id="xtick_9">
     <g id="line2d_18">
      <g>
       <use xlink:href="#mab54c37809" x="914.798792" y="418.130526" style="stroke: #000000; stroke-width: 0.8"/>
      </g>
     </g>
     <g id="text_18">
      <!-- $Q_{global}$ -->
      <g transform="translate(882.348792 441.630526) scale(0.22 -0.22)">
       <defs>
        <path id="DejaVuSans-Oblique-67" d="M 3816 3500 
L 3219 434 
Q 3047 -456 2561 -893 
Q 2075 -1331 1253 -1331 
Q 950 -1331 690 -1286 
Q 431 -1241 206 -1147 
L 313 -588 
Q 525 -725 762 -790 
Q 1000 -856 1269 -856 
Q 1816 -856 2167 -557 
Q 2519 -259 2631 300 
L 2681 563 
Q 2441 288 2122 144 
Q 1803 0 1434 0 
Q 903 0 598 351 
Q 294 703 294 1319 
Q 294 1803 478 2267 
Q 663 2731 997 3091 
Q 1219 3328 1514 3456 
Q 1809 3584 2131 3584 
Q 2484 3584 2746 3420 
Q 3009 3256 3138 2956 
L 3238 3500 
L 3816 3500 
z
M 2950 2216 
Q 2950 2641 2750 2872 
Q 2550 3103 2181 3103 
Q 1953 3103 1747 3012 
Q 1541 2922 1394 2759 
Q 1156 2491 1023 2127 
Q 891 1763 891 1375 
Q 891 944 1092 712 
Q 1294 481 1672 481 
Q 2219 481 2584 976 
Q 2950 1472 2950 2216 
z
" transform="scale(0.015625)"/>
        <path id="DejaVuSans-Oblique-62" d="M 3169 2138 
Q 3169 2591 2961 2847 
Q 2753 3103 2388 3103 
Q 2122 3103 1889 2973 
Q 1656 2844 1484 2597 
Q 1303 2338 1198 1995 
Q 1094 1653 1094 1313 
Q 1094 881 1298 636 
Q 1503 391 1863 391 
Q 2134 391 2365 517 
Q 2597 644 2772 891 
Q 2950 1147 3059 1487 
Q 3169 1828 3169 2138 
z
M 1381 2969 
Q 1594 3256 1914 3420 
Q 2234 3584 2584 3584 
Q 3122 3584 3439 3221 
Q 3756 2859 3756 2241 
Q 3756 1734 3570 1259 
Q 3384 784 3041 416 
Q 2816 172 2522 40 
Q 2228 -91 1906 -91 
Q 1566 -91 1316 65 
Q 1066 222 909 531 
L 806 0 
L 231 0 
L 1178 4863 
L 1753 4863 
L 1381 2969 
z
" transform="scale(0.015625)"/>
       </defs>
       <use xlink:href="#DejaVuSans-Oblique-51" transform="translate(0 0.78125)"/>
       <use xlink:href="#DejaVuSans-Oblique-67" transform="translate(78.710938 -15.625) scale(0.7)"/>
       <use xlink:href="#DejaVuSans-Oblique-6c" transform="translate(123.144531 -15.625) scale(0.7)"/>
       <use xlink:href="#DejaVuSans-Oblique-6f" transform="translate(142.592773 -15.625) scale(0.7)"/>
       <use xlink:href="#DejaVuSans-Oblique-62" transform="translate(185.419922 -15.625) scale(0.7)"/>
       <use xlink:href="#DejaVuSans-Oblique-61" transform="translate(229.853516 -15.625) scale(0.7)"/>
       <use xlink:href="#DejaVuSans-Oblique-6c" transform="translate(272.749023 -15.625) scale(0.7)"/>
      </g>
     </g>
    </g>
   </g>
   <g id="matplotlib.axis_4">
    <g id="ytick_6">
     <g id="line2d_19">
      <g>
       <use xlink:href="#ma65da63a1e" x="591.545455" y="418.130526" style="stroke: #000000; stroke-width: 0.8"/>
      </g>
     </g>
     <g id="text_19">
      <!-- 0.0 -->
      <g transform="translate(549.55858 426.488808) scale(0.22 -0.22)">
       <use xlink:href="#DejaVuSans-30"/>
       <use xlink:href="#DejaVuSans-2e" x="63.623047"/>
       <use xlink:href="#DejaVuSans-30" x="95.410156"/>
      </g>
     </g>
    </g>
    <g id="ytick_7">
     <g id="line2d_20">
      <g>
       <use xlink:href="#ma65da63a1e" x="591.545455" y="352.027816" style="stroke: #000000; stroke-width: 0.8"/>
      </g>
     </g>
     <g id="text_20">
      <!-- 0.2 -->
      <g transform="translate(549.55858 360.386098) scale(0.22 -0.22)">
       <use xlink:href="#DejaVuSans-30"/>
       <use xlink:href="#DejaVuSans-2e" x="63.623047"/>
       <use xlink:href="#DejaVuSans-32" x="95.410156"/>
      </g>
     </g>
    </g>
    <g id="ytick_8">
     <g id="line2d_21">
      <g>
       <use xlink:href="#ma65da63a1e" x="591.545455" y="285.925107" style="stroke: #000000; stroke-width: 0.8"/>
      </g>
     </g>
     <g id="text_21">
      <!-- 0.4 -->
      <g transform="translate(549.55858 294.283388) scale(0.22 -0.22)">
       <use xlink:href="#DejaVuSans-30"/>
       <use xlink:href="#DejaVuSans-2e" x="63.623047"/>
       <use xlink:href="#DejaVuSans-34" x="95.410156"/>
      </g>
     </g>
    </g>
    <g id="ytick_9">
     <g id="line2d_22">
      <g>
       <use xlink:href="#ma65da63a1e" x="591.545455" y="219.822397" style="stroke: #000000; stroke-width: 0.8"/>
      </g>
     </g>
     <g id="text_22">
      <!-- 0.6 -->
      <g transform="translate(549.55858 228.180678) scale(0.22 -0.22)">
       <use xlink:href="#DejaVuSans-30"/>
       <use xlink:href="#DejaVuSans-2e" x="63.623047"/>
       <use xlink:href="#DejaVuSans-36" x="95.410156"/>
      </g>
     </g>
    </g>
    <g id="text_23">
     <!-- Metric Value -->
     <g transform="translate(540.983267 354.727919) rotate(-90) scale(0.22 -0.22)">
      <defs>
       <path id="DejaVuSans-4d" d="M 628 4666 
L 1569 4666 
L 2759 1491 
L 3956 4666 
L 4897 4666 
L 4897 0 
L 4281 0 
L 4281 4097 
L 3078 897 
L 2444 897 
L 1241 4097 
L 1241 0 
L 628 0 
L 628 4666 
z
" transform="scale(0.015625)"/>
       <path id="DejaVuSans-65" d="M 3597 1894 
L 3597 1613 
L 953 1613 
Q 991 1019 1311 708 
Q 1631 397 2203 397 
Q 2534 397 2845 478 
Q 3156 559 3463 722 
L 3463 178 
Q 3153 47 2828 -22 
Q 2503 -91 2169 -91 
Q 1331 -91 842 396 
Q 353 884 353 1716 
Q 353 2575 817 3079 
Q 1281 3584 2069 3584 
Q 2775 3584 3186 3129 
Q 3597 2675 3597 1894 
z
M 3022 2063 
Q 3016 2534 2758 2815 
Q 2500 3097 2075 3097 
Q 1594 3097 1305 2825 
Q 1016 2553 972 2059 
L 3022 2063 
z
" transform="scale(0.015625)"/>
       <path id="DejaVuSans-74" d="M 1172 4494 
L 1172 3500 
L 2356 3500 
L 2356 3053 
L 1172 3053 
L 1172 1153 
Q 1172 725 1289 603 
Q 1406 481 1766 481 
L 2356 481 
L 2356 0 
L 1766 0 
Q 1100 0 847 248 
Q 594 497 594 1153 
L 594 3053 
L 172 3053 
L 172 3500 
L 594 3500 
L 594 4494 
L 1172 4494 
z
" transform="scale(0.015625)"/>
       <path id="DejaVuSans-72" d="M 2631 2963 
Q 2534 3019 2420 3045 
Q 2306 3072 2169 3072 
Q 1681 3072 1420 2755 
Q 1159 2438 1159 1844 
L 1159 0 
L 581 0 
L 581 3500 
L 1159 3500 
L 1159 2956 
Q 1341 3275 1631 3429 
Q 1922 3584 2338 3584 
Q 2397 3584 2469 3576 
Q 2541 3569 2628 3553 
L 2631 2963 
z
" transform="scale(0.015625)"/>
       <path id="DejaVuSans-69" d="M 603 3500 
L 1178 3500 
L 1178 0 
L 603 0 
L 603 3500 
z
M 603 4863 
L 1178 4863 
L 1178 4134 
L 603 4134 
L 603 4863 
z
" transform="scale(0.015625)"/>
       <path id="DejaVuSans-63" d="M 3122 3366 
L 3122 2828 
Q 2878 2963 2633 3030 
Q 2388 3097 2138 3097 
Q 1578 3097 1268 2742 
Q 959 2388 959 1747 
Q 959 1106 1268 751 
Q 1578 397 2138 397 
Q 2388 397 2633 464 
Q 2878 531 3122 666 
L 3122 134 
Q 2881 22 2623 -34 
Q 2366 -91 2075 -91 
Q 1284 -91 818 406 
Q 353 903 353 1747 
Q 353 2603 823 3093 
Q 1294 3584 2113 3584 
Q 2378 3584 2631 3529 
Q 2884 3475 3122 3366 
z
" transform="scale(0.015625)"/>
       <path id="DejaVuSans-20" transform="scale(0.015625)"/>
       <path id="DejaVuSans-56" d="M 1831 0 
L 50 4666 
L 709 4666 
L 2188 738 
L 3669 4666 
L 4325 4666 
L 2547 0 
L 1831 0 
z
" transform="scale(0.015625)"/>
       <path id="DejaVuSans-61" d="M 2194 1759 
Q 1497 1759 1228 1600 
Q 959 1441 959 1056 
Q 959 750 1161 570 
Q 1363 391 1709 391 
Q 2188 391 2477 730 
Q 2766 1069 2766 1631 
L 2766 1759 
L 2194 1759 
z
M 3341 1997 
L 3341 0 
L 2766 0 
L 2766 531 
Q 2569 213 2275 61 
Q 1981 -91 1556 -91 
Q 1019 -91 701 211 
Q 384 513 384 1019 
Q 384 1609 779 1909 
Q 1175 2209 1959 2209 
L 2766 2209 
L 2766 2266 
Q 2766 2663 2505 2880 
Q 2244 3097 1772 3097 
Q 1472 3097 1187 3025 
Q 903 2953 641 2809 
L 641 3341 
Q 956 3463 1253 3523 
Q 1550 3584 1831 3584 
Q 2591 3584 2966 3190 
Q 3341 2797 3341 1997 
z
" transform="scale(0.015625)"/>
       <path id="DejaVuSans-6c" d="M 603 4863 
L 1178 4863 
L 1178 0 
L 603 0 
L 603 4863 
z
" transform="scale(0.015625)"/>
       <path id="DejaVuSans-75" d="M 544 1381 
L 544 3500 
L 1119 3500 
L 1119 1403 
Q 1119 906 1312 657 
Q 1506 409 1894 409 
Q 2359 409 2629 706 
Q 2900 1003 2900 1516 
L 2900 3500 
L 3475 3500 
L 3475 0 
L 2900 0 
L 2900 538 
Q 2691 219 2414 64 
Q 2138 -91 1772 -91 
Q 1169 -91 856 284 
Q 544 659 544 1381 
z
M 1991 3584 
L 1991 3584 
z
" transform="scale(0.015625)"/>
      </defs>
      <use xlink:href="#DejaVuSans-4d"/>
      <use xlink:href="#DejaVuSans-65" x="86.279297"/>
      <use xlink:href="#DejaVuSans-74" x="147.802734"/>
      <use xlink:href="#DejaVuSans-72" x="187.011719"/>
      <use xlink:href="#DejaVuSans-69" x="228.125"/>
      <use xlink:href="#DejaVuSans-63" x="255.908203"/>
      <use xlink:href="#DejaVuSans-20" x="310.888672"/>
      <use xlink:href="#DejaVuSans-56" x="342.675781"/>
      <use xlink:href="#DejaVuSans-61" x="403.333984"/>
      <use xlink:href="#DejaVuSans-6c" x="464.613281"/>
      <use xlink:href="#DejaVuSans-75" x="492.396484"/>
      <use xlink:href="#DejaVuSans-65" x="555.775391"/>
     </g>
    </g>
   </g>
   <g id="patch_20">
    <path d="M 591.545455 418.130526 
L 591.545455 155.52 
" style="fill: none; stroke: #000000; stroke-width: 0.8; stroke-linejoin: miter; stroke-linecap: square"/>
   </g>
   <g id="patch_21">
    <path d="M 972 418.130526 
L 972 155.52 
" style="fill: none; stroke: #000000; stroke-width: 0.8; stroke-linejoin: miter; stroke-linecap: square"/>
   </g>
   <g id="patch_22">
    <path d="M 591.545455 418.130526 
L 972 418.130526 
" style="fill: none; stroke: #000000; stroke-width: 0.8; stroke-linejoin: miter; stroke-linecap: square"/>
   </g>
   <g id="patch_23">
    <path d="M 591.545455 155.52 
L 972 155.52 
" style="fill: none; stroke: #000000; stroke-width: 0.8; stroke-linejoin: miter; stroke-linecap: square"/>
   </g>
   <g id="text_24">
    <!-- b -->
    <g transform="translate(544.871761 137.404046) scale(0.28 -0.28)">
     <defs>
      <path id="DejaVuSans-Bold-62" d="M 2400 722 
Q 2759 722 2948 984 
Q 3138 1247 3138 1747 
Q 3138 2247 2948 2509 
Q 2759 2772 2400 2772 
Q 2041 2772 1848 2508 
Q 1656 2244 1656 1747 
Q 1656 1250 1848 986 
Q 2041 722 2400 722 
z
M 1656 2988 
Q 1888 3294 2169 3439 
Q 2450 3584 2816 3584 
Q 3463 3584 3878 3070 
Q 4294 2556 4294 1747 
Q 4294 938 3878 423 
Q 3463 -91 2816 -91 
Q 2450 -91 2169 54 
Q 1888 200 1656 506 
L 1656 0 
L 538 0 
L 538 4863 
L 1656 4863 
L 1656 2988 
z
" transform="scale(0.015625)"/>
     </defs>
     <use xlink:href="#DejaVuSans-Bold-62"/>
    </g>
   </g>
   <g id="text_25">
    <!-- Metrics -->
    <g transform="translate(734.584759 149.52) scale(0.26 -0.26)">
     <defs>
      <path id="DejaVuSans-73" d="M 2834 3397 
L 2834 2853 
Q 2591 2978 2328 3040 
Q 2066 3103 1784 3103 
Q 1356 3103 1142 2972 
Q 928 2841 928 2578 
Q 928 2378 1081 2264 
Q 1234 2150 1697 2047 
L 1894 2003 
Q 2506 1872 2764 1633 
Q 3022 1394 3022 966 
Q 3022 478 2636 193 
Q 2250 -91 1575 -91 
Q 1294 -91 989 -36 
Q 684 19 347 128 
L 347 722 
Q 666 556 975 473 
Q 1284 391 1588 391 
Q 1994 391 2212 530 
Q 2431 669 2431 922 
Q 2431 1156 2273 1281 
Q 2116 1406 1581 1522 
L 1381 1569 
Q 847 1681 609 1914 
Q 372 2147 372 2553 
Q 372 3047 722 3315 
Q 1072 3584 1716 3584 
Q 2034 3584 2315 3537 
Q 2597 3491 2834 3397 
z
" transform="scale(0.015625)"/>
     </defs>
     <use xlink:href="#DejaVuSans-4d"/>
     <use xlink:href="#DejaVuSans-65" x="86.279297"/>
     <use xlink:href="#DejaVuSans-74" x="147.802734"/>
     <use xlink:href="#DejaVuSans-72" x="187.011719"/>
     <use xlink:href="#DejaVuSans-69" x="228.125"/>
     <use xlink:href="#DejaVuSans-63" x="255.908203"/>
     <use xlink:href="#DejaVuSans-73" x="310.888672"/>
    </g>
   </g>
  </g>
  <g id="axes_3">
   <g id="patch_24">
    <path d="M 135 785.785263 
L 515.454545 785.785263 
L 515.454545 523.174737 
L 135 523.174737 
z
" style="fill: #ffffff"/>
   </g>
   <g id="matplotlib.axis_5">
    <g id="xtick_10">
     <g id="line2d_23">
      <g>
       <use xlink:href="#mab54c37809" x="137.882231" y="785.785263" style="stroke: #000000; stroke-width: 0.8"/>
      </g>
     </g>
     <g id="text_26">
      <!-- 0 -->
      <g transform="translate(130.883481 809.501826) scale(0.22 -0.22)">
       <use xlink:href="#DejaVuSans-30"/>
      </g>
     </g>
    </g>
    <g id="xtick_11">
     <g id="line2d_24">
      <g>
       <use xlink:href="#mab54c37809" x="281.993802" y="785.785263" style="stroke: #000000; stroke-width: 0.8"/>
      </g>
     </g>
     <g id="text_27">
      <!-- 20 -->
      <g transform="translate(267.996302 809.501826) scale(0.22 -0.22)">
       <use xlink:href="#DejaVuSans-32"/>
       <use xlink:href="#DejaVuSans-30" x="63.623047"/>
      </g>
     </g>
    </g>
    <g id="xtick_12">
     <g id="line2d_25">
      <g>
       <use xlink:href="#mab54c37809" x="426.105372" y="785.785263" style="stroke: #000000; stroke-width: 0.8"/>
      </g>
     </g>
     <g id="text_28">
      <!-- 40 -->
      <g transform="translate(412.107872 809.501826) scale(0.22 -0.22)">
       <use xlink:href="#DejaVuSans-34"/>
       <use xlink:href="#DejaVuSans-30" x="63.623047"/>
      </g>
     </g>
    </g>
    <g id="text_29">
     <!-- k -->
     <g transform="translate(318.278523 836.313388) scale(0.24 -0.24)">
      <use xlink:href="#DejaVuSans-6b"/>
     </g>
    </g>
   </g>
   <g id="matplotlib.axis_6">
    <g id="ytick_10">
     <g id="line2d_26">
      <g>
       <use xlink:href="#ma65da63a1e" x="135" y="742.266266" style="stroke: #000000; stroke-width: 0.8"/>
      </g>
     </g>
     <g id="text_30">
      <!-- 0.80 -->
      <g transform="translate(79.015625 750.624547) scale(0.22 -0.22)">
       <use xlink:href="#DejaVuSans-30"/>
       <use xlink:href="#DejaVuSans-2e" x="63.623047"/>
       <use xlink:href="#DejaVuSans-38" x="95.410156"/>
       <use xlink:href="#DejaVuSans-30" x="159.033203"/>
      </g>
     </g>
    </g>
    <g id="ytick_11">
     <g id="line2d_27">
      <g>
       <use xlink:href="#ma65da63a1e" x="135" y="688.455062" style="stroke: #000000; stroke-width: 0.8"/>
      </g>
     </g>
     <g id="text_31">
      <!-- 0.85 -->
      <g transform="translate(79.015625 696.813343) scale(0.22 -0.22)">
       <use xlink:href="#DejaVuSans-30"/>
       <use xlink:href="#DejaVuSans-2e" x="63.623047"/>
       <use xlink:href="#DejaVuSans-38" x="95.410156"/>
       <use xlink:href="#DejaVuSans-35" x="159.033203"/>
      </g>
     </g>
    </g>
    <g id="ytick_12">
     <g id="line2d_28">
      <g>
       <use xlink:href="#ma65da63a1e" x="135" y="634.643858" style="stroke: #000000; stroke-width: 0.8"/>
      </g>
     </g>
     <g id="text_32">
      <!-- 0.90 -->
      <g transform="translate(79.015625 643.002139) scale(0.22 -0.22)">
       <defs>
        <path id="DejaVuSans-39" d="M 703 97 
L 703 672 
Q 941 559 1184 500 
Q 1428 441 1663 441 
Q 2288 441 2617 861 
Q 2947 1281 2994 2138 
Q 2813 1869 2534 1725 
Q 2256 1581 1919 1581 
Q 1219 1581 811 2004 
Q 403 2428 403 3163 
Q 403 3881 828 4315 
Q 1253 4750 1959 4750 
Q 2769 4750 3195 4129 
Q 3622 3509 3622 2328 
Q 3622 1225 3098 567 
Q 2575 -91 1691 -91 
Q 1453 -91 1209 -44 
Q 966 3 703 97 
z
M 1959 2075 
Q 2384 2075 2632 2365 
Q 2881 2656 2881 3163 
Q 2881 3666 2632 3958 
Q 2384 4250 1959 4250 
Q 1534 4250 1286 3958 
Q 1038 3666 1038 3163 
Q 1038 2656 1286 2365 
Q 1534 2075 1959 2075 
z
" transform="scale(0.015625)"/>
       </defs>
       <use xlink:href="#DejaVuSans-30"/>
       <use xlink:href="#DejaVuSans-2e" x="63.623047"/>
       <use xlink:href="#DejaVuSans-39" x="95.410156"/>
       <use xlink:href="#DejaVuSans-30" x="159.033203"/>
      </g>
     </g>
    </g>
    <g id="ytick_13">
     <g id="line2d_29">
      <g>
       <use xlink:href="#ma65da63a1e" x="135" y="580.832654" style="stroke: #000000; stroke-width: 0.8"/>
      </g>
     </g>
     <g id="text_33">
      <!-- 0.95 -->
      <g transform="translate(79.015625 589.190935) scale(0.22 -0.22)">
       <use xlink:href="#DejaVuSans-30"/>
       <use xlink:href="#DejaVuSans-2e" x="63.623047"/>
       <use xlink:href="#DejaVuSans-39" x="95.410156"/>
       <use xlink:href="#DejaVuSans-35" x="159.033203"/>
      </g>
     </g>
    </g>
    <g id="ytick_14">
     <g id="line2d_30">
      <g>
       <use xlink:href="#ma65da63a1e" x="135" y="527.02145" style="stroke: #000000; stroke-width: 0.8"/>
      </g>
     </g>
     <g id="text_34">
      <!-- 1.00 -->
      <g transform="translate(79.015625 535.379731) scale(0.22 -0.22)">
       <use xlink:href="#DejaVuSans-31"/>
       <use xlink:href="#DejaVuSans-2e" x="63.623047"/>
       <use xlink:href="#DejaVuSans-30" x="95.410156"/>
       <use xlink:href="#DejaVuSans-30" x="159.033203"/>
      </g>
     </g>
    </g>
    <g id="text_35">
     <!-- Metric Value -->
     <g transform="translate(70.024375 728.555625) rotate(-90) scale(0.24 -0.24)">
      <use xlink:href="#DejaVuSans-4d"/>
      <use xlink:href="#DejaVuSans-65" x="86.279297"/>
      <use xlink:href="#DejaVuSans-74" x="147.802734"/>
      <use xlink:href="#DejaVuSans-72" x="187.011719"/>
      <use xlink:href="#DejaVuSans-69" x="228.125"/>
      <use xlink:href="#DejaVuSans-63" x="255.908203"/>
      <use xlink:href="#DejaVuSans-20" x="310.888672"/>
      <use xlink:href="#DejaVuSans-56" x="342.675781"/>
      <use xlink:href="#DejaVuSans-61" x="403.333984"/>
      <use xlink:href="#DejaVuSans-6c" x="464.613281"/>
      <use xlink:href="#DejaVuSans-75" x="492.396484"/>
      <use xlink:href="#DejaVuSans-65" x="555.775391"/>
     </g>
    </g>
   </g>
   <g id="line2d_31">
    <path d="M 152.293388 751.632205 
L 173.910124 758.323162 
L 209.938017 763.946548 
L 281.993802 769.560448 
L 498.161157 773.848421 
" clip-path="url(#p9ae772678a)" style="fill: none; stroke: #1f77b4; stroke-width: 1.5; stroke-linecap: square"/>
    <g clip-path="url(#p9ae772678a)">
     <use xlink:href="#mf848069504" x="152.293388" y="751.632205" style="fill: #1f77b4; stroke: #1f77b4"/>
     <use xlink:href="#mf848069504" x="173.910124" y="758.323162" style="fill: #1f77b4; stroke: #1f77b4"/>
     <use xlink:href="#mf848069504" x="209.938017" y="763.946548" style="fill: #1f77b4; stroke: #1f77b4"/>
     <use xlink:href="#mf848069504" x="281.993802" y="769.560448" style="fill: #1f77b4; stroke: #1f77b4"/>
     <use xlink:href="#mf848069504" x="498.161157" y="773.848421" style="fill: #1f77b4; stroke: #1f77b4"/>
    </g>
   </g>
   <g id="line2d_32">
    <path d="M 152.293388 535.111579 
L 173.910124 543.337485 
L 209.938017 560.213966 
L 281.993802 581.406822 
L 498.161157 646.427696 
" clip-path="url(#p9ae772678a)" style="fill: none; stroke: #ff7f0e; stroke-width: 1.5; stroke-linecap: square"/>
    <g clip-path="url(#p9ae772678a)">
     <use xlink:href="#m1dc146b4ee" x="152.293388" y="535.111579" style="fill: #ff7f0e; stroke: #ff7f0e"/>
     <use xlink:href="#m1dc146b4ee" x="173.910124" y="543.337485" style="fill: #ff7f0e; stroke: #ff7f0e"/>
     <use xlink:href="#m1dc146b4ee" x="209.938017" y="560.213966" style="fill: #ff7f0e; stroke: #ff7f0e"/>
     <use xlink:href="#m1dc146b4ee" x="281.993802" y="581.406822" style="fill: #ff7f0e; stroke: #ff7f0e"/>
     <use xlink:href="#m1dc146b4ee" x="498.161157" y="646.427696" style="fill: #ff7f0e; stroke: #ff7f0e"/>
    </g>
   </g>
   <g id="line2d_33">
    <path d="M 152.293388 549.562431 
L 173.910124 553.908739 
L 209.938017 567.143256 
L 281.993802 589.126075 
L 498.161157 664.112558 
" clip-path="url(#p9ae772678a)" style="fill: none; stroke: #2ca02c; stroke-width: 1.5; stroke-linecap: square"/>
    <g clip-path="url(#p9ae772678a)">
     <use xlink:href="#m0a7b9672f0" x="152.293388" y="549.562431" style="fill: #2ca02c; stroke: #2ca02c"/>
     <use xlink:href="#m0a7b9672f0" x="173.910124" y="553.908739" style="fill: #2ca02c; stroke: #2ca02c"/>
     <use xlink:href="#m0a7b9672f0" x="209.938017" y="567.143256" style="fill: #2ca02c; stroke: #2ca02c"/>
     <use xlink:href="#m0a7b9672f0" x="281.993802" y="589.126075" style="fill: #2ca02c; stroke: #2ca02c"/>
     <use xlink:href="#m0a7b9672f0" x="498.161157" y="664.112558" style="fill: #2ca02c; stroke: #2ca02c"/>
    </g>
   </g>
   <g id="line2d_34">
    <path d="M 152.293388 538.930576 
L 173.910124 545.217178 
L 209.938017 557.750194 
L 281.993802 583.001236 
L 498.161157 656.314618 
" clip-path="url(#p9ae772678a)" style="fill: none; stroke: #d62728; stroke-width: 1.5; stroke-linecap: square"/>
    <g clip-path="url(#p9ae772678a)">
     <use xlink:href="#m7d4d095a22" x="152.293388" y="538.930576" style="fill: #d62728; stroke: #d62728"/>
     <use xlink:href="#m7d4d095a22" x="173.910124" y="545.217178" style="fill: #d62728; stroke: #d62728"/>
     <use xlink:href="#m7d4d095a22" x="209.938017" y="557.750194" style="fill: #d62728; stroke: #d62728"/>
     <use xlink:href="#m7d4d095a22" x="281.993802" y="583.001236" style="fill: #d62728; stroke: #d62728"/>
     <use xlink:href="#m7d4d095a22" x="498.161157" y="656.314618" style="fill: #d62728; stroke: #d62728"/>
    </g>
   </g>
   <g id="patch_25">
    <path d="M 135 785.785263 
L 135 523.174737 
" style="fill: none; stroke: #000000; stroke-width: 0.8; stroke-linejoin: miter; stroke-linecap: square"/>
   </g>
   <g id="patch_26">
    <path d="M 515.454545 785.785263 
L 515.454545 523.174737 
" style="fill: none; stroke: #000000; stroke-width: 0.8; stroke-linejoin: miter; stroke-linecap: square"/>
   </g>
   <g id="patch_27">
    <path d="M 135 785.785263 
L 515.454545 785.785263 
" style="fill: none; stroke: #000000; stroke-width: 0.8; stroke-linejoin: miter; stroke-linecap: square"/>
   </g>
   <g id="patch_28">
    <path d="M 135 523.174737 
L 515.454545 523.174737 
" style="fill: none; stroke: #000000; stroke-width: 0.8; stroke-linejoin: miter; stroke-linecap: square"/>
   </g>
   <g id="text_36">
    <!-- c -->
    <g transform="translate(91.769432 505.058783) scale(0.28 -0.28)">
     <defs>
      <path id="DejaVuSans-Bold-63" d="M 3366 3391 
L 3366 2478 
Q 3138 2634 2908 2709 
Q 2678 2784 2431 2784 
Q 1963 2784 1702 2511 
Q 1441 2238 1441 1747 
Q 1441 1256 1702 982 
Q 1963 709 2431 709 
Q 2694 709 2930 787 
Q 3166 866 3366 1019 
L 3366 103 
Q 3103 6 2833 -42 
Q 2563 -91 2291 -91 
Q 1344 -91 809 395 
Q 275 881 275 1747 
Q 275 2613 809 3098 
Q 1344 3584 2291 3584 
Q 2566 3584 2833 3536 
Q 3100 3488 3366 3391 
z
" transform="scale(0.015625)"/>
     </defs>
     <use xlink:href="#DejaVuSans-Bold-63"/>
    </g>
   </g>
   <g id="text_37">
    <!-- Trustworthiness -->
    <g transform="translate(230.950398 517.174737) scale(0.24 -0.24)">
     <defs>
      <path id="DejaVuSans-54" d="M -19 4666 
L 3928 4666 
L 3928 4134 
L 2272 4134 
L 2272 0 
L 1638 0 
L 1638 4134 
L -19 4134 
L -19 4666 
z
" transform="scale(0.015625)"/>
      <path id="DejaVuSans-77" d="M 269 3500 
L 844 3500 
L 1563 769 
L 2278 3500 
L 2956 3500 
L 3675 769 
L 4391 3500 
L 4966 3500 
L 4050 0 
L 3372 0 
L 2619 2869 
L 1863 0 
L 1184 0 
L 269 3500 
z
" transform="scale(0.015625)"/>
      <path id="DejaVuSans-6f" d="M 1959 3097 
Q 1497 3097 1228 2736 
Q 959 2375 959 1747 
Q 959 1119 1226 758 
Q 1494 397 1959 397 
Q 2419 397 2687 759 
Q 2956 1122 2956 1747 
Q 2956 2369 2687 2733 
Q 2419 3097 1959 3097 
z
M 1959 3584 
Q 2709 3584 3137 3096 
Q 3566 2609 3566 1747 
Q 3566 888 3137 398 
Q 2709 -91 1959 -91 
Q 1206 -91 779 398 
Q 353 888 353 1747 
Q 353 2609 779 3096 
Q 1206 3584 1959 3584 
z
" transform="scale(0.015625)"/>
      <path id="DejaVuSans-68" d="M 3513 2113 
L 3513 0 
L 2938 0 
L 2938 2094 
Q 2938 2591 2744 2837 
Q 2550 3084 2163 3084 
Q 1697 3084 1428 2787 
Q 1159 2491 1159 1978 
L 1159 0 
L 581 0 
L 581 4863 
L 1159 4863 
L 1159 2956 
Q 1366 3272 1645 3428 
Q 1925 3584 2291 3584 
Q 2894 3584 3203 3211 
Q 3513 2838 3513 2113 
z
" transform="scale(0.015625)"/>
      <path id="DejaVuSans-6e" d="M 3513 2113 
L 3513 0 
L 2938 0 
L 2938 2094 
Q 2938 2591 2744 2837 
Q 2550 3084 2163 3084 
Q 1697 3084 1428 2787 
Q 1159 2491 1159 1978 
L 1159 0 
L 581 0 
L 581 3500 
L 1159 3500 
L 1159 2956 
Q 1366 3272 1645 3428 
Q 1925 3584 2291 3584 
Q 2894 3584 3203 3211 
Q 3513 2838 3513 2113 
z
" transform="scale(0.015625)"/>
     </defs>
     <use xlink:href="#DejaVuSans-54"/>
     <use xlink:href="#DejaVuSans-72" x="46.333984"/>
     <use xlink:href="#DejaVuSans-75" x="87.447266"/>
     <use xlink:href="#DejaVuSans-73" x="150.826172"/>
     <use xlink:href="#DejaVuSans-74" x="202.925781"/>
     <use xlink:href="#DejaVuSans-77" x="242.134766"/>
     <use xlink:href="#DejaVuSans-6f" x="323.921875"/>
     <use xlink:href="#DejaVuSans-72" x="385.103516"/>
     <use xlink:href="#DejaVuSans-74" x="426.216797"/>
     <use xlink:href="#DejaVuSans-68" x="465.425781"/>
     <use xlink:href="#DejaVuSans-69" x="528.804688"/>
     <use xlink:href="#DejaVuSans-6e" x="556.587891"/>
     <use xlink:href="#DejaVuSans-65" x="619.966797"/>
     <use xlink:href="#DejaVuSans-73" x="681.490234"/>
     <use xlink:href="#DejaVuSans-73" x="733.589844"/>
    </g>
   </g>
  </g>
  <g id="axes_4">
   <g id="patch_29">
    <path d="M 591.545455 785.785263 
L 972 785.785263 
L 972 523.174737 
L 591.545455 523.174737 
z
" style="fill: #ffffff"/>
   </g>
   <g id="matplotlib.axis_7">
    <g id="xtick_13">
     <g id="line2d_35">
      <g>
       <use xlink:href="#mab54c37809" x="594.427686" y="785.785263" style="stroke: #000000; stroke-width: 0.8"/>
      </g>
     </g>
     <g id="text_38">
      <!-- 0 -->
      <g transform="translate(587.428936 809.501826) scale(0.22 -0.22)">
       <use xlink:href="#DejaVuSans-30"/>
      </g>
     </g>
    </g>
    <g id="xtick_14">
     <g id="line2d_36">
      <g>
       <use xlink:href="#mab54c37809" x="738.539256" y="785.785263" style="stroke: #000000; stroke-width: 0.8"/>
      </g>
     </g>
     <g id="text_39">
      <!-- 20 -->
      <g transform="translate(724.541756 809.501826) scale(0.22 -0.22)">
       <use xlink:href="#DejaVuSans-32"/>
       <use xlink:href="#DejaVuSans-30" x="63.623047"/>
      </g>
     </g>
    </g>
    <g id="xtick_15">
     <g id="line2d_37">
      <g>
       <use xlink:href="#mab54c37809" x="882.650826" y="785.785263" style="stroke: #000000; stroke-width: 0.8"/>
      </g>
     </g>
     <g id="text_40">
      <!-- 40 -->
      <g transform="translate(868.653326 809.501826) scale(0.22 -0.22)">
       <use xlink:href="#DejaVuSans-34"/>
       <use xlink:href="#DejaVuSans-30" x="63.623047"/>
      </g>
     </g>
    </g>
    <g id="text_41">
     <!-- k -->
     <g transform="translate(774.823977 836.313388) scale(0.24 -0.24)">
      <use xlink:href="#DejaVuSans-6b"/>
     </g>
    </g>
   </g>
   <g id="matplotlib.axis_8">
    <g id="ytick_15">
     <g id="line2d_38">
      <g>
       <use xlink:href="#ma65da63a1e" x="591.545455" y="728.661799" style="stroke: #000000; stroke-width: 0.8"/>
      </g>
     </g>
     <g id="text_42">
      <!-- 0.8 -->
      <g transform="translate(549.55858 737.020081) scale(0.22 -0.22)">
       <use xlink:href="#DejaVuSans-30"/>
       <use xlink:href="#DejaVuSans-2e" x="63.623047"/>
       <use xlink:href="#DejaVuSans-38" x="95.410156"/>
      </g>
     </g>
    </g>
    <g id="ytick_16">
     <g id="line2d_39">
      <g>
       <use xlink:href="#ma65da63a1e" x="591.545455" y="624.833461" style="stroke: #000000; stroke-width: 0.8"/>
      </g>
     </g>
     <g id="text_43">
      <!-- 0.9 -->
      <g transform="translate(549.55858 633.191743) scale(0.22 -0.22)">
       <use xlink:href="#DejaVuSans-30"/>
       <use xlink:href="#DejaVuSans-2e" x="63.623047"/>
       <use xlink:href="#DejaVuSans-39" x="95.410156"/>
      </g>
     </g>
    </g>
   </g>
   <g id="line2d_40">
    <path d="M 608.838843 581.559412 
L 630.455579 603.764228 
L 666.483471 622.591998 
L 738.539256 640.041341 
L 954.706612 657.096682 
" clip-path="url(#p1968d0b52d)" style="fill: none; stroke: #1f77b4; stroke-width: 1.5; stroke-linecap: square"/>
    <g clip-path="url(#p1968d0b52d)">
     <use xlink:href="#mf848069504" x="608.838843" y="581.559412" style="fill: #1f77b4; stroke: #1f77b4"/>
     <use xlink:href="#mf848069504" x="630.455579" y="603.764228" style="fill: #1f77b4; stroke: #1f77b4"/>
     <use xlink:href="#mf848069504" x="666.483471" y="622.591998" style="fill: #1f77b4; stroke: #1f77b4"/>
     <use xlink:href="#mf848069504" x="738.539256" y="640.041341" style="fill: #1f77b4; stroke: #1f77b4"/>
     <use xlink:href="#mf848069504" x="954.706612" y="657.096682" style="fill: #1f77b4; stroke: #1f77b4"/>
    </g>
   </g>
   <g id="line2d_41">
    <path d="M 608.838843 536.78778 
L 630.455579 550.122002 
L 666.483471 565.854766 
L 738.539256 586.355545 
L 954.706612 623.271184 
" clip-path="url(#p1968d0b52d)" style="fill: none; stroke: #ff7f0e; stroke-width: 1.5; stroke-linecap: square"/>
    <g clip-path="url(#p1968d0b52d)">
     <use xlink:href="#m1dc146b4ee" x="608.838843" y="536.78778" style="fill: #ff7f0e; stroke: #ff7f0e"/>
     <use xlink:href="#m1dc146b4ee" x="630.455579" y="550.122002" style="fill: #ff7f0e; stroke: #ff7f0e"/>
     <use xlink:href="#m1dc146b4ee" x="666.483471" y="565.854766" style="fill: #ff7f0e; stroke: #ff7f0e"/>
     <use xlink:href="#m1dc146b4ee" x="738.539256" y="586.355545" style="fill: #ff7f0e; stroke: #ff7f0e"/>
     <use xlink:href="#m1dc146b4ee" x="954.706612" y="623.271184" style="fill: #ff7f0e; stroke: #ff7f0e"/>
    </g>
   </g>
   <g id="line2d_42">
    <path d="M 608.838843 535.111579 
L 630.455579 546.009033 
L 666.483471 562.77547 
L 738.539256 590.940863 
L 954.706612 639.468803 
" clip-path="url(#p1968d0b52d)" style="fill: none; stroke: #2ca02c; stroke-width: 1.5; stroke-linecap: square"/>
    <g clip-path="url(#p1968d0b52d)">
     <use xlink:href="#m0a7b9672f0" x="608.838843" y="535.111579" style="fill: #2ca02c; stroke: #2ca02c"/>
     <use xlink:href="#m0a7b9672f0" x="630.455579" y="546.009033" style="fill: #2ca02c; stroke: #2ca02c"/>
     <use xlink:href="#m0a7b9672f0" x="666.483471" y="562.77547" style="fill: #2ca02c; stroke: #2ca02c"/>
     <use xlink:href="#m0a7b9672f0" x="738.539256" y="590.940863" style="fill: #2ca02c; stroke: #2ca02c"/>
     <use xlink:href="#m0a7b9672f0" x="954.706612" y="639.468803" style="fill: #2ca02c; stroke: #2ca02c"/>
    </g>
   </g>
   <g id="line2d_43">
    <path d="M 608.838843 575.649218 
L 630.455579 601.167589 
L 666.483471 638.076561 
L 738.539256 688.085494 
L 954.706612 773.848421 
" clip-path="url(#p1968d0b52d)" style="fill: none; stroke: #d62728; stroke-width: 1.5; stroke-linecap: square"/>
    <g clip-path="url(#p1968d0b52d)">
     <use xlink:href="#m7d4d095a22" x="608.838843" y="575.649218" style="fill: #d62728; stroke: #d62728"/>
     <use xlink:href="#m7d4d095a22" x="630.455579" y="601.167589" style="fill: #d62728; stroke: #d62728"/>
     <use xlink:href="#m7d4d095a22" x="666.483471" y="638.076561" style="fill: #d62728; stroke: #d62728"/>
     <use xlink:href="#m7d4d095a22" x="738.539256" y="688.085494" style="fill: #d62728; stroke: #d62728"/>
     <use xlink:href="#m7d4d095a22" x="954.706612" y="773.848421" style="fill: #d62728; stroke: #d62728"/>
    </g>
   </g>
   <g id="patch_30">
    <path d="M 591.545455 785.785263 
L 591.545455 523.174737 
" style="fill: none; stroke: #000000; stroke-width: 0.8; stroke-linejoin: miter; stroke-linecap: square"/>
   </g>
   <g id="patch_31">
    <path d="M 972 785.785263 
L 972 523.174737 
" style="fill: none; stroke: #000000; stroke-width: 0.8; stroke-linejoin: miter; stroke-linecap: square"/>
   </g>
   <g id="patch_32">
    <path d="M 591.545455 785.785263 
L 972 785.785263 
" style="fill: none; stroke: #000000; stroke-width: 0.8; stroke-linejoin: miter; stroke-linecap: square"/>
   </g>
   <g id="patch_33">
    <path d="M 591.545455 523.174737 
L 972 523.174737 
" style="fill: none; stroke: #000000; stroke-width: 0.8; stroke-linejoin: miter; stroke-linecap: square"/>
   </g>
   <g id="text_44">
    <!-- d -->
    <g transform="translate(544.871761 505.058783) scale(0.28 -0.28)">
     <defs>
      <path id="DejaVuSans-Bold-64" d="M 2919 2988 
L 2919 4863 
L 4044 4863 
L 4044 0 
L 2919 0 
L 2919 506 
Q 2688 197 2409 53 
Q 2131 -91 1766 -91 
Q 1119 -91 703 423 
Q 288 938 288 1747 
Q 288 2556 703 3070 
Q 1119 3584 1766 3584 
Q 2128 3584 2408 3439 
Q 2688 3294 2919 2988 
z
M 2181 722 
Q 2541 722 2730 984 
Q 2919 1247 2919 1747 
Q 2919 2247 2730 2509 
Q 2541 2772 2181 2772 
Q 1825 2772 1636 2509 
Q 1447 2247 1447 1747 
Q 1447 1247 1636 984 
Q 1825 722 2181 722 
z
" transform="scale(0.015625)"/>
     </defs>
     <use xlink:href="#DejaVuSans-Bold-64"/>
    </g>
   </g>
   <g id="text_45">
    <!-- Continuity -->
    <g transform="translate(720.057102 517.174737) scale(0.24 -0.24)">
     <defs>
      <path id="DejaVuSans-79" d="M 2059 -325 
Q 1816 -950 1584 -1140 
Q 1353 -1331 966 -1331 
L 506 -1331 
L 506 -850 
L 844 -850 
Q 1081 -850 1212 -737 
Q 1344 -625 1503 -206 
L 1606 56 
L 191 3500 
L 800 3500 
L 1894 763 
L 2988 3500 
L 3597 3500 
L 2059 -325 
z
" transform="scale(0.015625)"/>
     </defs>
     <use xlink:href="#DejaVuSans-43"/>
     <use xlink:href="#DejaVuSans-6f" x="69.824219"/>
     <use xlink:href="#DejaVuSans-6e" x="131.005859"/>
     <use xlink:href="#DejaVuSans-74" x="194.384766"/>
     <use xlink:href="#DejaVuSans-69" x="233.59375"/>
     <use xlink:href="#DejaVuSans-6e" x="261.376953"/>
     <use xlink:href="#DejaVuSans-75" x="324.755859"/>
     <use xlink:href="#DejaVuSans-69" x="388.134766"/>
     <use xlink:href="#DejaVuSans-74" x="415.917969"/>
     <use xlink:href="#DejaVuSans-79" x="455.126953"/>
    </g>
   </g>
  </g>
  <g id="axes_5">
   <g id="patch_34">
    <path d="M 135 1153.44 
L 515.454545 1153.44 
L 515.454545 890.829474 
L 135 890.829474 
z
" style="fill: #ffffff"/>
   </g>
   <g id="matplotlib.axis_9">
    <g id="xtick_16">
     <g id="line2d_44">
      <g>
       <use xlink:href="#mab54c37809" x="152.111353" y="1153.44" style="stroke: #000000; stroke-width: 0.8"/>
      </g>
     </g>
     <g id="text_46">
      <!-- 0 -->
      <g transform="translate(145.112603 1177.156562) scale(0.22 -0.22)">
       <use xlink:href="#DejaVuSans-30"/>
      </g>
     </g>
    </g>
    <g id="xtick_17">
     <g id="line2d_45">
      <g>
       <use xlink:href="#mab54c37809" x="243.129187" y="1153.44" style="stroke: #000000; stroke-width: 0.8"/>
      </g>
     </g>
     <g id="text_47">
      <!-- 500 -->
      <g transform="translate(222.132937 1177.156562) scale(0.22 -0.22)">
       <use xlink:href="#DejaVuSans-35"/>
       <use xlink:href="#DejaVuSans-30" x="63.623047"/>
       <use xlink:href="#DejaVuSans-30" x="127.246094"/>
      </g>
     </g>
    </g>
    <g id="xtick_18">
     <g id="line2d_46">
      <g>
       <use xlink:href="#mab54c37809" x="334.14702" y="1153.44" style="stroke: #000000; stroke-width: 0.8"/>
      </g>
     </g>
     <g id="text_48">
      <!-- 1000 -->
      <g transform="translate(306.15202 1177.156562) scale(0.22 -0.22)">
       <use xlink:href="#DejaVuSans-31"/>
       <use xlink:href="#DejaVuSans-30" x="63.623047"/>
       <use xlink:href="#DejaVuSans-30" x="127.246094"/>
       <use xlink:href="#DejaVuSans-30" x="190.869141"/>
      </g>
     </g>
    </g>
    <g id="xtick_19">
     <g id="line2d_47">
      <g>
       <use xlink:href="#mab54c37809" x="425.164854" y="1153.44" style="stroke: #000000; stroke-width: 0.8"/>
      </g>
     </g>
     <g id="text_49">
      <!-- 1500 -->
      <g transform="translate(397.169854 1177.156562) scale(0.22 -0.22)">
       <use xlink:href="#DejaVuSans-31"/>
       <use xlink:href="#DejaVuSans-35" x="63.623047"/>
       <use xlink:href="#DejaVuSans-30" x="127.246094"/>
       <use xlink:href="#DejaVuSans-30" x="190.869141"/>
      </g>
     </g>
    </g>
    <g id="text_50">
     <!-- k -->
     <g transform="translate(318.278523 1203.968125) scale(0.24 -0.24)">
      <use xlink:href="#DejaVuSans-6b"/>
     </g>
    </g>
   </g>
   <g id="matplotlib.axis_10">
    <g id="ytick_17">
     <g id="line2d_48">
      <g>
       <use xlink:href="#ma65da63a1e" x="135" y="1115.324525" style="stroke: #000000; stroke-width: 0.8"/>
      </g>
     </g>
     <g id="text_51">
      <!-- 0.2 -->
      <g transform="translate(93.013125 1123.682806) scale(0.22 -0.22)">
       <use xlink:href="#DejaVuSans-30"/>
       <use xlink:href="#DejaVuSans-2e" x="63.623047"/>
       <use xlink:href="#DejaVuSans-32" x="95.410156"/>
      </g>
     </g>
    </g>
    <g id="ytick_18">
     <g id="line2d_49">
      <g>
       <use xlink:href="#ma65da63a1e" x="135" y="1062.184972" style="stroke: #000000; stroke-width: 0.8"/>
      </g>
     </g>
     <g id="text_52">
      <!-- 0.4 -->
      <g transform="translate(93.013125 1070.543254) scale(0.22 -0.22)">
       <use xlink:href="#DejaVuSans-30"/>
       <use xlink:href="#DejaVuSans-2e" x="63.623047"/>
       <use xlink:href="#DejaVuSans-34" x="95.410156"/>
      </g>
     </g>
    </g>
    <g id="ytick_19">
     <g id="line2d_50">
      <g>
       <use xlink:href="#ma65da63a1e" x="135" y="1009.04542" style="stroke: #000000; stroke-width: 0.8"/>
      </g>
     </g>
     <g id="text_53">
      <!-- 0.6 -->
      <g transform="translate(93.013125 1017.403701) scale(0.22 -0.22)">
       <use xlink:href="#DejaVuSans-30"/>
       <use xlink:href="#DejaVuSans-2e" x="63.623047"/>
       <use xlink:href="#DejaVuSans-36" x="95.410156"/>
      </g>
     </g>
    </g>
    <g id="ytick_20">
     <g id="line2d_51">
      <g>
       <use xlink:href="#ma65da63a1e" x="135" y="955.905868" style="stroke: #000000; stroke-width: 0.8"/>
      </g>
     </g>
     <g id="text_54">
      <!-- 0.8 -->
      <g transform="translate(93.013125 964.264149) scale(0.22 -0.22)">
       <use xlink:href="#DejaVuSans-30"/>
       <use xlink:href="#DejaVuSans-2e" x="63.623047"/>
       <use xlink:href="#DejaVuSans-38" x="95.410156"/>
      </g>
     </g>
    </g>
    <g id="ytick_21">
     <g id="line2d_52">
      <g>
       <use xlink:href="#ma65da63a1e" x="135" y="902.766316" style="stroke: #000000; stroke-width: 0.8"/>
      </g>
     </g>
     <g id="text_55">
      <!-- 1.0 -->
      <g transform="translate(93.013125 911.124597) scale(0.22 -0.22)">
       <use xlink:href="#DejaVuSans-31"/>
       <use xlink:href="#DejaVuSans-2e" x="63.623047"/>
       <use xlink:href="#DejaVuSans-30" x="95.410156"/>
      </g>
     </g>
    </g>
    <g id="text_56">
     <!-- Metric Value -->
     <g transform="translate(84.021875 1096.210362) rotate(-90) scale(0.24 -0.24)">
      <use xlink:href="#DejaVuSans-4d"/>
      <use xlink:href="#DejaVuSans-65" x="86.279297"/>
      <use xlink:href="#DejaVuSans-74" x="147.802734"/>
      <use xlink:href="#DejaVuSans-72" x="187.011719"/>
      <use xlink:href="#DejaVuSans-69" x="228.125"/>
      <use xlink:href="#DejaVuSans-63" x="255.908203"/>
      <use xlink:href="#DejaVuSans-20" x="310.888672"/>
      <use xlink:href="#DejaVuSans-56" x="342.675781"/>
      <use xlink:href="#DejaVuSans-61" x="403.333984"/>
      <use xlink:href="#DejaVuSans-6c" x="464.613281"/>
      <use xlink:href="#DejaVuSans-75" x="492.396484"/>
      <use xlink:href="#DejaVuSans-65" x="555.775391"/>
     </g>
    </g>
   </g>
   <g id="line2d_53">
    <path d="M 152.293388 1141.503158 
L 152.65746 1134.192511 
L 153.203567 1130.723447 
L 153.567638 1129.052941 
L 153.749674 1128.589235 
L 154.113745 1126.974994 
L 154.477816 1126.104594 
L 155.023923 1125.150243 
L 155.387995 1124.01814 
L 155.934102 1122.877307 
L 156.480209 1121.637524 
L 157.572423 1119.333739 
L 158.846672 1116.750912 
L 159.574815 1115.233894 
L 159.756851 1115.021189 
L 160.849065 1112.918298 
L 162.30535 1110.062057 
L 164.125707 1106.378613 
L 164.307742 1106.131416 
L 165.035885 1104.614136 
L 167.584385 1100.015719 
L 168.676599 1098.19652 
L 169.404741 1096.976101 
L 170.132884 1095.948842 
L 171.771205 1093.344986 
L 172.863419 1091.790517 
L 173.773597 1090.425675 
L 177.232275 1085.532476 
L 178.142453 1084.272626 
L 179.234667 1082.688284 
L 180.690953 1080.694501 
L 183.785559 1076.293412 
L 186.334058 1072.703179 
L 187.790344 1070.714709 
L 189.428665 1068.615661 
L 190.520879 1067.099284 
L 193.615485 1063.175329 
L 201.443019 1054.190359 
L 202.717268 1052.916133 
L 204.537625 1051.023722 
L 210.908873 1044.786986 
L 212.911266 1042.970456 
L 215.095694 1041.178727 
L 216.734015 1039.92249 
L 219.646585 1037.731314 
L 224.197477 1034.54809 
L 228.566333 1031.842796 
L 231.66094 1030.092653 
L 240.216616 1025.39503 
L 243.311222 1023.857489 
L 247.680078 1021.408462 
L 249.864506 1020.202045 
L 252.048934 1018.958546 
L 257.874076 1015.708939 
L 299.560244 992.39046 
L 303.382993 990.336728 
L 317.945846 982.255507 
L 346.707482 968.097446 
L 359.085907 962.398402 
L 374.012832 955.764272 
L 378.745759 953.948358 
L 386.573293 950.778604 
L 396.76729 946.907295 
L 427.349282 936.67331 
L 432.08221 935.098455 
L 450.103741 928.677611 
L 461.207916 924.526311 
L 468.489343 921.536656 
L 471.948021 919.958761 
L 476.498913 917.583666 
L 480.685733 915.102408 
L 482.870161 913.676815 
L 490.697695 908.176675 
L 494.156372 905.682788 
L 495.248586 904.933757 
L 498.161157 902.766316 
L 498.161157 902.766316 
" clip-path="url(#pc8a9628e12)" style="fill: none; stroke: #1f77b4; stroke-width: 1.5; stroke-linecap: square"/>
   </g>
   <g id="line2d_54">
    <path d="M 152.293388 1016.756522 
L 152.475424 1005.720706 
L 152.839495 999.399558 
L 153.021531 1000.440277 
L 153.203567 1002.414617 
L 153.385602 1002.727266 
L 154.659852 1013.842907 
L 155.752066 1021.226727 
L 157.208351 1032.666658 
L 158.846672 1041.822135 
L 159.392779 1043.570763 
L 159.938886 1045.33854 
L 160.484993 1047.012395 
L 161.213136 1048.402774 
L 161.759243 1049.650478 
L 162.669421 1051.371703 
L 163.943671 1053.001712 
L 164.671814 1054.143869 
L 165.035885 1054.605694 
L 165.946064 1056.045426 
L 167.038278 1057.603354 
L 168.494563 1058.670895 
L 168.858634 1058.859043 
L 170.31492 1059.785032 
L 170.678991 1059.817846 
L 171.225098 1060.134798 
L 172.317312 1060.171115 
L 172.681383 1060.103657 
L 173.045455 1059.966877 
L 176.504132 1059.066046 
L 177.050239 1058.849246 
L 178.506525 1058.286068 
L 179.052632 1057.940733 
L 179.598739 1057.663701 
L 181.055024 1056.675586 
L 183.421488 1055.447667 
L 184.331666 1054.725635 
L 185.241844 1054.07628 
L 185.787951 1053.764829 
L 187.244237 1052.729506 
L 187.790344 1052.438331 
L 191.977164 1049.915002 
L 193.615485 1048.58467 
L 200.53284 1042.381422 
L 201.260983 1041.758105 
L 202.535233 1040.711249 
L 203.445411 1039.892207 
L 206.540017 1037.245737 
L 209.998695 1034.563539 
L 212.001087 1032.93129 
L 214.185515 1031.200706 
L 215.823836 1029.971564 
L 216.369943 1029.56562 
L 218.1903 1028.259525 
L 220.374728 1026.824912 
L 221.284906 1026.399444 
L 222.923227 1025.712732 
L 224.743584 1024.986908 
L 226.017834 1024.527081 
L 227.110048 1024.195222 
L 230.204654 1023.192861 
L 231.478904 1022.698959 
L 234.209439 1021.699394 
L 241.30883 1019.16895 
L 242.58308 1018.717296 
L 244.403436 1018.150155 
L 247.133971 1017.186041 
L 251.320792 1015.782254 
L 252.777077 1015.205238 
L 254.961505 1014.382715 
L 260.240539 1012.224467 
L 262.060896 1011.468508 
L 264.42736 1010.596181 
L 266.611788 1009.752507 
L 269.524358 1008.631103 
L 271.162679 1007.982081 
L 274.439321 1006.558453 
L 276.259678 1005.703295 
L 283.72314 1002.230098 
L 288.820139 999.907692 
L 292.096781 998.40794 
L 317.399739 986.447566 
L 320.494345 984.972465 
L 325.045237 982.86164 
L 328.68595 981.032909 
L 338.515876 976.21583 
L 343.430839 973.966998 
L 345.433232 973.03681 
L 359.085907 967.064694 
L 361.634406 965.996669 
L 367.095476 963.609092 
L 402.046324 950.728526 
L 403.684645 950.098787 
L 405.140931 949.588991 
L 418.247499 945.200195 
L 419.521749 944.816932 
L 423.526533 943.297779 
L 428.805568 941.180754 
L 436.26903 938.183502 
L 446.463027 933.662766 
L 459.205524 927.546371 
L 464.84863 924.53368 
L 473.040235 920.272899 
L 483.598304 913.871788 
L 487.785124 910.831668 
L 492.882123 906.881838 
L 498.161157 902.766316 
L 498.161157 902.766316 
" clip-path="url(#pc8a9628e12)" style="fill: none; stroke: #ff7f0e; stroke-width: 1.5; stroke-linecap: square"/>
   </g>
   <g id="line2d_55">
    <path d="M 152.293388 1103.78581 
L 152.65746 1060.294449 
L 153.021531 1039.079605 
L 153.567638 1025.277849 
L 153.749674 1024.765638 
L 153.931709 1023.769155 
L 154.113745 1023.626921 
L 154.477816 1024.009859 
L 154.659852 1024.080473 
L 154.841888 1024.309305 
L 155.752066 1027.044977 
L 156.480209 1031.773615 
L 157.390387 1037.209633 
L 157.936494 1039.810378 
L 159.756851 1048.809616 
L 160.667029 1051.733492 
L 161.395172 1053.416579 
L 162.123314 1054.720239 
L 162.851457 1055.518023 
L 163.215528 1055.962412 
L 163.5796 1056.34089 
L 163.761635 1056.560548 
L 164.125707 1057.197901 
L 165.217921 1058.691849 
L 165.946064 1059.883332 
L 167.948456 1061.326899 
L 170.31492 1062.746542 
L 170.678991 1062.851394 
L 171.043062 1063.101311 
L 173.22749 1064.106727 
L 173.955633 1064.094122 
L 174.319704 1064.215801 
L 175.047847 1064.260203 
L 175.593954 1064.444115 
L 175.958025 1064.49344 
L 176.504132 1064.651716 
L 177.414311 1064.589114 
L 178.142453 1064.464425 
L 178.68856 1064.360561 
L 180.508917 1063.545018 
L 184.14963 1061.508568 
L 185.059809 1061.087334 
L 189.064593 1058.522928 
L 189.974772 1057.976963 
L 192.705307 1055.651559 
L 193.797521 1054.83195 
L 194.343628 1054.519632 
L 197.074163 1052.410133 
L 198.166377 1051.622017 
L 200.53284 1049.424409 
L 202.171161 1047.894034 
L 209.452588 1040.916912 
L 214.913658 1035.39695 
L 216.369943 1034.287115 
L 220.010657 1031.618378 
L 221.648978 1030.420193 
L 225.107656 1029.245713 
L 227.656155 1028.188531 
L 229.294476 1027.61278 
L 229.840583 1027.405318 
L 235.119617 1025.948441 
L 237.486081 1025.069351 
L 239.670509 1024.130675 
L 242.036973 1023.323266 
L 249.500435 1020.395613 
L 254.415398 1018.20566 
L 255.507612 1017.747414 
L 257.69204 1016.683304 
L 263.15311 1014.328597 
L 265.519574 1013.430104 
L 269.706394 1011.53768 
L 272.618965 1010.44371 
L 277.715963 1008.37246 
L 283.359069 1005.584306 
L 285.907569 1004.133707 
L 297.375816 997.805244 
L 303.565028 994.402647 
L 309.572205 991.008276 
L 316.489561 986.987803 
L 328.68595 979.904125 
L 332.508699 977.859318 
L 343.612875 971.915716 
L 347.981731 969.670856 
L 358.175729 964.395504 
L 365.27512 961.28994 
L 384.024793 954.70393 
L 392.944541 952.595324 
L 398.04154 951.42704 
L 401.682253 950.447373 
L 405.322967 949.396354 
L 409.145716 948.325714 
L 413.696607 946.328059 
L 414.606786 945.966406 
L 416.973249 945.145407 
L 418.065463 944.648759 
L 419.339713 944.164426 
L 422.070248 942.86364 
L 422.798391 942.636941 
L 424.436712 942.096026 
L 426.803175 941.258321 
L 431.900174 938.888772 
L 433.902566 937.983883 
L 435.176816 937.477325 
L 436.451066 937.003211 
L 440.819922 935.318865 
L 446.645063 932.760008 
L 449.921705 931.220747 
L 452.470204 930.168498 
L 460.661809 926.318292 
L 467.943236 922.606551 
L 469.763593 921.512914 
L 484.144411 911.640707 
L 486.69291 909.806644 
L 488.513267 908.572154 
L 491.061766 906.799208 
L 492.882123 905.86846 
L 495.976729 904.453661 
L 498.161157 902.766316 
L 498.161157 902.766316 
" clip-path="url(#pc8a9628e12)" style="fill: none; stroke: #2ca02c; stroke-width: 1.5; stroke-linecap: square"/>
   </g>
   <g id="line2d_56">
    <path d="M 152.293388 1083.111116 
L 152.65746 1048.699856 
L 153.021531 1033.631543 
L 153.385602 1028.570633 
L 153.567638 1027.285949 
L 153.749674 1027.373257 
L 153.931709 1026.982115 
L 154.113745 1028.071727 
L 154.295781 1028.10665 
L 154.477816 1028.684231 
L 154.841888 1028.872638 
L 155.387995 1030.41548 
L 155.57003 1031.181754 
L 156.116137 1034.726235 
L 157.390387 1042.002579 
L 157.936494 1044.738953 
L 158.846672 1049.161727 
L 159.756851 1052.621263 
L 161.213136 1057.17555 
L 161.759243 1058.685773 
L 162.30535 1060.221276 
L 163.397564 1062.73834 
L 166.674206 1068.376904 
L 167.220313 1069.121531 
L 167.76642 1069.970145 
L 169.768813 1072.043616 
L 170.678991 1073.13259 
L 171.407134 1073.87287 
L 172.681383 1074.806129 
L 173.22749 1075.243701 
L 175.229883 1076.426709 
L 175.958025 1076.776905 
L 177.960418 1077.824391 
L 180.144846 1078.620955 
L 181.965202 1079.045513 
L 183.785559 1079.408425 
L 184.331666 1079.459344 
L 184.877773 1079.506238 
L 186.69813 1079.533482 
L 187.062201 1079.471072 
L 188.154415 1079.347847 
L 188.700522 1079.306716 
L 195.617877 1078.047651 
L 196.528056 1077.788435 
L 197.438234 1077.541313 
L 203.627447 1076.087426 
L 211.819052 1073.200516 
L 213.821444 1072.463887 
L 214.549587 1072.199924 
L 224.561548 1068.573826 
L 226.19987 1067.848101 
L 232.389082 1065.785273 
L 233.481296 1065.357805 
L 237.12201 1063.844727 
L 238.942366 1063.088033 
L 239.852545 1062.635818 
L 242.036973 1061.590623 
L 243.857329 1060.735981 
L 246.587864 1059.563949 
L 248.04415 1058.993908 
L 254.233362 1056.303337 
L 257.510004 1054.644205 
L 260.786646 1053.13894 
L 263.335146 1051.866785 
L 264.42736 1051.343324 
L 271.344715 1047.980771 
L 281.356677 1043.016021 
L 284.087212 1041.748625 
L 291.186603 1038.291687 
L 293.00696 1037.392052 
L 298.832101 1034.528322 
L 300.106351 1033.904161 
L 308.11592 1029.992558 
L 311.938669 1028.31643 
L 314.669204 1027.032392 
L 325.227273 1022.063715 
L 327.775772 1020.808514 
L 330.324271 1019.476201 
L 336.331448 1016.288714 
L 339.426055 1014.691931 
L 343.976946 1012.480882 
L 346.161375 1011.286183 
L 351.258373 1008.530545 
L 354.170944 1006.971155 
L 374.558939 995.163187 
L 393.490648 982.904249 
L 414.606786 968.401708 
L 433.356459 954.951158 
L 455.018704 938.453317 
L 462.30013 932.392568 
L 478.865376 918.356309 
L 489.969552 909.208191 
L 497.797086 903.046218 
L 498.161157 902.766389 
L 498.161157 902.766389 
" clip-path="url(#pc8a9628e12)" style="fill: none; stroke: #d62728; stroke-width: 1.5; stroke-linecap: square"/>
   </g>
   <g id="patch_35">
    <path d="M 135 1153.44 
L 135 890.829474 
" style="fill: none; stroke: #000000; stroke-width: 0.8; stroke-linejoin: miter; stroke-linecap: square"/>
   </g>
   <g id="patch_36">
    <path d="M 515.454545 1153.44 
L 515.454545 890.829474 
" style="fill: none; stroke: #000000; stroke-width: 0.8; stroke-linejoin: miter; stroke-linecap: square"/>
   </g>
   <g id="patch_37">
    <path d="M 135 1153.44 
L 515.454545 1153.44 
" style="fill: none; stroke: #000000; stroke-width: 0.8; stroke-linejoin: miter; stroke-linecap: square"/>
   </g>
   <g id="patch_38">
    <path d="M 135 890.829474 
L 515.454545 890.829474 
" style="fill: none; stroke: #000000; stroke-width: 0.8; stroke-linejoin: miter; stroke-linecap: square"/>
   </g>
   <g id="text_57">
    <!-- e -->
    <g transform="translate(89.376307 872.71352) scale(0.28 -0.28)">
     <defs>
      <path id="DejaVuSans-Bold-65" d="M 4031 1759 
L 4031 1441 
L 1416 1441 
Q 1456 1047 1700 850 
Q 1944 653 2381 653 
Q 2734 653 3104 758 
Q 3475 863 3866 1075 
L 3866 213 
Q 3469 63 3072 -14 
Q 2675 -91 2278 -91 
Q 1328 -91 801 392 
Q 275 875 275 1747 
Q 275 2603 792 3093 
Q 1309 3584 2216 3584 
Q 3041 3584 3536 3087 
Q 4031 2591 4031 1759 
z
M 2881 2131 
Q 2881 2450 2695 2645 
Q 2509 2841 2209 2841 
Q 1884 2841 1681 2658 
Q 1478 2475 1428 2131 
L 2881 2131 
z
" transform="scale(0.015625)"/>
     </defs>
     <use xlink:href="#DejaVuSans-Bold-65"/>
    </g>
   </g>
   <g id="text_58">
    <!-- $Q_{NN}$ -->
    <g transform="translate(302.787273 884.829474) scale(0.24 -0.24)">
     <use xlink:href="#DejaVuSans-Oblique-51" transform="translate(0 0.78125)"/>
     <use xlink:href="#DejaVuSans-Oblique-4e" transform="translate(78.710938 -15.625) scale(0.7)"/>
     <use xlink:href="#DejaVuSans-Oblique-4e" transform="translate(131.074219 -15.625) scale(0.7)"/>
    </g>
   </g>
  </g>
  <g id="axes_6">
   <g id="patch_39">
    <path d="M 591.545455 1153.44 
L 972 1153.44 
L 972 890.829474 
L 591.545455 890.829474 
z
" style="fill: #ffffff"/>
   </g>
   <g id="matplotlib.axis_11">
    <g id="xtick_20">
     <g id="line2d_57">
      <g>
       <use xlink:href="#mab54c37809" x="608.656807" y="1153.44" style="stroke: #000000; stroke-width: 0.8"/>
      </g>
     </g>
     <g id="text_59">
      <!-- 0 -->
      <g transform="translate(601.658057 1177.156562) scale(0.22 -0.22)">
       <use xlink:href="#DejaVuSans-30"/>
      </g>
     </g>
    </g>
    <g id="xtick_21">
     <g id="line2d_58">
      <g>
       <use xlink:href="#mab54c37809" x="699.674641" y="1153.44" style="stroke: #000000; stroke-width: 0.8"/>
      </g>
     </g>
     <g id="text_60">
      <!-- 500 -->
      <g transform="translate(678.678391 1177.156562) scale(0.22 -0.22)">
       <use xlink:href="#DejaVuSans-35"/>
       <use xlink:href="#DejaVuSans-30" x="63.623047"/>
       <use xlink:href="#DejaVuSans-30" x="127.246094"/>
      </g>
     </g>
    </g>
    <g id="xtick_22">
     <g id="line2d_59">
      <g>
       <use xlink:href="#mab54c37809" x="790.692475" y="1153.44" style="stroke: #000000; stroke-width: 0.8"/>
      </g>
     </g>
     <g id="text_61">
      <!-- 1000 -->
      <g transform="translate(762.697475 1177.156562) scale(0.22 -0.22)">
       <use xlink:href="#DejaVuSans-31"/>
       <use xlink:href="#DejaVuSans-30" x="63.623047"/>
       <use xlink:href="#DejaVuSans-30" x="127.246094"/>
       <use xlink:href="#DejaVuSans-30" x="190.869141"/>
      </g>
     </g>
    </g>
    <g id="xtick_23">
     <g id="line2d_60">
      <g>
       <use xlink:href="#mab54c37809" x="881.710309" y="1153.44" style="stroke: #000000; stroke-width: 0.8"/>
      </g>
     </g>
     <g id="text_62">
      <!-- 1500 -->
      <g transform="translate(853.715309 1177.156562) scale(0.22 -0.22)">
       <use xlink:href="#DejaVuSans-31"/>
       <use xlink:href="#DejaVuSans-35" x="63.623047"/>
       <use xlink:href="#DejaVuSans-30" x="127.246094"/>
       <use xlink:href="#DejaVuSans-30" x="190.869141"/>
      </g>
     </g>
    </g>
    <g id="text_63">
     <!-- k -->
     <g transform="translate(774.823977 1203.968125) scale(0.24 -0.24)">
      <use xlink:href="#DejaVuSans-6b"/>
     </g>
    </g>
   </g>
   <g id="matplotlib.axis_12">
    <g id="ytick_22">
     <g id="line2d_61">
      <g>
       <use xlink:href="#ma65da63a1e" x="591.545455" y="1137.735406" style="stroke: #000000; stroke-width: 0.8"/>
      </g>
     </g>
     <g id="text_64">
      <!-- 0.0 -->
      <g transform="translate(549.55858 1146.093687) scale(0.22 -0.22)">
       <use xlink:href="#DejaVuSans-30"/>
       <use xlink:href="#DejaVuSans-2e" x="63.623047"/>
       <use xlink:href="#DejaVuSans-30" x="95.410156"/>
      </g>
     </g>
    </g>
    <g id="ytick_23">
     <g id="line2d_62">
      <g>
       <use xlink:href="#ma65da63a1e" x="591.545455" y="1063.636009" style="stroke: #000000; stroke-width: 0.8"/>
      </g>
     </g>
     <g id="text_65">
      <!-- 0.2 -->
      <g transform="translate(549.55858 1071.99429) scale(0.22 -0.22)">
       <use xlink:href="#DejaVuSans-30"/>
       <use xlink:href="#DejaVuSans-2e" x="63.623047"/>
       <use xlink:href="#DejaVuSans-32" x="95.410156"/>
      </g>
     </g>
    </g>
    <g id="ytick_24">
     <g id="line2d_63">
      <g>
       <use xlink:href="#ma65da63a1e" x="591.545455" y="989.536612" style="stroke: #000000; stroke-width: 0.8"/>
      </g>
     </g>
     <g id="text_66">
      <!-- 0.4 -->
      <g transform="translate(549.55858 997.894893) scale(0.22 -0.22)">
       <use xlink:href="#DejaVuSans-30"/>
       <use xlink:href="#DejaVuSans-2e" x="63.623047"/>
       <use xlink:href="#DejaVuSans-34" x="95.410156"/>
      </g>
     </g>
    </g>
    <g id="ytick_25">
     <g id="line2d_64">
      <g>
       <use xlink:href="#ma65da63a1e" x="591.545455" y="915.437214" style="stroke: #000000; stroke-width: 0.8"/>
      </g>
     </g>
     <g id="text_67">
      <!-- 0.6 -->
      <g transform="translate(549.55858 923.795496) scale(0.22 -0.22)">
       <use xlink:href="#DejaVuSans-30"/>
       <use xlink:href="#DejaVuSans-2e" x="63.623047"/>
       <use xlink:href="#DejaVuSans-36" x="95.410156"/>
      </g>
     </g>
    </g>
   </g>
   <g id="line2d_65">
    <path d="M 608.838843 1100.335182 
L 609.202914 1090.530787 
L 609.566986 1087.596105 
L 610.113093 1084.338494 
L 610.295128 1083.886784 
L 610.477164 1082.53199 
L 611.023271 1081.201709 
L 611.205307 1080.954574 
L 611.387342 1080.519638 
L 611.569378 1080.455621 
L 611.933449 1079.266774 
L 612.297521 1078.637147 
L 614.117877 1075.073453 
L 615.210091 1073.230024 
L 616.12027 1071.50036 
L 616.302305 1071.398654 
L 617.212484 1069.865094 
L 617.758591 1069.126513 
L 618.122662 1068.375565 
L 618.486733 1068.02295 
L 619.578947 1065.866048 
L 623.037625 1060.250261 
L 623.583732 1059.655423 
L 624.49391 1058.443269 
L 625.950196 1056.565517 
L 626.132231 1056.459594 
L 626.496303 1056.073359 
L 627.224445 1055.29861 
L 631.593301 1050.878205 
L 632.139408 1050.444955 
L 632.685515 1049.894171 
L 633.413658 1049.358986 
L 635.780122 1047.166528 
L 636.144193 1046.835267 
L 636.872336 1046.218513 
L 637.236407 1045.945503 
L 639.238799 1044.044256 
L 639.966942 1043.456053 
L 641.423227 1042.111389 
L 641.969334 1041.681643 
L 644.335798 1039.630318 
L 645.428012 1038.868576 
L 648.158547 1036.658088 
L 649.068726 1036.047938 
L 649.614833 1035.634792 
L 651.253154 1034.737833 
L 652.891475 1033.70217 
L 653.801653 1033.183485 
L 654.34776 1032.917282 
L 655.804045 1032.133549 
L 663.267508 1029.399999 
L 664.177686 1029.170953 
L 666.362114 1028.488195 
L 669.274685 1027.859271 
L 672.00522 1027.654598 
L 680.560896 1028.137297 
L 688.024358 1029.901192 
L 697.490213 1032.844475 
L 702.041105 1034.37168 
L 726.61592 1041.547128 
L 728.618312 1042.143132 
L 731.712919 1042.9769 
L 734.989561 1043.877382 
L 737.720096 1044.613854 
L 740.086559 1045.293061 
L 756.651805 1050.2676 
L 759.018269 1051.033232 
L 762.112875 1051.943561 
L 764.661375 1052.689883 
L 765.935624 1053.028627 
L 770.850587 1054.395679 
L 773.035015 1055.090369 
L 779.588299 1057.599368 
L 795.971509 1063.799111 
L 798.88408 1064.92061 
L 806.893649 1068.063746 
L 811.08047 1069.898873 
L 814.357112 1071.399593 
L 817.815789 1072.924054 
L 825.643323 1076.325886 
L 828.009787 1077.398414 
L 830.922358 1078.918855 
L 834.563071 1080.871147 
L 836.929535 1082.04799 
L 844.392997 1085.907311 
L 855.679208 1092.154142 
L 857.863636 1093.425803 
L 860.048064 1094.66932 
L 893.178556 1114.717397 
L 899.73184 1118.485822 
L 906.831231 1122.517071 
L 918.845585 1129.082352 
L 923.032405 1131.194536 
L 926.673119 1132.870977 
L 930.495868 1134.385831 
L 932.862331 1135.150984 
L 936.138973 1136.001157 
L 938.869508 1136.515744 
L 945.058721 1137.134527 
L 950.883863 1137.562706 
L 951.976077 1137.6405 
L 954.706612 1137.735406 
L 954.706612 1137.735406 
" clip-path="url(#p72f348eb76)" style="fill: none; stroke: #1f77b4; stroke-width: 1.5; stroke-linecap: square"/>
   </g>
   <g id="line2d_66">
    <path d="M 608.838843 926.384704 
L 609.020879 911.190924 
L 609.38495 902.766316 
L 609.566986 904.412422 
L 609.749021 907.360398 
L 609.931057 907.99126 
L 611.205307 924.855517 
L 612.479556 938.64946 
L 613.753806 953.832465 
L 615.392127 968.353202 
L 615.938234 971.376229 
L 616.666377 975.446049 
L 617.212484 977.976504 
L 617.940626 980.943429 
L 619.214876 985.76222 
L 620.489126 989.399425 
L 621.217268 991.771666 
L 621.763375 993.460418 
L 622.127447 994.748862 
L 624.311875 1000.765975 
L 627.770552 1007.14185 
L 629.044802 1008.532789 
L 630.137016 1009.218541 
L 630.319052 1009.259275 
L 631.22923 1009.925961 
L 631.957373 1010.339963 
L 633.231622 1011.449548 
L 633.777729 1011.688595 
L 634.323836 1012.074975 
L 635.051979 1012.359758 
L 635.41605 1012.367146 
L 636.144193 1012.661286 
L 637.054371 1012.755234 
L 638.146585 1013.117918 
L 638.510657 1013.216297 
L 638.874728 1013.273586 
L 639.966942 1013.663993 
L 640.513049 1013.652153 
L 641.787299 1013.700648 
L 642.15137 1013.829684 
L 642.879513 1013.820498 
L 643.607656 1013.886789 
L 644.517834 1014.194303 
L 645.063941 1014.285149 
L 646.156155 1014.482572 
L 648.158547 1015.073726 
L 648.522619 1015.109182 
L 649.796868 1015.072357 
L 650.889082 1014.960432 
L 652.527403 1014.754959 
L 653.619617 1014.49358 
L 655.804045 1014.08019 
L 656.714224 1013.805993 
L 659.444759 1013.566815 
L 661.811222 1013.104909 
L 662.903436 1013.046546 
L 663.813615 1013.085198 
L 666.54415 1012.997326 
L 667.818399 1012.898967 
L 669.092649 1012.864632 
L 670.913006 1012.779178 
L 672.00522 1012.818396 
L 673.097434 1012.843099 
L 675.645933 1013.01802 
L 677.830361 1013.696607 
L 679.104611 1014.312307 
L 682.92736 1016.359356 
L 685.111788 1017.760683 
L 691.301 1021.305361 
L 692.211179 1021.897361 
L 692.757286 1022.145898 
L 694.941714 1023.353557 
L 696.397999 1024.240873 
L 699.856677 1026.271622 
L 701.312962 1027.131152 
L 705.135711 1029.420651 
L 706.774032 1030.420099 
L 709.140496 1031.715687 
L 710.778817 1032.630514 
L 714.237495 1034.338065 
L 715.147673 1034.729347 
L 726.251849 1040.678713 
L 728.436277 1041.755194 
L 734.261418 1044.349333 
L 745.729665 1049.232286 
L 747.003915 1049.845622 
L 751.918878 1051.764655 
L 756.105698 1053.713363 
L 759.200304 1054.965837 
L 760.65659 1055.577108 
L 764.115268 1057.081519 
L 765.935624 1057.869829 
L 778.678121 1062.817521 
L 783.229013 1064.678912 
L 791.784689 1067.963824 
L 792.876903 1068.348303 
L 794.333188 1068.901596 
L 808.714006 1075.235156 
L 810.716398 1076.142644 
L 813.446933 1077.399116 
L 817.815789 1079.574663 
L 823.822967 1082.35195 
L 836.565463 1089.376796 
L 843.300783 1093.045821 
L 846.213354 1094.586041 
L 853.312745 1098.57907 
L 856.589387 1100.525986 
L 865.509134 1105.74999 
L 871.334276 1109.21827 
L 873.700739 1110.551853 
L 878.433667 1113.552815 
L 893.360592 1121.112425 
L 903.372553 1125.617169 
L 907.923445 1127.503155 
L 916.11505 1130.689357 
L 923.396477 1133.090847 
L 927.583297 1134.623346 
L 929.585689 1135.251488 
L 931.770117 1135.881889 
L 935.228795 1136.753189 
L 939.051544 1137.497242 
L 941.418008 1137.744762 
L 945.058721 1137.876281 
L 950.883863 1137.781123 
L 954.706612 1137.735406 
L 954.706612 1137.735406 
" clip-path="url(#p72f348eb76)" style="fill: none; stroke: #ff7f0e; stroke-width: 1.5; stroke-linecap: square"/>
   </g>
   <g id="line2d_67">
    <path d="M 608.838843 1047.740972 
L 609.202914 987.485096 
L 609.566986 958.292268 
L 610.113093 939.631371 
L 610.295128 939.112024 
L 610.477164 937.917394 
L 610.6592 937.913955 
L 611.205307 939.131088 
L 611.387342 939.645074 
L 612.297521 944.434257 
L 613.025663 951.807595 
L 613.935842 960.362223 
L 614.663984 966.102219 
L 616.666377 981.002087 
L 617.576555 985.900984 
L 618.122662 987.989587 
L 619.578947 992.315319 
L 620.30709 994.167077 
L 620.671161 995.445614 
L 621.763375 998.698195 
L 622.491518 1001.139218 
L 625.040017 1006.378145 
L 629.772945 1014.824281 
L 630.501087 1015.586288 
L 630.865159 1016.145752 
L 631.593301 1016.987251 
L 632.321444 1018.024228 
L 633.595694 1019.677648 
L 634.141801 1020.095949 
L 635.780122 1021.324377 
L 642.515441 1023.430656 
L 643.243584 1023.336326 
L 643.971727 1023.526044 
L 644.335798 1023.539989 
L 645.063941 1023.841712 
L 645.428012 1023.964955 
L 647.248369 1024.18892 
L 647.61244 1024.105417 
L 649.978904 1023.863756 
L 650.342975 1023.914482 
L 650.889082 1024.063663 
L 652.163332 1024.055176 
L 652.891475 1024.017011 
L 653.619617 1024.045552 
L 654.529796 1024.122488 
L 655.257938 1024.002311 
L 657.806438 1023.401329 
L 659.080687 1023.108554 
L 660.172901 1022.817733 
L 661.08308 1022.579134 
L 661.811222 1022.344252 
L 663.631579 1022.102307 
L 664.359722 1021.874893 
L 665.087864 1021.613771 
L 665.633971 1021.466503 
L 666.180078 1021.203681 
L 667.454328 1020.698895 
L 668.728578 1020.158298 
L 670.366899 1019.511032 
L 671.823184 1019.448306 
L 673.097434 1019.450666 
L 674.007612 1019.466963 
L 674.371683 1019.529046 
L 675.099826 1019.639435 
L 675.645933 1019.599706 
L 676.19204 1019.591603 
L 677.102218 1019.568552 
L 677.830361 1019.599872 
L 678.558504 1019.886721 
L 678.922575 1020.08343 
L 679.650718 1020.63313 
L 680.924967 1021.34019 
L 682.563288 1022.121085 
L 684.019574 1022.886441 
L 685.293823 1023.650453 
L 686.568073 1024.389497 
L 687.660287 1025.167767 
L 693.485428 1028.895336 
L 697.490213 1030.961606 
L 703.315355 1034.196078 
L 710.960853 1037.74199 
L 711.871031 1038.17817 
L 712.781209 1038.528067 
L 713.873423 1038.942054 
L 719.152458 1041.361088 
L 722.065028 1042.971456 
L 725.887777 1044.619992 
L 734.261418 1048.976946 
L 739.358417 1050.968033 
L 744.27338 1052.320466 
L 745.365594 1052.614773 
L 747.003915 1053.186329 
L 751.190735 1054.418951 
L 754.467377 1055.45053 
L 756.833841 1056.169524 
L 759.38234 1056.951595 
L 760.838625 1057.369079 
L 766.663767 1059.018089 
L 768.666159 1059.55688 
L 780.316442 1062.323886 
L 781.954763 1062.737044 
L 783.411048 1063.171913 
L 784.321227 1063.50235 
L 785.959548 1064.096521 
L 791.966725 1065.996206 
L 793.605046 1066.487624 
L 796.335581 1067.328119 
L 802.160722 1069.411203 
L 804.709221 1070.300758 
L 807.803828 1071.313108 
L 814.903219 1073.877613 
L 819.818182 1076.054395 
L 822.548717 1077.483125 
L 827.827751 1080.54261 
L 830.194215 1081.94513 
L 838.749891 1086.820896 
L 843.300783 1089.900717 
L 848.579817 1093.856765 
L 852.948673 1097.199715 
L 860.048064 1102.120696 
L 864.234885 1104.969599 
L 865.69117 1105.960743 
L 869.87799 1107.916441 
L 870.970204 1108.345441 
L 871.516311 1108.738425 
L 873.700739 1109.966804 
L 874.610918 1110.383383 
L 875.703132 1111.00172 
L 878.615702 1112.181867 
L 879.343845 1112.645334 
L 880.436059 1113.329293 
L 884.804915 1115.655772 
L 891.904306 1118.782689 
L 899.003697 1122.644019 
L 901.916268 1123.859158 
L 904.828839 1125.058691 
L 907.923445 1126.463427 
L 910.65398 1127.835089 
L 911.382123 1128.181605 
L 914.658765 1129.43455 
L 917.207264 1130.428451 
L 923.578512 1132.75966 
L 927.03719 1133.567246 
L 930.859939 1134.181255 
L 933.226403 1134.471041 
L 934.864724 1134.685156 
L 937.231187 1134.902306 
L 943.602436 1135.360193 
L 945.240757 1135.508021 
L 947.243149 1135.68179 
L 948.517399 1136.042948 
L 949.973684 1136.672442 
L 952.340148 1137.751613 
L 954.706612 1137.735406 
L 954.706612 1137.735406 
" clip-path="url(#p72f348eb76)" style="fill: none; stroke: #2ca02c; stroke-width: 1.5; stroke-linecap: square"/>
   </g>
   <g id="line2d_68">
    <path d="M 608.838843 1018.911554 
L 609.202914 971.317246 
L 609.566986 950.695326 
L 609.931057 944.028033 
L 610.113093 942.431525 
L 610.295128 942.748167 
L 610.477164 942.397641 
L 610.6592 944.111925 
L 610.841235 944.35552 
L 611.023271 945.355811 
L 611.387342 946.008324 
L 611.933449 948.744396 
L 612.115485 950.007808 
L 612.661592 955.535027 
L 615.756198 980.970699 
L 617.030448 988.562277 
L 618.668769 996.986896 
L 621.945411 1009.670249 
L 625.404089 1019.810153 
L 628.862766 1028.413299 
L 629.772945 1030.354014 
L 631.775337 1034.14749 
L 632.685515 1035.758371 
L 636.6903 1042.469402 
L 638.692692 1045.266783 
L 639.784906 1046.704685 
L 641.059156 1048.38398 
L 642.697477 1050.20172 
L 643.243584 1050.758106 
L 643.42562 1050.823083 
L 643.789691 1051.209397 
L 644.335798 1051.72639 
L 645.428012 1052.738443 
L 645.974119 1053.190435 
L 652.163332 1058.236115 
L 652.709439 1058.620166 
L 656.350152 1061.346004 
L 659.262723 1063.530102 
L 663.267508 1065.939988 
L 664.541757 1066.690127 
L 665.451936 1067.187246 
L 666.362114 1067.669314 
L 667.818399 1068.540344 
L 668.546542 1068.912919 
L 669.45672 1069.398325 
L 678.922575 1074.878401 
L 679.832753 1075.404727 
L 680.742932 1075.861699 
L 683.109395 1076.968922 
L 690.936929 1081.510141 
L 693.485428 1082.750268 
L 694.577642 1083.333247 
L 695.487821 1083.761181 
L 696.033928 1083.958313 
L 699.674641 1085.425014 
L 702.041105 1086.386065 
L 707.138104 1089.007525 
L 708.230318 1089.515819 
L 710.778817 1090.671646 
L 713.691388 1091.693658 
L 718.788386 1093.833341 
L 727.526098 1097.250396 
L 738.630274 1101.526258 
L 740.450631 1102.273256 
L 744.455415 1103.833461 
L 746.457808 1104.656416 
L 751.918878 1106.699108 
L 753.375163 1107.239945 
L 756.651805 1108.551309 
L 764.297303 1111.486042 
L 766.11766 1112.362184 
L 768.666159 1113.513757 
L 769.940409 1114.052168 
L 773.581122 1115.524832 
L 776.311657 1116.725261 
L 781.22662 1118.69944 
L 784.321227 1119.91451 
L 786.505655 1120.627508 
L 788.872118 1121.466337 
L 794.69726 1123.432472 
L 799.976294 1125.449164 
L 812.536755 1129.405705 
L 815.26729 1130.183199 
L 819.818182 1131.467734 
L 827.281644 1133.349353 
L 828.555894 1133.682257 
L 831.468465 1134.316989 
L 833.834928 1134.828296 
L 836.019356 1135.216445 
L 840.570248 1136.020001 
L 842.390605 1136.258262 
L 848.761853 1137.245865 
L 851.310352 1137.622989 
L 852.402566 1137.731063 
L 854.404959 1137.994799 
L 867.511527 1139.460696 
L 869.331883 1139.628752 
L 874.610918 1140.11197 
L 878.069595 1140.356987 
L 887.53545 1140.952373 
L 889.901914 1141.120608 
L 894.816877 1141.313301 
L 900.095911 1141.436765 
L 903.736625 1141.452491 
L 907.741409 1141.502519 
L 910.289909 1141.406657 
L 916.11505 1140.907763 
L 925.398869 1139.949516 
L 934.318617 1138.92677 
L 940.507829 1138.351115 
L 948.699435 1137.84913 
L 954.524576 1137.735611 
L 954.706612 1137.735508 
L 954.706612 1137.735508 
" clip-path="url(#p72f348eb76)" style="fill: none; stroke: #d62728; stroke-width: 1.5; stroke-linecap: square"/>
   </g>
   <g id="patch_40">
    <path d="M 591.545455 1153.44 
L 591.545455 890.829474 
" style="fill: none; stroke: #000000; stroke-width: 0.8; stroke-linejoin: miter; stroke-linecap: square"/>
   </g>
   <g id="patch_41">
    <path d="M 972 1153.44 
L 972 890.829474 
" style="fill: none; stroke: #000000; stroke-width: 0.8; stroke-linejoin: miter; stroke-linecap: square"/>
   </g>
   <g id="patch_42">
    <path d="M 591.545455 1153.44 
L 972 1153.44 
" style="fill: none; stroke: #000000; stroke-width: 0.8; stroke-linejoin: miter; stroke-linecap: square"/>
   </g>
   <g id="patch_43">
    <path d="M 591.545455 890.829474 
L 972 890.829474 
" style="fill: none; stroke: #000000; stroke-width: 0.8; stroke-linejoin: miter; stroke-linecap: square"/>
   </g>
   <g id="text_68">
    <!-- f -->
    <g transform="translate(552.733636 872.71352) scale(0.28 -0.28)">
     <defs>
      <path id="DejaVuSans-Bold-66" d="M 2841 4863 
L 2841 4128 
L 2222 4128 
Q 1984 4128 1890 4042 
Q 1797 3956 1797 3744 
L 1797 3500 
L 2753 3500 
L 2753 2700 
L 1797 2700 
L 1797 0 
L 678 0 
L 678 2700 
L 122 2700 
L 122 3500 
L 678 3500 
L 678 3744 
Q 678 4316 997 4589 
Q 1316 4863 1984 4863 
L 2841 4863 
z
" transform="scale(0.015625)"/>
     </defs>
     <use xlink:href="#DejaVuSans-Bold-66"/>
    </g>
   </g>
   <g id="text_69">
    <!-- LCMC -->
    <g transform="translate(747.973977 884.829474) scale(0.24 -0.24)">
     <defs>
      <path id="DejaVuSans-4c" d="M 628 4666 
L 1259 4666 
L 1259 531 
L 3531 531 
L 3531 0 
L 628 0 
L 628 4666 
z
" transform="scale(0.015625)"/>
     </defs>
     <use xlink:href="#DejaVuSans-4c"/>
     <use xlink:href="#DejaVuSans-43" x="55.712891"/>
     <use xlink:href="#DejaVuSans-4d" x="125.537109"/>
     <use xlink:href="#DejaVuSans-43" x="211.816406"/>
    </g>
   </g>
  </g>
 </g>
 <defs>
  <clipPath id="p575d3e1f90">
   <rect x="135" y="155.52" width="380.454545" height="262.610526"/>
  </clipPath>
  <clipPath id="p7984b4ec03">
   <rect x="591.545455" y="155.52" width="380.454545" height="262.610526"/>
  </clipPath>
  <clipPath id="p9ae772678a">
   <rect x="135" y="523.174737" width="380.454545" height="262.610526"/>
  </clipPath>
  <clipPath id="p1968d0b52d">
   <rect x="591.545455" y="523.174737" width="380.454545" height="262.610526"/>
  </clipPath>
  <clipPath id="pc8a9628e12">
   <rect x="135" y="890.829474" width="380.454545" height="262.610526"/>
  </clipPath>
  <clipPath id="p72f348eb76">
   <rect x="591.545455" y="890.829474" width="380.454545" height="262.610526"/>
  </clipPath>
 </defs>
</svg>
