<?xml version="1.0" encoding="utf-8" standalone="no"?>
<!DOCTYPE svg PUBLIC "-//W3C//DTD SVG 1.1//EN"
  "http://www.w3.org/Graphics/SVG/1.1/DTD/svg11.dtd">
<svg xmlns:xlink="http://www.w3.org/1999/xlink" width="1080pt" height="1296pt" viewBox="0 0 1080 1296" xmlns="http://www.w3.org/2000/svg" version="1.1">
 <metadata>
  <rdf:RDF xmlns:dc="http://purl.org/dc/elements/1.1/" xmlns:cc="http://creativecommons.org/ns#" xmlns:rdf="http://www.w3.org/1999/02/22-rdf-syntax-ns#">
   <cc:Work>
    <dc:type rdf:resource="http://purl.org/dc/dcmitype/StillImage"/>
    <dc:date>2024-07-23T22:37:23.451391</dc:date>
    <dc:format>image/svg+xml</dc:format>
    <dc:creator>
     <cc:Agent>
      <dc:title>Matplotlib v3.8.4, https://matplotlib.org/</dc:title>
     </cc:Agent>
    </dc:creator>
   </cc:Work>
  </rdf:RDF>
 </metadata>
 <defs>
  <style type="text/css">*{stroke-linejoin: round; stroke-linecap: butt}</style>
 </defs>
 <g id="figure_1">
  <g id="patch_1">
   <path d="M 0 1296 
L 1080 1296 
L 1080 0 
L 0 0 
z
" style="fill: #ffffff"/>
  </g>
  <g id="axes_1">
   <g id="patch_2">
    <path d="M 135 418.130526 
L 515.454545 418.130526 
L 515.454545 155.52 
L 135 155.52 
z
" style="fill: #ffffff"/>
   </g>
   <g id="matplotlib.axis_1">
    <g id="xtick_1">
     <g id="line2d_1">
      <defs>
       <path id="m7e7fbfd55c" d="M 0 0 
L 0 3.5 
" style="stroke: #000000; stroke-width: 0.8"/>
      </defs>
      <g>
       <use xlink:href="#m7e7fbfd55c" x="137.882231" y="418.130526" style="stroke: #000000; stroke-width: 0.8"/>
      </g>
     </g>
     <g id="text_1">
      <!-- 0 -->
      <g transform="translate(131.519731 440.327401) scale(0.2 -0.2)">
       <defs>
        <path id="DejaVuSans-30" d="M 2034 4250 
Q 1547 4250 1301 3770 
Q 1056 3291 1056 2328 
Q 1056 1369 1301 889 
Q 1547 409 2034 409 
Q 2525 409 2770 889 
Q 3016 1369 3016 2328 
Q 3016 3291 2770 3770 
Q 2525 4250 2034 4250 
z
M 2034 4750 
Q 2819 4750 3233 4129 
Q 3647 3509 3647 2328 
Q 3647 1150 3233 529 
Q 2819 -91 2034 -91 
Q 1250 -91 836 529 
Q 422 1150 422 2328 
Q 422 3509 836 4129 
Q 1250 4750 2034 4750 
z
" transform="scale(0.015625)"/>
       </defs>
       <use xlink:href="#DejaVuSans-30"/>
      </g>
     </g>
    </g>
    <g id="xtick_2">
     <g id="line2d_2">
      <g>
       <use xlink:href="#m7e7fbfd55c" x="209.938017" y="418.130526" style="stroke: #000000; stroke-width: 0.8"/>
      </g>
     </g>
     <g id="text_2">
      <!-- 10 -->
      <g transform="translate(197.213017 440.327401) scale(0.2 -0.2)">
       <defs>
        <path id="DejaVuSans-31" d="M 794 531 
L 1825 531 
L 1825 4091 
L 703 3866 
L 703 4441 
L 1819 4666 
L 2450 4666 
L 2450 531 
L 3481 531 
L 3481 0 
L 794 0 
L 794 531 
z
" transform="scale(0.015625)"/>
       </defs>
       <use xlink:href="#DejaVuSans-31"/>
       <use xlink:href="#DejaVuSans-30" x="63.623047"/>
      </g>
     </g>
    </g>
    <g id="xtick_3">
     <g id="line2d_3">
      <g>
       <use xlink:href="#m7e7fbfd55c" x="281.993802" y="418.130526" style="stroke: #000000; stroke-width: 0.8"/>
      </g>
     </g>
     <g id="text_3">
      <!-- 20 -->
      <g transform="translate(269.268802 440.327401) scale(0.2 -0.2)">
       <defs>
        <path id="DejaVuSans-32" d="M 1228 531 
L 3431 531 
L 3431 0 
L 469 0 
L 469 531 
Q 828 903 1448 1529 
Q 2069 2156 2228 2338 
Q 2531 2678 2651 2914 
Q 2772 3150 2772 3378 
Q 2772 3750 2511 3984 
Q 2250 4219 1831 4219 
Q 1534 4219 1204 4116 
Q 875 4013 500 3803 
L 500 4441 
Q 881 4594 1212 4672 
Q 1544 4750 1819 4750 
Q 2544 4750 2975 4387 
Q 3406 4025 3406 3419 
Q 3406 3131 3298 2873 
Q 3191 2616 2906 2266 
Q 2828 2175 2409 1742 
Q 1991 1309 1228 531 
z
" transform="scale(0.015625)"/>
       </defs>
       <use xlink:href="#DejaVuSans-32"/>
       <use xlink:href="#DejaVuSans-30" x="63.623047"/>
      </g>
     </g>
    </g>
    <g id="xtick_4">
     <g id="line2d_4">
      <g>
       <use xlink:href="#m7e7fbfd55c" x="354.049587" y="418.130526" style="stroke: #000000; stroke-width: 0.8"/>
      </g>
     </g>
     <g id="text_4">
      <!-- 30 -->
      <g transform="translate(341.324587 440.327401) scale(0.2 -0.2)">
       <defs>
        <path id="DejaVuSans-33" d="M 2597 2516 
Q 3050 2419 3304 2112 
Q 3559 1806 3559 1356 
Q 3559 666 3084 287 
Q 2609 -91 1734 -91 
Q 1441 -91 1130 -33 
Q 819 25 488 141 
L 488 750 
Q 750 597 1062 519 
Q 1375 441 1716 441 
Q 2309 441 2620 675 
Q 2931 909 2931 1356 
Q 2931 1769 2642 2001 
Q 2353 2234 1838 2234 
L 1294 2234 
L 1294 2753 
L 1863 2753 
Q 2328 2753 2575 2939 
Q 2822 3125 2822 3475 
Q 2822 3834 2567 4026 
Q 2313 4219 1838 4219 
Q 1578 4219 1281 4162 
Q 984 4106 628 3988 
L 628 4550 
Q 988 4650 1302 4700 
Q 1616 4750 1894 4750 
Q 2613 4750 3031 4423 
Q 3450 4097 3450 3541 
Q 3450 3153 3228 2886 
Q 3006 2619 2597 2516 
z
" transform="scale(0.015625)"/>
       </defs>
       <use xlink:href="#DejaVuSans-33"/>
       <use xlink:href="#DejaVuSans-30" x="63.623047"/>
      </g>
     </g>
    </g>
    <g id="xtick_5">
     <g id="line2d_5">
      <g>
       <use xlink:href="#m7e7fbfd55c" x="426.105372" y="418.130526" style="stroke: #000000; stroke-width: 0.8"/>
      </g>
     </g>
     <g id="text_5">
      <!-- 40 -->
      <g transform="translate(413.380372 440.327401) scale(0.2 -0.2)">
       <defs>
        <path id="DejaVuSans-34" d="M 2419 4116 
L 825 1625 
L 2419 1625 
L 2419 4116 
z
M 2253 4666 
L 3047 4666 
L 3047 1625 
L 3713 1625 
L 3713 1100 
L 3047 1100 
L 3047 0 
L 2419 0 
L 2419 1100 
L 313 1100 
L 313 1709 
L 2253 4666 
z
" transform="scale(0.015625)"/>
       </defs>
       <use xlink:href="#DejaVuSans-34"/>
       <use xlink:href="#DejaVuSans-30" x="63.623047"/>
      </g>
     </g>
    </g>
    <g id="xtick_6">
     <g id="line2d_6">
      <g>
       <use xlink:href="#m7e7fbfd55c" x="498.161157" y="418.130526" style="stroke: #000000; stroke-width: 0.8"/>
      </g>
     </g>
     <g id="text_6">
      <!-- 50 -->
      <g transform="translate(485.436157 440.327401) scale(0.2 -0.2)">
       <defs>
        <path id="DejaVuSans-35" d="M 691 4666 
L 3169 4666 
L 3169 4134 
L 1269 4134 
L 1269 2991 
Q 1406 3038 1543 3061 
Q 1681 3084 1819 3084 
Q 2600 3084 3056 2656 
Q 3513 2228 3513 1497 
Q 3513 744 3044 326 
Q 2575 -91 1722 -91 
Q 1428 -91 1123 -41 
Q 819 9 494 109 
L 494 744 
Q 775 591 1075 516 
Q 1375 441 1709 441 
Q 2250 441 2565 725 
Q 2881 1009 2881 1497 
Q 2881 1984 2565 2268 
Q 2250 2553 1709 2553 
Q 1456 2553 1204 2497 
Q 953 2441 691 2322 
L 691 4666 
z
" transform="scale(0.015625)"/>
       </defs>
       <use xlink:href="#DejaVuSans-35"/>
       <use xlink:href="#DejaVuSans-30" x="63.623047"/>
      </g>
     </g>
    </g>
    <g id="text_7">
     <!-- k -->
     <g transform="translate(318.278523 466.723026) scale(0.24 -0.24)">
      <defs>
       <path id="DejaVuSans-6b" d="M 581 4863 
L 1159 4863 
L 1159 1991 
L 2875 3500 
L 3609 3500 
L 1753 1863 
L 3688 0 
L 2938 0 
L 1159 1709 
L 1159 0 
L 581 0 
L 581 4863 
z
" transform="scale(0.015625)"/>
      </defs>
      <use xlink:href="#DejaVuSans-6b"/>
     </g>
    </g>
   </g>
   <g id="matplotlib.axis_2">
    <g id="ytick_1">
     <g id="line2d_7">
      <defs>
       <path id="mf03729c4c2" d="M 0 0 
L -3.5 0 
" style="stroke: #000000; stroke-width: 0.8"/>
      </defs>
      <g>
       <use xlink:href="#mf03729c4c2" x="135" y="418.130526" style="stroke: #000000; stroke-width: 0.8"/>
      </g>
     </g>
     <g id="text_8">
      <!-- 0.0 -->
      <g transform="translate(96.19375 425.728964) scale(0.2 -0.2)">
       <defs>
        <path id="DejaVuSans-2e" d="M 684 794 
L 1344 794 
L 1344 0 
L 684 0 
L 684 794 
z
" transform="scale(0.015625)"/>
       </defs>
       <use xlink:href="#DejaVuSans-30"/>
       <use xlink:href="#DejaVuSans-2e" x="63.623047"/>
       <use xlink:href="#DejaVuSans-30" x="95.410156"/>
      </g>
     </g>
    </g>
    <g id="ytick_2">
     <g id="line2d_8">
      <g>
       <use xlink:href="#mf03729c4c2" x="135" y="352.477895" style="stroke: #000000; stroke-width: 0.8"/>
      </g>
     </g>
     <g id="text_9">
      <!-- 0.2 -->
      <g transform="translate(96.19375 360.076332) scale(0.2 -0.2)">
       <use xlink:href="#DejaVuSans-30"/>
       <use xlink:href="#DejaVuSans-2e" x="63.623047"/>
       <use xlink:href="#DejaVuSans-32" x="95.410156"/>
      </g>
     </g>
    </g>
    <g id="ytick_3">
     <g id="line2d_9">
      <g>
       <use xlink:href="#mf03729c4c2" x="135" y="286.825263" style="stroke: #000000; stroke-width: 0.8"/>
      </g>
     </g>
     <g id="text_10">
      <!-- 0.4 -->
      <g transform="translate(96.19375 294.423701) scale(0.2 -0.2)">
       <use xlink:href="#DejaVuSans-30"/>
       <use xlink:href="#DejaVuSans-2e" x="63.623047"/>
       <use xlink:href="#DejaVuSans-34" x="95.410156"/>
      </g>
     </g>
    </g>
    <g id="ytick_4">
     <g id="line2d_10">
      <g>
       <use xlink:href="#mf03729c4c2" x="135" y="221.172632" style="stroke: #000000; stroke-width: 0.8"/>
      </g>
     </g>
     <g id="text_11">
      <!-- 0.6 -->
      <g transform="translate(96.19375 228.771069) scale(0.2 -0.2)">
       <defs>
        <path id="DejaVuSans-36" d="M 2113 2584 
Q 1688 2584 1439 2293 
Q 1191 2003 1191 1497 
Q 1191 994 1439 701 
Q 1688 409 2113 409 
Q 2538 409 2786 701 
Q 3034 994 3034 1497 
Q 3034 2003 2786 2293 
Q 2538 2584 2113 2584 
z
M 3366 4563 
L 3366 3988 
Q 3128 4100 2886 4159 
Q 2644 4219 2406 4219 
Q 1781 4219 1451 3797 
Q 1122 3375 1075 2522 
Q 1259 2794 1537 2939 
Q 1816 3084 2150 3084 
Q 2853 3084 3261 2657 
Q 3669 2231 3669 1497 
Q 3669 778 3244 343 
Q 2819 -91 2113 -91 
Q 1303 -91 875 529 
Q 447 1150 447 2328 
Q 447 3434 972 4092 
Q 1497 4750 2381 4750 
Q 2619 4750 2861 4703 
Q 3103 4656 3366 4563 
z
" transform="scale(0.015625)"/>
       </defs>
       <use xlink:href="#DejaVuSans-30"/>
       <use xlink:href="#DejaVuSans-2e" x="63.623047"/>
       <use xlink:href="#DejaVuSans-36" x="95.410156"/>
      </g>
     </g>
    </g>
    <g id="ytick_5">
     <g id="line2d_11">
      <g>
       <use xlink:href="#mf03729c4c2" x="135" y="155.52" style="stroke: #000000; stroke-width: 0.8"/>
      </g>
     </g>
     <g id="text_12">
      <!-- 0.8 -->
      <g transform="translate(96.19375 163.118438) scale(0.2 -0.2)">
       <defs>
        <path id="DejaVuSans-38" d="M 2034 2216 
Q 1584 2216 1326 1975 
Q 1069 1734 1069 1313 
Q 1069 891 1326 650 
Q 1584 409 2034 409 
Q 2484 409 2743 651 
Q 3003 894 3003 1313 
Q 3003 1734 2745 1975 
Q 2488 2216 2034 2216 
z
M 1403 2484 
Q 997 2584 770 2862 
Q 544 3141 544 3541 
Q 544 4100 942 4425 
Q 1341 4750 2034 4750 
Q 2731 4750 3128 4425 
Q 3525 4100 3525 3541 
Q 3525 3141 3298 2862 
Q 3072 2584 2669 2484 
Q 3125 2378 3379 2068 
Q 3634 1759 3634 1313 
Q 3634 634 3220 271 
Q 2806 -91 2034 -91 
Q 1263 -91 848 271 
Q 434 634 434 1313 
Q 434 1759 690 2068 
Q 947 2378 1403 2484 
z
M 1172 3481 
Q 1172 3119 1398 2916 
Q 1625 2713 2034 2713 
Q 2441 2713 2670 2916 
Q 2900 3119 2900 3481 
Q 2900 3844 2670 4047 
Q 2441 4250 2034 4250 
Q 1625 4250 1398 4047 
Q 1172 3844 1172 3481 
z
" transform="scale(0.015625)"/>
       </defs>
       <use xlink:href="#DejaVuSans-30"/>
       <use xlink:href="#DejaVuSans-2e" x="63.623047"/>
       <use xlink:href="#DejaVuSans-38" x="95.410156"/>
      </g>
     </g>
    </g>
    <g id="text_13">
     <!-- $P_{NN}$ -->
     <g transform="translate(87.2025 306.985263) rotate(-90) scale(0.24 -0.24)">
      <defs>
       <path id="DejaVuSans-Oblique-50" d="M 1081 4666 
L 2541 4666 
Q 3178 4666 3512 4369 
Q 3847 4072 3847 3500 
Q 3847 2731 3353 2303 
Q 2859 1875 1966 1875 
L 1172 1875 
L 806 0 
L 172 0 
L 1081 4666 
z
M 1613 4147 
L 1275 2394 
L 2069 2394 
Q 2606 2394 2893 2669 
Q 3181 2944 3181 3456 
Q 3181 3784 2986 3965 
Q 2791 4147 2438 4147 
L 1613 4147 
z
" transform="scale(0.015625)"/>
       <path id="DejaVuSans-Oblique-4e" d="M 1081 4666 
L 1931 4666 
L 3219 666 
L 4000 4666 
L 4616 4666 
L 3706 0 
L 2853 0 
L 1569 4025 
L 788 0 
L 172 0 
L 1081 4666 
z
" transform="scale(0.015625)"/>
      </defs>
      <use xlink:href="#DejaVuSans-Oblique-50" transform="translate(0 0.09375)"/>
      <use xlink:href="#DejaVuSans-Oblique-4e" transform="translate(60.302734 -16.3125) scale(0.7)"/>
      <use xlink:href="#DejaVuSans-Oblique-4e" transform="translate(112.666016 -16.3125) scale(0.7)"/>
     </g>
    </g>
   </g>
   <g id="line2d_12">
    <path d="M 152.293388 405.405376 
L 173.910124 392.98502 
L 209.938017 384.633664 
L 281.993802 377.333847 
L 498.161157 372.469334 
" clip-path="url(#p31e792433b)" style="fill: none; stroke: #1f77b4; stroke-width: 1.5; stroke-linecap: square"/>
    <defs>
     <path id="m6b0a5420a8" d="M 0 3 
C 0.795609 3 1.55874 2.683901 2.12132 2.12132 
C 2.683901 1.55874 3 0.795609 3 0 
C 3 -0.795609 2.683901 -1.55874 2.12132 -2.12132 
C 1.55874 -2.683901 0.795609 -3 0 -3 
C -0.795609 -3 -1.55874 -2.683901 -2.12132 -2.12132 
C -2.683901 -1.55874 -3 -0.795609 -3 0 
C -3 0.795609 -2.683901 1.55874 -2.12132 2.12132 
C -1.55874 2.683901 -0.795609 3 0 3 
z
" style="stroke: #1f77b4"/>
    </defs>
    <g clip-path="url(#p31e792433b)">
     <use xlink:href="#m6b0a5420a8" x="152.293388" y="405.405376" style="fill: #1f77b4; stroke: #1f77b4"/>
     <use xlink:href="#m6b0a5420a8" x="173.910124" y="392.98502" style="fill: #1f77b4; stroke: #1f77b4"/>
     <use xlink:href="#m6b0a5420a8" x="209.938017" y="384.633664" style="fill: #1f77b4; stroke: #1f77b4"/>
     <use xlink:href="#m6b0a5420a8" x="281.993802" y="377.333847" style="fill: #1f77b4; stroke: #1f77b4"/>
     <use xlink:href="#m6b0a5420a8" x="498.161157" y="372.469334" style="fill: #1f77b4; stroke: #1f77b4"/>
    </g>
   </g>
   <g id="line2d_13">
    <path d="M 152.293388 271.600802 
L 173.910124 251.682513 
L 209.938017 251.972067 
L 281.993802 269.208169 
L 498.161157 308.014543 
" clip-path="url(#p31e792433b)" style="fill: none; stroke: #ff7f0e; stroke-width: 1.5; stroke-linecap: square"/>
    <defs>
     <path id="m8041f22210" d="M 0 3 
C 0.795609 3 1.55874 2.683901 2.12132 2.12132 
C 2.683901 1.55874 3 0.795609 3 0 
C 3 -0.795609 2.683901 -1.55874 2.12132 -2.12132 
C 1.55874 -2.683901 0.795609 -3 0 -3 
C -0.795609 -3 -1.55874 -2.683901 -2.12132 -2.12132 
C -2.683901 -1.55874 -3 -0.795609 -3 0 
C -3 0.795609 -2.683901 1.55874 -2.12132 2.12132 
C -1.55874 2.683901 -0.795609 3 0 3 
z
" style="stroke: #ff7f0e"/>
    </defs>
    <g clip-path="url(#p31e792433b)">
     <use xlink:href="#m8041f22210" x="152.293388" y="271.600802" style="fill: #ff7f0e; stroke: #ff7f0e"/>
     <use xlink:href="#m8041f22210" x="173.910124" y="251.682513" style="fill: #ff7f0e; stroke: #ff7f0e"/>
     <use xlink:href="#m8041f22210" x="209.938017" y="251.972067" style="fill: #ff7f0e; stroke: #ff7f0e"/>
     <use xlink:href="#m8041f22210" x="281.993802" y="269.208169" style="fill: #ff7f0e; stroke: #ff7f0e"/>
     <use xlink:href="#m8041f22210" x="498.161157" y="308.014543" style="fill: #ff7f0e; stroke: #ff7f0e"/>
    </g>
   </g>
   <g id="line2d_14">
    <path d="M 152.293388 329.511665 
L 173.910124 290.635188 
L 209.938017 271.18933 
L 281.993802 278.793941 
L 498.161157 310.967997 
" clip-path="url(#p31e792433b)" style="fill: none; stroke: #2ca02c; stroke-width: 1.5; stroke-linecap: square"/>
    <defs>
     <path id="m5f2167f1e1" d="M 0 3 
C 0.795609 3 1.55874 2.683901 2.12132 2.12132 
C 2.683901 1.55874 3 0.795609 3 0 
C 3 -0.795609 2.683901 -1.55874 2.12132 -2.12132 
C 1.55874 -2.683901 0.795609 -3 0 -3 
C -0.795609 -3 -1.55874 -2.683901 -2.12132 -2.12132 
C -2.683901 -1.55874 -3 -0.795609 -3 0 
C -3 0.795609 -2.683901 1.55874 -2.12132 2.12132 
C -1.55874 2.683901 -0.795609 3 0 3 
z
" style="stroke: #2ca02c"/>
    </defs>
    <g clip-path="url(#p31e792433b)">
     <use xlink:href="#m5f2167f1e1" x="152.293388" y="329.511665" style="fill: #2ca02c; stroke: #2ca02c"/>
     <use xlink:href="#m5f2167f1e1" x="173.910124" y="290.635188" style="fill: #2ca02c; stroke: #2ca02c"/>
     <use xlink:href="#m5f2167f1e1" x="209.938017" y="271.18933" style="fill: #2ca02c; stroke: #2ca02c"/>
     <use xlink:href="#m5f2167f1e1" x="281.993802" y="278.793941" style="fill: #2ca02c; stroke: #2ca02c"/>
     <use xlink:href="#m5f2167f1e1" x="498.161157" y="310.967997" style="fill: #2ca02c; stroke: #2ca02c"/>
    </g>
   </g>
   <g id="line2d_15">
    <path d="M 152.293388 337.512508 
L 173.910124 308.465638 
L 209.938017 286.002319 
L 281.993802 283.251553 
L 498.161157 309.730534 
" clip-path="url(#p31e792433b)" style="fill: none; stroke: #d62728; stroke-width: 1.5; stroke-linecap: square"/>
    <defs>
     <path id="mf48845f06a" d="M 0 3 
C 0.795609 3 1.55874 2.683901 2.12132 2.12132 
C 2.683901 1.55874 3 0.795609 3 0 
C 3 -0.795609 2.683901 -1.55874 2.12132 -2.12132 
C 1.55874 -2.683901 0.795609 -3 0 -3 
C -0.795609 -3 -1.55874 -2.683901 -2.12132 -2.12132 
C -2.683901 -1.55874 -3 -0.795609 -3 0 
C -3 0.795609 -2.683901 1.55874 -2.12132 2.12132 
C -1.55874 2.683901 -0.795609 3 0 3 
z
" style="stroke: #d62728"/>
    </defs>
    <g clip-path="url(#p31e792433b)">
     <use xlink:href="#mf48845f06a" x="152.293388" y="337.512508" style="fill: #d62728; stroke: #d62728"/>
     <use xlink:href="#mf48845f06a" x="173.910124" y="308.465638" style="fill: #d62728; stroke: #d62728"/>
     <use xlink:href="#mf48845f06a" x="209.938017" y="286.002319" style="fill: #d62728; stroke: #d62728"/>
     <use xlink:href="#mf48845f06a" x="281.993802" y="283.251553" style="fill: #d62728; stroke: #d62728"/>
     <use xlink:href="#mf48845f06a" x="498.161157" y="309.730534" style="fill: #d62728; stroke: #d62728"/>
    </g>
   </g>
   <g id="patch_3">
    <path d="M 135 418.130526 
L 135 155.52 
" style="fill: none; stroke: #000000; stroke-width: 0.8; stroke-linejoin: miter; stroke-linecap: square"/>
   </g>
   <g id="patch_4">
    <path d="M 515.454545 418.130526 
L 515.454545 155.52 
" style="fill: none; stroke: #000000; stroke-width: 0.8; stroke-linejoin: miter; stroke-linecap: square"/>
   </g>
   <g id="patch_5">
    <path d="M 135 418.130526 
L 515.454545 418.130526 
" style="fill: none; stroke: #000000; stroke-width: 0.8; stroke-linejoin: miter; stroke-linecap: square"/>
   </g>
   <g id="patch_6">
    <path d="M 135 155.52 
L 515.454545 155.52 
" style="fill: none; stroke: #000000; stroke-width: 0.8; stroke-linejoin: miter; stroke-linecap: square"/>
   </g>
   <g id="text_14">
    <!-- a -->
    <g transform="translate(89.472557 137.404046) scale(0.28 -0.28)">
     <defs>
      <path id="DejaVuSans-Bold-61" d="M 2106 1575 
Q 1756 1575 1579 1456 
Q 1403 1338 1403 1106 
Q 1403 894 1545 773 
Q 1688 653 1941 653 
Q 2256 653 2472 879 
Q 2688 1106 2688 1447 
L 2688 1575 
L 2106 1575 
z
M 3816 1997 
L 3816 0 
L 2688 0 
L 2688 519 
Q 2463 200 2181 54 
Q 1900 -91 1497 -91 
Q 953 -91 614 226 
Q 275 544 275 1050 
Q 275 1666 698 1953 
Q 1122 2241 2028 2241 
L 2688 2241 
L 2688 2328 
Q 2688 2594 2478 2717 
Q 2269 2841 1825 2841 
Q 1466 2841 1156 2769 
Q 847 2697 581 2553 
L 581 3406 
Q 941 3494 1303 3539 
Q 1666 3584 2028 3584 
Q 2975 3584 3395 3211 
Q 3816 2838 3816 1997 
z
" transform="scale(0.015625)"/>
     </defs>
     <use xlink:href="#DejaVuSans-Bold-61"/>
    </g>
   </g>
   <g id="text_15">
    <!-- $P_{NN}$ -->
    <g transform="translate(303.387273 149.52) scale(0.26 -0.26)">
     <use xlink:href="#DejaVuSans-Oblique-50" transform="translate(0 0.09375)"/>
     <use xlink:href="#DejaVuSans-Oblique-4e" transform="translate(60.302734 -16.3125) scale(0.7)"/>
     <use xlink:href="#DejaVuSans-Oblique-4e" transform="translate(112.666016 -16.3125) scale(0.7)"/>
    </g>
   </g>
  </g>
  <g id="axes_2">
   <g id="patch_7">
    <path d="M 591.545455 418.130526 
L 972 418.130526 
L 972 155.52 
L 591.545455 155.52 
z
" style="fill: #ffffff"/>
   </g>
   <g id="patch_8">
    <path d="M 608.838843 418.130526 
L 628.792753 418.130526 
L 628.792753 177.873473 
L 608.838843 177.873473 
z
" clip-path="url(#p2d783c16dc)" style="fill: #1f77b4"/>
   </g>
   <g id="patch_9">
    <path d="M 741.864908 418.130526 
L 761.818818 418.130526 
L 761.818818 368.57324 
L 741.864908 368.57324 
z
" clip-path="url(#p2d783c16dc)" style="fill: #1f77b4"/>
   </g>
   <g id="patch_10">
    <path d="M 874.890973 418.130526 
L 894.844882 418.130526 
L 894.844882 174.791424 
L 874.890973 174.791424 
z
" clip-path="url(#p2d783c16dc)" style="fill: #1f77b4"/>
   </g>
   <g id="patch_11">
    <path d="M 628.792753 418.130526 
L 648.746662 418.130526 
L 648.746662 171.988963 
L 628.792753 171.988963 
z
" clip-path="url(#p2d783c16dc)" style="fill: #ff7f0e"/>
   </g>
   <g id="patch_12">
    <path d="M 761.818818 418.130526 
L 781.772727 418.130526 
L 781.772727 203.234176 
L 761.818818 203.234176 
z
" clip-path="url(#p2d783c16dc)" style="fill: #ff7f0e"/>
   </g>
   <g id="patch_13">
    <path d="M 894.844882 418.130526 
L 914.798792 418.130526 
L 914.798792 171.875593 
L 894.844882 171.875593 
z
" clip-path="url(#p2d783c16dc)" style="fill: #ff7f0e"/>
   </g>
   <g id="patch_14">
    <path d="M 648.746662 418.130526 
L 668.700572 418.130526 
L 668.700572 179.800325 
L 648.746662 179.800325 
z
" clip-path="url(#p2d783c16dc)" style="fill: #2ca02c"/>
   </g>
   <g id="patch_15">
    <path d="M 781.772727 418.130526 
L 801.726637 418.130526 
L 801.726637 243.775209 
L 781.772727 243.775209 
z
" clip-path="url(#p2d783c16dc)" style="fill: #2ca02c"/>
   </g>
   <g id="patch_16">
    <path d="M 914.798792 418.130526 
L 934.752702 418.130526 
L 934.752702 179.415251 
L 914.798792 179.415251 
z
" clip-path="url(#p2d783c16dc)" style="fill: #2ca02c"/>
   </g>
   <g id="patch_17">
    <path d="M 668.700572 418.130526 
L 688.654482 418.130526 
L 688.654482 168.649952 
L 668.700572 168.649952 
z
" clip-path="url(#p2d783c16dc)" style="fill: #d62728"/>
   </g>
   <g id="patch_18">
    <path d="M 801.726637 418.130526 
L 821.680547 418.130526 
L 821.680547 258.645876 
L 801.726637 258.645876 
z
" clip-path="url(#p2d783c16dc)" style="fill: #d62728"/>
   </g>
   <g id="patch_19">
    <path d="M 934.752702 418.130526 
L 954.706612 418.130526 
L 954.706612 168.025263 
L 934.752702 168.025263 
z
" clip-path="url(#p2d783c16dc)" style="fill: #d62728"/>
   </g>
   <g id="matplotlib.axis_3">
    <g id="xtick_7">
     <g id="line2d_16">
      <g>
       <use xlink:href="#m7e7fbfd55c" x="648.746662" y="418.130526" style="stroke: #000000; stroke-width: 0.8"/>
      </g>
     </g>
     <g id="text_16">
      <!-- AUC -->
      <g transform="translate(625.490256 441.847089) scale(0.22 -0.22)">
       <defs>
        <path id="DejaVuSans-41" d="M 2188 4044 
L 1331 1722 
L 3047 1722 
L 2188 4044 
z
M 1831 4666 
L 2547 4666 
L 4325 0 
L 3669 0 
L 3244 1197 
L 1141 1197 
L 716 0 
L 50 0 
L 1831 4666 
z
" transform="scale(0.015625)"/>
        <path id="DejaVuSans-55" d="M 556 4666 
L 1191 4666 
L 1191 1831 
Q 1191 1081 1462 751 
Q 1734 422 2344 422 
Q 2950 422 3222 751 
Q 3494 1081 3494 1831 
L 3494 4666 
L 4128 4666 
L 4128 1753 
Q 4128 841 3676 375 
Q 3225 -91 2344 -91 
Q 1459 -91 1007 375 
Q 556 841 556 1753 
L 556 4666 
z
" transform="scale(0.015625)"/>
        <path id="DejaVuSans-43" d="M 4122 4306 
L 4122 3641 
Q 3803 3938 3442 4084 
Q 3081 4231 2675 4231 
Q 1875 4231 1450 3742 
Q 1025 3253 1025 2328 
Q 1025 1406 1450 917 
Q 1875 428 2675 428 
Q 3081 428 3442 575 
Q 3803 722 4122 1019 
L 4122 359 
Q 3791 134 3420 21 
Q 3050 -91 2638 -91 
Q 1578 -91 968 557 
Q 359 1206 359 2328 
Q 359 3453 968 4101 
Q 1578 4750 2638 4750 
Q 3056 4750 3426 4639 
Q 3797 4528 4122 4306 
z
" transform="scale(0.015625)"/>
       </defs>
       <use xlink:href="#DejaVuSans-41"/>
       <use xlink:href="#DejaVuSans-55" x="68.408203"/>
       <use xlink:href="#DejaVuSans-43" x="141.601562"/>
      </g>
     </g>
    </g>
    <g id="xtick_8">
     <g id="line2d_17">
      <g>
       <use xlink:href="#m7e7fbfd55c" x="781.772727" y="418.130526" style="stroke: #000000; stroke-width: 0.8"/>
      </g>
     </g>
     <g id="text_17">
      <!-- $Q_{local}$ -->
      <g transform="translate(754.822727 441.847089) scale(0.22 -0.22)">
       <defs>
        <path id="DejaVuSans-Oblique-51" d="M 2309 -84 
Q 2275 -88 2237 -89 
Q 2200 -91 2125 -91 
Q 1250 -91 756 411 
Q 263 913 263 1797 
Q 263 2319 452 2844 
Q 641 3369 978 3788 
Q 1369 4269 1858 4509 
Q 2347 4750 2938 4750 
Q 3794 4750 4287 4245 
Q 4781 3741 4781 2869 
Q 4781 1928 4265 1147 
Q 3750 366 2919 44 
L 3553 -825 
L 2847 -825 
L 2309 -84 
z
M 2919 4238 
Q 2400 4238 2003 3986 
Q 1606 3734 1313 3219 
Q 1125 2891 1026 2522 
Q 928 2153 928 1778 
Q 928 1128 1239 775 
Q 1550 422 2119 422 
Q 2631 422 3032 676 
Q 3434 931 3719 1434 
Q 3909 1772 4009 2142 
Q 4109 2513 4109 2881 
Q 4109 3528 3796 3883 
Q 3484 4238 2919 4238 
z
" transform="scale(0.015625)"/>
        <path id="DejaVuSans-Oblique-6c" d="M 1172 4863 
L 1747 4863 
L 800 0 
L 225 0 
L 1172 4863 
z
" transform="scale(0.015625)"/>
        <path id="DejaVuSans-Oblique-6f" d="M 1625 -91 
Q 1009 -91 651 289 
Q 294 669 294 1325 
Q 294 1706 417 2101 
Q 541 2497 738 2766 
Q 1047 3184 1428 3384 
Q 1809 3584 2291 3584 
Q 2888 3584 3255 3212 
Q 3622 2841 3622 2241 
Q 3622 1825 3500 1412 
Q 3378 1000 3181 728 
Q 2875 309 2494 109 
Q 2113 -91 1625 -91 
z
M 891 1344 
Q 891 869 1089 633 
Q 1288 397 1691 397 
Q 2269 397 2648 901 
Q 3028 1406 3028 2181 
Q 3028 2634 2825 2865 
Q 2622 3097 2228 3097 
Q 1903 3097 1650 2945 
Q 1397 2794 1197 2484 
Q 1050 2253 970 1956 
Q 891 1659 891 1344 
z
" transform="scale(0.015625)"/>
        <path id="DejaVuSans-Oblique-63" d="M 3431 3366 
L 3316 2797 
Q 3109 2947 2876 3022 
Q 2644 3097 2394 3097 
Q 2119 3097 1870 3000 
Q 1622 2903 1453 2725 
Q 1184 2453 1037 2087 
Q 891 1722 891 1331 
Q 891 859 1127 628 
Q 1363 397 1844 397 
Q 2081 397 2348 469 
Q 2616 541 2906 684 
L 2797 116 
Q 2547 13 2283 -39 
Q 2019 -91 1741 -91 
Q 1044 -91 669 257 
Q 294 606 294 1253 
Q 294 1797 489 2255 
Q 684 2713 1069 3078 
Q 1331 3328 1684 3456 
Q 2038 3584 2456 3584 
Q 2700 3584 2940 3529 
Q 3181 3475 3431 3366 
z
" transform="scale(0.015625)"/>
        <path id="DejaVuSans-Oblique-61" d="M 3438 1997 
L 3047 0 
L 2472 0 
L 2578 531 
Q 2325 219 2001 64 
Q 1678 -91 1281 -91 
Q 834 -91 548 182 
Q 263 456 263 884 
Q 263 1497 752 1853 
Q 1241 2209 2100 2209 
L 2900 2209 
L 2931 2363 
Q 2938 2388 2941 2417 
Q 2944 2447 2944 2509 
Q 2944 2788 2717 2942 
Q 2491 3097 2081 3097 
Q 1800 3097 1504 3025 
Q 1209 2953 897 2809 
L 997 3341 
Q 1322 3463 1633 3523 
Q 1944 3584 2234 3584 
Q 2853 3584 3176 3315 
Q 3500 3047 3500 2534 
Q 3500 2431 3484 2292 
Q 3469 2153 3438 1997 
z
M 2816 1759 
L 2241 1759 
Q 1534 1759 1195 1570 
Q 856 1381 856 984 
Q 856 709 1029 553 
Q 1203 397 1509 397 
Q 1978 397 2328 733 
Q 2678 1069 2791 1631 
L 2816 1759 
z
" transform="scale(0.015625)"/>
       </defs>
       <use xlink:href="#DejaVuSans-Oblique-51" transform="translate(0 0.78125)"/>
       <use xlink:href="#DejaVuSans-Oblique-6c" transform="translate(78.710938 -15.625) scale(0.7)"/>
       <use xlink:href="#DejaVuSans-Oblique-6f" transform="translate(98.15918 -15.625) scale(0.7)"/>
       <use xlink:href="#DejaVuSans-Oblique-63" transform="translate(140.986328 -15.625) scale(0.7)"/>
       <use xlink:href="#DejaVuSans-Oblique-61" transform="translate(179.472656 -15.625) scale(0.7)"/>
       <use xlink:href="#DejaVuSans-Oblique-6c" transform="translate(222.368164 -15.625) scale(0.7)"/>
      </g>
     </g>
    </g>
    <g id="xtick_9">
     <g id="line2d_18">
      <g>
       <use xlink:href="#m7e7fbfd55c" x="914.798792" y="418.130526" style="stroke: #000000; stroke-width: 0.8"/>
      </g>
     </g>
     <g id="text_18">
      <!-- $Q_{global}$ -->
      <g transform="translate(882.348792 441.630526) scale(0.22 -0.22)">
       <defs>
        <path id="DejaVuSans-Oblique-67" d="M 3816 3500 
L 3219 434 
Q 3047 -456 2561 -893 
Q 2075 -1331 1253 -1331 
Q 950 -1331 690 -1286 
Q 431 -1241 206 -1147 
L 313 -588 
Q 525 -725 762 -790 
Q 1000 -856 1269 -856 
Q 1816 -856 2167 -557 
Q 2519 -259 2631 300 
L 2681 563 
Q 2441 288 2122 144 
Q 1803 0 1434 0 
Q 903 0 598 351 
Q 294 703 294 1319 
Q 294 1803 478 2267 
Q 663 2731 997 3091 
Q 1219 3328 1514 3456 
Q 1809 3584 2131 3584 
Q 2484 3584 2746 3420 
Q 3009 3256 3138 2956 
L 3238 3500 
L 3816 3500 
z
M 2950 2216 
Q 2950 2641 2750 2872 
Q 2550 3103 2181 3103 
Q 1953 3103 1747 3012 
Q 1541 2922 1394 2759 
Q 1156 2491 1023 2127 
Q 891 1763 891 1375 
Q 891 944 1092 712 
Q 1294 481 1672 481 
Q 2219 481 2584 976 
Q 2950 1472 2950 2216 
z
" transform="scale(0.015625)"/>
        <path id="DejaVuSans-Oblique-62" d="M 3169 2138 
Q 3169 2591 2961 2847 
Q 2753 3103 2388 3103 
Q 2122 3103 1889 2973 
Q 1656 2844 1484 2597 
Q 1303 2338 1198 1995 
Q 1094 1653 1094 1313 
Q 1094 881 1298 636 
Q 1503 391 1863 391 
Q 2134 391 2365 517 
Q 2597 644 2772 891 
Q 2950 1147 3059 1487 
Q 3169 1828 3169 2138 
z
M 1381 2969 
Q 1594 3256 1914 3420 
Q 2234 3584 2584 3584 
Q 3122 3584 3439 3221 
Q 3756 2859 3756 2241 
Q 3756 1734 3570 1259 
Q 3384 784 3041 416 
Q 2816 172 2522 40 
Q 2228 -91 1906 -91 
Q 1566 -91 1316 65 
Q 1066 222 909 531 
L 806 0 
L 231 0 
L 1178 4863 
L 1753 4863 
L 1381 2969 
z
" transform="scale(0.015625)"/>
       </defs>
       <use xlink:href="#DejaVuSans-Oblique-51" transform="translate(0 0.78125)"/>
       <use xlink:href="#DejaVuSans-Oblique-67" transform="translate(78.710938 -15.625) scale(0.7)"/>
       <use xlink:href="#DejaVuSans-Oblique-6c" transform="translate(123.144531 -15.625) scale(0.7)"/>
       <use xlink:href="#DejaVuSans-Oblique-6f" transform="translate(142.592773 -15.625) scale(0.7)"/>
       <use xlink:href="#DejaVuSans-Oblique-62" transform="translate(185.419922 -15.625) scale(0.7)"/>
       <use xlink:href="#DejaVuSans-Oblique-61" transform="translate(229.853516 -15.625) scale(0.7)"/>
       <use xlink:href="#DejaVuSans-Oblique-6c" transform="translate(272.749023 -15.625) scale(0.7)"/>
      </g>
     </g>
    </g>
   </g>
   <g id="matplotlib.axis_4">
    <g id="ytick_6">
     <g id="line2d_19">
      <g>
       <use xlink:href="#mf03729c4c2" x="591.545455" y="418.130526" style="stroke: #000000; stroke-width: 0.8"/>
      </g>
     </g>
     <g id="text_19">
      <!-- 0.0 -->
      <g transform="translate(549.55858 426.488808) scale(0.22 -0.22)">
       <use xlink:href="#DejaVuSans-30"/>
       <use xlink:href="#DejaVuSans-2e" x="63.623047"/>
       <use xlink:href="#DejaVuSans-30" x="95.410156"/>
      </g>
     </g>
    </g>
    <g id="ytick_7">
     <g id="line2d_20">
      <g>
       <use xlink:href="#mf03729c4c2" x="591.545455" y="327.987321" style="stroke: #000000; stroke-width: 0.8"/>
      </g>
     </g>
     <g id="text_20">
      <!-- 0.2 -->
      <g transform="translate(549.55858 336.345602) scale(0.22 -0.22)">
       <use xlink:href="#DejaVuSans-30"/>
       <use xlink:href="#DejaVuSans-2e" x="63.623047"/>
       <use xlink:href="#DejaVuSans-32" x="95.410156"/>
      </g>
     </g>
    </g>
    <g id="ytick_8">
     <g id="line2d_21">
      <g>
       <use xlink:href="#mf03729c4c2" x="591.545455" y="237.844116" style="stroke: #000000; stroke-width: 0.8"/>
      </g>
     </g>
     <g id="text_21">
      <!-- 0.4 -->
      <g transform="translate(549.55858 246.202397) scale(0.22 -0.22)">
       <use xlink:href="#DejaVuSans-30"/>
       <use xlink:href="#DejaVuSans-2e" x="63.623047"/>
       <use xlink:href="#DejaVuSans-34" x="95.410156"/>
      </g>
     </g>
    </g>
    <g id="text_22">
     <!-- Metric Value -->
     <g transform="translate(540.983267 354.727919) rotate(-90) scale(0.22 -0.22)">
      <defs>
       <path id="DejaVuSans-4d" d="M 628 4666 
L 1569 4666 
L 2759 1491 
L 3956 4666 
L 4897 4666 
L 4897 0 
L 4281 0 
L 4281 4097 
L 3078 897 
L 2444 897 
L 1241 4097 
L 1241 0 
L 628 0 
L 628 4666 
z
" transform="scale(0.015625)"/>
       <path id="DejaVuSans-65" d="M 3597 1894 
L 3597 1613 
L 953 1613 
Q 991 1019 1311 708 
Q 1631 397 2203 397 
Q 2534 397 2845 478 
Q 3156 559 3463 722 
L 3463 178 
Q 3153 47 2828 -22 
Q 2503 -91 2169 -91 
Q 1331 -91 842 396 
Q 353 884 353 1716 
Q 353 2575 817 3079 
Q 1281 3584 2069 3584 
Q 2775 3584 3186 3129 
Q 3597 2675 3597 1894 
z
M 3022 2063 
Q 3016 2534 2758 2815 
Q 2500 3097 2075 3097 
Q 1594 3097 1305 2825 
Q 1016 2553 972 2059 
L 3022 2063 
z
" transform="scale(0.015625)"/>
       <path id="DejaVuSans-74" d="M 1172 4494 
L 1172 3500 
L 2356 3500 
L 2356 3053 
L 1172 3053 
L 1172 1153 
Q 1172 725 1289 603 
Q 1406 481 1766 481 
L 2356 481 
L 2356 0 
L 1766 0 
Q 1100 0 847 248 
Q 594 497 594 1153 
L 594 3053 
L 172 3053 
L 172 3500 
L 594 3500 
L 594 4494 
L 1172 4494 
z
" transform="scale(0.015625)"/>
       <path id="DejaVuSans-72" d="M 2631 2963 
Q 2534 3019 2420 3045 
Q 2306 3072 2169 3072 
Q 1681 3072 1420 2755 
Q 1159 2438 1159 1844 
L 1159 0 
L 581 0 
L 581 3500 
L 1159 3500 
L 1159 2956 
Q 1341 3275 1631 3429 
Q 1922 3584 2338 3584 
Q 2397 3584 2469 3576 
Q 2541 3569 2628 3553 
L 2631 2963 
z
" transform="scale(0.015625)"/>
       <path id="DejaVuSans-69" d="M 603 3500 
L 1178 3500 
L 1178 0 
L 603 0 
L 603 3500 
z
M 603 4863 
L 1178 4863 
L 1178 4134 
L 603 4134 
L 603 4863 
z
" transform="scale(0.015625)"/>
       <path id="DejaVuSans-63" d="M 3122 3366 
L 3122 2828 
Q 2878 2963 2633 3030 
Q 2388 3097 2138 3097 
Q 1578 3097 1268 2742 
Q 959 2388 959 1747 
Q 959 1106 1268 751 
Q 1578 397 2138 397 
Q 2388 397 2633 464 
Q 2878 531 3122 666 
L 3122 134 
Q 2881 22 2623 -34 
Q 2366 -91 2075 -91 
Q 1284 -91 818 406 
Q 353 903 353 1747 
Q 353 2603 823 3093 
Q 1294 3584 2113 3584 
Q 2378 3584 2631 3529 
Q 2884 3475 3122 3366 
z
" transform="scale(0.015625)"/>
       <path id="DejaVuSans-20" transform="scale(0.015625)"/>
       <path id="DejaVuSans-56" d="M 1831 0 
L 50 4666 
L 709 4666 
L 2188 738 
L 3669 4666 
L 4325 4666 
L 2547 0 
L 1831 0 
z
" transform="scale(0.015625)"/>
       <path id="DejaVuSans-61" d="M 2194 1759 
Q 1497 1759 1228 1600 
Q 959 1441 959 1056 
Q 959 750 1161 570 
Q 1363 391 1709 391 
Q 2188 391 2477 730 
Q 2766 1069 2766 1631 
L 2766 1759 
L 2194 1759 
z
M 3341 1997 
L 3341 0 
L 2766 0 
L 2766 531 
Q 2569 213 2275 61 
Q 1981 -91 1556 -91 
Q 1019 -91 701 211 
Q 384 513 384 1019 
Q 384 1609 779 1909 
Q 1175 2209 1959 2209 
L 2766 2209 
L 2766 2266 
Q 2766 2663 2505 2880 
Q 2244 3097 1772 3097 
Q 1472 3097 1187 3025 
Q 903 2953 641 2809 
L 641 3341 
Q 956 3463 1253 3523 
Q 1550 3584 1831 3584 
Q 2591 3584 2966 3190 
Q 3341 2797 3341 1997 
z
" transform="scale(0.015625)"/>
       <path id="DejaVuSans-6c" d="M 603 4863 
L 1178 4863 
L 1178 0 
L 603 0 
L 603 4863 
z
" transform="scale(0.015625)"/>
       <path id="DejaVuSans-75" d="M 544 1381 
L 544 3500 
L 1119 3500 
L 1119 1403 
Q 1119 906 1312 657 
Q 1506 409 1894 409 
Q 2359 409 2629 706 
Q 2900 1003 2900 1516 
L 2900 3500 
L 3475 3500 
L 3475 0 
L 2900 0 
L 2900 538 
Q 2691 219 2414 64 
Q 2138 -91 1772 -91 
Q 1169 -91 856 284 
Q 544 659 544 1381 
z
M 1991 3584 
L 1991 3584 
z
" transform="scale(0.015625)"/>
      </defs>
      <use xlink:href="#DejaVuSans-4d"/>
      <use xlink:href="#DejaVuSans-65" x="86.279297"/>
      <use xlink:href="#DejaVuSans-74" x="147.802734"/>
      <use xlink:href="#DejaVuSans-72" x="187.011719"/>
      <use xlink:href="#DejaVuSans-69" x="228.125"/>
      <use xlink:href="#DejaVuSans-63" x="255.908203"/>
      <use xlink:href="#DejaVuSans-20" x="310.888672"/>
      <use xlink:href="#DejaVuSans-56" x="342.675781"/>
      <use xlink:href="#DejaVuSans-61" x="403.333984"/>
      <use xlink:href="#DejaVuSans-6c" x="464.613281"/>
      <use xlink:href="#DejaVuSans-75" x="492.396484"/>
      <use xlink:href="#DejaVuSans-65" x="555.775391"/>
     </g>
    </g>
   </g>
   <g id="patch_20">
    <path d="M 591.545455 418.130526 
L 591.545455 155.52 
" style="fill: none; stroke: #000000; stroke-width: 0.8; stroke-linejoin: miter; stroke-linecap: square"/>
   </g>
   <g id="patch_21">
    <path d="M 972 418.130526 
L 972 155.52 
" style="fill: none; stroke: #000000; stroke-width: 0.8; stroke-linejoin: miter; stroke-linecap: square"/>
   </g>
   <g id="patch_22">
    <path d="M 591.545455 418.130526 
L 972 418.130526 
" style="fill: none; stroke: #000000; stroke-width: 0.8; stroke-linejoin: miter; stroke-linecap: square"/>
   </g>
   <g id="patch_23">
    <path d="M 591.545455 155.52 
L 972 155.52 
" style="fill: none; stroke: #000000; stroke-width: 0.8; stroke-linejoin: miter; stroke-linecap: square"/>
   </g>
   <g id="text_23">
    <!-- b -->
    <g transform="translate(544.871761 137.404046) scale(0.28 -0.28)">
     <defs>
      <path id="DejaVuSans-Bold-62" d="M 2400 722 
Q 2759 722 2948 984 
Q 3138 1247 3138 1747 
Q 3138 2247 2948 2509 
Q 2759 2772 2400 2772 
Q 2041 2772 1848 2508 
Q 1656 2244 1656 1747 
Q 1656 1250 1848 986 
Q 2041 722 2400 722 
z
M 1656 2988 
Q 1888 3294 2169 3439 
Q 2450 3584 2816 3584 
Q 3463 3584 3878 3070 
Q 4294 2556 4294 1747 
Q 4294 938 3878 423 
Q 3463 -91 2816 -91 
Q 2450 -91 2169 54 
Q 1888 200 1656 506 
L 1656 0 
L 538 0 
L 538 4863 
L 1656 4863 
L 1656 2988 
z
" transform="scale(0.015625)"/>
     </defs>
     <use xlink:href="#DejaVuSans-Bold-62"/>
    </g>
   </g>
   <g id="text_24">
    <!-- Metrics -->
    <g transform="translate(734.584759 149.52) scale(0.26 -0.26)">
     <defs>
      <path id="DejaVuSans-73" d="M 2834 3397 
L 2834 2853 
Q 2591 2978 2328 3040 
Q 2066 3103 1784 3103 
Q 1356 3103 1142 2972 
Q 928 2841 928 2578 
Q 928 2378 1081 2264 
Q 1234 2150 1697 2047 
L 1894 2003 
Q 2506 1872 2764 1633 
Q 3022 1394 3022 966 
Q 3022 478 2636 193 
Q 2250 -91 1575 -91 
Q 1294 -91 989 -36 
Q 684 19 347 128 
L 347 722 
Q 666 556 975 473 
Q 1284 391 1588 391 
Q 1994 391 2212 530 
Q 2431 669 2431 922 
Q 2431 1156 2273 1281 
Q 2116 1406 1581 1522 
L 1381 1569 
Q 847 1681 609 1914 
Q 372 2147 372 2553 
Q 372 3047 722 3315 
Q 1072 3584 1716 3584 
Q 2034 3584 2315 3537 
Q 2597 3491 2834 3397 
z
" transform="scale(0.015625)"/>
     </defs>
     <use xlink:href="#DejaVuSans-4d"/>
     <use xlink:href="#DejaVuSans-65" x="86.279297"/>
     <use xlink:href="#DejaVuSans-74" x="147.802734"/>
     <use xlink:href="#DejaVuSans-72" x="187.011719"/>
     <use xlink:href="#DejaVuSans-69" x="228.125"/>
     <use xlink:href="#DejaVuSans-63" x="255.908203"/>
     <use xlink:href="#DejaVuSans-73" x="310.888672"/>
    </g>
   </g>
  </g>
  <g id="axes_3">
   <g id="patch_24">
    <path d="M 135 785.785263 
L 515.454545 785.785263 
L 515.454545 523.174737 
L 135 523.174737 
z
" style="fill: #ffffff"/>
   </g>
   <g id="matplotlib.axis_5">
    <g id="xtick_10">
     <g id="line2d_22">
      <g>
       <use xlink:href="#m7e7fbfd55c" x="137.882231" y="785.785263" style="stroke: #000000; stroke-width: 0.8"/>
      </g>
     </g>
     <g id="text_25">
      <!-- 0 -->
      <g transform="translate(130.883481 809.501826) scale(0.22 -0.22)">
       <use xlink:href="#DejaVuSans-30"/>
      </g>
     </g>
    </g>
    <g id="xtick_11">
     <g id="line2d_23">
      <g>
       <use xlink:href="#m7e7fbfd55c" x="281.993802" y="785.785263" style="stroke: #000000; stroke-width: 0.8"/>
      </g>
     </g>
     <g id="text_26">
      <!-- 20 -->
      <g transform="translate(267.996302 809.501826) scale(0.22 -0.22)">
       <use xlink:href="#DejaVuSans-32"/>
       <use xlink:href="#DejaVuSans-30" x="63.623047"/>
      </g>
     </g>
    </g>
    <g id="xtick_12">
     <g id="line2d_24">
      <g>
       <use xlink:href="#m7e7fbfd55c" x="426.105372" y="785.785263" style="stroke: #000000; stroke-width: 0.8"/>
      </g>
     </g>
     <g id="text_27">
      <!-- 40 -->
      <g transform="translate(412.107872 809.501826) scale(0.22 -0.22)">
       <use xlink:href="#DejaVuSans-34"/>
       <use xlink:href="#DejaVuSans-30" x="63.623047"/>
      </g>
     </g>
    </g>
    <g id="text_28">
     <!-- k -->
     <g transform="translate(318.278523 836.313388) scale(0.24 -0.24)">
      <use xlink:href="#DejaVuSans-6b"/>
     </g>
    </g>
   </g>
   <g id="matplotlib.axis_6">
    <g id="ytick_9">
     <g id="line2d_25">
      <g>
       <use xlink:href="#mf03729c4c2" x="135" y="768.712206" style="stroke: #000000; stroke-width: 0.8"/>
      </g>
     </g>
     <g id="text_29">
      <!-- 0.6 -->
      <g transform="translate(93.013125 777.070488) scale(0.22 -0.22)">
       <use xlink:href="#DejaVuSans-30"/>
       <use xlink:href="#DejaVuSans-2e" x="63.623047"/>
       <use xlink:href="#DejaVuSans-36" x="95.410156"/>
      </g>
     </g>
    </g>
    <g id="ytick_10">
     <g id="line2d_26">
      <g>
       <use xlink:href="#mf03729c4c2" x="135" y="698.497064" style="stroke: #000000; stroke-width: 0.8"/>
      </g>
     </g>
     <g id="text_30">
      <!-- 0.7 -->
      <g transform="translate(93.013125 706.855345) scale(0.22 -0.22)">
       <defs>
        <path id="DejaVuSans-37" d="M 525 4666 
L 3525 4666 
L 3525 4397 
L 1831 0 
L 1172 0 
L 2766 4134 
L 525 4134 
L 525 4666 
z
" transform="scale(0.015625)"/>
       </defs>
       <use xlink:href="#DejaVuSans-30"/>
       <use xlink:href="#DejaVuSans-2e" x="63.623047"/>
       <use xlink:href="#DejaVuSans-37" x="95.410156"/>
      </g>
     </g>
    </g>
    <g id="ytick_11">
     <g id="line2d_27">
      <g>
       <use xlink:href="#mf03729c4c2" x="135" y="628.281921" style="stroke: #000000; stroke-width: 0.8"/>
      </g>
     </g>
     <g id="text_31">
      <!-- 0.8 -->
      <g transform="translate(93.013125 636.640202) scale(0.22 -0.22)">
       <use xlink:href="#DejaVuSans-30"/>
       <use xlink:href="#DejaVuSans-2e" x="63.623047"/>
       <use xlink:href="#DejaVuSans-38" x="95.410156"/>
      </g>
     </g>
    </g>
    <g id="ytick_12">
     <g id="line2d_28">
      <g>
       <use xlink:href="#mf03729c4c2" x="135" y="558.066779" style="stroke: #000000; stroke-width: 0.8"/>
      </g>
     </g>
     <g id="text_32">
      <!-- 0.9 -->
      <g transform="translate(93.013125 566.42506) scale(0.22 -0.22)">
       <defs>
        <path id="DejaVuSans-39" d="M 703 97 
L 703 672 
Q 941 559 1184 500 
Q 1428 441 1663 441 
Q 2288 441 2617 861 
Q 2947 1281 2994 2138 
Q 2813 1869 2534 1725 
Q 2256 1581 1919 1581 
Q 1219 1581 811 2004 
Q 403 2428 403 3163 
Q 403 3881 828 4315 
Q 1253 4750 1959 4750 
Q 2769 4750 3195 4129 
Q 3622 3509 3622 2328 
Q 3622 1225 3098 567 
Q 2575 -91 1691 -91 
Q 1453 -91 1209 -44 
Q 966 3 703 97 
z
M 1959 2075 
Q 2384 2075 2632 2365 
Q 2881 2656 2881 3163 
Q 2881 3666 2632 3958 
Q 2384 4250 1959 4250 
Q 1534 4250 1286 3958 
Q 1038 3666 1038 3163 
Q 1038 2656 1286 2365 
Q 1534 2075 1959 2075 
z
" transform="scale(0.015625)"/>
       </defs>
       <use xlink:href="#DejaVuSans-30"/>
       <use xlink:href="#DejaVuSans-2e" x="63.623047"/>
       <use xlink:href="#DejaVuSans-39" x="95.410156"/>
      </g>
     </g>
    </g>
    <g id="text_33">
     <!-- Metric Value -->
     <g transform="translate(84.021875 728.555625) rotate(-90) scale(0.24 -0.24)">
      <use xlink:href="#DejaVuSans-4d"/>
      <use xlink:href="#DejaVuSans-65" x="86.279297"/>
      <use xlink:href="#DejaVuSans-74" x="147.802734"/>
      <use xlink:href="#DejaVuSans-72" x="187.011719"/>
      <use xlink:href="#DejaVuSans-69" x="228.125"/>
      <use xlink:href="#DejaVuSans-63" x="255.908203"/>
      <use xlink:href="#DejaVuSans-20" x="310.888672"/>
      <use xlink:href="#DejaVuSans-56" x="342.675781"/>
      <use xlink:href="#DejaVuSans-61" x="403.333984"/>
      <use xlink:href="#DejaVuSans-6c" x="464.613281"/>
      <use xlink:href="#DejaVuSans-75" x="492.396484"/>
      <use xlink:href="#DejaVuSans-65" x="555.775391"/>
     </g>
    </g>
   </g>
   <g id="line2d_29">
    <path d="M 152.293388 767.215902 
L 173.910124 767.177144 
L 209.938017 768.185874 
L 281.993802 770.987412 
L 498.161157 773.848421 
" clip-path="url(#p45a7b9d026)" style="fill: none; stroke: #1f77b4; stroke-width: 1.5; stroke-linecap: square"/>
    <g clip-path="url(#p45a7b9d026)">
     <use xlink:href="#m6b0a5420a8" x="152.293388" y="767.215902" style="fill: #1f77b4; stroke: #1f77b4"/>
     <use xlink:href="#m6b0a5420a8" x="173.910124" y="767.177144" style="fill: #1f77b4; stroke: #1f77b4"/>
     <use xlink:href="#m6b0a5420a8" x="209.938017" y="768.185874" style="fill: #1f77b4; stroke: #1f77b4"/>
     <use xlink:href="#m6b0a5420a8" x="281.993802" y="770.987412" style="fill: #1f77b4; stroke: #1f77b4"/>
     <use xlink:href="#m6b0a5420a8" x="498.161157" y="773.848421" style="fill: #1f77b4; stroke: #1f77b4"/>
    </g>
   </g>
   <g id="line2d_30">
    <path d="M 152.293388 535.111579 
L 173.910124 560.360213 
L 209.938017 587.138588 
L 281.993802 628.292337 
L 498.161157 696.579019 
" clip-path="url(#p45a7b9d026)" style="fill: none; stroke: #ff7f0e; stroke-width: 1.5; stroke-linecap: square"/>
    <g clip-path="url(#p45a7b9d026)">
     <use xlink:href="#m8041f22210" x="152.293388" y="535.111579" style="fill: #ff7f0e; stroke: #ff7f0e"/>
     <use xlink:href="#m8041f22210" x="173.910124" y="560.360213" style="fill: #ff7f0e; stroke: #ff7f0e"/>
     <use xlink:href="#m8041f22210" x="209.938017" y="587.138588" style="fill: #ff7f0e; stroke: #ff7f0e"/>
     <use xlink:href="#m8041f22210" x="281.993802" y="628.292337" style="fill: #ff7f0e; stroke: #ff7f0e"/>
     <use xlink:href="#m8041f22210" x="498.161157" y="696.579019" style="fill: #ff7f0e; stroke: #ff7f0e"/>
    </g>
   </g>
   <g id="line2d_31">
    <path d="M 152.293388 572.286818 
L 173.910124 583.355254 
L 209.938017 601.418819 
L 281.993802 633.378446 
L 498.161157 703.08084 
" clip-path="url(#p45a7b9d026)" style="fill: none; stroke: #2ca02c; stroke-width: 1.5; stroke-linecap: square"/>
    <g clip-path="url(#p45a7b9d026)">
     <use xlink:href="#m5f2167f1e1" x="152.293388" y="572.286818" style="fill: #2ca02c; stroke: #2ca02c"/>
     <use xlink:href="#m5f2167f1e1" x="173.910124" y="583.355254" style="fill: #2ca02c; stroke: #2ca02c"/>
     <use xlink:href="#m5f2167f1e1" x="209.938017" y="601.418819" style="fill: #2ca02c; stroke: #2ca02c"/>
     <use xlink:href="#m5f2167f1e1" x="281.993802" y="633.378446" style="fill: #2ca02c; stroke: #2ca02c"/>
     <use xlink:href="#m5f2167f1e1" x="498.161157" y="703.08084" style="fill: #2ca02c; stroke: #2ca02c"/>
    </g>
   </g>
   <g id="line2d_32">
    <path d="M 152.293388 569.322721 
L 173.910124 581.851179 
L 209.938017 596.171275 
L 281.993802 624.649231 
L 498.161157 685.923148 
" clip-path="url(#p45a7b9d026)" style="fill: none; stroke: #d62728; stroke-width: 1.5; stroke-linecap: square"/>
    <g clip-path="url(#p45a7b9d026)">
     <use xlink:href="#mf48845f06a" x="152.293388" y="569.322721" style="fill: #d62728; stroke: #d62728"/>
     <use xlink:href="#mf48845f06a" x="173.910124" y="581.851179" style="fill: #d62728; stroke: #d62728"/>
     <use xlink:href="#mf48845f06a" x="209.938017" y="596.171275" style="fill: #d62728; stroke: #d62728"/>
     <use xlink:href="#mf48845f06a" x="281.993802" y="624.649231" style="fill: #d62728; stroke: #d62728"/>
     <use xlink:href="#mf48845f06a" x="498.161157" y="685.923148" style="fill: #d62728; stroke: #d62728"/>
    </g>
   </g>
   <g id="patch_25">
    <path d="M 135 785.785263 
L 135 523.174737 
" style="fill: none; stroke: #000000; stroke-width: 0.8; stroke-linejoin: miter; stroke-linecap: square"/>
   </g>
   <g id="patch_26">
    <path d="M 515.454545 785.785263 
L 515.454545 523.174737 
" style="fill: none; stroke: #000000; stroke-width: 0.8; stroke-linejoin: miter; stroke-linecap: square"/>
   </g>
   <g id="patch_27">
    <path d="M 135 785.785263 
L 515.454545 785.785263 
" style="fill: none; stroke: #000000; stroke-width: 0.8; stroke-linejoin: miter; stroke-linecap: square"/>
   </g>
   <g id="patch_28">
    <path d="M 135 523.174737 
L 515.454545 523.174737 
" style="fill: none; stroke: #000000; stroke-width: 0.8; stroke-linejoin: miter; stroke-linecap: square"/>
   </g>
   <g id="text_34">
    <!-- c -->
    <g transform="translate(91.769432 505.058783) scale(0.28 -0.28)">
     <defs>
      <path id="DejaVuSans-Bold-63" d="M 3366 3391 
L 3366 2478 
Q 3138 2634 2908 2709 
Q 2678 2784 2431 2784 
Q 1963 2784 1702 2511 
Q 1441 2238 1441 1747 
Q 1441 1256 1702 982 
Q 1963 709 2431 709 
Q 2694 709 2930 787 
Q 3166 866 3366 1019 
L 3366 103 
Q 3103 6 2833 -42 
Q 2563 -91 2291 -91 
Q 1344 -91 809 395 
Q 275 881 275 1747 
Q 275 2613 809 3098 
Q 1344 3584 2291 3584 
Q 2566 3584 2833 3536 
Q 3100 3488 3366 3391 
z
" transform="scale(0.015625)"/>
     </defs>
     <use xlink:href="#DejaVuSans-Bold-63"/>
    </g>
   </g>
   <g id="text_35">
    <!-- Trustworthiness -->
    <g transform="translate(230.950398 517.174737) scale(0.24 -0.24)">
     <defs>
      <path id="DejaVuSans-54" d="M -19 4666 
L 3928 4666 
L 3928 4134 
L 2272 4134 
L 2272 0 
L 1638 0 
L 1638 4134 
L -19 4134 
L -19 4666 
z
" transform="scale(0.015625)"/>
      <path id="DejaVuSans-77" d="M 269 3500 
L 844 3500 
L 1563 769 
L 2278 3500 
L 2956 3500 
L 3675 769 
L 4391 3500 
L 4966 3500 
L 4050 0 
L 3372 0 
L 2619 2869 
L 1863 0 
L 1184 0 
L 269 3500 
z
" transform="scale(0.015625)"/>
      <path id="DejaVuSans-6f" d="M 1959 3097 
Q 1497 3097 1228 2736 
Q 959 2375 959 1747 
Q 959 1119 1226 758 
Q 1494 397 1959 397 
Q 2419 397 2687 759 
Q 2956 1122 2956 1747 
Q 2956 2369 2687 2733 
Q 2419 3097 1959 3097 
z
M 1959 3584 
Q 2709 3584 3137 3096 
Q 3566 2609 3566 1747 
Q 3566 888 3137 398 
Q 2709 -91 1959 -91 
Q 1206 -91 779 398 
Q 353 888 353 1747 
Q 353 2609 779 3096 
Q 1206 3584 1959 3584 
z
" transform="scale(0.015625)"/>
      <path id="DejaVuSans-68" d="M 3513 2113 
L 3513 0 
L 2938 0 
L 2938 2094 
Q 2938 2591 2744 2837 
Q 2550 3084 2163 3084 
Q 1697 3084 1428 2787 
Q 1159 2491 1159 1978 
L 1159 0 
L 581 0 
L 581 4863 
L 1159 4863 
L 1159 2956 
Q 1366 3272 1645 3428 
Q 1925 3584 2291 3584 
Q 2894 3584 3203 3211 
Q 3513 2838 3513 2113 
z
" transform="scale(0.015625)"/>
      <path id="DejaVuSans-6e" d="M 3513 2113 
L 3513 0 
L 2938 0 
L 2938 2094 
Q 2938 2591 2744 2837 
Q 2550 3084 2163 3084 
Q 1697 3084 1428 2787 
Q 1159 2491 1159 1978 
L 1159 0 
L 581 0 
L 581 3500 
L 1159 3500 
L 1159 2956 
Q 1366 3272 1645 3428 
Q 1925 3584 2291 3584 
Q 2894 3584 3203 3211 
Q 3513 2838 3513 2113 
z
" transform="scale(0.015625)"/>
     </defs>
     <use xlink:href="#DejaVuSans-54"/>
     <use xlink:href="#DejaVuSans-72" x="46.333984"/>
     <use xlink:href="#DejaVuSans-75" x="87.447266"/>
     <use xlink:href="#DejaVuSans-73" x="150.826172"/>
     <use xlink:href="#DejaVuSans-74" x="202.925781"/>
     <use xlink:href="#DejaVuSans-77" x="242.134766"/>
     <use xlink:href="#DejaVuSans-6f" x="323.921875"/>
     <use xlink:href="#DejaVuSans-72" x="385.103516"/>
     <use xlink:href="#DejaVuSans-74" x="426.216797"/>
     <use xlink:href="#DejaVuSans-68" x="465.425781"/>
     <use xlink:href="#DejaVuSans-69" x="528.804688"/>
     <use xlink:href="#DejaVuSans-6e" x="556.587891"/>
     <use xlink:href="#DejaVuSans-65" x="619.966797"/>
     <use xlink:href="#DejaVuSans-73" x="681.490234"/>
     <use xlink:href="#DejaVuSans-73" x="733.589844"/>
    </g>
   </g>
  </g>
  <g id="axes_4">
   <g id="patch_29">
    <path d="M 591.545455 785.785263 
L 972 785.785263 
L 972 523.174737 
L 591.545455 523.174737 
z
" style="fill: #ffffff"/>
   </g>
   <g id="matplotlib.axis_7">
    <g id="xtick_13">
     <g id="line2d_33">
      <g>
       <use xlink:href="#m7e7fbfd55c" x="594.427686" y="785.785263" style="stroke: #000000; stroke-width: 0.8"/>
      </g>
     </g>
     <g id="text_36">
      <!-- 0 -->
      <g transform="translate(587.428936 809.501826) scale(0.22 -0.22)">
       <use xlink:href="#DejaVuSans-30"/>
      </g>
     </g>
    </g>
    <g id="xtick_14">
     <g id="line2d_34">
      <g>
       <use xlink:href="#m7e7fbfd55c" x="738.539256" y="785.785263" style="stroke: #000000; stroke-width: 0.8"/>
      </g>
     </g>
     <g id="text_37">
      <!-- 20 -->
      <g transform="translate(724.541756 809.501826) scale(0.22 -0.22)">
       <use xlink:href="#DejaVuSans-32"/>
       <use xlink:href="#DejaVuSans-30" x="63.623047"/>
      </g>
     </g>
    </g>
    <g id="xtick_15">
     <g id="line2d_35">
      <g>
       <use xlink:href="#m7e7fbfd55c" x="882.650826" y="785.785263" style="stroke: #000000; stroke-width: 0.8"/>
      </g>
     </g>
     <g id="text_38">
      <!-- 40 -->
      <g transform="translate(868.653326 809.501826) scale(0.22 -0.22)">
       <use xlink:href="#DejaVuSans-34"/>
       <use xlink:href="#DejaVuSans-30" x="63.623047"/>
      </g>
     </g>
    </g>
    <g id="text_39">
     <!-- k -->
     <g transform="translate(774.823977 836.313388) scale(0.24 -0.24)">
      <use xlink:href="#DejaVuSans-6b"/>
     </g>
    </g>
   </g>
   <g id="matplotlib.axis_8">
    <g id="ytick_13">
     <g id="line2d_36">
      <g>
       <use xlink:href="#mf03729c4c2" x="591.545455" y="762.398035" style="stroke: #000000; stroke-width: 0.8"/>
      </g>
     </g>
     <g id="text_40">
      <!-- 0.7 -->
      <g transform="translate(549.55858 770.756316) scale(0.22 -0.22)">
       <use xlink:href="#DejaVuSans-30"/>
       <use xlink:href="#DejaVuSans-2e" x="63.623047"/>
       <use xlink:href="#DejaVuSans-37" x="95.410156"/>
      </g>
     </g>
    </g>
    <g id="ytick_14">
     <g id="line2d_37">
      <g>
       <use xlink:href="#mf03729c4c2" x="591.545455" y="681.244263" style="stroke: #000000; stroke-width: 0.8"/>
      </g>
     </g>
     <g id="text_41">
      <!-- 0.8 -->
      <g transform="translate(549.55858 689.602544) scale(0.22 -0.22)">
       <use xlink:href="#DejaVuSans-30"/>
       <use xlink:href="#DejaVuSans-2e" x="63.623047"/>
       <use xlink:href="#DejaVuSans-38" x="95.410156"/>
      </g>
     </g>
    </g>
    <g id="ytick_15">
     <g id="line2d_38">
      <g>
       <use xlink:href="#mf03729c4c2" x="591.545455" y="600.090491" style="stroke: #000000; stroke-width: 0.8"/>
      </g>
     </g>
     <g id="text_42">
      <!-- 0.9 -->
      <g transform="translate(549.55858 608.448772) scale(0.22 -0.22)">
       <use xlink:href="#DejaVuSans-30"/>
       <use xlink:href="#DejaVuSans-2e" x="63.623047"/>
       <use xlink:href="#DejaVuSans-39" x="95.410156"/>
      </g>
     </g>
    </g>
   </g>
   <g id="line2d_39">
    <path d="M 608.838843 602.262095 
L 630.455579 627.062183 
L 666.483471 653.639962 
L 738.539256 693.197255 
L 954.706612 758.986552 
" clip-path="url(#p641864102e)" style="fill: none; stroke: #1f77b4; stroke-width: 1.5; stroke-linecap: square"/>
    <g clip-path="url(#p641864102e)">
     <use xlink:href="#m6b0a5420a8" x="608.838843" y="602.262095" style="fill: #1f77b4; stroke: #1f77b4"/>
     <use xlink:href="#m6b0a5420a8" x="630.455579" y="627.062183" style="fill: #1f77b4; stroke: #1f77b4"/>
     <use xlink:href="#m6b0a5420a8" x="666.483471" y="653.639962" style="fill: #1f77b4; stroke: #1f77b4"/>
     <use xlink:href="#m6b0a5420a8" x="738.539256" y="693.197255" style="fill: #1f77b4; stroke: #1f77b4"/>
     <use xlink:href="#m6b0a5420a8" x="954.706612" y="758.986552" style="fill: #1f77b4; stroke: #1f77b4"/>
    </g>
   </g>
   <g id="line2d_40">
    <path d="M 608.838843 535.111579 
L 630.455579 548.85752 
L 666.483471 565.98017 
L 738.539256 598.687755 
L 954.706612 658.692025 
" clip-path="url(#p641864102e)" style="fill: none; stroke: #ff7f0e; stroke-width: 1.5; stroke-linecap: square"/>
    <g clip-path="url(#p641864102e)">
     <use xlink:href="#m8041f22210" x="608.838843" y="535.111579" style="fill: #ff7f0e; stroke: #ff7f0e"/>
     <use xlink:href="#m8041f22210" x="630.455579" y="548.85752" style="fill: #ff7f0e; stroke: #ff7f0e"/>
     <use xlink:href="#m8041f22210" x="666.483471" y="565.98017" style="fill: #ff7f0e; stroke: #ff7f0e"/>
     <use xlink:href="#m8041f22210" x="738.539256" y="598.687755" style="fill: #ff7f0e; stroke: #ff7f0e"/>
     <use xlink:href="#m8041f22210" x="954.706612" y="658.692025" style="fill: #ff7f0e; stroke: #ff7f0e"/>
    </g>
   </g>
   <g id="line2d_41">
    <path d="M 608.838843 539.262667 
L 630.455579 550.645841 
L 666.483471 565.088529 
L 738.539256 598.927783 
L 954.706612 664.711416 
" clip-path="url(#p641864102e)" style="fill: none; stroke: #2ca02c; stroke-width: 1.5; stroke-linecap: square"/>
    <g clip-path="url(#p641864102e)">
     <use xlink:href="#m5f2167f1e1" x="608.838843" y="539.262667" style="fill: #2ca02c; stroke: #2ca02c"/>
     <use xlink:href="#m5f2167f1e1" x="630.455579" y="550.645841" style="fill: #2ca02c; stroke: #2ca02c"/>
     <use xlink:href="#m5f2167f1e1" x="666.483471" y="565.088529" style="fill: #2ca02c; stroke: #2ca02c"/>
     <use xlink:href="#m5f2167f1e1" x="738.539256" y="598.927783" style="fill: #2ca02c; stroke: #2ca02c"/>
     <use xlink:href="#m5f2167f1e1" x="954.706612" y="664.711416" style="fill: #2ca02c; stroke: #2ca02c"/>
    </g>
   </g>
   <g id="line2d_42">
    <path d="M 608.838843 576.950777 
L 630.455579 602.175198 
L 666.483471 634.369767 
L 738.539256 686.224332 
L 954.706612 773.848421 
" clip-path="url(#p641864102e)" style="fill: none; stroke: #d62728; stroke-width: 1.5; stroke-linecap: square"/>
    <g clip-path="url(#p641864102e)">
     <use xlink:href="#mf48845f06a" x="608.838843" y="576.950777" style="fill: #d62728; stroke: #d62728"/>
     <use xlink:href="#mf48845f06a" x="630.455579" y="602.175198" style="fill: #d62728; stroke: #d62728"/>
     <use xlink:href="#mf48845f06a" x="666.483471" y="634.369767" style="fill: #d62728; stroke: #d62728"/>
     <use xlink:href="#mf48845f06a" x="738.539256" y="686.224332" style="fill: #d62728; stroke: #d62728"/>
     <use xlink:href="#mf48845f06a" x="954.706612" y="773.848421" style="fill: #d62728; stroke: #d62728"/>
    </g>
   </g>
   <g id="patch_30">
    <path d="M 591.545455 785.785263 
L 591.545455 523.174737 
" style="fill: none; stroke: #000000; stroke-width: 0.8; stroke-linejoin: miter; stroke-linecap: square"/>
   </g>
   <g id="patch_31">
    <path d="M 972 785.785263 
L 972 523.174737 
" style="fill: none; stroke: #000000; stroke-width: 0.8; stroke-linejoin: miter; stroke-linecap: square"/>
   </g>
   <g id="patch_32">
    <path d="M 591.545455 785.785263 
L 972 785.785263 
" style="fill: none; stroke: #000000; stroke-width: 0.8; stroke-linejoin: miter; stroke-linecap: square"/>
   </g>
   <g id="patch_33">
    <path d="M 591.545455 523.174737 
L 972 523.174737 
" style="fill: none; stroke: #000000; stroke-width: 0.8; stroke-linejoin: miter; stroke-linecap: square"/>
   </g>
   <g id="text_43">
    <!-- d -->
    <g transform="translate(544.871761 505.058783) scale(0.28 -0.28)">
     <defs>
      <path id="DejaVuSans-Bold-64" d="M 2919 2988 
L 2919 4863 
L 4044 4863 
L 4044 0 
L 2919 0 
L 2919 506 
Q 2688 197 2409 53 
Q 2131 -91 1766 -91 
Q 1119 -91 703 423 
Q 288 938 288 1747 
Q 288 2556 703 3070 
Q 1119 3584 1766 3584 
Q 2128 3584 2408 3439 
Q 2688 3294 2919 2988 
z
M 2181 722 
Q 2541 722 2730 984 
Q 2919 1247 2919 1747 
Q 2919 2247 2730 2509 
Q 2541 2772 2181 2772 
Q 1825 2772 1636 2509 
Q 1447 2247 1447 1747 
Q 1447 1247 1636 984 
Q 1825 722 2181 722 
z
" transform="scale(0.015625)"/>
     </defs>
     <use xlink:href="#DejaVuSans-Bold-64"/>
    </g>
   </g>
   <g id="text_44">
    <!-- Continuity -->
    <g transform="translate(720.057102 517.174737) scale(0.24 -0.24)">
     <defs>
      <path id="DejaVuSans-79" d="M 2059 -325 
Q 1816 -950 1584 -1140 
Q 1353 -1331 966 -1331 
L 506 -1331 
L 506 -850 
L 844 -850 
Q 1081 -850 1212 -737 
Q 1344 -625 1503 -206 
L 1606 56 
L 191 3500 
L 800 3500 
L 1894 763 
L 2988 3500 
L 3597 3500 
L 2059 -325 
z
" transform="scale(0.015625)"/>
     </defs>
     <use xlink:href="#DejaVuSans-43"/>
     <use xlink:href="#DejaVuSans-6f" x="69.824219"/>
     <use xlink:href="#DejaVuSans-6e" x="131.005859"/>
     <use xlink:href="#DejaVuSans-74" x="194.384766"/>
     <use xlink:href="#DejaVuSans-69" x="233.59375"/>
     <use xlink:href="#DejaVuSans-6e" x="261.376953"/>
     <use xlink:href="#DejaVuSans-75" x="324.755859"/>
     <use xlink:href="#DejaVuSans-69" x="388.134766"/>
     <use xlink:href="#DejaVuSans-74" x="415.917969"/>
     <use xlink:href="#DejaVuSans-79" x="455.126953"/>
    </g>
   </g>
  </g>
  <g id="axes_5">
   <g id="patch_34">
    <path d="M 135 1153.44 
L 515.454545 1153.44 
L 515.454545 890.829474 
L 135 890.829474 
z
" style="fill: #ffffff"/>
   </g>
   <g id="matplotlib.axis_9">
    <g id="xtick_16">
     <g id="line2d_43">
      <g>
       <use xlink:href="#m7e7fbfd55c" x="152.132669" y="1153.44" style="stroke: #000000; stroke-width: 0.8"/>
      </g>
     </g>
     <g id="text_45">
      <!-- 0 -->
      <g transform="translate(145.133919 1177.156562) scale(0.22 -0.22)">
       <use xlink:href="#DejaVuSans-30"/>
      </g>
     </g>
    </g>
    <g id="xtick_17">
     <g id="line2d_44">
      <g>
       <use xlink:href="#m7e7fbfd55c" x="232.492281" y="1153.44" style="stroke: #000000; stroke-width: 0.8"/>
      </g>
     </g>
     <g id="text_46">
      <!-- 500 -->
      <g transform="translate(211.496031 1177.156562) scale(0.22 -0.22)">
       <use xlink:href="#DejaVuSans-35"/>
       <use xlink:href="#DejaVuSans-30" x="63.623047"/>
       <use xlink:href="#DejaVuSans-30" x="127.246094"/>
      </g>
     </g>
    </g>
    <g id="xtick_18">
     <g id="line2d_45">
      <g>
       <use xlink:href="#m7e7fbfd55c" x="312.851893" y="1153.44" style="stroke: #000000; stroke-width: 0.8"/>
      </g>
     </g>
     <g id="text_47">
      <!-- 1000 -->
      <g transform="translate(284.856893 1177.156562) scale(0.22 -0.22)">
       <use xlink:href="#DejaVuSans-31"/>
       <use xlink:href="#DejaVuSans-30" x="63.623047"/>
       <use xlink:href="#DejaVuSans-30" x="127.246094"/>
       <use xlink:href="#DejaVuSans-30" x="190.869141"/>
      </g>
     </g>
    </g>
    <g id="xtick_19">
     <g id="line2d_46">
      <g>
       <use xlink:href="#m7e7fbfd55c" x="393.211504" y="1153.44" style="stroke: #000000; stroke-width: 0.8"/>
      </g>
     </g>
     <g id="text_48">
      <!-- 1500 -->
      <g transform="translate(365.216504 1177.156562) scale(0.22 -0.22)">
       <use xlink:href="#DejaVuSans-31"/>
       <use xlink:href="#DejaVuSans-35" x="63.623047"/>
       <use xlink:href="#DejaVuSans-30" x="127.246094"/>
       <use xlink:href="#DejaVuSans-30" x="190.869141"/>
      </g>
     </g>
    </g>
    <g id="xtick_20">
     <g id="line2d_47">
      <g>
       <use xlink:href="#m7e7fbfd55c" x="473.571116" y="1153.44" style="stroke: #000000; stroke-width: 0.8"/>
      </g>
     </g>
     <g id="text_49">
      <!-- 2000 -->
      <g transform="translate(445.576116 1177.156562) scale(0.22 -0.22)">
       <use xlink:href="#DejaVuSans-32"/>
       <use xlink:href="#DejaVuSans-30" x="63.623047"/>
       <use xlink:href="#DejaVuSans-30" x="127.246094"/>
       <use xlink:href="#DejaVuSans-30" x="190.869141"/>
      </g>
     </g>
    </g>
    <g id="text_50">
     <!-- k -->
     <g transform="translate(318.278523 1203.968125) scale(0.24 -0.24)">
      <use xlink:href="#DejaVuSans-6b"/>
     </g>
    </g>
   </g>
   <g id="matplotlib.axis_10">
    <g id="ytick_16">
     <g id="line2d_48">
      <g>
       <use xlink:href="#mf03729c4c2" x="135" y="1147.525553" style="stroke: #000000; stroke-width: 0.8"/>
      </g>
     </g>
     <g id="text_51">
      <!-- 0.00 -->
      <g transform="translate(79.015625 1155.883834) scale(0.22 -0.22)">
       <use xlink:href="#DejaVuSans-30"/>
       <use xlink:href="#DejaVuSans-2e" x="63.623047"/>
       <use xlink:href="#DejaVuSans-30" x="95.410156"/>
       <use xlink:href="#DejaVuSans-30" x="159.033203"/>
      </g>
     </g>
    </g>
    <g id="ytick_17">
     <g id="line2d_49">
      <g>
       <use xlink:href="#mf03729c4c2" x="135" y="1086.335744" style="stroke: #000000; stroke-width: 0.8"/>
      </g>
     </g>
     <g id="text_52">
      <!-- 0.25 -->
      <g transform="translate(79.015625 1094.694025) scale(0.22 -0.22)">
       <use xlink:href="#DejaVuSans-30"/>
       <use xlink:href="#DejaVuSans-2e" x="63.623047"/>
       <use xlink:href="#DejaVuSans-32" x="95.410156"/>
       <use xlink:href="#DejaVuSans-35" x="159.033203"/>
      </g>
     </g>
    </g>
    <g id="ytick_18">
     <g id="line2d_50">
      <g>
       <use xlink:href="#mf03729c4c2" x="135" y="1025.145935" style="stroke: #000000; stroke-width: 0.8"/>
      </g>
     </g>
     <g id="text_53">
      <!-- 0.50 -->
      <g transform="translate(79.015625 1033.504216) scale(0.22 -0.22)">
       <use xlink:href="#DejaVuSans-30"/>
       <use xlink:href="#DejaVuSans-2e" x="63.623047"/>
       <use xlink:href="#DejaVuSans-35" x="95.410156"/>
       <use xlink:href="#DejaVuSans-30" x="159.033203"/>
      </g>
     </g>
    </g>
    <g id="ytick_19">
     <g id="line2d_51">
      <g>
       <use xlink:href="#mf03729c4c2" x="135" y="963.956125" style="stroke: #000000; stroke-width: 0.8"/>
      </g>
     </g>
     <g id="text_54">
      <!-- 0.75 -->
      <g transform="translate(79.015625 972.314406) scale(0.22 -0.22)">
       <use xlink:href="#DejaVuSans-30"/>
       <use xlink:href="#DejaVuSans-2e" x="63.623047"/>
       <use xlink:href="#DejaVuSans-37" x="95.410156"/>
       <use xlink:href="#DejaVuSans-35" x="159.033203"/>
      </g>
     </g>
    </g>
    <g id="ytick_20">
     <g id="line2d_52">
      <g>
       <use xlink:href="#mf03729c4c2" x="135" y="902.766316" style="stroke: #000000; stroke-width: 0.8"/>
      </g>
     </g>
     <g id="text_55">
      <!-- 1.00 -->
      <g transform="translate(79.015625 911.124597) scale(0.22 -0.22)">
       <use xlink:href="#DejaVuSans-31"/>
       <use xlink:href="#DejaVuSans-2e" x="63.623047"/>
       <use xlink:href="#DejaVuSans-30" x="95.410156"/>
       <use xlink:href="#DejaVuSans-30" x="159.033203"/>
      </g>
     </g>
    </g>
    <g id="text_56">
     <!-- Metric Value -->
     <g transform="translate(70.024375 1096.210362) rotate(-90) scale(0.24 -0.24)">
      <use xlink:href="#DejaVuSans-4d"/>
      <use xlink:href="#DejaVuSans-65" x="86.279297"/>
      <use xlink:href="#DejaVuSans-74" x="147.802734"/>
      <use xlink:href="#DejaVuSans-72" x="187.011719"/>
      <use xlink:href="#DejaVuSans-69" x="228.125"/>
      <use xlink:href="#DejaVuSans-63" x="255.908203"/>
      <use xlink:href="#DejaVuSans-20" x="310.888672"/>
      <use xlink:href="#DejaVuSans-56" x="342.675781"/>
      <use xlink:href="#DejaVuSans-61" x="403.333984"/>
      <use xlink:href="#DejaVuSans-6c" x="464.613281"/>
      <use xlink:href="#DejaVuSans-75" x="492.396484"/>
      <use xlink:href="#DejaVuSans-65" x="555.775391"/>
     </g>
    </g>
   </g>
   <g id="line2d_53">
    <path d="M 152.293388 1141.503158 
L 152.936265 1128.776587 
L 153.418423 1125.12622 
L 153.900581 1121.71086 
L 154.222019 1119.782327 
L 155.186334 1117.311907 
L 156.632807 1115.53868 
L 157.114965 1115.137309 
L 158.24 1114.276788 
L 158.722157 1114.276277 
L 159.365034 1113.903669 
L 160.32935 1113.133509 
L 161.132946 1112.706044 
L 162.097261 1112.564137 
L 162.579419 1112.510001 
L 163.222296 1112.463256 
L 163.704453 1112.454885 
L 164.34733 1112.537948 
L 166.597399 1112.407539 
L 166.918838 1112.323689 
L 167.240276 1112.30264 
L 167.722434 1112.211192 
L 169.651065 1111.850914 
L 170.776099 1111.466608 
L 174.79408 1109.591635 
L 176.240553 1108.726177 
L 182.830041 1105.095122 
L 183.794356 1104.498391 
L 186.205145 1103.327732 
L 190.223125 1101.329404 
L 191.830317 1100.517655 
L 192.955352 1099.891725 
L 194.562544 1099.003348 
L 195.848298 1098.271918 
L 204.527136 1093.235113 
L 207.420082 1091.552489 
L 239.724646 1072.847017 
L 245.349819 1069.746729 
L 247.439169 1068.554549 
L 259.332391 1061.362079 
L 277.172225 1049.659657 
L 283.279555 1045.884542 
L 285.690344 1044.350652 
L 295.494216 1038.074288 
L 298.387162 1036.148075 
L 306.262404 1030.853507 
L 316.066277 1024.266749 
L 321.048573 1021.031573 
L 348.852999 1002.83433 
L 353.513856 999.915336 
L 359.781906 996.069733 
L 367.496428 991.376764 
L 373.603759 987.535113 
L 385.496981 980.043158 
L 396.747327 973.175767 
L 401.408185 970.278787 
L 404.301131 968.437706 
L 410.087023 964.663641 
L 426.480383 953.571153 
L 444.802375 941.219403 
L 449.302513 938.108719 
L 457.820632 931.67514 
L 465.856593 925.707372 
L 470.67817 922.073916 
L 482.410673 913.182187 
L 487.553688 909.495156 
L 493.018142 905.772611 
L 498.161157 902.766316 
L 498.161157 902.766316 
" clip-path="url(#p365ce01ed9)" style="fill: none; stroke: #1f77b4; stroke-width: 1.5; stroke-linecap: square"/>
   </g>
   <g id="line2d_54">
    <path d="M 152.293388 1052.303529 
L 152.614827 1030.183536 
L 152.936265 1023.418757 
L 153.096985 1023.346791 
L 153.257704 1023.149291 
L 153.418423 1023.299445 
L 153.579142 1023.693994 
L 153.739861 1023.634654 
L 156.632807 1046.398822 
L 158.561438 1057.004974 
L 159.204315 1060.402256 
L 160.972226 1068.893523 
L 162.418699 1074.821819 
L 163.704453 1078.986086 
L 165.150926 1082.808301 
L 166.115242 1084.793901 
L 167.400995 1087.002573 
L 169.811784 1090.203299 
L 170.936818 1091.210669 
L 172.865449 1092.755845 
L 173.508326 1093.171919 
L 174.311922 1093.519142 
L 175.115518 1093.77931 
L 175.919114 1094.069501 
L 176.88343 1094.498665 
L 177.526306 1094.718481 
L 178.490622 1095.034682 
L 179.294218 1095.173006 
L 180.097814 1095.315134 
L 181.865726 1095.364423 
L 185.401548 1095.179953 
L 186.526583 1094.934994 
L 188.776652 1094.45282 
L 191.34816 1093.728686 
L 191.830317 1093.612441 
L 192.955352 1093.226917 
L 193.919667 1092.760215 
L 195.52686 1092.075747 
L 209.99159 1085.517607 
L 212.241659 1084.2108 
L 213.848851 1083.373963 
L 229.277896 1074.83401 
L 236.028104 1070.68483 
L 238.117454 1069.443408 
L 240.688961 1068.025728 
L 241.813996 1067.424885 
L 245.510538 1065.556788 
L 249.528519 1063.483906 
L 256.118007 1059.787133 
L 257.56448 1059.040096 
L 261.261022 1056.895088 
L 277.332944 1047.536899 
L 280.547329 1045.573469 
L 285.368905 1042.79369 
L 291.315517 1039.483272 
L 299.994355 1034.274878 
L 302.244424 1032.945412 
L 305.13737 1031.31741 
L 308.351754 1029.386488 
L 314.619804 1025.836369 
L 315.905558 1025.105233 
L 317.673469 1024.083107 
L 321.852169 1021.75597 
L 324.745115 1020.082518 
L 326.995184 1018.695024 
L 329.727411 1017.083339 
L 332.781076 1015.258498 
L 334.548988 1014.178577 
L 336.638338 1012.88002 
L 338.888407 1011.553154 
L 342.584949 1009.2942 
L 345.799333 1007.402005 
L 359.460467 999.823158 
L 365.889236 996.126772 
L 367.978586 994.853233 
L 390.639997 980.616028 
L 405.104727 971.304181 
L 410.247742 967.875585 
L 417.480107 962.977743 
L 421.819526 959.922866 
L 443.67734 944.038973 
L 449.141794 939.981957 
L 466.981628 926.281772 
L 476.303343 919.065897 
L 484.178585 913.021075 
L 493.018142 906.459053 
L 498.161157 902.766316 
L 498.161157 902.766316 
" clip-path="url(#p365ce01ed9)" style="fill: none; stroke: #ff7f0e; stroke-width: 1.5; stroke-linecap: square"/>
   </g>
   <g id="line2d_55">
    <path d="M 152.293388 1103.550704 
L 152.614827 1068.401126 
L 152.936265 1052.462611 
L 153.418423 1041.650707 
L 153.739861 1037.96341 
L 154.222019 1036.535167 
L 155.186334 1042.489476 
L 156.472088 1051.21773 
L 159.365034 1064.166511 
L 162.579419 1076.078442 
L 164.186611 1081.085276 
L 165.472365 1084.519716 
L 167.079557 1087.049903 
L 167.400995 1087.469055 
L 168.686749 1089.261995 
L 169.651065 1090.272662 
L 171.418976 1091.640376 
L 175.758395 1093.879005 
L 176.88343 1094.182124 
L 178.329903 1094.619936 
L 179.294218 1094.902714 
L 180.097814 1095.119873 
L 181.062129 1095.241819 
L 182.026445 1095.534895 
L 186.044425 1095.574517 
L 187.973056 1095.417235 
L 189.098091 1095.250272 
L 190.544564 1094.915292 
L 195.205421 1094.285187 
L 198.580525 1093.237888 
L 199.866279 1092.719116 
L 201.152032 1092.141869 
L 202.116348 1091.775191 
L 203.080663 1091.409489 
L 204.205698 1090.880246 
L 205.491451 1090.361056 
L 206.616486 1089.795093 
L 207.420082 1089.382286 
L 210.795186 1087.805931 
L 211.277343 1087.60451 
L 212.241659 1087.246 
L 213.205974 1086.754082 
L 214.652447 1086.077666 
L 219.634743 1083.572097 
L 221.402654 1082.763778 
L 223.974162 1081.683646 
L 224.938477 1081.284974 
L 226.867108 1080.398021 
L 227.670704 1080.079561 
L 229.920773 1079.241141 
L 236.349542 1076.174524 
L 237.313858 1075.696322 
L 244.867661 1072.174026 
L 246.153415 1071.592481 
L 248.564203 1070.466353 
L 250.171395 1069.600452 
L 253.546499 1067.986103 
L 255.796568 1066.726095 
L 257.082322 1066.006484 
L 259.171672 1064.887295 
L 260.939583 1063.967147 
L 264.796845 1062.015093 
L 267.207633 1060.889108 
L 269.93986 1059.445018 
L 275.082875 1056.461796 
L 283.118836 1051.82196 
L 287.136817 1049.64729 
L 290.029763 1048.009291 
L 291.958393 1046.952988 
L 307.708877 1038.294862 
L 331.97748 1023.837208 
L 335.513303 1021.567931 
L 338.406249 1019.798751 
L 341.620634 1017.704078 
L 345.156456 1015.433636 
L 368.942901 1000.047918 
L 379.068213 992.961255 
L 389.514962 985.581887 
L 411.694215 969.710346 
L 416.515792 966.072374 
L 421.498087 962.351405 
L 433.712748 952.503806 
L 438.534325 948.642014 
L 446.570286 942.477989 
L 448.981075 940.652203 
L 451.552582 938.653178 
L 459.267105 932.591987 
L 463.285086 929.36339 
L 470.999608 923.033768 
L 479.357008 916.468677 
L 486.750092 911.022618 
L 498.161157 902.766316 
L 498.161157 902.766316 
" clip-path="url(#p365ce01ed9)" style="fill: none; stroke: #2ca02c; stroke-width: 1.5; stroke-linecap: square"/>
   </g>
   <g id="line2d_56">
    <path d="M 152.293388 1105.368786 
L 152.614827 1076.809754 
L 152.936265 1065.757333 
L 153.579142 1051.621748 
L 153.900581 1047.200504 
L 154.222019 1046.796839 
L 154.382738 1046.776236 
L 154.543458 1046.379613 
L 154.864896 1046.354659 
L 155.186334 1046.675848 
L 155.507773 1047.22264 
L 160.811507 1068.579988 
L 163.865173 1078.208079 
L 166.597399 1084.345955 
L 167.883153 1086.456331 
L 169.008188 1087.934682 
L 169.972503 1089.107397 
L 171.740414 1091.278653 
L 173.508326 1093.095881 
L 175.919114 1094.814239 
L 179.937095 1096.596936 
L 181.865726 1096.867412 
L 183.472918 1097.039991 
L 186.205145 1096.767202 
L 187.008741 1096.58209 
L 188.294494 1096.428874 
L 189.419529 1096.267113 
L 190.866002 1096.208597 
L 196.169736 1095.138759 
L 197.294771 1094.70818 
L 199.866279 1093.866129 
L 203.402101 1092.26321 
L 203.884259 1092.071947 
L 205.973609 1090.975074 
L 214.813166 1086.927494 
L 216.902516 1085.920839 
L 218.509708 1085.233422 
L 222.849127 1082.636568 
L 224.777758 1081.381773 
L 227.349266 1079.621856 
L 229.599335 1078.294646 
L 230.885089 1077.566515 
L 233.456596 1075.842027 
L 234.581631 1075.118371 
L 244.224784 1069.294104 
L 244.867661 1068.929759 
L 246.796292 1067.808346 
L 253.38578 1063.891274 
L 255.796568 1062.346844 
L 257.56448 1061.251379 
L 259.975268 1059.824114 
L 265.118283 1056.870877 
L 278.13654 1048.731572 
L 280.868767 1046.726007 
L 284.243871 1044.229433 
L 285.690344 1043.231717 
L 287.779694 1041.784936 
L 291.154797 1039.608091 
L 295.654936 1036.733405 
L 297.583566 1035.50109 
L 301.280108 1033.069797 
L 309.15535 1027.785479 
L 312.691173 1025.428019 
L 314.619804 1024.085162 
L 318.477065 1021.310946 
L 335.031145 1009.514507 
L 336.959776 1008.083337 
L 347.888683 1000.166344 
L 357.210398 993.614294 
L 359.781906 991.883097 
L 361.710536 990.62199 
L 364.442763 988.826881 
L 367.978586 986.479126 
L 370.871532 984.60729 
L 375.693109 981.48126 
L 387.90777 973.548109 
L 389.99712 972.258954 
L 392.729347 970.564774 
L 399.479554 966.475147 
L 408.64055 960.484925 
L 411.854934 958.41272 
L 415.230038 956.157609 
L 422.462403 951.588617 
L 427.12326 948.62765 
L 431.462679 945.891554 
L 436.284256 942.816235 
L 443.355902 938.210379 
L 478.714131 916.447056 
L 489.964477 908.616428 
L 498.161157 902.766316 
L 498.161157 902.766316 
" clip-path="url(#p365ce01ed9)" style="fill: none; stroke: #d62728; stroke-width: 1.5; stroke-linecap: square"/>
   </g>
   <g id="patch_35">
    <path d="M 135 1153.44 
L 135 890.829474 
" style="fill: none; stroke: #000000; stroke-width: 0.8; stroke-linejoin: miter; stroke-linecap: square"/>
   </g>
   <g id="patch_36">
    <path d="M 515.454545 1153.44 
L 515.454545 890.829474 
" style="fill: none; stroke: #000000; stroke-width: 0.8; stroke-linejoin: miter; stroke-linecap: square"/>
   </g>
   <g id="patch_37">
    <path d="M 135 1153.44 
L 515.454545 1153.44 
" style="fill: none; stroke: #000000; stroke-width: 0.8; stroke-linejoin: miter; stroke-linecap: square"/>
   </g>
   <g id="patch_38">
    <path d="M 135 890.829474 
L 515.454545 890.829474 
" style="fill: none; stroke: #000000; stroke-width: 0.8; stroke-linejoin: miter; stroke-linecap: square"/>
   </g>
   <g id="text_57">
    <!-- e -->
    <g transform="translate(89.376307 872.71352) scale(0.28 -0.28)">
     <defs>
      <path id="DejaVuSans-Bold-65" d="M 4031 1759 
L 4031 1441 
L 1416 1441 
Q 1456 1047 1700 850 
Q 1944 653 2381 653 
Q 2734 653 3104 758 
Q 3475 863 3866 1075 
L 3866 213 
Q 3469 63 3072 -14 
Q 2675 -91 2278 -91 
Q 1328 -91 801 392 
Q 275 875 275 1747 
Q 275 2603 792 3093 
Q 1309 3584 2216 3584 
Q 3041 3584 3536 3087 
Q 4031 2591 4031 1759 
z
M 2881 2131 
Q 2881 2450 2695 2645 
Q 2509 2841 2209 2841 
Q 1884 2841 1681 2658 
Q 1478 2475 1428 2131 
L 2881 2131 
z
" transform="scale(0.015625)"/>
     </defs>
     <use xlink:href="#DejaVuSans-Bold-65"/>
    </g>
   </g>
   <g id="text_58">
    <!-- $Q_{NN}$ -->
    <g transform="translate(302.787273 884.829474) scale(0.24 -0.24)">
     <use xlink:href="#DejaVuSans-Oblique-51" transform="translate(0 0.78125)"/>
     <use xlink:href="#DejaVuSans-Oblique-4e" transform="translate(78.710938 -15.625) scale(0.7)"/>
     <use xlink:href="#DejaVuSans-Oblique-4e" transform="translate(131.074219 -15.625) scale(0.7)"/>
    </g>
   </g>
  </g>
  <g id="axes_6">
   <g id="patch_39">
    <path d="M 591.545455 1153.44 
L 972 1153.44 
L 972 890.829474 
L 591.545455 890.829474 
z
" style="fill: #ffffff"/>
   </g>
   <g id="matplotlib.axis_11">
    <g id="xtick_21">
     <g id="line2d_57">
      <g>
       <use xlink:href="#m7e7fbfd55c" x="608.678124" y="1153.44" style="stroke: #000000; stroke-width: 0.8"/>
      </g>
     </g>
     <g id="text_59">
      <!-- 0 -->
      <g transform="translate(601.679374 1177.156562) scale(0.22 -0.22)">
       <use xlink:href="#DejaVuSans-30"/>
      </g>
     </g>
    </g>
    <g id="xtick_22">
     <g id="line2d_58">
      <g>
       <use xlink:href="#m7e7fbfd55c" x="689.037735" y="1153.44" style="stroke: #000000; stroke-width: 0.8"/>
      </g>
     </g>
     <g id="text_60">
      <!-- 500 -->
      <g transform="translate(668.041485 1177.156562) scale(0.22 -0.22)">
       <use xlink:href="#DejaVuSans-35"/>
       <use xlink:href="#DejaVuSans-30" x="63.623047"/>
       <use xlink:href="#DejaVuSans-30" x="127.246094"/>
      </g>
     </g>
    </g>
    <g id="xtick_23">
     <g id="line2d_59">
      <g>
       <use xlink:href="#m7e7fbfd55c" x="769.397347" y="1153.44" style="stroke: #000000; stroke-width: 0.8"/>
      </g>
     </g>
     <g id="text_61">
      <!-- 1000 -->
      <g transform="translate(741.402347 1177.156562) scale(0.22 -0.22)">
       <use xlink:href="#DejaVuSans-31"/>
       <use xlink:href="#DejaVuSans-30" x="63.623047"/>
       <use xlink:href="#DejaVuSans-30" x="127.246094"/>
       <use xlink:href="#DejaVuSans-30" x="190.869141"/>
      </g>
     </g>
    </g>
    <g id="xtick_24">
     <g id="line2d_60">
      <g>
       <use xlink:href="#m7e7fbfd55c" x="849.756959" y="1153.44" style="stroke: #000000; stroke-width: 0.8"/>
      </g>
     </g>
     <g id="text_62">
      <!-- 1500 -->
      <g transform="translate(821.761959 1177.156562) scale(0.22 -0.22)">
       <use xlink:href="#DejaVuSans-31"/>
       <use xlink:href="#DejaVuSans-35" x="63.623047"/>
       <use xlink:href="#DejaVuSans-30" x="127.246094"/>
       <use xlink:href="#DejaVuSans-30" x="190.869141"/>
      </g>
     </g>
    </g>
    <g id="xtick_25">
     <g id="line2d_61">
      <g>
       <use xlink:href="#m7e7fbfd55c" x="930.11657" y="1153.44" style="stroke: #000000; stroke-width: 0.8"/>
      </g>
     </g>
     <g id="text_63">
      <!-- 2000 -->
      <g transform="translate(902.12157 1177.156562) scale(0.22 -0.22)">
       <use xlink:href="#DejaVuSans-32"/>
       <use xlink:href="#DejaVuSans-30" x="63.623047"/>
       <use xlink:href="#DejaVuSans-30" x="127.246094"/>
       <use xlink:href="#DejaVuSans-30" x="190.869141"/>
      </g>
     </g>
    </g>
    <g id="text_64">
     <!-- k -->
     <g transform="translate(774.823977 1203.968125) scale(0.24 -0.24)">
      <use xlink:href="#DejaVuSans-6b"/>
     </g>
    </g>
   </g>
   <g id="matplotlib.axis_12">
    <g id="ytick_21">
     <g id="line2d_62">
      <g>
       <use xlink:href="#mf03729c4c2" x="591.545455" y="1130.484714" style="stroke: #000000; stroke-width: 0.8"/>
      </g>
     </g>
     <g id="text_65">
      <!-- 0.0 -->
      <g transform="translate(549.55858 1138.842995) scale(0.22 -0.22)">
       <use xlink:href="#DejaVuSans-30"/>
       <use xlink:href="#DejaVuSans-2e" x="63.623047"/>
       <use xlink:href="#DejaVuSans-30" x="95.410156"/>
      </g>
     </g>
    </g>
    <g id="ytick_22">
     <g id="line2d_63">
      <g>
       <use xlink:href="#mf03729c4c2" x="591.545455" y="1040.282474" style="stroke: #000000; stroke-width: 0.8"/>
      </g>
     </g>
     <g id="text_66">
      <!-- 0.2 -->
      <g transform="translate(549.55858 1048.640755) scale(0.22 -0.22)">
       <use xlink:href="#DejaVuSans-30"/>
       <use xlink:href="#DejaVuSans-2e" x="63.623047"/>
       <use xlink:href="#DejaVuSans-32" x="95.410156"/>
      </g>
     </g>
    </g>
    <g id="ytick_23">
     <g id="line2d_64">
      <g>
       <use xlink:href="#mf03729c4c2" x="591.545455" y="950.080234" style="stroke: #000000; stroke-width: 0.8"/>
      </g>
     </g>
     <g id="text_67">
      <!-- 0.4 -->
      <g transform="translate(549.55858 958.438515) scale(0.22 -0.22)">
       <use xlink:href="#DejaVuSans-30"/>
       <use xlink:href="#DejaVuSans-2e" x="63.623047"/>
       <use xlink:href="#DejaVuSans-34" x="95.410156"/>
      </g>
     </g>
    </g>
   </g>
   <g id="line2d_65">
    <path d="M 608.838843 1119.59689 
L 609.48172 1096.983904 
L 609.803158 1092.706701 
L 610.767474 1082.086269 
L 611.57107 1079.269031 
L 611.892508 1078.622465 
L 612.213947 1077.9888 
L 612.374666 1077.986414 
L 612.535385 1077.757404 
L 612.696104 1077.730979 
L 613.017543 1077.451376 
L 614.303297 1077.113374 
L 614.464016 1077.217664 
L 614.785454 1077.17837 
L 615.267612 1077.80587 
L 615.428331 1077.888772 
L 615.58905 1077.83635 
L 615.74977 1078.019491 
L 616.553366 1077.776215 
L 616.874804 1077.794927 
L 617.196243 1077.887302 
L 618.160558 1078.503112 
L 620.732066 1081.655493 
L 621.374942 1082.556919 
L 623.94645 1085.370793 
L 624.267888 1085.731494 
L 625.714361 1087.125066 
L 627.160834 1088.233285 
L 627.803711 1088.575679 
L 628.285869 1088.748678 
L 628.928746 1089.015849 
L 629.410904 1089.284497 
L 630.05378 1089.513661 
L 630.375219 1089.678995 
L 631.339534 1090.121643 
L 632.14313 1090.264372 
L 634.23248 1090.870145 
L 635.036076 1091.185156 
L 637.929022 1091.802204 
L 638.571899 1092.079878 
L 640.982688 1092.649672 
L 641.786284 1092.928613 
L 644.67923 1094.433716 
L 645.161387 1094.579602 
L 645.643545 1094.713496 
L 647.411457 1095.260548 
L 648.054333 1095.489431 
L 649.500806 1095.919163 
L 650.304403 1096.138736 
L 652.87591 1096.827428 
L 653.840226 1097.066631 
L 654.483102 1097.212436 
L 656.251014 1097.684918 
L 660.751152 1098.66285 
L 669.42999 1100.867178 
L 670.555025 1101.104646 
L 675.376601 1101.83303 
L 676.180198 1102.046467 
L 676.823074 1102.205897 
L 678.269547 1102.62036 
L 680.358897 1103.078715 
L 684.216159 1104.210521 
L 695.787943 1106.899927 
L 698.52017 1107.721564 
L 706.234692 1109.718923 
L 715.234969 1111.362689 
L 718.931511 1111.726484 
L 734.039118 1113.183384 
L 747.860971 1115.215543 
L 748.986006 1115.329979 
L 753.003986 1115.723333 
L 758.46844 1116.118483 
L 771.004539 1116.860675 
L 776.468993 1117.460492 
L 781.612008 1117.922652 
L 808.452118 1120.726354 
L 811.666503 1121.212326 
L 828.059864 1124.056639 
L 837.703017 1125.307612 
L 843.167471 1126.238888 
L 848.149767 1127.126036 
L 853.453501 1128.061665 
L 866.15032 1129.716324 
L 873.543404 1130.147319 
L 876.114911 1130.323281 
L 883.347276 1130.690368 
L 885.275907 1130.800271 
L 899.25848 1131.606707 
L 904.080056 1131.957241 
L 906.008687 1131.917759 
L 915.169683 1131.10475 
L 919.509102 1130.790699 
L 926.09859 1130.357464 
L 940.724039 1129.063475 
L 943.295547 1129.05326 
L 948.277843 1129.183204 
L 950.045754 1129.436063 
L 951.170789 1129.713133 
L 952.9387 1130.011701 
L 953.420858 1130.171082 
L 953.742296 1130.298446 
L 954.224454 1130.375835 
L 954.706612 1130.484714 
L 954.706612 1130.484714 
" clip-path="url(#p2a8816484d)" style="fill: none; stroke: #1f77b4; stroke-width: 1.5; stroke-linecap: square"/>
   </g>
   <g id="line2d_66">
    <path d="M 608.838843 955.231155 
L 609.160281 914.890205 
L 609.48172 902.843892 
L 609.642439 902.920763 
L 609.803158 902.766316 
L 609.963878 903.252481 
L 610.124597 904.188986 
L 610.285316 904.289122 
L 613.178262 950.006681 
L 615.267612 973.62501 
L 617.356962 995.561944 
L 618.803435 1008.59664 
L 619.928469 1017.065704 
L 621.535662 1027.248304 
L 622.499977 1032.365444 
L 624.428608 1040.897506 
L 627.964431 1052.700093 
L 630.05378 1058.189635 
L 630.857377 1059.876856 
L 631.982411 1062.018989 
L 635.357515 1068.628151 
L 636.803988 1070.963947 
L 637.446865 1071.914625 
L 638.250461 1073.011016 
L 638.732619 1073.470078 
L 640.018372 1075.101983 
L 641.625565 1077.056805 
L 643.875634 1079.127797 
L 645.322107 1080.450551 
L 647.572176 1082.189205 
L 648.375772 1082.882133 
L 649.340087 1083.523916 
L 649.661526 1083.672566 
L 650.465122 1084.035004 
L 651.107999 1084.34776 
L 651.590156 1084.601671 
L 655.125979 1086.527154 
L 656.090295 1086.962428 
L 656.733172 1087.311546 
L 657.215329 1087.519829 
L 657.536768 1087.65342 
L 658.018925 1087.823607 
L 659.14396 1088.323223 
L 666.215606 1091.534502 
L 667.179921 1091.830833 
L 667.983517 1092.061066 
L 668.465675 1092.077141 
L 671.51934 1093.008892 
L 671.840779 1093.084916 
L 672.483655 1093.282666 
L 674.894444 1094.039776 
L 675.537321 1094.188646 
L 676.501636 1094.441901 
L 678.430267 1095.0471 
L 681.001774 1095.702484 
L 682.126809 1096.067998 
L 683.412563 1096.463981 
L 686.626947 1097.169598 
L 692.25212 1098.127613 
L 693.537874 1098.507587 
L 694.502189 1098.628466 
L 700.127362 1100.424946 
L 701.573835 1100.978785 
L 702.859589 1101.49891 
L 704.466781 1102.170212 
L 710.89555 1103.884789 
L 712.020584 1104.119713 
L 716.360003 1105.333897 
L 720.377984 1106.381962 
L 721.18158 1106.637352 
L 727.610349 1108.186077 
L 728.896103 1108.462503 
L 735.003433 1109.588479 
L 736.128468 1109.784324 
L 740.146448 1110.756061 
L 746.09306 1112.297658 
L 751.075356 1113.723338 
L 754.771898 1114.302966 
L 756.700528 1114.542267 
L 757.825563 1114.745782 
L 763.290017 1116.053134 
L 768.111593 1117.197344 
L 770.040224 1117.797264 
L 775.183239 1119.064748 
L 778.236904 1119.913937 
L 779.20122 1120.19926 
L 780.647693 1120.529187 
L 782.415604 1120.848202 
L 785.30855 1121.411126 
L 787.719339 1121.901398 
L 789.005092 1122.174838 
L 791.737319 1122.633595 
L 792.862354 1122.817199 
L 793.826669 1123.046415 
L 803.791261 1125.123115 
L 812.30938 1127.585511 
L 824.363321 1130.485727 
L 825.327637 1130.611305 
L 827.899144 1131.016329 
L 831.595687 1131.453965 
L 832.720721 1131.630098 
L 835.613667 1132.198932 
L 842.685313 1133.133158 
L 843.810347 1133.317917 
L 848.953363 1134.057266 
L 851.203432 1134.422564 
L 853.132062 1134.68057 
L 859.721551 1135.372406 
L 863.418093 1135.674489 
L 865.668162 1135.820324 
L 867.275354 1135.913508 
L 869.364704 1136.063052 
L 872.418369 1136.247376 
L 873.382685 1136.291875 
L 880.132892 1136.228307 
L 885.436626 1135.966038 
L 891.704676 1135.95999 
L 899.901356 1135.544345 
L 906.169406 1135.130549 
L 913.56249 1134.363924 
L 916.133998 1134.068608 
L 918.384067 1133.844919 
L 921.116294 1133.514445 
L 925.777151 1132.860098 
L 930.438009 1132.298837 
L 931.723763 1132.186498 
L 942.813389 1130.963359 
L 948.117123 1130.651445 
L 953.420858 1130.490964 
L 954.706612 1130.484714 
L 954.706612 1130.484714 
" clip-path="url(#p2a8816484d)" style="fill: none; stroke: #ff7f0e; stroke-width: 1.5; stroke-linecap: square"/>
   </g>
   <g id="line2d_67">
    <path d="M 608.838843 1049.662934 
L 609.160281 985.312722 
L 609.48172 956.362213 
L 609.963878 937.067852 
L 610.285316 930.692331 
L 610.767474 928.688987 
L 611.731789 940.917714 
L 613.178262 960.258975 
L 613.4997 963.783785 
L 613.981858 968.13988 
L 614.785454 975.644096 
L 619.124873 1012.447285 
L 620.892785 1024.80323 
L 622.178539 1032.476665 
L 625.232204 1044.700513 
L 626.196519 1047.819724 
L 628.12515 1053.012621 
L 630.2145 1057.91525 
L 630.696657 1058.875262 
L 632.30385 1062.425288 
L 633.428884 1064.450199 
L 634.875357 1067.142267 
L 635.839672 1068.920217 
L 636.643269 1070.367772 
L 637.607584 1071.84936 
L 638.571899 1073.646285 
L 642.58988 1078.956305 
L 643.714914 1080.263575 
L 644.518511 1081.180249 
L 645.322107 1082.022761 
L 647.411457 1083.922584 
L 648.375772 1085.003938 
L 652.072314 1088.808838 
L 653.679506 1090.050904 
L 656.893891 1091.94971 
L 657.376048 1092.155612 
L 662.840502 1095.043517 
L 663.644098 1095.273043 
L 664.286975 1095.5296 
L 665.572729 1096.191551 
L 667.34064 1096.901316 
L 667.662079 1097.053911 
L 668.947832 1097.7759 
L 674.894444 1100.243005 
L 677.465951 1101.157912 
L 678.430267 1101.667272 
L 679.073144 1101.97759 
L 681.001774 1103.05881 
L 684.698316 1104.973581 
L 685.823351 1105.705102 
L 687.591262 1106.550637 
L 690.002051 1107.421091 
L 692.091401 1108.418442 
L 699.805923 1111.794714 
L 701.091677 1112.360718 
L 702.216712 1112.871108 
L 703.502466 1113.539475 
L 704.466781 1113.916393 
L 705.591815 1114.31009 
L 707.841885 1115.185433 
L 709.127638 1115.724188 
L 712.181304 1116.679615 
L 713.788496 1117.097533 
L 715.234969 1117.60439 
L 718.288634 1118.548967 
L 718.770792 1118.766578 
L 720.377984 1119.345638 
L 725.681718 1121.550602 
L 727.931787 1122.115237 
L 730.342576 1122.577159 
L 732.271206 1123.106116 
L 733.235522 1123.326506 
L 733.878399 1123.534447 
L 734.521276 1123.623409 
L 738.057099 1124.516122 
L 740.628606 1125.109886 
L 744.325148 1126.283372 
L 748.02169 1127.262614 
L 749.950321 1127.940642 
L 751.396794 1128.458144 
L 753.486144 1129.068544 
L 756.861248 1130.001643 
L 757.664844 1130.172589 
L 761.682824 1131.329273 
L 764.254332 1131.985268 
L 765.861524 1132.417388 
L 766.66512 1132.643045 
L 770.200943 1133.446105 
L 775.986835 1134.690747 
L 781.451289 1135.717295 
L 786.433585 1136.686534 
L 788.683654 1136.985616 
L 791.415881 1137.268662 
L 795.7553 1137.96338 
L 811.345064 1139.922821 
L 812.952257 1140.171083 
L 824.524041 1141.308205 
L 829.827775 1141.400545 
L 831.595687 1141.384188 
L 834.488633 1141.496756 
L 836.256544 1141.454006 
L 837.220859 1141.447317 
L 844.774663 1141.463616 
L 846.060417 1141.478 
L 853.935659 1141.338826 
L 854.899974 1141.358027 
L 856.989324 1141.354705 
L 862.935935 1141.236237 
L 867.275354 1141.213152 
L 870.329019 1140.970077 
L 872.096931 1140.821227 
L 874.989877 1140.575825 
L 876.275631 1140.474566 
L 878.847138 1140.25366 
L 880.132892 1139.99336 
L 895.07978 1137.301407 
L 899.419199 1136.799653 
L 900.704953 1136.6796 
L 903.597899 1136.396845 
L 912.919614 1135.21529 
L 923.527082 1133.239131 
L 926.420028 1132.655265 
L 935.741743 1131.239056 
L 940.402601 1130.922824 
L 945.706335 1130.775819 
L 954.706612 1130.484714 
L 954.706612 1130.484714 
" clip-path="url(#p2a8816484d)" style="fill: none; stroke: #2ca02c; stroke-width: 1.5; stroke-linecap: square"/>
   </g>
   <g id="line2d_68">
    <path d="M 608.838843 1053.013064 
L 609.160281 1000.807072 
L 609.48172 980.860036 
L 610.124597 955.650699 
L 610.446035 947.922754 
L 610.767474 947.597892 
L 610.928193 947.769407 
L 611.088912 947.248041 
L 611.249631 947.354575 
L 611.57107 948.055621 
L 612.053227 950.058346 
L 617.356962 996.325805 
L 620.410627 1018.047351 
L 623.303573 1033.659632 
L 624.750046 1039.787586 
L 625.553642 1042.67367 
L 626.678677 1046.691889 
L 628.12515 1051.924175 
L 628.928746 1054.575652 
L 630.05378 1058.049521 
L 632.625288 1064.707942 
L 634.23248 1068.176441 
L 636.643269 1073.115022 
L 636.964707 1073.651939 
L 639.857653 1078.144854 
L 640.339811 1078.762864 
L 640.982688 1079.563749 
L 641.464845 1080.044252 
L 642.58988 1081.204941 
L 645.964984 1084.631619 
L 647.250737 1086.229636 
L 648.69721 1087.728346 
L 649.179368 1088.11496 
L 650.465122 1089.285688 
L 651.107999 1089.924171 
L 652.715191 1091.350608 
L 653.036629 1091.552643 
L 654.000945 1092.146027 
L 655.125979 1092.931813 
L 655.768856 1093.502423 
L 656.251014 1093.722202 
L 657.05461 1094.111935 
L 658.340364 1094.622165 
L 658.822521 1094.861544 
L 659.14396 1094.985473 
L 661.072591 1095.970133 
L 662.519064 1096.456601 
L 664.447694 1097.2712 
L 664.929852 1097.451178 
L 669.108552 1099.543719 
L 670.233586 1100.084875 
L 670.715744 1100.331488 
L 671.51934 1100.570246 
L 672.322936 1100.935173 
L 672.965813 1101.220973 
L 673.447971 1101.387962 
L 674.894444 1102.159978 
L 675.69804 1102.357467 
L 676.501636 1102.493227 
L 678.590986 1102.907221 
L 680.198178 1103.217377 
L 680.841055 1103.269871 
L 681.483932 1103.279846 
L 681.96609 1103.223392 
L 682.287528 1103.197903 
L 682.930405 1103.180676 
L 683.573282 1103.281474 
L 685.662632 1103.792332 
L 689.037735 1104.422011 
L 689.680612 1104.429389 
L 691.127085 1104.525386 
L 691.930681 1104.755503 
L 693.055716 1105.054845 
L 694.823627 1105.226096 
L 696.752258 1105.462089 
L 697.395135 1105.547841 
L 698.35945 1105.810386 
L 698.841608 1105.897755 
L 704.6275 1107.355962 
L 705.913254 1107.726331 
L 706.71685 1107.915216 
L 707.359727 1108.121338 
L 713.788496 1108.839707 
L 714.91353 1109.05286 
L 717.967196 1109.82161 
L 718.610073 1110.043935 
L 719.252949 1110.167204 
L 720.699422 1110.490774 
L 721.985176 1110.759594 
L 723.753088 1111.175297 
L 725.199561 1111.352625 
L 726.324595 1111.411651 
L 733.235522 1112.533955 
L 736.610626 1112.643563 
L 743.200114 1112.39131 
L 746.09306 1112.658875 
L 762.164982 1114.390851 
L 764.254332 1114.462412 
L 769.236628 1114.769777 
L 770.040224 1114.788112 
L 771.968855 1114.767473 
L 774.540362 1114.723496 
L 780.326254 1114.832697 
L 783.058481 1114.983376 
L 786.594304 1114.642373 
L 787.880058 1114.681724 
L 789.165812 1114.667015 
L 791.255161 1114.576463 
L 793.183792 1114.47386 
L 794.308827 1114.408372 
L 797.68393 1114.313492 
L 804.594857 1114.102536 
L 805.719892 1114.14107 
L 811.184345 1114.18929 
L 811.987941 1114.209151 
L 814.880887 1114.213959 
L 819.220306 1114.618282 
L 820.50606 1114.74537 
L 828.059864 1115.494327 
L 829.827775 1115.764201 
L 831.595687 1115.881266 
L 832.399283 1115.920703 
L 833.524317 1116.02337 
L 834.488633 1116.081969 
L 836.577982 1116.324616 
L 838.828052 1116.535508 
L 840.274525 1116.701532 
L 848.792643 1117.903328 
L 855.864289 1119.255446 
L 857.310762 1119.382614 
L 868.721827 1120.547033 
L 872.900527 1120.897965 
L 874.347 1121.130764 
L 877.400665 1121.558314 
L 880.775769 1122.045979 
L 882.061523 1122.202805 
L 883.990153 1122.440995 
L 896.847691 1124.036952 
L 898.454883 1124.144679 
L 900.062076 1124.392011 
L 901.026391 1124.567519 
L 902.794302 1124.778219 
L 906.973002 1125.543676 
L 908.258756 1125.843777 
L 926.420028 1129.031359 
L 930.438009 1129.796698 
L 932.848797 1130.092273 
L 939.759724 1130.557187 
L 954.706612 1130.484714 
L 954.706612 1130.484714 
" clip-path="url(#p2a8816484d)" style="fill: none; stroke: #d62728; stroke-width: 1.5; stroke-linecap: square"/>
   </g>
   <g id="patch_40">
    <path d="M 591.545455 1153.44 
L 591.545455 890.829474 
" style="fill: none; stroke: #000000; stroke-width: 0.8; stroke-linejoin: miter; stroke-linecap: square"/>
   </g>
   <g id="patch_41">
    <path d="M 972 1153.44 
L 972 890.829474 
" style="fill: none; stroke: #000000; stroke-width: 0.8; stroke-linejoin: miter; stroke-linecap: square"/>
   </g>
   <g id="patch_42">
    <path d="M 591.545455 1153.44 
L 972 1153.44 
" style="fill: none; stroke: #000000; stroke-width: 0.8; stroke-linejoin: miter; stroke-linecap: square"/>
   </g>
   <g id="patch_43">
    <path d="M 591.545455 890.829474 
L 972 890.829474 
" style="fill: none; stroke: #000000; stroke-width: 0.8; stroke-linejoin: miter; stroke-linecap: square"/>
   </g>
   <g id="text_68">
    <!-- f -->
    <g transform="translate(552.733636 872.71352) scale(0.28 -0.28)">
     <defs>
      <path id="DejaVuSans-Bold-66" d="M 2841 4863 
L 2841 4128 
L 2222 4128 
Q 1984 4128 1890 4042 
Q 1797 3956 1797 3744 
L 1797 3500 
L 2753 3500 
L 2753 2700 
L 1797 2700 
L 1797 0 
L 678 0 
L 678 2700 
L 122 2700 
L 122 3500 
L 678 3500 
L 678 3744 
Q 678 4316 997 4589 
Q 1316 4863 1984 4863 
L 2841 4863 
z
" transform="scale(0.015625)"/>
     </defs>
     <use xlink:href="#DejaVuSans-Bold-66"/>
    </g>
   </g>
   <g id="text_69">
    <!-- LCMC -->
    <g transform="translate(747.973977 884.829474) scale(0.24 -0.24)">
     <defs>
      <path id="DejaVuSans-4c" d="M 628 4666 
L 1259 4666 
L 1259 531 
L 3531 531 
L 3531 0 
L 628 0 
L 628 4666 
z
" transform="scale(0.015625)"/>
     </defs>
     <use xlink:href="#DejaVuSans-4c"/>
     <use xlink:href="#DejaVuSans-43" x="55.712891"/>
     <use xlink:href="#DejaVuSans-4d" x="125.537109"/>
     <use xlink:href="#DejaVuSans-43" x="211.816406"/>
    </g>
   </g>
  </g>
 </g>
 <defs>
  <clipPath id="p31e792433b">
   <rect x="135" y="155.52" width="380.454545" height="262.610526"/>
  </clipPath>
  <clipPath id="p2d783c16dc">
   <rect x="591.545455" y="155.52" width="380.454545" height="262.610526"/>
  </clipPath>
  <clipPath id="p45a7b9d026">
   <rect x="135" y="523.174737" width="380.454545" height="262.610526"/>
  </clipPath>
  <clipPath id="p641864102e">
   <rect x="591.545455" y="523.174737" width="380.454545" height="262.610526"/>
  </clipPath>
  <clipPath id="p365ce01ed9">
   <rect x="135" y="890.829474" width="380.454545" height="262.610526"/>
  </clipPath>
  <clipPath id="p2a8816484d">
   <rect x="591.545455" y="890.829474" width="380.454545" height="262.610526"/>
  </clipPath>
 </defs>
</svg>
