<?xml version="1.0" encoding="utf-8" standalone="no"?>
<!DOCTYPE svg PUBLIC "-//W3C//DTD SVG 1.1//EN"
  "http://www.w3.org/Graphics/SVG/1.1/DTD/svg11.dtd">
<svg xmlns:xlink="http://www.w3.org/1999/xlink" width="1080pt" height="1296pt" viewBox="0 0 1080 1296" xmlns="http://www.w3.org/2000/svg" version="1.1">
 <metadata>
  <rdf:RDF xmlns:dc="http://purl.org/dc/elements/1.1/" xmlns:cc="http://creativecommons.org/ns#" xmlns:rdf="http://www.w3.org/1999/02/22-rdf-syntax-ns#">
   <cc:Work>
    <dc:type rdf:resource="http://purl.org/dc/dcmitype/StillImage"/>
    <dc:date>2024-07-24T10:50:00.950365</dc:date>
    <dc:format>image/svg+xml</dc:format>
    <dc:creator>
     <cc:Agent>
      <dc:title>Matplotlib v3.8.4, https://matplotlib.org/</dc:title>
     </cc:Agent>
    </dc:creator>
   </cc:Work>
  </rdf:RDF>
 </metadata>
 <defs>
  <style type="text/css">*{stroke-linejoin: round; stroke-linecap: butt}</style>
 </defs>
 <g id="figure_1">
  <g id="patch_1">
   <path d="M 0 1296 
L 1080 1296 
L 1080 0 
L 0 0 
z
" style="fill: #ffffff"/>
  </g>
  <g id="axes_1">
   <g id="patch_2">
    <path d="M 135 418.130526 
L 515.454545 418.130526 
L 515.454545 155.52 
L 135 155.52 
z
" style="fill: #ffffff"/>
   </g>
   <g id="matplotlib.axis_1">
    <g id="xtick_1">
     <g id="line2d_1">
      <defs>
       <path id="mc0c859863b" d="M 0 0 
L 0 3.5 
" style="stroke: #000000; stroke-width: 0.8"/>
      </defs>
      <g>
       <use xlink:href="#mc0c859863b" x="137.882231" y="418.130526" style="stroke: #000000; stroke-width: 0.8"/>
      </g>
     </g>
     <g id="text_1">
      <!-- 0 -->
      <g transform="translate(131.519731 440.327401) scale(0.2 -0.2)">
       <defs>
        <path id="DejaVuSans-30" d="M 2034 4250 
Q 1547 4250 1301 3770 
Q 1056 3291 1056 2328 
Q 1056 1369 1301 889 
Q 1547 409 2034 409 
Q 2525 409 2770 889 
Q 3016 1369 3016 2328 
Q 3016 3291 2770 3770 
Q 2525 4250 2034 4250 
z
M 2034 4750 
Q 2819 4750 3233 4129 
Q 3647 3509 3647 2328 
Q 3647 1150 3233 529 
Q 2819 -91 2034 -91 
Q 1250 -91 836 529 
Q 422 1150 422 2328 
Q 422 3509 836 4129 
Q 1250 4750 2034 4750 
z
" transform="scale(0.015625)"/>
       </defs>
       <use xlink:href="#DejaVuSans-30"/>
      </g>
     </g>
    </g>
    <g id="xtick_2">
     <g id="line2d_2">
      <g>
       <use xlink:href="#mc0c859863b" x="209.938017" y="418.130526" style="stroke: #000000; stroke-width: 0.8"/>
      </g>
     </g>
     <g id="text_2">
      <!-- 10 -->
      <g transform="translate(197.213017 440.327401) scale(0.2 -0.2)">
       <defs>
        <path id="DejaVuSans-31" d="M 794 531 
L 1825 531 
L 1825 4091 
L 703 3866 
L 703 4441 
L 1819 4666 
L 2450 4666 
L 2450 531 
L 3481 531 
L 3481 0 
L 794 0 
L 794 531 
z
" transform="scale(0.015625)"/>
       </defs>
       <use xlink:href="#DejaVuSans-31"/>
       <use xlink:href="#DejaVuSans-30" x="63.623047"/>
      </g>
     </g>
    </g>
    <g id="xtick_3">
     <g id="line2d_3">
      <g>
       <use xlink:href="#mc0c859863b" x="281.993802" y="418.130526" style="stroke: #000000; stroke-width: 0.8"/>
      </g>
     </g>
     <g id="text_3">
      <!-- 20 -->
      <g transform="translate(269.268802 440.327401) scale(0.2 -0.2)">
       <defs>
        <path id="DejaVuSans-32" d="M 1228 531 
L 3431 531 
L 3431 0 
L 469 0 
L 469 531 
Q 828 903 1448 1529 
Q 2069 2156 2228 2338 
Q 2531 2678 2651 2914 
Q 2772 3150 2772 3378 
Q 2772 3750 2511 3984 
Q 2250 4219 1831 4219 
Q 1534 4219 1204 4116 
Q 875 4013 500 3803 
L 500 4441 
Q 881 4594 1212 4672 
Q 1544 4750 1819 4750 
Q 2544 4750 2975 4387 
Q 3406 4025 3406 3419 
Q 3406 3131 3298 2873 
Q 3191 2616 2906 2266 
Q 2828 2175 2409 1742 
Q 1991 1309 1228 531 
z
" transform="scale(0.015625)"/>
       </defs>
       <use xlink:href="#DejaVuSans-32"/>
       <use xlink:href="#DejaVuSans-30" x="63.623047"/>
      </g>
     </g>
    </g>
    <g id="xtick_4">
     <g id="line2d_4">
      <g>
       <use xlink:href="#mc0c859863b" x="354.049587" y="418.130526" style="stroke: #000000; stroke-width: 0.8"/>
      </g>
     </g>
     <g id="text_4">
      <!-- 30 -->
      <g transform="translate(341.324587 440.327401) scale(0.2 -0.2)">
       <defs>
        <path id="DejaVuSans-33" d="M 2597 2516 
Q 3050 2419 3304 2112 
Q 3559 1806 3559 1356 
Q 3559 666 3084 287 
Q 2609 -91 1734 -91 
Q 1441 -91 1130 -33 
Q 819 25 488 141 
L 488 750 
Q 750 597 1062 519 
Q 1375 441 1716 441 
Q 2309 441 2620 675 
Q 2931 909 2931 1356 
Q 2931 1769 2642 2001 
Q 2353 2234 1838 2234 
L 1294 2234 
L 1294 2753 
L 1863 2753 
Q 2328 2753 2575 2939 
Q 2822 3125 2822 3475 
Q 2822 3834 2567 4026 
Q 2313 4219 1838 4219 
Q 1578 4219 1281 4162 
Q 984 4106 628 3988 
L 628 4550 
Q 988 4650 1302 4700 
Q 1616 4750 1894 4750 
Q 2613 4750 3031 4423 
Q 3450 4097 3450 3541 
Q 3450 3153 3228 2886 
Q 3006 2619 2597 2516 
z
" transform="scale(0.015625)"/>
       </defs>
       <use xlink:href="#DejaVuSans-33"/>
       <use xlink:href="#DejaVuSans-30" x="63.623047"/>
      </g>
     </g>
    </g>
    <g id="xtick_5">
     <g id="line2d_5">
      <g>
       <use xlink:href="#mc0c859863b" x="426.105372" y="418.130526" style="stroke: #000000; stroke-width: 0.8"/>
      </g>
     </g>
     <g id="text_5">
      <!-- 40 -->
      <g transform="translate(413.380372 440.327401) scale(0.2 -0.2)">
       <defs>
        <path id="DejaVuSans-34" d="M 2419 4116 
L 825 1625 
L 2419 1625 
L 2419 4116 
z
M 2253 4666 
L 3047 4666 
L 3047 1625 
L 3713 1625 
L 3713 1100 
L 3047 1100 
L 3047 0 
L 2419 0 
L 2419 1100 
L 313 1100 
L 313 1709 
L 2253 4666 
z
" transform="scale(0.015625)"/>
       </defs>
       <use xlink:href="#DejaVuSans-34"/>
       <use xlink:href="#DejaVuSans-30" x="63.623047"/>
      </g>
     </g>
    </g>
    <g id="xtick_6">
     <g id="line2d_6">
      <g>
       <use xlink:href="#mc0c859863b" x="498.161157" y="418.130526" style="stroke: #000000; stroke-width: 0.8"/>
      </g>
     </g>
     <g id="text_6">
      <!-- 50 -->
      <g transform="translate(485.436157 440.327401) scale(0.2 -0.2)">
       <defs>
        <path id="DejaVuSans-35" d="M 691 4666 
L 3169 4666 
L 3169 4134 
L 1269 4134 
L 1269 2991 
Q 1406 3038 1543 3061 
Q 1681 3084 1819 3084 
Q 2600 3084 3056 2656 
Q 3513 2228 3513 1497 
Q 3513 744 3044 326 
Q 2575 -91 1722 -91 
Q 1428 -91 1123 -41 
Q 819 9 494 109 
L 494 744 
Q 775 591 1075 516 
Q 1375 441 1709 441 
Q 2250 441 2565 725 
Q 2881 1009 2881 1497 
Q 2881 1984 2565 2268 
Q 2250 2553 1709 2553 
Q 1456 2553 1204 2497 
Q 953 2441 691 2322 
L 691 4666 
z
" transform="scale(0.015625)"/>
       </defs>
       <use xlink:href="#DejaVuSans-35"/>
       <use xlink:href="#DejaVuSans-30" x="63.623047"/>
      </g>
     </g>
    </g>
    <g id="text_7">
     <!-- k -->
     <g transform="translate(318.278523 466.723026) scale(0.24 -0.24)">
      <defs>
       <path id="DejaVuSans-6b" d="M 581 4863 
L 1159 4863 
L 1159 1991 
L 2875 3500 
L 3609 3500 
L 1753 1863 
L 3688 0 
L 2938 0 
L 1159 1709 
L 1159 0 
L 581 0 
L 581 4863 
z
" transform="scale(0.015625)"/>
      </defs>
      <use xlink:href="#DejaVuSans-6b"/>
     </g>
    </g>
   </g>
   <g id="matplotlib.axis_2">
    <g id="ytick_1">
     <g id="line2d_7">
      <defs>
       <path id="mc1f18b57d2" d="M 0 0 
L -3.5 0 
" style="stroke: #000000; stroke-width: 0.8"/>
      </defs>
      <g>
       <use xlink:href="#mc1f18b57d2" x="135" y="418.130526" style="stroke: #000000; stroke-width: 0.8"/>
      </g>
     </g>
     <g id="text_8">
      <!-- 0.0 -->
      <g transform="translate(96.19375 425.728964) scale(0.2 -0.2)">
       <defs>
        <path id="DejaVuSans-2e" d="M 684 794 
L 1344 794 
L 1344 0 
L 684 0 
L 684 794 
z
" transform="scale(0.015625)"/>
       </defs>
       <use xlink:href="#DejaVuSans-30"/>
       <use xlink:href="#DejaVuSans-2e" x="63.623047"/>
       <use xlink:href="#DejaVuSans-30" x="95.410156"/>
      </g>
     </g>
    </g>
    <g id="ytick_2">
     <g id="line2d_8">
      <g>
       <use xlink:href="#mc1f18b57d2" x="135" y="352.477895" style="stroke: #000000; stroke-width: 0.8"/>
      </g>
     </g>
     <g id="text_9">
      <!-- 0.2 -->
      <g transform="translate(96.19375 360.076332) scale(0.2 -0.2)">
       <use xlink:href="#DejaVuSans-30"/>
       <use xlink:href="#DejaVuSans-2e" x="63.623047"/>
       <use xlink:href="#DejaVuSans-32" x="95.410156"/>
      </g>
     </g>
    </g>
    <g id="ytick_3">
     <g id="line2d_9">
      <g>
       <use xlink:href="#mc1f18b57d2" x="135" y="286.825263" style="stroke: #000000; stroke-width: 0.8"/>
      </g>
     </g>
     <g id="text_10">
      <!-- 0.4 -->
      <g transform="translate(96.19375 294.423701) scale(0.2 -0.2)">
       <use xlink:href="#DejaVuSans-30"/>
       <use xlink:href="#DejaVuSans-2e" x="63.623047"/>
       <use xlink:href="#DejaVuSans-34" x="95.410156"/>
      </g>
     </g>
    </g>
    <g id="ytick_4">
     <g id="line2d_10">
      <g>
       <use xlink:href="#mc1f18b57d2" x="135" y="221.172632" style="stroke: #000000; stroke-width: 0.8"/>
      </g>
     </g>
     <g id="text_11">
      <!-- 0.6 -->
      <g transform="translate(96.19375 228.771069) scale(0.2 -0.2)">
       <defs>
        <path id="DejaVuSans-36" d="M 2113 2584 
Q 1688 2584 1439 2293 
Q 1191 2003 1191 1497 
Q 1191 994 1439 701 
Q 1688 409 2113 409 
Q 2538 409 2786 701 
Q 3034 994 3034 1497 
Q 3034 2003 2786 2293 
Q 2538 2584 2113 2584 
z
M 3366 4563 
L 3366 3988 
Q 3128 4100 2886 4159 
Q 2644 4219 2406 4219 
Q 1781 4219 1451 3797 
Q 1122 3375 1075 2522 
Q 1259 2794 1537 2939 
Q 1816 3084 2150 3084 
Q 2853 3084 3261 2657 
Q 3669 2231 3669 1497 
Q 3669 778 3244 343 
Q 2819 -91 2113 -91 
Q 1303 -91 875 529 
Q 447 1150 447 2328 
Q 447 3434 972 4092 
Q 1497 4750 2381 4750 
Q 2619 4750 2861 4703 
Q 3103 4656 3366 4563 
z
" transform="scale(0.015625)"/>
       </defs>
       <use xlink:href="#DejaVuSans-30"/>
       <use xlink:href="#DejaVuSans-2e" x="63.623047"/>
       <use xlink:href="#DejaVuSans-36" x="95.410156"/>
      </g>
     </g>
    </g>
    <g id="ytick_5">
     <g id="line2d_11">
      <g>
       <use xlink:href="#mc1f18b57d2" x="135" y="155.52" style="stroke: #000000; stroke-width: 0.8"/>
      </g>
     </g>
     <g id="text_12">
      <!-- 0.8 -->
      <g transform="translate(96.19375 163.118438) scale(0.2 -0.2)">
       <defs>
        <path id="DejaVuSans-38" d="M 2034 2216 
Q 1584 2216 1326 1975 
Q 1069 1734 1069 1313 
Q 1069 891 1326 650 
Q 1584 409 2034 409 
Q 2484 409 2743 651 
Q 3003 894 3003 1313 
Q 3003 1734 2745 1975 
Q 2488 2216 2034 2216 
z
M 1403 2484 
Q 997 2584 770 2862 
Q 544 3141 544 3541 
Q 544 4100 942 4425 
Q 1341 4750 2034 4750 
Q 2731 4750 3128 4425 
Q 3525 4100 3525 3541 
Q 3525 3141 3298 2862 
Q 3072 2584 2669 2484 
Q 3125 2378 3379 2068 
Q 3634 1759 3634 1313 
Q 3634 634 3220 271 
Q 2806 -91 2034 -91 
Q 1263 -91 848 271 
Q 434 634 434 1313 
Q 434 1759 690 2068 
Q 947 2378 1403 2484 
z
M 1172 3481 
Q 1172 3119 1398 2916 
Q 1625 2713 2034 2713 
Q 2441 2713 2670 2916 
Q 2900 3119 2900 3481 
Q 2900 3844 2670 4047 
Q 2441 4250 2034 4250 
Q 1625 4250 1398 4047 
Q 1172 3844 1172 3481 
z
" transform="scale(0.015625)"/>
       </defs>
       <use xlink:href="#DejaVuSans-30"/>
       <use xlink:href="#DejaVuSans-2e" x="63.623047"/>
       <use xlink:href="#DejaVuSans-38" x="95.410156"/>
      </g>
     </g>
    </g>
    <g id="text_13">
     <!-- $P_{NN}$ -->
     <g transform="translate(87.2025 306.985263) rotate(-90) scale(0.24 -0.24)">
      <defs>
       <path id="DejaVuSans-Oblique-50" d="M 1081 4666 
L 2541 4666 
Q 3178 4666 3512 4369 
Q 3847 4072 3847 3500 
Q 3847 2731 3353 2303 
Q 2859 1875 1966 1875 
L 1172 1875 
L 806 0 
L 172 0 
L 1081 4666 
z
M 1613 4147 
L 1275 2394 
L 2069 2394 
Q 2606 2394 2893 2669 
Q 3181 2944 3181 3456 
Q 3181 3784 2986 3965 
Q 2791 4147 2438 4147 
L 1613 4147 
z
" transform="scale(0.015625)"/>
       <path id="DejaVuSans-Oblique-4e" d="M 1081 4666 
L 1931 4666 
L 3219 666 
L 4000 4666 
L 4616 4666 
L 3706 0 
L 2853 0 
L 1569 4025 
L 788 0 
L 172 0 
L 1081 4666 
z
" transform="scale(0.015625)"/>
      </defs>
      <use xlink:href="#DejaVuSans-Oblique-50" transform="translate(0 0.09375)"/>
      <use xlink:href="#DejaVuSans-Oblique-4e" transform="translate(60.302734 -16.3125) scale(0.7)"/>
      <use xlink:href="#DejaVuSans-Oblique-4e" transform="translate(112.666016 -16.3125) scale(0.7)"/>
     </g>
    </g>
   </g>
   <g id="line2d_12">
    <path d="M 152.293388 368.095701 
L 173.910124 354.27105 
L 209.938017 341.776805 
L 281.993802 329.701927 
L 498.161157 312.021991 
" clip-path="url(#p9f94042925)" style="fill: none; stroke: #1f77b4; stroke-width: 1.5; stroke-linecap: square"/>
    <defs>
     <path id="m8eb0148584" d="M 0 3 
C 0.795609 3 1.55874 2.683901 2.12132 2.12132 
C 2.683901 1.55874 3 0.795609 3 0 
C 3 -0.795609 2.683901 -1.55874 2.12132 -2.12132 
C 1.55874 -2.683901 0.795609 -3 0 -3 
C -0.795609 -3 -1.55874 -2.683901 -2.12132 -2.12132 
C -2.683901 -1.55874 -3 -0.795609 -3 0 
C -3 0.795609 -2.683901 1.55874 -2.12132 2.12132 
C -1.55874 2.683901 -0.795609 3 0 3 
z
" style="stroke: #1f77b4"/>
    </defs>
    <g clip-path="url(#p9f94042925)">
     <use xlink:href="#m8eb0148584" x="152.293388" y="368.095701" style="fill: #1f77b4; stroke: #1f77b4"/>
     <use xlink:href="#m8eb0148584" x="173.910124" y="354.27105" style="fill: #1f77b4; stroke: #1f77b4"/>
     <use xlink:href="#m8eb0148584" x="209.938017" y="341.776805" style="fill: #1f77b4; stroke: #1f77b4"/>
     <use xlink:href="#m8eb0148584" x="281.993802" y="329.701927" style="fill: #1f77b4; stroke: #1f77b4"/>
     <use xlink:href="#m8eb0148584" x="498.161157" y="312.021991" style="fill: #1f77b4; stroke: #1f77b4"/>
    </g>
   </g>
   <g id="line2d_13">
    <path d="M 152.293388 210.037714 
L 173.910124 193.639017 
L 209.938017 189.387503 
L 281.993802 198.96064 
L 498.161157 226.17033 
" clip-path="url(#p9f94042925)" style="fill: none; stroke: #ff7f0e; stroke-width: 1.5; stroke-linecap: square"/>
    <defs>
     <path id="mdbe647ee5b" d="M 0 3 
C 0.795609 3 1.55874 2.683901 2.12132 2.12132 
C 2.683901 1.55874 3 0.795609 3 0 
C 3 -0.795609 2.683901 -1.55874 2.12132 -2.12132 
C 1.55874 -2.683901 0.795609 -3 0 -3 
C -0.795609 -3 -1.55874 -2.683901 -2.12132 -2.12132 
C -2.683901 -1.55874 -3 -0.795609 -3 0 
C -3 0.795609 -2.683901 1.55874 -2.12132 2.12132 
C -1.55874 2.683901 -0.795609 3 0 3 
z
" style="stroke: #ff7f0e"/>
    </defs>
    <g clip-path="url(#p9f94042925)">
     <use xlink:href="#mdbe647ee5b" x="152.293388" y="210.037714" style="fill: #ff7f0e; stroke: #ff7f0e"/>
     <use xlink:href="#mdbe647ee5b" x="173.910124" y="193.639017" style="fill: #ff7f0e; stroke: #ff7f0e"/>
     <use xlink:href="#mdbe647ee5b" x="209.938017" y="189.387503" style="fill: #ff7f0e; stroke: #ff7f0e"/>
     <use xlink:href="#mdbe647ee5b" x="281.993802" y="198.96064" style="fill: #ff7f0e; stroke: #ff7f0e"/>
     <use xlink:href="#mdbe647ee5b" x="498.161157" y="226.17033" style="fill: #ff7f0e; stroke: #ff7f0e"/>
    </g>
   </g>
   <g id="line2d_14">
    <path d="M 152.293388 303.310726 
L 173.910124 245.756216 
L 209.938017 207.608277 
L 281.993802 203.31338 
L 498.161157 234.997283 
" clip-path="url(#p9f94042925)" style="fill: none; stroke: #2ca02c; stroke-width: 1.5; stroke-linecap: square"/>
    <defs>
     <path id="mee3d5509f0" d="M 0 3 
C 0.795609 3 1.55874 2.683901 2.12132 2.12132 
C 2.683901 1.55874 3 0.795609 3 0 
C 3 -0.795609 2.683901 -1.55874 2.12132 -2.12132 
C 1.55874 -2.683901 0.795609 -3 0 -3 
C -0.795609 -3 -1.55874 -2.683901 -2.12132 -2.12132 
C -2.683901 -1.55874 -3 -0.795609 -3 0 
C -3 0.795609 -2.683901 1.55874 -2.12132 2.12132 
C -1.55874 2.683901 -0.795609 3 0 3 
z
" style="stroke: #2ca02c"/>
    </defs>
    <g clip-path="url(#p9f94042925)">
     <use xlink:href="#mee3d5509f0" x="152.293388" y="303.310726" style="fill: #2ca02c; stroke: #2ca02c"/>
     <use xlink:href="#mee3d5509f0" x="173.910124" y="245.756216" style="fill: #2ca02c; stroke: #2ca02c"/>
     <use xlink:href="#mee3d5509f0" x="209.938017" y="207.608277" style="fill: #2ca02c; stroke: #2ca02c"/>
     <use xlink:href="#mee3d5509f0" x="281.993802" y="203.31338" style="fill: #2ca02c; stroke: #2ca02c"/>
     <use xlink:href="#mee3d5509f0" x="498.161157" y="234.997283" style="fill: #2ca02c; stroke: #2ca02c"/>
    </g>
   </g>
   <g id="line2d_15">
    <path d="M 152.293388 282.342374 
L 173.910124 244.946404 
L 209.938017 213.942166 
L 281.993802 206.624934 
L 498.161157 227.894073 
" clip-path="url(#p9f94042925)" style="fill: none; stroke: #d62728; stroke-width: 1.5; stroke-linecap: square"/>
    <defs>
     <path id="m3b5cb71362" d="M 0 3 
C 0.795609 3 1.55874 2.683901 2.12132 2.12132 
C 2.683901 1.55874 3 0.795609 3 0 
C 3 -0.795609 2.683901 -1.55874 2.12132 -2.12132 
C 1.55874 -2.683901 0.795609 -3 0 -3 
C -0.795609 -3 -1.55874 -2.683901 -2.12132 -2.12132 
C -2.683901 -1.55874 -3 -0.795609 -3 0 
C -3 0.795609 -2.683901 1.55874 -2.12132 2.12132 
C -1.55874 2.683901 -0.795609 3 0 3 
z
" style="stroke: #d62728"/>
    </defs>
    <g clip-path="url(#p9f94042925)">
     <use xlink:href="#m3b5cb71362" x="152.293388" y="282.342374" style="fill: #d62728; stroke: #d62728"/>
     <use xlink:href="#m3b5cb71362" x="173.910124" y="244.946404" style="fill: #d62728; stroke: #d62728"/>
     <use xlink:href="#m3b5cb71362" x="209.938017" y="213.942166" style="fill: #d62728; stroke: #d62728"/>
     <use xlink:href="#m3b5cb71362" x="281.993802" y="206.624934" style="fill: #d62728; stroke: #d62728"/>
     <use xlink:href="#m3b5cb71362" x="498.161157" y="227.894073" style="fill: #d62728; stroke: #d62728"/>
    </g>
   </g>
   <g id="patch_3">
    <path d="M 135 418.130526 
L 135 155.52 
" style="fill: none; stroke: #000000; stroke-width: 0.8; stroke-linejoin: miter; stroke-linecap: square"/>
   </g>
   <g id="patch_4">
    <path d="M 515.454545 418.130526 
L 515.454545 155.52 
" style="fill: none; stroke: #000000; stroke-width: 0.8; stroke-linejoin: miter; stroke-linecap: square"/>
   </g>
   <g id="patch_5">
    <path d="M 135 418.130526 
L 515.454545 418.130526 
" style="fill: none; stroke: #000000; stroke-width: 0.8; stroke-linejoin: miter; stroke-linecap: square"/>
   </g>
   <g id="patch_6">
    <path d="M 135 155.52 
L 515.454545 155.52 
" style="fill: none; stroke: #000000; stroke-width: 0.8; stroke-linejoin: miter; stroke-linecap: square"/>
   </g>
   <g id="text_14">
    <!-- a -->
    <g transform="translate(89.472557 137.404046) scale(0.28 -0.28)">
     <defs>
      <path id="DejaVuSans-Bold-61" d="M 2106 1575 
Q 1756 1575 1579 1456 
Q 1403 1338 1403 1106 
Q 1403 894 1545 773 
Q 1688 653 1941 653 
Q 2256 653 2472 879 
Q 2688 1106 2688 1447 
L 2688 1575 
L 2106 1575 
z
M 3816 1997 
L 3816 0 
L 2688 0 
L 2688 519 
Q 2463 200 2181 54 
Q 1900 -91 1497 -91 
Q 953 -91 614 226 
Q 275 544 275 1050 
Q 275 1666 698 1953 
Q 1122 2241 2028 2241 
L 2688 2241 
L 2688 2328 
Q 2688 2594 2478 2717 
Q 2269 2841 1825 2841 
Q 1466 2841 1156 2769 
Q 847 2697 581 2553 
L 581 3406 
Q 941 3494 1303 3539 
Q 1666 3584 2028 3584 
Q 2975 3584 3395 3211 
Q 3816 2838 3816 1997 
z
" transform="scale(0.015625)"/>
     </defs>
     <use xlink:href="#DejaVuSans-Bold-61"/>
    </g>
   </g>
   <g id="text_15">
    <!-- $P_{NN}$ -->
    <g transform="translate(303.387273 149.52) scale(0.26 -0.26)">
     <use xlink:href="#DejaVuSans-Oblique-50" transform="translate(0 0.09375)"/>
     <use xlink:href="#DejaVuSans-Oblique-4e" transform="translate(60.302734 -16.3125) scale(0.7)"/>
     <use xlink:href="#DejaVuSans-Oblique-4e" transform="translate(112.666016 -16.3125) scale(0.7)"/>
    </g>
   </g>
  </g>
  <g id="axes_2">
   <g id="patch_7">
    <path d="M 591.545455 418.130526 
L 972 418.130526 
L 972 155.52 
L 591.545455 155.52 
z
" style="fill: #ffffff"/>
   </g>
   <g id="patch_8">
    <path d="M 608.838843 418.130526 
L 628.792753 418.130526 
L 628.792753 182.636178 
L 608.838843 182.636178 
z
" clip-path="url(#p52a3d2f8db)" style="fill: #1f77b4"/>
   </g>
   <g id="patch_9">
    <path d="M 741.864908 418.130526 
L 761.818818 418.130526 
L 761.818818 299.074799 
L 741.864908 299.074799 
z
" clip-path="url(#p52a3d2f8db)" style="fill: #1f77b4"/>
   </g>
   <g id="patch_10">
    <path d="M 874.890973 418.130526 
L 894.844882 418.130526 
L 894.844882 168.025263 
L 874.890973 168.025263 
z
" clip-path="url(#p52a3d2f8db)" style="fill: #1f77b4"/>
   </g>
   <g id="patch_11">
    <path d="M 628.792753 418.130526 
L 648.746662 418.130526 
L 648.746662 184.747047 
L 628.792753 184.747047 
z
" clip-path="url(#p52a3d2f8db)" style="fill: #ff7f0e"/>
   </g>
   <g id="patch_12">
    <path d="M 761.818818 418.130526 
L 781.772727 418.130526 
L 781.772727 186.068586 
L 761.818818 186.068586 
z
" clip-path="url(#p52a3d2f8db)" style="fill: #ff7f0e"/>
   </g>
   <g id="patch_13">
    <path d="M 894.844882 418.130526 
L 914.798792 418.130526 
L 914.798792 184.62237 
L 894.844882 184.62237 
z
" clip-path="url(#p52a3d2f8db)" style="fill: #ff7f0e"/>
   </g>
   <g id="patch_14">
    <path d="M 648.746662 418.130526 
L 668.700572 418.130526 
L 668.700572 194.001483 
L 648.746662 194.001483 
z
" clip-path="url(#p52a3d2f8db)" style="fill: #2ca02c"/>
   </g>
   <g id="patch_15">
    <path d="M 781.772727 418.130526 
L 801.726637 418.130526 
L 801.726637 226.389523 
L 781.772727 226.389523 
z
" clip-path="url(#p52a3d2f8db)" style="fill: #2ca02c"/>
   </g>
   <g id="patch_16">
    <path d="M 914.798792 418.130526 
L 934.752702 418.130526 
L 934.752702 193.500168 
L 914.798792 193.500168 
z
" clip-path="url(#p52a3d2f8db)" style="fill: #2ca02c"/>
   </g>
   <g id="patch_17">
    <path d="M 668.700572 418.130526 
L 688.654482 418.130526 
L 688.654482 190.381677 
L 668.700572 190.381677 
z
" clip-path="url(#p52a3d2f8db)" style="fill: #d62728"/>
   </g>
   <g id="patch_18">
    <path d="M 801.726637 418.130526 
L 821.680547 418.130526 
L 821.680547 222.710031 
L 801.726637 222.710031 
z
" clip-path="url(#p52a3d2f8db)" style="fill: #d62728"/>
   </g>
   <g id="patch_19">
    <path d="M 934.752702 418.130526 
L 954.706612 418.130526 
L 954.706612 189.854722 
L 934.752702 189.854722 
z
" clip-path="url(#p52a3d2f8db)" style="fill: #d62728"/>
   </g>
   <g id="matplotlib.axis_3">
    <g id="xtick_7">
     <g id="line2d_16">
      <g>
       <use xlink:href="#mc0c859863b" x="648.746662" y="418.130526" style="stroke: #000000; stroke-width: 0.8"/>
      </g>
     </g>
     <g id="text_16">
      <!-- AUC -->
      <g transform="translate(625.490256 441.847089) scale(0.22 -0.22)">
       <defs>
        <path id="DejaVuSans-41" d="M 2188 4044 
L 1331 1722 
L 3047 1722 
L 2188 4044 
z
M 1831 4666 
L 2547 4666 
L 4325 0 
L 3669 0 
L 3244 1197 
L 1141 1197 
L 716 0 
L 50 0 
L 1831 4666 
z
" transform="scale(0.015625)"/>
        <path id="DejaVuSans-55" d="M 556 4666 
L 1191 4666 
L 1191 1831 
Q 1191 1081 1462 751 
Q 1734 422 2344 422 
Q 2950 422 3222 751 
Q 3494 1081 3494 1831 
L 3494 4666 
L 4128 4666 
L 4128 1753 
Q 4128 841 3676 375 
Q 3225 -91 2344 -91 
Q 1459 -91 1007 375 
Q 556 841 556 1753 
L 556 4666 
z
" transform="scale(0.015625)"/>
        <path id="DejaVuSans-43" d="M 4122 4306 
L 4122 3641 
Q 3803 3938 3442 4084 
Q 3081 4231 2675 4231 
Q 1875 4231 1450 3742 
Q 1025 3253 1025 2328 
Q 1025 1406 1450 917 
Q 1875 428 2675 428 
Q 3081 428 3442 575 
Q 3803 722 4122 1019 
L 4122 359 
Q 3791 134 3420 21 
Q 3050 -91 2638 -91 
Q 1578 -91 968 557 
Q 359 1206 359 2328 
Q 359 3453 968 4101 
Q 1578 4750 2638 4750 
Q 3056 4750 3426 4639 
Q 3797 4528 4122 4306 
z
" transform="scale(0.015625)"/>
       </defs>
       <use xlink:href="#DejaVuSans-41"/>
       <use xlink:href="#DejaVuSans-55" x="68.408203"/>
       <use xlink:href="#DejaVuSans-43" x="141.601562"/>
      </g>
     </g>
    </g>
    <g id="xtick_8">
     <g id="line2d_17">
      <g>
       <use xlink:href="#mc0c859863b" x="781.772727" y="418.130526" style="stroke: #000000; stroke-width: 0.8"/>
      </g>
     </g>
     <g id="text_17">
      <!-- $Q_{local}$ -->
      <g transform="translate(754.822727 441.847089) scale(0.22 -0.22)">
       <defs>
        <path id="DejaVuSans-Oblique-51" d="M 2309 -84 
Q 2275 -88 2237 -89 
Q 2200 -91 2125 -91 
Q 1250 -91 756 411 
Q 263 913 263 1797 
Q 263 2319 452 2844 
Q 641 3369 978 3788 
Q 1369 4269 1858 4509 
Q 2347 4750 2938 4750 
Q 3794 4750 4287 4245 
Q 4781 3741 4781 2869 
Q 4781 1928 4265 1147 
Q 3750 366 2919 44 
L 3553 -825 
L 2847 -825 
L 2309 -84 
z
M 2919 4238 
Q 2400 4238 2003 3986 
Q 1606 3734 1313 3219 
Q 1125 2891 1026 2522 
Q 928 2153 928 1778 
Q 928 1128 1239 775 
Q 1550 422 2119 422 
Q 2631 422 3032 676 
Q 3434 931 3719 1434 
Q 3909 1772 4009 2142 
Q 4109 2513 4109 2881 
Q 4109 3528 3796 3883 
Q 3484 4238 2919 4238 
z
" transform="scale(0.015625)"/>
        <path id="DejaVuSans-Oblique-6c" d="M 1172 4863 
L 1747 4863 
L 800 0 
L 225 0 
L 1172 4863 
z
" transform="scale(0.015625)"/>
        <path id="DejaVuSans-Oblique-6f" d="M 1625 -91 
Q 1009 -91 651 289 
Q 294 669 294 1325 
Q 294 1706 417 2101 
Q 541 2497 738 2766 
Q 1047 3184 1428 3384 
Q 1809 3584 2291 3584 
Q 2888 3584 3255 3212 
Q 3622 2841 3622 2241 
Q 3622 1825 3500 1412 
Q 3378 1000 3181 728 
Q 2875 309 2494 109 
Q 2113 -91 1625 -91 
z
M 891 1344 
Q 891 869 1089 633 
Q 1288 397 1691 397 
Q 2269 397 2648 901 
Q 3028 1406 3028 2181 
Q 3028 2634 2825 2865 
Q 2622 3097 2228 3097 
Q 1903 3097 1650 2945 
Q 1397 2794 1197 2484 
Q 1050 2253 970 1956 
Q 891 1659 891 1344 
z
" transform="scale(0.015625)"/>
        <path id="DejaVuSans-Oblique-63" d="M 3431 3366 
L 3316 2797 
Q 3109 2947 2876 3022 
Q 2644 3097 2394 3097 
Q 2119 3097 1870 3000 
Q 1622 2903 1453 2725 
Q 1184 2453 1037 2087 
Q 891 1722 891 1331 
Q 891 859 1127 628 
Q 1363 397 1844 397 
Q 2081 397 2348 469 
Q 2616 541 2906 684 
L 2797 116 
Q 2547 13 2283 -39 
Q 2019 -91 1741 -91 
Q 1044 -91 669 257 
Q 294 606 294 1253 
Q 294 1797 489 2255 
Q 684 2713 1069 3078 
Q 1331 3328 1684 3456 
Q 2038 3584 2456 3584 
Q 2700 3584 2940 3529 
Q 3181 3475 3431 3366 
z
" transform="scale(0.015625)"/>
        <path id="DejaVuSans-Oblique-61" d="M 3438 1997 
L 3047 0 
L 2472 0 
L 2578 531 
Q 2325 219 2001 64 
Q 1678 -91 1281 -91 
Q 834 -91 548 182 
Q 263 456 263 884 
Q 263 1497 752 1853 
Q 1241 2209 2100 2209 
L 2900 2209 
L 2931 2363 
Q 2938 2388 2941 2417 
Q 2944 2447 2944 2509 
Q 2944 2788 2717 2942 
Q 2491 3097 2081 3097 
Q 1800 3097 1504 3025 
Q 1209 2953 897 2809 
L 997 3341 
Q 1322 3463 1633 3523 
Q 1944 3584 2234 3584 
Q 2853 3584 3176 3315 
Q 3500 3047 3500 2534 
Q 3500 2431 3484 2292 
Q 3469 2153 3438 1997 
z
M 2816 1759 
L 2241 1759 
Q 1534 1759 1195 1570 
Q 856 1381 856 984 
Q 856 709 1029 553 
Q 1203 397 1509 397 
Q 1978 397 2328 733 
Q 2678 1069 2791 1631 
L 2816 1759 
z
" transform="scale(0.015625)"/>
       </defs>
       <use xlink:href="#DejaVuSans-Oblique-51" transform="translate(0 0.78125)"/>
       <use xlink:href="#DejaVuSans-Oblique-6c" transform="translate(78.710938 -15.625) scale(0.7)"/>
       <use xlink:href="#DejaVuSans-Oblique-6f" transform="translate(98.15918 -15.625) scale(0.7)"/>
       <use xlink:href="#DejaVuSans-Oblique-63" transform="translate(140.986328 -15.625) scale(0.7)"/>
       <use xlink:href="#DejaVuSans-Oblique-61" transform="translate(179.472656 -15.625) scale(0.7)"/>
       <use xlink:href="#DejaVuSans-Oblique-6c" transform="translate(222.368164 -15.625) scale(0.7)"/>
      </g>
     </g>
    </g>
    <g id="xtick_9">
     <g id="line2d_18">
      <g>
       <use xlink:href="#mc0c859863b" x="914.798792" y="418.130526" style="stroke: #000000; stroke-width: 0.8"/>
      </g>
     </g>
     <g id="text_18">
      <!-- $Q_{global}$ -->
      <g transform="translate(882.348792 441.630526) scale(0.22 -0.22)">
       <defs>
        <path id="DejaVuSans-Oblique-67" d="M 3816 3500 
L 3219 434 
Q 3047 -456 2561 -893 
Q 2075 -1331 1253 -1331 
Q 950 -1331 690 -1286 
Q 431 -1241 206 -1147 
L 313 -588 
Q 525 -725 762 -790 
Q 1000 -856 1269 -856 
Q 1816 -856 2167 -557 
Q 2519 -259 2631 300 
L 2681 563 
Q 2441 288 2122 144 
Q 1803 0 1434 0 
Q 903 0 598 351 
Q 294 703 294 1319 
Q 294 1803 478 2267 
Q 663 2731 997 3091 
Q 1219 3328 1514 3456 
Q 1809 3584 2131 3584 
Q 2484 3584 2746 3420 
Q 3009 3256 3138 2956 
L 3238 3500 
L 3816 3500 
z
M 2950 2216 
Q 2950 2641 2750 2872 
Q 2550 3103 2181 3103 
Q 1953 3103 1747 3012 
Q 1541 2922 1394 2759 
Q 1156 2491 1023 2127 
Q 891 1763 891 1375 
Q 891 944 1092 712 
Q 1294 481 1672 481 
Q 2219 481 2584 976 
Q 2950 1472 2950 2216 
z
" transform="scale(0.015625)"/>
        <path id="DejaVuSans-Oblique-62" d="M 3169 2138 
Q 3169 2591 2961 2847 
Q 2753 3103 2388 3103 
Q 2122 3103 1889 2973 
Q 1656 2844 1484 2597 
Q 1303 2338 1198 1995 
Q 1094 1653 1094 1313 
Q 1094 881 1298 636 
Q 1503 391 1863 391 
Q 2134 391 2365 517 
Q 2597 644 2772 891 
Q 2950 1147 3059 1487 
Q 3169 1828 3169 2138 
z
M 1381 2969 
Q 1594 3256 1914 3420 
Q 2234 3584 2584 3584 
Q 3122 3584 3439 3221 
Q 3756 2859 3756 2241 
Q 3756 1734 3570 1259 
Q 3384 784 3041 416 
Q 2816 172 2522 40 
Q 2228 -91 1906 -91 
Q 1566 -91 1316 65 
Q 1066 222 909 531 
L 806 0 
L 231 0 
L 1178 4863 
L 1753 4863 
L 1381 2969 
z
" transform="scale(0.015625)"/>
       </defs>
       <use xlink:href="#DejaVuSans-Oblique-51" transform="translate(0 0.78125)"/>
       <use xlink:href="#DejaVuSans-Oblique-67" transform="translate(78.710938 -15.625) scale(0.7)"/>
       <use xlink:href="#DejaVuSans-Oblique-6c" transform="translate(123.144531 -15.625) scale(0.7)"/>
       <use xlink:href="#DejaVuSans-Oblique-6f" transform="translate(142.592773 -15.625) scale(0.7)"/>
       <use xlink:href="#DejaVuSans-Oblique-62" transform="translate(185.419922 -15.625) scale(0.7)"/>
       <use xlink:href="#DejaVuSans-Oblique-61" transform="translate(229.853516 -15.625) scale(0.7)"/>
       <use xlink:href="#DejaVuSans-Oblique-6c" transform="translate(272.749023 -15.625) scale(0.7)"/>
      </g>
     </g>
    </g>
   </g>
   <g id="matplotlib.axis_4">
    <g id="ytick_6">
     <g id="line2d_19">
      <g>
       <use xlink:href="#mc1f18b57d2" x="591.545455" y="418.130526" style="stroke: #000000; stroke-width: 0.8"/>
      </g>
     </g>
     <g id="text_19">
      <!-- 0.0 -->
      <g transform="translate(549.55858 426.488808) scale(0.22 -0.22)">
       <use xlink:href="#DejaVuSans-30"/>
       <use xlink:href="#DejaVuSans-2e" x="63.623047"/>
       <use xlink:href="#DejaVuSans-30" x="95.410156"/>
      </g>
     </g>
    </g>
    <g id="ytick_7">
     <g id="line2d_20">
      <g>
       <use xlink:href="#mc1f18b57d2" x="591.545455" y="348.705177" style="stroke: #000000; stroke-width: 0.8"/>
      </g>
     </g>
     <g id="text_20">
      <!-- 0.2 -->
      <g transform="translate(549.55858 357.063458) scale(0.22 -0.22)">
       <use xlink:href="#DejaVuSans-30"/>
       <use xlink:href="#DejaVuSans-2e" x="63.623047"/>
       <use xlink:href="#DejaVuSans-32" x="95.410156"/>
      </g>
     </g>
    </g>
    <g id="ytick_8">
     <g id="line2d_21">
      <g>
       <use xlink:href="#mc1f18b57d2" x="591.545455" y="279.279827" style="stroke: #000000; stroke-width: 0.8"/>
      </g>
     </g>
     <g id="text_21">
      <!-- 0.4 -->
      <g transform="translate(549.55858 287.638108) scale(0.22 -0.22)">
       <use xlink:href="#DejaVuSans-30"/>
       <use xlink:href="#DejaVuSans-2e" x="63.623047"/>
       <use xlink:href="#DejaVuSans-34" x="95.410156"/>
      </g>
     </g>
    </g>
    <g id="ytick_9">
     <g id="line2d_22">
      <g>
       <use xlink:href="#mc1f18b57d2" x="591.545455" y="209.854477" style="stroke: #000000; stroke-width: 0.8"/>
      </g>
     </g>
     <g id="text_22">
      <!-- 0.6 -->
      <g transform="translate(549.55858 218.212759) scale(0.22 -0.22)">
       <use xlink:href="#DejaVuSans-30"/>
       <use xlink:href="#DejaVuSans-2e" x="63.623047"/>
       <use xlink:href="#DejaVuSans-36" x="95.410156"/>
      </g>
     </g>
    </g>
    <g id="text_23">
     <!-- Metric Value -->
     <g transform="translate(540.983267 354.727919) rotate(-90) scale(0.22 -0.22)">
      <defs>
       <path id="DejaVuSans-4d" d="M 628 4666 
L 1569 4666 
L 2759 1491 
L 3956 4666 
L 4897 4666 
L 4897 0 
L 4281 0 
L 4281 4097 
L 3078 897 
L 2444 897 
L 1241 4097 
L 1241 0 
L 628 0 
L 628 4666 
z
" transform="scale(0.015625)"/>
       <path id="DejaVuSans-65" d="M 3597 1894 
L 3597 1613 
L 953 1613 
Q 991 1019 1311 708 
Q 1631 397 2203 397 
Q 2534 397 2845 478 
Q 3156 559 3463 722 
L 3463 178 
Q 3153 47 2828 -22 
Q 2503 -91 2169 -91 
Q 1331 -91 842 396 
Q 353 884 353 1716 
Q 353 2575 817 3079 
Q 1281 3584 2069 3584 
Q 2775 3584 3186 3129 
Q 3597 2675 3597 1894 
z
M 3022 2063 
Q 3016 2534 2758 2815 
Q 2500 3097 2075 3097 
Q 1594 3097 1305 2825 
Q 1016 2553 972 2059 
L 3022 2063 
z
" transform="scale(0.015625)"/>
       <path id="DejaVuSans-74" d="M 1172 4494 
L 1172 3500 
L 2356 3500 
L 2356 3053 
L 1172 3053 
L 1172 1153 
Q 1172 725 1289 603 
Q 1406 481 1766 481 
L 2356 481 
L 2356 0 
L 1766 0 
Q 1100 0 847 248 
Q 594 497 594 1153 
L 594 3053 
L 172 3053 
L 172 3500 
L 594 3500 
L 594 4494 
L 1172 4494 
z
" transform="scale(0.015625)"/>
       <path id="DejaVuSans-72" d="M 2631 2963 
Q 2534 3019 2420 3045 
Q 2306 3072 2169 3072 
Q 1681 3072 1420 2755 
Q 1159 2438 1159 1844 
L 1159 0 
L 581 0 
L 581 3500 
L 1159 3500 
L 1159 2956 
Q 1341 3275 1631 3429 
Q 1922 3584 2338 3584 
Q 2397 3584 2469 3576 
Q 2541 3569 2628 3553 
L 2631 2963 
z
" transform="scale(0.015625)"/>
       <path id="DejaVuSans-69" d="M 603 3500 
L 1178 3500 
L 1178 0 
L 603 0 
L 603 3500 
z
M 603 4863 
L 1178 4863 
L 1178 4134 
L 603 4134 
L 603 4863 
z
" transform="scale(0.015625)"/>
       <path id="DejaVuSans-63" d="M 3122 3366 
L 3122 2828 
Q 2878 2963 2633 3030 
Q 2388 3097 2138 3097 
Q 1578 3097 1268 2742 
Q 959 2388 959 1747 
Q 959 1106 1268 751 
Q 1578 397 2138 397 
Q 2388 397 2633 464 
Q 2878 531 3122 666 
L 3122 134 
Q 2881 22 2623 -34 
Q 2366 -91 2075 -91 
Q 1284 -91 818 406 
Q 353 903 353 1747 
Q 353 2603 823 3093 
Q 1294 3584 2113 3584 
Q 2378 3584 2631 3529 
Q 2884 3475 3122 3366 
z
" transform="scale(0.015625)"/>
       <path id="DejaVuSans-20" transform="scale(0.015625)"/>
       <path id="DejaVuSans-56" d="M 1831 0 
L 50 4666 
L 709 4666 
L 2188 738 
L 3669 4666 
L 4325 4666 
L 2547 0 
L 1831 0 
z
" transform="scale(0.015625)"/>
       <path id="DejaVuSans-61" d="M 2194 1759 
Q 1497 1759 1228 1600 
Q 959 1441 959 1056 
Q 959 750 1161 570 
Q 1363 391 1709 391 
Q 2188 391 2477 730 
Q 2766 1069 2766 1631 
L 2766 1759 
L 2194 1759 
z
M 3341 1997 
L 3341 0 
L 2766 0 
L 2766 531 
Q 2569 213 2275 61 
Q 1981 -91 1556 -91 
Q 1019 -91 701 211 
Q 384 513 384 1019 
Q 384 1609 779 1909 
Q 1175 2209 1959 2209 
L 2766 2209 
L 2766 2266 
Q 2766 2663 2505 2880 
Q 2244 3097 1772 3097 
Q 1472 3097 1187 3025 
Q 903 2953 641 2809 
L 641 3341 
Q 956 3463 1253 3523 
Q 1550 3584 1831 3584 
Q 2591 3584 2966 3190 
Q 3341 2797 3341 1997 
z
" transform="scale(0.015625)"/>
       <path id="DejaVuSans-6c" d="M 603 4863 
L 1178 4863 
L 1178 0 
L 603 0 
L 603 4863 
z
" transform="scale(0.015625)"/>
       <path id="DejaVuSans-75" d="M 544 1381 
L 544 3500 
L 1119 3500 
L 1119 1403 
Q 1119 906 1312 657 
Q 1506 409 1894 409 
Q 2359 409 2629 706 
Q 2900 1003 2900 1516 
L 2900 3500 
L 3475 3500 
L 3475 0 
L 2900 0 
L 2900 538 
Q 2691 219 2414 64 
Q 2138 -91 1772 -91 
Q 1169 -91 856 284 
Q 544 659 544 1381 
z
M 1991 3584 
L 1991 3584 
z
" transform="scale(0.015625)"/>
      </defs>
      <use xlink:href="#DejaVuSans-4d"/>
      <use xlink:href="#DejaVuSans-65" x="86.279297"/>
      <use xlink:href="#DejaVuSans-74" x="147.802734"/>
      <use xlink:href="#DejaVuSans-72" x="187.011719"/>
      <use xlink:href="#DejaVuSans-69" x="228.125"/>
      <use xlink:href="#DejaVuSans-63" x="255.908203"/>
      <use xlink:href="#DejaVuSans-20" x="310.888672"/>
      <use xlink:href="#DejaVuSans-56" x="342.675781"/>
      <use xlink:href="#DejaVuSans-61" x="403.333984"/>
      <use xlink:href="#DejaVuSans-6c" x="464.613281"/>
      <use xlink:href="#DejaVuSans-75" x="492.396484"/>
      <use xlink:href="#DejaVuSans-65" x="555.775391"/>
     </g>
    </g>
   </g>
   <g id="patch_20">
    <path d="M 591.545455 418.130526 
L 591.545455 155.52 
" style="fill: none; stroke: #000000; stroke-width: 0.8; stroke-linejoin: miter; stroke-linecap: square"/>
   </g>
   <g id="patch_21">
    <path d="M 972 418.130526 
L 972 155.52 
" style="fill: none; stroke: #000000; stroke-width: 0.8; stroke-linejoin: miter; stroke-linecap: square"/>
   </g>
   <g id="patch_22">
    <path d="M 591.545455 418.130526 
L 972 418.130526 
" style="fill: none; stroke: #000000; stroke-width: 0.8; stroke-linejoin: miter; stroke-linecap: square"/>
   </g>
   <g id="patch_23">
    <path d="M 591.545455 155.52 
L 972 155.52 
" style="fill: none; stroke: #000000; stroke-width: 0.8; stroke-linejoin: miter; stroke-linecap: square"/>
   </g>
   <g id="text_24">
    <!-- b -->
    <g transform="translate(544.871761 137.404046) scale(0.28 -0.28)">
     <defs>
      <path id="DejaVuSans-Bold-62" d="M 2400 722 
Q 2759 722 2948 984 
Q 3138 1247 3138 1747 
Q 3138 2247 2948 2509 
Q 2759 2772 2400 2772 
Q 2041 2772 1848 2508 
Q 1656 2244 1656 1747 
Q 1656 1250 1848 986 
Q 2041 722 2400 722 
z
M 1656 2988 
Q 1888 3294 2169 3439 
Q 2450 3584 2816 3584 
Q 3463 3584 3878 3070 
Q 4294 2556 4294 1747 
Q 4294 938 3878 423 
Q 3463 -91 2816 -91 
Q 2450 -91 2169 54 
Q 1888 200 1656 506 
L 1656 0 
L 538 0 
L 538 4863 
L 1656 4863 
L 1656 2988 
z
" transform="scale(0.015625)"/>
     </defs>
     <use xlink:href="#DejaVuSans-Bold-62"/>
    </g>
   </g>
   <g id="text_25">
    <!-- Metrics -->
    <g transform="translate(734.584759 149.52) scale(0.26 -0.26)">
     <defs>
      <path id="DejaVuSans-73" d="M 2834 3397 
L 2834 2853 
Q 2591 2978 2328 3040 
Q 2066 3103 1784 3103 
Q 1356 3103 1142 2972 
Q 928 2841 928 2578 
Q 928 2378 1081 2264 
Q 1234 2150 1697 2047 
L 1894 2003 
Q 2506 1872 2764 1633 
Q 3022 1394 3022 966 
Q 3022 478 2636 193 
Q 2250 -91 1575 -91 
Q 1294 -91 989 -36 
Q 684 19 347 128 
L 347 722 
Q 666 556 975 473 
Q 1284 391 1588 391 
Q 1994 391 2212 530 
Q 2431 669 2431 922 
Q 2431 1156 2273 1281 
Q 2116 1406 1581 1522 
L 1381 1569 
Q 847 1681 609 1914 
Q 372 2147 372 2553 
Q 372 3047 722 3315 
Q 1072 3584 1716 3584 
Q 2034 3584 2315 3537 
Q 2597 3491 2834 3397 
z
" transform="scale(0.015625)"/>
     </defs>
     <use xlink:href="#DejaVuSans-4d"/>
     <use xlink:href="#DejaVuSans-65" x="86.279297"/>
     <use xlink:href="#DejaVuSans-74" x="147.802734"/>
     <use xlink:href="#DejaVuSans-72" x="187.011719"/>
     <use xlink:href="#DejaVuSans-69" x="228.125"/>
     <use xlink:href="#DejaVuSans-63" x="255.908203"/>
     <use xlink:href="#DejaVuSans-73" x="310.888672"/>
    </g>
   </g>
  </g>
  <g id="axes_3">
   <g id="patch_24">
    <path d="M 135 785.785263 
L 515.454545 785.785263 
L 515.454545 523.174737 
L 135 523.174737 
z
" style="fill: #ffffff"/>
   </g>
   <g id="matplotlib.axis_5">
    <g id="xtick_10">
     <g id="line2d_23">
      <g>
       <use xlink:href="#mc0c859863b" x="137.882231" y="785.785263" style="stroke: #000000; stroke-width: 0.8"/>
      </g>
     </g>
     <g id="text_26">
      <!-- 0 -->
      <g transform="translate(130.883481 809.501826) scale(0.22 -0.22)">
       <use xlink:href="#DejaVuSans-30"/>
      </g>
     </g>
    </g>
    <g id="xtick_11">
     <g id="line2d_24">
      <g>
       <use xlink:href="#mc0c859863b" x="281.993802" y="785.785263" style="stroke: #000000; stroke-width: 0.8"/>
      </g>
     </g>
     <g id="text_27">
      <!-- 20 -->
      <g transform="translate(267.996302 809.501826) scale(0.22 -0.22)">
       <use xlink:href="#DejaVuSans-32"/>
       <use xlink:href="#DejaVuSans-30" x="63.623047"/>
      </g>
     </g>
    </g>
    <g id="xtick_12">
     <g id="line2d_25">
      <g>
       <use xlink:href="#mc0c859863b" x="426.105372" y="785.785263" style="stroke: #000000; stroke-width: 0.8"/>
      </g>
     </g>
     <g id="text_28">
      <!-- 40 -->
      <g transform="translate(412.107872 809.501826) scale(0.22 -0.22)">
       <use xlink:href="#DejaVuSans-34"/>
       <use xlink:href="#DejaVuSans-30" x="63.623047"/>
      </g>
     </g>
    </g>
    <g id="text_29">
     <!-- k -->
     <g transform="translate(318.278523 836.313388) scale(0.24 -0.24)">
      <use xlink:href="#DejaVuSans-6b"/>
     </g>
    </g>
   </g>
   <g id="matplotlib.axis_6">
    <g id="ytick_10">
     <g id="line2d_26">
      <g>
       <use xlink:href="#mc1f18b57d2" x="135" y="784.217828" style="stroke: #000000; stroke-width: 0.8"/>
      </g>
     </g>
     <g id="text_30">
      <!-- 0.80 -->
      <g transform="translate(79.015625 792.576109) scale(0.22 -0.22)">
       <use xlink:href="#DejaVuSans-30"/>
       <use xlink:href="#DejaVuSans-2e" x="63.623047"/>
       <use xlink:href="#DejaVuSans-38" x="95.410156"/>
       <use xlink:href="#DejaVuSans-30" x="159.033203"/>
      </g>
     </g>
    </g>
    <g id="ytick_11">
     <g id="line2d_27">
      <g>
       <use xlink:href="#mc1f18b57d2" x="135" y="720.23809" style="stroke: #000000; stroke-width: 0.8"/>
      </g>
     </g>
     <g id="text_31">
      <!-- 0.85 -->
      <g transform="translate(79.015625 728.596371) scale(0.22 -0.22)">
       <use xlink:href="#DejaVuSans-30"/>
       <use xlink:href="#DejaVuSans-2e" x="63.623047"/>
       <use xlink:href="#DejaVuSans-38" x="95.410156"/>
       <use xlink:href="#DejaVuSans-35" x="159.033203"/>
      </g>
     </g>
    </g>
    <g id="ytick_12">
     <g id="line2d_28">
      <g>
       <use xlink:href="#mc1f18b57d2" x="135" y="656.258352" style="stroke: #000000; stroke-width: 0.8"/>
      </g>
     </g>
     <g id="text_32">
      <!-- 0.90 -->
      <g transform="translate(79.015625 664.616634) scale(0.22 -0.22)">
       <defs>
        <path id="DejaVuSans-39" d="M 703 97 
L 703 672 
Q 941 559 1184 500 
Q 1428 441 1663 441 
Q 2288 441 2617 861 
Q 2947 1281 2994 2138 
Q 2813 1869 2534 1725 
Q 2256 1581 1919 1581 
Q 1219 1581 811 2004 
Q 403 2428 403 3163 
Q 403 3881 828 4315 
Q 1253 4750 1959 4750 
Q 2769 4750 3195 4129 
Q 3622 3509 3622 2328 
Q 3622 1225 3098 567 
Q 2575 -91 1691 -91 
Q 1453 -91 1209 -44 
Q 966 3 703 97 
z
M 1959 2075 
Q 2384 2075 2632 2365 
Q 2881 2656 2881 3163 
Q 2881 3666 2632 3958 
Q 2384 4250 1959 4250 
Q 1534 4250 1286 3958 
Q 1038 3666 1038 3163 
Q 1038 2656 1286 2365 
Q 1534 2075 1959 2075 
z
" transform="scale(0.015625)"/>
       </defs>
       <use xlink:href="#DejaVuSans-30"/>
       <use xlink:href="#DejaVuSans-2e" x="63.623047"/>
       <use xlink:href="#DejaVuSans-39" x="95.410156"/>
       <use xlink:href="#DejaVuSans-30" x="159.033203"/>
      </g>
     </g>
    </g>
    <g id="ytick_13">
     <g id="line2d_29">
      <g>
       <use xlink:href="#mc1f18b57d2" x="135" y="592.278615" style="stroke: #000000; stroke-width: 0.8"/>
      </g>
     </g>
     <g id="text_33">
      <!-- 0.95 -->
      <g transform="translate(79.015625 600.636896) scale(0.22 -0.22)">
       <use xlink:href="#DejaVuSans-30"/>
       <use xlink:href="#DejaVuSans-2e" x="63.623047"/>
       <use xlink:href="#DejaVuSans-39" x="95.410156"/>
       <use xlink:href="#DejaVuSans-35" x="159.033203"/>
      </g>
     </g>
    </g>
    <g id="ytick_14">
     <g id="line2d_30">
      <g>
       <use xlink:href="#mc1f18b57d2" x="135" y="528.298877" style="stroke: #000000; stroke-width: 0.8"/>
      </g>
     </g>
     <g id="text_34">
      <!-- 1.00 -->
      <g transform="translate(79.015625 536.657159) scale(0.22 -0.22)">
       <use xlink:href="#DejaVuSans-31"/>
       <use xlink:href="#DejaVuSans-2e" x="63.623047"/>
       <use xlink:href="#DejaVuSans-30" x="95.410156"/>
       <use xlink:href="#DejaVuSans-30" x="159.033203"/>
      </g>
     </g>
    </g>
    <g id="text_35">
     <!-- Metric Value -->
     <g transform="translate(70.024375 728.555625) rotate(-90) scale(0.24 -0.24)">
      <use xlink:href="#DejaVuSans-4d"/>
      <use xlink:href="#DejaVuSans-65" x="86.279297"/>
      <use xlink:href="#DejaVuSans-74" x="147.802734"/>
      <use xlink:href="#DejaVuSans-72" x="187.011719"/>
      <use xlink:href="#DejaVuSans-69" x="228.125"/>
      <use xlink:href="#DejaVuSans-63" x="255.908203"/>
      <use xlink:href="#DejaVuSans-20" x="310.888672"/>
      <use xlink:href="#DejaVuSans-56" x="342.675781"/>
      <use xlink:href="#DejaVuSans-61" x="403.333984"/>
      <use xlink:href="#DejaVuSans-6c" x="464.613281"/>
      <use xlink:href="#DejaVuSans-75" x="492.396484"/>
      <use xlink:href="#DejaVuSans-65" x="555.775391"/>
     </g>
    </g>
   </g>
   <g id="line2d_31">
    <path d="M 152.293388 748.262705 
L 173.910124 759.263857 
L 209.938017 757.851257 
L 281.993802 766.993571 
L 498.161157 773.848421 
" clip-path="url(#p71d0664218)" style="fill: none; stroke: #1f77b4; stroke-width: 1.5; stroke-linecap: square"/>
    <g clip-path="url(#p71d0664218)">
     <use xlink:href="#m8eb0148584" x="152.293388" y="748.262705" style="fill: #1f77b4; stroke: #1f77b4"/>
     <use xlink:href="#m8eb0148584" x="173.910124" y="759.263857" style="fill: #1f77b4; stroke: #1f77b4"/>
     <use xlink:href="#m8eb0148584" x="209.938017" y="757.851257" style="fill: #1f77b4; stroke: #1f77b4"/>
     <use xlink:href="#m8eb0148584" x="281.993802" y="766.993571" style="fill: #1f77b4; stroke: #1f77b4"/>
     <use xlink:href="#m8eb0148584" x="498.161157" y="773.848421" style="fill: #1f77b4; stroke: #1f77b4"/>
    </g>
   </g>
   <g id="line2d_32">
    <path d="M 152.293388 535.111579 
L 173.910124 542.295797 
L 209.938017 550.892221 
L 281.993802 577.549201 
L 498.161157 637.964707 
" clip-path="url(#p71d0664218)" style="fill: none; stroke: #ff7f0e; stroke-width: 1.5; stroke-linecap: square"/>
    <g clip-path="url(#p71d0664218)">
     <use xlink:href="#mdbe647ee5b" x="152.293388" y="535.111579" style="fill: #ff7f0e; stroke: #ff7f0e"/>
     <use xlink:href="#mdbe647ee5b" x="173.910124" y="542.295797" style="fill: #ff7f0e; stroke: #ff7f0e"/>
     <use xlink:href="#mdbe647ee5b" x="209.938017" y="550.892221" style="fill: #ff7f0e; stroke: #ff7f0e"/>
     <use xlink:href="#mdbe647ee5b" x="281.993802" y="577.549201" style="fill: #ff7f0e; stroke: #ff7f0e"/>
     <use xlink:href="#mdbe647ee5b" x="498.161157" y="637.964707" style="fill: #ff7f0e; stroke: #ff7f0e"/>
    </g>
   </g>
   <g id="line2d_33">
    <path d="M 152.293388 544.651852 
L 173.910124 546.8576 
L 209.938017 551.490712 
L 281.993802 572.728752 
L 498.161157 646.086876 
" clip-path="url(#p71d0664218)" style="fill: none; stroke: #2ca02c; stroke-width: 1.5; stroke-linecap: square"/>
    <g clip-path="url(#p71d0664218)">
     <use xlink:href="#mee3d5509f0" x="152.293388" y="544.651852" style="fill: #2ca02c; stroke: #2ca02c"/>
     <use xlink:href="#mee3d5509f0" x="173.910124" y="546.8576" style="fill: #2ca02c; stroke: #2ca02c"/>
     <use xlink:href="#mee3d5509f0" x="209.938017" y="551.490712" style="fill: #2ca02c; stroke: #2ca02c"/>
     <use xlink:href="#mee3d5509f0" x="281.993802" y="572.728752" style="fill: #2ca02c; stroke: #2ca02c"/>
     <use xlink:href="#mee3d5509f0" x="498.161157" y="646.086876" style="fill: #2ca02c; stroke: #2ca02c"/>
    </g>
   </g>
   <g id="line2d_34">
    <path d="M 152.293388 539.571844 
L 173.910124 543.350968 
L 209.938017 549.365125 
L 281.993802 571.769777 
L 498.161157 631.728774 
" clip-path="url(#p71d0664218)" style="fill: none; stroke: #d62728; stroke-width: 1.5; stroke-linecap: square"/>
    <g clip-path="url(#p71d0664218)">
     <use xlink:href="#m3b5cb71362" x="152.293388" y="539.571844" style="fill: #d62728; stroke: #d62728"/>
     <use xlink:href="#m3b5cb71362" x="173.910124" y="543.350968" style="fill: #d62728; stroke: #d62728"/>
     <use xlink:href="#m3b5cb71362" x="209.938017" y="549.365125" style="fill: #d62728; stroke: #d62728"/>
     <use xlink:href="#m3b5cb71362" x="281.993802" y="571.769777" style="fill: #d62728; stroke: #d62728"/>
     <use xlink:href="#m3b5cb71362" x="498.161157" y="631.728774" style="fill: #d62728; stroke: #d62728"/>
    </g>
   </g>
   <g id="patch_25">
    <path d="M 135 785.785263 
L 135 523.174737 
" style="fill: none; stroke: #000000; stroke-width: 0.8; stroke-linejoin: miter; stroke-linecap: square"/>
   </g>
   <g id="patch_26">
    <path d="M 515.454545 785.785263 
L 515.454545 523.174737 
" style="fill: none; stroke: #000000; stroke-width: 0.8; stroke-linejoin: miter; stroke-linecap: square"/>
   </g>
   <g id="patch_27">
    <path d="M 135 785.785263 
L 515.454545 785.785263 
" style="fill: none; stroke: #000000; stroke-width: 0.8; stroke-linejoin: miter; stroke-linecap: square"/>
   </g>
   <g id="patch_28">
    <path d="M 135 523.174737 
L 515.454545 523.174737 
" style="fill: none; stroke: #000000; stroke-width: 0.8; stroke-linejoin: miter; stroke-linecap: square"/>
   </g>
   <g id="text_36">
    <!-- c -->
    <g transform="translate(91.769432 505.058783) scale(0.28 -0.28)">
     <defs>
      <path id="DejaVuSans-Bold-63" d="M 3366 3391 
L 3366 2478 
Q 3138 2634 2908 2709 
Q 2678 2784 2431 2784 
Q 1963 2784 1702 2511 
Q 1441 2238 1441 1747 
Q 1441 1256 1702 982 
Q 1963 709 2431 709 
Q 2694 709 2930 787 
Q 3166 866 3366 1019 
L 3366 103 
Q 3103 6 2833 -42 
Q 2563 -91 2291 -91 
Q 1344 -91 809 395 
Q 275 881 275 1747 
Q 275 2613 809 3098 
Q 1344 3584 2291 3584 
Q 2566 3584 2833 3536 
Q 3100 3488 3366 3391 
z
" transform="scale(0.015625)"/>
     </defs>
     <use xlink:href="#DejaVuSans-Bold-63"/>
    </g>
   </g>
   <g id="text_37">
    <!-- Trustworthiness -->
    <g transform="translate(230.950398 517.174737) scale(0.24 -0.24)">
     <defs>
      <path id="DejaVuSans-54" d="M -19 4666 
L 3928 4666 
L 3928 4134 
L 2272 4134 
L 2272 0 
L 1638 0 
L 1638 4134 
L -19 4134 
L -19 4666 
z
" transform="scale(0.015625)"/>
      <path id="DejaVuSans-77" d="M 269 3500 
L 844 3500 
L 1563 769 
L 2278 3500 
L 2956 3500 
L 3675 769 
L 4391 3500 
L 4966 3500 
L 4050 0 
L 3372 0 
L 2619 2869 
L 1863 0 
L 1184 0 
L 269 3500 
z
" transform="scale(0.015625)"/>
      <path id="DejaVuSans-6f" d="M 1959 3097 
Q 1497 3097 1228 2736 
Q 959 2375 959 1747 
Q 959 1119 1226 758 
Q 1494 397 1959 397 
Q 2419 397 2687 759 
Q 2956 1122 2956 1747 
Q 2956 2369 2687 2733 
Q 2419 3097 1959 3097 
z
M 1959 3584 
Q 2709 3584 3137 3096 
Q 3566 2609 3566 1747 
Q 3566 888 3137 398 
Q 2709 -91 1959 -91 
Q 1206 -91 779 398 
Q 353 888 353 1747 
Q 353 2609 779 3096 
Q 1206 3584 1959 3584 
z
" transform="scale(0.015625)"/>
      <path id="DejaVuSans-68" d="M 3513 2113 
L 3513 0 
L 2938 0 
L 2938 2094 
Q 2938 2591 2744 2837 
Q 2550 3084 2163 3084 
Q 1697 3084 1428 2787 
Q 1159 2491 1159 1978 
L 1159 0 
L 581 0 
L 581 4863 
L 1159 4863 
L 1159 2956 
Q 1366 3272 1645 3428 
Q 1925 3584 2291 3584 
Q 2894 3584 3203 3211 
Q 3513 2838 3513 2113 
z
" transform="scale(0.015625)"/>
      <path id="DejaVuSans-6e" d="M 3513 2113 
L 3513 0 
L 2938 0 
L 2938 2094 
Q 2938 2591 2744 2837 
Q 2550 3084 2163 3084 
Q 1697 3084 1428 2787 
Q 1159 2491 1159 1978 
L 1159 0 
L 581 0 
L 581 3500 
L 1159 3500 
L 1159 2956 
Q 1366 3272 1645 3428 
Q 1925 3584 2291 3584 
Q 2894 3584 3203 3211 
Q 3513 2838 3513 2113 
z
" transform="scale(0.015625)"/>
     </defs>
     <use xlink:href="#DejaVuSans-54"/>
     <use xlink:href="#DejaVuSans-72" x="46.333984"/>
     <use xlink:href="#DejaVuSans-75" x="87.447266"/>
     <use xlink:href="#DejaVuSans-73" x="150.826172"/>
     <use xlink:href="#DejaVuSans-74" x="202.925781"/>
     <use xlink:href="#DejaVuSans-77" x="242.134766"/>
     <use xlink:href="#DejaVuSans-6f" x="323.921875"/>
     <use xlink:href="#DejaVuSans-72" x="385.103516"/>
     <use xlink:href="#DejaVuSans-74" x="426.216797"/>
     <use xlink:href="#DejaVuSans-68" x="465.425781"/>
     <use xlink:href="#DejaVuSans-69" x="528.804688"/>
     <use xlink:href="#DejaVuSans-6e" x="556.587891"/>
     <use xlink:href="#DejaVuSans-65" x="619.966797"/>
     <use xlink:href="#DejaVuSans-73" x="681.490234"/>
     <use xlink:href="#DejaVuSans-73" x="733.589844"/>
    </g>
   </g>
  </g>
  <g id="axes_4">
   <g id="patch_29">
    <path d="M 591.545455 785.785263 
L 972 785.785263 
L 972 523.174737 
L 591.545455 523.174737 
z
" style="fill: #ffffff"/>
   </g>
   <g id="matplotlib.axis_7">
    <g id="xtick_13">
     <g id="line2d_35">
      <g>
       <use xlink:href="#mc0c859863b" x="594.427686" y="785.785263" style="stroke: #000000; stroke-width: 0.8"/>
      </g>
     </g>
     <g id="text_38">
      <!-- 0 -->
      <g transform="translate(587.428936 809.501826) scale(0.22 -0.22)">
       <use xlink:href="#DejaVuSans-30"/>
      </g>
     </g>
    </g>
    <g id="xtick_14">
     <g id="line2d_36">
      <g>
       <use xlink:href="#mc0c859863b" x="738.539256" y="785.785263" style="stroke: #000000; stroke-width: 0.8"/>
      </g>
     </g>
     <g id="text_39">
      <!-- 20 -->
      <g transform="translate(724.541756 809.501826) scale(0.22 -0.22)">
       <use xlink:href="#DejaVuSans-32"/>
       <use xlink:href="#DejaVuSans-30" x="63.623047"/>
      </g>
     </g>
    </g>
    <g id="xtick_15">
     <g id="line2d_37">
      <g>
       <use xlink:href="#mc0c859863b" x="882.650826" y="785.785263" style="stroke: #000000; stroke-width: 0.8"/>
      </g>
     </g>
     <g id="text_40">
      <!-- 40 -->
      <g transform="translate(868.653326 809.501826) scale(0.22 -0.22)">
       <use xlink:href="#DejaVuSans-34"/>
       <use xlink:href="#DejaVuSans-30" x="63.623047"/>
      </g>
     </g>
    </g>
    <g id="text_41">
     <!-- k -->
     <g transform="translate(774.823977 836.313388) scale(0.24 -0.24)">
      <use xlink:href="#DejaVuSans-6b"/>
     </g>
    </g>
   </g>
   <g id="matplotlib.axis_8">
    <g id="ytick_15">
     <g id="line2d_38">
      <g>
       <use xlink:href="#mc1f18b57d2" x="591.545455" y="690.9926" style="stroke: #000000; stroke-width: 0.8"/>
      </g>
     </g>
     <g id="text_42">
      <!-- 0.90 -->
      <g transform="translate(535.56108 699.350881) scale(0.22 -0.22)">
       <use xlink:href="#DejaVuSans-30"/>
       <use xlink:href="#DejaVuSans-2e" x="63.623047"/>
       <use xlink:href="#DejaVuSans-39" x="95.410156"/>
       <use xlink:href="#DejaVuSans-30" x="159.033203"/>
      </g>
     </g>
    </g>
    <g id="ytick_16">
     <g id="line2d_39">
      <g>
       <use xlink:href="#mc1f18b57d2" x="591.545455" y="595.134932" style="stroke: #000000; stroke-width: 0.8"/>
      </g>
     </g>
     <g id="text_43">
      <!-- 0.95 -->
      <g transform="translate(535.56108 603.493214) scale(0.22 -0.22)">
       <use xlink:href="#DejaVuSans-30"/>
       <use xlink:href="#DejaVuSans-2e" x="63.623047"/>
       <use xlink:href="#DejaVuSans-39" x="95.410156"/>
       <use xlink:href="#DejaVuSans-35" x="159.033203"/>
      </g>
     </g>
    </g>
   </g>
   <g id="line2d_40">
    <path d="M 608.838843 563.847551 
L 630.455579 591.38072 
L 666.483471 617.139347 
L 738.539256 658.961756 
L 954.706612 717.918159 
" clip-path="url(#p67f40e3dfc)" style="fill: none; stroke: #1f77b4; stroke-width: 1.5; stroke-linecap: square"/>
    <g clip-path="url(#p67f40e3dfc)">
     <use xlink:href="#m8eb0148584" x="608.838843" y="563.847551" style="fill: #1f77b4; stroke: #1f77b4"/>
     <use xlink:href="#m8eb0148584" x="630.455579" y="591.38072" style="fill: #1f77b4; stroke: #1f77b4"/>
     <use xlink:href="#m8eb0148584" x="666.483471" y="617.139347" style="fill: #1f77b4; stroke: #1f77b4"/>
     <use xlink:href="#m8eb0148584" x="738.539256" y="658.961756" style="fill: #1f77b4; stroke: #1f77b4"/>
     <use xlink:href="#m8eb0148584" x="954.706612" y="717.918159" style="fill: #1f77b4; stroke: #1f77b4"/>
    </g>
   </g>
   <g id="line2d_41">
    <path d="M 608.838843 536.991035 
L 630.455579 546.696777 
L 666.483471 564.007222 
L 738.539256 611.394508 
L 954.706612 717.487485 
" clip-path="url(#p67f40e3dfc)" style="fill: none; stroke: #ff7f0e; stroke-width: 1.5; stroke-linecap: square"/>
    <g clip-path="url(#p67f40e3dfc)">
     <use xlink:href="#mdbe647ee5b" x="608.838843" y="536.991035" style="fill: #ff7f0e; stroke: #ff7f0e"/>
     <use xlink:href="#mdbe647ee5b" x="630.455579" y="546.696777" style="fill: #ff7f0e; stroke: #ff7f0e"/>
     <use xlink:href="#mdbe647ee5b" x="666.483471" y="564.007222" style="fill: #ff7f0e; stroke: #ff7f0e"/>
     <use xlink:href="#mdbe647ee5b" x="738.539256" y="611.394508" style="fill: #ff7f0e; stroke: #ff7f0e"/>
     <use xlink:href="#mdbe647ee5b" x="954.706612" y="717.487485" style="fill: #ff7f0e; stroke: #ff7f0e"/>
    </g>
   </g>
   <g id="line2d_42">
    <path d="M 608.838843 535.111579 
L 630.455579 548.574145 
L 666.483471 565.935944 
L 738.539256 616.828526 
L 954.706612 728.38759 
" clip-path="url(#p67f40e3dfc)" style="fill: none; stroke: #2ca02c; stroke-width: 1.5; stroke-linecap: square"/>
    <g clip-path="url(#p67f40e3dfc)">
     <use xlink:href="#mee3d5509f0" x="608.838843" y="535.111579" style="fill: #2ca02c; stroke: #2ca02c"/>
     <use xlink:href="#mee3d5509f0" x="630.455579" y="548.574145" style="fill: #2ca02c; stroke: #2ca02c"/>
     <use xlink:href="#mee3d5509f0" x="666.483471" y="565.935944" style="fill: #2ca02c; stroke: #2ca02c"/>
     <use xlink:href="#mee3d5509f0" x="738.539256" y="616.828526" style="fill: #2ca02c; stroke: #2ca02c"/>
     <use xlink:href="#mee3d5509f0" x="954.706612" y="728.38759" style="fill: #2ca02c; stroke: #2ca02c"/>
    </g>
   </g>
   <g id="line2d_43">
    <path d="M 608.838843 552.744728 
L 630.455579 572.531199 
L 666.483471 600.005058 
L 738.539256 659.307151 
L 954.706612 773.848421 
" clip-path="url(#p67f40e3dfc)" style="fill: none; stroke: #d62728; stroke-width: 1.5; stroke-linecap: square"/>
    <g clip-path="url(#p67f40e3dfc)">
     <use xlink:href="#m3b5cb71362" x="608.838843" y="552.744728" style="fill: #d62728; stroke: #d62728"/>
     <use xlink:href="#m3b5cb71362" x="630.455579" y="572.531199" style="fill: #d62728; stroke: #d62728"/>
     <use xlink:href="#m3b5cb71362" x="666.483471" y="600.005058" style="fill: #d62728; stroke: #d62728"/>
     <use xlink:href="#m3b5cb71362" x="738.539256" y="659.307151" style="fill: #d62728; stroke: #d62728"/>
     <use xlink:href="#m3b5cb71362" x="954.706612" y="773.848421" style="fill: #d62728; stroke: #d62728"/>
    </g>
   </g>
   <g id="patch_30">
    <path d="M 591.545455 785.785263 
L 591.545455 523.174737 
" style="fill: none; stroke: #000000; stroke-width: 0.8; stroke-linejoin: miter; stroke-linecap: square"/>
   </g>
   <g id="patch_31">
    <path d="M 972 785.785263 
L 972 523.174737 
" style="fill: none; stroke: #000000; stroke-width: 0.8; stroke-linejoin: miter; stroke-linecap: square"/>
   </g>
   <g id="patch_32">
    <path d="M 591.545455 785.785263 
L 972 785.785263 
" style="fill: none; stroke: #000000; stroke-width: 0.8; stroke-linejoin: miter; stroke-linecap: square"/>
   </g>
   <g id="patch_33">
    <path d="M 591.545455 523.174737 
L 972 523.174737 
" style="fill: none; stroke: #000000; stroke-width: 0.8; stroke-linejoin: miter; stroke-linecap: square"/>
   </g>
   <g id="text_44">
    <!-- d -->
    <g transform="translate(544.871761 505.058783) scale(0.28 -0.28)">
     <defs>
      <path id="DejaVuSans-Bold-64" d="M 2919 2988 
L 2919 4863 
L 4044 4863 
L 4044 0 
L 2919 0 
L 2919 506 
Q 2688 197 2409 53 
Q 2131 -91 1766 -91 
Q 1119 -91 703 423 
Q 288 938 288 1747 
Q 288 2556 703 3070 
Q 1119 3584 1766 3584 
Q 2128 3584 2408 3439 
Q 2688 3294 2919 2988 
z
M 2181 722 
Q 2541 722 2730 984 
Q 2919 1247 2919 1747 
Q 2919 2247 2730 2509 
Q 2541 2772 2181 2772 
Q 1825 2772 1636 2509 
Q 1447 2247 1447 1747 
Q 1447 1247 1636 984 
Q 1825 722 2181 722 
z
" transform="scale(0.015625)"/>
     </defs>
     <use xlink:href="#DejaVuSans-Bold-64"/>
    </g>
   </g>
   <g id="text_45">
    <!-- Continuity -->
    <g transform="translate(720.057102 517.174737) scale(0.24 -0.24)">
     <defs>
      <path id="DejaVuSans-79" d="M 2059 -325 
Q 1816 -950 1584 -1140 
Q 1353 -1331 966 -1331 
L 506 -1331 
L 506 -850 
L 844 -850 
Q 1081 -850 1212 -737 
Q 1344 -625 1503 -206 
L 1606 56 
L 191 3500 
L 800 3500 
L 1894 763 
L 2988 3500 
L 3597 3500 
L 2059 -325 
z
" transform="scale(0.015625)"/>
     </defs>
     <use xlink:href="#DejaVuSans-43"/>
     <use xlink:href="#DejaVuSans-6f" x="69.824219"/>
     <use xlink:href="#DejaVuSans-6e" x="131.005859"/>
     <use xlink:href="#DejaVuSans-74" x="194.384766"/>
     <use xlink:href="#DejaVuSans-69" x="233.59375"/>
     <use xlink:href="#DejaVuSans-6e" x="261.376953"/>
     <use xlink:href="#DejaVuSans-75" x="324.755859"/>
     <use xlink:href="#DejaVuSans-69" x="388.134766"/>
     <use xlink:href="#DejaVuSans-74" x="415.917969"/>
     <use xlink:href="#DejaVuSans-79" x="455.126953"/>
    </g>
   </g>
  </g>
  <g id="axes_5">
   <g id="patch_34">
    <path d="M 135 1153.44 
L 515.454545 1153.44 
L 515.454545 890.829474 
L 135 890.829474 
z
" style="fill: #ffffff"/>
   </g>
   <g id="matplotlib.axis_9">
    <g id="xtick_16">
     <g id="line2d_44">
      <g>
       <use xlink:href="#mc0c859863b" x="151.988121" y="1153.44" style="stroke: #000000; stroke-width: 0.8"/>
      </g>
     </g>
     <g id="text_46">
      <!-- 0 -->
      <g transform="translate(144.989371 1177.156562) scale(0.22 -0.22)">
       <use xlink:href="#DejaVuSans-30"/>
      </g>
     </g>
    </g>
    <g id="xtick_17">
     <g id="line2d_45">
      <g>
       <use xlink:href="#mc0c859863b" x="228.304928" y="1153.44" style="stroke: #000000; stroke-width: 0.8"/>
      </g>
     </g>
     <g id="text_47">
      <!-- 250 -->
      <g transform="translate(207.308678 1177.156562) scale(0.22 -0.22)">
       <use xlink:href="#DejaVuSans-32"/>
       <use xlink:href="#DejaVuSans-35" x="63.623047"/>
       <use xlink:href="#DejaVuSans-30" x="127.246094"/>
      </g>
     </g>
    </g>
    <g id="xtick_18">
     <g id="line2d_46">
      <g>
       <use xlink:href="#mc0c859863b" x="304.621735" y="1153.44" style="stroke: #000000; stroke-width: 0.8"/>
      </g>
     </g>
     <g id="text_48">
      <!-- 500 -->
      <g transform="translate(283.625485 1177.156562) scale(0.22 -0.22)">
       <use xlink:href="#DejaVuSans-35"/>
       <use xlink:href="#DejaVuSans-30" x="63.623047"/>
       <use xlink:href="#DejaVuSans-30" x="127.246094"/>
      </g>
     </g>
    </g>
    <g id="xtick_19">
     <g id="line2d_47">
      <g>
       <use xlink:href="#mc0c859863b" x="380.938542" y="1153.44" style="stroke: #000000; stroke-width: 0.8"/>
      </g>
     </g>
     <g id="text_49">
      <!-- 750 -->
      <g transform="translate(359.942292 1177.156562) scale(0.22 -0.22)">
       <defs>
        <path id="DejaVuSans-37" d="M 525 4666 
L 3525 4666 
L 3525 4397 
L 1831 0 
L 1172 0 
L 2766 4134 
L 525 4134 
L 525 4666 
z
" transform="scale(0.015625)"/>
       </defs>
       <use xlink:href="#DejaVuSans-37"/>
       <use xlink:href="#DejaVuSans-35" x="63.623047"/>
       <use xlink:href="#DejaVuSans-30" x="127.246094"/>
      </g>
     </g>
    </g>
    <g id="xtick_20">
     <g id="line2d_48">
      <g>
       <use xlink:href="#mc0c859863b" x="457.255349" y="1153.44" style="stroke: #000000; stroke-width: 0.8"/>
      </g>
     </g>
     <g id="text_50">
      <!-- 1000 -->
      <g transform="translate(429.260349 1177.156562) scale(0.22 -0.22)">
       <use xlink:href="#DejaVuSans-31"/>
       <use xlink:href="#DejaVuSans-30" x="63.623047"/>
       <use xlink:href="#DejaVuSans-30" x="127.246094"/>
       <use xlink:href="#DejaVuSans-30" x="190.869141"/>
      </g>
     </g>
    </g>
    <g id="text_51">
     <!-- k -->
     <g transform="translate(318.278523 1203.968125) scale(0.24 -0.24)">
      <use xlink:href="#DejaVuSans-6b"/>
     </g>
    </g>
   </g>
   <g id="matplotlib.axis_10">
    <g id="ytick_17">
     <g id="line2d_49">
      <g>
       <use xlink:href="#mc1f18b57d2" x="135" y="1120.62868" style="stroke: #000000; stroke-width: 0.8"/>
      </g>
     </g>
     <g id="text_52">
      <!-- 0.2 -->
      <g transform="translate(93.013125 1128.986961) scale(0.22 -0.22)">
       <use xlink:href="#DejaVuSans-30"/>
       <use xlink:href="#DejaVuSans-2e" x="63.623047"/>
       <use xlink:href="#DejaVuSans-32" x="95.410156"/>
      </g>
     </g>
    </g>
    <g id="ytick_18">
     <g id="line2d_50">
      <g>
       <use xlink:href="#mc1f18b57d2" x="135" y="1066.163089" style="stroke: #000000; stroke-width: 0.8"/>
      </g>
     </g>
     <g id="text_53">
      <!-- 0.4 -->
      <g transform="translate(93.013125 1074.52137) scale(0.22 -0.22)">
       <use xlink:href="#DejaVuSans-30"/>
       <use xlink:href="#DejaVuSans-2e" x="63.623047"/>
       <use xlink:href="#DejaVuSans-34" x="95.410156"/>
      </g>
     </g>
    </g>
    <g id="ytick_19">
     <g id="line2d_51">
      <g>
       <use xlink:href="#mc1f18b57d2" x="135" y="1011.697498" style="stroke: #000000; stroke-width: 0.8"/>
      </g>
     </g>
     <g id="text_54">
      <!-- 0.6 -->
      <g transform="translate(93.013125 1020.055779) scale(0.22 -0.22)">
       <use xlink:href="#DejaVuSans-30"/>
       <use xlink:href="#DejaVuSans-2e" x="63.623047"/>
       <use xlink:href="#DejaVuSans-36" x="95.410156"/>
      </g>
     </g>
    </g>
    <g id="ytick_20">
     <g id="line2d_52">
      <g>
       <use xlink:href="#mc1f18b57d2" x="135" y="957.231907" style="stroke: #000000; stroke-width: 0.8"/>
      </g>
     </g>
     <g id="text_55">
      <!-- 0.8 -->
      <g transform="translate(93.013125 965.590188) scale(0.22 -0.22)">
       <use xlink:href="#DejaVuSans-30"/>
       <use xlink:href="#DejaVuSans-2e" x="63.623047"/>
       <use xlink:href="#DejaVuSans-38" x="95.410156"/>
      </g>
     </g>
    </g>
    <g id="ytick_21">
     <g id="line2d_53">
      <g>
       <use xlink:href="#mc1f18b57d2" x="135" y="902.766316" style="stroke: #000000; stroke-width: 0.8"/>
      </g>
     </g>
     <g id="text_56">
      <!-- 1.0 -->
      <g transform="translate(93.013125 911.124597) scale(0.22 -0.22)">
       <use xlink:href="#DejaVuSans-31"/>
       <use xlink:href="#DejaVuSans-2e" x="63.623047"/>
       <use xlink:href="#DejaVuSans-30" x="95.410156"/>
      </g>
     </g>
    </g>
    <g id="text_57">
     <!-- Metric Value -->
     <g transform="translate(84.021875 1096.210362) rotate(-90) scale(0.24 -0.24)">
      <use xlink:href="#DejaVuSans-4d"/>
      <use xlink:href="#DejaVuSans-65" x="86.279297"/>
      <use xlink:href="#DejaVuSans-74" x="147.802734"/>
      <use xlink:href="#DejaVuSans-72" x="187.011719"/>
      <use xlink:href="#DejaVuSans-69" x="228.125"/>
      <use xlink:href="#DejaVuSans-63" x="255.908203"/>
      <use xlink:href="#DejaVuSans-20" x="310.888672"/>
      <use xlink:href="#DejaVuSans-56" x="342.675781"/>
      <use xlink:href="#DejaVuSans-61" x="403.333984"/>
      <use xlink:href="#DejaVuSans-6c" x="464.613281"/>
      <use xlink:href="#DejaVuSans-75" x="492.396484"/>
      <use xlink:href="#DejaVuSans-65" x="555.775391"/>
     </g>
    </g>
   </g>
   <g id="line2d_54">
    <path d="M 152.293388 1141.503158 
L 152.598656 1133.345316 
L 153.20919 1124.827569 
L 154.430259 1114.870204 
L 155.346061 1110.376847 
L 156.872397 1105.8126 
L 157.482931 1103.633176 
L 159.009267 1098.971801 
L 159.925069 1097.539404 
L 160.535604 1096.266554 
L 161.146138 1095.07544 
L 161.756672 1093.988228 
L 165.114612 1089.509471 
L 165.725146 1088.482518 
L 167.251483 1086.125808 
L 167.862017 1085.339554 
L 171.525224 1079.265873 
L 172.441025 1077.57977 
L 173.967362 1075.477292 
L 176.409499 1071.426697 
L 181.904309 1063.866554 
L 182.820111 1062.780222 
L 184.04118 1061.247818 
L 185.567516 1059.569197 
L 187.704387 1057.213662 
L 188.620188 1056.33169 
L 190.451792 1054.625189 
L 195.946602 1050.815483 
L 197.472938 1049.918259 
L 198.694007 1049.129164 
L 201.746679 1047.534888 
L 203.88355 1046.461478 
L 205.715153 1045.340416 
L 209.37836 1043.413788 
L 210.599429 1042.906742 
L 213.652101 1041.416369 
L 234.71554 1031.5777 
L 235.631341 1031.141113 
L 236.547143 1030.734772 
L 240.515617 1028.934869 
L 265.54753 1017.302467 
L 267.989668 1016.296071 
L 269.516004 1015.618123 
L 271.958142 1014.491873 
L 282.642495 1009.928246 
L 288.747839 1007.152093 
L 301.87433 1001.132472 
L 305.232269 999.433969 
L 315.000821 994.692109 
L 317.137691 993.569207 
L 320.190363 992.033154 
L 325.379906 989.309477 
L 327.822044 988.083745 
L 349.496017 976.959362 
L 364.454111 968.941912 
L 366.896249 967.597233 
L 376.664801 962.369678 
L 386.128085 957.234097 
L 389.486024 955.410486 
L 395.896636 951.976126 
L 414.21267 943.15442 
L 424.591755 938.945143 
L 432.83397 935.658745 
L 441.076186 932.604589 
L 447.18153 930.177637 
L 454.813211 926.922748 
L 459.392219 924.710858 
L 463.360693 922.702689 
L 467.634434 920.471729 
L 475.266115 916.447909 
L 478.929322 914.499458 
L 481.37146 913.1205 
L 488.697873 908.690768 
L 494.192683 905.348898 
L 496.329554 904.042999 
L 498.161157 902.766316 
L 498.161157 902.766316 
" clip-path="url(#p6eef03808c)" style="fill: none; stroke: #1f77b4; stroke-width: 1.5; stroke-linecap: square"/>
   </g>
   <g id="line2d_55">
    <path d="M 152.293388 1016.016355 
L 152.598656 1002.220005 
L 152.903923 994.342089 
L 153.20919 989.80329 
L 153.514457 988.183719 
L 153.819725 988.383666 
L 154.124992 986.778376 
L 154.430259 986.354203 
L 154.735526 985.251161 
L 155.346061 985.086356 
L 156.872397 989.95325 
L 157.177664 990.413717 
L 159.009267 995.746935 
L 159.314535 995.981656 
L 159.925069 997.319763 
L 161.451405 1000.53658 
L 161.756672 1000.817876 
L 162.367207 1002.09298 
L 162.977741 1003.199746 
L 164.19881 1006.05899 
L 165.419879 1009.712569 
L 166.335681 1012.269262 
L 167.862017 1015.951757 
L 168.472551 1017.06941 
L 169.388353 1018.979782 
L 169.69362 1019.408562 
L 169.998888 1020.042409 
L 170.609422 1020.834753 
L 171.830491 1022.498333 
L 174.577896 1026.142325 
L 177.020034 1028.165337 
L 177.630568 1028.761555 
L 178.851637 1029.409176 
L 180.072706 1030.201298 
L 181.599042 1031.087832 
L 182.514844 1031.398686 
L 183.735913 1031.953678 
L 184.346447 1032.193962 
L 185.872783 1032.909184 
L 186.483318 1033.039109 
L 187.39912 1033.380727 
L 189.841257 1034.35215 
L 190.757059 1034.64072 
L 191.978128 1035.169151 
L 196.557136 1037.702673 
L 197.778205 1038.623175 
L 198.999274 1039.483394 
L 200.830878 1040.686329 
L 202.662481 1041.462636 
L 204.188817 1041.939322 
L 205.409886 1042.254443 
L 206.325688 1042.453856 
L 207.241489 1042.536632 
L 208.157291 1042.654526 
L 209.073093 1042.683953 
L 213.957368 1043.391576 
L 215.483704 1043.464863 
L 218.23111 1043.563722 
L 219.452178 1043.637284 
L 220.978515 1043.653646 
L 221.894316 1043.663539 
L 222.810118 1043.576995 
L 229.831264 1043.511199 
L 231.968135 1043.250983 
L 233.189204 1043.06965 
L 234.105005 1042.965955 
L 235.020807 1042.81162 
L 236.85241 1042.432676 
L 239.599815 1042.034838 
L 242.041953 1041.587896 
L 243.263022 1041.363764 
L 247.536763 1040.318169 
L 249.368367 1039.770824 
L 250.894703 1039.440529 
L 258.221116 1037.189375 
L 260.05272 1036.617007 
L 267.6844 1034.032486 
L 275.621348 1031.404285 
L 277.758219 1030.658307 
L 282.337227 1028.945956 
L 290.579442 1025.137114 
L 308.895476 1016.110183 
L 313.169217 1014.121402 
L 325.685174 1007.651468 
L 334.537923 1002.518522 
L 343.085406 997.474935 
L 345.832811 995.75211 
L 352.243422 991.512472 
L 365.67518 982.434839 
L 373.001594 977.247385 
L 385.51755 968.943946 
L 389.486024 966.413334 
L 400.170377 959.915773 
L 404.444118 957.471263 
L 406.275722 956.377007 
L 418.791678 949.262665 
L 423.981221 946.515281 
L 427.33916 944.919865 
L 430.086565 943.595032 
L 435.886643 940.867978 
L 438.023513 939.950331 
L 443.823591 937.198713 
L 453.897409 931.502657 
L 454.813211 930.998282 
L 459.392219 928.201732 
L 463.055426 925.977761 
L 466.718633 923.587966 
L 469.771305 921.5784 
L 475.571382 917.702817 
L 497.85589 903.006676 
L 498.161157 902.766316 
L 498.161157 902.766316 
" clip-path="url(#p6eef03808c)" style="fill: none; stroke: #ff7f0e; stroke-width: 1.5; stroke-linecap: square"/>
   </g>
   <g id="line2d_56">
    <path d="M 152.293388 1105.272743 
L 152.903923 1054.566157 
L 153.514457 1031.756191 
L 154.430259 1007.888506 
L 155.040793 1000.708405 
L 155.651328 995.70173 
L 155.956595 994.569721 
L 156.261862 994.233547 
L 156.56713 994.102153 
L 157.482931 995.808368 
L 157.788199 996.000598 
L 158.704 998.751832 
L 159.925069 1000.70656 
L 160.230336 1001.762349 
L 161.146138 1003.691616 
L 162.672474 1007.234679 
L 163.588276 1009.935859 
L 164.19881 1011.865454 
L 166.335681 1018.905804 
L 167.251483 1021.97158 
L 169.388353 1027.66801 
L 170.304155 1029.816705 
L 173.662094 1036.258888 
L 175.493698 1039.240341 
L 176.104232 1039.849038 
L 176.714767 1040.415827 
L 177.630568 1041.45534 
L 178.54637 1042.365247 
L 179.462172 1043.129183 
L 181.599042 1044.692481 
L 183.735913 1045.648516 
L 186.178051 1046.383322 
L 186.788585 1046.73244 
L 190.451792 1049.104745 
L 191.062326 1049.480003 
L 195.336067 1051.31237 
L 198.083473 1052.202279 
L 199.304541 1052.655437 
L 200.52561 1052.972616 
L 202.357214 1053.468266 
L 202.967748 1053.719435 
L 203.578283 1053.836883 
L 205.409886 1054.308854 
L 210.599429 1054.942308 
L 212.431032 1054.929697 
L 214.87317 1054.931497 
L 217.620575 1054.848129 
L 220.673247 1054.583219 
L 224.336454 1054.65626 
L 225.86279 1054.470645 
L 227.694394 1054.055969 
L 229.22073 1053.74993 
L 244.484091 1049.659732 
L 247.842031 1048.612573 
L 249.978901 1047.910722 
L 251.810505 1047.36586 
L 255.168444 1046.021909 
L 264.326461 1041.738464 
L 267.989668 1040.04221 
L 285.3899 1031.899385 
L 286.610968 1031.332576 
L 288.137305 1030.570173 
L 289.358374 1029.998257 
L 300.347994 1024.604207 
L 303.705933 1022.870719 
L 308.284942 1020.494546 
L 316.22189 1016.601925 
L 336.980061 1004.993529 
L 343.085406 1001.535841 
L 348.580216 998.5416 
L 350.411819 997.527216 
L 353.159224 995.959264 
L 356.211896 994.147701 
L 381.243809 980.109583 
L 394.675567 971.973366 
L 398.949308 969.464814 
L 401.391446 968.033749 
L 409.023127 963.433212 
L 411.159997 962.210095 
L 416.960075 958.936894 
L 448.707866 939.717775 
L 461.223823 931.603465 
L 468.855503 926.216066 
L 475.876649 920.774898 
L 485.950468 912.680037 
L 497.245355 903.488671 
L 498.161157 902.766316 
L 498.161157 902.766316 
" clip-path="url(#p6eef03808c)" style="fill: none; stroke: #2ca02c; stroke-width: 1.5; stroke-linecap: square"/>
   </g>
   <g id="line2d_57">
    <path d="M 152.293388 1078.639788 
L 153.20919 1038.1505 
L 154.430259 1011.007681 
L 155.040793 1005.243206 
L 155.651328 1000.960339 
L 155.956595 1000.309741 
L 156.261862 1000.33479 
L 156.56713 999.684676 
L 156.872397 1000.075573 
L 157.482931 998.980862 
L 157.788199 999.372338 
L 158.093466 999.532716 
L 158.398733 1000.329077 
L 159.009267 1000.076225 
L 159.619802 1000.670015 
L 159.925069 1000.70656 
L 160.230336 1001.006993 
L 160.535604 1001.054599 
L 160.840871 1001.214754 
L 161.451405 1001.8988 
L 162.06194 1002.405411 
L 162.367207 1002.756334 
L 163.588276 1005.856938 
L 164.504078 1008.742182 
L 165.114612 1010.252299 
L 165.725146 1011.804136 
L 167.55675 1016.580912 
L 167.862017 1016.971487 
L 168.777819 1018.529145 
L 170.609422 1021.770899 
L 171.219957 1022.692684 
L 173.356827 1026.028564 
L 174.883163 1028.336296 
L 175.493698 1029.150543 
L 177.630568 1031.517969 
L 178.54637 1032.527849 
L 181.599042 1035.827197 
L 182.514844 1036.37257 
L 183.125378 1036.773217 
L 184.346447 1037.384287 
L 185.872783 1038.416916 
L 186.788585 1039.020796 
L 187.704387 1039.679839 
L 188.925456 1040.646534 
L 189.53599 1041.082895 
L 190.757059 1041.876601 
L 192.588662 1043.07867 
L 193.809731 1043.906787 
L 194.725533 1044.400846 
L 195.946602 1044.907046 
L 196.862404 1045.203736 
L 197.778205 1045.451768 
L 198.999274 1045.626704 
L 200.52561 1046.017475 
L 201.746679 1046.47799 
L 204.188817 1046.928879 
L 206.02042 1047.355861 
L 207.852024 1047.457218 
L 210.294162 1047.875152 
L 211.515231 1048.253981 
L 213.346834 1048.598781 
L 214.567903 1048.665279 
L 215.483704 1048.707707 
L 217.010041 1048.616182 
L 220.673247 1048.348069 
L 222.504851 1047.94661 
L 224.336454 1047.495623 
L 225.557523 1047.183214 
L 228.304928 1046.471019 
L 230.441799 1046.056969 
L 235.936609 1044.693569 
L 237.768212 1043.986465 
L 243.568289 1042.051868 
L 246.010427 1041.1388 
L 247.231496 1040.834405 
L 249.673634 1040.128477 
L 251.505237 1039.575031 
L 253.031573 1038.884263 
L 255.168444 1037.961319 
L 258.831651 1036.668035 
L 263.105392 1035.204686 
L 275.926616 1030.238209 
L 282.337227 1028.389101 
L 290.274175 1025.45174 
L 291.800511 1024.859955 
L 308.590209 1018.24407 
L 312.86395 1016.133364 
L 320.800898 1012.533154 
L 325.685174 1010.321131 
L 328.127311 1009.074414 
L 332.70632 1006.751239 
L 334.84319 1005.564496 
L 336.369527 1004.706765 
L 342.169604 1001.781919 
L 344.001207 1000.740524 
L 345.527543 999.897465 
L 353.769758 995.176725 
L 358.348767 992.53665 
L 363.53831 989.698816 
L 365.980448 988.38087 
L 379.717473 980.86276 
L 382.770145 979.151822 
L 388.264955 975.979505 
L 402.00198 968.198676 
L 405.970454 965.925857 
L 412.686333 962.082333 
L 416.960075 959.527613 
L 425.507557 954.259479 
L 430.086565 951.480541 
L 441.991987 944.447584 
L 448.707866 940.393892 
L 453.592142 937.185307 
L 465.497564 928.66848 
L 475.266115 921.038876 
L 489.00314 910.060256 
L 498.161157 902.766316 
L 498.161157 902.766316 
" clip-path="url(#p6eef03808c)" style="fill: none; stroke: #d62728; stroke-width: 1.5; stroke-linecap: square"/>
   </g>
   <g id="patch_35">
    <path d="M 135 1153.44 
L 135 890.829474 
" style="fill: none; stroke: #000000; stroke-width: 0.8; stroke-linejoin: miter; stroke-linecap: square"/>
   </g>
   <g id="patch_36">
    <path d="M 515.454545 1153.44 
L 515.454545 890.829474 
" style="fill: none; stroke: #000000; stroke-width: 0.8; stroke-linejoin: miter; stroke-linecap: square"/>
   </g>
   <g id="patch_37">
    <path d="M 135 1153.44 
L 515.454545 1153.44 
" style="fill: none; stroke: #000000; stroke-width: 0.8; stroke-linejoin: miter; stroke-linecap: square"/>
   </g>
   <g id="patch_38">
    <path d="M 135 890.829474 
L 515.454545 890.829474 
" style="fill: none; stroke: #000000; stroke-width: 0.8; stroke-linejoin: miter; stroke-linecap: square"/>
   </g>
   <g id="text_58">
    <!-- e -->
    <g transform="translate(89.376307 872.71352) scale(0.28 -0.28)">
     <defs>
      <path id="DejaVuSans-Bold-65" d="M 4031 1759 
L 4031 1441 
L 1416 1441 
Q 1456 1047 1700 850 
Q 1944 653 2381 653 
Q 2734 653 3104 758 
Q 3475 863 3866 1075 
L 3866 213 
Q 3469 63 3072 -14 
Q 2675 -91 2278 -91 
Q 1328 -91 801 392 
Q 275 875 275 1747 
Q 275 2603 792 3093 
Q 1309 3584 2216 3584 
Q 3041 3584 3536 3087 
Q 4031 2591 4031 1759 
z
M 2881 2131 
Q 2881 2450 2695 2645 
Q 2509 2841 2209 2841 
Q 1884 2841 1681 2658 
Q 1478 2475 1428 2131 
L 2881 2131 
z
" transform="scale(0.015625)"/>
     </defs>
     <use xlink:href="#DejaVuSans-Bold-65"/>
    </g>
   </g>
   <g id="text_59">
    <!-- $Q_{NN}$ -->
    <g transform="translate(302.787273 884.829474) scale(0.24 -0.24)">
     <use xlink:href="#DejaVuSans-Oblique-51" transform="translate(0 0.78125)"/>
     <use xlink:href="#DejaVuSans-Oblique-4e" transform="translate(78.710938 -15.625) scale(0.7)"/>
     <use xlink:href="#DejaVuSans-Oblique-4e" transform="translate(131.074219 -15.625) scale(0.7)"/>
    </g>
   </g>
  </g>
  <g id="axes_6">
   <g id="patch_39">
    <path d="M 591.545455 1153.44 
L 972 1153.44 
L 972 890.829474 
L 591.545455 890.829474 
z
" style="fill: #ffffff"/>
   </g>
   <g id="matplotlib.axis_11">
    <g id="xtick_21">
     <g id="line2d_58">
      <g>
       <use xlink:href="#mc0c859863b" x="608.533576" y="1153.44" style="stroke: #000000; stroke-width: 0.8"/>
      </g>
     </g>
     <g id="text_60">
      <!-- 0 -->
      <g transform="translate(601.534826 1177.156562) scale(0.22 -0.22)">
       <use xlink:href="#DejaVuSans-30"/>
      </g>
     </g>
    </g>
    <g id="xtick_22">
     <g id="line2d_59">
      <g>
       <use xlink:href="#mc0c859863b" x="684.850383" y="1153.44" style="stroke: #000000; stroke-width: 0.8"/>
      </g>
     </g>
     <g id="text_61">
      <!-- 250 -->
      <g transform="translate(663.854133 1177.156562) scale(0.22 -0.22)">
       <use xlink:href="#DejaVuSans-32"/>
       <use xlink:href="#DejaVuSans-35" x="63.623047"/>
       <use xlink:href="#DejaVuSans-30" x="127.246094"/>
      </g>
     </g>
    </g>
    <g id="xtick_23">
     <g id="line2d_60">
      <g>
       <use xlink:href="#mc0c859863b" x="761.167189" y="1153.44" style="stroke: #000000; stroke-width: 0.8"/>
      </g>
     </g>
     <g id="text_62">
      <!-- 500 -->
      <g transform="translate(740.170939 1177.156562) scale(0.22 -0.22)">
       <use xlink:href="#DejaVuSans-35"/>
       <use xlink:href="#DejaVuSans-30" x="63.623047"/>
       <use xlink:href="#DejaVuSans-30" x="127.246094"/>
      </g>
     </g>
    </g>
    <g id="xtick_24">
     <g id="line2d_61">
      <g>
       <use xlink:href="#mc0c859863b" x="837.483996" y="1153.44" style="stroke: #000000; stroke-width: 0.8"/>
      </g>
     </g>
     <g id="text_63">
      <!-- 750 -->
      <g transform="translate(816.487746 1177.156562) scale(0.22 -0.22)">
       <use xlink:href="#DejaVuSans-37"/>
       <use xlink:href="#DejaVuSans-35" x="63.623047"/>
       <use xlink:href="#DejaVuSans-30" x="127.246094"/>
      </g>
     </g>
    </g>
    <g id="xtick_25">
     <g id="line2d_62">
      <g>
       <use xlink:href="#mc0c859863b" x="913.800803" y="1153.44" style="stroke: #000000; stroke-width: 0.8"/>
      </g>
     </g>
     <g id="text_64">
      <!-- 1000 -->
      <g transform="translate(885.805803 1177.156562) scale(0.22 -0.22)">
       <use xlink:href="#DejaVuSans-31"/>
       <use xlink:href="#DejaVuSans-30" x="63.623047"/>
       <use xlink:href="#DejaVuSans-30" x="127.246094"/>
       <use xlink:href="#DejaVuSans-30" x="190.869141"/>
      </g>
     </g>
    </g>
    <g id="text_65">
     <!-- k -->
     <g transform="translate(774.823977 1203.968125) scale(0.24 -0.24)">
      <use xlink:href="#DejaVuSans-6b"/>
     </g>
    </g>
   </g>
   <g id="matplotlib.axis_12">
    <g id="ytick_22">
     <g id="line2d_63">
      <g>
       <use xlink:href="#mc1f18b57d2" x="591.545455" y="1140.87885" style="stroke: #000000; stroke-width: 0.8"/>
      </g>
     </g>
     <g id="text_66">
      <!-- 0.0 -->
      <g transform="translate(549.55858 1149.237131) scale(0.22 -0.22)">
       <use xlink:href="#DejaVuSans-30"/>
       <use xlink:href="#DejaVuSans-2e" x="63.623047"/>
       <use xlink:href="#DejaVuSans-30" x="95.410156"/>
      </g>
     </g>
    </g>
    <g id="ytick_23">
     <g id="line2d_64">
      <g>
       <use xlink:href="#mc1f18b57d2" x="591.545455" y="1071.778162" style="stroke: #000000; stroke-width: 0.8"/>
      </g>
     </g>
     <g id="text_67">
      <!-- 0.2 -->
      <g transform="translate(549.55858 1080.136443) scale(0.22 -0.22)">
       <use xlink:href="#DejaVuSans-30"/>
       <use xlink:href="#DejaVuSans-2e" x="63.623047"/>
       <use xlink:href="#DejaVuSans-32" x="95.410156"/>
      </g>
     </g>
    </g>
    <g id="ytick_24">
     <g id="line2d_65">
      <g>
       <use xlink:href="#mc1f18b57d2" x="591.545455" y="1002.677474" style="stroke: #000000; stroke-width: 0.8"/>
      </g>
     </g>
     <g id="text_68">
      <!-- 0.4 -->
      <g transform="translate(549.55858 1011.035755) scale(0.22 -0.22)">
       <use xlink:href="#DejaVuSans-30"/>
       <use xlink:href="#DejaVuSans-2e" x="63.623047"/>
       <use xlink:href="#DejaVuSans-34" x="95.410156"/>
      </g>
     </g>
    </g>
    <g id="ytick_25">
     <g id="line2d_66">
      <g>
       <use xlink:href="#mc1f18b57d2" x="591.545455" y="933.576786" style="stroke: #000000; stroke-width: 0.8"/>
      </g>
     </g>
     <g id="text_69">
      <!-- 0.6 -->
      <g transform="translate(549.55858 941.935067) scale(0.22 -0.22)">
       <use xlink:href="#DejaVuSans-30"/>
       <use xlink:href="#DejaVuSans-2e" x="63.623047"/>
       <use xlink:href="#DejaVuSans-36" x="95.410156"/>
      </g>
     </g>
    </g>
   </g>
   <g id="line2d_67">
    <path d="M 608.838843 1098.566362 
L 609.14411 1088.521156 
L 609.754645 1078.324014 
L 610.975714 1066.909776 
L 611.586248 1063.470499 
L 611.891515 1062.123069 
L 613.417851 1057.855776 
L 613.723119 1056.490684 
L 614.63892 1053.914762 
L 615.249455 1051.98369 
L 615.554722 1051.309568 
L 616.470524 1050.406311 
L 617.081058 1049.400795 
L 617.386325 1049.049794 
L 617.99686 1048.022996 
L 618.607394 1047.5266 
L 618.912661 1047.389858 
L 619.523196 1046.792521 
L 620.13373 1046.642633 
L 620.438998 1046.202722 
L 621.354799 1045.892986 
L 621.965334 1044.953613 
L 622.881135 1044.141436 
L 623.796937 1043.238084 
L 624.102204 1043.111814 
L 624.712739 1042.528986 
L 625.018006 1042.028289 
L 625.62854 1041.61872 
L 627.765411 1039.150905 
L 628.681213 1037.965045 
L 628.98648 1037.5752 
L 630.512816 1036.431162 
L 632.039152 1034.811244 
L 632.649687 1034.09127 
L 633.260221 1033.493313 
L 633.870756 1033.092908 
L 634.786557 1032.412227 
L 635.702359 1031.579111 
L 636.618161 1030.899645 
L 637.228695 1030.403864 
L 637.83923 1030.049258 
L 638.144497 1029.911967 
L 638.449764 1029.622173 
L 639.060298 1029.327869 
L 641.502436 1028.082281 
L 642.112971 1027.826223 
L 643.944574 1027.074399 
L 644.555109 1026.950887 
L 646.997246 1026.428571 
L 648.523583 1026.509934 
L 648.82885 1026.433695 
L 652.492056 1027.079364 
L 653.713125 1027.458606 
L 654.628927 1027.528294 
L 656.155263 1027.965727 
L 657.071065 1028.250249 
L 658.292134 1028.706121 
L 660.123737 1029.43512 
L 661.344806 1029.647334 
L 661.955341 1029.792438 
L 664.397478 1030.612396 
L 665.618547 1031.014855 
L 666.229082 1031.274944 
L 667.450151 1031.771098 
L 668.365952 1032.125681 
L 671.113357 1033.275795 
L 671.723892 1033.526809 
L 673.250228 1034.165977 
L 674.16603 1034.444624 
L 683.629314 1038.234302 
L 684.850383 1038.767046 
L 685.766184 1039.077063 
L 686.681986 1039.471393 
L 688.208322 1040.11045 
L 690.65046 1041.087026 
L 692.78733 1041.960677 
L 694.924201 1042.997727 
L 697.976873 1044.125528 
L 699.808477 1044.878074 
L 702.555882 1046.000959 
L 704.387485 1046.783666 
L 705.608554 1047.225597 
L 709.577028 1048.881888 
L 710.49283 1049.211274 
L 713.850769 1050.511015 
L 715.377105 1051.094073 
L 720.566648 1053.293671 
L 721.787717 1053.874995 
L 725.450924 1055.5995 
L 730.640467 1057.854597 
L 733.082605 1058.927202 
L 734.303673 1059.463431 
L 736.440544 1060.469877 
L 741.019552 1062.478347 
L 741.935354 1062.82034 
L 755.061845 1068.416463 
L 763.914594 1071.856786 
L 765.440931 1072.443819 
L 772.462077 1075.010612 
L 773.988413 1075.530501 
L 785.588568 1079.550362 
L 788.64124 1080.62714 
L 790.472843 1081.285938 
L 797.188722 1083.671165 
L 800.241395 1084.73189 
L 801.767731 1085.23 
L 806.652006 1086.840243 
L 810.009946 1087.962135 
L 811.536282 1088.433174 
L 818.252161 1090.501355 
L 828.020712 1093.561297 
L 830.46285 1094.350886 
L 833.210255 1095.236498 
L 841.45247 1097.772309 
L 855.189495 1102.221148 
L 868.315986 1107.276831 
L 875.031865 1110.364818 
L 877.474003 1111.542818 
L 880.526675 1113.033884 
L 885.105684 1115.270867 
L 896.400571 1121.103017 
L 898.537442 1122.237159 
L 906.47439 1126.052984 
L 911.9692 1128.518244 
L 917.769277 1130.669876 
L 925.400958 1133.273665 
L 931.81157 1135.385979 
L 934.864242 1136.36846 
L 937.30638 1137.097874 
L 944.022259 1138.716437 
L 946.769664 1139.269331 
L 948.906534 1139.752216 
L 950.127603 1140.051914 
L 954.706612 1140.87885 
L 954.706612 1140.87885 
" clip-path="url(#pf18d3ede4c)" style="fill: none; stroke: #1f77b4; stroke-width: 1.5; stroke-linecap: square"/>
   </g>
   <g id="line2d_68">
    <path d="M 608.838843 939.360813 
L 609.14411 922.162011 
L 609.449377 912.471948 
L 609.754645 907.018234 
L 610.059912 905.268155 
L 610.365179 905.826505 
L 610.670446 904.094545 
L 610.975714 903.861072 
L 611.280981 902.766316 
L 611.891515 903.166581 
L 613.723119 911.753483 
L 615.554722 920.347816 
L 615.859989 920.950283 
L 616.775791 924.429236 
L 617.99686 928.861869 
L 618.302127 929.523428 
L 618.912661 931.75051 
L 619.828463 934.944215 
L 620.438998 937.123075 
L 622.881135 948.621992 
L 624.407472 954.817371 
L 625.018006 956.844695 
L 626.544342 962.139933 
L 627.460144 964.647987 
L 631.123351 974.449069 
L 633.870756 980.140531 
L 634.48129 981.30934 
L 638.449764 988.132562 
L 641.197169 992.381919 
L 642.418238 994.307246 
L 643.33404 995.482384 
L 644.860376 997.785166 
L 645.776177 999.099741 
L 646.386712 1000.098741 
L 647.607781 1001.820013 
L 648.218315 1002.724079 
L 649.744651 1005.263978 
L 651.576255 1008.315573 
L 653.102591 1011.05245 
L 654.934194 1014.654287 
L 658.902668 1021.412437 
L 660.123737 1023.31273 
L 665.618547 1029.863964 
L 670.80809 1035.933633 
L 675.997633 1041.432468 
L 677.523969 1042.97661 
L 678.439771 1043.903192 
L 679.050305 1044.428927 
L 680.881909 1046.238088 
L 684.239848 1049.654841 
L 685.460917 1050.800563 
L 686.987253 1052.135231 
L 695.229468 1058.761625 
L 698.282141 1061.131349 
L 700.419011 1062.76312 
L 701.64008 1063.628036 
L 703.166416 1064.690107 
L 704.99802 1065.759409 
L 708.966494 1068.517986 
L 711.103364 1069.864336 
L 713.545502 1071.228061 
L 717.819243 1073.708365 
L 719.040312 1074.340876 
L 721.48245 1075.727838 
L 722.398252 1076.246916 
L 731.556268 1081.666687 
L 733.693139 1082.831329 
L 735.524742 1083.823223 
L 741.630087 1086.823776 
L 743.766957 1087.679586 
L 749.261768 1089.812478 
L 750.788104 1090.316038 
L 762.998793 1094.67483 
L 766.356732 1096.157738 
L 773.988413 1099.048009 
L 779.483223 1100.927728 
L 781.620094 1101.608298 
L 785.2833 1102.684085 
L 799.936127 1106.338301 
L 803.599334 1106.97904 
L 805.12567 1107.212769 
L 811.841549 1108.377614 
L 820.999566 1109.606657 
L 829.547048 1110.455777 
L 841.45247 1112.280976 
L 856.105297 1115.411397 
L 861.29484 1116.797715 
L 865.263314 1117.829133 
L 868.010719 1118.61447 
L 875.6424 1120.743424 
L 882.968813 1123.273857 
L 885.410951 1124.294953 
L 891.821563 1126.787966 
L 895.790037 1128.521958 
L 897.62164 1129.210026 
L 900.369045 1130.330891 
L 903.726985 1131.3237 
L 906.47439 1132.052572 
L 908.916527 1132.691949 
L 912.885001 1133.773206 
L 917.158743 1134.807045 
L 918.074544 1135.03526 
L 937.30638 1138.173337 
L 940.664319 1138.83273 
L 953.79081 1140.879121 
L 954.706612 1140.87885 
L 954.706612 1140.87885 
" clip-path="url(#pf18d3ede4c)" style="fill: none; stroke: #ff7f0e; stroke-width: 1.5; stroke-linecap: square"/>
   </g>
   <g id="line2d_69">
    <path d="M 608.838843 1052.600706 
L 609.449377 988.878436 
L 610.059912 960.548705 
L 610.975714 931.181718 
L 611.586248 922.681653 
L 612.196782 916.939019 
L 612.50205 915.807513 
L 612.807317 915.685684 
L 613.112584 915.823661 
L 614.028386 918.902373 
L 614.333653 919.450932 
L 615.249455 923.855462 
L 616.470524 927.554139 
L 617.081058 930.235811 
L 619.217929 938.578478 
L 620.13373 942.919505 
L 620.744265 945.976942 
L 625.323273 968.759013 
L 627.765411 978.124286 
L 628.98648 982.486382 
L 630.818083 988.406559 
L 631.733885 991.198451 
L 632.649687 993.362208 
L 633.260221 994.690648 
L 634.48129 997.668601 
L 635.397092 999.563615 
L 636.618161 1002.113206 
L 637.83923 1004.602625 
L 638.755031 1005.929548 
L 639.9761 1007.912574 
L 643.33404 1012.758891 
L 649.744651 1024.008766 
L 650.96572 1025.775359 
L 655.239462 1031.921847 
L 656.46053 1033.592827 
L 663.176409 1042.466965 
L 668.976487 1048.751627 
L 672.639693 1052.336456 
L 673.860762 1053.566841 
L 677.218702 1056.538322 
L 681.492443 1060.875977 
L 682.408245 1061.575004 
L 684.239848 1062.876964 
L 685.766184 1064.012074 
L 700.419011 1073.690468 
L 702.555882 1074.966201 
L 704.387485 1076.079573 
L 706.219089 1077.098934 
L 707.745425 1078.092193 
L 709.882295 1079.281276 
L 730.945734 1087.835738 
L 732.166803 1088.26104 
L 735.219475 1089.529109 
L 737.96688 1090.666219 
L 750.482836 1095.739793 
L 769.714672 1102.560785 
L 772.462077 1103.621592 
L 781.009559 1106.137242 
L 782.841163 1106.6857 
L 784.367499 1107.128937 
L 789.557042 1108.716851 
L 802.072998 1112.194588 
L 803.294067 1112.517797 
L 806.957274 1113.63879 
L 808.788877 1114.139867 
L 815.504756 1115.952103 
L 817.336359 1116.465468 
L 820.999566 1117.553201 
L 825.273307 1118.878932 
L 835.041858 1121.705436 
L 840.536669 1122.931715 
L 850.30522 1125.120393 
L 852.44209 1125.710234 
L 859.768504 1127.575242 
L 864.347512 1128.580922 
L 867.705452 1129.462508 
L 872.28446 1130.764773 
L 875.031865 1131.434894 
L 883.579348 1133.305763 
L 886.326753 1134.053161 
L 894.263701 1135.948011 
L 897.62164 1136.724122 
L 900.674312 1137.423999 
L 902.200648 1137.775938 
L 919.906148 1140.886747 
L 927.232561 1141.462632 
L 936.695845 1141.465032 
L 951.043405 1140.917953 
L 954.706612 1140.87885 
L 954.706612 1140.87885 
" clip-path="url(#pf18d3ede4c)" style="fill: none; stroke: #2ca02c; stroke-width: 1.5; stroke-linecap: square"/>
   </g>
   <g id="line2d_70">
    <path d="M 608.838843 1018.811383 
L 609.754645 968.35651 
L 610.975714 935.139026 
L 611.586248 928.43497 
L 612.196782 923.610635 
L 612.50205 923.089897 
L 612.807317 923.426353 
L 613.112584 922.906228 
L 613.417851 923.706836 
L 614.028386 922.927327 
L 614.944188 925.551842 
L 615.554722 925.840401 
L 616.165256 927.203099 
L 616.470524 927.554139 
L 616.775791 928.239977 
L 617.386325 929.112918 
L 617.99686 930.590123 
L 618.607394 931.842215 
L 618.912661 932.592109 
L 620.13373 937.744564 
L 621.049532 942.319114 
L 621.965334 946.02091 
L 624.102204 955.310905 
L 624.712739 957.174043 
L 628.98648 970.191921 
L 629.291747 970.952208 
L 630.512816 974.974505 
L 631.733885 978.405291 
L 633.260221 982.022001 
L 633.870756 983.511028 
L 636.312893 989.682592 
L 639.060298 995.349813 
L 640.891902 998.461443 
L 642.723505 1001.897595 
L 645.165643 1006.527474 
L 646.386712 1008.926582 
L 649.439384 1014.51949 
L 650.660453 1016.72833 
L 654.934194 1022.881322 
L 655.544729 1023.54311 
L 657.071065 1025.562266 
L 658.292134 1027.36523 
L 661.039539 1030.791154 
L 662.565875 1032.744463 
L 664.397478 1034.701115 
L 666.839616 1037.668764 
L 668.365952 1039.762291 
L 672.029159 1043.904534 
L 673.555495 1045.311799 
L 677.218702 1048.627764 
L 679.050305 1049.946492 
L 680.881909 1051.202384 
L 681.79771 1051.839155 
L 684.545115 1053.623292 
L 688.513589 1056.6304 
L 689.734658 1057.426792 
L 691.566262 1058.683279 
L 693.092598 1059.495959 
L 694.618934 1060.339239 
L 703.471683 1065.405449 
L 708.355959 1068.427151 
L 712.324433 1070.22473 
L 714.766571 1071.562796 
L 723.924588 1076.341065 
L 732.47207 1080.798214 
L 738.577415 1084.680524 
L 744.377492 1087.808937 
L 747.735431 1089.490831 
L 749.261768 1090.228481 
L 755.061845 1093.209252 
L 758.725052 1095.09105 
L 766.051465 1098.498719 
L 768.188336 1099.24895 
L 778.567421 1103.6796 
L 779.78849 1104.253012 
L 791.083378 1108.207564 
L 795.357119 1109.558758 
L 799.020326 1110.918225 
L 802.072998 1111.771105 
L 807.567808 1113.250467 
L 819.167963 1116.506703 
L 821.6101 1117.302745 
L 824.357505 1118.120468 
L 828.936514 1119.570557 
L 831.073384 1120.192297 
L 832.904988 1120.751202 
L 835.347126 1121.45441 
L 839.3156 1122.621599 
L 842.368272 1123.440713 
L 851.831556 1126.080156 
L 858.242168 1127.825038 
L 861.600107 1128.754671 
L 865.263314 1129.781051 
L 868.621253 1130.672999 
L 879.916141 1133.294642 
L 883.27408 1133.961775 
L 901.284847 1138.358833 
L 906.779657 1139.537439 
L 911.9692 1140.278389 
L 920.211415 1141.092103 
L 924.179889 1141.159358 
L 930.590501 1141.226396 
L 954.706612 1140.87885 
L 954.706612 1140.87885 
" clip-path="url(#pf18d3ede4c)" style="fill: none; stroke: #d62728; stroke-width: 1.5; stroke-linecap: square"/>
   </g>
   <g id="patch_40">
    <path d="M 591.545455 1153.44 
L 591.545455 890.829474 
" style="fill: none; stroke: #000000; stroke-width: 0.8; stroke-linejoin: miter; stroke-linecap: square"/>
   </g>
   <g id="patch_41">
    <path d="M 972 1153.44 
L 972 890.829474 
" style="fill: none; stroke: #000000; stroke-width: 0.8; stroke-linejoin: miter; stroke-linecap: square"/>
   </g>
   <g id="patch_42">
    <path d="M 591.545455 1153.44 
L 972 1153.44 
" style="fill: none; stroke: #000000; stroke-width: 0.8; stroke-linejoin: miter; stroke-linecap: square"/>
   </g>
   <g id="patch_43">
    <path d="M 591.545455 890.829474 
L 972 890.829474 
" style="fill: none; stroke: #000000; stroke-width: 0.8; stroke-linejoin: miter; stroke-linecap: square"/>
   </g>
   <g id="text_70">
    <!-- f -->
    <g transform="translate(552.733636 872.71352) scale(0.28 -0.28)">
     <defs>
      <path id="DejaVuSans-Bold-66" d="M 2841 4863 
L 2841 4128 
L 2222 4128 
Q 1984 4128 1890 4042 
Q 1797 3956 1797 3744 
L 1797 3500 
L 2753 3500 
L 2753 2700 
L 1797 2700 
L 1797 0 
L 678 0 
L 678 2700 
L 122 2700 
L 122 3500 
L 678 3500 
L 678 3744 
Q 678 4316 997 4589 
Q 1316 4863 1984 4863 
L 2841 4863 
z
" transform="scale(0.015625)"/>
     </defs>
     <use xlink:href="#DejaVuSans-Bold-66"/>
    </g>
   </g>
   <g id="text_71">
    <!-- LCMC -->
    <g transform="translate(747.973977 884.829474) scale(0.24 -0.24)">
     <defs>
      <path id="DejaVuSans-4c" d="M 628 4666 
L 1259 4666 
L 1259 531 
L 3531 531 
L 3531 0 
L 628 0 
L 628 4666 
z
" transform="scale(0.015625)"/>
     </defs>
     <use xlink:href="#DejaVuSans-4c"/>
     <use xlink:href="#DejaVuSans-43" x="55.712891"/>
     <use xlink:href="#DejaVuSans-4d" x="125.537109"/>
     <use xlink:href="#DejaVuSans-43" x="211.816406"/>
    </g>
   </g>
  </g>
 </g>
 <defs>
  <clipPath id="p9f94042925">
   <rect x="135" y="155.52" width="380.454545" height="262.610526"/>
  </clipPath>
  <clipPath id="p52a3d2f8db">
   <rect x="591.545455" y="155.52" width="380.454545" height="262.610526"/>
  </clipPath>
  <clipPath id="p71d0664218">
   <rect x="135" y="523.174737" width="380.454545" height="262.610526"/>
  </clipPath>
  <clipPath id="p67f40e3dfc">
   <rect x="591.545455" y="523.174737" width="380.454545" height="262.610526"/>
  </clipPath>
  <clipPath id="p6eef03808c">
   <rect x="135" y="890.829474" width="380.454545" height="262.610526"/>
  </clipPath>
  <clipPath id="pf18d3ede4c">
   <rect x="591.545455" y="890.829474" width="380.454545" height="262.610526"/>
  </clipPath>
 </defs>
</svg>
