<?xml version="1.0" encoding="utf-8" standalone="no"?>
<!DOCTYPE svg PUBLIC "-//W3C//DTD SVG 1.1//EN"
  "http://www.w3.org/Graphics/SVG/1.1/DTD/svg11.dtd">
<svg xmlns:xlink="http://www.w3.org/1999/xlink" width="1080pt" height="1296pt" viewBox="0 0 1080 1296" xmlns="http://www.w3.org/2000/svg" version="1.1">
 <metadata>
  <rdf:RDF xmlns:dc="http://purl.org/dc/elements/1.1/" xmlns:cc="http://creativecommons.org/ns#" xmlns:rdf="http://www.w3.org/1999/02/22-rdf-syntax-ns#">
   <cc:Work>
    <dc:type rdf:resource="http://purl.org/dc/dcmitype/StillImage"/>
    <dc:date>2024-07-24T11:50:52.343045</dc:date>
    <dc:format>image/svg+xml</dc:format>
    <dc:creator>
     <cc:Agent>
      <dc:title>Matplotlib v3.8.4, https://matplotlib.org/</dc:title>
     </cc:Agent>
    </dc:creator>
   </cc:Work>
  </rdf:RDF>
 </metadata>
 <defs>
  <style type="text/css">*{stroke-linejoin: round; stroke-linecap: butt}</style>
 </defs>
 <g id="figure_1">
  <g id="patch_1">
   <path d="M 0 1296 
L 1080 1296 
L 1080 0 
L 0 0 
z
" style="fill: #ffffff"/>
  </g>
  <g id="axes_1">
   <g id="patch_2">
    <path d="M 135 418.130526 
L 515.454545 418.130526 
L 515.454545 155.52 
L 135 155.52 
z
" style="fill: #ffffff"/>
   </g>
   <g id="matplotlib.axis_1">
    <g id="xtick_1">
     <g id="line2d_1">
      <defs>
       <path id="mf6b40b90b2" d="M 0 0 
L 0 3.5 
" style="stroke: #000000; stroke-width: 0.8"/>
      </defs>
      <g>
       <use xlink:href="#mf6b40b90b2" x="137.882231" y="418.130526" style="stroke: #000000; stroke-width: 0.8"/>
      </g>
     </g>
     <g id="text_1">
      <!-- 0 -->
      <g transform="translate(131.519731 440.327401) scale(0.2 -0.2)">
       <defs>
        <path id="DejaVuSans-30" d="M 2034 4250 
Q 1547 4250 1301 3770 
Q 1056 3291 1056 2328 
Q 1056 1369 1301 889 
Q 1547 409 2034 409 
Q 2525 409 2770 889 
Q 3016 1369 3016 2328 
Q 3016 3291 2770 3770 
Q 2525 4250 2034 4250 
z
M 2034 4750 
Q 2819 4750 3233 4129 
Q 3647 3509 3647 2328 
Q 3647 1150 3233 529 
Q 2819 -91 2034 -91 
Q 1250 -91 836 529 
Q 422 1150 422 2328 
Q 422 3509 836 4129 
Q 1250 4750 2034 4750 
z
" transform="scale(0.015625)"/>
       </defs>
       <use xlink:href="#DejaVuSans-30"/>
      </g>
     </g>
    </g>
    <g id="xtick_2">
     <g id="line2d_2">
      <g>
       <use xlink:href="#mf6b40b90b2" x="209.938017" y="418.130526" style="stroke: #000000; stroke-width: 0.8"/>
      </g>
     </g>
     <g id="text_2">
      <!-- 10 -->
      <g transform="translate(197.213017 440.327401) scale(0.2 -0.2)">
       <defs>
        <path id="DejaVuSans-31" d="M 794 531 
L 1825 531 
L 1825 4091 
L 703 3866 
L 703 4441 
L 1819 4666 
L 2450 4666 
L 2450 531 
L 3481 531 
L 3481 0 
L 794 0 
L 794 531 
z
" transform="scale(0.015625)"/>
       </defs>
       <use xlink:href="#DejaVuSans-31"/>
       <use xlink:href="#DejaVuSans-30" x="63.623047"/>
      </g>
     </g>
    </g>
    <g id="xtick_3">
     <g id="line2d_3">
      <g>
       <use xlink:href="#mf6b40b90b2" x="281.993802" y="418.130526" style="stroke: #000000; stroke-width: 0.8"/>
      </g>
     </g>
     <g id="text_3">
      <!-- 20 -->
      <g transform="translate(269.268802 440.327401) scale(0.2 -0.2)">
       <defs>
        <path id="DejaVuSans-32" d="M 1228 531 
L 3431 531 
L 3431 0 
L 469 0 
L 469 531 
Q 828 903 1448 1529 
Q 2069 2156 2228 2338 
Q 2531 2678 2651 2914 
Q 2772 3150 2772 3378 
Q 2772 3750 2511 3984 
Q 2250 4219 1831 4219 
Q 1534 4219 1204 4116 
Q 875 4013 500 3803 
L 500 4441 
Q 881 4594 1212 4672 
Q 1544 4750 1819 4750 
Q 2544 4750 2975 4387 
Q 3406 4025 3406 3419 
Q 3406 3131 3298 2873 
Q 3191 2616 2906 2266 
Q 2828 2175 2409 1742 
Q 1991 1309 1228 531 
z
" transform="scale(0.015625)"/>
       </defs>
       <use xlink:href="#DejaVuSans-32"/>
       <use xlink:href="#DejaVuSans-30" x="63.623047"/>
      </g>
     </g>
    </g>
    <g id="xtick_4">
     <g id="line2d_4">
      <g>
       <use xlink:href="#mf6b40b90b2" x="354.049587" y="418.130526" style="stroke: #000000; stroke-width: 0.8"/>
      </g>
     </g>
     <g id="text_4">
      <!-- 30 -->
      <g transform="translate(341.324587 440.327401) scale(0.2 -0.2)">
       <defs>
        <path id="DejaVuSans-33" d="M 2597 2516 
Q 3050 2419 3304 2112 
Q 3559 1806 3559 1356 
Q 3559 666 3084 287 
Q 2609 -91 1734 -91 
Q 1441 -91 1130 -33 
Q 819 25 488 141 
L 488 750 
Q 750 597 1062 519 
Q 1375 441 1716 441 
Q 2309 441 2620 675 
Q 2931 909 2931 1356 
Q 2931 1769 2642 2001 
Q 2353 2234 1838 2234 
L 1294 2234 
L 1294 2753 
L 1863 2753 
Q 2328 2753 2575 2939 
Q 2822 3125 2822 3475 
Q 2822 3834 2567 4026 
Q 2313 4219 1838 4219 
Q 1578 4219 1281 4162 
Q 984 4106 628 3988 
L 628 4550 
Q 988 4650 1302 4700 
Q 1616 4750 1894 4750 
Q 2613 4750 3031 4423 
Q 3450 4097 3450 3541 
Q 3450 3153 3228 2886 
Q 3006 2619 2597 2516 
z
" transform="scale(0.015625)"/>
       </defs>
       <use xlink:href="#DejaVuSans-33"/>
       <use xlink:href="#DejaVuSans-30" x="63.623047"/>
      </g>
     </g>
    </g>
    <g id="xtick_5">
     <g id="line2d_5">
      <g>
       <use xlink:href="#mf6b40b90b2" x="426.105372" y="418.130526" style="stroke: #000000; stroke-width: 0.8"/>
      </g>
     </g>
     <g id="text_5">
      <!-- 40 -->
      <g transform="translate(413.380372 440.327401) scale(0.2 -0.2)">
       <defs>
        <path id="DejaVuSans-34" d="M 2419 4116 
L 825 1625 
L 2419 1625 
L 2419 4116 
z
M 2253 4666 
L 3047 4666 
L 3047 1625 
L 3713 1625 
L 3713 1100 
L 3047 1100 
L 3047 0 
L 2419 0 
L 2419 1100 
L 313 1100 
L 313 1709 
L 2253 4666 
z
" transform="scale(0.015625)"/>
       </defs>
       <use xlink:href="#DejaVuSans-34"/>
       <use xlink:href="#DejaVuSans-30" x="63.623047"/>
      </g>
     </g>
    </g>
    <g id="xtick_6">
     <g id="line2d_6">
      <g>
       <use xlink:href="#mf6b40b90b2" x="498.161157" y="418.130526" style="stroke: #000000; stroke-width: 0.8"/>
      </g>
     </g>
     <g id="text_6">
      <!-- 50 -->
      <g transform="translate(485.436157 440.327401) scale(0.2 -0.2)">
       <defs>
        <path id="DejaVuSans-35" d="M 691 4666 
L 3169 4666 
L 3169 4134 
L 1269 4134 
L 1269 2991 
Q 1406 3038 1543 3061 
Q 1681 3084 1819 3084 
Q 2600 3084 3056 2656 
Q 3513 2228 3513 1497 
Q 3513 744 3044 326 
Q 2575 -91 1722 -91 
Q 1428 -91 1123 -41 
Q 819 9 494 109 
L 494 744 
Q 775 591 1075 516 
Q 1375 441 1709 441 
Q 2250 441 2565 725 
Q 2881 1009 2881 1497 
Q 2881 1984 2565 2268 
Q 2250 2553 1709 2553 
Q 1456 2553 1204 2497 
Q 953 2441 691 2322 
L 691 4666 
z
" transform="scale(0.015625)"/>
       </defs>
       <use xlink:href="#DejaVuSans-35"/>
       <use xlink:href="#DejaVuSans-30" x="63.623047"/>
      </g>
     </g>
    </g>
    <g id="text_7">
     <!-- k -->
     <g transform="translate(318.278523 466.723026) scale(0.24 -0.24)">
      <defs>
       <path id="DejaVuSans-6b" d="M 581 4863 
L 1159 4863 
L 1159 1991 
L 2875 3500 
L 3609 3500 
L 1753 1863 
L 3688 0 
L 2938 0 
L 1159 1709 
L 1159 0 
L 581 0 
L 581 4863 
z
" transform="scale(0.015625)"/>
      </defs>
      <use xlink:href="#DejaVuSans-6b"/>
     </g>
    </g>
   </g>
   <g id="matplotlib.axis_2">
    <g id="ytick_1">
     <g id="line2d_7">
      <defs>
       <path id="m1d154a3816" d="M 0 0 
L -3.5 0 
" style="stroke: #000000; stroke-width: 0.8"/>
      </defs>
      <g>
       <use xlink:href="#m1d154a3816" x="135" y="418.130526" style="stroke: #000000; stroke-width: 0.8"/>
      </g>
     </g>
     <g id="text_8">
      <!-- 0.0 -->
      <g transform="translate(96.19375 425.728964) scale(0.2 -0.2)">
       <defs>
        <path id="DejaVuSans-2e" d="M 684 794 
L 1344 794 
L 1344 0 
L 684 0 
L 684 794 
z
" transform="scale(0.015625)"/>
       </defs>
       <use xlink:href="#DejaVuSans-30"/>
       <use xlink:href="#DejaVuSans-2e" x="63.623047"/>
       <use xlink:href="#DejaVuSans-30" x="95.410156"/>
      </g>
     </g>
    </g>
    <g id="ytick_2">
     <g id="line2d_8">
      <g>
       <use xlink:href="#m1d154a3816" x="135" y="352.477895" style="stroke: #000000; stroke-width: 0.8"/>
      </g>
     </g>
     <g id="text_9">
      <!-- 0.2 -->
      <g transform="translate(96.19375 360.076332) scale(0.2 -0.2)">
       <use xlink:href="#DejaVuSans-30"/>
       <use xlink:href="#DejaVuSans-2e" x="63.623047"/>
       <use xlink:href="#DejaVuSans-32" x="95.410156"/>
      </g>
     </g>
    </g>
    <g id="ytick_3">
     <g id="line2d_9">
      <g>
       <use xlink:href="#m1d154a3816" x="135" y="286.825263" style="stroke: #000000; stroke-width: 0.8"/>
      </g>
     </g>
     <g id="text_10">
      <!-- 0.4 -->
      <g transform="translate(96.19375 294.423701) scale(0.2 -0.2)">
       <use xlink:href="#DejaVuSans-30"/>
       <use xlink:href="#DejaVuSans-2e" x="63.623047"/>
       <use xlink:href="#DejaVuSans-34" x="95.410156"/>
      </g>
     </g>
    </g>
    <g id="ytick_4">
     <g id="line2d_10">
      <g>
       <use xlink:href="#m1d154a3816" x="135" y="221.172632" style="stroke: #000000; stroke-width: 0.8"/>
      </g>
     </g>
     <g id="text_11">
      <!-- 0.6 -->
      <g transform="translate(96.19375 228.771069) scale(0.2 -0.2)">
       <defs>
        <path id="DejaVuSans-36" d="M 2113 2584 
Q 1688 2584 1439 2293 
Q 1191 2003 1191 1497 
Q 1191 994 1439 701 
Q 1688 409 2113 409 
Q 2538 409 2786 701 
Q 3034 994 3034 1497 
Q 3034 2003 2786 2293 
Q 2538 2584 2113 2584 
z
M 3366 4563 
L 3366 3988 
Q 3128 4100 2886 4159 
Q 2644 4219 2406 4219 
Q 1781 4219 1451 3797 
Q 1122 3375 1075 2522 
Q 1259 2794 1537 2939 
Q 1816 3084 2150 3084 
Q 2853 3084 3261 2657 
Q 3669 2231 3669 1497 
Q 3669 778 3244 343 
Q 2819 -91 2113 -91 
Q 1303 -91 875 529 
Q 447 1150 447 2328 
Q 447 3434 972 4092 
Q 1497 4750 2381 4750 
Q 2619 4750 2861 4703 
Q 3103 4656 3366 4563 
z
" transform="scale(0.015625)"/>
       </defs>
       <use xlink:href="#DejaVuSans-30"/>
       <use xlink:href="#DejaVuSans-2e" x="63.623047"/>
       <use xlink:href="#DejaVuSans-36" x="95.410156"/>
      </g>
     </g>
    </g>
    <g id="ytick_5">
     <g id="line2d_11">
      <g>
       <use xlink:href="#m1d154a3816" x="135" y="155.52" style="stroke: #000000; stroke-width: 0.8"/>
      </g>
     </g>
     <g id="text_12">
      <!-- 0.8 -->
      <g transform="translate(96.19375 163.118438) scale(0.2 -0.2)">
       <defs>
        <path id="DejaVuSans-38" d="M 2034 2216 
Q 1584 2216 1326 1975 
Q 1069 1734 1069 1313 
Q 1069 891 1326 650 
Q 1584 409 2034 409 
Q 2484 409 2743 651 
Q 3003 894 3003 1313 
Q 3003 1734 2745 1975 
Q 2488 2216 2034 2216 
z
M 1403 2484 
Q 997 2584 770 2862 
Q 544 3141 544 3541 
Q 544 4100 942 4425 
Q 1341 4750 2034 4750 
Q 2731 4750 3128 4425 
Q 3525 4100 3525 3541 
Q 3525 3141 3298 2862 
Q 3072 2584 2669 2484 
Q 3125 2378 3379 2068 
Q 3634 1759 3634 1313 
Q 3634 634 3220 271 
Q 2806 -91 2034 -91 
Q 1263 -91 848 271 
Q 434 634 434 1313 
Q 434 1759 690 2068 
Q 947 2378 1403 2484 
z
M 1172 3481 
Q 1172 3119 1398 2916 
Q 1625 2713 2034 2713 
Q 2441 2713 2670 2916 
Q 2900 3119 2900 3481 
Q 2900 3844 2670 4047 
Q 2441 4250 2034 4250 
Q 1625 4250 1398 4047 
Q 1172 3844 1172 3481 
z
" transform="scale(0.015625)"/>
       </defs>
       <use xlink:href="#DejaVuSans-30"/>
       <use xlink:href="#DejaVuSans-2e" x="63.623047"/>
       <use xlink:href="#DejaVuSans-38" x="95.410156"/>
      </g>
     </g>
    </g>
    <g id="text_13">
     <!-- $P_{NN}$ -->
     <g transform="translate(87.2025 306.985263) rotate(-90) scale(0.24 -0.24)">
      <defs>
       <path id="DejaVuSans-Oblique-50" d="M 1081 4666 
L 2541 4666 
Q 3178 4666 3512 4369 
Q 3847 4072 3847 3500 
Q 3847 2731 3353 2303 
Q 2859 1875 1966 1875 
L 1172 1875 
L 806 0 
L 172 0 
L 1081 4666 
z
M 1613 4147 
L 1275 2394 
L 2069 2394 
Q 2606 2394 2893 2669 
Q 3181 2944 3181 3456 
Q 3181 3784 2986 3965 
Q 2791 4147 2438 4147 
L 1613 4147 
z
" transform="scale(0.015625)"/>
       <path id="DejaVuSans-Oblique-4e" d="M 1081 4666 
L 1931 4666 
L 3219 666 
L 4000 4666 
L 4616 4666 
L 3706 0 
L 2853 0 
L 1569 4025 
L 788 0 
L 172 0 
L 1081 4666 
z
" transform="scale(0.015625)"/>
      </defs>
      <use xlink:href="#DejaVuSans-Oblique-50" transform="translate(0 0.09375)"/>
      <use xlink:href="#DejaVuSans-Oblique-4e" transform="translate(60.302734 -16.3125) scale(0.7)"/>
      <use xlink:href="#DejaVuSans-Oblique-4e" transform="translate(112.666016 -16.3125) scale(0.7)"/>
     </g>
    </g>
   </g>
   <g id="line2d_12">
    <path d="M 152.293388 371.099529 
L 173.910124 358.670432 
L 209.938017 351.480045 
L 281.993802 347.694087 
L 498.161157 342.1795 
" clip-path="url(#p955c89825e)" style="fill: none; stroke: #1f77b4; stroke-width: 1.5; stroke-linecap: square"/>
    <defs>
     <path id="m1eea2c019f" d="M 0 3 
C 0.795609 3 1.55874 2.683901 2.12132 2.12132 
C 2.683901 1.55874 3 0.795609 3 0 
C 3 -0.795609 2.683901 -1.55874 2.12132 -2.12132 
C 1.55874 -2.683901 0.795609 -3 0 -3 
C -0.795609 -3 -1.55874 -2.683901 -2.12132 -2.12132 
C -2.683901 -1.55874 -3 -0.795609 -3 0 
C -3 0.795609 -2.683901 1.55874 -2.12132 2.12132 
C -1.55874 2.683901 -0.795609 3 0 3 
z
" style="stroke: #1f77b4"/>
    </defs>
    <g clip-path="url(#p955c89825e)">
     <use xlink:href="#m1eea2c019f" x="152.293388" y="371.099529" style="fill: #1f77b4; stroke: #1f77b4"/>
     <use xlink:href="#m1eea2c019f" x="173.910124" y="358.670432" style="fill: #1f77b4; stroke: #1f77b4"/>
     <use xlink:href="#m1eea2c019f" x="209.938017" y="351.480045" style="fill: #1f77b4; stroke: #1f77b4"/>
     <use xlink:href="#m1eea2c019f" x="281.993802" y="347.694087" style="fill: #1f77b4; stroke: #1f77b4"/>
     <use xlink:href="#m1eea2c019f" x="498.161157" y="342.1795" style="fill: #1f77b4; stroke: #1f77b4"/>
    </g>
   </g>
   <g id="line2d_13">
    <path d="M 152.293388 211.663712 
L 173.910124 211.370227 
L 209.938017 213.835502 
L 281.993802 227.555934 
L 498.161157 257.958062 
" clip-path="url(#p955c89825e)" style="fill: none; stroke: #ff7f0e; stroke-width: 1.5; stroke-linecap: square"/>
    <defs>
     <path id="mc1e64390e3" d="M 0 3 
C 0.795609 3 1.55874 2.683901 2.12132 2.12132 
C 2.683901 1.55874 3 0.795609 3 0 
C 3 -0.795609 2.683901 -1.55874 2.12132 -2.12132 
C 1.55874 -2.683901 0.795609 -3 0 -3 
C -0.795609 -3 -1.55874 -2.683901 -2.12132 -2.12132 
C -2.683901 -1.55874 -3 -0.795609 -3 0 
C -3 0.795609 -2.683901 1.55874 -2.12132 2.12132 
C -1.55874 2.683901 -0.795609 3 0 3 
z
" style="stroke: #ff7f0e"/>
    </defs>
    <g clip-path="url(#p955c89825e)">
     <use xlink:href="#mc1e64390e3" x="152.293388" y="211.663712" style="fill: #ff7f0e; stroke: #ff7f0e"/>
     <use xlink:href="#mc1e64390e3" x="173.910124" y="211.370227" style="fill: #ff7f0e; stroke: #ff7f0e"/>
     <use xlink:href="#mc1e64390e3" x="209.938017" y="213.835502" style="fill: #ff7f0e; stroke: #ff7f0e"/>
     <use xlink:href="#mc1e64390e3" x="281.993802" y="227.555934" style="fill: #ff7f0e; stroke: #ff7f0e"/>
     <use xlink:href="#mc1e64390e3" x="498.161157" y="257.958062" style="fill: #ff7f0e; stroke: #ff7f0e"/>
    </g>
   </g>
   <g id="line2d_14">
    <path d="M 152.293388 319.005912 
L 173.910124 270.360745 
L 209.938017 240.630698 
L 281.993802 232.134303 
L 498.161157 256.766512 
" clip-path="url(#p955c89825e)" style="fill: none; stroke: #2ca02c; stroke-width: 1.5; stroke-linecap: square"/>
    <defs>
     <path id="m9d6de0281e" d="M 0 3 
C 0.795609 3 1.55874 2.683901 2.12132 2.12132 
C 2.683901 1.55874 3 0.795609 3 0 
C 3 -0.795609 2.683901 -1.55874 2.12132 -2.12132 
C 1.55874 -2.683901 0.795609 -3 0 -3 
C -0.795609 -3 -1.55874 -2.683901 -2.12132 -2.12132 
C -2.683901 -1.55874 -3 -0.795609 -3 0 
C -3 0.795609 -2.683901 1.55874 -2.12132 2.12132 
C -1.55874 2.683901 -0.795609 3 0 3 
z
" style="stroke: #2ca02c"/>
    </defs>
    <g clip-path="url(#p955c89825e)">
     <use xlink:href="#m9d6de0281e" x="152.293388" y="319.005912" style="fill: #2ca02c; stroke: #2ca02c"/>
     <use xlink:href="#m9d6de0281e" x="173.910124" y="270.360745" style="fill: #2ca02c; stroke: #2ca02c"/>
     <use xlink:href="#m9d6de0281e" x="209.938017" y="240.630698" style="fill: #2ca02c; stroke: #2ca02c"/>
     <use xlink:href="#m9d6de0281e" x="281.993802" y="232.134303" style="fill: #2ca02c; stroke: #2ca02c"/>
     <use xlink:href="#m9d6de0281e" x="498.161157" y="256.766512" style="fill: #2ca02c; stroke: #2ca02c"/>
    </g>
   </g>
   <g id="line2d_15">
    <path d="M 152.293388 300.73646 
L 173.910124 265.166058 
L 209.938017 242.318238 
L 281.993802 233.821842 
L 498.161157 261.702933 
" clip-path="url(#p955c89825e)" style="fill: none; stroke: #d62728; stroke-width: 1.5; stroke-linecap: square"/>
    <defs>
     <path id="m267c0ac1bb" d="M 0 3 
C 0.795609 3 1.55874 2.683901 2.12132 2.12132 
C 2.683901 1.55874 3 0.795609 3 0 
C 3 -0.795609 2.683901 -1.55874 2.12132 -2.12132 
C 1.55874 -2.683901 0.795609 -3 0 -3 
C -0.795609 -3 -1.55874 -2.683901 -2.12132 -2.12132 
C -2.683901 -1.55874 -3 -0.795609 -3 0 
C -3 0.795609 -2.683901 1.55874 -2.12132 2.12132 
C -1.55874 2.683901 -0.795609 3 0 3 
z
" style="stroke: #d62728"/>
    </defs>
    <g clip-path="url(#p955c89825e)">
     <use xlink:href="#m267c0ac1bb" x="152.293388" y="300.73646" style="fill: #d62728; stroke: #d62728"/>
     <use xlink:href="#m267c0ac1bb" x="173.910124" y="265.166058" style="fill: #d62728; stroke: #d62728"/>
     <use xlink:href="#m267c0ac1bb" x="209.938017" y="242.318238" style="fill: #d62728; stroke: #d62728"/>
     <use xlink:href="#m267c0ac1bb" x="281.993802" y="233.821842" style="fill: #d62728; stroke: #d62728"/>
     <use xlink:href="#m267c0ac1bb" x="498.161157" y="261.702933" style="fill: #d62728; stroke: #d62728"/>
    </g>
   </g>
   <g id="patch_3">
    <path d="M 135 418.130526 
L 135 155.52 
" style="fill: none; stroke: #000000; stroke-width: 0.8; stroke-linejoin: miter; stroke-linecap: square"/>
   </g>
   <g id="patch_4">
    <path d="M 515.454545 418.130526 
L 515.454545 155.52 
" style="fill: none; stroke: #000000; stroke-width: 0.8; stroke-linejoin: miter; stroke-linecap: square"/>
   </g>
   <g id="patch_5">
    <path d="M 135 418.130526 
L 515.454545 418.130526 
" style="fill: none; stroke: #000000; stroke-width: 0.8; stroke-linejoin: miter; stroke-linecap: square"/>
   </g>
   <g id="patch_6">
    <path d="M 135 155.52 
L 515.454545 155.52 
" style="fill: none; stroke: #000000; stroke-width: 0.8; stroke-linejoin: miter; stroke-linecap: square"/>
   </g>
   <g id="text_14">
    <!-- a -->
    <g transform="translate(89.472557 137.404046) scale(0.28 -0.28)">
     <defs>
      <path id="DejaVuSans-Bold-61" d="M 2106 1575 
Q 1756 1575 1579 1456 
Q 1403 1338 1403 1106 
Q 1403 894 1545 773 
Q 1688 653 1941 653 
Q 2256 653 2472 879 
Q 2688 1106 2688 1447 
L 2688 1575 
L 2106 1575 
z
M 3816 1997 
L 3816 0 
L 2688 0 
L 2688 519 
Q 2463 200 2181 54 
Q 1900 -91 1497 -91 
Q 953 -91 614 226 
Q 275 544 275 1050 
Q 275 1666 698 1953 
Q 1122 2241 2028 2241 
L 2688 2241 
L 2688 2328 
Q 2688 2594 2478 2717 
Q 2269 2841 1825 2841 
Q 1466 2841 1156 2769 
Q 847 2697 581 2553 
L 581 3406 
Q 941 3494 1303 3539 
Q 1666 3584 2028 3584 
Q 2975 3584 3395 3211 
Q 3816 2838 3816 1997 
z
" transform="scale(0.015625)"/>
     </defs>
     <use xlink:href="#DejaVuSans-Bold-61"/>
    </g>
   </g>
   <g id="text_15">
    <!-- $P_{NN}$ -->
    <g transform="translate(303.387273 149.52) scale(0.26 -0.26)">
     <use xlink:href="#DejaVuSans-Oblique-50" transform="translate(0 0.09375)"/>
     <use xlink:href="#DejaVuSans-Oblique-4e" transform="translate(60.302734 -16.3125) scale(0.7)"/>
     <use xlink:href="#DejaVuSans-Oblique-4e" transform="translate(112.666016 -16.3125) scale(0.7)"/>
    </g>
   </g>
  </g>
  <g id="axes_2">
   <g id="patch_7">
    <path d="M 591.545455 418.130526 
L 972 418.130526 
L 972 155.52 
L 591.545455 155.52 
z
" style="fill: #ffffff"/>
   </g>
   <g id="patch_8">
    <path d="M 608.838843 418.130526 
L 628.792753 418.130526 
L 628.792753 199.03548 
L 608.838843 199.03548 
z
" clip-path="url(#p9d57d55f1c)" style="fill: #1f77b4"/>
   </g>
   <g id="patch_9">
    <path d="M 741.864908 418.130526 
L 761.818818 418.130526 
L 761.818818 309.403405 
L 741.864908 309.403405 
z
" clip-path="url(#p9d57d55f1c)" style="fill: #1f77b4"/>
   </g>
   <g id="patch_10">
    <path d="M 874.890973 418.130526 
L 894.844882 418.130526 
L 894.844882 168.025263 
L 874.890973 168.025263 
z
" clip-path="url(#p9d57d55f1c)" style="fill: #1f77b4"/>
   </g>
   <g id="patch_11">
    <path d="M 628.792753 418.130526 
L 648.746662 418.130526 
L 648.746662 196.535038 
L 628.792753 196.535038 
z
" clip-path="url(#p9d57d55f1c)" style="fill: #ff7f0e"/>
   </g>
   <g id="patch_12">
    <path d="M 761.818818 418.130526 
L 781.772727 418.130526 
L 781.772727 209.412232 
L 761.818818 209.412232 
z
" clip-path="url(#p9d57d55f1c)" style="fill: #ff7f0e"/>
   </g>
   <g id="patch_13">
    <path d="M 894.844882 418.130526 
L 914.798792 418.130526 
L 914.798792 196.472886 
L 894.844882 196.472886 
z
" clip-path="url(#p9d57d55f1c)" style="fill: #ff7f0e"/>
   </g>
   <g id="patch_14">
    <path d="M 648.746662 418.130526 
L 668.700572 418.130526 
L 668.700572 197.488817 
L 648.746662 197.488817 
z
" clip-path="url(#p9d57d55f1c)" style="fill: #2ca02c"/>
   </g>
   <g id="patch_15">
    <path d="M 781.772727 418.130526 
L 801.726637 418.130526 
L 801.726637 254.843121 
L 781.772727 254.843121 
z
" clip-path="url(#p9d57d55f1c)" style="fill: #2ca02c"/>
   </g>
   <g id="patch_16">
    <path d="M 914.798792 418.130526 
L 934.752702 418.130526 
L 934.752702 197.014867 
L 914.798792 197.014867 
z
" clip-path="url(#p9d57d55f1c)" style="fill: #2ca02c"/>
   </g>
   <g id="patch_17">
    <path d="M 668.700572 418.130526 
L 688.654482 418.130526 
L 688.654482 225.490043 
L 668.700572 225.490043 
z
" clip-path="url(#p9d57d55f1c)" style="fill: #d62728"/>
   </g>
   <g id="patch_18">
    <path d="M 801.726637 418.130526 
L 821.680547 418.130526 
L 821.680547 252.345646 
L 801.726637 252.345646 
z
" clip-path="url(#p9d57d55f1c)" style="fill: #d62728"/>
   </g>
   <g id="patch_19">
    <path d="M 934.752702 418.130526 
L 954.706612 418.130526 
L 954.706612 225.263843 
L 934.752702 225.263843 
z
" clip-path="url(#p9d57d55f1c)" style="fill: #d62728"/>
   </g>
   <g id="matplotlib.axis_3">
    <g id="xtick_7">
     <g id="line2d_16">
      <g>
       <use xlink:href="#mf6b40b90b2" x="648.746662" y="418.130526" style="stroke: #000000; stroke-width: 0.8"/>
      </g>
     </g>
     <g id="text_16">
      <!-- AUC -->
      <g transform="translate(625.490256 441.847089) scale(0.22 -0.22)">
       <defs>
        <path id="DejaVuSans-41" d="M 2188 4044 
L 1331 1722 
L 3047 1722 
L 2188 4044 
z
M 1831 4666 
L 2547 4666 
L 4325 0 
L 3669 0 
L 3244 1197 
L 1141 1197 
L 716 0 
L 50 0 
L 1831 4666 
z
" transform="scale(0.015625)"/>
        <path id="DejaVuSans-55" d="M 556 4666 
L 1191 4666 
L 1191 1831 
Q 1191 1081 1462 751 
Q 1734 422 2344 422 
Q 2950 422 3222 751 
Q 3494 1081 3494 1831 
L 3494 4666 
L 4128 4666 
L 4128 1753 
Q 4128 841 3676 375 
Q 3225 -91 2344 -91 
Q 1459 -91 1007 375 
Q 556 841 556 1753 
L 556 4666 
z
" transform="scale(0.015625)"/>
        <path id="DejaVuSans-43" d="M 4122 4306 
L 4122 3641 
Q 3803 3938 3442 4084 
Q 3081 4231 2675 4231 
Q 1875 4231 1450 3742 
Q 1025 3253 1025 2328 
Q 1025 1406 1450 917 
Q 1875 428 2675 428 
Q 3081 428 3442 575 
Q 3803 722 4122 1019 
L 4122 359 
Q 3791 134 3420 21 
Q 3050 -91 2638 -91 
Q 1578 -91 968 557 
Q 359 1206 359 2328 
Q 359 3453 968 4101 
Q 1578 4750 2638 4750 
Q 3056 4750 3426 4639 
Q 3797 4528 4122 4306 
z
" transform="scale(0.015625)"/>
       </defs>
       <use xlink:href="#DejaVuSans-41"/>
       <use xlink:href="#DejaVuSans-55" x="68.408203"/>
       <use xlink:href="#DejaVuSans-43" x="141.601562"/>
      </g>
     </g>
    </g>
    <g id="xtick_8">
     <g id="line2d_17">
      <g>
       <use xlink:href="#mf6b40b90b2" x="781.772727" y="418.130526" style="stroke: #000000; stroke-width: 0.8"/>
      </g>
     </g>
     <g id="text_17">
      <!-- $Q_{local}$ -->
      <g transform="translate(754.822727 441.847089) scale(0.22 -0.22)">
       <defs>
        <path id="DejaVuSans-Oblique-51" d="M 2309 -84 
Q 2275 -88 2237 -89 
Q 2200 -91 2125 -91 
Q 1250 -91 756 411 
Q 263 913 263 1797 
Q 263 2319 452 2844 
Q 641 3369 978 3788 
Q 1369 4269 1858 4509 
Q 2347 4750 2938 4750 
Q 3794 4750 4287 4245 
Q 4781 3741 4781 2869 
Q 4781 1928 4265 1147 
Q 3750 366 2919 44 
L 3553 -825 
L 2847 -825 
L 2309 -84 
z
M 2919 4238 
Q 2400 4238 2003 3986 
Q 1606 3734 1313 3219 
Q 1125 2891 1026 2522 
Q 928 2153 928 1778 
Q 928 1128 1239 775 
Q 1550 422 2119 422 
Q 2631 422 3032 676 
Q 3434 931 3719 1434 
Q 3909 1772 4009 2142 
Q 4109 2513 4109 2881 
Q 4109 3528 3796 3883 
Q 3484 4238 2919 4238 
z
" transform="scale(0.015625)"/>
        <path id="DejaVuSans-Oblique-6c" d="M 1172 4863 
L 1747 4863 
L 800 0 
L 225 0 
L 1172 4863 
z
" transform="scale(0.015625)"/>
        <path id="DejaVuSans-Oblique-6f" d="M 1625 -91 
Q 1009 -91 651 289 
Q 294 669 294 1325 
Q 294 1706 417 2101 
Q 541 2497 738 2766 
Q 1047 3184 1428 3384 
Q 1809 3584 2291 3584 
Q 2888 3584 3255 3212 
Q 3622 2841 3622 2241 
Q 3622 1825 3500 1412 
Q 3378 1000 3181 728 
Q 2875 309 2494 109 
Q 2113 -91 1625 -91 
z
M 891 1344 
Q 891 869 1089 633 
Q 1288 397 1691 397 
Q 2269 397 2648 901 
Q 3028 1406 3028 2181 
Q 3028 2634 2825 2865 
Q 2622 3097 2228 3097 
Q 1903 3097 1650 2945 
Q 1397 2794 1197 2484 
Q 1050 2253 970 1956 
Q 891 1659 891 1344 
z
" transform="scale(0.015625)"/>
        <path id="DejaVuSans-Oblique-63" d="M 3431 3366 
L 3316 2797 
Q 3109 2947 2876 3022 
Q 2644 3097 2394 3097 
Q 2119 3097 1870 3000 
Q 1622 2903 1453 2725 
Q 1184 2453 1037 2087 
Q 891 1722 891 1331 
Q 891 859 1127 628 
Q 1363 397 1844 397 
Q 2081 397 2348 469 
Q 2616 541 2906 684 
L 2797 116 
Q 2547 13 2283 -39 
Q 2019 -91 1741 -91 
Q 1044 -91 669 257 
Q 294 606 294 1253 
Q 294 1797 489 2255 
Q 684 2713 1069 3078 
Q 1331 3328 1684 3456 
Q 2038 3584 2456 3584 
Q 2700 3584 2940 3529 
Q 3181 3475 3431 3366 
z
" transform="scale(0.015625)"/>
        <path id="DejaVuSans-Oblique-61" d="M 3438 1997 
L 3047 0 
L 2472 0 
L 2578 531 
Q 2325 219 2001 64 
Q 1678 -91 1281 -91 
Q 834 -91 548 182 
Q 263 456 263 884 
Q 263 1497 752 1853 
Q 1241 2209 2100 2209 
L 2900 2209 
L 2931 2363 
Q 2938 2388 2941 2417 
Q 2944 2447 2944 2509 
Q 2944 2788 2717 2942 
Q 2491 3097 2081 3097 
Q 1800 3097 1504 3025 
Q 1209 2953 897 2809 
L 997 3341 
Q 1322 3463 1633 3523 
Q 1944 3584 2234 3584 
Q 2853 3584 3176 3315 
Q 3500 3047 3500 2534 
Q 3500 2431 3484 2292 
Q 3469 2153 3438 1997 
z
M 2816 1759 
L 2241 1759 
Q 1534 1759 1195 1570 
Q 856 1381 856 984 
Q 856 709 1029 553 
Q 1203 397 1509 397 
Q 1978 397 2328 733 
Q 2678 1069 2791 1631 
L 2816 1759 
z
" transform="scale(0.015625)"/>
       </defs>
       <use xlink:href="#DejaVuSans-Oblique-51" transform="translate(0 0.78125)"/>
       <use xlink:href="#DejaVuSans-Oblique-6c" transform="translate(78.710938 -15.625) scale(0.7)"/>
       <use xlink:href="#DejaVuSans-Oblique-6f" transform="translate(98.15918 -15.625) scale(0.7)"/>
       <use xlink:href="#DejaVuSans-Oblique-63" transform="translate(140.986328 -15.625) scale(0.7)"/>
       <use xlink:href="#DejaVuSans-Oblique-61" transform="translate(179.472656 -15.625) scale(0.7)"/>
       <use xlink:href="#DejaVuSans-Oblique-6c" transform="translate(222.368164 -15.625) scale(0.7)"/>
      </g>
     </g>
    </g>
    <g id="xtick_9">
     <g id="line2d_18">
      <g>
       <use xlink:href="#mf6b40b90b2" x="914.798792" y="418.130526" style="stroke: #000000; stroke-width: 0.8"/>
      </g>
     </g>
     <g id="text_18">
      <!-- $Q_{global}$ -->
      <g transform="translate(882.348792 441.630526) scale(0.22 -0.22)">
       <defs>
        <path id="DejaVuSans-Oblique-67" d="M 3816 3500 
L 3219 434 
Q 3047 -456 2561 -893 
Q 2075 -1331 1253 -1331 
Q 950 -1331 690 -1286 
Q 431 -1241 206 -1147 
L 313 -588 
Q 525 -725 762 -790 
Q 1000 -856 1269 -856 
Q 1816 -856 2167 -557 
Q 2519 -259 2631 300 
L 2681 563 
Q 2441 288 2122 144 
Q 1803 0 1434 0 
Q 903 0 598 351 
Q 294 703 294 1319 
Q 294 1803 478 2267 
Q 663 2731 997 3091 
Q 1219 3328 1514 3456 
Q 1809 3584 2131 3584 
Q 2484 3584 2746 3420 
Q 3009 3256 3138 2956 
L 3238 3500 
L 3816 3500 
z
M 2950 2216 
Q 2950 2641 2750 2872 
Q 2550 3103 2181 3103 
Q 1953 3103 1747 3012 
Q 1541 2922 1394 2759 
Q 1156 2491 1023 2127 
Q 891 1763 891 1375 
Q 891 944 1092 712 
Q 1294 481 1672 481 
Q 2219 481 2584 976 
Q 2950 1472 2950 2216 
z
" transform="scale(0.015625)"/>
        <path id="DejaVuSans-Oblique-62" d="M 3169 2138 
Q 3169 2591 2961 2847 
Q 2753 3103 2388 3103 
Q 2122 3103 1889 2973 
Q 1656 2844 1484 2597 
Q 1303 2338 1198 1995 
Q 1094 1653 1094 1313 
Q 1094 881 1298 636 
Q 1503 391 1863 391 
Q 2134 391 2365 517 
Q 2597 644 2772 891 
Q 2950 1147 3059 1487 
Q 3169 1828 3169 2138 
z
M 1381 2969 
Q 1594 3256 1914 3420 
Q 2234 3584 2584 3584 
Q 3122 3584 3439 3221 
Q 3756 2859 3756 2241 
Q 3756 1734 3570 1259 
Q 3384 784 3041 416 
Q 2816 172 2522 40 
Q 2228 -91 1906 -91 
Q 1566 -91 1316 65 
Q 1066 222 909 531 
L 806 0 
L 231 0 
L 1178 4863 
L 1753 4863 
L 1381 2969 
z
" transform="scale(0.015625)"/>
       </defs>
       <use xlink:href="#DejaVuSans-Oblique-51" transform="translate(0 0.78125)"/>
       <use xlink:href="#DejaVuSans-Oblique-67" transform="translate(78.710938 -15.625) scale(0.7)"/>
       <use xlink:href="#DejaVuSans-Oblique-6c" transform="translate(123.144531 -15.625) scale(0.7)"/>
       <use xlink:href="#DejaVuSans-Oblique-6f" transform="translate(142.592773 -15.625) scale(0.7)"/>
       <use xlink:href="#DejaVuSans-Oblique-62" transform="translate(185.419922 -15.625) scale(0.7)"/>
       <use xlink:href="#DejaVuSans-Oblique-61" transform="translate(229.853516 -15.625) scale(0.7)"/>
       <use xlink:href="#DejaVuSans-Oblique-6c" transform="translate(272.749023 -15.625) scale(0.7)"/>
      </g>
     </g>
    </g>
   </g>
   <g id="matplotlib.axis_4">
    <g id="ytick_6">
     <g id="line2d_19">
      <g>
       <use xlink:href="#m1d154a3816" x="591.545455" y="418.130526" style="stroke: #000000; stroke-width: 0.8"/>
      </g>
     </g>
     <g id="text_19">
      <!-- 0.0 -->
      <g transform="translate(549.55858 426.488808) scale(0.22 -0.22)">
       <use xlink:href="#DejaVuSans-30"/>
       <use xlink:href="#DejaVuSans-2e" x="63.623047"/>
       <use xlink:href="#DejaVuSans-30" x="95.410156"/>
      </g>
     </g>
    </g>
    <g id="ytick_7">
     <g id="line2d_20">
      <g>
       <use xlink:href="#m1d154a3816" x="591.545455" y="350.880379" style="stroke: #000000; stroke-width: 0.8"/>
      </g>
     </g>
     <g id="text_20">
      <!-- 0.2 -->
      <g transform="translate(549.55858 359.238661) scale(0.22 -0.22)">
       <use xlink:href="#DejaVuSans-30"/>
       <use xlink:href="#DejaVuSans-2e" x="63.623047"/>
       <use xlink:href="#DejaVuSans-32" x="95.410156"/>
      </g>
     </g>
    </g>
    <g id="ytick_8">
     <g id="line2d_21">
      <g>
       <use xlink:href="#m1d154a3816" x="591.545455" y="283.630233" style="stroke: #000000; stroke-width: 0.8"/>
      </g>
     </g>
     <g id="text_21">
      <!-- 0.4 -->
      <g transform="translate(549.55858 291.988514) scale(0.22 -0.22)">
       <use xlink:href="#DejaVuSans-30"/>
       <use xlink:href="#DejaVuSans-2e" x="63.623047"/>
       <use xlink:href="#DejaVuSans-34" x="95.410156"/>
      </g>
     </g>
    </g>
    <g id="ytick_9">
     <g id="line2d_22">
      <g>
       <use xlink:href="#m1d154a3816" x="591.545455" y="216.380086" style="stroke: #000000; stroke-width: 0.8"/>
      </g>
     </g>
     <g id="text_22">
      <!-- 0.6 -->
      <g transform="translate(549.55858 224.738367) scale(0.22 -0.22)">
       <use xlink:href="#DejaVuSans-30"/>
       <use xlink:href="#DejaVuSans-2e" x="63.623047"/>
       <use xlink:href="#DejaVuSans-36" x="95.410156"/>
      </g>
     </g>
    </g>
    <g id="text_23">
     <!-- Metric Value -->
     <g transform="translate(540.983267 354.727919) rotate(-90) scale(0.22 -0.22)">
      <defs>
       <path id="DejaVuSans-4d" d="M 628 4666 
L 1569 4666 
L 2759 1491 
L 3956 4666 
L 4897 4666 
L 4897 0 
L 4281 0 
L 4281 4097 
L 3078 897 
L 2444 897 
L 1241 4097 
L 1241 0 
L 628 0 
L 628 4666 
z
" transform="scale(0.015625)"/>
       <path id="DejaVuSans-65" d="M 3597 1894 
L 3597 1613 
L 953 1613 
Q 991 1019 1311 708 
Q 1631 397 2203 397 
Q 2534 397 2845 478 
Q 3156 559 3463 722 
L 3463 178 
Q 3153 47 2828 -22 
Q 2503 -91 2169 -91 
Q 1331 -91 842 396 
Q 353 884 353 1716 
Q 353 2575 817 3079 
Q 1281 3584 2069 3584 
Q 2775 3584 3186 3129 
Q 3597 2675 3597 1894 
z
M 3022 2063 
Q 3016 2534 2758 2815 
Q 2500 3097 2075 3097 
Q 1594 3097 1305 2825 
Q 1016 2553 972 2059 
L 3022 2063 
z
" transform="scale(0.015625)"/>
       <path id="DejaVuSans-74" d="M 1172 4494 
L 1172 3500 
L 2356 3500 
L 2356 3053 
L 1172 3053 
L 1172 1153 
Q 1172 725 1289 603 
Q 1406 481 1766 481 
L 2356 481 
L 2356 0 
L 1766 0 
Q 1100 0 847 248 
Q 594 497 594 1153 
L 594 3053 
L 172 3053 
L 172 3500 
L 594 3500 
L 594 4494 
L 1172 4494 
z
" transform="scale(0.015625)"/>
       <path id="DejaVuSans-72" d="M 2631 2963 
Q 2534 3019 2420 3045 
Q 2306 3072 2169 3072 
Q 1681 3072 1420 2755 
Q 1159 2438 1159 1844 
L 1159 0 
L 581 0 
L 581 3500 
L 1159 3500 
L 1159 2956 
Q 1341 3275 1631 3429 
Q 1922 3584 2338 3584 
Q 2397 3584 2469 3576 
Q 2541 3569 2628 3553 
L 2631 2963 
z
" transform="scale(0.015625)"/>
       <path id="DejaVuSans-69" d="M 603 3500 
L 1178 3500 
L 1178 0 
L 603 0 
L 603 3500 
z
M 603 4863 
L 1178 4863 
L 1178 4134 
L 603 4134 
L 603 4863 
z
" transform="scale(0.015625)"/>
       <path id="DejaVuSans-63" d="M 3122 3366 
L 3122 2828 
Q 2878 2963 2633 3030 
Q 2388 3097 2138 3097 
Q 1578 3097 1268 2742 
Q 959 2388 959 1747 
Q 959 1106 1268 751 
Q 1578 397 2138 397 
Q 2388 397 2633 464 
Q 2878 531 3122 666 
L 3122 134 
Q 2881 22 2623 -34 
Q 2366 -91 2075 -91 
Q 1284 -91 818 406 
Q 353 903 353 1747 
Q 353 2603 823 3093 
Q 1294 3584 2113 3584 
Q 2378 3584 2631 3529 
Q 2884 3475 3122 3366 
z
" transform="scale(0.015625)"/>
       <path id="DejaVuSans-20" transform="scale(0.015625)"/>
       <path id="DejaVuSans-56" d="M 1831 0 
L 50 4666 
L 709 4666 
L 2188 738 
L 3669 4666 
L 4325 4666 
L 2547 0 
L 1831 0 
z
" transform="scale(0.015625)"/>
       <path id="DejaVuSans-61" d="M 2194 1759 
Q 1497 1759 1228 1600 
Q 959 1441 959 1056 
Q 959 750 1161 570 
Q 1363 391 1709 391 
Q 2188 391 2477 730 
Q 2766 1069 2766 1631 
L 2766 1759 
L 2194 1759 
z
M 3341 1997 
L 3341 0 
L 2766 0 
L 2766 531 
Q 2569 213 2275 61 
Q 1981 -91 1556 -91 
Q 1019 -91 701 211 
Q 384 513 384 1019 
Q 384 1609 779 1909 
Q 1175 2209 1959 2209 
L 2766 2209 
L 2766 2266 
Q 2766 2663 2505 2880 
Q 2244 3097 1772 3097 
Q 1472 3097 1187 3025 
Q 903 2953 641 2809 
L 641 3341 
Q 956 3463 1253 3523 
Q 1550 3584 1831 3584 
Q 2591 3584 2966 3190 
Q 3341 2797 3341 1997 
z
" transform="scale(0.015625)"/>
       <path id="DejaVuSans-6c" d="M 603 4863 
L 1178 4863 
L 1178 0 
L 603 0 
L 603 4863 
z
" transform="scale(0.015625)"/>
       <path id="DejaVuSans-75" d="M 544 1381 
L 544 3500 
L 1119 3500 
L 1119 1403 
Q 1119 906 1312 657 
Q 1506 409 1894 409 
Q 2359 409 2629 706 
Q 2900 1003 2900 1516 
L 2900 3500 
L 3475 3500 
L 3475 0 
L 2900 0 
L 2900 538 
Q 2691 219 2414 64 
Q 2138 -91 1772 -91 
Q 1169 -91 856 284 
Q 544 659 544 1381 
z
M 1991 3584 
L 1991 3584 
z
" transform="scale(0.015625)"/>
      </defs>
      <use xlink:href="#DejaVuSans-4d"/>
      <use xlink:href="#DejaVuSans-65" x="86.279297"/>
      <use xlink:href="#DejaVuSans-74" x="147.802734"/>
      <use xlink:href="#DejaVuSans-72" x="187.011719"/>
      <use xlink:href="#DejaVuSans-69" x="228.125"/>
      <use xlink:href="#DejaVuSans-63" x="255.908203"/>
      <use xlink:href="#DejaVuSans-20" x="310.888672"/>
      <use xlink:href="#DejaVuSans-56" x="342.675781"/>
      <use xlink:href="#DejaVuSans-61" x="403.333984"/>
      <use xlink:href="#DejaVuSans-6c" x="464.613281"/>
      <use xlink:href="#DejaVuSans-75" x="492.396484"/>
      <use xlink:href="#DejaVuSans-65" x="555.775391"/>
     </g>
    </g>
   </g>
   <g id="patch_20">
    <path d="M 591.545455 418.130526 
L 591.545455 155.52 
" style="fill: none; stroke: #000000; stroke-width: 0.8; stroke-linejoin: miter; stroke-linecap: square"/>
   </g>
   <g id="patch_21">
    <path d="M 972 418.130526 
L 972 155.52 
" style="fill: none; stroke: #000000; stroke-width: 0.8; stroke-linejoin: miter; stroke-linecap: square"/>
   </g>
   <g id="patch_22">
    <path d="M 591.545455 418.130526 
L 972 418.130526 
" style="fill: none; stroke: #000000; stroke-width: 0.8; stroke-linejoin: miter; stroke-linecap: square"/>
   </g>
   <g id="patch_23">
    <path d="M 591.545455 155.52 
L 972 155.52 
" style="fill: none; stroke: #000000; stroke-width: 0.8; stroke-linejoin: miter; stroke-linecap: square"/>
   </g>
   <g id="text_24">
    <!-- b -->
    <g transform="translate(544.871761 137.404046) scale(0.28 -0.28)">
     <defs>
      <path id="DejaVuSans-Bold-62" d="M 2400 722 
Q 2759 722 2948 984 
Q 3138 1247 3138 1747 
Q 3138 2247 2948 2509 
Q 2759 2772 2400 2772 
Q 2041 2772 1848 2508 
Q 1656 2244 1656 1747 
Q 1656 1250 1848 986 
Q 2041 722 2400 722 
z
M 1656 2988 
Q 1888 3294 2169 3439 
Q 2450 3584 2816 3584 
Q 3463 3584 3878 3070 
Q 4294 2556 4294 1747 
Q 4294 938 3878 423 
Q 3463 -91 2816 -91 
Q 2450 -91 2169 54 
Q 1888 200 1656 506 
L 1656 0 
L 538 0 
L 538 4863 
L 1656 4863 
L 1656 2988 
z
" transform="scale(0.015625)"/>
     </defs>
     <use xlink:href="#DejaVuSans-Bold-62"/>
    </g>
   </g>
   <g id="text_25">
    <!-- Metrics -->
    <g transform="translate(734.584759 149.52) scale(0.26 -0.26)">
     <defs>
      <path id="DejaVuSans-73" d="M 2834 3397 
L 2834 2853 
Q 2591 2978 2328 3040 
Q 2066 3103 1784 3103 
Q 1356 3103 1142 2972 
Q 928 2841 928 2578 
Q 928 2378 1081 2264 
Q 1234 2150 1697 2047 
L 1894 2003 
Q 2506 1872 2764 1633 
Q 3022 1394 3022 966 
Q 3022 478 2636 193 
Q 2250 -91 1575 -91 
Q 1294 -91 989 -36 
Q 684 19 347 128 
L 347 722 
Q 666 556 975 473 
Q 1284 391 1588 391 
Q 1994 391 2212 530 
Q 2431 669 2431 922 
Q 2431 1156 2273 1281 
Q 2116 1406 1581 1522 
L 1381 1569 
Q 847 1681 609 1914 
Q 372 2147 372 2553 
Q 372 3047 722 3315 
Q 1072 3584 1716 3584 
Q 2034 3584 2315 3537 
Q 2597 3491 2834 3397 
z
" transform="scale(0.015625)"/>
     </defs>
     <use xlink:href="#DejaVuSans-4d"/>
     <use xlink:href="#DejaVuSans-65" x="86.279297"/>
     <use xlink:href="#DejaVuSans-74" x="147.802734"/>
     <use xlink:href="#DejaVuSans-72" x="187.011719"/>
     <use xlink:href="#DejaVuSans-69" x="228.125"/>
     <use xlink:href="#DejaVuSans-63" x="255.908203"/>
     <use xlink:href="#DejaVuSans-73" x="310.888672"/>
    </g>
   </g>
  </g>
  <g id="axes_3">
   <g id="patch_24">
    <path d="M 135 785.785263 
L 515.454545 785.785263 
L 515.454545 523.174737 
L 135 523.174737 
z
" style="fill: #ffffff"/>
   </g>
   <g id="matplotlib.axis_5">
    <g id="xtick_10">
     <g id="line2d_23">
      <g>
       <use xlink:href="#mf6b40b90b2" x="137.882231" y="785.785263" style="stroke: #000000; stroke-width: 0.8"/>
      </g>
     </g>
     <g id="text_26">
      <!-- 0 -->
      <g transform="translate(130.883481 809.501826) scale(0.22 -0.22)">
       <use xlink:href="#DejaVuSans-30"/>
      </g>
     </g>
    </g>
    <g id="xtick_11">
     <g id="line2d_24">
      <g>
       <use xlink:href="#mf6b40b90b2" x="281.993802" y="785.785263" style="stroke: #000000; stroke-width: 0.8"/>
      </g>
     </g>
     <g id="text_27">
      <!-- 20 -->
      <g transform="translate(267.996302 809.501826) scale(0.22 -0.22)">
       <use xlink:href="#DejaVuSans-32"/>
       <use xlink:href="#DejaVuSans-30" x="63.623047"/>
      </g>
     </g>
    </g>
    <g id="xtick_12">
     <g id="line2d_25">
      <g>
       <use xlink:href="#mf6b40b90b2" x="426.105372" y="785.785263" style="stroke: #000000; stroke-width: 0.8"/>
      </g>
     </g>
     <g id="text_28">
      <!-- 40 -->
      <g transform="translate(412.107872 809.501826) scale(0.22 -0.22)">
       <use xlink:href="#DejaVuSans-34"/>
       <use xlink:href="#DejaVuSans-30" x="63.623047"/>
      </g>
     </g>
    </g>
    <g id="text_29">
     <!-- k -->
     <g transform="translate(318.278523 836.313388) scale(0.24 -0.24)">
      <use xlink:href="#DejaVuSans-6b"/>
     </g>
    </g>
   </g>
   <g id="matplotlib.axis_6">
    <g id="ytick_10">
     <g id="line2d_26">
      <g>
       <use xlink:href="#m1d154a3816" x="135" y="744.980038" style="stroke: #000000; stroke-width: 0.8"/>
      </g>
     </g>
     <g id="text_30">
      <!-- 0.80 -->
      <g transform="translate(79.015625 753.33832) scale(0.22 -0.22)">
       <use xlink:href="#DejaVuSans-30"/>
       <use xlink:href="#DejaVuSans-2e" x="63.623047"/>
       <use xlink:href="#DejaVuSans-38" x="95.410156"/>
       <use xlink:href="#DejaVuSans-30" x="159.033203"/>
      </g>
     </g>
    </g>
    <g id="ytick_11">
     <g id="line2d_27">
      <g>
       <use xlink:href="#m1d154a3816" x="135" y="691.477015" style="stroke: #000000; stroke-width: 0.8"/>
      </g>
     </g>
     <g id="text_31">
      <!-- 0.85 -->
      <g transform="translate(79.015625 699.835297) scale(0.22 -0.22)">
       <use xlink:href="#DejaVuSans-30"/>
       <use xlink:href="#DejaVuSans-2e" x="63.623047"/>
       <use xlink:href="#DejaVuSans-38" x="95.410156"/>
       <use xlink:href="#DejaVuSans-35" x="159.033203"/>
      </g>
     </g>
    </g>
    <g id="ytick_12">
     <g id="line2d_28">
      <g>
       <use xlink:href="#m1d154a3816" x="135" y="637.973992" style="stroke: #000000; stroke-width: 0.8"/>
      </g>
     </g>
     <g id="text_32">
      <!-- 0.90 -->
      <g transform="translate(79.015625 646.332274) scale(0.22 -0.22)">
       <defs>
        <path id="DejaVuSans-39" d="M 703 97 
L 703 672 
Q 941 559 1184 500 
Q 1428 441 1663 441 
Q 2288 441 2617 861 
Q 2947 1281 2994 2138 
Q 2813 1869 2534 1725 
Q 2256 1581 1919 1581 
Q 1219 1581 811 2004 
Q 403 2428 403 3163 
Q 403 3881 828 4315 
Q 1253 4750 1959 4750 
Q 2769 4750 3195 4129 
Q 3622 3509 3622 2328 
Q 3622 1225 3098 567 
Q 2575 -91 1691 -91 
Q 1453 -91 1209 -44 
Q 966 3 703 97 
z
M 1959 2075 
Q 2384 2075 2632 2365 
Q 2881 2656 2881 3163 
Q 2881 3666 2632 3958 
Q 2384 4250 1959 4250 
Q 1534 4250 1286 3958 
Q 1038 3666 1038 3163 
Q 1038 2656 1286 2365 
Q 1534 2075 1959 2075 
z
" transform="scale(0.015625)"/>
       </defs>
       <use xlink:href="#DejaVuSans-30"/>
       <use xlink:href="#DejaVuSans-2e" x="63.623047"/>
       <use xlink:href="#DejaVuSans-39" x="95.410156"/>
       <use xlink:href="#DejaVuSans-30" x="159.033203"/>
      </g>
     </g>
    </g>
    <g id="ytick_13">
     <g id="line2d_29">
      <g>
       <use xlink:href="#m1d154a3816" x="135" y="584.470969" style="stroke: #000000; stroke-width: 0.8"/>
      </g>
     </g>
     <g id="text_33">
      <!-- 0.95 -->
      <g transform="translate(79.015625 592.829251) scale(0.22 -0.22)">
       <use xlink:href="#DejaVuSans-30"/>
       <use xlink:href="#DejaVuSans-2e" x="63.623047"/>
       <use xlink:href="#DejaVuSans-39" x="95.410156"/>
       <use xlink:href="#DejaVuSans-35" x="159.033203"/>
      </g>
     </g>
    </g>
    <g id="ytick_14">
     <g id="line2d_30">
      <g>
       <use xlink:href="#m1d154a3816" x="135" y="530.967946" style="stroke: #000000; stroke-width: 0.8"/>
      </g>
     </g>
     <g id="text_34">
      <!-- 1.00 -->
      <g transform="translate(79.015625 539.326228) scale(0.22 -0.22)">
       <use xlink:href="#DejaVuSans-31"/>
       <use xlink:href="#DejaVuSans-2e" x="63.623047"/>
       <use xlink:href="#DejaVuSans-30" x="95.410156"/>
       <use xlink:href="#DejaVuSans-30" x="159.033203"/>
      </g>
     </g>
    </g>
    <g id="text_35">
     <!-- Metric Value -->
     <g transform="translate(70.024375 728.555625) rotate(-90) scale(0.24 -0.24)">
      <use xlink:href="#DejaVuSans-4d"/>
      <use xlink:href="#DejaVuSans-65" x="86.279297"/>
      <use xlink:href="#DejaVuSans-74" x="147.802734"/>
      <use xlink:href="#DejaVuSans-72" x="187.011719"/>
      <use xlink:href="#DejaVuSans-69" x="228.125"/>
      <use xlink:href="#DejaVuSans-63" x="255.908203"/>
      <use xlink:href="#DejaVuSans-20" x="310.888672"/>
      <use xlink:href="#DejaVuSans-56" x="342.675781"/>
      <use xlink:href="#DejaVuSans-61" x="403.333984"/>
      <use xlink:href="#DejaVuSans-6c" x="464.613281"/>
      <use xlink:href="#DejaVuSans-75" x="492.396484"/>
      <use xlink:href="#DejaVuSans-65" x="555.775391"/>
     </g>
    </g>
   </g>
   <g id="line2d_31">
    <path d="M 152.293388 736.293905 
L 173.910124 739.149279 
L 209.938017 745.539067 
L 281.993802 756.808349 
L 498.161157 773.848421 
" clip-path="url(#p11beb124a6)" style="fill: none; stroke: #1f77b4; stroke-width: 1.5; stroke-linecap: square"/>
    <g clip-path="url(#p11beb124a6)">
     <use xlink:href="#m1eea2c019f" x="152.293388" y="736.293905" style="fill: #1f77b4; stroke: #1f77b4"/>
     <use xlink:href="#m1eea2c019f" x="173.910124" y="739.149279" style="fill: #1f77b4; stroke: #1f77b4"/>
     <use xlink:href="#m1eea2c019f" x="209.938017" y="745.539067" style="fill: #1f77b4; stroke: #1f77b4"/>
     <use xlink:href="#m1eea2c019f" x="281.993802" y="756.808349" style="fill: #1f77b4; stroke: #1f77b4"/>
     <use xlink:href="#m1eea2c019f" x="498.161157" y="773.848421" style="fill: #1f77b4; stroke: #1f77b4"/>
    </g>
   </g>
   <g id="line2d_32">
    <path d="M 152.293388 535.111579 
L 173.910124 539.804153 
L 209.938017 549.015562 
L 281.993802 565.184973 
L 498.161157 614.422547 
" clip-path="url(#p11beb124a6)" style="fill: none; stroke: #ff7f0e; stroke-width: 1.5; stroke-linecap: square"/>
    <g clip-path="url(#p11beb124a6)">
     <use xlink:href="#mc1e64390e3" x="152.293388" y="535.111579" style="fill: #ff7f0e; stroke: #ff7f0e"/>
     <use xlink:href="#mc1e64390e3" x="173.910124" y="539.804153" style="fill: #ff7f0e; stroke: #ff7f0e"/>
     <use xlink:href="#mc1e64390e3" x="209.938017" y="549.015562" style="fill: #ff7f0e; stroke: #ff7f0e"/>
     <use xlink:href="#mc1e64390e3" x="281.993802" y="565.184973" style="fill: #ff7f0e; stroke: #ff7f0e"/>
     <use xlink:href="#mc1e64390e3" x="498.161157" y="614.422547" style="fill: #ff7f0e; stroke: #ff7f0e"/>
    </g>
   </g>
   <g id="line2d_33">
    <path d="M 152.293388 543.314033 
L 173.910124 545.481258 
L 209.938017 548.634414 
L 281.993802 562.251365 
L 498.161157 616.770168 
" clip-path="url(#p11beb124a6)" style="fill: none; stroke: #2ca02c; stroke-width: 1.5; stroke-linecap: square"/>
    <g clip-path="url(#p11beb124a6)">
     <use xlink:href="#m9d6de0281e" x="152.293388" y="543.314033" style="fill: #2ca02c; stroke: #2ca02c"/>
     <use xlink:href="#m9d6de0281e" x="173.910124" y="545.481258" style="fill: #2ca02c; stroke: #2ca02c"/>
     <use xlink:href="#m9d6de0281e" x="209.938017" y="548.634414" style="fill: #2ca02c; stroke: #2ca02c"/>
     <use xlink:href="#m9d6de0281e" x="281.993802" y="562.251365" style="fill: #2ca02c; stroke: #2ca02c"/>
     <use xlink:href="#m9d6de0281e" x="498.161157" y="616.770168" style="fill: #2ca02c; stroke: #2ca02c"/>
    </g>
   </g>
   <g id="line2d_34">
    <path d="M 152.293388 542.051615 
L 173.910124 545.153304 
L 209.938017 550.523467 
L 281.993802 564.032422 
L 498.161157 615.033055 
" clip-path="url(#p11beb124a6)" style="fill: none; stroke: #d62728; stroke-width: 1.5; stroke-linecap: square"/>
    <g clip-path="url(#p11beb124a6)">
     <use xlink:href="#m267c0ac1bb" x="152.293388" y="542.051615" style="fill: #d62728; stroke: #d62728"/>
     <use xlink:href="#m267c0ac1bb" x="173.910124" y="545.153304" style="fill: #d62728; stroke: #d62728"/>
     <use xlink:href="#m267c0ac1bb" x="209.938017" y="550.523467" style="fill: #d62728; stroke: #d62728"/>
     <use xlink:href="#m267c0ac1bb" x="281.993802" y="564.032422" style="fill: #d62728; stroke: #d62728"/>
     <use xlink:href="#m267c0ac1bb" x="498.161157" y="615.033055" style="fill: #d62728; stroke: #d62728"/>
    </g>
   </g>
   <g id="patch_25">
    <path d="M 135 785.785263 
L 135 523.174737 
" style="fill: none; stroke: #000000; stroke-width: 0.8; stroke-linejoin: miter; stroke-linecap: square"/>
   </g>
   <g id="patch_26">
    <path d="M 515.454545 785.785263 
L 515.454545 523.174737 
" style="fill: none; stroke: #000000; stroke-width: 0.8; stroke-linejoin: miter; stroke-linecap: square"/>
   </g>
   <g id="patch_27">
    <path d="M 135 785.785263 
L 515.454545 785.785263 
" style="fill: none; stroke: #000000; stroke-width: 0.8; stroke-linejoin: miter; stroke-linecap: square"/>
   </g>
   <g id="patch_28">
    <path d="M 135 523.174737 
L 515.454545 523.174737 
" style="fill: none; stroke: #000000; stroke-width: 0.8; stroke-linejoin: miter; stroke-linecap: square"/>
   </g>
   <g id="text_36">
    <!-- c -->
    <g transform="translate(91.769432 505.058783) scale(0.28 -0.28)">
     <defs>
      <path id="DejaVuSans-Bold-63" d="M 3366 3391 
L 3366 2478 
Q 3138 2634 2908 2709 
Q 2678 2784 2431 2784 
Q 1963 2784 1702 2511 
Q 1441 2238 1441 1747 
Q 1441 1256 1702 982 
Q 1963 709 2431 709 
Q 2694 709 2930 787 
Q 3166 866 3366 1019 
L 3366 103 
Q 3103 6 2833 -42 
Q 2563 -91 2291 -91 
Q 1344 -91 809 395 
Q 275 881 275 1747 
Q 275 2613 809 3098 
Q 1344 3584 2291 3584 
Q 2566 3584 2833 3536 
Q 3100 3488 3366 3391 
z
" transform="scale(0.015625)"/>
     </defs>
     <use xlink:href="#DejaVuSans-Bold-63"/>
    </g>
   </g>
   <g id="text_37">
    <!-- Trustworthiness -->
    <g transform="translate(230.950398 517.174737) scale(0.24 -0.24)">
     <defs>
      <path id="DejaVuSans-54" d="M -19 4666 
L 3928 4666 
L 3928 4134 
L 2272 4134 
L 2272 0 
L 1638 0 
L 1638 4134 
L -19 4134 
L -19 4666 
z
" transform="scale(0.015625)"/>
      <path id="DejaVuSans-77" d="M 269 3500 
L 844 3500 
L 1563 769 
L 2278 3500 
L 2956 3500 
L 3675 769 
L 4391 3500 
L 4966 3500 
L 4050 0 
L 3372 0 
L 2619 2869 
L 1863 0 
L 1184 0 
L 269 3500 
z
" transform="scale(0.015625)"/>
      <path id="DejaVuSans-6f" d="M 1959 3097 
Q 1497 3097 1228 2736 
Q 959 2375 959 1747 
Q 959 1119 1226 758 
Q 1494 397 1959 397 
Q 2419 397 2687 759 
Q 2956 1122 2956 1747 
Q 2956 2369 2687 2733 
Q 2419 3097 1959 3097 
z
M 1959 3584 
Q 2709 3584 3137 3096 
Q 3566 2609 3566 1747 
Q 3566 888 3137 398 
Q 2709 -91 1959 -91 
Q 1206 -91 779 398 
Q 353 888 353 1747 
Q 353 2609 779 3096 
Q 1206 3584 1959 3584 
z
" transform="scale(0.015625)"/>
      <path id="DejaVuSans-68" d="M 3513 2113 
L 3513 0 
L 2938 0 
L 2938 2094 
Q 2938 2591 2744 2837 
Q 2550 3084 2163 3084 
Q 1697 3084 1428 2787 
Q 1159 2491 1159 1978 
L 1159 0 
L 581 0 
L 581 4863 
L 1159 4863 
L 1159 2956 
Q 1366 3272 1645 3428 
Q 1925 3584 2291 3584 
Q 2894 3584 3203 3211 
Q 3513 2838 3513 2113 
z
" transform="scale(0.015625)"/>
      <path id="DejaVuSans-6e" d="M 3513 2113 
L 3513 0 
L 2938 0 
L 2938 2094 
Q 2938 2591 2744 2837 
Q 2550 3084 2163 3084 
Q 1697 3084 1428 2787 
Q 1159 2491 1159 1978 
L 1159 0 
L 581 0 
L 581 3500 
L 1159 3500 
L 1159 2956 
Q 1366 3272 1645 3428 
Q 1925 3584 2291 3584 
Q 2894 3584 3203 3211 
Q 3513 2838 3513 2113 
z
" transform="scale(0.015625)"/>
     </defs>
     <use xlink:href="#DejaVuSans-54"/>
     <use xlink:href="#DejaVuSans-72" x="46.333984"/>
     <use xlink:href="#DejaVuSans-75" x="87.447266"/>
     <use xlink:href="#DejaVuSans-73" x="150.826172"/>
     <use xlink:href="#DejaVuSans-74" x="202.925781"/>
     <use xlink:href="#DejaVuSans-77" x="242.134766"/>
     <use xlink:href="#DejaVuSans-6f" x="323.921875"/>
     <use xlink:href="#DejaVuSans-72" x="385.103516"/>
     <use xlink:href="#DejaVuSans-74" x="426.216797"/>
     <use xlink:href="#DejaVuSans-68" x="465.425781"/>
     <use xlink:href="#DejaVuSans-69" x="528.804688"/>
     <use xlink:href="#DejaVuSans-6e" x="556.587891"/>
     <use xlink:href="#DejaVuSans-65" x="619.966797"/>
     <use xlink:href="#DejaVuSans-73" x="681.490234"/>
     <use xlink:href="#DejaVuSans-73" x="733.589844"/>
    </g>
   </g>
  </g>
  <g id="axes_4">
   <g id="patch_29">
    <path d="M 591.545455 785.785263 
L 972 785.785263 
L 972 523.174737 
L 591.545455 523.174737 
z
" style="fill: #ffffff"/>
   </g>
   <g id="matplotlib.axis_7">
    <g id="xtick_13">
     <g id="line2d_35">
      <g>
       <use xlink:href="#mf6b40b90b2" x="594.427686" y="785.785263" style="stroke: #000000; stroke-width: 0.8"/>
      </g>
     </g>
     <g id="text_38">
      <!-- 0 -->
      <g transform="translate(587.428936 809.501826) scale(0.22 -0.22)">
       <use xlink:href="#DejaVuSans-30"/>
      </g>
     </g>
    </g>
    <g id="xtick_14">
     <g id="line2d_36">
      <g>
       <use xlink:href="#mf6b40b90b2" x="738.539256" y="785.785263" style="stroke: #000000; stroke-width: 0.8"/>
      </g>
     </g>
     <g id="text_39">
      <!-- 20 -->
      <g transform="translate(724.541756 809.501826) scale(0.22 -0.22)">
       <use xlink:href="#DejaVuSans-32"/>
       <use xlink:href="#DejaVuSans-30" x="63.623047"/>
      </g>
     </g>
    </g>
    <g id="xtick_15">
     <g id="line2d_37">
      <g>
       <use xlink:href="#mf6b40b90b2" x="882.650826" y="785.785263" style="stroke: #000000; stroke-width: 0.8"/>
      </g>
     </g>
     <g id="text_40">
      <!-- 40 -->
      <g transform="translate(868.653326 809.501826) scale(0.22 -0.22)">
       <use xlink:href="#DejaVuSans-34"/>
       <use xlink:href="#DejaVuSans-30" x="63.623047"/>
      </g>
     </g>
    </g>
    <g id="text_41">
     <!-- k -->
     <g transform="translate(774.823977 836.313388) scale(0.24 -0.24)">
      <use xlink:href="#DejaVuSans-6b"/>
     </g>
    </g>
   </g>
   <g id="matplotlib.axis_8">
    <g id="ytick_15">
     <g id="line2d_38">
      <g>
       <use xlink:href="#m1d154a3816" x="591.545455" y="760.562439" style="stroke: #000000; stroke-width: 0.8"/>
      </g>
     </g>
     <g id="text_42">
      <!-- 0.80 -->
      <g transform="translate(535.56108 768.920721) scale(0.22 -0.22)">
       <use xlink:href="#DejaVuSans-30"/>
       <use xlink:href="#DejaVuSans-2e" x="63.623047"/>
       <use xlink:href="#DejaVuSans-38" x="95.410156"/>
       <use xlink:href="#DejaVuSans-30" x="159.033203"/>
      </g>
     </g>
    </g>
    <g id="ytick_16">
     <g id="line2d_39">
      <g>
       <use xlink:href="#m1d154a3816" x="591.545455" y="698.860275" style="stroke: #000000; stroke-width: 0.8"/>
      </g>
     </g>
     <g id="text_43">
      <!-- 0.85 -->
      <g transform="translate(535.56108 707.218556) scale(0.22 -0.22)">
       <use xlink:href="#DejaVuSans-30"/>
       <use xlink:href="#DejaVuSans-2e" x="63.623047"/>
       <use xlink:href="#DejaVuSans-38" x="95.410156"/>
       <use xlink:href="#DejaVuSans-35" x="159.033203"/>
      </g>
     </g>
    </g>
    <g id="ytick_17">
     <g id="line2d_40">
      <g>
       <use xlink:href="#m1d154a3816" x="591.545455" y="637.15811" style="stroke: #000000; stroke-width: 0.8"/>
      </g>
     </g>
     <g id="text_44">
      <!-- 0.90 -->
      <g transform="translate(535.56108 645.516392) scale(0.22 -0.22)">
       <use xlink:href="#DejaVuSans-30"/>
       <use xlink:href="#DejaVuSans-2e" x="63.623047"/>
       <use xlink:href="#DejaVuSans-39" x="95.410156"/>
       <use xlink:href="#DejaVuSans-30" x="159.033203"/>
      </g>
     </g>
    </g>
    <g id="ytick_18">
     <g id="line2d_41">
      <g>
       <use xlink:href="#m1d154a3816" x="591.545455" y="575.455946" style="stroke: #000000; stroke-width: 0.8"/>
      </g>
     </g>
     <g id="text_45">
      <!-- 0.95 -->
      <g transform="translate(535.56108 583.814227) scale(0.22 -0.22)">
       <use xlink:href="#DejaVuSans-30"/>
       <use xlink:href="#DejaVuSans-2e" x="63.623047"/>
       <use xlink:href="#DejaVuSans-39" x="95.410156"/>
       <use xlink:href="#DejaVuSans-35" x="159.033203"/>
      </g>
     </g>
    </g>
   </g>
   <g id="line2d_42">
    <path d="M 608.838843 554.246595 
L 630.455579 577.121033 
L 666.483471 598.336295 
L 738.539256 630.213645 
L 954.706612 683.13322 
" clip-path="url(#pf1d72ce18e)" style="fill: none; stroke: #1f77b4; stroke-width: 1.5; stroke-linecap: square"/>
    <g clip-path="url(#pf1d72ce18e)">
     <use xlink:href="#m1eea2c019f" x="608.838843" y="554.246595" style="fill: #1f77b4; stroke: #1f77b4"/>
     <use xlink:href="#m1eea2c019f" x="630.455579" y="577.121033" style="fill: #1f77b4; stroke: #1f77b4"/>
     <use xlink:href="#m1eea2c019f" x="666.483471" y="598.336295" style="fill: #1f77b4; stroke: #1f77b4"/>
     <use xlink:href="#m1eea2c019f" x="738.539256" y="630.213645" style="fill: #1f77b4; stroke: #1f77b4"/>
     <use xlink:href="#m1eea2c019f" x="954.706612" y="683.13322" style="fill: #1f77b4; stroke: #1f77b4"/>
    </g>
   </g>
   <g id="line2d_43">
    <path d="M 608.838843 535.111579 
L 630.455579 545.961043 
L 666.483471 562.304408 
L 738.539256 587.216919 
L 954.706612 644.692259 
" clip-path="url(#pf1d72ce18e)" style="fill: none; stroke: #ff7f0e; stroke-width: 1.5; stroke-linecap: square"/>
    <g clip-path="url(#pf1d72ce18e)">
     <use xlink:href="#mc1e64390e3" x="608.838843" y="535.111579" style="fill: #ff7f0e; stroke: #ff7f0e"/>
     <use xlink:href="#mc1e64390e3" x="630.455579" y="545.961043" style="fill: #ff7f0e; stroke: #ff7f0e"/>
     <use xlink:href="#mc1e64390e3" x="666.483471" y="562.304408" style="fill: #ff7f0e; stroke: #ff7f0e"/>
     <use xlink:href="#mc1e64390e3" x="738.539256" y="587.216919" style="fill: #ff7f0e; stroke: #ff7f0e"/>
     <use xlink:href="#mc1e64390e3" x="954.706612" y="644.692259" style="fill: #ff7f0e; stroke: #ff7f0e"/>
    </g>
   </g>
   <g id="line2d_44">
    <path d="M 608.838843 536.26255 
L 630.455579 548.785377 
L 666.483471 563.028719 
L 738.539256 592.668976 
L 954.706612 662.047764 
" clip-path="url(#pf1d72ce18e)" style="fill: none; stroke: #2ca02c; stroke-width: 1.5; stroke-linecap: square"/>
    <g clip-path="url(#pf1d72ce18e)">
     <use xlink:href="#m9d6de0281e" x="608.838843" y="536.26255" style="fill: #2ca02c; stroke: #2ca02c"/>
     <use xlink:href="#m9d6de0281e" x="630.455579" y="548.785377" style="fill: #2ca02c; stroke: #2ca02c"/>
     <use xlink:href="#m9d6de0281e" x="666.483471" y="563.028719" style="fill: #2ca02c; stroke: #2ca02c"/>
     <use xlink:href="#m9d6de0281e" x="738.539256" y="592.668976" style="fill: #2ca02c; stroke: #2ca02c"/>
     <use xlink:href="#m9d6de0281e" x="954.706612" y="662.047764" style="fill: #2ca02c; stroke: #2ca02c"/>
    </g>
   </g>
   <g id="line2d_45">
    <path d="M 608.838843 570.676459 
L 630.455579 593.663436 
L 666.483471 621.51485 
L 738.539256 671.951875 
L 954.706612 773.848421 
" clip-path="url(#pf1d72ce18e)" style="fill: none; stroke: #d62728; stroke-width: 1.5; stroke-linecap: square"/>
    <g clip-path="url(#pf1d72ce18e)">
     <use xlink:href="#m267c0ac1bb" x="608.838843" y="570.676459" style="fill: #d62728; stroke: #d62728"/>
     <use xlink:href="#m267c0ac1bb" x="630.455579" y="593.663436" style="fill: #d62728; stroke: #d62728"/>
     <use xlink:href="#m267c0ac1bb" x="666.483471" y="621.51485" style="fill: #d62728; stroke: #d62728"/>
     <use xlink:href="#m267c0ac1bb" x="738.539256" y="671.951875" style="fill: #d62728; stroke: #d62728"/>
     <use xlink:href="#m267c0ac1bb" x="954.706612" y="773.848421" style="fill: #d62728; stroke: #d62728"/>
    </g>
   </g>
   <g id="patch_30">
    <path d="M 591.545455 785.785263 
L 591.545455 523.174737 
" style="fill: none; stroke: #000000; stroke-width: 0.8; stroke-linejoin: miter; stroke-linecap: square"/>
   </g>
   <g id="patch_31">
    <path d="M 972 785.785263 
L 972 523.174737 
" style="fill: none; stroke: #000000; stroke-width: 0.8; stroke-linejoin: miter; stroke-linecap: square"/>
   </g>
   <g id="patch_32">
    <path d="M 591.545455 785.785263 
L 972 785.785263 
" style="fill: none; stroke: #000000; stroke-width: 0.8; stroke-linejoin: miter; stroke-linecap: square"/>
   </g>
   <g id="patch_33">
    <path d="M 591.545455 523.174737 
L 972 523.174737 
" style="fill: none; stroke: #000000; stroke-width: 0.8; stroke-linejoin: miter; stroke-linecap: square"/>
   </g>
   <g id="text_46">
    <!-- d -->
    <g transform="translate(544.871761 505.058783) scale(0.28 -0.28)">
     <defs>
      <path id="DejaVuSans-Bold-64" d="M 2919 2988 
L 2919 4863 
L 4044 4863 
L 4044 0 
L 2919 0 
L 2919 506 
Q 2688 197 2409 53 
Q 2131 -91 1766 -91 
Q 1119 -91 703 423 
Q 288 938 288 1747 
Q 288 2556 703 3070 
Q 1119 3584 1766 3584 
Q 2128 3584 2408 3439 
Q 2688 3294 2919 2988 
z
M 2181 722 
Q 2541 722 2730 984 
Q 2919 1247 2919 1747 
Q 2919 2247 2730 2509 
Q 2541 2772 2181 2772 
Q 1825 2772 1636 2509 
Q 1447 2247 1447 1747 
Q 1447 1247 1636 984 
Q 1825 722 2181 722 
z
" transform="scale(0.015625)"/>
     </defs>
     <use xlink:href="#DejaVuSans-Bold-64"/>
    </g>
   </g>
   <g id="text_47">
    <!-- Continuity -->
    <g transform="translate(720.057102 517.174737) scale(0.24 -0.24)">
     <defs>
      <path id="DejaVuSans-79" d="M 2059 -325 
Q 1816 -950 1584 -1140 
Q 1353 -1331 966 -1331 
L 506 -1331 
L 506 -850 
L 844 -850 
Q 1081 -850 1212 -737 
Q 1344 -625 1503 -206 
L 1606 56 
L 191 3500 
L 800 3500 
L 1894 763 
L 2988 3500 
L 3597 3500 
L 2059 -325 
z
" transform="scale(0.015625)"/>
     </defs>
     <use xlink:href="#DejaVuSans-43"/>
     <use xlink:href="#DejaVuSans-6f" x="69.824219"/>
     <use xlink:href="#DejaVuSans-6e" x="131.005859"/>
     <use xlink:href="#DejaVuSans-74" x="194.384766"/>
     <use xlink:href="#DejaVuSans-69" x="233.59375"/>
     <use xlink:href="#DejaVuSans-6e" x="261.376953"/>
     <use xlink:href="#DejaVuSans-75" x="324.755859"/>
     <use xlink:href="#DejaVuSans-69" x="388.134766"/>
     <use xlink:href="#DejaVuSans-74" x="415.917969"/>
     <use xlink:href="#DejaVuSans-79" x="455.126953"/>
    </g>
   </g>
  </g>
  <g id="axes_5">
   <g id="patch_34">
    <path d="M 135 1153.44 
L 515.454545 1153.44 
L 515.454545 890.829474 
L 135 890.829474 
z
" style="fill: #ffffff"/>
   </g>
   <g id="matplotlib.axis_9">
    <g id="xtick_16">
     <g id="line2d_46">
      <g>
       <use xlink:href="#mf6b40b90b2" x="152.138638" y="1153.44" style="stroke: #000000; stroke-width: 0.8"/>
      </g>
     </g>
     <g id="text_48">
      <!-- 0 -->
      <g transform="translate(145.139888 1177.156562) scale(0.22 -0.22)">
       <use xlink:href="#DejaVuSans-30"/>
      </g>
     </g>
    </g>
    <g id="xtick_17">
     <g id="line2d_47">
      <g>
       <use xlink:href="#mf6b40b90b2" x="229.513977" y="1153.44" style="stroke: #000000; stroke-width: 0.8"/>
      </g>
     </g>
     <g id="text_49">
      <!-- 500 -->
      <g transform="translate(208.517727 1177.156562) scale(0.22 -0.22)">
       <use xlink:href="#DejaVuSans-35"/>
       <use xlink:href="#DejaVuSans-30" x="63.623047"/>
       <use xlink:href="#DejaVuSans-30" x="127.246094"/>
      </g>
     </g>
    </g>
    <g id="xtick_18">
     <g id="line2d_48">
      <g>
       <use xlink:href="#mf6b40b90b2" x="306.889317" y="1153.44" style="stroke: #000000; stroke-width: 0.8"/>
      </g>
     </g>
     <g id="text_50">
      <!-- 1000 -->
      <g transform="translate(278.894317 1177.156562) scale(0.22 -0.22)">
       <use xlink:href="#DejaVuSans-31"/>
       <use xlink:href="#DejaVuSans-30" x="63.623047"/>
       <use xlink:href="#DejaVuSans-30" x="127.246094"/>
       <use xlink:href="#DejaVuSans-30" x="190.869141"/>
      </g>
     </g>
    </g>
    <g id="xtick_19">
     <g id="line2d_49">
      <g>
       <use xlink:href="#mf6b40b90b2" x="384.264657" y="1153.44" style="stroke: #000000; stroke-width: 0.8"/>
      </g>
     </g>
     <g id="text_51">
      <!-- 1500 -->
      <g transform="translate(356.269657 1177.156562) scale(0.22 -0.22)">
       <use xlink:href="#DejaVuSans-31"/>
       <use xlink:href="#DejaVuSans-35" x="63.623047"/>
       <use xlink:href="#DejaVuSans-30" x="127.246094"/>
       <use xlink:href="#DejaVuSans-30" x="190.869141"/>
      </g>
     </g>
    </g>
    <g id="xtick_20">
     <g id="line2d_50">
      <g>
       <use xlink:href="#mf6b40b90b2" x="461.639997" y="1153.44" style="stroke: #000000; stroke-width: 0.8"/>
      </g>
     </g>
     <g id="text_52">
      <!-- 2000 -->
      <g transform="translate(433.644997 1177.156562) scale(0.22 -0.22)">
       <use xlink:href="#DejaVuSans-32"/>
       <use xlink:href="#DejaVuSans-30" x="63.623047"/>
       <use xlink:href="#DejaVuSans-30" x="127.246094"/>
       <use xlink:href="#DejaVuSans-30" x="190.869141"/>
      </g>
     </g>
    </g>
    <g id="text_53">
     <!-- k -->
     <g transform="translate(318.278523 1203.968125) scale(0.24 -0.24)">
      <use xlink:href="#DejaVuSans-6b"/>
     </g>
    </g>
   </g>
   <g id="matplotlib.axis_10">
    <g id="ytick_19">
     <g id="line2d_51">
      <g>
       <use xlink:href="#m1d154a3816" x="135" y="1117.353685" style="stroke: #000000; stroke-width: 0.8"/>
      </g>
     </g>
     <g id="text_54">
      <!-- 0.2 -->
      <g transform="translate(93.013125 1125.711967) scale(0.22 -0.22)">
       <use xlink:href="#DejaVuSans-30"/>
       <use xlink:href="#DejaVuSans-2e" x="63.623047"/>
       <use xlink:href="#DejaVuSans-32" x="95.410156"/>
      </g>
     </g>
    </g>
    <g id="ytick_20">
     <g id="line2d_52">
      <g>
       <use xlink:href="#m1d154a3816" x="135" y="1063.706843" style="stroke: #000000; stroke-width: 0.8"/>
      </g>
     </g>
     <g id="text_55">
      <!-- 0.4 -->
      <g transform="translate(93.013125 1072.065124) scale(0.22 -0.22)">
       <use xlink:href="#DejaVuSans-30"/>
       <use xlink:href="#DejaVuSans-2e" x="63.623047"/>
       <use xlink:href="#DejaVuSans-34" x="95.410156"/>
      </g>
     </g>
    </g>
    <g id="ytick_21">
     <g id="line2d_53">
      <g>
       <use xlink:href="#m1d154a3816" x="135" y="1010.060001" style="stroke: #000000; stroke-width: 0.8"/>
      </g>
     </g>
     <g id="text_56">
      <!-- 0.6 -->
      <g transform="translate(93.013125 1018.418282) scale(0.22 -0.22)">
       <use xlink:href="#DejaVuSans-30"/>
       <use xlink:href="#DejaVuSans-2e" x="63.623047"/>
       <use xlink:href="#DejaVuSans-36" x="95.410156"/>
      </g>
     </g>
    </g>
    <g id="ytick_22">
     <g id="line2d_54">
      <g>
       <use xlink:href="#m1d154a3816" x="135" y="956.413158" style="stroke: #000000; stroke-width: 0.8"/>
      </g>
     </g>
     <g id="text_57">
      <!-- 0.8 -->
      <g transform="translate(93.013125 964.771439) scale(0.22 -0.22)">
       <use xlink:href="#DejaVuSans-30"/>
       <use xlink:href="#DejaVuSans-2e" x="63.623047"/>
       <use xlink:href="#DejaVuSans-38" x="95.410156"/>
      </g>
     </g>
    </g>
    <g id="ytick_23">
     <g id="line2d_55">
      <g>
       <use xlink:href="#m1d154a3816" x="135" y="902.766316" style="stroke: #000000; stroke-width: 0.8"/>
      </g>
     </g>
     <g id="text_58">
      <!-- 1.0 -->
      <g transform="translate(93.013125 911.124597) scale(0.22 -0.22)">
       <use xlink:href="#DejaVuSans-31"/>
       <use xlink:href="#DejaVuSans-2e" x="63.623047"/>
       <use xlink:href="#DejaVuSans-30" x="95.410156"/>
      </g>
     </g>
    </g>
    <g id="text_59">
     <!-- Metric Value -->
     <g transform="translate(84.021875 1096.210362) rotate(-90) scale(0.24 -0.24)">
      <use xlink:href="#DejaVuSans-4d"/>
      <use xlink:href="#DejaVuSans-65" x="86.279297"/>
      <use xlink:href="#DejaVuSans-74" x="147.802734"/>
      <use xlink:href="#DejaVuSans-72" x="187.011719"/>
      <use xlink:href="#DejaVuSans-69" x="228.125"/>
      <use xlink:href="#DejaVuSans-63" x="255.908203"/>
      <use xlink:href="#DejaVuSans-20" x="310.888672"/>
      <use xlink:href="#DejaVuSans-56" x="342.675781"/>
      <use xlink:href="#DejaVuSans-61" x="403.333984"/>
      <use xlink:href="#DejaVuSans-6c" x="464.613281"/>
      <use xlink:href="#DejaVuSans-75" x="492.396484"/>
      <use xlink:href="#DejaVuSans-65" x="555.775391"/>
     </g>
    </g>
   </g>
   <g id="line2d_56">
    <path d="M 152.293388 1141.503158 
L 152.60289 1127.473921 
L 152.912391 1122.269914 
L 153.686145 1116.478357 
L 154.305147 1115.21761 
L 154.459898 1115.051452 
L 154.92415 1113.631208 
L 155.078901 1113.659256 
L 156.316906 1111.579449 
L 156.626407 1110.922481 
L 157.090659 1110.162203 
L 157.400161 1109.692269 
L 158.019164 1109.465632 
L 158.483416 1109.142619 
L 159.102418 1108.848211 
L 159.56667 1108.563429 
L 159.721421 1108.433019 
L 159.876172 1108.458909 
L 160.959426 1107.870014 
L 161.423679 1107.777032 
L 162.661684 1107.183018 
L 162.971185 1107.094699 
L 163.435437 1106.907234 
L 163.899689 1106.69197 
L 164.982944 1105.959824 
L 165.601947 1105.645151 
L 166.3757 1105.232289 
L 166.839952 1104.952673 
L 167.458955 1104.596927 
L 168.69696 1103.714205 
L 169.161212 1103.405114 
L 170.244467 1102.585323 
L 171.018221 1101.950224 
L 171.791974 1101.329255 
L 172.720478 1100.583874 
L 174.886988 1098.751467 
L 176.743996 1097.20733 
L 177.517749 1096.533268 
L 179.99376 1094.371317 
L 183.088774 1091.541089 
L 186.648039 1088.002679 
L 191.754812 1083.019901 
L 194.076072 1080.741656 
L 196.087831 1078.779026 
L 196.861584 1078.019959 
L 199.492346 1075.474991 
L 202.587359 1072.610491 
L 216.669671 1060.494804 
L 217.752926 1059.678669 
L 228.121221 1051.466409 
L 229.97823 1050.058165 
L 231.989988 1048.527512 
L 238.025265 1044.243721 
L 240.037024 1042.873544 
L 253.655083 1033.588145 
L 255.512092 1032.369101 
L 260.154612 1029.331966 
L 268.201647 1024.195716 
L 270.522908 1022.720875 
L 272.379916 1021.519225 
L 292.033252 1009.350341 
L 298.687531 1005.501521 
L 342.017721 981.480792 
L 345.267486 979.653674 
L 352.231266 975.69431 
L 357.028537 972.972454 
L 359.9688 971.321911 
L 403.14424 946.386143 
L 406.703505 944.454066 
L 413.667286 940.720038 
L 424.499834 935.342801 
L 438.272644 929.115209 
L 451.581203 923.756166 
L 460.09249 920.644238 
L 474.484303 915.121388 
L 482.99559 911.338953 
L 486.090604 910.330577 
L 489.64987 909.114183 
L 491.042626 908.162833 
L 498.161157 902.766316 
L 498.161157 902.766316 
" clip-path="url(#pec34605e1d)" style="fill: none; stroke: #1f77b4; stroke-width: 1.5; stroke-linecap: square"/>
   </g>
   <g id="line2d_57">
    <path d="M 152.293388 1012.362234 
L 152.448139 1001.450606 
L 152.60289 999.691955 
L 153.221893 1003.283485 
L 153.376643 1003.114329 
L 153.531394 1003.275872 
L 153.686145 1003.788812 
L 154.305147 1009.099024 
L 155.697903 1017.492212 
L 156.007405 1018.942786 
L 158.019164 1030.97953 
L 159.257169 1036.604505 
L 160.185673 1039.800415 
L 160.804676 1041.506304 
L 161.268928 1042.798545 
L 161.73318 1043.88837 
L 162.352183 1045.496814 
L 162.971185 1046.885462 
L 163.590188 1047.900375 
L 165.137695 1050.156096 
L 165.601947 1050.70661 
L 166.22095 1051.436433 
L 166.685202 1051.903813 
L 167.923207 1053.128606 
L 170.244467 1054.738954 
L 170.708719 1055.05548 
L 172.256226 1055.579847 
L 176.589245 1055.85469 
L 177.517749 1055.755772 
L 183.862527 1053.942237 
L 185.410034 1053.357388 
L 187.112291 1052.664589 
L 188.350297 1052.065108 
L 189.743053 1051.582515 
L 190.671557 1051.281291 
L 192.838066 1050.781124 
L 193.921321 1050.595568 
L 203.980115 1048.289895 
L 205.218121 1047.962677 
L 208.777386 1047.081827 
L 209.705891 1046.847068 
L 211.8724 1046.23345 
L 216.979172 1044.551381 
L 218.526679 1044.131707 
L 220.383687 1043.548376 
L 233.073243 1039.838822 
L 234.930251 1039.238213 
L 246.0723 1035.65718 
L 247.774558 1035.062877 
L 249.012563 1034.658228 
L 251.643325 1033.706419 
L 254.428837 1032.682741 
L 256.904848 1031.807877 
L 274.701176 1025.143186 
L 277.95094 1023.790515 
L 283.212463 1021.620491 
L 296.830523 1015.410206 
L 300.389789 1013.674088 
L 305.18706 1011.431341 
L 323.44764 1002.701895 
L 329.328166 999.757651 
L 330.875673 999.015487 
L 339.232209 994.781578 
L 346.505491 990.972593 
L 355.171529 986.335616 
L 378.693632 973.801572 
L 386.895418 969.422442 
L 396.799462 964.053035 
L 422.333324 950.23361 
L 444.462671 937.58934 
L 447.867186 935.691009 
L 456.842726 930.536133 
L 467.05627 924.505019 
L 474.639054 919.868627 
L 478.35307 917.435536 
L 484.697848 913.075447 
L 489.64987 909.383687 
L 498.161157 902.766316 
L 498.161157 902.766316 
" clip-path="url(#pec34605e1d)" style="fill: none; stroke: #ff7f0e; stroke-width: 1.5; stroke-linecap: square"/>
   </g>
   <g id="line2d_58">
    <path d="M 152.293388 1111.646064 
L 152.75764 1059.516058 
L 153.067142 1044.617488 
L 153.531394 1029.509079 
L 153.995646 1021.005603 
L 154.150397 1019.464478 
L 154.769399 1017.990857 
L 154.92415 1018.137803 
L 155.388402 1019.25409 
L 155.543153 1019.34415 
L 156.162155 1020.848032 
L 156.781158 1023.589621 
L 158.792917 1033.577586 
L 160.340424 1039.42072 
L 162.197432 1044.776136 
L 162.971185 1046.378423 
L 164.363941 1049.201313 
L 166.3757 1051.950123 
L 166.994703 1052.546405 
L 167.458955 1052.788189 
L 168.54221 1053.298375 
L 169.625465 1054.009575 
L 171.172971 1054.680987 
L 172.720478 1055.160377 
L 173.18473 1055.354545 
L 173.958484 1055.628615 
L 174.577486 1055.773895 
L 175.196489 1056.028063 
L 176.589245 1056.220485 
L 177.208248 1056.218218 
L 179.065256 1056.350556 
L 181.386516 1056.356419 
L 183.398275 1056.053269 
L 184.48153 1055.670826 
L 186.493289 1055.154269 
L 187.731294 1054.858153 
L 188.659798 1054.7802 
L 191.29056 1054.473168 
L 192.838066 1054.237484 
L 195.623579 1053.609309 
L 205.682373 1051.064796 
L 207.694132 1050.594184 
L 209.705891 1050.123909 
L 212.181901 1049.42308 
L 215.122164 1048.388551 
L 215.741167 1048.176218 
L 216.979172 1047.68988 
L 218.836181 1046.875153 
L 220.538438 1046.232448 
L 221.776444 1045.760611 
L 222.859698 1045.392036 
L 234.465999 1041.46224 
L 237.096761 1040.418305 
L 238.334766 1040.020943 
L 244.834295 1037.976907 
L 247.310306 1037.01766 
L 249.167314 1036.301763 
L 251.643325 1035.425971 
L 255.821593 1033.881247 
L 259.535609 1032.61874 
L 261.392617 1032.004728 
L 265.416135 1030.576129 
L 267.273143 1030.012242 
L 272.070414 1028.133464 
L 274.236924 1027.230219 
L 278.260442 1025.398956 
L 280.2722 1024.508857 
L 287.700233 1021.113466 
L 292.961756 1018.482154 
L 298.068528 1015.935569 
L 301.008791 1014.441928 
L 303.949054 1012.937939 
L 308.436824 1010.661678 
L 325.304648 1002.352112 
L 327.316407 1001.326672 
L 330.25667 999.841796 
L 344.02948 992.811621 
L 369.563342 978.865826 
L 377.300876 974.348676 
L 400.82298 960.37454 
L 402.989489 959.209034 
L 407.167758 956.766974 
L 411.965029 953.985674 
L 413.976787 952.822381 
L 421.40482 948.482691 
L 442.296162 936.808359 
L 446.783931 934.483936 
L 455.759471 930.0735 
L 473.71055 920.426607 
L 476.650813 918.569185 
L 485.626352 912.345602 
L 496.149398 904.330514 
L 498.161157 902.766316 
L 498.161157 902.766316 
" clip-path="url(#pec34605e1d)" style="fill: none; stroke: #2ca02c; stroke-width: 1.5; stroke-linecap: square"/>
   </g>
   <g id="line2d_59">
    <path d="M 152.293388 1098.695999 
L 152.60289 1062.124057 
L 153.067142 1041.000263 
L 153.531394 1029.842157 
L 153.840895 1025.235994 
L 154.305147 1021.543762 
L 154.769399 1020.410178 
L 155.078901 1020.528601 
L 155.233651 1020.438039 
L 155.543153 1021.43709 
L 155.852654 1022.669327 
L 156.935909 1027.049031 
L 159.257169 1039.398883 
L 160.340424 1043.714784 
L 161.578429 1048.344465 
L 163.125936 1052.750967 
L 166.066199 1059.506066 
L 167.768456 1062.457663 
L 168.851711 1064.017049 
L 169.470714 1064.866953 
L 171.018221 1066.995074 
L 171.482473 1067.475791 
L 171.946725 1067.878705 
L 173.029979 1068.840682 
L 177.362999 1071.925617 
L 177.827251 1072.178271 
L 178.755755 1072.671779 
L 180.767513 1073.559392 
L 182.31502 1074.186188 
L 185.874286 1075.161028 
L 189.897804 1075.646634 
L 193.61182 1076.418165 
L 194.849825 1076.664206 
L 197.016335 1076.986448 
L 198.25434 1077.088818 
L 199.647096 1077.125057 
L 203.051611 1077.165041 
L 205.837124 1077.27808 
L 207.075129 1077.338188 
L 208.932137 1077.165161 
L 210.943896 1076.924176 
L 212.646153 1076.684753 
L 213.729408 1076.508499 
L 216.979172 1076.04655 
L 221.157441 1075.612364 
L 224.561956 1074.934998 
L 225.64521 1074.711116 
L 227.656969 1074.329365 
L 234.775501 1073.00133 
L 236.323007 1072.703294 
L 242.822536 1071.434116 
L 247.465056 1070.142905 
L 249.631566 1069.38896 
L 258.916607 1066.593498 
L 269.749154 1062.87364 
L 270.832409 1062.453609 
L 272.379916 1061.910476 
L 282.283959 1058.246509 
L 284.605219 1057.265962 
L 285.843225 1056.820071 
L 289.40249 1055.404883 
L 295.283016 1052.843955 
L 296.830523 1052.027547 
L 305.18706 1047.754253 
L 310.139081 1045.122253 
L 313.543596 1043.21814 
L 320.507377 1039.273757 
L 329.018664 1033.759467 
L 333.970686 1030.366702 
L 341.398719 1025.327398 
L 351.767014 1018.070599 
L 356.873787 1014.213603 
L 372.813107 1002.341927 
L 383.800405 993.95183 
L 391.073687 988.365256 
L 396.025709 984.645681 
L 436.725137 953.660125 
L 445.545926 946.330994 
L 451.890704 940.954447 
L 461.175745 933.101841 
L 490.887875 908.503385 
L 498.161157 902.767174 
L 498.161157 902.767174 
" clip-path="url(#pec34605e1d)" style="fill: none; stroke: #d62728; stroke-width: 1.5; stroke-linecap: square"/>
   </g>
   <g id="patch_35">
    <path d="M 135 1153.44 
L 135 890.829474 
" style="fill: none; stroke: #000000; stroke-width: 0.8; stroke-linejoin: miter; stroke-linecap: square"/>
   </g>
   <g id="patch_36">
    <path d="M 515.454545 1153.44 
L 515.454545 890.829474 
" style="fill: none; stroke: #000000; stroke-width: 0.8; stroke-linejoin: miter; stroke-linecap: square"/>
   </g>
   <g id="patch_37">
    <path d="M 135 1153.44 
L 515.454545 1153.44 
" style="fill: none; stroke: #000000; stroke-width: 0.8; stroke-linejoin: miter; stroke-linecap: square"/>
   </g>
   <g id="patch_38">
    <path d="M 135 890.829474 
L 515.454545 890.829474 
" style="fill: none; stroke: #000000; stroke-width: 0.8; stroke-linejoin: miter; stroke-linecap: square"/>
   </g>
   <g id="text_60">
    <!-- e -->
    <g transform="translate(89.376307 872.71352) scale(0.28 -0.28)">
     <defs>
      <path id="DejaVuSans-Bold-65" d="M 4031 1759 
L 4031 1441 
L 1416 1441 
Q 1456 1047 1700 850 
Q 1944 653 2381 653 
Q 2734 653 3104 758 
Q 3475 863 3866 1075 
L 3866 213 
Q 3469 63 3072 -14 
Q 2675 -91 2278 -91 
Q 1328 -91 801 392 
Q 275 875 275 1747 
Q 275 2603 792 3093 
Q 1309 3584 2216 3584 
Q 3041 3584 3536 3087 
Q 4031 2591 4031 1759 
z
M 2881 2131 
Q 2881 2450 2695 2645 
Q 2509 2841 2209 2841 
Q 1884 2841 1681 2658 
Q 1478 2475 1428 2131 
L 2881 2131 
z
" transform="scale(0.015625)"/>
     </defs>
     <use xlink:href="#DejaVuSans-Bold-65"/>
    </g>
   </g>
   <g id="text_61">
    <!-- $Q_{NN}$ -->
    <g transform="translate(302.787273 884.829474) scale(0.24 -0.24)">
     <use xlink:href="#DejaVuSans-Oblique-51" transform="translate(0 0.78125)"/>
     <use xlink:href="#DejaVuSans-Oblique-4e" transform="translate(78.710938 -15.625) scale(0.7)"/>
     <use xlink:href="#DejaVuSans-Oblique-4e" transform="translate(131.074219 -15.625) scale(0.7)"/>
    </g>
   </g>
  </g>
  <g id="axes_6">
   <g id="patch_39">
    <path d="M 591.545455 1153.44 
L 972 1153.44 
L 972 890.829474 
L 591.545455 890.829474 
z
" style="fill: #ffffff"/>
   </g>
   <g id="matplotlib.axis_11">
    <g id="xtick_21">
     <g id="line2d_60">
      <g>
       <use xlink:href="#mf6b40b90b2" x="608.684092" y="1153.44" style="stroke: #000000; stroke-width: 0.8"/>
      </g>
     </g>
     <g id="text_62">
      <!-- 0 -->
      <g transform="translate(601.685342 1177.156562) scale(0.22 -0.22)">
       <use xlink:href="#DejaVuSans-30"/>
      </g>
     </g>
    </g>
    <g id="xtick_22">
     <g id="line2d_61">
      <g>
       <use xlink:href="#mf6b40b90b2" x="686.059432" y="1153.44" style="stroke: #000000; stroke-width: 0.8"/>
      </g>
     </g>
     <g id="text_63">
      <!-- 500 -->
      <g transform="translate(665.063182 1177.156562) scale(0.22 -0.22)">
       <use xlink:href="#DejaVuSans-35"/>
       <use xlink:href="#DejaVuSans-30" x="63.623047"/>
       <use xlink:href="#DejaVuSans-30" x="127.246094"/>
      </g>
     </g>
    </g>
    <g id="xtick_23">
     <g id="line2d_62">
      <g>
       <use xlink:href="#mf6b40b90b2" x="763.434772" y="1153.44" style="stroke: #000000; stroke-width: 0.8"/>
      </g>
     </g>
     <g id="text_64">
      <!-- 1000 -->
      <g transform="translate(735.439772 1177.156562) scale(0.22 -0.22)">
       <use xlink:href="#DejaVuSans-31"/>
       <use xlink:href="#DejaVuSans-30" x="63.623047"/>
       <use xlink:href="#DejaVuSans-30" x="127.246094"/>
       <use xlink:href="#DejaVuSans-30" x="190.869141"/>
      </g>
     </g>
    </g>
    <g id="xtick_24">
     <g id="line2d_63">
      <g>
       <use xlink:href="#mf6b40b90b2" x="840.810111" y="1153.44" style="stroke: #000000; stroke-width: 0.8"/>
      </g>
     </g>
     <g id="text_65">
      <!-- 1500 -->
      <g transform="translate(812.815111 1177.156562) scale(0.22 -0.22)">
       <use xlink:href="#DejaVuSans-31"/>
       <use xlink:href="#DejaVuSans-35" x="63.623047"/>
       <use xlink:href="#DejaVuSans-30" x="127.246094"/>
       <use xlink:href="#DejaVuSans-30" x="190.869141"/>
      </g>
     </g>
    </g>
    <g id="xtick_25">
     <g id="line2d_64">
      <g>
       <use xlink:href="#mf6b40b90b2" x="918.185451" y="1153.44" style="stroke: #000000; stroke-width: 0.8"/>
      </g>
     </g>
     <g id="text_66">
      <!-- 2000 -->
      <g transform="translate(890.190451 1177.156562) scale(0.22 -0.22)">
       <use xlink:href="#DejaVuSans-32"/>
       <use xlink:href="#DejaVuSans-30" x="63.623047"/>
       <use xlink:href="#DejaVuSans-30" x="127.246094"/>
       <use xlink:href="#DejaVuSans-30" x="190.869141"/>
      </g>
     </g>
    </g>
    <g id="text_67">
     <!-- k -->
     <g transform="translate(774.823977 1203.968125) scale(0.24 -0.24)">
      <use xlink:href="#DejaVuSans-6b"/>
     </g>
    </g>
   </g>
   <g id="matplotlib.axis_12">
    <g id="ytick_24">
     <g id="line2d_65">
      <g>
       <use xlink:href="#m1d154a3816" x="591.545455" y="1136.965117" style="stroke: #000000; stroke-width: 0.8"/>
      </g>
     </g>
     <g id="text_68">
      <!-- 0.0 -->
      <g transform="translate(549.55858 1145.323398) scale(0.22 -0.22)">
       <use xlink:href="#DejaVuSans-30"/>
       <use xlink:href="#DejaVuSans-2e" x="63.623047"/>
       <use xlink:href="#DejaVuSans-30" x="95.410156"/>
      </g>
     </g>
    </g>
    <g id="ytick_25">
     <g id="line2d_66">
      <g>
       <use xlink:href="#m1d154a3816" x="591.545455" y="1063.469226" style="stroke: #000000; stroke-width: 0.8"/>
      </g>
     </g>
     <g id="text_69">
      <!-- 0.2 -->
      <g transform="translate(549.55858 1071.827507) scale(0.22 -0.22)">
       <use xlink:href="#DejaVuSans-30"/>
       <use xlink:href="#DejaVuSans-2e" x="63.623047"/>
       <use xlink:href="#DejaVuSans-32" x="95.410156"/>
      </g>
     </g>
    </g>
    <g id="ytick_26">
     <g id="line2d_67">
      <g>
       <use xlink:href="#m1d154a3816" x="591.545455" y="989.973334" style="stroke: #000000; stroke-width: 0.8"/>
      </g>
     </g>
     <g id="text_70">
      <!-- 0.4 -->
      <g transform="translate(549.55858 998.331616) scale(0.22 -0.22)">
       <use xlink:href="#DejaVuSans-30"/>
       <use xlink:href="#DejaVuSans-2e" x="63.623047"/>
       <use xlink:href="#DejaVuSans-34" x="95.410156"/>
      </g>
     </g>
    </g>
    <g id="ytick_27">
     <g id="line2d_68">
      <g>
       <use xlink:href="#m1d154a3816" x="591.545455" y="916.477443" style="stroke: #000000; stroke-width: 0.8"/>
      </g>
     </g>
     <g id="text_71">
      <!-- 0.6 -->
      <g transform="translate(549.55858 924.835725) scale(0.22 -0.22)">
       <use xlink:href="#DejaVuSans-30"/>
       <use xlink:href="#DejaVuSans-2e" x="63.623047"/>
       <use xlink:href="#DejaVuSans-36" x="95.410156"/>
      </g>
     </g>
    </g>
   </g>
   <g id="line2d_69">
    <path d="M 608.838843 1096.718222 
L 609.148344 1077.826936 
L 609.457846 1071.026166 
L 610.231599 1063.913498 
L 610.850602 1062.843669 
L 611.005352 1062.78038 
L 611.469605 1061.327694 
L 611.624355 1061.530467 
L 612.088607 1061.035116 
L 612.243358 1060.993959 
L 612.862361 1059.995915 
L 613.017111 1059.477094 
L 613.326613 1059.298887 
L 613.790865 1058.589247 
L 613.945615 1058.560917 
L 614.409867 1058.911361 
L 615.02887 1058.958327 
L 615.493122 1059.207325 
L 616.266876 1059.300953 
L 616.576377 1059.52848 
L 616.731128 1059.608831 
L 616.885878 1059.512582 
L 617.19538 1059.718874 
L 617.659632 1060.007319 
L 617.814382 1060.028275 
L 618.123884 1060.251257 
L 619.207138 1060.711047 
L 619.51664 1060.918744 
L 619.826141 1060.991706 
L 620.290393 1061.365466 
L 621.064147 1061.405259 
L 621.218897 1061.472259 
L 621.373648 1061.403402 
L 621.992651 1061.676942 
L 622.456903 1061.823064 
L 622.611653 1061.756443 
L 623.230656 1062.10008 
L 623.694908 1062.18723 
L 624.313911 1062.335515 
L 624.468662 1062.416673 
L 624.778163 1062.340537 
L 627.718426 1062.368682 
L 631.587193 1062.116186 
L 631.896694 1062.111301 
L 632.206196 1062.138971 
L 632.825198 1062.071095 
L 634.217954 1061.8645 
L 635.301209 1061.659383 
L 636.074963 1061.599861 
L 638.550973 1061.205878 
L 639.94373 1060.872608 
L 640.717483 1060.626553 
L 641.336486 1060.514105 
L 642.729242 1060.012501 
L 643.657746 1059.775432 
L 644.276749 1059.535706 
L 644.895751 1059.36807 
L 651.39528 1057.665179 
L 653.252288 1057.087831 
L 653.871291 1056.957887 
L 657.275806 1056.171458 
L 660.989822 1055.508915 
L 662.073077 1055.325663 
L 663.001581 1055.185122 
L 665.787093 1054.863126 
L 666.560846 1054.746995 
L 667.798852 1054.622144 
L 670.739115 1054.278241 
L 671.512868 1054.232338 
L 681.10741 1053.912643 
L 683.738172 1053.911633 
L 685.130928 1053.912687 
L 686.523684 1053.94116 
L 688.071191 1053.934614 
L 693.796966 1054.416058 
L 694.72547 1054.55434 
L 698.748988 1055.023342 
L 701.224999 1055.295976 
L 713.605053 1057.0802 
L 715.926313 1057.471703 
L 719.79508 1058.129142 
L 724.747102 1059.103402 
L 726.60411 1059.47158 
L 729.699124 1060.03173 
L 746.257446 1063.554236 
L 760.339758 1067.281459 
L 764.363276 1068.544228 
L 770.862804 1070.525516 
L 784.326113 1074.819446 
L 809.859976 1082.18082 
L 835.393838 1089.287931 
L 860.308697 1096.012906 
L 874.70051 1100.812324 
L 880.116784 1102.993587 
L 891.104082 1107.716591 
L 904.722142 1114.377632 
L 911.840673 1118.335591 
L 922.208969 1124.153071 
L 932.732015 1129.473501 
L 935.362777 1130.648491 
L 937.529286 1131.728431 
L 939.695796 1132.691031 
L 942.790809 1134.606143 
L 945.421571 1136.248807 
L 946.504826 1136.695586 
L 947.58808 1136.798364 
L 952.540102 1136.900582 
L 954.706612 1136.965117 
L 954.706612 1136.965117 
" clip-path="url(#p5f241508b3)" style="fill: none; stroke: #1f77b4; stroke-width: 1.5; stroke-linecap: square"/>
   </g>
   <g id="line2d_70">
    <path d="M 608.838843 919.795838 
L 608.993594 905.011311 
L 609.148344 902.766316 
L 609.767347 908.344081 
L 609.922098 908.276685 
L 610.076848 908.662344 
L 610.231599 909.529416 
L 610.850602 917.461765 
L 612.243358 930.43951 
L 612.70761 934.253729 
L 613.945615 945.990197 
L 614.719369 952.602752 
L 616.731128 965.767688 
L 617.35013 968.762134 
L 617.814382 971.025538 
L 618.278634 973.011633 
L 619.052388 976.563255 
L 619.671391 978.88154 
L 622.456903 987.289113 
L 624.00441 991.08937 
L 625.397166 994.179974 
L 628.337429 999.632883 
L 629.575434 1001.071094 
L 630.039686 1001.59736 
L 631.122941 1002.994435 
L 631.896694 1003.81617 
L 633.444201 1005.50892 
L 634.836957 1006.656286 
L 635.146458 1006.873196 
L 635.45596 1007.039516 
L 636.693965 1007.949422 
L 638.086721 1008.760277 
L 642.26499 1011.291516 
L 644.121998 1012.170072 
L 644.741001 1012.427793 
L 645.514754 1012.791269 
L 647.217011 1013.872749 
L 649.22877 1015.334316 
L 649.847773 1015.826279 
L 651.859532 1017.463513 
L 653.097537 1018.442669 
L 655.88305 1020.367458 
L 656.656803 1020.960044 
L 660.680321 1023.996636 
L 665.477592 1027.483534 
L 668.417855 1029.472746 
L 671.048616 1031.123615 
L 672.441372 1031.908296 
L 673.524627 1032.591764 
L 675.072134 1033.660281 
L 676.46489 1034.544741 
L 680.643158 1037.349306 
L 681.881164 1038.195879 
L 686.523684 1041.214059 
L 687.297437 1041.666989 
L 689.928199 1043.40731 
L 691.320955 1044.266204 
L 693.332714 1045.573527 
L 707.879278 1054.379902 
L 720.568834 1061.476356 
L 725.520855 1064.370212 
L 736.353403 1069.8226 
L 737.746159 1070.548475 
L 743.007682 1073.020575 
L 753.375978 1077.471459 
L 756.16149 1078.554685 
L 758.792251 1079.672469 
L 762.042016 1081.019223 
L 767.458289 1083.200949 
L 770.708054 1084.531524 
L 772.565062 1085.296352 
L 780.612097 1088.555202 
L 782.778607 1089.371703 
L 793.920656 1093.623551 
L 798.563176 1095.193943 
L 799.801181 1095.612945 
L 803.515198 1096.903024 
L 809.086222 1098.76643 
L 812.181236 1099.751941 
L 821.002025 1102.605391 
L 827.965805 1104.908164 
L 829.513312 1105.431854 
L 835.85809 1107.615557 
L 838.798353 1108.564377 
L 843.131372 1110.016427 
L 846.226385 1111.004125 
L 848.547645 1111.742426 
L 873.153003 1119.710765 
L 876.093266 1120.619388 
L 877.950275 1121.201487 
L 882.747546 1122.514415 
L 885.068806 1123.105226 
L 889.866077 1124.363129 
L 896.675107 1126.280102 
L 899.924871 1127.298045 
L 904.25789 1128.614486 
L 913.38818 1131.129023 
L 921.125714 1133.106041 
L 931.958262 1135.559212 
L 934.743774 1136.001185 
L 939.695796 1136.679286 
L 945.885823 1136.98332 
L 950.373593 1137.009038 
L 954.706612 1136.965117 
L 954.706612 1136.965117 
" clip-path="url(#p5f241508b3)" style="fill: none; stroke: #ff7f0e; stroke-width: 1.5; stroke-linecap: square"/>
   </g>
   <g id="line2d_71">
    <path d="M 608.838843 1055.814161 
L 609.303095 984.889368 
L 609.612596 964.8071 
L 610.076848 944.6017 
L 610.38635 936.089501 
L 610.695851 931.498036 
L 611.005352 930.573198 
L 611.160103 930.700583 
L 611.314854 930.136571 
L 611.469605 930.502233 
L 611.933857 932.52458 
L 612.088607 932.812309 
L 612.70761 935.530006 
L 613.636114 941.975016 
L 615.493122 956.786633 
L 617.504881 968.664065 
L 618.433385 973.1449 
L 619.052388 976.072886 
L 621.528399 985.034211 
L 623.385407 990.177442 
L 627.408925 997.345742 
L 627.873177 998.067872 
L 628.64693 999.317358 
L 628.956431 999.677343 
L 631.277691 1003.216841 
L 631.896694 1004.150192 
L 632.825198 1005.310445 
L 634.372705 1007.125177 
L 634.991708 1007.870359 
L 638.860475 1011.764408 
L 639.324727 1012.158476 
L 640.09848 1012.757828 
L 640.407982 1012.921754 
L 641.645987 1013.78656 
L 642.883992 1014.653466 
L 643.812497 1015.248014 
L 645.824255 1017.074849 
L 651.240529 1021.676787 
L 653.097537 1022.993098 
L 654.490293 1024.072808 
L 655.418797 1024.667857 
L 656.966304 1025.741819 
L 658.20431 1026.693454 
L 664.239586 1031.009564 
L 666.096594 1032.379924 
L 667.953603 1033.721942 
L 675.226884 1037.682014 
L 676.000638 1038.114345 
L 677.083893 1038.674794 
L 678.012397 1039.142456 
L 678.940901 1039.732734 
L 680.178906 1040.515496 
L 684.511925 1043.228195 
L 685.285679 1043.693232 
L 686.368933 1044.260209 
L 688.225942 1045.301603 
L 689.773448 1046.220336 
L 691.011454 1046.930845 
L 693.177963 1048.039785 
L 694.415969 1048.766424 
L 696.737229 1050.267999 
L 699.832242 1052.287135 
L 703.701009 1054.396522 
L 715.462061 1061.049152 
L 717.628571 1062.385407 
L 722.735343 1065.396087 
L 723.973348 1066.162034 
L 727.223113 1067.884621 
L 732.639387 1070.503312 
L 735.115397 1071.593079 
L 736.508154 1072.222754 
L 738.984164 1073.416711 
L 740.531671 1074.092899 
L 742.852931 1075.043575 
L 745.638444 1076.086027 
L 748.423956 1077.131541 
L 754.613983 1079.505978 
L 756.625742 1080.235783 
L 759.101753 1081.133229 
L 764.363276 1083.031471 
L 768.232043 1084.661567 
L 770.862804 1085.675813 
L 787.575878 1091.921772 
L 807.229214 1098.826069 
L 816.359504 1101.726581 
L 820.847274 1103.153761 
L 826.573049 1104.766097 
L 828.739558 1105.36414 
L 844.833629 1109.316326 
L 848.238144 1110.091112 
L 857.058933 1112.404264 
L 861.546703 1113.793536 
L 865.57022 1114.751342 
L 869.284237 1115.831047 
L 872.843502 1116.711489 
L 877.486023 1117.956635 
L 881.35479 1119.144488 
L 883.985551 1119.915816 
L 886.925814 1120.661655 
L 889.711326 1121.392157 
L 903.638887 1125.976532 
L 911.840673 1129.172683 
L 922.827972 1132.919135 
L 927.934744 1134.534332 
L 929.637001 1135.007835 
L 932.267763 1135.640591 
L 933.970021 1135.859986 
L 935.362777 1136.049045 
L 936.600782 1136.208725 
L 942.481308 1136.787576 
L 943.409812 1136.912818 
L 944.957319 1137.030113 
L 954.706612 1136.965117 
L 954.706612 1136.965117 
" clip-path="url(#p5f241508b3)" style="fill: none; stroke: #2ca02c; stroke-width: 1.5; stroke-linecap: square"/>
   </g>
   <g id="line2d_72">
    <path d="M 608.838843 1038.072641 
L 609.148344 988.297967 
L 609.612596 959.851521 
L 610.076848 945.058015 
L 610.38635 939.076289 
L 610.850602 934.510991 
L 611.314854 933.451027 
L 611.624355 933.94196 
L 611.779106 933.982237 
L 612.398109 937.696477 
L 613.636114 946.189654 
L 615.183621 959.494329 
L 616.885878 971.2947 
L 618.278634 979.768037 
L 619.207138 984.650076 
L 619.826141 987.299143 
L 620.599895 990.697101 
L 621.373648 994.083387 
L 623.540158 1002.401505 
L 627.718426 1014.987177 
L 629.884935 1019.87707 
L 630.349187 1020.858794 
L 631.741944 1023.756454 
L 633.444201 1027.19916 
L 634.527456 1029.167844 
L 635.146458 1030.27206 
L 641.181735 1039.852761 
L 643.038743 1042.298567 
L 643.812497 1043.205599 
L 648.455017 1049.080504 
L 654.490293 1056.959664 
L 657.894808 1060.573482 
L 664.084836 1067.456074 
L 666.096594 1069.228514 
L 671.667619 1074.032721 
L 672.596123 1074.845247 
L 675.691137 1077.750402 
L 677.083893 1079.031772 
L 678.476649 1080.177159 
L 683.119169 1083.829171 
L 684.666676 1085.103194 
L 698.594237 1096.267165 
L 699.522741 1096.976761 
L 701.689251 1098.65705 
L 703.391508 1099.713052 
L 704.165262 1100.108584 
L 705.558018 1100.884619 
L 707.724527 1102.31119 
L 709.272034 1103.347198 
L 712.521798 1105.568433 
L 713.450302 1106.14457 
L 715.30731 1107.246021 
L 716.545316 1108.005228 
L 717.47382 1108.520364 
L 719.79508 1109.94045 
L 721.652088 1111.058835 
L 731.865633 1116.952325 
L 733.877392 1118.122356 
L 735.579649 1118.943273 
L 737.436658 1119.921675 
L 739.757918 1121.133171 
L 740.995923 1121.739944 
L 744.245688 1123.510304 
L 752.756975 1127.434023 
L 754.149731 1127.92522 
L 761.268262 1130.522268 
L 762.97052 1131.053509 
L 767.61304 1132.589512 
L 777.517084 1135.416389 
L 785.099867 1136.748422 
L 790.36139 1137.375576 
L 794.230157 1138.005003 
L 798.098924 1138.408283 
L 803.360447 1138.978675 
L 807.229214 1139.410418 
L 812.026485 1139.568884 
L 813.883493 1139.616204 
L 825.799296 1140.296403 
L 834.465334 1140.308006 
L 836.941345 1140.370642 
L 849.47615 1140.531389 
L 854.737673 1140.751941 
L 859.534944 1140.922995 
L 873.462505 1141.219831 
L 879.652532 1141.312703 
L 893.425343 1141.435149 
L 897.913112 1141.180783 
L 921.744717 1138.866829 
L 927.160991 1138.366961 
L 932.422514 1137.934838 
L 944.802568 1137.197144 
L 952.849603 1136.97694 
L 954.706612 1136.966292 
L 954.706612 1136.966292 
" clip-path="url(#p5f241508b3)" style="fill: none; stroke: #d62728; stroke-width: 1.5; stroke-linecap: square"/>
   </g>
   <g id="patch_40">
    <path d="M 591.545455 1153.44 
L 591.545455 890.829474 
" style="fill: none; stroke: #000000; stroke-width: 0.8; stroke-linejoin: miter; stroke-linecap: square"/>
   </g>
   <g id="patch_41">
    <path d="M 972 1153.44 
L 972 890.829474 
" style="fill: none; stroke: #000000; stroke-width: 0.8; stroke-linejoin: miter; stroke-linecap: square"/>
   </g>
   <g id="patch_42">
    <path d="M 591.545455 1153.44 
L 972 1153.44 
" style="fill: none; stroke: #000000; stroke-width: 0.8; stroke-linejoin: miter; stroke-linecap: square"/>
   </g>
   <g id="patch_43">
    <path d="M 591.545455 890.829474 
L 972 890.829474 
" style="fill: none; stroke: #000000; stroke-width: 0.8; stroke-linejoin: miter; stroke-linecap: square"/>
   </g>
   <g id="text_72">
    <!-- f -->
    <g transform="translate(552.733636 872.71352) scale(0.28 -0.28)">
     <defs>
      <path id="DejaVuSans-Bold-66" d="M 2841 4863 
L 2841 4128 
L 2222 4128 
Q 1984 4128 1890 4042 
Q 1797 3956 1797 3744 
L 1797 3500 
L 2753 3500 
L 2753 2700 
L 1797 2700 
L 1797 0 
L 678 0 
L 678 2700 
L 122 2700 
L 122 3500 
L 678 3500 
L 678 3744 
Q 678 4316 997 4589 
Q 1316 4863 1984 4863 
L 2841 4863 
z
" transform="scale(0.015625)"/>
     </defs>
     <use xlink:href="#DejaVuSans-Bold-66"/>
    </g>
   </g>
   <g id="text_73">
    <!-- LCMC -->
    <g transform="translate(747.973977 884.829474) scale(0.24 -0.24)">
     <defs>
      <path id="DejaVuSans-4c" d="M 628 4666 
L 1259 4666 
L 1259 531 
L 3531 531 
L 3531 0 
L 628 0 
L 628 4666 
z
" transform="scale(0.015625)"/>
     </defs>
     <use xlink:href="#DejaVuSans-4c"/>
     <use xlink:href="#DejaVuSans-43" x="55.712891"/>
     <use xlink:href="#DejaVuSans-4d" x="125.537109"/>
     <use xlink:href="#DejaVuSans-43" x="211.816406"/>
    </g>
   </g>
  </g>
 </g>
 <defs>
  <clipPath id="p955c89825e">
   <rect x="135" y="155.52" width="380.454545" height="262.610526"/>
  </clipPath>
  <clipPath id="p9d57d55f1c">
   <rect x="591.545455" y="155.52" width="380.454545" height="262.610526"/>
  </clipPath>
  <clipPath id="p11beb124a6">
   <rect x="135" y="523.174737" width="380.454545" height="262.610526"/>
  </clipPath>
  <clipPath id="pf1d72ce18e">
   <rect x="591.545455" y="523.174737" width="380.454545" height="262.610526"/>
  </clipPath>
  <clipPath id="pec34605e1d">
   <rect x="135" y="890.829474" width="380.454545" height="262.610526"/>
  </clipPath>
  <clipPath id="p5f241508b3">
   <rect x="591.545455" y="890.829474" width="380.454545" height="262.610526"/>
  </clipPath>
 </defs>
</svg>
