<?xml version="1.0" encoding="utf-8" standalone="no"?>
<!DOCTYPE svg PUBLIC "-//W3C//DTD SVG 1.1//EN"
  "http://www.w3.org/Graphics/SVG/1.1/DTD/svg11.dtd">
<svg xmlns:xlink="http://www.w3.org/1999/xlink" width="1080pt" height="1296pt" viewBox="0 0 1080 1296" xmlns="http://www.w3.org/2000/svg" version="1.1">
 <metadata>
  <rdf:RDF xmlns:dc="http://purl.org/dc/elements/1.1/" xmlns:cc="http://creativecommons.org/ns#" xmlns:rdf="http://www.w3.org/1999/02/22-rdf-syntax-ns#">
   <cc:Work>
    <dc:type rdf:resource="http://purl.org/dc/dcmitype/StillImage"/>
    <dc:date>2024-07-23T23:09:22.324948</dc:date>
    <dc:format>image/svg+xml</dc:format>
    <dc:creator>
     <cc:Agent>
      <dc:title>Matplotlib v3.8.4, https://matplotlib.org/</dc:title>
     </cc:Agent>
    </dc:creator>
   </cc:Work>
  </rdf:RDF>
 </metadata>
 <defs>
  <style type="text/css">*{stroke-linejoin: round; stroke-linecap: butt}</style>
 </defs>
 <g id="figure_1">
  <g id="patch_1">
   <path d="M 0 1296 
L 1080 1296 
L 1080 0 
L 0 0 
z
" style="fill: #ffffff"/>
  </g>
  <g id="axes_1">
   <g id="patch_2">
    <path d="M 135 418.130526 
L 515.454545 418.130526 
L 515.454545 155.52 
L 135 155.52 
z
" style="fill: #ffffff"/>
   </g>
   <g id="matplotlib.axis_1">
    <g id="xtick_1">
     <g id="line2d_1">
      <defs>
       <path id="m1d94be67b5" d="M 0 0 
L 0 3.5 
" style="stroke: #000000; stroke-width: 0.8"/>
      </defs>
      <g>
       <use xlink:href="#m1d94be67b5" x="137.882231" y="418.130526" style="stroke: #000000; stroke-width: 0.8"/>
      </g>
     </g>
     <g id="text_1">
      <!-- 0 -->
      <g transform="translate(131.519731 440.327401) scale(0.2 -0.2)">
       <defs>
        <path id="DejaVuSans-30" d="M 2034 4250 
Q 1547 4250 1301 3770 
Q 1056 3291 1056 2328 
Q 1056 1369 1301 889 
Q 1547 409 2034 409 
Q 2525 409 2770 889 
Q 3016 1369 3016 2328 
Q 3016 3291 2770 3770 
Q 2525 4250 2034 4250 
z
M 2034 4750 
Q 2819 4750 3233 4129 
Q 3647 3509 3647 2328 
Q 3647 1150 3233 529 
Q 2819 -91 2034 -91 
Q 1250 -91 836 529 
Q 422 1150 422 2328 
Q 422 3509 836 4129 
Q 1250 4750 2034 4750 
z
" transform="scale(0.015625)"/>
       </defs>
       <use xlink:href="#DejaVuSans-30"/>
      </g>
     </g>
    </g>
    <g id="xtick_2">
     <g id="line2d_2">
      <g>
       <use xlink:href="#m1d94be67b5" x="209.938017" y="418.130526" style="stroke: #000000; stroke-width: 0.8"/>
      </g>
     </g>
     <g id="text_2">
      <!-- 10 -->
      <g transform="translate(197.213017 440.327401) scale(0.2 -0.2)">
       <defs>
        <path id="DejaVuSans-31" d="M 794 531 
L 1825 531 
L 1825 4091 
L 703 3866 
L 703 4441 
L 1819 4666 
L 2450 4666 
L 2450 531 
L 3481 531 
L 3481 0 
L 794 0 
L 794 531 
z
" transform="scale(0.015625)"/>
       </defs>
       <use xlink:href="#DejaVuSans-31"/>
       <use xlink:href="#DejaVuSans-30" x="63.623047"/>
      </g>
     </g>
    </g>
    <g id="xtick_3">
     <g id="line2d_3">
      <g>
       <use xlink:href="#m1d94be67b5" x="281.993802" y="418.130526" style="stroke: #000000; stroke-width: 0.8"/>
      </g>
     </g>
     <g id="text_3">
      <!-- 20 -->
      <g transform="translate(269.268802 440.327401) scale(0.2 -0.2)">
       <defs>
        <path id="DejaVuSans-32" d="M 1228 531 
L 3431 531 
L 3431 0 
L 469 0 
L 469 531 
Q 828 903 1448 1529 
Q 2069 2156 2228 2338 
Q 2531 2678 2651 2914 
Q 2772 3150 2772 3378 
Q 2772 3750 2511 3984 
Q 2250 4219 1831 4219 
Q 1534 4219 1204 4116 
Q 875 4013 500 3803 
L 500 4441 
Q 881 4594 1212 4672 
Q 1544 4750 1819 4750 
Q 2544 4750 2975 4387 
Q 3406 4025 3406 3419 
Q 3406 3131 3298 2873 
Q 3191 2616 2906 2266 
Q 2828 2175 2409 1742 
Q 1991 1309 1228 531 
z
" transform="scale(0.015625)"/>
       </defs>
       <use xlink:href="#DejaVuSans-32"/>
       <use xlink:href="#DejaVuSans-30" x="63.623047"/>
      </g>
     </g>
    </g>
    <g id="xtick_4">
     <g id="line2d_4">
      <g>
       <use xlink:href="#m1d94be67b5" x="354.049587" y="418.130526" style="stroke: #000000; stroke-width: 0.8"/>
      </g>
     </g>
     <g id="text_4">
      <!-- 30 -->
      <g transform="translate(341.324587 440.327401) scale(0.2 -0.2)">
       <defs>
        <path id="DejaVuSans-33" d="M 2597 2516 
Q 3050 2419 3304 2112 
Q 3559 1806 3559 1356 
Q 3559 666 3084 287 
Q 2609 -91 1734 -91 
Q 1441 -91 1130 -33 
Q 819 25 488 141 
L 488 750 
Q 750 597 1062 519 
Q 1375 441 1716 441 
Q 2309 441 2620 675 
Q 2931 909 2931 1356 
Q 2931 1769 2642 2001 
Q 2353 2234 1838 2234 
L 1294 2234 
L 1294 2753 
L 1863 2753 
Q 2328 2753 2575 2939 
Q 2822 3125 2822 3475 
Q 2822 3834 2567 4026 
Q 2313 4219 1838 4219 
Q 1578 4219 1281 4162 
Q 984 4106 628 3988 
L 628 4550 
Q 988 4650 1302 4700 
Q 1616 4750 1894 4750 
Q 2613 4750 3031 4423 
Q 3450 4097 3450 3541 
Q 3450 3153 3228 2886 
Q 3006 2619 2597 2516 
z
" transform="scale(0.015625)"/>
       </defs>
       <use xlink:href="#DejaVuSans-33"/>
       <use xlink:href="#DejaVuSans-30" x="63.623047"/>
      </g>
     </g>
    </g>
    <g id="xtick_5">
     <g id="line2d_5">
      <g>
       <use xlink:href="#m1d94be67b5" x="426.105372" y="418.130526" style="stroke: #000000; stroke-width: 0.8"/>
      </g>
     </g>
     <g id="text_5">
      <!-- 40 -->
      <g transform="translate(413.380372 440.327401) scale(0.2 -0.2)">
       <defs>
        <path id="DejaVuSans-34" d="M 2419 4116 
L 825 1625 
L 2419 1625 
L 2419 4116 
z
M 2253 4666 
L 3047 4666 
L 3047 1625 
L 3713 1625 
L 3713 1100 
L 3047 1100 
L 3047 0 
L 2419 0 
L 2419 1100 
L 313 1100 
L 313 1709 
L 2253 4666 
z
" transform="scale(0.015625)"/>
       </defs>
       <use xlink:href="#DejaVuSans-34"/>
       <use xlink:href="#DejaVuSans-30" x="63.623047"/>
      </g>
     </g>
    </g>
    <g id="xtick_6">
     <g id="line2d_6">
      <g>
       <use xlink:href="#m1d94be67b5" x="498.161157" y="418.130526" style="stroke: #000000; stroke-width: 0.8"/>
      </g>
     </g>
     <g id="text_6">
      <!-- 50 -->
      <g transform="translate(485.436157 440.327401) scale(0.2 -0.2)">
       <defs>
        <path id="DejaVuSans-35" d="M 691 4666 
L 3169 4666 
L 3169 4134 
L 1269 4134 
L 1269 2991 
Q 1406 3038 1543 3061 
Q 1681 3084 1819 3084 
Q 2600 3084 3056 2656 
Q 3513 2228 3513 1497 
Q 3513 744 3044 326 
Q 2575 -91 1722 -91 
Q 1428 -91 1123 -41 
Q 819 9 494 109 
L 494 744 
Q 775 591 1075 516 
Q 1375 441 1709 441 
Q 2250 441 2565 725 
Q 2881 1009 2881 1497 
Q 2881 1984 2565 2268 
Q 2250 2553 1709 2553 
Q 1456 2553 1204 2497 
Q 953 2441 691 2322 
L 691 4666 
z
" transform="scale(0.015625)"/>
       </defs>
       <use xlink:href="#DejaVuSans-35"/>
       <use xlink:href="#DejaVuSans-30" x="63.623047"/>
      </g>
     </g>
    </g>
    <g id="text_7">
     <!-- k -->
     <g transform="translate(318.278523 466.723026) scale(0.24 -0.24)">
      <defs>
       <path id="DejaVuSans-6b" d="M 581 4863 
L 1159 4863 
L 1159 1991 
L 2875 3500 
L 3609 3500 
L 1753 1863 
L 3688 0 
L 2938 0 
L 1159 1709 
L 1159 0 
L 581 0 
L 581 4863 
z
" transform="scale(0.015625)"/>
      </defs>
      <use xlink:href="#DejaVuSans-6b"/>
     </g>
    </g>
   </g>
   <g id="matplotlib.axis_2">
    <g id="ytick_1">
     <g id="line2d_7">
      <defs>
       <path id="m899a81ff3a" d="M 0 0 
L -3.5 0 
" style="stroke: #000000; stroke-width: 0.8"/>
      </defs>
      <g>
       <use xlink:href="#m899a81ff3a" x="135" y="418.130526" style="stroke: #000000; stroke-width: 0.8"/>
      </g>
     </g>
     <g id="text_8">
      <!-- 0.0 -->
      <g transform="translate(96.19375 425.728964) scale(0.2 -0.2)">
       <defs>
        <path id="DejaVuSans-2e" d="M 684 794 
L 1344 794 
L 1344 0 
L 684 0 
L 684 794 
z
" transform="scale(0.015625)"/>
       </defs>
       <use xlink:href="#DejaVuSans-30"/>
       <use xlink:href="#DejaVuSans-2e" x="63.623047"/>
       <use xlink:href="#DejaVuSans-30" x="95.410156"/>
      </g>
     </g>
    </g>
    <g id="ytick_2">
     <g id="line2d_8">
      <g>
       <use xlink:href="#m899a81ff3a" x="135" y="352.477895" style="stroke: #000000; stroke-width: 0.8"/>
      </g>
     </g>
     <g id="text_9">
      <!-- 0.2 -->
      <g transform="translate(96.19375 360.076332) scale(0.2 -0.2)">
       <use xlink:href="#DejaVuSans-30"/>
       <use xlink:href="#DejaVuSans-2e" x="63.623047"/>
       <use xlink:href="#DejaVuSans-32" x="95.410156"/>
      </g>
     </g>
    </g>
    <g id="ytick_3">
     <g id="line2d_9">
      <g>
       <use xlink:href="#m899a81ff3a" x="135" y="286.825263" style="stroke: #000000; stroke-width: 0.8"/>
      </g>
     </g>
     <g id="text_10">
      <!-- 0.4 -->
      <g transform="translate(96.19375 294.423701) scale(0.2 -0.2)">
       <use xlink:href="#DejaVuSans-30"/>
       <use xlink:href="#DejaVuSans-2e" x="63.623047"/>
       <use xlink:href="#DejaVuSans-34" x="95.410156"/>
      </g>
     </g>
    </g>
    <g id="ytick_4">
     <g id="line2d_10">
      <g>
       <use xlink:href="#m899a81ff3a" x="135" y="221.172632" style="stroke: #000000; stroke-width: 0.8"/>
      </g>
     </g>
     <g id="text_11">
      <!-- 0.6 -->
      <g transform="translate(96.19375 228.771069) scale(0.2 -0.2)">
       <defs>
        <path id="DejaVuSans-36" d="M 2113 2584 
Q 1688 2584 1439 2293 
Q 1191 2003 1191 1497 
Q 1191 994 1439 701 
Q 1688 409 2113 409 
Q 2538 409 2786 701 
Q 3034 994 3034 1497 
Q 3034 2003 2786 2293 
Q 2538 2584 2113 2584 
z
M 3366 4563 
L 3366 3988 
Q 3128 4100 2886 4159 
Q 2644 4219 2406 4219 
Q 1781 4219 1451 3797 
Q 1122 3375 1075 2522 
Q 1259 2794 1537 2939 
Q 1816 3084 2150 3084 
Q 2853 3084 3261 2657 
Q 3669 2231 3669 1497 
Q 3669 778 3244 343 
Q 2819 -91 2113 -91 
Q 1303 -91 875 529 
Q 447 1150 447 2328 
Q 447 3434 972 4092 
Q 1497 4750 2381 4750 
Q 2619 4750 2861 4703 
Q 3103 4656 3366 4563 
z
" transform="scale(0.015625)"/>
       </defs>
       <use xlink:href="#DejaVuSans-30"/>
       <use xlink:href="#DejaVuSans-2e" x="63.623047"/>
       <use xlink:href="#DejaVuSans-36" x="95.410156"/>
      </g>
     </g>
    </g>
    <g id="ytick_5">
     <g id="line2d_11">
      <g>
       <use xlink:href="#m899a81ff3a" x="135" y="155.52" style="stroke: #000000; stroke-width: 0.8"/>
      </g>
     </g>
     <g id="text_12">
      <!-- 0.8 -->
      <g transform="translate(96.19375 163.118438) scale(0.2 -0.2)">
       <defs>
        <path id="DejaVuSans-38" d="M 2034 2216 
Q 1584 2216 1326 1975 
Q 1069 1734 1069 1313 
Q 1069 891 1326 650 
Q 1584 409 2034 409 
Q 2484 409 2743 651 
Q 3003 894 3003 1313 
Q 3003 1734 2745 1975 
Q 2488 2216 2034 2216 
z
M 1403 2484 
Q 997 2584 770 2862 
Q 544 3141 544 3541 
Q 544 4100 942 4425 
Q 1341 4750 2034 4750 
Q 2731 4750 3128 4425 
Q 3525 4100 3525 3541 
Q 3525 3141 3298 2862 
Q 3072 2584 2669 2484 
Q 3125 2378 3379 2068 
Q 3634 1759 3634 1313 
Q 3634 634 3220 271 
Q 2806 -91 2034 -91 
Q 1263 -91 848 271 
Q 434 634 434 1313 
Q 434 1759 690 2068 
Q 947 2378 1403 2484 
z
M 1172 3481 
Q 1172 3119 1398 2916 
Q 1625 2713 2034 2713 
Q 2441 2713 2670 2916 
Q 2900 3119 2900 3481 
Q 2900 3844 2670 4047 
Q 2441 4250 2034 4250 
Q 1625 4250 1398 4047 
Q 1172 3844 1172 3481 
z
" transform="scale(0.015625)"/>
       </defs>
       <use xlink:href="#DejaVuSans-30"/>
       <use xlink:href="#DejaVuSans-2e" x="63.623047"/>
       <use xlink:href="#DejaVuSans-38" x="95.410156"/>
      </g>
     </g>
    </g>
    <g id="text_13">
     <!-- $P_{NN}$ -->
     <g transform="translate(87.2025 306.985263) rotate(-90) scale(0.24 -0.24)">
      <defs>
       <path id="DejaVuSans-Oblique-50" d="M 1081 4666 
L 2541 4666 
Q 3178 4666 3512 4369 
Q 3847 4072 3847 3500 
Q 3847 2731 3353 2303 
Q 2859 1875 1966 1875 
L 1172 1875 
L 806 0 
L 172 0 
L 1081 4666 
z
M 1613 4147 
L 1275 2394 
L 2069 2394 
Q 2606 2394 2893 2669 
Q 3181 2944 3181 3456 
Q 3181 3784 2986 3965 
Q 2791 4147 2438 4147 
L 1613 4147 
z
" transform="scale(0.015625)"/>
       <path id="DejaVuSans-Oblique-4e" d="M 1081 4666 
L 1931 4666 
L 3219 666 
L 4000 4666 
L 4616 4666 
L 3706 0 
L 2853 0 
L 1569 4025 
L 788 0 
L 172 0 
L 1081 4666 
z
" transform="scale(0.015625)"/>
      </defs>
      <use xlink:href="#DejaVuSans-Oblique-50" transform="translate(0 0.09375)"/>
      <use xlink:href="#DejaVuSans-Oblique-4e" transform="translate(60.302734 -16.3125) scale(0.7)"/>
      <use xlink:href="#DejaVuSans-Oblique-4e" transform="translate(112.666016 -16.3125) scale(0.7)"/>
     </g>
    </g>
   </g>
   <g id="line2d_12">
    <path d="M 152.293388 372.787068 
L 173.910124 360.812873 
L 209.938017 354.649685 
L 281.993802 349.49902 
L 498.161157 341.052517 
" clip-path="url(#p68d774d29f)" style="fill: none; stroke: #1f77b4; stroke-width: 1.5; stroke-linecap: square"/>
    <defs>
     <path id="m3b093f0b43" d="M 0 3 
C 0.795609 3 1.55874 2.683901 2.12132 2.12132 
C 2.683901 1.55874 3 0.795609 3 0 
C 3 -0.795609 2.683901 -1.55874 2.12132 -2.12132 
C 1.55874 -2.683901 0.795609 -3 0 -3 
C -0.795609 -3 -1.55874 -2.683901 -2.12132 -2.12132 
C -2.683901 -1.55874 -3 -0.795609 -3 0 
C -3 0.795609 -2.683901 1.55874 -2.12132 2.12132 
C -1.55874 2.683901 -0.795609 3 0 3 
z
" style="stroke: #1f77b4"/>
    </defs>
    <g clip-path="url(#p68d774d29f)">
     <use xlink:href="#m3b093f0b43" x="152.293388" y="372.787068" style="fill: #1f77b4; stroke: #1f77b4"/>
     <use xlink:href="#m3b093f0b43" x="173.910124" y="360.812873" style="fill: #1f77b4; stroke: #1f77b4"/>
     <use xlink:href="#m3b093f0b43" x="209.938017" y="354.649685" style="fill: #1f77b4; stroke: #1f77b4"/>
     <use xlink:href="#m3b093f0b43" x="281.993802" y="349.49902" style="fill: #1f77b4; stroke: #1f77b4"/>
     <use xlink:href="#m3b093f0b43" x="498.161157" y="341.052517" style="fill: #1f77b4; stroke: #1f77b4"/>
    </g>
   </g>
   <g id="line2d_13">
    <path d="M 152.293388 222.375921 
L 173.910124 204.561371 
L 209.938017 194.098625 
L 281.993802 205.852706 
L 498.161157 242.106928 
" clip-path="url(#p68d774d29f)" style="fill: none; stroke: #ff7f0e; stroke-width: 1.5; stroke-linecap: square"/>
    <defs>
     <path id="mae69a43142" d="M 0 3 
C 0.795609 3 1.55874 2.683901 2.12132 2.12132 
C 2.683901 1.55874 3 0.795609 3 0 
C 3 -0.795609 2.683901 -1.55874 2.12132 -2.12132 
C 1.55874 -2.683901 0.795609 -3 0 -3 
C -0.795609 -3 -1.55874 -2.683901 -2.12132 -2.12132 
C -2.683901 -1.55874 -3 -0.795609 -3 0 
C -3 0.795609 -2.683901 1.55874 -2.12132 2.12132 
C -1.55874 2.683901 -0.795609 3 0 3 
z
" style="stroke: #ff7f0e"/>
    </defs>
    <g clip-path="url(#p68d774d29f)">
     <use xlink:href="#mae69a43142" x="152.293388" y="222.375921" style="fill: #ff7f0e; stroke: #ff7f0e"/>
     <use xlink:href="#mae69a43142" x="173.910124" y="204.561371" style="fill: #ff7f0e; stroke: #ff7f0e"/>
     <use xlink:href="#mae69a43142" x="209.938017" y="194.098625" style="fill: #ff7f0e; stroke: #ff7f0e"/>
     <use xlink:href="#mae69a43142" x="281.993802" y="205.852706" style="fill: #ff7f0e; stroke: #ff7f0e"/>
     <use xlink:href="#mae69a43142" x="498.161157" y="242.106928" style="fill: #ff7f0e; stroke: #ff7f0e"/>
    </g>
   </g>
   <g id="line2d_14">
    <path d="M 152.293388 303.818054 
L 173.910124 251.460301 
L 209.938017 219.837274 
L 281.993802 215.156186 
L 498.161157 245.44679 
" clip-path="url(#p68d774d29f)" style="fill: none; stroke: #2ca02c; stroke-width: 1.5; stroke-linecap: square"/>
    <defs>
     <path id="m6de50d4cff" d="M 0 3 
C 0.795609 3 1.55874 2.683901 2.12132 2.12132 
C 2.683901 1.55874 3 0.795609 3 0 
C 3 -0.795609 2.683901 -1.55874 2.12132 -2.12132 
C 1.55874 -2.683901 0.795609 -3 0 -3 
C -0.795609 -3 -1.55874 -2.683901 -2.12132 -2.12132 
C -2.683901 -1.55874 -3 -0.795609 -3 0 
C -3 0.795609 -2.683901 1.55874 -2.12132 2.12132 
C -1.55874 2.683901 -0.795609 3 0 3 
z
" style="stroke: #2ca02c"/>
    </defs>
    <g clip-path="url(#p68d774d29f)">
     <use xlink:href="#m6de50d4cff" x="152.293388" y="303.818054" style="fill: #2ca02c; stroke: #2ca02c"/>
     <use xlink:href="#m6de50d4cff" x="173.910124" y="251.460301" style="fill: #2ca02c; stroke: #2ca02c"/>
     <use xlink:href="#m6de50d4cff" x="209.938017" y="219.837274" style="fill: #2ca02c; stroke: #2ca02c"/>
     <use xlink:href="#m6de50d4cff" x="281.993802" y="215.156186" style="fill: #2ca02c; stroke: #2ca02c"/>
     <use xlink:href="#m6de50d4cff" x="498.161157" y="245.44679" style="fill: #2ca02c; stroke: #2ca02c"/>
    </g>
   </g>
   <g id="line2d_15">
    <path d="M 152.293388 296.554296 
L 173.910124 256.801731 
L 209.938017 230.842968 
L 281.993802 223.703941 
L 498.161157 253.006968 
" clip-path="url(#p68d774d29f)" style="fill: none; stroke: #d62728; stroke-width: 1.5; stroke-linecap: square"/>
    <defs>
     <path id="m9f6cd6ef6c" d="M 0 3 
C 0.795609 3 1.55874 2.683901 2.12132 2.12132 
C 2.683901 1.55874 3 0.795609 3 0 
C 3 -0.795609 2.683901 -1.55874 2.12132 -2.12132 
C 1.55874 -2.683901 0.795609 -3 0 -3 
C -0.795609 -3 -1.55874 -2.683901 -2.12132 -2.12132 
C -2.683901 -1.55874 -3 -0.795609 -3 0 
C -3 0.795609 -2.683901 1.55874 -2.12132 2.12132 
C -1.55874 2.683901 -0.795609 3 0 3 
z
" style="stroke: #d62728"/>
    </defs>
    <g clip-path="url(#p68d774d29f)">
     <use xlink:href="#m9f6cd6ef6c" x="152.293388" y="296.554296" style="fill: #d62728; stroke: #d62728"/>
     <use xlink:href="#m9f6cd6ef6c" x="173.910124" y="256.801731" style="fill: #d62728; stroke: #d62728"/>
     <use xlink:href="#m9f6cd6ef6c" x="209.938017" y="230.842968" style="fill: #d62728; stroke: #d62728"/>
     <use xlink:href="#m9f6cd6ef6c" x="281.993802" y="223.703941" style="fill: #d62728; stroke: #d62728"/>
     <use xlink:href="#m9f6cd6ef6c" x="498.161157" y="253.006968" style="fill: #d62728; stroke: #d62728"/>
    </g>
   </g>
   <g id="patch_3">
    <path d="M 135 418.130526 
L 135 155.52 
" style="fill: none; stroke: #000000; stroke-width: 0.8; stroke-linejoin: miter; stroke-linecap: square"/>
   </g>
   <g id="patch_4">
    <path d="M 515.454545 418.130526 
L 515.454545 155.52 
" style="fill: none; stroke: #000000; stroke-width: 0.8; stroke-linejoin: miter; stroke-linecap: square"/>
   </g>
   <g id="patch_5">
    <path d="M 135 418.130526 
L 515.454545 418.130526 
" style="fill: none; stroke: #000000; stroke-width: 0.8; stroke-linejoin: miter; stroke-linecap: square"/>
   </g>
   <g id="patch_6">
    <path d="M 135 155.52 
L 515.454545 155.52 
" style="fill: none; stroke: #000000; stroke-width: 0.8; stroke-linejoin: miter; stroke-linecap: square"/>
   </g>
   <g id="text_14">
    <!-- a -->
    <g transform="translate(89.472557 137.404046) scale(0.28 -0.28)">
     <defs>
      <path id="DejaVuSans-Bold-61" d="M 2106 1575 
Q 1756 1575 1579 1456 
Q 1403 1338 1403 1106 
Q 1403 894 1545 773 
Q 1688 653 1941 653 
Q 2256 653 2472 879 
Q 2688 1106 2688 1447 
L 2688 1575 
L 2106 1575 
z
M 3816 1997 
L 3816 0 
L 2688 0 
L 2688 519 
Q 2463 200 2181 54 
Q 1900 -91 1497 -91 
Q 953 -91 614 226 
Q 275 544 275 1050 
Q 275 1666 698 1953 
Q 1122 2241 2028 2241 
L 2688 2241 
L 2688 2328 
Q 2688 2594 2478 2717 
Q 2269 2841 1825 2841 
Q 1466 2841 1156 2769 
Q 847 2697 581 2553 
L 581 3406 
Q 941 3494 1303 3539 
Q 1666 3584 2028 3584 
Q 2975 3584 3395 3211 
Q 3816 2838 3816 1997 
z
" transform="scale(0.015625)"/>
     </defs>
     <use xlink:href="#DejaVuSans-Bold-61"/>
    </g>
   </g>
   <g id="text_15">
    <!-- $P_{NN}$ -->
    <g transform="translate(303.387273 149.52) scale(0.26 -0.26)">
     <use xlink:href="#DejaVuSans-Oblique-50" transform="translate(0 0.09375)"/>
     <use xlink:href="#DejaVuSans-Oblique-4e" transform="translate(60.302734 -16.3125) scale(0.7)"/>
     <use xlink:href="#DejaVuSans-Oblique-4e" transform="translate(112.666016 -16.3125) scale(0.7)"/>
    </g>
   </g>
  </g>
  <g id="axes_2">
   <g id="patch_7">
    <path d="M 591.545455 418.130526 
L 972 418.130526 
L 972 155.52 
L 591.545455 155.52 
z
" style="fill: #ffffff"/>
   </g>
   <g id="patch_8">
    <path d="M 608.838843 418.130526 
L 628.792753 418.130526 
L 628.792753 199.166327 
L 608.838843 199.166327 
z
" clip-path="url(#p66c0ad35ae)" style="fill: #1f77b4"/>
   </g>
   <g id="patch_9">
    <path d="M 741.864908 418.130526 
L 761.818818 418.130526 
L 761.818818 309.992729 
L 741.864908 309.992729 
z
" clip-path="url(#p66c0ad35ae)" style="fill: #1f77b4"/>
   </g>
   <g id="patch_10">
    <path d="M 874.890973 418.130526 
L 894.844882 418.130526 
L 894.844882 168.025263 
L 874.890973 168.025263 
z
" clip-path="url(#p66c0ad35ae)" style="fill: #1f77b4"/>
   </g>
   <g id="patch_11">
    <path d="M 628.792753 418.130526 
L 648.746662 418.130526 
L 648.746662 198.230411 
L 628.792753 198.230411 
z
" clip-path="url(#p66c0ad35ae)" style="fill: #ff7f0e"/>
   </g>
   <g id="patch_12">
    <path d="M 761.818818 418.130526 
L 781.772727 418.130526 
L 781.772727 204.747348 
L 761.818818 204.747348 
z
" clip-path="url(#p66c0ad35ae)" style="fill: #ff7f0e"/>
   </g>
   <g id="patch_13">
    <path d="M 894.844882 418.130526 
L 914.798792 418.130526 
L 914.798792 198.146269 
L 894.844882 198.146269 
z
" clip-path="url(#p66c0ad35ae)" style="fill: #ff7f0e"/>
   </g>
   <g id="patch_14">
    <path d="M 648.746662 418.130526 
L 668.700572 418.130526 
L 668.700572 192.504123 
L 648.746662 192.504123 
z
" clip-path="url(#p66c0ad35ae)" style="fill: #2ca02c"/>
   </g>
   <g id="patch_15">
    <path d="M 781.772727 418.130526 
L 801.726637 418.130526 
L 801.726637 242.354563 
L 781.772727 242.354563 
z
" clip-path="url(#p66c0ad35ae)" style="fill: #2ca02c"/>
   </g>
   <g id="patch_16">
    <path d="M 914.798792 418.130526 
L 934.752702 418.130526 
L 934.752702 192.120746 
L 914.798792 192.120746 
z
" clip-path="url(#p66c0ad35ae)" style="fill: #2ca02c"/>
   </g>
   <g id="patch_17">
    <path d="M 668.700572 418.130526 
L 688.654482 418.130526 
L 688.654482 230.245381 
L 668.700572 230.245381 
z
" clip-path="url(#p66c0ad35ae)" style="fill: #d62728"/>
   </g>
   <g id="patch_18">
    <path d="M 801.726637 418.130526 
L 821.680547 418.130526 
L 821.680547 246.804738 
L 801.726637 246.804738 
z
" clip-path="url(#p66c0ad35ae)" style="fill: #d62728"/>
   </g>
   <g id="patch_19">
    <path d="M 934.752702 418.130526 
L 954.706612 418.130526 
L 954.706612 230.101779 
L 934.752702 230.101779 
z
" clip-path="url(#p66c0ad35ae)" style="fill: #d62728"/>
   </g>
   <g id="matplotlib.axis_3">
    <g id="xtick_7">
     <g id="line2d_16">
      <g>
       <use xlink:href="#m1d94be67b5" x="648.746662" y="418.130526" style="stroke: #000000; stroke-width: 0.8"/>
      </g>
     </g>
     <g id="text_16">
      <!-- AUC -->
      <g transform="translate(625.490256 441.847089) scale(0.22 -0.22)">
       <defs>
        <path id="DejaVuSans-41" d="M 2188 4044 
L 1331 1722 
L 3047 1722 
L 2188 4044 
z
M 1831 4666 
L 2547 4666 
L 4325 0 
L 3669 0 
L 3244 1197 
L 1141 1197 
L 716 0 
L 50 0 
L 1831 4666 
z
" transform="scale(0.015625)"/>
        <path id="DejaVuSans-55" d="M 556 4666 
L 1191 4666 
L 1191 1831 
Q 1191 1081 1462 751 
Q 1734 422 2344 422 
Q 2950 422 3222 751 
Q 3494 1081 3494 1831 
L 3494 4666 
L 4128 4666 
L 4128 1753 
Q 4128 841 3676 375 
Q 3225 -91 2344 -91 
Q 1459 -91 1007 375 
Q 556 841 556 1753 
L 556 4666 
z
" transform="scale(0.015625)"/>
        <path id="DejaVuSans-43" d="M 4122 4306 
L 4122 3641 
Q 3803 3938 3442 4084 
Q 3081 4231 2675 4231 
Q 1875 4231 1450 3742 
Q 1025 3253 1025 2328 
Q 1025 1406 1450 917 
Q 1875 428 2675 428 
Q 3081 428 3442 575 
Q 3803 722 4122 1019 
L 4122 359 
Q 3791 134 3420 21 
Q 3050 -91 2638 -91 
Q 1578 -91 968 557 
Q 359 1206 359 2328 
Q 359 3453 968 4101 
Q 1578 4750 2638 4750 
Q 3056 4750 3426 4639 
Q 3797 4528 4122 4306 
z
" transform="scale(0.015625)"/>
       </defs>
       <use xlink:href="#DejaVuSans-41"/>
       <use xlink:href="#DejaVuSans-55" x="68.408203"/>
       <use xlink:href="#DejaVuSans-43" x="141.601562"/>
      </g>
     </g>
    </g>
    <g id="xtick_8">
     <g id="line2d_17">
      <g>
       <use xlink:href="#m1d94be67b5" x="781.772727" y="418.130526" style="stroke: #000000; stroke-width: 0.8"/>
      </g>
     </g>
     <g id="text_17">
      <!-- $Q_{local}$ -->
      <g transform="translate(754.822727 441.847089) scale(0.22 -0.22)">
       <defs>
        <path id="DejaVuSans-Oblique-51" d="M 2309 -84 
Q 2275 -88 2237 -89 
Q 2200 -91 2125 -91 
Q 1250 -91 756 411 
Q 263 913 263 1797 
Q 263 2319 452 2844 
Q 641 3369 978 3788 
Q 1369 4269 1858 4509 
Q 2347 4750 2938 4750 
Q 3794 4750 4287 4245 
Q 4781 3741 4781 2869 
Q 4781 1928 4265 1147 
Q 3750 366 2919 44 
L 3553 -825 
L 2847 -825 
L 2309 -84 
z
M 2919 4238 
Q 2400 4238 2003 3986 
Q 1606 3734 1313 3219 
Q 1125 2891 1026 2522 
Q 928 2153 928 1778 
Q 928 1128 1239 775 
Q 1550 422 2119 422 
Q 2631 422 3032 676 
Q 3434 931 3719 1434 
Q 3909 1772 4009 2142 
Q 4109 2513 4109 2881 
Q 4109 3528 3796 3883 
Q 3484 4238 2919 4238 
z
" transform="scale(0.015625)"/>
        <path id="DejaVuSans-Oblique-6c" d="M 1172 4863 
L 1747 4863 
L 800 0 
L 225 0 
L 1172 4863 
z
" transform="scale(0.015625)"/>
        <path id="DejaVuSans-Oblique-6f" d="M 1625 -91 
Q 1009 -91 651 289 
Q 294 669 294 1325 
Q 294 1706 417 2101 
Q 541 2497 738 2766 
Q 1047 3184 1428 3384 
Q 1809 3584 2291 3584 
Q 2888 3584 3255 3212 
Q 3622 2841 3622 2241 
Q 3622 1825 3500 1412 
Q 3378 1000 3181 728 
Q 2875 309 2494 109 
Q 2113 -91 1625 -91 
z
M 891 1344 
Q 891 869 1089 633 
Q 1288 397 1691 397 
Q 2269 397 2648 901 
Q 3028 1406 3028 2181 
Q 3028 2634 2825 2865 
Q 2622 3097 2228 3097 
Q 1903 3097 1650 2945 
Q 1397 2794 1197 2484 
Q 1050 2253 970 1956 
Q 891 1659 891 1344 
z
" transform="scale(0.015625)"/>
        <path id="DejaVuSans-Oblique-63" d="M 3431 3366 
L 3316 2797 
Q 3109 2947 2876 3022 
Q 2644 3097 2394 3097 
Q 2119 3097 1870 3000 
Q 1622 2903 1453 2725 
Q 1184 2453 1037 2087 
Q 891 1722 891 1331 
Q 891 859 1127 628 
Q 1363 397 1844 397 
Q 2081 397 2348 469 
Q 2616 541 2906 684 
L 2797 116 
Q 2547 13 2283 -39 
Q 2019 -91 1741 -91 
Q 1044 -91 669 257 
Q 294 606 294 1253 
Q 294 1797 489 2255 
Q 684 2713 1069 3078 
Q 1331 3328 1684 3456 
Q 2038 3584 2456 3584 
Q 2700 3584 2940 3529 
Q 3181 3475 3431 3366 
z
" transform="scale(0.015625)"/>
        <path id="DejaVuSans-Oblique-61" d="M 3438 1997 
L 3047 0 
L 2472 0 
L 2578 531 
Q 2325 219 2001 64 
Q 1678 -91 1281 -91 
Q 834 -91 548 182 
Q 263 456 263 884 
Q 263 1497 752 1853 
Q 1241 2209 2100 2209 
L 2900 2209 
L 2931 2363 
Q 2938 2388 2941 2417 
Q 2944 2447 2944 2509 
Q 2944 2788 2717 2942 
Q 2491 3097 2081 3097 
Q 1800 3097 1504 3025 
Q 1209 2953 897 2809 
L 997 3341 
Q 1322 3463 1633 3523 
Q 1944 3584 2234 3584 
Q 2853 3584 3176 3315 
Q 3500 3047 3500 2534 
Q 3500 2431 3484 2292 
Q 3469 2153 3438 1997 
z
M 2816 1759 
L 2241 1759 
Q 1534 1759 1195 1570 
Q 856 1381 856 984 
Q 856 709 1029 553 
Q 1203 397 1509 397 
Q 1978 397 2328 733 
Q 2678 1069 2791 1631 
L 2816 1759 
z
" transform="scale(0.015625)"/>
       </defs>
       <use xlink:href="#DejaVuSans-Oblique-51" transform="translate(0 0.78125)"/>
       <use xlink:href="#DejaVuSans-Oblique-6c" transform="translate(78.710938 -15.625) scale(0.7)"/>
       <use xlink:href="#DejaVuSans-Oblique-6f" transform="translate(98.15918 -15.625) scale(0.7)"/>
       <use xlink:href="#DejaVuSans-Oblique-63" transform="translate(140.986328 -15.625) scale(0.7)"/>
       <use xlink:href="#DejaVuSans-Oblique-61" transform="translate(179.472656 -15.625) scale(0.7)"/>
       <use xlink:href="#DejaVuSans-Oblique-6c" transform="translate(222.368164 -15.625) scale(0.7)"/>
      </g>
     </g>
    </g>
    <g id="xtick_9">
     <g id="line2d_18">
      <g>
       <use xlink:href="#m1d94be67b5" x="914.798792" y="418.130526" style="stroke: #000000; stroke-width: 0.8"/>
      </g>
     </g>
     <g id="text_18">
      <!-- $Q_{global}$ -->
      <g transform="translate(882.348792 441.630526) scale(0.22 -0.22)">
       <defs>
        <path id="DejaVuSans-Oblique-67" d="M 3816 3500 
L 3219 434 
Q 3047 -456 2561 -893 
Q 2075 -1331 1253 -1331 
Q 950 -1331 690 -1286 
Q 431 -1241 206 -1147 
L 313 -588 
Q 525 -725 762 -790 
Q 1000 -856 1269 -856 
Q 1816 -856 2167 -557 
Q 2519 -259 2631 300 
L 2681 563 
Q 2441 288 2122 144 
Q 1803 0 1434 0 
Q 903 0 598 351 
Q 294 703 294 1319 
Q 294 1803 478 2267 
Q 663 2731 997 3091 
Q 1219 3328 1514 3456 
Q 1809 3584 2131 3584 
Q 2484 3584 2746 3420 
Q 3009 3256 3138 2956 
L 3238 3500 
L 3816 3500 
z
M 2950 2216 
Q 2950 2641 2750 2872 
Q 2550 3103 2181 3103 
Q 1953 3103 1747 3012 
Q 1541 2922 1394 2759 
Q 1156 2491 1023 2127 
Q 891 1763 891 1375 
Q 891 944 1092 712 
Q 1294 481 1672 481 
Q 2219 481 2584 976 
Q 2950 1472 2950 2216 
z
" transform="scale(0.015625)"/>
        <path id="DejaVuSans-Oblique-62" d="M 3169 2138 
Q 3169 2591 2961 2847 
Q 2753 3103 2388 3103 
Q 2122 3103 1889 2973 
Q 1656 2844 1484 2597 
Q 1303 2338 1198 1995 
Q 1094 1653 1094 1313 
Q 1094 881 1298 636 
Q 1503 391 1863 391 
Q 2134 391 2365 517 
Q 2597 644 2772 891 
Q 2950 1147 3059 1487 
Q 3169 1828 3169 2138 
z
M 1381 2969 
Q 1594 3256 1914 3420 
Q 2234 3584 2584 3584 
Q 3122 3584 3439 3221 
Q 3756 2859 3756 2241 
Q 3756 1734 3570 1259 
Q 3384 784 3041 416 
Q 2816 172 2522 40 
Q 2228 -91 1906 -91 
Q 1566 -91 1316 65 
Q 1066 222 909 531 
L 806 0 
L 231 0 
L 1178 4863 
L 1753 4863 
L 1381 2969 
z
" transform="scale(0.015625)"/>
       </defs>
       <use xlink:href="#DejaVuSans-Oblique-51" transform="translate(0 0.78125)"/>
       <use xlink:href="#DejaVuSans-Oblique-67" transform="translate(78.710938 -15.625) scale(0.7)"/>
       <use xlink:href="#DejaVuSans-Oblique-6c" transform="translate(123.144531 -15.625) scale(0.7)"/>
       <use xlink:href="#DejaVuSans-Oblique-6f" transform="translate(142.592773 -15.625) scale(0.7)"/>
       <use xlink:href="#DejaVuSans-Oblique-62" transform="translate(185.419922 -15.625) scale(0.7)"/>
       <use xlink:href="#DejaVuSans-Oblique-61" transform="translate(229.853516 -15.625) scale(0.7)"/>
       <use xlink:href="#DejaVuSans-Oblique-6c" transform="translate(272.749023 -15.625) scale(0.7)"/>
      </g>
     </g>
    </g>
   </g>
   <g id="matplotlib.axis_4">
    <g id="ytick_6">
     <g id="line2d_19">
      <g>
       <use xlink:href="#m899a81ff3a" x="591.545455" y="418.130526" style="stroke: #000000; stroke-width: 0.8"/>
      </g>
     </g>
     <g id="text_19">
      <!-- 0.0 -->
      <g transform="translate(549.55858 426.488808) scale(0.22 -0.22)">
       <use xlink:href="#DejaVuSans-30"/>
       <use xlink:href="#DejaVuSans-2e" x="63.623047"/>
       <use xlink:href="#DejaVuSans-30" x="95.410156"/>
      </g>
     </g>
    </g>
    <g id="ytick_7">
     <g id="line2d_20">
      <g>
       <use xlink:href="#m899a81ff3a" x="591.545455" y="351.996377" style="stroke: #000000; stroke-width: 0.8"/>
      </g>
     </g>
     <g id="text_20">
      <!-- 0.2 -->
      <g transform="translate(549.55858 360.354659) scale(0.22 -0.22)">
       <use xlink:href="#DejaVuSans-30"/>
       <use xlink:href="#DejaVuSans-2e" x="63.623047"/>
       <use xlink:href="#DejaVuSans-32" x="95.410156"/>
      </g>
     </g>
    </g>
    <g id="ytick_8">
     <g id="line2d_21">
      <g>
       <use xlink:href="#m899a81ff3a" x="591.545455" y="285.862229" style="stroke: #000000; stroke-width: 0.8"/>
      </g>
     </g>
     <g id="text_21">
      <!-- 0.4 -->
      <g transform="translate(549.55858 294.22051) scale(0.22 -0.22)">
       <use xlink:href="#DejaVuSans-30"/>
       <use xlink:href="#DejaVuSans-2e" x="63.623047"/>
       <use xlink:href="#DejaVuSans-34" x="95.410156"/>
      </g>
     </g>
    </g>
    <g id="ytick_9">
     <g id="line2d_22">
      <g>
       <use xlink:href="#m899a81ff3a" x="591.545455" y="219.72808" style="stroke: #000000; stroke-width: 0.8"/>
      </g>
     </g>
     <g id="text_22">
      <!-- 0.6 -->
      <g transform="translate(549.55858 228.086361) scale(0.22 -0.22)">
       <use xlink:href="#DejaVuSans-30"/>
       <use xlink:href="#DejaVuSans-2e" x="63.623047"/>
       <use xlink:href="#DejaVuSans-36" x="95.410156"/>
      </g>
     </g>
    </g>
    <g id="text_23">
     <!-- Metric Value -->
     <g transform="translate(540.983267 354.727919) rotate(-90) scale(0.22 -0.22)">
      <defs>
       <path id="DejaVuSans-4d" d="M 628 4666 
L 1569 4666 
L 2759 1491 
L 3956 4666 
L 4897 4666 
L 4897 0 
L 4281 0 
L 4281 4097 
L 3078 897 
L 2444 897 
L 1241 4097 
L 1241 0 
L 628 0 
L 628 4666 
z
" transform="scale(0.015625)"/>
       <path id="DejaVuSans-65" d="M 3597 1894 
L 3597 1613 
L 953 1613 
Q 991 1019 1311 708 
Q 1631 397 2203 397 
Q 2534 397 2845 478 
Q 3156 559 3463 722 
L 3463 178 
Q 3153 47 2828 -22 
Q 2503 -91 2169 -91 
Q 1331 -91 842 396 
Q 353 884 353 1716 
Q 353 2575 817 3079 
Q 1281 3584 2069 3584 
Q 2775 3584 3186 3129 
Q 3597 2675 3597 1894 
z
M 3022 2063 
Q 3016 2534 2758 2815 
Q 2500 3097 2075 3097 
Q 1594 3097 1305 2825 
Q 1016 2553 972 2059 
L 3022 2063 
z
" transform="scale(0.015625)"/>
       <path id="DejaVuSans-74" d="M 1172 4494 
L 1172 3500 
L 2356 3500 
L 2356 3053 
L 1172 3053 
L 1172 1153 
Q 1172 725 1289 603 
Q 1406 481 1766 481 
L 2356 481 
L 2356 0 
L 1766 0 
Q 1100 0 847 248 
Q 594 497 594 1153 
L 594 3053 
L 172 3053 
L 172 3500 
L 594 3500 
L 594 4494 
L 1172 4494 
z
" transform="scale(0.015625)"/>
       <path id="DejaVuSans-72" d="M 2631 2963 
Q 2534 3019 2420 3045 
Q 2306 3072 2169 3072 
Q 1681 3072 1420 2755 
Q 1159 2438 1159 1844 
L 1159 0 
L 581 0 
L 581 3500 
L 1159 3500 
L 1159 2956 
Q 1341 3275 1631 3429 
Q 1922 3584 2338 3584 
Q 2397 3584 2469 3576 
Q 2541 3569 2628 3553 
L 2631 2963 
z
" transform="scale(0.015625)"/>
       <path id="DejaVuSans-69" d="M 603 3500 
L 1178 3500 
L 1178 0 
L 603 0 
L 603 3500 
z
M 603 4863 
L 1178 4863 
L 1178 4134 
L 603 4134 
L 603 4863 
z
" transform="scale(0.015625)"/>
       <path id="DejaVuSans-63" d="M 3122 3366 
L 3122 2828 
Q 2878 2963 2633 3030 
Q 2388 3097 2138 3097 
Q 1578 3097 1268 2742 
Q 959 2388 959 1747 
Q 959 1106 1268 751 
Q 1578 397 2138 397 
Q 2388 397 2633 464 
Q 2878 531 3122 666 
L 3122 134 
Q 2881 22 2623 -34 
Q 2366 -91 2075 -91 
Q 1284 -91 818 406 
Q 353 903 353 1747 
Q 353 2603 823 3093 
Q 1294 3584 2113 3584 
Q 2378 3584 2631 3529 
Q 2884 3475 3122 3366 
z
" transform="scale(0.015625)"/>
       <path id="DejaVuSans-20" transform="scale(0.015625)"/>
       <path id="DejaVuSans-56" d="M 1831 0 
L 50 4666 
L 709 4666 
L 2188 738 
L 3669 4666 
L 4325 4666 
L 2547 0 
L 1831 0 
z
" transform="scale(0.015625)"/>
       <path id="DejaVuSans-61" d="M 2194 1759 
Q 1497 1759 1228 1600 
Q 959 1441 959 1056 
Q 959 750 1161 570 
Q 1363 391 1709 391 
Q 2188 391 2477 730 
Q 2766 1069 2766 1631 
L 2766 1759 
L 2194 1759 
z
M 3341 1997 
L 3341 0 
L 2766 0 
L 2766 531 
Q 2569 213 2275 61 
Q 1981 -91 1556 -91 
Q 1019 -91 701 211 
Q 384 513 384 1019 
Q 384 1609 779 1909 
Q 1175 2209 1959 2209 
L 2766 2209 
L 2766 2266 
Q 2766 2663 2505 2880 
Q 2244 3097 1772 3097 
Q 1472 3097 1187 3025 
Q 903 2953 641 2809 
L 641 3341 
Q 956 3463 1253 3523 
Q 1550 3584 1831 3584 
Q 2591 3584 2966 3190 
Q 3341 2797 3341 1997 
z
" transform="scale(0.015625)"/>
       <path id="DejaVuSans-6c" d="M 603 4863 
L 1178 4863 
L 1178 0 
L 603 0 
L 603 4863 
z
" transform="scale(0.015625)"/>
       <path id="DejaVuSans-75" d="M 544 1381 
L 544 3500 
L 1119 3500 
L 1119 1403 
Q 1119 906 1312 657 
Q 1506 409 1894 409 
Q 2359 409 2629 706 
Q 2900 1003 2900 1516 
L 2900 3500 
L 3475 3500 
L 3475 0 
L 2900 0 
L 2900 538 
Q 2691 219 2414 64 
Q 2138 -91 1772 -91 
Q 1169 -91 856 284 
Q 544 659 544 1381 
z
M 1991 3584 
L 1991 3584 
z
" transform="scale(0.015625)"/>
      </defs>
      <use xlink:href="#DejaVuSans-4d"/>
      <use xlink:href="#DejaVuSans-65" x="86.279297"/>
      <use xlink:href="#DejaVuSans-74" x="147.802734"/>
      <use xlink:href="#DejaVuSans-72" x="187.011719"/>
      <use xlink:href="#DejaVuSans-69" x="228.125"/>
      <use xlink:href="#DejaVuSans-63" x="255.908203"/>
      <use xlink:href="#DejaVuSans-20" x="310.888672"/>
      <use xlink:href="#DejaVuSans-56" x="342.675781"/>
      <use xlink:href="#DejaVuSans-61" x="403.333984"/>
      <use xlink:href="#DejaVuSans-6c" x="464.613281"/>
      <use xlink:href="#DejaVuSans-75" x="492.396484"/>
      <use xlink:href="#DejaVuSans-65" x="555.775391"/>
     </g>
    </g>
   </g>
   <g id="patch_20">
    <path d="M 591.545455 418.130526 
L 591.545455 155.52 
" style="fill: none; stroke: #000000; stroke-width: 0.8; stroke-linejoin: miter; stroke-linecap: square"/>
   </g>
   <g id="patch_21">
    <path d="M 972 418.130526 
L 972 155.52 
" style="fill: none; stroke: #000000; stroke-width: 0.8; stroke-linejoin: miter; stroke-linecap: square"/>
   </g>
   <g id="patch_22">
    <path d="M 591.545455 418.130526 
L 972 418.130526 
" style="fill: none; stroke: #000000; stroke-width: 0.8; stroke-linejoin: miter; stroke-linecap: square"/>
   </g>
   <g id="patch_23">
    <path d="M 591.545455 155.52 
L 972 155.52 
" style="fill: none; stroke: #000000; stroke-width: 0.8; stroke-linejoin: miter; stroke-linecap: square"/>
   </g>
   <g id="text_24">
    <!-- b -->
    <g transform="translate(544.871761 137.404046) scale(0.28 -0.28)">
     <defs>
      <path id="DejaVuSans-Bold-62" d="M 2400 722 
Q 2759 722 2948 984 
Q 3138 1247 3138 1747 
Q 3138 2247 2948 2509 
Q 2759 2772 2400 2772 
Q 2041 2772 1848 2508 
Q 1656 2244 1656 1747 
Q 1656 1250 1848 986 
Q 2041 722 2400 722 
z
M 1656 2988 
Q 1888 3294 2169 3439 
Q 2450 3584 2816 3584 
Q 3463 3584 3878 3070 
Q 4294 2556 4294 1747 
Q 4294 938 3878 423 
Q 3463 -91 2816 -91 
Q 2450 -91 2169 54 
Q 1888 200 1656 506 
L 1656 0 
L 538 0 
L 538 4863 
L 1656 4863 
L 1656 2988 
z
" transform="scale(0.015625)"/>
     </defs>
     <use xlink:href="#DejaVuSans-Bold-62"/>
    </g>
   </g>
   <g id="text_25">
    <!-- Metrics -->
    <g transform="translate(734.584759 149.52) scale(0.26 -0.26)">
     <defs>
      <path id="DejaVuSans-73" d="M 2834 3397 
L 2834 2853 
Q 2591 2978 2328 3040 
Q 2066 3103 1784 3103 
Q 1356 3103 1142 2972 
Q 928 2841 928 2578 
Q 928 2378 1081 2264 
Q 1234 2150 1697 2047 
L 1894 2003 
Q 2506 1872 2764 1633 
Q 3022 1394 3022 966 
Q 3022 478 2636 193 
Q 2250 -91 1575 -91 
Q 1294 -91 989 -36 
Q 684 19 347 128 
L 347 722 
Q 666 556 975 473 
Q 1284 391 1588 391 
Q 1994 391 2212 530 
Q 2431 669 2431 922 
Q 2431 1156 2273 1281 
Q 2116 1406 1581 1522 
L 1381 1569 
Q 847 1681 609 1914 
Q 372 2147 372 2553 
Q 372 3047 722 3315 
Q 1072 3584 1716 3584 
Q 2034 3584 2315 3537 
Q 2597 3491 2834 3397 
z
" transform="scale(0.015625)"/>
     </defs>
     <use xlink:href="#DejaVuSans-4d"/>
     <use xlink:href="#DejaVuSans-65" x="86.279297"/>
     <use xlink:href="#DejaVuSans-74" x="147.802734"/>
     <use xlink:href="#DejaVuSans-72" x="187.011719"/>
     <use xlink:href="#DejaVuSans-69" x="228.125"/>
     <use xlink:href="#DejaVuSans-63" x="255.908203"/>
     <use xlink:href="#DejaVuSans-73" x="310.888672"/>
    </g>
   </g>
  </g>
  <g id="axes_3">
   <g id="patch_24">
    <path d="M 135 785.785263 
L 515.454545 785.785263 
L 515.454545 523.174737 
L 135 523.174737 
z
" style="fill: #ffffff"/>
   </g>
   <g id="matplotlib.axis_5">
    <g id="xtick_10">
     <g id="line2d_23">
      <g>
       <use xlink:href="#m1d94be67b5" x="137.882231" y="785.785263" style="stroke: #000000; stroke-width: 0.8"/>
      </g>
     </g>
     <g id="text_26">
      <!-- 0 -->
      <g transform="translate(130.883481 809.501826) scale(0.22 -0.22)">
       <use xlink:href="#DejaVuSans-30"/>
      </g>
     </g>
    </g>
    <g id="xtick_11">
     <g id="line2d_24">
      <g>
       <use xlink:href="#m1d94be67b5" x="281.993802" y="785.785263" style="stroke: #000000; stroke-width: 0.8"/>
      </g>
     </g>
     <g id="text_27">
      <!-- 20 -->
      <g transform="translate(267.996302 809.501826) scale(0.22 -0.22)">
       <use xlink:href="#DejaVuSans-32"/>
       <use xlink:href="#DejaVuSans-30" x="63.623047"/>
      </g>
     </g>
    </g>
    <g id="xtick_12">
     <g id="line2d_25">
      <g>
       <use xlink:href="#m1d94be67b5" x="426.105372" y="785.785263" style="stroke: #000000; stroke-width: 0.8"/>
      </g>
     </g>
     <g id="text_28">
      <!-- 40 -->
      <g transform="translate(412.107872 809.501826) scale(0.22 -0.22)">
       <use xlink:href="#DejaVuSans-34"/>
       <use xlink:href="#DejaVuSans-30" x="63.623047"/>
      </g>
     </g>
    </g>
    <g id="text_29">
     <!-- k -->
     <g transform="translate(318.278523 836.313388) scale(0.24 -0.24)">
      <use xlink:href="#DejaVuSans-6b"/>
     </g>
    </g>
   </g>
   <g id="matplotlib.axis_6">
    <g id="ytick_10">
     <g id="line2d_26">
      <g>
       <use xlink:href="#m899a81ff3a" x="135" y="733.020829" style="stroke: #000000; stroke-width: 0.8"/>
      </g>
     </g>
     <g id="text_30">
      <!-- 0.8 -->
      <g transform="translate(93.013125 741.37911) scale(0.22 -0.22)">
       <use xlink:href="#DejaVuSans-30"/>
       <use xlink:href="#DejaVuSans-2e" x="63.623047"/>
       <use xlink:href="#DejaVuSans-38" x="95.410156"/>
      </g>
     </g>
    </g>
    <g id="ytick_11">
     <g id="line2d_27">
      <g>
       <use xlink:href="#m899a81ff3a" x="135" y="632.95744" style="stroke: #000000; stroke-width: 0.8"/>
      </g>
     </g>
     <g id="text_31">
      <!-- 0.9 -->
      <g transform="translate(93.013125 641.315721) scale(0.22 -0.22)">
       <defs>
        <path id="DejaVuSans-39" d="M 703 97 
L 703 672 
Q 941 559 1184 500 
Q 1428 441 1663 441 
Q 2288 441 2617 861 
Q 2947 1281 2994 2138 
Q 2813 1869 2534 1725 
Q 2256 1581 1919 1581 
Q 1219 1581 811 2004 
Q 403 2428 403 3163 
Q 403 3881 828 4315 
Q 1253 4750 1959 4750 
Q 2769 4750 3195 4129 
Q 3622 3509 3622 2328 
Q 3622 1225 3098 567 
Q 2575 -91 1691 -91 
Q 1453 -91 1209 -44 
Q 966 3 703 97 
z
M 1959 2075 
Q 2384 2075 2632 2365 
Q 2881 2656 2881 3163 
Q 2881 3666 2632 3958 
Q 2384 4250 1959 4250 
Q 1534 4250 1286 3958 
Q 1038 3666 1038 3163 
Q 1038 2656 1286 2365 
Q 1534 2075 1959 2075 
z
" transform="scale(0.015625)"/>
       </defs>
       <use xlink:href="#DejaVuSans-30"/>
       <use xlink:href="#DejaVuSans-2e" x="63.623047"/>
       <use xlink:href="#DejaVuSans-39" x="95.410156"/>
      </g>
     </g>
    </g>
    <g id="ytick_12">
     <g id="line2d_28">
      <g>
       <use xlink:href="#m899a81ff3a" x="135" y="532.894052" style="stroke: #000000; stroke-width: 0.8"/>
      </g>
     </g>
     <g id="text_32">
      <!-- 1.0 -->
      <g transform="translate(93.013125 541.252333) scale(0.22 -0.22)">
       <use xlink:href="#DejaVuSans-31"/>
       <use xlink:href="#DejaVuSans-2e" x="63.623047"/>
       <use xlink:href="#DejaVuSans-30" x="95.410156"/>
      </g>
     </g>
    </g>
    <g id="text_33">
     <!-- Metric Value -->
     <g transform="translate(84.021875 728.555625) rotate(-90) scale(0.24 -0.24)">
      <use xlink:href="#DejaVuSans-4d"/>
      <use xlink:href="#DejaVuSans-65" x="86.279297"/>
      <use xlink:href="#DejaVuSans-74" x="147.802734"/>
      <use xlink:href="#DejaVuSans-72" x="187.011719"/>
      <use xlink:href="#DejaVuSans-69" x="228.125"/>
      <use xlink:href="#DejaVuSans-63" x="255.908203"/>
      <use xlink:href="#DejaVuSans-20" x="310.888672"/>
      <use xlink:href="#DejaVuSans-56" x="342.675781"/>
      <use xlink:href="#DejaVuSans-61" x="403.333984"/>
      <use xlink:href="#DejaVuSans-6c" x="464.613281"/>
      <use xlink:href="#DejaVuSans-75" x="492.396484"/>
      <use xlink:href="#DejaVuSans-65" x="555.775391"/>
     </g>
    </g>
   </g>
   <g id="line2d_29">
    <path d="M 152.293388 736.345487 
L 173.910124 739.89974 
L 209.938017 747.113822 
L 281.993802 757.84515 
L 498.161157 773.848421 
" clip-path="url(#pef6314cbef)" style="fill: none; stroke: #1f77b4; stroke-width: 1.5; stroke-linecap: square"/>
    <g clip-path="url(#pef6314cbef)">
     <use xlink:href="#m3b093f0b43" x="152.293388" y="736.345487" style="fill: #1f77b4; stroke: #1f77b4"/>
     <use xlink:href="#m3b093f0b43" x="173.910124" y="739.89974" style="fill: #1f77b4; stroke: #1f77b4"/>
     <use xlink:href="#m3b093f0b43" x="209.938017" y="747.113822" style="fill: #1f77b4; stroke: #1f77b4"/>
     <use xlink:href="#m3b093f0b43" x="281.993802" y="757.84515" style="fill: #1f77b4; stroke: #1f77b4"/>
     <use xlink:href="#m3b093f0b43" x="498.161157" y="773.848421" style="fill: #1f77b4; stroke: #1f77b4"/>
    </g>
   </g>
   <g id="line2d_30">
    <path d="M 152.293388 535.111579 
L 173.910124 538.566047 
L 209.938017 543.053933 
L 281.993802 558.535584 
L 498.161157 622.20722 
" clip-path="url(#pef6314cbef)" style="fill: none; stroke: #ff7f0e; stroke-width: 1.5; stroke-linecap: square"/>
    <g clip-path="url(#pef6314cbef)">
     <use xlink:href="#mae69a43142" x="152.293388" y="535.111579" style="fill: #ff7f0e; stroke: #ff7f0e"/>
     <use xlink:href="#mae69a43142" x="173.910124" y="538.566047" style="fill: #ff7f0e; stroke: #ff7f0e"/>
     <use xlink:href="#mae69a43142" x="209.938017" y="543.053933" style="fill: #ff7f0e; stroke: #ff7f0e"/>
     <use xlink:href="#mae69a43142" x="281.993802" y="558.535584" style="fill: #ff7f0e; stroke: #ff7f0e"/>
     <use xlink:href="#mae69a43142" x="498.161157" y="622.20722" style="fill: #ff7f0e; stroke: #ff7f0e"/>
    </g>
   </g>
   <g id="line2d_31">
    <path d="M 152.293388 542.21808 
L 173.910124 544.680416 
L 209.938017 548.546763 
L 281.993802 566.814804 
L 498.161157 635.875799 
" clip-path="url(#pef6314cbef)" style="fill: none; stroke: #2ca02c; stroke-width: 1.5; stroke-linecap: square"/>
    <g clip-path="url(#pef6314cbef)">
     <use xlink:href="#m6de50d4cff" x="152.293388" y="542.21808" style="fill: #2ca02c; stroke: #2ca02c"/>
     <use xlink:href="#m6de50d4cff" x="173.910124" y="544.680416" style="fill: #2ca02c; stroke: #2ca02c"/>
     <use xlink:href="#m6de50d4cff" x="209.938017" y="548.546763" style="fill: #2ca02c; stroke: #2ca02c"/>
     <use xlink:href="#m6de50d4cff" x="281.993802" y="566.814804" style="fill: #2ca02c; stroke: #2ca02c"/>
     <use xlink:href="#m6de50d4cff" x="498.161157" y="635.875799" style="fill: #2ca02c; stroke: #2ca02c"/>
    </g>
   </g>
   <g id="line2d_32">
    <path d="M 152.293388 541.559581 
L 173.910124 545.745613 
L 209.938017 551.289926 
L 281.993802 565.084747 
L 498.161157 626.976058 
" clip-path="url(#pef6314cbef)" style="fill: none; stroke: #d62728; stroke-width: 1.5; stroke-linecap: square"/>
    <g clip-path="url(#pef6314cbef)">
     <use xlink:href="#m9f6cd6ef6c" x="152.293388" y="541.559581" style="fill: #d62728; stroke: #d62728"/>
     <use xlink:href="#m9f6cd6ef6c" x="173.910124" y="545.745613" style="fill: #d62728; stroke: #d62728"/>
     <use xlink:href="#m9f6cd6ef6c" x="209.938017" y="551.289926" style="fill: #d62728; stroke: #d62728"/>
     <use xlink:href="#m9f6cd6ef6c" x="281.993802" y="565.084747" style="fill: #d62728; stroke: #d62728"/>
     <use xlink:href="#m9f6cd6ef6c" x="498.161157" y="626.976058" style="fill: #d62728; stroke: #d62728"/>
    </g>
   </g>
   <g id="patch_25">
    <path d="M 135 785.785263 
L 135 523.174737 
" style="fill: none; stroke: #000000; stroke-width: 0.8; stroke-linejoin: miter; stroke-linecap: square"/>
   </g>
   <g id="patch_26">
    <path d="M 515.454545 785.785263 
L 515.454545 523.174737 
" style="fill: none; stroke: #000000; stroke-width: 0.8; stroke-linejoin: miter; stroke-linecap: square"/>
   </g>
   <g id="patch_27">
    <path d="M 135 785.785263 
L 515.454545 785.785263 
" style="fill: none; stroke: #000000; stroke-width: 0.8; stroke-linejoin: miter; stroke-linecap: square"/>
   </g>
   <g id="patch_28">
    <path d="M 135 523.174737 
L 515.454545 523.174737 
" style="fill: none; stroke: #000000; stroke-width: 0.8; stroke-linejoin: miter; stroke-linecap: square"/>
   </g>
   <g id="text_34">
    <!-- c -->
    <g transform="translate(91.769432 505.058783) scale(0.28 -0.28)">
     <defs>
      <path id="DejaVuSans-Bold-63" d="M 3366 3391 
L 3366 2478 
Q 3138 2634 2908 2709 
Q 2678 2784 2431 2784 
Q 1963 2784 1702 2511 
Q 1441 2238 1441 1747 
Q 1441 1256 1702 982 
Q 1963 709 2431 709 
Q 2694 709 2930 787 
Q 3166 866 3366 1019 
L 3366 103 
Q 3103 6 2833 -42 
Q 2563 -91 2291 -91 
Q 1344 -91 809 395 
Q 275 881 275 1747 
Q 275 2613 809 3098 
Q 1344 3584 2291 3584 
Q 2566 3584 2833 3536 
Q 3100 3488 3366 3391 
z
" transform="scale(0.015625)"/>
     </defs>
     <use xlink:href="#DejaVuSans-Bold-63"/>
    </g>
   </g>
   <g id="text_35">
    <!-- Trustworthiness -->
    <g transform="translate(230.950398 517.174737) scale(0.24 -0.24)">
     <defs>
      <path id="DejaVuSans-54" d="M -19 4666 
L 3928 4666 
L 3928 4134 
L 2272 4134 
L 2272 0 
L 1638 0 
L 1638 4134 
L -19 4134 
L -19 4666 
z
" transform="scale(0.015625)"/>
      <path id="DejaVuSans-77" d="M 269 3500 
L 844 3500 
L 1563 769 
L 2278 3500 
L 2956 3500 
L 3675 769 
L 4391 3500 
L 4966 3500 
L 4050 0 
L 3372 0 
L 2619 2869 
L 1863 0 
L 1184 0 
L 269 3500 
z
" transform="scale(0.015625)"/>
      <path id="DejaVuSans-6f" d="M 1959 3097 
Q 1497 3097 1228 2736 
Q 959 2375 959 1747 
Q 959 1119 1226 758 
Q 1494 397 1959 397 
Q 2419 397 2687 759 
Q 2956 1122 2956 1747 
Q 2956 2369 2687 2733 
Q 2419 3097 1959 3097 
z
M 1959 3584 
Q 2709 3584 3137 3096 
Q 3566 2609 3566 1747 
Q 3566 888 3137 398 
Q 2709 -91 1959 -91 
Q 1206 -91 779 398 
Q 353 888 353 1747 
Q 353 2609 779 3096 
Q 1206 3584 1959 3584 
z
" transform="scale(0.015625)"/>
      <path id="DejaVuSans-68" d="M 3513 2113 
L 3513 0 
L 2938 0 
L 2938 2094 
Q 2938 2591 2744 2837 
Q 2550 3084 2163 3084 
Q 1697 3084 1428 2787 
Q 1159 2491 1159 1978 
L 1159 0 
L 581 0 
L 581 4863 
L 1159 4863 
L 1159 2956 
Q 1366 3272 1645 3428 
Q 1925 3584 2291 3584 
Q 2894 3584 3203 3211 
Q 3513 2838 3513 2113 
z
" transform="scale(0.015625)"/>
      <path id="DejaVuSans-6e" d="M 3513 2113 
L 3513 0 
L 2938 0 
L 2938 2094 
Q 2938 2591 2744 2837 
Q 2550 3084 2163 3084 
Q 1697 3084 1428 2787 
Q 1159 2491 1159 1978 
L 1159 0 
L 581 0 
L 581 3500 
L 1159 3500 
L 1159 2956 
Q 1366 3272 1645 3428 
Q 1925 3584 2291 3584 
Q 2894 3584 3203 3211 
Q 3513 2838 3513 2113 
z
" transform="scale(0.015625)"/>
     </defs>
     <use xlink:href="#DejaVuSans-54"/>
     <use xlink:href="#DejaVuSans-72" x="46.333984"/>
     <use xlink:href="#DejaVuSans-75" x="87.447266"/>
     <use xlink:href="#DejaVuSans-73" x="150.826172"/>
     <use xlink:href="#DejaVuSans-74" x="202.925781"/>
     <use xlink:href="#DejaVuSans-77" x="242.134766"/>
     <use xlink:href="#DejaVuSans-6f" x="323.921875"/>
     <use xlink:href="#DejaVuSans-72" x="385.103516"/>
     <use xlink:href="#DejaVuSans-74" x="426.216797"/>
     <use xlink:href="#DejaVuSans-68" x="465.425781"/>
     <use xlink:href="#DejaVuSans-69" x="528.804688"/>
     <use xlink:href="#DejaVuSans-6e" x="556.587891"/>
     <use xlink:href="#DejaVuSans-65" x="619.966797"/>
     <use xlink:href="#DejaVuSans-73" x="681.490234"/>
     <use xlink:href="#DejaVuSans-73" x="733.589844"/>
    </g>
   </g>
  </g>
  <g id="axes_4">
   <g id="patch_29">
    <path d="M 591.545455 785.785263 
L 972 785.785263 
L 972 523.174737 
L 591.545455 523.174737 
z
" style="fill: #ffffff"/>
   </g>
   <g id="matplotlib.axis_7">
    <g id="xtick_13">
     <g id="line2d_33">
      <g>
       <use xlink:href="#m1d94be67b5" x="594.427686" y="785.785263" style="stroke: #000000; stroke-width: 0.8"/>
      </g>
     </g>
     <g id="text_36">
      <!-- 0 -->
      <g transform="translate(587.428936 809.501826) scale(0.22 -0.22)">
       <use xlink:href="#DejaVuSans-30"/>
      </g>
     </g>
    </g>
    <g id="xtick_14">
     <g id="line2d_34">
      <g>
       <use xlink:href="#m1d94be67b5" x="738.539256" y="785.785263" style="stroke: #000000; stroke-width: 0.8"/>
      </g>
     </g>
     <g id="text_37">
      <!-- 20 -->
      <g transform="translate(724.541756 809.501826) scale(0.22 -0.22)">
       <use xlink:href="#DejaVuSans-32"/>
       <use xlink:href="#DejaVuSans-30" x="63.623047"/>
      </g>
     </g>
    </g>
    <g id="xtick_15">
     <g id="line2d_35">
      <g>
       <use xlink:href="#m1d94be67b5" x="882.650826" y="785.785263" style="stroke: #000000; stroke-width: 0.8"/>
      </g>
     </g>
     <g id="text_38">
      <!-- 40 -->
      <g transform="translate(868.653326 809.501826) scale(0.22 -0.22)">
       <use xlink:href="#DejaVuSans-34"/>
       <use xlink:href="#DejaVuSans-30" x="63.623047"/>
      </g>
     </g>
    </g>
    <g id="text_39">
     <!-- k -->
     <g transform="translate(774.823977 836.313388) scale(0.24 -0.24)">
      <use xlink:href="#DejaVuSans-6b"/>
     </g>
    </g>
   </g>
   <g id="matplotlib.axis_8">
    <g id="ytick_13">
     <g id="line2d_36">
      <g>
       <use xlink:href="#m899a81ff3a" x="591.545455" y="771.400278" style="stroke: #000000; stroke-width: 0.8"/>
      </g>
     </g>
     <g id="text_40">
      <!-- 0.80 -->
      <g transform="translate(535.56108 779.75856) scale(0.22 -0.22)">
       <use xlink:href="#DejaVuSans-30"/>
       <use xlink:href="#DejaVuSans-2e" x="63.623047"/>
       <use xlink:href="#DejaVuSans-38" x="95.410156"/>
       <use xlink:href="#DejaVuSans-30" x="159.033203"/>
      </g>
     </g>
    </g>
    <g id="ytick_14">
     <g id="line2d_37">
      <g>
       <use xlink:href="#m899a81ff3a" x="591.545455" y="710.938274" style="stroke: #000000; stroke-width: 0.8"/>
      </g>
     </g>
     <g id="text_41">
      <!-- 0.85 -->
      <g transform="translate(535.56108 719.296555) scale(0.22 -0.22)">
       <use xlink:href="#DejaVuSans-30"/>
       <use xlink:href="#DejaVuSans-2e" x="63.623047"/>
       <use xlink:href="#DejaVuSans-38" x="95.410156"/>
       <use xlink:href="#DejaVuSans-35" x="159.033203"/>
      </g>
     </g>
    </g>
    <g id="ytick_15">
     <g id="line2d_38">
      <g>
       <use xlink:href="#m899a81ff3a" x="591.545455" y="650.476269" style="stroke: #000000; stroke-width: 0.8"/>
      </g>
     </g>
     <g id="text_42">
      <!-- 0.90 -->
      <g transform="translate(535.56108 658.83455) scale(0.22 -0.22)">
       <use xlink:href="#DejaVuSans-30"/>
       <use xlink:href="#DejaVuSans-2e" x="63.623047"/>
       <use xlink:href="#DejaVuSans-39" x="95.410156"/>
       <use xlink:href="#DejaVuSans-30" x="159.033203"/>
      </g>
     </g>
    </g>
    <g id="ytick_16">
     <g id="line2d_39">
      <g>
       <use xlink:href="#m899a81ff3a" x="591.545455" y="590.014265" style="stroke: #000000; stroke-width: 0.8"/>
      </g>
     </g>
     <g id="text_43">
      <!-- 0.95 -->
      <g transform="translate(535.56108 598.372546) scale(0.22 -0.22)">
       <use xlink:href="#DejaVuSans-30"/>
       <use xlink:href="#DejaVuSans-2e" x="63.623047"/>
       <use xlink:href="#DejaVuSans-39" x="95.410156"/>
       <use xlink:href="#DejaVuSans-35" x="159.033203"/>
      </g>
     </g>
    </g>
    <g id="ytick_17">
     <g id="line2d_40">
      <g>
       <use xlink:href="#m899a81ff3a" x="591.545455" y="529.55226" style="stroke: #000000; stroke-width: 0.8"/>
      </g>
     </g>
     <g id="text_44">
      <!-- 1.00 -->
      <g transform="translate(535.56108 537.910541) scale(0.22 -0.22)">
       <use xlink:href="#DejaVuSans-31"/>
       <use xlink:href="#DejaVuSans-2e" x="63.623047"/>
       <use xlink:href="#DejaVuSans-30" x="95.410156"/>
       <use xlink:href="#DejaVuSans-30" x="159.033203"/>
      </g>
     </g>
    </g>
   </g>
   <g id="line2d_41">
    <path d="M 608.838843 574.935979 
L 630.455579 598.394899 
L 666.483471 618.231164 
L 738.539256 646.272982 
L 954.706612 686.077248 
" clip-path="url(#p42dd1e698f)" style="fill: none; stroke: #1f77b4; stroke-width: 1.5; stroke-linecap: square"/>
    <g clip-path="url(#p42dd1e698f)">
     <use xlink:href="#m3b093f0b43" x="608.838843" y="574.935979" style="fill: #1f77b4; stroke: #1f77b4"/>
     <use xlink:href="#m3b093f0b43" x="630.455579" y="598.394899" style="fill: #1f77b4; stroke: #1f77b4"/>
     <use xlink:href="#m3b093f0b43" x="666.483471" y="618.231164" style="fill: #1f77b4; stroke: #1f77b4"/>
     <use xlink:href="#m3b093f0b43" x="738.539256" y="646.272982" style="fill: #1f77b4; stroke: #1f77b4"/>
     <use xlink:href="#m3b093f0b43" x="954.706612" y="686.077248" style="fill: #1f77b4; stroke: #1f77b4"/>
    </g>
   </g>
   <g id="line2d_42">
    <path d="M 608.838843 535.111579 
L 630.455579 541.164404 
L 666.483471 552.045728 
L 738.539256 575.78441 
L 954.706612 632.237053 
" clip-path="url(#p42dd1e698f)" style="fill: none; stroke: #ff7f0e; stroke-width: 1.5; stroke-linecap: square"/>
    <g clip-path="url(#p42dd1e698f)">
     <use xlink:href="#mae69a43142" x="608.838843" y="535.111579" style="fill: #ff7f0e; stroke: #ff7f0e"/>
     <use xlink:href="#mae69a43142" x="630.455579" y="541.164404" style="fill: #ff7f0e; stroke: #ff7f0e"/>
     <use xlink:href="#mae69a43142" x="666.483471" y="552.045728" style="fill: #ff7f0e; stroke: #ff7f0e"/>
     <use xlink:href="#mae69a43142" x="738.539256" y="575.78441" style="fill: #ff7f0e; stroke: #ff7f0e"/>
     <use xlink:href="#mae69a43142" x="954.706612" y="632.237053" style="fill: #ff7f0e; stroke: #ff7f0e"/>
    </g>
   </g>
   <g id="line2d_43">
    <path d="M 608.838843 535.716521 
L 630.455579 540.704888 
L 666.483471 551.186155 
L 738.539256 576.49252 
L 954.706612 642.145325 
" clip-path="url(#p42dd1e698f)" style="fill: none; stroke: #2ca02c; stroke-width: 1.5; stroke-linecap: square"/>
    <g clip-path="url(#p42dd1e698f)">
     <use xlink:href="#m6de50d4cff" x="608.838843" y="535.716521" style="fill: #2ca02c; stroke: #2ca02c"/>
     <use xlink:href="#m6de50d4cff" x="630.455579" y="540.704888" style="fill: #2ca02c; stroke: #2ca02c"/>
     <use xlink:href="#m6de50d4cff" x="666.483471" y="551.186155" style="fill: #2ca02c; stroke: #2ca02c"/>
     <use xlink:href="#m6de50d4cff" x="738.539256" y="576.49252" style="fill: #2ca02c; stroke: #2ca02c"/>
     <use xlink:href="#m6de50d4cff" x="954.706612" y="642.145325" style="fill: #2ca02c; stroke: #2ca02c"/>
    </g>
   </g>
   <g id="line2d_44">
    <path d="M 608.838843 560.220242 
L 630.455579 575.249526 
L 666.483471 600.52013 
L 738.539256 655.19747 
L 954.706612 773.848421 
" clip-path="url(#p42dd1e698f)" style="fill: none; stroke: #d62728; stroke-width: 1.5; stroke-linecap: square"/>
    <g clip-path="url(#p42dd1e698f)">
     <use xlink:href="#m9f6cd6ef6c" x="608.838843" y="560.220242" style="fill: #d62728; stroke: #d62728"/>
     <use xlink:href="#m9f6cd6ef6c" x="630.455579" y="575.249526" style="fill: #d62728; stroke: #d62728"/>
     <use xlink:href="#m9f6cd6ef6c" x="666.483471" y="600.52013" style="fill: #d62728; stroke: #d62728"/>
     <use xlink:href="#m9f6cd6ef6c" x="738.539256" y="655.19747" style="fill: #d62728; stroke: #d62728"/>
     <use xlink:href="#m9f6cd6ef6c" x="954.706612" y="773.848421" style="fill: #d62728; stroke: #d62728"/>
    </g>
   </g>
   <g id="patch_30">
    <path d="M 591.545455 785.785263 
L 591.545455 523.174737 
" style="fill: none; stroke: #000000; stroke-width: 0.8; stroke-linejoin: miter; stroke-linecap: square"/>
   </g>
   <g id="patch_31">
    <path d="M 972 785.785263 
L 972 523.174737 
" style="fill: none; stroke: #000000; stroke-width: 0.8; stroke-linejoin: miter; stroke-linecap: square"/>
   </g>
   <g id="patch_32">
    <path d="M 591.545455 785.785263 
L 972 785.785263 
" style="fill: none; stroke: #000000; stroke-width: 0.8; stroke-linejoin: miter; stroke-linecap: square"/>
   </g>
   <g id="patch_33">
    <path d="M 591.545455 523.174737 
L 972 523.174737 
" style="fill: none; stroke: #000000; stroke-width: 0.8; stroke-linejoin: miter; stroke-linecap: square"/>
   </g>
   <g id="text_45">
    <!-- d -->
    <g transform="translate(544.871761 505.058783) scale(0.28 -0.28)">
     <defs>
      <path id="DejaVuSans-Bold-64" d="M 2919 2988 
L 2919 4863 
L 4044 4863 
L 4044 0 
L 2919 0 
L 2919 506 
Q 2688 197 2409 53 
Q 2131 -91 1766 -91 
Q 1119 -91 703 423 
Q 288 938 288 1747 
Q 288 2556 703 3070 
Q 1119 3584 1766 3584 
Q 2128 3584 2408 3439 
Q 2688 3294 2919 2988 
z
M 2181 722 
Q 2541 722 2730 984 
Q 2919 1247 2919 1747 
Q 2919 2247 2730 2509 
Q 2541 2772 2181 2772 
Q 1825 2772 1636 2509 
Q 1447 2247 1447 1747 
Q 1447 1247 1636 984 
Q 1825 722 2181 722 
z
" transform="scale(0.015625)"/>
     </defs>
     <use xlink:href="#DejaVuSans-Bold-64"/>
    </g>
   </g>
   <g id="text_46">
    <!-- Continuity -->
    <g transform="translate(720.057102 517.174737) scale(0.24 -0.24)">
     <defs>
      <path id="DejaVuSans-79" d="M 2059 -325 
Q 1816 -950 1584 -1140 
Q 1353 -1331 966 -1331 
L 506 -1331 
L 506 -850 
L 844 -850 
Q 1081 -850 1212 -737 
Q 1344 -625 1503 -206 
L 1606 56 
L 191 3500 
L 800 3500 
L 1894 763 
L 2988 3500 
L 3597 3500 
L 2059 -325 
z
" transform="scale(0.015625)"/>
     </defs>
     <use xlink:href="#DejaVuSans-43"/>
     <use xlink:href="#DejaVuSans-6f" x="69.824219"/>
     <use xlink:href="#DejaVuSans-6e" x="131.005859"/>
     <use xlink:href="#DejaVuSans-74" x="194.384766"/>
     <use xlink:href="#DejaVuSans-69" x="233.59375"/>
     <use xlink:href="#DejaVuSans-6e" x="261.376953"/>
     <use xlink:href="#DejaVuSans-75" x="324.755859"/>
     <use xlink:href="#DejaVuSans-69" x="388.134766"/>
     <use xlink:href="#DejaVuSans-74" x="415.917969"/>
     <use xlink:href="#DejaVuSans-79" x="455.126953"/>
    </g>
   </g>
  </g>
  <g id="axes_5">
   <g id="patch_34">
    <path d="M 135 1153.44 
L 515.454545 1153.44 
L 515.454545 890.829474 
L 135 890.829474 
z
" style="fill: #ffffff"/>
   </g>
   <g id="matplotlib.axis_9">
    <g id="xtick_16">
     <g id="line2d_45">
      <g>
       <use xlink:href="#m1d94be67b5" x="152.138638" y="1153.44" style="stroke: #000000; stroke-width: 0.8"/>
      </g>
     </g>
     <g id="text_47">
      <!-- 0 -->
      <g transform="translate(145.139888 1177.156562) scale(0.22 -0.22)">
       <use xlink:href="#DejaVuSans-30"/>
      </g>
     </g>
    </g>
    <g id="xtick_17">
     <g id="line2d_46">
      <g>
       <use xlink:href="#m1d94be67b5" x="229.513977" y="1153.44" style="stroke: #000000; stroke-width: 0.8"/>
      </g>
     </g>
     <g id="text_48">
      <!-- 500 -->
      <g transform="translate(208.517727 1177.156562) scale(0.22 -0.22)">
       <use xlink:href="#DejaVuSans-35"/>
       <use xlink:href="#DejaVuSans-30" x="63.623047"/>
       <use xlink:href="#DejaVuSans-30" x="127.246094"/>
      </g>
     </g>
    </g>
    <g id="xtick_18">
     <g id="line2d_47">
      <g>
       <use xlink:href="#m1d94be67b5" x="306.889317" y="1153.44" style="stroke: #000000; stroke-width: 0.8"/>
      </g>
     </g>
     <g id="text_49">
      <!-- 1000 -->
      <g transform="translate(278.894317 1177.156562) scale(0.22 -0.22)">
       <use xlink:href="#DejaVuSans-31"/>
       <use xlink:href="#DejaVuSans-30" x="63.623047"/>
       <use xlink:href="#DejaVuSans-30" x="127.246094"/>
       <use xlink:href="#DejaVuSans-30" x="190.869141"/>
      </g>
     </g>
    </g>
    <g id="xtick_19">
     <g id="line2d_48">
      <g>
       <use xlink:href="#m1d94be67b5" x="384.264657" y="1153.44" style="stroke: #000000; stroke-width: 0.8"/>
      </g>
     </g>
     <g id="text_50">
      <!-- 1500 -->
      <g transform="translate(356.269657 1177.156562) scale(0.22 -0.22)">
       <use xlink:href="#DejaVuSans-31"/>
       <use xlink:href="#DejaVuSans-35" x="63.623047"/>
       <use xlink:href="#DejaVuSans-30" x="127.246094"/>
       <use xlink:href="#DejaVuSans-30" x="190.869141"/>
      </g>
     </g>
    </g>
    <g id="xtick_20">
     <g id="line2d_49">
      <g>
       <use xlink:href="#m1d94be67b5" x="461.639997" y="1153.44" style="stroke: #000000; stroke-width: 0.8"/>
      </g>
     </g>
     <g id="text_51">
      <!-- 2000 -->
      <g transform="translate(433.644997 1177.156562) scale(0.22 -0.22)">
       <use xlink:href="#DejaVuSans-32"/>
       <use xlink:href="#DejaVuSans-30" x="63.623047"/>
       <use xlink:href="#DejaVuSans-30" x="127.246094"/>
       <use xlink:href="#DejaVuSans-30" x="190.869141"/>
      </g>
     </g>
    </g>
    <g id="text_52">
     <!-- k -->
     <g transform="translate(318.278523 1203.968125) scale(0.24 -0.24)">
      <use xlink:href="#DejaVuSans-6b"/>
     </g>
    </g>
   </g>
   <g id="matplotlib.axis_10">
    <g id="ytick_18">
     <g id="line2d_50">
      <g>
       <use xlink:href="#m899a81ff3a" x="135" y="1116.281285" style="stroke: #000000; stroke-width: 0.8"/>
      </g>
     </g>
     <g id="text_53">
      <!-- 0.2 -->
      <g transform="translate(93.013125 1124.639566) scale(0.22 -0.22)">
       <use xlink:href="#DejaVuSans-30"/>
       <use xlink:href="#DejaVuSans-2e" x="63.623047"/>
       <use xlink:href="#DejaVuSans-32" x="95.410156"/>
      </g>
     </g>
    </g>
    <g id="ytick_19">
     <g id="line2d_51">
      <g>
       <use xlink:href="#m899a81ff3a" x="135" y="1062.902542" style="stroke: #000000; stroke-width: 0.8"/>
      </g>
     </g>
     <g id="text_54">
      <!-- 0.4 -->
      <g transform="translate(93.013125 1071.260824) scale(0.22 -0.22)">
       <use xlink:href="#DejaVuSans-30"/>
       <use xlink:href="#DejaVuSans-2e" x="63.623047"/>
       <use xlink:href="#DejaVuSans-34" x="95.410156"/>
      </g>
     </g>
    </g>
    <g id="ytick_20">
     <g id="line2d_52">
      <g>
       <use xlink:href="#m899a81ff3a" x="135" y="1009.5238" style="stroke: #000000; stroke-width: 0.8"/>
      </g>
     </g>
     <g id="text_55">
      <!-- 0.6 -->
      <g transform="translate(93.013125 1017.882081) scale(0.22 -0.22)">
       <use xlink:href="#DejaVuSans-30"/>
       <use xlink:href="#DejaVuSans-2e" x="63.623047"/>
       <use xlink:href="#DejaVuSans-36" x="95.410156"/>
      </g>
     </g>
    </g>
    <g id="ytick_21">
     <g id="line2d_53">
      <g>
       <use xlink:href="#m899a81ff3a" x="135" y="956.145058" style="stroke: #000000; stroke-width: 0.8"/>
      </g>
     </g>
     <g id="text_56">
      <!-- 0.8 -->
      <g transform="translate(93.013125 964.503339) scale(0.22 -0.22)">
       <use xlink:href="#DejaVuSans-30"/>
       <use xlink:href="#DejaVuSans-2e" x="63.623047"/>
       <use xlink:href="#DejaVuSans-38" x="95.410156"/>
      </g>
     </g>
    </g>
    <g id="ytick_22">
     <g id="line2d_54">
      <g>
       <use xlink:href="#m899a81ff3a" x="135" y="902.766316" style="stroke: #000000; stroke-width: 0.8"/>
      </g>
     </g>
     <g id="text_57">
      <!-- 1.0 -->
      <g transform="translate(93.013125 911.124597) scale(0.22 -0.22)">
       <use xlink:href="#DejaVuSans-31"/>
       <use xlink:href="#DejaVuSans-2e" x="63.623047"/>
       <use xlink:href="#DejaVuSans-30" x="95.410156"/>
      </g>
     </g>
    </g>
    <g id="text_58">
     <!-- Metric Value -->
     <g transform="translate(84.021875 1096.210362) rotate(-90) scale(0.24 -0.24)">
      <use xlink:href="#DejaVuSans-4d"/>
      <use xlink:href="#DejaVuSans-65" x="86.279297"/>
      <use xlink:href="#DejaVuSans-74" x="147.802734"/>
      <use xlink:href="#DejaVuSans-72" x="187.011719"/>
      <use xlink:href="#DejaVuSans-69" x="228.125"/>
      <use xlink:href="#DejaVuSans-63" x="255.908203"/>
      <use xlink:href="#DejaVuSans-20" x="310.888672"/>
      <use xlink:href="#DejaVuSans-56" x="342.675781"/>
      <use xlink:href="#DejaVuSans-61" x="403.333984"/>
      <use xlink:href="#DejaVuSans-6c" x="464.613281"/>
      <use xlink:href="#DejaVuSans-75" x="492.396484"/>
      <use xlink:href="#DejaVuSans-65" x="555.775391"/>
     </g>
    </g>
   </g>
   <g id="line2d_55">
    <path d="M 152.293388 1141.503158 
L 152.60289 1128.498502 
L 152.912391 1123.058023 
L 153.067142 1122.43364 
L 153.840895 1117.272632 
L 154.150397 1116.319831 
L 154.305147 1116.269354 
L 154.92415 1114.400183 
L 155.233651 1113.859317 
L 155.697903 1112.801619 
L 156.162155 1111.657611 
L 156.935909 1109.92867 
L 157.554912 1109.03072 
L 157.864413 1108.854475 
L 158.173914 1108.53111 
L 158.638166 1107.971713 
L 158.947668 1107.665565 
L 159.41192 1107.053386 
L 160.649925 1105.552173 
L 160.804676 1105.555 
L 161.423679 1105.189546 
L 161.73318 1104.975432 
L 162.352183 1104.589749 
L 163.125936 1104.356121 
L 164.05444 1103.919347 
L 166.3757 1102.3219 
L 167.613706 1101.671926 
L 169.470714 1100.374656 
L 170.244467 1099.754267 
L 170.553969 1099.537552 
L 171.327722 1098.923399 
L 172.565727 1097.994324 
L 173.18473 1097.460678 
L 173.958484 1096.890987 
L 174.422736 1096.471555 
L 176.124993 1095.069725 
L 177.517749 1093.771649 
L 178.910505 1092.433462 
L 179.529508 1091.967776 
L 185.874286 1086.35186 
L 186.80279 1085.50953 
L 188.505047 1083.951147 
L 191.754812 1080.92553 
L 196.861584 1076.004709 
L 197.944839 1074.99376 
L 210.789145 1063.794431 
L 211.717649 1063.090957 
L 213.729408 1061.4155 
L 233.692246 1046.057956 
L 236.323007 1044.114745 
L 239.882273 1041.583854 
L 246.227051 1037.159203 
L 248.39356 1035.633507 
L 253.345582 1032.11435 
L 255.976344 1030.300631 
L 261.083116 1026.838451 
L 287.08123 1009.881097 
L 289.24774 1008.524515 
L 294.199761 1005.376794 
L 307.198819 997.55987 
L 311.841339 994.885401 
L 329.482916 984.295535 
L 333.042182 982.079089 
L 350.374258 971.441969 
L 352.850269 969.990873 
L 362.909063 964.190271 
L 387.514421 949.916027 
L 395.561457 945.50396 
L 415.679045 935.249826 
L 430.380359 928.455325 
L 435.332381 926.070839 
L 441.83191 923.210561 
L 448.176688 920.734915 
L 451.735953 919.44859 
L 457.306978 917.650447 
L 461.794747 916.218156 
L 465.818265 914.917563 
L 469.068029 913.759267 
L 477.424566 910.238666 
L 484.233596 906.923554 
L 486.245355 906.013238 
L 487.328609 905.904037 
L 489.495119 905.959358 
L 489.80462 905.999135 
L 490.887875 905.822234 
L 492.435382 905.297083 
L 493.982889 904.422056 
L 494.756642 903.962745 
L 496.768401 903.725286 
L 498.161157 902.766316 
L 498.161157 902.766316 
" clip-path="url(#pcff8f7eb73)" style="fill: none; stroke: #1f77b4; stroke-width: 1.5; stroke-linecap: square"/>
   </g>
   <g id="line2d_56">
    <path d="M 152.293388 1022.910244 
L 152.60289 1003.423145 
L 152.912391 996.018048 
L 153.067142 994.534642 
L 153.376643 990.503 
L 153.686145 987.511333 
L 153.840895 987.074229 
L 153.995646 987.057959 
L 154.614649 991.852681 
L 157.709662 1016.063246 
L 158.173914 1018.3398 
L 158.483416 1019.40955 
L 159.257169 1022.943962 
L 163.125936 1036.70637 
L 164.209191 1039.19742 
L 164.518692 1039.7984 
L 165.756698 1042.156917 
L 166.22095 1042.841363 
L 166.530451 1043.215826 
L 167.149454 1043.663819 
L 167.923207 1044.479397 
L 168.851711 1045.872763 
L 169.780215 1047.120504 
L 171.791974 1048.497747 
L 172.565727 1048.935824 
L 174.422736 1049.689262 
L 176.743996 1050.294232 
L 178.136752 1050.833466 
L 179.99376 1051.091637 
L 181.077015 1050.977153 
L 182.469771 1051.129811 
L 184.017278 1050.895679 
L 185.100532 1050.979172 
L 186.338538 1051.240407 
L 187.731294 1051.183309 
L 188.350297 1051.096685 
L 189.433552 1051.04236 
L 190.362056 1051.183523 
L 191.29056 1051.204813 
L 193.766571 1050.9549 
L 195.004576 1050.796622 
L 196.087831 1050.650792 
L 197.016335 1050.614974 
L 199.182844 1050.500396 
L 200.111348 1050.570249 
L 201.194603 1050.475462 
L 202.432609 1050.368881 
L 207.848882 1049.916115 
L 214.03891 1048.802036 
L 216.050668 1048.416898 
L 216.824422 1048.375244 
L 218.217178 1048.273276 
L 220.228937 1047.844691 
L 223.633452 1046.848954 
L 232.918492 1044.152004 
L 234.62075 1043.589385 
L 237.715763 1042.597916 
L 242.822536 1040.696005 
L 250.250569 1037.508067 
L 253.036081 1036.239522 
L 255.20259 1035.224843 
L 264.33288 1030.78347 
L 267.118393 1029.375719 
L 270.058655 1027.909782 
L 272.844168 1026.333641 
L 285.069471 1019.666545 
L 287.700233 1018.395306 
L 290.176244 1017.108922 
L 295.437767 1014.496785 
L 301.782545 1011.116813 
L 317.412363 1003.278031 
L 322.673887 1000.319529 
L 326.078401 998.467763 
L 329.947168 996.651205 
L 351.767014 986.183768 
L 354.088274 984.994101 
L 358.885546 982.383842 
L 362.909063 980.102661 
L 375.75337 972.800479 
L 378.07463 971.540874 
L 408.715264 953.689931 
L 413.512535 950.741084 
L 418.464557 947.776848 
L 425.118836 943.826996 
L 432.237368 939.441435 
L 440.129652 934.826844 
L 458.235482 925.039779 
L 465.508764 921.210862 
L 473.71055 916.53666 
L 484.388347 911.086588 
L 487.019108 909.951582 
L 489.340368 908.847066 
L 492.590133 906.931981 
L 494.756642 905.407221 
L 498.161157 902.766316 
L 498.161157 902.766316 
" clip-path="url(#pcff8f7eb73)" style="fill: none; stroke: #ff7f0e; stroke-width: 1.5; stroke-linecap: square"/>
   </g>
   <g id="line2d_57">
    <path d="M 152.293388 1101.296104 
L 152.75764 1043.938414 
L 153.067142 1027.921212 
L 153.531394 1011.880811 
L 153.840895 1005.93586 
L 154.305147 1002.355048 
L 154.459898 1001.466481 
L 154.769399 1001.483793 
L 155.233651 1004.632141 
L 155.697903 1007.151112 
L 156.007405 1008.230493 
L 159.257169 1025.815153 
L 160.185673 1029.077589 
L 160.649925 1030.350772 
L 161.887931 1035.619468 
L 162.661684 1038.534429 
L 163.744939 1041.511276 
L 165.601947 1044.809574 
L 166.839952 1046.564777 
L 167.613706 1047.48785 
L 169.780215 1049.569474 
L 170.089717 1049.714604 
L 171.018221 1050.378642 
L 171.482473 1050.576515 
L 172.256226 1050.944133 
L 172.875229 1051.30484 
L 173.339481 1051.465099 
L 174.113234 1052.032506 
L 174.732237 1052.438346 
L 179.684259 1054.667825 
L 182.779272 1055.35319 
L 183.553026 1055.412773 
L 184.326779 1055.522263 
L 185.255283 1055.554014 
L 187.576543 1055.452882 
L 189.588302 1055.625989 
L 191.29056 1055.652248 
L 192.528565 1055.583932 
L 193.302318 1055.548368 
L 194.849825 1055.47073 
L 195.778329 1055.328382 
L 201.813606 1055.044815 
L 204.444367 1054.680968 
L 205.682373 1054.407758 
L 209.860641 1053.292717 
L 210.634395 1052.998463 
L 211.717649 1052.577841 
L 214.967414 1051.368617 
L 216.669671 1050.800742 
L 218.990931 1050.070664 
L 220.538438 1049.520148 
L 231.216235 1044.812392 
L 234.311249 1043.245311 
L 235.704005 1042.47644 
L 243.441539 1038.378322 
L 245.608048 1037.20379 
L 253.190831 1032.71092 
L 256.750097 1030.45264 
L 259.380859 1028.878092 
L 262.321122 1027.205192 
L 273.772672 1020.328408 
L 280.891203 1015.722034 
L 285.224222 1012.798271 
L 288.164485 1010.991855 
L 292.342753 1008.439118 
L 295.592518 1006.343314 
L 301.627794 1002.517584 
L 304.877558 1000.457712 
L 317.721865 992.434102 
L 325.304648 988.457092 
L 330.566171 985.695946 
L 334.589689 983.612122 
L 336.910949 982.359053 
L 367.242082 965.452773 
L 369.872844 964.083899 
L 373.58686 962.115465 
L 381.943397 957.627781 
L 401.287232 947.825828 
L 428.21385 934.72147 
L 431.618365 933.303613 
L 443.998419 927.610121 
L 448.176688 925.464544 
L 453.747712 922.565633 
L 459.163986 919.823801 
L 461.485246 918.697945 
L 464.889761 916.957742 
L 470.151284 914.99381 
L 471.54404 914.511582 
L 481.912336 912.057283 
L 485.1621 910.9225 
L 486.245355 910.366323 
L 488.257114 908.973173 
L 494.601891 904.473838 
L 496.304149 903.98451 
L 496.61365 903.954687 
L 498.161157 902.766316 
L 498.161157 902.766316 
" clip-path="url(#pcff8f7eb73)" style="fill: none; stroke: #2ca02c; stroke-width: 1.5; stroke-linecap: square"/>
   </g>
   <g id="line2d_58">
    <path d="M 152.293388 1094.376195 
L 152.60289 1057.629095 
L 153.067142 1032.713447 
L 153.376643 1023.148861 
L 153.840895 1014.591169 
L 153.995646 1012.868423 
L 154.150397 1012.594624 
L 154.305147 1011.456602 
L 154.769399 1011.098676 
L 155.078901 1011.569632 
L 155.233651 1011.599773 
L 155.543153 1012.600882 
L 155.852654 1012.987731 
L 156.471657 1014.878207 
L 157.400161 1019.997706 
L 158.173914 1025.051683 
L 160.649925 1037.895425 
L 161.578429 1041.721911 
L 162.816435 1045.973147 
L 163.744939 1048.642759 
L 164.05444 1049.399889 
L 164.673443 1051.056802 
L 166.839952 1056.00524 
L 168.851711 1060.019689 
L 170.089717 1062.327392 
L 171.327722 1064.542268 
L 173.029979 1066.945784 
L 177.053497 1071.047996 
L 178.755755 1072.340143 
L 184.945782 1076.36845 
L 186.338538 1077.05213 
L 187.576543 1077.532819 
L 188.505047 1077.835938 
L 192.838066 1079.324237 
L 194.540324 1079.798318 
L 195.314077 1080.062992 
L 196.552083 1080.375498 
L 197.635338 1080.648788 
L 199.337595 1080.805116 
L 207.694132 1081.531726 
L 208.932137 1081.487597 
L 214.657912 1080.963114 
L 215.586416 1080.884702 
L 216.824422 1080.836933 
L 218.371929 1080.78977 
L 220.383687 1080.659745 
L 222.550197 1080.42546 
L 227.502219 1079.632865 
L 235.858755 1078.13675 
L 237.251511 1077.928505 
L 239.727522 1077.592023 
L 241.739281 1077.247042 
L 244.679544 1076.643082 
L 248.39356 1075.42816 
L 250.56007 1074.765473 
L 260.154612 1071.954864 
L 261.856869 1071.351286 
L 266.189889 1069.873865 
L 267.273143 1069.465519 
L 279.343696 1064.73682 
L 284.295718 1062.606254 
L 287.545482 1061.216948 
L 292.961756 1058.678225 
L 295.747268 1057.104162 
L 311.99609 1047.273487 
L 316.019607 1044.842214 
L 322.983388 1040.488402 
L 329.328166 1035.96304 
L 335.827694 1031.190694 
L 340.779716 1027.668794 
L 350.064757 1020.722108 
L 353.15977 1018.190981 
L 364.611321 1009.001692 
L 370.337096 1004.540078 
L 377.455627 998.707854 
L 383.490904 993.734422 
L 392.621194 986.081224 
L 396.180459 983.200171 
L 408.096262 973.061541 
L 415.214793 966.781856 
L 426.975844 956.960375 
L 443.379416 943.639458 
L 449.569444 938.500285 
L 459.009235 930.882272 
L 466.592018 924.997144 
L 472.627295 920.471944 
L 483.924095 912.06728 
L 487.48336 909.618944 
L 493.054385 906.138318 
L 495.066143 904.807648 
L 496.61365 903.924511 
L 498.161157 902.76717 
L 498.161157 902.76717 
" clip-path="url(#pcff8f7eb73)" style="fill: none; stroke: #d62728; stroke-width: 1.5; stroke-linecap: square"/>
   </g>
   <g id="patch_35">
    <path d="M 135 1153.44 
L 135 890.829474 
" style="fill: none; stroke: #000000; stroke-width: 0.8; stroke-linejoin: miter; stroke-linecap: square"/>
   </g>
   <g id="patch_36">
    <path d="M 515.454545 1153.44 
L 515.454545 890.829474 
" style="fill: none; stroke: #000000; stroke-width: 0.8; stroke-linejoin: miter; stroke-linecap: square"/>
   </g>
   <g id="patch_37">
    <path d="M 135 1153.44 
L 515.454545 1153.44 
" style="fill: none; stroke: #000000; stroke-width: 0.8; stroke-linejoin: miter; stroke-linecap: square"/>
   </g>
   <g id="patch_38">
    <path d="M 135 890.829474 
L 515.454545 890.829474 
" style="fill: none; stroke: #000000; stroke-width: 0.8; stroke-linejoin: miter; stroke-linecap: square"/>
   </g>
   <g id="text_59">
    <!-- e -->
    <g transform="translate(89.376307 872.71352) scale(0.28 -0.28)">
     <defs>
      <path id="DejaVuSans-Bold-65" d="M 4031 1759 
L 4031 1441 
L 1416 1441 
Q 1456 1047 1700 850 
Q 1944 653 2381 653 
Q 2734 653 3104 758 
Q 3475 863 3866 1075 
L 3866 213 
Q 3469 63 3072 -14 
Q 2675 -91 2278 -91 
Q 1328 -91 801 392 
Q 275 875 275 1747 
Q 275 2603 792 3093 
Q 1309 3584 2216 3584 
Q 3041 3584 3536 3087 
Q 4031 2591 4031 1759 
z
M 2881 2131 
Q 2881 2450 2695 2645 
Q 2509 2841 2209 2841 
Q 1884 2841 1681 2658 
Q 1478 2475 1428 2131 
L 2881 2131 
z
" transform="scale(0.015625)"/>
     </defs>
     <use xlink:href="#DejaVuSans-Bold-65"/>
    </g>
   </g>
   <g id="text_60">
    <!-- $Q_{NN}$ -->
    <g transform="translate(302.787273 884.829474) scale(0.24 -0.24)">
     <use xlink:href="#DejaVuSans-Oblique-51" transform="translate(0 0.78125)"/>
     <use xlink:href="#DejaVuSans-Oblique-4e" transform="translate(78.710938 -15.625) scale(0.7)"/>
     <use xlink:href="#DejaVuSans-Oblique-4e" transform="translate(131.074219 -15.625) scale(0.7)"/>
    </g>
   </g>
  </g>
  <g id="axes_6">
   <g id="patch_39">
    <path d="M 591.545455 1153.44 
L 972 1153.44 
L 972 890.829474 
L 591.545455 890.829474 
z
" style="fill: #ffffff"/>
   </g>
   <g id="matplotlib.axis_11">
    <g id="xtick_21">
     <g id="line2d_59">
      <g>
       <use xlink:href="#m1d94be67b5" x="608.684092" y="1153.44" style="stroke: #000000; stroke-width: 0.8"/>
      </g>
     </g>
     <g id="text_61">
      <!-- 0 -->
      <g transform="translate(601.685342 1177.156562) scale(0.22 -0.22)">
       <use xlink:href="#DejaVuSans-30"/>
      </g>
     </g>
    </g>
    <g id="xtick_22">
     <g id="line2d_60">
      <g>
       <use xlink:href="#m1d94be67b5" x="686.059432" y="1153.44" style="stroke: #000000; stroke-width: 0.8"/>
      </g>
     </g>
     <g id="text_62">
      <!-- 500 -->
      <g transform="translate(665.063182 1177.156562) scale(0.22 -0.22)">
       <use xlink:href="#DejaVuSans-35"/>
       <use xlink:href="#DejaVuSans-30" x="63.623047"/>
       <use xlink:href="#DejaVuSans-30" x="127.246094"/>
      </g>
     </g>
    </g>
    <g id="xtick_23">
     <g id="line2d_61">
      <g>
       <use xlink:href="#m1d94be67b5" x="763.434772" y="1153.44" style="stroke: #000000; stroke-width: 0.8"/>
      </g>
     </g>
     <g id="text_63">
      <!-- 1000 -->
      <g transform="translate(735.439772 1177.156562) scale(0.22 -0.22)">
       <use xlink:href="#DejaVuSans-31"/>
       <use xlink:href="#DejaVuSans-30" x="63.623047"/>
       <use xlink:href="#DejaVuSans-30" x="127.246094"/>
       <use xlink:href="#DejaVuSans-30" x="190.869141"/>
      </g>
     </g>
    </g>
    <g id="xtick_24">
     <g id="line2d_62">
      <g>
       <use xlink:href="#m1d94be67b5" x="840.810111" y="1153.44" style="stroke: #000000; stroke-width: 0.8"/>
      </g>
     </g>
     <g id="text_64">
      <!-- 1500 -->
      <g transform="translate(812.815111 1177.156562) scale(0.22 -0.22)">
       <use xlink:href="#DejaVuSans-31"/>
       <use xlink:href="#DejaVuSans-35" x="63.623047"/>
       <use xlink:href="#DejaVuSans-30" x="127.246094"/>
       <use xlink:href="#DejaVuSans-30" x="190.869141"/>
      </g>
     </g>
    </g>
    <g id="xtick_25">
     <g id="line2d_63">
      <g>
       <use xlink:href="#m1d94be67b5" x="918.185451" y="1153.44" style="stroke: #000000; stroke-width: 0.8"/>
      </g>
     </g>
     <g id="text_65">
      <!-- 2000 -->
      <g transform="translate(890.190451 1177.156562) scale(0.22 -0.22)">
       <use xlink:href="#DejaVuSans-32"/>
       <use xlink:href="#DejaVuSans-30" x="63.623047"/>
       <use xlink:href="#DejaVuSans-30" x="127.246094"/>
       <use xlink:href="#DejaVuSans-30" x="190.869141"/>
      </g>
     </g>
    </g>
    <g id="text_66">
     <!-- k -->
     <g transform="translate(774.823977 1203.968125) scale(0.24 -0.24)">
      <use xlink:href="#DejaVuSans-6b"/>
     </g>
    </g>
   </g>
   <g id="matplotlib.axis_12">
    <g id="ytick_23">
     <g id="line2d_64">
      <g>
       <use xlink:href="#m899a81ff3a" x="591.545455" y="1136.675682" style="stroke: #000000; stroke-width: 0.8"/>
      </g>
     </g>
     <g id="text_67">
      <!-- 0.0 -->
      <g transform="translate(549.55858 1145.033963) scale(0.22 -0.22)">
       <use xlink:href="#DejaVuSans-30"/>
       <use xlink:href="#DejaVuSans-2e" x="63.623047"/>
       <use xlink:href="#DejaVuSans-30" x="95.410156"/>
      </g>
     </g>
    </g>
    <g id="ytick_24">
     <g id="line2d_65">
      <g>
       <use xlink:href="#m899a81ff3a" x="591.545455" y="1067.797247" style="stroke: #000000; stroke-width: 0.8"/>
      </g>
     </g>
     <g id="text_68">
      <!-- 0.2 -->
      <g transform="translate(549.55858 1076.155528) scale(0.22 -0.22)">
       <use xlink:href="#DejaVuSans-30"/>
       <use xlink:href="#DejaVuSans-2e" x="63.623047"/>
       <use xlink:href="#DejaVuSans-32" x="95.410156"/>
      </g>
     </g>
    </g>
    <g id="ytick_25">
     <g id="line2d_66">
      <g>
       <use xlink:href="#m899a81ff3a" x="591.545455" y="998.918812" style="stroke: #000000; stroke-width: 0.8"/>
      </g>
     </g>
     <g id="text_69">
      <!-- 0.4 -->
      <g transform="translate(549.55858 1007.277093) scale(0.22 -0.22)">
       <use xlink:href="#DejaVuSans-30"/>
       <use xlink:href="#DejaVuSans-2e" x="63.623047"/>
       <use xlink:href="#DejaVuSans-34" x="95.410156"/>
      </g>
     </g>
    </g>
    <g id="ytick_26">
     <g id="line2d_67">
      <g>
       <use xlink:href="#m899a81ff3a" x="591.545455" y="930.040377" style="stroke: #000000; stroke-width: 0.8"/>
      </g>
     </g>
     <g id="text_70">
      <!-- 0.6 -->
      <g transform="translate(549.55858 938.398659) scale(0.22 -0.22)">
       <use xlink:href="#DejaVuSans-30"/>
       <use xlink:href="#DejaVuSans-2e" x="63.623047"/>
       <use xlink:href="#DejaVuSans-36" x="95.410156"/>
      </g>
     </g>
    </g>
   </g>
   <g id="line2d_68">
    <path d="M 608.838843 1100.496868 
L 609.148344 1084.024067 
L 609.457846 1077.311867 
L 609.612596 1076.660203 
L 610.38635 1070.770691 
L 610.695851 1069.849265 
L 610.850602 1069.938153 
L 611.469605 1068.142314 
L 611.624355 1068.054603 
L 613.945615 1063.731614 
L 614.409867 1063.912697 
L 614.564618 1063.927548 
L 615.183621 1063.543713 
L 615.493122 1063.456711 
L 615.802624 1063.176478 
L 616.112125 1063.01583 
L 616.421626 1062.751041 
L 616.885878 1062.317275 
L 617.35013 1062.581556 
L 617.659632 1062.673554 
L 618.897637 1062.876238 
L 619.671391 1063.34488 
L 620.599895 1063.705407 
L 621.683149 1063.794029 
L 621.992651 1063.824386 
L 622.302152 1063.839374 
L 622.456903 1063.90889 
L 622.766404 1063.835255 
L 623.075905 1064.019725 
L 623.694908 1064.151596 
L 624.313911 1064.373647 
L 624.623412 1064.423657 
L 624.932914 1064.508422 
L 625.087664 1064.591001 
L 625.551916 1064.492085 
L 627.408925 1064.463659 
L 627.718426 1064.464066 
L 628.182678 1064.512312 
L 628.64693 1064.538035 
L 629.884935 1064.493663 
L 630.503938 1064.493587 
L 630.813439 1064.412813 
L 632.360946 1064.329457 
L 634.217954 1063.955125 
L 634.682206 1063.78515 
L 635.610711 1063.707007 
L 637.622469 1063.465528 
L 638.241472 1063.381557 
L 640.562732 1063.063858 
L 641.491236 1062.875772 
L 642.729242 1062.660577 
L 643.348244 1062.591062 
L 644.276749 1062.410013 
L 644.895751 1062.316194 
L 645.669505 1062.189984 
L 646.443258 1062.045616 
L 646.90751 1061.95707 
L 647.217011 1061.924371 
L 649.383521 1061.353556 
L 651.550031 1060.824977 
L 652.169033 1060.676367 
L 656.502052 1059.852143 
L 657.894808 1059.659262 
L 659.751817 1059.292855 
L 664.394337 1058.648591 
L 667.644101 1058.468894 
L 668.263104 1058.460232 
L 669.501109 1058.350221 
L 672.131871 1058.263887 
L 673.215126 1058.212517 
L 674.607882 1058.256358 
L 676.000638 1058.224088 
L 678.167147 1058.232211 
L 682.654917 1058.097385 
L 684.047673 1058.098818 
L 686.214183 1058.130387 
L 698.129985 1058.935008 
L 700.915497 1059.177255 
L 702.153503 1059.28671 
L 713.914554 1060.400453 
L 716.390565 1060.682474 
L 717.628571 1060.813886 
L 728.615869 1062.323805 
L 732.794137 1062.936499 
L 735.115397 1063.274075 
L 737.90091 1063.718297 
L 739.293666 1063.995705 
L 756.006739 1067.163829 
L 758.637501 1067.742518 
L 769.77955 1070.419922 
L 773.029314 1071.230624 
L 776.279078 1071.945689 
L 790.670891 1074.894244 
L 792.992152 1075.345037 
L 796.551417 1076.042811 
L 807.538715 1078.362651 
L 810.324228 1079.013759 
L 812.800239 1079.621919 
L 839.726857 1086.264567 
L 853.035415 1089.998088 
L 865.57022 1094.032397 
L 870.676993 1095.898757 
L 877.02177 1098.493079 
L 883.211798 1101.032636 
L 893.115841 1104.684249 
L 897.44886 1106.562025 
L 903.019885 1109.256714 
L 907.352904 1111.483507 
L 914.161934 1115.413497 
L 916.792695 1116.952172 
L 925.303982 1121.752665 
L 929.791752 1123.831323 
L 934.434273 1125.864376 
L 941.398053 1128.387678 
L 942.481308 1128.82672 
L 943.100311 1129.245738 
L 944.493067 1130.567374 
L 947.43333 1133.37994 
L 948.826086 1134.178443 
L 949.909341 1134.516953 
L 951.302097 1134.831046 
L 953.313855 1136.526916 
L 954.706612 1136.675682 
L 954.706612 1136.675682 
" clip-path="url(#p22e6ada5e2)" style="fill: none; stroke: #1f77b4; stroke-width: 1.5; stroke-linecap: square"/>
   </g>
   <g id="line2d_69">
    <path d="M 608.838843 947.467891 
L 609.148344 922.630328 
L 609.457846 913.38304 
L 609.612596 911.622917 
L 609.767347 907.792496 
L 609.922098 906.728642 
L 610.231599 903.176321 
L 610.38635 902.766316 
L 610.5411 902.899344 
L 611.160103 909.702404 
L 614.255117 944.023471 
L 614.719369 947.423137 
L 615.02887 949.111555 
L 615.802624 954.442369 
L 619.671391 976.051534 
L 620.754645 980.344066 
L 621.218897 981.989213 
L 622.456903 986.084939 
L 623.075905 987.839628 
L 623.849659 989.363841 
L 624.313911 990.487025 
L 624.932914 992.182914 
L 626.170919 995.786775 
L 627.408925 998.135495 
L 627.873177 999.04927 
L 628.492179 1000.187391 
L 630.96819 1004.047868 
L 633.598952 1007.605562 
L 634.682206 1009.220834 
L 636.693965 1011.522903 
L 638.550973 1013.417533 
L 639.479478 1014.255216 
L 640.872234 1015.4641 
L 643.657746 1018.631325 
L 646.133757 1020.895744 
L 647.526513 1022.544095 
L 649.22877 1023.938063 
L 650.776277 1025.35435 
L 652.323784 1026.570335 
L 653.097537 1027.306958 
L 655.109296 1029.105471 
L 655.728299 1029.737979 
L 656.811554 1030.872192 
L 658.049559 1032.007884 
L 663.001581 1036.41217 
L 664.084836 1037.327308 
L 666.251345 1039.139569 
L 667.025098 1039.662847 
L 668.727356 1040.951757 
L 672.750874 1043.958473 
L 674.607882 1045.660787 
L 675.381635 1046.281903 
L 678.476649 1048.282929 
L 679.250402 1048.765991 
L 681.262161 1050.098915 
L 683.738172 1051.58625 
L 684.821427 1052.302802 
L 685.904681 1052.975508 
L 689.773448 1055.260209 
L 691.785207 1056.4775 
L 695.344473 1058.465858 
L 697.665733 1059.687518 
L 699.522741 1060.59213 
L 706.796023 1063.800151 
L 709.272034 1064.783553 
L 711.438543 1065.665739 
L 713.450302 1066.42322 
L 720.259332 1068.909269 
L 722.271091 1069.607249 
L 728.151617 1071.547818 
L 733.258389 1072.995075 
L 734.805896 1073.437405 
L 740.995923 1075.196508 
L 751.983221 1079.081329 
L 757.244745 1080.675897 
L 760.030257 1081.589388 
L 777.207582 1087.385002 
L 784.016612 1089.447412 
L 796.241916 1094.173554 
L 798.098924 1094.802313 
L 809.705225 1099.068754 
L 813.419241 1100.251242 
L 815.895252 1100.918512 
L 822.394781 1102.526269 
L 824.56129 1103.121313 
L 839.726857 1107.284833 
L 847.464391 1108.995604 
L 853.344917 1110.466806 
L 857.677936 1111.610463 
L 862.475207 1112.745788 
L 866.498724 1113.610713 
L 871.450746 1114.61062 
L 875.319513 1115.511582 
L 877.640773 1116.030866 
L 882.902296 1117.191047 
L 888.009069 1118.217741 
L 894.818099 1119.799334 
L 902.710383 1122.040168 
L 912.923928 1125.068745 
L 920.042459 1127.468242 
L 922.36372 1128.046776 
L 927.934744 1129.378368 
L 936.13653 1131.978047 
L 940.005297 1133.386303 
L 942.790809 1134.488017 
L 945.885823 1135.742883 
L 948.671335 1136.414143 
L 950.373593 1136.687768 
L 954.706612 1136.675682 
L 954.706612 1136.675682 
" clip-path="url(#p22e6ada5e2)" style="fill: none; stroke: #ff7f0e; stroke-width: 1.5; stroke-linecap: square"/>
   </g>
   <g id="line2d_70">
    <path d="M 608.838843 1048.61481 
L 609.303095 975.064118 
L 609.612596 954.704012 
L 610.076848 934.467992 
L 610.38635 927.104837 
L 610.850602 922.946321 
L 611.005352 921.953762 
L 611.314854 922.284143 
L 611.779106 926.808748 
L 612.243358 930.521222 
L 612.552859 932.222069 
L 615.957374 959.089573 
L 618.278634 972.417393 
L 619.207138 977.948345 
L 620.599895 984.079875 
L 621.218897 986.161141 
L 623.694908 993.319073 
L 625.087664 996.725458 
L 625.706667 997.997071 
L 626.48042 999.455524 
L 627.873177 1002.079904 
L 628.492179 1002.992217 
L 630.658689 1006.76348 
L 631.277691 1007.903252 
L 636.384464 1015.914269 
L 638.241472 1018.3645 
L 641.026984 1021.616695 
L 641.955488 1022.534205 
L 643.967247 1024.395045 
L 646.133757 1026.802566 
L 648.455017 1029.129565 
L 649.693022 1030.257426 
L 660.370819 1039.877645 
L 661.918326 1041.049543 
L 662.692079 1041.575033 
L 665.632342 1043.565497 
L 671.82237 1046.768232 
L 678.167147 1050.258559 
L 679.559903 1050.897077 
L 682.809668 1052.27252 
L 684.821427 1053.080076 
L 689.773448 1055.004012 
L 704.165262 1059.275966 
L 705.403267 1059.534716 
L 706.796023 1059.8712 
L 714.688308 1061.497289 
L 726.913611 1064.405984 
L 728.615869 1064.733214 
L 732.484636 1065.480302 
L 734.960647 1065.908721 
L 740.686422 1066.512673 
L 742.54343 1066.881117 
L 751.518969 1068.636098 
L 753.99498 1069.02607 
L 759.566005 1070.042611 
L 761.732514 1070.413204 
L 769.77955 1071.72889 
L 771.327056 1072.044555 
L 775.195823 1073.060853 
L 776.433829 1073.426904 
L 780.457346 1074.706675 
L 785.254618 1076.280113 
L 787.575878 1077.027489 
L 793.765905 1078.966685 
L 795.313412 1079.378404 
L 804.907954 1081.941864 
L 808.62197 1082.980931 
L 811.407482 1083.768897 
L 812.800239 1084.105339 
L 815.431 1084.758161 
L 817.288008 1085.281825 
L 819.764019 1085.9862 
L 823.787537 1087.262304 
L 825.954046 1087.975048 
L 851.79741 1096.182181 
L 857.213684 1098.189186 
L 863.558461 1100.422407 
L 870.831743 1102.982706 
L 874.54576 1104.387823 
L 877.795524 1105.537087 
L 881.200039 1106.778253 
L 885.378307 1108.585322 
L 888.163819 1109.85089 
L 891.723085 1111.44344 
L 895.437101 1112.946828 
L 905.650646 1116.528171 
L 912.304925 1118.668911 
L 916.637944 1120.297054 
L 917.566448 1120.610823 
L 921.125714 1121.728016 
L 922.673221 1122.503472 
L 924.83973 1123.632479 
L 926.232487 1124.369455 
L 927.934744 1125.234107 
L 932.113012 1128.217457 
L 934.589023 1129.987114 
L 941.088552 1133.985198 
L 942.790809 1134.622859 
L 944.338316 1134.803336 
L 948.516584 1135.066379 
L 951.302097 1135.426343 
L 953.468606 1136.680037 
L 954.706612 1136.675682 
L 954.706612 1136.675682 
" clip-path="url(#p22e6ada5e2)" style="fill: none; stroke: #2ca02c; stroke-width: 1.5; stroke-linecap: square"/>
   </g>
   <g id="line2d_71">
    <path d="M 608.838843 1039.685554 
L 609.148344 992.576168 
L 609.612596 960.887778 
L 609.922098 948.853947 
L 610.38635 938.273405 
L 610.5411 936.204443 
L 610.695851 936.005163 
L 610.850602 934.690713 
L 611.160103 934.498409 
L 611.314854 934.690919 
L 611.624355 935.60667 
L 611.779106 935.799585 
L 612.088607 937.399431 
L 612.398109 938.206654 
L 613.017111 941.262157 
L 614.100366 950.426124 
L 615.647873 964.135444 
L 618.278634 981.89045 
L 619.207138 986.854961 
L 620.135643 991.411848 
L 623.075905 1003.453411 
L 624.778163 1009.679272 
L 628.956431 1023.2674 
L 630.96819 1028.360633 
L 632.670448 1032.218029 
L 633.753702 1034.548727 
L 635.301209 1037.588534 
L 641.645987 1049.183781 
L 645.514754 1055.025987 
L 650.776277 1062.485815 
L 654.335543 1067.285247 
L 660.216069 1073.846151 
L 661.299323 1074.992588 
L 664.239586 1078.251123 
L 665.632342 1079.565744 
L 668.108353 1081.878123 
L 671.97712 1085.106729 
L 673.369876 1086.441854 
L 674.917383 1087.921211 
L 677.083893 1089.897529 
L 680.797909 1093.008658 
L 684.666676 1095.998564 
L 687.297437 1098.033681 
L 688.380692 1098.792443 
L 694.261218 1103.369496 
L 696.427728 1105.180756 
L 697.975234 1106.382726 
L 701.844001 1109.116379 
L 711.129042 1114.796956 
L 713.605053 1116.329535 
L 722.890094 1121.486221 
L 724.747102 1122.465143 
L 728.77062 1124.544826 
L 734.341644 1127.276012 
L 736.353403 1128.073998 
L 739.448416 1129.469845 
L 741.150674 1130.217348 
L 742.852931 1130.992958 
L 747.0312 1132.810408 
L 752.911726 1134.49168 
L 755.542487 1135.078528 
L 757.708997 1135.496935 
L 762.196766 1136.440267 
L 764.053774 1136.901982 
L 765.446531 1137.183426 
L 770.243802 1138.228694 
L 772.565062 1138.723086 
L 779.06459 1139.989108 
L 781.695352 1140.172666 
L 783.861861 1140.401702 
L 785.564119 1140.517398 
L 788.659133 1140.497482 
L 791.444645 1140.77241 
L 794.84916 1141.086846 
L 807.229214 1141.470435 
L 816.204753 1140.89213 
L 821.002025 1140.833847 
L 825.644545 1140.864257 
L 845.143131 1139.387403 
L 847.30964 1139.21025 
L 851.642659 1139.048747 
L 853.963919 1138.837579 
L 858.451689 1138.49078 
L 862.320456 1138.049833 
L 866.343974 1137.514683 
L 872.37925 1136.654502 
L 877.02177 1136.232442 
L 883.67605 1135.749819 
L 891.723085 1135.397435 
L 894.818099 1135.224078 
L 899.151118 1134.975693 
L 903.019885 1134.641506 
L 906.4244 1134.398281 
L 911.221671 1134.178523 
L 915.864191 1133.977917 
L 918.959205 1133.882486 
L 922.054218 1133.890081 
L 934.279522 1134.262253 
L 943.719313 1134.824285 
L 949.290338 1135.910433 
L 951.921099 1136.334053 
L 953.159105 1136.629969 
L 954.706612 1136.676783 
L 954.706612 1136.676783 
" clip-path="url(#p22e6ada5e2)" style="fill: none; stroke: #d62728; stroke-width: 1.5; stroke-linecap: square"/>
   </g>
   <g id="patch_40">
    <path d="M 591.545455 1153.44 
L 591.545455 890.829474 
" style="fill: none; stroke: #000000; stroke-width: 0.8; stroke-linejoin: miter; stroke-linecap: square"/>
   </g>
   <g id="patch_41">
    <path d="M 972 1153.44 
L 972 890.829474 
" style="fill: none; stroke: #000000; stroke-width: 0.8; stroke-linejoin: miter; stroke-linecap: square"/>
   </g>
   <g id="patch_42">
    <path d="M 591.545455 1153.44 
L 972 1153.44 
" style="fill: none; stroke: #000000; stroke-width: 0.8; stroke-linejoin: miter; stroke-linecap: square"/>
   </g>
   <g id="patch_43">
    <path d="M 591.545455 890.829474 
L 972 890.829474 
" style="fill: none; stroke: #000000; stroke-width: 0.8; stroke-linejoin: miter; stroke-linecap: square"/>
   </g>
   <g id="text_71">
    <!-- f -->
    <g transform="translate(552.733636 872.71352) scale(0.28 -0.28)">
     <defs>
      <path id="DejaVuSans-Bold-66" d="M 2841 4863 
L 2841 4128 
L 2222 4128 
Q 1984 4128 1890 4042 
Q 1797 3956 1797 3744 
L 1797 3500 
L 2753 3500 
L 2753 2700 
L 1797 2700 
L 1797 0 
L 678 0 
L 678 2700 
L 122 2700 
L 122 3500 
L 678 3500 
L 678 3744 
Q 678 4316 997 4589 
Q 1316 4863 1984 4863 
L 2841 4863 
z
" transform="scale(0.015625)"/>
     </defs>
     <use xlink:href="#DejaVuSans-Bold-66"/>
    </g>
   </g>
   <g id="text_72">
    <!-- LCMC -->
    <g transform="translate(747.973977 884.829474) scale(0.24 -0.24)">
     <defs>
      <path id="DejaVuSans-4c" d="M 628 4666 
L 1259 4666 
L 1259 531 
L 3531 531 
L 3531 0 
L 628 0 
L 628 4666 
z
" transform="scale(0.015625)"/>
     </defs>
     <use xlink:href="#DejaVuSans-4c"/>
     <use xlink:href="#DejaVuSans-43" x="55.712891"/>
     <use xlink:href="#DejaVuSans-4d" x="125.537109"/>
     <use xlink:href="#DejaVuSans-43" x="211.816406"/>
    </g>
   </g>
  </g>
 </g>
 <defs>
  <clipPath id="p68d774d29f">
   <rect x="135" y="155.52" width="380.454545" height="262.610526"/>
  </clipPath>
  <clipPath id="p66c0ad35ae">
   <rect x="591.545455" y="155.52" width="380.454545" height="262.610526"/>
  </clipPath>
  <clipPath id="pef6314cbef">
   <rect x="135" y="523.174737" width="380.454545" height="262.610526"/>
  </clipPath>
  <clipPath id="p42dd1e698f">
   <rect x="591.545455" y="523.174737" width="380.454545" height="262.610526"/>
  </clipPath>
  <clipPath id="pcff8f7eb73">
   <rect x="135" y="890.829474" width="380.454545" height="262.610526"/>
  </clipPath>
  <clipPath id="p22e6ada5e2">
   <rect x="591.545455" y="890.829474" width="380.454545" height="262.610526"/>
  </clipPath>
 </defs>
</svg>
