<?xml version="1.0" encoding="utf-8" standalone="no"?>
<!DOCTYPE svg PUBLIC "-//W3C//DTD SVG 1.1//EN"
  "http://www.w3.org/Graphics/SVG/1.1/DTD/svg11.dtd">
<svg xmlns:xlink="http://www.w3.org/1999/xlink" width="1080pt" height="1296pt" viewBox="0 0 1080 1296" xmlns="http://www.w3.org/2000/svg" version="1.1">
 <metadata>
  <rdf:RDF xmlns:dc="http://purl.org/dc/elements/1.1/" xmlns:cc="http://creativecommons.org/ns#" xmlns:rdf="http://www.w3.org/1999/02/22-rdf-syntax-ns#">
   <cc:Work>
    <dc:type rdf:resource="http://purl.org/dc/dcmitype/StillImage"/>
    <dc:date>2024-07-23T23:37:35.619520</dc:date>
    <dc:format>image/svg+xml</dc:format>
    <dc:creator>
     <cc:Agent>
      <dc:title>Matplotlib v3.8.4, https://matplotlib.org/</dc:title>
     </cc:Agent>
    </dc:creator>
   </cc:Work>
  </rdf:RDF>
 </metadata>
 <defs>
  <style type="text/css">*{stroke-linejoin: round; stroke-linecap: butt}</style>
 </defs>
 <g id="figure_1">
  <g id="patch_1">
   <path d="M 0 1296 
L 1080 1296 
L 1080 0 
L 0 0 
z
" style="fill: #ffffff"/>
  </g>
  <g id="axes_1">
   <g id="patch_2">
    <path d="M 135 418.130526 
L 515.454545 418.130526 
L 515.454545 155.52 
L 135 155.52 
z
" style="fill: #ffffff"/>
   </g>
   <g id="matplotlib.axis_1">
    <g id="xtick_1">
     <g id="line2d_1">
      <defs>
       <path id="mc4be42a98c" d="M 0 0 
L 0 3.5 
" style="stroke: #000000; stroke-width: 0.8"/>
      </defs>
      <g>
       <use xlink:href="#mc4be42a98c" x="137.882231" y="418.130526" style="stroke: #000000; stroke-width: 0.8"/>
      </g>
     </g>
     <g id="text_1">
      <!-- 0 -->
      <g transform="translate(131.519731 440.327401) scale(0.2 -0.2)">
       <defs>
        <path id="DejaVuSans-30" d="M 2034 4250 
Q 1547 4250 1301 3770 
Q 1056 3291 1056 2328 
Q 1056 1369 1301 889 
Q 1547 409 2034 409 
Q 2525 409 2770 889 
Q 3016 1369 3016 2328 
Q 3016 3291 2770 3770 
Q 2525 4250 2034 4250 
z
M 2034 4750 
Q 2819 4750 3233 4129 
Q 3647 3509 3647 2328 
Q 3647 1150 3233 529 
Q 2819 -91 2034 -91 
Q 1250 -91 836 529 
Q 422 1150 422 2328 
Q 422 3509 836 4129 
Q 1250 4750 2034 4750 
z
" transform="scale(0.015625)"/>
       </defs>
       <use xlink:href="#DejaVuSans-30"/>
      </g>
     </g>
    </g>
    <g id="xtick_2">
     <g id="line2d_2">
      <g>
       <use xlink:href="#mc4be42a98c" x="209.938017" y="418.130526" style="stroke: #000000; stroke-width: 0.8"/>
      </g>
     </g>
     <g id="text_2">
      <!-- 10 -->
      <g transform="translate(197.213017 440.327401) scale(0.2 -0.2)">
       <defs>
        <path id="DejaVuSans-31" d="M 794 531 
L 1825 531 
L 1825 4091 
L 703 3866 
L 703 4441 
L 1819 4666 
L 2450 4666 
L 2450 531 
L 3481 531 
L 3481 0 
L 794 0 
L 794 531 
z
" transform="scale(0.015625)"/>
       </defs>
       <use xlink:href="#DejaVuSans-31"/>
       <use xlink:href="#DejaVuSans-30" x="63.623047"/>
      </g>
     </g>
    </g>
    <g id="xtick_3">
     <g id="line2d_3">
      <g>
       <use xlink:href="#mc4be42a98c" x="281.993802" y="418.130526" style="stroke: #000000; stroke-width: 0.8"/>
      </g>
     </g>
     <g id="text_3">
      <!-- 20 -->
      <g transform="translate(269.268802 440.327401) scale(0.2 -0.2)">
       <defs>
        <path id="DejaVuSans-32" d="M 1228 531 
L 3431 531 
L 3431 0 
L 469 0 
L 469 531 
Q 828 903 1448 1529 
Q 2069 2156 2228 2338 
Q 2531 2678 2651 2914 
Q 2772 3150 2772 3378 
Q 2772 3750 2511 3984 
Q 2250 4219 1831 4219 
Q 1534 4219 1204 4116 
Q 875 4013 500 3803 
L 500 4441 
Q 881 4594 1212 4672 
Q 1544 4750 1819 4750 
Q 2544 4750 2975 4387 
Q 3406 4025 3406 3419 
Q 3406 3131 3298 2873 
Q 3191 2616 2906 2266 
Q 2828 2175 2409 1742 
Q 1991 1309 1228 531 
z
" transform="scale(0.015625)"/>
       </defs>
       <use xlink:href="#DejaVuSans-32"/>
       <use xlink:href="#DejaVuSans-30" x="63.623047"/>
      </g>
     </g>
    </g>
    <g id="xtick_4">
     <g id="line2d_4">
      <g>
       <use xlink:href="#mc4be42a98c" x="354.049587" y="418.130526" style="stroke: #000000; stroke-width: 0.8"/>
      </g>
     </g>
     <g id="text_4">
      <!-- 30 -->
      <g transform="translate(341.324587 440.327401) scale(0.2 -0.2)">
       <defs>
        <path id="DejaVuSans-33" d="M 2597 2516 
Q 3050 2419 3304 2112 
Q 3559 1806 3559 1356 
Q 3559 666 3084 287 
Q 2609 -91 1734 -91 
Q 1441 -91 1130 -33 
Q 819 25 488 141 
L 488 750 
Q 750 597 1062 519 
Q 1375 441 1716 441 
Q 2309 441 2620 675 
Q 2931 909 2931 1356 
Q 2931 1769 2642 2001 
Q 2353 2234 1838 2234 
L 1294 2234 
L 1294 2753 
L 1863 2753 
Q 2328 2753 2575 2939 
Q 2822 3125 2822 3475 
Q 2822 3834 2567 4026 
Q 2313 4219 1838 4219 
Q 1578 4219 1281 4162 
Q 984 4106 628 3988 
L 628 4550 
Q 988 4650 1302 4700 
Q 1616 4750 1894 4750 
Q 2613 4750 3031 4423 
Q 3450 4097 3450 3541 
Q 3450 3153 3228 2886 
Q 3006 2619 2597 2516 
z
" transform="scale(0.015625)"/>
       </defs>
       <use xlink:href="#DejaVuSans-33"/>
       <use xlink:href="#DejaVuSans-30" x="63.623047"/>
      </g>
     </g>
    </g>
    <g id="xtick_5">
     <g id="line2d_5">
      <g>
       <use xlink:href="#mc4be42a98c" x="426.105372" y="418.130526" style="stroke: #000000; stroke-width: 0.8"/>
      </g>
     </g>
     <g id="text_5">
      <!-- 40 -->
      <g transform="translate(413.380372 440.327401) scale(0.2 -0.2)">
       <defs>
        <path id="DejaVuSans-34" d="M 2419 4116 
L 825 1625 
L 2419 1625 
L 2419 4116 
z
M 2253 4666 
L 3047 4666 
L 3047 1625 
L 3713 1625 
L 3713 1100 
L 3047 1100 
L 3047 0 
L 2419 0 
L 2419 1100 
L 313 1100 
L 313 1709 
L 2253 4666 
z
" transform="scale(0.015625)"/>
       </defs>
       <use xlink:href="#DejaVuSans-34"/>
       <use xlink:href="#DejaVuSans-30" x="63.623047"/>
      </g>
     </g>
    </g>
    <g id="xtick_6">
     <g id="line2d_6">
      <g>
       <use xlink:href="#mc4be42a98c" x="498.161157" y="418.130526" style="stroke: #000000; stroke-width: 0.8"/>
      </g>
     </g>
     <g id="text_6">
      <!-- 50 -->
      <g transform="translate(485.436157 440.327401) scale(0.2 -0.2)">
       <defs>
        <path id="DejaVuSans-35" d="M 691 4666 
L 3169 4666 
L 3169 4134 
L 1269 4134 
L 1269 2991 
Q 1406 3038 1543 3061 
Q 1681 3084 1819 3084 
Q 2600 3084 3056 2656 
Q 3513 2228 3513 1497 
Q 3513 744 3044 326 
Q 2575 -91 1722 -91 
Q 1428 -91 1123 -41 
Q 819 9 494 109 
L 494 744 
Q 775 591 1075 516 
Q 1375 441 1709 441 
Q 2250 441 2565 725 
Q 2881 1009 2881 1497 
Q 2881 1984 2565 2268 
Q 2250 2553 1709 2553 
Q 1456 2553 1204 2497 
Q 953 2441 691 2322 
L 691 4666 
z
" transform="scale(0.015625)"/>
       </defs>
       <use xlink:href="#DejaVuSans-35"/>
       <use xlink:href="#DejaVuSans-30" x="63.623047"/>
      </g>
     </g>
    </g>
    <g id="text_7">
     <!-- k -->
     <g transform="translate(318.278523 466.723026) scale(0.24 -0.24)">
      <defs>
       <path id="DejaVuSans-6b" d="M 581 4863 
L 1159 4863 
L 1159 1991 
L 2875 3500 
L 3609 3500 
L 1753 1863 
L 3688 0 
L 2938 0 
L 1159 1709 
L 1159 0 
L 581 0 
L 581 4863 
z
" transform="scale(0.015625)"/>
      </defs>
      <use xlink:href="#DejaVuSans-6b"/>
     </g>
    </g>
   </g>
   <g id="matplotlib.axis_2">
    <g id="ytick_1">
     <g id="line2d_7">
      <defs>
       <path id="m880f175863" d="M 0 0 
L -3.5 0 
" style="stroke: #000000; stroke-width: 0.8"/>
      </defs>
      <g>
       <use xlink:href="#m880f175863" x="135" y="418.130526" style="stroke: #000000; stroke-width: 0.8"/>
      </g>
     </g>
     <g id="text_8">
      <!-- 0.0 -->
      <g transform="translate(96.19375 425.728964) scale(0.2 -0.2)">
       <defs>
        <path id="DejaVuSans-2e" d="M 684 794 
L 1344 794 
L 1344 0 
L 684 0 
L 684 794 
z
" transform="scale(0.015625)"/>
       </defs>
       <use xlink:href="#DejaVuSans-30"/>
       <use xlink:href="#DejaVuSans-2e" x="63.623047"/>
       <use xlink:href="#DejaVuSans-30" x="95.410156"/>
      </g>
     </g>
    </g>
    <g id="ytick_2">
     <g id="line2d_8">
      <g>
       <use xlink:href="#m880f175863" x="135" y="352.477895" style="stroke: #000000; stroke-width: 0.8"/>
      </g>
     </g>
     <g id="text_9">
      <!-- 0.2 -->
      <g transform="translate(96.19375 360.076332) scale(0.2 -0.2)">
       <use xlink:href="#DejaVuSans-30"/>
       <use xlink:href="#DejaVuSans-2e" x="63.623047"/>
       <use xlink:href="#DejaVuSans-32" x="95.410156"/>
      </g>
     </g>
    </g>
    <g id="ytick_3">
     <g id="line2d_9">
      <g>
       <use xlink:href="#m880f175863" x="135" y="286.825263" style="stroke: #000000; stroke-width: 0.8"/>
      </g>
     </g>
     <g id="text_10">
      <!-- 0.4 -->
      <g transform="translate(96.19375 294.423701) scale(0.2 -0.2)">
       <use xlink:href="#DejaVuSans-30"/>
       <use xlink:href="#DejaVuSans-2e" x="63.623047"/>
       <use xlink:href="#DejaVuSans-34" x="95.410156"/>
      </g>
     </g>
    </g>
    <g id="ytick_4">
     <g id="line2d_10">
      <g>
       <use xlink:href="#m880f175863" x="135" y="221.172632" style="stroke: #000000; stroke-width: 0.8"/>
      </g>
     </g>
     <g id="text_11">
      <!-- 0.6 -->
      <g transform="translate(96.19375 228.771069) scale(0.2 -0.2)">
       <defs>
        <path id="DejaVuSans-36" d="M 2113 2584 
Q 1688 2584 1439 2293 
Q 1191 2003 1191 1497 
Q 1191 994 1439 701 
Q 1688 409 2113 409 
Q 2538 409 2786 701 
Q 3034 994 3034 1497 
Q 3034 2003 2786 2293 
Q 2538 2584 2113 2584 
z
M 3366 4563 
L 3366 3988 
Q 3128 4100 2886 4159 
Q 2644 4219 2406 4219 
Q 1781 4219 1451 3797 
Q 1122 3375 1075 2522 
Q 1259 2794 1537 2939 
Q 1816 3084 2150 3084 
Q 2853 3084 3261 2657 
Q 3669 2231 3669 1497 
Q 3669 778 3244 343 
Q 2819 -91 2113 -91 
Q 1303 -91 875 529 
Q 447 1150 447 2328 
Q 447 3434 972 4092 
Q 1497 4750 2381 4750 
Q 2619 4750 2861 4703 
Q 3103 4656 3366 4563 
z
" transform="scale(0.015625)"/>
       </defs>
       <use xlink:href="#DejaVuSans-30"/>
       <use xlink:href="#DejaVuSans-2e" x="63.623047"/>
       <use xlink:href="#DejaVuSans-36" x="95.410156"/>
      </g>
     </g>
    </g>
    <g id="ytick_5">
     <g id="line2d_11">
      <g>
       <use xlink:href="#m880f175863" x="135" y="155.52" style="stroke: #000000; stroke-width: 0.8"/>
      </g>
     </g>
     <g id="text_12">
      <!-- 0.8 -->
      <g transform="translate(96.19375 163.118438) scale(0.2 -0.2)">
       <defs>
        <path id="DejaVuSans-38" d="M 2034 2216 
Q 1584 2216 1326 1975 
Q 1069 1734 1069 1313 
Q 1069 891 1326 650 
Q 1584 409 2034 409 
Q 2484 409 2743 651 
Q 3003 894 3003 1313 
Q 3003 1734 2745 1975 
Q 2488 2216 2034 2216 
z
M 1403 2484 
Q 997 2584 770 2862 
Q 544 3141 544 3541 
Q 544 4100 942 4425 
Q 1341 4750 2034 4750 
Q 2731 4750 3128 4425 
Q 3525 4100 3525 3541 
Q 3525 3141 3298 2862 
Q 3072 2584 2669 2484 
Q 3125 2378 3379 2068 
Q 3634 1759 3634 1313 
Q 3634 634 3220 271 
Q 2806 -91 2034 -91 
Q 1263 -91 848 271 
Q 434 634 434 1313 
Q 434 1759 690 2068 
Q 947 2378 1403 2484 
z
M 1172 3481 
Q 1172 3119 1398 2916 
Q 1625 2713 2034 2713 
Q 2441 2713 2670 2916 
Q 2900 3119 2900 3481 
Q 2900 3844 2670 4047 
Q 2441 4250 2034 4250 
Q 1625 4250 1398 4047 
Q 1172 3844 1172 3481 
z
" transform="scale(0.015625)"/>
       </defs>
       <use xlink:href="#DejaVuSans-30"/>
       <use xlink:href="#DejaVuSans-2e" x="63.623047"/>
       <use xlink:href="#DejaVuSans-38" x="95.410156"/>
      </g>
     </g>
    </g>
    <g id="text_13">
     <!-- $P_{NN}$ -->
     <g transform="translate(87.2025 306.985263) rotate(-90) scale(0.24 -0.24)">
      <defs>
       <path id="DejaVuSans-Oblique-50" d="M 1081 4666 
L 2541 4666 
Q 3178 4666 3512 4369 
Q 3847 4072 3847 3500 
Q 3847 2731 3353 2303 
Q 2859 1875 1966 1875 
L 1172 1875 
L 806 0 
L 172 0 
L 1081 4666 
z
M 1613 4147 
L 1275 2394 
L 2069 2394 
Q 2606 2394 2893 2669 
Q 3181 2944 3181 3456 
Q 3181 3784 2986 3965 
Q 2791 4147 2438 4147 
L 1613 4147 
z
" transform="scale(0.015625)"/>
       <path id="DejaVuSans-Oblique-4e" d="M 1081 4666 
L 1931 4666 
L 3219 666 
L 4000 4666 
L 4616 4666 
L 3706 0 
L 2853 0 
L 1569 4025 
L 788 0 
L 172 0 
L 1081 4666 
z
" transform="scale(0.015625)"/>
      </defs>
      <use xlink:href="#DejaVuSans-Oblique-50" transform="translate(0 0.09375)"/>
      <use xlink:href="#DejaVuSans-Oblique-4e" transform="translate(60.302734 -16.3125) scale(0.7)"/>
      <use xlink:href="#DejaVuSans-Oblique-4e" transform="translate(112.666016 -16.3125) scale(0.7)"/>
     </g>
    </g>
   </g>
   <g id="line2d_12">
    <path d="M 152.293388 330.91537 
L 173.910124 313.587569 
L 209.938017 303.389661 
L 281.993802 289.000241 
L 498.161157 264.775889 
" clip-path="url(#p466099c6a2)" style="fill: none; stroke: #1f77b4; stroke-width: 1.5; stroke-linecap: square"/>
    <defs>
     <path id="mdc93160b2a" d="M 0 3 
C 0.795609 3 1.55874 2.683901 2.12132 2.12132 
C 2.683901 1.55874 3 0.795609 3 0 
C 3 -0.795609 2.683901 -1.55874 2.12132 -2.12132 
C 1.55874 -2.683901 0.795609 -3 0 -3 
C -0.795609 -3 -1.55874 -2.683901 -2.12132 -2.12132 
C -2.683901 -1.55874 -3 -0.795609 -3 0 
C -3 0.795609 -2.683901 1.55874 -2.12132 2.12132 
C -1.55874 2.683901 -0.795609 3 0 3 
z
" style="stroke: #1f77b4"/>
    </defs>
    <g clip-path="url(#p466099c6a2)">
     <use xlink:href="#mdc93160b2a" x="152.293388" y="330.91537" style="fill: #1f77b4; stroke: #1f77b4"/>
     <use xlink:href="#mdc93160b2a" x="173.910124" y="313.587569" style="fill: #1f77b4; stroke: #1f77b4"/>
     <use xlink:href="#mdc93160b2a" x="209.938017" y="303.389661" style="fill: #1f77b4; stroke: #1f77b4"/>
     <use xlink:href="#mdc93160b2a" x="281.993802" y="289.000241" style="fill: #1f77b4; stroke: #1f77b4"/>
     <use xlink:href="#mdc93160b2a" x="498.161157" y="264.775889" style="fill: #1f77b4; stroke: #1f77b4"/>
    </g>
   </g>
   <g id="line2d_13">
    <path d="M 152.293388 219.141692 
L 173.910124 193.891788 
L 209.938017 191.78883 
L 281.993802 198.284955 
L 498.161157 209.839703 
" clip-path="url(#p466099c6a2)" style="fill: none; stroke: #ff7f0e; stroke-width: 1.5; stroke-linecap: square"/>
    <defs>
     <path id="md4d3260487" d="M 0 3 
C 0.795609 3 1.55874 2.683901 2.12132 2.12132 
C 2.683901 1.55874 3 0.795609 3 0 
C 3 -0.795609 2.683901 -1.55874 2.12132 -2.12132 
C 1.55874 -2.683901 0.795609 -3 0 -3 
C -0.795609 -3 -1.55874 -2.683901 -2.12132 -2.12132 
C -2.683901 -1.55874 -3 -0.795609 -3 0 
C -3 0.795609 -2.683901 1.55874 -2.12132 2.12132 
C -1.55874 2.683901 -0.795609 3 0 3 
z
" style="stroke: #ff7f0e"/>
    </defs>
    <g clip-path="url(#p466099c6a2)">
     <use xlink:href="#md4d3260487" x="152.293388" y="219.141692" style="fill: #ff7f0e; stroke: #ff7f0e"/>
     <use xlink:href="#md4d3260487" x="173.910124" y="193.891788" style="fill: #ff7f0e; stroke: #ff7f0e"/>
     <use xlink:href="#md4d3260487" x="209.938017" y="191.78883" style="fill: #ff7f0e; stroke: #ff7f0e"/>
     <use xlink:href="#md4d3260487" x="281.993802" y="198.284955" style="fill: #ff7f0e; stroke: #ff7f0e"/>
     <use xlink:href="#md4d3260487" x="498.161157" y="209.839703" style="fill: #ff7f0e; stroke: #ff7f0e"/>
    </g>
   </g>
   <g id="line2d_14">
    <path d="M 152.293388 284.751112 
L 173.910124 234.078458 
L 209.938017 214.229988 
L 281.993802 213.941912 
L 498.161157 225.355502 
" clip-path="url(#p466099c6a2)" style="fill: none; stroke: #2ca02c; stroke-width: 1.5; stroke-linecap: square"/>
    <defs>
     <path id="m693a1d78b5" d="M 0 3 
C 0.795609 3 1.55874 2.683901 2.12132 2.12132 
C 2.683901 1.55874 3 0.795609 3 0 
C 3 -0.795609 2.683901 -1.55874 2.12132 -2.12132 
C 1.55874 -2.683901 0.795609 -3 0 -3 
C -0.795609 -3 -1.55874 -2.683901 -2.12132 -2.12132 
C -2.683901 -1.55874 -3 -0.795609 -3 0 
C -3 0.795609 -2.683901 1.55874 -2.12132 2.12132 
C -1.55874 2.683901 -0.795609 3 0 3 
z
" style="stroke: #2ca02c"/>
    </defs>
    <g clip-path="url(#p466099c6a2)">
     <use xlink:href="#m693a1d78b5" x="152.293388" y="284.751112" style="fill: #2ca02c; stroke: #2ca02c"/>
     <use xlink:href="#m693a1d78b5" x="173.910124" y="234.078458" style="fill: #2ca02c; stroke: #2ca02c"/>
     <use xlink:href="#m693a1d78b5" x="209.938017" y="214.229988" style="fill: #2ca02c; stroke: #2ca02c"/>
     <use xlink:href="#m693a1d78b5" x="281.993802" y="213.941912" style="fill: #2ca02c; stroke: #2ca02c"/>
     <use xlink:href="#m693a1d78b5" x="498.161157" y="225.355502" style="fill: #2ca02c; stroke: #2ca02c"/>
    </g>
   </g>
   <g id="line2d_15">
    <path d="M 152.293388 291.376872 
L 173.910124 264.989065 
L 209.938017 250.65726 
L 281.993802 243.80104 
L 498.161157 252.054431 
" clip-path="url(#p466099c6a2)" style="fill: none; stroke: #d62728; stroke-width: 1.5; stroke-linecap: square"/>
    <defs>
     <path id="m81f0f82020" d="M 0 3 
C 0.795609 3 1.55874 2.683901 2.12132 2.12132 
C 2.683901 1.55874 3 0.795609 3 0 
C 3 -0.795609 2.683901 -1.55874 2.12132 -2.12132 
C 1.55874 -2.683901 0.795609 -3 0 -3 
C -0.795609 -3 -1.55874 -2.683901 -2.12132 -2.12132 
C -2.683901 -1.55874 -3 -0.795609 -3 0 
C -3 0.795609 -2.683901 1.55874 -2.12132 2.12132 
C -1.55874 2.683901 -0.795609 3 0 3 
z
" style="stroke: #d62728"/>
    </defs>
    <g clip-path="url(#p466099c6a2)">
     <use xlink:href="#m81f0f82020" x="152.293388" y="291.376872" style="fill: #d62728; stroke: #d62728"/>
     <use xlink:href="#m81f0f82020" x="173.910124" y="264.989065" style="fill: #d62728; stroke: #d62728"/>
     <use xlink:href="#m81f0f82020" x="209.938017" y="250.65726" style="fill: #d62728; stroke: #d62728"/>
     <use xlink:href="#m81f0f82020" x="281.993802" y="243.80104" style="fill: #d62728; stroke: #d62728"/>
     <use xlink:href="#m81f0f82020" x="498.161157" y="252.054431" style="fill: #d62728; stroke: #d62728"/>
    </g>
   </g>
   <g id="patch_3">
    <path d="M 135 418.130526 
L 135 155.52 
" style="fill: none; stroke: #000000; stroke-width: 0.8; stroke-linejoin: miter; stroke-linecap: square"/>
   </g>
   <g id="patch_4">
    <path d="M 515.454545 418.130526 
L 515.454545 155.52 
" style="fill: none; stroke: #000000; stroke-width: 0.8; stroke-linejoin: miter; stroke-linecap: square"/>
   </g>
   <g id="patch_5">
    <path d="M 135 418.130526 
L 515.454545 418.130526 
" style="fill: none; stroke: #000000; stroke-width: 0.8; stroke-linejoin: miter; stroke-linecap: square"/>
   </g>
   <g id="patch_6">
    <path d="M 135 155.52 
L 515.454545 155.52 
" style="fill: none; stroke: #000000; stroke-width: 0.8; stroke-linejoin: miter; stroke-linecap: square"/>
   </g>
   <g id="text_14">
    <!-- a -->
    <g transform="translate(89.472557 137.404046) scale(0.28 -0.28)">
     <defs>
      <path id="DejaVuSans-Bold-61" d="M 2106 1575 
Q 1756 1575 1579 1456 
Q 1403 1338 1403 1106 
Q 1403 894 1545 773 
Q 1688 653 1941 653 
Q 2256 653 2472 879 
Q 2688 1106 2688 1447 
L 2688 1575 
L 2106 1575 
z
M 3816 1997 
L 3816 0 
L 2688 0 
L 2688 519 
Q 2463 200 2181 54 
Q 1900 -91 1497 -91 
Q 953 -91 614 226 
Q 275 544 275 1050 
Q 275 1666 698 1953 
Q 1122 2241 2028 2241 
L 2688 2241 
L 2688 2328 
Q 2688 2594 2478 2717 
Q 2269 2841 1825 2841 
Q 1466 2841 1156 2769 
Q 847 2697 581 2553 
L 581 3406 
Q 941 3494 1303 3539 
Q 1666 3584 2028 3584 
Q 2975 3584 3395 3211 
Q 3816 2838 3816 1997 
z
" transform="scale(0.015625)"/>
     </defs>
     <use xlink:href="#DejaVuSans-Bold-61"/>
    </g>
   </g>
   <g id="text_15">
    <!-- $P_{NN}$ -->
    <g transform="translate(303.387273 149.52) scale(0.26 -0.26)">
     <use xlink:href="#DejaVuSans-Oblique-50" transform="translate(0 0.09375)"/>
     <use xlink:href="#DejaVuSans-Oblique-4e" transform="translate(60.302734 -16.3125) scale(0.7)"/>
     <use xlink:href="#DejaVuSans-Oblique-4e" transform="translate(112.666016 -16.3125) scale(0.7)"/>
    </g>
   </g>
  </g>
  <g id="axes_2">
   <g id="patch_7">
    <path d="M 591.545455 418.130526 
L 972 418.130526 
L 972 155.52 
L 591.545455 155.52 
z
" style="fill: #ffffff"/>
   </g>
   <g id="patch_8">
    <path d="M 608.838843 418.130526 
L 628.792753 418.130526 
L 628.792753 180.097198 
L 608.838843 180.097198 
z
" clip-path="url(#pd635ba4804)" style="fill: #1f77b4"/>
   </g>
   <g id="patch_9">
    <path d="M 741.864908 418.130526 
L 761.818818 418.130526 
L 761.818818 253.931923 
L 741.864908 253.931923 
z
" clip-path="url(#pd635ba4804)" style="fill: #1f77b4"/>
   </g>
   <g id="patch_10">
    <path d="M 874.890973 418.130526 
L 894.844882 418.130526 
L 894.844882 168.025263 
L 874.890973 168.025263 
z
" clip-path="url(#pd635ba4804)" style="fill: #1f77b4"/>
   </g>
   <g id="patch_11">
    <path d="M 628.792753 418.130526 
L 648.746662 418.130526 
L 648.746662 193.31041 
L 628.792753 193.31041 
z
" clip-path="url(#pd635ba4804)" style="fill: #ff7f0e"/>
   </g>
   <g id="patch_12">
    <path d="M 761.818818 418.130526 
L 781.772727 418.130526 
L 781.772727 242.832612 
L 761.818818 242.832612 
z
" clip-path="url(#pd635ba4804)" style="fill: #ff7f0e"/>
   </g>
   <g id="patch_13">
    <path d="M 894.844882 418.130526 
L 914.798792 418.130526 
L 914.798792 193.095222 
L 894.844882 193.095222 
z
" clip-path="url(#pd635ba4804)" style="fill: #ff7f0e"/>
   </g>
   <g id="patch_14">
    <path d="M 648.746662 418.130526 
L 668.700572 418.130526 
L 668.700572 197.563467 
L 648.746662 197.563467 
z
" clip-path="url(#pd635ba4804)" style="fill: #2ca02c"/>
   </g>
   <g id="patch_15">
    <path d="M 781.772727 418.130526 
L 801.726637 418.130526 
L 801.726637 268.924034 
L 781.772727 268.924034 
z
" clip-path="url(#pd635ba4804)" style="fill: #2ca02c"/>
   </g>
   <g id="patch_16">
    <path d="M 914.798792 418.130526 
L 934.752702 418.130526 
L 934.752702 197.100752 
L 914.798792 197.100752 
z
" clip-path="url(#pd635ba4804)" style="fill: #2ca02c"/>
   </g>
   <g id="patch_17">
    <path d="M 668.700572 418.130526 
L 688.654482 418.130526 
L 688.654482 240.788698 
L 668.700572 240.788698 
z
" clip-path="url(#pd635ba4804)" style="fill: #d62728"/>
   </g>
   <g id="patch_18">
    <path d="M 801.726637 418.130526 
L 821.680547 418.130526 
L 821.680547 285.752946 
L 801.726637 285.752946 
z
" clip-path="url(#pd635ba4804)" style="fill: #d62728"/>
   </g>
   <g id="patch_19">
    <path d="M 934.752702 418.130526 
L 954.706612 418.130526 
L 954.706612 240.347609 
L 934.752702 240.347609 
z
" clip-path="url(#pd635ba4804)" style="fill: #d62728"/>
   </g>
   <g id="matplotlib.axis_3">
    <g id="xtick_7">
     <g id="line2d_16">
      <g>
       <use xlink:href="#mc4be42a98c" x="648.746662" y="418.130526" style="stroke: #000000; stroke-width: 0.8"/>
      </g>
     </g>
     <g id="text_16">
      <!-- AUC -->
      <g transform="translate(625.490256 441.847089) scale(0.22 -0.22)">
       <defs>
        <path id="DejaVuSans-41" d="M 2188 4044 
L 1331 1722 
L 3047 1722 
L 2188 4044 
z
M 1831 4666 
L 2547 4666 
L 4325 0 
L 3669 0 
L 3244 1197 
L 1141 1197 
L 716 0 
L 50 0 
L 1831 4666 
z
" transform="scale(0.015625)"/>
        <path id="DejaVuSans-55" d="M 556 4666 
L 1191 4666 
L 1191 1831 
Q 1191 1081 1462 751 
Q 1734 422 2344 422 
Q 2950 422 3222 751 
Q 3494 1081 3494 1831 
L 3494 4666 
L 4128 4666 
L 4128 1753 
Q 4128 841 3676 375 
Q 3225 -91 2344 -91 
Q 1459 -91 1007 375 
Q 556 841 556 1753 
L 556 4666 
z
" transform="scale(0.015625)"/>
        <path id="DejaVuSans-43" d="M 4122 4306 
L 4122 3641 
Q 3803 3938 3442 4084 
Q 3081 4231 2675 4231 
Q 1875 4231 1450 3742 
Q 1025 3253 1025 2328 
Q 1025 1406 1450 917 
Q 1875 428 2675 428 
Q 3081 428 3442 575 
Q 3803 722 4122 1019 
L 4122 359 
Q 3791 134 3420 21 
Q 3050 -91 2638 -91 
Q 1578 -91 968 557 
Q 359 1206 359 2328 
Q 359 3453 968 4101 
Q 1578 4750 2638 4750 
Q 3056 4750 3426 4639 
Q 3797 4528 4122 4306 
z
" transform="scale(0.015625)"/>
       </defs>
       <use xlink:href="#DejaVuSans-41"/>
       <use xlink:href="#DejaVuSans-55" x="68.408203"/>
       <use xlink:href="#DejaVuSans-43" x="141.601562"/>
      </g>
     </g>
    </g>
    <g id="xtick_8">
     <g id="line2d_17">
      <g>
       <use xlink:href="#mc4be42a98c" x="781.772727" y="418.130526" style="stroke: #000000; stroke-width: 0.8"/>
      </g>
     </g>
     <g id="text_17">
      <!-- $Q_{local}$ -->
      <g transform="translate(754.822727 441.847089) scale(0.22 -0.22)">
       <defs>
        <path id="DejaVuSans-Oblique-51" d="M 2309 -84 
Q 2275 -88 2237 -89 
Q 2200 -91 2125 -91 
Q 1250 -91 756 411 
Q 263 913 263 1797 
Q 263 2319 452 2844 
Q 641 3369 978 3788 
Q 1369 4269 1858 4509 
Q 2347 4750 2938 4750 
Q 3794 4750 4287 4245 
Q 4781 3741 4781 2869 
Q 4781 1928 4265 1147 
Q 3750 366 2919 44 
L 3553 -825 
L 2847 -825 
L 2309 -84 
z
M 2919 4238 
Q 2400 4238 2003 3986 
Q 1606 3734 1313 3219 
Q 1125 2891 1026 2522 
Q 928 2153 928 1778 
Q 928 1128 1239 775 
Q 1550 422 2119 422 
Q 2631 422 3032 676 
Q 3434 931 3719 1434 
Q 3909 1772 4009 2142 
Q 4109 2513 4109 2881 
Q 4109 3528 3796 3883 
Q 3484 4238 2919 4238 
z
" transform="scale(0.015625)"/>
        <path id="DejaVuSans-Oblique-6c" d="M 1172 4863 
L 1747 4863 
L 800 0 
L 225 0 
L 1172 4863 
z
" transform="scale(0.015625)"/>
        <path id="DejaVuSans-Oblique-6f" d="M 1625 -91 
Q 1009 -91 651 289 
Q 294 669 294 1325 
Q 294 1706 417 2101 
Q 541 2497 738 2766 
Q 1047 3184 1428 3384 
Q 1809 3584 2291 3584 
Q 2888 3584 3255 3212 
Q 3622 2841 3622 2241 
Q 3622 1825 3500 1412 
Q 3378 1000 3181 728 
Q 2875 309 2494 109 
Q 2113 -91 1625 -91 
z
M 891 1344 
Q 891 869 1089 633 
Q 1288 397 1691 397 
Q 2269 397 2648 901 
Q 3028 1406 3028 2181 
Q 3028 2634 2825 2865 
Q 2622 3097 2228 3097 
Q 1903 3097 1650 2945 
Q 1397 2794 1197 2484 
Q 1050 2253 970 1956 
Q 891 1659 891 1344 
z
" transform="scale(0.015625)"/>
        <path id="DejaVuSans-Oblique-63" d="M 3431 3366 
L 3316 2797 
Q 3109 2947 2876 3022 
Q 2644 3097 2394 3097 
Q 2119 3097 1870 3000 
Q 1622 2903 1453 2725 
Q 1184 2453 1037 2087 
Q 891 1722 891 1331 
Q 891 859 1127 628 
Q 1363 397 1844 397 
Q 2081 397 2348 469 
Q 2616 541 2906 684 
L 2797 116 
Q 2547 13 2283 -39 
Q 2019 -91 1741 -91 
Q 1044 -91 669 257 
Q 294 606 294 1253 
Q 294 1797 489 2255 
Q 684 2713 1069 3078 
Q 1331 3328 1684 3456 
Q 2038 3584 2456 3584 
Q 2700 3584 2940 3529 
Q 3181 3475 3431 3366 
z
" transform="scale(0.015625)"/>
        <path id="DejaVuSans-Oblique-61" d="M 3438 1997 
L 3047 0 
L 2472 0 
L 2578 531 
Q 2325 219 2001 64 
Q 1678 -91 1281 -91 
Q 834 -91 548 182 
Q 263 456 263 884 
Q 263 1497 752 1853 
Q 1241 2209 2100 2209 
L 2900 2209 
L 2931 2363 
Q 2938 2388 2941 2417 
Q 2944 2447 2944 2509 
Q 2944 2788 2717 2942 
Q 2491 3097 2081 3097 
Q 1800 3097 1504 3025 
Q 1209 2953 897 2809 
L 997 3341 
Q 1322 3463 1633 3523 
Q 1944 3584 2234 3584 
Q 2853 3584 3176 3315 
Q 3500 3047 3500 2534 
Q 3500 2431 3484 2292 
Q 3469 2153 3438 1997 
z
M 2816 1759 
L 2241 1759 
Q 1534 1759 1195 1570 
Q 856 1381 856 984 
Q 856 709 1029 553 
Q 1203 397 1509 397 
Q 1978 397 2328 733 
Q 2678 1069 2791 1631 
L 2816 1759 
z
" transform="scale(0.015625)"/>
       </defs>
       <use xlink:href="#DejaVuSans-Oblique-51" transform="translate(0 0.78125)"/>
       <use xlink:href="#DejaVuSans-Oblique-6c" transform="translate(78.710938 -15.625) scale(0.7)"/>
       <use xlink:href="#DejaVuSans-Oblique-6f" transform="translate(98.15918 -15.625) scale(0.7)"/>
       <use xlink:href="#DejaVuSans-Oblique-63" transform="translate(140.986328 -15.625) scale(0.7)"/>
       <use xlink:href="#DejaVuSans-Oblique-61" transform="translate(179.472656 -15.625) scale(0.7)"/>
       <use xlink:href="#DejaVuSans-Oblique-6c" transform="translate(222.368164 -15.625) scale(0.7)"/>
      </g>
     </g>
    </g>
    <g id="xtick_9">
     <g id="line2d_18">
      <g>
       <use xlink:href="#mc4be42a98c" x="914.798792" y="418.130526" style="stroke: #000000; stroke-width: 0.8"/>
      </g>
     </g>
     <g id="text_18">
      <!-- $Q_{global}$ -->
      <g transform="translate(882.348792 441.630526) scale(0.22 -0.22)">
       <defs>
        <path id="DejaVuSans-Oblique-67" d="M 3816 3500 
L 3219 434 
Q 3047 -456 2561 -893 
Q 2075 -1331 1253 -1331 
Q 950 -1331 690 -1286 
Q 431 -1241 206 -1147 
L 313 -588 
Q 525 -725 762 -790 
Q 1000 -856 1269 -856 
Q 1816 -856 2167 -557 
Q 2519 -259 2631 300 
L 2681 563 
Q 2441 288 2122 144 
Q 1803 0 1434 0 
Q 903 0 598 351 
Q 294 703 294 1319 
Q 294 1803 478 2267 
Q 663 2731 997 3091 
Q 1219 3328 1514 3456 
Q 1809 3584 2131 3584 
Q 2484 3584 2746 3420 
Q 3009 3256 3138 2956 
L 3238 3500 
L 3816 3500 
z
M 2950 2216 
Q 2950 2641 2750 2872 
Q 2550 3103 2181 3103 
Q 1953 3103 1747 3012 
Q 1541 2922 1394 2759 
Q 1156 2491 1023 2127 
Q 891 1763 891 1375 
Q 891 944 1092 712 
Q 1294 481 1672 481 
Q 2219 481 2584 976 
Q 2950 1472 2950 2216 
z
" transform="scale(0.015625)"/>
        <path id="DejaVuSans-Oblique-62" d="M 3169 2138 
Q 3169 2591 2961 2847 
Q 2753 3103 2388 3103 
Q 2122 3103 1889 2973 
Q 1656 2844 1484 2597 
Q 1303 2338 1198 1995 
Q 1094 1653 1094 1313 
Q 1094 881 1298 636 
Q 1503 391 1863 391 
Q 2134 391 2365 517 
Q 2597 644 2772 891 
Q 2950 1147 3059 1487 
Q 3169 1828 3169 2138 
z
M 1381 2969 
Q 1594 3256 1914 3420 
Q 2234 3584 2584 3584 
Q 3122 3584 3439 3221 
Q 3756 2859 3756 2241 
Q 3756 1734 3570 1259 
Q 3384 784 3041 416 
Q 2816 172 2522 40 
Q 2228 -91 1906 -91 
Q 1566 -91 1316 65 
Q 1066 222 909 531 
L 806 0 
L 231 0 
L 1178 4863 
L 1753 4863 
L 1381 2969 
z
" transform="scale(0.015625)"/>
       </defs>
       <use xlink:href="#DejaVuSans-Oblique-51" transform="translate(0 0.78125)"/>
       <use xlink:href="#DejaVuSans-Oblique-67" transform="translate(78.710938 -15.625) scale(0.7)"/>
       <use xlink:href="#DejaVuSans-Oblique-6c" transform="translate(123.144531 -15.625) scale(0.7)"/>
       <use xlink:href="#DejaVuSans-Oblique-6f" transform="translate(142.592773 -15.625) scale(0.7)"/>
       <use xlink:href="#DejaVuSans-Oblique-62" transform="translate(185.419922 -15.625) scale(0.7)"/>
       <use xlink:href="#DejaVuSans-Oblique-61" transform="translate(229.853516 -15.625) scale(0.7)"/>
       <use xlink:href="#DejaVuSans-Oblique-6c" transform="translate(272.749023 -15.625) scale(0.7)"/>
      </g>
     </g>
    </g>
   </g>
   <g id="matplotlib.axis_4">
    <g id="ytick_6">
     <g id="line2d_19">
      <g>
       <use xlink:href="#m880f175863" x="591.545455" y="418.130526" style="stroke: #000000; stroke-width: 0.8"/>
      </g>
     </g>
     <g id="text_19">
      <!-- 0.0 -->
      <g transform="translate(549.55858 426.488808) scale(0.22 -0.22)">
       <use xlink:href="#DejaVuSans-30"/>
       <use xlink:href="#DejaVuSans-2e" x="63.623047"/>
       <use xlink:href="#DejaVuSans-30" x="95.410156"/>
      </g>
     </g>
    </g>
    <g id="ytick_7">
     <g id="line2d_20">
      <g>
       <use xlink:href="#m880f175863" x="591.545455" y="364.074943" style="stroke: #000000; stroke-width: 0.8"/>
      </g>
     </g>
     <g id="text_20">
      <!-- 0.2 -->
      <g transform="translate(549.55858 372.433225) scale(0.22 -0.22)">
       <use xlink:href="#DejaVuSans-30"/>
       <use xlink:href="#DejaVuSans-2e" x="63.623047"/>
       <use xlink:href="#DejaVuSans-32" x="95.410156"/>
      </g>
     </g>
    </g>
    <g id="ytick_8">
     <g id="line2d_21">
      <g>
       <use xlink:href="#m880f175863" x="591.545455" y="310.01936" style="stroke: #000000; stroke-width: 0.8"/>
      </g>
     </g>
     <g id="text_21">
      <!-- 0.4 -->
      <g transform="translate(549.55858 318.377641) scale(0.22 -0.22)">
       <use xlink:href="#DejaVuSans-30"/>
       <use xlink:href="#DejaVuSans-2e" x="63.623047"/>
       <use xlink:href="#DejaVuSans-34" x="95.410156"/>
      </g>
     </g>
    </g>
    <g id="ytick_9">
     <g id="line2d_22">
      <g>
       <use xlink:href="#m880f175863" x="591.545455" y="255.963777" style="stroke: #000000; stroke-width: 0.8"/>
      </g>
     </g>
     <g id="text_22">
      <!-- 0.6 -->
      <g transform="translate(549.55858 264.322058) scale(0.22 -0.22)">
       <use xlink:href="#DejaVuSans-30"/>
       <use xlink:href="#DejaVuSans-2e" x="63.623047"/>
       <use xlink:href="#DejaVuSans-36" x="95.410156"/>
      </g>
     </g>
    </g>
    <g id="ytick_10">
     <g id="line2d_23">
      <g>
       <use xlink:href="#m880f175863" x="591.545455" y="201.908194" style="stroke: #000000; stroke-width: 0.8"/>
      </g>
     </g>
     <g id="text_23">
      <!-- 0.8 -->
      <g transform="translate(549.55858 210.266475) scale(0.22 -0.22)">
       <use xlink:href="#DejaVuSans-30"/>
       <use xlink:href="#DejaVuSans-2e" x="63.623047"/>
       <use xlink:href="#DejaVuSans-38" x="95.410156"/>
      </g>
     </g>
    </g>
    <g id="text_24">
     <!-- Metric Value -->
     <g transform="translate(540.983267 354.727919) rotate(-90) scale(0.22 -0.22)">
      <defs>
       <path id="DejaVuSans-4d" d="M 628 4666 
L 1569 4666 
L 2759 1491 
L 3956 4666 
L 4897 4666 
L 4897 0 
L 4281 0 
L 4281 4097 
L 3078 897 
L 2444 897 
L 1241 4097 
L 1241 0 
L 628 0 
L 628 4666 
z
" transform="scale(0.015625)"/>
       <path id="DejaVuSans-65" d="M 3597 1894 
L 3597 1613 
L 953 1613 
Q 991 1019 1311 708 
Q 1631 397 2203 397 
Q 2534 397 2845 478 
Q 3156 559 3463 722 
L 3463 178 
Q 3153 47 2828 -22 
Q 2503 -91 2169 -91 
Q 1331 -91 842 396 
Q 353 884 353 1716 
Q 353 2575 817 3079 
Q 1281 3584 2069 3584 
Q 2775 3584 3186 3129 
Q 3597 2675 3597 1894 
z
M 3022 2063 
Q 3016 2534 2758 2815 
Q 2500 3097 2075 3097 
Q 1594 3097 1305 2825 
Q 1016 2553 972 2059 
L 3022 2063 
z
" transform="scale(0.015625)"/>
       <path id="DejaVuSans-74" d="M 1172 4494 
L 1172 3500 
L 2356 3500 
L 2356 3053 
L 1172 3053 
L 1172 1153 
Q 1172 725 1289 603 
Q 1406 481 1766 481 
L 2356 481 
L 2356 0 
L 1766 0 
Q 1100 0 847 248 
Q 594 497 594 1153 
L 594 3053 
L 172 3053 
L 172 3500 
L 594 3500 
L 594 4494 
L 1172 4494 
z
" transform="scale(0.015625)"/>
       <path id="DejaVuSans-72" d="M 2631 2963 
Q 2534 3019 2420 3045 
Q 2306 3072 2169 3072 
Q 1681 3072 1420 2755 
Q 1159 2438 1159 1844 
L 1159 0 
L 581 0 
L 581 3500 
L 1159 3500 
L 1159 2956 
Q 1341 3275 1631 3429 
Q 1922 3584 2338 3584 
Q 2397 3584 2469 3576 
Q 2541 3569 2628 3553 
L 2631 2963 
z
" transform="scale(0.015625)"/>
       <path id="DejaVuSans-69" d="M 603 3500 
L 1178 3500 
L 1178 0 
L 603 0 
L 603 3500 
z
M 603 4863 
L 1178 4863 
L 1178 4134 
L 603 4134 
L 603 4863 
z
" transform="scale(0.015625)"/>
       <path id="DejaVuSans-63" d="M 3122 3366 
L 3122 2828 
Q 2878 2963 2633 3030 
Q 2388 3097 2138 3097 
Q 1578 3097 1268 2742 
Q 959 2388 959 1747 
Q 959 1106 1268 751 
Q 1578 397 2138 397 
Q 2388 397 2633 464 
Q 2878 531 3122 666 
L 3122 134 
Q 2881 22 2623 -34 
Q 2366 -91 2075 -91 
Q 1284 -91 818 406 
Q 353 903 353 1747 
Q 353 2603 823 3093 
Q 1294 3584 2113 3584 
Q 2378 3584 2631 3529 
Q 2884 3475 3122 3366 
z
" transform="scale(0.015625)"/>
       <path id="DejaVuSans-20" transform="scale(0.015625)"/>
       <path id="DejaVuSans-56" d="M 1831 0 
L 50 4666 
L 709 4666 
L 2188 738 
L 3669 4666 
L 4325 4666 
L 2547 0 
L 1831 0 
z
" transform="scale(0.015625)"/>
       <path id="DejaVuSans-61" d="M 2194 1759 
Q 1497 1759 1228 1600 
Q 959 1441 959 1056 
Q 959 750 1161 570 
Q 1363 391 1709 391 
Q 2188 391 2477 730 
Q 2766 1069 2766 1631 
L 2766 1759 
L 2194 1759 
z
M 3341 1997 
L 3341 0 
L 2766 0 
L 2766 531 
Q 2569 213 2275 61 
Q 1981 -91 1556 -91 
Q 1019 -91 701 211 
Q 384 513 384 1019 
Q 384 1609 779 1909 
Q 1175 2209 1959 2209 
L 2766 2209 
L 2766 2266 
Q 2766 2663 2505 2880 
Q 2244 3097 1772 3097 
Q 1472 3097 1187 3025 
Q 903 2953 641 2809 
L 641 3341 
Q 956 3463 1253 3523 
Q 1550 3584 1831 3584 
Q 2591 3584 2966 3190 
Q 3341 2797 3341 1997 
z
" transform="scale(0.015625)"/>
       <path id="DejaVuSans-6c" d="M 603 4863 
L 1178 4863 
L 1178 0 
L 603 0 
L 603 4863 
z
" transform="scale(0.015625)"/>
       <path id="DejaVuSans-75" d="M 544 1381 
L 544 3500 
L 1119 3500 
L 1119 1403 
Q 1119 906 1312 657 
Q 1506 409 1894 409 
Q 2359 409 2629 706 
Q 2900 1003 2900 1516 
L 2900 3500 
L 3475 3500 
L 3475 0 
L 2900 0 
L 2900 538 
Q 2691 219 2414 64 
Q 2138 -91 1772 -91 
Q 1169 -91 856 284 
Q 544 659 544 1381 
z
M 1991 3584 
L 1991 3584 
z
" transform="scale(0.015625)"/>
      </defs>
      <use xlink:href="#DejaVuSans-4d"/>
      <use xlink:href="#DejaVuSans-65" x="86.279297"/>
      <use xlink:href="#DejaVuSans-74" x="147.802734"/>
      <use xlink:href="#DejaVuSans-72" x="187.011719"/>
      <use xlink:href="#DejaVuSans-69" x="228.125"/>
      <use xlink:href="#DejaVuSans-63" x="255.908203"/>
      <use xlink:href="#DejaVuSans-20" x="310.888672"/>
      <use xlink:href="#DejaVuSans-56" x="342.675781"/>
      <use xlink:href="#DejaVuSans-61" x="403.333984"/>
      <use xlink:href="#DejaVuSans-6c" x="464.613281"/>
      <use xlink:href="#DejaVuSans-75" x="492.396484"/>
      <use xlink:href="#DejaVuSans-65" x="555.775391"/>
     </g>
    </g>
   </g>
   <g id="patch_20">
    <path d="M 591.545455 418.130526 
L 591.545455 155.52 
" style="fill: none; stroke: #000000; stroke-width: 0.8; stroke-linejoin: miter; stroke-linecap: square"/>
   </g>
   <g id="patch_21">
    <path d="M 972 418.130526 
L 972 155.52 
" style="fill: none; stroke: #000000; stroke-width: 0.8; stroke-linejoin: miter; stroke-linecap: square"/>
   </g>
   <g id="patch_22">
    <path d="M 591.545455 418.130526 
L 972 418.130526 
" style="fill: none; stroke: #000000; stroke-width: 0.8; stroke-linejoin: miter; stroke-linecap: square"/>
   </g>
   <g id="patch_23">
    <path d="M 591.545455 155.52 
L 972 155.52 
" style="fill: none; stroke: #000000; stroke-width: 0.8; stroke-linejoin: miter; stroke-linecap: square"/>
   </g>
   <g id="text_25">
    <!-- b -->
    <g transform="translate(544.871761 137.404046) scale(0.28 -0.28)">
     <defs>
      <path id="DejaVuSans-Bold-62" d="M 2400 722 
Q 2759 722 2948 984 
Q 3138 1247 3138 1747 
Q 3138 2247 2948 2509 
Q 2759 2772 2400 2772 
Q 2041 2772 1848 2508 
Q 1656 2244 1656 1747 
Q 1656 1250 1848 986 
Q 2041 722 2400 722 
z
M 1656 2988 
Q 1888 3294 2169 3439 
Q 2450 3584 2816 3584 
Q 3463 3584 3878 3070 
Q 4294 2556 4294 1747 
Q 4294 938 3878 423 
Q 3463 -91 2816 -91 
Q 2450 -91 2169 54 
Q 1888 200 1656 506 
L 1656 0 
L 538 0 
L 538 4863 
L 1656 4863 
L 1656 2988 
z
" transform="scale(0.015625)"/>
     </defs>
     <use xlink:href="#DejaVuSans-Bold-62"/>
    </g>
   </g>
   <g id="text_26">
    <!-- Metrics -->
    <g transform="translate(734.584759 149.52) scale(0.26 -0.26)">
     <defs>
      <path id="DejaVuSans-73" d="M 2834 3397 
L 2834 2853 
Q 2591 2978 2328 3040 
Q 2066 3103 1784 3103 
Q 1356 3103 1142 2972 
Q 928 2841 928 2578 
Q 928 2378 1081 2264 
Q 1234 2150 1697 2047 
L 1894 2003 
Q 2506 1872 2764 1633 
Q 3022 1394 3022 966 
Q 3022 478 2636 193 
Q 2250 -91 1575 -91 
Q 1294 -91 989 -36 
Q 684 19 347 128 
L 347 722 
Q 666 556 975 473 
Q 1284 391 1588 391 
Q 1994 391 2212 530 
Q 2431 669 2431 922 
Q 2431 1156 2273 1281 
Q 2116 1406 1581 1522 
L 1381 1569 
Q 847 1681 609 1914 
Q 372 2147 372 2553 
Q 372 3047 722 3315 
Q 1072 3584 1716 3584 
Q 2034 3584 2315 3537 
Q 2597 3491 2834 3397 
z
" transform="scale(0.015625)"/>
     </defs>
     <use xlink:href="#DejaVuSans-4d"/>
     <use xlink:href="#DejaVuSans-65" x="86.279297"/>
     <use xlink:href="#DejaVuSans-74" x="147.802734"/>
     <use xlink:href="#DejaVuSans-72" x="187.011719"/>
     <use xlink:href="#DejaVuSans-69" x="228.125"/>
     <use xlink:href="#DejaVuSans-63" x="255.908203"/>
     <use xlink:href="#DejaVuSans-73" x="310.888672"/>
    </g>
   </g>
  </g>
  <g id="axes_3">
   <g id="patch_24">
    <path d="M 135 785.785263 
L 515.454545 785.785263 
L 515.454545 523.174737 
L 135 523.174737 
z
" style="fill: #ffffff"/>
   </g>
   <g id="matplotlib.axis_5">
    <g id="xtick_10">
     <g id="line2d_24">
      <g>
       <use xlink:href="#mc4be42a98c" x="137.882231" y="785.785263" style="stroke: #000000; stroke-width: 0.8"/>
      </g>
     </g>
     <g id="text_27">
      <!-- 0 -->
      <g transform="translate(130.883481 809.501826) scale(0.22 -0.22)">
       <use xlink:href="#DejaVuSans-30"/>
      </g>
     </g>
    </g>
    <g id="xtick_11">
     <g id="line2d_25">
      <g>
       <use xlink:href="#mc4be42a98c" x="281.993802" y="785.785263" style="stroke: #000000; stroke-width: 0.8"/>
      </g>
     </g>
     <g id="text_28">
      <!-- 20 -->
      <g transform="translate(267.996302 809.501826) scale(0.22 -0.22)">
       <use xlink:href="#DejaVuSans-32"/>
       <use xlink:href="#DejaVuSans-30" x="63.623047"/>
      </g>
     </g>
    </g>
    <g id="xtick_12">
     <g id="line2d_26">
      <g>
       <use xlink:href="#mc4be42a98c" x="426.105372" y="785.785263" style="stroke: #000000; stroke-width: 0.8"/>
      </g>
     </g>
     <g id="text_29">
      <!-- 40 -->
      <g transform="translate(412.107872 809.501826) scale(0.22 -0.22)">
       <use xlink:href="#DejaVuSans-34"/>
       <use xlink:href="#DejaVuSans-30" x="63.623047"/>
      </g>
     </g>
    </g>
    <g id="text_30">
     <!-- k -->
     <g transform="translate(318.278523 836.313388) scale(0.24 -0.24)">
      <use xlink:href="#DejaVuSans-6b"/>
     </g>
    </g>
   </g>
   <g id="matplotlib.axis_6">
    <g id="ytick_11">
     <g id="line2d_27">
      <g>
       <use xlink:href="#m880f175863" x="135" y="715.39781" style="stroke: #000000; stroke-width: 0.8"/>
      </g>
     </g>
     <g id="text_31">
      <!-- 0.96 -->
      <g transform="translate(79.015625 723.756092) scale(0.22 -0.22)">
       <defs>
        <path id="DejaVuSans-39" d="M 703 97 
L 703 672 
Q 941 559 1184 500 
Q 1428 441 1663 441 
Q 2288 441 2617 861 
Q 2947 1281 2994 2138 
Q 2813 1869 2534 1725 
Q 2256 1581 1919 1581 
Q 1219 1581 811 2004 
Q 403 2428 403 3163 
Q 403 3881 828 4315 
Q 1253 4750 1959 4750 
Q 2769 4750 3195 4129 
Q 3622 3509 3622 2328 
Q 3622 1225 3098 567 
Q 2575 -91 1691 -91 
Q 1453 -91 1209 -44 
Q 966 3 703 97 
z
M 1959 2075 
Q 2384 2075 2632 2365 
Q 2881 2656 2881 3163 
Q 2881 3666 2632 3958 
Q 2384 4250 1959 4250 
Q 1534 4250 1286 3958 
Q 1038 3666 1038 3163 
Q 1038 2656 1286 2365 
Q 1534 2075 1959 2075 
z
" transform="scale(0.015625)"/>
       </defs>
       <use xlink:href="#DejaVuSans-30"/>
       <use xlink:href="#DejaVuSans-2e" x="63.623047"/>
       <use xlink:href="#DejaVuSans-39" x="95.410156"/>
       <use xlink:href="#DejaVuSans-36" x="159.033203"/>
      </g>
     </g>
    </g>
    <g id="ytick_12">
     <g id="line2d_28">
      <g>
       <use xlink:href="#m880f175863" x="135" y="620.947065" style="stroke: #000000; stroke-width: 0.8"/>
      </g>
     </g>
     <g id="text_32">
      <!-- 0.98 -->
      <g transform="translate(79.015625 629.305347) scale(0.22 -0.22)">
       <use xlink:href="#DejaVuSans-30"/>
       <use xlink:href="#DejaVuSans-2e" x="63.623047"/>
       <use xlink:href="#DejaVuSans-39" x="95.410156"/>
       <use xlink:href="#DejaVuSans-38" x="159.033203"/>
      </g>
     </g>
    </g>
    <g id="ytick_13">
     <g id="line2d_29">
      <g>
       <use xlink:href="#m880f175863" x="135" y="526.49632" style="stroke: #000000; stroke-width: 0.8"/>
      </g>
     </g>
     <g id="text_33">
      <!-- 1.00 -->
      <g transform="translate(79.015625 534.854602) scale(0.22 -0.22)">
       <use xlink:href="#DejaVuSans-31"/>
       <use xlink:href="#DejaVuSans-2e" x="63.623047"/>
       <use xlink:href="#DejaVuSans-30" x="95.410156"/>
       <use xlink:href="#DejaVuSans-30" x="159.033203"/>
      </g>
     </g>
    </g>
    <g id="text_34">
     <!-- Metric Value -->
     <g transform="translate(70.024375 728.555625) rotate(-90) scale(0.24 -0.24)">
      <use xlink:href="#DejaVuSans-4d"/>
      <use xlink:href="#DejaVuSans-65" x="86.279297"/>
      <use xlink:href="#DejaVuSans-74" x="147.802734"/>
      <use xlink:href="#DejaVuSans-72" x="187.011719"/>
      <use xlink:href="#DejaVuSans-69" x="228.125"/>
      <use xlink:href="#DejaVuSans-63" x="255.908203"/>
      <use xlink:href="#DejaVuSans-20" x="310.888672"/>
      <use xlink:href="#DejaVuSans-56" x="342.675781"/>
      <use xlink:href="#DejaVuSans-61" x="403.333984"/>
      <use xlink:href="#DejaVuSans-6c" x="464.613281"/>
      <use xlink:href="#DejaVuSans-75" x="492.396484"/>
      <use xlink:href="#DejaVuSans-65" x="555.775391"/>
     </g>
    </g>
   </g>
   <g id="line2d_30">
    <path d="M 152.293388 742.488835 
L 173.910124 748.732391 
L 209.938017 757.052351 
L 281.993802 767.772365 
L 498.161157 773.848421 
" clip-path="url(#p6a382190ff)" style="fill: none; stroke: #1f77b4; stroke-width: 1.5; stroke-linecap: square"/>
    <g clip-path="url(#p6a382190ff)">
     <use xlink:href="#mdc93160b2a" x="152.293388" y="742.488835" style="fill: #1f77b4; stroke: #1f77b4"/>
     <use xlink:href="#mdc93160b2a" x="173.910124" y="748.732391" style="fill: #1f77b4; stroke: #1f77b4"/>
     <use xlink:href="#mdc93160b2a" x="209.938017" y="757.052351" style="fill: #1f77b4; stroke: #1f77b4"/>
     <use xlink:href="#mdc93160b2a" x="281.993802" y="767.772365" style="fill: #1f77b4; stroke: #1f77b4"/>
     <use xlink:href="#mdc93160b2a" x="498.161157" y="773.848421" style="fill: #1f77b4; stroke: #1f77b4"/>
    </g>
   </g>
   <g id="line2d_31">
    <path d="M 152.293388 535.111579 
L 173.910124 538.190228 
L 209.938017 545.112771 
L 281.993802 560.664395 
L 498.161157 602.499564 
" clip-path="url(#p6a382190ff)" style="fill: none; stroke: #ff7f0e; stroke-width: 1.5; stroke-linecap: square"/>
    <g clip-path="url(#p6a382190ff)">
     <use xlink:href="#md4d3260487" x="152.293388" y="535.111579" style="fill: #ff7f0e; stroke: #ff7f0e"/>
     <use xlink:href="#md4d3260487" x="173.910124" y="538.190228" style="fill: #ff7f0e; stroke: #ff7f0e"/>
     <use xlink:href="#md4d3260487" x="209.938017" y="545.112771" style="fill: #ff7f0e; stroke: #ff7f0e"/>
     <use xlink:href="#md4d3260487" x="281.993802" y="560.664395" style="fill: #ff7f0e; stroke: #ff7f0e"/>
     <use xlink:href="#md4d3260487" x="498.161157" y="602.499564" style="fill: #ff7f0e; stroke: #ff7f0e"/>
    </g>
   </g>
   <g id="line2d_32">
    <path d="M 152.293388 554.982087 
L 173.910124 555.787205 
L 209.938017 564.521756 
L 281.993802 582.476055 
L 498.161157 634.999985 
" clip-path="url(#p6a382190ff)" style="fill: none; stroke: #2ca02c; stroke-width: 1.5; stroke-linecap: square"/>
    <g clip-path="url(#p6a382190ff)">
     <use xlink:href="#m693a1d78b5" x="152.293388" y="554.982087" style="fill: #2ca02c; stroke: #2ca02c"/>
     <use xlink:href="#m693a1d78b5" x="173.910124" y="555.787205" style="fill: #2ca02c; stroke: #2ca02c"/>
     <use xlink:href="#m693a1d78b5" x="209.938017" y="564.521756" style="fill: #2ca02c; stroke: #2ca02c"/>
     <use xlink:href="#m693a1d78b5" x="281.993802" y="582.476055" style="fill: #2ca02c; stroke: #2ca02c"/>
     <use xlink:href="#m693a1d78b5" x="498.161157" y="634.999985" style="fill: #2ca02c; stroke: #2ca02c"/>
    </g>
   </g>
   <g id="line2d_33">
    <path d="M 152.293388 637.666896 
L 173.910124 638.23346 
L 209.938017 646.404531 
L 281.993802 663.251055 
L 498.161157 730.763272 
" clip-path="url(#p6a382190ff)" style="fill: none; stroke: #d62728; stroke-width: 1.5; stroke-linecap: square"/>
    <g clip-path="url(#p6a382190ff)">
     <use xlink:href="#m81f0f82020" x="152.293388" y="637.666896" style="fill: #d62728; stroke: #d62728"/>
     <use xlink:href="#m81f0f82020" x="173.910124" y="638.23346" style="fill: #d62728; stroke: #d62728"/>
     <use xlink:href="#m81f0f82020" x="209.938017" y="646.404531" style="fill: #d62728; stroke: #d62728"/>
     <use xlink:href="#m81f0f82020" x="281.993802" y="663.251055" style="fill: #d62728; stroke: #d62728"/>
     <use xlink:href="#m81f0f82020" x="498.161157" y="730.763272" style="fill: #d62728; stroke: #d62728"/>
    </g>
   </g>
   <g id="patch_25">
    <path d="M 135 785.785263 
L 135 523.174737 
" style="fill: none; stroke: #000000; stroke-width: 0.8; stroke-linejoin: miter; stroke-linecap: square"/>
   </g>
   <g id="patch_26">
    <path d="M 515.454545 785.785263 
L 515.454545 523.174737 
" style="fill: none; stroke: #000000; stroke-width: 0.8; stroke-linejoin: miter; stroke-linecap: square"/>
   </g>
   <g id="patch_27">
    <path d="M 135 785.785263 
L 515.454545 785.785263 
" style="fill: none; stroke: #000000; stroke-width: 0.8; stroke-linejoin: miter; stroke-linecap: square"/>
   </g>
   <g id="patch_28">
    <path d="M 135 523.174737 
L 515.454545 523.174737 
" style="fill: none; stroke: #000000; stroke-width: 0.8; stroke-linejoin: miter; stroke-linecap: square"/>
   </g>
   <g id="text_35">
    <!-- c -->
    <g transform="translate(91.769432 505.058783) scale(0.28 -0.28)">
     <defs>
      <path id="DejaVuSans-Bold-63" d="M 3366 3391 
L 3366 2478 
Q 3138 2634 2908 2709 
Q 2678 2784 2431 2784 
Q 1963 2784 1702 2511 
Q 1441 2238 1441 1747 
Q 1441 1256 1702 982 
Q 1963 709 2431 709 
Q 2694 709 2930 787 
Q 3166 866 3366 1019 
L 3366 103 
Q 3103 6 2833 -42 
Q 2563 -91 2291 -91 
Q 1344 -91 809 395 
Q 275 881 275 1747 
Q 275 2613 809 3098 
Q 1344 3584 2291 3584 
Q 2566 3584 2833 3536 
Q 3100 3488 3366 3391 
z
" transform="scale(0.015625)"/>
     </defs>
     <use xlink:href="#DejaVuSans-Bold-63"/>
    </g>
   </g>
   <g id="text_36">
    <!-- Trustworthiness -->
    <g transform="translate(230.950398 517.174737) scale(0.24 -0.24)">
     <defs>
      <path id="DejaVuSans-54" d="M -19 4666 
L 3928 4666 
L 3928 4134 
L 2272 4134 
L 2272 0 
L 1638 0 
L 1638 4134 
L -19 4134 
L -19 4666 
z
" transform="scale(0.015625)"/>
      <path id="DejaVuSans-77" d="M 269 3500 
L 844 3500 
L 1563 769 
L 2278 3500 
L 2956 3500 
L 3675 769 
L 4391 3500 
L 4966 3500 
L 4050 0 
L 3372 0 
L 2619 2869 
L 1863 0 
L 1184 0 
L 269 3500 
z
" transform="scale(0.015625)"/>
      <path id="DejaVuSans-6f" d="M 1959 3097 
Q 1497 3097 1228 2736 
Q 959 2375 959 1747 
Q 959 1119 1226 758 
Q 1494 397 1959 397 
Q 2419 397 2687 759 
Q 2956 1122 2956 1747 
Q 2956 2369 2687 2733 
Q 2419 3097 1959 3097 
z
M 1959 3584 
Q 2709 3584 3137 3096 
Q 3566 2609 3566 1747 
Q 3566 888 3137 398 
Q 2709 -91 1959 -91 
Q 1206 -91 779 398 
Q 353 888 353 1747 
Q 353 2609 779 3096 
Q 1206 3584 1959 3584 
z
" transform="scale(0.015625)"/>
      <path id="DejaVuSans-68" d="M 3513 2113 
L 3513 0 
L 2938 0 
L 2938 2094 
Q 2938 2591 2744 2837 
Q 2550 3084 2163 3084 
Q 1697 3084 1428 2787 
Q 1159 2491 1159 1978 
L 1159 0 
L 581 0 
L 581 4863 
L 1159 4863 
L 1159 2956 
Q 1366 3272 1645 3428 
Q 1925 3584 2291 3584 
Q 2894 3584 3203 3211 
Q 3513 2838 3513 2113 
z
" transform="scale(0.015625)"/>
      <path id="DejaVuSans-6e" d="M 3513 2113 
L 3513 0 
L 2938 0 
L 2938 2094 
Q 2938 2591 2744 2837 
Q 2550 3084 2163 3084 
Q 1697 3084 1428 2787 
Q 1159 2491 1159 1978 
L 1159 0 
L 581 0 
L 581 3500 
L 1159 3500 
L 1159 2956 
Q 1366 3272 1645 3428 
Q 1925 3584 2291 3584 
Q 2894 3584 3203 3211 
Q 3513 2838 3513 2113 
z
" transform="scale(0.015625)"/>
     </defs>
     <use xlink:href="#DejaVuSans-54"/>
     <use xlink:href="#DejaVuSans-72" x="46.333984"/>
     <use xlink:href="#DejaVuSans-75" x="87.447266"/>
     <use xlink:href="#DejaVuSans-73" x="150.826172"/>
     <use xlink:href="#DejaVuSans-74" x="202.925781"/>
     <use xlink:href="#DejaVuSans-77" x="242.134766"/>
     <use xlink:href="#DejaVuSans-6f" x="323.921875"/>
     <use xlink:href="#DejaVuSans-72" x="385.103516"/>
     <use xlink:href="#DejaVuSans-74" x="426.216797"/>
     <use xlink:href="#DejaVuSans-68" x="465.425781"/>
     <use xlink:href="#DejaVuSans-69" x="528.804688"/>
     <use xlink:href="#DejaVuSans-6e" x="556.587891"/>
     <use xlink:href="#DejaVuSans-65" x="619.966797"/>
     <use xlink:href="#DejaVuSans-73" x="681.490234"/>
     <use xlink:href="#DejaVuSans-73" x="733.589844"/>
    </g>
   </g>
  </g>
  <g id="axes_4">
   <g id="patch_29">
    <path d="M 591.545455 785.785263 
L 972 785.785263 
L 972 523.174737 
L 591.545455 523.174737 
z
" style="fill: #ffffff"/>
   </g>
   <g id="matplotlib.axis_7">
    <g id="xtick_13">
     <g id="line2d_34">
      <g>
       <use xlink:href="#mc4be42a98c" x="594.427686" y="785.785263" style="stroke: #000000; stroke-width: 0.8"/>
      </g>
     </g>
     <g id="text_37">
      <!-- 0 -->
      <g transform="translate(587.428936 809.501826) scale(0.22 -0.22)">
       <use xlink:href="#DejaVuSans-30"/>
      </g>
     </g>
    </g>
    <g id="xtick_14">
     <g id="line2d_35">
      <g>
       <use xlink:href="#mc4be42a98c" x="738.539256" y="785.785263" style="stroke: #000000; stroke-width: 0.8"/>
      </g>
     </g>
     <g id="text_38">
      <!-- 20 -->
      <g transform="translate(724.541756 809.501826) scale(0.22 -0.22)">
       <use xlink:href="#DejaVuSans-32"/>
       <use xlink:href="#DejaVuSans-30" x="63.623047"/>
      </g>
     </g>
    </g>
    <g id="xtick_15">
     <g id="line2d_36">
      <g>
       <use xlink:href="#mc4be42a98c" x="882.650826" y="785.785263" style="stroke: #000000; stroke-width: 0.8"/>
      </g>
     </g>
     <g id="text_39">
      <!-- 40 -->
      <g transform="translate(868.653326 809.501826) scale(0.22 -0.22)">
       <use xlink:href="#DejaVuSans-34"/>
       <use xlink:href="#DejaVuSans-30" x="63.623047"/>
      </g>
     </g>
    </g>
    <g id="text_40">
     <!-- k -->
     <g transform="translate(774.823977 836.313388) scale(0.24 -0.24)">
      <use xlink:href="#DejaVuSans-6b"/>
     </g>
    </g>
   </g>
   <g id="matplotlib.axis_8">
    <g id="ytick_14">
     <g id="line2d_37">
      <g>
       <use xlink:href="#m880f175863" x="591.545455" y="775.740806" style="stroke: #000000; stroke-width: 0.8"/>
      </g>
     </g>
     <g id="text_41">
      <!-- 0.85 -->
      <g transform="translate(535.56108 784.099087) scale(0.22 -0.22)">
       <use xlink:href="#DejaVuSans-30"/>
       <use xlink:href="#DejaVuSans-2e" x="63.623047"/>
       <use xlink:href="#DejaVuSans-38" x="95.410156"/>
       <use xlink:href="#DejaVuSans-35" x="159.033203"/>
      </g>
     </g>
    </g>
    <g id="ytick_15">
     <g id="line2d_38">
      <g>
       <use xlink:href="#m880f175863" x="591.545455" y="693.63511" style="stroke: #000000; stroke-width: 0.8"/>
      </g>
     </g>
     <g id="text_42">
      <!-- 0.90 -->
      <g transform="translate(535.56108 701.993392) scale(0.22 -0.22)">
       <use xlink:href="#DejaVuSans-30"/>
       <use xlink:href="#DejaVuSans-2e" x="63.623047"/>
       <use xlink:href="#DejaVuSans-39" x="95.410156"/>
       <use xlink:href="#DejaVuSans-30" x="159.033203"/>
      </g>
     </g>
    </g>
    <g id="ytick_16">
     <g id="line2d_39">
      <g>
       <use xlink:href="#m880f175863" x="591.545455" y="611.529415" style="stroke: #000000; stroke-width: 0.8"/>
      </g>
     </g>
     <g id="text_43">
      <!-- 0.95 -->
      <g transform="translate(535.56108 619.887696) scale(0.22 -0.22)">
       <use xlink:href="#DejaVuSans-30"/>
       <use xlink:href="#DejaVuSans-2e" x="63.623047"/>
       <use xlink:href="#DejaVuSans-39" x="95.410156"/>
       <use xlink:href="#DejaVuSans-35" x="159.033203"/>
      </g>
     </g>
    </g>
    <g id="ytick_17">
     <g id="line2d_40">
      <g>
       <use xlink:href="#m880f175863" x="591.545455" y="529.423719" style="stroke: #000000; stroke-width: 0.8"/>
      </g>
     </g>
     <g id="text_44">
      <!-- 1.00 -->
      <g transform="translate(535.56108 537.782) scale(0.22 -0.22)">
       <use xlink:href="#DejaVuSans-31"/>
       <use xlink:href="#DejaVuSans-2e" x="63.623047"/>
       <use xlink:href="#DejaVuSans-30" x="95.410156"/>
       <use xlink:href="#DejaVuSans-30" x="159.033203"/>
      </g>
     </g>
    </g>
   </g>
   <g id="line2d_41">
    <path d="M 608.838843 540.170568 
L 630.455579 544.74571 
L 666.483471 549.751073 
L 738.539256 555.828382 
L 954.706612 563.569986 
" clip-path="url(#pd78e6905be)" style="fill: none; stroke: #1f77b4; stroke-width: 1.5; stroke-linecap: square"/>
    <g clip-path="url(#pd78e6905be)">
     <use xlink:href="#mdc93160b2a" x="608.838843" y="540.170568" style="fill: #1f77b4; stroke: #1f77b4"/>
     <use xlink:href="#mdc93160b2a" x="630.455579" y="544.74571" style="fill: #1f77b4; stroke: #1f77b4"/>
     <use xlink:href="#mdc93160b2a" x="666.483471" y="549.751073" style="fill: #1f77b4; stroke: #1f77b4"/>
     <use xlink:href="#mdc93160b2a" x="738.539256" y="555.828382" style="fill: #1f77b4; stroke: #1f77b4"/>
     <use xlink:href="#mdc93160b2a" x="954.706612" y="563.569986" style="fill: #1f77b4; stroke: #1f77b4"/>
    </g>
   </g>
   <g id="line2d_42">
    <path d="M 608.838843 537.589064 
L 630.455579 541.306973 
L 666.483471 547.153304 
L 738.539256 556.415134 
L 954.706612 574.502648 
" clip-path="url(#pd78e6905be)" style="fill: none; stroke: #ff7f0e; stroke-width: 1.5; stroke-linecap: square"/>
    <g clip-path="url(#pd78e6905be)">
     <use xlink:href="#md4d3260487" x="608.838843" y="537.589064" style="fill: #ff7f0e; stroke: #ff7f0e"/>
     <use xlink:href="#md4d3260487" x="630.455579" y="541.306973" style="fill: #ff7f0e; stroke: #ff7f0e"/>
     <use xlink:href="#md4d3260487" x="666.483471" y="547.153304" style="fill: #ff7f0e; stroke: #ff7f0e"/>
     <use xlink:href="#md4d3260487" x="738.539256" y="556.415134" style="fill: #ff7f0e; stroke: #ff7f0e"/>
     <use xlink:href="#md4d3260487" x="954.706612" y="574.502648" style="fill: #ff7f0e; stroke: #ff7f0e"/>
    </g>
   </g>
   <g id="line2d_43">
    <path d="M 608.838843 535.111579 
L 630.455579 539.517835 
L 666.483471 546.459629 
L 738.539256 561.315969 
L 954.706612 592.693561 
" clip-path="url(#pd78e6905be)" style="fill: none; stroke: #2ca02c; stroke-width: 1.5; stroke-linecap: square"/>
    <g clip-path="url(#pd78e6905be)">
     <use xlink:href="#m693a1d78b5" x="608.838843" y="535.111579" style="fill: #2ca02c; stroke: #2ca02c"/>
     <use xlink:href="#m693a1d78b5" x="630.455579" y="539.517835" style="fill: #2ca02c; stroke: #2ca02c"/>
     <use xlink:href="#m693a1d78b5" x="666.483471" y="546.459629" style="fill: #2ca02c; stroke: #2ca02c"/>
     <use xlink:href="#m693a1d78b5" x="738.539256" y="561.315969" style="fill: #2ca02c; stroke: #2ca02c"/>
     <use xlink:href="#m693a1d78b5" x="954.706612" y="592.693561" style="fill: #2ca02c; stroke: #2ca02c"/>
    </g>
   </g>
   <g id="line2d_44">
    <path d="M 608.838843 593.39548 
L 630.455579 608.798258 
L 666.483471 641.234304 
L 738.539256 688.077264 
L 954.706612 773.848421 
" clip-path="url(#pd78e6905be)" style="fill: none; stroke: #d62728; stroke-width: 1.5; stroke-linecap: square"/>
    <g clip-path="url(#pd78e6905be)">
     <use xlink:href="#m81f0f82020" x="608.838843" y="593.39548" style="fill: #d62728; stroke: #d62728"/>
     <use xlink:href="#m81f0f82020" x="630.455579" y="608.798258" style="fill: #d62728; stroke: #d62728"/>
     <use xlink:href="#m81f0f82020" x="666.483471" y="641.234304" style="fill: #d62728; stroke: #d62728"/>
     <use xlink:href="#m81f0f82020" x="738.539256" y="688.077264" style="fill: #d62728; stroke: #d62728"/>
     <use xlink:href="#m81f0f82020" x="954.706612" y="773.848421" style="fill: #d62728; stroke: #d62728"/>
    </g>
   </g>
   <g id="patch_30">
    <path d="M 591.545455 785.785263 
L 591.545455 523.174737 
" style="fill: none; stroke: #000000; stroke-width: 0.8; stroke-linejoin: miter; stroke-linecap: square"/>
   </g>
   <g id="patch_31">
    <path d="M 972 785.785263 
L 972 523.174737 
" style="fill: none; stroke: #000000; stroke-width: 0.8; stroke-linejoin: miter; stroke-linecap: square"/>
   </g>
   <g id="patch_32">
    <path d="M 591.545455 785.785263 
L 972 785.785263 
" style="fill: none; stroke: #000000; stroke-width: 0.8; stroke-linejoin: miter; stroke-linecap: square"/>
   </g>
   <g id="patch_33">
    <path d="M 591.545455 523.174737 
L 972 523.174737 
" style="fill: none; stroke: #000000; stroke-width: 0.8; stroke-linejoin: miter; stroke-linecap: square"/>
   </g>
   <g id="text_45">
    <!-- d -->
    <g transform="translate(544.871761 505.058783) scale(0.28 -0.28)">
     <defs>
      <path id="DejaVuSans-Bold-64" d="M 2919 2988 
L 2919 4863 
L 4044 4863 
L 4044 0 
L 2919 0 
L 2919 506 
Q 2688 197 2409 53 
Q 2131 -91 1766 -91 
Q 1119 -91 703 423 
Q 288 938 288 1747 
Q 288 2556 703 3070 
Q 1119 3584 1766 3584 
Q 2128 3584 2408 3439 
Q 2688 3294 2919 2988 
z
M 2181 722 
Q 2541 722 2730 984 
Q 2919 1247 2919 1747 
Q 2919 2247 2730 2509 
Q 2541 2772 2181 2772 
Q 1825 2772 1636 2509 
Q 1447 2247 1447 1747 
Q 1447 1247 1636 984 
Q 1825 722 2181 722 
z
" transform="scale(0.015625)"/>
     </defs>
     <use xlink:href="#DejaVuSans-Bold-64"/>
    </g>
   </g>
   <g id="text_46">
    <!-- Continuity -->
    <g transform="translate(720.057102 517.174737) scale(0.24 -0.24)">
     <defs>
      <path id="DejaVuSans-79" d="M 2059 -325 
Q 1816 -950 1584 -1140 
Q 1353 -1331 966 -1331 
L 506 -1331 
L 506 -850 
L 844 -850 
Q 1081 -850 1212 -737 
Q 1344 -625 1503 -206 
L 1606 56 
L 191 3500 
L 800 3500 
L 1894 763 
L 2988 3500 
L 3597 3500 
L 2059 -325 
z
" transform="scale(0.015625)"/>
     </defs>
     <use xlink:href="#DejaVuSans-43"/>
     <use xlink:href="#DejaVuSans-6f" x="69.824219"/>
     <use xlink:href="#DejaVuSans-6e" x="131.005859"/>
     <use xlink:href="#DejaVuSans-74" x="194.384766"/>
     <use xlink:href="#DejaVuSans-69" x="233.59375"/>
     <use xlink:href="#DejaVuSans-6e" x="261.376953"/>
     <use xlink:href="#DejaVuSans-75" x="324.755859"/>
     <use xlink:href="#DejaVuSans-69" x="388.134766"/>
     <use xlink:href="#DejaVuSans-74" x="415.917969"/>
     <use xlink:href="#DejaVuSans-79" x="455.126953"/>
    </g>
   </g>
  </g>
  <g id="axes_5">
   <g id="patch_34">
    <path d="M 135 1153.44 
L 515.454545 1153.44 
L 515.454545 890.829474 
L 135 890.829474 
z
" style="fill: #ffffff"/>
   </g>
   <g id="matplotlib.axis_9">
    <g id="xtick_16">
     <g id="line2d_45">
      <g>
       <use xlink:href="#mc4be42a98c" x="152.141492" y="1153.44" style="stroke: #000000; stroke-width: 0.8"/>
      </g>
     </g>
     <g id="text_47">
      <!-- 0 -->
      <g transform="translate(145.142742 1177.156562) scale(0.22 -0.22)">
       <use xlink:href="#DejaVuSans-30"/>
      </g>
     </g>
    </g>
    <g id="xtick_17">
     <g id="line2d_46">
      <g>
       <use xlink:href="#mc4be42a98c" x="304.037745" y="1153.44" style="stroke: #000000; stroke-width: 0.8"/>
      </g>
     </g>
     <g id="text_48">
      <!-- 1000 -->
      <g transform="translate(276.042745 1177.156562) scale(0.22 -0.22)">
       <use xlink:href="#DejaVuSans-31"/>
       <use xlink:href="#DejaVuSans-30" x="63.623047"/>
       <use xlink:href="#DejaVuSans-30" x="127.246094"/>
       <use xlink:href="#DejaVuSans-30" x="190.869141"/>
      </g>
     </g>
    </g>
    <g id="xtick_18">
     <g id="line2d_47">
      <g>
       <use xlink:href="#mc4be42a98c" x="455.933999" y="1153.44" style="stroke: #000000; stroke-width: 0.8"/>
      </g>
     </g>
     <g id="text_49">
      <!-- 2000 -->
      <g transform="translate(427.938999 1177.156562) scale(0.22 -0.22)">
       <use xlink:href="#DejaVuSans-32"/>
       <use xlink:href="#DejaVuSans-30" x="63.623047"/>
       <use xlink:href="#DejaVuSans-30" x="127.246094"/>
       <use xlink:href="#DejaVuSans-30" x="190.869141"/>
      </g>
     </g>
    </g>
    <g id="text_50">
     <!-- k -->
     <g transform="translate(318.278523 1203.968125) scale(0.24 -0.24)">
      <use xlink:href="#DejaVuSans-6b"/>
     </g>
    </g>
   </g>
   <g id="matplotlib.axis_10">
    <g id="ytick_18">
     <g id="line2d_48">
      <g>
       <use xlink:href="#m880f175863" x="135" y="1152.201852" style="stroke: #000000; stroke-width: 0.8"/>
      </g>
     </g>
     <g id="text_51">
      <!-- 0.2 -->
      <g transform="translate(93.013125 1160.560133) scale(0.22 -0.22)">
       <use xlink:href="#DejaVuSans-30"/>
       <use xlink:href="#DejaVuSans-2e" x="63.623047"/>
       <use xlink:href="#DejaVuSans-32" x="95.410156"/>
      </g>
     </g>
    </g>
    <g id="ytick_19">
     <g id="line2d_49">
      <g>
       <use xlink:href="#m880f175863" x="135" y="1089.842968" style="stroke: #000000; stroke-width: 0.8"/>
      </g>
     </g>
     <g id="text_52">
      <!-- 0.4 -->
      <g transform="translate(93.013125 1098.201249) scale(0.22 -0.22)">
       <use xlink:href="#DejaVuSans-30"/>
       <use xlink:href="#DejaVuSans-2e" x="63.623047"/>
       <use xlink:href="#DejaVuSans-34" x="95.410156"/>
      </g>
     </g>
    </g>
    <g id="ytick_20">
     <g id="line2d_50">
      <g>
       <use xlink:href="#m880f175863" x="135" y="1027.484084" style="stroke: #000000; stroke-width: 0.8"/>
      </g>
     </g>
     <g id="text_53">
      <!-- 0.6 -->
      <g transform="translate(93.013125 1035.842365) scale(0.22 -0.22)">
       <use xlink:href="#DejaVuSans-30"/>
       <use xlink:href="#DejaVuSans-2e" x="63.623047"/>
       <use xlink:href="#DejaVuSans-36" x="95.410156"/>
      </g>
     </g>
    </g>
    <g id="ytick_21">
     <g id="line2d_51">
      <g>
       <use xlink:href="#m880f175863" x="135" y="965.1252" style="stroke: #000000; stroke-width: 0.8"/>
      </g>
     </g>
     <g id="text_54">
      <!-- 0.8 -->
      <g transform="translate(93.013125 973.483481) scale(0.22 -0.22)">
       <use xlink:href="#DejaVuSans-30"/>
       <use xlink:href="#DejaVuSans-2e" x="63.623047"/>
       <use xlink:href="#DejaVuSans-38" x="95.410156"/>
      </g>
     </g>
    </g>
    <g id="ytick_22">
     <g id="line2d_52">
      <g>
       <use xlink:href="#m880f175863" x="135" y="902.766316" style="stroke: #000000; stroke-width: 0.8"/>
      </g>
     </g>
     <g id="text_55">
      <!-- 1.0 -->
      <g transform="translate(93.013125 911.124597) scale(0.22 -0.22)">
       <use xlink:href="#DejaVuSans-31"/>
       <use xlink:href="#DejaVuSans-2e" x="63.623047"/>
       <use xlink:href="#DejaVuSans-30" x="95.410156"/>
      </g>
     </g>
    </g>
    <g id="text_56">
     <!-- Metric Value -->
     <g transform="translate(84.021875 1096.210362) rotate(-90) scale(0.24 -0.24)">
      <use xlink:href="#DejaVuSans-4d"/>
      <use xlink:href="#DejaVuSans-65" x="86.279297"/>
      <use xlink:href="#DejaVuSans-74" x="147.802734"/>
      <use xlink:href="#DejaVuSans-72" x="187.011719"/>
      <use xlink:href="#DejaVuSans-69" x="228.125"/>
      <use xlink:href="#DejaVuSans-63" x="255.908203"/>
      <use xlink:href="#DejaVuSans-20" x="310.888672"/>
      <use xlink:href="#DejaVuSans-56" x="342.675781"/>
      <use xlink:href="#DejaVuSans-61" x="403.333984"/>
      <use xlink:href="#DejaVuSans-6c" x="464.613281"/>
      <use xlink:href="#DejaVuSans-75" x="492.396484"/>
      <use xlink:href="#DejaVuSans-65" x="555.775391"/>
     </g>
    </g>
   </g>
   <g id="line2d_53">
    <path d="M 152.293388 1141.503158 
L 152.749077 1117.663677 
L 153.508558 1106.768125 
L 154.116143 1101.406734 
L 154.571832 1095.944781 
L 155.027521 1092.639692 
L 155.635106 1089.312375 
L 157.002172 1081.096409 
L 160.040097 1065.954024 
L 161.407164 1059.548318 
L 162.166645 1056.497337 
L 165.812155 1042.873907 
L 168.85008 1033.333416 
L 171.584213 1025.784837 
L 176.900581 1013.949941 
L 179.78661 1008.529466 
L 180.697988 1006.970443 
L 183.43212 1002.144918 
L 186.470045 997.745889 
L 187.533319 996.447854 
L 190.571244 992.682586 
L 191.786414 991.34078 
L 198.773642 983.591425 
L 199.988812 982.317032 
L 200.900189 981.485181 
L 208.343106 975.522908 
L 212.140512 973.005914 
L 214.26706 971.442901 
L 223.836524 964.817779 
L 225.963071 963.260278 
L 231.127544 960.020273 
L 237.051498 956.869933 
L 241.608385 954.77576 
L 243.583037 953.772172 
L 245.557688 952.721807 
L 246.924754 951.965996 
L 248.899405 950.961921 
L 258.620766 946.526816 
L 260.595417 945.80287 
L 265.911786 943.56751 
L 267.126956 943.094031 
L 277.607797 939.259991 
L 287.329158 935.993786 
L 291.886045 934.304146 
L 298.265688 932.301199 
L 306.316189 929.700342 
L 312.088247 928.099262 
L 316.645134 926.875157 
L 323.176673 925.323155 
L 327.581665 924.312361 
L 333.505619 922.833099 
L 340.948535 921.112104 
L 344.897838 920.155879 
L 360.695048 916.827754 
L 365.100039 916.036294 
L 369.808823 915.153668 
L 380.745353 913.382741 
L 423.883889 907.824534 
L 433.757146 906.774227 
L 435.883693 906.545636 
L 441.200062 906.004726 
L 443.782298 905.736916 
L 447.731601 905.386272 
L 451.377111 905.051145 
L 454.26314 904.916788 
L 463.225019 904.279865 
L 472.035001 904.070642 
L 473.857757 904.079594 
L 478.718437 903.959761 
L 480.085503 903.853968 
L 484.64239 903.732187 
L 486.465146 903.772919 
L 492.540996 903.193418 
L 493.300477 903.13131 
L 494.059958 903.213462 
L 495.730817 902.960465 
L 498.161157 902.766316 
L 498.161157 902.766316 
" clip-path="url(#p6d638f46f1)" style="fill: none; stroke: #1f77b4; stroke-width: 1.5; stroke-linecap: square"/>
   </g>
   <g id="line2d_54">
    <path d="M 152.293388 1043.81943 
L 152.597181 1013.127951 
L 152.900973 1001.571902 
L 153.204766 998.515132 
L 153.660455 999.574447 
L 154.116143 1002.702179 
L 154.571832 1003.964401 
L 154.723728 1004.948742 
L 155.179417 1005.744666 
L 155.635106 1007.397711 
L 155.938899 1007.591627 
L 156.242691 1008.440875 
L 156.546484 1009.300361 
L 157.002172 1010.5442 
L 157.457861 1011.71553 
L 158.065446 1012.798199 
L 158.369239 1012.986689 
L 158.521135 1013.137723 
L 158.976824 1013.973144 
L 159.736305 1014.623761 
L 161.103371 1015.098197 
L 161.407164 1015.147235 
L 162.014749 1015.074188 
L 163.078022 1014.587278 
L 164.293192 1013.825121 
L 165.508362 1013.213976 
L 166.267844 1012.75135 
L 166.723532 1012.356958 
L 167.786806 1011.829344 
L 172.49559 1008.912986 
L 173.862656 1008.294247 
L 174.622138 1007.70385 
L 175.685411 1007.150298 
L 177.35627 1006.431033 
L 178.115751 1006.038532 
L 178.723336 1005.727858 
L 180.546092 1004.704383 
L 183.584017 1003.278812 
L 184.343498 1002.748097 
L 184.799187 1002.492042 
L 185.254875 1002.248054 
L 186.166253 1001.782128 
L 187.381423 1001.265608 
L 190.419348 999.802902 
L 192.545896 998.900366 
L 193.001584 998.686746 
L 193.609169 998.451988 
L 194.976236 997.619201 
L 197.406576 996.114299 
L 198.773642 995.266342 
L 200.748293 994.084013 
L 201.052086 993.942979 
L 201.963463 993.479308 
L 202.419152 993.487514 
L 203.33053 993.356933 
L 204.241907 993.094507 
L 206.216558 992.527249 
L 207.279832 992.282031 
L 211.684823 990.430314 
L 213.507578 989.476304 
L 215.178437 988.683887 
L 216.545504 988.030165 
L 219.887221 986.197982 
L 224.444109 984.245876 
L 233.102195 979.959824 
L 236.595809 978.785282 
L 237.659083 978.449565 
L 245.405792 975.697332 
L 249.658887 973.792812 
L 251.937331 972.643276 
L 253.000604 972.127705 
L 254.975256 971.296975 
L 257.709388 970.438818 
L 260.291624 969.806858 
L 262.266276 969.228237 
L 263.633342 968.84257 
L 265.456097 968.299054 
L 267.734541 967.650773 
L 273.354702 966.511081 
L 275.785042 965.940323 
L 280.493826 964.746984 
L 283.835544 963.890484 
L 290.974668 962.545651 
L 294.164489 962.221421 
L 295.683451 961.948702 
L 302.670679 960.102531 
L 307.379463 958.498709 
L 309.050322 958.031587 
L 313.607209 956.908066 
L 322.417192 955.072536 
L 325.607013 954.425883 
L 361.454529 945.738272 
L 365.251935 944.637889 
L 385.606033 937.733562 
L 397.90963 933.45523 
L 409.605641 929.526167 
L 411.884085 928.712981 
L 417.504247 926.927603 
L 431.478702 922.87358 
L 442.11144 919.576125 
L 443.478506 919.114202 
L 450.465734 917.109906 
L 458.212442 915.301345 
L 460.035197 914.574935 
L 465.047774 912.432677 
L 466.41484 912.200587 
L 468.237595 911.958685 
L 469.604661 911.739674 
L 470.516039 911.409032 
L 472.946379 910.530523 
L 474.92103 910.096024 
L 476.1362 909.977902 
L 478.110852 909.403034 
L 479.477918 909.010654 
L 481.908258 908.502209 
L 484.946183 907.496225 
L 486.768938 906.895018 
L 488.287901 906.250044 
L 489.047382 905.956168 
L 494.059958 904.092194 
L 495.275128 903.829621 
L 496.338402 903.475854 
L 496.794091 903.454958 
L 498.161157 902.766316 
L 498.161157 902.766316 
" clip-path="url(#p6d638f46f1)" style="fill: none; stroke: #ff7f0e; stroke-width: 1.5; stroke-linecap: square"/>
   </g>
   <g id="line2d_55">
    <path d="M 152.293388 1121.802238 
L 152.597181 1064.250014 
L 152.900973 1039.742434 
L 153.204766 1028.691938 
L 153.508558 1022.795995 
L 153.812351 1019.951964 
L 154.116143 1018.898608 
L 154.419936 1018.928777 
L 154.723728 1019.861244 
L 154.875625 1019.900142 
L 155.48321 1021.774051 
L 155.938899 1023.576735 
L 156.242691 1024.432671 
L 156.69838 1026.225414 
L 157.91355 1028.611702 
L 158.369239 1029.227268 
L 158.673031 1029.21555 
L 158.976824 1029.61835 
L 159.280616 1029.777285 
L 159.736305 1029.547208 
L 160.191994 1029.5755 
L 160.495786 1029.359651 
L 160.647682 1029.380884 
L 161.103371 1029.00432 
L 161.407164 1028.752174 
L 162.014749 1028.589103 
L 162.318541 1028.365806 
L 163.533711 1027.617247 
L 164.141296 1026.882458 
L 165.356466 1025.926944 
L 167.63491 1024.216424 
L 168.090599 1023.959548 
L 168.546288 1023.524391 
L 168.698184 1023.467084 
L 169.153873 1023.017907 
L 169.913354 1022.483783 
L 170.824731 1021.873904 
L 172.647486 1020.430668 
L 172.799383 1020.394408 
L 173.255071 1020.006278 
L 173.862656 1019.647725 
L 174.774034 1018.91782 
L 176.292996 1018.038553 
L 177.204374 1017.556512 
L 177.811959 1017.14353 
L 179.938507 1016.001749 
L 181.305573 1015.442353 
L 182.672639 1014.468163 
L 184.799187 1012.883386 
L 185.558668 1012.462132 
L 187.533319 1011.367989 
L 191.026933 1008.914214 
L 195.280028 1006.477959 
L 196.798991 1005.382719 
L 197.862264 1004.611218 
L 201.811567 1001.542866 
L 202.874841 1001.550274 
L 205.001388 1001.496576 
L 206.216558 1001.298585 
L 208.039313 1000.991343 
L 208.646898 1000.917485 
L 210.165861 1000.517733 
L 214.874645 997.8907 
L 216.545504 997.440181 
L 218.216362 996.486271 
L 218.975844 995.991529 
L 220.646702 994.991217 
L 222.621354 993.79373 
L 224.292212 992.820258 
L 227.330138 990.911902 
L 229.608581 989.5633 
L 232.950299 987.88649 
L 235.988224 986.536616 
L 243.886829 984.402048 
L 250.570264 982.511633 
L 251.937331 982.14598 
L 257.405596 980.37067 
L 263.177653 979.113182 
L 265.152305 978.553145 
L 266.215578 978.273757 
L 267.278852 977.989963 
L 270.924362 977.298209 
L 275.025561 976.602995 
L 277.304005 976.070288 
L 280.645722 975.276646 
L 284.595025 974.058518 
L 286.569676 973.322477 
L 289.759498 972.056129 
L 292.037941 971.180012 
L 295.227763 970.169726 
L 298.56948 969.023035 
L 300.847924 968.386439 
L 306.316189 966.940822 
L 307.835152 966.50987 
L 309.657907 966.150485 
L 311.328766 965.596157 
L 314.062898 964.591325 
L 316.645134 963.944373 
L 318.923578 963.467458 
L 321.202022 963.115257 
L 324.088051 962.601116 
L 328.796835 961.498872 
L 331.379071 960.631159 
L 336.087855 958.851418 
L 340.189054 957.059218 
L 343.075082 955.755748 
L 353.252131 950.326859 
L 355.986264 949.034137 
L 363.732973 945.181063 
L 371.023993 941.990708 
L 384.694656 935.438188 
L 388.947751 933.653609 
L 394.719809 931.420494 
L 398.517215 930.174927 
L 402.618414 928.807212 
L 404.289273 928.219271 
L 408.086679 926.861132 
L 411.124604 925.762598 
L 415.985284 923.924121 
L 419.934587 922.543208 
L 422.364927 921.833856 
L 424.339578 921.240585 
L 426.466126 920.624592 
L 432.845768 918.982677 
L 436.491278 918.159852 
L 438.162137 918.035415 
L 442.263336 917.719002 
L 444.54178 917.07322 
L 446.060742 916.629219 
L 447.124016 916.34712 
L 448.18729 916.055045 
L 448.794875 916.024745 
L 453.04797 916.306624 
L 460.33899 915.271292 
L 462.76933 914.743081 
L 464.440189 914.245277 
L 465.959151 913.903642 
L 467.781906 913.522513 
L 471.27552 912.408921 
L 475.832408 910.698776 
L 476.895682 910.468675 
L 479.933607 909.863229 
L 481.452569 909.410972 
L 485.098079 908.217885 
L 487.680316 907.263211 
L 488.895486 906.793351 
L 490.566344 906.02174 
L 491.781514 905.462784 
L 494.363751 904.343813 
L 494.971336 904.132011 
L 496.794091 903.503858 
L 497.705468 902.953162 
L 498.009261 902.903248 
L 498.161157 902.766316 
L 498.161157 902.766316 
" clip-path="url(#p6d638f46f1)" style="fill: none; stroke: #2ca02c; stroke-width: 1.5; stroke-linecap: square"/>
   </g>
   <g id="line2d_56">
    <path d="M 152.293388 1113.183086 
L 152.597181 1083.44929 
L 152.900973 1069.102277 
L 153.508558 1056.42133 
L 153.812351 1054.528074 
L 153.964247 1054.388153 
L 154.419936 1051.763643 
L 154.723728 1050.845126 
L 154.875625 1049.694743 
L 155.027521 1049.471923 
L 155.331313 1048.692541 
L 155.635106 1049.059922 
L 155.938899 1048.826747 
L 156.090795 1048.571014 
L 156.242691 1048.612915 
L 156.546484 1048.848448 
L 157.002172 1048.911399 
L 157.305965 1049.472982 
L 158.824927 1053.13508 
L 159.12872 1053.56282 
L 159.888201 1055.394793 
L 160.191994 1055.802091 
L 161.255267 1057.268044 
L 161.407164 1057.267371 
L 162.014749 1057.839497 
L 162.622334 1058.244168 
L 163.078022 1058.703429 
L 164.596985 1060.136757 
L 165.20457 1060.615482 
L 166.267844 1061.38726 
L 167.179221 1061.996071 
L 167.483014 1062.156294 
L 167.786806 1062.311623 
L 168.394391 1062.59591 
L 168.85008 1062.805197 
L 169.305769 1063.009424 
L 170.520939 1063.452509 
L 172.647486 1064.172994 
L 173.558864 1064.228667 
L 174.470241 1064.330053 
L 175.381619 1064.348375 
L 175.989204 1064.313336 
L 176.596789 1064.313179 
L 178.115751 1064.077198 
L 179.78661 1063.838325 
L 182.065054 1063.736332 
L 185.558668 1063.07198 
L 186.166253 1062.900421 
L 188.748489 1062.240789 
L 196.191406 1060.69306 
L 197.558472 1060.276214 
L 198.317953 1060.057298 
L 199.988812 1059.502856 
L 200.748293 1059.268491 
L 203.938115 1058.129317 
L 207.127936 1057.234559 
L 208.495002 1056.867454 
L 211.532927 1056.011788 
L 212.899993 1055.68171 
L 215.48223 1054.889058 
L 218.064466 1053.933111 
L 226.114967 1051.509553 
L 228.545308 1050.990225 
L 229.760478 1050.682249 
L 230.975648 1050.410919 
L 233.102195 1050.000609 
L 243.886829 1048.120172 
L 245.557688 1047.801659 
L 248.899405 1047.175725 
L 251.481642 1046.795194 
L 258.468869 1045.408208 
L 264.54472 1044.253161 
L 266.215578 1043.847849 
L 282.164685 1039.507936 
L 286.265884 1038.223155 
L 293.860696 1035.825389 
L 300.544132 1033.578699 
L 302.366887 1032.857736 
L 310.873077 1029.269316 
L 314.670483 1027.615653 
L 317.404616 1026.493354 
L 320.594437 1025.140344 
L 328.493042 1021.659548 
L 338.062506 1017.550754 
L 353.252131 1010.391126 
L 356.13816 1008.930958 
L 363.277284 1005.339742 
L 368.745549 1002.434489 
L 382.11242 994.863887 
L 390.770506 989.701989 
L 403.225999 982.015276 
L 414.770114 974.417002 
L 419.934587 970.791806 
L 435.276108 959.753702 
L 449.858148 948.47023 
L 453.655555 945.381823 
L 458.364339 941.322242 
L 462.161745 937.786084 
L 471.579313 928.639452 
L 481.604465 918.435099 
L 488.895486 911.345233 
L 496.338402 904.417478 
L 498.161157 902.766316 
L 498.161157 902.766316 
" clip-path="url(#p6d638f46f1)" style="fill: none; stroke: #d62728; stroke-width: 1.5; stroke-linecap: square"/>
   </g>
   <g id="patch_35">
    <path d="M 135 1153.44 
L 135 890.829474 
" style="fill: none; stroke: #000000; stroke-width: 0.8; stroke-linejoin: miter; stroke-linecap: square"/>
   </g>
   <g id="patch_36">
    <path d="M 515.454545 1153.44 
L 515.454545 890.829474 
" style="fill: none; stroke: #000000; stroke-width: 0.8; stroke-linejoin: miter; stroke-linecap: square"/>
   </g>
   <g id="patch_37">
    <path d="M 135 1153.44 
L 515.454545 1153.44 
" style="fill: none; stroke: #000000; stroke-width: 0.8; stroke-linejoin: miter; stroke-linecap: square"/>
   </g>
   <g id="patch_38">
    <path d="M 135 890.829474 
L 515.454545 890.829474 
" style="fill: none; stroke: #000000; stroke-width: 0.8; stroke-linejoin: miter; stroke-linecap: square"/>
   </g>
   <g id="text_57">
    <!-- e -->
    <g transform="translate(89.376307 872.71352) scale(0.28 -0.28)">
     <defs>
      <path id="DejaVuSans-Bold-65" d="M 4031 1759 
L 4031 1441 
L 1416 1441 
Q 1456 1047 1700 850 
Q 1944 653 2381 653 
Q 2734 653 3104 758 
Q 3475 863 3866 1075 
L 3866 213 
Q 3469 63 3072 -14 
Q 2675 -91 2278 -91 
Q 1328 -91 801 392 
Q 275 875 275 1747 
Q 275 2603 792 3093 
Q 1309 3584 2216 3584 
Q 3041 3584 3536 3087 
Q 4031 2591 4031 1759 
z
M 2881 2131 
Q 2881 2450 2695 2645 
Q 2509 2841 2209 2841 
Q 1884 2841 1681 2658 
Q 1478 2475 1428 2131 
L 2881 2131 
z
" transform="scale(0.015625)"/>
     </defs>
     <use xlink:href="#DejaVuSans-Bold-65"/>
    </g>
   </g>
   <g id="text_58">
    <!-- $Q_{NN}$ -->
    <g transform="translate(302.787273 884.829474) scale(0.24 -0.24)">
     <use xlink:href="#DejaVuSans-Oblique-51" transform="translate(0 0.78125)"/>
     <use xlink:href="#DejaVuSans-Oblique-4e" transform="translate(78.710938 -15.625) scale(0.7)"/>
     <use xlink:href="#DejaVuSans-Oblique-4e" transform="translate(131.074219 -15.625) scale(0.7)"/>
    </g>
   </g>
  </g>
  <g id="axes_6">
   <g id="patch_39">
    <path d="M 591.545455 1153.44 
L 972 1153.44 
L 972 890.829474 
L 591.545455 890.829474 
z
" style="fill: #ffffff"/>
   </g>
   <g id="matplotlib.axis_11">
    <g id="xtick_19">
     <g id="line2d_57">
      <g>
       <use xlink:href="#mc4be42a98c" x="608.686947" y="1153.44" style="stroke: #000000; stroke-width: 0.8"/>
      </g>
     </g>
     <g id="text_59">
      <!-- 0 -->
      <g transform="translate(601.688197 1177.156562) scale(0.22 -0.22)">
       <use xlink:href="#DejaVuSans-30"/>
      </g>
     </g>
    </g>
    <g id="xtick_20">
     <g id="line2d_58">
      <g>
       <use xlink:href="#mc4be42a98c" x="760.5832" y="1153.44" style="stroke: #000000; stroke-width: 0.8"/>
      </g>
     </g>
     <g id="text_60">
      <!-- 1000 -->
      <g transform="translate(732.5882 1177.156562) scale(0.22 -0.22)">
       <use xlink:href="#DejaVuSans-31"/>
       <use xlink:href="#DejaVuSans-30" x="63.623047"/>
       <use xlink:href="#DejaVuSans-30" x="127.246094"/>
       <use xlink:href="#DejaVuSans-30" x="190.869141"/>
      </g>
     </g>
    </g>
    <g id="xtick_21">
     <g id="line2d_59">
      <g>
       <use xlink:href="#mc4be42a98c" x="912.479453" y="1153.44" style="stroke: #000000; stroke-width: 0.8"/>
      </g>
     </g>
     <g id="text_61">
      <!-- 2000 -->
      <g transform="translate(884.484453 1177.156562) scale(0.22 -0.22)">
       <use xlink:href="#DejaVuSans-32"/>
       <use xlink:href="#DejaVuSans-30" x="63.623047"/>
       <use xlink:href="#DejaVuSans-30" x="127.246094"/>
       <use xlink:href="#DejaVuSans-30" x="190.869141"/>
      </g>
     </g>
    </g>
    <g id="text_62">
     <!-- k -->
     <g transform="translate(774.823977 1203.968125) scale(0.24 -0.24)">
      <use xlink:href="#DejaVuSans-6b"/>
     </g>
    </g>
   </g>
   <g id="matplotlib.axis_12">
    <g id="ytick_23">
     <g id="line2d_60">
      <g>
       <use xlink:href="#m880f175863" x="591.545455" y="1138.542545" style="stroke: #000000; stroke-width: 0.8"/>
      </g>
     </g>
     <g id="text_63">
      <!-- 0.0 -->
      <g transform="translate(549.55858 1146.900826) scale(0.22 -0.22)">
       <use xlink:href="#DejaVuSans-30"/>
       <use xlink:href="#DejaVuSans-2e" x="63.623047"/>
       <use xlink:href="#DejaVuSans-30" x="95.410156"/>
      </g>
     </g>
    </g>
    <g id="ytick_24">
     <g id="line2d_61">
      <g>
       <use xlink:href="#m880f175863" x="591.545455" y="1070.185515" style="stroke: #000000; stroke-width: 0.8"/>
      </g>
     </g>
     <g id="text_64">
      <!-- 0.2 -->
      <g transform="translate(549.55858 1078.543797) scale(0.22 -0.22)">
       <use xlink:href="#DejaVuSans-30"/>
       <use xlink:href="#DejaVuSans-2e" x="63.623047"/>
       <use xlink:href="#DejaVuSans-32" x="95.410156"/>
      </g>
     </g>
    </g>
    <g id="ytick_25">
     <g id="line2d_62">
      <g>
       <use xlink:href="#m880f175863" x="591.545455" y="1001.828486" style="stroke: #000000; stroke-width: 0.8"/>
      </g>
     </g>
     <g id="text_65">
      <!-- 0.4 -->
      <g transform="translate(549.55858 1010.186768) scale(0.22 -0.22)">
       <use xlink:href="#DejaVuSans-30"/>
       <use xlink:href="#DejaVuSans-2e" x="63.623047"/>
       <use xlink:href="#DejaVuSans-34" x="95.410156"/>
      </g>
     </g>
    </g>
    <g id="ytick_26">
     <g id="line2d_63">
      <g>
       <use xlink:href="#m880f175863" x="591.545455" y="933.471457" style="stroke: #000000; stroke-width: 0.8"/>
      </g>
     </g>
     <g id="text_66">
      <!-- 0.6 -->
      <g transform="translate(549.55858 941.829738) scale(0.22 -0.22)">
       <use xlink:href="#DejaVuSans-30"/>
       <use xlink:href="#DejaVuSans-2e" x="63.623047"/>
       <use xlink:href="#DejaVuSans-36" x="95.410156"/>
      </g>
     </g>
    </g>
   </g>
   <g id="line2d_64">
    <path d="M 608.838843 1058.607778 
L 609.294532 1032.925349 
L 610.054013 1021.731969 
L 610.661598 1016.455028 
L 611.117287 1010.917815 
L 611.572976 1007.744931 
L 612.180561 1004.697717 
L 613.547627 997.041814 
L 616.281759 984.687031 
L 616.737448 982.872743 
L 617.648826 979.030087 
L 619.775373 971.733798 
L 623.57278 960.670504 
L 624.636053 958.085129 
L 626.914497 953.240608 
L 629.496733 948.591259 
L 631.319488 945.959704 
L 631.623281 945.575858 
L 633.749829 942.74329 
L 634.964999 941.386433 
L 636.028272 940.321177 
L 636.635857 939.746187 
L 638.002924 938.440373 
L 639.521886 936.923972 
L 642.104122 935.134264 
L 642.863604 934.847345 
L 644.23067 934.344777 
L 644.990151 934.094357 
L 647.116699 933.281947 
L 647.724284 933.128212 
L 648.331869 933.011374 
L 654.863408 931.467151 
L 656.838059 931.169329 
L 657.749437 931.234884 
L 658.205125 931.24537 
L 658.964607 931.286447 
L 660.02788 931.414607 
L 663.521494 931.840302 
L 665.496145 932.175047 
L 667.015108 932.619404 
L 667.470797 932.75165 
L 677.192157 934.934491 
L 678.255431 935.239773 
L 680.230082 935.562074 
L 684.938866 936.690595 
L 686.154036 937.064063 
L 688.736272 937.917023 
L 693.748849 940.013876 
L 694.660226 940.508999 
L 695.419707 940.902409 
L 699.824699 942.872432 
L 704.837275 944.852495 
L 706.811926 945.812442 
L 715.318116 950.001468 
L 718.963627 952.08007 
L 723.976203 954.714163 
L 727.31792 956.643532 
L 733.089978 960.016613 
L 741.748065 965.456358 
L 749.64667 970.133398 
L 752.07701 971.737362 
L 757.697171 975.242256 
L 760.735096 977.136737 
L 763.924918 979.327429 
L 765.44388 980.35723 
L 771.367834 984.368232 
L 783.367638 993.112473 
L 785.646082 994.743624 
L 813.443096 1015.211052 
L 831.670646 1029.565541 
L 839.417355 1036.010278 
L 848.379234 1043.572077 
L 853.999396 1048.288367 
L 856.733528 1050.634849 
L 860.379038 1053.732079 
L 882.100203 1072.144835 
L 888.783638 1078.02282 
L 900.02396 1087.818923 
L 905.796018 1092.876709 
L 907.466877 1094.391933 
L 913.846519 1100.342334 
L 916.732548 1102.928773 
L 921.593228 1107.40786 
L 923.264087 1109.03391 
L 944.985251 1129.840456 
L 945.896629 1130.6307 
L 949.390243 1133.733863 
L 950.757309 1135.096282 
L 952.124375 1136.186454 
L 953.491442 1137.536085 
L 954.402819 1138.289517 
L 954.706612 1138.542545 
L 954.706612 1138.542545 
" clip-path="url(#p3c1541ba5b)" style="fill: none; stroke: #1f77b4; stroke-width: 1.5; stroke-linecap: square"/>
   </g>
   <g id="line2d_65">
    <path d="M 608.838843 951.528097 
L 609.142635 918.184555 
L 609.446428 905.817034 
L 609.598324 903.33757 
L 609.75022 902.766316 
L 610.357806 905.719266 
L 610.661598 908.256328 
L 611.117287 910.090072 
L 611.421079 911.736767 
L 611.572976 912.031513 
L 613.699523 920.399747 
L 613.851419 920.719939 
L 614.155212 921.890192 
L 616.129863 926.614556 
L 617.041241 928.089736 
L 617.345033 928.370389 
L 617.648826 928.746408 
L 617.952618 929.100238 
L 619.015892 930.009386 
L 619.471581 930.052978 
L 619.775373 930.169082 
L 620.079166 930.23501 
L 622.813298 931.275094 
L 623.117091 931.248661 
L 623.876572 931.547907 
L 624.332261 931.764777 
L 624.939846 931.876189 
L 625.243638 931.92058 
L 625.699327 932.144887 
L 626.00312 932.190523 
L 626.306912 932.326382 
L 626.610705 932.397905 
L 627.370186 932.699459 
L 627.673978 932.787418 
L 627.977771 932.895047 
L 628.43346 932.998953 
L 629.041045 933.21906 
L 630.408111 933.891143 
L 631.015696 933.95329 
L 631.775177 934.239018 
L 633.29414 935.004796 
L 634.053621 935.339405 
L 635.876376 936.089395 
L 636.332065 936.205835 
L 636.93965 936.483456 
L 640.433264 938.085253 
L 641.648434 938.438813 
L 645.293944 940.184019 
L 647.268595 941.08099 
L 648.939454 941.993139 
L 649.698935 942.36977 
L 650.30652 942.639183 
L 650.762209 942.767247 
L 651.825483 943.144097 
L 653.95203 943.795429 
L 655.1672 944.19761 
L 656.078578 944.412425 
L 657.749437 945.062446 
L 658.205125 945.172022 
L 658.660814 945.581826 
L 660.179777 946.844605 
L 665.040457 950.051123 
L 666.711315 950.904219 
L 672.027684 953.352265 
L 672.787166 953.694151 
L 677.951638 955.946692 
L 686.00214 959.706262 
L 688.888168 960.86472 
L 696.634877 965.720976 
L 698.457632 966.846273 
L 702.558831 969.148876 
L 703.774001 969.757725 
L 704.533483 970.137998 
L 706.052445 970.870469 
L 711.672606 973.546595 
L 714.254843 975.215127 
L 717.140872 977.285914 
L 720.178797 979.316798 
L 722.305344 980.724886 
L 725.647062 983.034768 
L 727.469817 984.421555 
L 733.697563 989.133228 
L 740.836687 994.182052 
L 744.026508 996.556271 
L 746.153056 998.221967 
L 750.406151 1001.958836 
L 752.380802 1003.526122 
L 754.051661 1004.732362 
L 755.874416 1006.045888 
L 757.393379 1007.066329 
L 763.165436 1010.67581 
L 763.924918 1011.188752 
L 766.355258 1012.877658 
L 770.760249 1016.038673 
L 783.823327 1025.931682 
L 794.759857 1033.89886 
L 800.228122 1037.855389 
L 805.392595 1041.53495 
L 812.07603 1046.53977 
L 820.126531 1052.038011 
L 835.468053 1061.683737 
L 841.24011 1065.151208 
L 845.341309 1067.636092 
L 848.834923 1069.709046 
L 858.556283 1075.755057 
L 866.302992 1080.487083 
L 873.442116 1084.957501 
L 891.973459 1097.165507 
L 896.074658 1099.82606 
L 898.201205 1101.305047 
L 905.796018 1106.267727 
L 910.808594 1109.992959 
L 914.302208 1112.548053 
L 917.340133 1114.218043 
L 920.833747 1115.955942 
L 921.897021 1116.691609 
L 922.808398 1117.40485 
L 927.21339 1120.792578 
L 929.64373 1122.251927 
L 934.656306 1126.012698 
L 936.023372 1126.932913 
L 938.605609 1128.876971 
L 941.643534 1130.758751 
L 942.554911 1131.290541 
L 944.529563 1132.481549 
L 945.44094 1132.941959 
L 947.415591 1134.05658 
L 950.149724 1135.654752 
L 954.250923 1138.385454 
L 954.706612 1138.542545 
L 954.706612 1138.542545 
" clip-path="url(#p3c1541ba5b)" style="fill: none; stroke: #ff7f0e; stroke-width: 1.5; stroke-linecap: square"/>
   </g>
   <g id="line2d_66">
    <path d="M 608.838843 1037.011876 
L 609.142635 974.223922 
L 609.446428 947.659094 
L 609.75022 935.845753 
L 610.054013 929.682769 
L 610.357806 926.865253 
L 610.661598 926.010652 
L 610.965391 926.343797 
L 611.269183 927.666031 
L 611.421079 927.858707 
L 612.028664 930.513013 
L 612.484353 932.939204 
L 612.788146 934.177545 
L 613.243834 936.59284 
L 614.459004 940.408959 
L 615.066589 941.650528 
L 615.218486 941.821076 
L 615.674174 942.816409 
L 615.977967 943.098416 
L 616.433656 943.432925 
L 616.737448 943.716022 
L 617.041241 943.779486 
L 617.345033 943.991109 
L 617.648826 943.990126 
L 617.800722 943.903428 
L 618.560203 944.435195 
L 618.712099 944.370099 
L 619.167788 944.599106 
L 619.319684 944.606096 
L 619.623477 944.817379 
L 620.231062 944.784315 
L 620.534854 944.657548 
L 621.142439 944.720698 
L 621.446232 944.87411 
L 622.205713 944.88122 
L 622.35761 944.953538 
L 622.661402 944.914148 
L 623.876572 945.084338 
L 624.636053 945.361829 
L 624.939846 945.310555 
L 626.762601 945.66555 
L 627.21829 945.828539 
L 627.522082 945.787688 
L 627.825875 945.862403 
L 628.43346 945.860743 
L 628.737252 945.880976 
L 629.64863 946.093584 
L 632.686555 946.879823 
L 633.446036 947.258592 
L 634.964999 947.715579 
L 635.572584 947.966633 
L 636.332065 948.217566 
L 636.93965 948.608574 
L 638.15482 949.172953 
L 640.737056 949.628541 
L 641.344641 949.724391 
L 641.952226 949.997536 
L 642.407915 950.146965 
L 643.0155 950.339156 
L 644.838255 950.92932 
L 645.749633 951.164249 
L 646.964803 951.295264 
L 648.179973 951.825479 
L 649.09135 952.233946 
L 649.395143 952.274827 
L 651.977379 953.097026 
L 653.192549 953.299377 
L 653.648238 953.385683 
L 655.015304 953.618209 
L 655.622889 953.761061 
L 658.357022 954.097241 
L 659.724088 955.458338 
L 660.635465 956.356213 
L 665.344249 960.278277 
L 665.951834 960.717425 
L 667.015108 961.324114 
L 668.382174 961.813789 
L 669.445448 962.163352 
L 671.268203 962.87291 
L 672.787166 964.001319 
L 675.673194 965.027637 
L 676.584572 965.312903 
L 677.647846 965.636746 
L 679.014912 966.071741 
L 679.774393 966.392565 
L 680.989563 966.779274 
L 684.635073 967.88655 
L 685.546451 968.190698 
L 692.07799 971.132319 
L 694.50833 972.731919 
L 696.179189 974.039291 
L 698.305736 975.41184 
L 700.887972 977.15803 
L 702.255039 978.045623 
L 704.22969 979.444597 
L 705.900549 980.534357 
L 708.938474 982.615591 
L 710.153644 983.331626 
L 712.583984 984.880557 
L 714.406739 986.16384 
L 716.988975 988.164241 
L 718.507938 989.312867 
L 723.824307 992.944952 
L 727.621713 995.913887 
L 730.355846 998.13972 
L 732.634289 999.850718 
L 739.317724 1004.598543 
L 743.57082 1007.153144 
L 751.925114 1012.066654 
L 758.912341 1016.692164 
L 762.861644 1019.392629 
L 764.532503 1020.546967 
L 766.65905 1022.136047 
L 772.431108 1025.729879 
L 775.620929 1028.154374 
L 785.342289 1035.632762 
L 787.772629 1037.134459 
L 791.114347 1039.169501 
L 797.493989 1042.407317 
L 800.683811 1043.877441 
L 807.671038 1046.55416 
L 810.708964 1047.983922 
L 814.354474 1049.631992 
L 820.430324 1052.333872 
L 827.569448 1055.958548 
L 836.531327 1059.896739 
L 838.354082 1060.712925 
L 844.581828 1064.045677 
L 849.290612 1066.620342 
L 856.733528 1071.174614 
L 859.011972 1072.623066 
L 868.885228 1078.453958 
L 875.112975 1082.117379 
L 878.910381 1084.575492 
L 881.036929 1085.969385 
L 882.707788 1087.087228 
L 893.94811 1095.300689 
L 897.59362 1098.680555 
L 899.112583 1099.946035 
L 901.542923 1101.522736 
L 902.758093 1102.395479 
L 903.821367 1103.104591 
L 904.732744 1103.747186 
L 905.340329 1104.314121 
L 909.745321 1108.953013 
L 912.479453 1111.264665 
L 913.846519 1112.491149 
L 920.074266 1117.234063 
L 922.504606 1118.943219 
L 924.479257 1120.4279 
L 927.21339 1122.208046 
L 933.593032 1126.102583 
L 936.479061 1128.317607 
L 937.998024 1129.322222 
L 941.643534 1131.615272 
L 944.073874 1133.015071 
L 945.289044 1133.740795 
L 947.111799 1134.609231 
L 948.326969 1135.196809 
L 950.909205 1136.520843 
L 951.668687 1136.990171 
L 953.187649 1137.943719 
L 954.706612 1138.542545 
L 954.706612 1138.542545 
" clip-path="url(#p3c1541ba5b)" style="fill: none; stroke: #2ca02c; stroke-width: 1.5; stroke-linecap: square"/>
   </g>
   <g id="line2d_67">
    <path d="M 608.838843 1027.563669 
L 609.142635 995.269928 
L 609.446428 979.842987 
L 610.054013 966.542441 
L 610.357806 964.767152 
L 610.509702 964.763809 
L 610.965391 962.336968 
L 611.269183 961.630175 
L 611.421079 960.519177 
L 611.572976 960.424962 
L 611.876768 959.870688 
L 612.332457 960.615387 
L 612.484353 960.617952 
L 612.636249 960.487658 
L 613.547627 961.761009 
L 614.003316 963.245255 
L 615.522278 968.551097 
L 615.826071 969.585146 
L 616.585552 972.204455 
L 616.889344 972.860872 
L 617.496929 974.490424 
L 618.408307 976.242399 
L 619.623477 978.496405 
L 621.294336 981.818712 
L 625.547431 988.966074 
L 627.21829 991.267458 
L 627.825875 992.185756 
L 629.192941 993.944427 
L 630.104318 994.90568 
L 631.471385 996.433387 
L 633.446036 998.28664 
L 633.901725 998.658031 
L 635.420687 999.857722 
L 638.914301 1003.013023 
L 644.838255 1007.41314 
L 645.901529 1008.205246 
L 648.939454 1010.55843 
L 650.002728 1011.312354 
L 651.977379 1012.846215 
L 652.584964 1013.274618 
L 654.711511 1014.691443 
L 658.81271 1017.198663 
L 662.002532 1019.208814 
L 663.825287 1020.51405 
L 664.88856 1021.214982 
L 665.496145 1021.627458 
L 666.711315 1022.402563 
L 668.078382 1023.407785 
L 669.597344 1024.501935 
L 681.445252 1032.00881 
L 688.736272 1037.403933 
L 694.052641 1041.546621 
L 698.15384 1044.872278 
L 700.128491 1046.467513 
L 701.79935 1047.780392 
L 705.596756 1050.763045 
L 719.875004 1061.963882 
L 721.545863 1063.205226 
L 723.824307 1064.855516 
L 728.229298 1067.91717 
L 730.052053 1069.184788 
L 732.026704 1070.517787 
L 734.608941 1072.280755 
L 746.912537 1080.397015 
L 748.4315 1081.350172 
L 756.026312 1086.115282 
L 760.279407 1088.448928 
L 763.773021 1090.278237 
L 766.507154 1091.75415 
L 795.671234 1106.746411 
L 813.594992 1115.033461 
L 829.695995 1121.691653 
L 833.493401 1123.038481 
L 839.873044 1125.287888 
L 850.657678 1128.818493 
L 861.594208 1132.164201 
L 869.948502 1134.369472 
L 875.264871 1135.586103 
L 888.631741 1138.366295 
L 895.770865 1139.474359 
L 907.163084 1141.008642 
L 911.568076 1141.400759 
L 915.365482 1141.500263 
L 918.859096 1141.362953 
L 926.909597 1140.820587 
L 938.14992 1139.364395 
L 944.073874 1138.875508 
L 950.149724 1138.602613 
L 954.706612 1138.542545 
L 954.706612 1138.542545 
" clip-path="url(#p3c1541ba5b)" style="fill: none; stroke: #d62728; stroke-width: 1.5; stroke-linecap: square"/>
   </g>
   <g id="patch_40">
    <path d="M 591.545455 1153.44 
L 591.545455 890.829474 
" style="fill: none; stroke: #000000; stroke-width: 0.8; stroke-linejoin: miter; stroke-linecap: square"/>
   </g>
   <g id="patch_41">
    <path d="M 972 1153.44 
L 972 890.829474 
" style="fill: none; stroke: #000000; stroke-width: 0.8; stroke-linejoin: miter; stroke-linecap: square"/>
   </g>
   <g id="patch_42">
    <path d="M 591.545455 1153.44 
L 972 1153.44 
" style="fill: none; stroke: #000000; stroke-width: 0.8; stroke-linejoin: miter; stroke-linecap: square"/>
   </g>
   <g id="patch_43">
    <path d="M 591.545455 890.829474 
L 972 890.829474 
" style="fill: none; stroke: #000000; stroke-width: 0.8; stroke-linejoin: miter; stroke-linecap: square"/>
   </g>
   <g id="text_67">
    <!-- f -->
    <g transform="translate(552.733636 872.71352) scale(0.28 -0.28)">
     <defs>
      <path id="DejaVuSans-Bold-66" d="M 2841 4863 
L 2841 4128 
L 2222 4128 
Q 1984 4128 1890 4042 
Q 1797 3956 1797 3744 
L 1797 3500 
L 2753 3500 
L 2753 2700 
L 1797 2700 
L 1797 0 
L 678 0 
L 678 2700 
L 122 2700 
L 122 3500 
L 678 3500 
L 678 3744 
Q 678 4316 997 4589 
Q 1316 4863 1984 4863 
L 2841 4863 
z
" transform="scale(0.015625)"/>
     </defs>
     <use xlink:href="#DejaVuSans-Bold-66"/>
    </g>
   </g>
   <g id="text_68">
    <!-- LCMC -->
    <g transform="translate(747.973977 884.829474) scale(0.24 -0.24)">
     <defs>
      <path id="DejaVuSans-4c" d="M 628 4666 
L 1259 4666 
L 1259 531 
L 3531 531 
L 3531 0 
L 628 0 
L 628 4666 
z
" transform="scale(0.015625)"/>
     </defs>
     <use xlink:href="#DejaVuSans-4c"/>
     <use xlink:href="#DejaVuSans-43" x="55.712891"/>
     <use xlink:href="#DejaVuSans-4d" x="125.537109"/>
     <use xlink:href="#DejaVuSans-43" x="211.816406"/>
    </g>
   </g>
  </g>
 </g>
 <defs>
  <clipPath id="p466099c6a2">
   <rect x="135" y="155.52" width="380.454545" height="262.610526"/>
  </clipPath>
  <clipPath id="pd635ba4804">
   <rect x="591.545455" y="155.52" width="380.454545" height="262.610526"/>
  </clipPath>
  <clipPath id="p6a382190ff">
   <rect x="135" y="523.174737" width="380.454545" height="262.610526"/>
  </clipPath>
  <clipPath id="pd78e6905be">
   <rect x="591.545455" y="523.174737" width="380.454545" height="262.610526"/>
  </clipPath>
  <clipPath id="p6d638f46f1">
   <rect x="135" y="890.829474" width="380.454545" height="262.610526"/>
  </clipPath>
  <clipPath id="p3c1541ba5b">
   <rect x="591.545455" y="890.829474" width="380.454545" height="262.610526"/>
  </clipPath>
 </defs>
</svg>
