<?xml version="1.0" encoding="utf-8" standalone="no"?>
<!DOCTYPE svg PUBLIC "-//W3C//DTD SVG 1.1//EN"
  "http://www.w3.org/Graphics/SVG/1.1/DTD/svg11.dtd">
<svg xmlns:xlink="http://www.w3.org/1999/xlink" width="1080pt" height="1296pt" viewBox="0 0 1080 1296" xmlns="http://www.w3.org/2000/svg" version="1.1">
 <metadata>
  <rdf:RDF xmlns:dc="http://purl.org/dc/elements/1.1/" xmlns:cc="http://creativecommons.org/ns#" xmlns:rdf="http://www.w3.org/1999/02/22-rdf-syntax-ns#">
   <cc:Work>
    <dc:type rdf:resource="http://purl.org/dc/dcmitype/StillImage"/>
    <dc:date>2024-07-24T01:18:31.667972</dc:date>
    <dc:format>image/svg+xml</dc:format>
    <dc:creator>
     <cc:Agent>
      <dc:title>Matplotlib v3.8.4, https://matplotlib.org/</dc:title>
     </cc:Agent>
    </dc:creator>
   </cc:Work>
  </rdf:RDF>
 </metadata>
 <defs>
  <style type="text/css">*{stroke-linejoin: round; stroke-linecap: butt}</style>
 </defs>
 <g id="figure_1">
  <g id="patch_1">
   <path d="M 0 1296 
L 1080 1296 
L 1080 0 
L 0 0 
z
" style="fill: #ffffff"/>
  </g>
  <g id="axes_1">
   <g id="patch_2">
    <path d="M 135 418.130526 
L 515.454545 418.130526 
L 515.454545 155.52 
L 135 155.52 
z
" style="fill: #ffffff"/>
   </g>
   <g id="matplotlib.axis_1">
    <g id="xtick_1">
     <g id="line2d_1">
      <defs>
       <path id="m7797108240" d="M 0 0 
L 0 3.5 
" style="stroke: #000000; stroke-width: 0.8"/>
      </defs>
      <g>
       <use xlink:href="#m7797108240" x="137.882231" y="418.130526" style="stroke: #000000; stroke-width: 0.8"/>
      </g>
     </g>
     <g id="text_1">
      <!-- 0 -->
      <g transform="translate(131.519731 440.327401) scale(0.2 -0.2)">
       <defs>
        <path id="DejaVuSans-30" d="M 2034 4250 
Q 1547 4250 1301 3770 
Q 1056 3291 1056 2328 
Q 1056 1369 1301 889 
Q 1547 409 2034 409 
Q 2525 409 2770 889 
Q 3016 1369 3016 2328 
Q 3016 3291 2770 3770 
Q 2525 4250 2034 4250 
z
M 2034 4750 
Q 2819 4750 3233 4129 
Q 3647 3509 3647 2328 
Q 3647 1150 3233 529 
Q 2819 -91 2034 -91 
Q 1250 -91 836 529 
Q 422 1150 422 2328 
Q 422 3509 836 4129 
Q 1250 4750 2034 4750 
z
" transform="scale(0.015625)"/>
       </defs>
       <use xlink:href="#DejaVuSans-30"/>
      </g>
     </g>
    </g>
    <g id="xtick_2">
     <g id="line2d_2">
      <g>
       <use xlink:href="#m7797108240" x="209.938017" y="418.130526" style="stroke: #000000; stroke-width: 0.8"/>
      </g>
     </g>
     <g id="text_2">
      <!-- 10 -->
      <g transform="translate(197.213017 440.327401) scale(0.2 -0.2)">
       <defs>
        <path id="DejaVuSans-31" d="M 794 531 
L 1825 531 
L 1825 4091 
L 703 3866 
L 703 4441 
L 1819 4666 
L 2450 4666 
L 2450 531 
L 3481 531 
L 3481 0 
L 794 0 
L 794 531 
z
" transform="scale(0.015625)"/>
       </defs>
       <use xlink:href="#DejaVuSans-31"/>
       <use xlink:href="#DejaVuSans-30" x="63.623047"/>
      </g>
     </g>
    </g>
    <g id="xtick_3">
     <g id="line2d_3">
      <g>
       <use xlink:href="#m7797108240" x="281.993802" y="418.130526" style="stroke: #000000; stroke-width: 0.8"/>
      </g>
     </g>
     <g id="text_3">
      <!-- 20 -->
      <g transform="translate(269.268802 440.327401) scale(0.2 -0.2)">
       <defs>
        <path id="DejaVuSans-32" d="M 1228 531 
L 3431 531 
L 3431 0 
L 469 0 
L 469 531 
Q 828 903 1448 1529 
Q 2069 2156 2228 2338 
Q 2531 2678 2651 2914 
Q 2772 3150 2772 3378 
Q 2772 3750 2511 3984 
Q 2250 4219 1831 4219 
Q 1534 4219 1204 4116 
Q 875 4013 500 3803 
L 500 4441 
Q 881 4594 1212 4672 
Q 1544 4750 1819 4750 
Q 2544 4750 2975 4387 
Q 3406 4025 3406 3419 
Q 3406 3131 3298 2873 
Q 3191 2616 2906 2266 
Q 2828 2175 2409 1742 
Q 1991 1309 1228 531 
z
" transform="scale(0.015625)"/>
       </defs>
       <use xlink:href="#DejaVuSans-32"/>
       <use xlink:href="#DejaVuSans-30" x="63.623047"/>
      </g>
     </g>
    </g>
    <g id="xtick_4">
     <g id="line2d_4">
      <g>
       <use xlink:href="#m7797108240" x="354.049587" y="418.130526" style="stroke: #000000; stroke-width: 0.8"/>
      </g>
     </g>
     <g id="text_4">
      <!-- 30 -->
      <g transform="translate(341.324587 440.327401) scale(0.2 -0.2)">
       <defs>
        <path id="DejaVuSans-33" d="M 2597 2516 
Q 3050 2419 3304 2112 
Q 3559 1806 3559 1356 
Q 3559 666 3084 287 
Q 2609 -91 1734 -91 
Q 1441 -91 1130 -33 
Q 819 25 488 141 
L 488 750 
Q 750 597 1062 519 
Q 1375 441 1716 441 
Q 2309 441 2620 675 
Q 2931 909 2931 1356 
Q 2931 1769 2642 2001 
Q 2353 2234 1838 2234 
L 1294 2234 
L 1294 2753 
L 1863 2753 
Q 2328 2753 2575 2939 
Q 2822 3125 2822 3475 
Q 2822 3834 2567 4026 
Q 2313 4219 1838 4219 
Q 1578 4219 1281 4162 
Q 984 4106 628 3988 
L 628 4550 
Q 988 4650 1302 4700 
Q 1616 4750 1894 4750 
Q 2613 4750 3031 4423 
Q 3450 4097 3450 3541 
Q 3450 3153 3228 2886 
Q 3006 2619 2597 2516 
z
" transform="scale(0.015625)"/>
       </defs>
       <use xlink:href="#DejaVuSans-33"/>
       <use xlink:href="#DejaVuSans-30" x="63.623047"/>
      </g>
     </g>
    </g>
    <g id="xtick_5">
     <g id="line2d_5">
      <g>
       <use xlink:href="#m7797108240" x="426.105372" y="418.130526" style="stroke: #000000; stroke-width: 0.8"/>
      </g>
     </g>
     <g id="text_5">
      <!-- 40 -->
      <g transform="translate(413.380372 440.327401) scale(0.2 -0.2)">
       <defs>
        <path id="DejaVuSans-34" d="M 2419 4116 
L 825 1625 
L 2419 1625 
L 2419 4116 
z
M 2253 4666 
L 3047 4666 
L 3047 1625 
L 3713 1625 
L 3713 1100 
L 3047 1100 
L 3047 0 
L 2419 0 
L 2419 1100 
L 313 1100 
L 313 1709 
L 2253 4666 
z
" transform="scale(0.015625)"/>
       </defs>
       <use xlink:href="#DejaVuSans-34"/>
       <use xlink:href="#DejaVuSans-30" x="63.623047"/>
      </g>
     </g>
    </g>
    <g id="xtick_6">
     <g id="line2d_6">
      <g>
       <use xlink:href="#m7797108240" x="498.161157" y="418.130526" style="stroke: #000000; stroke-width: 0.8"/>
      </g>
     </g>
     <g id="text_6">
      <!-- 50 -->
      <g transform="translate(485.436157 440.327401) scale(0.2 -0.2)">
       <defs>
        <path id="DejaVuSans-35" d="M 691 4666 
L 3169 4666 
L 3169 4134 
L 1269 4134 
L 1269 2991 
Q 1406 3038 1543 3061 
Q 1681 3084 1819 3084 
Q 2600 3084 3056 2656 
Q 3513 2228 3513 1497 
Q 3513 744 3044 326 
Q 2575 -91 1722 -91 
Q 1428 -91 1123 -41 
Q 819 9 494 109 
L 494 744 
Q 775 591 1075 516 
Q 1375 441 1709 441 
Q 2250 441 2565 725 
Q 2881 1009 2881 1497 
Q 2881 1984 2565 2268 
Q 2250 2553 1709 2553 
Q 1456 2553 1204 2497 
Q 953 2441 691 2322 
L 691 4666 
z
" transform="scale(0.015625)"/>
       </defs>
       <use xlink:href="#DejaVuSans-35"/>
       <use xlink:href="#DejaVuSans-30" x="63.623047"/>
      </g>
     </g>
    </g>
    <g id="text_7">
     <!-- k -->
     <g transform="translate(318.278523 466.723026) scale(0.24 -0.24)">
      <defs>
       <path id="DejaVuSans-6b" d="M 581 4863 
L 1159 4863 
L 1159 1991 
L 2875 3500 
L 3609 3500 
L 1753 1863 
L 3688 0 
L 2938 0 
L 1159 1709 
L 1159 0 
L 581 0 
L 581 4863 
z
" transform="scale(0.015625)"/>
      </defs>
      <use xlink:href="#DejaVuSans-6b"/>
     </g>
    </g>
   </g>
   <g id="matplotlib.axis_2">
    <g id="ytick_1">
     <g id="line2d_7">
      <defs>
       <path id="m8badb459a5" d="M 0 0 
L -3.5 0 
" style="stroke: #000000; stroke-width: 0.8"/>
      </defs>
      <g>
       <use xlink:href="#m8badb459a5" x="135" y="418.130526" style="stroke: #000000; stroke-width: 0.8"/>
      </g>
     </g>
     <g id="text_8">
      <!-- 0.0 -->
      <g transform="translate(96.19375 425.728964) scale(0.2 -0.2)">
       <defs>
        <path id="DejaVuSans-2e" d="M 684 794 
L 1344 794 
L 1344 0 
L 684 0 
L 684 794 
z
" transform="scale(0.015625)"/>
       </defs>
       <use xlink:href="#DejaVuSans-30"/>
       <use xlink:href="#DejaVuSans-2e" x="63.623047"/>
       <use xlink:href="#DejaVuSans-30" x="95.410156"/>
      </g>
     </g>
    </g>
    <g id="ytick_2">
     <g id="line2d_8">
      <g>
       <use xlink:href="#m8badb459a5" x="135" y="352.477895" style="stroke: #000000; stroke-width: 0.8"/>
      </g>
     </g>
     <g id="text_9">
      <!-- 0.2 -->
      <g transform="translate(96.19375 360.076332) scale(0.2 -0.2)">
       <use xlink:href="#DejaVuSans-30"/>
       <use xlink:href="#DejaVuSans-2e" x="63.623047"/>
       <use xlink:href="#DejaVuSans-32" x="95.410156"/>
      </g>
     </g>
    </g>
    <g id="ytick_3">
     <g id="line2d_9">
      <g>
       <use xlink:href="#m8badb459a5" x="135" y="286.825263" style="stroke: #000000; stroke-width: 0.8"/>
      </g>
     </g>
     <g id="text_10">
      <!-- 0.4 -->
      <g transform="translate(96.19375 294.423701) scale(0.2 -0.2)">
       <use xlink:href="#DejaVuSans-30"/>
       <use xlink:href="#DejaVuSans-2e" x="63.623047"/>
       <use xlink:href="#DejaVuSans-34" x="95.410156"/>
      </g>
     </g>
    </g>
    <g id="ytick_4">
     <g id="line2d_10">
      <g>
       <use xlink:href="#m8badb459a5" x="135" y="221.172632" style="stroke: #000000; stroke-width: 0.8"/>
      </g>
     </g>
     <g id="text_11">
      <!-- 0.6 -->
      <g transform="translate(96.19375 228.771069) scale(0.2 -0.2)">
       <defs>
        <path id="DejaVuSans-36" d="M 2113 2584 
Q 1688 2584 1439 2293 
Q 1191 2003 1191 1497 
Q 1191 994 1439 701 
Q 1688 409 2113 409 
Q 2538 409 2786 701 
Q 3034 994 3034 1497 
Q 3034 2003 2786 2293 
Q 2538 2584 2113 2584 
z
M 3366 4563 
L 3366 3988 
Q 3128 4100 2886 4159 
Q 2644 4219 2406 4219 
Q 1781 4219 1451 3797 
Q 1122 3375 1075 2522 
Q 1259 2794 1537 2939 
Q 1816 3084 2150 3084 
Q 2853 3084 3261 2657 
Q 3669 2231 3669 1497 
Q 3669 778 3244 343 
Q 2819 -91 2113 -91 
Q 1303 -91 875 529 
Q 447 1150 447 2328 
Q 447 3434 972 4092 
Q 1497 4750 2381 4750 
Q 2619 4750 2861 4703 
Q 3103 4656 3366 4563 
z
" transform="scale(0.015625)"/>
       </defs>
       <use xlink:href="#DejaVuSans-30"/>
       <use xlink:href="#DejaVuSans-2e" x="63.623047"/>
       <use xlink:href="#DejaVuSans-36" x="95.410156"/>
      </g>
     </g>
    </g>
    <g id="ytick_5">
     <g id="line2d_11">
      <g>
       <use xlink:href="#m8badb459a5" x="135" y="155.52" style="stroke: #000000; stroke-width: 0.8"/>
      </g>
     </g>
     <g id="text_12">
      <!-- 0.8 -->
      <g transform="translate(96.19375 163.118438) scale(0.2 -0.2)">
       <defs>
        <path id="DejaVuSans-38" d="M 2034 2216 
Q 1584 2216 1326 1975 
Q 1069 1734 1069 1313 
Q 1069 891 1326 650 
Q 1584 409 2034 409 
Q 2484 409 2743 651 
Q 3003 894 3003 1313 
Q 3003 1734 2745 1975 
Q 2488 2216 2034 2216 
z
M 1403 2484 
Q 997 2584 770 2862 
Q 544 3141 544 3541 
Q 544 4100 942 4425 
Q 1341 4750 2034 4750 
Q 2731 4750 3128 4425 
Q 3525 4100 3525 3541 
Q 3525 3141 3298 2862 
Q 3072 2584 2669 2484 
Q 3125 2378 3379 2068 
Q 3634 1759 3634 1313 
Q 3634 634 3220 271 
Q 2806 -91 2034 -91 
Q 1263 -91 848 271 
Q 434 634 434 1313 
Q 434 1759 690 2068 
Q 947 2378 1403 2484 
z
M 1172 3481 
Q 1172 3119 1398 2916 
Q 1625 2713 2034 2713 
Q 2441 2713 2670 2916 
Q 2900 3119 2900 3481 
Q 2900 3844 2670 4047 
Q 2441 4250 2034 4250 
Q 1625 4250 1398 4047 
Q 1172 3844 1172 3481 
z
" transform="scale(0.015625)"/>
       </defs>
       <use xlink:href="#DejaVuSans-30"/>
       <use xlink:href="#DejaVuSans-2e" x="63.623047"/>
       <use xlink:href="#DejaVuSans-38" x="95.410156"/>
      </g>
     </g>
    </g>
    <g id="text_13">
     <!-- $P_{NN}$ -->
     <g transform="translate(87.2025 306.985263) rotate(-90) scale(0.24 -0.24)">
      <defs>
       <path id="DejaVuSans-Oblique-50" d="M 1081 4666 
L 2541 4666 
Q 3178 4666 3512 4369 
Q 3847 4072 3847 3500 
Q 3847 2731 3353 2303 
Q 2859 1875 1966 1875 
L 1172 1875 
L 806 0 
L 172 0 
L 1081 4666 
z
M 1613 4147 
L 1275 2394 
L 2069 2394 
Q 2606 2394 2893 2669 
Q 3181 2944 3181 3456 
Q 3181 3784 2986 3965 
Q 2791 4147 2438 4147 
L 1613 4147 
z
" transform="scale(0.015625)"/>
       <path id="DejaVuSans-Oblique-4e" d="M 1081 4666 
L 1931 4666 
L 3219 666 
L 4000 4666 
L 4616 4666 
L 3706 0 
L 2853 0 
L 1569 4025 
L 788 0 
L 172 0 
L 1081 4666 
z
" transform="scale(0.015625)"/>
      </defs>
      <use xlink:href="#DejaVuSans-Oblique-50" transform="translate(0 0.09375)"/>
      <use xlink:href="#DejaVuSans-Oblique-4e" transform="translate(60.302734 -16.3125) scale(0.7)"/>
      <use xlink:href="#DejaVuSans-Oblique-4e" transform="translate(112.666016 -16.3125) scale(0.7)"/>
     </g>
    </g>
   </g>
   <g id="line2d_12">
    <path d="M 152.293388 327.866879 
L 173.910124 312.570025 
L 209.938017 304.197745 
L 281.993802 290.575347 
L 498.161157 268.036471 
" clip-path="url(#p3ef0339bd2)" style="fill: none; stroke: #1f77b4; stroke-width: 1.5; stroke-linecap: square"/>
    <defs>
     <path id="m9156a47b4c" d="M 0 3 
C 0.795609 3 1.55874 2.683901 2.12132 2.12132 
C 2.683901 1.55874 3 0.795609 3 0 
C 3 -0.795609 2.683901 -1.55874 2.12132 -2.12132 
C 1.55874 -2.683901 0.795609 -3 0 -3 
C -0.795609 -3 -1.55874 -2.683901 -2.12132 -2.12132 
C -2.683901 -1.55874 -3 -0.795609 -3 0 
C -3 0.795609 -2.683901 1.55874 -2.12132 2.12132 
C -1.55874 2.683901 -0.795609 3 0 3 
z
" style="stroke: #1f77b4"/>
    </defs>
    <g clip-path="url(#p3ef0339bd2)">
     <use xlink:href="#m9156a47b4c" x="152.293388" y="327.866879" style="fill: #1f77b4; stroke: #1f77b4"/>
     <use xlink:href="#m9156a47b4c" x="173.910124" y="312.570025" style="fill: #1f77b4; stroke: #1f77b4"/>
     <use xlink:href="#m9156a47b4c" x="209.938017" y="304.197745" style="fill: #1f77b4; stroke: #1f77b4"/>
     <use xlink:href="#m9156a47b4c" x="281.993802" y="290.575347" style="fill: #1f77b4; stroke: #1f77b4"/>
     <use xlink:href="#m9156a47b4c" x="498.161157" y="268.036471" style="fill: #1f77b4; stroke: #1f77b4"/>
    </g>
   </g>
   <g id="line2d_13">
    <path d="M 152.293388 185.450902 
L 173.910124 171.776178 
L 209.938017 172.037811 
L 281.993802 182.607815 
L 498.161157 205.478094 
" clip-path="url(#p3ef0339bd2)" style="fill: none; stroke: #ff7f0e; stroke-width: 1.5; stroke-linecap: square"/>
    <defs>
     <path id="m2a009b0e31" d="M 0 3 
C 0.795609 3 1.55874 2.683901 2.12132 2.12132 
C 2.683901 1.55874 3 0.795609 3 0 
C 3 -0.795609 2.683901 -1.55874 2.12132 -2.12132 
C 1.55874 -2.683901 0.795609 -3 0 -3 
C -0.795609 -3 -1.55874 -2.683901 -2.12132 -2.12132 
C -2.683901 -1.55874 -3 -0.795609 -3 0 
C -3 0.795609 -2.683901 1.55874 -2.12132 2.12132 
C -1.55874 2.683901 -0.795609 3 0 3 
z
" style="stroke: #ff7f0e"/>
    </defs>
    <g clip-path="url(#p3ef0339bd2)">
     <use xlink:href="#m2a009b0e31" x="152.293388" y="185.450902" style="fill: #ff7f0e; stroke: #ff7f0e"/>
     <use xlink:href="#m2a009b0e31" x="173.910124" y="171.776178" style="fill: #ff7f0e; stroke: #ff7f0e"/>
     <use xlink:href="#m2a009b0e31" x="209.938017" y="172.037811" style="fill: #ff7f0e; stroke: #ff7f0e"/>
     <use xlink:href="#m2a009b0e31" x="281.993802" y="182.607815" style="fill: #ff7f0e; stroke: #ff7f0e"/>
     <use xlink:href="#m2a009b0e31" x="498.161157" y="205.478094" style="fill: #ff7f0e; stroke: #ff7f0e"/>
    </g>
   </g>
   <g id="line2d_14">
    <path d="M 152.293388 274.319169 
L 173.910124 222.951741 
L 209.938017 198.044207 
L 281.993802 198.000602 
L 498.161157 213.382922 
" clip-path="url(#p3ef0339bd2)" style="fill: none; stroke: #2ca02c; stroke-width: 1.5; stroke-linecap: square"/>
    <defs>
     <path id="m9ac571feb4" d="M 0 3 
C 0.795609 3 1.55874 2.683901 2.12132 2.12132 
C 2.683901 1.55874 3 0.795609 3 0 
C 3 -0.795609 2.683901 -1.55874 2.12132 -2.12132 
C 1.55874 -2.683901 0.795609 -3 0 -3 
C -0.795609 -3 -1.55874 -2.683901 -2.12132 -2.12132 
C -2.683901 -1.55874 -3 -0.795609 -3 0 
C -3 0.795609 -2.683901 1.55874 -2.12132 2.12132 
C -1.55874 2.683901 -0.795609 3 0 3 
z
" style="stroke: #2ca02c"/>
    </defs>
    <g clip-path="url(#p3ef0339bd2)">
     <use xlink:href="#m9ac571feb4" x="152.293388" y="274.319169" style="fill: #2ca02c; stroke: #2ca02c"/>
     <use xlink:href="#m9ac571feb4" x="173.910124" y="222.951741" style="fill: #2ca02c; stroke: #2ca02c"/>
     <use xlink:href="#m9ac571feb4" x="209.938017" y="198.044207" style="fill: #2ca02c; stroke: #2ca02c"/>
     <use xlink:href="#m9ac571feb4" x="281.993802" y="198.000602" style="fill: #2ca02c; stroke: #2ca02c"/>
     <use xlink:href="#m9ac571feb4" x="498.161157" y="213.382922" style="fill: #2ca02c; stroke: #2ca02c"/>
    </g>
   </g>
   <g id="line2d_15">
    <path d="M 152.293388 276.325028 
L 173.910124 245.242938 
L 209.938017 226.108789 
L 281.993802 219.201657 
L 498.161157 225.456448 
" clip-path="url(#p3ef0339bd2)" style="fill: none; stroke: #d62728; stroke-width: 1.5; stroke-linecap: square"/>
    <defs>
     <path id="m6eaadeb3a5" d="M 0 3 
C 0.795609 3 1.55874 2.683901 2.12132 2.12132 
C 2.683901 1.55874 3 0.795609 3 0 
C 3 -0.795609 2.683901 -1.55874 2.12132 -2.12132 
C 1.55874 -2.683901 0.795609 -3 0 -3 
C -0.795609 -3 -1.55874 -2.683901 -2.12132 -2.12132 
C -2.683901 -1.55874 -3 -0.795609 -3 0 
C -3 0.795609 -2.683901 1.55874 -2.12132 2.12132 
C -1.55874 2.683901 -0.795609 3 0 3 
z
" style="stroke: #d62728"/>
    </defs>
    <g clip-path="url(#p3ef0339bd2)">
     <use xlink:href="#m6eaadeb3a5" x="152.293388" y="276.325028" style="fill: #d62728; stroke: #d62728"/>
     <use xlink:href="#m6eaadeb3a5" x="173.910124" y="245.242938" style="fill: #d62728; stroke: #d62728"/>
     <use xlink:href="#m6eaadeb3a5" x="209.938017" y="226.108789" style="fill: #d62728; stroke: #d62728"/>
     <use xlink:href="#m6eaadeb3a5" x="281.993802" y="219.201657" style="fill: #d62728; stroke: #d62728"/>
     <use xlink:href="#m6eaadeb3a5" x="498.161157" y="225.456448" style="fill: #d62728; stroke: #d62728"/>
    </g>
   </g>
   <g id="patch_3">
    <path d="M 135 418.130526 
L 135 155.52 
" style="fill: none; stroke: #000000; stroke-width: 0.8; stroke-linejoin: miter; stroke-linecap: square"/>
   </g>
   <g id="patch_4">
    <path d="M 515.454545 418.130526 
L 515.454545 155.52 
" style="fill: none; stroke: #000000; stroke-width: 0.8; stroke-linejoin: miter; stroke-linecap: square"/>
   </g>
   <g id="patch_5">
    <path d="M 135 418.130526 
L 515.454545 418.130526 
" style="fill: none; stroke: #000000; stroke-width: 0.8; stroke-linejoin: miter; stroke-linecap: square"/>
   </g>
   <g id="patch_6">
    <path d="M 135 155.52 
L 515.454545 155.52 
" style="fill: none; stroke: #000000; stroke-width: 0.8; stroke-linejoin: miter; stroke-linecap: square"/>
   </g>
   <g id="text_14">
    <!-- a -->
    <g transform="translate(89.472557 137.404046) scale(0.28 -0.28)">
     <defs>
      <path id="DejaVuSans-Bold-61" d="M 2106 1575 
Q 1756 1575 1579 1456 
Q 1403 1338 1403 1106 
Q 1403 894 1545 773 
Q 1688 653 1941 653 
Q 2256 653 2472 879 
Q 2688 1106 2688 1447 
L 2688 1575 
L 2106 1575 
z
M 3816 1997 
L 3816 0 
L 2688 0 
L 2688 519 
Q 2463 200 2181 54 
Q 1900 -91 1497 -91 
Q 953 -91 614 226 
Q 275 544 275 1050 
Q 275 1666 698 1953 
Q 1122 2241 2028 2241 
L 2688 2241 
L 2688 2328 
Q 2688 2594 2478 2717 
Q 2269 2841 1825 2841 
Q 1466 2841 1156 2769 
Q 847 2697 581 2553 
L 581 3406 
Q 941 3494 1303 3539 
Q 1666 3584 2028 3584 
Q 2975 3584 3395 3211 
Q 3816 2838 3816 1997 
z
" transform="scale(0.015625)"/>
     </defs>
     <use xlink:href="#DejaVuSans-Bold-61"/>
    </g>
   </g>
   <g id="text_15">
    <!-- $P_{NN}$ -->
    <g transform="translate(303.387273 149.52) scale(0.26 -0.26)">
     <use xlink:href="#DejaVuSans-Oblique-50" transform="translate(0 0.09375)"/>
     <use xlink:href="#DejaVuSans-Oblique-4e" transform="translate(60.302734 -16.3125) scale(0.7)"/>
     <use xlink:href="#DejaVuSans-Oblique-4e" transform="translate(112.666016 -16.3125) scale(0.7)"/>
    </g>
   </g>
  </g>
  <g id="axes_2">
   <g id="patch_7">
    <path d="M 591.545455 418.130526 
L 972 418.130526 
L 972 155.52 
L 591.545455 155.52 
z
" style="fill: #ffffff"/>
   </g>
   <g id="patch_8">
    <path d="M 608.838843 418.130526 
L 628.792753 418.130526 
L 628.792753 183.256775 
L 608.838843 183.256775 
z
" clip-path="url(#p55b0313a4a)" style="fill: #1f77b4"/>
   </g>
   <g id="patch_9">
    <path d="M 741.864908 418.130526 
L 761.818818 418.130526 
L 761.818818 258.119893 
L 741.864908 258.119893 
z
" clip-path="url(#p55b0313a4a)" style="fill: #1f77b4"/>
   </g>
   <g id="patch_10">
    <path d="M 874.890973 418.130526 
L 894.844882 418.130526 
L 894.844882 168.025263 
L 874.890973 168.025263 
z
" clip-path="url(#p55b0313a4a)" style="fill: #1f77b4"/>
   </g>
   <g id="patch_11">
    <path d="M 628.792753 418.130526 
L 648.746662 418.130526 
L 648.746662 192.757492 
L 628.792753 192.757492 
z
" clip-path="url(#p55b0313a4a)" style="fill: #ff7f0e"/>
   </g>
   <g id="patch_12">
    <path d="M 761.818818 418.130526 
L 781.772727 418.130526 
L 781.772727 223.387925 
L 761.818818 223.387925 
z
" clip-path="url(#p55b0313a4a)" style="fill: #ff7f0e"/>
   </g>
   <g id="patch_13">
    <path d="M 894.844882 418.130526 
L 914.798792 418.130526 
L 914.798792 192.574841 
L 894.844882 192.574841 
z
" clip-path="url(#p55b0313a4a)" style="fill: #ff7f0e"/>
   </g>
   <g id="patch_14">
    <path d="M 648.746662 418.130526 
L 668.700572 418.130526 
L 668.700572 191.405561 
L 648.746662 191.405561 
z
" clip-path="url(#p55b0313a4a)" style="fill: #2ca02c"/>
   </g>
   <g id="patch_15">
    <path d="M 781.772727 418.130526 
L 801.726637 418.130526 
L 801.726637 257.291268 
L 781.772727 257.291268 
z
" clip-path="url(#p55b0313a4a)" style="fill: #2ca02c"/>
   </g>
   <g id="patch_16">
    <path d="M 914.798792 418.130526 
L 934.752702 418.130526 
L 934.752702 190.870858 
L 914.798792 190.870858 
z
" clip-path="url(#p55b0313a4a)" style="fill: #2ca02c"/>
   </g>
   <g id="patch_17">
    <path d="M 668.700572 418.130526 
L 688.654482 418.130526 
L 688.654482 231.577733 
L 668.700572 231.577733 
z
" clip-path="url(#p55b0313a4a)" style="fill: #d62728"/>
   </g>
   <g id="patch_18">
    <path d="M 801.726637 418.130526 
L 821.680547 418.130526 
L 821.680547 267.073715 
L 801.726637 267.073715 
z
" clip-path="url(#p55b0313a4a)" style="fill: #d62728"/>
   </g>
   <g id="patch_19">
    <path d="M 934.752702 418.130526 
L 954.706612 418.130526 
L 954.706612 231.133625 
L 934.752702 231.133625 
z
" clip-path="url(#p55b0313a4a)" style="fill: #d62728"/>
   </g>
   <g id="matplotlib.axis_3">
    <g id="xtick_7">
     <g id="line2d_16">
      <g>
       <use xlink:href="#m7797108240" x="648.746662" y="418.130526" style="stroke: #000000; stroke-width: 0.8"/>
      </g>
     </g>
     <g id="text_16">
      <!-- AUC -->
      <g transform="translate(625.490256 441.847089) scale(0.22 -0.22)">
       <defs>
        <path id="DejaVuSans-41" d="M 2188 4044 
L 1331 1722 
L 3047 1722 
L 2188 4044 
z
M 1831 4666 
L 2547 4666 
L 4325 0 
L 3669 0 
L 3244 1197 
L 1141 1197 
L 716 0 
L 50 0 
L 1831 4666 
z
" transform="scale(0.015625)"/>
        <path id="DejaVuSans-55" d="M 556 4666 
L 1191 4666 
L 1191 1831 
Q 1191 1081 1462 751 
Q 1734 422 2344 422 
Q 2950 422 3222 751 
Q 3494 1081 3494 1831 
L 3494 4666 
L 4128 4666 
L 4128 1753 
Q 4128 841 3676 375 
Q 3225 -91 2344 -91 
Q 1459 -91 1007 375 
Q 556 841 556 1753 
L 556 4666 
z
" transform="scale(0.015625)"/>
        <path id="DejaVuSans-43" d="M 4122 4306 
L 4122 3641 
Q 3803 3938 3442 4084 
Q 3081 4231 2675 4231 
Q 1875 4231 1450 3742 
Q 1025 3253 1025 2328 
Q 1025 1406 1450 917 
Q 1875 428 2675 428 
Q 3081 428 3442 575 
Q 3803 722 4122 1019 
L 4122 359 
Q 3791 134 3420 21 
Q 3050 -91 2638 -91 
Q 1578 -91 968 557 
Q 359 1206 359 2328 
Q 359 3453 968 4101 
Q 1578 4750 2638 4750 
Q 3056 4750 3426 4639 
Q 3797 4528 4122 4306 
z
" transform="scale(0.015625)"/>
       </defs>
       <use xlink:href="#DejaVuSans-41"/>
       <use xlink:href="#DejaVuSans-55" x="68.408203"/>
       <use xlink:href="#DejaVuSans-43" x="141.601562"/>
      </g>
     </g>
    </g>
    <g id="xtick_8">
     <g id="line2d_17">
      <g>
       <use xlink:href="#m7797108240" x="781.772727" y="418.130526" style="stroke: #000000; stroke-width: 0.8"/>
      </g>
     </g>
     <g id="text_17">
      <!-- $Q_{local}$ -->
      <g transform="translate(754.822727 441.847089) scale(0.22 -0.22)">
       <defs>
        <path id="DejaVuSans-Oblique-51" d="M 2309 -84 
Q 2275 -88 2237 -89 
Q 2200 -91 2125 -91 
Q 1250 -91 756 411 
Q 263 913 263 1797 
Q 263 2319 452 2844 
Q 641 3369 978 3788 
Q 1369 4269 1858 4509 
Q 2347 4750 2938 4750 
Q 3794 4750 4287 4245 
Q 4781 3741 4781 2869 
Q 4781 1928 4265 1147 
Q 3750 366 2919 44 
L 3553 -825 
L 2847 -825 
L 2309 -84 
z
M 2919 4238 
Q 2400 4238 2003 3986 
Q 1606 3734 1313 3219 
Q 1125 2891 1026 2522 
Q 928 2153 928 1778 
Q 928 1128 1239 775 
Q 1550 422 2119 422 
Q 2631 422 3032 676 
Q 3434 931 3719 1434 
Q 3909 1772 4009 2142 
Q 4109 2513 4109 2881 
Q 4109 3528 3796 3883 
Q 3484 4238 2919 4238 
z
" transform="scale(0.015625)"/>
        <path id="DejaVuSans-Oblique-6c" d="M 1172 4863 
L 1747 4863 
L 800 0 
L 225 0 
L 1172 4863 
z
" transform="scale(0.015625)"/>
        <path id="DejaVuSans-Oblique-6f" d="M 1625 -91 
Q 1009 -91 651 289 
Q 294 669 294 1325 
Q 294 1706 417 2101 
Q 541 2497 738 2766 
Q 1047 3184 1428 3384 
Q 1809 3584 2291 3584 
Q 2888 3584 3255 3212 
Q 3622 2841 3622 2241 
Q 3622 1825 3500 1412 
Q 3378 1000 3181 728 
Q 2875 309 2494 109 
Q 2113 -91 1625 -91 
z
M 891 1344 
Q 891 869 1089 633 
Q 1288 397 1691 397 
Q 2269 397 2648 901 
Q 3028 1406 3028 2181 
Q 3028 2634 2825 2865 
Q 2622 3097 2228 3097 
Q 1903 3097 1650 2945 
Q 1397 2794 1197 2484 
Q 1050 2253 970 1956 
Q 891 1659 891 1344 
z
" transform="scale(0.015625)"/>
        <path id="DejaVuSans-Oblique-63" d="M 3431 3366 
L 3316 2797 
Q 3109 2947 2876 3022 
Q 2644 3097 2394 3097 
Q 2119 3097 1870 3000 
Q 1622 2903 1453 2725 
Q 1184 2453 1037 2087 
Q 891 1722 891 1331 
Q 891 859 1127 628 
Q 1363 397 1844 397 
Q 2081 397 2348 469 
Q 2616 541 2906 684 
L 2797 116 
Q 2547 13 2283 -39 
Q 2019 -91 1741 -91 
Q 1044 -91 669 257 
Q 294 606 294 1253 
Q 294 1797 489 2255 
Q 684 2713 1069 3078 
Q 1331 3328 1684 3456 
Q 2038 3584 2456 3584 
Q 2700 3584 2940 3529 
Q 3181 3475 3431 3366 
z
" transform="scale(0.015625)"/>
        <path id="DejaVuSans-Oblique-61" d="M 3438 1997 
L 3047 0 
L 2472 0 
L 2578 531 
Q 2325 219 2001 64 
Q 1678 -91 1281 -91 
Q 834 -91 548 182 
Q 263 456 263 884 
Q 263 1497 752 1853 
Q 1241 2209 2100 2209 
L 2900 2209 
L 2931 2363 
Q 2938 2388 2941 2417 
Q 2944 2447 2944 2509 
Q 2944 2788 2717 2942 
Q 2491 3097 2081 3097 
Q 1800 3097 1504 3025 
Q 1209 2953 897 2809 
L 997 3341 
Q 1322 3463 1633 3523 
Q 1944 3584 2234 3584 
Q 2853 3584 3176 3315 
Q 3500 3047 3500 2534 
Q 3500 2431 3484 2292 
Q 3469 2153 3438 1997 
z
M 2816 1759 
L 2241 1759 
Q 1534 1759 1195 1570 
Q 856 1381 856 984 
Q 856 709 1029 553 
Q 1203 397 1509 397 
Q 1978 397 2328 733 
Q 2678 1069 2791 1631 
L 2816 1759 
z
" transform="scale(0.015625)"/>
       </defs>
       <use xlink:href="#DejaVuSans-Oblique-51" transform="translate(0 0.78125)"/>
       <use xlink:href="#DejaVuSans-Oblique-6c" transform="translate(78.710938 -15.625) scale(0.7)"/>
       <use xlink:href="#DejaVuSans-Oblique-6f" transform="translate(98.15918 -15.625) scale(0.7)"/>
       <use xlink:href="#DejaVuSans-Oblique-63" transform="translate(140.986328 -15.625) scale(0.7)"/>
       <use xlink:href="#DejaVuSans-Oblique-61" transform="translate(179.472656 -15.625) scale(0.7)"/>
       <use xlink:href="#DejaVuSans-Oblique-6c" transform="translate(222.368164 -15.625) scale(0.7)"/>
      </g>
     </g>
    </g>
    <g id="xtick_9">
     <g id="line2d_18">
      <g>
       <use xlink:href="#m7797108240" x="914.798792" y="418.130526" style="stroke: #000000; stroke-width: 0.8"/>
      </g>
     </g>
     <g id="text_18">
      <!-- $Q_{global}$ -->
      <g transform="translate(882.348792 441.630526) scale(0.22 -0.22)">
       <defs>
        <path id="DejaVuSans-Oblique-67" d="M 3816 3500 
L 3219 434 
Q 3047 -456 2561 -893 
Q 2075 -1331 1253 -1331 
Q 950 -1331 690 -1286 
Q 431 -1241 206 -1147 
L 313 -588 
Q 525 -725 762 -790 
Q 1000 -856 1269 -856 
Q 1816 -856 2167 -557 
Q 2519 -259 2631 300 
L 2681 563 
Q 2441 288 2122 144 
Q 1803 0 1434 0 
Q 903 0 598 351 
Q 294 703 294 1319 
Q 294 1803 478 2267 
Q 663 2731 997 3091 
Q 1219 3328 1514 3456 
Q 1809 3584 2131 3584 
Q 2484 3584 2746 3420 
Q 3009 3256 3138 2956 
L 3238 3500 
L 3816 3500 
z
M 2950 2216 
Q 2950 2641 2750 2872 
Q 2550 3103 2181 3103 
Q 1953 3103 1747 3012 
Q 1541 2922 1394 2759 
Q 1156 2491 1023 2127 
Q 891 1763 891 1375 
Q 891 944 1092 712 
Q 1294 481 1672 481 
Q 2219 481 2584 976 
Q 2950 1472 2950 2216 
z
" transform="scale(0.015625)"/>
        <path id="DejaVuSans-Oblique-62" d="M 3169 2138 
Q 3169 2591 2961 2847 
Q 2753 3103 2388 3103 
Q 2122 3103 1889 2973 
Q 1656 2844 1484 2597 
Q 1303 2338 1198 1995 
Q 1094 1653 1094 1313 
Q 1094 881 1298 636 
Q 1503 391 1863 391 
Q 2134 391 2365 517 
Q 2597 644 2772 891 
Q 2950 1147 3059 1487 
Q 3169 1828 3169 2138 
z
M 1381 2969 
Q 1594 3256 1914 3420 
Q 2234 3584 2584 3584 
Q 3122 3584 3439 3221 
Q 3756 2859 3756 2241 
Q 3756 1734 3570 1259 
Q 3384 784 3041 416 
Q 2816 172 2522 40 
Q 2228 -91 1906 -91 
Q 1566 -91 1316 65 
Q 1066 222 909 531 
L 806 0 
L 231 0 
L 1178 4863 
L 1753 4863 
L 1381 2969 
z
" transform="scale(0.015625)"/>
       </defs>
       <use xlink:href="#DejaVuSans-Oblique-51" transform="translate(0 0.78125)"/>
       <use xlink:href="#DejaVuSans-Oblique-67" transform="translate(78.710938 -15.625) scale(0.7)"/>
       <use xlink:href="#DejaVuSans-Oblique-6c" transform="translate(123.144531 -15.625) scale(0.7)"/>
       <use xlink:href="#DejaVuSans-Oblique-6f" transform="translate(142.592773 -15.625) scale(0.7)"/>
       <use xlink:href="#DejaVuSans-Oblique-62" transform="translate(185.419922 -15.625) scale(0.7)"/>
       <use xlink:href="#DejaVuSans-Oblique-61" transform="translate(229.853516 -15.625) scale(0.7)"/>
       <use xlink:href="#DejaVuSans-Oblique-6c" transform="translate(272.749023 -15.625) scale(0.7)"/>
      </g>
     </g>
    </g>
   </g>
   <g id="matplotlib.axis_4">
    <g id="ytick_6">
     <g id="line2d_19">
      <g>
       <use xlink:href="#m8badb459a5" x="591.545455" y="418.130526" style="stroke: #000000; stroke-width: 0.8"/>
      </g>
     </g>
     <g id="text_19">
      <!-- 0.0 -->
      <g transform="translate(549.55858 426.488808) scale(0.22 -0.22)">
       <use xlink:href="#DejaVuSans-30"/>
       <use xlink:href="#DejaVuSans-2e" x="63.623047"/>
       <use xlink:href="#DejaVuSans-30" x="95.410156"/>
      </g>
     </g>
    </g>
    <g id="ytick_7">
     <g id="line2d_20">
      <g>
       <use xlink:href="#m8badb459a5" x="591.545455" y="364.042522" style="stroke: #000000; stroke-width: 0.8"/>
      </g>
     </g>
     <g id="text_20">
      <!-- 0.2 -->
      <g transform="translate(549.55858 372.400803) scale(0.22 -0.22)">
       <use xlink:href="#DejaVuSans-30"/>
       <use xlink:href="#DejaVuSans-2e" x="63.623047"/>
       <use xlink:href="#DejaVuSans-32" x="95.410156"/>
      </g>
     </g>
    </g>
    <g id="ytick_8">
     <g id="line2d_21">
      <g>
       <use xlink:href="#m8badb459a5" x="591.545455" y="309.954518" style="stroke: #000000; stroke-width: 0.8"/>
      </g>
     </g>
     <g id="text_21">
      <!-- 0.4 -->
      <g transform="translate(549.55858 318.312799) scale(0.22 -0.22)">
       <use xlink:href="#DejaVuSans-30"/>
       <use xlink:href="#DejaVuSans-2e" x="63.623047"/>
       <use xlink:href="#DejaVuSans-34" x="95.410156"/>
      </g>
     </g>
    </g>
    <g id="ytick_9">
     <g id="line2d_22">
      <g>
       <use xlink:href="#m8badb459a5" x="591.545455" y="255.866514" style="stroke: #000000; stroke-width: 0.8"/>
      </g>
     </g>
     <g id="text_22">
      <!-- 0.6 -->
      <g transform="translate(549.55858 264.224795) scale(0.22 -0.22)">
       <use xlink:href="#DejaVuSans-30"/>
       <use xlink:href="#DejaVuSans-2e" x="63.623047"/>
       <use xlink:href="#DejaVuSans-36" x="95.410156"/>
      </g>
     </g>
    </g>
    <g id="ytick_10">
     <g id="line2d_23">
      <g>
       <use xlink:href="#m8badb459a5" x="591.545455" y="201.778509" style="stroke: #000000; stroke-width: 0.8"/>
      </g>
     </g>
     <g id="text_23">
      <!-- 0.8 -->
      <g transform="translate(549.55858 210.136791) scale(0.22 -0.22)">
       <use xlink:href="#DejaVuSans-30"/>
       <use xlink:href="#DejaVuSans-2e" x="63.623047"/>
       <use xlink:href="#DejaVuSans-38" x="95.410156"/>
      </g>
     </g>
    </g>
    <g id="text_24">
     <!-- Metric Value -->
     <g transform="translate(540.983267 354.727919) rotate(-90) scale(0.22 -0.22)">
      <defs>
       <path id="DejaVuSans-4d" d="M 628 4666 
L 1569 4666 
L 2759 1491 
L 3956 4666 
L 4897 4666 
L 4897 0 
L 4281 0 
L 4281 4097 
L 3078 897 
L 2444 897 
L 1241 4097 
L 1241 0 
L 628 0 
L 628 4666 
z
" transform="scale(0.015625)"/>
       <path id="DejaVuSans-65" d="M 3597 1894 
L 3597 1613 
L 953 1613 
Q 991 1019 1311 708 
Q 1631 397 2203 397 
Q 2534 397 2845 478 
Q 3156 559 3463 722 
L 3463 178 
Q 3153 47 2828 -22 
Q 2503 -91 2169 -91 
Q 1331 -91 842 396 
Q 353 884 353 1716 
Q 353 2575 817 3079 
Q 1281 3584 2069 3584 
Q 2775 3584 3186 3129 
Q 3597 2675 3597 1894 
z
M 3022 2063 
Q 3016 2534 2758 2815 
Q 2500 3097 2075 3097 
Q 1594 3097 1305 2825 
Q 1016 2553 972 2059 
L 3022 2063 
z
" transform="scale(0.015625)"/>
       <path id="DejaVuSans-74" d="M 1172 4494 
L 1172 3500 
L 2356 3500 
L 2356 3053 
L 1172 3053 
L 1172 1153 
Q 1172 725 1289 603 
Q 1406 481 1766 481 
L 2356 481 
L 2356 0 
L 1766 0 
Q 1100 0 847 248 
Q 594 497 594 1153 
L 594 3053 
L 172 3053 
L 172 3500 
L 594 3500 
L 594 4494 
L 1172 4494 
z
" transform="scale(0.015625)"/>
       <path id="DejaVuSans-72" d="M 2631 2963 
Q 2534 3019 2420 3045 
Q 2306 3072 2169 3072 
Q 1681 3072 1420 2755 
Q 1159 2438 1159 1844 
L 1159 0 
L 581 0 
L 581 3500 
L 1159 3500 
L 1159 2956 
Q 1341 3275 1631 3429 
Q 1922 3584 2338 3584 
Q 2397 3584 2469 3576 
Q 2541 3569 2628 3553 
L 2631 2963 
z
" transform="scale(0.015625)"/>
       <path id="DejaVuSans-69" d="M 603 3500 
L 1178 3500 
L 1178 0 
L 603 0 
L 603 3500 
z
M 603 4863 
L 1178 4863 
L 1178 4134 
L 603 4134 
L 603 4863 
z
" transform="scale(0.015625)"/>
       <path id="DejaVuSans-63" d="M 3122 3366 
L 3122 2828 
Q 2878 2963 2633 3030 
Q 2388 3097 2138 3097 
Q 1578 3097 1268 2742 
Q 959 2388 959 1747 
Q 959 1106 1268 751 
Q 1578 397 2138 397 
Q 2388 397 2633 464 
Q 2878 531 3122 666 
L 3122 134 
Q 2881 22 2623 -34 
Q 2366 -91 2075 -91 
Q 1284 -91 818 406 
Q 353 903 353 1747 
Q 353 2603 823 3093 
Q 1294 3584 2113 3584 
Q 2378 3584 2631 3529 
Q 2884 3475 3122 3366 
z
" transform="scale(0.015625)"/>
       <path id="DejaVuSans-20" transform="scale(0.015625)"/>
       <path id="DejaVuSans-56" d="M 1831 0 
L 50 4666 
L 709 4666 
L 2188 738 
L 3669 4666 
L 4325 4666 
L 2547 0 
L 1831 0 
z
" transform="scale(0.015625)"/>
       <path id="DejaVuSans-61" d="M 2194 1759 
Q 1497 1759 1228 1600 
Q 959 1441 959 1056 
Q 959 750 1161 570 
Q 1363 391 1709 391 
Q 2188 391 2477 730 
Q 2766 1069 2766 1631 
L 2766 1759 
L 2194 1759 
z
M 3341 1997 
L 3341 0 
L 2766 0 
L 2766 531 
Q 2569 213 2275 61 
Q 1981 -91 1556 -91 
Q 1019 -91 701 211 
Q 384 513 384 1019 
Q 384 1609 779 1909 
Q 1175 2209 1959 2209 
L 2766 2209 
L 2766 2266 
Q 2766 2663 2505 2880 
Q 2244 3097 1772 3097 
Q 1472 3097 1187 3025 
Q 903 2953 641 2809 
L 641 3341 
Q 956 3463 1253 3523 
Q 1550 3584 1831 3584 
Q 2591 3584 2966 3190 
Q 3341 2797 3341 1997 
z
" transform="scale(0.015625)"/>
       <path id="DejaVuSans-6c" d="M 603 4863 
L 1178 4863 
L 1178 0 
L 603 0 
L 603 4863 
z
" transform="scale(0.015625)"/>
       <path id="DejaVuSans-75" d="M 544 1381 
L 544 3500 
L 1119 3500 
L 1119 1403 
Q 1119 906 1312 657 
Q 1506 409 1894 409 
Q 2359 409 2629 706 
Q 2900 1003 2900 1516 
L 2900 3500 
L 3475 3500 
L 3475 0 
L 2900 0 
L 2900 538 
Q 2691 219 2414 64 
Q 2138 -91 1772 -91 
Q 1169 -91 856 284 
Q 544 659 544 1381 
z
M 1991 3584 
L 1991 3584 
z
" transform="scale(0.015625)"/>
      </defs>
      <use xlink:href="#DejaVuSans-4d"/>
      <use xlink:href="#DejaVuSans-65" x="86.279297"/>
      <use xlink:href="#DejaVuSans-74" x="147.802734"/>
      <use xlink:href="#DejaVuSans-72" x="187.011719"/>
      <use xlink:href="#DejaVuSans-69" x="228.125"/>
      <use xlink:href="#DejaVuSans-63" x="255.908203"/>
      <use xlink:href="#DejaVuSans-20" x="310.888672"/>
      <use xlink:href="#DejaVuSans-56" x="342.675781"/>
      <use xlink:href="#DejaVuSans-61" x="403.333984"/>
      <use xlink:href="#DejaVuSans-6c" x="464.613281"/>
      <use xlink:href="#DejaVuSans-75" x="492.396484"/>
      <use xlink:href="#DejaVuSans-65" x="555.775391"/>
     </g>
    </g>
   </g>
   <g id="patch_20">
    <path d="M 591.545455 418.130526 
L 591.545455 155.52 
" style="fill: none; stroke: #000000; stroke-width: 0.8; stroke-linejoin: miter; stroke-linecap: square"/>
   </g>
   <g id="patch_21">
    <path d="M 972 418.130526 
L 972 155.52 
" style="fill: none; stroke: #000000; stroke-width: 0.8; stroke-linejoin: miter; stroke-linecap: square"/>
   </g>
   <g id="patch_22">
    <path d="M 591.545455 418.130526 
L 972 418.130526 
" style="fill: none; stroke: #000000; stroke-width: 0.8; stroke-linejoin: miter; stroke-linecap: square"/>
   </g>
   <g id="patch_23">
    <path d="M 591.545455 155.52 
L 972 155.52 
" style="fill: none; stroke: #000000; stroke-width: 0.8; stroke-linejoin: miter; stroke-linecap: square"/>
   </g>
   <g id="text_25">
    <!-- b -->
    <g transform="translate(544.871761 137.404046) scale(0.28 -0.28)">
     <defs>
      <path id="DejaVuSans-Bold-62" d="M 2400 722 
Q 2759 722 2948 984 
Q 3138 1247 3138 1747 
Q 3138 2247 2948 2509 
Q 2759 2772 2400 2772 
Q 2041 2772 1848 2508 
Q 1656 2244 1656 1747 
Q 1656 1250 1848 986 
Q 2041 722 2400 722 
z
M 1656 2988 
Q 1888 3294 2169 3439 
Q 2450 3584 2816 3584 
Q 3463 3584 3878 3070 
Q 4294 2556 4294 1747 
Q 4294 938 3878 423 
Q 3463 -91 2816 -91 
Q 2450 -91 2169 54 
Q 1888 200 1656 506 
L 1656 0 
L 538 0 
L 538 4863 
L 1656 4863 
L 1656 2988 
z
" transform="scale(0.015625)"/>
     </defs>
     <use xlink:href="#DejaVuSans-Bold-62"/>
    </g>
   </g>
   <g id="text_26">
    <!-- Metrics -->
    <g transform="translate(734.584759 149.52) scale(0.26 -0.26)">
     <defs>
      <path id="DejaVuSans-73" d="M 2834 3397 
L 2834 2853 
Q 2591 2978 2328 3040 
Q 2066 3103 1784 3103 
Q 1356 3103 1142 2972 
Q 928 2841 928 2578 
Q 928 2378 1081 2264 
Q 1234 2150 1697 2047 
L 1894 2003 
Q 2506 1872 2764 1633 
Q 3022 1394 3022 966 
Q 3022 478 2636 193 
Q 2250 -91 1575 -91 
Q 1294 -91 989 -36 
Q 684 19 347 128 
L 347 722 
Q 666 556 975 473 
Q 1284 391 1588 391 
Q 1994 391 2212 530 
Q 2431 669 2431 922 
Q 2431 1156 2273 1281 
Q 2116 1406 1581 1522 
L 1381 1569 
Q 847 1681 609 1914 
Q 372 2147 372 2553 
Q 372 3047 722 3315 
Q 1072 3584 1716 3584 
Q 2034 3584 2315 3537 
Q 2597 3491 2834 3397 
z
" transform="scale(0.015625)"/>
     </defs>
     <use xlink:href="#DejaVuSans-4d"/>
     <use xlink:href="#DejaVuSans-65" x="86.279297"/>
     <use xlink:href="#DejaVuSans-74" x="147.802734"/>
     <use xlink:href="#DejaVuSans-72" x="187.011719"/>
     <use xlink:href="#DejaVuSans-69" x="228.125"/>
     <use xlink:href="#DejaVuSans-63" x="255.908203"/>
     <use xlink:href="#DejaVuSans-73" x="310.888672"/>
    </g>
   </g>
  </g>
  <g id="axes_3">
   <g id="patch_24">
    <path d="M 135 785.785263 
L 515.454545 785.785263 
L 515.454545 523.174737 
L 135 523.174737 
z
" style="fill: #ffffff"/>
   </g>
   <g id="matplotlib.axis_5">
    <g id="xtick_10">
     <g id="line2d_24">
      <g>
       <use xlink:href="#m7797108240" x="137.882231" y="785.785263" style="stroke: #000000; stroke-width: 0.8"/>
      </g>
     </g>
     <g id="text_27">
      <!-- 0 -->
      <g transform="translate(130.883481 809.501826) scale(0.22 -0.22)">
       <use xlink:href="#DejaVuSans-30"/>
      </g>
     </g>
    </g>
    <g id="xtick_11">
     <g id="line2d_25">
      <g>
       <use xlink:href="#m7797108240" x="281.993802" y="785.785263" style="stroke: #000000; stroke-width: 0.8"/>
      </g>
     </g>
     <g id="text_28">
      <!-- 20 -->
      <g transform="translate(267.996302 809.501826) scale(0.22 -0.22)">
       <use xlink:href="#DejaVuSans-32"/>
       <use xlink:href="#DejaVuSans-30" x="63.623047"/>
      </g>
     </g>
    </g>
    <g id="xtick_12">
     <g id="line2d_26">
      <g>
       <use xlink:href="#m7797108240" x="426.105372" y="785.785263" style="stroke: #000000; stroke-width: 0.8"/>
      </g>
     </g>
     <g id="text_29">
      <!-- 40 -->
      <g transform="translate(412.107872 809.501826) scale(0.22 -0.22)">
       <use xlink:href="#DejaVuSans-34"/>
       <use xlink:href="#DejaVuSans-30" x="63.623047"/>
      </g>
     </g>
    </g>
    <g id="text_30">
     <!-- k -->
     <g transform="translate(318.278523 836.313388) scale(0.24 -0.24)">
      <use xlink:href="#DejaVuSans-6b"/>
     </g>
    </g>
   </g>
   <g id="matplotlib.axis_6">
    <g id="ytick_11">
     <g id="line2d_27">
      <g>
       <use xlink:href="#m8badb459a5" x="135" y="703.190319" style="stroke: #000000; stroke-width: 0.8"/>
      </g>
     </g>
     <g id="text_31">
      <!-- 0.96 -->
      <g transform="translate(79.015625 711.5486) scale(0.22 -0.22)">
       <defs>
        <path id="DejaVuSans-39" d="M 703 97 
L 703 672 
Q 941 559 1184 500 
Q 1428 441 1663 441 
Q 2288 441 2617 861 
Q 2947 1281 2994 2138 
Q 2813 1869 2534 1725 
Q 2256 1581 1919 1581 
Q 1219 1581 811 2004 
Q 403 2428 403 3163 
Q 403 3881 828 4315 
Q 1253 4750 1959 4750 
Q 2769 4750 3195 4129 
Q 3622 3509 3622 2328 
Q 3622 1225 3098 567 
Q 2575 -91 1691 -91 
Q 1453 -91 1209 -44 
Q 966 3 703 97 
z
M 1959 2075 
Q 2384 2075 2632 2365 
Q 2881 2656 2881 3163 
Q 2881 3666 2632 3958 
Q 2384 4250 1959 4250 
Q 1534 4250 1286 3958 
Q 1038 3666 1038 3163 
Q 1038 2656 1286 2365 
Q 1534 2075 1959 2075 
z
" transform="scale(0.015625)"/>
       </defs>
       <use xlink:href="#DejaVuSans-30"/>
       <use xlink:href="#DejaVuSans-2e" x="63.623047"/>
       <use xlink:href="#DejaVuSans-39" x="95.410156"/>
       <use xlink:href="#DejaVuSans-36" x="159.033203"/>
      </g>
     </g>
    </g>
    <g id="ytick_12">
     <g id="line2d_28">
      <g>
       <use xlink:href="#m8badb459a5" x="135" y="617.403528" style="stroke: #000000; stroke-width: 0.8"/>
      </g>
     </g>
     <g id="text_32">
      <!-- 0.98 -->
      <g transform="translate(79.015625 625.761809) scale(0.22 -0.22)">
       <use xlink:href="#DejaVuSans-30"/>
       <use xlink:href="#DejaVuSans-2e" x="63.623047"/>
       <use xlink:href="#DejaVuSans-39" x="95.410156"/>
       <use xlink:href="#DejaVuSans-38" x="159.033203"/>
      </g>
     </g>
    </g>
    <g id="ytick_13">
     <g id="line2d_29">
      <g>
       <use xlink:href="#m8badb459a5" x="135" y="531.616737" style="stroke: #000000; stroke-width: 0.8"/>
      </g>
     </g>
     <g id="text_33">
      <!-- 1.00 -->
      <g transform="translate(79.015625 539.975019) scale(0.22 -0.22)">
       <use xlink:href="#DejaVuSans-31"/>
       <use xlink:href="#DejaVuSans-2e" x="63.623047"/>
       <use xlink:href="#DejaVuSans-30" x="95.410156"/>
       <use xlink:href="#DejaVuSans-30" x="159.033203"/>
      </g>
     </g>
    </g>
    <g id="text_34">
     <!-- Metric Value -->
     <g transform="translate(70.024375 728.555625) rotate(-90) scale(0.24 -0.24)">
      <use xlink:href="#DejaVuSans-4d"/>
      <use xlink:href="#DejaVuSans-65" x="86.279297"/>
      <use xlink:href="#DejaVuSans-74" x="147.802734"/>
      <use xlink:href="#DejaVuSans-72" x="187.011719"/>
      <use xlink:href="#DejaVuSans-69" x="228.125"/>
      <use xlink:href="#DejaVuSans-63" x="255.908203"/>
      <use xlink:href="#DejaVuSans-20" x="310.888672"/>
      <use xlink:href="#DejaVuSans-56" x="342.675781"/>
      <use xlink:href="#DejaVuSans-61" x="403.333984"/>
      <use xlink:href="#DejaVuSans-6c" x="464.613281"/>
      <use xlink:href="#DejaVuSans-75" x="492.396484"/>
      <use xlink:href="#DejaVuSans-65" x="555.775391"/>
     </g>
    </g>
   </g>
   <g id="line2d_30">
    <path d="M 152.293388 740.644173 
L 173.910124 747.840865 
L 209.938017 758.408343 
L 281.993802 768.278392 
L 498.161157 773.848421 
" clip-path="url(#p7454ec5449)" style="fill: none; stroke: #1f77b4; stroke-width: 1.5; stroke-linecap: square"/>
    <g clip-path="url(#p7454ec5449)">
     <use xlink:href="#m9156a47b4c" x="152.293388" y="740.644173" style="fill: #1f77b4; stroke: #1f77b4"/>
     <use xlink:href="#m9156a47b4c" x="173.910124" y="747.840865" style="fill: #1f77b4; stroke: #1f77b4"/>
     <use xlink:href="#m9156a47b4c" x="209.938017" y="758.408343" style="fill: #1f77b4; stroke: #1f77b4"/>
     <use xlink:href="#m9156a47b4c" x="281.993802" y="768.278392" style="fill: #1f77b4; stroke: #1f77b4"/>
     <use xlink:href="#m9156a47b4c" x="498.161157" y="773.848421" style="fill: #1f77b4; stroke: #1f77b4"/>
    </g>
   </g>
   <g id="line2d_31">
    <path d="M 152.293388 535.111579 
L 173.910124 538.160323 
L 209.938017 544.228991 
L 281.993802 558.403298 
L 498.161157 609.877966 
" clip-path="url(#p7454ec5449)" style="fill: none; stroke: #ff7f0e; stroke-width: 1.5; stroke-linecap: square"/>
    <g clip-path="url(#p7454ec5449)">
     <use xlink:href="#m2a009b0e31" x="152.293388" y="535.111579" style="fill: #ff7f0e; stroke: #ff7f0e"/>
     <use xlink:href="#m2a009b0e31" x="173.910124" y="538.160323" style="fill: #ff7f0e; stroke: #ff7f0e"/>
     <use xlink:href="#m2a009b0e31" x="209.938017" y="544.228991" style="fill: #ff7f0e; stroke: #ff7f0e"/>
     <use xlink:href="#m2a009b0e31" x="281.993802" y="558.403298" style="fill: #ff7f0e; stroke: #ff7f0e"/>
     <use xlink:href="#m2a009b0e31" x="498.161157" y="609.877966" style="fill: #ff7f0e; stroke: #ff7f0e"/>
    </g>
   </g>
   <g id="line2d_32">
    <path d="M 152.293388 551.403449 
L 173.910124 552.614734 
L 209.938017 558.153046 
L 281.993802 572.66592 
L 498.161157 619.96391 
" clip-path="url(#p7454ec5449)" style="fill: none; stroke: #2ca02c; stroke-width: 1.5; stroke-linecap: square"/>
    <g clip-path="url(#p7454ec5449)">
     <use xlink:href="#m9ac571feb4" x="152.293388" y="551.403449" style="fill: #2ca02c; stroke: #2ca02c"/>
     <use xlink:href="#m9ac571feb4" x="173.910124" y="552.614734" style="fill: #2ca02c; stroke: #2ca02c"/>
     <use xlink:href="#m9ac571feb4" x="209.938017" y="558.153046" style="fill: #2ca02c; stroke: #2ca02c"/>
     <use xlink:href="#m9ac571feb4" x="281.993802" y="572.66592" style="fill: #2ca02c; stroke: #2ca02c"/>
     <use xlink:href="#m9ac571feb4" x="498.161157" y="619.96391" style="fill: #2ca02c; stroke: #2ca02c"/>
    </g>
   </g>
   <g id="line2d_33">
    <path d="M 152.293388 573.18236 
L 173.910124 575.492717 
L 209.938017 581.365585 
L 281.993802 596.203523 
L 498.161157 652.775967 
" clip-path="url(#p7454ec5449)" style="fill: none; stroke: #d62728; stroke-width: 1.5; stroke-linecap: square"/>
    <g clip-path="url(#p7454ec5449)">
     <use xlink:href="#m6eaadeb3a5" x="152.293388" y="573.18236" style="fill: #d62728; stroke: #d62728"/>
     <use xlink:href="#m6eaadeb3a5" x="173.910124" y="575.492717" style="fill: #d62728; stroke: #d62728"/>
     <use xlink:href="#m6eaadeb3a5" x="209.938017" y="581.365585" style="fill: #d62728; stroke: #d62728"/>
     <use xlink:href="#m6eaadeb3a5" x="281.993802" y="596.203523" style="fill: #d62728; stroke: #d62728"/>
     <use xlink:href="#m6eaadeb3a5" x="498.161157" y="652.775967" style="fill: #d62728; stroke: #d62728"/>
    </g>
   </g>
   <g id="patch_25">
    <path d="M 135 785.785263 
L 135 523.174737 
" style="fill: none; stroke: #000000; stroke-width: 0.8; stroke-linejoin: miter; stroke-linecap: square"/>
   </g>
   <g id="patch_26">
    <path d="M 515.454545 785.785263 
L 515.454545 523.174737 
" style="fill: none; stroke: #000000; stroke-width: 0.8; stroke-linejoin: miter; stroke-linecap: square"/>
   </g>
   <g id="patch_27">
    <path d="M 135 785.785263 
L 515.454545 785.785263 
" style="fill: none; stroke: #000000; stroke-width: 0.8; stroke-linejoin: miter; stroke-linecap: square"/>
   </g>
   <g id="patch_28">
    <path d="M 135 523.174737 
L 515.454545 523.174737 
" style="fill: none; stroke: #000000; stroke-width: 0.8; stroke-linejoin: miter; stroke-linecap: square"/>
   </g>
   <g id="text_35">
    <!-- c -->
    <g transform="translate(91.769432 505.058783) scale(0.28 -0.28)">
     <defs>
      <path id="DejaVuSans-Bold-63" d="M 3366 3391 
L 3366 2478 
Q 3138 2634 2908 2709 
Q 2678 2784 2431 2784 
Q 1963 2784 1702 2511 
Q 1441 2238 1441 1747 
Q 1441 1256 1702 982 
Q 1963 709 2431 709 
Q 2694 709 2930 787 
Q 3166 866 3366 1019 
L 3366 103 
Q 3103 6 2833 -42 
Q 2563 -91 2291 -91 
Q 1344 -91 809 395 
Q 275 881 275 1747 
Q 275 2613 809 3098 
Q 1344 3584 2291 3584 
Q 2566 3584 2833 3536 
Q 3100 3488 3366 3391 
z
" transform="scale(0.015625)"/>
     </defs>
     <use xlink:href="#DejaVuSans-Bold-63"/>
    </g>
   </g>
   <g id="text_36">
    <!-- Trustworthiness -->
    <g transform="translate(230.950398 517.174737) scale(0.24 -0.24)">
     <defs>
      <path id="DejaVuSans-54" d="M -19 4666 
L 3928 4666 
L 3928 4134 
L 2272 4134 
L 2272 0 
L 1638 0 
L 1638 4134 
L -19 4134 
L -19 4666 
z
" transform="scale(0.015625)"/>
      <path id="DejaVuSans-77" d="M 269 3500 
L 844 3500 
L 1563 769 
L 2278 3500 
L 2956 3500 
L 3675 769 
L 4391 3500 
L 4966 3500 
L 4050 0 
L 3372 0 
L 2619 2869 
L 1863 0 
L 1184 0 
L 269 3500 
z
" transform="scale(0.015625)"/>
      <path id="DejaVuSans-6f" d="M 1959 3097 
Q 1497 3097 1228 2736 
Q 959 2375 959 1747 
Q 959 1119 1226 758 
Q 1494 397 1959 397 
Q 2419 397 2687 759 
Q 2956 1122 2956 1747 
Q 2956 2369 2687 2733 
Q 2419 3097 1959 3097 
z
M 1959 3584 
Q 2709 3584 3137 3096 
Q 3566 2609 3566 1747 
Q 3566 888 3137 398 
Q 2709 -91 1959 -91 
Q 1206 -91 779 398 
Q 353 888 353 1747 
Q 353 2609 779 3096 
Q 1206 3584 1959 3584 
z
" transform="scale(0.015625)"/>
      <path id="DejaVuSans-68" d="M 3513 2113 
L 3513 0 
L 2938 0 
L 2938 2094 
Q 2938 2591 2744 2837 
Q 2550 3084 2163 3084 
Q 1697 3084 1428 2787 
Q 1159 2491 1159 1978 
L 1159 0 
L 581 0 
L 581 4863 
L 1159 4863 
L 1159 2956 
Q 1366 3272 1645 3428 
Q 1925 3584 2291 3584 
Q 2894 3584 3203 3211 
Q 3513 2838 3513 2113 
z
" transform="scale(0.015625)"/>
      <path id="DejaVuSans-6e" d="M 3513 2113 
L 3513 0 
L 2938 0 
L 2938 2094 
Q 2938 2591 2744 2837 
Q 2550 3084 2163 3084 
Q 1697 3084 1428 2787 
Q 1159 2491 1159 1978 
L 1159 0 
L 581 0 
L 581 3500 
L 1159 3500 
L 1159 2956 
Q 1366 3272 1645 3428 
Q 1925 3584 2291 3584 
Q 2894 3584 3203 3211 
Q 3513 2838 3513 2113 
z
" transform="scale(0.015625)"/>
     </defs>
     <use xlink:href="#DejaVuSans-54"/>
     <use xlink:href="#DejaVuSans-72" x="46.333984"/>
     <use xlink:href="#DejaVuSans-75" x="87.447266"/>
     <use xlink:href="#DejaVuSans-73" x="150.826172"/>
     <use xlink:href="#DejaVuSans-74" x="202.925781"/>
     <use xlink:href="#DejaVuSans-77" x="242.134766"/>
     <use xlink:href="#DejaVuSans-6f" x="323.921875"/>
     <use xlink:href="#DejaVuSans-72" x="385.103516"/>
     <use xlink:href="#DejaVuSans-74" x="426.216797"/>
     <use xlink:href="#DejaVuSans-68" x="465.425781"/>
     <use xlink:href="#DejaVuSans-69" x="528.804688"/>
     <use xlink:href="#DejaVuSans-6e" x="556.587891"/>
     <use xlink:href="#DejaVuSans-65" x="619.966797"/>
     <use xlink:href="#DejaVuSans-73" x="681.490234"/>
     <use xlink:href="#DejaVuSans-73" x="733.589844"/>
    </g>
   </g>
  </g>
  <g id="axes_4">
   <g id="patch_29">
    <path d="M 591.545455 785.785263 
L 972 785.785263 
L 972 523.174737 
L 591.545455 523.174737 
z
" style="fill: #ffffff"/>
   </g>
   <g id="matplotlib.axis_7">
    <g id="xtick_13">
     <g id="line2d_34">
      <g>
       <use xlink:href="#m7797108240" x="594.427686" y="785.785263" style="stroke: #000000; stroke-width: 0.8"/>
      </g>
     </g>
     <g id="text_37">
      <!-- 0 -->
      <g transform="translate(587.428936 809.501826) scale(0.22 -0.22)">
       <use xlink:href="#DejaVuSans-30"/>
      </g>
     </g>
    </g>
    <g id="xtick_14">
     <g id="line2d_35">
      <g>
       <use xlink:href="#m7797108240" x="738.539256" y="785.785263" style="stroke: #000000; stroke-width: 0.8"/>
      </g>
     </g>
     <g id="text_38">
      <!-- 20 -->
      <g transform="translate(724.541756 809.501826) scale(0.22 -0.22)">
       <use xlink:href="#DejaVuSans-32"/>
       <use xlink:href="#DejaVuSans-30" x="63.623047"/>
      </g>
     </g>
    </g>
    <g id="xtick_15">
     <g id="line2d_36">
      <g>
       <use xlink:href="#m7797108240" x="882.650826" y="785.785263" style="stroke: #000000; stroke-width: 0.8"/>
      </g>
     </g>
     <g id="text_39">
      <!-- 40 -->
      <g transform="translate(868.653326 809.501826) scale(0.22 -0.22)">
       <use xlink:href="#DejaVuSans-34"/>
       <use xlink:href="#DejaVuSans-30" x="63.623047"/>
      </g>
     </g>
    </g>
    <g id="text_40">
     <!-- k -->
     <g transform="translate(774.823977 836.313388) scale(0.24 -0.24)">
      <use xlink:href="#DejaVuSans-6b"/>
     </g>
    </g>
   </g>
   <g id="matplotlib.axis_8">
    <g id="ytick_14">
     <g id="line2d_37">
      <g>
       <use xlink:href="#m8badb459a5" x="591.545455" y="722.129705" style="stroke: #000000; stroke-width: 0.8"/>
      </g>
     </g>
     <g id="text_41">
      <!-- 0.90 -->
      <g transform="translate(535.56108 730.487986) scale(0.22 -0.22)">
       <use xlink:href="#DejaVuSans-30"/>
       <use xlink:href="#DejaVuSans-2e" x="63.623047"/>
       <use xlink:href="#DejaVuSans-39" x="95.410156"/>
       <use xlink:href="#DejaVuSans-30" x="159.033203"/>
      </g>
     </g>
    </g>
    <g id="ytick_15">
     <g id="line2d_38">
      <g>
       <use xlink:href="#m8badb459a5" x="591.545455" y="625.746038" style="stroke: #000000; stroke-width: 0.8"/>
      </g>
     </g>
     <g id="text_42">
      <!-- 0.95 -->
      <g transform="translate(535.56108 634.104319) scale(0.22 -0.22)">
       <use xlink:href="#DejaVuSans-30"/>
       <use xlink:href="#DejaVuSans-2e" x="63.623047"/>
       <use xlink:href="#DejaVuSans-39" x="95.410156"/>
       <use xlink:href="#DejaVuSans-35" x="159.033203"/>
      </g>
     </g>
    </g>
    <g id="ytick_16">
     <g id="line2d_39">
      <g>
       <use xlink:href="#m8badb459a5" x="591.545455" y="529.362371" style="stroke: #000000; stroke-width: 0.8"/>
      </g>
     </g>
     <g id="text_43">
      <!-- 1.00 -->
      <g transform="translate(535.56108 537.720652) scale(0.22 -0.22)">
       <use xlink:href="#DejaVuSans-31"/>
       <use xlink:href="#DejaVuSans-2e" x="63.623047"/>
       <use xlink:href="#DejaVuSans-30" x="95.410156"/>
       <use xlink:href="#DejaVuSans-30" x="159.033203"/>
      </g>
     </g>
    </g>
   </g>
   <g id="line2d_40">
    <path d="M 608.838843 541.68958 
L 630.455579 547.910267 
L 666.483471 555.455069 
L 738.539256 564.363421 
L 954.706612 575.519987 
" clip-path="url(#p29b9f18720)" style="fill: none; stroke: #1f77b4; stroke-width: 1.5; stroke-linecap: square"/>
    <g clip-path="url(#p29b9f18720)">
     <use xlink:href="#m9156a47b4c" x="608.838843" y="541.68958" style="fill: #1f77b4; stroke: #1f77b4"/>
     <use xlink:href="#m9156a47b4c" x="630.455579" y="547.910267" style="fill: #1f77b4; stroke: #1f77b4"/>
     <use xlink:href="#m9156a47b4c" x="666.483471" y="555.455069" style="fill: #1f77b4; stroke: #1f77b4"/>
     <use xlink:href="#m9156a47b4c" x="738.539256" y="564.363421" style="fill: #1f77b4; stroke: #1f77b4"/>
     <use xlink:href="#m9156a47b4c" x="954.706612" y="575.519987" style="fill: #1f77b4; stroke: #1f77b4"/>
    </g>
   </g>
   <g id="line2d_41">
    <path d="M 608.838843 536.658205 
L 630.455579 542.626594 
L 666.483471 550.675717 
L 738.539256 565.047604 
L 954.706612 590.314325 
" clip-path="url(#p29b9f18720)" style="fill: none; stroke: #ff7f0e; stroke-width: 1.5; stroke-linecap: square"/>
    <g clip-path="url(#p29b9f18720)">
     <use xlink:href="#m2a009b0e31" x="608.838843" y="536.658205" style="fill: #ff7f0e; stroke: #ff7f0e"/>
     <use xlink:href="#m2a009b0e31" x="630.455579" y="542.626594" style="fill: #ff7f0e; stroke: #ff7f0e"/>
     <use xlink:href="#m2a009b0e31" x="666.483471" y="550.675717" style="fill: #ff7f0e; stroke: #ff7f0e"/>
     <use xlink:href="#m2a009b0e31" x="738.539256" y="565.047604" style="fill: #ff7f0e; stroke: #ff7f0e"/>
     <use xlink:href="#m2a009b0e31" x="954.706612" y="590.314325" style="fill: #ff7f0e; stroke: #ff7f0e"/>
    </g>
   </g>
   <g id="line2d_42">
    <path d="M 608.838843 535.111579 
L 630.455579 539.202563 
L 666.483471 546.423452 
L 738.539256 563.203948 
L 954.706612 596.230214 
" clip-path="url(#p29b9f18720)" style="fill: none; stroke: #2ca02c; stroke-width: 1.5; stroke-linecap: square"/>
    <g clip-path="url(#p29b9f18720)">
     <use xlink:href="#m9ac571feb4" x="608.838843" y="535.111579" style="fill: #2ca02c; stroke: #2ca02c"/>
     <use xlink:href="#m9ac571feb4" x="630.455579" y="539.202563" style="fill: #2ca02c; stroke: #2ca02c"/>
     <use xlink:href="#m9ac571feb4" x="666.483471" y="546.423452" style="fill: #2ca02c; stroke: #2ca02c"/>
     <use xlink:href="#m9ac571feb4" x="738.539256" y="563.203948" style="fill: #2ca02c; stroke: #2ca02c"/>
     <use xlink:href="#m9ac571feb4" x="954.706612" y="596.230214" style="fill: #2ca02c; stroke: #2ca02c"/>
    </g>
   </g>
   <g id="line2d_43">
    <path d="M 608.838843 577.727365 
L 630.455579 596.423537 
L 666.483471 624.074365 
L 738.539256 678.290459 
L 954.706612 773.848421 
" clip-path="url(#p29b9f18720)" style="fill: none; stroke: #d62728; stroke-width: 1.5; stroke-linecap: square"/>
    <g clip-path="url(#p29b9f18720)">
     <use xlink:href="#m6eaadeb3a5" x="608.838843" y="577.727365" style="fill: #d62728; stroke: #d62728"/>
     <use xlink:href="#m6eaadeb3a5" x="630.455579" y="596.423537" style="fill: #d62728; stroke: #d62728"/>
     <use xlink:href="#m6eaadeb3a5" x="666.483471" y="624.074365" style="fill: #d62728; stroke: #d62728"/>
     <use xlink:href="#m6eaadeb3a5" x="738.539256" y="678.290459" style="fill: #d62728; stroke: #d62728"/>
     <use xlink:href="#m6eaadeb3a5" x="954.706612" y="773.848421" style="fill: #d62728; stroke: #d62728"/>
    </g>
   </g>
   <g id="patch_30">
    <path d="M 591.545455 785.785263 
L 591.545455 523.174737 
" style="fill: none; stroke: #000000; stroke-width: 0.8; stroke-linejoin: miter; stroke-linecap: square"/>
   </g>
   <g id="patch_31">
    <path d="M 972 785.785263 
L 972 523.174737 
" style="fill: none; stroke: #000000; stroke-width: 0.8; stroke-linejoin: miter; stroke-linecap: square"/>
   </g>
   <g id="patch_32">
    <path d="M 591.545455 785.785263 
L 972 785.785263 
" style="fill: none; stroke: #000000; stroke-width: 0.8; stroke-linejoin: miter; stroke-linecap: square"/>
   </g>
   <g id="patch_33">
    <path d="M 591.545455 523.174737 
L 972 523.174737 
" style="fill: none; stroke: #000000; stroke-width: 0.8; stroke-linejoin: miter; stroke-linecap: square"/>
   </g>
   <g id="text_44">
    <!-- d -->
    <g transform="translate(544.871761 505.058783) scale(0.28 -0.28)">
     <defs>
      <path id="DejaVuSans-Bold-64" d="M 2919 2988 
L 2919 4863 
L 4044 4863 
L 4044 0 
L 2919 0 
L 2919 506 
Q 2688 197 2409 53 
Q 2131 -91 1766 -91 
Q 1119 -91 703 423 
Q 288 938 288 1747 
Q 288 2556 703 3070 
Q 1119 3584 1766 3584 
Q 2128 3584 2408 3439 
Q 2688 3294 2919 2988 
z
M 2181 722 
Q 2541 722 2730 984 
Q 2919 1247 2919 1747 
Q 2919 2247 2730 2509 
Q 2541 2772 2181 2772 
Q 1825 2772 1636 2509 
Q 1447 2247 1447 1747 
Q 1447 1247 1636 984 
Q 1825 722 2181 722 
z
" transform="scale(0.015625)"/>
     </defs>
     <use xlink:href="#DejaVuSans-Bold-64"/>
    </g>
   </g>
   <g id="text_45">
    <!-- Continuity -->
    <g transform="translate(720.057102 517.174737) scale(0.24 -0.24)">
     <defs>
      <path id="DejaVuSans-79" d="M 2059 -325 
Q 1816 -950 1584 -1140 
Q 1353 -1331 966 -1331 
L 506 -1331 
L 506 -850 
L 844 -850 
Q 1081 -850 1212 -737 
Q 1344 -625 1503 -206 
L 1606 56 
L 191 3500 
L 800 3500 
L 1894 763 
L 2988 3500 
L 3597 3500 
L 2059 -325 
z
" transform="scale(0.015625)"/>
     </defs>
     <use xlink:href="#DejaVuSans-43"/>
     <use xlink:href="#DejaVuSans-6f" x="69.824219"/>
     <use xlink:href="#DejaVuSans-6e" x="131.005859"/>
     <use xlink:href="#DejaVuSans-74" x="194.384766"/>
     <use xlink:href="#DejaVuSans-69" x="233.59375"/>
     <use xlink:href="#DejaVuSans-6e" x="261.376953"/>
     <use xlink:href="#DejaVuSans-75" x="324.755859"/>
     <use xlink:href="#DejaVuSans-69" x="388.134766"/>
     <use xlink:href="#DejaVuSans-74" x="415.917969"/>
     <use xlink:href="#DejaVuSans-79" x="455.126953"/>
    </g>
   </g>
  </g>
  <g id="axes_5">
   <g id="patch_34">
    <path d="M 135 1153.44 
L 515.454545 1153.44 
L 515.454545 890.829474 
L 135 890.829474 
z
" style="fill: #ffffff"/>
   </g>
   <g id="matplotlib.axis_9">
    <g id="xtick_16">
     <g id="line2d_44">
      <g>
       <use xlink:href="#m7797108240" x="152.109416" y="1153.44" style="stroke: #000000; stroke-width: 0.8"/>
      </g>
     </g>
     <g id="text_46">
      <!-- 0 -->
      <g transform="translate(145.110666 1177.156562) scale(0.22 -0.22)">
       <use xlink:href="#DejaVuSans-30"/>
      </g>
     </g>
    </g>
    <g id="xtick_17">
     <g id="line2d_45">
      <g>
       <use xlink:href="#m7797108240" x="244.095525" y="1153.44" style="stroke: #000000; stroke-width: 0.8"/>
      </g>
     </g>
     <g id="text_47">
      <!-- 500 -->
      <g transform="translate(223.099275 1177.156562) scale(0.22 -0.22)">
       <use xlink:href="#DejaVuSans-35"/>
       <use xlink:href="#DejaVuSans-30" x="63.623047"/>
       <use xlink:href="#DejaVuSans-30" x="127.246094"/>
      </g>
     </g>
    </g>
    <g id="xtick_18">
     <g id="line2d_46">
      <g>
       <use xlink:href="#m7797108240" x="336.081634" y="1153.44" style="stroke: #000000; stroke-width: 0.8"/>
      </g>
     </g>
     <g id="text_48">
      <!-- 1000 -->
      <g transform="translate(308.086634 1177.156562) scale(0.22 -0.22)">
       <use xlink:href="#DejaVuSans-31"/>
       <use xlink:href="#DejaVuSans-30" x="63.623047"/>
       <use xlink:href="#DejaVuSans-30" x="127.246094"/>
       <use xlink:href="#DejaVuSans-30" x="190.869141"/>
      </g>
     </g>
    </g>
    <g id="xtick_19">
     <g id="line2d_47">
      <g>
       <use xlink:href="#m7797108240" x="428.067742" y="1153.44" style="stroke: #000000; stroke-width: 0.8"/>
      </g>
     </g>
     <g id="text_49">
      <!-- 1500 -->
      <g transform="translate(400.072742 1177.156562) scale(0.22 -0.22)">
       <use xlink:href="#DejaVuSans-31"/>
       <use xlink:href="#DejaVuSans-35" x="63.623047"/>
       <use xlink:href="#DejaVuSans-30" x="127.246094"/>
       <use xlink:href="#DejaVuSans-30" x="190.869141"/>
      </g>
     </g>
    </g>
    <g id="text_50">
     <!-- k -->
     <g transform="translate(318.278523 1203.968125) scale(0.24 -0.24)">
      <use xlink:href="#DejaVuSans-6b"/>
     </g>
    </g>
   </g>
   <g id="matplotlib.axis_10">
    <g id="ytick_17">
     <g id="line2d_48">
      <g>
       <use xlink:href="#m8badb459a5" x="135" y="1152.726114" style="stroke: #000000; stroke-width: 0.8"/>
      </g>
     </g>
     <g id="text_51">
      <!-- 0.2 -->
      <g transform="translate(93.013125 1161.084395) scale(0.22 -0.22)">
       <use xlink:href="#DejaVuSans-30"/>
       <use xlink:href="#DejaVuSans-2e" x="63.623047"/>
       <use xlink:href="#DejaVuSans-32" x="95.410156"/>
      </g>
     </g>
    </g>
    <g id="ytick_18">
     <g id="line2d_49">
      <g>
       <use xlink:href="#m8badb459a5" x="135" y="1090.236164" style="stroke: #000000; stroke-width: 0.8"/>
      </g>
     </g>
     <g id="text_52">
      <!-- 0.4 -->
      <g transform="translate(93.013125 1098.594446) scale(0.22 -0.22)">
       <use xlink:href="#DejaVuSans-30"/>
       <use xlink:href="#DejaVuSans-2e" x="63.623047"/>
       <use xlink:href="#DejaVuSans-34" x="95.410156"/>
      </g>
     </g>
    </g>
    <g id="ytick_19">
     <g id="line2d_50">
      <g>
       <use xlink:href="#m8badb459a5" x="135" y="1027.746215" style="stroke: #000000; stroke-width: 0.8"/>
      </g>
     </g>
     <g id="text_53">
      <!-- 0.6 -->
      <g transform="translate(93.013125 1036.104496) scale(0.22 -0.22)">
       <use xlink:href="#DejaVuSans-30"/>
       <use xlink:href="#DejaVuSans-2e" x="63.623047"/>
       <use xlink:href="#DejaVuSans-36" x="95.410156"/>
      </g>
     </g>
    </g>
    <g id="ytick_20">
     <g id="line2d_51">
      <g>
       <use xlink:href="#m8badb459a5" x="135" y="965.256265" style="stroke: #000000; stroke-width: 0.8"/>
      </g>
     </g>
     <g id="text_54">
      <!-- 0.8 -->
      <g transform="translate(93.013125 973.614547) scale(0.22 -0.22)">
       <use xlink:href="#DejaVuSans-30"/>
       <use xlink:href="#DejaVuSans-2e" x="63.623047"/>
       <use xlink:href="#DejaVuSans-38" x="95.410156"/>
      </g>
     </g>
    </g>
    <g id="ytick_21">
     <g id="line2d_52">
      <g>
       <use xlink:href="#m8badb459a5" x="135" y="902.766316" style="stroke: #000000; stroke-width: 0.8"/>
      </g>
     </g>
     <g id="text_55">
      <!-- 1.0 -->
      <g transform="translate(93.013125 911.124597) scale(0.22 -0.22)">
       <use xlink:href="#DejaVuSans-31"/>
       <use xlink:href="#DejaVuSans-2e" x="63.623047"/>
       <use xlink:href="#DejaVuSans-30" x="95.410156"/>
      </g>
     </g>
    </g>
    <g id="text_56">
     <!-- Metric Value -->
     <g transform="translate(84.021875 1096.210362) rotate(-90) scale(0.24 -0.24)">
      <use xlink:href="#DejaVuSans-4d"/>
      <use xlink:href="#DejaVuSans-65" x="86.279297"/>
      <use xlink:href="#DejaVuSans-74" x="147.802734"/>
      <use xlink:href="#DejaVuSans-72" x="187.011719"/>
      <use xlink:href="#DejaVuSans-69" x="228.125"/>
      <use xlink:href="#DejaVuSans-63" x="255.908203"/>
      <use xlink:href="#DejaVuSans-20" x="310.888672"/>
      <use xlink:href="#DejaVuSans-56" x="342.675781"/>
      <use xlink:href="#DejaVuSans-61" x="403.333984"/>
      <use xlink:href="#DejaVuSans-6c" x="464.613281"/>
      <use xlink:href="#DejaVuSans-75" x="492.396484"/>
      <use xlink:href="#DejaVuSans-65" x="555.775391"/>
     </g>
    </g>
   </g>
   <g id="line2d_53">
    <path d="M 152.293388 1141.503158 
L 152.661333 1121.857451 
L 153.029277 1114.740725 
L 153.397222 1110.481124 
L 153.581194 1109.627307 
L 153.949138 1106.771762 
L 154.133111 1104.390129 
L 154.317083 1103.622915 
L 155.052972 1098.254933 
L 157.260638 1085.999095 
L 159.10036 1078.533498 
L 159.652277 1076.848469 
L 160.204194 1074.849878 
L 160.75611 1072.880357 
L 162.043916 1068.340578 
L 162.595833 1066.756268 
L 163.331721 1064.622263 
L 164.435555 1061.330338 
L 164.987471 1060.155702 
L 166.275277 1057.154188 
L 176.025804 1034.426606 
L 179.889221 1025.99168 
L 182.28086 1021.264144 
L 189.271804 1009.249279 
L 190.375637 1007.494641 
L 192.031387 1004.755421 
L 193.687137 1002.091121 
L 197.734526 996.335354 
L 198.654387 995.199459 
L 199.758221 993.794664 
L 202.701776 990.456903 
L 203.621637 989.470884 
L 208.220943 984.968562 
L 212.636276 981.179254 
L 216.131748 978.440929 
L 218.155442 976.818198 
L 219.62722 975.742309 
L 221.650914 974.369273 
L 223.122692 973.385055 
L 224.962414 972.01303 
L 227.170081 970.363335 
L 228.457886 969.43397 
L 239.128275 962.331013 
L 240.416081 961.539491 
L 245.38333 958.293967 
L 246.671136 957.503516 
L 258.997274 949.602831 
L 265.804247 945.486393 
L 269.483691 943.357699 
L 271.139441 942.414574 
L 274.450941 940.561468 
L 284.38544 935.743348 
L 288.064885 934.184769 
L 294.687885 931.672014 
L 298.551301 930.280177 
L 300.94294 929.338349 
L 304.070468 928.175022 
L 308.485801 926.570076 
L 310.87744 925.82502 
L 318.972217 923.868984 
L 330.930411 921.560914 
L 339.025189 920.42915 
L 345.280244 919.858318 
L 350.247494 919.533879 
L 354.662828 919.306196 
L 361.653772 918.81152 
L 375.451688 917.757216 
L 379.131132 917.204141 
L 391.457271 915.01441 
L 394.584799 914.591529 
L 397.896299 914.146891 
L 402.679576 913.566152 
L 416.109548 911.818863 
L 424.57227 910.796709 
L 427.515826 910.409005 
L 430.091437 909.994176 
L 449.224547 907.388561 
L 452.536047 907.202701 
L 463.758352 906.759422 
L 465.966019 906.514126 
L 476.82038 905.497322 
L 478.844074 905.291017 
L 484.363241 904.458231 
L 486.018991 904.307787 
L 487.858713 904.152151 
L 490.250352 903.844091 
L 492.641991 903.640276 
L 495.033629 903.171836 
L 497.057324 902.891606 
L 498.161157 902.766316 
L 498.161157 902.766316 
" clip-path="url(#p6e20fffda2)" style="fill: none; stroke: #1f77b4; stroke-width: 1.5; stroke-linecap: square"/>
   </g>
   <g id="line2d_54">
    <path d="M 152.293388 1018.316276 
L 152.477361 993.745307 
L 152.845305 982.082398 
L 153.21325 980.020982 
L 153.397222 980.036794 
L 153.581194 980.712733 
L 153.765166 980.242342 
L 154.133111 981.746585 
L 154.868999 986.683921 
L 155.052972 987.14601 
L 155.236944 988.657281 
L 155.604888 989.752088 
L 156.156805 992.998217 
L 156.340777 993.673124 
L 156.892694 996.84222 
L 157.628583 999.921253 
L 158.732416 1004.997778 
L 160.388166 1008.598568 
L 161.308027 1010.911781 
L 162.227888 1012.623297 
L 162.41186 1012.991775 
L 162.595833 1013.105576 
L 163.331721 1014.786308 
L 164.435555 1016.113412 
L 166.275277 1017.307219 
L 166.643221 1017.524003 
L 167.011166 1017.619401 
L 167.563082 1017.515822 
L 167.931027 1017.524785 
L 168.298971 1017.495608 
L 169.586777 1017.293941 
L 169.954721 1017.073692 
L 170.138694 1017.060961 
L 170.506638 1016.795532 
L 171.242527 1016.523578 
L 171.610471 1016.239459 
L 171.978416 1016.036574 
L 172.34636 1015.98143 
L 173.450193 1015.297859 
L 174.370055 1015.012339 
L 174.737999 1014.945933 
L 176.025804 1014.465887 
L 176.577721 1014.244415 
L 178.233471 1013.252664 
L 179.337304 1012.194847 
L 179.889221 1011.862383 
L 181.360999 1010.864168 
L 182.096888 1010.279071 
L 183.200721 1009.437641 
L 183.752638 1009.041353 
L 184.304554 1008.743085 
L 186.512221 1007.426425 
L 188.351943 1006.406654 
L 188.90386 1006.054034 
L 189.823721 1005.48252 
L 191.111526 1004.518599 
L 191.847415 1003.96707 
L 193.319193 1002.7808 
L 194.606998 1001.90257 
L 195.342887 1001.403424 
L 196.446721 1000.653395 
L 198.286443 999.328476 
L 199.574248 998.355259 
L 202.333832 996.42717 
L 204.357526 995.459873 
L 205.461359 994.952674 
L 206.749165 994.409387 
L 207.669026 994.047112 
L 211.164498 992.880555 
L 212.452303 992.595314 
L 214.108053 992.293494 
L 218.523387 991.227413 
L 222.018859 990.22175 
L 224.226525 989.761673 
L 227.90597 988.937979 
L 229.56172 988.499704 
L 240.416081 985.222598 
L 243.359636 984.0492 
L 244.463469 983.546979 
L 248.142914 982.071425 
L 251.454414 980.571616 
L 252.926191 979.782051 
L 257.709469 977.138674 
L 261.388913 975.272082 
L 263.412608 974.207079 
L 275.738746 968.101632 
L 280.522024 966.065625 
L 282.913663 965.097857 
L 286.777079 963.622873 
L 292.66419 961.32837 
L 305.91019 954.808242 
L 309.773606 952.910185 
L 323.387551 946.623073 
L 325.043301 945.911043 
L 326.69905 945.284945 
L 332.954106 943.856702 
L 334.9778 943.292413 
L 342.152717 940.879571 
L 345.648189 940.20447 
L 348.039828 939.96915 
L 356.870494 939.01373 
L 359.262133 938.625763 
L 394.400826 932.892338 
L 407.646826 929.699813 
L 435.242659 921.633271 
L 438.002242 920.832161 
L 442.049631 919.615455 
L 444.44127 919.009743 
L 450.144408 917.640381 
L 464.126297 914.712712 
L 465.782047 914.210405 
L 467.253825 913.711331 
L 468.357658 913.381652 
L 472.405047 912.045798 
L 480.683796 909.375885 
L 483.075435 908.50965 
L 484.731185 907.984378 
L 486.570907 906.991426 
L 487.674741 906.418575 
L 490.434324 905.521581 
L 492.641991 904.838652 
L 494.113768 904.237991 
L 494.665685 904.086273 
L 496.505407 903.358915 
L 497.057324 903.256318 
L 497.60924 903.030993 
L 498.161157 902.766316 
L 498.161157 902.766316 
" clip-path="url(#p6e20fffda2)" style="fill: none; stroke: #ff7f0e; stroke-width: 1.5; stroke-linecap: square"/>
   </g>
   <g id="line2d_55">
    <path d="M 152.293388 1114.607909 
L 152.661333 1054.619328 
L 153.029277 1029.439619 
L 153.397222 1015.565086 
L 154.133111 1002.816039 
L 154.501055 1000.909711 
L 154.685027 1000.824877 
L 154.868999 1001.028054 
L 155.052972 1001.558626 
L 155.420916 1004.555057 
L 155.788861 1005.69045 
L 156.340777 1008.174616 
L 156.524749 1008.69403 
L 156.708722 1008.740239 
L 157.812555 1012.419886 
L 158.180499 1013.733116 
L 159.10036 1015.751703 
L 159.468305 1015.983694 
L 159.652277 1015.979847 
L 160.75611 1017.715777 
L 160.940083 1017.762875 
L 161.675972 1019.047402 
L 163.147749 1020.917256 
L 163.699666 1021.23612 
L 164.619527 1022.186008 
L 164.803499 1022.243011 
L 164.987471 1022.175056 
L 165.72336 1022.760677 
L 166.459249 1023.081903 
L 167.195138 1023.199695 
L 167.563082 1023.012271 
L 167.747055 1023.031245 
L 168.298971 1022.774291 
L 168.666916 1022.688137 
L 168.850888 1022.784222 
L 169.954721 1022.459931 
L 170.506638 1022.139717 
L 172.162388 1021.606214 
L 175.105943 1019.234034 
L 176.209777 1018.222493 
L 177.129638 1017.5936 
L 185.224415 1009.734883 
L 185.776332 1009.161585 
L 187.800026 1007.236576 
L 191.295499 1004.379944 
L 193.87111 1002.216718 
L 194.974943 1001.409306 
L 195.52686 1001.029085 
L 199.390276 998.163895 
L 200.862054 997.347629 
L 202.149859 996.493183 
L 204.909443 994.924223 
L 206.013276 994.325527 
L 206.749165 993.95381 
L 211.34847 991.844841 
L 215.027915 991.070539 
L 216.499692 990.866045 
L 219.62722 989.902418 
L 220.363109 989.65119 
L 223.122692 988.922984 
L 223.674609 988.755743 
L 224.778442 988.28766 
L 226.25022 987.706379 
L 229.56172 986.130862 
L 230.481581 985.598243 
L 231.585414 985.030407 
L 235.632803 982.651949 
L 236.552664 982.042882 
L 238.944303 980.540381 
L 241.703886 978.773843 
L 243.359636 977.671151 
L 245.935247 975.973023 
L 248.510858 974.186624 
L 256.053719 968.998034 
L 260.653024 966.130262 
L 262.124802 965.282584 
L 264.148497 964.177925 
L 270.035608 961.038838 
L 272.059302 959.934253 
L 275.738746 958.059395 
L 278.314357 956.787451 
L 281.441885 955.190868 
L 284.937357 953.641576 
L 287.69694 952.54395 
L 289.35269 951.877319 
L 292.480218 950.874272 
L 302.414718 947.842895 
L 308.853745 945.258487 
L 310.509495 944.488255 
L 316.580579 942.108798 
L 318.972217 941.353075 
L 321.363856 940.611851 
L 324.491384 940.122423 
L 327.986856 939.78601 
L 335.897661 940.087591 
L 343.072578 939.854685 
L 348.775717 939.5622 
L 352.639133 939.33368 
L 354.110911 939.230399 
L 357.054466 939.033054 
L 365.517188 938.252244 
L 378.027299 936.272624 
L 388.513715 934.284416 
L 399.552049 932.332204 
L 401.943687 931.833396 
L 404.519298 931.26816 
L 407.094909 930.509274 
L 413.349965 928.413609 
L 415.925576 927.505272 
L 420.524881 925.850159 
L 436.16252 920.619816 
L 439.657992 919.511398 
L 444.257297 918.168544 
L 447.016881 917.293848 
L 449.408519 916.596834 
L 452.168103 915.846274 
L 456.215491 914.755113 
L 459.526991 914.286975 
L 464.678213 913.851843 
L 467.989713 913.753034 
L 471.117241 913.611428 
L 474.612713 913.548717 
L 477.372296 913.088951 
L 480.867769 912.157272 
L 483.627352 911.29304 
L 486.386935 910.238223 
L 488.962546 908.930184 
L 495.401574 905.184461 
L 498.161157 902.766316 
L 498.161157 902.766316 
" clip-path="url(#p6e20fffda2)" style="fill: none; stroke: #2ca02c; stroke-width: 1.5; stroke-linecap: square"/>
   </g>
   <g id="line2d_56">
    <path d="M 152.293388 1100.496204 
L 152.661333 1066.406752 
L 153.21325 1046.069295 
L 153.765166 1034.641581 
L 154.133111 1031.190376 
L 154.685027 1028.467216 
L 154.868999 1028.321751 
L 155.420916 1026.497375 
L 155.972833 1025.660687 
L 156.524749 1026.112301 
L 156.892694 1025.921271 
L 157.076666 1025.934751 
L 157.260638 1025.810895 
L 157.444611 1025.867326 
L 157.812555 1025.364095 
L 158.364472 1026.065506 
L 158.732416 1026.059267 
L 160.388166 1028.5468 
L 162.595833 1032.02895 
L 163.147749 1033.094828 
L 163.331721 1033.288019 
L 163.883638 1034.264577 
L 164.435555 1035.213153 
L 164.987471 1036.108882 
L 166.091305 1037.985283 
L 171.794443 1044.888794 
L 176.577721 1049.205992 
L 178.049499 1050.175642 
L 178.417443 1050.401103 
L 179.337304 1050.940339 
L 181.360999 1051.684219 
L 182.832777 1052.102848 
L 185.040443 1052.639763 
L 185.776332 1052.823953 
L 186.512221 1052.934565 
L 187.24811 1053.13355 
L 190.743582 1053.472999 
L 192.767276 1053.431396 
L 193.503165 1053.407751 
L 195.52686 1053.22551 
L 196.630693 1053.066606 
L 197.366582 1052.930108 
L 199.022332 1052.633598 
L 200.862054 1052.286485 
L 201.597943 1052.110306 
L 203.06972 1051.758828 
L 204.909443 1051.29642 
L 206.933137 1050.64506 
L 214.475998 1048.632322 
L 217.603526 1048.063246 
L 219.811192 1047.564679 
L 223.306664 1046.966962 
L 228.089942 1045.872791 
L 229.193775 1045.557037 
L 231.21747 1044.966742 
L 232.137331 1044.692474 
L 233.977053 1044.223985 
L 236.736636 1043.295076 
L 239.496219 1042.34864 
L 246.119219 1039.730914 
L 247.958941 1039.046795 
L 253.110164 1036.667994 
L 256.053719 1035.333478 
L 257.709469 1034.550087 
L 261.94083 1032.357902 
L 265.068358 1030.720461 
L 273.347107 1026.669427 
L 275.738746 1025.527031 
L 277.946413 1024.426736 
L 295.423774 1015.880959 
L 300.023079 1013.611341 
L 302.230746 1012.507405 
L 306.830051 1010.187807 
L 313.269079 1006.935373 
L 324.307412 1001.806681 
L 328.906717 999.791305 
L 332.034245 998.501493 
L 336.265606 996.853083 
L 339.94505 995.633643 
L 345.648189 993.783814 
L 349.511605 992.589356 
L 360.917883 989.044526 
L 367.35691 987.510048 
L 369.932522 986.915348 
L 383.546466 983.422634 
L 385.202216 982.982569 
L 394.400826 980.276504 
L 400.103965 978.283766 
L 416.845437 971.570496 
L 419.60502 970.278361 
L 428.619659 965.528414 
L 437.082381 960.362628 
L 441.865659 956.979612 
L 445.361131 954.164417 
L 449.960436 950.17422 
L 454.743714 945.698598 
L 462.102602 938.514227 
L 484.547213 915.561712 
L 491.906102 908.517962 
L 498.161157 902.766316 
L 498.161157 902.766316 
" clip-path="url(#p6e20fffda2)" style="fill: none; stroke: #d62728; stroke-width: 1.5; stroke-linecap: square"/>
   </g>
   <g id="patch_35">
    <path d="M 135 1153.44 
L 135 890.829474 
" style="fill: none; stroke: #000000; stroke-width: 0.8; stroke-linejoin: miter; stroke-linecap: square"/>
   </g>
   <g id="patch_36">
    <path d="M 515.454545 1153.44 
L 515.454545 890.829474 
" style="fill: none; stroke: #000000; stroke-width: 0.8; stroke-linejoin: miter; stroke-linecap: square"/>
   </g>
   <g id="patch_37">
    <path d="M 135 1153.44 
L 515.454545 1153.44 
" style="fill: none; stroke: #000000; stroke-width: 0.8; stroke-linejoin: miter; stroke-linecap: square"/>
   </g>
   <g id="patch_38">
    <path d="M 135 890.829474 
L 515.454545 890.829474 
" style="fill: none; stroke: #000000; stroke-width: 0.8; stroke-linejoin: miter; stroke-linecap: square"/>
   </g>
   <g id="text_57">
    <!-- e -->
    <g transform="translate(89.376307 872.71352) scale(0.28 -0.28)">
     <defs>
      <path id="DejaVuSans-Bold-65" d="M 4031 1759 
L 4031 1441 
L 1416 1441 
Q 1456 1047 1700 850 
Q 1944 653 2381 653 
Q 2734 653 3104 758 
Q 3475 863 3866 1075 
L 3866 213 
Q 3469 63 3072 -14 
Q 2675 -91 2278 -91 
Q 1328 -91 801 392 
Q 275 875 275 1747 
Q 275 2603 792 3093 
Q 1309 3584 2216 3584 
Q 3041 3584 3536 3087 
Q 4031 2591 4031 1759 
z
M 2881 2131 
Q 2881 2450 2695 2645 
Q 2509 2841 2209 2841 
Q 1884 2841 1681 2658 
Q 1478 2475 1428 2131 
L 2881 2131 
z
" transform="scale(0.015625)"/>
     </defs>
     <use xlink:href="#DejaVuSans-Bold-65"/>
    </g>
   </g>
   <g id="text_58">
    <!-- $Q_{NN}$ -->
    <g transform="translate(302.787273 884.829474) scale(0.24 -0.24)">
     <use xlink:href="#DejaVuSans-Oblique-51" transform="translate(0 0.78125)"/>
     <use xlink:href="#DejaVuSans-Oblique-4e" transform="translate(78.710938 -15.625) scale(0.7)"/>
     <use xlink:href="#DejaVuSans-Oblique-4e" transform="translate(131.074219 -15.625) scale(0.7)"/>
    </g>
   </g>
  </g>
  <g id="axes_6">
   <g id="patch_39">
    <path d="M 591.545455 1153.44 
L 972 1153.44 
L 972 890.829474 
L 591.545455 890.829474 
z
" style="fill: #ffffff"/>
   </g>
   <g id="matplotlib.axis_11">
    <g id="xtick_20">
     <g id="line2d_57">
      <g>
       <use xlink:href="#m7797108240" x="608.654871" y="1153.44" style="stroke: #000000; stroke-width: 0.8"/>
      </g>
     </g>
     <g id="text_59">
      <!-- 0 -->
      <g transform="translate(601.656121 1177.156562) scale(0.22 -0.22)">
       <use xlink:href="#DejaVuSans-30"/>
      </g>
     </g>
    </g>
    <g id="xtick_21">
     <g id="line2d_58">
      <g>
       <use xlink:href="#m7797108240" x="700.640979" y="1153.44" style="stroke: #000000; stroke-width: 0.8"/>
      </g>
     </g>
     <g id="text_60">
      <!-- 500 -->
      <g transform="translate(679.644729 1177.156562) scale(0.22 -0.22)">
       <use xlink:href="#DejaVuSans-35"/>
       <use xlink:href="#DejaVuSans-30" x="63.623047"/>
       <use xlink:href="#DejaVuSans-30" x="127.246094"/>
      </g>
     </g>
    </g>
    <g id="xtick_22">
     <g id="line2d_59">
      <g>
       <use xlink:href="#m7797108240" x="792.627088" y="1153.44" style="stroke: #000000; stroke-width: 0.8"/>
      </g>
     </g>
     <g id="text_61">
      <!-- 1000 -->
      <g transform="translate(764.632088 1177.156562) scale(0.22 -0.22)">
       <use xlink:href="#DejaVuSans-31"/>
       <use xlink:href="#DejaVuSans-30" x="63.623047"/>
       <use xlink:href="#DejaVuSans-30" x="127.246094"/>
       <use xlink:href="#DejaVuSans-30" x="190.869141"/>
      </g>
     </g>
    </g>
    <g id="xtick_23">
     <g id="line2d_60">
      <g>
       <use xlink:href="#m7797108240" x="884.613197" y="1153.44" style="stroke: #000000; stroke-width: 0.8"/>
      </g>
     </g>
     <g id="text_62">
      <!-- 1500 -->
      <g transform="translate(856.618197 1177.156562) scale(0.22 -0.22)">
       <use xlink:href="#DejaVuSans-31"/>
       <use xlink:href="#DejaVuSans-35" x="63.623047"/>
       <use xlink:href="#DejaVuSans-30" x="127.246094"/>
       <use xlink:href="#DejaVuSans-30" x="190.869141"/>
      </g>
     </g>
    </g>
    <g id="text_63">
     <!-- k -->
     <g transform="translate(774.823977 1203.968125) scale(0.24 -0.24)">
      <use xlink:href="#DejaVuSans-6b"/>
     </g>
    </g>
   </g>
   <g id="matplotlib.axis_12">
    <g id="ytick_22">
     <g id="line2d_61">
      <g>
       <use xlink:href="#m8badb459a5" x="591.545455" y="1137.604337" style="stroke: #000000; stroke-width: 0.8"/>
      </g>
     </g>
     <g id="text_64">
      <!-- 0.0 -->
      <g transform="translate(549.55858 1145.962619) scale(0.22 -0.22)">
       <use xlink:href="#DejaVuSans-30"/>
       <use xlink:href="#DejaVuSans-2e" x="63.623047"/>
       <use xlink:href="#DejaVuSans-30" x="95.410156"/>
      </g>
     </g>
    </g>
    <g id="ytick_23">
     <g id="line2d_62">
      <g>
       <use xlink:href="#m8badb459a5" x="591.545455" y="1074.943729" style="stroke: #000000; stroke-width: 0.8"/>
      </g>
     </g>
     <g id="text_65">
      <!-- 0.2 -->
      <g transform="translate(549.55858 1083.302011) scale(0.22 -0.22)">
       <use xlink:href="#DejaVuSans-30"/>
       <use xlink:href="#DejaVuSans-2e" x="63.623047"/>
       <use xlink:href="#DejaVuSans-32" x="95.410156"/>
      </g>
     </g>
    </g>
    <g id="ytick_24">
     <g id="line2d_63">
      <g>
       <use xlink:href="#m8badb459a5" x="591.545455" y="1012.283121" style="stroke: #000000; stroke-width: 0.8"/>
      </g>
     </g>
     <g id="text_66">
      <!-- 0.4 -->
      <g transform="translate(549.55858 1020.641402) scale(0.22 -0.22)">
       <use xlink:href="#DejaVuSans-30"/>
       <use xlink:href="#DejaVuSans-2e" x="63.623047"/>
       <use xlink:href="#DejaVuSans-34" x="95.410156"/>
      </g>
     </g>
    </g>
    <g id="ytick_25">
     <g id="line2d_64">
      <g>
       <use xlink:href="#m8badb459a5" x="591.545455" y="949.622513" style="stroke: #000000; stroke-width: 0.8"/>
      </g>
     </g>
     <g id="text_67">
      <!-- 0.6 -->
      <g transform="translate(549.55858 957.980794) scale(0.22 -0.22)">
       <use xlink:href="#DejaVuSans-30"/>
       <use xlink:href="#DejaVuSans-2e" x="63.623047"/>
       <use xlink:href="#DejaVuSans-36" x="95.410156"/>
      </g>
     </g>
    </g>
   </g>
   <g id="line2d_65">
    <path d="M 608.838843 1063.856686 
L 609.206787 1044.490451 
L 609.574732 1037.687413 
L 609.942676 1033.749303 
L 610.126648 1033.059716 
L 610.494593 1030.529497 
L 610.678565 1028.307921 
L 610.862537 1027.705174 
L 611.598426 1022.98878 
L 612.70226 1017.8135 
L 613.070204 1016.281995 
L 613.806093 1012.698216 
L 615.461843 1007.249899 
L 616.381704 1005.281477 
L 617.853482 1001.160461 
L 618.58937 999.322084 
L 618.957315 998.446404 
L 619.325259 997.935372 
L 620.24512 996.022919 
L 621.164982 994.288952 
L 622.452787 992.501614 
L 623.004704 991.667378 
L 624.476481 989.54349 
L 625.028398 988.610991 
L 625.764287 987.709488 
L 626.684148 986.370179 
L 630.17962 981.284736 
L 630.915509 980.197198 
L 631.651398 979.268514 
L 632.203315 978.431928 
L 633.307148 976.94074 
L 634.594953 975.089137 
L 635.330842 974.287194 
L 636.066731 973.397607 
L 636.80262 972.633981 
L 639.194259 970.069514 
L 640.666037 968.786952 
L 641.401925 968.138892 
L 646.73712 964.082526 
L 648.39287 962.859468 
L 649.864647 961.809615 
L 652.440258 960.308789 
L 656.119703 958.754671 
L 657.959425 958.298876 
L 658.695314 958.094134 
L 663.846536 957.507166 
L 666.054203 957.512475 
L 668.445841 957.634319 
L 669.365702 957.742329 
L 669.917619 957.76799 
L 671.941314 958.015733 
L 678.380341 959.119039 
L 679.668147 959.405809 
L 681.323897 959.68676 
L 682.42773 959.826251 
L 683.347591 959.978241 
L 685.555258 960.405249 
L 692.178257 961.991923 
L 694.201952 962.429496 
L 698.617285 963.627705 
L 701.560841 964.32676 
L 702.480702 964.607173 
L 716.094646 968.209991 
L 729.524618 972.431373 
L 739.091173 976.237613 
L 742.034728 977.64067 
L 744.426367 978.798486 
L 763.559478 988.943129 
L 767.238922 991.052855 
L 772.206172 994.235144 
L 782.140672 1001.219637 
L 791.339283 1007.932115 
L 806.05706 1019.859367 
L 812.128143 1025.034463 
L 833.46892 1042.665818 
L 841.74767 1048.72373 
L 849.290531 1054.298698 
L 889.396474 1085.292291 
L 893.075919 1088.092985 
L 901.170696 1094.243763 
L 904.666168 1097.02758 
L 908.897529 1100.586023 
L 922.143529 1111.923136 
L 927.478723 1116.247479 
L 930.422279 1118.600594 
L 932.629945 1120.400914 
L 936.30939 1123.34635 
L 954.706612 1137.604337 
L 954.706612 1137.604337 
" clip-path="url(#p8f3f017c27)" style="fill: none; stroke: #1f77b4; stroke-width: 1.5; stroke-linecap: square"/>
   </g>
   <g id="line2d_66">
    <path d="M 608.838843 940.333383 
L 609.022815 915.861874 
L 609.39076 904.500237 
L 609.758704 902.766316 
L 609.942676 902.948732 
L 610.126648 903.793079 
L 610.310621 903.487966 
L 610.678565 905.329441 
L 611.414454 910.946508 
L 611.598426 911.576421 
L 611.966371 913.958093 
L 612.150343 914.689302 
L 612.70226 918.443982 
L 613.070204 920.608314 
L 613.806093 924.990487 
L 614.174037 926.718421 
L 615.277871 932.808181 
L 617.117593 938.585775 
L 617.853482 941.070203 
L 619.325259 945.082921 
L 620.24512 947.579144 
L 621.164982 949.392531 
L 621.90087 950.510732 
L 622.452787 951.333839 
L 623.188676 952.530779 
L 623.740593 953.06359 
L 625.764287 954.769224 
L 630.915509 957.007858 
L 631.467426 957.359467 
L 632.755231 958.082571 
L 633.859065 958.525049 
L 634.410981 958.680357 
L 634.594953 958.786545 
L 635.514814 958.668558 
L 636.434676 958.846159 
L 637.906453 959.177713 
L 638.274398 959.195233 
L 639.010287 959.350085 
L 639.562203 959.356855 
L 646.73712 961.463987 
L 647.473009 961.575361 
L 648.208897 961.743 
L 650.232592 961.983059 
L 651.336425 962.247956 
L 651.888342 962.34984 
L 652.808203 962.547527 
L 654.463953 962.882065 
L 655.383814 962.9824 
L 656.671619 963.195148 
L 658.695314 963.650186 
L 659.247231 963.832811 
L 660.167092 964.219072 
L 662.190786 965.117827 
L 662.926675 965.498023 
L 664.21448 966.133089 
L 668.261869 968.429702 
L 673.781036 972.320944 
L 674.700897 972.876544 
L 676.356647 973.885836 
L 677.644452 974.703519 
L 678.564313 975.289113 
L 681.139924 977.078519 
L 689.234702 982.363657 
L 691.074424 983.395927 
L 694.937841 985.800758 
L 700.089063 988.483754 
L 702.664674 989.758911 
L 705.056313 990.953606 
L 707.631924 992.110523 
L 711.679312 993.577367 
L 715.910673 995.145806 
L 717.382451 995.745769 
L 719.222173 996.403555 
L 729.524618 1000.489878 
L 730.812423 1001.076147 
L 734.491867 1002.781947 
L 751.417311 1011.262599 
L 758.592228 1014.203413 
L 762.639617 1015.80115 
L 766.870978 1017.568304 
L 769.262616 1018.605598 
L 774.597811 1020.966897 
L 777.725338 1022.35634 
L 781.772727 1024.218887 
L 783.612449 1025.234722 
L 789.683533 1029.358993 
L 793.914894 1031.757325 
L 795.754616 1032.794461 
L 797.410366 1033.739608 
L 800.169949 1035.57436 
L 802.193643 1037.064872 
L 804.953227 1039.303753 
L 812.312115 1045.186229 
L 841.931642 1067.293167 
L 845.979031 1070.290046 
L 854.073809 1076.023894 
L 860.144892 1080.052681 
L 862.904475 1081.847822 
L 867.687753 1084.781405 
L 874.494725 1088.941101 
L 878.542114 1091.439685 
L 885.71703 1095.801788 
L 894.731669 1101.359748 
L 898.411113 1103.582954 
L 904.298224 1107.390795 
L 911.841085 1112.611789 
L 914.78464 1114.821188 
L 918.09614 1117.064864 
L 922.327501 1119.764775 
L 923.799279 1120.596835 
L 925.087085 1121.376542 
L 931.894057 1125.268453 
L 935.757473 1127.642955 
L 939.988834 1129.939016 
L 941.27664 1130.677627 
L 943.116362 1131.347583 
L 944.220195 1131.772539 
L 947.163751 1133.489267 
L 949.003473 1134.610291 
L 950.475251 1135.265402 
L 951.211139 1135.763223 
L 953.050862 1136.699498 
L 953.78675 1137.208831 
L 954.154695 1137.370052 
L 954.706612 1137.604337 
L 954.706612 1137.604337 
" clip-path="url(#p8f3f017c27)" style="fill: none; stroke: #ff7f0e; stroke-width: 1.5; stroke-linecap: square"/>
   </g>
   <g id="line2d_67">
    <path d="M 608.838843 1036.887986 
L 609.206787 977.068702 
L 609.574732 952.153352 
L 609.942676 938.574052 
L 610.494593 929.213753 
L 610.678565 926.456435 
L 611.04651 924.878025 
L 611.230482 924.959521 
L 611.414454 925.329814 
L 611.598426 926.028398 
L 611.966371 929.366136 
L 612.334315 930.837754 
L 612.886232 933.828389 
L 613.070204 934.515784 
L 613.254176 934.728681 
L 614.358009 939.417749 
L 614.909926 941.672987 
L 615.645815 943.924598 
L 616.013759 944.490347 
L 616.197732 944.653052 
L 617.301565 947.393095 
L 617.485537 947.606883 
L 618.221426 949.561166 
L 619.693204 952.768622 
L 620.429093 953.961169 
L 621.348954 955.597055 
L 621.532926 955.695476 
L 622.452787 957.218121 
L 623.188676 958.152946 
L 624.292509 959.052433 
L 624.844426 959.294464 
L 626.684148 960.502243 
L 627.052092 960.6569 
L 628.707842 961.620998 
L 629.995648 961.884651 
L 630.731537 961.985464 
L 632.755231 961.892399 
L 633.675092 962.094598 
L 635.14687 962.096258 
L 635.698787 962.070524 
L 636.80262 961.98512 
L 637.354537 961.848855 
L 638.090426 961.832935 
L 638.642342 961.858542 
L 639.378231 961.746393 
L 639.930148 961.781307 
L 641.401925 961.560384 
L 642.137814 961.450369 
L 642.689731 961.424307 
L 643.057675 961.361109 
L 644.345481 961.369883 
L 647.105064 961.60623 
L 650.232592 961.80701 
L 652.808203 962.269378 
L 653.36012 962.345738 
L 653.912036 962.401294 
L 654.831897 962.567445 
L 656.671619 963.04462 
L 657.591481 963.305765 
L 659.431203 963.771368 
L 663.662564 965.361397 
L 665.318314 966.070973 
L 666.422147 966.461365 
L 667.893925 967.256044 
L 671.757341 969.960495 
L 673.413091 971.154469 
L 674.516925 971.840086 
L 676.172675 972.803604 
L 677.644452 973.697132 
L 678.932258 974.475421 
L 680.036091 975.230521 
L 686.107174 978.016094 
L 687.027035 978.31483 
L 688.130869 978.744815 
L 692.178257 980.024224 
L 692.914146 980.212235 
L 694.201952 980.546104 
L 696.777563 981.25691 
L 702.664674 982.683301 
L 704.504396 983.064987 
L 706.344118 983.473714 
L 709.83959 984.163581 
L 711.679312 984.605637 
L 717.014507 986.044088 
L 731.36434 991.283785 
L 736.147617 993.209951 
L 739.091173 994.442154 
L 743.322534 996.489853 
L 747.553895 998.736822 
L 753.80895 1002.492446 
L 757.12045 1004.496789 
L 759.696061 1005.969122 
L 762.455644 1007.438934 
L 763.74345 1008.063662 
L 772.390144 1012.241429 
L 774.965755 1013.758669 
L 777.725338 1015.35413 
L 783.244505 1019.479895 
L 786.372033 1022.441775 
L 792.627088 1028.277663 
L 794.650782 1029.987629 
L 803.481449 1037.69106 
L 822.246615 1053.234931 
L 825.374143 1055.594502 
L 829.053587 1058.430647 
L 832.549059 1061.047805 
L 839.540004 1065.923831 
L 848.554642 1072.475556 
L 851.314225 1074.473781 
L 861.800642 1081.886372 
L 867.135836 1084.99724 
L 870.447336 1086.865091 
L 873.390892 1088.457517 
L 880.013891 1092.105916 
L 886.452919 1095.711588 
L 899.514946 1103.415875 
L 902.826446 1105.435636 
L 910.737252 1110.329899 
L 914.232724 1112.747248 
L 923.247362 1120.192046 
L 931.158168 1127.096255 
L 934.101723 1129.245062 
L 942.196501 1134.09044 
L 944.58814 1135.125707 
L 946.795806 1135.862161 
L 950.475251 1137.148218 
L 951.395112 1137.466921 
L 952.682917 1137.580841 
L 954.706612 1137.604337 
L 954.706612 1137.604337 
" clip-path="url(#p8f3f017c27)" style="fill: none; stroke: #2ca02c; stroke-width: 1.5; stroke-linecap: square"/>
   </g>
   <g id="line2d_68">
    <path d="M 608.838843 1022.737743 
L 609.206787 988.888317 
L 609.758704 968.995005 
L 610.310621 958.035768 
L 610.678565 954.908262 
L 611.04651 952.858371 
L 611.230482 952.677351 
L 611.414454 952.69805 
L 611.966371 951.368378 
L 612.518287 951.02909 
L 613.254176 951.988649 
L 613.990065 952.568789 
L 614.358009 952.397308 
L 615.093898 953.749396 
L 615.277871 953.927188 
L 617.669509 959.621372 
L 618.405398 961.652869 
L 619.141287 963.410976 
L 619.693204 964.97945 
L 620.061148 965.889772 
L 623.188676 973.858346 
L 626.684148 981.231585 
L 627.420037 982.708184 
L 628.339898 984.634038 
L 633.675092 994.241111 
L 636.434676 998.299265 
L 636.986592 998.94558 
L 638.642342 1001.002272 
L 639.746175 1002.285242 
L 645.08137 1008.293006 
L 647.473009 1010.552483 
L 652.256286 1014.634444 
L 653.728064 1015.692029 
L 655.01587 1016.675748 
L 655.751758 1017.171745 
L 660.167092 1020.239767 
L 662.55873 1021.713041 
L 664.21448 1022.64752 
L 665.134341 1023.187244 
L 670.101591 1026.385769 
L 673.413091 1028.76327 
L 677.828424 1031.869414 
L 679.300202 1032.989381 
L 691.074424 1040.585504 
L 696.593591 1043.688397 
L 698.801257 1044.812593 
L 705.608229 1048.216511 
L 713.15109 1051.57347 
L 715.174785 1052.425197 
L 719.406146 1054.029317 
L 729.892562 1058.307114 
L 732.284201 1059.326903 
L 734.307895 1060.149577 
L 741.850756 1063.246732 
L 742.954589 1063.733751 
L 778.277255 1078.293914 
L 781.404783 1079.771876 
L 783.980394 1080.963855 
L 789.867505 1083.841322 
L 793.362977 1085.706884 
L 798.698171 1088.753371 
L 802.377616 1090.905526 
L 812.496088 1096.832414 
L 822.246615 1103.049926 
L 825.742087 1105.403468 
L 836.78042 1112.623175 
L 842.115615 1116.002553 
L 845.05917 1117.831676 
L 855.545586 1123.957167 
L 868.607614 1130.694033 
L 874.862669 1133.625212 
L 877.806225 1134.837088 
L 885.165113 1137.577418 
L 893.443863 1140.016262 
L 897.491252 1140.861218 
L 901.906585 1141.339524 
L 905.953974 1141.498058 
L 909.265474 1141.440708 
L 913.680807 1141.216594 
L 917.912168 1140.891249 
L 921.959557 1140.361056 
L 939.62089 1138.2267 
L 945.691973 1137.822632 
L 951.947028 1137.624421 
L 954.706612 1137.604337 
L 954.706612 1137.604337 
" clip-path="url(#p8f3f017c27)" style="fill: none; stroke: #d62728; stroke-width: 1.5; stroke-linecap: square"/>
   </g>
   <g id="patch_40">
    <path d="M 591.545455 1153.44 
L 591.545455 890.829474 
" style="fill: none; stroke: #000000; stroke-width: 0.8; stroke-linejoin: miter; stroke-linecap: square"/>
   </g>
   <g id="patch_41">
    <path d="M 972 1153.44 
L 972 890.829474 
" style="fill: none; stroke: #000000; stroke-width: 0.8; stroke-linejoin: miter; stroke-linecap: square"/>
   </g>
   <g id="patch_42">
    <path d="M 591.545455 1153.44 
L 972 1153.44 
" style="fill: none; stroke: #000000; stroke-width: 0.8; stroke-linejoin: miter; stroke-linecap: square"/>
   </g>
   <g id="patch_43">
    <path d="M 591.545455 890.829474 
L 972 890.829474 
" style="fill: none; stroke: #000000; stroke-width: 0.8; stroke-linejoin: miter; stroke-linecap: square"/>
   </g>
   <g id="text_68">
    <!-- f -->
    <g transform="translate(552.733636 872.71352) scale(0.28 -0.28)">
     <defs>
      <path id="DejaVuSans-Bold-66" d="M 2841 4863 
L 2841 4128 
L 2222 4128 
Q 1984 4128 1890 4042 
Q 1797 3956 1797 3744 
L 1797 3500 
L 2753 3500 
L 2753 2700 
L 1797 2700 
L 1797 0 
L 678 0 
L 678 2700 
L 122 2700 
L 122 3500 
L 678 3500 
L 678 3744 
Q 678 4316 997 4589 
Q 1316 4863 1984 4863 
L 2841 4863 
z
" transform="scale(0.015625)"/>
     </defs>
     <use xlink:href="#DejaVuSans-Bold-66"/>
    </g>
   </g>
   <g id="text_69">
    <!-- LCMC -->
    <g transform="translate(747.973977 884.829474) scale(0.24 -0.24)">
     <defs>
      <path id="DejaVuSans-4c" d="M 628 4666 
L 1259 4666 
L 1259 531 
L 3531 531 
L 3531 0 
L 628 0 
L 628 4666 
z
" transform="scale(0.015625)"/>
     </defs>
     <use xlink:href="#DejaVuSans-4c"/>
     <use xlink:href="#DejaVuSans-43" x="55.712891"/>
     <use xlink:href="#DejaVuSans-4d" x="125.537109"/>
     <use xlink:href="#DejaVuSans-43" x="211.816406"/>
    </g>
   </g>
  </g>
 </g>
 <defs>
  <clipPath id="p3ef0339bd2">
   <rect x="135" y="155.52" width="380.454545" height="262.610526"/>
  </clipPath>
  <clipPath id="p55b0313a4a">
   <rect x="591.545455" y="155.52" width="380.454545" height="262.610526"/>
  </clipPath>
  <clipPath id="p7454ec5449">
   <rect x="135" y="523.174737" width="380.454545" height="262.610526"/>
  </clipPath>
  <clipPath id="p29b9f18720">
   <rect x="591.545455" y="523.174737" width="380.454545" height="262.610526"/>
  </clipPath>
  <clipPath id="p6e20fffda2">
   <rect x="135" y="890.829474" width="380.454545" height="262.610526"/>
  </clipPath>
  <clipPath id="p8f3f017c27">
   <rect x="591.545455" y="890.829474" width="380.454545" height="262.610526"/>
  </clipPath>
 </defs>
</svg>
