<?xml version="1.0" encoding="utf-8" standalone="no"?>
<!DOCTYPE svg PUBLIC "-//W3C//DTD SVG 1.1//EN"
  "http://www.w3.org/Graphics/SVG/1.1/DTD/svg11.dtd">
<svg xmlns:xlink="http://www.w3.org/1999/xlink" width="1080pt" height="1296pt" viewBox="0 0 1080 1296" xmlns="http://www.w3.org/2000/svg" version="1.1">
 <metadata>
  <rdf:RDF xmlns:dc="http://purl.org/dc/elements/1.1/" xmlns:cc="http://creativecommons.org/ns#" xmlns:rdf="http://www.w3.org/1999/02/22-rdf-syntax-ns#">
   <cc:Work>
    <dc:type rdf:resource="http://purl.org/dc/dcmitype/StillImage"/>
    <dc:date>2024-07-24T04:50:10.090163</dc:date>
    <dc:format>image/svg+xml</dc:format>
    <dc:creator>
     <cc:Agent>
      <dc:title>Matplotlib v3.8.4, https://matplotlib.org/</dc:title>
     </cc:Agent>
    </dc:creator>
   </cc:Work>
  </rdf:RDF>
 </metadata>
 <defs>
  <style type="text/css">*{stroke-linejoin: round; stroke-linecap: butt}</style>
 </defs>
 <g id="figure_1">
  <g id="patch_1">
   <path d="M 0 1296 
L 1080 1296 
L 1080 0 
L 0 0 
z
" style="fill: #ffffff"/>
  </g>
  <g id="axes_1">
   <g id="patch_2">
    <path d="M 135 418.130526 
L 515.454545 418.130526 
L 515.454545 155.52 
L 135 155.52 
z
" style="fill: #ffffff"/>
   </g>
   <g id="matplotlib.axis_1">
    <g id="xtick_1">
     <g id="line2d_1">
      <defs>
       <path id="me0214b938d" d="M 0 0 
L 0 3.5 
" style="stroke: #000000; stroke-width: 0.8"/>
      </defs>
      <g>
       <use xlink:href="#me0214b938d" x="137.882231" y="418.130526" style="stroke: #000000; stroke-width: 0.8"/>
      </g>
     </g>
     <g id="text_1">
      <!-- 0 -->
      <g transform="translate(131.519731 440.327401) scale(0.2 -0.2)">
       <defs>
        <path id="DejaVuSans-30" d="M 2034 4250 
Q 1547 4250 1301 3770 
Q 1056 3291 1056 2328 
Q 1056 1369 1301 889 
Q 1547 409 2034 409 
Q 2525 409 2770 889 
Q 3016 1369 3016 2328 
Q 3016 3291 2770 3770 
Q 2525 4250 2034 4250 
z
M 2034 4750 
Q 2819 4750 3233 4129 
Q 3647 3509 3647 2328 
Q 3647 1150 3233 529 
Q 2819 -91 2034 -91 
Q 1250 -91 836 529 
Q 422 1150 422 2328 
Q 422 3509 836 4129 
Q 1250 4750 2034 4750 
z
" transform="scale(0.015625)"/>
       </defs>
       <use xlink:href="#DejaVuSans-30"/>
      </g>
     </g>
    </g>
    <g id="xtick_2">
     <g id="line2d_2">
      <g>
       <use xlink:href="#me0214b938d" x="209.938017" y="418.130526" style="stroke: #000000; stroke-width: 0.8"/>
      </g>
     </g>
     <g id="text_2">
      <!-- 10 -->
      <g transform="translate(197.213017 440.327401) scale(0.2 -0.2)">
       <defs>
        <path id="DejaVuSans-31" d="M 794 531 
L 1825 531 
L 1825 4091 
L 703 3866 
L 703 4441 
L 1819 4666 
L 2450 4666 
L 2450 531 
L 3481 531 
L 3481 0 
L 794 0 
L 794 531 
z
" transform="scale(0.015625)"/>
       </defs>
       <use xlink:href="#DejaVuSans-31"/>
       <use xlink:href="#DejaVuSans-30" x="63.623047"/>
      </g>
     </g>
    </g>
    <g id="xtick_3">
     <g id="line2d_3">
      <g>
       <use xlink:href="#me0214b938d" x="281.993802" y="418.130526" style="stroke: #000000; stroke-width: 0.8"/>
      </g>
     </g>
     <g id="text_3">
      <!-- 20 -->
      <g transform="translate(269.268802 440.327401) scale(0.2 -0.2)">
       <defs>
        <path id="DejaVuSans-32" d="M 1228 531 
L 3431 531 
L 3431 0 
L 469 0 
L 469 531 
Q 828 903 1448 1529 
Q 2069 2156 2228 2338 
Q 2531 2678 2651 2914 
Q 2772 3150 2772 3378 
Q 2772 3750 2511 3984 
Q 2250 4219 1831 4219 
Q 1534 4219 1204 4116 
Q 875 4013 500 3803 
L 500 4441 
Q 881 4594 1212 4672 
Q 1544 4750 1819 4750 
Q 2544 4750 2975 4387 
Q 3406 4025 3406 3419 
Q 3406 3131 3298 2873 
Q 3191 2616 2906 2266 
Q 2828 2175 2409 1742 
Q 1991 1309 1228 531 
z
" transform="scale(0.015625)"/>
       </defs>
       <use xlink:href="#DejaVuSans-32"/>
       <use xlink:href="#DejaVuSans-30" x="63.623047"/>
      </g>
     </g>
    </g>
    <g id="xtick_4">
     <g id="line2d_4">
      <g>
       <use xlink:href="#me0214b938d" x="354.049587" y="418.130526" style="stroke: #000000; stroke-width: 0.8"/>
      </g>
     </g>
     <g id="text_4">
      <!-- 30 -->
      <g transform="translate(341.324587 440.327401) scale(0.2 -0.2)">
       <defs>
        <path id="DejaVuSans-33" d="M 2597 2516 
Q 3050 2419 3304 2112 
Q 3559 1806 3559 1356 
Q 3559 666 3084 287 
Q 2609 -91 1734 -91 
Q 1441 -91 1130 -33 
Q 819 25 488 141 
L 488 750 
Q 750 597 1062 519 
Q 1375 441 1716 441 
Q 2309 441 2620 675 
Q 2931 909 2931 1356 
Q 2931 1769 2642 2001 
Q 2353 2234 1838 2234 
L 1294 2234 
L 1294 2753 
L 1863 2753 
Q 2328 2753 2575 2939 
Q 2822 3125 2822 3475 
Q 2822 3834 2567 4026 
Q 2313 4219 1838 4219 
Q 1578 4219 1281 4162 
Q 984 4106 628 3988 
L 628 4550 
Q 988 4650 1302 4700 
Q 1616 4750 1894 4750 
Q 2613 4750 3031 4423 
Q 3450 4097 3450 3541 
Q 3450 3153 3228 2886 
Q 3006 2619 2597 2516 
z
" transform="scale(0.015625)"/>
       </defs>
       <use xlink:href="#DejaVuSans-33"/>
       <use xlink:href="#DejaVuSans-30" x="63.623047"/>
      </g>
     </g>
    </g>
    <g id="xtick_5">
     <g id="line2d_5">
      <g>
       <use xlink:href="#me0214b938d" x="426.105372" y="418.130526" style="stroke: #000000; stroke-width: 0.8"/>
      </g>
     </g>
     <g id="text_5">
      <!-- 40 -->
      <g transform="translate(413.380372 440.327401) scale(0.2 -0.2)">
       <defs>
        <path id="DejaVuSans-34" d="M 2419 4116 
L 825 1625 
L 2419 1625 
L 2419 4116 
z
M 2253 4666 
L 3047 4666 
L 3047 1625 
L 3713 1625 
L 3713 1100 
L 3047 1100 
L 3047 0 
L 2419 0 
L 2419 1100 
L 313 1100 
L 313 1709 
L 2253 4666 
z
" transform="scale(0.015625)"/>
       </defs>
       <use xlink:href="#DejaVuSans-34"/>
       <use xlink:href="#DejaVuSans-30" x="63.623047"/>
      </g>
     </g>
    </g>
    <g id="xtick_6">
     <g id="line2d_6">
      <g>
       <use xlink:href="#me0214b938d" x="498.161157" y="418.130526" style="stroke: #000000; stroke-width: 0.8"/>
      </g>
     </g>
     <g id="text_6">
      <!-- 50 -->
      <g transform="translate(485.436157 440.327401) scale(0.2 -0.2)">
       <defs>
        <path id="DejaVuSans-35" d="M 691 4666 
L 3169 4666 
L 3169 4134 
L 1269 4134 
L 1269 2991 
Q 1406 3038 1543 3061 
Q 1681 3084 1819 3084 
Q 2600 3084 3056 2656 
Q 3513 2228 3513 1497 
Q 3513 744 3044 326 
Q 2575 -91 1722 -91 
Q 1428 -91 1123 -41 
Q 819 9 494 109 
L 494 744 
Q 775 591 1075 516 
Q 1375 441 1709 441 
Q 2250 441 2565 725 
Q 2881 1009 2881 1497 
Q 2881 1984 2565 2268 
Q 2250 2553 1709 2553 
Q 1456 2553 1204 2497 
Q 953 2441 691 2322 
L 691 4666 
z
" transform="scale(0.015625)"/>
       </defs>
       <use xlink:href="#DejaVuSans-35"/>
       <use xlink:href="#DejaVuSans-30" x="63.623047"/>
      </g>
     </g>
    </g>
    <g id="text_7">
     <!-- k -->
     <g transform="translate(318.278523 466.723026) scale(0.24 -0.24)">
      <defs>
       <path id="DejaVuSans-6b" d="M 581 4863 
L 1159 4863 
L 1159 1991 
L 2875 3500 
L 3609 3500 
L 1753 1863 
L 3688 0 
L 2938 0 
L 1159 1709 
L 1159 0 
L 581 0 
L 581 4863 
z
" transform="scale(0.015625)"/>
      </defs>
      <use xlink:href="#DejaVuSans-6b"/>
     </g>
    </g>
   </g>
   <g id="matplotlib.axis_2">
    <g id="ytick_1">
     <g id="line2d_7">
      <defs>
       <path id="m1b08dbd0aa" d="M 0 0 
L -3.5 0 
" style="stroke: #000000; stroke-width: 0.8"/>
      </defs>
      <g>
       <use xlink:href="#m1b08dbd0aa" x="135" y="418.130526" style="stroke: #000000; stroke-width: 0.8"/>
      </g>
     </g>
     <g id="text_8">
      <!-- 0.0 -->
      <g transform="translate(96.19375 425.728964) scale(0.2 -0.2)">
       <defs>
        <path id="DejaVuSans-2e" d="M 684 794 
L 1344 794 
L 1344 0 
L 684 0 
L 684 794 
z
" transform="scale(0.015625)"/>
       </defs>
       <use xlink:href="#DejaVuSans-30"/>
       <use xlink:href="#DejaVuSans-2e" x="63.623047"/>
       <use xlink:href="#DejaVuSans-30" x="95.410156"/>
      </g>
     </g>
    </g>
    <g id="ytick_2">
     <g id="line2d_8">
      <g>
       <use xlink:href="#m1b08dbd0aa" x="135" y="352.477895" style="stroke: #000000; stroke-width: 0.8"/>
      </g>
     </g>
     <g id="text_9">
      <!-- 0.2 -->
      <g transform="translate(96.19375 360.076332) scale(0.2 -0.2)">
       <use xlink:href="#DejaVuSans-30"/>
       <use xlink:href="#DejaVuSans-2e" x="63.623047"/>
       <use xlink:href="#DejaVuSans-32" x="95.410156"/>
      </g>
     </g>
    </g>
    <g id="ytick_3">
     <g id="line2d_9">
      <g>
       <use xlink:href="#m1b08dbd0aa" x="135" y="286.825263" style="stroke: #000000; stroke-width: 0.8"/>
      </g>
     </g>
     <g id="text_10">
      <!-- 0.4 -->
      <g transform="translate(96.19375 294.423701) scale(0.2 -0.2)">
       <use xlink:href="#DejaVuSans-30"/>
       <use xlink:href="#DejaVuSans-2e" x="63.623047"/>
       <use xlink:href="#DejaVuSans-34" x="95.410156"/>
      </g>
     </g>
    </g>
    <g id="ytick_4">
     <g id="line2d_10">
      <g>
       <use xlink:href="#m1b08dbd0aa" x="135" y="221.172632" style="stroke: #000000; stroke-width: 0.8"/>
      </g>
     </g>
     <g id="text_11">
      <!-- 0.6 -->
      <g transform="translate(96.19375 228.771069) scale(0.2 -0.2)">
       <defs>
        <path id="DejaVuSans-36" d="M 2113 2584 
Q 1688 2584 1439 2293 
Q 1191 2003 1191 1497 
Q 1191 994 1439 701 
Q 1688 409 2113 409 
Q 2538 409 2786 701 
Q 3034 994 3034 1497 
Q 3034 2003 2786 2293 
Q 2538 2584 2113 2584 
z
M 3366 4563 
L 3366 3988 
Q 3128 4100 2886 4159 
Q 2644 4219 2406 4219 
Q 1781 4219 1451 3797 
Q 1122 3375 1075 2522 
Q 1259 2794 1537 2939 
Q 1816 3084 2150 3084 
Q 2853 3084 3261 2657 
Q 3669 2231 3669 1497 
Q 3669 778 3244 343 
Q 2819 -91 2113 -91 
Q 1303 -91 875 529 
Q 447 1150 447 2328 
Q 447 3434 972 4092 
Q 1497 4750 2381 4750 
Q 2619 4750 2861 4703 
Q 3103 4656 3366 4563 
z
" transform="scale(0.015625)"/>
       </defs>
       <use xlink:href="#DejaVuSans-30"/>
       <use xlink:href="#DejaVuSans-2e" x="63.623047"/>
       <use xlink:href="#DejaVuSans-36" x="95.410156"/>
      </g>
     </g>
    </g>
    <g id="ytick_5">
     <g id="line2d_11">
      <g>
       <use xlink:href="#m1b08dbd0aa" x="135" y="155.52" style="stroke: #000000; stroke-width: 0.8"/>
      </g>
     </g>
     <g id="text_12">
      <!-- 0.8 -->
      <g transform="translate(96.19375 163.118438) scale(0.2 -0.2)">
       <defs>
        <path id="DejaVuSans-38" d="M 2034 2216 
Q 1584 2216 1326 1975 
Q 1069 1734 1069 1313 
Q 1069 891 1326 650 
Q 1584 409 2034 409 
Q 2484 409 2743 651 
Q 3003 894 3003 1313 
Q 3003 1734 2745 1975 
Q 2488 2216 2034 2216 
z
M 1403 2484 
Q 997 2584 770 2862 
Q 544 3141 544 3541 
Q 544 4100 942 4425 
Q 1341 4750 2034 4750 
Q 2731 4750 3128 4425 
Q 3525 4100 3525 3541 
Q 3525 3141 3298 2862 
Q 3072 2584 2669 2484 
Q 3125 2378 3379 2068 
Q 3634 1759 3634 1313 
Q 3634 634 3220 271 
Q 2806 -91 2034 -91 
Q 1263 -91 848 271 
Q 434 634 434 1313 
Q 434 1759 690 2068 
Q 947 2378 1403 2484 
z
M 1172 3481 
Q 1172 3119 1398 2916 
Q 1625 2713 2034 2713 
Q 2441 2713 2670 2916 
Q 2900 3119 2900 3481 
Q 2900 3844 2670 4047 
Q 2441 4250 2034 4250 
Q 1625 4250 1398 4047 
Q 1172 3844 1172 3481 
z
" transform="scale(0.015625)"/>
       </defs>
       <use xlink:href="#DejaVuSans-30"/>
       <use xlink:href="#DejaVuSans-2e" x="63.623047"/>
       <use xlink:href="#DejaVuSans-38" x="95.410156"/>
      </g>
     </g>
    </g>
    <g id="text_13">
     <!-- $P_{NN}$ -->
     <g transform="translate(87.2025 306.985263) rotate(-90) scale(0.24 -0.24)">
      <defs>
       <path id="DejaVuSans-Oblique-50" d="M 1081 4666 
L 2541 4666 
Q 3178 4666 3512 4369 
Q 3847 4072 3847 3500 
Q 3847 2731 3353 2303 
Q 2859 1875 1966 1875 
L 1172 1875 
L 806 0 
L 172 0 
L 1081 4666 
z
M 1613 4147 
L 1275 2394 
L 2069 2394 
Q 2606 2394 2893 2669 
Q 3181 2944 3181 3456 
Q 3181 3784 2986 3965 
Q 2791 4147 2438 4147 
L 1613 4147 
z
" transform="scale(0.015625)"/>
       <path id="DejaVuSans-Oblique-4e" d="M 1081 4666 
L 1931 4666 
L 3219 666 
L 4000 4666 
L 4616 4666 
L 3706 0 
L 2853 0 
L 1569 4025 
L 788 0 
L 172 0 
L 1081 4666 
z
" transform="scale(0.015625)"/>
      </defs>
      <use xlink:href="#DejaVuSans-Oblique-50" transform="translate(0 0.09375)"/>
      <use xlink:href="#DejaVuSans-Oblique-4e" transform="translate(60.302734 -16.3125) scale(0.7)"/>
      <use xlink:href="#DejaVuSans-Oblique-4e" transform="translate(112.666016 -16.3125) scale(0.7)"/>
     </g>
    </g>
   </g>
   <g id="line2d_12">
    <path d="M 152.293388 407.30156 
L 173.910124 400.189999 
L 209.938017 395.001793 
L 281.993802 390.290384 
L 498.161157 380.697859 
" clip-path="url(#pbbed6c74c3)" style="fill: none; stroke: #1f77b4; stroke-width: 1.5; stroke-linecap: square"/>
    <defs>
     <path id="m8457a1e56b" d="M 0 3 
C 0.795609 3 1.55874 2.683901 2.12132 2.12132 
C 2.683901 1.55874 3 0.795609 3 0 
C 3 -0.795609 2.683901 -1.55874 2.12132 -2.12132 
C 1.55874 -2.683901 0.795609 -3 0 -3 
C -0.795609 -3 -1.55874 -2.683901 -2.12132 -2.12132 
C -2.683901 -1.55874 -3 -0.795609 -3 0 
C -3 0.795609 -2.683901 1.55874 -2.12132 2.12132 
C -1.55874 2.683901 -0.795609 3 0 3 
z
" style="stroke: #1f77b4"/>
    </defs>
    <g clip-path="url(#pbbed6c74c3)">
     <use xlink:href="#m8457a1e56b" x="152.293388" y="407.30156" style="fill: #1f77b4; stroke: #1f77b4"/>
     <use xlink:href="#m8457a1e56b" x="173.910124" y="400.189999" style="fill: #1f77b4; stroke: #1f77b4"/>
     <use xlink:href="#m8457a1e56b" x="209.938017" y="395.001793" style="fill: #1f77b4; stroke: #1f77b4"/>
     <use xlink:href="#m8457a1e56b" x="281.993802" y="390.290384" style="fill: #1f77b4; stroke: #1f77b4"/>
     <use xlink:href="#m8457a1e56b" x="498.161157" y="380.697859" style="fill: #1f77b4; stroke: #1f77b4"/>
    </g>
   </g>
   <g id="line2d_13">
    <path d="M 152.293388 264.989541 
L 173.910124 252.883725 
L 209.938017 261.821664 
L 281.993802 289.710294 
L 498.161157 332.045089 
" clip-path="url(#pbbed6c74c3)" style="fill: none; stroke: #ff7f0e; stroke-width: 1.5; stroke-linecap: square"/>
    <defs>
     <path id="m36c4fdfb1f" d="M 0 3 
C 0.795609 3 1.55874 2.683901 2.12132 2.12132 
C 2.683901 1.55874 3 0.795609 3 0 
C 3 -0.795609 2.683901 -1.55874 2.12132 -2.12132 
C 1.55874 -2.683901 0.795609 -3 0 -3 
C -0.795609 -3 -1.55874 -2.683901 -2.12132 -2.12132 
C -2.683901 -1.55874 -3 -0.795609 -3 0 
C -3 0.795609 -2.683901 1.55874 -2.12132 2.12132 
C -1.55874 2.683901 -0.795609 3 0 3 
z
" style="stroke: #ff7f0e"/>
    </defs>
    <g clip-path="url(#pbbed6c74c3)">
     <use xlink:href="#m36c4fdfb1f" x="152.293388" y="264.989541" style="fill: #ff7f0e; stroke: #ff7f0e"/>
     <use xlink:href="#m36c4fdfb1f" x="173.910124" y="252.883725" style="fill: #ff7f0e; stroke: #ff7f0e"/>
     <use xlink:href="#m36c4fdfb1f" x="209.938017" y="261.821664" style="fill: #ff7f0e; stroke: #ff7f0e"/>
     <use xlink:href="#m36c4fdfb1f" x="281.993802" y="289.710294" style="fill: #ff7f0e; stroke: #ff7f0e"/>
     <use xlink:href="#m36c4fdfb1f" x="498.161157" y="332.045089" style="fill: #ff7f0e; stroke: #ff7f0e"/>
    </g>
   </g>
   <g id="line2d_14">
    <path d="M 152.293388 325.518616 
L 173.910124 281.944147 
L 209.938017 277.160006 
L 281.993802 295.245997 
L 498.161157 332.882314 
" clip-path="url(#pbbed6c74c3)" style="fill: none; stroke: #2ca02c; stroke-width: 1.5; stroke-linecap: square"/>
    <defs>
     <path id="ma04cb4687c" d="M 0 3 
C 0.795609 3 1.55874 2.683901 2.12132 2.12132 
C 2.683901 1.55874 3 0.795609 3 0 
C 3 -0.795609 2.683901 -1.55874 2.12132 -2.12132 
C 1.55874 -2.683901 0.795609 -3 0 -3 
C -0.795609 -3 -1.55874 -2.683901 -2.12132 -2.12132 
C -2.683901 -1.55874 -3 -0.795609 -3 0 
C -3 0.795609 -2.683901 1.55874 -2.12132 2.12132 
C -1.55874 2.683901 -0.795609 3 0 3 
z
" style="stroke: #2ca02c"/>
    </defs>
    <g clip-path="url(#pbbed6c74c3)">
     <use xlink:href="#ma04cb4687c" x="152.293388" y="325.518616" style="fill: #2ca02c; stroke: #2ca02c"/>
     <use xlink:href="#ma04cb4687c" x="173.910124" y="281.944147" style="fill: #2ca02c; stroke: #2ca02c"/>
     <use xlink:href="#ma04cb4687c" x="209.938017" y="277.160006" style="fill: #2ca02c; stroke: #2ca02c"/>
     <use xlink:href="#ma04cb4687c" x="281.993802" y="295.245997" style="fill: #2ca02c; stroke: #2ca02c"/>
     <use xlink:href="#ma04cb4687c" x="498.161157" y="332.882314" style="fill: #2ca02c; stroke: #2ca02c"/>
    </g>
   </g>
   <g id="line2d_15">
    <path d="M 152.293388 321.397144 
L 173.910124 293.193342 
L 209.938017 285.192837 
L 281.993802 297.670393 
L 498.161157 329.960109 
" clip-path="url(#pbbed6c74c3)" style="fill: none; stroke: #d62728; stroke-width: 1.5; stroke-linecap: square"/>
    <defs>
     <path id="m914e615eeb" d="M 0 3 
C 0.795609 3 1.55874 2.683901 2.12132 2.12132 
C 2.683901 1.55874 3 0.795609 3 0 
C 3 -0.795609 2.683901 -1.55874 2.12132 -2.12132 
C 1.55874 -2.683901 0.795609 -3 0 -3 
C -0.795609 -3 -1.55874 -2.683901 -2.12132 -2.12132 
C -2.683901 -1.55874 -3 -0.795609 -3 0 
C -3 0.795609 -2.683901 1.55874 -2.12132 2.12132 
C -1.55874 2.683901 -0.795609 3 0 3 
z
" style="stroke: #d62728"/>
    </defs>
    <g clip-path="url(#pbbed6c74c3)">
     <use xlink:href="#m914e615eeb" x="152.293388" y="321.397144" style="fill: #d62728; stroke: #d62728"/>
     <use xlink:href="#m914e615eeb" x="173.910124" y="293.193342" style="fill: #d62728; stroke: #d62728"/>
     <use xlink:href="#m914e615eeb" x="209.938017" y="285.192837" style="fill: #d62728; stroke: #d62728"/>
     <use xlink:href="#m914e615eeb" x="281.993802" y="297.670393" style="fill: #d62728; stroke: #d62728"/>
     <use xlink:href="#m914e615eeb" x="498.161157" y="329.960109" style="fill: #d62728; stroke: #d62728"/>
    </g>
   </g>
   <g id="patch_3">
    <path d="M 135 418.130526 
L 135 155.52 
" style="fill: none; stroke: #000000; stroke-width: 0.8; stroke-linejoin: miter; stroke-linecap: square"/>
   </g>
   <g id="patch_4">
    <path d="M 515.454545 418.130526 
L 515.454545 155.52 
" style="fill: none; stroke: #000000; stroke-width: 0.8; stroke-linejoin: miter; stroke-linecap: square"/>
   </g>
   <g id="patch_5">
    <path d="M 135 418.130526 
L 515.454545 418.130526 
" style="fill: none; stroke: #000000; stroke-width: 0.8; stroke-linejoin: miter; stroke-linecap: square"/>
   </g>
   <g id="patch_6">
    <path d="M 135 155.52 
L 515.454545 155.52 
" style="fill: none; stroke: #000000; stroke-width: 0.8; stroke-linejoin: miter; stroke-linecap: square"/>
   </g>
   <g id="text_14">
    <!-- a -->
    <g transform="translate(89.472557 137.404046) scale(0.28 -0.28)">
     <defs>
      <path id="DejaVuSans-Bold-61" d="M 2106 1575 
Q 1756 1575 1579 1456 
Q 1403 1338 1403 1106 
Q 1403 894 1545 773 
Q 1688 653 1941 653 
Q 2256 653 2472 879 
Q 2688 1106 2688 1447 
L 2688 1575 
L 2106 1575 
z
M 3816 1997 
L 3816 0 
L 2688 0 
L 2688 519 
Q 2463 200 2181 54 
Q 1900 -91 1497 -91 
Q 953 -91 614 226 
Q 275 544 275 1050 
Q 275 1666 698 1953 
Q 1122 2241 2028 2241 
L 2688 2241 
L 2688 2328 
Q 2688 2594 2478 2717 
Q 2269 2841 1825 2841 
Q 1466 2841 1156 2769 
Q 847 2697 581 2553 
L 581 3406 
Q 941 3494 1303 3539 
Q 1666 3584 2028 3584 
Q 2975 3584 3395 3211 
Q 3816 2838 3816 1997 
z
" transform="scale(0.015625)"/>
     </defs>
     <use xlink:href="#DejaVuSans-Bold-61"/>
    </g>
   </g>
   <g id="text_15">
    <!-- $P_{NN}$ -->
    <g transform="translate(303.387273 149.52) scale(0.26 -0.26)">
     <use xlink:href="#DejaVuSans-Oblique-50" transform="translate(0 0.09375)"/>
     <use xlink:href="#DejaVuSans-Oblique-4e" transform="translate(60.302734 -16.3125) scale(0.7)"/>
     <use xlink:href="#DejaVuSans-Oblique-4e" transform="translate(112.666016 -16.3125) scale(0.7)"/>
    </g>
   </g>
  </g>
  <g id="axes_2">
   <g id="patch_7">
    <path d="M 591.545455 418.130526 
L 972 418.130526 
L 972 155.52 
L 591.545455 155.52 
z
" style="fill: #ffffff"/>
   </g>
   <g id="patch_8">
    <path d="M 608.838843 418.130526 
L 628.792753 418.130526 
L 628.792753 172.530123 
L 608.838843 172.530123 
z
" clip-path="url(#pb2b6bcce26)" style="fill: #1f77b4"/>
   </g>
   <g id="patch_9">
    <path d="M 741.864908 418.130526 
L 761.818818 418.130526 
L 761.818818 379.420882 
L 741.864908 379.420882 
z
" clip-path="url(#pb2b6bcce26)" style="fill: #1f77b4"/>
   </g>
   <g id="patch_10">
    <path d="M 874.890973 418.130526 
L 894.844882 418.130526 
L 894.844882 168.025263 
L 874.890973 168.025263 
z
" clip-path="url(#pb2b6bcce26)" style="fill: #1f77b4"/>
   </g>
   <g id="patch_11">
    <path d="M 628.792753 418.130526 
L 648.746662 418.130526 
L 648.746662 170.211574 
L 628.792753 170.211574 
z
" clip-path="url(#pb2b6bcce26)" style="fill: #ff7f0e"/>
   </g>
   <g id="patch_12">
    <path d="M 761.818818 418.130526 
L 781.772727 418.130526 
L 781.772727 202.996596 
L 761.818818 202.996596 
z
" clip-path="url(#pb2b6bcce26)" style="fill: #ff7f0e"/>
   </g>
   <g id="patch_13">
    <path d="M 894.844882 418.130526 
L 914.798792 418.130526 
L 914.798792 170.137003 
L 894.844882 170.137003 
z
" clip-path="url(#pb2b6bcce26)" style="fill: #ff7f0e"/>
   </g>
   <g id="patch_14">
    <path d="M 648.746662 418.130526 
L 668.700572 418.130526 
L 668.700572 181.776929 
L 648.746662 181.776929 
z
" clip-path="url(#pb2b6bcce26)" style="fill: #2ca02c"/>
   </g>
   <g id="patch_15">
    <path d="M 781.772727 418.130526 
L 801.726637 418.130526 
L 801.726637 255.639337 
L 781.772727 255.639337 
z
" clip-path="url(#pb2b6bcce26)" style="fill: #2ca02c"/>
   </g>
   <g id="patch_16">
    <path d="M 914.798792 418.130526 
L 934.752702 418.130526 
L 934.752702 181.533118 
L 914.798792 181.533118 
z
" clip-path="url(#pb2b6bcce26)" style="fill: #2ca02c"/>
   </g>
   <g id="patch_17">
    <path d="M 668.700572 418.130526 
L 688.654482 418.130526 
L 688.654482 175.387884 
L 668.700572 175.387884 
z
" clip-path="url(#pb2b6bcce26)" style="fill: #d62728"/>
   </g>
   <g id="patch_18">
    <path d="M 801.726637 418.130526 
L 821.680547 418.130526 
L 821.680547 253.999464 
L 801.726637 253.999464 
z
" clip-path="url(#pb2b6bcce26)" style="fill: #d62728"/>
   </g>
   <g id="patch_19">
    <path d="M 934.752702 418.130526 
L 954.706612 418.130526 
L 954.706612 175.051879 
L 934.752702 175.051879 
z
" clip-path="url(#pb2b6bcce26)" style="fill: #d62728"/>
   </g>
   <g id="matplotlib.axis_3">
    <g id="xtick_7">
     <g id="line2d_16">
      <g>
       <use xlink:href="#me0214b938d" x="648.746662" y="418.130526" style="stroke: #000000; stroke-width: 0.8"/>
      </g>
     </g>
     <g id="text_16">
      <!-- AUC -->
      <g transform="translate(625.490256 441.847089) scale(0.22 -0.22)">
       <defs>
        <path id="DejaVuSans-41" d="M 2188 4044 
L 1331 1722 
L 3047 1722 
L 2188 4044 
z
M 1831 4666 
L 2547 4666 
L 4325 0 
L 3669 0 
L 3244 1197 
L 1141 1197 
L 716 0 
L 50 0 
L 1831 4666 
z
" transform="scale(0.015625)"/>
        <path id="DejaVuSans-55" d="M 556 4666 
L 1191 4666 
L 1191 1831 
Q 1191 1081 1462 751 
Q 1734 422 2344 422 
Q 2950 422 3222 751 
Q 3494 1081 3494 1831 
L 3494 4666 
L 4128 4666 
L 4128 1753 
Q 4128 841 3676 375 
Q 3225 -91 2344 -91 
Q 1459 -91 1007 375 
Q 556 841 556 1753 
L 556 4666 
z
" transform="scale(0.015625)"/>
        <path id="DejaVuSans-43" d="M 4122 4306 
L 4122 3641 
Q 3803 3938 3442 4084 
Q 3081 4231 2675 4231 
Q 1875 4231 1450 3742 
Q 1025 3253 1025 2328 
Q 1025 1406 1450 917 
Q 1875 428 2675 428 
Q 3081 428 3442 575 
Q 3803 722 4122 1019 
L 4122 359 
Q 3791 134 3420 21 
Q 3050 -91 2638 -91 
Q 1578 -91 968 557 
Q 359 1206 359 2328 
Q 359 3453 968 4101 
Q 1578 4750 2638 4750 
Q 3056 4750 3426 4639 
Q 3797 4528 4122 4306 
z
" transform="scale(0.015625)"/>
       </defs>
       <use xlink:href="#DejaVuSans-41"/>
       <use xlink:href="#DejaVuSans-55" x="68.408203"/>
       <use xlink:href="#DejaVuSans-43" x="141.601562"/>
      </g>
     </g>
    </g>
    <g id="xtick_8">
     <g id="line2d_17">
      <g>
       <use xlink:href="#me0214b938d" x="781.772727" y="418.130526" style="stroke: #000000; stroke-width: 0.8"/>
      </g>
     </g>
     <g id="text_17">
      <!-- $Q_{local}$ -->
      <g transform="translate(754.822727 441.847089) scale(0.22 -0.22)">
       <defs>
        <path id="DejaVuSans-Oblique-51" d="M 2309 -84 
Q 2275 -88 2237 -89 
Q 2200 -91 2125 -91 
Q 1250 -91 756 411 
Q 263 913 263 1797 
Q 263 2319 452 2844 
Q 641 3369 978 3788 
Q 1369 4269 1858 4509 
Q 2347 4750 2938 4750 
Q 3794 4750 4287 4245 
Q 4781 3741 4781 2869 
Q 4781 1928 4265 1147 
Q 3750 366 2919 44 
L 3553 -825 
L 2847 -825 
L 2309 -84 
z
M 2919 4238 
Q 2400 4238 2003 3986 
Q 1606 3734 1313 3219 
Q 1125 2891 1026 2522 
Q 928 2153 928 1778 
Q 928 1128 1239 775 
Q 1550 422 2119 422 
Q 2631 422 3032 676 
Q 3434 931 3719 1434 
Q 3909 1772 4009 2142 
Q 4109 2513 4109 2881 
Q 4109 3528 3796 3883 
Q 3484 4238 2919 4238 
z
" transform="scale(0.015625)"/>
        <path id="DejaVuSans-Oblique-6c" d="M 1172 4863 
L 1747 4863 
L 800 0 
L 225 0 
L 1172 4863 
z
" transform="scale(0.015625)"/>
        <path id="DejaVuSans-Oblique-6f" d="M 1625 -91 
Q 1009 -91 651 289 
Q 294 669 294 1325 
Q 294 1706 417 2101 
Q 541 2497 738 2766 
Q 1047 3184 1428 3384 
Q 1809 3584 2291 3584 
Q 2888 3584 3255 3212 
Q 3622 2841 3622 2241 
Q 3622 1825 3500 1412 
Q 3378 1000 3181 728 
Q 2875 309 2494 109 
Q 2113 -91 1625 -91 
z
M 891 1344 
Q 891 869 1089 633 
Q 1288 397 1691 397 
Q 2269 397 2648 901 
Q 3028 1406 3028 2181 
Q 3028 2634 2825 2865 
Q 2622 3097 2228 3097 
Q 1903 3097 1650 2945 
Q 1397 2794 1197 2484 
Q 1050 2253 970 1956 
Q 891 1659 891 1344 
z
" transform="scale(0.015625)"/>
        <path id="DejaVuSans-Oblique-63" d="M 3431 3366 
L 3316 2797 
Q 3109 2947 2876 3022 
Q 2644 3097 2394 3097 
Q 2119 3097 1870 3000 
Q 1622 2903 1453 2725 
Q 1184 2453 1037 2087 
Q 891 1722 891 1331 
Q 891 859 1127 628 
Q 1363 397 1844 397 
Q 2081 397 2348 469 
Q 2616 541 2906 684 
L 2797 116 
Q 2547 13 2283 -39 
Q 2019 -91 1741 -91 
Q 1044 -91 669 257 
Q 294 606 294 1253 
Q 294 1797 489 2255 
Q 684 2713 1069 3078 
Q 1331 3328 1684 3456 
Q 2038 3584 2456 3584 
Q 2700 3584 2940 3529 
Q 3181 3475 3431 3366 
z
" transform="scale(0.015625)"/>
        <path id="DejaVuSans-Oblique-61" d="M 3438 1997 
L 3047 0 
L 2472 0 
L 2578 531 
Q 2325 219 2001 64 
Q 1678 -91 1281 -91 
Q 834 -91 548 182 
Q 263 456 263 884 
Q 263 1497 752 1853 
Q 1241 2209 2100 2209 
L 2900 2209 
L 2931 2363 
Q 2938 2388 2941 2417 
Q 2944 2447 2944 2509 
Q 2944 2788 2717 2942 
Q 2491 3097 2081 3097 
Q 1800 3097 1504 3025 
Q 1209 2953 897 2809 
L 997 3341 
Q 1322 3463 1633 3523 
Q 1944 3584 2234 3584 
Q 2853 3584 3176 3315 
Q 3500 3047 3500 2534 
Q 3500 2431 3484 2292 
Q 3469 2153 3438 1997 
z
M 2816 1759 
L 2241 1759 
Q 1534 1759 1195 1570 
Q 856 1381 856 984 
Q 856 709 1029 553 
Q 1203 397 1509 397 
Q 1978 397 2328 733 
Q 2678 1069 2791 1631 
L 2816 1759 
z
" transform="scale(0.015625)"/>
       </defs>
       <use xlink:href="#DejaVuSans-Oblique-51" transform="translate(0 0.78125)"/>
       <use xlink:href="#DejaVuSans-Oblique-6c" transform="translate(78.710938 -15.625) scale(0.7)"/>
       <use xlink:href="#DejaVuSans-Oblique-6f" transform="translate(98.15918 -15.625) scale(0.7)"/>
       <use xlink:href="#DejaVuSans-Oblique-63" transform="translate(140.986328 -15.625) scale(0.7)"/>
       <use xlink:href="#DejaVuSans-Oblique-61" transform="translate(179.472656 -15.625) scale(0.7)"/>
       <use xlink:href="#DejaVuSans-Oblique-6c" transform="translate(222.368164 -15.625) scale(0.7)"/>
      </g>
     </g>
    </g>
    <g id="xtick_9">
     <g id="line2d_18">
      <g>
       <use xlink:href="#me0214b938d" x="914.798792" y="418.130526" style="stroke: #000000; stroke-width: 0.8"/>
      </g>
     </g>
     <g id="text_18">
      <!-- $Q_{global}$ -->
      <g transform="translate(882.348792 441.630526) scale(0.22 -0.22)">
       <defs>
        <path id="DejaVuSans-Oblique-67" d="M 3816 3500 
L 3219 434 
Q 3047 -456 2561 -893 
Q 2075 -1331 1253 -1331 
Q 950 -1331 690 -1286 
Q 431 -1241 206 -1147 
L 313 -588 
Q 525 -725 762 -790 
Q 1000 -856 1269 -856 
Q 1816 -856 2167 -557 
Q 2519 -259 2631 300 
L 2681 563 
Q 2441 288 2122 144 
Q 1803 0 1434 0 
Q 903 0 598 351 
Q 294 703 294 1319 
Q 294 1803 478 2267 
Q 663 2731 997 3091 
Q 1219 3328 1514 3456 
Q 1809 3584 2131 3584 
Q 2484 3584 2746 3420 
Q 3009 3256 3138 2956 
L 3238 3500 
L 3816 3500 
z
M 2950 2216 
Q 2950 2641 2750 2872 
Q 2550 3103 2181 3103 
Q 1953 3103 1747 3012 
Q 1541 2922 1394 2759 
Q 1156 2491 1023 2127 
Q 891 1763 891 1375 
Q 891 944 1092 712 
Q 1294 481 1672 481 
Q 2219 481 2584 976 
Q 2950 1472 2950 2216 
z
" transform="scale(0.015625)"/>
        <path id="DejaVuSans-Oblique-62" d="M 3169 2138 
Q 3169 2591 2961 2847 
Q 2753 3103 2388 3103 
Q 2122 3103 1889 2973 
Q 1656 2844 1484 2597 
Q 1303 2338 1198 1995 
Q 1094 1653 1094 1313 
Q 1094 881 1298 636 
Q 1503 391 1863 391 
Q 2134 391 2365 517 
Q 2597 644 2772 891 
Q 2950 1147 3059 1487 
Q 3169 1828 3169 2138 
z
M 1381 2969 
Q 1594 3256 1914 3420 
Q 2234 3584 2584 3584 
Q 3122 3584 3439 3221 
Q 3756 2859 3756 2241 
Q 3756 1734 3570 1259 
Q 3384 784 3041 416 
Q 2816 172 2522 40 
Q 2228 -91 1906 -91 
Q 1566 -91 1316 65 
Q 1066 222 909 531 
L 806 0 
L 231 0 
L 1178 4863 
L 1753 4863 
L 1381 2969 
z
" transform="scale(0.015625)"/>
       </defs>
       <use xlink:href="#DejaVuSans-Oblique-51" transform="translate(0 0.78125)"/>
       <use xlink:href="#DejaVuSans-Oblique-67" transform="translate(78.710938 -15.625) scale(0.7)"/>
       <use xlink:href="#DejaVuSans-Oblique-6c" transform="translate(123.144531 -15.625) scale(0.7)"/>
       <use xlink:href="#DejaVuSans-Oblique-6f" transform="translate(142.592773 -15.625) scale(0.7)"/>
       <use xlink:href="#DejaVuSans-Oblique-62" transform="translate(185.419922 -15.625) scale(0.7)"/>
       <use xlink:href="#DejaVuSans-Oblique-61" transform="translate(229.853516 -15.625) scale(0.7)"/>
       <use xlink:href="#DejaVuSans-Oblique-6c" transform="translate(272.749023 -15.625) scale(0.7)"/>
      </g>
     </g>
    </g>
   </g>
   <g id="matplotlib.axis_4">
    <g id="ytick_6">
     <g id="line2d_19">
      <g>
       <use xlink:href="#m1b08dbd0aa" x="591.545455" y="418.130526" style="stroke: #000000; stroke-width: 0.8"/>
      </g>
     </g>
     <g id="text_19">
      <!-- 0.0 -->
      <g transform="translate(549.55858 426.488808) scale(0.22 -0.22)">
       <use xlink:href="#DejaVuSans-30"/>
       <use xlink:href="#DejaVuSans-2e" x="63.623047"/>
       <use xlink:href="#DejaVuSans-30" x="95.410156"/>
      </g>
     </g>
    </g>
    <g id="ytick_7">
     <g id="line2d_20">
      <g>
       <use xlink:href="#m1b08dbd0aa" x="591.545455" y="326.298853" style="stroke: #000000; stroke-width: 0.8"/>
      </g>
     </g>
     <g id="text_20">
      <!-- 0.2 -->
      <g transform="translate(549.55858 334.657135) scale(0.22 -0.22)">
       <use xlink:href="#DejaVuSans-30"/>
       <use xlink:href="#DejaVuSans-2e" x="63.623047"/>
       <use xlink:href="#DejaVuSans-32" x="95.410156"/>
      </g>
     </g>
    </g>
    <g id="ytick_8">
     <g id="line2d_21">
      <g>
       <use xlink:href="#m1b08dbd0aa" x="591.545455" y="234.467181" style="stroke: #000000; stroke-width: 0.8"/>
      </g>
     </g>
     <g id="text_21">
      <!-- 0.4 -->
      <g transform="translate(549.55858 242.825462) scale(0.22 -0.22)">
       <use xlink:href="#DejaVuSans-30"/>
       <use xlink:href="#DejaVuSans-2e" x="63.623047"/>
       <use xlink:href="#DejaVuSans-34" x="95.410156"/>
      </g>
     </g>
    </g>
    <g id="text_22">
     <!-- Metric Value -->
     <g transform="translate(540.983267 354.727919) rotate(-90) scale(0.22 -0.22)">
      <defs>
       <path id="DejaVuSans-4d" d="M 628 4666 
L 1569 4666 
L 2759 1491 
L 3956 4666 
L 4897 4666 
L 4897 0 
L 4281 0 
L 4281 4097 
L 3078 897 
L 2444 897 
L 1241 4097 
L 1241 0 
L 628 0 
L 628 4666 
z
" transform="scale(0.015625)"/>
       <path id="DejaVuSans-65" d="M 3597 1894 
L 3597 1613 
L 953 1613 
Q 991 1019 1311 708 
Q 1631 397 2203 397 
Q 2534 397 2845 478 
Q 3156 559 3463 722 
L 3463 178 
Q 3153 47 2828 -22 
Q 2503 -91 2169 -91 
Q 1331 -91 842 396 
Q 353 884 353 1716 
Q 353 2575 817 3079 
Q 1281 3584 2069 3584 
Q 2775 3584 3186 3129 
Q 3597 2675 3597 1894 
z
M 3022 2063 
Q 3016 2534 2758 2815 
Q 2500 3097 2075 3097 
Q 1594 3097 1305 2825 
Q 1016 2553 972 2059 
L 3022 2063 
z
" transform="scale(0.015625)"/>
       <path id="DejaVuSans-74" d="M 1172 4494 
L 1172 3500 
L 2356 3500 
L 2356 3053 
L 1172 3053 
L 1172 1153 
Q 1172 725 1289 603 
Q 1406 481 1766 481 
L 2356 481 
L 2356 0 
L 1766 0 
Q 1100 0 847 248 
Q 594 497 594 1153 
L 594 3053 
L 172 3053 
L 172 3500 
L 594 3500 
L 594 4494 
L 1172 4494 
z
" transform="scale(0.015625)"/>
       <path id="DejaVuSans-72" d="M 2631 2963 
Q 2534 3019 2420 3045 
Q 2306 3072 2169 3072 
Q 1681 3072 1420 2755 
Q 1159 2438 1159 1844 
L 1159 0 
L 581 0 
L 581 3500 
L 1159 3500 
L 1159 2956 
Q 1341 3275 1631 3429 
Q 1922 3584 2338 3584 
Q 2397 3584 2469 3576 
Q 2541 3569 2628 3553 
L 2631 2963 
z
" transform="scale(0.015625)"/>
       <path id="DejaVuSans-69" d="M 603 3500 
L 1178 3500 
L 1178 0 
L 603 0 
L 603 3500 
z
M 603 4863 
L 1178 4863 
L 1178 4134 
L 603 4134 
L 603 4863 
z
" transform="scale(0.015625)"/>
       <path id="DejaVuSans-63" d="M 3122 3366 
L 3122 2828 
Q 2878 2963 2633 3030 
Q 2388 3097 2138 3097 
Q 1578 3097 1268 2742 
Q 959 2388 959 1747 
Q 959 1106 1268 751 
Q 1578 397 2138 397 
Q 2388 397 2633 464 
Q 2878 531 3122 666 
L 3122 134 
Q 2881 22 2623 -34 
Q 2366 -91 2075 -91 
Q 1284 -91 818 406 
Q 353 903 353 1747 
Q 353 2603 823 3093 
Q 1294 3584 2113 3584 
Q 2378 3584 2631 3529 
Q 2884 3475 3122 3366 
z
" transform="scale(0.015625)"/>
       <path id="DejaVuSans-20" transform="scale(0.015625)"/>
       <path id="DejaVuSans-56" d="M 1831 0 
L 50 4666 
L 709 4666 
L 2188 738 
L 3669 4666 
L 4325 4666 
L 2547 0 
L 1831 0 
z
" transform="scale(0.015625)"/>
       <path id="DejaVuSans-61" d="M 2194 1759 
Q 1497 1759 1228 1600 
Q 959 1441 959 1056 
Q 959 750 1161 570 
Q 1363 391 1709 391 
Q 2188 391 2477 730 
Q 2766 1069 2766 1631 
L 2766 1759 
L 2194 1759 
z
M 3341 1997 
L 3341 0 
L 2766 0 
L 2766 531 
Q 2569 213 2275 61 
Q 1981 -91 1556 -91 
Q 1019 -91 701 211 
Q 384 513 384 1019 
Q 384 1609 779 1909 
Q 1175 2209 1959 2209 
L 2766 2209 
L 2766 2266 
Q 2766 2663 2505 2880 
Q 2244 3097 1772 3097 
Q 1472 3097 1187 3025 
Q 903 2953 641 2809 
L 641 3341 
Q 956 3463 1253 3523 
Q 1550 3584 1831 3584 
Q 2591 3584 2966 3190 
Q 3341 2797 3341 1997 
z
" transform="scale(0.015625)"/>
       <path id="DejaVuSans-6c" d="M 603 4863 
L 1178 4863 
L 1178 0 
L 603 0 
L 603 4863 
z
" transform="scale(0.015625)"/>
       <path id="DejaVuSans-75" d="M 544 1381 
L 544 3500 
L 1119 3500 
L 1119 1403 
Q 1119 906 1312 657 
Q 1506 409 1894 409 
Q 2359 409 2629 706 
Q 2900 1003 2900 1516 
L 2900 3500 
L 3475 3500 
L 3475 0 
L 2900 0 
L 2900 538 
Q 2691 219 2414 64 
Q 2138 -91 1772 -91 
Q 1169 -91 856 284 
Q 544 659 544 1381 
z
M 1991 3584 
L 1991 3584 
z
" transform="scale(0.015625)"/>
      </defs>
      <use xlink:href="#DejaVuSans-4d"/>
      <use xlink:href="#DejaVuSans-65" x="86.279297"/>
      <use xlink:href="#DejaVuSans-74" x="147.802734"/>
      <use xlink:href="#DejaVuSans-72" x="187.011719"/>
      <use xlink:href="#DejaVuSans-69" x="228.125"/>
      <use xlink:href="#DejaVuSans-63" x="255.908203"/>
      <use xlink:href="#DejaVuSans-20" x="310.888672"/>
      <use xlink:href="#DejaVuSans-56" x="342.675781"/>
      <use xlink:href="#DejaVuSans-61" x="403.333984"/>
      <use xlink:href="#DejaVuSans-6c" x="464.613281"/>
      <use xlink:href="#DejaVuSans-75" x="492.396484"/>
      <use xlink:href="#DejaVuSans-65" x="555.775391"/>
     </g>
    </g>
   </g>
   <g id="patch_20">
    <path d="M 591.545455 418.130526 
L 591.545455 155.52 
" style="fill: none; stroke: #000000; stroke-width: 0.8; stroke-linejoin: miter; stroke-linecap: square"/>
   </g>
   <g id="patch_21">
    <path d="M 972 418.130526 
L 972 155.52 
" style="fill: none; stroke: #000000; stroke-width: 0.8; stroke-linejoin: miter; stroke-linecap: square"/>
   </g>
   <g id="patch_22">
    <path d="M 591.545455 418.130526 
L 972 418.130526 
" style="fill: none; stroke: #000000; stroke-width: 0.8; stroke-linejoin: miter; stroke-linecap: square"/>
   </g>
   <g id="patch_23">
    <path d="M 591.545455 155.52 
L 972 155.52 
" style="fill: none; stroke: #000000; stroke-width: 0.8; stroke-linejoin: miter; stroke-linecap: square"/>
   </g>
   <g id="text_23">
    <!-- b -->
    <g transform="translate(544.871761 137.404046) scale(0.28 -0.28)">
     <defs>
      <path id="DejaVuSans-Bold-62" d="M 2400 722 
Q 2759 722 2948 984 
Q 3138 1247 3138 1747 
Q 3138 2247 2948 2509 
Q 2759 2772 2400 2772 
Q 2041 2772 1848 2508 
Q 1656 2244 1656 1747 
Q 1656 1250 1848 986 
Q 2041 722 2400 722 
z
M 1656 2988 
Q 1888 3294 2169 3439 
Q 2450 3584 2816 3584 
Q 3463 3584 3878 3070 
Q 4294 2556 4294 1747 
Q 4294 938 3878 423 
Q 3463 -91 2816 -91 
Q 2450 -91 2169 54 
Q 1888 200 1656 506 
L 1656 0 
L 538 0 
L 538 4863 
L 1656 4863 
L 1656 2988 
z
" transform="scale(0.015625)"/>
     </defs>
     <use xlink:href="#DejaVuSans-Bold-62"/>
    </g>
   </g>
   <g id="text_24">
    <!-- Metrics -->
    <g transform="translate(734.584759 149.52) scale(0.26 -0.26)">
     <defs>
      <path id="DejaVuSans-73" d="M 2834 3397 
L 2834 2853 
Q 2591 2978 2328 3040 
Q 2066 3103 1784 3103 
Q 1356 3103 1142 2972 
Q 928 2841 928 2578 
Q 928 2378 1081 2264 
Q 1234 2150 1697 2047 
L 1894 2003 
Q 2506 1872 2764 1633 
Q 3022 1394 3022 966 
Q 3022 478 2636 193 
Q 2250 -91 1575 -91 
Q 1294 -91 989 -36 
Q 684 19 347 128 
L 347 722 
Q 666 556 975 473 
Q 1284 391 1588 391 
Q 1994 391 2212 530 
Q 2431 669 2431 922 
Q 2431 1156 2273 1281 
Q 2116 1406 1581 1522 
L 1381 1569 
Q 847 1681 609 1914 
Q 372 2147 372 2553 
Q 372 3047 722 3315 
Q 1072 3584 1716 3584 
Q 2034 3584 2315 3537 
Q 2597 3491 2834 3397 
z
" transform="scale(0.015625)"/>
     </defs>
     <use xlink:href="#DejaVuSans-4d"/>
     <use xlink:href="#DejaVuSans-65" x="86.279297"/>
     <use xlink:href="#DejaVuSans-74" x="147.802734"/>
     <use xlink:href="#DejaVuSans-72" x="187.011719"/>
     <use xlink:href="#DejaVuSans-69" x="228.125"/>
     <use xlink:href="#DejaVuSans-63" x="255.908203"/>
     <use xlink:href="#DejaVuSans-73" x="310.888672"/>
    </g>
   </g>
  </g>
  <g id="axes_3">
   <g id="patch_24">
    <path d="M 135 785.785263 
L 515.454545 785.785263 
L 515.454545 523.174737 
L 135 523.174737 
z
" style="fill: #ffffff"/>
   </g>
   <g id="matplotlib.axis_5">
    <g id="xtick_10">
     <g id="line2d_22">
      <g>
       <use xlink:href="#me0214b938d" x="137.882231" y="785.785263" style="stroke: #000000; stroke-width: 0.8"/>
      </g>
     </g>
     <g id="text_25">
      <!-- 0 -->
      <g transform="translate(130.883481 809.501826) scale(0.22 -0.22)">
       <use xlink:href="#DejaVuSans-30"/>
      </g>
     </g>
    </g>
    <g id="xtick_11">
     <g id="line2d_23">
      <g>
       <use xlink:href="#me0214b938d" x="281.993802" y="785.785263" style="stroke: #000000; stroke-width: 0.8"/>
      </g>
     </g>
     <g id="text_26">
      <!-- 20 -->
      <g transform="translate(267.996302 809.501826) scale(0.22 -0.22)">
       <use xlink:href="#DejaVuSans-32"/>
       <use xlink:href="#DejaVuSans-30" x="63.623047"/>
      </g>
     </g>
    </g>
    <g id="xtick_12">
     <g id="line2d_24">
      <g>
       <use xlink:href="#me0214b938d" x="426.105372" y="785.785263" style="stroke: #000000; stroke-width: 0.8"/>
      </g>
     </g>
     <g id="text_27">
      <!-- 40 -->
      <g transform="translate(412.107872 809.501826) scale(0.22 -0.22)">
       <use xlink:href="#DejaVuSans-34"/>
       <use xlink:href="#DejaVuSans-30" x="63.623047"/>
      </g>
     </g>
    </g>
    <g id="text_28">
     <!-- k -->
     <g transform="translate(318.278523 836.313388) scale(0.24 -0.24)">
      <use xlink:href="#DejaVuSans-6b"/>
     </g>
    </g>
   </g>
   <g id="matplotlib.axis_6">
    <g id="ytick_9">
     <g id="line2d_25">
      <g>
       <use xlink:href="#m1b08dbd0aa" x="135" y="753.820232" style="stroke: #000000; stroke-width: 0.8"/>
      </g>
     </g>
     <g id="text_29">
      <!-- 0.6 -->
      <g transform="translate(93.013125 762.178514) scale(0.22 -0.22)">
       <use xlink:href="#DejaVuSans-30"/>
       <use xlink:href="#DejaVuSans-2e" x="63.623047"/>
       <use xlink:href="#DejaVuSans-36" x="95.410156"/>
      </g>
     </g>
    </g>
    <g id="ytick_10">
     <g id="line2d_26">
      <g>
       <use xlink:href="#m1b08dbd0aa" x="135" y="684.463075" style="stroke: #000000; stroke-width: 0.8"/>
      </g>
     </g>
     <g id="text_30">
      <!-- 0.7 -->
      <g transform="translate(93.013125 692.821356) scale(0.22 -0.22)">
       <defs>
        <path id="DejaVuSans-37" d="M 525 4666 
L 3525 4666 
L 3525 4397 
L 1831 0 
L 1172 0 
L 2766 4134 
L 525 4134 
L 525 4666 
z
" transform="scale(0.015625)"/>
       </defs>
       <use xlink:href="#DejaVuSans-30"/>
       <use xlink:href="#DejaVuSans-2e" x="63.623047"/>
       <use xlink:href="#DejaVuSans-37" x="95.410156"/>
      </g>
     </g>
    </g>
    <g id="ytick_11">
     <g id="line2d_27">
      <g>
       <use xlink:href="#m1b08dbd0aa" x="135" y="615.105917" style="stroke: #000000; stroke-width: 0.8"/>
      </g>
     </g>
     <g id="text_31">
      <!-- 0.8 -->
      <g transform="translate(93.013125 623.464198) scale(0.22 -0.22)">
       <use xlink:href="#DejaVuSans-30"/>
       <use xlink:href="#DejaVuSans-2e" x="63.623047"/>
       <use xlink:href="#DejaVuSans-38" x="95.410156"/>
      </g>
     </g>
    </g>
    <g id="ytick_12">
     <g id="line2d_28">
      <g>
       <use xlink:href="#m1b08dbd0aa" x="135" y="545.748759" style="stroke: #000000; stroke-width: 0.8"/>
      </g>
     </g>
     <g id="text_32">
      <!-- 0.9 -->
      <g transform="translate(93.013125 554.107041) scale(0.22 -0.22)">
       <defs>
        <path id="DejaVuSans-39" d="M 703 97 
L 703 672 
Q 941 559 1184 500 
Q 1428 441 1663 441 
Q 2288 441 2617 861 
Q 2947 1281 2994 2138 
Q 2813 1869 2534 1725 
Q 2256 1581 1919 1581 
Q 1219 1581 811 2004 
Q 403 2428 403 3163 
Q 403 3881 828 4315 
Q 1253 4750 1959 4750 
Q 2769 4750 3195 4129 
Q 3622 3509 3622 2328 
Q 3622 1225 3098 567 
Q 2575 -91 1691 -91 
Q 1453 -91 1209 -44 
Q 966 3 703 97 
z
M 1959 2075 
Q 2384 2075 2632 2365 
Q 2881 2656 2881 3163 
Q 2881 3666 2632 3958 
Q 2384 4250 1959 4250 
Q 1534 4250 1286 3958 
Q 1038 3666 1038 3163 
Q 1038 2656 1286 2365 
Q 1534 2075 1959 2075 
z
" transform="scale(0.015625)"/>
       </defs>
       <use xlink:href="#DejaVuSans-30"/>
       <use xlink:href="#DejaVuSans-2e" x="63.623047"/>
       <use xlink:href="#DejaVuSans-39" x="95.410156"/>
      </g>
     </g>
    </g>
    <g id="text_33">
     <!-- Metric Value -->
     <g transform="translate(84.021875 728.555625) rotate(-90) scale(0.24 -0.24)">
      <use xlink:href="#DejaVuSans-4d"/>
      <use xlink:href="#DejaVuSans-65" x="86.279297"/>
      <use xlink:href="#DejaVuSans-74" x="147.802734"/>
      <use xlink:href="#DejaVuSans-72" x="187.011719"/>
      <use xlink:href="#DejaVuSans-69" x="228.125"/>
      <use xlink:href="#DejaVuSans-63" x="255.908203"/>
      <use xlink:href="#DejaVuSans-20" x="310.888672"/>
      <use xlink:href="#DejaVuSans-56" x="342.675781"/>
      <use xlink:href="#DejaVuSans-61" x="403.333984"/>
      <use xlink:href="#DejaVuSans-6c" x="464.613281"/>
      <use xlink:href="#DejaVuSans-75" x="492.396484"/>
      <use xlink:href="#DejaVuSans-65" x="555.775391"/>
     </g>
    </g>
   </g>
   <g id="line2d_29">
    <path d="M 152.293388 772.012485 
L 173.910124 770.636154 
L 209.938017 772.034659 
L 281.993802 773.103557 
L 498.161157 773.848421 
" clip-path="url(#pa4e0e51853)" style="fill: none; stroke: #1f77b4; stroke-width: 1.5; stroke-linecap: square"/>
    <g clip-path="url(#pa4e0e51853)">
     <use xlink:href="#m8457a1e56b" x="152.293388" y="772.012485" style="fill: #1f77b4; stroke: #1f77b4"/>
     <use xlink:href="#m8457a1e56b" x="173.910124" y="770.636154" style="fill: #1f77b4; stroke: #1f77b4"/>
     <use xlink:href="#m8457a1e56b" x="209.938017" y="772.034659" style="fill: #1f77b4; stroke: #1f77b4"/>
     <use xlink:href="#m8457a1e56b" x="281.993802" y="773.103557" style="fill: #1f77b4; stroke: #1f77b4"/>
     <use xlink:href="#m8457a1e56b" x="498.161157" y="773.848421" style="fill: #1f77b4; stroke: #1f77b4"/>
    </g>
   </g>
   <g id="line2d_30">
    <path d="M 152.293388 535.111579 
L 173.910124 572.050226 
L 209.938017 612.642849 
L 281.993802 662.734719 
L 498.161157 722.75198 
" clip-path="url(#pa4e0e51853)" style="fill: none; stroke: #ff7f0e; stroke-width: 1.5; stroke-linecap: square"/>
    <g clip-path="url(#pa4e0e51853)">
     <use xlink:href="#m36c4fdfb1f" x="152.293388" y="535.111579" style="fill: #ff7f0e; stroke: #ff7f0e"/>
     <use xlink:href="#m36c4fdfb1f" x="173.910124" y="572.050226" style="fill: #ff7f0e; stroke: #ff7f0e"/>
     <use xlink:href="#m36c4fdfb1f" x="209.938017" y="612.642849" style="fill: #ff7f0e; stroke: #ff7f0e"/>
     <use xlink:href="#m36c4fdfb1f" x="281.993802" y="662.734719" style="fill: #ff7f0e; stroke: #ff7f0e"/>
     <use xlink:href="#m36c4fdfb1f" x="498.161157" y="722.75198" style="fill: #ff7f0e; stroke: #ff7f0e"/>
    </g>
   </g>
   <g id="line2d_31">
    <path d="M 152.293388 578.424722 
L 173.910124 596.489149 
L 209.938017 623.730712 
L 281.993802 670.735557 
L 498.161157 725.086546 
" clip-path="url(#pa4e0e51853)" style="fill: none; stroke: #2ca02c; stroke-width: 1.5; stroke-linecap: square"/>
    <g clip-path="url(#pa4e0e51853)">
     <use xlink:href="#ma04cb4687c" x="152.293388" y="578.424722" style="fill: #2ca02c; stroke: #2ca02c"/>
     <use xlink:href="#ma04cb4687c" x="173.910124" y="596.489149" style="fill: #2ca02c; stroke: #2ca02c"/>
     <use xlink:href="#ma04cb4687c" x="209.938017" y="623.730712" style="fill: #2ca02c; stroke: #2ca02c"/>
     <use xlink:href="#ma04cb4687c" x="281.993802" y="670.735557" style="fill: #2ca02c; stroke: #2ca02c"/>
     <use xlink:href="#ma04cb4687c" x="498.161157" y="725.086546" style="fill: #2ca02c; stroke: #2ca02c"/>
    </g>
   </g>
   <g id="line2d_32">
    <path d="M 152.293388 556.926264 
L 173.910124 574.256745 
L 209.938017 599.068605 
L 281.993802 643.078356 
L 498.161157 709.809438 
" clip-path="url(#pa4e0e51853)" style="fill: none; stroke: #d62728; stroke-width: 1.5; stroke-linecap: square"/>
    <g clip-path="url(#pa4e0e51853)">
     <use xlink:href="#m914e615eeb" x="152.293388" y="556.926264" style="fill: #d62728; stroke: #d62728"/>
     <use xlink:href="#m914e615eeb" x="173.910124" y="574.256745" style="fill: #d62728; stroke: #d62728"/>
     <use xlink:href="#m914e615eeb" x="209.938017" y="599.068605" style="fill: #d62728; stroke: #d62728"/>
     <use xlink:href="#m914e615eeb" x="281.993802" y="643.078356" style="fill: #d62728; stroke: #d62728"/>
     <use xlink:href="#m914e615eeb" x="498.161157" y="709.809438" style="fill: #d62728; stroke: #d62728"/>
    </g>
   </g>
   <g id="patch_25">
    <path d="M 135 785.785263 
L 135 523.174737 
" style="fill: none; stroke: #000000; stroke-width: 0.8; stroke-linejoin: miter; stroke-linecap: square"/>
   </g>
   <g id="patch_26">
    <path d="M 515.454545 785.785263 
L 515.454545 523.174737 
" style="fill: none; stroke: #000000; stroke-width: 0.8; stroke-linejoin: miter; stroke-linecap: square"/>
   </g>
   <g id="patch_27">
    <path d="M 135 785.785263 
L 515.454545 785.785263 
" style="fill: none; stroke: #000000; stroke-width: 0.8; stroke-linejoin: miter; stroke-linecap: square"/>
   </g>
   <g id="patch_28">
    <path d="M 135 523.174737 
L 515.454545 523.174737 
" style="fill: none; stroke: #000000; stroke-width: 0.8; stroke-linejoin: miter; stroke-linecap: square"/>
   </g>
   <g id="text_34">
    <!-- c -->
    <g transform="translate(91.769432 505.058783) scale(0.28 -0.28)">
     <defs>
      <path id="DejaVuSans-Bold-63" d="M 3366 3391 
L 3366 2478 
Q 3138 2634 2908 2709 
Q 2678 2784 2431 2784 
Q 1963 2784 1702 2511 
Q 1441 2238 1441 1747 
Q 1441 1256 1702 982 
Q 1963 709 2431 709 
Q 2694 709 2930 787 
Q 3166 866 3366 1019 
L 3366 103 
Q 3103 6 2833 -42 
Q 2563 -91 2291 -91 
Q 1344 -91 809 395 
Q 275 881 275 1747 
Q 275 2613 809 3098 
Q 1344 3584 2291 3584 
Q 2566 3584 2833 3536 
Q 3100 3488 3366 3391 
z
" transform="scale(0.015625)"/>
     </defs>
     <use xlink:href="#DejaVuSans-Bold-63"/>
    </g>
   </g>
   <g id="text_35">
    <!-- Trustworthiness -->
    <g transform="translate(230.950398 517.174737) scale(0.24 -0.24)">
     <defs>
      <path id="DejaVuSans-54" d="M -19 4666 
L 3928 4666 
L 3928 4134 
L 2272 4134 
L 2272 0 
L 1638 0 
L 1638 4134 
L -19 4134 
L -19 4666 
z
" transform="scale(0.015625)"/>
      <path id="DejaVuSans-77" d="M 269 3500 
L 844 3500 
L 1563 769 
L 2278 3500 
L 2956 3500 
L 3675 769 
L 4391 3500 
L 4966 3500 
L 4050 0 
L 3372 0 
L 2619 2869 
L 1863 0 
L 1184 0 
L 269 3500 
z
" transform="scale(0.015625)"/>
      <path id="DejaVuSans-6f" d="M 1959 3097 
Q 1497 3097 1228 2736 
Q 959 2375 959 1747 
Q 959 1119 1226 758 
Q 1494 397 1959 397 
Q 2419 397 2687 759 
Q 2956 1122 2956 1747 
Q 2956 2369 2687 2733 
Q 2419 3097 1959 3097 
z
M 1959 3584 
Q 2709 3584 3137 3096 
Q 3566 2609 3566 1747 
Q 3566 888 3137 398 
Q 2709 -91 1959 -91 
Q 1206 -91 779 398 
Q 353 888 353 1747 
Q 353 2609 779 3096 
Q 1206 3584 1959 3584 
z
" transform="scale(0.015625)"/>
      <path id="DejaVuSans-68" d="M 3513 2113 
L 3513 0 
L 2938 0 
L 2938 2094 
Q 2938 2591 2744 2837 
Q 2550 3084 2163 3084 
Q 1697 3084 1428 2787 
Q 1159 2491 1159 1978 
L 1159 0 
L 581 0 
L 581 4863 
L 1159 4863 
L 1159 2956 
Q 1366 3272 1645 3428 
Q 1925 3584 2291 3584 
Q 2894 3584 3203 3211 
Q 3513 2838 3513 2113 
z
" transform="scale(0.015625)"/>
      <path id="DejaVuSans-6e" d="M 3513 2113 
L 3513 0 
L 2938 0 
L 2938 2094 
Q 2938 2591 2744 2837 
Q 2550 3084 2163 3084 
Q 1697 3084 1428 2787 
Q 1159 2491 1159 1978 
L 1159 0 
L 581 0 
L 581 3500 
L 1159 3500 
L 1159 2956 
Q 1366 3272 1645 3428 
Q 1925 3584 2291 3584 
Q 2894 3584 3203 3211 
Q 3513 2838 3513 2113 
z
" transform="scale(0.015625)"/>
     </defs>
     <use xlink:href="#DejaVuSans-54"/>
     <use xlink:href="#DejaVuSans-72" x="46.333984"/>
     <use xlink:href="#DejaVuSans-75" x="87.447266"/>
     <use xlink:href="#DejaVuSans-73" x="150.826172"/>
     <use xlink:href="#DejaVuSans-74" x="202.925781"/>
     <use xlink:href="#DejaVuSans-77" x="242.134766"/>
     <use xlink:href="#DejaVuSans-6f" x="323.921875"/>
     <use xlink:href="#DejaVuSans-72" x="385.103516"/>
     <use xlink:href="#DejaVuSans-74" x="426.216797"/>
     <use xlink:href="#DejaVuSans-68" x="465.425781"/>
     <use xlink:href="#DejaVuSans-69" x="528.804688"/>
     <use xlink:href="#DejaVuSans-6e" x="556.587891"/>
     <use xlink:href="#DejaVuSans-65" x="619.966797"/>
     <use xlink:href="#DejaVuSans-73" x="681.490234"/>
     <use xlink:href="#DejaVuSans-73" x="733.589844"/>
    </g>
   </g>
  </g>
  <g id="axes_4">
   <g id="patch_29">
    <path d="M 591.545455 785.785263 
L 972 785.785263 
L 972 523.174737 
L 591.545455 523.174737 
z
" style="fill: #ffffff"/>
   </g>
   <g id="matplotlib.axis_7">
    <g id="xtick_13">
     <g id="line2d_33">
      <g>
       <use xlink:href="#me0214b938d" x="594.427686" y="785.785263" style="stroke: #000000; stroke-width: 0.8"/>
      </g>
     </g>
     <g id="text_36">
      <!-- 0 -->
      <g transform="translate(587.428936 809.501826) scale(0.22 -0.22)">
       <use xlink:href="#DejaVuSans-30"/>
      </g>
     </g>
    </g>
    <g id="xtick_14">
     <g id="line2d_34">
      <g>
       <use xlink:href="#me0214b938d" x="738.539256" y="785.785263" style="stroke: #000000; stroke-width: 0.8"/>
      </g>
     </g>
     <g id="text_37">
      <!-- 20 -->
      <g transform="translate(724.541756 809.501826) scale(0.22 -0.22)">
       <use xlink:href="#DejaVuSans-32"/>
       <use xlink:href="#DejaVuSans-30" x="63.623047"/>
      </g>
     </g>
    </g>
    <g id="xtick_15">
     <g id="line2d_35">
      <g>
       <use xlink:href="#me0214b938d" x="882.650826" y="785.785263" style="stroke: #000000; stroke-width: 0.8"/>
      </g>
     </g>
     <g id="text_38">
      <!-- 40 -->
      <g transform="translate(868.653326 809.501826) scale(0.22 -0.22)">
       <use xlink:href="#DejaVuSans-34"/>
       <use xlink:href="#DejaVuSans-30" x="63.623047"/>
      </g>
     </g>
    </g>
    <g id="text_39">
     <!-- k -->
     <g transform="translate(774.823977 836.313388) scale(0.24 -0.24)">
      <use xlink:href="#DejaVuSans-6b"/>
     </g>
    </g>
   </g>
   <g id="matplotlib.axis_8">
    <g id="ytick_13">
     <g id="line2d_36">
      <g>
       <use xlink:href="#m1b08dbd0aa" x="591.545455" y="745.062125" style="stroke: #000000; stroke-width: 0.8"/>
      </g>
     </g>
     <g id="text_40">
      <!-- 0.6 -->
      <g transform="translate(549.55858 753.420406) scale(0.22 -0.22)">
       <use xlink:href="#DejaVuSans-30"/>
       <use xlink:href="#DejaVuSans-2e" x="63.623047"/>
       <use xlink:href="#DejaVuSans-36" x="95.410156"/>
      </g>
     </g>
    </g>
    <g id="ytick_14">
     <g id="line2d_37">
      <g>
       <use xlink:href="#m1b08dbd0aa" x="591.545455" y="689.595741" style="stroke: #000000; stroke-width: 0.8"/>
      </g>
     </g>
     <g id="text_41">
      <!-- 0.7 -->
      <g transform="translate(549.55858 697.954022) scale(0.22 -0.22)">
       <use xlink:href="#DejaVuSans-30"/>
       <use xlink:href="#DejaVuSans-2e" x="63.623047"/>
       <use xlink:href="#DejaVuSans-37" x="95.410156"/>
      </g>
     </g>
    </g>
    <g id="ytick_15">
     <g id="line2d_38">
      <g>
       <use xlink:href="#m1b08dbd0aa" x="591.545455" y="634.129356" style="stroke: #000000; stroke-width: 0.8"/>
      </g>
     </g>
     <g id="text_42">
      <!-- 0.8 -->
      <g transform="translate(549.55858 642.487638) scale(0.22 -0.22)">
       <use xlink:href="#DejaVuSans-30"/>
       <use xlink:href="#DejaVuSans-2e" x="63.623047"/>
       <use xlink:href="#DejaVuSans-38" x="95.410156"/>
      </g>
     </g>
    </g>
    <g id="ytick_16">
     <g id="line2d_39">
      <g>
       <use xlink:href="#m1b08dbd0aa" x="591.545455" y="578.662972" style="stroke: #000000; stroke-width: 0.8"/>
      </g>
     </g>
     <g id="text_43">
      <!-- 0.9 -->
      <g transform="translate(549.55858 587.021253) scale(0.22 -0.22)">
       <use xlink:href="#DejaVuSans-30"/>
       <use xlink:href="#DejaVuSans-2e" x="63.623047"/>
       <use xlink:href="#DejaVuSans-39" x="95.410156"/>
      </g>
     </g>
    </g>
    <g id="ytick_17">
     <g id="line2d_40">
      <g>
       <use xlink:href="#m1b08dbd0aa" x="591.545455" y="523.196588" style="stroke: #000000; stroke-width: 0.8"/>
      </g>
     </g>
     <g id="text_44">
      <!-- 1.0 -->
      <g transform="translate(549.55858 531.554869) scale(0.22 -0.22)">
       <use xlink:href="#DejaVuSans-31"/>
       <use xlink:href="#DejaVuSans-2e" x="63.623047"/>
       <use xlink:href="#DejaVuSans-30" x="95.410156"/>
      </g>
     </g>
    </g>
   </g>
   <g id="line2d_41">
    <path d="M 608.838843 603.039792 
L 630.455579 625.523704 
L 666.483471 648.244985 
L 738.539256 672.005183 
L 954.706612 699.099366 
" clip-path="url(#pc67cacff4c)" style="fill: none; stroke: #1f77b4; stroke-width: 1.5; stroke-linecap: square"/>
    <g clip-path="url(#pc67cacff4c)">
     <use xlink:href="#m8457a1e56b" x="608.838843" y="603.039792" style="fill: #1f77b4; stroke: #1f77b4"/>
     <use xlink:href="#m8457a1e56b" x="630.455579" y="625.523704" style="fill: #1f77b4; stroke: #1f77b4"/>
     <use xlink:href="#m8457a1e56b" x="666.483471" y="648.244985" style="fill: #1f77b4; stroke: #1f77b4"/>
     <use xlink:href="#m8457a1e56b" x="738.539256" y="672.005183" style="fill: #1f77b4; stroke: #1f77b4"/>
     <use xlink:href="#m8457a1e56b" x="954.706612" y="699.099366" style="fill: #1f77b4; stroke: #1f77b4"/>
    </g>
   </g>
   <g id="line2d_42">
    <path d="M 608.838843 535.111579 
L 630.455579 548.829841 
L 666.483471 567.581383 
L 738.539256 593.143459 
L 954.706612 630.346034 
" clip-path="url(#pc67cacff4c)" style="fill: none; stroke: #ff7f0e; stroke-width: 1.5; stroke-linecap: square"/>
    <g clip-path="url(#pc67cacff4c)">
     <use xlink:href="#m36c4fdfb1f" x="608.838843" y="535.111579" style="fill: #ff7f0e; stroke: #ff7f0e"/>
     <use xlink:href="#m36c4fdfb1f" x="630.455579" y="548.829841" style="fill: #ff7f0e; stroke: #ff7f0e"/>
     <use xlink:href="#m36c4fdfb1f" x="666.483471" y="567.581383" style="fill: #ff7f0e; stroke: #ff7f0e"/>
     <use xlink:href="#m36c4fdfb1f" x="738.539256" y="593.143459" style="fill: #ff7f0e; stroke: #ff7f0e"/>
     <use xlink:href="#m36c4fdfb1f" x="954.706612" y="630.346034" style="fill: #ff7f0e; stroke: #ff7f0e"/>
    </g>
   </g>
   <g id="line2d_43">
    <path d="M 608.838843 537.513368 
L 630.455579 548.708722 
L 666.483471 566.155673 
L 738.539256 593.894429 
L 954.706612 642.398766 
" clip-path="url(#pc67cacff4c)" style="fill: none; stroke: #2ca02c; stroke-width: 1.5; stroke-linecap: square"/>
    <g clip-path="url(#pc67cacff4c)">
     <use xlink:href="#ma04cb4687c" x="608.838843" y="537.513368" style="fill: #2ca02c; stroke: #2ca02c"/>
     <use xlink:href="#ma04cb4687c" x="630.455579" y="548.708722" style="fill: #2ca02c; stroke: #2ca02c"/>
     <use xlink:href="#ma04cb4687c" x="666.483471" y="566.155673" style="fill: #2ca02c; stroke: #2ca02c"/>
     <use xlink:href="#ma04cb4687c" x="738.539256" y="593.894429" style="fill: #2ca02c; stroke: #2ca02c"/>
     <use xlink:href="#ma04cb4687c" x="954.706612" y="642.398766" style="fill: #2ca02c; stroke: #2ca02c"/>
    </g>
   </g>
   <g id="line2d_44">
    <path d="M 608.838843 589.327197 
L 630.455579 620.016826 
L 666.483471 661.220211 
L 738.539256 711.518278 
L 954.706612 773.848421 
" clip-path="url(#pc67cacff4c)" style="fill: none; stroke: #d62728; stroke-width: 1.5; stroke-linecap: square"/>
    <g clip-path="url(#pc67cacff4c)">
     <use xlink:href="#m914e615eeb" x="608.838843" y="589.327197" style="fill: #d62728; stroke: #d62728"/>
     <use xlink:href="#m914e615eeb" x="630.455579" y="620.016826" style="fill: #d62728; stroke: #d62728"/>
     <use xlink:href="#m914e615eeb" x="666.483471" y="661.220211" style="fill: #d62728; stroke: #d62728"/>
     <use xlink:href="#m914e615eeb" x="738.539256" y="711.518278" style="fill: #d62728; stroke: #d62728"/>
     <use xlink:href="#m914e615eeb" x="954.706612" y="773.848421" style="fill: #d62728; stroke: #d62728"/>
    </g>
   </g>
   <g id="patch_30">
    <path d="M 591.545455 785.785263 
L 591.545455 523.174737 
" style="fill: none; stroke: #000000; stroke-width: 0.8; stroke-linejoin: miter; stroke-linecap: square"/>
   </g>
   <g id="patch_31">
    <path d="M 972 785.785263 
L 972 523.174737 
" style="fill: none; stroke: #000000; stroke-width: 0.8; stroke-linejoin: miter; stroke-linecap: square"/>
   </g>
   <g id="patch_32">
    <path d="M 591.545455 785.785263 
L 972 785.785263 
" style="fill: none; stroke: #000000; stroke-width: 0.8; stroke-linejoin: miter; stroke-linecap: square"/>
   </g>
   <g id="patch_33">
    <path d="M 591.545455 523.174737 
L 972 523.174737 
" style="fill: none; stroke: #000000; stroke-width: 0.8; stroke-linejoin: miter; stroke-linecap: square"/>
   </g>
   <g id="text_45">
    <!-- d -->
    <g transform="translate(544.871761 505.058783) scale(0.28 -0.28)">
     <defs>
      <path id="DejaVuSans-Bold-64" d="M 2919 2988 
L 2919 4863 
L 4044 4863 
L 4044 0 
L 2919 0 
L 2919 506 
Q 2688 197 2409 53 
Q 2131 -91 1766 -91 
Q 1119 -91 703 423 
Q 288 938 288 1747 
Q 288 2556 703 3070 
Q 1119 3584 1766 3584 
Q 2128 3584 2408 3439 
Q 2688 3294 2919 2988 
z
M 2181 722 
Q 2541 722 2730 984 
Q 2919 1247 2919 1747 
Q 2919 2247 2730 2509 
Q 2541 2772 2181 2772 
Q 1825 2772 1636 2509 
Q 1447 2247 1447 1747 
Q 1447 1247 1636 984 
Q 1825 722 2181 722 
z
" transform="scale(0.015625)"/>
     </defs>
     <use xlink:href="#DejaVuSans-Bold-64"/>
    </g>
   </g>
   <g id="text_46">
    <!-- Continuity -->
    <g transform="translate(720.057102 517.174737) scale(0.24 -0.24)">
     <defs>
      <path id="DejaVuSans-79" d="M 2059 -325 
Q 1816 -950 1584 -1140 
Q 1353 -1331 966 -1331 
L 506 -1331 
L 506 -850 
L 844 -850 
Q 1081 -850 1212 -737 
Q 1344 -625 1503 -206 
L 1606 56 
L 191 3500 
L 800 3500 
L 1894 763 
L 2988 3500 
L 3597 3500 
L 2059 -325 
z
" transform="scale(0.015625)"/>
     </defs>
     <use xlink:href="#DejaVuSans-43"/>
     <use xlink:href="#DejaVuSans-6f" x="69.824219"/>
     <use xlink:href="#DejaVuSans-6e" x="131.005859"/>
     <use xlink:href="#DejaVuSans-74" x="194.384766"/>
     <use xlink:href="#DejaVuSans-69" x="233.59375"/>
     <use xlink:href="#DejaVuSans-6e" x="261.376953"/>
     <use xlink:href="#DejaVuSans-75" x="324.755859"/>
     <use xlink:href="#DejaVuSans-69" x="388.134766"/>
     <use xlink:href="#DejaVuSans-74" x="415.917969"/>
     <use xlink:href="#DejaVuSans-79" x="455.126953"/>
    </g>
   </g>
  </g>
  <g id="axes_5">
   <g id="patch_34">
    <path d="M 135 1153.44 
L 515.454545 1153.44 
L 515.454545 890.829474 
L 135 890.829474 
z
" style="fill: #ffffff"/>
   </g>
   <g id="matplotlib.axis_9">
    <g id="xtick_16">
     <g id="line2d_45">
      <g>
       <use xlink:href="#me0214b938d" x="152.122926" y="1153.44" style="stroke: #000000; stroke-width: 0.8"/>
      </g>
     </g>
     <g id="text_47">
      <!-- 0 -->
      <g transform="translate(145.124176 1177.156562) scale(0.22 -0.22)">
       <use xlink:href="#DejaVuSans-30"/>
      </g>
     </g>
    </g>
    <g id="xtick_17">
     <g id="line2d_46">
      <g>
       <use xlink:href="#me0214b938d" x="237.354018" y="1153.44" style="stroke: #000000; stroke-width: 0.8"/>
      </g>
     </g>
     <g id="text_48">
      <!-- 500 -->
      <g transform="translate(216.357768 1177.156562) scale(0.22 -0.22)">
       <use xlink:href="#DejaVuSans-35"/>
       <use xlink:href="#DejaVuSans-30" x="63.623047"/>
       <use xlink:href="#DejaVuSans-30" x="127.246094"/>
      </g>
     </g>
    </g>
    <g id="xtick_18">
     <g id="line2d_47">
      <g>
       <use xlink:href="#me0214b938d" x="322.585109" y="1153.44" style="stroke: #000000; stroke-width: 0.8"/>
      </g>
     </g>
     <g id="text_49">
      <!-- 1000 -->
      <g transform="translate(294.590109 1177.156562) scale(0.22 -0.22)">
       <use xlink:href="#DejaVuSans-31"/>
       <use xlink:href="#DejaVuSans-30" x="63.623047"/>
       <use xlink:href="#DejaVuSans-30" x="127.246094"/>
       <use xlink:href="#DejaVuSans-30" x="190.869141"/>
      </g>
     </g>
    </g>
    <g id="xtick_19">
     <g id="line2d_48">
      <g>
       <use xlink:href="#me0214b938d" x="407.8162" y="1153.44" style="stroke: #000000; stroke-width: 0.8"/>
      </g>
     </g>
     <g id="text_50">
      <!-- 1500 -->
      <g transform="translate(379.8212 1177.156562) scale(0.22 -0.22)">
       <use xlink:href="#DejaVuSans-31"/>
       <use xlink:href="#DejaVuSans-35" x="63.623047"/>
       <use xlink:href="#DejaVuSans-30" x="127.246094"/>
       <use xlink:href="#DejaVuSans-30" x="190.869141"/>
      </g>
     </g>
    </g>
    <g id="xtick_20">
     <g id="line2d_49">
      <g>
       <use xlink:href="#me0214b938d" x="493.047292" y="1153.44" style="stroke: #000000; stroke-width: 0.8"/>
      </g>
     </g>
     <g id="text_51">
      <!-- 2000 -->
      <g transform="translate(465.052292 1177.156562) scale(0.22 -0.22)">
       <use xlink:href="#DejaVuSans-32"/>
       <use xlink:href="#DejaVuSans-30" x="63.623047"/>
       <use xlink:href="#DejaVuSans-30" x="127.246094"/>
       <use xlink:href="#DejaVuSans-30" x="190.869141"/>
      </g>
     </g>
    </g>
    <g id="text_52">
     <!-- k -->
     <g transform="translate(318.278523 1203.968125) scale(0.24 -0.24)">
      <use xlink:href="#DejaVuSans-6b"/>
     </g>
    </g>
   </g>
   <g id="matplotlib.axis_10">
    <g id="ytick_18">
     <g id="line2d_50">
      <g>
       <use xlink:href="#m1b08dbd0aa" x="135" y="1147.528823" style="stroke: #000000; stroke-width: 0.8"/>
      </g>
     </g>
     <g id="text_53">
      <!-- 0.00 -->
      <g transform="translate(79.015625 1155.887104) scale(0.22 -0.22)">
       <use xlink:href="#DejaVuSans-30"/>
       <use xlink:href="#DejaVuSans-2e" x="63.623047"/>
       <use xlink:href="#DejaVuSans-30" x="95.410156"/>
       <use xlink:href="#DejaVuSans-30" x="159.033203"/>
      </g>
     </g>
    </g>
    <g id="ytick_19">
     <g id="line2d_51">
      <g>
       <use xlink:href="#m1b08dbd0aa" x="135" y="1086.338196" style="stroke: #000000; stroke-width: 0.8"/>
      </g>
     </g>
     <g id="text_54">
      <!-- 0.25 -->
      <g transform="translate(79.015625 1094.696477) scale(0.22 -0.22)">
       <use xlink:href="#DejaVuSans-30"/>
       <use xlink:href="#DejaVuSans-2e" x="63.623047"/>
       <use xlink:href="#DejaVuSans-32" x="95.410156"/>
       <use xlink:href="#DejaVuSans-35" x="159.033203"/>
      </g>
     </g>
    </g>
    <g id="ytick_20">
     <g id="line2d_52">
      <g>
       <use xlink:href="#m1b08dbd0aa" x="135" y="1025.147569" style="stroke: #000000; stroke-width: 0.8"/>
      </g>
     </g>
     <g id="text_55">
      <!-- 0.50 -->
      <g transform="translate(79.015625 1033.505851) scale(0.22 -0.22)">
       <use xlink:href="#DejaVuSans-30"/>
       <use xlink:href="#DejaVuSans-2e" x="63.623047"/>
       <use xlink:href="#DejaVuSans-35" x="95.410156"/>
       <use xlink:href="#DejaVuSans-30" x="159.033203"/>
      </g>
     </g>
    </g>
    <g id="ytick_21">
     <g id="line2d_53">
      <g>
       <use xlink:href="#m1b08dbd0aa" x="135" y="963.956943" style="stroke: #000000; stroke-width: 0.8"/>
      </g>
     </g>
     <g id="text_56">
      <!-- 0.75 -->
      <g transform="translate(79.015625 972.315224) scale(0.22 -0.22)">
       <use xlink:href="#DejaVuSans-30"/>
       <use xlink:href="#DejaVuSans-2e" x="63.623047"/>
       <use xlink:href="#DejaVuSans-37" x="95.410156"/>
       <use xlink:href="#DejaVuSans-35" x="159.033203"/>
      </g>
     </g>
    </g>
    <g id="ytick_22">
     <g id="line2d_54">
      <g>
       <use xlink:href="#m1b08dbd0aa" x="135" y="902.766316" style="stroke: #000000; stroke-width: 0.8"/>
      </g>
     </g>
     <g id="text_57">
      <!-- 1.00 -->
      <g transform="translate(79.015625 911.124597) scale(0.22 -0.22)">
       <use xlink:href="#DejaVuSans-31"/>
       <use xlink:href="#DejaVuSans-2e" x="63.623047"/>
       <use xlink:href="#DejaVuSans-30" x="95.410156"/>
       <use xlink:href="#DejaVuSans-30" x="159.033203"/>
      </g>
     </g>
    </g>
    <g id="text_58">
     <!-- Metric Value -->
     <g transform="translate(70.024375 1096.210362) rotate(-90) scale(0.24 -0.24)">
      <use xlink:href="#DejaVuSans-4d"/>
      <use xlink:href="#DejaVuSans-65" x="86.279297"/>
      <use xlink:href="#DejaVuSans-74" x="147.802734"/>
      <use xlink:href="#DejaVuSans-72" x="187.011719"/>
      <use xlink:href="#DejaVuSans-69" x="228.125"/>
      <use xlink:href="#DejaVuSans-63" x="255.908203"/>
      <use xlink:href="#DejaVuSans-20" x="310.888672"/>
      <use xlink:href="#DejaVuSans-56" x="342.675781"/>
      <use xlink:href="#DejaVuSans-61" x="403.333984"/>
      <use xlink:href="#DejaVuSans-6c" x="464.613281"/>
      <use xlink:href="#DejaVuSans-75" x="492.396484"/>
      <use xlink:href="#DejaVuSans-65" x="555.775391"/>
     </g>
    </g>
   </g>
   <g id="line2d_55">
    <path d="M 152.293388 1141.503158 
L 152.975237 1134.151847 
L 153.145699 1133.649708 
L 153.827548 1130.28337 
L 154.168472 1129.17063 
L 155.020783 1127.821354 
L 156.043556 1125.935984 
L 156.214019 1125.791237 
L 157.236792 1123.872062 
L 157.577716 1123.399801 
L 159.623262 1119.536871 
L 159.793724 1119.438512 
L 159.964187 1119.493762 
L 160.305111 1119.388968 
L 162.009733 1119.671551 
L 162.350657 1119.895124 
L 163.37343 1120.01162 
L 163.714355 1120.051791 
L 164.225741 1120.05858 
L 164.737128 1120.00782 
L 165.248514 1120.03927 
L 165.589439 1120.047215 
L 166.100825 1120.020928 
L 169.510069 1119.124311 
L 170.021455 1118.938478 
L 172.74885 1117.738135 
L 173.771623 1117.043703 
L 175.305783 1116.165237 
L 177.692254 1114.675291 
L 183.828892 1110.944614 
L 185.874438 1109.562874 
L 196.95448 1101.961966 
L 198.659102 1100.723754 
L 199.681875 1099.985247 
L 201.045573 1098.998076 
L 227.637673 1080.506291 
L 230.194606 1078.773092 
L 231.899228 1077.609737 
L 234.45616 1075.83913 
L 246.8999 1067.279538 
L 261.900572 1057.112973 
L 264.11658 1055.576076 
L 268.378135 1052.654641 
L 271.616916 1050.453729 
L 278.094479 1046.064617 
L 283.719731 1042.265297 
L 298.209017 1032.841085 
L 300.936412 1031.125264 
L 370.144058 987.696719 
L 379.519478 981.764679 
L 392.474604 973.223347 
L 395.542923 971.174069 
L 407.986662 962.887678 
L 429.123973 949.14851 
L 435.771998 944.858916 
L 447.874813 936.754191 
L 454.011452 932.673552 
L 468.841662 923.208627 
L 470.375821 922.647589 
L 472.421367 921.849426 
L 473.103216 921.458549 
L 493.388216 906.189568 
L 498.161157 902.766316 
L 498.161157 902.766316 
" clip-path="url(#pba87669a87)" style="fill: none; stroke: #1f77b4; stroke-width: 1.5; stroke-linecap: square"/>
   </g>
   <g id="line2d_56">
    <path d="M 152.293388 1044.248927 
L 152.634313 1029.465962 
L 152.804775 1024.334105 
L 152.975237 1024.316028 
L 153.145699 1024.846286 
L 153.316162 1025.827609 
L 154.338935 1037.806101 
L 155.191246 1048.741395 
L 157.748178 1069.826961 
L 160.305111 1081.592985 
L 161.327884 1085.381901 
L 163.543892 1091.734763 
L 164.396203 1093.528823 
L 165.759901 1095.884356 
L 167.975909 1099.182257 
L 169.169145 1100.532252 
L 170.36238 1101.470217 
L 171.044229 1101.869483 
L 171.726077 1102.222111 
L 173.260237 1102.910718 
L 173.942086 1103.026463 
L 178.20364 1103.4501 
L 178.715027 1103.380785 
L 179.226413 1103.374721 
L 180.419649 1103.094263 
L 185.19259 1102.097173 
L 186.726749 1101.499867 
L 189.11322 1100.329262 
L 190.64738 1099.565064 
L 191.158766 1099.25509 
L 194.56801 1097.572915 
L 195.761245 1096.903352 
L 196.272632 1096.596367 
L 197.465867 1095.942336 
L 207.693598 1089.748611 
L 210.591455 1087.615092 
L 213.31885 1085.681331 
L 224.910278 1078.616102 
L 227.637673 1076.783709 
L 228.660446 1076.11275 
L 230.365068 1075.092979 
L 231.387841 1074.399799 
L 243.320194 1067.16087 
L 244.513429 1066.419149 
L 245.706665 1065.619293 
L 250.479606 1062.719 
L 255.934395 1059.3776 
L 262.241496 1055.787609 
L 264.11658 1054.661496 
L 265.309816 1053.988906 
L 267.1849 1052.944095 
L 271.275992 1050.6682 
L 273.492 1049.411365 
L 275.367084 1048.310375 
L 278.435404 1046.526319 
L 290.879143 1039.30877 
L 300.084101 1034.323102 
L 316.107546 1025.365796 
L 327.017126 1019.008439 
L 334.687924 1014.524902 
L 337.585781 1012.881575 
L 340.995025 1010.998569 
L 352.245529 1004.55119 
L 354.120613 1003.445057 
L 363.666495 997.80586 
L 366.223428 996.294709 
L 383.61057 985.790216 
L 396.224772 977.508797 
L 398.781705 975.749402 
L 402.190948 973.466957 
L 411.395906 967.14696 
L 420.600864 960.555311 
L 427.419351 955.71277 
L 461.000401 930.699329 
L 466.284729 926.612713 
L 488.956199 909.45517 
L 496.967922 903.613245 
L 498.161157 902.766316 
L 498.161157 902.766316 
" clip-path="url(#pba87669a87)" style="fill: none; stroke: #ff7f0e; stroke-width: 1.5; stroke-linecap: square"/>
   </g>
   <g id="line2d_57">
    <path d="M 152.293388 1101.854283 
L 152.634313 1063.812252 
L 152.975237 1045.984318 
L 153.145699 1042.3408 
L 153.316162 1041.580418 
L 153.486624 1041.522314 
L 153.827548 1042.417125 
L 153.99801 1042.84659 
L 154.679859 1048.057147 
L 155.873094 1058.633832 
L 156.384481 1062.306639 
L 157.06633 1067.927712 
L 158.259565 1074.119487 
L 158.941414 1076.793543 
L 159.964187 1080.68586 
L 161.498346 1086.595108 
L 162.009733 1088.288226 
L 163.543892 1092.722253 
L 164.566666 1095.148461 
L 166.100825 1097.959646 
L 168.487296 1101.128693 
L 169.169145 1101.828975 
L 169.850993 1102.499724 
L 170.873766 1103.262097 
L 171.555615 1103.715896 
L 173.430699 1104.469904 
L 176.158094 1104.950877 
L 179.908262 1105.190209 
L 183.147043 1104.646616 
L 184.510741 1104.299434 
L 185.363052 1104.144654 
L 186.215363 1103.773457 
L 189.11322 1102.621236 
L 190.306455 1102.156104 
L 190.817842 1101.929139 
L 192.181539 1101.591718 
L 195.079396 1100.482249 
L 197.295405 1099.331235 
L 198.829564 1098.454401 
L 200.0228 1097.8752 
L 202.40927 1096.775158 
L 202.920657 1096.4142 
L 203.94343 1095.731494 
L 206.841287 1094.171842 
L 218.091791 1087.928613 
L 220.478261 1086.776597 
L 221.501035 1086.239372 
L 224.910278 1084.537341 
L 226.273976 1083.781444 
L 234.45616 1079.947311 
L 235.649396 1079.349777 
L 239.058639 1077.765329 
L 243.320194 1075.756734 
L 244.854354 1074.99311 
L 250.138681 1072.248253 
L 259.514101 1067.797608 
L 262.411958 1066.347564 
L 264.798429 1065.088429 
L 268.889521 1063.093336 
L 270.423681 1062.421082 
L 296.333933 1049.479432 
L 299.061328 1047.967084 
L 310.99368 1041.124115 
L 312.52784 1040.302597 
L 315.084773 1038.753596 
L 324.971579 1032.718395 
L 327.869437 1030.913096 
L 329.574058 1029.851929 
L 334.517462 1026.65162 
L 339.460865 1023.519324 
L 345.597504 1019.504202 
L 351.393218 1015.601607 
L 358.382167 1010.789256 
L 364.007419 1006.941772 
L 367.416663 1004.496142 
L 370.31452 1002.370085 
L 373.212377 1000.277091 
L 376.792083 997.676847 
L 393.497377 985.059961 
L 397.758931 981.756384 
L 400.315864 979.679293 
L 419.919015 963.397622 
L 424.351032 959.713716 
L 452.818216 936.406742 
L 456.056998 934.395615 
L 458.102544 932.895983 
L 466.625653 926.160658 
L 479.751241 916.06272 
L 481.96725 914.577242 
L 483.501409 913.528203 
L 490.149434 908.565661 
L 498.161157 902.766316 
L 498.161157 902.766316 
" clip-path="url(#pba87669a87)" style="fill: none; stroke: #2ca02c; stroke-width: 1.5; stroke-linecap: square"/>
   </g>
   <g id="line2d_58">
    <path d="M 152.293388 1090.164493 
L 152.634313 1066.423374 
L 152.975237 1054.372044 
L 153.316162 1048.243082 
L 153.486624 1048.105352 
L 153.657086 1047.502786 
L 153.827548 1048.406636 
L 153.99801 1048.565494 
L 154.338935 1050.274592 
L 155.702632 1058.882684 
L 156.214019 1062.004553 
L 157.407254 1068.779214 
L 157.748178 1069.841569 
L 158.600489 1073.657343 
L 159.964187 1078.815284 
L 162.521119 1088.331111 
L 163.37343 1090.657502 
L 164.90759 1094.369604 
L 166.100825 1096.666333 
L 167.634985 1098.805694 
L 167.975909 1099.142086 
L 169.510069 1101.01069 
L 171.044229 1102.537192 
L 171.555615 1102.890275 
L 172.407926 1103.339939 
L 173.260237 1103.875796 
L 175.305783 1104.625203 
L 177.180867 1105.106502 
L 177.692254 1105.239903 
L 178.20364 1105.295607 
L 182.12427 1105.769596 
L 183.147043 1105.788181 
L 183.487968 1105.724463 
L 184.340279 1105.662886 
L 185.533514 1105.587736 
L 186.726749 1105.499365 
L 190.64738 1104.553568 
L 194.056623 1103.49297 
L 196.102169 1103.001962 
L 197.806791 1102.354323 
L 202.40927 1100.899573 
L 203.94343 1100.247175 
L 207.523136 1098.410198 
L 221.16011 1090.271021 
L 223.205656 1088.841448 
L 227.978598 1085.776997 
L 229.171833 1084.860308 
L 230.876455 1083.612952 
L 232.581076 1082.444493 
L 234.285698 1081.373023 
L 236.842631 1079.908496 
L 243.149732 1076.174344 
L 244.172505 1075.563415 
L 246.218051 1074.314375 
L 253.377463 1069.715984 
L 256.616244 1067.515661 
L 265.309816 1062.036073 
L 270.082757 1059.166627 
L 275.537546 1055.709342 
L 279.458177 1053.204662 
L 285.253891 1049.338261 
L 287.469899 1047.879504 
L 292.924689 1044.07837 
L 294.117924 1043.152878 
L 302.641034 1037.200196 
L 315.596159 1028.69115 
L 328.89221 1020.297693 
L 331.449142 1018.732642 
L 334.346999 1016.910446 
L 343.381495 1011.003798 
L 349.177209 1007.195154 
L 361.280024 999.296092 
L 371.337293 992.636155 
L 374.916999 990.252515 
L 385.14473 983.215774 
L 387.190276 981.824961 
L 396.395234 975.358547 
L 418.384856 960.050097 
L 422.64641 957.110295 
L 454.181914 934.626713 
L 466.796115 925.33749 
L 475.489687 919.054479 
L 490.149434 908.482706 
L 498.161157 902.766316 
L 498.161157 902.766316 
" clip-path="url(#pba87669a87)" style="fill: none; stroke: #d62728; stroke-width: 1.5; stroke-linecap: square"/>
   </g>
   <g id="patch_35">
    <path d="M 135 1153.44 
L 135 890.829474 
" style="fill: none; stroke: #000000; stroke-width: 0.8; stroke-linejoin: miter; stroke-linecap: square"/>
   </g>
   <g id="patch_36">
    <path d="M 515.454545 1153.44 
L 515.454545 890.829474 
" style="fill: none; stroke: #000000; stroke-width: 0.8; stroke-linejoin: miter; stroke-linecap: square"/>
   </g>
   <g id="patch_37">
    <path d="M 135 1153.44 
L 515.454545 1153.44 
" style="fill: none; stroke: #000000; stroke-width: 0.8; stroke-linejoin: miter; stroke-linecap: square"/>
   </g>
   <g id="patch_38">
    <path d="M 135 890.829474 
L 515.454545 890.829474 
" style="fill: none; stroke: #000000; stroke-width: 0.8; stroke-linejoin: miter; stroke-linecap: square"/>
   </g>
   <g id="text_59">
    <!-- e -->
    <g transform="translate(89.376307 872.71352) scale(0.28 -0.28)">
     <defs>
      <path id="DejaVuSans-Bold-65" d="M 4031 1759 
L 4031 1441 
L 1416 1441 
Q 1456 1047 1700 850 
Q 1944 653 2381 653 
Q 2734 653 3104 758 
Q 3475 863 3866 1075 
L 3866 213 
Q 3469 63 3072 -14 
Q 2675 -91 2278 -91 
Q 1328 -91 801 392 
Q 275 875 275 1747 
Q 275 2603 792 3093 
Q 1309 3584 2216 3584 
Q 3041 3584 3536 3087 
Q 4031 2591 4031 1759 
z
M 2881 2131 
Q 2881 2450 2695 2645 
Q 2509 2841 2209 2841 
Q 1884 2841 1681 2658 
Q 1478 2475 1428 2131 
L 2881 2131 
z
" transform="scale(0.015625)"/>
     </defs>
     <use xlink:href="#DejaVuSans-Bold-65"/>
    </g>
   </g>
   <g id="text_60">
    <!-- $Q_{NN}$ -->
    <g transform="translate(302.787273 884.829474) scale(0.24 -0.24)">
     <use xlink:href="#DejaVuSans-Oblique-51" transform="translate(0 0.78125)"/>
     <use xlink:href="#DejaVuSans-Oblique-4e" transform="translate(78.710938 -15.625) scale(0.7)"/>
     <use xlink:href="#DejaVuSans-Oblique-4e" transform="translate(131.074219 -15.625) scale(0.7)"/>
    </g>
   </g>
  </g>
  <g id="axes_6">
   <g id="patch_39">
    <path d="M 591.545455 1153.44 
L 972 1153.44 
L 972 890.829474 
L 591.545455 890.829474 
z
" style="fill: #ffffff"/>
   </g>
   <g id="matplotlib.axis_11">
    <g id="xtick_21">
     <g id="line2d_59">
      <g>
       <use xlink:href="#me0214b938d" x="608.668381" y="1153.44" style="stroke: #000000; stroke-width: 0.8"/>
      </g>
     </g>
     <g id="text_61">
      <!-- 0 -->
      <g transform="translate(601.669631 1177.156562) scale(0.22 -0.22)">
       <use xlink:href="#DejaVuSans-30"/>
      </g>
     </g>
    </g>
    <g id="xtick_22">
     <g id="line2d_60">
      <g>
       <use xlink:href="#me0214b938d" x="693.899472" y="1153.44" style="stroke: #000000; stroke-width: 0.8"/>
      </g>
     </g>
     <g id="text_62">
      <!-- 500 -->
      <g transform="translate(672.903222 1177.156562) scale(0.22 -0.22)">
       <use xlink:href="#DejaVuSans-35"/>
       <use xlink:href="#DejaVuSans-30" x="63.623047"/>
       <use xlink:href="#DejaVuSans-30" x="127.246094"/>
      </g>
     </g>
    </g>
    <g id="xtick_23">
     <g id="line2d_61">
      <g>
       <use xlink:href="#me0214b938d" x="779.130563" y="1153.44" style="stroke: #000000; stroke-width: 0.8"/>
      </g>
     </g>
     <g id="text_63">
      <!-- 1000 -->
      <g transform="translate(751.135563 1177.156562) scale(0.22 -0.22)">
       <use xlink:href="#DejaVuSans-31"/>
       <use xlink:href="#DejaVuSans-30" x="63.623047"/>
       <use xlink:href="#DejaVuSans-30" x="127.246094"/>
       <use xlink:href="#DejaVuSans-30" x="190.869141"/>
      </g>
     </g>
    </g>
    <g id="xtick_24">
     <g id="line2d_62">
      <g>
       <use xlink:href="#me0214b938d" x="864.361655" y="1153.44" style="stroke: #000000; stroke-width: 0.8"/>
      </g>
     </g>
     <g id="text_64">
      <!-- 1500 -->
      <g transform="translate(836.366655 1177.156562) scale(0.22 -0.22)">
       <use xlink:href="#DejaVuSans-31"/>
       <use xlink:href="#DejaVuSans-35" x="63.623047"/>
       <use xlink:href="#DejaVuSans-30" x="127.246094"/>
       <use xlink:href="#DejaVuSans-30" x="190.869141"/>
      </g>
     </g>
    </g>
    <g id="xtick_25">
     <g id="line2d_63">
      <g>
       <use xlink:href="#me0214b938d" x="949.592746" y="1153.44" style="stroke: #000000; stroke-width: 0.8"/>
      </g>
     </g>
     <g id="text_65">
      <!-- 2000 -->
      <g transform="translate(921.597746 1177.156562) scale(0.22 -0.22)">
       <use xlink:href="#DejaVuSans-32"/>
       <use xlink:href="#DejaVuSans-30" x="63.623047"/>
       <use xlink:href="#DejaVuSans-30" x="127.246094"/>
       <use xlink:href="#DejaVuSans-30" x="190.869141"/>
      </g>
     </g>
    </g>
    <g id="text_66">
     <!-- k -->
     <g transform="translate(774.823977 1203.968125) scale(0.24 -0.24)">
      <use xlink:href="#DejaVuSans-6b"/>
     </g>
    </g>
   </g>
   <g id="matplotlib.axis_12">
    <g id="ytick_23">
     <g id="line2d_64">
      <g>
       <use xlink:href="#m1b08dbd0aa" x="591.545455" y="1124.710251" style="stroke: #000000; stroke-width: 0.8"/>
      </g>
     </g>
     <g id="text_67">
      <!-- 0.0 -->
      <g transform="translate(549.55858 1133.068532) scale(0.22 -0.22)">
       <use xlink:href="#DejaVuSans-30"/>
       <use xlink:href="#DejaVuSans-2e" x="63.623047"/>
       <use xlink:href="#DejaVuSans-30" x="95.410156"/>
      </g>
     </g>
    </g>
    <g id="ytick_24">
     <g id="line2d_65">
      <g>
       <use xlink:href="#m1b08dbd0aa" x="591.545455" y="1036.172268" style="stroke: #000000; stroke-width: 0.8"/>
      </g>
     </g>
     <g id="text_68">
      <!-- 0.2 -->
      <g transform="translate(549.55858 1044.53055) scale(0.22 -0.22)">
       <use xlink:href="#DejaVuSans-30"/>
       <use xlink:href="#DejaVuSans-2e" x="63.623047"/>
       <use xlink:href="#DejaVuSans-32" x="95.410156"/>
      </g>
     </g>
    </g>
    <g id="ytick_25">
     <g id="line2d_66">
      <g>
       <use xlink:href="#m1b08dbd0aa" x="591.545455" y="947.634286" style="stroke: #000000; stroke-width: 0.8"/>
      </g>
     </g>
     <g id="text_69">
      <!-- 0.4 -->
      <g transform="translate(549.55858 955.992567) scale(0.22 -0.22)">
       <use xlink:href="#DejaVuSans-30"/>
       <use xlink:href="#DejaVuSans-2e" x="63.623047"/>
       <use xlink:href="#DejaVuSans-34" x="95.410156"/>
      </g>
     </g>
    </g>
   </g>
   <g id="line2d_67">
    <path d="M 608.838843 1114.030001 
L 609.520692 1101.606341 
L 609.691154 1100.916222 
L 610.373003 1095.699987 
L 610.713927 1094.123577 
L 611.225314 1093.353751 
L 612.248087 1091.29098 
L 612.929935 1090.213201 
L 613.441322 1089.169153 
L 614.293633 1087.672703 
L 614.975482 1085.927973 
L 616.168717 1083.677832 
L 616.339179 1083.71801 
L 616.509641 1084.036012 
L 616.850566 1084.282624 
L 618.555187 1086.974456 
L 619.066574 1088.087713 
L 619.57796 1088.892289 
L 620.089347 1089.50122 
L 620.430271 1090.098897 
L 620.771196 1090.509418 
L 621.282582 1091.071831 
L 621.793969 1091.782935 
L 622.134893 1092.233451 
L 622.64628 1092.840129 
L 625.885061 1095.472584 
L 628.271532 1096.889228 
L 628.782918 1096.998694 
L 629.635229 1097.273859 
L 630.658002 1097.414085 
L 632.703549 1097.828946 
L 633.044473 1097.866953 
L 633.555859 1097.923515 
L 634.237708 1098.000761 
L 638.840187 1098.939019 
L 639.010649 1098.891764 
L 639.692498 1099.067234 
L 640.203885 1099.086654 
L 642.590355 1099.231731 
L 643.272204 1099.313721 
L 644.124515 1099.315388 
L 645.31775 1099.220107 
L 646.85191 1099.338289 
L 647.192834 1099.318276 
L 647.704221 1099.400282 
L 648.556532 1099.473621 
L 649.23838 1099.589984 
L 650.090691 1099.673786 
L 651.454389 1099.641531 
L 658.102414 1099.572274 
L 658.443338 1099.57618 
L 661.341195 1099.702679 
L 661.68212 1099.759499 
L 662.534431 1099.72425 
L 663.216279 1099.753392 
L 665.60275 1099.818971 
L 666.114136 1099.779249 
L 673.273548 1100.045969 
L 674.296321 1099.985503 
L 679.580649 1100.090125 
L 680.603422 1100.120702 
L 682.137582 1100.13542 
L 685.376363 1100.149669 
L 686.910523 1100.261338 
L 688.444682 1100.3096 
L 689.467455 1100.336485 
L 692.19485 1100.469388 
L 694.240396 1100.502139 
L 698.501951 1100.670994 
L 701.058884 1100.689988 
L 702.081657 1100.762948 
L 706.172749 1101.009131 
L 714.866321 1101.456131 
L 716.570942 1101.559107 
L 722.366657 1101.733303 
L 723.559892 1101.790391 
L 731.401152 1102.170207 
L 734.299009 1102.370187 
L 735.492245 1102.386757 
L 748.958757 1103.441877 
L 750.151992 1103.59097 
L 752.027076 1103.801905 
L 754.072623 1104.060273 
L 755.606782 1104.286396 
L 759.868337 1104.891415 
L 760.720648 1105.002845 
L 764.470816 1105.524318 
L 766.004975 1105.699151 
L 768.561908 1106.094664 
L 770.948379 1106.465966 
L 773.164387 1106.749753 
L 774.869009 1107.004731 
L 776.914555 1107.274675 
L 780.835185 1107.780625 
L 786.460437 1108.535986 
L 790.381067 1109.093706 
L 806.063588 1111.376947 
L 815.098084 1112.855723 
L 824.303042 1114.166237 
L 826.689512 1114.546236 
L 831.462454 1115.203861 
L 832.826151 1115.399491 
L 837.769554 1116.013619 
L 841.860647 1116.329995 
L 846.80405 1116.766783 
L 854.815773 1117.294585 
L 860.1001 1117.704696 
L 864.532117 1118.087737 
L 881.578335 1119.773625 
L 884.476192 1120.137619 
L 895.897159 1121.332564 
L 903.908881 1121.830469 
L 906.465814 1121.987536 
L 919.250478 1123.117291 
L 924.364343 1123.696402 
L 925.216654 1124.072989 
L 929.307746 1126.409942 
L 929.989595 1126.434251 
L 933.228377 1126.317848 
L 938.17178 1125.670819 
L 943.62657 1125.148966 
L 950.956444 1124.762815 
L 954.706612 1124.710251 
L 954.706612 1124.710251 
" clip-path="url(#p4c2031496a)" style="fill: none; stroke: #1f77b4; stroke-width: 1.5; stroke-linecap: square"/>
   </g>
   <g id="line2d_68">
    <path d="M 608.838843 938.131055 
L 609.179767 911.829981 
L 609.35023 902.766316 
L 609.520692 902.951695 
L 609.691154 904.128821 
L 609.861616 906.121765 
L 610.884389 929.095118 
L 611.7367 949.963616 
L 614.293633 991.371151 
L 616.850566 1015.922887 
L 618.043801 1025.228331 
L 619.918885 1037.405251 
L 620.771196 1041.948943 
L 622.64628 1050.211734 
L 625.373675 1060.434008 
L 626.737372 1064.316131 
L 628.271532 1067.844721 
L 629.976154 1071.374198 
L 634.749095 1078.35253 
L 635.090019 1078.664249 
L 636.112792 1079.795306 
L 636.794641 1080.413401 
L 637.306027 1080.918325 
L 640.885733 1084.161102 
L 642.419893 1085.317007 
L 643.442666 1085.811249 
L 644.465439 1086.30531 
L 645.658674 1086.664752 
L 647.192834 1087.245248 
L 647.533758 1087.258838 
L 649.920229 1088.273686 
L 651.113464 1088.657845 
L 652.136237 1088.997112 
L 652.647624 1088.990606 
L 653.499935 1089.313551 
L 653.840859 1089.344239 
L 654.522708 1089.516886 
L 655.545481 1089.678087 
L 656.056868 1089.728255 
L 657.591027 1090.12313 
L 657.931952 1090.24375 
L 664.239052 1091.298098 
L 665.773212 1091.173528 
L 666.455061 1091.206175 
L 667.307372 1091.130294 
L 669.011993 1091.086602 
L 670.375691 1091.206969 
L 671.568926 1091.344294 
L 673.103086 1091.784273 
L 674.637245 1091.952637 
L 674.97817 1091.984205 
L 675.660019 1092.181158 
L 677.023716 1092.46383 
L 678.046489 1092.566141 
L 678.8988 1092.749392 
L 679.580649 1092.945959 
L 680.092035 1093.006004 
L 681.285271 1093.159551 
L 683.330817 1093.411412 
L 685.546825 1093.532924 
L 689.296993 1094.056797 
L 690.319766 1094.217708 
L 693.047161 1094.736427 
L 693.899472 1094.914736 
L 697.138254 1095.376621 
L 698.331489 1095.647485 
L 700.888422 1096.196198 
L 703.445354 1096.470375 
L 705.490901 1096.853494 
L 706.343211 1097.102586 
L 707.02506 1097.147504 
L 708.55922 1097.441812 
L 709.411531 1097.576582 
L 712.991237 1098.203285 
L 714.354934 1098.636665 
L 715.718631 1098.92297 
L 717.593716 1099.391737 
L 718.275564 1099.577553 
L 719.298337 1099.75275 
L 720.662035 1100.020201 
L 721.514346 1100.258457 
L 725.264514 1101.315651 
L 726.457749 1101.646878 
L 727.821446 1101.956824 
L 729.185144 1102.25885 
L 732.423925 1103.029685 
L 734.639934 1103.525038 
L 736.003631 1103.86947 
L 737.196867 1104.096825 
L 738.560564 1104.306939 
L 739.583337 1104.52921 
L 744.356278 1105.675733 
L 745.549513 1105.984037 
L 747.254135 1106.452435 
L 749.811068 1107.120442 
L 755.947707 1109.03577 
L 758.163715 1109.679482 
L 759.186488 1110.046287 
L 761.232034 1110.590552 
L 762.084345 1110.828939 
L 765.834513 1111.922513 
L 766.686824 1112.077204 
L 768.391446 1112.499359 
L 770.777916 1113.086637 
L 772.312076 1113.480434 
L 778.10779 1114.743376 
L 782.880731 1115.904261 
L 786.460437 1116.613912 
L 791.403841 1117.766047 
L 794.131236 1118.444742 
L 795.835857 1118.902356 
L 797.710941 1119.445221 
L 802.483882 1120.55582 
L 804.358966 1121.029164 
L 805.552202 1121.32227 
L 813.734387 1123.153487 
L 814.586697 1123.328988 
L 819.189176 1124.297675 
L 820.723336 1124.674916 
L 822.768882 1125.081299 
L 829.757832 1126.583498 
L 830.610143 1126.71214 
L 839.303714 1128.234571 
L 844.588042 1128.761148 
L 850.383756 1129.220913 
L 851.747453 1129.397403 
L 868.793672 1130.132436 
L 872.54384 1130.03965 
L 874.759848 1130.089088 
L 881.407873 1130.019517 
L 898.965478 1128.975722 
L 900.840562 1128.814887 
L 907.488587 1128.405585 
L 908.681822 1128.348175 
L 910.897831 1128.181676 
L 918.739091 1127.513611 
L 924.193881 1126.920507 
L 932.376066 1126.080083 
L 934.762536 1125.816689 
L 937.489931 1125.609804 
L 939.024091 1125.552332 
L 940.046864 1125.480382 
L 946.694889 1124.953179 
L 951.979217 1124.737971 
L 954.706612 1124.710251 
L 954.706612 1124.710251 
" clip-path="url(#p4c2031496a)" style="fill: none; stroke: #ff7f0e; stroke-width: 1.5; stroke-linecap: square"/>
   </g>
   <g id="line2d_69">
    <path d="M 608.838843 1042.31903 
L 609.179767 973.950427 
L 609.520692 942.142067 
L 609.691154 935.770288 
L 609.861616 934.613097 
L 610.032078 934.72608 
L 610.543465 937.775456 
L 611.225314 948.071829 
L 612.418549 968.727877 
L 612.929935 976.024924 
L 613.611784 987.063777 
L 614.805019 999.789052 
L 615.65733 1007.028705 
L 617.702876 1023.90439 
L 619.918885 1039.224941 
L 621.623507 1048.346973 
L 623.328129 1055.61144 
L 623.839515 1057.387758 
L 626.055523 1064.966335 
L 626.737372 1066.828914 
L 628.271532 1070.689657 
L 628.953381 1072.182118 
L 629.635229 1073.464122 
L 631.339851 1076.303197 
L 634.919557 1081.640192 
L 635.771868 1082.836634 
L 636.453717 1083.68052 
L 639.010649 1086.171339 
L 641.056195 1087.957413 
L 641.908506 1088.767838 
L 642.590355 1089.055216 
L 643.101742 1089.322099 
L 644.635901 1090.259081 
L 644.976826 1090.438706 
L 646.510985 1091.291943 
L 646.85191 1091.495388 
L 647.192834 1091.634475 
L 647.704221 1092.036061 
L 648.386069 1092.609068 
L 650.261153 1093.915633 
L 651.283926 1094.461551 
L 652.136237 1094.765104 
L 652.988548 1095.164309 
L 654.011321 1095.343657 
L 656.22733 1095.991289 
L 658.784262 1097.199456 
L 659.295649 1097.274695 
L 660.14796 1097.219719 
L 664.750439 1098.641275 
L 665.432288 1098.934324 
L 667.136909 1099.244367 
L 668.159683 1099.560417 
L 668.841531 1099.683244 
L 669.864304 1099.984406 
L 670.375691 1100.074351 
L 670.887077 1100.230304 
L 671.398464 1100.355288 
L 672.080313 1100.554157 
L 673.273548 1100.848247 
L 673.614472 1100.916154 
L 674.466783 1101.253104 
L 675.148632 1101.538697 
L 675.830481 1101.87714 
L 677.705565 1102.513622 
L 678.216951 1102.688159 
L 685.376363 1105.366334 
L 688.103758 1106.826697 
L 688.615144 1106.931509 
L 690.319766 1107.605582 
L 691.683464 1107.998368 
L 695.26317 1109.628998 
L 696.967791 1110.300975 
L 697.64964 1110.623532 
L 699.695186 1111.493675 
L 701.399808 1112.150647 
L 704.468127 1113.174545 
L 706.172749 1113.757883 
L 707.365985 1114.170741 
L 710.093379 1115.385461 
L 711.116153 1115.795724 
L 712.991237 1116.663479 
L 713.502623 1116.902202 
L 714.866321 1117.438356 
L 715.889094 1117.856227 
L 716.741405 1118.128973 
L 718.105102 1118.675444 
L 720.491573 1119.433531 
L 722.366657 1120.101962 
L 730.207917 1123.37293 
L 742.651656 1128.176731 
L 743.333505 1128.434288 
L 744.356278 1128.774977 
L 752.538463 1131.796203 
L 753.90216 1132.119471 
L 755.43632 1132.573039 
L 760.89111 1133.888478 
L 761.572959 1134.025793 
L 763.27758 1134.535864 
L 765.152664 1134.99246 
L 775.380395 1137.265872 
L 776.232706 1137.431911 
L 777.425942 1137.62087 
L 778.448715 1137.747683 
L 779.301026 1137.890929 
L 783.56258 1138.517675 
L 784.414891 1138.627258 
L 785.437664 1138.812018 
L 792.256152 1139.564028 
L 797.881404 1140.228275 
L 801.461109 1140.581936 
L 804.018042 1140.834436 
L 809.472832 1141.041193 
L 814.075311 1141.162521 
L 821.405185 1141.475199 
L 824.814428 1141.461702 
L 825.496277 1141.461461 
L 828.223672 1141.228863 
L 834.189848 1140.98479 
L 835.724008 1140.82177 
L 837.769554 1140.613504 
L 838.96279 1140.496141 
L 840.496949 1140.384466 
L 841.178798 1140.347189 
L 842.712958 1140.166286 
L 847.144974 1139.722538 
L 852.429302 1139.355973 
L 863.168419 1137.432026 
L 865.213966 1137.011783 
L 868.282285 1136.303638 
L 869.816445 1135.884899 
L 873.39615 1134.961424 
L 877.316781 1134.079841 
L 891.976528 1130.883045 
L 899.647327 1129.293982 
L 903.05657 1128.510999 
L 909.534133 1127.584148 
L 910.556906 1127.802771 
L 913.795688 1128.094866 
L 917.545856 1127.543023 
L 928.284973 1125.834358 
L 930.160057 1125.58584 
L 936.126234 1125.208006 
L 936.978545 1125.306697 
L 938.342242 1125.375594 
L 938.853629 1125.406828 
L 940.046864 1125.420396 
L 944.478881 1125.044478 
L 954.706612 1124.710251 
L 954.706612 1124.710251 
" clip-path="url(#p4c2031496a)" style="fill: none; stroke: #2ca02c; stroke-width: 1.5; stroke-linecap: square"/>
   </g>
   <g id="line2d_70">
    <path d="M 608.838843 1021.176282 
L 609.179767 978.673034 
L 609.520692 957.312534 
L 609.861616 946.663529 
L 610.032078 946.632499 
L 610.20254 945.76074 
L 610.373003 947.613563 
L 610.543465 948.118956 
L 610.884389 951.646265 
L 614.123171 990.058085 
L 614.634557 994.762396 
L 615.145944 999.389343 
L 616.680103 1011.873589 
L 617.702876 1020.116709 
L 619.57796 1034.363207 
L 621.282582 1044.0706 
L 622.816742 1051.277591 
L 624.180439 1056.431843 
L 624.521364 1057.476407 
L 626.396448 1063.933921 
L 628.441994 1069.584704 
L 631.851238 1076.770626 
L 633.726322 1080.039942 
L 634.578633 1081.435848 
L 635.771868 1083.395944 
L 636.624179 1084.685824 
L 637.135565 1085.507268 
L 637.987876 1086.811423 
L 638.499263 1087.332222 
L 640.203885 1089.461961 
L 645.147288 1094.781172 
L 645.829137 1095.264191 
L 646.681448 1095.912771 
L 647.022372 1096.191458 
L 647.533758 1096.534841 
L 649.067918 1097.477933 
L 651.113464 1099.188515 
L 651.965775 1099.916806 
L 654.69317 1101.725211 
L 655.204557 1102.148496 
L 655.545481 1102.335995 
L 656.568254 1103.185788 
L 657.420565 1103.681283 
L 658.102414 1104.239011 
L 660.14796 1105.336444 
L 662.363968 1106.158799 
L 663.045817 1106.426436 
L 663.727666 1106.609177 
L 664.239052 1106.78241 
L 666.966447 1107.53973 
L 669.864304 1107.882807 
L 670.375691 1108.072878 
L 671.909851 1108.62468 
L 674.807708 1109.213374 
L 675.319094 1109.355773 
L 676.341867 1109.392006 
L 680.262498 1109.567755 
L 681.114808 1109.647987 
L 681.626195 1109.684436 
L 684.183128 1110.027613 
L 685.205901 1110.013442 
L 686.058212 1109.872464 
L 687.251447 1109.860488 
L 689.296993 1109.928258 
L 691.853926 1110.425993 
L 693.047161 1110.720635 
L 694.069934 1110.939923 
L 695.945018 1111.344536 
L 704.127203 1112.921956 
L 704.809052 1113.00603 
L 705.831825 1113.125161 
L 706.854598 1113.247877 
L 707.706909 1113.305197 
L 710.093379 1113.506187 
L 710.94569 1113.47057 
L 712.820774 1113.603558 
L 714.354934 1113.969904 
L 716.230018 1114.222346 
L 720.32111 1114.668932 
L 720.832497 1114.70575 
L 722.196194 1114.976543 
L 722.878043 1115.126276 
L 724.923589 1115.543235 
L 732.423925 1116.604253 
L 733.446698 1116.836347 
L 742.310732 1117.4945 
L 743.163043 1117.577211 
L 745.549513 1117.630993 
L 748.106446 1117.630236 
L 748.788295 1117.687819 
L 754.413547 1117.606357 
L 755.43632 1117.7017 
L 757.140942 1117.687205 
L 763.107118 1118.088101 
L 764.470816 1118.14825 
L 766.516362 1118.308581 
L 767.368673 1118.408884 
L 769.414219 1118.576691 
L 771.80069 1118.849335 
L 776.062244 1119.48772 
L 778.278253 1119.794219 
L 780.323799 1120.04584 
L 786.289975 1120.857528 
L 789.358294 1121.392739 
L 794.813084 1122.078969 
L 797.370017 1122.355282 
L 806.063588 1123.028177 
L 810.154681 1123.451179 
L 821.746109 1124.479504 
L 823.962117 1124.621856 
L 825.666739 1124.784098 
L 834.701235 1125.388996 
L 836.405857 1125.413137 
L 838.451403 1125.569202 
L 839.474176 1125.610467 
L 842.201571 1125.665737 
L 843.906193 1125.730607 
L 855.497621 1125.922292 
L 857.372705 1125.895787 
L 859.418251 1125.859195 
L 860.611487 1125.864692 
L 862.997957 1125.866932 
L 864.361655 1125.916823 
L 879.191865 1126.39282 
L 889.76052 1126.471894 
L 891.635604 1126.429093 
L 894.192537 1126.337918 
L 904.420268 1126.39379 
L 908.170436 1126.184746 
L 911.579679 1126.024371 
L 918.057242 1125.663872 
L 923.682494 1125.397213 
L 928.114511 1125.294595 
L 941.410561 1124.960153 
L 947.888124 1124.760503 
L 954.365687 1124.710681 
L 954.706612 1124.710251 
L 954.706612 1124.710251 
" clip-path="url(#p4c2031496a)" style="fill: none; stroke: #d62728; stroke-width: 1.5; stroke-linecap: square"/>
   </g>
   <g id="patch_40">
    <path d="M 591.545455 1153.44 
L 591.545455 890.829474 
" style="fill: none; stroke: #000000; stroke-width: 0.8; stroke-linejoin: miter; stroke-linecap: square"/>
   </g>
   <g id="patch_41">
    <path d="M 972 1153.44 
L 972 890.829474 
" style="fill: none; stroke: #000000; stroke-width: 0.8; stroke-linejoin: miter; stroke-linecap: square"/>
   </g>
   <g id="patch_42">
    <path d="M 591.545455 1153.44 
L 972 1153.44 
" style="fill: none; stroke: #000000; stroke-width: 0.8; stroke-linejoin: miter; stroke-linecap: square"/>
   </g>
   <g id="patch_43">
    <path d="M 591.545455 890.829474 
L 972 890.829474 
" style="fill: none; stroke: #000000; stroke-width: 0.8; stroke-linejoin: miter; stroke-linecap: square"/>
   </g>
   <g id="text_70">
    <!-- f -->
    <g transform="translate(552.733636 872.71352) scale(0.28 -0.28)">
     <defs>
      <path id="DejaVuSans-Bold-66" d="M 2841 4863 
L 2841 4128 
L 2222 4128 
Q 1984 4128 1890 4042 
Q 1797 3956 1797 3744 
L 1797 3500 
L 2753 3500 
L 2753 2700 
L 1797 2700 
L 1797 0 
L 678 0 
L 678 2700 
L 122 2700 
L 122 3500 
L 678 3500 
L 678 3744 
Q 678 4316 997 4589 
Q 1316 4863 1984 4863 
L 2841 4863 
z
" transform="scale(0.015625)"/>
     </defs>
     <use xlink:href="#DejaVuSans-Bold-66"/>
    </g>
   </g>
   <g id="text_71">
    <!-- LCMC -->
    <g transform="translate(747.973977 884.829474) scale(0.24 -0.24)">
     <defs>
      <path id="DejaVuSans-4c" d="M 628 4666 
L 1259 4666 
L 1259 531 
L 3531 531 
L 3531 0 
L 628 0 
L 628 4666 
z
" transform="scale(0.015625)"/>
     </defs>
     <use xlink:href="#DejaVuSans-4c"/>
     <use xlink:href="#DejaVuSans-43" x="55.712891"/>
     <use xlink:href="#DejaVuSans-4d" x="125.537109"/>
     <use xlink:href="#DejaVuSans-43" x="211.816406"/>
    </g>
   </g>
  </g>
 </g>
 <defs>
  <clipPath id="pbbed6c74c3">
   <rect x="135" y="155.52" width="380.454545" height="262.610526"/>
  </clipPath>
  <clipPath id="pb2b6bcce26">
   <rect x="591.545455" y="155.52" width="380.454545" height="262.610526"/>
  </clipPath>
  <clipPath id="pa4e0e51853">
   <rect x="135" y="523.174737" width="380.454545" height="262.610526"/>
  </clipPath>
  <clipPath id="pc67cacff4c">
   <rect x="591.545455" y="523.174737" width="380.454545" height="262.610526"/>
  </clipPath>
  <clipPath id="pba87669a87">
   <rect x="135" y="890.829474" width="380.454545" height="262.610526"/>
  </clipPath>
  <clipPath id="p4c2031496a">
   <rect x="591.545455" y="890.829474" width="380.454545" height="262.610526"/>
  </clipPath>
 </defs>
</svg>
