<?xml version="1.0" encoding="utf-8" standalone="no"?>
<!DOCTYPE svg PUBLIC "-//W3C//DTD SVG 1.1//EN"
  "http://www.w3.org/Graphics/SVG/1.1/DTD/svg11.dtd">
<svg xmlns:xlink="http://www.w3.org/1999/xlink" width="1080pt" height="1296pt" viewBox="0 0 1080 1296" xmlns="http://www.w3.org/2000/svg" version="1.1">
 <metadata>
  <rdf:RDF xmlns:dc="http://purl.org/dc/elements/1.1/" xmlns:cc="http://creativecommons.org/ns#" xmlns:rdf="http://www.w3.org/1999/02/22-rdf-syntax-ns#">
   <cc:Work>
    <dc:type rdf:resource="http://purl.org/dc/dcmitype/StillImage"/>
    <dc:date>2024-07-24T15:50:05.610180</dc:date>
    <dc:format>image/svg+xml</dc:format>
    <dc:creator>
     <cc:Agent>
      <dc:title>Matplotlib v3.8.4, https://matplotlib.org/</dc:title>
     </cc:Agent>
    </dc:creator>
   </cc:Work>
  </rdf:RDF>
 </metadata>
 <defs>
  <style type="text/css">*{stroke-linejoin: round; stroke-linecap: butt}</style>
 </defs>
 <g id="figure_1">
  <g id="patch_1">
   <path d="M 0 1296 
L 1080 1296 
L 1080 0 
L 0 0 
z
" style="fill: #ffffff"/>
  </g>
  <g id="axes_1">
   <g id="patch_2">
    <path d="M 135 418.130526 
L 515.454545 418.130526 
L 515.454545 155.52 
L 135 155.52 
z
" style="fill: #ffffff"/>
   </g>
   <g id="matplotlib.axis_1">
    <g id="xtick_1">
     <g id="line2d_1">
      <defs>
       <path id="m180dc2520a" d="M 0 0 
L 0 3.5 
" style="stroke: #000000; stroke-width: 0.8"/>
      </defs>
      <g>
       <use xlink:href="#m180dc2520a" x="137.882231" y="418.130526" style="stroke: #000000; stroke-width: 0.8"/>
      </g>
     </g>
     <g id="text_1">
      <!-- 0 -->
      <g transform="translate(131.519731 440.327401) scale(0.2 -0.2)">
       <defs>
        <path id="DejaVuSans-30" d="M 2034 4250 
Q 1547 4250 1301 3770 
Q 1056 3291 1056 2328 
Q 1056 1369 1301 889 
Q 1547 409 2034 409 
Q 2525 409 2770 889 
Q 3016 1369 3016 2328 
Q 3016 3291 2770 3770 
Q 2525 4250 2034 4250 
z
M 2034 4750 
Q 2819 4750 3233 4129 
Q 3647 3509 3647 2328 
Q 3647 1150 3233 529 
Q 2819 -91 2034 -91 
Q 1250 -91 836 529 
Q 422 1150 422 2328 
Q 422 3509 836 4129 
Q 1250 4750 2034 4750 
z
" transform="scale(0.015625)"/>
       </defs>
       <use xlink:href="#DejaVuSans-30"/>
      </g>
     </g>
    </g>
    <g id="xtick_2">
     <g id="line2d_2">
      <g>
       <use xlink:href="#m180dc2520a" x="209.938017" y="418.130526" style="stroke: #000000; stroke-width: 0.8"/>
      </g>
     </g>
     <g id="text_2">
      <!-- 10 -->
      <g transform="translate(197.213017 440.327401) scale(0.2 -0.2)">
       <defs>
        <path id="DejaVuSans-31" d="M 794 531 
L 1825 531 
L 1825 4091 
L 703 3866 
L 703 4441 
L 1819 4666 
L 2450 4666 
L 2450 531 
L 3481 531 
L 3481 0 
L 794 0 
L 794 531 
z
" transform="scale(0.015625)"/>
       </defs>
       <use xlink:href="#DejaVuSans-31"/>
       <use xlink:href="#DejaVuSans-30" x="63.623047"/>
      </g>
     </g>
    </g>
    <g id="xtick_3">
     <g id="line2d_3">
      <g>
       <use xlink:href="#m180dc2520a" x="281.993802" y="418.130526" style="stroke: #000000; stroke-width: 0.8"/>
      </g>
     </g>
     <g id="text_3">
      <!-- 20 -->
      <g transform="translate(269.268802 440.327401) scale(0.2 -0.2)">
       <defs>
        <path id="DejaVuSans-32" d="M 1228 531 
L 3431 531 
L 3431 0 
L 469 0 
L 469 531 
Q 828 903 1448 1529 
Q 2069 2156 2228 2338 
Q 2531 2678 2651 2914 
Q 2772 3150 2772 3378 
Q 2772 3750 2511 3984 
Q 2250 4219 1831 4219 
Q 1534 4219 1204 4116 
Q 875 4013 500 3803 
L 500 4441 
Q 881 4594 1212 4672 
Q 1544 4750 1819 4750 
Q 2544 4750 2975 4387 
Q 3406 4025 3406 3419 
Q 3406 3131 3298 2873 
Q 3191 2616 2906 2266 
Q 2828 2175 2409 1742 
Q 1991 1309 1228 531 
z
" transform="scale(0.015625)"/>
       </defs>
       <use xlink:href="#DejaVuSans-32"/>
       <use xlink:href="#DejaVuSans-30" x="63.623047"/>
      </g>
     </g>
    </g>
    <g id="xtick_4">
     <g id="line2d_4">
      <g>
       <use xlink:href="#m180dc2520a" x="354.049587" y="418.130526" style="stroke: #000000; stroke-width: 0.8"/>
      </g>
     </g>
     <g id="text_4">
      <!-- 30 -->
      <g transform="translate(341.324587 440.327401) scale(0.2 -0.2)">
       <defs>
        <path id="DejaVuSans-33" d="M 2597 2516 
Q 3050 2419 3304 2112 
Q 3559 1806 3559 1356 
Q 3559 666 3084 287 
Q 2609 -91 1734 -91 
Q 1441 -91 1130 -33 
Q 819 25 488 141 
L 488 750 
Q 750 597 1062 519 
Q 1375 441 1716 441 
Q 2309 441 2620 675 
Q 2931 909 2931 1356 
Q 2931 1769 2642 2001 
Q 2353 2234 1838 2234 
L 1294 2234 
L 1294 2753 
L 1863 2753 
Q 2328 2753 2575 2939 
Q 2822 3125 2822 3475 
Q 2822 3834 2567 4026 
Q 2313 4219 1838 4219 
Q 1578 4219 1281 4162 
Q 984 4106 628 3988 
L 628 4550 
Q 988 4650 1302 4700 
Q 1616 4750 1894 4750 
Q 2613 4750 3031 4423 
Q 3450 4097 3450 3541 
Q 3450 3153 3228 2886 
Q 3006 2619 2597 2516 
z
" transform="scale(0.015625)"/>
       </defs>
       <use xlink:href="#DejaVuSans-33"/>
       <use xlink:href="#DejaVuSans-30" x="63.623047"/>
      </g>
     </g>
    </g>
    <g id="xtick_5">
     <g id="line2d_5">
      <g>
       <use xlink:href="#m180dc2520a" x="426.105372" y="418.130526" style="stroke: #000000; stroke-width: 0.8"/>
      </g>
     </g>
     <g id="text_5">
      <!-- 40 -->
      <g transform="translate(413.380372 440.327401) scale(0.2 -0.2)">
       <defs>
        <path id="DejaVuSans-34" d="M 2419 4116 
L 825 1625 
L 2419 1625 
L 2419 4116 
z
M 2253 4666 
L 3047 4666 
L 3047 1625 
L 3713 1625 
L 3713 1100 
L 3047 1100 
L 3047 0 
L 2419 0 
L 2419 1100 
L 313 1100 
L 313 1709 
L 2253 4666 
z
" transform="scale(0.015625)"/>
       </defs>
       <use xlink:href="#DejaVuSans-34"/>
       <use xlink:href="#DejaVuSans-30" x="63.623047"/>
      </g>
     </g>
    </g>
    <g id="xtick_6">
     <g id="line2d_6">
      <g>
       <use xlink:href="#m180dc2520a" x="498.161157" y="418.130526" style="stroke: #000000; stroke-width: 0.8"/>
      </g>
     </g>
     <g id="text_6">
      <!-- 50 -->
      <g transform="translate(485.436157 440.327401) scale(0.2 -0.2)">
       <defs>
        <path id="DejaVuSans-35" d="M 691 4666 
L 3169 4666 
L 3169 4134 
L 1269 4134 
L 1269 2991 
Q 1406 3038 1543 3061 
Q 1681 3084 1819 3084 
Q 2600 3084 3056 2656 
Q 3513 2228 3513 1497 
Q 3513 744 3044 326 
Q 2575 -91 1722 -91 
Q 1428 -91 1123 -41 
Q 819 9 494 109 
L 494 744 
Q 775 591 1075 516 
Q 1375 441 1709 441 
Q 2250 441 2565 725 
Q 2881 1009 2881 1497 
Q 2881 1984 2565 2268 
Q 2250 2553 1709 2553 
Q 1456 2553 1204 2497 
Q 953 2441 691 2322 
L 691 4666 
z
" transform="scale(0.015625)"/>
       </defs>
       <use xlink:href="#DejaVuSans-35"/>
       <use xlink:href="#DejaVuSans-30" x="63.623047"/>
      </g>
     </g>
    </g>
    <g id="text_7">
     <!-- k -->
     <g transform="translate(318.278523 466.723026) scale(0.24 -0.24)">
      <defs>
       <path id="DejaVuSans-6b" d="M 581 4863 
L 1159 4863 
L 1159 1991 
L 2875 3500 
L 3609 3500 
L 1753 1863 
L 3688 0 
L 2938 0 
L 1159 1709 
L 1159 0 
L 581 0 
L 581 4863 
z
" transform="scale(0.015625)"/>
      </defs>
      <use xlink:href="#DejaVuSans-6b"/>
     </g>
    </g>
   </g>
   <g id="matplotlib.axis_2">
    <g id="ytick_1">
     <g id="line2d_7">
      <defs>
       <path id="m98738be814" d="M 0 0 
L -3.5 0 
" style="stroke: #000000; stroke-width: 0.8"/>
      </defs>
      <g>
       <use xlink:href="#m98738be814" x="135" y="418.130526" style="stroke: #000000; stroke-width: 0.8"/>
      </g>
     </g>
     <g id="text_8">
      <!-- 0.0 -->
      <g transform="translate(96.19375 425.728964) scale(0.2 -0.2)">
       <defs>
        <path id="DejaVuSans-2e" d="M 684 794 
L 1344 794 
L 1344 0 
L 684 0 
L 684 794 
z
" transform="scale(0.015625)"/>
       </defs>
       <use xlink:href="#DejaVuSans-30"/>
       <use xlink:href="#DejaVuSans-2e" x="63.623047"/>
       <use xlink:href="#DejaVuSans-30" x="95.410156"/>
      </g>
     </g>
    </g>
    <g id="ytick_2">
     <g id="line2d_8">
      <g>
       <use xlink:href="#m98738be814" x="135" y="352.477895" style="stroke: #000000; stroke-width: 0.8"/>
      </g>
     </g>
     <g id="text_9">
      <!-- 0.2 -->
      <g transform="translate(96.19375 360.076332) scale(0.2 -0.2)">
       <use xlink:href="#DejaVuSans-30"/>
       <use xlink:href="#DejaVuSans-2e" x="63.623047"/>
       <use xlink:href="#DejaVuSans-32" x="95.410156"/>
      </g>
     </g>
    </g>
    <g id="ytick_3">
     <g id="line2d_9">
      <g>
       <use xlink:href="#m98738be814" x="135" y="286.825263" style="stroke: #000000; stroke-width: 0.8"/>
      </g>
     </g>
     <g id="text_10">
      <!-- 0.4 -->
      <g transform="translate(96.19375 294.423701) scale(0.2 -0.2)">
       <use xlink:href="#DejaVuSans-30"/>
       <use xlink:href="#DejaVuSans-2e" x="63.623047"/>
       <use xlink:href="#DejaVuSans-34" x="95.410156"/>
      </g>
     </g>
    </g>
    <g id="ytick_4">
     <g id="line2d_10">
      <g>
       <use xlink:href="#m98738be814" x="135" y="221.172632" style="stroke: #000000; stroke-width: 0.8"/>
      </g>
     </g>
     <g id="text_11">
      <!-- 0.6 -->
      <g transform="translate(96.19375 228.771069) scale(0.2 -0.2)">
       <defs>
        <path id="DejaVuSans-36" d="M 2113 2584 
Q 1688 2584 1439 2293 
Q 1191 2003 1191 1497 
Q 1191 994 1439 701 
Q 1688 409 2113 409 
Q 2538 409 2786 701 
Q 3034 994 3034 1497 
Q 3034 2003 2786 2293 
Q 2538 2584 2113 2584 
z
M 3366 4563 
L 3366 3988 
Q 3128 4100 2886 4159 
Q 2644 4219 2406 4219 
Q 1781 4219 1451 3797 
Q 1122 3375 1075 2522 
Q 1259 2794 1537 2939 
Q 1816 3084 2150 3084 
Q 2853 3084 3261 2657 
Q 3669 2231 3669 1497 
Q 3669 778 3244 343 
Q 2819 -91 2113 -91 
Q 1303 -91 875 529 
Q 447 1150 447 2328 
Q 447 3434 972 4092 
Q 1497 4750 2381 4750 
Q 2619 4750 2861 4703 
Q 3103 4656 3366 4563 
z
" transform="scale(0.015625)"/>
       </defs>
       <use xlink:href="#DejaVuSans-30"/>
       <use xlink:href="#DejaVuSans-2e" x="63.623047"/>
       <use xlink:href="#DejaVuSans-36" x="95.410156"/>
      </g>
     </g>
    </g>
    <g id="ytick_5">
     <g id="line2d_11">
      <g>
       <use xlink:href="#m98738be814" x="135" y="155.52" style="stroke: #000000; stroke-width: 0.8"/>
      </g>
     </g>
     <g id="text_12">
      <!-- 0.8 -->
      <g transform="translate(96.19375 163.118438) scale(0.2 -0.2)">
       <defs>
        <path id="DejaVuSans-38" d="M 2034 2216 
Q 1584 2216 1326 1975 
Q 1069 1734 1069 1313 
Q 1069 891 1326 650 
Q 1584 409 2034 409 
Q 2484 409 2743 651 
Q 3003 894 3003 1313 
Q 3003 1734 2745 1975 
Q 2488 2216 2034 2216 
z
M 1403 2484 
Q 997 2584 770 2862 
Q 544 3141 544 3541 
Q 544 4100 942 4425 
Q 1341 4750 2034 4750 
Q 2731 4750 3128 4425 
Q 3525 4100 3525 3541 
Q 3525 3141 3298 2862 
Q 3072 2584 2669 2484 
Q 3125 2378 3379 2068 
Q 3634 1759 3634 1313 
Q 3634 634 3220 271 
Q 2806 -91 2034 -91 
Q 1263 -91 848 271 
Q 434 634 434 1313 
Q 434 1759 690 2068 
Q 947 2378 1403 2484 
z
M 1172 3481 
Q 1172 3119 1398 2916 
Q 1625 2713 2034 2713 
Q 2441 2713 2670 2916 
Q 2900 3119 2900 3481 
Q 2900 3844 2670 4047 
Q 2441 4250 2034 4250 
Q 1625 4250 1398 4047 
Q 1172 3844 1172 3481 
z
" transform="scale(0.015625)"/>
       </defs>
       <use xlink:href="#DejaVuSans-30"/>
       <use xlink:href="#DejaVuSans-2e" x="63.623047"/>
       <use xlink:href="#DejaVuSans-38" x="95.410156"/>
      </g>
     </g>
    </g>
    <g id="text_13">
     <!-- $P_{NN}$ -->
     <g transform="translate(87.2025 306.985263) rotate(-90) scale(0.24 -0.24)">
      <defs>
       <path id="DejaVuSans-Oblique-50" d="M 1081 4666 
L 2541 4666 
Q 3178 4666 3512 4369 
Q 3847 4072 3847 3500 
Q 3847 2731 3353 2303 
Q 2859 1875 1966 1875 
L 1172 1875 
L 806 0 
L 172 0 
L 1081 4666 
z
M 1613 4147 
L 1275 2394 
L 2069 2394 
Q 2606 2394 2893 2669 
Q 3181 2944 3181 3456 
Q 3181 3784 2986 3965 
Q 2791 4147 2438 4147 
L 1613 4147 
z
" transform="scale(0.015625)"/>
       <path id="DejaVuSans-Oblique-4e" d="M 1081 4666 
L 1931 4666 
L 3219 666 
L 4000 4666 
L 4616 4666 
L 3706 0 
L 2853 0 
L 1569 4025 
L 788 0 
L 172 0 
L 1081 4666 
z
" transform="scale(0.015625)"/>
      </defs>
      <use xlink:href="#DejaVuSans-Oblique-50" transform="translate(0 0.09375)"/>
      <use xlink:href="#DejaVuSans-Oblique-4e" transform="translate(60.302734 -16.3125) scale(0.7)"/>
      <use xlink:href="#DejaVuSans-Oblique-4e" transform="translate(112.666016 -16.3125) scale(0.7)"/>
     </g>
    </g>
   </g>
   <g id="line2d_12">
    <path d="M 152.293388 377.91502 
L 173.910124 365.327239 
L 209.938017 359.082393 
L 281.993802 349.813209 
L 498.161157 331.954908 
" clip-path="url(#pcdb3c2d726)" style="fill: none; stroke: #1f77b4; stroke-width: 1.5; stroke-linecap: square"/>
    <defs>
     <path id="mb0b19dc637" d="M 0 3 
C 0.795609 3 1.55874 2.683901 2.12132 2.12132 
C 2.683901 1.55874 3 0.795609 3 0 
C 3 -0.795609 2.683901 -1.55874 2.12132 -2.12132 
C 1.55874 -2.683901 0.795609 -3 0 -3 
C -0.795609 -3 -1.55874 -2.683901 -2.12132 -2.12132 
C -2.683901 -1.55874 -3 -0.795609 -3 0 
C -3 0.795609 -2.683901 1.55874 -2.12132 2.12132 
C -1.55874 2.683901 -0.795609 3 0 3 
z
" style="stroke: #1f77b4"/>
    </defs>
    <g clip-path="url(#pcdb3c2d726)">
     <use xlink:href="#mb0b19dc637" x="152.293388" y="377.91502" style="fill: #1f77b4; stroke: #1f77b4"/>
     <use xlink:href="#mb0b19dc637" x="173.910124" y="365.327239" style="fill: #1f77b4; stroke: #1f77b4"/>
     <use xlink:href="#mb0b19dc637" x="209.938017" y="359.082393" style="fill: #1f77b4; stroke: #1f77b4"/>
     <use xlink:href="#mb0b19dc637" x="281.993802" y="349.813209" style="fill: #1f77b4; stroke: #1f77b4"/>
     <use xlink:href="#mb0b19dc637" x="498.161157" y="331.954908" style="fill: #1f77b4; stroke: #1f77b4"/>
    </g>
   </g>
   <g id="line2d_13">
    <path d="M 152.293388 218.03386 
L 173.910124 217.608818 
L 209.938017 223.346885 
L 281.993802 230.237468 
L 498.161157 239.187871 
" clip-path="url(#pcdb3c2d726)" style="fill: none; stroke: #ff7f0e; stroke-width: 1.5; stroke-linecap: square"/>
    <defs>
     <path id="me53bada7cf" d="M 0 3 
C 0.795609 3 1.55874 2.683901 2.12132 2.12132 
C 2.683901 1.55874 3 0.795609 3 0 
C 3 -0.795609 2.683901 -1.55874 2.12132 -2.12132 
C 1.55874 -2.683901 0.795609 -3 0 -3 
C -0.795609 -3 -1.55874 -2.683901 -2.12132 -2.12132 
C -2.683901 -1.55874 -3 -0.795609 -3 0 
C -3 0.795609 -2.683901 1.55874 -2.12132 2.12132 
C -1.55874 2.683901 -0.795609 3 0 3 
z
" style="stroke: #ff7f0e"/>
    </defs>
    <g clip-path="url(#pcdb3c2d726)">
     <use xlink:href="#me53bada7cf" x="152.293388" y="218.03386" style="fill: #ff7f0e; stroke: #ff7f0e"/>
     <use xlink:href="#me53bada7cf" x="173.910124" y="217.608818" style="fill: #ff7f0e; stroke: #ff7f0e"/>
     <use xlink:href="#me53bada7cf" x="209.938017" y="223.346885" style="fill: #ff7f0e; stroke: #ff7f0e"/>
     <use xlink:href="#me53bada7cf" x="281.993802" y="230.237468" style="fill: #ff7f0e; stroke: #ff7f0e"/>
     <use xlink:href="#me53bada7cf" x="498.161157" y="239.187871" style="fill: #ff7f0e; stroke: #ff7f0e"/>
    </g>
   </g>
   <g id="line2d_14">
    <path d="M 152.293388 316.447417 
L 173.910124 275.381826 
L 209.938017 249.029226 
L 281.993802 238.247874 
L 498.161157 244.837659 
" clip-path="url(#pcdb3c2d726)" style="fill: none; stroke: #2ca02c; stroke-width: 1.5; stroke-linecap: square"/>
    <defs>
     <path id="m3177d75b67" d="M 0 3 
C 0.795609 3 1.55874 2.683901 2.12132 2.12132 
C 2.683901 1.55874 3 0.795609 3 0 
C 3 -0.795609 2.683901 -1.55874 2.12132 -2.12132 
C 1.55874 -2.683901 0.795609 -3 0 -3 
C -0.795609 -3 -1.55874 -2.683901 -2.12132 -2.12132 
C -2.683901 -1.55874 -3 -0.795609 -3 0 
C -3 0.795609 -2.683901 1.55874 -2.12132 2.12132 
C -1.55874 2.683901 -0.795609 3 0 3 
z
" style="stroke: #2ca02c"/>
    </defs>
    <g clip-path="url(#pcdb3c2d726)">
     <use xlink:href="#m3177d75b67" x="152.293388" y="316.447417" style="fill: #2ca02c; stroke: #2ca02c"/>
     <use xlink:href="#m3177d75b67" x="173.910124" y="275.381826" style="fill: #2ca02c; stroke: #2ca02c"/>
     <use xlink:href="#m3177d75b67" x="209.938017" y="249.029226" style="fill: #2ca02c; stroke: #2ca02c"/>
     <use xlink:href="#m3177d75b67" x="281.993802" y="238.247874" style="fill: #2ca02c; stroke: #2ca02c"/>
     <use xlink:href="#m3177d75b67" x="498.161157" y="244.837659" style="fill: #2ca02c; stroke: #2ca02c"/>
    </g>
   </g>
   <g id="line2d_15">
    <path d="M 152.293388 323.068262 
L 173.910124 286.92335 
L 209.938017 264.183606 
L 281.993802 243.013248 
L 498.161157 231.177465 
" clip-path="url(#pcdb3c2d726)" style="fill: none; stroke: #d62728; stroke-width: 1.5; stroke-linecap: square"/>
    <defs>
     <path id="m275af5b69e" d="M 0 3 
C 0.795609 3 1.55874 2.683901 2.12132 2.12132 
C 2.683901 1.55874 3 0.795609 3 0 
C 3 -0.795609 2.683901 -1.55874 2.12132 -2.12132 
C 1.55874 -2.683901 0.795609 -3 0 -3 
C -0.795609 -3 -1.55874 -2.683901 -2.12132 -2.12132 
C -2.683901 -1.55874 -3 -0.795609 -3 0 
C -3 0.795609 -2.683901 1.55874 -2.12132 2.12132 
C -1.55874 2.683901 -0.795609 3 0 3 
z
" style="stroke: #d62728"/>
    </defs>
    <g clip-path="url(#pcdb3c2d726)">
     <use xlink:href="#m275af5b69e" x="152.293388" y="323.068262" style="fill: #d62728; stroke: #d62728"/>
     <use xlink:href="#m275af5b69e" x="173.910124" y="286.92335" style="fill: #d62728; stroke: #d62728"/>
     <use xlink:href="#m275af5b69e" x="209.938017" y="264.183606" style="fill: #d62728; stroke: #d62728"/>
     <use xlink:href="#m275af5b69e" x="281.993802" y="243.013248" style="fill: #d62728; stroke: #d62728"/>
     <use xlink:href="#m275af5b69e" x="498.161157" y="231.177465" style="fill: #d62728; stroke: #d62728"/>
    </g>
   </g>
   <g id="patch_3">
    <path d="M 135 418.130526 
L 135 155.52 
" style="fill: none; stroke: #000000; stroke-width: 0.8; stroke-linejoin: miter; stroke-linecap: square"/>
   </g>
   <g id="patch_4">
    <path d="M 515.454545 418.130526 
L 515.454545 155.52 
" style="fill: none; stroke: #000000; stroke-width: 0.8; stroke-linejoin: miter; stroke-linecap: square"/>
   </g>
   <g id="patch_5">
    <path d="M 135 418.130526 
L 515.454545 418.130526 
" style="fill: none; stroke: #000000; stroke-width: 0.8; stroke-linejoin: miter; stroke-linecap: square"/>
   </g>
   <g id="patch_6">
    <path d="M 135 155.52 
L 515.454545 155.52 
" style="fill: none; stroke: #000000; stroke-width: 0.8; stroke-linejoin: miter; stroke-linecap: square"/>
   </g>
   <g id="text_14">
    <!-- a -->
    <g transform="translate(89.472557 137.404046) scale(0.28 -0.28)">
     <defs>
      <path id="DejaVuSans-Bold-61" d="M 2106 1575 
Q 1756 1575 1579 1456 
Q 1403 1338 1403 1106 
Q 1403 894 1545 773 
Q 1688 653 1941 653 
Q 2256 653 2472 879 
Q 2688 1106 2688 1447 
L 2688 1575 
L 2106 1575 
z
M 3816 1997 
L 3816 0 
L 2688 0 
L 2688 519 
Q 2463 200 2181 54 
Q 1900 -91 1497 -91 
Q 953 -91 614 226 
Q 275 544 275 1050 
Q 275 1666 698 1953 
Q 1122 2241 2028 2241 
L 2688 2241 
L 2688 2328 
Q 2688 2594 2478 2717 
Q 2269 2841 1825 2841 
Q 1466 2841 1156 2769 
Q 847 2697 581 2553 
L 581 3406 
Q 941 3494 1303 3539 
Q 1666 3584 2028 3584 
Q 2975 3584 3395 3211 
Q 3816 2838 3816 1997 
z
" transform="scale(0.015625)"/>
     </defs>
     <use xlink:href="#DejaVuSans-Bold-61"/>
    </g>
   </g>
   <g id="text_15">
    <!-- $P_{NN}$ -->
    <g transform="translate(303.387273 149.52) scale(0.26 -0.26)">
     <use xlink:href="#DejaVuSans-Oblique-50" transform="translate(0 0.09375)"/>
     <use xlink:href="#DejaVuSans-Oblique-4e" transform="translate(60.302734 -16.3125) scale(0.7)"/>
     <use xlink:href="#DejaVuSans-Oblique-4e" transform="translate(112.666016 -16.3125) scale(0.7)"/>
    </g>
   </g>
  </g>
  <g id="axes_2">
   <g id="patch_7">
    <path d="M 591.545455 418.130526 
L 972 418.130526 
L 972 155.52 
L 591.545455 155.52 
z
" style="fill: #ffffff"/>
   </g>
   <g id="patch_8">
    <path d="M 608.838843 418.130526 
L 628.792753 418.130526 
L 628.792753 192.650122 
L 608.838843 192.650122 
z
" clip-path="url(#p6460e677a4)" style="fill: #1f77b4"/>
   </g>
   <g id="patch_9">
    <path d="M 741.864908 418.130526 
L 761.818818 418.130526 
L 761.818818 289.763609 
L 741.864908 289.763609 
z
" clip-path="url(#p6460e677a4)" style="fill: #1f77b4"/>
   </g>
   <g id="patch_10">
    <path d="M 874.890973 418.130526 
L 894.844882 418.130526 
L 894.844882 168.025263 
L 874.890973 168.025263 
z
" clip-path="url(#p6460e677a4)" style="fill: #1f77b4"/>
   </g>
   <g id="patch_11">
    <path d="M 628.792753 418.130526 
L 648.746662 418.130526 
L 648.746662 200.453231 
L 628.792753 200.453231 
z
" clip-path="url(#p6460e677a4)" style="fill: #ff7f0e"/>
   </g>
   <g id="patch_12">
    <path d="M 761.818818 418.130526 
L 781.772727 418.130526 
L 781.772727 230.280937 
L 761.818818 230.280937 
z
" clip-path="url(#p6460e677a4)" style="fill: #ff7f0e"/>
   </g>
   <g id="patch_13">
    <path d="M 894.844882 418.130526 
L 914.798792 418.130526 
L 914.798792 200.35888 
L 894.844882 200.35888 
z
" clip-path="url(#p6460e677a4)" style="fill: #ff7f0e"/>
   </g>
   <g id="patch_14">
    <path d="M 648.746662 418.130526 
L 668.700572 418.130526 
L 668.700572 204.236083 
L 648.746662 204.236083 
z
" clip-path="url(#p6460e677a4)" style="fill: #2ca02c"/>
   </g>
   <g id="patch_15">
    <path d="M 781.772727 418.130526 
L 801.726637 418.130526 
L 801.726637 270.451388 
L 781.772727 270.451388 
z
" clip-path="url(#p6460e677a4)" style="fill: #2ca02c"/>
   </g>
   <g id="patch_16">
    <path d="M 914.798792 418.130526 
L 934.752702 418.130526 
L 934.752702 203.531572 
L 914.798792 203.531572 
z
" clip-path="url(#p6460e677a4)" style="fill: #2ca02c"/>
   </g>
   <g id="patch_17">
    <path d="M 668.700572 418.130526 
L 688.654482 418.130526 
L 688.654482 203.368146 
L 668.700572 203.368146 
z
" clip-path="url(#p6460e677a4)" style="fill: #d62728"/>
   </g>
   <g id="patch_18">
    <path d="M 801.726637 418.130526 
L 821.680547 418.130526 
L 821.680547 261.792855 
L 801.726637 261.792855 
z
" clip-path="url(#p6460e677a4)" style="fill: #d62728"/>
   </g>
   <g id="patch_19">
    <path d="M 934.752702 418.130526 
L 954.706612 418.130526 
L 954.706612 202.045218 
L 934.752702 202.045218 
z
" clip-path="url(#p6460e677a4)" style="fill: #d62728"/>
   </g>
   <g id="matplotlib.axis_3">
    <g id="xtick_7">
     <g id="line2d_16">
      <g>
       <use xlink:href="#m180dc2520a" x="648.746662" y="418.130526" style="stroke: #000000; stroke-width: 0.8"/>
      </g>
     </g>
     <g id="text_16">
      <!-- AUC -->
      <g transform="translate(625.490256 441.847089) scale(0.22 -0.22)">
       <defs>
        <path id="DejaVuSans-41" d="M 2188 4044 
L 1331 1722 
L 3047 1722 
L 2188 4044 
z
M 1831 4666 
L 2547 4666 
L 4325 0 
L 3669 0 
L 3244 1197 
L 1141 1197 
L 716 0 
L 50 0 
L 1831 4666 
z
" transform="scale(0.015625)"/>
        <path id="DejaVuSans-55" d="M 556 4666 
L 1191 4666 
L 1191 1831 
Q 1191 1081 1462 751 
Q 1734 422 2344 422 
Q 2950 422 3222 751 
Q 3494 1081 3494 1831 
L 3494 4666 
L 4128 4666 
L 4128 1753 
Q 4128 841 3676 375 
Q 3225 -91 2344 -91 
Q 1459 -91 1007 375 
Q 556 841 556 1753 
L 556 4666 
z
" transform="scale(0.015625)"/>
        <path id="DejaVuSans-43" d="M 4122 4306 
L 4122 3641 
Q 3803 3938 3442 4084 
Q 3081 4231 2675 4231 
Q 1875 4231 1450 3742 
Q 1025 3253 1025 2328 
Q 1025 1406 1450 917 
Q 1875 428 2675 428 
Q 3081 428 3442 575 
Q 3803 722 4122 1019 
L 4122 359 
Q 3791 134 3420 21 
Q 3050 -91 2638 -91 
Q 1578 -91 968 557 
Q 359 1206 359 2328 
Q 359 3453 968 4101 
Q 1578 4750 2638 4750 
Q 3056 4750 3426 4639 
Q 3797 4528 4122 4306 
z
" transform="scale(0.015625)"/>
       </defs>
       <use xlink:href="#DejaVuSans-41"/>
       <use xlink:href="#DejaVuSans-55" x="68.408203"/>
       <use xlink:href="#DejaVuSans-43" x="141.601562"/>
      </g>
     </g>
    </g>
    <g id="xtick_8">
     <g id="line2d_17">
      <g>
       <use xlink:href="#m180dc2520a" x="781.772727" y="418.130526" style="stroke: #000000; stroke-width: 0.8"/>
      </g>
     </g>
     <g id="text_17">
      <!-- $Q_{local}$ -->
      <g transform="translate(754.822727 441.847089) scale(0.22 -0.22)">
       <defs>
        <path id="DejaVuSans-Oblique-51" d="M 2309 -84 
Q 2275 -88 2237 -89 
Q 2200 -91 2125 -91 
Q 1250 -91 756 411 
Q 263 913 263 1797 
Q 263 2319 452 2844 
Q 641 3369 978 3788 
Q 1369 4269 1858 4509 
Q 2347 4750 2938 4750 
Q 3794 4750 4287 4245 
Q 4781 3741 4781 2869 
Q 4781 1928 4265 1147 
Q 3750 366 2919 44 
L 3553 -825 
L 2847 -825 
L 2309 -84 
z
M 2919 4238 
Q 2400 4238 2003 3986 
Q 1606 3734 1313 3219 
Q 1125 2891 1026 2522 
Q 928 2153 928 1778 
Q 928 1128 1239 775 
Q 1550 422 2119 422 
Q 2631 422 3032 676 
Q 3434 931 3719 1434 
Q 3909 1772 4009 2142 
Q 4109 2513 4109 2881 
Q 4109 3528 3796 3883 
Q 3484 4238 2919 4238 
z
" transform="scale(0.015625)"/>
        <path id="DejaVuSans-Oblique-6c" d="M 1172 4863 
L 1747 4863 
L 800 0 
L 225 0 
L 1172 4863 
z
" transform="scale(0.015625)"/>
        <path id="DejaVuSans-Oblique-6f" d="M 1625 -91 
Q 1009 -91 651 289 
Q 294 669 294 1325 
Q 294 1706 417 2101 
Q 541 2497 738 2766 
Q 1047 3184 1428 3384 
Q 1809 3584 2291 3584 
Q 2888 3584 3255 3212 
Q 3622 2841 3622 2241 
Q 3622 1825 3500 1412 
Q 3378 1000 3181 728 
Q 2875 309 2494 109 
Q 2113 -91 1625 -91 
z
M 891 1344 
Q 891 869 1089 633 
Q 1288 397 1691 397 
Q 2269 397 2648 901 
Q 3028 1406 3028 2181 
Q 3028 2634 2825 2865 
Q 2622 3097 2228 3097 
Q 1903 3097 1650 2945 
Q 1397 2794 1197 2484 
Q 1050 2253 970 1956 
Q 891 1659 891 1344 
z
" transform="scale(0.015625)"/>
        <path id="DejaVuSans-Oblique-63" d="M 3431 3366 
L 3316 2797 
Q 3109 2947 2876 3022 
Q 2644 3097 2394 3097 
Q 2119 3097 1870 3000 
Q 1622 2903 1453 2725 
Q 1184 2453 1037 2087 
Q 891 1722 891 1331 
Q 891 859 1127 628 
Q 1363 397 1844 397 
Q 2081 397 2348 469 
Q 2616 541 2906 684 
L 2797 116 
Q 2547 13 2283 -39 
Q 2019 -91 1741 -91 
Q 1044 -91 669 257 
Q 294 606 294 1253 
Q 294 1797 489 2255 
Q 684 2713 1069 3078 
Q 1331 3328 1684 3456 
Q 2038 3584 2456 3584 
Q 2700 3584 2940 3529 
Q 3181 3475 3431 3366 
z
" transform="scale(0.015625)"/>
        <path id="DejaVuSans-Oblique-61" d="M 3438 1997 
L 3047 0 
L 2472 0 
L 2578 531 
Q 2325 219 2001 64 
Q 1678 -91 1281 -91 
Q 834 -91 548 182 
Q 263 456 263 884 
Q 263 1497 752 1853 
Q 1241 2209 2100 2209 
L 2900 2209 
L 2931 2363 
Q 2938 2388 2941 2417 
Q 2944 2447 2944 2509 
Q 2944 2788 2717 2942 
Q 2491 3097 2081 3097 
Q 1800 3097 1504 3025 
Q 1209 2953 897 2809 
L 997 3341 
Q 1322 3463 1633 3523 
Q 1944 3584 2234 3584 
Q 2853 3584 3176 3315 
Q 3500 3047 3500 2534 
Q 3500 2431 3484 2292 
Q 3469 2153 3438 1997 
z
M 2816 1759 
L 2241 1759 
Q 1534 1759 1195 1570 
Q 856 1381 856 984 
Q 856 709 1029 553 
Q 1203 397 1509 397 
Q 1978 397 2328 733 
Q 2678 1069 2791 1631 
L 2816 1759 
z
" transform="scale(0.015625)"/>
       </defs>
       <use xlink:href="#DejaVuSans-Oblique-51" transform="translate(0 0.78125)"/>
       <use xlink:href="#DejaVuSans-Oblique-6c" transform="translate(78.710938 -15.625) scale(0.7)"/>
       <use xlink:href="#DejaVuSans-Oblique-6f" transform="translate(98.15918 -15.625) scale(0.7)"/>
       <use xlink:href="#DejaVuSans-Oblique-63" transform="translate(140.986328 -15.625) scale(0.7)"/>
       <use xlink:href="#DejaVuSans-Oblique-61" transform="translate(179.472656 -15.625) scale(0.7)"/>
       <use xlink:href="#DejaVuSans-Oblique-6c" transform="translate(222.368164 -15.625) scale(0.7)"/>
      </g>
     </g>
    </g>
    <g id="xtick_9">
     <g id="line2d_18">
      <g>
       <use xlink:href="#m180dc2520a" x="914.798792" y="418.130526" style="stroke: #000000; stroke-width: 0.8"/>
      </g>
     </g>
     <g id="text_18">
      <!-- $Q_{global}$ -->
      <g transform="translate(882.348792 441.630526) scale(0.22 -0.22)">
       <defs>
        <path id="DejaVuSans-Oblique-67" d="M 3816 3500 
L 3219 434 
Q 3047 -456 2561 -893 
Q 2075 -1331 1253 -1331 
Q 950 -1331 690 -1286 
Q 431 -1241 206 -1147 
L 313 -588 
Q 525 -725 762 -790 
Q 1000 -856 1269 -856 
Q 1816 -856 2167 -557 
Q 2519 -259 2631 300 
L 2681 563 
Q 2441 288 2122 144 
Q 1803 0 1434 0 
Q 903 0 598 351 
Q 294 703 294 1319 
Q 294 1803 478 2267 
Q 663 2731 997 3091 
Q 1219 3328 1514 3456 
Q 1809 3584 2131 3584 
Q 2484 3584 2746 3420 
Q 3009 3256 3138 2956 
L 3238 3500 
L 3816 3500 
z
M 2950 2216 
Q 2950 2641 2750 2872 
Q 2550 3103 2181 3103 
Q 1953 3103 1747 3012 
Q 1541 2922 1394 2759 
Q 1156 2491 1023 2127 
Q 891 1763 891 1375 
Q 891 944 1092 712 
Q 1294 481 1672 481 
Q 2219 481 2584 976 
Q 2950 1472 2950 2216 
z
" transform="scale(0.015625)"/>
        <path id="DejaVuSans-Oblique-62" d="M 3169 2138 
Q 3169 2591 2961 2847 
Q 2753 3103 2388 3103 
Q 2122 3103 1889 2973 
Q 1656 2844 1484 2597 
Q 1303 2338 1198 1995 
Q 1094 1653 1094 1313 
Q 1094 881 1298 636 
Q 1503 391 1863 391 
Q 2134 391 2365 517 
Q 2597 644 2772 891 
Q 2950 1147 3059 1487 
Q 3169 1828 3169 2138 
z
M 1381 2969 
Q 1594 3256 1914 3420 
Q 2234 3584 2584 3584 
Q 3122 3584 3439 3221 
Q 3756 2859 3756 2241 
Q 3756 1734 3570 1259 
Q 3384 784 3041 416 
Q 2816 172 2522 40 
Q 2228 -91 1906 -91 
Q 1566 -91 1316 65 
Q 1066 222 909 531 
L 806 0 
L 231 0 
L 1178 4863 
L 1753 4863 
L 1381 2969 
z
" transform="scale(0.015625)"/>
       </defs>
       <use xlink:href="#DejaVuSans-Oblique-51" transform="translate(0 0.78125)"/>
       <use xlink:href="#DejaVuSans-Oblique-67" transform="translate(78.710938 -15.625) scale(0.7)"/>
       <use xlink:href="#DejaVuSans-Oblique-6c" transform="translate(123.144531 -15.625) scale(0.7)"/>
       <use xlink:href="#DejaVuSans-Oblique-6f" transform="translate(142.592773 -15.625) scale(0.7)"/>
       <use xlink:href="#DejaVuSans-Oblique-62" transform="translate(185.419922 -15.625) scale(0.7)"/>
       <use xlink:href="#DejaVuSans-Oblique-61" transform="translate(229.853516 -15.625) scale(0.7)"/>
       <use xlink:href="#DejaVuSans-Oblique-6c" transform="translate(272.749023 -15.625) scale(0.7)"/>
      </g>
     </g>
    </g>
   </g>
   <g id="matplotlib.axis_4">
    <g id="ytick_6">
     <g id="line2d_19">
      <g>
       <use xlink:href="#m98738be814" x="591.545455" y="418.130526" style="stroke: #000000; stroke-width: 0.8"/>
      </g>
     </g>
     <g id="text_19">
      <!-- 0.0 -->
      <g transform="translate(549.55858 426.488808) scale(0.22 -0.22)">
       <use xlink:href="#DejaVuSans-30"/>
       <use xlink:href="#DejaVuSans-2e" x="63.623047"/>
       <use xlink:href="#DejaVuSans-30" x="95.410156"/>
      </g>
     </g>
    </g>
    <g id="ytick_7">
     <g id="line2d_20">
      <g>
       <use xlink:href="#m98738be814" x="591.545455" y="356.627419" style="stroke: #000000; stroke-width: 0.8"/>
      </g>
     </g>
     <g id="text_20">
      <!-- 0.2 -->
      <g transform="translate(549.55858 364.9857) scale(0.22 -0.22)">
       <use xlink:href="#DejaVuSans-30"/>
       <use xlink:href="#DejaVuSans-2e" x="63.623047"/>
       <use xlink:href="#DejaVuSans-32" x="95.410156"/>
      </g>
     </g>
    </g>
    <g id="ytick_8">
     <g id="line2d_21">
      <g>
       <use xlink:href="#m98738be814" x="591.545455" y="295.124311" style="stroke: #000000; stroke-width: 0.8"/>
      </g>
     </g>
     <g id="text_21">
      <!-- 0.4 -->
      <g transform="translate(549.55858 303.482592) scale(0.22 -0.22)">
       <use xlink:href="#DejaVuSans-30"/>
       <use xlink:href="#DejaVuSans-2e" x="63.623047"/>
       <use xlink:href="#DejaVuSans-34" x="95.410156"/>
      </g>
     </g>
    </g>
    <g id="ytick_9">
     <g id="line2d_22">
      <g>
       <use xlink:href="#m98738be814" x="591.545455" y="233.621204" style="stroke: #000000; stroke-width: 0.8"/>
      </g>
     </g>
     <g id="text_22">
      <!-- 0.6 -->
      <g transform="translate(549.55858 241.979485) scale(0.22 -0.22)">
       <use xlink:href="#DejaVuSans-30"/>
       <use xlink:href="#DejaVuSans-2e" x="63.623047"/>
       <use xlink:href="#DejaVuSans-36" x="95.410156"/>
      </g>
     </g>
    </g>
    <g id="ytick_10">
     <g id="line2d_23">
      <g>
       <use xlink:href="#m98738be814" x="591.545455" y="172.118096" style="stroke: #000000; stroke-width: 0.8"/>
      </g>
     </g>
     <g id="text_23">
      <!-- 0.8 -->
      <g transform="translate(549.55858 180.476377) scale(0.22 -0.22)">
       <use xlink:href="#DejaVuSans-30"/>
       <use xlink:href="#DejaVuSans-2e" x="63.623047"/>
       <use xlink:href="#DejaVuSans-38" x="95.410156"/>
      </g>
     </g>
    </g>
    <g id="text_24">
     <!-- Metric Value -->
     <g transform="translate(540.983267 354.727919) rotate(-90) scale(0.22 -0.22)">
      <defs>
       <path id="DejaVuSans-4d" d="M 628 4666 
L 1569 4666 
L 2759 1491 
L 3956 4666 
L 4897 4666 
L 4897 0 
L 4281 0 
L 4281 4097 
L 3078 897 
L 2444 897 
L 1241 4097 
L 1241 0 
L 628 0 
L 628 4666 
z
" transform="scale(0.015625)"/>
       <path id="DejaVuSans-65" d="M 3597 1894 
L 3597 1613 
L 953 1613 
Q 991 1019 1311 708 
Q 1631 397 2203 397 
Q 2534 397 2845 478 
Q 3156 559 3463 722 
L 3463 178 
Q 3153 47 2828 -22 
Q 2503 -91 2169 -91 
Q 1331 -91 842 396 
Q 353 884 353 1716 
Q 353 2575 817 3079 
Q 1281 3584 2069 3584 
Q 2775 3584 3186 3129 
Q 3597 2675 3597 1894 
z
M 3022 2063 
Q 3016 2534 2758 2815 
Q 2500 3097 2075 3097 
Q 1594 3097 1305 2825 
Q 1016 2553 972 2059 
L 3022 2063 
z
" transform="scale(0.015625)"/>
       <path id="DejaVuSans-74" d="M 1172 4494 
L 1172 3500 
L 2356 3500 
L 2356 3053 
L 1172 3053 
L 1172 1153 
Q 1172 725 1289 603 
Q 1406 481 1766 481 
L 2356 481 
L 2356 0 
L 1766 0 
Q 1100 0 847 248 
Q 594 497 594 1153 
L 594 3053 
L 172 3053 
L 172 3500 
L 594 3500 
L 594 4494 
L 1172 4494 
z
" transform="scale(0.015625)"/>
       <path id="DejaVuSans-72" d="M 2631 2963 
Q 2534 3019 2420 3045 
Q 2306 3072 2169 3072 
Q 1681 3072 1420 2755 
Q 1159 2438 1159 1844 
L 1159 0 
L 581 0 
L 581 3500 
L 1159 3500 
L 1159 2956 
Q 1341 3275 1631 3429 
Q 1922 3584 2338 3584 
Q 2397 3584 2469 3576 
Q 2541 3569 2628 3553 
L 2631 2963 
z
" transform="scale(0.015625)"/>
       <path id="DejaVuSans-69" d="M 603 3500 
L 1178 3500 
L 1178 0 
L 603 0 
L 603 3500 
z
M 603 4863 
L 1178 4863 
L 1178 4134 
L 603 4134 
L 603 4863 
z
" transform="scale(0.015625)"/>
       <path id="DejaVuSans-63" d="M 3122 3366 
L 3122 2828 
Q 2878 2963 2633 3030 
Q 2388 3097 2138 3097 
Q 1578 3097 1268 2742 
Q 959 2388 959 1747 
Q 959 1106 1268 751 
Q 1578 397 2138 397 
Q 2388 397 2633 464 
Q 2878 531 3122 666 
L 3122 134 
Q 2881 22 2623 -34 
Q 2366 -91 2075 -91 
Q 1284 -91 818 406 
Q 353 903 353 1747 
Q 353 2603 823 3093 
Q 1294 3584 2113 3584 
Q 2378 3584 2631 3529 
Q 2884 3475 3122 3366 
z
" transform="scale(0.015625)"/>
       <path id="DejaVuSans-20" transform="scale(0.015625)"/>
       <path id="DejaVuSans-56" d="M 1831 0 
L 50 4666 
L 709 4666 
L 2188 738 
L 3669 4666 
L 4325 4666 
L 2547 0 
L 1831 0 
z
" transform="scale(0.015625)"/>
       <path id="DejaVuSans-61" d="M 2194 1759 
Q 1497 1759 1228 1600 
Q 959 1441 959 1056 
Q 959 750 1161 570 
Q 1363 391 1709 391 
Q 2188 391 2477 730 
Q 2766 1069 2766 1631 
L 2766 1759 
L 2194 1759 
z
M 3341 1997 
L 3341 0 
L 2766 0 
L 2766 531 
Q 2569 213 2275 61 
Q 1981 -91 1556 -91 
Q 1019 -91 701 211 
Q 384 513 384 1019 
Q 384 1609 779 1909 
Q 1175 2209 1959 2209 
L 2766 2209 
L 2766 2266 
Q 2766 2663 2505 2880 
Q 2244 3097 1772 3097 
Q 1472 3097 1187 3025 
Q 903 2953 641 2809 
L 641 3341 
Q 956 3463 1253 3523 
Q 1550 3584 1831 3584 
Q 2591 3584 2966 3190 
Q 3341 2797 3341 1997 
z
" transform="scale(0.015625)"/>
       <path id="DejaVuSans-6c" d="M 603 4863 
L 1178 4863 
L 1178 0 
L 603 0 
L 603 4863 
z
" transform="scale(0.015625)"/>
       <path id="DejaVuSans-75" d="M 544 1381 
L 544 3500 
L 1119 3500 
L 1119 1403 
Q 1119 906 1312 657 
Q 1506 409 1894 409 
Q 2359 409 2629 706 
Q 2900 1003 2900 1516 
L 2900 3500 
L 3475 3500 
L 3475 0 
L 2900 0 
L 2900 538 
Q 2691 219 2414 64 
Q 2138 -91 1772 -91 
Q 1169 -91 856 284 
Q 544 659 544 1381 
z
M 1991 3584 
L 1991 3584 
z
" transform="scale(0.015625)"/>
      </defs>
      <use xlink:href="#DejaVuSans-4d"/>
      <use xlink:href="#DejaVuSans-65" x="86.279297"/>
      <use xlink:href="#DejaVuSans-74" x="147.802734"/>
      <use xlink:href="#DejaVuSans-72" x="187.011719"/>
      <use xlink:href="#DejaVuSans-69" x="228.125"/>
      <use xlink:href="#DejaVuSans-63" x="255.908203"/>
      <use xlink:href="#DejaVuSans-20" x="310.888672"/>
      <use xlink:href="#DejaVuSans-56" x="342.675781"/>
      <use xlink:href="#DejaVuSans-61" x="403.333984"/>
      <use xlink:href="#DejaVuSans-6c" x="464.613281"/>
      <use xlink:href="#DejaVuSans-75" x="492.396484"/>
      <use xlink:href="#DejaVuSans-65" x="555.775391"/>
     </g>
    </g>
   </g>
   <g id="patch_20">
    <path d="M 591.545455 418.130526 
L 591.545455 155.52 
" style="fill: none; stroke: #000000; stroke-width: 0.8; stroke-linejoin: miter; stroke-linecap: square"/>
   </g>
   <g id="patch_21">
    <path d="M 972 418.130526 
L 972 155.52 
" style="fill: none; stroke: #000000; stroke-width: 0.8; stroke-linejoin: miter; stroke-linecap: square"/>
   </g>
   <g id="patch_22">
    <path d="M 591.545455 418.130526 
L 972 418.130526 
" style="fill: none; stroke: #000000; stroke-width: 0.8; stroke-linejoin: miter; stroke-linecap: square"/>
   </g>
   <g id="patch_23">
    <path d="M 591.545455 155.52 
L 972 155.52 
" style="fill: none; stroke: #000000; stroke-width: 0.8; stroke-linejoin: miter; stroke-linecap: square"/>
   </g>
   <g id="text_25">
    <!-- b -->
    <g transform="translate(544.871761 137.404046) scale(0.28 -0.28)">
     <defs>
      <path id="DejaVuSans-Bold-62" d="M 2400 722 
Q 2759 722 2948 984 
Q 3138 1247 3138 1747 
Q 3138 2247 2948 2509 
Q 2759 2772 2400 2772 
Q 2041 2772 1848 2508 
Q 1656 2244 1656 1747 
Q 1656 1250 1848 986 
Q 2041 722 2400 722 
z
M 1656 2988 
Q 1888 3294 2169 3439 
Q 2450 3584 2816 3584 
Q 3463 3584 3878 3070 
Q 4294 2556 4294 1747 
Q 4294 938 3878 423 
Q 3463 -91 2816 -91 
Q 2450 -91 2169 54 
Q 1888 200 1656 506 
L 1656 0 
L 538 0 
L 538 4863 
L 1656 4863 
L 1656 2988 
z
" transform="scale(0.015625)"/>
     </defs>
     <use xlink:href="#DejaVuSans-Bold-62"/>
    </g>
   </g>
   <g id="text_26">
    <!-- Metrics -->
    <g transform="translate(734.584759 149.52) scale(0.26 -0.26)">
     <defs>
      <path id="DejaVuSans-73" d="M 2834 3397 
L 2834 2853 
Q 2591 2978 2328 3040 
Q 2066 3103 1784 3103 
Q 1356 3103 1142 2972 
Q 928 2841 928 2578 
Q 928 2378 1081 2264 
Q 1234 2150 1697 2047 
L 1894 2003 
Q 2506 1872 2764 1633 
Q 3022 1394 3022 966 
Q 3022 478 2636 193 
Q 2250 -91 1575 -91 
Q 1294 -91 989 -36 
Q 684 19 347 128 
L 347 722 
Q 666 556 975 473 
Q 1284 391 1588 391 
Q 1994 391 2212 530 
Q 2431 669 2431 922 
Q 2431 1156 2273 1281 
Q 2116 1406 1581 1522 
L 1381 1569 
Q 847 1681 609 1914 
Q 372 2147 372 2553 
Q 372 3047 722 3315 
Q 1072 3584 1716 3584 
Q 2034 3584 2315 3537 
Q 2597 3491 2834 3397 
z
" transform="scale(0.015625)"/>
     </defs>
     <use xlink:href="#DejaVuSans-4d"/>
     <use xlink:href="#DejaVuSans-65" x="86.279297"/>
     <use xlink:href="#DejaVuSans-74" x="147.802734"/>
     <use xlink:href="#DejaVuSans-72" x="187.011719"/>
     <use xlink:href="#DejaVuSans-69" x="228.125"/>
     <use xlink:href="#DejaVuSans-63" x="255.908203"/>
     <use xlink:href="#DejaVuSans-73" x="310.888672"/>
    </g>
   </g>
  </g>
  <g id="axes_3">
   <g id="patch_24">
    <path d="M 135 785.785263 
L 515.454545 785.785263 
L 515.454545 523.174737 
L 135 523.174737 
z
" style="fill: #ffffff"/>
   </g>
   <g id="matplotlib.axis_5">
    <g id="xtick_10">
     <g id="line2d_24">
      <g>
       <use xlink:href="#m180dc2520a" x="137.882231" y="785.785263" style="stroke: #000000; stroke-width: 0.8"/>
      </g>
     </g>
     <g id="text_27">
      <!-- 0 -->
      <g transform="translate(130.883481 809.501826) scale(0.22 -0.22)">
       <use xlink:href="#DejaVuSans-30"/>
      </g>
     </g>
    </g>
    <g id="xtick_11">
     <g id="line2d_25">
      <g>
       <use xlink:href="#m180dc2520a" x="281.993802" y="785.785263" style="stroke: #000000; stroke-width: 0.8"/>
      </g>
     </g>
     <g id="text_28">
      <!-- 20 -->
      <g transform="translate(267.996302 809.501826) scale(0.22 -0.22)">
       <use xlink:href="#DejaVuSans-32"/>
       <use xlink:href="#DejaVuSans-30" x="63.623047"/>
      </g>
     </g>
    </g>
    <g id="xtick_12">
     <g id="line2d_26">
      <g>
       <use xlink:href="#m180dc2520a" x="426.105372" y="785.785263" style="stroke: #000000; stroke-width: 0.8"/>
      </g>
     </g>
     <g id="text_29">
      <!-- 40 -->
      <g transform="translate(412.107872 809.501826) scale(0.22 -0.22)">
       <use xlink:href="#DejaVuSans-34"/>
       <use xlink:href="#DejaVuSans-30" x="63.623047"/>
      </g>
     </g>
    </g>
    <g id="text_30">
     <!-- k -->
     <g transform="translate(318.278523 836.313388) scale(0.24 -0.24)">
      <use xlink:href="#DejaVuSans-6b"/>
     </g>
    </g>
   </g>
   <g id="matplotlib.axis_6">
    <g id="ytick_11">
     <g id="line2d_27">
      <g>
       <use xlink:href="#m98738be814" x="135" y="762.704901" style="stroke: #000000; stroke-width: 0.8"/>
      </g>
     </g>
     <g id="text_31">
      <!-- 0.85 -->
      <g transform="translate(79.015625 771.063183) scale(0.22 -0.22)">
       <use xlink:href="#DejaVuSans-30"/>
       <use xlink:href="#DejaVuSans-2e" x="63.623047"/>
       <use xlink:href="#DejaVuSans-38" x="95.410156"/>
       <use xlink:href="#DejaVuSans-35" x="159.033203"/>
      </g>
     </g>
    </g>
    <g id="ytick_12">
     <g id="line2d_28">
      <g>
       <use xlink:href="#m98738be814" x="135" y="684.222251" style="stroke: #000000; stroke-width: 0.8"/>
      </g>
     </g>
     <g id="text_32">
      <!-- 0.90 -->
      <g transform="translate(79.015625 692.580532) scale(0.22 -0.22)">
       <defs>
        <path id="DejaVuSans-39" d="M 703 97 
L 703 672 
Q 941 559 1184 500 
Q 1428 441 1663 441 
Q 2288 441 2617 861 
Q 2947 1281 2994 2138 
Q 2813 1869 2534 1725 
Q 2256 1581 1919 1581 
Q 1219 1581 811 2004 
Q 403 2428 403 3163 
Q 403 3881 828 4315 
Q 1253 4750 1959 4750 
Q 2769 4750 3195 4129 
Q 3622 3509 3622 2328 
Q 3622 1225 3098 567 
Q 2575 -91 1691 -91 
Q 1453 -91 1209 -44 
Q 966 3 703 97 
z
M 1959 2075 
Q 2384 2075 2632 2365 
Q 2881 2656 2881 3163 
Q 2881 3666 2632 3958 
Q 2384 4250 1959 4250 
Q 1534 4250 1286 3958 
Q 1038 3666 1038 3163 
Q 1038 2656 1286 2365 
Q 1534 2075 1959 2075 
z
" transform="scale(0.015625)"/>
       </defs>
       <use xlink:href="#DejaVuSans-30"/>
       <use xlink:href="#DejaVuSans-2e" x="63.623047"/>
       <use xlink:href="#DejaVuSans-39" x="95.410156"/>
       <use xlink:href="#DejaVuSans-30" x="159.033203"/>
      </g>
     </g>
    </g>
    <g id="ytick_13">
     <g id="line2d_29">
      <g>
       <use xlink:href="#m98738be814" x="135" y="605.7396" style="stroke: #000000; stroke-width: 0.8"/>
      </g>
     </g>
     <g id="text_33">
      <!-- 0.95 -->
      <g transform="translate(79.015625 614.097881) scale(0.22 -0.22)">
       <use xlink:href="#DejaVuSans-30"/>
       <use xlink:href="#DejaVuSans-2e" x="63.623047"/>
       <use xlink:href="#DejaVuSans-39" x="95.410156"/>
       <use xlink:href="#DejaVuSans-35" x="159.033203"/>
      </g>
     </g>
    </g>
    <g id="ytick_14">
     <g id="line2d_30">
      <g>
       <use xlink:href="#m98738be814" x="135" y="527.25695" style="stroke: #000000; stroke-width: 0.8"/>
      </g>
     </g>
     <g id="text_34">
      <!-- 1.00 -->
      <g transform="translate(79.015625 535.615231) scale(0.22 -0.22)">
       <use xlink:href="#DejaVuSans-31"/>
       <use xlink:href="#DejaVuSans-2e" x="63.623047"/>
       <use xlink:href="#DejaVuSans-30" x="95.410156"/>
       <use xlink:href="#DejaVuSans-30" x="159.033203"/>
      </g>
     </g>
    </g>
    <g id="text_35">
     <!-- Metric Value -->
     <g transform="translate(70.024375 728.555625) rotate(-90) scale(0.24 -0.24)">
      <use xlink:href="#DejaVuSans-4d"/>
      <use xlink:href="#DejaVuSans-65" x="86.279297"/>
      <use xlink:href="#DejaVuSans-74" x="147.802734"/>
      <use xlink:href="#DejaVuSans-72" x="187.011719"/>
      <use xlink:href="#DejaVuSans-69" x="228.125"/>
      <use xlink:href="#DejaVuSans-63" x="255.908203"/>
      <use xlink:href="#DejaVuSans-20" x="310.888672"/>
      <use xlink:href="#DejaVuSans-56" x="342.675781"/>
      <use xlink:href="#DejaVuSans-61" x="403.333984"/>
      <use xlink:href="#DejaVuSans-6c" x="464.613281"/>
      <use xlink:href="#DejaVuSans-75" x="492.396484"/>
      <use xlink:href="#DejaVuSans-65" x="555.775391"/>
     </g>
    </g>
   </g>
   <g id="line2d_31">
    <path d="M 152.293388 773.006647 
L 173.910124 769.524919 
L 209.938017 771.222348 
L 281.993802 773.848421 
L 498.161157 772.101963 
" clip-path="url(#p88777ad46d)" style="fill: none; stroke: #1f77b4; stroke-width: 1.5; stroke-linecap: square"/>
    <g clip-path="url(#p88777ad46d)">
     <use xlink:href="#mb0b19dc637" x="152.293388" y="773.006647" style="fill: #1f77b4; stroke: #1f77b4"/>
     <use xlink:href="#mb0b19dc637" x="173.910124" y="769.524919" style="fill: #1f77b4; stroke: #1f77b4"/>
     <use xlink:href="#mb0b19dc637" x="209.938017" y="771.222348" style="fill: #1f77b4; stroke: #1f77b4"/>
     <use xlink:href="#mb0b19dc637" x="281.993802" y="773.848421" style="fill: #1f77b4; stroke: #1f77b4"/>
     <use xlink:href="#mb0b19dc637" x="498.161157" y="772.101963" style="fill: #1f77b4; stroke: #1f77b4"/>
    </g>
   </g>
   <g id="line2d_32">
    <path d="M 152.293388 535.111579 
L 173.910124 544.399155 
L 209.938017 558.617173 
L 281.993802 578.329315 
L 498.161157 621.968293 
" clip-path="url(#p88777ad46d)" style="fill: none; stroke: #ff7f0e; stroke-width: 1.5; stroke-linecap: square"/>
    <g clip-path="url(#p88777ad46d)">
     <use xlink:href="#me53bada7cf" x="152.293388" y="535.111579" style="fill: #ff7f0e; stroke: #ff7f0e"/>
     <use xlink:href="#me53bada7cf" x="173.910124" y="544.399155" style="fill: #ff7f0e; stroke: #ff7f0e"/>
     <use xlink:href="#me53bada7cf" x="209.938017" y="558.617173" style="fill: #ff7f0e; stroke: #ff7f0e"/>
     <use xlink:href="#me53bada7cf" x="281.993802" y="578.329315" style="fill: #ff7f0e; stroke: #ff7f0e"/>
     <use xlink:href="#me53bada7cf" x="498.161157" y="621.968293" style="fill: #ff7f0e; stroke: #ff7f0e"/>
    </g>
   </g>
   <g id="line2d_33">
    <path d="M 152.293388 555.132568 
L 173.910124 560.376081 
L 209.938017 570.239056 
L 281.993802 591.990046 
L 498.161157 643.23906 
" clip-path="url(#p88777ad46d)" style="fill: none; stroke: #2ca02c; stroke-width: 1.5; stroke-linecap: square"/>
    <g clip-path="url(#p88777ad46d)">
     <use xlink:href="#m3177d75b67" x="152.293388" y="555.132568" style="fill: #2ca02c; stroke: #2ca02c"/>
     <use xlink:href="#m3177d75b67" x="173.910124" y="560.376081" style="fill: #2ca02c; stroke: #2ca02c"/>
     <use xlink:href="#m3177d75b67" x="209.938017" y="570.239056" style="fill: #2ca02c; stroke: #2ca02c"/>
     <use xlink:href="#m3177d75b67" x="281.993802" y="591.990046" style="fill: #2ca02c; stroke: #2ca02c"/>
     <use xlink:href="#m3177d75b67" x="498.161157" y="643.23906" style="fill: #2ca02c; stroke: #2ca02c"/>
    </g>
   </g>
   <g id="line2d_34">
    <path d="M 152.293388 555.046579 
L 173.910124 560.107802 
L 209.938017 569.47913 
L 281.993802 582.071097 
L 498.161157 607.16555 
" clip-path="url(#p88777ad46d)" style="fill: none; stroke: #d62728; stroke-width: 1.5; stroke-linecap: square"/>
    <g clip-path="url(#p88777ad46d)">
     <use xlink:href="#m275af5b69e" x="152.293388" y="555.046579" style="fill: #d62728; stroke: #d62728"/>
     <use xlink:href="#m275af5b69e" x="173.910124" y="560.107802" style="fill: #d62728; stroke: #d62728"/>
     <use xlink:href="#m275af5b69e" x="209.938017" y="569.47913" style="fill: #d62728; stroke: #d62728"/>
     <use xlink:href="#m275af5b69e" x="281.993802" y="582.071097" style="fill: #d62728; stroke: #d62728"/>
     <use xlink:href="#m275af5b69e" x="498.161157" y="607.16555" style="fill: #d62728; stroke: #d62728"/>
    </g>
   </g>
   <g id="patch_25">
    <path d="M 135 785.785263 
L 135 523.174737 
" style="fill: none; stroke: #000000; stroke-width: 0.8; stroke-linejoin: miter; stroke-linecap: square"/>
   </g>
   <g id="patch_26">
    <path d="M 515.454545 785.785263 
L 515.454545 523.174737 
" style="fill: none; stroke: #000000; stroke-width: 0.8; stroke-linejoin: miter; stroke-linecap: square"/>
   </g>
   <g id="patch_27">
    <path d="M 135 785.785263 
L 515.454545 785.785263 
" style="fill: none; stroke: #000000; stroke-width: 0.8; stroke-linejoin: miter; stroke-linecap: square"/>
   </g>
   <g id="patch_28">
    <path d="M 135 523.174737 
L 515.454545 523.174737 
" style="fill: none; stroke: #000000; stroke-width: 0.8; stroke-linejoin: miter; stroke-linecap: square"/>
   </g>
   <g id="text_36">
    <!-- c -->
    <g transform="translate(91.769432 505.058783) scale(0.28 -0.28)">
     <defs>
      <path id="DejaVuSans-Bold-63" d="M 3366 3391 
L 3366 2478 
Q 3138 2634 2908 2709 
Q 2678 2784 2431 2784 
Q 1963 2784 1702 2511 
Q 1441 2238 1441 1747 
Q 1441 1256 1702 982 
Q 1963 709 2431 709 
Q 2694 709 2930 787 
Q 3166 866 3366 1019 
L 3366 103 
Q 3103 6 2833 -42 
Q 2563 -91 2291 -91 
Q 1344 -91 809 395 
Q 275 881 275 1747 
Q 275 2613 809 3098 
Q 1344 3584 2291 3584 
Q 2566 3584 2833 3536 
Q 3100 3488 3366 3391 
z
" transform="scale(0.015625)"/>
     </defs>
     <use xlink:href="#DejaVuSans-Bold-63"/>
    </g>
   </g>
   <g id="text_37">
    <!-- Trustworthiness -->
    <g transform="translate(230.950398 517.174737) scale(0.24 -0.24)">
     <defs>
      <path id="DejaVuSans-54" d="M -19 4666 
L 3928 4666 
L 3928 4134 
L 2272 4134 
L 2272 0 
L 1638 0 
L 1638 4134 
L -19 4134 
L -19 4666 
z
" transform="scale(0.015625)"/>
      <path id="DejaVuSans-77" d="M 269 3500 
L 844 3500 
L 1563 769 
L 2278 3500 
L 2956 3500 
L 3675 769 
L 4391 3500 
L 4966 3500 
L 4050 0 
L 3372 0 
L 2619 2869 
L 1863 0 
L 1184 0 
L 269 3500 
z
" transform="scale(0.015625)"/>
      <path id="DejaVuSans-6f" d="M 1959 3097 
Q 1497 3097 1228 2736 
Q 959 2375 959 1747 
Q 959 1119 1226 758 
Q 1494 397 1959 397 
Q 2419 397 2687 759 
Q 2956 1122 2956 1747 
Q 2956 2369 2687 2733 
Q 2419 3097 1959 3097 
z
M 1959 3584 
Q 2709 3584 3137 3096 
Q 3566 2609 3566 1747 
Q 3566 888 3137 398 
Q 2709 -91 1959 -91 
Q 1206 -91 779 398 
Q 353 888 353 1747 
Q 353 2609 779 3096 
Q 1206 3584 1959 3584 
z
" transform="scale(0.015625)"/>
      <path id="DejaVuSans-68" d="M 3513 2113 
L 3513 0 
L 2938 0 
L 2938 2094 
Q 2938 2591 2744 2837 
Q 2550 3084 2163 3084 
Q 1697 3084 1428 2787 
Q 1159 2491 1159 1978 
L 1159 0 
L 581 0 
L 581 4863 
L 1159 4863 
L 1159 2956 
Q 1366 3272 1645 3428 
Q 1925 3584 2291 3584 
Q 2894 3584 3203 3211 
Q 3513 2838 3513 2113 
z
" transform="scale(0.015625)"/>
      <path id="DejaVuSans-6e" d="M 3513 2113 
L 3513 0 
L 2938 0 
L 2938 2094 
Q 2938 2591 2744 2837 
Q 2550 3084 2163 3084 
Q 1697 3084 1428 2787 
Q 1159 2491 1159 1978 
L 1159 0 
L 581 0 
L 581 3500 
L 1159 3500 
L 1159 2956 
Q 1366 3272 1645 3428 
Q 1925 3584 2291 3584 
Q 2894 3584 3203 3211 
Q 3513 2838 3513 2113 
z
" transform="scale(0.015625)"/>
     </defs>
     <use xlink:href="#DejaVuSans-54"/>
     <use xlink:href="#DejaVuSans-72" x="46.333984"/>
     <use xlink:href="#DejaVuSans-75" x="87.447266"/>
     <use xlink:href="#DejaVuSans-73" x="150.826172"/>
     <use xlink:href="#DejaVuSans-74" x="202.925781"/>
     <use xlink:href="#DejaVuSans-77" x="242.134766"/>
     <use xlink:href="#DejaVuSans-6f" x="323.921875"/>
     <use xlink:href="#DejaVuSans-72" x="385.103516"/>
     <use xlink:href="#DejaVuSans-74" x="426.216797"/>
     <use xlink:href="#DejaVuSans-68" x="465.425781"/>
     <use xlink:href="#DejaVuSans-69" x="528.804688"/>
     <use xlink:href="#DejaVuSans-6e" x="556.587891"/>
     <use xlink:href="#DejaVuSans-65" x="619.966797"/>
     <use xlink:href="#DejaVuSans-73" x="681.490234"/>
     <use xlink:href="#DejaVuSans-73" x="733.589844"/>
    </g>
   </g>
  </g>
  <g id="axes_4">
   <g id="patch_29">
    <path d="M 591.545455 785.785263 
L 972 785.785263 
L 972 523.174737 
L 591.545455 523.174737 
z
" style="fill: #ffffff"/>
   </g>
   <g id="matplotlib.axis_7">
    <g id="xtick_13">
     <g id="line2d_35">
      <g>
       <use xlink:href="#m180dc2520a" x="594.427686" y="785.785263" style="stroke: #000000; stroke-width: 0.8"/>
      </g>
     </g>
     <g id="text_38">
      <!-- 0 -->
      <g transform="translate(587.428936 809.501826) scale(0.22 -0.22)">
       <use xlink:href="#DejaVuSans-30"/>
      </g>
     </g>
    </g>
    <g id="xtick_14">
     <g id="line2d_36">
      <g>
       <use xlink:href="#m180dc2520a" x="738.539256" y="785.785263" style="stroke: #000000; stroke-width: 0.8"/>
      </g>
     </g>
     <g id="text_39">
      <!-- 20 -->
      <g transform="translate(724.541756 809.501826) scale(0.22 -0.22)">
       <use xlink:href="#DejaVuSans-32"/>
       <use xlink:href="#DejaVuSans-30" x="63.623047"/>
      </g>
     </g>
    </g>
    <g id="xtick_15">
     <g id="line2d_37">
      <g>
       <use xlink:href="#m180dc2520a" x="882.650826" y="785.785263" style="stroke: #000000; stroke-width: 0.8"/>
      </g>
     </g>
     <g id="text_40">
      <!-- 40 -->
      <g transform="translate(868.653326 809.501826) scale(0.22 -0.22)">
       <use xlink:href="#DejaVuSans-34"/>
       <use xlink:href="#DejaVuSans-30" x="63.623047"/>
      </g>
     </g>
    </g>
    <g id="text_41">
     <!-- k -->
     <g transform="translate(774.823977 836.313388) scale(0.24 -0.24)">
      <use xlink:href="#DejaVuSans-6b"/>
     </g>
    </g>
   </g>
   <g id="matplotlib.axis_8">
    <g id="ytick_15">
     <g id="line2d_38">
      <g>
       <use xlink:href="#m98738be814" x="591.545455" y="725.818945" style="stroke: #000000; stroke-width: 0.8"/>
      </g>
     </g>
     <g id="text_42">
      <!-- 0.92 -->
      <g transform="translate(535.56108 734.177226) scale(0.22 -0.22)">
       <use xlink:href="#DejaVuSans-30"/>
       <use xlink:href="#DejaVuSans-2e" x="63.623047"/>
       <use xlink:href="#DejaVuSans-39" x="95.410156"/>
       <use xlink:href="#DejaVuSans-32" x="159.033203"/>
      </g>
     </g>
    </g>
    <g id="ytick_16">
     <g id="line2d_39">
      <g>
       <use xlink:href="#m98738be814" x="591.545455" y="663.099379" style="stroke: #000000; stroke-width: 0.8"/>
      </g>
     </g>
     <g id="text_43">
      <!-- 0.94 -->
      <g transform="translate(535.56108 671.45766) scale(0.22 -0.22)">
       <use xlink:href="#DejaVuSans-30"/>
       <use xlink:href="#DejaVuSans-2e" x="63.623047"/>
       <use xlink:href="#DejaVuSans-39" x="95.410156"/>
       <use xlink:href="#DejaVuSans-34" x="159.033203"/>
      </g>
     </g>
    </g>
    <g id="ytick_17">
     <g id="line2d_40">
      <g>
       <use xlink:href="#m98738be814" x="591.545455" y="600.379812" style="stroke: #000000; stroke-width: 0.8"/>
      </g>
     </g>
     <g id="text_44">
      <!-- 0.96 -->
      <g transform="translate(535.56108 608.738093) scale(0.22 -0.22)">
       <use xlink:href="#DejaVuSans-30"/>
       <use xlink:href="#DejaVuSans-2e" x="63.623047"/>
       <use xlink:href="#DejaVuSans-39" x="95.410156"/>
       <use xlink:href="#DejaVuSans-36" x="159.033203"/>
      </g>
     </g>
    </g>
    <g id="ytick_18">
     <g id="line2d_41">
      <g>
       <use xlink:href="#m98738be814" x="591.545455" y="537.660246" style="stroke: #000000; stroke-width: 0.8"/>
      </g>
     </g>
     <g id="text_45">
      <!-- 0.98 -->
      <g transform="translate(535.56108 546.018527) scale(0.22 -0.22)">
       <use xlink:href="#DejaVuSans-30"/>
       <use xlink:href="#DejaVuSans-2e" x="63.623047"/>
       <use xlink:href="#DejaVuSans-39" x="95.410156"/>
       <use xlink:href="#DejaVuSans-38" x="159.033203"/>
      </g>
     </g>
    </g>
   </g>
   <g id="line2d_42">
    <path d="M 608.838843 583.424302 
L 630.455579 627.040625 
L 666.483471 666.557158 
L 738.539256 707.762836 
L 954.706612 751.815031 
" clip-path="url(#p2753d8351a)" style="fill: none; stroke: #1f77b4; stroke-width: 1.5; stroke-linecap: square"/>
    <g clip-path="url(#p2753d8351a)">
     <use xlink:href="#mb0b19dc637" x="608.838843" y="583.424302" style="fill: #1f77b4; stroke: #1f77b4"/>
     <use xlink:href="#mb0b19dc637" x="630.455579" y="627.040625" style="fill: #1f77b4; stroke: #1f77b4"/>
     <use xlink:href="#mb0b19dc637" x="666.483471" y="666.557158" style="fill: #1f77b4; stroke: #1f77b4"/>
     <use xlink:href="#mb0b19dc637" x="738.539256" y="707.762836" style="fill: #1f77b4; stroke: #1f77b4"/>
     <use xlink:href="#mb0b19dc637" x="954.706612" y="751.815031" style="fill: #1f77b4; stroke: #1f77b4"/>
    </g>
   </g>
   <g id="line2d_43">
    <path d="M 608.838843 535.111579 
L 630.455579 554.705256 
L 666.483471 577.804035 
L 738.539256 611.990447 
L 954.706612 684.701995 
" clip-path="url(#p2753d8351a)" style="fill: none; stroke: #ff7f0e; stroke-width: 1.5; stroke-linecap: square"/>
    <g clip-path="url(#p2753d8351a)">
     <use xlink:href="#me53bada7cf" x="608.838843" y="535.111579" style="fill: #ff7f0e; stroke: #ff7f0e"/>
     <use xlink:href="#me53bada7cf" x="630.455579" y="554.705256" style="fill: #ff7f0e; stroke: #ff7f0e"/>
     <use xlink:href="#me53bada7cf" x="666.483471" y="577.804035" style="fill: #ff7f0e; stroke: #ff7f0e"/>
     <use xlink:href="#me53bada7cf" x="738.539256" y="611.990447" style="fill: #ff7f0e; stroke: #ff7f0e"/>
     <use xlink:href="#me53bada7cf" x="954.706612" y="684.701995" style="fill: #ff7f0e; stroke: #ff7f0e"/>
    </g>
   </g>
   <g id="line2d_44">
    <path d="M 608.838843 553.067913 
L 630.455579 575.550766 
L 666.483471 602.616807 
L 738.539256 649.257723 
L 954.706612 749.466704 
" clip-path="url(#p2753d8351a)" style="fill: none; stroke: #2ca02c; stroke-width: 1.5; stroke-linecap: square"/>
    <g clip-path="url(#p2753d8351a)">
     <use xlink:href="#m3177d75b67" x="608.838843" y="553.067913" style="fill: #2ca02c; stroke: #2ca02c"/>
     <use xlink:href="#m3177d75b67" x="630.455579" y="575.550766" style="fill: #2ca02c; stroke: #2ca02c"/>
     <use xlink:href="#m3177d75b67" x="666.483471" y="602.616807" style="fill: #2ca02c; stroke: #2ca02c"/>
     <use xlink:href="#m3177d75b67" x="738.539256" y="649.257723" style="fill: #2ca02c; stroke: #2ca02c"/>
     <use xlink:href="#m3177d75b67" x="954.706612" y="749.466704" style="fill: #2ca02c; stroke: #2ca02c"/>
    </g>
   </g>
   <g id="line2d_45">
    <path d="M 608.838843 566.249812 
L 630.455579 599.676872 
L 666.483471 631.374888 
L 738.539256 678.243618 
L 954.706612 773.848421 
" clip-path="url(#p2753d8351a)" style="fill: none; stroke: #d62728; stroke-width: 1.5; stroke-linecap: square"/>
    <g clip-path="url(#p2753d8351a)">
     <use xlink:href="#m275af5b69e" x="608.838843" y="566.249812" style="fill: #d62728; stroke: #d62728"/>
     <use xlink:href="#m275af5b69e" x="630.455579" y="599.676872" style="fill: #d62728; stroke: #d62728"/>
     <use xlink:href="#m275af5b69e" x="666.483471" y="631.374888" style="fill: #d62728; stroke: #d62728"/>
     <use xlink:href="#m275af5b69e" x="738.539256" y="678.243618" style="fill: #d62728; stroke: #d62728"/>
     <use xlink:href="#m275af5b69e" x="954.706612" y="773.848421" style="fill: #d62728; stroke: #d62728"/>
    </g>
   </g>
   <g id="patch_30">
    <path d="M 591.545455 785.785263 
L 591.545455 523.174737 
" style="fill: none; stroke: #000000; stroke-width: 0.8; stroke-linejoin: miter; stroke-linecap: square"/>
   </g>
   <g id="patch_31">
    <path d="M 972 785.785263 
L 972 523.174737 
" style="fill: none; stroke: #000000; stroke-width: 0.8; stroke-linejoin: miter; stroke-linecap: square"/>
   </g>
   <g id="patch_32">
    <path d="M 591.545455 785.785263 
L 972 785.785263 
" style="fill: none; stroke: #000000; stroke-width: 0.8; stroke-linejoin: miter; stroke-linecap: square"/>
   </g>
   <g id="patch_33">
    <path d="M 591.545455 523.174737 
L 972 523.174737 
" style="fill: none; stroke: #000000; stroke-width: 0.8; stroke-linejoin: miter; stroke-linecap: square"/>
   </g>
   <g id="text_46">
    <!-- d -->
    <g transform="translate(544.871761 505.058783) scale(0.28 -0.28)">
     <defs>
      <path id="DejaVuSans-Bold-64" d="M 2919 2988 
L 2919 4863 
L 4044 4863 
L 4044 0 
L 2919 0 
L 2919 506 
Q 2688 197 2409 53 
Q 2131 -91 1766 -91 
Q 1119 -91 703 423 
Q 288 938 288 1747 
Q 288 2556 703 3070 
Q 1119 3584 1766 3584 
Q 2128 3584 2408 3439 
Q 2688 3294 2919 2988 
z
M 2181 722 
Q 2541 722 2730 984 
Q 2919 1247 2919 1747 
Q 2919 2247 2730 2509 
Q 2541 2772 2181 2772 
Q 1825 2772 1636 2509 
Q 1447 2247 1447 1747 
Q 1447 1247 1636 984 
Q 1825 722 2181 722 
z
" transform="scale(0.015625)"/>
     </defs>
     <use xlink:href="#DejaVuSans-Bold-64"/>
    </g>
   </g>
   <g id="text_47">
    <!-- Continuity -->
    <g transform="translate(720.057102 517.174737) scale(0.24 -0.24)">
     <defs>
      <path id="DejaVuSans-79" d="M 2059 -325 
Q 1816 -950 1584 -1140 
Q 1353 -1331 966 -1331 
L 506 -1331 
L 506 -850 
L 844 -850 
Q 1081 -850 1212 -737 
Q 1344 -625 1503 -206 
L 1606 56 
L 191 3500 
L 800 3500 
L 1894 763 
L 2988 3500 
L 3597 3500 
L 2059 -325 
z
" transform="scale(0.015625)"/>
     </defs>
     <use xlink:href="#DejaVuSans-43"/>
     <use xlink:href="#DejaVuSans-6f" x="69.824219"/>
     <use xlink:href="#DejaVuSans-6e" x="131.005859"/>
     <use xlink:href="#DejaVuSans-74" x="194.384766"/>
     <use xlink:href="#DejaVuSans-69" x="233.59375"/>
     <use xlink:href="#DejaVuSans-6e" x="261.376953"/>
     <use xlink:href="#DejaVuSans-75" x="324.755859"/>
     <use xlink:href="#DejaVuSans-69" x="388.134766"/>
     <use xlink:href="#DejaVuSans-74" x="415.917969"/>
     <use xlink:href="#DejaVuSans-79" x="455.126953"/>
    </g>
   </g>
  </g>
  <g id="axes_5">
   <g id="patch_34">
    <path d="M 135 1153.44 
L 515.454545 1153.44 
L 515.454545 890.829474 
L 135 890.829474 
z
" style="fill: #ffffff"/>
   </g>
   <g id="matplotlib.axis_9">
    <g id="xtick_16">
     <g id="line2d_46">
      <g>
       <use xlink:href="#m180dc2520a" x="152.120972" y="1153.44" style="stroke: #000000; stroke-width: 0.8"/>
      </g>
     </g>
     <g id="text_48">
      <!-- 0 -->
      <g transform="translate(145.122222 1177.156562) scale(0.22 -0.22)">
       <use xlink:href="#DejaVuSans-30"/>
      </g>
     </g>
    </g>
    <g id="xtick_17">
     <g id="line2d_47">
      <g>
       <use xlink:href="#m180dc2520a" x="238.329289" y="1153.44" style="stroke: #000000; stroke-width: 0.8"/>
      </g>
     </g>
     <g id="text_49">
      <!-- 500 -->
      <g transform="translate(217.333039 1177.156562) scale(0.22 -0.22)">
       <use xlink:href="#DejaVuSans-35"/>
       <use xlink:href="#DejaVuSans-30" x="63.623047"/>
       <use xlink:href="#DejaVuSans-30" x="127.246094"/>
      </g>
     </g>
    </g>
    <g id="xtick_18">
     <g id="line2d_48">
      <g>
       <use xlink:href="#m180dc2520a" x="324.537606" y="1153.44" style="stroke: #000000; stroke-width: 0.8"/>
      </g>
     </g>
     <g id="text_50">
      <!-- 1000 -->
      <g transform="translate(296.542606 1177.156562) scale(0.22 -0.22)">
       <use xlink:href="#DejaVuSans-31"/>
       <use xlink:href="#DejaVuSans-30" x="63.623047"/>
       <use xlink:href="#DejaVuSans-30" x="127.246094"/>
       <use xlink:href="#DejaVuSans-30" x="190.869141"/>
      </g>
     </g>
    </g>
    <g id="xtick_19">
     <g id="line2d_49">
      <g>
       <use xlink:href="#m180dc2520a" x="410.745923" y="1153.44" style="stroke: #000000; stroke-width: 0.8"/>
      </g>
     </g>
     <g id="text_51">
      <!-- 1500 -->
      <g transform="translate(382.750923 1177.156562) scale(0.22 -0.22)">
       <use xlink:href="#DejaVuSans-31"/>
       <use xlink:href="#DejaVuSans-35" x="63.623047"/>
       <use xlink:href="#DejaVuSans-30" x="127.246094"/>
       <use xlink:href="#DejaVuSans-30" x="190.869141"/>
      </g>
     </g>
    </g>
    <g id="xtick_20">
     <g id="line2d_50">
      <g>
       <use xlink:href="#m180dc2520a" x="496.954241" y="1153.44" style="stroke: #000000; stroke-width: 0.8"/>
      </g>
     </g>
     <g id="text_52">
      <!-- 2000 -->
      <g transform="translate(468.959241 1177.156562) scale(0.22 -0.22)">
       <use xlink:href="#DejaVuSans-32"/>
       <use xlink:href="#DejaVuSans-30" x="63.623047"/>
       <use xlink:href="#DejaVuSans-30" x="127.246094"/>
       <use xlink:href="#DejaVuSans-30" x="190.869141"/>
      </g>
     </g>
    </g>
    <g id="text_53">
     <!-- k -->
     <g transform="translate(318.278523 1203.968125) scale(0.24 -0.24)">
      <use xlink:href="#DejaVuSans-6b"/>
     </g>
    </g>
   </g>
   <g id="matplotlib.axis_10">
    <g id="ytick_19">
     <g id="line2d_51">
      <g>
       <use xlink:href="#m98738be814" x="135" y="1114.648561" style="stroke: #000000; stroke-width: 0.8"/>
      </g>
     </g>
     <g id="text_54">
      <!-- 0.2 -->
      <g transform="translate(93.013125 1123.006842) scale(0.22 -0.22)">
       <use xlink:href="#DejaVuSans-30"/>
       <use xlink:href="#DejaVuSans-2e" x="63.623047"/>
       <use xlink:href="#DejaVuSans-32" x="95.410156"/>
      </g>
     </g>
    </g>
    <g id="ytick_20">
     <g id="line2d_52">
      <g>
       <use xlink:href="#m98738be814" x="135" y="1061.677999" style="stroke: #000000; stroke-width: 0.8"/>
      </g>
     </g>
     <g id="text_55">
      <!-- 0.4 -->
      <g transform="translate(93.013125 1070.036281) scale(0.22 -0.22)">
       <use xlink:href="#DejaVuSans-30"/>
       <use xlink:href="#DejaVuSans-2e" x="63.623047"/>
       <use xlink:href="#DejaVuSans-34" x="95.410156"/>
      </g>
     </g>
    </g>
    <g id="ytick_21">
     <g id="line2d_53">
      <g>
       <use xlink:href="#m98738be814" x="135" y="1008.707438" style="stroke: #000000; stroke-width: 0.8"/>
      </g>
     </g>
     <g id="text_56">
      <!-- 0.6 -->
      <g transform="translate(93.013125 1017.065719) scale(0.22 -0.22)">
       <use xlink:href="#DejaVuSans-30"/>
       <use xlink:href="#DejaVuSans-2e" x="63.623047"/>
       <use xlink:href="#DejaVuSans-36" x="95.410156"/>
      </g>
     </g>
    </g>
    <g id="ytick_22">
     <g id="line2d_54">
      <g>
       <use xlink:href="#m98738be814" x="135" y="955.736877" style="stroke: #000000; stroke-width: 0.8"/>
      </g>
     </g>
     <g id="text_57">
      <!-- 0.8 -->
      <g transform="translate(93.013125 964.095158) scale(0.22 -0.22)">
       <use xlink:href="#DejaVuSans-30"/>
       <use xlink:href="#DejaVuSans-2e" x="63.623047"/>
       <use xlink:href="#DejaVuSans-38" x="95.410156"/>
      </g>
     </g>
    </g>
    <g id="ytick_23">
     <g id="line2d_55">
      <g>
       <use xlink:href="#m98738be814" x="135" y="902.766316" style="stroke: #000000; stroke-width: 0.8"/>
      </g>
     </g>
     <g id="text_58">
      <!-- 1.0 -->
      <g transform="translate(93.013125 911.124597) scale(0.22 -0.22)">
       <use xlink:href="#DejaVuSans-31"/>
       <use xlink:href="#DejaVuSans-2e" x="63.623047"/>
       <use xlink:href="#DejaVuSans-30" x="95.410156"/>
      </g>
     </g>
    </g>
    <g id="text_59">
     <!-- Metric Value -->
     <g transform="translate(84.021875 1096.210362) rotate(-90) scale(0.24 -0.24)">
      <use xlink:href="#DejaVuSans-4d"/>
      <use xlink:href="#DejaVuSans-65" x="86.279297"/>
      <use xlink:href="#DejaVuSans-74" x="147.802734"/>
      <use xlink:href="#DejaVuSans-72" x="187.011719"/>
      <use xlink:href="#DejaVuSans-69" x="228.125"/>
      <use xlink:href="#DejaVuSans-63" x="255.908203"/>
      <use xlink:href="#DejaVuSans-20" x="310.888672"/>
      <use xlink:href="#DejaVuSans-56" x="342.675781"/>
      <use xlink:href="#DejaVuSans-61" x="403.333984"/>
      <use xlink:href="#DejaVuSans-6c" x="464.613281"/>
      <use xlink:href="#DejaVuSans-75" x="492.396484"/>
      <use xlink:href="#DejaVuSans-65" x="555.775391"/>
     </g>
    </g>
   </g>
   <g id="line2d_56">
    <path d="M 152.293388 1141.503158 
L 152.638222 1130.423658 
L 152.983055 1124.936668 
L 153.327888 1123.376493 
L 154.189971 1118.453841 
L 154.362388 1118.065754 
L 156.086554 1110.489734 
L 156.776221 1108.274429 
L 156.948638 1107.967886 
L 157.810721 1105.530756 
L 158.500387 1103.737321 
L 159.87972 1099.635545 
L 160.741804 1097.266936 
L 161.259053 1095.729294 
L 164.190136 1088.726676 
L 167.638469 1081.454027 
L 168.672969 1079.576668 
L 170.052302 1076.989422 
L 171.776468 1073.95477 
L 173.673051 1070.734699 
L 175.914467 1067.135169 
L 176.431717 1066.376965 
L 177.638634 1064.524162 
L 178.500717 1063.250095 
L 179.88005 1061.326706 
L 181.4318 1059.114507 
L 183.500799 1056.301601 
L 185.052549 1054.423013 
L 186.776715 1052.19979 
L 187.638798 1051.135187 
L 191.431964 1046.641304 
L 195.052714 1042.575344 
L 196.432047 1040.991134 
L 197.638963 1039.595341 
L 201.776963 1035.167988 
L 204.190795 1032.590556 
L 207.466711 1029.209608 
L 208.156378 1028.516204 
L 209.535711 1027.139366 
L 211.259877 1025.502194 
L 214.70821 1022.38291 
L 217.811709 1019.779599 
L 226.087708 1013.587141 
L 230.915374 1010.656366 
L 233.329207 1009.336912 
L 237.639622 1006.852558 
L 249.01912 1000.115381 
L 250.398453 999.267649 
L 252.63987 997.851329 
L 258.157202 994.475879 
L 266.778034 989.480162 
L 271.08845 987.051374 
L 280.226531 982.015132 
L 295.226778 974.10609 
L 307.813193 967.479698 
L 317.296108 963.429166 
L 328.675605 959.12781 
L 340.572353 954.732998 
L 348.158685 951.990788 
L 358.15885 948.778139 
L 363.503766 947.043325 
L 386.435178 939.171357 
L 411.263173 931.201259 
L 417.815005 929.313326 
L 422.815088 927.859602 
L 431.091086 925.419814 
L 465.919246 915.633914 
L 469.195162 914.74673 
L 471.436579 914.106907 
L 483.505743 910.227588 
L 485.747159 909.414357 
L 488.505825 908.425322 
L 495.402491 904.680803 
L 497.47149 903.2733 
L 498.161157 902.766316 
L 498.161157 902.766316 
" clip-path="url(#pfbdafa8443)" style="fill: none; stroke: #1f77b4; stroke-width: 1.5; stroke-linecap: square"/>
   </g>
   <g id="line2d_57">
    <path d="M 152.293388 1007.230172 
L 152.638222 1004.548229 
L 152.983055 1006.412399 
L 153.155472 1006.592661 
L 154.017555 1011.151163 
L 154.189971 1011.879605 
L 154.362388 1013.13518 
L 154.534805 1013.53305 
L 154.707221 1014.475813 
L 154.879638 1014.484606 
L 155.569304 1016.008037 
L 155.914138 1017.302444 
L 156.086554 1017.569891 
L 156.603804 1017.756711 
L 156.948638 1017.372248 
L 157.121054 1017.431862 
L 157.983137 1019.194169 
L 158.500387 1019.532409 
L 158.672804 1019.475935 
L 159.190054 1020.03079 
L 159.534887 1020.640906 
L 159.707304 1020.680852 
L 160.224554 1021.360182 
L 160.741804 1021.812904 
L 161.43147 1022.562187 
L 162.810803 1024.819516 
L 165.397053 1029.294958 
L 166.259136 1030.442753 
L 167.638469 1031.986112 
L 168.328135 1032.967277 
L 169.017802 1033.694725 
L 170.397135 1034.666368 
L 170.741968 1034.862972 
L 171.086802 1034.993672 
L 172.810968 1035.446624 
L 176.948967 1035.634213 
L 177.81105 1035.764575 
L 178.500717 1035.837557 
L 181.604216 1035.91392 
L 183.673216 1035.769326 
L 184.535299 1035.596834 
L 186.259465 1035.25667 
L 190.225048 1033.578898 
L 191.431964 1033.071346 
L 192.294048 1032.787405 
L 197.81138 1030.070068 
L 201.259713 1028.177553 
L 207.639128 1025.024222 
L 208.846045 1024.473235 
L 212.294377 1022.871329 
L 215.053043 1021.388515 
L 216.087543 1020.854145 
L 217.984126 1019.880027 
L 219.363459 1019.225184 
L 223.846292 1017.435208 
L 224.880792 1017.05507 
L 227.467041 1016.011554 
L 228.501541 1015.627034 
L 230.57054 1014.910451 
L 233.846456 1013.88327 
L 237.294789 1012.876455 
L 238.674122 1012.510328 
L 240.743122 1011.835595 
L 245.225954 1010.443862 
L 251.950203 1008.350742 
L 263.329701 1004.703645 
L 266.778034 1003.725035 
L 293.502612 995.187489 
L 296.950945 994.032911 
L 300.571694 992.861014 
L 305.39936 991.0992 
L 310.054609 989.42556 
L 329.192855 982.514364 
L 334.020521 980.808777 
L 341.951686 977.963731 
L 343.675853 977.335918 
L 354.538101 973.4279 
L 356.951933 972.504924 
L 361.952016 970.639578 
L 364.365849 969.732123 
L 372.124597 966.882884 
L 385.400678 961.857372 
L 399.194009 956.338954 
L 407.814841 952.540194 
L 420.401255 946.713541 
L 427.81517 943.18699 
L 433.849752 940.228968 
L 438.849835 937.656366 
L 471.953829 919.995286 
L 484.022993 913.030441 
L 487.816159 910.479314 
L 492.643825 906.974188 
L 498.161157 902.766316 
L 498.161157 902.766316 
" clip-path="url(#pfbdafa8443)" style="fill: none; stroke: #ff7f0e; stroke-width: 1.5; stroke-linecap: square"/>
   </g>
   <g id="line2d_58">
    <path d="M 152.293388 1106.022379 
L 152.638222 1070.101937 
L 152.983055 1052.207665 
L 153.500305 1037.039302 
L 154.017555 1029.06542 
L 154.362388 1025.909072 
L 155.052055 1023.337344 
L 155.224471 1022.838197 
L 155.396888 1022.835883 
L 155.741721 1022.385973 
L 156.086554 1022.467351 
L 156.258971 1022.596383 
L 157.121054 1022.28028 
L 157.293471 1022.451294 
L 157.810721 1023.437737 
L 158.155554 1023.947403 
L 158.327971 1023.900715 
L 158.672804 1024.161813 
L 159.190054 1025.030077 
L 160.91422 1026.510674 
L 161.086637 1026.629442 
L 161.603887 1027.250012 
L 161.94872 1027.542588 
L 162.98322 1029.202838 
L 164.362553 1031.41967 
L 164.879803 1032.046754 
L 165.914303 1033.143341 
L 167.638469 1034.31779 
L 168.672969 1035.613146 
L 169.535052 1036.266192 
L 170.224718 1036.623507 
L 172.983385 1038.236202 
L 173.845468 1038.65768 
L 175.569634 1039.319406 
L 176.604134 1039.671705 
L 177.2938 1039.848024 
L 178.155884 1039.946317 
L 179.017967 1040.138924 
L 179.88005 1039.956642 
L 181.086966 1039.754219 
L 182.638716 1039.401558 
L 183.673216 1039.187162 
L 184.535299 1038.986213 
L 185.569799 1038.941636 
L 187.811215 1038.68517 
L 190.397465 1037.938234 
L 191.604381 1037.48914 
L 192.466464 1037.022392 
L 193.156131 1036.68905 
L 194.535464 1035.92406 
L 195.914797 1035.142348 
L 202.294212 1030.981022 
L 203.845962 1029.874119 
L 211.432294 1025.22439 
L 213.15646 1024.300262 
L 214.363377 1023.642622 
L 216.087543 1022.889511 
L 217.466876 1022.265244 
L 218.501376 1021.763707 
L 220.225542 1021.065856 
L 222.984209 1020.024035 
L 225.915291 1018.740192 
L 231.949874 1016.26994 
L 240.053455 1013.63554 
L 244.019038 1012.53681 
L 247.122537 1011.693426 
L 251.260537 1010.651053 
L 254.708869 1009.919577 
L 256.260619 1009.583386 
L 266.95045 1007.346029 
L 269.881533 1006.497293 
L 272.122949 1005.783454 
L 275.571282 1004.774754 
L 282.812781 1002.750484 
L 284.36453 1002.273218 
L 293.502612 999.793492 
L 299.537194 998.236216 
L 301.77861 997.665381 
L 305.91661 996.58023 
L 321.089274 992.111338 
L 336.951604 986.82486 
L 353.158767 980.361841 
L 363.503766 975.947454 
L 384.711012 966.496515 
L 390.400761 963.733247 
L 408.332091 954.273954 
L 412.814923 951.924967 
L 420.401255 947.753303 
L 437.470502 937.825178 
L 444.367167 933.796308 
L 456.263915 927.782525 
L 458.850164 926.452495 
L 466.78133 921.972517 
L 481.436743 913.252064 
L 483.67816 912.079277 
L 484.71266 911.581382 
L 486.091993 910.922388 
L 487.816159 910.069526 
L 490.229992 908.617013 
L 492.988658 906.688387 
L 498.161157 902.766316 
L 498.161157 902.766316 
" clip-path="url(#pfbdafa8443)" style="fill: none; stroke: #2ca02c; stroke-width: 1.5; stroke-linecap: square"/>
   </g>
   <g id="line2d_59">
    <path d="M 152.293388 1104.043896 
L 152.810638 1069.486409 
L 153.155472 1057.065938 
L 153.672722 1046.242908 
L 154.362388 1037.40456 
L 155.224471 1029.308566 
L 155.741721 1025.469892 
L 157.121054 1019.219318 
L 159.017637 1015.463955 
L 159.534887 1014.831224 
L 159.87972 1014.7103 
L 160.224554 1014.877496 
L 160.569387 1014.961057 
L 160.741804 1015.159928 
L 160.91422 1015.069099 
L 161.086637 1015.116198 
L 161.43147 1015.395685 
L 161.776303 1015.487979 
L 162.121137 1015.803594 
L 162.638386 1016.530119 
L 164.190136 1018.317208 
L 165.914303 1020.347508 
L 169.017802 1024.928838 
L 169.362635 1025.304265 
L 169.879885 1025.982853 
L 172.638551 1028.025847 
L 173.155801 1028.60859 
L 175.569634 1030.14662 
L 177.2938 1030.700932 
L 178.673133 1030.86147 
L 179.017967 1031.038752 
L 181.776633 1031.910586 
L 183.500799 1032.35617 
L 184.535299 1032.651562 
L 185.224966 1032.791061 
L 186.776715 1033.19455 
L 187.293965 1033.311868 
L 188.328465 1033.36121 
L 189.880215 1033.098599 
L 194.018214 1032.922757 
L 195.22513 1032.844392 
L 196.949297 1032.583152 
L 198.501046 1032.389011 
L 204.018379 1031.500429 
L 206.604628 1030.676854 
L 208.328795 1030.294661 
L 211.087461 1029.605146 
L 212.466794 1029.188308 
L 217.466876 1027.630985 
L 218.328959 1027.393858 
L 222.294542 1026.201887 
L 223.329042 1025.885709 
L 225.053208 1025.404455 
L 229.536041 1023.974564 
L 235.915456 1022.364338 
L 236.777539 1022.086652 
L 239.018956 1021.406153 
L 242.294872 1020.331531 
L 243.674205 1019.948098 
L 245.915621 1019.258664 
L 249.708787 1018.015579 
L 251.08812 1017.514602 
L 252.295036 1017.07627 
L 259.536535 1014.388275 
L 260.743451 1013.926234 
L 262.984868 1012.981821 
L 267.122867 1011.655604 
L 269.5367 1010.936121 
L 281.950697 1006.356451 
L 283.84728 1005.632193 
L 285.743863 1004.862631 
L 288.330113 1003.819669 
L 295.916445 1000.981268 
L 297.123361 1000.538777 
L 300.916527 999.126113 
L 305.226943 997.544967 
L 308.158026 996.300643 
L 310.744275 995.333186 
L 313.502942 994.240816 
L 317.640941 992.472206 
L 322.81344 990.379366 
L 328.503189 987.969593 
L 330.917022 986.874001 
L 335.744687 984.717832 
L 349.710435 978.239596 
L 354.365684 975.920228 
L 360.055433 973.107316 
L 368.331431 968.780197 
L 370.745264 967.588443 
L 377.297096 964.507885 
L 380.400596 963.038393 
L 387.814511 959.440156 
L 390.055927 958.385367 
L 406.952757 950.724829 
L 410.40109 949.096168 
L 414.021839 947.590463 
L 431.263503 939.83428 
L 449.022416 930.686812 
L 455.919082 927.219771 
L 467.126163 921.941385 
L 472.815912 918.774364 
L 478.850494 915.319045 
L 488.850659 909.619246 
L 493.161075 906.55764 
L 498.161157 902.766447 
L 498.161157 902.766447 
" clip-path="url(#pfbdafa8443)" style="fill: none; stroke: #d62728; stroke-width: 1.5; stroke-linecap: square"/>
   </g>
   <g id="patch_35">
    <path d="M 135 1153.44 
L 135 890.829474 
" style="fill: none; stroke: #000000; stroke-width: 0.8; stroke-linejoin: miter; stroke-linecap: square"/>
   </g>
   <g id="patch_36">
    <path d="M 515.454545 1153.44 
L 515.454545 890.829474 
" style="fill: none; stroke: #000000; stroke-width: 0.8; stroke-linejoin: miter; stroke-linecap: square"/>
   </g>
   <g id="patch_37">
    <path d="M 135 1153.44 
L 515.454545 1153.44 
" style="fill: none; stroke: #000000; stroke-width: 0.8; stroke-linejoin: miter; stroke-linecap: square"/>
   </g>
   <g id="patch_38">
    <path d="M 135 890.829474 
L 515.454545 890.829474 
" style="fill: none; stroke: #000000; stroke-width: 0.8; stroke-linejoin: miter; stroke-linecap: square"/>
   </g>
   <g id="text_60">
    <!-- e -->
    <g transform="translate(89.376307 872.71352) scale(0.28 -0.28)">
     <defs>
      <path id="DejaVuSans-Bold-65" d="M 4031 1759 
L 4031 1441 
L 1416 1441 
Q 1456 1047 1700 850 
Q 1944 653 2381 653 
Q 2734 653 3104 758 
Q 3475 863 3866 1075 
L 3866 213 
Q 3469 63 3072 -14 
Q 2675 -91 2278 -91 
Q 1328 -91 801 392 
Q 275 875 275 1747 
Q 275 2603 792 3093 
Q 1309 3584 2216 3584 
Q 3041 3584 3536 3087 
Q 4031 2591 4031 1759 
z
M 2881 2131 
Q 2881 2450 2695 2645 
Q 2509 2841 2209 2841 
Q 1884 2841 1681 2658 
Q 1478 2475 1428 2131 
L 2881 2131 
z
" transform="scale(0.015625)"/>
     </defs>
     <use xlink:href="#DejaVuSans-Bold-65"/>
    </g>
   </g>
   <g id="text_61">
    <!-- $Q_{NN}$ -->
    <g transform="translate(302.787273 884.829474) scale(0.24 -0.24)">
     <use xlink:href="#DejaVuSans-Oblique-51" transform="translate(0 0.78125)"/>
     <use xlink:href="#DejaVuSans-Oblique-4e" transform="translate(78.710938 -15.625) scale(0.7)"/>
     <use xlink:href="#DejaVuSans-Oblique-4e" transform="translate(131.074219 -15.625) scale(0.7)"/>
    </g>
   </g>
  </g>
  <g id="axes_6">
   <g id="patch_39">
    <path d="M 591.545455 1153.44 
L 972 1153.44 
L 972 890.829474 
L 591.545455 890.829474 
z
" style="fill: #ffffff"/>
   </g>
   <g id="matplotlib.axis_11">
    <g id="xtick_21">
     <g id="line2d_60">
      <g>
       <use xlink:href="#m180dc2520a" x="608.666426" y="1153.44" style="stroke: #000000; stroke-width: 0.8"/>
      </g>
     </g>
     <g id="text_62">
      <!-- 0 -->
      <g transform="translate(601.667676 1177.156562) scale(0.22 -0.22)">
       <use xlink:href="#DejaVuSans-30"/>
      </g>
     </g>
    </g>
    <g id="xtick_22">
     <g id="line2d_61">
      <g>
       <use xlink:href="#m180dc2520a" x="694.874744" y="1153.44" style="stroke: #000000; stroke-width: 0.8"/>
      </g>
     </g>
     <g id="text_63">
      <!-- 500 -->
      <g transform="translate(673.878494 1177.156562) scale(0.22 -0.22)">
       <use xlink:href="#DejaVuSans-35"/>
       <use xlink:href="#DejaVuSans-30" x="63.623047"/>
       <use xlink:href="#DejaVuSans-30" x="127.246094"/>
      </g>
     </g>
    </g>
    <g id="xtick_23">
     <g id="line2d_62">
      <g>
       <use xlink:href="#m180dc2520a" x="781.083061" y="1153.44" style="stroke: #000000; stroke-width: 0.8"/>
      </g>
     </g>
     <g id="text_64">
      <!-- 1000 -->
      <g transform="translate(753.088061 1177.156562) scale(0.22 -0.22)">
       <use xlink:href="#DejaVuSans-31"/>
       <use xlink:href="#DejaVuSans-30" x="63.623047"/>
       <use xlink:href="#DejaVuSans-30" x="127.246094"/>
       <use xlink:href="#DejaVuSans-30" x="190.869141"/>
      </g>
     </g>
    </g>
    <g id="xtick_24">
     <g id="line2d_63">
      <g>
       <use xlink:href="#m180dc2520a" x="867.291378" y="1153.44" style="stroke: #000000; stroke-width: 0.8"/>
      </g>
     </g>
     <g id="text_65">
      <!-- 1500 -->
      <g transform="translate(839.296378 1177.156562) scale(0.22 -0.22)">
       <use xlink:href="#DejaVuSans-31"/>
       <use xlink:href="#DejaVuSans-35" x="63.623047"/>
       <use xlink:href="#DejaVuSans-30" x="127.246094"/>
       <use xlink:href="#DejaVuSans-30" x="190.869141"/>
      </g>
     </g>
    </g>
    <g id="xtick_25">
     <g id="line2d_64">
      <g>
       <use xlink:href="#m180dc2520a" x="953.499695" y="1153.44" style="stroke: #000000; stroke-width: 0.8"/>
      </g>
     </g>
     <g id="text_66">
      <!-- 2000 -->
      <g transform="translate(925.504695 1177.156562) scale(0.22 -0.22)">
       <use xlink:href="#DejaVuSans-32"/>
       <use xlink:href="#DejaVuSans-30" x="63.623047"/>
       <use xlink:href="#DejaVuSans-30" x="127.246094"/>
       <use xlink:href="#DejaVuSans-30" x="190.869141"/>
      </g>
     </g>
    </g>
    <g id="text_67">
     <!-- k -->
     <g transform="translate(774.823977 1203.968125) scale(0.24 -0.24)">
      <use xlink:href="#DejaVuSans-6b"/>
     </g>
    </g>
   </g>
   <g id="matplotlib.axis_12">
    <g id="ytick_24">
     <g id="line2d_65">
      <g>
       <use xlink:href="#m98738be814" x="591.545455" y="1141.490102" style="stroke: #000000; stroke-width: 0.8"/>
      </g>
     </g>
     <g id="text_68">
      <!-- 0.0 -->
      <g transform="translate(549.55858 1149.848383) scale(0.22 -0.22)">
       <use xlink:href="#DejaVuSans-30"/>
       <use xlink:href="#DejaVuSans-2e" x="63.623047"/>
       <use xlink:href="#DejaVuSans-30" x="95.410156"/>
      </g>
     </g>
    </g>
    <g id="ytick_25">
     <g id="line2d_66">
      <g>
       <use xlink:href="#m98738be814" x="591.545455" y="1063.756381" style="stroke: #000000; stroke-width: 0.8"/>
      </g>
     </g>
     <g id="text_69">
      <!-- 0.2 -->
      <g transform="translate(549.55858 1072.114663) scale(0.22 -0.22)">
       <use xlink:href="#DejaVuSans-30"/>
       <use xlink:href="#DejaVuSans-2e" x="63.623047"/>
       <use xlink:href="#DejaVuSans-32" x="95.410156"/>
      </g>
     </g>
    </g>
    <g id="ytick_26">
     <g id="line2d_67">
      <g>
       <use xlink:href="#m98738be814" x="591.545455" y="986.022661" style="stroke: #000000; stroke-width: 0.8"/>
      </g>
     </g>
     <g id="text_70">
      <!-- 0.4 -->
      <g transform="translate(549.55858 994.380942) scale(0.22 -0.22)">
       <use xlink:href="#DejaVuSans-30"/>
       <use xlink:href="#DejaVuSans-2e" x="63.623047"/>
       <use xlink:href="#DejaVuSans-34" x="95.410156"/>
      </g>
     </g>
    </g>
    <g id="ytick_27">
     <g id="line2d_68">
      <g>
       <use xlink:href="#m98738be814" x="591.545455" y="908.28894" style="stroke: #000000; stroke-width: 0.8"/>
      </g>
     </g>
     <g id="text_71">
      <!-- 0.6 -->
      <g transform="translate(549.55858 916.647221) scale(0.22 -0.22)">
       <use xlink:href="#DejaVuSans-30"/>
       <use xlink:href="#DejaVuSans-2e" x="63.623047"/>
       <use xlink:href="#DejaVuSans-36" x="95.410156"/>
      </g>
     </g>
    </g>
   </g>
   <g id="line2d_69">
    <path d="M 608.838843 1103.358866 
L 609.183676 1087.487134 
L 609.52851 1079.822349 
L 609.873343 1077.920123 
L 610.735426 1071.664467 
L 610.907843 1071.28861 
L 612.459592 1062.739673 
L 613.321675 1059.631138 
L 613.494092 1059.374946 
L 614.183759 1057.215928 
L 615.390675 1053.776414 
L 615.907925 1052.092447 
L 617.114841 1048.352936 
L 617.459675 1047.235066 
L 619.528674 1041.831181 
L 620.218341 1040.293541 
L 620.735591 1039.272254 
L 623.494257 1033.791225 
L 627.115006 1027.902373 
L 628.149506 1026.375587 
L 629.528839 1024.445925 
L 630.390922 1023.290823 
L 631.597839 1021.64268 
L 632.804755 1020.463585 
L 633.666838 1019.373027 
L 634.528921 1018.481665 
L 636.425504 1016.685839 
L 637.115171 1016.019268 
L 637.977254 1015.18237 
L 639.184171 1014.109658 
L 639.701421 1013.654589 
L 640.21867 1013.289547 
L 640.908337 1012.828994 
L 642.28767 1011.785948 
L 645.391169 1009.609004 
L 646.080836 1009.11684 
L 647.115336 1008.548866 
L 649.184335 1007.481072 
L 650.046419 1006.988199 
L 651.770585 1006.140628 
L 655.046501 1004.279803 
L 661.943166 1001.300359 
L 663.322499 1000.746945 
L 664.356999 1000.459115 
L 665.736332 999.927869 
L 666.770832 999.646524 
L 667.805332 999.359242 
L 669.357082 999.042399 
L 670.391581 998.815174 
L 671.426081 998.624706 
L 673.667498 998.401888 
L 674.357164 998.320343 
L 676.08133 998.227031 
L 676.943414 998.200978 
L 678.66758 998.144636 
L 679.874496 998.251433 
L 684.874579 998.95779 
L 688.322911 999.913214 
L 693.150577 1001.32087 
L 694.52991 1001.710808 
L 695.736827 1002.041028 
L 699.702409 1003.034869 
L 701.598992 1003.536993 
L 702.978325 1003.861143 
L 709.012908 1005.233055 
L 710.737074 1005.575503 
L 711.771574 1005.857316 
L 714.702656 1006.503031 
L 721.599322 1008.341987 
L 723.840738 1009.020359 
L 727.116654 1009.961719 
L 729.702904 1010.748978 
L 733.323653 1011.788919 
L 735.737486 1012.644401 
L 758.668898 1020.435666 
L 760.048231 1020.888758 
L 767.80698 1024.285077 
L 772.117396 1026.442695 
L 781.600311 1031.805086 
L 783.15206 1032.680521 
L 784.70381 1033.537315 
L 795.566058 1039.767233 
L 797.635058 1041.048945 
L 802.807557 1044.08826 
L 807.807639 1047.187588 
L 811.600805 1049.72442 
L 818.669887 1054.360451 
L 825.566552 1058.675864 
L 830.049385 1061.429116 
L 833.670134 1063.649818 
L 852.980797 1075.720038 
L 855.39463 1077.285419 
L 865.394795 1083.911859 
L 868.843128 1086.325814 
L 871.946627 1088.51014 
L 889.360707 1100.607503 
L 897.981539 1106.860261 
L 931.602783 1130.45769 
L 940.396031 1136.159799 
L 942.465031 1137.415694 
L 943.671947 1138.256866 
L 944.878863 1138.882661 
L 948.672029 1140.249493 
L 952.810029 1141.353859 
L 954.706612 1141.490102 
L 954.706612 1141.490102 
" clip-path="url(#p56105dbf96)" style="fill: none; stroke: #1f77b4; stroke-width: 1.5; stroke-linecap: square"/>
   </g>
   <g id="line2d_70">
    <path d="M 608.838843 906.314724 
L 609.183676 902.766316 
L 609.52851 905.889278 
L 609.700926 906.347466 
L 610.563009 914.005302 
L 611.425092 919.865375 
L 612.114759 922.87562 
L 612.459592 925.162461 
L 612.804426 926.019743 
L 613.149259 926.603718 
L 613.321675 926.425971 
L 613.494092 926.426836 
L 613.666509 926.707976 
L 614.528592 930.262425 
L 615.045842 931.339757 
L 615.218258 931.450538 
L 615.735508 932.845752 
L 616.080342 934.128404 
L 616.252758 934.380681 
L 616.942425 936.325099 
L 618.494175 940.519131 
L 622.459757 955.121254 
L 625.735673 964.286616 
L 626.94259 966.910976 
L 627.459839 967.944719 
L 628.149506 969.001301 
L 628.666756 969.761788 
L 631.253005 973.015352 
L 632.287505 974.158632 
L 632.977172 975.069503 
L 633.322005 975.434775 
L 634.528921 977.034004 
L 636.425504 979.457386 
L 638.666921 981.908826 
L 639.529004 982.856239 
L 640.391087 983.554422 
L 640.73592 983.823192 
L 641.942837 984.91662 
L 643.32217 985.905494 
L 644.529086 986.583945 
L 645.046336 986.764228 
L 645.563586 987.05343 
L 651.598168 990.089515 
L 652.460251 990.329712 
L 654.529251 991.003161 
L 655.391334 991.283632 
L 656.425834 991.636343 
L 657.460334 991.934453 
L 658.15 992.175066 
L 667.460499 996.036776 
L 668.839832 996.660416 
L 670.908831 997.336613 
L 673.150248 998.154578 
L 677.288247 999.934438 
L 678.15033 1000.397267 
L 679.012413 1000.884345 
L 680.391746 1001.657952 
L 681.081413 1002.029107 
L 682.288329 1002.757332 
L 684.357329 1003.794395 
L 691.253994 1008.302321 
L 695.391993 1011.182261 
L 696.59891 1011.94779 
L 698.840326 1013.492604 
L 700.047243 1014.258677 
L 703.495575 1016.551208 
L 705.392158 1017.800673 
L 707.633574 1019.367247 
L 708.668074 1020.002668 
L 709.874991 1020.788647 
L 715.04749 1024.013162 
L 717.116489 1025.320871 
L 722.806238 1029.423025 
L 728.151154 1032.961084 
L 730.220154 1034.300012 
L 737.289236 1039.075888 
L 740.565152 1041.2689 
L 742.978985 1042.831958 
L 746.944567 1045.311865 
L 750.91015 1047.782896 
L 760.910315 1053.999526 
L 762.979314 1055.219651 
L 765.910397 1056.967691 
L 780.910644 1065.750624 
L 796.772974 1075.390683 
L 806.945556 1081.336675 
L 812.290472 1084.559343 
L 814.704304 1085.913019 
L 825.911386 1092.378696 
L 827.807969 1093.507294 
L 836.083967 1098.248556 
L 853.153214 1107.611748 
L 856.94638 1109.528522 
L 863.498212 1112.643423 
L 870.394877 1115.823011 
L 892.119373 1124.888518 
L 897.464289 1126.825867 
L 905.050621 1129.538734 
L 908.67137 1130.796634 
L 929.016533 1137.493374 
L 938.499448 1140.233469 
L 942.120197 1140.935409 
L 945.740947 1141.316873 
L 949.534113 1141.474285 
L 954.706612 1141.490102 
L 954.706612 1141.490102 
" clip-path="url(#p56105dbf96)" style="fill: none; stroke: #ff7f0e; stroke-width: 1.5; stroke-linecap: square"/>
   </g>
   <g id="line2d_71">
    <path d="M 608.838843 1051.29121 
L 609.183676 998.965666 
L 609.52851 973.093331 
L 610.045759 951.414893 
L 610.563009 940.294277 
L 610.907843 936.049685 
L 611.597509 933.050327 
L 611.769926 932.511492 
L 611.942342 932.701753 
L 612.114759 932.427809 
L 612.287176 932.428827 
L 612.632009 932.935562 
L 612.976842 933.430932 
L 613.149259 933.690995 
L 613.321675 933.695227 
L 613.494092 933.927288 
L 613.666509 933.822977 
L 613.838925 934.267594 
L 614.356175 936.296158 
L 614.701009 937.4314 
L 614.873425 937.556543 
L 615.218258 938.327014 
L 615.907925 940.611069 
L 617.459675 944.291476 
L 617.976925 945.626866 
L 619.701091 951.202539 
L 620.390757 953.717782 
L 622.28734 959.169044 
L 622.632174 959.988759 
L 623.149424 960.991925 
L 624.183923 963.300937 
L 625.218423 966.363798 
L 626.252923 968.658395 
L 626.597756 969.216788 
L 628.321923 972.69465 
L 632.287505 979.807195 
L 635.046171 983.927991 
L 636.080671 985.099168 
L 636.597921 985.495121 
L 637.287588 986.170664 
L 637.632421 986.384045 
L 638.839337 987.33805 
L 641.425587 989.509785 
L 642.977337 991.19094 
L 647.287752 994.416428 
L 648.149836 994.873113 
L 648.667086 995.010037 
L 650.391252 995.673133 
L 653.494751 996.529013 
L 655.046501 996.805075 
L 661.081083 997.548301 
L 661.598333 997.667385 
L 664.701833 998.320948 
L 666.598415 998.731636 
L 668.667415 999.390509 
L 670.219165 999.828266 
L 670.736415 1000.046934 
L 672.115748 1000.703285 
L 672.977831 1001.096434 
L 675.219247 1002.080844 
L 680.908996 1005.17969 
L 682.805579 1006.052133 
L 689.012578 1009.378382 
L 689.874661 1009.894959 
L 691.943661 1011.122487 
L 693.49541 1012.105276 
L 694.52991 1012.824188 
L 696.771327 1014.402242 
L 707.288741 1022.085885 
L 709.530157 1023.856379 
L 725.047655 1036.387854 
L 729.013237 1039.006914 
L 733.668486 1042.302423 
L 735.047819 1043.359299 
L 741.944485 1048.084908 
L 747.461817 1052.107885 
L 749.013567 1053.256709 
L 760.910315 1062.077535 
L 771.772562 1069.673365 
L 786.945226 1079.710506 
L 789.186643 1081.124171 
L 792.979809 1083.466696 
L 796.945391 1085.726043 
L 801.255807 1088.100565 
L 804.359306 1089.740816 
L 819.704387 1097.466017 
L 825.221719 1100.087207 
L 829.532135 1102.133739 
L 836.4288 1105.397301 
L 847.291048 1110.053848 
L 854.532547 1112.650222 
L 856.773963 1113.448744 
L 875.222543 1119.665503 
L 887.464124 1123.115995 
L 895.912539 1125.234186 
L 900.395372 1126.452526 
L 904.705788 1127.868851 
L 907.11962 1128.811633 
L 909.533453 1129.888057 
L 914.533536 1131.80894 
L 919.361202 1133.352302 
L 920.395701 1133.688789 
L 925.05095 1134.790998 
L 926.775117 1135.219918 
L 929.7062 1135.953939 
L 932.464866 1136.467671 
L 934.706282 1136.993153 
L 939.706364 1138.617325 
L 941.085697 1139.2713 
L 942.120197 1139.659454 
L 943.327114 1140.180572 
L 945.05128 1140.791615 
L 948.154779 1141.342127 
L 950.396196 1141.457417 
L 954.706612 1141.490102 
L 954.706612 1141.490102 
" clip-path="url(#p56105dbf96)" style="fill: none; stroke: #2ca02c; stroke-width: 1.5; stroke-linecap: square"/>
   </g>
   <g id="line2d_72">
    <path d="M 608.838843 1048.387809 
L 609.356093 998.256042 
L 609.700926 980.41645 
L 610.045759 968.641739 
L 610.907843 952.919188 
L 611.597509 943.286239 
L 611.942342 940.057035 
L 612.287176 936.954445 
L 613.494092 929.952394 
L 613.838925 928.996308 
L 615.045842 926.610614 
L 615.390675 925.932475 
L 615.563092 925.950314 
L 616.080342 925.602758 
L 616.425175 925.812616 
L 616.770008 926.445288 
L 617.114841 926.955226 
L 617.287258 927.440724 
L 617.459675 927.501089 
L 617.804508 928.228547 
L 618.839008 930.407063 
L 620.218341 934.491301 
L 620.563174 935.565683 
L 621.252841 937.357565 
L 621.597674 938.38573 
L 621.942507 939.222237 
L 622.977007 942.569669 
L 623.494257 944.528527 
L 624.011507 946.11829 
L 625.046007 949.624194 
L 626.597756 953.960905 
L 626.94259 954.632694 
L 628.321923 957.759964 
L 629.011589 959.174466 
L 629.873672 961.48796 
L 631.942672 965.750586 
L 632.977172 967.600281 
L 634.184088 969.245076 
L 634.701338 969.828427 
L 635.735838 971.554578 
L 636.942754 973.525291 
L 638.494504 975.893218 
L 638.839337 976.317293 
L 643.83942 983.901599 
L 644.87392 985.135947 
L 646.080836 986.167931 
L 647.115336 987.227748 
L 647.632586 987.719865 
L 648.149836 988.215155 
L 648.667086 988.714329 
L 649.874002 989.990448 
L 650.563668 990.883186 
L 651.770585 992.123783 
L 652.977501 993.229052 
L 654.184418 994.319735 
L 656.425834 996.316723 
L 657.287917 997.103647 
L 660.046583 999.609439 
L 661.2535 1000.451675 
L 661.598333 1000.666621 
L 664.184583 1002.568476 
L 665.391499 1003.467618 
L 668.667415 1005.889788 
L 670.219165 1006.849562 
L 670.736415 1007.125855 
L 673.495081 1009.105543 
L 674.012331 1009.454853 
L 674.874414 1010.075155 
L 678.66758 1012.683571 
L 679.874496 1013.478001 
L 681.426246 1014.605396 
L 685.564245 1017.197683 
L 687.633245 1018.846777 
L 689.529828 1020.166159 
L 692.460911 1022.447353 
L 693.150577 1022.893337 
L 707.288741 1032.175034 
L 718.668239 1038.662628 
L 719.875156 1039.279372 
L 721.254489 1040.164659 
L 723.323488 1041.525016 
L 725.909738 1043.347008 
L 727.806321 1044.490995 
L 729.35807 1045.453659 
L 731.771903 1046.889387 
L 733.151236 1047.686053 
L 735.220236 1048.916295 
L 737.116819 1049.8732 
L 739.703068 1051.403631 
L 741.427235 1052.245444 
L 744.875568 1054.10483 
L 748.84115 1056.401845 
L 749.87565 1056.981215 
L 752.117066 1058.249482 
L 761.255148 1063.617335 
L 764.013814 1064.947191 
L 769.013896 1067.794906 
L 777.979561 1072.314945 
L 781.600311 1074.358581 
L 785.910726 1076.337098 
L 787.807309 1077.240993 
L 793.669475 1079.904027 
L 795.910891 1080.927483 
L 798.152308 1081.978537 
L 801.60064 1083.610955 
L 806.255889 1085.508068 
L 809.014556 1086.587968 
L 811.945638 1087.773753 
L 828.152802 1093.891879 
L 831.601135 1095.400504 
L 835.394301 1097.009499 
L 838.842633 1098.421757 
L 841.08405 1099.291335 
L 850.049714 1103.328572 
L 858.670546 1107.335906 
L 869.360378 1112.160131 
L 872.80871 1113.796789 
L 881.257125 1117.823059 
L 884.360625 1119.235167 
L 886.084791 1119.955724 
L 895.222873 1123.567314 
L 898.498789 1124.737767 
L 904.360954 1126.857467 
L 910.22312 1129.031116 
L 914.533536 1130.796951 
L 925.223367 1135.287068 
L 932.982116 1137.550667 
L 938.154615 1139.01865 
L 943.671947 1140.818972 
L 945.396113 1141.089251 
L 948.499613 1141.37291 
L 952.465195 1141.498652 
L 954.706612 1141.490295 
L 954.706612 1141.490295 
" clip-path="url(#p56105dbf96)" style="fill: none; stroke: #d62728; stroke-width: 1.5; stroke-linecap: square"/>
   </g>
   <g id="patch_40">
    <path d="M 591.545455 1153.44 
L 591.545455 890.829474 
" style="fill: none; stroke: #000000; stroke-width: 0.8; stroke-linejoin: miter; stroke-linecap: square"/>
   </g>
   <g id="patch_41">
    <path d="M 972 1153.44 
L 972 890.829474 
" style="fill: none; stroke: #000000; stroke-width: 0.8; stroke-linejoin: miter; stroke-linecap: square"/>
   </g>
   <g id="patch_42">
    <path d="M 591.545455 1153.44 
L 972 1153.44 
" style="fill: none; stroke: #000000; stroke-width: 0.8; stroke-linejoin: miter; stroke-linecap: square"/>
   </g>
   <g id="patch_43">
    <path d="M 591.545455 890.829474 
L 972 890.829474 
" style="fill: none; stroke: #000000; stroke-width: 0.8; stroke-linejoin: miter; stroke-linecap: square"/>
   </g>
   <g id="text_72">
    <!-- f -->
    <g transform="translate(552.733636 872.71352) scale(0.28 -0.28)">
     <defs>
      <path id="DejaVuSans-Bold-66" d="M 2841 4863 
L 2841 4128 
L 2222 4128 
Q 1984 4128 1890 4042 
Q 1797 3956 1797 3744 
L 1797 3500 
L 2753 3500 
L 2753 2700 
L 1797 2700 
L 1797 0 
L 678 0 
L 678 2700 
L 122 2700 
L 122 3500 
L 678 3500 
L 678 3744 
Q 678 4316 997 4589 
Q 1316 4863 1984 4863 
L 2841 4863 
z
" transform="scale(0.015625)"/>
     </defs>
     <use xlink:href="#DejaVuSans-Bold-66"/>
    </g>
   </g>
   <g id="text_73">
    <!-- LCMC -->
    <g transform="translate(747.973977 884.829474) scale(0.24 -0.24)">
     <defs>
      <path id="DejaVuSans-4c" d="M 628 4666 
L 1259 4666 
L 1259 531 
L 3531 531 
L 3531 0 
L 628 0 
L 628 4666 
z
" transform="scale(0.015625)"/>
     </defs>
     <use xlink:href="#DejaVuSans-4c"/>
     <use xlink:href="#DejaVuSans-43" x="55.712891"/>
     <use xlink:href="#DejaVuSans-4d" x="125.537109"/>
     <use xlink:href="#DejaVuSans-43" x="211.816406"/>
    </g>
   </g>
  </g>
 </g>
 <defs>
  <clipPath id="pcdb3c2d726">
   <rect x="135" y="155.52" width="380.454545" height="262.610526"/>
  </clipPath>
  <clipPath id="p6460e677a4">
   <rect x="591.545455" y="155.52" width="380.454545" height="262.610526"/>
  </clipPath>
  <clipPath id="p88777ad46d">
   <rect x="135" y="523.174737" width="380.454545" height="262.610526"/>
  </clipPath>
  <clipPath id="p2753d8351a">
   <rect x="591.545455" y="523.174737" width="380.454545" height="262.610526"/>
  </clipPath>
  <clipPath id="pfbdafa8443">
   <rect x="135" y="890.829474" width="380.454545" height="262.610526"/>
  </clipPath>
  <clipPath id="p56105dbf96">
   <rect x="591.545455" y="890.829474" width="380.454545" height="262.610526"/>
  </clipPath>
 </defs>
</svg>
