<?xml version="1.0" encoding="utf-8" standalone="no"?>
<!DOCTYPE svg PUBLIC "-//W3C//DTD SVG 1.1//EN"
  "http://www.w3.org/Graphics/SVG/1.1/DTD/svg11.dtd">
<svg xmlns:xlink="http://www.w3.org/1999/xlink" width="1080pt" height="1296pt" viewBox="0 0 1080 1296" xmlns="http://www.w3.org/2000/svg" version="1.1">
 <metadata>
  <rdf:RDF xmlns:dc="http://purl.org/dc/elements/1.1/" xmlns:cc="http://creativecommons.org/ns#" xmlns:rdf="http://www.w3.org/1999/02/22-rdf-syntax-ns#">
   <cc:Work>
    <dc:type rdf:resource="http://purl.org/dc/dcmitype/StillImage"/>
    <dc:date>2024-07-23T21:42:19.105319</dc:date>
    <dc:format>image/svg+xml</dc:format>
    <dc:creator>
     <cc:Agent>
      <dc:title>Matplotlib v3.8.4, https://matplotlib.org/</dc:title>
     </cc:Agent>
    </dc:creator>
   </cc:Work>
  </rdf:RDF>
 </metadata>
 <defs>
  <style type="text/css">*{stroke-linejoin: round; stroke-linecap: butt}</style>
 </defs>
 <g id="figure_1">
  <g id="patch_1">
   <path d="M 0 1296 
L 1080 1296 
L 1080 0 
L 0 0 
z
" style="fill: #ffffff"/>
  </g>
  <g id="axes_1">
   <g id="patch_2">
    <path d="M 135 418.130526 
L 515.454545 418.130526 
L 515.454545 155.52 
L 135 155.52 
z
" style="fill: #ffffff"/>
   </g>
   <g id="matplotlib.axis_1">
    <g id="xtick_1">
     <g id="line2d_1">
      <defs>
       <path id="m23d36a4d7a" d="M 0 0 
L 0 3.5 
" style="stroke: #000000; stroke-width: 0.8"/>
      </defs>
      <g>
       <use xlink:href="#m23d36a4d7a" x="137.882231" y="418.130526" style="stroke: #000000; stroke-width: 0.8"/>
      </g>
     </g>
     <g id="text_1">
      <!-- 0 -->
      <g transform="translate(131.519731 440.327401) scale(0.2 -0.2)">
       <defs>
        <path id="DejaVuSans-30" d="M 2034 4250 
Q 1547 4250 1301 3770 
Q 1056 3291 1056 2328 
Q 1056 1369 1301 889 
Q 1547 409 2034 409 
Q 2525 409 2770 889 
Q 3016 1369 3016 2328 
Q 3016 3291 2770 3770 
Q 2525 4250 2034 4250 
z
M 2034 4750 
Q 2819 4750 3233 4129 
Q 3647 3509 3647 2328 
Q 3647 1150 3233 529 
Q 2819 -91 2034 -91 
Q 1250 -91 836 529 
Q 422 1150 422 2328 
Q 422 3509 836 4129 
Q 1250 4750 2034 4750 
z
" transform="scale(0.015625)"/>
       </defs>
       <use xlink:href="#DejaVuSans-30"/>
      </g>
     </g>
    </g>
    <g id="xtick_2">
     <g id="line2d_2">
      <g>
       <use xlink:href="#m23d36a4d7a" x="209.938017" y="418.130526" style="stroke: #000000; stroke-width: 0.8"/>
      </g>
     </g>
     <g id="text_2">
      <!-- 10 -->
      <g transform="translate(197.213017 440.327401) scale(0.2 -0.2)">
       <defs>
        <path id="DejaVuSans-31" d="M 794 531 
L 1825 531 
L 1825 4091 
L 703 3866 
L 703 4441 
L 1819 4666 
L 2450 4666 
L 2450 531 
L 3481 531 
L 3481 0 
L 794 0 
L 794 531 
z
" transform="scale(0.015625)"/>
       </defs>
       <use xlink:href="#DejaVuSans-31"/>
       <use xlink:href="#DejaVuSans-30" x="63.623047"/>
      </g>
     </g>
    </g>
    <g id="xtick_3">
     <g id="line2d_3">
      <g>
       <use xlink:href="#m23d36a4d7a" x="281.993802" y="418.130526" style="stroke: #000000; stroke-width: 0.8"/>
      </g>
     </g>
     <g id="text_3">
      <!-- 20 -->
      <g transform="translate(269.268802 440.327401) scale(0.2 -0.2)">
       <defs>
        <path id="DejaVuSans-32" d="M 1228 531 
L 3431 531 
L 3431 0 
L 469 0 
L 469 531 
Q 828 903 1448 1529 
Q 2069 2156 2228 2338 
Q 2531 2678 2651 2914 
Q 2772 3150 2772 3378 
Q 2772 3750 2511 3984 
Q 2250 4219 1831 4219 
Q 1534 4219 1204 4116 
Q 875 4013 500 3803 
L 500 4441 
Q 881 4594 1212 4672 
Q 1544 4750 1819 4750 
Q 2544 4750 2975 4387 
Q 3406 4025 3406 3419 
Q 3406 3131 3298 2873 
Q 3191 2616 2906 2266 
Q 2828 2175 2409 1742 
Q 1991 1309 1228 531 
z
" transform="scale(0.015625)"/>
       </defs>
       <use xlink:href="#DejaVuSans-32"/>
       <use xlink:href="#DejaVuSans-30" x="63.623047"/>
      </g>
     </g>
    </g>
    <g id="xtick_4">
     <g id="line2d_4">
      <g>
       <use xlink:href="#m23d36a4d7a" x="354.049587" y="418.130526" style="stroke: #000000; stroke-width: 0.8"/>
      </g>
     </g>
     <g id="text_4">
      <!-- 30 -->
      <g transform="translate(341.324587 440.327401) scale(0.2 -0.2)">
       <defs>
        <path id="DejaVuSans-33" d="M 2597 2516 
Q 3050 2419 3304 2112 
Q 3559 1806 3559 1356 
Q 3559 666 3084 287 
Q 2609 -91 1734 -91 
Q 1441 -91 1130 -33 
Q 819 25 488 141 
L 488 750 
Q 750 597 1062 519 
Q 1375 441 1716 441 
Q 2309 441 2620 675 
Q 2931 909 2931 1356 
Q 2931 1769 2642 2001 
Q 2353 2234 1838 2234 
L 1294 2234 
L 1294 2753 
L 1863 2753 
Q 2328 2753 2575 2939 
Q 2822 3125 2822 3475 
Q 2822 3834 2567 4026 
Q 2313 4219 1838 4219 
Q 1578 4219 1281 4162 
Q 984 4106 628 3988 
L 628 4550 
Q 988 4650 1302 4700 
Q 1616 4750 1894 4750 
Q 2613 4750 3031 4423 
Q 3450 4097 3450 3541 
Q 3450 3153 3228 2886 
Q 3006 2619 2597 2516 
z
" transform="scale(0.015625)"/>
       </defs>
       <use xlink:href="#DejaVuSans-33"/>
       <use xlink:href="#DejaVuSans-30" x="63.623047"/>
      </g>
     </g>
    </g>
    <g id="xtick_5">
     <g id="line2d_5">
      <g>
       <use xlink:href="#m23d36a4d7a" x="426.105372" y="418.130526" style="stroke: #000000; stroke-width: 0.8"/>
      </g>
     </g>
     <g id="text_5">
      <!-- 40 -->
      <g transform="translate(413.380372 440.327401) scale(0.2 -0.2)">
       <defs>
        <path id="DejaVuSans-34" d="M 2419 4116 
L 825 1625 
L 2419 1625 
L 2419 4116 
z
M 2253 4666 
L 3047 4666 
L 3047 1625 
L 3713 1625 
L 3713 1100 
L 3047 1100 
L 3047 0 
L 2419 0 
L 2419 1100 
L 313 1100 
L 313 1709 
L 2253 4666 
z
" transform="scale(0.015625)"/>
       </defs>
       <use xlink:href="#DejaVuSans-34"/>
       <use xlink:href="#DejaVuSans-30" x="63.623047"/>
      </g>
     </g>
    </g>
    <g id="xtick_6">
     <g id="line2d_6">
      <g>
       <use xlink:href="#m23d36a4d7a" x="498.161157" y="418.130526" style="stroke: #000000; stroke-width: 0.8"/>
      </g>
     </g>
     <g id="text_6">
      <!-- 50 -->
      <g transform="translate(485.436157 440.327401) scale(0.2 -0.2)">
       <defs>
        <path id="DejaVuSans-35" d="M 691 4666 
L 3169 4666 
L 3169 4134 
L 1269 4134 
L 1269 2991 
Q 1406 3038 1543 3061 
Q 1681 3084 1819 3084 
Q 2600 3084 3056 2656 
Q 3513 2228 3513 1497 
Q 3513 744 3044 326 
Q 2575 -91 1722 -91 
Q 1428 -91 1123 -41 
Q 819 9 494 109 
L 494 744 
Q 775 591 1075 516 
Q 1375 441 1709 441 
Q 2250 441 2565 725 
Q 2881 1009 2881 1497 
Q 2881 1984 2565 2268 
Q 2250 2553 1709 2553 
Q 1456 2553 1204 2497 
Q 953 2441 691 2322 
L 691 4666 
z
" transform="scale(0.015625)"/>
       </defs>
       <use xlink:href="#DejaVuSans-35"/>
       <use xlink:href="#DejaVuSans-30" x="63.623047"/>
      </g>
     </g>
    </g>
    <g id="text_7">
     <!-- k -->
     <g transform="translate(318.278523 466.723026) scale(0.24 -0.24)">
      <defs>
       <path id="DejaVuSans-6b" d="M 581 4863 
L 1159 4863 
L 1159 1991 
L 2875 3500 
L 3609 3500 
L 1753 1863 
L 3688 0 
L 2938 0 
L 1159 1709 
L 1159 0 
L 581 0 
L 581 4863 
z
" transform="scale(0.015625)"/>
      </defs>
      <use xlink:href="#DejaVuSans-6b"/>
     </g>
    </g>
   </g>
   <g id="matplotlib.axis_2">
    <g id="ytick_1">
     <g id="line2d_7">
      <defs>
       <path id="mc16df7655a" d="M 0 0 
L -3.5 0 
" style="stroke: #000000; stroke-width: 0.8"/>
      </defs>
      <g>
       <use xlink:href="#mc16df7655a" x="135" y="418.130526" style="stroke: #000000; stroke-width: 0.8"/>
      </g>
     </g>
     <g id="text_8">
      <!-- 0.0 -->
      <g transform="translate(96.19375 425.728964) scale(0.2 -0.2)">
       <defs>
        <path id="DejaVuSans-2e" d="M 684 794 
L 1344 794 
L 1344 0 
L 684 0 
L 684 794 
z
" transform="scale(0.015625)"/>
       </defs>
       <use xlink:href="#DejaVuSans-30"/>
       <use xlink:href="#DejaVuSans-2e" x="63.623047"/>
       <use xlink:href="#DejaVuSans-30" x="95.410156"/>
      </g>
     </g>
    </g>
    <g id="ytick_2">
     <g id="line2d_8">
      <g>
       <use xlink:href="#mc16df7655a" x="135" y="352.477895" style="stroke: #000000; stroke-width: 0.8"/>
      </g>
     </g>
     <g id="text_9">
      <!-- 0.2 -->
      <g transform="translate(96.19375 360.076332) scale(0.2 -0.2)">
       <use xlink:href="#DejaVuSans-30"/>
       <use xlink:href="#DejaVuSans-2e" x="63.623047"/>
       <use xlink:href="#DejaVuSans-32" x="95.410156"/>
      </g>
     </g>
    </g>
    <g id="ytick_3">
     <g id="line2d_9">
      <g>
       <use xlink:href="#mc16df7655a" x="135" y="286.825263" style="stroke: #000000; stroke-width: 0.8"/>
      </g>
     </g>
     <g id="text_10">
      <!-- 0.4 -->
      <g transform="translate(96.19375 294.423701) scale(0.2 -0.2)">
       <use xlink:href="#DejaVuSans-30"/>
       <use xlink:href="#DejaVuSans-2e" x="63.623047"/>
       <use xlink:href="#DejaVuSans-34" x="95.410156"/>
      </g>
     </g>
    </g>
    <g id="ytick_4">
     <g id="line2d_10">
      <g>
       <use xlink:href="#mc16df7655a" x="135" y="221.172632" style="stroke: #000000; stroke-width: 0.8"/>
      </g>
     </g>
     <g id="text_11">
      <!-- 0.6 -->
      <g transform="translate(96.19375 228.771069) scale(0.2 -0.2)">
       <defs>
        <path id="DejaVuSans-36" d="M 2113 2584 
Q 1688 2584 1439 2293 
Q 1191 2003 1191 1497 
Q 1191 994 1439 701 
Q 1688 409 2113 409 
Q 2538 409 2786 701 
Q 3034 994 3034 1497 
Q 3034 2003 2786 2293 
Q 2538 2584 2113 2584 
z
M 3366 4563 
L 3366 3988 
Q 3128 4100 2886 4159 
Q 2644 4219 2406 4219 
Q 1781 4219 1451 3797 
Q 1122 3375 1075 2522 
Q 1259 2794 1537 2939 
Q 1816 3084 2150 3084 
Q 2853 3084 3261 2657 
Q 3669 2231 3669 1497 
Q 3669 778 3244 343 
Q 2819 -91 2113 -91 
Q 1303 -91 875 529 
Q 447 1150 447 2328 
Q 447 3434 972 4092 
Q 1497 4750 2381 4750 
Q 2619 4750 2861 4703 
Q 3103 4656 3366 4563 
z
" transform="scale(0.015625)"/>
       </defs>
       <use xlink:href="#DejaVuSans-30"/>
       <use xlink:href="#DejaVuSans-2e" x="63.623047"/>
       <use xlink:href="#DejaVuSans-36" x="95.410156"/>
      </g>
     </g>
    </g>
    <g id="ytick_5">
     <g id="line2d_11">
      <g>
       <use xlink:href="#mc16df7655a" x="135" y="155.52" style="stroke: #000000; stroke-width: 0.8"/>
      </g>
     </g>
     <g id="text_12">
      <!-- 0.8 -->
      <g transform="translate(96.19375 163.118438) scale(0.2 -0.2)">
       <defs>
        <path id="DejaVuSans-38" d="M 2034 2216 
Q 1584 2216 1326 1975 
Q 1069 1734 1069 1313 
Q 1069 891 1326 650 
Q 1584 409 2034 409 
Q 2484 409 2743 651 
Q 3003 894 3003 1313 
Q 3003 1734 2745 1975 
Q 2488 2216 2034 2216 
z
M 1403 2484 
Q 997 2584 770 2862 
Q 544 3141 544 3541 
Q 544 4100 942 4425 
Q 1341 4750 2034 4750 
Q 2731 4750 3128 4425 
Q 3525 4100 3525 3541 
Q 3525 3141 3298 2862 
Q 3072 2584 2669 2484 
Q 3125 2378 3379 2068 
Q 3634 1759 3634 1313 
Q 3634 634 3220 271 
Q 2806 -91 2034 -91 
Q 1263 -91 848 271 
Q 434 634 434 1313 
Q 434 1759 690 2068 
Q 947 2378 1403 2484 
z
M 1172 3481 
Q 1172 3119 1398 2916 
Q 1625 2713 2034 2713 
Q 2441 2713 2670 2916 
Q 2900 3119 2900 3481 
Q 2900 3844 2670 4047 
Q 2441 4250 2034 4250 
Q 1625 4250 1398 4047 
Q 1172 3844 1172 3481 
z
" transform="scale(0.015625)"/>
       </defs>
       <use xlink:href="#DejaVuSans-30"/>
       <use xlink:href="#DejaVuSans-2e" x="63.623047"/>
       <use xlink:href="#DejaVuSans-38" x="95.410156"/>
      </g>
     </g>
    </g>
    <g id="text_13">
     <!-- $P_{NN}$ -->
     <g transform="translate(87.2025 306.985263) rotate(-90) scale(0.24 -0.24)">
      <defs>
       <path id="DejaVuSans-Oblique-50" d="M 1081 4666 
L 2541 4666 
Q 3178 4666 3512 4369 
Q 3847 4072 3847 3500 
Q 3847 2731 3353 2303 
Q 2859 1875 1966 1875 
L 1172 1875 
L 806 0 
L 172 0 
L 1081 4666 
z
M 1613 4147 
L 1275 2394 
L 2069 2394 
Q 2606 2394 2893 2669 
Q 3181 2944 3181 3456 
Q 3181 3784 2986 3965 
Q 2791 4147 2438 4147 
L 1613 4147 
z
" transform="scale(0.015625)"/>
       <path id="DejaVuSans-Oblique-4e" d="M 1081 4666 
L 1931 4666 
L 3219 666 
L 4000 4666 
L 4616 4666 
L 3706 0 
L 2853 0 
L 1569 4025 
L 788 0 
L 172 0 
L 1081 4666 
z
" transform="scale(0.015625)"/>
      </defs>
      <use xlink:href="#DejaVuSans-Oblique-50" transform="translate(0 0.09375)"/>
      <use xlink:href="#DejaVuSans-Oblique-4e" transform="translate(60.302734 -16.3125) scale(0.7)"/>
      <use xlink:href="#DejaVuSans-Oblique-4e" transform="translate(112.666016 -16.3125) scale(0.7)"/>
     </g>
    </g>
   </g>
   <g id="line2d_12">
    <path d="M 152.293388 370.55406 
L 173.910124 357.394612 
L 209.938017 345.999397 
L 281.993802 332.420582 
L 498.161157 314.526625 
" clip-path="url(#p311a5cd7cb)" style="fill: none; stroke: #1f77b4; stroke-width: 1.5; stroke-linecap: square"/>
    <defs>
     <path id="mf87473c7c8" d="M 0 3 
C 0.795609 3 1.55874 2.683901 2.12132 2.12132 
C 2.683901 1.55874 3 0.795609 3 0 
C 3 -0.795609 2.683901 -1.55874 2.12132 -2.12132 
C 1.55874 -2.683901 0.795609 -3 0 -3 
C -0.795609 -3 -1.55874 -2.683901 -2.12132 -2.12132 
C -2.683901 -1.55874 -3 -0.795609 -3 0 
C -3 0.795609 -2.683901 1.55874 -2.12132 2.12132 
C -1.55874 2.683901 -0.795609 3 0 3 
z
" style="stroke: #1f77b4"/>
    </defs>
    <g clip-path="url(#p311a5cd7cb)">
     <use xlink:href="#mf87473c7c8" x="152.293388" y="370.55406" style="fill: #1f77b4; stroke: #1f77b4"/>
     <use xlink:href="#mf87473c7c8" x="173.910124" y="357.394612" style="fill: #1f77b4; stroke: #1f77b4"/>
     <use xlink:href="#mf87473c7c8" x="209.938017" y="345.999397" style="fill: #1f77b4; stroke: #1f77b4"/>
     <use xlink:href="#mf87473c7c8" x="281.993802" y="332.420582" style="fill: #1f77b4; stroke: #1f77b4"/>
     <use xlink:href="#mf87473c7c8" x="498.161157" y="314.526625" style="fill: #1f77b4; stroke: #1f77b4"/>
    </g>
   </g>
   <g id="line2d_13">
    <path d="M 152.293388 181.549678 
L 173.910124 174.319212 
L 209.938017 171.889775 
L 281.993802 182.272724 
L 498.161157 215.018059 
" clip-path="url(#p311a5cd7cb)" style="fill: none; stroke: #ff7f0e; stroke-width: 1.5; stroke-linecap: square"/>
    <defs>
     <path id="m2d20be1adc" d="M 0 3 
C 0.795609 3 1.55874 2.683901 2.12132 2.12132 
C 2.683901 1.55874 3 0.795609 3 0 
C 3 -0.795609 2.683901 -1.55874 2.12132 -2.12132 
C 1.55874 -2.683901 0.795609 -3 0 -3 
C -0.795609 -3 -1.55874 -2.683901 -2.12132 -2.12132 
C -2.683901 -1.55874 -3 -0.795609 -3 0 
C -3 0.795609 -2.683901 1.55874 -2.12132 2.12132 
C -1.55874 2.683901 -0.795609 3 0 3 
z
" style="stroke: #ff7f0e"/>
    </defs>
    <g clip-path="url(#p311a5cd7cb)">
     <use xlink:href="#m2d20be1adc" x="152.293388" y="181.549678" style="fill: #ff7f0e; stroke: #ff7f0e"/>
     <use xlink:href="#m2d20be1adc" x="173.910124" y="174.319212" style="fill: #ff7f0e; stroke: #ff7f0e"/>
     <use xlink:href="#m2d20be1adc" x="209.938017" y="171.889775" style="fill: #ff7f0e; stroke: #ff7f0e"/>
     <use xlink:href="#m2d20be1adc" x="281.993802" y="182.272724" style="fill: #ff7f0e; stroke: #ff7f0e"/>
     <use xlink:href="#m2d20be1adc" x="498.161157" y="215.018059" style="fill: #ff7f0e; stroke: #ff7f0e"/>
    </g>
   </g>
   <g id="line2d_14">
    <path d="M 152.293388 294.200339 
L 173.910124 238.294375 
L 209.938017 193.986079 
L 281.993802 186.292863 
L 498.161157 224.822571 
" clip-path="url(#p311a5cd7cb)" style="fill: none; stroke: #2ca02c; stroke-width: 1.5; stroke-linecap: square"/>
    <defs>
     <path id="mb8c1b2b993" d="M 0 3 
C 0.795609 3 1.55874 2.683901 2.12132 2.12132 
C 2.683901 1.55874 3 0.795609 3 0 
C 3 -0.795609 2.683901 -1.55874 2.12132 -2.12132 
C 1.55874 -2.683901 0.795609 -3 0 -3 
C -0.795609 -3 -1.55874 -2.683901 -2.12132 -2.12132 
C -2.683901 -1.55874 -3 -0.795609 -3 0 
C -3 0.795609 -2.683901 1.55874 -2.12132 2.12132 
C -1.55874 2.683901 -0.795609 3 0 3 
z
" style="stroke: #2ca02c"/>
    </defs>
    <g clip-path="url(#p311a5cd7cb)">
     <use xlink:href="#mb8c1b2b993" x="152.293388" y="294.200339" style="fill: #2ca02c; stroke: #2ca02c"/>
     <use xlink:href="#mb8c1b2b993" x="173.910124" y="238.294375" style="fill: #2ca02c; stroke: #2ca02c"/>
     <use xlink:href="#mb8c1b2b993" x="209.938017" y="193.986079" style="fill: #2ca02c; stroke: #2ca02c"/>
     <use xlink:href="#mb8c1b2b993" x="281.993802" y="186.292863" style="fill: #2ca02c; stroke: #2ca02c"/>
     <use xlink:href="#mb8c1b2b993" x="498.161157" y="224.822571" style="fill: #2ca02c; stroke: #2ca02c"/>
    </g>
   </g>
   <g id="line2d_15">
    <path d="M 152.293388 281.619328 
L 173.910124 237.253188 
L 209.938017 203.241076 
L 281.993802 189.445347 
L 498.161157 222.150191 
" clip-path="url(#p311a5cd7cb)" style="fill: none; stroke: #d62728; stroke-width: 1.5; stroke-linecap: square"/>
    <defs>
     <path id="m8448c33392" d="M 0 3 
C 0.795609 3 1.55874 2.683901 2.12132 2.12132 
C 2.683901 1.55874 3 0.795609 3 0 
C 3 -0.795609 2.683901 -1.55874 2.12132 -2.12132 
C 1.55874 -2.683901 0.795609 -3 0 -3 
C -0.795609 -3 -1.55874 -2.683901 -2.12132 -2.12132 
C -2.683901 -1.55874 -3 -0.795609 -3 0 
C -3 0.795609 -2.683901 1.55874 -2.12132 2.12132 
C -1.55874 2.683901 -0.795609 3 0 3 
z
" style="stroke: #d62728"/>
    </defs>
    <g clip-path="url(#p311a5cd7cb)">
     <use xlink:href="#m8448c33392" x="152.293388" y="281.619328" style="fill: #d62728; stroke: #d62728"/>
     <use xlink:href="#m8448c33392" x="173.910124" y="237.253188" style="fill: #d62728; stroke: #d62728"/>
     <use xlink:href="#m8448c33392" x="209.938017" y="203.241076" style="fill: #d62728; stroke: #d62728"/>
     <use xlink:href="#m8448c33392" x="281.993802" y="189.445347" style="fill: #d62728; stroke: #d62728"/>
     <use xlink:href="#m8448c33392" x="498.161157" y="222.150191" style="fill: #d62728; stroke: #d62728"/>
    </g>
   </g>
   <g id="patch_3">
    <path d="M 135 418.130526 
L 135 155.52 
" style="fill: none; stroke: #000000; stroke-width: 0.8; stroke-linejoin: miter; stroke-linecap: square"/>
   </g>
   <g id="patch_4">
    <path d="M 515.454545 418.130526 
L 515.454545 155.52 
" style="fill: none; stroke: #000000; stroke-width: 0.8; stroke-linejoin: miter; stroke-linecap: square"/>
   </g>
   <g id="patch_5">
    <path d="M 135 418.130526 
L 515.454545 418.130526 
" style="fill: none; stroke: #000000; stroke-width: 0.8; stroke-linejoin: miter; stroke-linecap: square"/>
   </g>
   <g id="patch_6">
    <path d="M 135 155.52 
L 515.454545 155.52 
" style="fill: none; stroke: #000000; stroke-width: 0.8; stroke-linejoin: miter; stroke-linecap: square"/>
   </g>
   <g id="text_14">
    <!-- a -->
    <g transform="translate(89.472557 137.404046) scale(0.28 -0.28)">
     <defs>
      <path id="DejaVuSans-Bold-61" d="M 2106 1575 
Q 1756 1575 1579 1456 
Q 1403 1338 1403 1106 
Q 1403 894 1545 773 
Q 1688 653 1941 653 
Q 2256 653 2472 879 
Q 2688 1106 2688 1447 
L 2688 1575 
L 2106 1575 
z
M 3816 1997 
L 3816 0 
L 2688 0 
L 2688 519 
Q 2463 200 2181 54 
Q 1900 -91 1497 -91 
Q 953 -91 614 226 
Q 275 544 275 1050 
Q 275 1666 698 1953 
Q 1122 2241 2028 2241 
L 2688 2241 
L 2688 2328 
Q 2688 2594 2478 2717 
Q 2269 2841 1825 2841 
Q 1466 2841 1156 2769 
Q 847 2697 581 2553 
L 581 3406 
Q 941 3494 1303 3539 
Q 1666 3584 2028 3584 
Q 2975 3584 3395 3211 
Q 3816 2838 3816 1997 
z
" transform="scale(0.015625)"/>
     </defs>
     <use xlink:href="#DejaVuSans-Bold-61"/>
    </g>
   </g>
   <g id="text_15">
    <!-- $P_{NN}$ -->
    <g transform="translate(303.387273 149.52) scale(0.26 -0.26)">
     <use xlink:href="#DejaVuSans-Oblique-50" transform="translate(0 0.09375)"/>
     <use xlink:href="#DejaVuSans-Oblique-4e" transform="translate(60.302734 -16.3125) scale(0.7)"/>
     <use xlink:href="#DejaVuSans-Oblique-4e" transform="translate(112.666016 -16.3125) scale(0.7)"/>
    </g>
   </g>
  </g>
  <g id="axes_2">
   <g id="patch_7">
    <path d="M 591.545455 418.130526 
L 972 418.130526 
L 972 155.52 
L 591.545455 155.52 
z
" style="fill: #ffffff"/>
   </g>
   <g id="patch_8">
    <path d="M 608.838843 418.130526 
L 628.792753 418.130526 
L 628.792753 186.187472 
L 608.838843 186.187472 
z
" clip-path="url(#p5b0f1f1170)" style="fill: #1f77b4"/>
   </g>
   <g id="patch_9">
    <path d="M 741.864908 418.130526 
L 761.818818 418.130526 
L 761.818818 302.930303 
L 741.864908 302.930303 
z
" clip-path="url(#p5b0f1f1170)" style="fill: #1f77b4"/>
   </g>
   <g id="patch_10">
    <path d="M 874.890973 418.130526 
L 894.844882 418.130526 
L 894.844882 171.278503 
L 874.890973 171.278503 
z
" clip-path="url(#p5b0f1f1170)" style="fill: #1f77b4"/>
   </g>
   <g id="patch_11">
    <path d="M 628.792753 418.130526 
L 648.746662 418.130526 
L 648.746662 179.206581 
L 628.792753 179.206581 
z
" clip-path="url(#p5b0f1f1170)" style="fill: #ff7f0e"/>
   </g>
   <g id="patch_12">
    <path d="M 761.818818 418.130526 
L 781.772727 418.130526 
L 781.772727 168.025263 
L 761.818818 168.025263 
z
" clip-path="url(#p5b0f1f1170)" style="fill: #ff7f0e"/>
   </g>
   <g id="patch_13">
    <path d="M 894.844882 418.130526 
L 914.798792 418.130526 
L 914.798792 179.15923 
L 894.844882 179.15923 
z
" clip-path="url(#p5b0f1f1170)" style="fill: #ff7f0e"/>
   </g>
   <g id="patch_14">
    <path d="M 648.746662 418.130526 
L 668.700572 418.130526 
L 668.700572 187.462968 
L 648.746662 187.462968 
z
" clip-path="url(#p5b0f1f1170)" style="fill: #2ca02c"/>
   </g>
   <g id="patch_15">
    <path d="M 781.772727 418.130526 
L 801.726637 418.130526 
L 801.726637 216.454363 
L 781.772727 216.454363 
z
" clip-path="url(#p5b0f1f1170)" style="fill: #2ca02c"/>
   </g>
   <g id="patch_16">
    <path d="M 914.798792 418.130526 
L 934.752702 418.130526 
L 934.752702 186.953466 
L 914.798792 186.953466 
z
" clip-path="url(#p5b0f1f1170)" style="fill: #2ca02c"/>
   </g>
   <g id="patch_17">
    <path d="M 668.700572 418.130526 
L 688.654482 418.130526 
L 688.654482 196.599287 
L 668.700572 196.599287 
z
" clip-path="url(#p5b0f1f1170)" style="fill: #d62728"/>
   </g>
   <g id="patch_18">
    <path d="M 801.726637 418.130526 
L 821.680547 418.130526 
L 821.680547 211.324476 
L 801.726637 211.324476 
z
" clip-path="url(#p5b0f1f1170)" style="fill: #d62728"/>
   </g>
   <g id="patch_19">
    <path d="M 934.752702 418.130526 
L 954.706612 418.130526 
L 954.706612 196.255107 
L 934.752702 196.255107 
z
" clip-path="url(#p5b0f1f1170)" style="fill: #d62728"/>
   </g>
   <g id="matplotlib.axis_3">
    <g id="xtick_7">
     <g id="line2d_16">
      <g>
       <use xlink:href="#m23d36a4d7a" x="648.746662" y="418.130526" style="stroke: #000000; stroke-width: 0.8"/>
      </g>
     </g>
     <g id="text_16">
      <!-- AUC -->
      <g transform="translate(625.490256 441.847089) scale(0.22 -0.22)">
       <defs>
        <path id="DejaVuSans-41" d="M 2188 4044 
L 1331 1722 
L 3047 1722 
L 2188 4044 
z
M 1831 4666 
L 2547 4666 
L 4325 0 
L 3669 0 
L 3244 1197 
L 1141 1197 
L 716 0 
L 50 0 
L 1831 4666 
z
" transform="scale(0.015625)"/>
        <path id="DejaVuSans-55" d="M 556 4666 
L 1191 4666 
L 1191 1831 
Q 1191 1081 1462 751 
Q 1734 422 2344 422 
Q 2950 422 3222 751 
Q 3494 1081 3494 1831 
L 3494 4666 
L 4128 4666 
L 4128 1753 
Q 4128 841 3676 375 
Q 3225 -91 2344 -91 
Q 1459 -91 1007 375 
Q 556 841 556 1753 
L 556 4666 
z
" transform="scale(0.015625)"/>
        <path id="DejaVuSans-43" d="M 4122 4306 
L 4122 3641 
Q 3803 3938 3442 4084 
Q 3081 4231 2675 4231 
Q 1875 4231 1450 3742 
Q 1025 3253 1025 2328 
Q 1025 1406 1450 917 
Q 1875 428 2675 428 
Q 3081 428 3442 575 
Q 3803 722 4122 1019 
L 4122 359 
Q 3791 134 3420 21 
Q 3050 -91 2638 -91 
Q 1578 -91 968 557 
Q 359 1206 359 2328 
Q 359 3453 968 4101 
Q 1578 4750 2638 4750 
Q 3056 4750 3426 4639 
Q 3797 4528 4122 4306 
z
" transform="scale(0.015625)"/>
       </defs>
       <use xlink:href="#DejaVuSans-41"/>
       <use xlink:href="#DejaVuSans-55" x="68.408203"/>
       <use xlink:href="#DejaVuSans-43" x="141.601562"/>
      </g>
     </g>
    </g>
    <g id="xtick_8">
     <g id="line2d_17">
      <g>
       <use xlink:href="#m23d36a4d7a" x="781.772727" y="418.130526" style="stroke: #000000; stroke-width: 0.8"/>
      </g>
     </g>
     <g id="text_17">
      <!-- $Q_{local}$ -->
      <g transform="translate(754.822727 441.847089) scale(0.22 -0.22)">
       <defs>
        <path id="DejaVuSans-Oblique-51" d="M 2309 -84 
Q 2275 -88 2237 -89 
Q 2200 -91 2125 -91 
Q 1250 -91 756 411 
Q 263 913 263 1797 
Q 263 2319 452 2844 
Q 641 3369 978 3788 
Q 1369 4269 1858 4509 
Q 2347 4750 2938 4750 
Q 3794 4750 4287 4245 
Q 4781 3741 4781 2869 
Q 4781 1928 4265 1147 
Q 3750 366 2919 44 
L 3553 -825 
L 2847 -825 
L 2309 -84 
z
M 2919 4238 
Q 2400 4238 2003 3986 
Q 1606 3734 1313 3219 
Q 1125 2891 1026 2522 
Q 928 2153 928 1778 
Q 928 1128 1239 775 
Q 1550 422 2119 422 
Q 2631 422 3032 676 
Q 3434 931 3719 1434 
Q 3909 1772 4009 2142 
Q 4109 2513 4109 2881 
Q 4109 3528 3796 3883 
Q 3484 4238 2919 4238 
z
" transform="scale(0.015625)"/>
        <path id="DejaVuSans-Oblique-6c" d="M 1172 4863 
L 1747 4863 
L 800 0 
L 225 0 
L 1172 4863 
z
" transform="scale(0.015625)"/>
        <path id="DejaVuSans-Oblique-6f" d="M 1625 -91 
Q 1009 -91 651 289 
Q 294 669 294 1325 
Q 294 1706 417 2101 
Q 541 2497 738 2766 
Q 1047 3184 1428 3384 
Q 1809 3584 2291 3584 
Q 2888 3584 3255 3212 
Q 3622 2841 3622 2241 
Q 3622 1825 3500 1412 
Q 3378 1000 3181 728 
Q 2875 309 2494 109 
Q 2113 -91 1625 -91 
z
M 891 1344 
Q 891 869 1089 633 
Q 1288 397 1691 397 
Q 2269 397 2648 901 
Q 3028 1406 3028 2181 
Q 3028 2634 2825 2865 
Q 2622 3097 2228 3097 
Q 1903 3097 1650 2945 
Q 1397 2794 1197 2484 
Q 1050 2253 970 1956 
Q 891 1659 891 1344 
z
" transform="scale(0.015625)"/>
        <path id="DejaVuSans-Oblique-63" d="M 3431 3366 
L 3316 2797 
Q 3109 2947 2876 3022 
Q 2644 3097 2394 3097 
Q 2119 3097 1870 3000 
Q 1622 2903 1453 2725 
Q 1184 2453 1037 2087 
Q 891 1722 891 1331 
Q 891 859 1127 628 
Q 1363 397 1844 397 
Q 2081 397 2348 469 
Q 2616 541 2906 684 
L 2797 116 
Q 2547 13 2283 -39 
Q 2019 -91 1741 -91 
Q 1044 -91 669 257 
Q 294 606 294 1253 
Q 294 1797 489 2255 
Q 684 2713 1069 3078 
Q 1331 3328 1684 3456 
Q 2038 3584 2456 3584 
Q 2700 3584 2940 3529 
Q 3181 3475 3431 3366 
z
" transform="scale(0.015625)"/>
        <path id="DejaVuSans-Oblique-61" d="M 3438 1997 
L 3047 0 
L 2472 0 
L 2578 531 
Q 2325 219 2001 64 
Q 1678 -91 1281 -91 
Q 834 -91 548 182 
Q 263 456 263 884 
Q 263 1497 752 1853 
Q 1241 2209 2100 2209 
L 2900 2209 
L 2931 2363 
Q 2938 2388 2941 2417 
Q 2944 2447 2944 2509 
Q 2944 2788 2717 2942 
Q 2491 3097 2081 3097 
Q 1800 3097 1504 3025 
Q 1209 2953 897 2809 
L 997 3341 
Q 1322 3463 1633 3523 
Q 1944 3584 2234 3584 
Q 2853 3584 3176 3315 
Q 3500 3047 3500 2534 
Q 3500 2431 3484 2292 
Q 3469 2153 3438 1997 
z
M 2816 1759 
L 2241 1759 
Q 1534 1759 1195 1570 
Q 856 1381 856 984 
Q 856 709 1029 553 
Q 1203 397 1509 397 
Q 1978 397 2328 733 
Q 2678 1069 2791 1631 
L 2816 1759 
z
" transform="scale(0.015625)"/>
       </defs>
       <use xlink:href="#DejaVuSans-Oblique-51" transform="translate(0 0.78125)"/>
       <use xlink:href="#DejaVuSans-Oblique-6c" transform="translate(78.710938 -15.625) scale(0.7)"/>
       <use xlink:href="#DejaVuSans-Oblique-6f" transform="translate(98.15918 -15.625) scale(0.7)"/>
       <use xlink:href="#DejaVuSans-Oblique-63" transform="translate(140.986328 -15.625) scale(0.7)"/>
       <use xlink:href="#DejaVuSans-Oblique-61" transform="translate(179.472656 -15.625) scale(0.7)"/>
       <use xlink:href="#DejaVuSans-Oblique-6c" transform="translate(222.368164 -15.625) scale(0.7)"/>
      </g>
     </g>
    </g>
    <g id="xtick_9">
     <g id="line2d_18">
      <g>
       <use xlink:href="#m23d36a4d7a" x="914.798792" y="418.130526" style="stroke: #000000; stroke-width: 0.8"/>
      </g>
     </g>
     <g id="text_18">
      <!-- $Q_{global}$ -->
      <g transform="translate(882.348792 441.630526) scale(0.22 -0.22)">
       <defs>
        <path id="DejaVuSans-Oblique-67" d="M 3816 3500 
L 3219 434 
Q 3047 -456 2561 -893 
Q 2075 -1331 1253 -1331 
Q 950 -1331 690 -1286 
Q 431 -1241 206 -1147 
L 313 -588 
Q 525 -725 762 -790 
Q 1000 -856 1269 -856 
Q 1816 -856 2167 -557 
Q 2519 -259 2631 300 
L 2681 563 
Q 2441 288 2122 144 
Q 1803 0 1434 0 
Q 903 0 598 351 
Q 294 703 294 1319 
Q 294 1803 478 2267 
Q 663 2731 997 3091 
Q 1219 3328 1514 3456 
Q 1809 3584 2131 3584 
Q 2484 3584 2746 3420 
Q 3009 3256 3138 2956 
L 3238 3500 
L 3816 3500 
z
M 2950 2216 
Q 2950 2641 2750 2872 
Q 2550 3103 2181 3103 
Q 1953 3103 1747 3012 
Q 1541 2922 1394 2759 
Q 1156 2491 1023 2127 
Q 891 1763 891 1375 
Q 891 944 1092 712 
Q 1294 481 1672 481 
Q 2219 481 2584 976 
Q 2950 1472 2950 2216 
z
" transform="scale(0.015625)"/>
        <path id="DejaVuSans-Oblique-62" d="M 3169 2138 
Q 3169 2591 2961 2847 
Q 2753 3103 2388 3103 
Q 2122 3103 1889 2973 
Q 1656 2844 1484 2597 
Q 1303 2338 1198 1995 
Q 1094 1653 1094 1313 
Q 1094 881 1298 636 
Q 1503 391 1863 391 
Q 2134 391 2365 517 
Q 2597 644 2772 891 
Q 2950 1147 3059 1487 
Q 3169 1828 3169 2138 
z
M 1381 2969 
Q 1594 3256 1914 3420 
Q 2234 3584 2584 3584 
Q 3122 3584 3439 3221 
Q 3756 2859 3756 2241 
Q 3756 1734 3570 1259 
Q 3384 784 3041 416 
Q 2816 172 2522 40 
Q 2228 -91 1906 -91 
Q 1566 -91 1316 65 
Q 1066 222 909 531 
L 806 0 
L 231 0 
L 1178 4863 
L 1753 4863 
L 1381 2969 
z
" transform="scale(0.015625)"/>
       </defs>
       <use xlink:href="#DejaVuSans-Oblique-51" transform="translate(0 0.78125)"/>
       <use xlink:href="#DejaVuSans-Oblique-67" transform="translate(78.710938 -15.625) scale(0.7)"/>
       <use xlink:href="#DejaVuSans-Oblique-6c" transform="translate(123.144531 -15.625) scale(0.7)"/>
       <use xlink:href="#DejaVuSans-Oblique-6f" transform="translate(142.592773 -15.625) scale(0.7)"/>
       <use xlink:href="#DejaVuSans-Oblique-62" transform="translate(185.419922 -15.625) scale(0.7)"/>
       <use xlink:href="#DejaVuSans-Oblique-61" transform="translate(229.853516 -15.625) scale(0.7)"/>
       <use xlink:href="#DejaVuSans-Oblique-6c" transform="translate(272.749023 -15.625) scale(0.7)"/>
      </g>
     </g>
    </g>
   </g>
   <g id="matplotlib.axis_4">
    <g id="ytick_6">
     <g id="line2d_19">
      <g>
       <use xlink:href="#mc16df7655a" x="591.545455" y="418.130526" style="stroke: #000000; stroke-width: 0.8"/>
      </g>
     </g>
     <g id="text_19">
      <!-- 0.0 -->
      <g transform="translate(549.55858 426.488808) scale(0.22 -0.22)">
       <use xlink:href="#DejaVuSans-30"/>
       <use xlink:href="#DejaVuSans-2e" x="63.623047"/>
       <use xlink:href="#DejaVuSans-30" x="95.410156"/>
      </g>
     </g>
    </g>
    <g id="ytick_7">
     <g id="line2d_20">
      <g>
       <use xlink:href="#mc16df7655a" x="591.545455" y="349.948263" style="stroke: #000000; stroke-width: 0.8"/>
      </g>
     </g>
     <g id="text_20">
      <!-- 0.2 -->
      <g transform="translate(549.55858 358.306544) scale(0.22 -0.22)">
       <use xlink:href="#DejaVuSans-30"/>
       <use xlink:href="#DejaVuSans-2e" x="63.623047"/>
       <use xlink:href="#DejaVuSans-32" x="95.410156"/>
      </g>
     </g>
    </g>
    <g id="ytick_8">
     <g id="line2d_21">
      <g>
       <use xlink:href="#mc16df7655a" x="591.545455" y="281.765999" style="stroke: #000000; stroke-width: 0.8"/>
      </g>
     </g>
     <g id="text_21">
      <!-- 0.4 -->
      <g transform="translate(549.55858 290.124281) scale(0.22 -0.22)">
       <use xlink:href="#DejaVuSans-30"/>
       <use xlink:href="#DejaVuSans-2e" x="63.623047"/>
       <use xlink:href="#DejaVuSans-34" x="95.410156"/>
      </g>
     </g>
    </g>
    <g id="ytick_9">
     <g id="line2d_22">
      <g>
       <use xlink:href="#mc16df7655a" x="591.545455" y="213.583736" style="stroke: #000000; stroke-width: 0.8"/>
      </g>
     </g>
     <g id="text_22">
      <!-- 0.6 -->
      <g transform="translate(549.55858 221.942017) scale(0.22 -0.22)">
       <use xlink:href="#DejaVuSans-30"/>
       <use xlink:href="#DejaVuSans-2e" x="63.623047"/>
       <use xlink:href="#DejaVuSans-36" x="95.410156"/>
      </g>
     </g>
    </g>
    <g id="text_23">
     <!-- Metric Value -->
     <g transform="translate(540.983267 354.727919) rotate(-90) scale(0.22 -0.22)">
      <defs>
       <path id="DejaVuSans-4d" d="M 628 4666 
L 1569 4666 
L 2759 1491 
L 3956 4666 
L 4897 4666 
L 4897 0 
L 4281 0 
L 4281 4097 
L 3078 897 
L 2444 897 
L 1241 4097 
L 1241 0 
L 628 0 
L 628 4666 
z
" transform="scale(0.015625)"/>
       <path id="DejaVuSans-65" d="M 3597 1894 
L 3597 1613 
L 953 1613 
Q 991 1019 1311 708 
Q 1631 397 2203 397 
Q 2534 397 2845 478 
Q 3156 559 3463 722 
L 3463 178 
Q 3153 47 2828 -22 
Q 2503 -91 2169 -91 
Q 1331 -91 842 396 
Q 353 884 353 1716 
Q 353 2575 817 3079 
Q 1281 3584 2069 3584 
Q 2775 3584 3186 3129 
Q 3597 2675 3597 1894 
z
M 3022 2063 
Q 3016 2534 2758 2815 
Q 2500 3097 2075 3097 
Q 1594 3097 1305 2825 
Q 1016 2553 972 2059 
L 3022 2063 
z
" transform="scale(0.015625)"/>
       <path id="DejaVuSans-74" d="M 1172 4494 
L 1172 3500 
L 2356 3500 
L 2356 3053 
L 1172 3053 
L 1172 1153 
Q 1172 725 1289 603 
Q 1406 481 1766 481 
L 2356 481 
L 2356 0 
L 1766 0 
Q 1100 0 847 248 
Q 594 497 594 1153 
L 594 3053 
L 172 3053 
L 172 3500 
L 594 3500 
L 594 4494 
L 1172 4494 
z
" transform="scale(0.015625)"/>
       <path id="DejaVuSans-72" d="M 2631 2963 
Q 2534 3019 2420 3045 
Q 2306 3072 2169 3072 
Q 1681 3072 1420 2755 
Q 1159 2438 1159 1844 
L 1159 0 
L 581 0 
L 581 3500 
L 1159 3500 
L 1159 2956 
Q 1341 3275 1631 3429 
Q 1922 3584 2338 3584 
Q 2397 3584 2469 3576 
Q 2541 3569 2628 3553 
L 2631 2963 
z
" transform="scale(0.015625)"/>
       <path id="DejaVuSans-69" d="M 603 3500 
L 1178 3500 
L 1178 0 
L 603 0 
L 603 3500 
z
M 603 4863 
L 1178 4863 
L 1178 4134 
L 603 4134 
L 603 4863 
z
" transform="scale(0.015625)"/>
       <path id="DejaVuSans-63" d="M 3122 3366 
L 3122 2828 
Q 2878 2963 2633 3030 
Q 2388 3097 2138 3097 
Q 1578 3097 1268 2742 
Q 959 2388 959 1747 
Q 959 1106 1268 751 
Q 1578 397 2138 397 
Q 2388 397 2633 464 
Q 2878 531 3122 666 
L 3122 134 
Q 2881 22 2623 -34 
Q 2366 -91 2075 -91 
Q 1284 -91 818 406 
Q 353 903 353 1747 
Q 353 2603 823 3093 
Q 1294 3584 2113 3584 
Q 2378 3584 2631 3529 
Q 2884 3475 3122 3366 
z
" transform="scale(0.015625)"/>
       <path id="DejaVuSans-20" transform="scale(0.015625)"/>
       <path id="DejaVuSans-56" d="M 1831 0 
L 50 4666 
L 709 4666 
L 2188 738 
L 3669 4666 
L 4325 4666 
L 2547 0 
L 1831 0 
z
" transform="scale(0.015625)"/>
       <path id="DejaVuSans-61" d="M 2194 1759 
Q 1497 1759 1228 1600 
Q 959 1441 959 1056 
Q 959 750 1161 570 
Q 1363 391 1709 391 
Q 2188 391 2477 730 
Q 2766 1069 2766 1631 
L 2766 1759 
L 2194 1759 
z
M 3341 1997 
L 3341 0 
L 2766 0 
L 2766 531 
Q 2569 213 2275 61 
Q 1981 -91 1556 -91 
Q 1019 -91 701 211 
Q 384 513 384 1019 
Q 384 1609 779 1909 
Q 1175 2209 1959 2209 
L 2766 2209 
L 2766 2266 
Q 2766 2663 2505 2880 
Q 2244 3097 1772 3097 
Q 1472 3097 1187 3025 
Q 903 2953 641 2809 
L 641 3341 
Q 956 3463 1253 3523 
Q 1550 3584 1831 3584 
Q 2591 3584 2966 3190 
Q 3341 2797 3341 1997 
z
" transform="scale(0.015625)"/>
       <path id="DejaVuSans-6c" d="M 603 4863 
L 1178 4863 
L 1178 0 
L 603 0 
L 603 4863 
z
" transform="scale(0.015625)"/>
       <path id="DejaVuSans-75" d="M 544 1381 
L 544 3500 
L 1119 3500 
L 1119 1403 
Q 1119 906 1312 657 
Q 1506 409 1894 409 
Q 2359 409 2629 706 
Q 2900 1003 2900 1516 
L 2900 3500 
L 3475 3500 
L 3475 0 
L 2900 0 
L 2900 538 
Q 2691 219 2414 64 
Q 2138 -91 1772 -91 
Q 1169 -91 856 284 
Q 544 659 544 1381 
z
M 1991 3584 
L 1991 3584 
z
" transform="scale(0.015625)"/>
      </defs>
      <use xlink:href="#DejaVuSans-4d"/>
      <use xlink:href="#DejaVuSans-65" x="86.279297"/>
      <use xlink:href="#DejaVuSans-74" x="147.802734"/>
      <use xlink:href="#DejaVuSans-72" x="187.011719"/>
      <use xlink:href="#DejaVuSans-69" x="228.125"/>
      <use xlink:href="#DejaVuSans-63" x="255.908203"/>
      <use xlink:href="#DejaVuSans-20" x="310.888672"/>
      <use xlink:href="#DejaVuSans-56" x="342.675781"/>
      <use xlink:href="#DejaVuSans-61" x="403.333984"/>
      <use xlink:href="#DejaVuSans-6c" x="464.613281"/>
      <use xlink:href="#DejaVuSans-75" x="492.396484"/>
      <use xlink:href="#DejaVuSans-65" x="555.775391"/>
     </g>
    </g>
   </g>
   <g id="patch_20">
    <path d="M 591.545455 418.130526 
L 591.545455 155.52 
" style="fill: none; stroke: #000000; stroke-width: 0.8; stroke-linejoin: miter; stroke-linecap: square"/>
   </g>
   <g id="patch_21">
    <path d="M 972 418.130526 
L 972 155.52 
" style="fill: none; stroke: #000000; stroke-width: 0.8; stroke-linejoin: miter; stroke-linecap: square"/>
   </g>
   <g id="patch_22">
    <path d="M 591.545455 418.130526 
L 972 418.130526 
" style="fill: none; stroke: #000000; stroke-width: 0.8; stroke-linejoin: miter; stroke-linecap: square"/>
   </g>
   <g id="patch_23">
    <path d="M 591.545455 155.52 
L 972 155.52 
" style="fill: none; stroke: #000000; stroke-width: 0.8; stroke-linejoin: miter; stroke-linecap: square"/>
   </g>
   <g id="text_24">
    <!-- b -->
    <g transform="translate(544.871761 137.404046) scale(0.28 -0.28)">
     <defs>
      <path id="DejaVuSans-Bold-62" d="M 2400 722 
Q 2759 722 2948 984 
Q 3138 1247 3138 1747 
Q 3138 2247 2948 2509 
Q 2759 2772 2400 2772 
Q 2041 2772 1848 2508 
Q 1656 2244 1656 1747 
Q 1656 1250 1848 986 
Q 2041 722 2400 722 
z
M 1656 2988 
Q 1888 3294 2169 3439 
Q 2450 3584 2816 3584 
Q 3463 3584 3878 3070 
Q 4294 2556 4294 1747 
Q 4294 938 3878 423 
Q 3463 -91 2816 -91 
Q 2450 -91 2169 54 
Q 1888 200 1656 506 
L 1656 0 
L 538 0 
L 538 4863 
L 1656 4863 
L 1656 2988 
z
" transform="scale(0.015625)"/>
     </defs>
     <use xlink:href="#DejaVuSans-Bold-62"/>
    </g>
   </g>
   <g id="text_25">
    <!-- Metrics -->
    <g transform="translate(734.584759 149.52) scale(0.26 -0.26)">
     <defs>
      <path id="DejaVuSans-73" d="M 2834 3397 
L 2834 2853 
Q 2591 2978 2328 3040 
Q 2066 3103 1784 3103 
Q 1356 3103 1142 2972 
Q 928 2841 928 2578 
Q 928 2378 1081 2264 
Q 1234 2150 1697 2047 
L 1894 2003 
Q 2506 1872 2764 1633 
Q 3022 1394 3022 966 
Q 3022 478 2636 193 
Q 2250 -91 1575 -91 
Q 1294 -91 989 -36 
Q 684 19 347 128 
L 347 722 
Q 666 556 975 473 
Q 1284 391 1588 391 
Q 1994 391 2212 530 
Q 2431 669 2431 922 
Q 2431 1156 2273 1281 
Q 2116 1406 1581 1522 
L 1381 1569 
Q 847 1681 609 1914 
Q 372 2147 372 2553 
Q 372 3047 722 3315 
Q 1072 3584 1716 3584 
Q 2034 3584 2315 3537 
Q 2597 3491 2834 3397 
z
" transform="scale(0.015625)"/>
     </defs>
     <use xlink:href="#DejaVuSans-4d"/>
     <use xlink:href="#DejaVuSans-65" x="86.279297"/>
     <use xlink:href="#DejaVuSans-74" x="147.802734"/>
     <use xlink:href="#DejaVuSans-72" x="187.011719"/>
     <use xlink:href="#DejaVuSans-69" x="228.125"/>
     <use xlink:href="#DejaVuSans-63" x="255.908203"/>
     <use xlink:href="#DejaVuSans-73" x="310.888672"/>
    </g>
   </g>
  </g>
  <g id="axes_3">
   <g id="patch_24">
    <path d="M 135 785.785263 
L 515.454545 785.785263 
L 515.454545 523.174737 
L 135 523.174737 
z
" style="fill: #ffffff"/>
   </g>
   <g id="matplotlib.axis_5">
    <g id="xtick_10">
     <g id="line2d_23">
      <g>
       <use xlink:href="#m23d36a4d7a" x="137.882231" y="785.785263" style="stroke: #000000; stroke-width: 0.8"/>
      </g>
     </g>
     <g id="text_26">
      <!-- 0 -->
      <g transform="translate(130.883481 809.501826) scale(0.22 -0.22)">
       <use xlink:href="#DejaVuSans-30"/>
      </g>
     </g>
    </g>
    <g id="xtick_11">
     <g id="line2d_24">
      <g>
       <use xlink:href="#m23d36a4d7a" x="281.993802" y="785.785263" style="stroke: #000000; stroke-width: 0.8"/>
      </g>
     </g>
     <g id="text_27">
      <!-- 20 -->
      <g transform="translate(267.996302 809.501826) scale(0.22 -0.22)">
       <use xlink:href="#DejaVuSans-32"/>
       <use xlink:href="#DejaVuSans-30" x="63.623047"/>
      </g>
     </g>
    </g>
    <g id="xtick_12">
     <g id="line2d_25">
      <g>
       <use xlink:href="#m23d36a4d7a" x="426.105372" y="785.785263" style="stroke: #000000; stroke-width: 0.8"/>
      </g>
     </g>
     <g id="text_28">
      <!-- 40 -->
      <g transform="translate(412.107872 809.501826) scale(0.22 -0.22)">
       <use xlink:href="#DejaVuSans-34"/>
       <use xlink:href="#DejaVuSans-30" x="63.623047"/>
      </g>
     </g>
    </g>
    <g id="text_29">
     <!-- k -->
     <g transform="translate(318.278523 836.313388) scale(0.24 -0.24)">
      <use xlink:href="#DejaVuSans-6b"/>
     </g>
    </g>
   </g>
   <g id="matplotlib.axis_6">
    <g id="ytick_10">
     <g id="line2d_26">
      <g>
       <use xlink:href="#mc16df7655a" x="135" y="762.332792" style="stroke: #000000; stroke-width: 0.8"/>
      </g>
     </g>
     <g id="text_30">
      <!-- 0.80 -->
      <g transform="translate(79.015625 770.691073) scale(0.22 -0.22)">
       <use xlink:href="#DejaVuSans-30"/>
       <use xlink:href="#DejaVuSans-2e" x="63.623047"/>
       <use xlink:href="#DejaVuSans-38" x="95.410156"/>
       <use xlink:href="#DejaVuSans-30" x="159.033203"/>
      </g>
     </g>
    </g>
    <g id="ytick_11">
     <g id="line2d_27">
      <g>
       <use xlink:href="#mc16df7655a" x="135" y="704.994175" style="stroke: #000000; stroke-width: 0.8"/>
      </g>
     </g>
     <g id="text_31">
      <!-- 0.85 -->
      <g transform="translate(79.015625 713.352456) scale(0.22 -0.22)">
       <use xlink:href="#DejaVuSans-30"/>
       <use xlink:href="#DejaVuSans-2e" x="63.623047"/>
       <use xlink:href="#DejaVuSans-38" x="95.410156"/>
       <use xlink:href="#DejaVuSans-35" x="159.033203"/>
      </g>
     </g>
    </g>
    <g id="ytick_12">
     <g id="line2d_28">
      <g>
       <use xlink:href="#mc16df7655a" x="135" y="647.655558" style="stroke: #000000; stroke-width: 0.8"/>
      </g>
     </g>
     <g id="text_32">
      <!-- 0.90 -->
      <g transform="translate(79.015625 656.013839) scale(0.22 -0.22)">
       <defs>
        <path id="DejaVuSans-39" d="M 703 97 
L 703 672 
Q 941 559 1184 500 
Q 1428 441 1663 441 
Q 2288 441 2617 861 
Q 2947 1281 2994 2138 
Q 2813 1869 2534 1725 
Q 2256 1581 1919 1581 
Q 1219 1581 811 2004 
Q 403 2428 403 3163 
Q 403 3881 828 4315 
Q 1253 4750 1959 4750 
Q 2769 4750 3195 4129 
Q 3622 3509 3622 2328 
Q 3622 1225 3098 567 
Q 2575 -91 1691 -91 
Q 1453 -91 1209 -44 
Q 966 3 703 97 
z
M 1959 2075 
Q 2384 2075 2632 2365 
Q 2881 2656 2881 3163 
Q 2881 3666 2632 3958 
Q 2384 4250 1959 4250 
Q 1534 4250 1286 3958 
Q 1038 3666 1038 3163 
Q 1038 2656 1286 2365 
Q 1534 2075 1959 2075 
z
" transform="scale(0.015625)"/>
       </defs>
       <use xlink:href="#DejaVuSans-30"/>
       <use xlink:href="#DejaVuSans-2e" x="63.623047"/>
       <use xlink:href="#DejaVuSans-39" x="95.410156"/>
       <use xlink:href="#DejaVuSans-30" x="159.033203"/>
      </g>
     </g>
    </g>
    <g id="ytick_13">
     <g id="line2d_29">
      <g>
       <use xlink:href="#mc16df7655a" x="135" y="590.31694" style="stroke: #000000; stroke-width: 0.8"/>
      </g>
     </g>
     <g id="text_33">
      <!-- 0.95 -->
      <g transform="translate(79.015625 598.675222) scale(0.22 -0.22)">
       <use xlink:href="#DejaVuSans-30"/>
       <use xlink:href="#DejaVuSans-2e" x="63.623047"/>
       <use xlink:href="#DejaVuSans-39" x="95.410156"/>
       <use xlink:href="#DejaVuSans-35" x="159.033203"/>
      </g>
     </g>
    </g>
    <g id="ytick_14">
     <g id="line2d_30">
      <g>
       <use xlink:href="#mc16df7655a" x="135" y="532.978323" style="stroke: #000000; stroke-width: 0.8"/>
      </g>
     </g>
     <g id="text_34">
      <!-- 1.00 -->
      <g transform="translate(79.015625 541.336604) scale(0.22 -0.22)">
       <use xlink:href="#DejaVuSans-31"/>
       <use xlink:href="#DejaVuSans-2e" x="63.623047"/>
       <use xlink:href="#DejaVuSans-30" x="95.410156"/>
       <use xlink:href="#DejaVuSans-30" x="159.033203"/>
      </g>
     </g>
    </g>
    <g id="text_35">
     <!-- Metric Value -->
     <g transform="translate(70.024375 728.555625) rotate(-90) scale(0.24 -0.24)">
      <use xlink:href="#DejaVuSans-4d"/>
      <use xlink:href="#DejaVuSans-65" x="86.279297"/>
      <use xlink:href="#DejaVuSans-74" x="147.802734"/>
      <use xlink:href="#DejaVuSans-72" x="187.011719"/>
      <use xlink:href="#DejaVuSans-69" x="228.125"/>
      <use xlink:href="#DejaVuSans-63" x="255.908203"/>
      <use xlink:href="#DejaVuSans-20" x="310.888672"/>
      <use xlink:href="#DejaVuSans-56" x="342.675781"/>
      <use xlink:href="#DejaVuSans-61" x="403.333984"/>
      <use xlink:href="#DejaVuSans-6c" x="464.613281"/>
      <use xlink:href="#DejaVuSans-75" x="492.396484"/>
      <use xlink:href="#DejaVuSans-65" x="555.775391"/>
     </g>
    </g>
   </g>
   <g id="line2d_31">
    <path d="M 152.293388 748.784519 
L 173.910124 758.384362 
L 209.938017 759.455555 
L 281.993802 769.808722 
L 498.161157 773.848421 
" clip-path="url(#pd2cd46f174)" style="fill: none; stroke: #1f77b4; stroke-width: 1.5; stroke-linecap: square"/>
    <g clip-path="url(#pd2cd46f174)">
     <use xlink:href="#mf87473c7c8" x="152.293388" y="748.784519" style="fill: #1f77b4; stroke: #1f77b4"/>
     <use xlink:href="#mf87473c7c8" x="173.910124" y="758.384362" style="fill: #1f77b4; stroke: #1f77b4"/>
     <use xlink:href="#mf87473c7c8" x="209.938017" y="759.455555" style="fill: #1f77b4; stroke: #1f77b4"/>
     <use xlink:href="#mf87473c7c8" x="281.993802" y="769.808722" style="fill: #1f77b4; stroke: #1f77b4"/>
     <use xlink:href="#mf87473c7c8" x="498.161157" y="773.848421" style="fill: #1f77b4; stroke: #1f77b4"/>
    </g>
   </g>
   <g id="line2d_32">
    <path d="M 152.293388 535.111579 
L 173.910124 543.297387 
L 209.938017 555.337285 
L 281.993802 578.169125 
L 498.161157 631.925137 
" clip-path="url(#pd2cd46f174)" style="fill: none; stroke: #ff7f0e; stroke-width: 1.5; stroke-linecap: square"/>
    <g clip-path="url(#pd2cd46f174)">
     <use xlink:href="#m2d20be1adc" x="152.293388" y="535.111579" style="fill: #ff7f0e; stroke: #ff7f0e"/>
     <use xlink:href="#m2d20be1adc" x="173.910124" y="543.297387" style="fill: #ff7f0e; stroke: #ff7f0e"/>
     <use xlink:href="#m2d20be1adc" x="209.938017" y="555.337285" style="fill: #ff7f0e; stroke: #ff7f0e"/>
     <use xlink:href="#m2d20be1adc" x="281.993802" y="578.169125" style="fill: #ff7f0e; stroke: #ff7f0e"/>
     <use xlink:href="#m2d20be1adc" x="498.161157" y="631.925137" style="fill: #ff7f0e; stroke: #ff7f0e"/>
    </g>
   </g>
   <g id="line2d_33">
    <path d="M 152.293388 544.801418 
L 173.910124 545.744514 
L 209.938017 551.068181 
L 281.993802 584.97864 
L 498.161157 672.796753 
" clip-path="url(#pd2cd46f174)" style="fill: none; stroke: #2ca02c; stroke-width: 1.5; stroke-linecap: square"/>
    <g clip-path="url(#pd2cd46f174)">
     <use xlink:href="#mb8c1b2b993" x="152.293388" y="544.801418" style="fill: #2ca02c; stroke: #2ca02c"/>
     <use xlink:href="#mb8c1b2b993" x="173.910124" y="545.744514" style="fill: #2ca02c; stroke: #2ca02c"/>
     <use xlink:href="#mb8c1b2b993" x="209.938017" y="551.068181" style="fill: #2ca02c; stroke: #2ca02c"/>
     <use xlink:href="#mb8c1b2b993" x="281.993802" y="584.97864" style="fill: #2ca02c; stroke: #2ca02c"/>
     <use xlink:href="#mb8c1b2b993" x="498.161157" y="672.796753" style="fill: #2ca02c; stroke: #2ca02c"/>
    </g>
   </g>
   <g id="line2d_34">
    <path d="M 152.293388 547.473122 
L 173.910124 548.145022 
L 209.938017 554.439006 
L 281.993802 576.140057 
L 498.161157 643.283703 
" clip-path="url(#pd2cd46f174)" style="fill: none; stroke: #d62728; stroke-width: 1.5; stroke-linecap: square"/>
    <g clip-path="url(#pd2cd46f174)">
     <use xlink:href="#m8448c33392" x="152.293388" y="547.473122" style="fill: #d62728; stroke: #d62728"/>
     <use xlink:href="#m8448c33392" x="173.910124" y="548.145022" style="fill: #d62728; stroke: #d62728"/>
     <use xlink:href="#m8448c33392" x="209.938017" y="554.439006" style="fill: #d62728; stroke: #d62728"/>
     <use xlink:href="#m8448c33392" x="281.993802" y="576.140057" style="fill: #d62728; stroke: #d62728"/>
     <use xlink:href="#m8448c33392" x="498.161157" y="643.283703" style="fill: #d62728; stroke: #d62728"/>
    </g>
   </g>
   <g id="patch_25">
    <path d="M 135 785.785263 
L 135 523.174737 
" style="fill: none; stroke: #000000; stroke-width: 0.8; stroke-linejoin: miter; stroke-linecap: square"/>
   </g>
   <g id="patch_26">
    <path d="M 515.454545 785.785263 
L 515.454545 523.174737 
" style="fill: none; stroke: #000000; stroke-width: 0.8; stroke-linejoin: miter; stroke-linecap: square"/>
   </g>
   <g id="patch_27">
    <path d="M 135 785.785263 
L 515.454545 785.785263 
" style="fill: none; stroke: #000000; stroke-width: 0.8; stroke-linejoin: miter; stroke-linecap: square"/>
   </g>
   <g id="patch_28">
    <path d="M 135 523.174737 
L 515.454545 523.174737 
" style="fill: none; stroke: #000000; stroke-width: 0.8; stroke-linejoin: miter; stroke-linecap: square"/>
   </g>
   <g id="text_36">
    <!-- c -->
    <g transform="translate(91.769432 505.058783) scale(0.28 -0.28)">
     <defs>
      <path id="DejaVuSans-Bold-63" d="M 3366 3391 
L 3366 2478 
Q 3138 2634 2908 2709 
Q 2678 2784 2431 2784 
Q 1963 2784 1702 2511 
Q 1441 2238 1441 1747 
Q 1441 1256 1702 982 
Q 1963 709 2431 709 
Q 2694 709 2930 787 
Q 3166 866 3366 1019 
L 3366 103 
Q 3103 6 2833 -42 
Q 2563 -91 2291 -91 
Q 1344 -91 809 395 
Q 275 881 275 1747 
Q 275 2613 809 3098 
Q 1344 3584 2291 3584 
Q 2566 3584 2833 3536 
Q 3100 3488 3366 3391 
z
" transform="scale(0.015625)"/>
     </defs>
     <use xlink:href="#DejaVuSans-Bold-63"/>
    </g>
   </g>
   <g id="text_37">
    <!-- Trustworthiness -->
    <g transform="translate(230.950398 517.174737) scale(0.24 -0.24)">
     <defs>
      <path id="DejaVuSans-54" d="M -19 4666 
L 3928 4666 
L 3928 4134 
L 2272 4134 
L 2272 0 
L 1638 0 
L 1638 4134 
L -19 4134 
L -19 4666 
z
" transform="scale(0.015625)"/>
      <path id="DejaVuSans-77" d="M 269 3500 
L 844 3500 
L 1563 769 
L 2278 3500 
L 2956 3500 
L 3675 769 
L 4391 3500 
L 4966 3500 
L 4050 0 
L 3372 0 
L 2619 2869 
L 1863 0 
L 1184 0 
L 269 3500 
z
" transform="scale(0.015625)"/>
      <path id="DejaVuSans-6f" d="M 1959 3097 
Q 1497 3097 1228 2736 
Q 959 2375 959 1747 
Q 959 1119 1226 758 
Q 1494 397 1959 397 
Q 2419 397 2687 759 
Q 2956 1122 2956 1747 
Q 2956 2369 2687 2733 
Q 2419 3097 1959 3097 
z
M 1959 3584 
Q 2709 3584 3137 3096 
Q 3566 2609 3566 1747 
Q 3566 888 3137 398 
Q 2709 -91 1959 -91 
Q 1206 -91 779 398 
Q 353 888 353 1747 
Q 353 2609 779 3096 
Q 1206 3584 1959 3584 
z
" transform="scale(0.015625)"/>
      <path id="DejaVuSans-68" d="M 3513 2113 
L 3513 0 
L 2938 0 
L 2938 2094 
Q 2938 2591 2744 2837 
Q 2550 3084 2163 3084 
Q 1697 3084 1428 2787 
Q 1159 2491 1159 1978 
L 1159 0 
L 581 0 
L 581 4863 
L 1159 4863 
L 1159 2956 
Q 1366 3272 1645 3428 
Q 1925 3584 2291 3584 
Q 2894 3584 3203 3211 
Q 3513 2838 3513 2113 
z
" transform="scale(0.015625)"/>
      <path id="DejaVuSans-6e" d="M 3513 2113 
L 3513 0 
L 2938 0 
L 2938 2094 
Q 2938 2591 2744 2837 
Q 2550 3084 2163 3084 
Q 1697 3084 1428 2787 
Q 1159 2491 1159 1978 
L 1159 0 
L 581 0 
L 581 3500 
L 1159 3500 
L 1159 2956 
Q 1366 3272 1645 3428 
Q 1925 3584 2291 3584 
Q 2894 3584 3203 3211 
Q 3513 2838 3513 2113 
z
" transform="scale(0.015625)"/>
     </defs>
     <use xlink:href="#DejaVuSans-54"/>
     <use xlink:href="#DejaVuSans-72" x="46.333984"/>
     <use xlink:href="#DejaVuSans-75" x="87.447266"/>
     <use xlink:href="#DejaVuSans-73" x="150.826172"/>
     <use xlink:href="#DejaVuSans-74" x="202.925781"/>
     <use xlink:href="#DejaVuSans-77" x="242.134766"/>
     <use xlink:href="#DejaVuSans-6f" x="323.921875"/>
     <use xlink:href="#DejaVuSans-72" x="385.103516"/>
     <use xlink:href="#DejaVuSans-74" x="426.216797"/>
     <use xlink:href="#DejaVuSans-68" x="465.425781"/>
     <use xlink:href="#DejaVuSans-69" x="528.804688"/>
     <use xlink:href="#DejaVuSans-6e" x="556.587891"/>
     <use xlink:href="#DejaVuSans-65" x="619.966797"/>
     <use xlink:href="#DejaVuSans-73" x="681.490234"/>
     <use xlink:href="#DejaVuSans-73" x="733.589844"/>
    </g>
   </g>
  </g>
  <g id="axes_4">
   <g id="patch_29">
    <path d="M 591.545455 785.785263 
L 972 785.785263 
L 972 523.174737 
L 591.545455 523.174737 
z
" style="fill: #ffffff"/>
   </g>
   <g id="matplotlib.axis_7">
    <g id="xtick_13">
     <g id="line2d_35">
      <g>
       <use xlink:href="#m23d36a4d7a" x="594.427686" y="785.785263" style="stroke: #000000; stroke-width: 0.8"/>
      </g>
     </g>
     <g id="text_38">
      <!-- 0 -->
      <g transform="translate(587.428936 809.501826) scale(0.22 -0.22)">
       <use xlink:href="#DejaVuSans-30"/>
      </g>
     </g>
    </g>
    <g id="xtick_14">
     <g id="line2d_36">
      <g>
       <use xlink:href="#m23d36a4d7a" x="738.539256" y="785.785263" style="stroke: #000000; stroke-width: 0.8"/>
      </g>
     </g>
     <g id="text_39">
      <!-- 20 -->
      <g transform="translate(724.541756 809.501826) scale(0.22 -0.22)">
       <use xlink:href="#DejaVuSans-32"/>
       <use xlink:href="#DejaVuSans-30" x="63.623047"/>
      </g>
     </g>
    </g>
    <g id="xtick_15">
     <g id="line2d_37">
      <g>
       <use xlink:href="#m23d36a4d7a" x="882.650826" y="785.785263" style="stroke: #000000; stroke-width: 0.8"/>
      </g>
     </g>
     <g id="text_40">
      <!-- 40 -->
      <g transform="translate(868.653326 809.501826) scale(0.22 -0.22)">
       <use xlink:href="#DejaVuSans-34"/>
       <use xlink:href="#DejaVuSans-30" x="63.623047"/>
      </g>
     </g>
    </g>
    <g id="text_41">
     <!-- k -->
     <g transform="translate(774.823977 836.313388) scale(0.24 -0.24)">
      <use xlink:href="#DejaVuSans-6b"/>
     </g>
    </g>
   </g>
   <g id="matplotlib.axis_8">
    <g id="ytick_15">
     <g id="line2d_38">
      <g>
       <use xlink:href="#mc16df7655a" x="591.545455" y="784.499502" style="stroke: #000000; stroke-width: 0.8"/>
      </g>
     </g>
     <g id="text_42">
      <!-- 0.85 -->
      <g transform="translate(535.56108 792.857784) scale(0.22 -0.22)">
       <use xlink:href="#DejaVuSans-30"/>
       <use xlink:href="#DejaVuSans-2e" x="63.623047"/>
       <use xlink:href="#DejaVuSans-38" x="95.410156"/>
       <use xlink:href="#DejaVuSans-35" x="159.033203"/>
      </g>
     </g>
    </g>
    <g id="ytick_16">
     <g id="line2d_39">
      <g>
       <use xlink:href="#mc16df7655a" x="591.545455" y="698.79145" style="stroke: #000000; stroke-width: 0.8"/>
      </g>
     </g>
     <g id="text_43">
      <!-- 0.90 -->
      <g transform="translate(535.56108 707.149731) scale(0.22 -0.22)">
       <use xlink:href="#DejaVuSans-30"/>
       <use xlink:href="#DejaVuSans-2e" x="63.623047"/>
       <use xlink:href="#DejaVuSans-39" x="95.410156"/>
       <use xlink:href="#DejaVuSans-30" x="159.033203"/>
      </g>
     </g>
    </g>
    <g id="ytick_17">
     <g id="line2d_40">
      <g>
       <use xlink:href="#mc16df7655a" x="591.545455" y="613.083398" style="stroke: #000000; stroke-width: 0.8"/>
      </g>
     </g>
     <g id="text_44">
      <!-- 0.95 -->
      <g transform="translate(535.56108 621.441679) scale(0.22 -0.22)">
       <use xlink:href="#DejaVuSans-30"/>
       <use xlink:href="#DejaVuSans-2e" x="63.623047"/>
       <use xlink:href="#DejaVuSans-39" x="95.410156"/>
       <use xlink:href="#DejaVuSans-35" x="159.033203"/>
      </g>
     </g>
    </g>
    <g id="ytick_18">
     <g id="line2d_41">
      <g>
       <use xlink:href="#mc16df7655a" x="591.545455" y="527.375345" style="stroke: #000000; stroke-width: 0.8"/>
      </g>
     </g>
     <g id="text_45">
      <!-- 1.00 -->
      <g transform="translate(535.56108 535.733627) scale(0.22 -0.22)">
       <use xlink:href="#DejaVuSans-31"/>
       <use xlink:href="#DejaVuSans-2e" x="63.623047"/>
       <use xlink:href="#DejaVuSans-30" x="95.410156"/>
       <use xlink:href="#DejaVuSans-30" x="159.033203"/>
      </g>
     </g>
    </g>
   </g>
   <g id="line2d_42">
    <path d="M 608.838843 591.386806 
L 630.455579 615.894558 
L 666.483471 640.085904 
L 738.539256 669.969076 
L 954.706612 715.169278 
" clip-path="url(#p51bd6f7f3a)" style="fill: none; stroke: #1f77b4; stroke-width: 1.5; stroke-linecap: square"/>
    <g clip-path="url(#p51bd6f7f3a)">
     <use xlink:href="#mf87473c7c8" x="608.838843" y="591.386806" style="fill: #1f77b4; stroke: #1f77b4"/>
     <use xlink:href="#mf87473c7c8" x="630.455579" y="615.894558" style="fill: #1f77b4; stroke: #1f77b4"/>
     <use xlink:href="#mf87473c7c8" x="666.483471" y="640.085904" style="fill: #1f77b4; stroke: #1f77b4"/>
     <use xlink:href="#mf87473c7c8" x="738.539256" y="669.969076" style="fill: #1f77b4; stroke: #1f77b4"/>
     <use xlink:href="#mf87473c7c8" x="954.706612" y="715.169278" style="fill: #1f77b4; stroke: #1f77b4"/>
    </g>
   </g>
   <g id="line2d_43">
    <path d="M 608.838843 538.419099 
L 630.455579 545.386603 
L 666.483471 556.265896 
L 738.539256 578.635783 
L 954.706612 649.808181 
" clip-path="url(#p51bd6f7f3a)" style="fill: none; stroke: #ff7f0e; stroke-width: 1.5; stroke-linecap: square"/>
    <g clip-path="url(#p51bd6f7f3a)">
     <use xlink:href="#m2d20be1adc" x="608.838843" y="538.419099" style="fill: #ff7f0e; stroke: #ff7f0e"/>
     <use xlink:href="#m2d20be1adc" x="630.455579" y="545.386603" style="fill: #ff7f0e; stroke: #ff7f0e"/>
     <use xlink:href="#m2d20be1adc" x="666.483471" y="556.265896" style="fill: #ff7f0e; stroke: #ff7f0e"/>
     <use xlink:href="#m2d20be1adc" x="738.539256" y="578.635783" style="fill: #ff7f0e; stroke: #ff7f0e"/>
     <use xlink:href="#m2d20be1adc" x="954.706612" y="649.808181" style="fill: #ff7f0e; stroke: #ff7f0e"/>
    </g>
   </g>
   <g id="line2d_44">
    <path d="M 608.838843 535.111579 
L 630.455579 542.370611 
L 666.483471 553.345044 
L 738.539256 588.579799 
L 954.706612 694.858081 
" clip-path="url(#p51bd6f7f3a)" style="fill: none; stroke: #2ca02c; stroke-width: 1.5; stroke-linecap: square"/>
    <g clip-path="url(#p51bd6f7f3a)">
     <use xlink:href="#mb8c1b2b993" x="608.838843" y="535.111579" style="fill: #2ca02c; stroke: #2ca02c"/>
     <use xlink:href="#mb8c1b2b993" x="630.455579" y="542.370611" style="fill: #2ca02c; stroke: #2ca02c"/>
     <use xlink:href="#mb8c1b2b993" x="666.483471" y="553.345044" style="fill: #2ca02c; stroke: #2ca02c"/>
     <use xlink:href="#mb8c1b2b993" x="738.539256" y="588.579799" style="fill: #2ca02c; stroke: #2ca02c"/>
     <use xlink:href="#mb8c1b2b993" x="954.706612" y="694.858081" style="fill: #2ca02c; stroke: #2ca02c"/>
    </g>
   </g>
   <g id="line2d_45">
    <path d="M 608.838843 562.319203 
L 630.455579 574.720762 
L 666.483471 594.85296 
L 738.539256 642.251411 
L 954.706612 773.848421 
" clip-path="url(#p51bd6f7f3a)" style="fill: none; stroke: #d62728; stroke-width: 1.5; stroke-linecap: square"/>
    <g clip-path="url(#p51bd6f7f3a)">
     <use xlink:href="#m8448c33392" x="608.838843" y="562.319203" style="fill: #d62728; stroke: #d62728"/>
     <use xlink:href="#m8448c33392" x="630.455579" y="574.720762" style="fill: #d62728; stroke: #d62728"/>
     <use xlink:href="#m8448c33392" x="666.483471" y="594.85296" style="fill: #d62728; stroke: #d62728"/>
     <use xlink:href="#m8448c33392" x="738.539256" y="642.251411" style="fill: #d62728; stroke: #d62728"/>
     <use xlink:href="#m8448c33392" x="954.706612" y="773.848421" style="fill: #d62728; stroke: #d62728"/>
    </g>
   </g>
   <g id="patch_30">
    <path d="M 591.545455 785.785263 
L 591.545455 523.174737 
" style="fill: none; stroke: #000000; stroke-width: 0.8; stroke-linejoin: miter; stroke-linecap: square"/>
   </g>
   <g id="patch_31">
    <path d="M 972 785.785263 
L 972 523.174737 
" style="fill: none; stroke: #000000; stroke-width: 0.8; stroke-linejoin: miter; stroke-linecap: square"/>
   </g>
   <g id="patch_32">
    <path d="M 591.545455 785.785263 
L 972 785.785263 
" style="fill: none; stroke: #000000; stroke-width: 0.8; stroke-linejoin: miter; stroke-linecap: square"/>
   </g>
   <g id="patch_33">
    <path d="M 591.545455 523.174737 
L 972 523.174737 
" style="fill: none; stroke: #000000; stroke-width: 0.8; stroke-linejoin: miter; stroke-linecap: square"/>
   </g>
   <g id="text_46">
    <!-- d -->
    <g transform="translate(544.871761 505.058783) scale(0.28 -0.28)">
     <defs>
      <path id="DejaVuSans-Bold-64" d="M 2919 2988 
L 2919 4863 
L 4044 4863 
L 4044 0 
L 2919 0 
L 2919 506 
Q 2688 197 2409 53 
Q 2131 -91 1766 -91 
Q 1119 -91 703 423 
Q 288 938 288 1747 
Q 288 2556 703 3070 
Q 1119 3584 1766 3584 
Q 2128 3584 2408 3439 
Q 2688 3294 2919 2988 
z
M 2181 722 
Q 2541 722 2730 984 
Q 2919 1247 2919 1747 
Q 2919 2247 2730 2509 
Q 2541 2772 2181 2772 
Q 1825 2772 1636 2509 
Q 1447 2247 1447 1747 
Q 1447 1247 1636 984 
Q 1825 722 2181 722 
z
" transform="scale(0.015625)"/>
     </defs>
     <use xlink:href="#DejaVuSans-Bold-64"/>
    </g>
   </g>
   <g id="text_47">
    <!-- Continuity -->
    <g transform="translate(720.057102 517.174737) scale(0.24 -0.24)">
     <defs>
      <path id="DejaVuSans-79" d="M 2059 -325 
Q 1816 -950 1584 -1140 
Q 1353 -1331 966 -1331 
L 506 -1331 
L 506 -850 
L 844 -850 
Q 1081 -850 1212 -737 
Q 1344 -625 1503 -206 
L 1606 56 
L 191 3500 
L 800 3500 
L 1894 763 
L 2988 3500 
L 3597 3500 
L 2059 -325 
z
" transform="scale(0.015625)"/>
     </defs>
     <use xlink:href="#DejaVuSans-43"/>
     <use xlink:href="#DejaVuSans-6f" x="69.824219"/>
     <use xlink:href="#DejaVuSans-6e" x="131.005859"/>
     <use xlink:href="#DejaVuSans-74" x="194.384766"/>
     <use xlink:href="#DejaVuSans-69" x="233.59375"/>
     <use xlink:href="#DejaVuSans-6e" x="261.376953"/>
     <use xlink:href="#DejaVuSans-75" x="324.755859"/>
     <use xlink:href="#DejaVuSans-69" x="388.134766"/>
     <use xlink:href="#DejaVuSans-74" x="415.917969"/>
     <use xlink:href="#DejaVuSans-79" x="455.126953"/>
    </g>
   </g>
  </g>
  <g id="axes_5">
   <g id="patch_34">
    <path d="M 135 1153.44 
L 515.454545 1153.44 
L 515.454545 890.829474 
L 135 890.829474 
z
" style="fill: #ffffff"/>
   </g>
   <g id="matplotlib.axis_9">
    <g id="xtick_16">
     <g id="line2d_46">
      <g>
       <use xlink:href="#m23d36a4d7a" x="151.988121" y="1153.44" style="stroke: #000000; stroke-width: 0.8"/>
      </g>
     </g>
     <g id="text_48">
      <!-- 0 -->
      <g transform="translate(144.989371 1177.156562) scale(0.22 -0.22)">
       <use xlink:href="#DejaVuSans-30"/>
      </g>
     </g>
    </g>
    <g id="xtick_17">
     <g id="line2d_47">
      <g>
       <use xlink:href="#m23d36a4d7a" x="228.304928" y="1153.44" style="stroke: #000000; stroke-width: 0.8"/>
      </g>
     </g>
     <g id="text_49">
      <!-- 250 -->
      <g transform="translate(207.308678 1177.156562) scale(0.22 -0.22)">
       <use xlink:href="#DejaVuSans-32"/>
       <use xlink:href="#DejaVuSans-35" x="63.623047"/>
       <use xlink:href="#DejaVuSans-30" x="127.246094"/>
      </g>
     </g>
    </g>
    <g id="xtick_18">
     <g id="line2d_48">
      <g>
       <use xlink:href="#m23d36a4d7a" x="304.621735" y="1153.44" style="stroke: #000000; stroke-width: 0.8"/>
      </g>
     </g>
     <g id="text_50">
      <!-- 500 -->
      <g transform="translate(283.625485 1177.156562) scale(0.22 -0.22)">
       <use xlink:href="#DejaVuSans-35"/>
       <use xlink:href="#DejaVuSans-30" x="63.623047"/>
       <use xlink:href="#DejaVuSans-30" x="127.246094"/>
      </g>
     </g>
    </g>
    <g id="xtick_19">
     <g id="line2d_49">
      <g>
       <use xlink:href="#m23d36a4d7a" x="380.938542" y="1153.44" style="stroke: #000000; stroke-width: 0.8"/>
      </g>
     </g>
     <g id="text_51">
      <!-- 750 -->
      <g transform="translate(359.942292 1177.156562) scale(0.22 -0.22)">
       <defs>
        <path id="DejaVuSans-37" d="M 525 4666 
L 3525 4666 
L 3525 4397 
L 1831 0 
L 1172 0 
L 2766 4134 
L 525 4134 
L 525 4666 
z
" transform="scale(0.015625)"/>
       </defs>
       <use xlink:href="#DejaVuSans-37"/>
       <use xlink:href="#DejaVuSans-35" x="63.623047"/>
       <use xlink:href="#DejaVuSans-30" x="127.246094"/>
      </g>
     </g>
    </g>
    <g id="xtick_20">
     <g id="line2d_50">
      <g>
       <use xlink:href="#m23d36a4d7a" x="457.255349" y="1153.44" style="stroke: #000000; stroke-width: 0.8"/>
      </g>
     </g>
     <g id="text_52">
      <!-- 1000 -->
      <g transform="translate(429.260349 1177.156562) scale(0.22 -0.22)">
       <use xlink:href="#DejaVuSans-31"/>
       <use xlink:href="#DejaVuSans-30" x="63.623047"/>
       <use xlink:href="#DejaVuSans-30" x="127.246094"/>
       <use xlink:href="#DejaVuSans-30" x="190.869141"/>
      </g>
     </g>
    </g>
    <g id="text_53">
     <!-- k -->
     <g transform="translate(318.278523 1203.968125) scale(0.24 -0.24)">
      <use xlink:href="#DejaVuSans-6b"/>
     </g>
    </g>
   </g>
   <g id="matplotlib.axis_10">
    <g id="ytick_19">
     <g id="line2d_51">
      <g>
       <use xlink:href="#mc16df7655a" x="135" y="1118.246487" style="stroke: #000000; stroke-width: 0.8"/>
      </g>
     </g>
     <g id="text_54">
      <!-- 0.2 -->
      <g transform="translate(93.013125 1126.604769) scale(0.22 -0.22)">
       <use xlink:href="#DejaVuSans-30"/>
       <use xlink:href="#DejaVuSans-2e" x="63.623047"/>
       <use xlink:href="#DejaVuSans-32" x="95.410156"/>
      </g>
     </g>
    </g>
    <g id="ytick_20">
     <g id="line2d_52">
      <g>
       <use xlink:href="#mc16df7655a" x="135" y="1064.376444" style="stroke: #000000; stroke-width: 0.8"/>
      </g>
     </g>
     <g id="text_55">
      <!-- 0.4 -->
      <g transform="translate(93.013125 1072.734726) scale(0.22 -0.22)">
       <use xlink:href="#DejaVuSans-30"/>
       <use xlink:href="#DejaVuSans-2e" x="63.623047"/>
       <use xlink:href="#DejaVuSans-34" x="95.410156"/>
      </g>
     </g>
    </g>
    <g id="ytick_21">
     <g id="line2d_53">
      <g>
       <use xlink:href="#mc16df7655a" x="135" y="1010.506402" style="stroke: #000000; stroke-width: 0.8"/>
      </g>
     </g>
     <g id="text_56">
      <!-- 0.6 -->
      <g transform="translate(93.013125 1018.864683) scale(0.22 -0.22)">
       <use xlink:href="#DejaVuSans-30"/>
       <use xlink:href="#DejaVuSans-2e" x="63.623047"/>
       <use xlink:href="#DejaVuSans-36" x="95.410156"/>
      </g>
     </g>
    </g>
    <g id="ytick_22">
     <g id="line2d_54">
      <g>
       <use xlink:href="#mc16df7655a" x="135" y="956.636359" style="stroke: #000000; stroke-width: 0.8"/>
      </g>
     </g>
     <g id="text_57">
      <!-- 0.8 -->
      <g transform="translate(93.013125 964.99464) scale(0.22 -0.22)">
       <use xlink:href="#DejaVuSans-30"/>
       <use xlink:href="#DejaVuSans-2e" x="63.623047"/>
       <use xlink:href="#DejaVuSans-38" x="95.410156"/>
      </g>
     </g>
    </g>
    <g id="ytick_23">
     <g id="line2d_55">
      <g>
       <use xlink:href="#mc16df7655a" x="135" y="902.766316" style="stroke: #000000; stroke-width: 0.8"/>
      </g>
     </g>
     <g id="text_58">
      <!-- 1.0 -->
      <g transform="translate(93.013125 911.124597) scale(0.22 -0.22)">
       <use xlink:href="#DejaVuSans-31"/>
       <use xlink:href="#DejaVuSans-2e" x="63.623047"/>
       <use xlink:href="#DejaVuSans-30" x="95.410156"/>
      </g>
     </g>
    </g>
    <g id="text_59">
     <!-- Metric Value -->
     <g transform="translate(84.021875 1096.210362) rotate(-90) scale(0.24 -0.24)">
      <use xlink:href="#DejaVuSans-4d"/>
      <use xlink:href="#DejaVuSans-65" x="86.279297"/>
      <use xlink:href="#DejaVuSans-74" x="147.802734"/>
      <use xlink:href="#DejaVuSans-72" x="187.011719"/>
      <use xlink:href="#DejaVuSans-69" x="228.125"/>
      <use xlink:href="#DejaVuSans-63" x="255.908203"/>
      <use xlink:href="#DejaVuSans-20" x="310.888672"/>
      <use xlink:href="#DejaVuSans-56" x="342.675781"/>
      <use xlink:href="#DejaVuSans-61" x="403.333984"/>
      <use xlink:href="#DejaVuSans-6c" x="464.613281"/>
      <use xlink:href="#DejaVuSans-75" x="492.396484"/>
      <use xlink:href="#DejaVuSans-65" x="555.775391"/>
     </g>
    </g>
   </g>
   <g id="line2d_56">
    <path d="M 152.293388 1141.503158 
L 152.903923 1127.501693 
L 153.514457 1122.280808 
L 153.819725 1120.500961 
L 154.124992 1117.839665 
L 155.651328 1110.177847 
L 155.956595 1109.411143 
L 156.56713 1107.171882 
L 156.872397 1106.499496 
L 157.788199 1102.871105 
L 158.398733 1100.877439 
L 159.925069 1097.746298 
L 160.840871 1095.930886 
L 161.451405 1094.561123 
L 163.588276 1091.517554 
L 164.19881 1090.611393 
L 164.809345 1089.92149 
L 166.335681 1087.628066 
L 170.609422 1080.385344 
L 172.135758 1077.827775 
L 178.241103 1068.416284 
L 181.293775 1064.077331 
L 183.430646 1061.358192 
L 184.04118 1060.669842 
L 184.956982 1059.773012 
L 186.788585 1057.887808 
L 187.39912 1057.212048 
L 188.009654 1056.563217 
L 190.146525 1054.813681 
L 191.367594 1053.85189 
L 195.946602 1051.56484 
L 198.38874 1050.456166 
L 202.357214 1048.411754 
L 202.967748 1048.199374 
L 203.88355 1047.761745 
L 206.02042 1046.657076 
L 207.241489 1046.188569 
L 209.073093 1045.21374 
L 211.515231 1044.163465 
L 213.957368 1043.187787 
L 215.788972 1042.46644 
L 217.925842 1041.2637 
L 227.389126 1036.363907 
L 228.610195 1035.740995 
L 244.178824 1027.343835 
L 248.452565 1025.121426 
L 250.894703 1023.706569 
L 253.031573 1022.50397 
L 255.168444 1021.226207 
L 263.715926 1016.334834 
L 265.54753 1015.27754 
L 279.895089 1007.306924 
L 282.03196 1006.14118 
L 286.305701 1003.830896 
L 290.579442 1001.671982 
L 294.547916 999.581366 
L 321.411432 985.288372 
L 325.990441 982.849449 
L 328.737846 981.389863 
L 338.811664 976.256557 
L 342.780138 974.188785 
L 373.001594 959.632271 
L 379.717473 956.693619 
L 394.675567 950.140849 
L 397.728239 948.87932 
L 400.780911 947.705821 
L 406.580989 945.451349 
L 409.938928 944.195542 
L 426.423359 939.131162 
L 436.19191 936.333483 
L 447.792065 932.456151 
L 452.371073 930.57872 
L 459.086952 927.27749 
L 464.581762 924.267705 
L 468.244969 922.116256 
L 470.381839 920.770019 
L 476.487184 916.96223 
L 482.592528 913.331892 
L 485.950468 911.184418 
L 489.308407 908.754119 
L 495.108485 904.516816 
L 497.550623 903.100063 
L 498.161157 902.766316 
L 498.161157 902.766316 
" clip-path="url(#p8c4ba31773)" style="fill: none; stroke: #1f77b4; stroke-width: 1.5; stroke-linecap: square"/>
   </g>
   <g id="line2d_57">
    <path d="M 152.293388 990.809426 
L 152.598656 977.994525 
L 153.20919 971.527747 
L 153.514457 972.061701 
L 153.819725 972.259462 
L 154.124992 970.807333 
L 154.430259 970.964129 
L 154.735526 969.978621 
L 155.346061 970.163198 
L 155.651328 970.716928 
L 156.56713 973.469758 
L 158.704 980.928577 
L 160.535604 984.647764 
L 161.146138 986.13436 
L 161.451405 986.935866 
L 163.588276 994.731335 
L 165.725146 1000.454879 
L 167.251483 1004.103698 
L 168.777819 1007.102039 
L 169.69362 1008.476967 
L 171.219957 1010.683445 
L 171.525224 1010.821583 
L 172.135758 1011.40891 
L 172.441025 1011.622127 
L 175.18843 1015.099656 
L 176.714767 1016.24293 
L 177.630568 1016.803671 
L 182.209577 1020.993717 
L 183.735913 1021.96588 
L 185.262249 1022.85103 
L 188.925456 1024.756947 
L 189.841257 1025.041821 
L 193.809731 1026.536286 
L 197.167671 1028.508514 
L 198.999274 1029.667112 
L 204.799352 1032.767181 
L 206.02042 1033.220068 
L 211.209963 1034.690305 
L 213.652101 1034.969609 
L 215.483704 1034.989569 
L 218.23111 1034.826059 
L 219.146911 1034.732819 
L 220.062713 1034.551632 
L 220.978515 1034.397307 
L 222.810118 1034.211103 
L 227.999661 1032.81382 
L 228.915462 1032.469151 
L 229.831264 1032.15772 
L 231.052333 1031.766528 
L 238.684014 1029.449658 
L 239.905083 1028.930292 
L 243.568289 1027.547846 
L 245.094626 1026.977477 
L 248.452565 1025.651625 
L 258.831651 1021.53264 
L 260.357987 1020.956862 
L 261.579056 1020.43124 
L 262.494858 1020.073654 
L 264.326461 1019.312776 
L 266.768599 1018.284713 
L 269.516004 1017.046993 
L 279.284555 1012.390109 
L 281.421426 1011.271512 
L 283.253029 1010.378363 
L 292.716313 1006.156007 
L 299.432192 1002.963977 
L 305.537537 1000.078313 
L 307.36914 999.103723 
L 321.411432 992.719474 
L 325.074639 991.171464 
L 353.769758 978.621376 
L 358.0435 976.744326 
L 361.401439 975.293793 
L 366.896249 972.964772 
L 369.948922 971.599373 
L 373.001594 970.262187 
L 374.833197 969.487343 
L 376.054266 968.90615 
L 382.159611 965.746785 
L 385.51755 964.223859 
L 388.570222 962.905708 
L 403.223049 956.209887 
L 417.570609 949.988595 
L 431.307634 944.610168 
L 438.023513 941.561034 
L 444.128858 938.527421 
L 448.707866 936.169092 
L 456.950081 931.757693 
L 464.276495 927.353145 
L 467.634434 925.13662 
L 474.045046 920.619449 
L 485.339933 912.588508 
L 488.697873 910.254691 
L 494.49795 905.647067 
L 498.161157 902.766316 
L 498.161157 902.766316 
" clip-path="url(#p8c4ba31773)" style="fill: none; stroke: #ff7f0e; stroke-width: 1.5; stroke-linecap: square"/>
   </g>
   <g id="line2d_58">
    <path d="M 152.293388 1101.63458 
L 152.598656 1070.427925 
L 153.20919 1038.094034 
L 153.819725 1014.303409 
L 154.735526 992.760665 
L 155.346061 984.919749 
L 155.651328 981.573996 
L 155.956595 980.203362 
L 156.56713 978.548256 
L 156.872397 978.765793 
L 157.177664 979.795312 
L 157.482931 980.130342 
L 158.093466 981.886458 
L 159.314535 986.537792 
L 159.925069 987.934288 
L 160.840871 990.351166 
L 162.06194 994.052703 
L 162.977741 997.276204 
L 166.946215 1011.397536 
L 168.472551 1016.351332 
L 169.388353 1018.724924 
L 172.441025 1025.761729 
L 173.662094 1028.050849 
L 176.409499 1032.626936 
L 178.54637 1035.290604 
L 180.072706 1037.229905 
L 182.209577 1039.559261 
L 189.230723 1045.622885 
L 192.283395 1047.604531 
L 196.251869 1049.034571 
L 196.862404 1049.14967 
L 198.38874 1049.777013 
L 199.304541 1050.08408 
L 200.52561 1050.336174 
L 202.357214 1050.60654 
L 204.188817 1050.677519 
L 206.02042 1050.922006 
L 208.157291 1050.981159 
L 212.125765 1051.079691 
L 214.262636 1050.910097 
L 214.87317 1050.789701 
L 216.399506 1050.512194 
L 217.010041 1050.352697 
L 217.620575 1050.33414 
L 219.757446 1050.04039 
L 221.589049 1049.616203 
L 227.083859 1047.799266 
L 229.831264 1046.818077 
L 230.441799 1046.612138 
L 231.3576 1046.23113 
L 232.883936 1045.573198 
L 236.547143 1043.78162 
L 237.768212 1043.200696 
L 242.041953 1041.089205 
L 242.957755 1040.595774 
L 245.399893 1039.293395 
L 248.147298 1037.863689 
L 249.673634 1037.042441 
L 258.221116 1032.779042 
L 259.442185 1032.246831 
L 262.800125 1030.571442 
L 264.936995 1029.393948 
L 276.53715 1023.005466 
L 279.589822 1021.297896 
L 280.505624 1020.786957 
L 284.474098 1018.635738 
L 289.663641 1015.592055 
L 298.51639 1010.618136 
L 300.042726 1009.706388 
L 306.453338 1005.926168 
L 317.137691 999.947949 
L 336.980061 989.408652 
L 339.116932 988.209436 
L 346.443345 984.302878 
L 348.580216 983.106704 
L 352.853957 980.713165 
L 355.296095 979.390966 
L 366.896249 973.332539 
L 370.864723 971.273637 
L 387.654421 962.962348 
L 393.149231 960.659264 
L 396.812438 959.215436 
L 400.780911 957.655203 
L 407.191523 955.149179 
L 413.296868 952.699902 
L 417.265342 950.921185 
L 420.012747 949.699144 
L 434.055039 942.987781 
L 436.19191 941.943347 
L 438.634048 940.794771 
L 442.907789 938.736537 
L 446.570996 936.729613 
L 455.423745 931.64759 
L 460.613288 928.336025 
L 466.718633 924.192615 
L 477.097718 917.038964 
L 479.234589 915.766727 
L 481.37146 914.643181 
L 484.424132 912.989296 
L 486.86627 911.508822 
L 489.308407 909.788417 
L 492.971614 906.865435 
L 498.161157 902.766316 
L 498.161157 902.766316 
" clip-path="url(#p8c4ba31773)" style="fill: none; stroke: #2ca02c; stroke-width: 1.5; stroke-linecap: square"/>
   </g>
   <g id="line2d_59">
    <path d="M 152.293388 1077.66597 
L 152.903923 1044.758573 
L 153.20919 1031.80524 
L 154.124992 1008.370585 
L 154.430259 1002.437761 
L 155.651328 989.029578 
L 155.956595 987.888651 
L 156.261862 987.317535 
L 156.56713 985.825853 
L 156.872397 985.603372 
L 157.482931 984.006454 
L 157.788199 983.9898 
L 158.093466 984.473169 
L 158.398733 985.328626 
L 158.704 985.264932 
L 159.925069 986.565174 
L 160.230336 986.652054 
L 160.535604 987.215829 
L 160.840871 987.372479 
L 161.756672 989.741517 
L 162.672474 993.040167 
L 165.725146 1005.575566 
L 167.251483 1010.003298 
L 168.167284 1012.149682 
L 170.304155 1017.277732 
L 171.830491 1020.52466 
L 174.883163 1026.286132 
L 175.493698 1027.167621 
L 176.409499 1028.616347 
L 177.325301 1029.957487 
L 178.241103 1031.522396 
L 179.462172 1033.256804 
L 180.377973 1034.194318 
L 181.599042 1035.441389 
L 182.514844 1036.390127 
L 183.125378 1036.76671 
L 184.346447 1037.598139 
L 185.872783 1038.853542 
L 186.788585 1039.727122 
L 187.093852 1039.875429 
L 187.704387 1040.349014 
L 192.283395 1043.902808 
L 192.89393 1044.160568 
L 195.0308 1045.492392 
L 198.999274 1046.778301 
L 201.746679 1047.419487 
L 203.578283 1047.718198 
L 204.494084 1047.895611 
L 205.104619 1047.958206 
L 206.02042 1048.174807 
L 208.767825 1048.471372 
L 214.262636 1049.552527 
L 215.178437 1049.585083 
L 217.010041 1049.548284 
L 220.36798 1049.718131 
L 221.589049 1049.639101 
L 227.694394 1048.851583 
L 229.831264 1048.39551 
L 231.968135 1048.052573 
L 234.71554 1047.571009 
L 239.294548 1046.318256 
L 243.568289 1044.919946 
L 245.399893 1044.2157 
L 250.589436 1042.581857 
L 251.505237 1042.357296 
L 252.421039 1042.035845 
L 255.168444 1040.911248 
L 256.084246 1040.652803 
L 258.831651 1039.822689 
L 265.242263 1038.02703 
L 266.463331 1037.614503 
L 274.400279 1034.795768 
L 278.368753 1033.392199 
L 287.221503 1029.917852 
L 289.053106 1028.981929 
L 291.495244 1027.820901 
L 298.821658 1024.324331 
L 310.116545 1018.829764 
L 315.306088 1016.30083 
L 317.748226 1015.121549 
L 329.34838 1008.713688 
L 331.790518 1007.443896 
L 348.885483 997.808502 
L 359.569836 992.133143 
L 362.927775 990.479385 
L 366.590982 988.506848 
L 369.643654 986.969482 
L 371.475258 985.984612 
L 375.443732 983.905628 
L 390.096559 975.8867 
L 392.843964 974.293165 
L 410.85473 964.219739 
L 414.823204 962.030612 
L 426.728626 955.564759 
L 431.307634 953.170811 
L 436.802444 950.053658 
L 440.160384 947.92642 
L 450.53947 940.700963 
L 455.118478 937.124597 
L 466.718633 927.659318 
L 478.318787 918.382574 
L 485.950468 912.26057 
L 492.971614 906.766218 
L 498.161157 902.766316 
L 498.161157 902.766316 
" clip-path="url(#p8c4ba31773)" style="fill: none; stroke: #d62728; stroke-width: 1.5; stroke-linecap: square"/>
   </g>
   <g id="patch_35">
    <path d="M 135 1153.44 
L 135 890.829474 
" style="fill: none; stroke: #000000; stroke-width: 0.8; stroke-linejoin: miter; stroke-linecap: square"/>
   </g>
   <g id="patch_36">
    <path d="M 515.454545 1153.44 
L 515.454545 890.829474 
" style="fill: none; stroke: #000000; stroke-width: 0.8; stroke-linejoin: miter; stroke-linecap: square"/>
   </g>
   <g id="patch_37">
    <path d="M 135 1153.44 
L 515.454545 1153.44 
" style="fill: none; stroke: #000000; stroke-width: 0.8; stroke-linejoin: miter; stroke-linecap: square"/>
   </g>
   <g id="patch_38">
    <path d="M 135 890.829474 
L 515.454545 890.829474 
" style="fill: none; stroke: #000000; stroke-width: 0.8; stroke-linejoin: miter; stroke-linecap: square"/>
   </g>
   <g id="text_60">
    <!-- e -->
    <g transform="translate(89.376307 872.71352) scale(0.28 -0.28)">
     <defs>
      <path id="DejaVuSans-Bold-65" d="M 4031 1759 
L 4031 1441 
L 1416 1441 
Q 1456 1047 1700 850 
Q 1944 653 2381 653 
Q 2734 653 3104 758 
Q 3475 863 3866 1075 
L 3866 213 
Q 3469 63 3072 -14 
Q 2675 -91 2278 -91 
Q 1328 -91 801 392 
Q 275 875 275 1747 
Q 275 2603 792 3093 
Q 1309 3584 2216 3584 
Q 3041 3584 3536 3087 
Q 4031 2591 4031 1759 
z
M 2881 2131 
Q 2881 2450 2695 2645 
Q 2509 2841 2209 2841 
Q 1884 2841 1681 2658 
Q 1478 2475 1428 2131 
L 2881 2131 
z
" transform="scale(0.015625)"/>
     </defs>
     <use xlink:href="#DejaVuSans-Bold-65"/>
    </g>
   </g>
   <g id="text_61">
    <!-- $Q_{NN}$ -->
    <g transform="translate(302.787273 884.829474) scale(0.24 -0.24)">
     <use xlink:href="#DejaVuSans-Oblique-51" transform="translate(0 0.78125)"/>
     <use xlink:href="#DejaVuSans-Oblique-4e" transform="translate(78.710938 -15.625) scale(0.7)"/>
     <use xlink:href="#DejaVuSans-Oblique-4e" transform="translate(131.074219 -15.625) scale(0.7)"/>
    </g>
   </g>
  </g>
  <g id="axes_6">
   <g id="patch_39">
    <path d="M 591.545455 1153.44 
L 972 1153.44 
L 972 890.829474 
L 591.545455 890.829474 
z
" style="fill: #ffffff"/>
   </g>
   <g id="matplotlib.axis_11">
    <g id="xtick_21">
     <g id="line2d_60">
      <g>
       <use xlink:href="#m23d36a4d7a" x="608.533576" y="1153.44" style="stroke: #000000; stroke-width: 0.8"/>
      </g>
     </g>
     <g id="text_62">
      <!-- 0 -->
      <g transform="translate(601.534826 1177.156562) scale(0.22 -0.22)">
       <use xlink:href="#DejaVuSans-30"/>
      </g>
     </g>
    </g>
    <g id="xtick_22">
     <g id="line2d_61">
      <g>
       <use xlink:href="#m23d36a4d7a" x="684.850383" y="1153.44" style="stroke: #000000; stroke-width: 0.8"/>
      </g>
     </g>
     <g id="text_63">
      <!-- 250 -->
      <g transform="translate(663.854133 1177.156562) scale(0.22 -0.22)">
       <use xlink:href="#DejaVuSans-32"/>
       <use xlink:href="#DejaVuSans-35" x="63.623047"/>
       <use xlink:href="#DejaVuSans-30" x="127.246094"/>
      </g>
     </g>
    </g>
    <g id="xtick_23">
     <g id="line2d_62">
      <g>
       <use xlink:href="#m23d36a4d7a" x="761.167189" y="1153.44" style="stroke: #000000; stroke-width: 0.8"/>
      </g>
     </g>
     <g id="text_64">
      <!-- 500 -->
      <g transform="translate(740.170939 1177.156562) scale(0.22 -0.22)">
       <use xlink:href="#DejaVuSans-35"/>
       <use xlink:href="#DejaVuSans-30" x="63.623047"/>
       <use xlink:href="#DejaVuSans-30" x="127.246094"/>
      </g>
     </g>
    </g>
    <g id="xtick_24">
     <g id="line2d_63">
      <g>
       <use xlink:href="#m23d36a4d7a" x="837.483996" y="1153.44" style="stroke: #000000; stroke-width: 0.8"/>
      </g>
     </g>
     <g id="text_65">
      <!-- 750 -->
      <g transform="translate(816.487746 1177.156562) scale(0.22 -0.22)">
       <use xlink:href="#DejaVuSans-37"/>
       <use xlink:href="#DejaVuSans-35" x="63.623047"/>
       <use xlink:href="#DejaVuSans-30" x="127.246094"/>
      </g>
     </g>
    </g>
    <g id="xtick_25">
     <g id="line2d_64">
      <g>
       <use xlink:href="#m23d36a4d7a" x="913.800803" y="1153.44" style="stroke: #000000; stroke-width: 0.8"/>
      </g>
     </g>
     <g id="text_66">
      <!-- 1000 -->
      <g transform="translate(885.805803 1177.156562) scale(0.22 -0.22)">
       <use xlink:href="#DejaVuSans-31"/>
       <use xlink:href="#DejaVuSans-30" x="63.623047"/>
       <use xlink:href="#DejaVuSans-30" x="127.246094"/>
       <use xlink:href="#DejaVuSans-30" x="190.869141"/>
      </g>
     </g>
    </g>
    <g id="text_67">
     <!-- k -->
     <g transform="translate(774.823977 1203.968125) scale(0.24 -0.24)">
      <use xlink:href="#DejaVuSans-6b"/>
     </g>
    </g>
   </g>
   <g id="matplotlib.axis_12">
    <g id="ytick_24">
     <g id="line2d_65">
      <g>
       <use xlink:href="#mc16df7655a" x="591.545455" y="1140.431052" style="stroke: #000000; stroke-width: 0.8"/>
      </g>
     </g>
     <g id="text_68">
      <!-- 0.0 -->
      <g transform="translate(549.55858 1148.789333) scale(0.22 -0.22)">
       <use xlink:href="#DejaVuSans-30"/>
       <use xlink:href="#DejaVuSans-2e" x="63.623047"/>
       <use xlink:href="#DejaVuSans-30" x="95.410156"/>
      </g>
     </g>
    </g>
    <g id="ytick_25">
     <g id="line2d_66">
      <g>
       <use xlink:href="#mc16df7655a" x="591.545455" y="1076.416071" style="stroke: #000000; stroke-width: 0.8"/>
      </g>
     </g>
     <g id="text_69">
      <!-- 0.2 -->
      <g transform="translate(549.55858 1084.774352) scale(0.22 -0.22)">
       <use xlink:href="#DejaVuSans-30"/>
       <use xlink:href="#DejaVuSans-2e" x="63.623047"/>
       <use xlink:href="#DejaVuSans-32" x="95.410156"/>
      </g>
     </g>
    </g>
    <g id="ytick_26">
     <g id="line2d_67">
      <g>
       <use xlink:href="#mc16df7655a" x="591.545455" y="1012.401091" style="stroke: #000000; stroke-width: 0.8"/>
      </g>
     </g>
     <g id="text_70">
      <!-- 0.4 -->
      <g transform="translate(549.55858 1020.759372) scale(0.22 -0.22)">
       <use xlink:href="#DejaVuSans-30"/>
       <use xlink:href="#DejaVuSans-2e" x="63.623047"/>
       <use xlink:href="#DejaVuSans-34" x="95.410156"/>
      </g>
     </g>
    </g>
    <g id="ytick_27">
     <g id="line2d_68">
      <g>
       <use xlink:href="#mc16df7655a" x="591.545455" y="948.38611" style="stroke: #000000; stroke-width: 0.8"/>
      </g>
     </g>
     <g id="text_71">
      <!-- 0.6 -->
      <g transform="translate(549.55858 956.744391) scale(0.22 -0.22)">
       <use xlink:href="#DejaVuSans-30"/>
       <use xlink:href="#DejaVuSans-2e" x="63.623047"/>
       <use xlink:href="#DejaVuSans-36" x="95.410156"/>
      </g>
     </g>
    </g>
   </g>
   <g id="line2d_69">
    <path d="M 608.838843 1104.334748 
L 609.449377 1088.260999 
L 610.059912 1082.62141 
L 610.365179 1080.78863 
L 610.670446 1077.908406 
L 611.586248 1072.921704 
L 611.891515 1071.060725 
L 613.417851 1066.972905 
L 614.333653 1063.507967 
L 614.944188 1061.703354 
L 615.859989 1060.324293 
L 616.775791 1059.01163 
L 617.691593 1057.510442 
L 617.99686 1057.020064 
L 619.828463 1055.648414 
L 620.744265 1054.866788 
L 621.354799 1054.611467 
L 622.270601 1053.929584 
L 622.881135 1053.297405 
L 624.712739 1051.261696 
L 625.018006 1050.845441 
L 625.323273 1050.7007 
L 625.62854 1050.314383 
L 626.239075 1049.926951 
L 626.849609 1048.991972 
L 628.681213 1047.014306 
L 630.818083 1044.899961 
L 632.039152 1043.631159 
L 633.260221 1042.592214 
L 635.091825 1041.222822 
L 636.007626 1040.373233 
L 636.618161 1039.968435 
L 637.228695 1039.580883 
L 640.586635 1037.633017 
L 641.197169 1037.539262 
L 642.723505 1037.008641 
L 643.639307 1036.809575 
L 644.249841 1036.465631 
L 645.776177 1036.341698 
L 647.913048 1036.305164 
L 652.186789 1037.708578 
L 657.681599 1039.669434 
L 658.902668 1040.001636 
L 659.513203 1040.313766 
L 660.123737 1040.526743 
L 661.039539 1040.800054 
L 661.650073 1040.986764 
L 663.176409 1041.540888 
L 664.092211 1041.940594 
L 665.618547 1042.41093 
L 667.450151 1043.139339 
L 668.67122 1043.672397 
L 672.334426 1045.355818 
L 673.555495 1045.673639 
L 674.16603 1045.851738 
L 675.081831 1046.110837 
L 679.966107 1047.538691 
L 680.881909 1047.825987 
L 681.79771 1048.143721 
L 684.239848 1048.961855 
L 685.15565 1049.218447 
L 700.113744 1053.439642 
L 707.13489 1055.451714 
L 717.208709 1057.860631 
L 718.12451 1058.06745 
L 727.282527 1060.400865 
L 741.935354 1064.372746 
L 760.556655 1069.975669 
L 767.577801 1071.95075 
L 769.104137 1072.439586 
L 771.546275 1073.19386 
L 780.704292 1075.878817 
L 782.535895 1076.404943 
L 784.672766 1077.023377 
L 787.420171 1077.894822 
L 790.77811 1078.98637 
L 799.325593 1081.637197 
L 828.325979 1091.810038 
L 830.768117 1092.780208 
L 834.431324 1094.252422 
L 836.873462 1095.234728 
L 840.841936 1096.705815 
L 844.199875 1098.095175 
L 855.494763 1102.918601 
L 859.768504 1104.903747 
L 866.78965 1108.259607 
L 868.621253 1109.242806 
L 873.810796 1112.042701 
L 879.305606 1115.193986 
L 881.747744 1116.627799 
L 885.716218 1118.927924 
L 895.790037 1124.713686 
L 905.558588 1129.721223 
L 912.885001 1132.556584 
L 920.211415 1134.709557 
L 924.790423 1135.764226 
L 926.316759 1136.046204 
L 932.727371 1137.198244 
L 943.106457 1139.20533 
L 945.548595 1139.353048 
L 951.348672 1139.602142 
L 953.79081 1140.214127 
L 954.706612 1140.431052 
L 954.706612 1140.431052 
" clip-path="url(#pec70d854d9)" style="fill: none; stroke: #1f77b4; stroke-width: 1.5; stroke-linecap: square"/>
   </g>
   <g id="line2d_70">
    <path d="M 608.838843 925.262004 
L 609.14411 910.316024 
L 609.754645 903.195912 
L 610.059912 904.112675 
L 610.365179 904.629932 
L 610.670446 903.186587 
L 610.975714 903.655164 
L 611.280981 902.766316 
L 611.891515 903.550158 
L 612.50205 905.763305 
L 612.807317 906.773811 
L 613.723119 911.945426 
L 615.859989 921.554667 
L 617.081058 925.560795 
L 618.607394 932.354252 
L 619.523196 937.436061 
L 620.438998 941.67109 
L 621.965334 948.230413 
L 622.575868 950.340927 
L 624.712739 958.061929 
L 625.018006 958.79192 
L 625.933808 961.609961 
L 627.460144 965.562856 
L 627.765411 966.378433 
L 628.070678 966.824839 
L 628.681213 968.087279 
L 628.98648 968.622902 
L 631.733885 975.295606 
L 633.565488 978.532817 
L 634.176023 979.578548 
L 638.755031 988.791469 
L 646.081445 1000.243589 
L 650.660453 1006.588928 
L 652.186789 1009.072321 
L 657.376332 1017.564546 
L 659.81847 1021.470364 
L 662.565875 1025.33605 
L 668.060685 1032.221702 
L 671.418625 1035.675238 
L 676.3029 1039.705283 
L 677.523969 1040.565387 
L 679.355572 1042.037634 
L 684.545115 1045.175513 
L 685.15565 1045.472621 
L 687.29252 1046.553889 
L 688.513589 1047.275481 
L 689.429391 1047.71221 
L 693.092598 1049.842165 
L 694.313667 1050.546571 
L 695.229468 1051.056659 
L 696.14527 1051.447031 
L 697.976873 1052.276025 
L 701.029546 1053.767271 
L 706.524356 1056.24869 
L 707.440157 1056.683229 
L 711.408631 1058.536955 
L 713.850769 1059.633103 
L 723.924588 1064.007881 
L 728.808863 1065.783572 
L 729.724665 1066.137465 
L 731.556268 1066.862365 
L 733.998406 1067.738407 
L 736.745811 1068.575381 
L 739.798484 1069.602749 
L 748.9565 1073.237144 
L 752.924974 1074.591266 
L 755.061845 1075.414471 
L 762.082991 1077.967438 
L 763.609327 1078.399855 
L 769.409405 1080.471642 
L 771.546275 1081.316535 
L 772.462077 1081.692384 
L 774.29368 1082.450345 
L 776.125284 1083.132184 
L 780.704292 1085.076958 
L 785.2833 1086.90119 
L 832.294453 1106.034142 
L 839.620867 1108.337446 
L 848.473616 1111.840189 
L 865.568581 1118.439467 
L 868.621253 1119.715361 
L 877.474003 1123.586478 
L 889.684692 1129.109545 
L 891.821563 1129.94384 
L 909.221795 1135.707287 
L 912.579734 1136.594206 
L 922.043018 1138.531462 
L 930.590501 1139.348343 
L 937.001112 1139.658414 
L 939.748517 1139.850179 
L 944.327526 1140.546422 
L 947.074931 1140.568761 
L 954.706612 1140.431052 
L 954.706612 1140.431052 
" clip-path="url(#pec70d854d9)" style="fill: none; stroke: #ff7f0e; stroke-width: 1.5; stroke-linecap: square"/>
   </g>
   <g id="line2d_71">
    <path d="M 608.838843 1056.958022 
L 609.14411 1020.156707 
L 609.754645 982.298124 
L 610.365179 954.591697 
L 611.280981 929.838731 
L 611.891515 921.0857 
L 612.196782 917.392119 
L 612.50205 916.045616 
L 612.807317 915.495802 
L 613.112584 914.643323 
L 613.417851 915.18408 
L 613.723119 916.689734 
L 614.028386 917.370111 
L 614.63892 920.021449 
L 615.859989 926.677746 
L 616.775791 930.041654 
L 619.217929 941.264133 
L 620.744265 949.629826 
L 621.354799 952.478903 
L 622.575868 958.647793 
L 623.49167 963.275462 
L 625.323273 971.929202 
L 628.681213 984.409347 
L 630.512816 990.171988 
L 632.344419 995.525537 
L 633.870756 999.517485 
L 637.533962 1008.11747 
L 638.449764 1010.155039 
L 639.365566 1012.040894 
L 646.997246 1026.718405 
L 649.134117 1030.149549 
L 651.881522 1033.878661 
L 657.681599 1041.308912 
L 667.450151 1051.13628 
L 671.113357 1054.152943 
L 672.639693 1055.277684 
L 674.16603 1056.3987 
L 676.3029 1058.025401 
L 678.134504 1059.214848 
L 683.629314 1062.136295 
L 686.071451 1063.359374 
L 688.513589 1064.486355 
L 699.197942 1068.158933 
L 714.156036 1072.880886 
L 718.12451 1074.320796 
L 724.840389 1076.085962 
L 725.756191 1076.33164 
L 727.893062 1076.961195 
L 728.808863 1077.189717 
L 741.019552 1080.544185 
L 745.293294 1081.490882 
L 747.430164 1082.026756 
L 749.567035 1082.57086 
L 752.009173 1083.222454 
L 754.146043 1083.73674 
L 755.672379 1084.137766 
L 757.503983 1084.55028 
L 760.556655 1085.265626 
L 762.693526 1085.68027 
L 765.440931 1086.314739 
L 769.104137 1087.226585 
L 771.851542 1088.032753 
L 777.65162 1089.633954 
L 788.335973 1092.807238 
L 795.357119 1094.86076 
L 796.578188 1095.173303 
L 799.63086 1096.04491 
L 804.515136 1097.444044 
L 806.652006 1097.978073 
L 808.48361 1098.454743 
L 812.146816 1099.488133 
L 828.325979 1104.42699 
L 832.294453 1105.750984 
L 843.894608 1109.659003 
L 851.221021 1112.854343 
L 853.663159 1113.931641 
L 872.894995 1122.507931 
L 884.189882 1126.735278 
L 887.853089 1128.014014 
L 893.347899 1129.889176 
L 900.674312 1132.479422 
L 903.11645 1133.089642 
L 911.358665 1135.112422 
L 917.158743 1136.098992 
L 922.348285 1136.734795 
L 932.116837 1137.721903 
L 933.94844 1137.964196 
L 935.780043 1138.380046 
L 937.916914 1139.020682 
L 940.359052 1139.679459 
L 942.190655 1140.157686 
L 944.632793 1140.519408 
L 946.769664 1140.585441 
L 954.706612 1140.431052 
L 954.706612 1140.431052 
" clip-path="url(#pec70d854d9)" style="fill: none; stroke: #2ca02c; stroke-width: 1.5; stroke-linecap: square"/>
   </g>
   <g id="line2d_72">
    <path d="M 608.838843 1028.475585 
L 609.449377 989.935492 
L 609.754645 974.82501 
L 610.670446 947.823842 
L 610.975714 941.055987 
L 612.196782 926.251755 
L 612.50205 925.178218 
L 612.807317 924.781801 
L 613.112584 923.291456 
L 613.417851 923.30933 
L 614.028386 921.976181 
L 614.333653 922.238645 
L 614.63892 923.095296 
L 614.944188 924.394107 
L 615.249455 924.600671 
L 616.470524 927.274791 
L 616.775791 927.660284 
L 617.081058 928.612484 
L 617.386325 929.080888 
L 618.302127 932.742828 
L 619.217929 937.509447 
L 622.270601 955.228072 
L 624.102204 963.151489 
L 625.018006 966.494816 
L 625.62854 968.78492 
L 629.902282 983.480826 
L 633.260221 993.269311 
L 633.870756 994.92727 
L 635.091825 998.48134 
L 637.533962 1004.074419 
L 638.755031 1006.700168 
L 639.365566 1007.808038 
L 645.776177 1019.636409 
L 646.997246 1021.92657 
L 648.523583 1024.760055 
L 649.134117 1025.69897 
L 652.492056 1031.013935 
L 654.934194 1034.208881 
L 663.786944 1044.420094 
L 665.31328 1045.999795 
L 671.113357 1052.686521 
L 673.250228 1054.665335 
L 673.860762 1055.208272 
L 676.913435 1058.20696 
L 678.439771 1059.483798 
L 683.324046 1063.286102 
L 689.429391 1067.657897 
L 691.871529 1069.311961 
L 693.703132 1070.44207 
L 698.282141 1073.062927 
L 700.724278 1074.207125 
L 701.334813 1074.500015 
L 702.861149 1075.270895 
L 705.913821 1076.923269 
L 708.661226 1078.610092 
L 710.49283 1079.336905 
L 712.934968 1080.616569 
L 714.461304 1081.454912 
L 715.377105 1082.011863 
L 721.48245 1085.642737 
L 725.450924 1087.63392 
L 730.945734 1090.433163 
L 734.608941 1092.291899 
L 743.766957 1096.491252 
L 745.293294 1096.961463 
L 749.261768 1098.288478 
L 755.367112 1100.569959 
L 766.356732 1104.398702 
L 769.104137 1105.237332 
L 771.241008 1106.073889 
L 775.514749 1107.43647 
L 777.956887 1108.085729 
L 781.925361 1109.240034 
L 784.062231 1109.775739 
L 790.77811 1111.568025 
L 791.999179 1111.812315 
L 793.525516 1112.140733 
L 800.241395 1113.999784 
L 803.904601 1114.919443 
L 806.957274 1115.723384 
L 808.48361 1116.168058 
L 811.231015 1116.980438 
L 818.252161 1119.197891 
L 819.778497 1119.700995 
L 840.841936 1125.794505 
L 842.368272 1126.223859 
L 846.031479 1127.259406 
L 865.568581 1132.180647 
L 872.28446 1134.043943 
L 882.358279 1136.841559 
L 889.074158 1138.883791 
L 894.263701 1140.069981 
L 897.926907 1140.611472 
L 904.642786 1141.413624 
L 911.9692 1141.45276 
L 916.242941 1141.332179 
L 921.737751 1141.045438 
L 930.590501 1140.649038 
L 951.043405 1140.392377 
L 954.401344 1140.431301 
L 954.706612 1140.431052 
L 954.706612 1140.431052 
" clip-path="url(#pec70d854d9)" style="fill: none; stroke: #d62728; stroke-width: 1.5; stroke-linecap: square"/>
   </g>
   <g id="patch_40">
    <path d="M 591.545455 1153.44 
L 591.545455 890.829474 
" style="fill: none; stroke: #000000; stroke-width: 0.8; stroke-linejoin: miter; stroke-linecap: square"/>
   </g>
   <g id="patch_41">
    <path d="M 972 1153.44 
L 972 890.829474 
" style="fill: none; stroke: #000000; stroke-width: 0.8; stroke-linejoin: miter; stroke-linecap: square"/>
   </g>
   <g id="patch_42">
    <path d="M 591.545455 1153.44 
L 972 1153.44 
" style="fill: none; stroke: #000000; stroke-width: 0.8; stroke-linejoin: miter; stroke-linecap: square"/>
   </g>
   <g id="patch_43">
    <path d="M 591.545455 890.829474 
L 972 890.829474 
" style="fill: none; stroke: #000000; stroke-width: 0.8; stroke-linejoin: miter; stroke-linecap: square"/>
   </g>
   <g id="text_72">
    <!-- f -->
    <g transform="translate(552.733636 872.71352) scale(0.28 -0.28)">
     <defs>
      <path id="DejaVuSans-Bold-66" d="M 2841 4863 
L 2841 4128 
L 2222 4128 
Q 1984 4128 1890 4042 
Q 1797 3956 1797 3744 
L 1797 3500 
L 2753 3500 
L 2753 2700 
L 1797 2700 
L 1797 0 
L 678 0 
L 678 2700 
L 122 2700 
L 122 3500 
L 678 3500 
L 678 3744 
Q 678 4316 997 4589 
Q 1316 4863 1984 4863 
L 2841 4863 
z
" transform="scale(0.015625)"/>
     </defs>
     <use xlink:href="#DejaVuSans-Bold-66"/>
    </g>
   </g>
   <g id="text_73">
    <!-- LCMC -->
    <g transform="translate(747.973977 884.829474) scale(0.24 -0.24)">
     <defs>
      <path id="DejaVuSans-4c" d="M 628 4666 
L 1259 4666 
L 1259 531 
L 3531 531 
L 3531 0 
L 628 0 
L 628 4666 
z
" transform="scale(0.015625)"/>
     </defs>
     <use xlink:href="#DejaVuSans-4c"/>
     <use xlink:href="#DejaVuSans-43" x="55.712891"/>
     <use xlink:href="#DejaVuSans-4d" x="125.537109"/>
     <use xlink:href="#DejaVuSans-43" x="211.816406"/>
    </g>
   </g>
  </g>
 </g>
 <defs>
  <clipPath id="p311a5cd7cb">
   <rect x="135" y="155.52" width="380.454545" height="262.610526"/>
  </clipPath>
  <clipPath id="p5b0f1f1170">
   <rect x="591.545455" y="155.52" width="380.454545" height="262.610526"/>
  </clipPath>
  <clipPath id="pd2cd46f174">
   <rect x="135" y="523.174737" width="380.454545" height="262.610526"/>
  </clipPath>
  <clipPath id="p51bd6f7f3a">
   <rect x="591.545455" y="523.174737" width="380.454545" height="262.610526"/>
  </clipPath>
  <clipPath id="p8c4ba31773">
   <rect x="135" y="890.829474" width="380.454545" height="262.610526"/>
  </clipPath>
  <clipPath id="pec70d854d9">
   <rect x="591.545455" y="890.829474" width="380.454545" height="262.610526"/>
  </clipPath>
 </defs>
</svg>
