<?xml version="1.0" encoding="utf-8" standalone="no"?>
<!DOCTYPE svg PUBLIC "-//W3C//DTD SVG 1.1//EN"
  "http://www.w3.org/Graphics/SVG/1.1/DTD/svg11.dtd">
<svg xmlns:xlink="http://www.w3.org/1999/xlink" width="1080pt" height="1296pt" viewBox="0 0 1080 1296" xmlns="http://www.w3.org/2000/svg" version="1.1">
 <metadata>
  <rdf:RDF xmlns:dc="http://purl.org/dc/elements/1.1/" xmlns:cc="http://creativecommons.org/ns#" xmlns:rdf="http://www.w3.org/1999/02/22-rdf-syntax-ns#">
   <cc:Work>
    <dc:type rdf:resource="http://purl.org/dc/dcmitype/StillImage"/>
    <dc:date>2024-07-24T14:20:28.147886</dc:date>
    <dc:format>image/svg+xml</dc:format>
    <dc:creator>
     <cc:Agent>
      <dc:title>Matplotlib v3.8.4, https://matplotlib.org/</dc:title>
     </cc:Agent>
    </dc:creator>
   </cc:Work>
  </rdf:RDF>
 </metadata>
 <defs>
  <style type="text/css">*{stroke-linejoin: round; stroke-linecap: butt}</style>
 </defs>
 <g id="figure_1">
  <g id="patch_1">
   <path d="M 0 1296 
L 1080 1296 
L 1080 0 
L 0 0 
z
" style="fill: #ffffff"/>
  </g>
  <g id="axes_1">
   <g id="patch_2">
    <path d="M 135 418.130526 
L 515.454545 418.130526 
L 515.454545 155.52 
L 135 155.52 
z
" style="fill: #ffffff"/>
   </g>
   <g id="matplotlib.axis_1">
    <g id="xtick_1">
     <g id="line2d_1">
      <defs>
       <path id="me394547663" d="M 0 0 
L 0 3.5 
" style="stroke: #000000; stroke-width: 0.8"/>
      </defs>
      <g>
       <use xlink:href="#me394547663" x="137.882231" y="418.130526" style="stroke: #000000; stroke-width: 0.8"/>
      </g>
     </g>
     <g id="text_1">
      <!-- 0 -->
      <g transform="translate(131.519731 440.327401) scale(0.2 -0.2)">
       <defs>
        <path id="DejaVuSans-30" d="M 2034 4250 
Q 1547 4250 1301 3770 
Q 1056 3291 1056 2328 
Q 1056 1369 1301 889 
Q 1547 409 2034 409 
Q 2525 409 2770 889 
Q 3016 1369 3016 2328 
Q 3016 3291 2770 3770 
Q 2525 4250 2034 4250 
z
M 2034 4750 
Q 2819 4750 3233 4129 
Q 3647 3509 3647 2328 
Q 3647 1150 3233 529 
Q 2819 -91 2034 -91 
Q 1250 -91 836 529 
Q 422 1150 422 2328 
Q 422 3509 836 4129 
Q 1250 4750 2034 4750 
z
" transform="scale(0.015625)"/>
       </defs>
       <use xlink:href="#DejaVuSans-30"/>
      </g>
     </g>
    </g>
    <g id="xtick_2">
     <g id="line2d_2">
      <g>
       <use xlink:href="#me394547663" x="209.938017" y="418.130526" style="stroke: #000000; stroke-width: 0.8"/>
      </g>
     </g>
     <g id="text_2">
      <!-- 10 -->
      <g transform="translate(197.213017 440.327401) scale(0.2 -0.2)">
       <defs>
        <path id="DejaVuSans-31" d="M 794 531 
L 1825 531 
L 1825 4091 
L 703 3866 
L 703 4441 
L 1819 4666 
L 2450 4666 
L 2450 531 
L 3481 531 
L 3481 0 
L 794 0 
L 794 531 
z
" transform="scale(0.015625)"/>
       </defs>
       <use xlink:href="#DejaVuSans-31"/>
       <use xlink:href="#DejaVuSans-30" x="63.623047"/>
      </g>
     </g>
    </g>
    <g id="xtick_3">
     <g id="line2d_3">
      <g>
       <use xlink:href="#me394547663" x="281.993802" y="418.130526" style="stroke: #000000; stroke-width: 0.8"/>
      </g>
     </g>
     <g id="text_3">
      <!-- 20 -->
      <g transform="translate(269.268802 440.327401) scale(0.2 -0.2)">
       <defs>
        <path id="DejaVuSans-32" d="M 1228 531 
L 3431 531 
L 3431 0 
L 469 0 
L 469 531 
Q 828 903 1448 1529 
Q 2069 2156 2228 2338 
Q 2531 2678 2651 2914 
Q 2772 3150 2772 3378 
Q 2772 3750 2511 3984 
Q 2250 4219 1831 4219 
Q 1534 4219 1204 4116 
Q 875 4013 500 3803 
L 500 4441 
Q 881 4594 1212 4672 
Q 1544 4750 1819 4750 
Q 2544 4750 2975 4387 
Q 3406 4025 3406 3419 
Q 3406 3131 3298 2873 
Q 3191 2616 2906 2266 
Q 2828 2175 2409 1742 
Q 1991 1309 1228 531 
z
" transform="scale(0.015625)"/>
       </defs>
       <use xlink:href="#DejaVuSans-32"/>
       <use xlink:href="#DejaVuSans-30" x="63.623047"/>
      </g>
     </g>
    </g>
    <g id="xtick_4">
     <g id="line2d_4">
      <g>
       <use xlink:href="#me394547663" x="354.049587" y="418.130526" style="stroke: #000000; stroke-width: 0.8"/>
      </g>
     </g>
     <g id="text_4">
      <!-- 30 -->
      <g transform="translate(341.324587 440.327401) scale(0.2 -0.2)">
       <defs>
        <path id="DejaVuSans-33" d="M 2597 2516 
Q 3050 2419 3304 2112 
Q 3559 1806 3559 1356 
Q 3559 666 3084 287 
Q 2609 -91 1734 -91 
Q 1441 -91 1130 -33 
Q 819 25 488 141 
L 488 750 
Q 750 597 1062 519 
Q 1375 441 1716 441 
Q 2309 441 2620 675 
Q 2931 909 2931 1356 
Q 2931 1769 2642 2001 
Q 2353 2234 1838 2234 
L 1294 2234 
L 1294 2753 
L 1863 2753 
Q 2328 2753 2575 2939 
Q 2822 3125 2822 3475 
Q 2822 3834 2567 4026 
Q 2313 4219 1838 4219 
Q 1578 4219 1281 4162 
Q 984 4106 628 3988 
L 628 4550 
Q 988 4650 1302 4700 
Q 1616 4750 1894 4750 
Q 2613 4750 3031 4423 
Q 3450 4097 3450 3541 
Q 3450 3153 3228 2886 
Q 3006 2619 2597 2516 
z
" transform="scale(0.015625)"/>
       </defs>
       <use xlink:href="#DejaVuSans-33"/>
       <use xlink:href="#DejaVuSans-30" x="63.623047"/>
      </g>
     </g>
    </g>
    <g id="xtick_5">
     <g id="line2d_5">
      <g>
       <use xlink:href="#me394547663" x="426.105372" y="418.130526" style="stroke: #000000; stroke-width: 0.8"/>
      </g>
     </g>
     <g id="text_5">
      <!-- 40 -->
      <g transform="translate(413.380372 440.327401) scale(0.2 -0.2)">
       <defs>
        <path id="DejaVuSans-34" d="M 2419 4116 
L 825 1625 
L 2419 1625 
L 2419 4116 
z
M 2253 4666 
L 3047 4666 
L 3047 1625 
L 3713 1625 
L 3713 1100 
L 3047 1100 
L 3047 0 
L 2419 0 
L 2419 1100 
L 313 1100 
L 313 1709 
L 2253 4666 
z
" transform="scale(0.015625)"/>
       </defs>
       <use xlink:href="#DejaVuSans-34"/>
       <use xlink:href="#DejaVuSans-30" x="63.623047"/>
      </g>
     </g>
    </g>
    <g id="xtick_6">
     <g id="line2d_6">
      <g>
       <use xlink:href="#me394547663" x="498.161157" y="418.130526" style="stroke: #000000; stroke-width: 0.8"/>
      </g>
     </g>
     <g id="text_6">
      <!-- 50 -->
      <g transform="translate(485.436157 440.327401) scale(0.2 -0.2)">
       <defs>
        <path id="DejaVuSans-35" d="M 691 4666 
L 3169 4666 
L 3169 4134 
L 1269 4134 
L 1269 2991 
Q 1406 3038 1543 3061 
Q 1681 3084 1819 3084 
Q 2600 3084 3056 2656 
Q 3513 2228 3513 1497 
Q 3513 744 3044 326 
Q 2575 -91 1722 -91 
Q 1428 -91 1123 -41 
Q 819 9 494 109 
L 494 744 
Q 775 591 1075 516 
Q 1375 441 1709 441 
Q 2250 441 2565 725 
Q 2881 1009 2881 1497 
Q 2881 1984 2565 2268 
Q 2250 2553 1709 2553 
Q 1456 2553 1204 2497 
Q 953 2441 691 2322 
L 691 4666 
z
" transform="scale(0.015625)"/>
       </defs>
       <use xlink:href="#DejaVuSans-35"/>
       <use xlink:href="#DejaVuSans-30" x="63.623047"/>
      </g>
     </g>
    </g>
    <g id="text_7">
     <!-- k -->
     <g transform="translate(318.278523 466.723026) scale(0.24 -0.24)">
      <defs>
       <path id="DejaVuSans-6b" d="M 581 4863 
L 1159 4863 
L 1159 1991 
L 2875 3500 
L 3609 3500 
L 1753 1863 
L 3688 0 
L 2938 0 
L 1159 1709 
L 1159 0 
L 581 0 
L 581 4863 
z
" transform="scale(0.015625)"/>
      </defs>
      <use xlink:href="#DejaVuSans-6b"/>
     </g>
    </g>
   </g>
   <g id="matplotlib.axis_2">
    <g id="ytick_1">
     <g id="line2d_7">
      <defs>
       <path id="mcdb1f4bc4e" d="M 0 0 
L -3.5 0 
" style="stroke: #000000; stroke-width: 0.8"/>
      </defs>
      <g>
       <use xlink:href="#mcdb1f4bc4e" x="135" y="418.130526" style="stroke: #000000; stroke-width: 0.8"/>
      </g>
     </g>
     <g id="text_8">
      <!-- 0.0 -->
      <g transform="translate(96.19375 425.728964) scale(0.2 -0.2)">
       <defs>
        <path id="DejaVuSans-2e" d="M 684 794 
L 1344 794 
L 1344 0 
L 684 0 
L 684 794 
z
" transform="scale(0.015625)"/>
       </defs>
       <use xlink:href="#DejaVuSans-30"/>
       <use xlink:href="#DejaVuSans-2e" x="63.623047"/>
       <use xlink:href="#DejaVuSans-30" x="95.410156"/>
      </g>
     </g>
    </g>
    <g id="ytick_2">
     <g id="line2d_8">
      <g>
       <use xlink:href="#mcdb1f4bc4e" x="135" y="352.477895" style="stroke: #000000; stroke-width: 0.8"/>
      </g>
     </g>
     <g id="text_9">
      <!-- 0.2 -->
      <g transform="translate(96.19375 360.076332) scale(0.2 -0.2)">
       <use xlink:href="#DejaVuSans-30"/>
       <use xlink:href="#DejaVuSans-2e" x="63.623047"/>
       <use xlink:href="#DejaVuSans-32" x="95.410156"/>
      </g>
     </g>
    </g>
    <g id="ytick_3">
     <g id="line2d_9">
      <g>
       <use xlink:href="#mcdb1f4bc4e" x="135" y="286.825263" style="stroke: #000000; stroke-width: 0.8"/>
      </g>
     </g>
     <g id="text_10">
      <!-- 0.4 -->
      <g transform="translate(96.19375 294.423701) scale(0.2 -0.2)">
       <use xlink:href="#DejaVuSans-30"/>
       <use xlink:href="#DejaVuSans-2e" x="63.623047"/>
       <use xlink:href="#DejaVuSans-34" x="95.410156"/>
      </g>
     </g>
    </g>
    <g id="ytick_4">
     <g id="line2d_10">
      <g>
       <use xlink:href="#mcdb1f4bc4e" x="135" y="221.172632" style="stroke: #000000; stroke-width: 0.8"/>
      </g>
     </g>
     <g id="text_11">
      <!-- 0.6 -->
      <g transform="translate(96.19375 228.771069) scale(0.2 -0.2)">
       <defs>
        <path id="DejaVuSans-36" d="M 2113 2584 
Q 1688 2584 1439 2293 
Q 1191 2003 1191 1497 
Q 1191 994 1439 701 
Q 1688 409 2113 409 
Q 2538 409 2786 701 
Q 3034 994 3034 1497 
Q 3034 2003 2786 2293 
Q 2538 2584 2113 2584 
z
M 3366 4563 
L 3366 3988 
Q 3128 4100 2886 4159 
Q 2644 4219 2406 4219 
Q 1781 4219 1451 3797 
Q 1122 3375 1075 2522 
Q 1259 2794 1537 2939 
Q 1816 3084 2150 3084 
Q 2853 3084 3261 2657 
Q 3669 2231 3669 1497 
Q 3669 778 3244 343 
Q 2819 -91 2113 -91 
Q 1303 -91 875 529 
Q 447 1150 447 2328 
Q 447 3434 972 4092 
Q 1497 4750 2381 4750 
Q 2619 4750 2861 4703 
Q 3103 4656 3366 4563 
z
" transform="scale(0.015625)"/>
       </defs>
       <use xlink:href="#DejaVuSans-30"/>
       <use xlink:href="#DejaVuSans-2e" x="63.623047"/>
       <use xlink:href="#DejaVuSans-36" x="95.410156"/>
      </g>
     </g>
    </g>
    <g id="ytick_5">
     <g id="line2d_11">
      <g>
       <use xlink:href="#mcdb1f4bc4e" x="135" y="155.52" style="stroke: #000000; stroke-width: 0.8"/>
      </g>
     </g>
     <g id="text_12">
      <!-- 0.8 -->
      <g transform="translate(96.19375 163.118438) scale(0.2 -0.2)">
       <defs>
        <path id="DejaVuSans-38" d="M 2034 2216 
Q 1584 2216 1326 1975 
Q 1069 1734 1069 1313 
Q 1069 891 1326 650 
Q 1584 409 2034 409 
Q 2484 409 2743 651 
Q 3003 894 3003 1313 
Q 3003 1734 2745 1975 
Q 2488 2216 2034 2216 
z
M 1403 2484 
Q 997 2584 770 2862 
Q 544 3141 544 3541 
Q 544 4100 942 4425 
Q 1341 4750 2034 4750 
Q 2731 4750 3128 4425 
Q 3525 4100 3525 3541 
Q 3525 3141 3298 2862 
Q 3072 2584 2669 2484 
Q 3125 2378 3379 2068 
Q 3634 1759 3634 1313 
Q 3634 634 3220 271 
Q 2806 -91 2034 -91 
Q 1263 -91 848 271 
Q 434 634 434 1313 
Q 434 1759 690 2068 
Q 947 2378 1403 2484 
z
M 1172 3481 
Q 1172 3119 1398 2916 
Q 1625 2713 2034 2713 
Q 2441 2713 2670 2916 
Q 2900 3119 2900 3481 
Q 2900 3844 2670 4047 
Q 2441 4250 2034 4250 
Q 1625 4250 1398 4047 
Q 1172 3844 1172 3481 
z
" transform="scale(0.015625)"/>
       </defs>
       <use xlink:href="#DejaVuSans-30"/>
       <use xlink:href="#DejaVuSans-2e" x="63.623047"/>
       <use xlink:href="#DejaVuSans-38" x="95.410156"/>
      </g>
     </g>
    </g>
    <g id="text_13">
     <!-- $P_{NN}$ -->
     <g transform="translate(87.2025 306.985263) rotate(-90) scale(0.24 -0.24)">
      <defs>
       <path id="DejaVuSans-Oblique-50" d="M 1081 4666 
L 2541 4666 
Q 3178 4666 3512 4369 
Q 3847 4072 3847 3500 
Q 3847 2731 3353 2303 
Q 2859 1875 1966 1875 
L 1172 1875 
L 806 0 
L 172 0 
L 1081 4666 
z
M 1613 4147 
L 1275 2394 
L 2069 2394 
Q 2606 2394 2893 2669 
Q 3181 2944 3181 3456 
Q 3181 3784 2986 3965 
Q 2791 4147 2438 4147 
L 1613 4147 
z
" transform="scale(0.015625)"/>
       <path id="DejaVuSans-Oblique-4e" d="M 1081 4666 
L 1931 4666 
L 3219 666 
L 4000 4666 
L 4616 4666 
L 3706 0 
L 2853 0 
L 1569 4025 
L 788 0 
L 172 0 
L 1081 4666 
z
" transform="scale(0.015625)"/>
      </defs>
      <use xlink:href="#DejaVuSans-Oblique-50" transform="translate(0 0.09375)"/>
      <use xlink:href="#DejaVuSans-Oblique-4e" transform="translate(60.302734 -16.3125) scale(0.7)"/>
      <use xlink:href="#DejaVuSans-Oblique-4e" transform="translate(112.666016 -16.3125) scale(0.7)"/>
     </g>
    </g>
   </g>
   <g id="line2d_12">
    <path d="M 152.293388 370.597906 
L 173.910124 361.581112 
L 209.938017 352.665144 
L 281.993802 342.647285 
L 498.161157 325.26619 
" clip-path="url(#p56c1e58eb6)" style="fill: none; stroke: #1f77b4; stroke-width: 1.5; stroke-linecap: square"/>
    <defs>
     <path id="m6209dab815" d="M 0 3 
C 0.795609 3 1.55874 2.683901 2.12132 2.12132 
C 2.683901 1.55874 3 0.795609 3 0 
C 3 -0.795609 2.683901 -1.55874 2.12132 -2.12132 
C 1.55874 -2.683901 0.795609 -3 0 -3 
C -0.795609 -3 -1.55874 -2.683901 -2.12132 -2.12132 
C -2.683901 -1.55874 -3 -0.795609 -3 0 
C -3 0.795609 -2.683901 1.55874 -2.12132 2.12132 
C -1.55874 2.683901 -0.795609 3 0 3 
z
" style="stroke: #1f77b4"/>
    </defs>
    <g clip-path="url(#p56c1e58eb6)">
     <use xlink:href="#m6209dab815" x="152.293388" y="370.597906" style="fill: #1f77b4; stroke: #1f77b4"/>
     <use xlink:href="#m6209dab815" x="173.910124" y="361.581112" style="fill: #1f77b4; stroke: #1f77b4"/>
     <use xlink:href="#m6209dab815" x="209.938017" y="352.665144" style="fill: #1f77b4; stroke: #1f77b4"/>
     <use xlink:href="#m6209dab815" x="281.993802" y="342.647285" style="fill: #1f77b4; stroke: #1f77b4"/>
     <use xlink:href="#m6209dab815" x="498.161157" y="325.26619" style="fill: #1f77b4; stroke: #1f77b4"/>
    </g>
   </g>
   <g id="line2d_13">
    <path d="M 152.293388 238.22676 
L 173.910124 218.291867 
L 209.938017 214.38843 
L 281.993802 216.901898 
L 498.161157 242.870553 
" clip-path="url(#p56c1e58eb6)" style="fill: none; stroke: #ff7f0e; stroke-width: 1.5; stroke-linecap: square"/>
    <defs>
     <path id="m1947a5792a" d="M 0 3 
C 0.795609 3 1.55874 2.683901 2.12132 2.12132 
C 2.683901 1.55874 3 0.795609 3 0 
C 3 -0.795609 2.683901 -1.55874 2.12132 -2.12132 
C 1.55874 -2.683901 0.795609 -3 0 -3 
C -0.795609 -3 -1.55874 -2.683901 -2.12132 -2.12132 
C -2.683901 -1.55874 -3 -0.795609 -3 0 
C -3 0.795609 -2.683901 1.55874 -2.12132 2.12132 
C -1.55874 2.683901 -0.795609 3 0 3 
z
" style="stroke: #ff7f0e"/>
    </defs>
    <g clip-path="url(#p56c1e58eb6)">
     <use xlink:href="#m1947a5792a" x="152.293388" y="238.22676" style="fill: #ff7f0e; stroke: #ff7f0e"/>
     <use xlink:href="#m1947a5792a" x="173.910124" y="218.291867" style="fill: #ff7f0e; stroke: #ff7f0e"/>
     <use xlink:href="#m1947a5792a" x="209.938017" y="214.38843" style="fill: #ff7f0e; stroke: #ff7f0e"/>
     <use xlink:href="#m1947a5792a" x="281.993802" y="216.901898" style="fill: #ff7f0e; stroke: #ff7f0e"/>
     <use xlink:href="#m1947a5792a" x="498.161157" y="242.870553" style="fill: #ff7f0e; stroke: #ff7f0e"/>
    </g>
   </g>
   <g id="line2d_14">
    <path d="M 152.293388 308.445404 
L 173.910124 259.313959 
L 209.938017 234.928284 
L 281.993802 225.479375 
L 498.161157 248.779001 
" clip-path="url(#p56c1e58eb6)" style="fill: none; stroke: #2ca02c; stroke-width: 1.5; stroke-linecap: square"/>
    <defs>
     <path id="m6493caa6d5" d="M 0 3 
C 0.795609 3 1.55874 2.683901 2.12132 2.12132 
C 2.683901 1.55874 3 0.795609 3 0 
C 3 -0.795609 2.683901 -1.55874 2.12132 -2.12132 
C 1.55874 -2.683901 0.795609 -3 0 -3 
C -0.795609 -3 -1.55874 -2.683901 -2.12132 -2.12132 
C -2.683901 -1.55874 -3 -0.795609 -3 0 
C -3 0.795609 -2.683901 1.55874 -2.12132 2.12132 
C -1.55874 2.683901 -0.795609 3 0 3 
z
" style="stroke: #2ca02c"/>
    </defs>
    <g clip-path="url(#p56c1e58eb6)">
     <use xlink:href="#m6493caa6d5" x="152.293388" y="308.445404" style="fill: #2ca02c; stroke: #2ca02c"/>
     <use xlink:href="#m6493caa6d5" x="173.910124" y="259.313959" style="fill: #2ca02c; stroke: #2ca02c"/>
     <use xlink:href="#m6493caa6d5" x="209.938017" y="234.928284" style="fill: #2ca02c; stroke: #2ca02c"/>
     <use xlink:href="#m6493caa6d5" x="281.993802" y="225.479375" style="fill: #2ca02c; stroke: #2ca02c"/>
     <use xlink:href="#m6493caa6d5" x="498.161157" y="248.779001" style="fill: #2ca02c; stroke: #2ca02c"/>
    </g>
   </g>
   <g id="line2d_15">
    <path d="M 152.293388 299.443013 
L 173.910124 268.35956 
L 209.938017 249.00082 
L 281.993802 233.804786 
L 498.161157 238.814436 
" clip-path="url(#p56c1e58eb6)" style="fill: none; stroke: #d62728; stroke-width: 1.5; stroke-linecap: square"/>
    <defs>
     <path id="m8971067763" d="M 0 3 
C 0.795609 3 1.55874 2.683901 2.12132 2.12132 
C 2.683901 1.55874 3 0.795609 3 0 
C 3 -0.795609 2.683901 -1.55874 2.12132 -2.12132 
C 1.55874 -2.683901 0.795609 -3 0 -3 
C -0.795609 -3 -1.55874 -2.683901 -2.12132 -2.12132 
C -2.683901 -1.55874 -3 -0.795609 -3 0 
C -3 0.795609 -2.683901 1.55874 -2.12132 2.12132 
C -1.55874 2.683901 -0.795609 3 0 3 
z
" style="stroke: #d62728"/>
    </defs>
    <g clip-path="url(#p56c1e58eb6)">
     <use xlink:href="#m8971067763" x="152.293388" y="299.443013" style="fill: #d62728; stroke: #d62728"/>
     <use xlink:href="#m8971067763" x="173.910124" y="268.35956" style="fill: #d62728; stroke: #d62728"/>
     <use xlink:href="#m8971067763" x="209.938017" y="249.00082" style="fill: #d62728; stroke: #d62728"/>
     <use xlink:href="#m8971067763" x="281.993802" y="233.804786" style="fill: #d62728; stroke: #d62728"/>
     <use xlink:href="#m8971067763" x="498.161157" y="238.814436" style="fill: #d62728; stroke: #d62728"/>
    </g>
   </g>
   <g id="patch_3">
    <path d="M 135 418.130526 
L 135 155.52 
" style="fill: none; stroke: #000000; stroke-width: 0.8; stroke-linejoin: miter; stroke-linecap: square"/>
   </g>
   <g id="patch_4">
    <path d="M 515.454545 418.130526 
L 515.454545 155.52 
" style="fill: none; stroke: #000000; stroke-width: 0.8; stroke-linejoin: miter; stroke-linecap: square"/>
   </g>
   <g id="patch_5">
    <path d="M 135 418.130526 
L 515.454545 418.130526 
" style="fill: none; stroke: #000000; stroke-width: 0.8; stroke-linejoin: miter; stroke-linecap: square"/>
   </g>
   <g id="patch_6">
    <path d="M 135 155.52 
L 515.454545 155.52 
" style="fill: none; stroke: #000000; stroke-width: 0.8; stroke-linejoin: miter; stroke-linecap: square"/>
   </g>
   <g id="text_14">
    <!-- a -->
    <g transform="translate(89.472557 137.404046) scale(0.28 -0.28)">
     <defs>
      <path id="DejaVuSans-Bold-61" d="M 2106 1575 
Q 1756 1575 1579 1456 
Q 1403 1338 1403 1106 
Q 1403 894 1545 773 
Q 1688 653 1941 653 
Q 2256 653 2472 879 
Q 2688 1106 2688 1447 
L 2688 1575 
L 2106 1575 
z
M 3816 1997 
L 3816 0 
L 2688 0 
L 2688 519 
Q 2463 200 2181 54 
Q 1900 -91 1497 -91 
Q 953 -91 614 226 
Q 275 544 275 1050 
Q 275 1666 698 1953 
Q 1122 2241 2028 2241 
L 2688 2241 
L 2688 2328 
Q 2688 2594 2478 2717 
Q 2269 2841 1825 2841 
Q 1466 2841 1156 2769 
Q 847 2697 581 2553 
L 581 3406 
Q 941 3494 1303 3539 
Q 1666 3584 2028 3584 
Q 2975 3584 3395 3211 
Q 3816 2838 3816 1997 
z
" transform="scale(0.015625)"/>
     </defs>
     <use xlink:href="#DejaVuSans-Bold-61"/>
    </g>
   </g>
   <g id="text_15">
    <!-- $P_{NN}$ -->
    <g transform="translate(303.387273 149.52) scale(0.26 -0.26)">
     <use xlink:href="#DejaVuSans-Oblique-50" transform="translate(0 0.09375)"/>
     <use xlink:href="#DejaVuSans-Oblique-4e" transform="translate(60.302734 -16.3125) scale(0.7)"/>
     <use xlink:href="#DejaVuSans-Oblique-4e" transform="translate(112.666016 -16.3125) scale(0.7)"/>
    </g>
   </g>
  </g>
  <g id="axes_2">
   <g id="patch_7">
    <path d="M 591.545455 418.130526 
L 972 418.130526 
L 972 155.52 
L 591.545455 155.52 
z
" style="fill: #ffffff"/>
   </g>
   <g id="patch_8">
    <path d="M 608.838843 418.130526 
L 628.792753 418.130526 
L 628.792753 186.727312 
L 608.838843 186.727312 
z
" clip-path="url(#p3df73233e6)" style="fill: #1f77b4"/>
   </g>
   <g id="patch_9">
    <path d="M 741.864908 418.130526 
L 761.818818 418.130526 
L 761.818818 282.874996 
L 741.864908 282.874996 
z
" clip-path="url(#p3df73233e6)" style="fill: #1f77b4"/>
   </g>
   <g id="patch_10">
    <path d="M 874.890973 418.130526 
L 894.844882 418.130526 
L 894.844882 168.025263 
L 874.890973 168.025263 
z
" clip-path="url(#p3df73233e6)" style="fill: #1f77b4"/>
   </g>
   <g id="patch_11">
    <path d="M 628.792753 418.130526 
L 648.746662 418.130526 
L 648.746662 194.792951 
L 628.792753 194.792951 
z
" clip-path="url(#p3df73233e6)" style="fill: #ff7f0e"/>
   </g>
   <g id="patch_12">
    <path d="M 761.818818 418.130526 
L 781.772727 418.130526 
L 781.772727 227.588631 
L 761.818818 227.588631 
z
" clip-path="url(#p3df73233e6)" style="fill: #ff7f0e"/>
   </g>
   <g id="patch_13">
    <path d="M 894.844882 418.130526 
L 914.798792 418.130526 
L 914.798792 194.603979 
L 894.844882 194.603979 
z
" clip-path="url(#p3df73233e6)" style="fill: #ff7f0e"/>
   </g>
   <g id="patch_14">
    <path d="M 648.746662 418.130526 
L 668.700572 418.130526 
L 668.700572 193.878709 
L 648.746662 193.878709 
z
" clip-path="url(#p3df73233e6)" style="fill: #2ca02c"/>
   </g>
   <g id="patch_15">
    <path d="M 781.772727 418.130526 
L 801.726637 418.130526 
L 801.726637 253.755378 
L 781.772727 253.755378 
z
" clip-path="url(#p3df73233e6)" style="fill: #2ca02c"/>
   </g>
   <g id="patch_16">
    <path d="M 914.798792 418.130526 
L 934.752702 418.130526 
L 934.752702 193.387921 
L 914.798792 193.387921 
z
" clip-path="url(#p3df73233e6)" style="fill: #2ca02c"/>
   </g>
   <g id="patch_17">
    <path d="M 668.700572 418.130526 
L 688.654482 418.130526 
L 688.654482 203.276756 
L 668.700572 203.276756 
z
" clip-path="url(#p3df73233e6)" style="fill: #d62728"/>
   </g>
   <g id="patch_18">
    <path d="M 801.726637 418.130526 
L 821.680547 418.130526 
L 821.680547 253.541465 
L 801.726637 253.541465 
z
" clip-path="url(#p3df73233e6)" style="fill: #d62728"/>
   </g>
   <g id="patch_19">
    <path d="M 934.752702 418.130526 
L 954.706612 418.130526 
L 954.706612 202.685599 
L 934.752702 202.685599 
z
" clip-path="url(#p3df73233e6)" style="fill: #d62728"/>
   </g>
   <g id="matplotlib.axis_3">
    <g id="xtick_7">
     <g id="line2d_16">
      <g>
       <use xlink:href="#me394547663" x="648.746662" y="418.130526" style="stroke: #000000; stroke-width: 0.8"/>
      </g>
     </g>
     <g id="text_16">
      <!-- AUC -->
      <g transform="translate(625.490256 441.847089) scale(0.22 -0.22)">
       <defs>
        <path id="DejaVuSans-41" d="M 2188 4044 
L 1331 1722 
L 3047 1722 
L 2188 4044 
z
M 1831 4666 
L 2547 4666 
L 4325 0 
L 3669 0 
L 3244 1197 
L 1141 1197 
L 716 0 
L 50 0 
L 1831 4666 
z
" transform="scale(0.015625)"/>
        <path id="DejaVuSans-55" d="M 556 4666 
L 1191 4666 
L 1191 1831 
Q 1191 1081 1462 751 
Q 1734 422 2344 422 
Q 2950 422 3222 751 
Q 3494 1081 3494 1831 
L 3494 4666 
L 4128 4666 
L 4128 1753 
Q 4128 841 3676 375 
Q 3225 -91 2344 -91 
Q 1459 -91 1007 375 
Q 556 841 556 1753 
L 556 4666 
z
" transform="scale(0.015625)"/>
        <path id="DejaVuSans-43" d="M 4122 4306 
L 4122 3641 
Q 3803 3938 3442 4084 
Q 3081 4231 2675 4231 
Q 1875 4231 1450 3742 
Q 1025 3253 1025 2328 
Q 1025 1406 1450 917 
Q 1875 428 2675 428 
Q 3081 428 3442 575 
Q 3803 722 4122 1019 
L 4122 359 
Q 3791 134 3420 21 
Q 3050 -91 2638 -91 
Q 1578 -91 968 557 
Q 359 1206 359 2328 
Q 359 3453 968 4101 
Q 1578 4750 2638 4750 
Q 3056 4750 3426 4639 
Q 3797 4528 4122 4306 
z
" transform="scale(0.015625)"/>
       </defs>
       <use xlink:href="#DejaVuSans-41"/>
       <use xlink:href="#DejaVuSans-55" x="68.408203"/>
       <use xlink:href="#DejaVuSans-43" x="141.601562"/>
      </g>
     </g>
    </g>
    <g id="xtick_8">
     <g id="line2d_17">
      <g>
       <use xlink:href="#me394547663" x="781.772727" y="418.130526" style="stroke: #000000; stroke-width: 0.8"/>
      </g>
     </g>
     <g id="text_17">
      <!-- $Q_{local}$ -->
      <g transform="translate(754.822727 441.847089) scale(0.22 -0.22)">
       <defs>
        <path id="DejaVuSans-Oblique-51" d="M 2309 -84 
Q 2275 -88 2237 -89 
Q 2200 -91 2125 -91 
Q 1250 -91 756 411 
Q 263 913 263 1797 
Q 263 2319 452 2844 
Q 641 3369 978 3788 
Q 1369 4269 1858 4509 
Q 2347 4750 2938 4750 
Q 3794 4750 4287 4245 
Q 4781 3741 4781 2869 
Q 4781 1928 4265 1147 
Q 3750 366 2919 44 
L 3553 -825 
L 2847 -825 
L 2309 -84 
z
M 2919 4238 
Q 2400 4238 2003 3986 
Q 1606 3734 1313 3219 
Q 1125 2891 1026 2522 
Q 928 2153 928 1778 
Q 928 1128 1239 775 
Q 1550 422 2119 422 
Q 2631 422 3032 676 
Q 3434 931 3719 1434 
Q 3909 1772 4009 2142 
Q 4109 2513 4109 2881 
Q 4109 3528 3796 3883 
Q 3484 4238 2919 4238 
z
" transform="scale(0.015625)"/>
        <path id="DejaVuSans-Oblique-6c" d="M 1172 4863 
L 1747 4863 
L 800 0 
L 225 0 
L 1172 4863 
z
" transform="scale(0.015625)"/>
        <path id="DejaVuSans-Oblique-6f" d="M 1625 -91 
Q 1009 -91 651 289 
Q 294 669 294 1325 
Q 294 1706 417 2101 
Q 541 2497 738 2766 
Q 1047 3184 1428 3384 
Q 1809 3584 2291 3584 
Q 2888 3584 3255 3212 
Q 3622 2841 3622 2241 
Q 3622 1825 3500 1412 
Q 3378 1000 3181 728 
Q 2875 309 2494 109 
Q 2113 -91 1625 -91 
z
M 891 1344 
Q 891 869 1089 633 
Q 1288 397 1691 397 
Q 2269 397 2648 901 
Q 3028 1406 3028 2181 
Q 3028 2634 2825 2865 
Q 2622 3097 2228 3097 
Q 1903 3097 1650 2945 
Q 1397 2794 1197 2484 
Q 1050 2253 970 1956 
Q 891 1659 891 1344 
z
" transform="scale(0.015625)"/>
        <path id="DejaVuSans-Oblique-63" d="M 3431 3366 
L 3316 2797 
Q 3109 2947 2876 3022 
Q 2644 3097 2394 3097 
Q 2119 3097 1870 3000 
Q 1622 2903 1453 2725 
Q 1184 2453 1037 2087 
Q 891 1722 891 1331 
Q 891 859 1127 628 
Q 1363 397 1844 397 
Q 2081 397 2348 469 
Q 2616 541 2906 684 
L 2797 116 
Q 2547 13 2283 -39 
Q 2019 -91 1741 -91 
Q 1044 -91 669 257 
Q 294 606 294 1253 
Q 294 1797 489 2255 
Q 684 2713 1069 3078 
Q 1331 3328 1684 3456 
Q 2038 3584 2456 3584 
Q 2700 3584 2940 3529 
Q 3181 3475 3431 3366 
z
" transform="scale(0.015625)"/>
        <path id="DejaVuSans-Oblique-61" d="M 3438 1997 
L 3047 0 
L 2472 0 
L 2578 531 
Q 2325 219 2001 64 
Q 1678 -91 1281 -91 
Q 834 -91 548 182 
Q 263 456 263 884 
Q 263 1497 752 1853 
Q 1241 2209 2100 2209 
L 2900 2209 
L 2931 2363 
Q 2938 2388 2941 2417 
Q 2944 2447 2944 2509 
Q 2944 2788 2717 2942 
Q 2491 3097 2081 3097 
Q 1800 3097 1504 3025 
Q 1209 2953 897 2809 
L 997 3341 
Q 1322 3463 1633 3523 
Q 1944 3584 2234 3584 
Q 2853 3584 3176 3315 
Q 3500 3047 3500 2534 
Q 3500 2431 3484 2292 
Q 3469 2153 3438 1997 
z
M 2816 1759 
L 2241 1759 
Q 1534 1759 1195 1570 
Q 856 1381 856 984 
Q 856 709 1029 553 
Q 1203 397 1509 397 
Q 1978 397 2328 733 
Q 2678 1069 2791 1631 
L 2816 1759 
z
" transform="scale(0.015625)"/>
       </defs>
       <use xlink:href="#DejaVuSans-Oblique-51" transform="translate(0 0.78125)"/>
       <use xlink:href="#DejaVuSans-Oblique-6c" transform="translate(78.710938 -15.625) scale(0.7)"/>
       <use xlink:href="#DejaVuSans-Oblique-6f" transform="translate(98.15918 -15.625) scale(0.7)"/>
       <use xlink:href="#DejaVuSans-Oblique-63" transform="translate(140.986328 -15.625) scale(0.7)"/>
       <use xlink:href="#DejaVuSans-Oblique-61" transform="translate(179.472656 -15.625) scale(0.7)"/>
       <use xlink:href="#DejaVuSans-Oblique-6c" transform="translate(222.368164 -15.625) scale(0.7)"/>
      </g>
     </g>
    </g>
    <g id="xtick_9">
     <g id="line2d_18">
      <g>
       <use xlink:href="#me394547663" x="914.798792" y="418.130526" style="stroke: #000000; stroke-width: 0.8"/>
      </g>
     </g>
     <g id="text_18">
      <!-- $Q_{global}$ -->
      <g transform="translate(882.348792 441.630526) scale(0.22 -0.22)">
       <defs>
        <path id="DejaVuSans-Oblique-67" d="M 3816 3500 
L 3219 434 
Q 3047 -456 2561 -893 
Q 2075 -1331 1253 -1331 
Q 950 -1331 690 -1286 
Q 431 -1241 206 -1147 
L 313 -588 
Q 525 -725 762 -790 
Q 1000 -856 1269 -856 
Q 1816 -856 2167 -557 
Q 2519 -259 2631 300 
L 2681 563 
Q 2441 288 2122 144 
Q 1803 0 1434 0 
Q 903 0 598 351 
Q 294 703 294 1319 
Q 294 1803 478 2267 
Q 663 2731 997 3091 
Q 1219 3328 1514 3456 
Q 1809 3584 2131 3584 
Q 2484 3584 2746 3420 
Q 3009 3256 3138 2956 
L 3238 3500 
L 3816 3500 
z
M 2950 2216 
Q 2950 2641 2750 2872 
Q 2550 3103 2181 3103 
Q 1953 3103 1747 3012 
Q 1541 2922 1394 2759 
Q 1156 2491 1023 2127 
Q 891 1763 891 1375 
Q 891 944 1092 712 
Q 1294 481 1672 481 
Q 2219 481 2584 976 
Q 2950 1472 2950 2216 
z
" transform="scale(0.015625)"/>
        <path id="DejaVuSans-Oblique-62" d="M 3169 2138 
Q 3169 2591 2961 2847 
Q 2753 3103 2388 3103 
Q 2122 3103 1889 2973 
Q 1656 2844 1484 2597 
Q 1303 2338 1198 1995 
Q 1094 1653 1094 1313 
Q 1094 881 1298 636 
Q 1503 391 1863 391 
Q 2134 391 2365 517 
Q 2597 644 2772 891 
Q 2950 1147 3059 1487 
Q 3169 1828 3169 2138 
z
M 1381 2969 
Q 1594 3256 1914 3420 
Q 2234 3584 2584 3584 
Q 3122 3584 3439 3221 
Q 3756 2859 3756 2241 
Q 3756 1734 3570 1259 
Q 3384 784 3041 416 
Q 2816 172 2522 40 
Q 2228 -91 1906 -91 
Q 1566 -91 1316 65 
Q 1066 222 909 531 
L 806 0 
L 231 0 
L 1178 4863 
L 1753 4863 
L 1381 2969 
z
" transform="scale(0.015625)"/>
       </defs>
       <use xlink:href="#DejaVuSans-Oblique-51" transform="translate(0 0.78125)"/>
       <use xlink:href="#DejaVuSans-Oblique-67" transform="translate(78.710938 -15.625) scale(0.7)"/>
       <use xlink:href="#DejaVuSans-Oblique-6c" transform="translate(123.144531 -15.625) scale(0.7)"/>
       <use xlink:href="#DejaVuSans-Oblique-6f" transform="translate(142.592773 -15.625) scale(0.7)"/>
       <use xlink:href="#DejaVuSans-Oblique-62" transform="translate(185.419922 -15.625) scale(0.7)"/>
       <use xlink:href="#DejaVuSans-Oblique-61" transform="translate(229.853516 -15.625) scale(0.7)"/>
       <use xlink:href="#DejaVuSans-Oblique-6c" transform="translate(272.749023 -15.625) scale(0.7)"/>
      </g>
     </g>
    </g>
   </g>
   <g id="matplotlib.axis_4">
    <g id="ytick_6">
     <g id="line2d_19">
      <g>
       <use xlink:href="#mcdb1f4bc4e" x="591.545455" y="418.130526" style="stroke: #000000; stroke-width: 0.8"/>
      </g>
     </g>
     <g id="text_19">
      <!-- 0.0 -->
      <g transform="translate(549.55858 426.488808) scale(0.22 -0.22)">
       <use xlink:href="#DejaVuSans-30"/>
       <use xlink:href="#DejaVuSans-2e" x="63.623047"/>
       <use xlink:href="#DejaVuSans-30" x="95.410156"/>
      </g>
     </g>
    </g>
    <g id="ytick_7">
     <g id="line2d_20">
      <g>
       <use xlink:href="#mcdb1f4bc4e" x="591.545455" y="353.334974" style="stroke: #000000; stroke-width: 0.8"/>
      </g>
     </g>
     <g id="text_20">
      <!-- 0.2 -->
      <g transform="translate(549.55858 361.693256) scale(0.22 -0.22)">
       <use xlink:href="#DejaVuSans-30"/>
       <use xlink:href="#DejaVuSans-2e" x="63.623047"/>
       <use xlink:href="#DejaVuSans-32" x="95.410156"/>
      </g>
     </g>
    </g>
    <g id="ytick_8">
     <g id="line2d_21">
      <g>
       <use xlink:href="#mcdb1f4bc4e" x="591.545455" y="288.539422" style="stroke: #000000; stroke-width: 0.8"/>
      </g>
     </g>
     <g id="text_21">
      <!-- 0.4 -->
      <g transform="translate(549.55858 296.897704) scale(0.22 -0.22)">
       <use xlink:href="#DejaVuSans-30"/>
       <use xlink:href="#DejaVuSans-2e" x="63.623047"/>
       <use xlink:href="#DejaVuSans-34" x="95.410156"/>
      </g>
     </g>
    </g>
    <g id="ytick_9">
     <g id="line2d_22">
      <g>
       <use xlink:href="#mcdb1f4bc4e" x="591.545455" y="223.743871" style="stroke: #000000; stroke-width: 0.8"/>
      </g>
     </g>
     <g id="text_22">
      <!-- 0.6 -->
      <g transform="translate(549.55858 232.102152) scale(0.22 -0.22)">
       <use xlink:href="#DejaVuSans-30"/>
       <use xlink:href="#DejaVuSans-2e" x="63.623047"/>
       <use xlink:href="#DejaVuSans-36" x="95.410156"/>
      </g>
     </g>
    </g>
    <g id="ytick_10">
     <g id="line2d_23">
      <g>
       <use xlink:href="#mcdb1f4bc4e" x="591.545455" y="158.948319" style="stroke: #000000; stroke-width: 0.8"/>
      </g>
     </g>
     <g id="text_23">
      <!-- 0.8 -->
      <g transform="translate(549.55858 167.3066) scale(0.22 -0.22)">
       <use xlink:href="#DejaVuSans-30"/>
       <use xlink:href="#DejaVuSans-2e" x="63.623047"/>
       <use xlink:href="#DejaVuSans-38" x="95.410156"/>
      </g>
     </g>
    </g>
    <g id="text_24">
     <!-- Metric Value -->
     <g transform="translate(540.983267 354.727919) rotate(-90) scale(0.22 -0.22)">
      <defs>
       <path id="DejaVuSans-4d" d="M 628 4666 
L 1569 4666 
L 2759 1491 
L 3956 4666 
L 4897 4666 
L 4897 0 
L 4281 0 
L 4281 4097 
L 3078 897 
L 2444 897 
L 1241 4097 
L 1241 0 
L 628 0 
L 628 4666 
z
" transform="scale(0.015625)"/>
       <path id="DejaVuSans-65" d="M 3597 1894 
L 3597 1613 
L 953 1613 
Q 991 1019 1311 708 
Q 1631 397 2203 397 
Q 2534 397 2845 478 
Q 3156 559 3463 722 
L 3463 178 
Q 3153 47 2828 -22 
Q 2503 -91 2169 -91 
Q 1331 -91 842 396 
Q 353 884 353 1716 
Q 353 2575 817 3079 
Q 1281 3584 2069 3584 
Q 2775 3584 3186 3129 
Q 3597 2675 3597 1894 
z
M 3022 2063 
Q 3016 2534 2758 2815 
Q 2500 3097 2075 3097 
Q 1594 3097 1305 2825 
Q 1016 2553 972 2059 
L 3022 2063 
z
" transform="scale(0.015625)"/>
       <path id="DejaVuSans-74" d="M 1172 4494 
L 1172 3500 
L 2356 3500 
L 2356 3053 
L 1172 3053 
L 1172 1153 
Q 1172 725 1289 603 
Q 1406 481 1766 481 
L 2356 481 
L 2356 0 
L 1766 0 
Q 1100 0 847 248 
Q 594 497 594 1153 
L 594 3053 
L 172 3053 
L 172 3500 
L 594 3500 
L 594 4494 
L 1172 4494 
z
" transform="scale(0.015625)"/>
       <path id="DejaVuSans-72" d="M 2631 2963 
Q 2534 3019 2420 3045 
Q 2306 3072 2169 3072 
Q 1681 3072 1420 2755 
Q 1159 2438 1159 1844 
L 1159 0 
L 581 0 
L 581 3500 
L 1159 3500 
L 1159 2956 
Q 1341 3275 1631 3429 
Q 1922 3584 2338 3584 
Q 2397 3584 2469 3576 
Q 2541 3569 2628 3553 
L 2631 2963 
z
" transform="scale(0.015625)"/>
       <path id="DejaVuSans-69" d="M 603 3500 
L 1178 3500 
L 1178 0 
L 603 0 
L 603 3500 
z
M 603 4863 
L 1178 4863 
L 1178 4134 
L 603 4134 
L 603 4863 
z
" transform="scale(0.015625)"/>
       <path id="DejaVuSans-63" d="M 3122 3366 
L 3122 2828 
Q 2878 2963 2633 3030 
Q 2388 3097 2138 3097 
Q 1578 3097 1268 2742 
Q 959 2388 959 1747 
Q 959 1106 1268 751 
Q 1578 397 2138 397 
Q 2388 397 2633 464 
Q 2878 531 3122 666 
L 3122 134 
Q 2881 22 2623 -34 
Q 2366 -91 2075 -91 
Q 1284 -91 818 406 
Q 353 903 353 1747 
Q 353 2603 823 3093 
Q 1294 3584 2113 3584 
Q 2378 3584 2631 3529 
Q 2884 3475 3122 3366 
z
" transform="scale(0.015625)"/>
       <path id="DejaVuSans-20" transform="scale(0.015625)"/>
       <path id="DejaVuSans-56" d="M 1831 0 
L 50 4666 
L 709 4666 
L 2188 738 
L 3669 4666 
L 4325 4666 
L 2547 0 
L 1831 0 
z
" transform="scale(0.015625)"/>
       <path id="DejaVuSans-61" d="M 2194 1759 
Q 1497 1759 1228 1600 
Q 959 1441 959 1056 
Q 959 750 1161 570 
Q 1363 391 1709 391 
Q 2188 391 2477 730 
Q 2766 1069 2766 1631 
L 2766 1759 
L 2194 1759 
z
M 3341 1997 
L 3341 0 
L 2766 0 
L 2766 531 
Q 2569 213 2275 61 
Q 1981 -91 1556 -91 
Q 1019 -91 701 211 
Q 384 513 384 1019 
Q 384 1609 779 1909 
Q 1175 2209 1959 2209 
L 2766 2209 
L 2766 2266 
Q 2766 2663 2505 2880 
Q 2244 3097 1772 3097 
Q 1472 3097 1187 3025 
Q 903 2953 641 2809 
L 641 3341 
Q 956 3463 1253 3523 
Q 1550 3584 1831 3584 
Q 2591 3584 2966 3190 
Q 3341 2797 3341 1997 
z
" transform="scale(0.015625)"/>
       <path id="DejaVuSans-6c" d="M 603 4863 
L 1178 4863 
L 1178 0 
L 603 0 
L 603 4863 
z
" transform="scale(0.015625)"/>
       <path id="DejaVuSans-75" d="M 544 1381 
L 544 3500 
L 1119 3500 
L 1119 1403 
Q 1119 906 1312 657 
Q 1506 409 1894 409 
Q 2359 409 2629 706 
Q 2900 1003 2900 1516 
L 2900 3500 
L 3475 3500 
L 3475 0 
L 2900 0 
L 2900 538 
Q 2691 219 2414 64 
Q 2138 -91 1772 -91 
Q 1169 -91 856 284 
Q 544 659 544 1381 
z
M 1991 3584 
L 1991 3584 
z
" transform="scale(0.015625)"/>
      </defs>
      <use xlink:href="#DejaVuSans-4d"/>
      <use xlink:href="#DejaVuSans-65" x="86.279297"/>
      <use xlink:href="#DejaVuSans-74" x="147.802734"/>
      <use xlink:href="#DejaVuSans-72" x="187.011719"/>
      <use xlink:href="#DejaVuSans-69" x="228.125"/>
      <use xlink:href="#DejaVuSans-63" x="255.908203"/>
      <use xlink:href="#DejaVuSans-20" x="310.888672"/>
      <use xlink:href="#DejaVuSans-56" x="342.675781"/>
      <use xlink:href="#DejaVuSans-61" x="403.333984"/>
      <use xlink:href="#DejaVuSans-6c" x="464.613281"/>
      <use xlink:href="#DejaVuSans-75" x="492.396484"/>
      <use xlink:href="#DejaVuSans-65" x="555.775391"/>
     </g>
    </g>
   </g>
   <g id="patch_20">
    <path d="M 591.545455 418.130526 
L 591.545455 155.52 
" style="fill: none; stroke: #000000; stroke-width: 0.8; stroke-linejoin: miter; stroke-linecap: square"/>
   </g>
   <g id="patch_21">
    <path d="M 972 418.130526 
L 972 155.52 
" style="fill: none; stroke: #000000; stroke-width: 0.8; stroke-linejoin: miter; stroke-linecap: square"/>
   </g>
   <g id="patch_22">
    <path d="M 591.545455 418.130526 
L 972 418.130526 
" style="fill: none; stroke: #000000; stroke-width: 0.8; stroke-linejoin: miter; stroke-linecap: square"/>
   </g>
   <g id="patch_23">
    <path d="M 591.545455 155.52 
L 972 155.52 
" style="fill: none; stroke: #000000; stroke-width: 0.8; stroke-linejoin: miter; stroke-linecap: square"/>
   </g>
   <g id="text_25">
    <!-- b -->
    <g transform="translate(544.871761 137.404046) scale(0.28 -0.28)">
     <defs>
      <path id="DejaVuSans-Bold-62" d="M 2400 722 
Q 2759 722 2948 984 
Q 3138 1247 3138 1747 
Q 3138 2247 2948 2509 
Q 2759 2772 2400 2772 
Q 2041 2772 1848 2508 
Q 1656 2244 1656 1747 
Q 1656 1250 1848 986 
Q 2041 722 2400 722 
z
M 1656 2988 
Q 1888 3294 2169 3439 
Q 2450 3584 2816 3584 
Q 3463 3584 3878 3070 
Q 4294 2556 4294 1747 
Q 4294 938 3878 423 
Q 3463 -91 2816 -91 
Q 2450 -91 2169 54 
Q 1888 200 1656 506 
L 1656 0 
L 538 0 
L 538 4863 
L 1656 4863 
L 1656 2988 
z
" transform="scale(0.015625)"/>
     </defs>
     <use xlink:href="#DejaVuSans-Bold-62"/>
    </g>
   </g>
   <g id="text_26">
    <!-- Metrics -->
    <g transform="translate(734.584759 149.52) scale(0.26 -0.26)">
     <defs>
      <path id="DejaVuSans-73" d="M 2834 3397 
L 2834 2853 
Q 2591 2978 2328 3040 
Q 2066 3103 1784 3103 
Q 1356 3103 1142 2972 
Q 928 2841 928 2578 
Q 928 2378 1081 2264 
Q 1234 2150 1697 2047 
L 1894 2003 
Q 2506 1872 2764 1633 
Q 3022 1394 3022 966 
Q 3022 478 2636 193 
Q 2250 -91 1575 -91 
Q 1294 -91 989 -36 
Q 684 19 347 128 
L 347 722 
Q 666 556 975 473 
Q 1284 391 1588 391 
Q 1994 391 2212 530 
Q 2431 669 2431 922 
Q 2431 1156 2273 1281 
Q 2116 1406 1581 1522 
L 1381 1569 
Q 847 1681 609 1914 
Q 372 2147 372 2553 
Q 372 3047 722 3315 
Q 1072 3584 1716 3584 
Q 2034 3584 2315 3537 
Q 2597 3491 2834 3397 
z
" transform="scale(0.015625)"/>
     </defs>
     <use xlink:href="#DejaVuSans-4d"/>
     <use xlink:href="#DejaVuSans-65" x="86.279297"/>
     <use xlink:href="#DejaVuSans-74" x="147.802734"/>
     <use xlink:href="#DejaVuSans-72" x="187.011719"/>
     <use xlink:href="#DejaVuSans-69" x="228.125"/>
     <use xlink:href="#DejaVuSans-63" x="255.908203"/>
     <use xlink:href="#DejaVuSans-73" x="310.888672"/>
    </g>
   </g>
  </g>
  <g id="axes_3">
   <g id="patch_24">
    <path d="M 135 785.785263 
L 515.454545 785.785263 
L 515.454545 523.174737 
L 135 523.174737 
z
" style="fill: #ffffff"/>
   </g>
   <g id="matplotlib.axis_5">
    <g id="xtick_10">
     <g id="line2d_24">
      <g>
       <use xlink:href="#me394547663" x="137.882231" y="785.785263" style="stroke: #000000; stroke-width: 0.8"/>
      </g>
     </g>
     <g id="text_27">
      <!-- 0 -->
      <g transform="translate(130.883481 809.501826) scale(0.22 -0.22)">
       <use xlink:href="#DejaVuSans-30"/>
      </g>
     </g>
    </g>
    <g id="xtick_11">
     <g id="line2d_25">
      <g>
       <use xlink:href="#me394547663" x="281.993802" y="785.785263" style="stroke: #000000; stroke-width: 0.8"/>
      </g>
     </g>
     <g id="text_28">
      <!-- 20 -->
      <g transform="translate(267.996302 809.501826) scale(0.22 -0.22)">
       <use xlink:href="#DejaVuSans-32"/>
       <use xlink:href="#DejaVuSans-30" x="63.623047"/>
      </g>
     </g>
    </g>
    <g id="xtick_12">
     <g id="line2d_26">
      <g>
       <use xlink:href="#me394547663" x="426.105372" y="785.785263" style="stroke: #000000; stroke-width: 0.8"/>
      </g>
     </g>
     <g id="text_29">
      <!-- 40 -->
      <g transform="translate(412.107872 809.501826) scale(0.22 -0.22)">
       <use xlink:href="#DejaVuSans-34"/>
       <use xlink:href="#DejaVuSans-30" x="63.623047"/>
      </g>
     </g>
    </g>
    <g id="text_30">
     <!-- k -->
     <g transform="translate(318.278523 836.313388) scale(0.24 -0.24)">
      <use xlink:href="#DejaVuSans-6b"/>
     </g>
    </g>
   </g>
   <g id="matplotlib.axis_6">
    <g id="ytick_11">
     <g id="line2d_27">
      <g>
       <use xlink:href="#mcdb1f4bc4e" x="135" y="768.875579" style="stroke: #000000; stroke-width: 0.8"/>
      </g>
     </g>
     <g id="text_31">
      <!-- 0.85 -->
      <g transform="translate(79.015625 777.23386) scale(0.22 -0.22)">
       <use xlink:href="#DejaVuSans-30"/>
       <use xlink:href="#DejaVuSans-2e" x="63.623047"/>
       <use xlink:href="#DejaVuSans-38" x="95.410156"/>
       <use xlink:href="#DejaVuSans-35" x="159.033203"/>
      </g>
     </g>
    </g>
    <g id="ytick_12">
     <g id="line2d_28">
      <g>
       <use xlink:href="#mcdb1f4bc4e" x="135" y="689.334495" style="stroke: #000000; stroke-width: 0.8"/>
      </g>
     </g>
     <g id="text_32">
      <!-- 0.90 -->
      <g transform="translate(79.015625 697.692777) scale(0.22 -0.22)">
       <defs>
        <path id="DejaVuSans-39" d="M 703 97 
L 703 672 
Q 941 559 1184 500 
Q 1428 441 1663 441 
Q 2288 441 2617 861 
Q 2947 1281 2994 2138 
Q 2813 1869 2534 1725 
Q 2256 1581 1919 1581 
Q 1219 1581 811 2004 
Q 403 2428 403 3163 
Q 403 3881 828 4315 
Q 1253 4750 1959 4750 
Q 2769 4750 3195 4129 
Q 3622 3509 3622 2328 
Q 3622 1225 3098 567 
Q 2575 -91 1691 -91 
Q 1453 -91 1209 -44 
Q 966 3 703 97 
z
M 1959 2075 
Q 2384 2075 2632 2365 
Q 2881 2656 2881 3163 
Q 2881 3666 2632 3958 
Q 2384 4250 1959 4250 
Q 1534 4250 1286 3958 
Q 1038 3666 1038 3163 
Q 1038 2656 1286 2365 
Q 1534 2075 1959 2075 
z
" transform="scale(0.015625)"/>
       </defs>
       <use xlink:href="#DejaVuSans-30"/>
       <use xlink:href="#DejaVuSans-2e" x="63.623047"/>
       <use xlink:href="#DejaVuSans-39" x="95.410156"/>
       <use xlink:href="#DejaVuSans-30" x="159.033203"/>
      </g>
     </g>
    </g>
    <g id="ytick_13">
     <g id="line2d_29">
      <g>
       <use xlink:href="#mcdb1f4bc4e" x="135" y="609.793412" style="stroke: #000000; stroke-width: 0.8"/>
      </g>
     </g>
     <g id="text_33">
      <!-- 0.95 -->
      <g transform="translate(79.015625 618.151694) scale(0.22 -0.22)">
       <use xlink:href="#DejaVuSans-30"/>
       <use xlink:href="#DejaVuSans-2e" x="63.623047"/>
       <use xlink:href="#DejaVuSans-39" x="95.410156"/>
       <use xlink:href="#DejaVuSans-35" x="159.033203"/>
      </g>
     </g>
    </g>
    <g id="ytick_14">
     <g id="line2d_30">
      <g>
       <use xlink:href="#mcdb1f4bc4e" x="135" y="530.252329" style="stroke: #000000; stroke-width: 0.8"/>
      </g>
     </g>
     <g id="text_34">
      <!-- 1.00 -->
      <g transform="translate(79.015625 538.61061) scale(0.22 -0.22)">
       <use xlink:href="#DejaVuSans-31"/>
       <use xlink:href="#DejaVuSans-2e" x="63.623047"/>
       <use xlink:href="#DejaVuSans-30" x="95.410156"/>
       <use xlink:href="#DejaVuSans-30" x="159.033203"/>
      </g>
     </g>
    </g>
    <g id="text_35">
     <!-- Metric Value -->
     <g transform="translate(70.024375 728.555625) rotate(-90) scale(0.24 -0.24)">
      <use xlink:href="#DejaVuSans-4d"/>
      <use xlink:href="#DejaVuSans-65" x="86.279297"/>
      <use xlink:href="#DejaVuSans-74" x="147.802734"/>
      <use xlink:href="#DejaVuSans-72" x="187.011719"/>
      <use xlink:href="#DejaVuSans-69" x="228.125"/>
      <use xlink:href="#DejaVuSans-63" x="255.908203"/>
      <use xlink:href="#DejaVuSans-20" x="310.888672"/>
      <use xlink:href="#DejaVuSans-56" x="342.675781"/>
      <use xlink:href="#DejaVuSans-61" x="403.333984"/>
      <use xlink:href="#DejaVuSans-6c" x="464.613281"/>
      <use xlink:href="#DejaVuSans-75" x="492.396484"/>
      <use xlink:href="#DejaVuSans-65" x="555.775391"/>
     </g>
    </g>
   </g>
   <g id="line2d_31">
    <path d="M 152.293388 747.817293 
L 173.910124 753.132093 
L 209.938017 762.056863 
L 281.993802 768.546577 
L 498.161157 773.848421 
" clip-path="url(#pddc0b3e5fc)" style="fill: none; stroke: #1f77b4; stroke-width: 1.5; stroke-linecap: square"/>
    <g clip-path="url(#pddc0b3e5fc)">
     <use xlink:href="#m6209dab815" x="152.293388" y="747.817293" style="fill: #1f77b4; stroke: #1f77b4"/>
     <use xlink:href="#m6209dab815" x="173.910124" y="753.132093" style="fill: #1f77b4; stroke: #1f77b4"/>
     <use xlink:href="#m6209dab815" x="209.938017" y="762.056863" style="fill: #1f77b4; stroke: #1f77b4"/>
     <use xlink:href="#m6209dab815" x="281.993802" y="768.546577" style="fill: #1f77b4; stroke: #1f77b4"/>
     <use xlink:href="#m6209dab815" x="498.161157" y="773.848421" style="fill: #1f77b4; stroke: #1f77b4"/>
    </g>
   </g>
   <g id="line2d_32">
    <path d="M 152.293388 535.111579 
L 173.910124 541.319518 
L 209.938017 550.418277 
L 281.993802 567.768161 
L 498.161157 613.167921 
" clip-path="url(#pddc0b3e5fc)" style="fill: none; stroke: #ff7f0e; stroke-width: 1.5; stroke-linecap: square"/>
    <g clip-path="url(#pddc0b3e5fc)">
     <use xlink:href="#m1947a5792a" x="152.293388" y="535.111579" style="fill: #ff7f0e; stroke: #ff7f0e"/>
     <use xlink:href="#m1947a5792a" x="173.910124" y="541.319518" style="fill: #ff7f0e; stroke: #ff7f0e"/>
     <use xlink:href="#m1947a5792a" x="209.938017" y="550.418277" style="fill: #ff7f0e; stroke: #ff7f0e"/>
     <use xlink:href="#m1947a5792a" x="281.993802" y="567.768161" style="fill: #ff7f0e; stroke: #ff7f0e"/>
     <use xlink:href="#m1947a5792a" x="498.161157" y="613.167921" style="fill: #ff7f0e; stroke: #ff7f0e"/>
    </g>
   </g>
   <g id="line2d_33">
    <path d="M 152.293388 549.824456 
L 173.910124 555.084854 
L 209.938017 562.171816 
L 281.993802 581.031664 
L 498.161157 645.153292 
" clip-path="url(#pddc0b3e5fc)" style="fill: none; stroke: #2ca02c; stroke-width: 1.5; stroke-linecap: square"/>
    <g clip-path="url(#pddc0b3e5fc)">
     <use xlink:href="#m6493caa6d5" x="152.293388" y="549.824456" style="fill: #2ca02c; stroke: #2ca02c"/>
     <use xlink:href="#m6493caa6d5" x="173.910124" y="555.084854" style="fill: #2ca02c; stroke: #2ca02c"/>
     <use xlink:href="#m6493caa6d5" x="209.938017" y="562.171816" style="fill: #2ca02c; stroke: #2ca02c"/>
     <use xlink:href="#m6493caa6d5" x="281.993802" y="581.031664" style="fill: #2ca02c; stroke: #2ca02c"/>
     <use xlink:href="#m6493caa6d5" x="498.161157" y="645.153292" style="fill: #2ca02c; stroke: #2ca02c"/>
    </g>
   </g>
   <g id="line2d_34">
    <path d="M 152.293388 551.480966 
L 173.910124 553.938183 
L 209.938017 559.239854 
L 281.993802 566.711081 
L 498.161157 596.660913 
" clip-path="url(#pddc0b3e5fc)" style="fill: none; stroke: #d62728; stroke-width: 1.5; stroke-linecap: square"/>
    <g clip-path="url(#pddc0b3e5fc)">
     <use xlink:href="#m8971067763" x="152.293388" y="551.480966" style="fill: #d62728; stroke: #d62728"/>
     <use xlink:href="#m8971067763" x="173.910124" y="553.938183" style="fill: #d62728; stroke: #d62728"/>
     <use xlink:href="#m8971067763" x="209.938017" y="559.239854" style="fill: #d62728; stroke: #d62728"/>
     <use xlink:href="#m8971067763" x="281.993802" y="566.711081" style="fill: #d62728; stroke: #d62728"/>
     <use xlink:href="#m8971067763" x="498.161157" y="596.660913" style="fill: #d62728; stroke: #d62728"/>
    </g>
   </g>
   <g id="patch_25">
    <path d="M 135 785.785263 
L 135 523.174737 
" style="fill: none; stroke: #000000; stroke-width: 0.8; stroke-linejoin: miter; stroke-linecap: square"/>
   </g>
   <g id="patch_26">
    <path d="M 515.454545 785.785263 
L 515.454545 523.174737 
" style="fill: none; stroke: #000000; stroke-width: 0.8; stroke-linejoin: miter; stroke-linecap: square"/>
   </g>
   <g id="patch_27">
    <path d="M 135 785.785263 
L 515.454545 785.785263 
" style="fill: none; stroke: #000000; stroke-width: 0.8; stroke-linejoin: miter; stroke-linecap: square"/>
   </g>
   <g id="patch_28">
    <path d="M 135 523.174737 
L 515.454545 523.174737 
" style="fill: none; stroke: #000000; stroke-width: 0.8; stroke-linejoin: miter; stroke-linecap: square"/>
   </g>
   <g id="text_36">
    <!-- c -->
    <g transform="translate(91.769432 505.058783) scale(0.28 -0.28)">
     <defs>
      <path id="DejaVuSans-Bold-63" d="M 3366 3391 
L 3366 2478 
Q 3138 2634 2908 2709 
Q 2678 2784 2431 2784 
Q 1963 2784 1702 2511 
Q 1441 2238 1441 1747 
Q 1441 1256 1702 982 
Q 1963 709 2431 709 
Q 2694 709 2930 787 
Q 3166 866 3366 1019 
L 3366 103 
Q 3103 6 2833 -42 
Q 2563 -91 2291 -91 
Q 1344 -91 809 395 
Q 275 881 275 1747 
Q 275 2613 809 3098 
Q 1344 3584 2291 3584 
Q 2566 3584 2833 3536 
Q 3100 3488 3366 3391 
z
" transform="scale(0.015625)"/>
     </defs>
     <use xlink:href="#DejaVuSans-Bold-63"/>
    </g>
   </g>
   <g id="text_37">
    <!-- Trustworthiness -->
    <g transform="translate(230.950398 517.174737) scale(0.24 -0.24)">
     <defs>
      <path id="DejaVuSans-54" d="M -19 4666 
L 3928 4666 
L 3928 4134 
L 2272 4134 
L 2272 0 
L 1638 0 
L 1638 4134 
L -19 4134 
L -19 4666 
z
" transform="scale(0.015625)"/>
      <path id="DejaVuSans-77" d="M 269 3500 
L 844 3500 
L 1563 769 
L 2278 3500 
L 2956 3500 
L 3675 769 
L 4391 3500 
L 4966 3500 
L 4050 0 
L 3372 0 
L 2619 2869 
L 1863 0 
L 1184 0 
L 269 3500 
z
" transform="scale(0.015625)"/>
      <path id="DejaVuSans-6f" d="M 1959 3097 
Q 1497 3097 1228 2736 
Q 959 2375 959 1747 
Q 959 1119 1226 758 
Q 1494 397 1959 397 
Q 2419 397 2687 759 
Q 2956 1122 2956 1747 
Q 2956 2369 2687 2733 
Q 2419 3097 1959 3097 
z
M 1959 3584 
Q 2709 3584 3137 3096 
Q 3566 2609 3566 1747 
Q 3566 888 3137 398 
Q 2709 -91 1959 -91 
Q 1206 -91 779 398 
Q 353 888 353 1747 
Q 353 2609 779 3096 
Q 1206 3584 1959 3584 
z
" transform="scale(0.015625)"/>
      <path id="DejaVuSans-68" d="M 3513 2113 
L 3513 0 
L 2938 0 
L 2938 2094 
Q 2938 2591 2744 2837 
Q 2550 3084 2163 3084 
Q 1697 3084 1428 2787 
Q 1159 2491 1159 1978 
L 1159 0 
L 581 0 
L 581 4863 
L 1159 4863 
L 1159 2956 
Q 1366 3272 1645 3428 
Q 1925 3584 2291 3584 
Q 2894 3584 3203 3211 
Q 3513 2838 3513 2113 
z
" transform="scale(0.015625)"/>
      <path id="DejaVuSans-6e" d="M 3513 2113 
L 3513 0 
L 2938 0 
L 2938 2094 
Q 2938 2591 2744 2837 
Q 2550 3084 2163 3084 
Q 1697 3084 1428 2787 
Q 1159 2491 1159 1978 
L 1159 0 
L 581 0 
L 581 3500 
L 1159 3500 
L 1159 2956 
Q 1366 3272 1645 3428 
Q 1925 3584 2291 3584 
Q 2894 3584 3203 3211 
Q 3513 2838 3513 2113 
z
" transform="scale(0.015625)"/>
     </defs>
     <use xlink:href="#DejaVuSans-54"/>
     <use xlink:href="#DejaVuSans-72" x="46.333984"/>
     <use xlink:href="#DejaVuSans-75" x="87.447266"/>
     <use xlink:href="#DejaVuSans-73" x="150.826172"/>
     <use xlink:href="#DejaVuSans-74" x="202.925781"/>
     <use xlink:href="#DejaVuSans-77" x="242.134766"/>
     <use xlink:href="#DejaVuSans-6f" x="323.921875"/>
     <use xlink:href="#DejaVuSans-72" x="385.103516"/>
     <use xlink:href="#DejaVuSans-74" x="426.216797"/>
     <use xlink:href="#DejaVuSans-68" x="465.425781"/>
     <use xlink:href="#DejaVuSans-69" x="528.804688"/>
     <use xlink:href="#DejaVuSans-6e" x="556.587891"/>
     <use xlink:href="#DejaVuSans-65" x="619.966797"/>
     <use xlink:href="#DejaVuSans-73" x="681.490234"/>
     <use xlink:href="#DejaVuSans-73" x="733.589844"/>
    </g>
   </g>
  </g>
  <g id="axes_4">
   <g id="patch_29">
    <path d="M 591.545455 785.785263 
L 972 785.785263 
L 972 523.174737 
L 591.545455 523.174737 
z
" style="fill: #ffffff"/>
   </g>
   <g id="matplotlib.axis_7">
    <g id="xtick_13">
     <g id="line2d_35">
      <g>
       <use xlink:href="#me394547663" x="594.427686" y="785.785263" style="stroke: #000000; stroke-width: 0.8"/>
      </g>
     </g>
     <g id="text_38">
      <!-- 0 -->
      <g transform="translate(587.428936 809.501826) scale(0.22 -0.22)">
       <use xlink:href="#DejaVuSans-30"/>
      </g>
     </g>
    </g>
    <g id="xtick_14">
     <g id="line2d_36">
      <g>
       <use xlink:href="#me394547663" x="738.539256" y="785.785263" style="stroke: #000000; stroke-width: 0.8"/>
      </g>
     </g>
     <g id="text_39">
      <!-- 20 -->
      <g transform="translate(724.541756 809.501826) scale(0.22 -0.22)">
       <use xlink:href="#DejaVuSans-32"/>
       <use xlink:href="#DejaVuSans-30" x="63.623047"/>
      </g>
     </g>
    </g>
    <g id="xtick_15">
     <g id="line2d_37">
      <g>
       <use xlink:href="#me394547663" x="882.650826" y="785.785263" style="stroke: #000000; stroke-width: 0.8"/>
      </g>
     </g>
     <g id="text_40">
      <!-- 40 -->
      <g transform="translate(868.653326 809.501826) scale(0.22 -0.22)">
       <use xlink:href="#DejaVuSans-34"/>
       <use xlink:href="#DejaVuSans-30" x="63.623047"/>
      </g>
     </g>
    </g>
    <g id="text_41">
     <!-- k -->
     <g transform="translate(774.823977 836.313388) scale(0.24 -0.24)">
      <use xlink:href="#DejaVuSans-6b"/>
     </g>
    </g>
   </g>
   <g id="matplotlib.axis_8">
    <g id="ytick_15">
     <g id="line2d_38">
      <g>
       <use xlink:href="#mcdb1f4bc4e" x="591.545455" y="719.865117" style="stroke: #000000; stroke-width: 0.8"/>
      </g>
     </g>
     <g id="text_42">
      <!-- 0.90 -->
      <g transform="translate(535.56108 728.223399) scale(0.22 -0.22)">
       <use xlink:href="#DejaVuSans-30"/>
       <use xlink:href="#DejaVuSans-2e" x="63.623047"/>
       <use xlink:href="#DejaVuSans-39" x="95.410156"/>
       <use xlink:href="#DejaVuSans-30" x="159.033203"/>
      </g>
     </g>
    </g>
    <g id="ytick_16">
     <g id="line2d_39">
      <g>
       <use xlink:href="#mcdb1f4bc4e" x="591.545455" y="615.27834" style="stroke: #000000; stroke-width: 0.8"/>
      </g>
     </g>
     <g id="text_43">
      <!-- 0.95 -->
      <g transform="translate(535.56108 623.636621) scale(0.22 -0.22)">
       <use xlink:href="#DejaVuSans-30"/>
       <use xlink:href="#DejaVuSans-2e" x="63.623047"/>
       <use xlink:href="#DejaVuSans-39" x="95.410156"/>
       <use xlink:href="#DejaVuSans-35" x="159.033203"/>
      </g>
     </g>
    </g>
   </g>
   <g id="line2d_40">
    <path d="M 608.838843 557.09272 
L 630.455579 576.112785 
L 666.483471 601.923663 
L 738.539256 631.929267 
L 954.706612 680.888964 
" clip-path="url(#pe15d751d79)" style="fill: none; stroke: #1f77b4; stroke-width: 1.5; stroke-linecap: square"/>
    <g clip-path="url(#pe15d751d79)">
     <use xlink:href="#m6209dab815" x="608.838843" y="557.09272" style="fill: #1f77b4; stroke: #1f77b4"/>
     <use xlink:href="#m6209dab815" x="630.455579" y="576.112785" style="fill: #1f77b4; stroke: #1f77b4"/>
     <use xlink:href="#m6209dab815" x="666.483471" y="601.923663" style="fill: #1f77b4; stroke: #1f77b4"/>
     <use xlink:href="#m6209dab815" x="738.539256" y="631.929267" style="fill: #1f77b4; stroke: #1f77b4"/>
     <use xlink:href="#m6209dab815" x="954.706612" y="680.888964" style="fill: #1f77b4; stroke: #1f77b4"/>
    </g>
   </g>
   <g id="line2d_41">
    <path d="M 608.838843 535.111579 
L 630.455579 550.719315 
L 666.483471 576.394434 
L 738.539256 611.039879 
L 954.706612 688.638885 
" clip-path="url(#pe15d751d79)" style="fill: none; stroke: #ff7f0e; stroke-width: 1.5; stroke-linecap: square"/>
    <g clip-path="url(#pe15d751d79)">
     <use xlink:href="#m1947a5792a" x="608.838843" y="535.111579" style="fill: #ff7f0e; stroke: #ff7f0e"/>
     <use xlink:href="#m1947a5792a" x="630.455579" y="550.719315" style="fill: #ff7f0e; stroke: #ff7f0e"/>
     <use xlink:href="#m1947a5792a" x="666.483471" y="576.394434" style="fill: #ff7f0e; stroke: #ff7f0e"/>
     <use xlink:href="#m1947a5792a" x="738.539256" y="611.039879" style="fill: #ff7f0e; stroke: #ff7f0e"/>
     <use xlink:href="#m1947a5792a" x="954.706612" y="688.638885" style="fill: #ff7f0e; stroke: #ff7f0e"/>
    </g>
   </g>
   <g id="line2d_42">
    <path d="M 608.838843 538.465058 
L 630.455579 552.183721 
L 666.483471 578.93411 
L 738.539256 619.301517 
L 954.706612 704.73806 
" clip-path="url(#pe15d751d79)" style="fill: none; stroke: #2ca02c; stroke-width: 1.5; stroke-linecap: square"/>
    <g clip-path="url(#pe15d751d79)">
     <use xlink:href="#m6493caa6d5" x="608.838843" y="538.465058" style="fill: #2ca02c; stroke: #2ca02c"/>
     <use xlink:href="#m6493caa6d5" x="630.455579" y="552.183721" style="fill: #2ca02c; stroke: #2ca02c"/>
     <use xlink:href="#m6493caa6d5" x="666.483471" y="578.93411" style="fill: #2ca02c; stroke: #2ca02c"/>
     <use xlink:href="#m6493caa6d5" x="738.539256" y="619.301517" style="fill: #2ca02c; stroke: #2ca02c"/>
     <use xlink:href="#m6493caa6d5" x="954.706612" y="704.73806" style="fill: #2ca02c; stroke: #2ca02c"/>
    </g>
   </g>
   <g id="line2d_43">
    <path d="M 608.838843 576.357681 
L 630.455579 596.259871 
L 666.483471 629.132277 
L 738.539256 672.472962 
L 954.706612 773.848421 
" clip-path="url(#pe15d751d79)" style="fill: none; stroke: #d62728; stroke-width: 1.5; stroke-linecap: square"/>
    <g clip-path="url(#pe15d751d79)">
     <use xlink:href="#m8971067763" x="608.838843" y="576.357681" style="fill: #d62728; stroke: #d62728"/>
     <use xlink:href="#m8971067763" x="630.455579" y="596.259871" style="fill: #d62728; stroke: #d62728"/>
     <use xlink:href="#m8971067763" x="666.483471" y="629.132277" style="fill: #d62728; stroke: #d62728"/>
     <use xlink:href="#m8971067763" x="738.539256" y="672.472962" style="fill: #d62728; stroke: #d62728"/>
     <use xlink:href="#m8971067763" x="954.706612" y="773.848421" style="fill: #d62728; stroke: #d62728"/>
    </g>
   </g>
   <g id="patch_30">
    <path d="M 591.545455 785.785263 
L 591.545455 523.174737 
" style="fill: none; stroke: #000000; stroke-width: 0.8; stroke-linejoin: miter; stroke-linecap: square"/>
   </g>
   <g id="patch_31">
    <path d="M 972 785.785263 
L 972 523.174737 
" style="fill: none; stroke: #000000; stroke-width: 0.8; stroke-linejoin: miter; stroke-linecap: square"/>
   </g>
   <g id="patch_32">
    <path d="M 591.545455 785.785263 
L 972 785.785263 
" style="fill: none; stroke: #000000; stroke-width: 0.8; stroke-linejoin: miter; stroke-linecap: square"/>
   </g>
   <g id="patch_33">
    <path d="M 591.545455 523.174737 
L 972 523.174737 
" style="fill: none; stroke: #000000; stroke-width: 0.8; stroke-linejoin: miter; stroke-linecap: square"/>
   </g>
   <g id="text_44">
    <!-- d -->
    <g transform="translate(544.871761 505.058783) scale(0.28 -0.28)">
     <defs>
      <path id="DejaVuSans-Bold-64" d="M 2919 2988 
L 2919 4863 
L 4044 4863 
L 4044 0 
L 2919 0 
L 2919 506 
Q 2688 197 2409 53 
Q 2131 -91 1766 -91 
Q 1119 -91 703 423 
Q 288 938 288 1747 
Q 288 2556 703 3070 
Q 1119 3584 1766 3584 
Q 2128 3584 2408 3439 
Q 2688 3294 2919 2988 
z
M 2181 722 
Q 2541 722 2730 984 
Q 2919 1247 2919 1747 
Q 2919 2247 2730 2509 
Q 2541 2772 2181 2772 
Q 1825 2772 1636 2509 
Q 1447 2247 1447 1747 
Q 1447 1247 1636 984 
Q 1825 722 2181 722 
z
" transform="scale(0.015625)"/>
     </defs>
     <use xlink:href="#DejaVuSans-Bold-64"/>
    </g>
   </g>
   <g id="text_45">
    <!-- Continuity -->
    <g transform="translate(720.057102 517.174737) scale(0.24 -0.24)">
     <defs>
      <path id="DejaVuSans-79" d="M 2059 -325 
Q 1816 -950 1584 -1140 
Q 1353 -1331 966 -1331 
L 506 -1331 
L 506 -850 
L 844 -850 
Q 1081 -850 1212 -737 
Q 1344 -625 1503 -206 
L 1606 56 
L 191 3500 
L 800 3500 
L 1894 763 
L 2988 3500 
L 3597 3500 
L 2059 -325 
z
" transform="scale(0.015625)"/>
     </defs>
     <use xlink:href="#DejaVuSans-43"/>
     <use xlink:href="#DejaVuSans-6f" x="69.824219"/>
     <use xlink:href="#DejaVuSans-6e" x="131.005859"/>
     <use xlink:href="#DejaVuSans-74" x="194.384766"/>
     <use xlink:href="#DejaVuSans-69" x="233.59375"/>
     <use xlink:href="#DejaVuSans-6e" x="261.376953"/>
     <use xlink:href="#DejaVuSans-75" x="324.755859"/>
     <use xlink:href="#DejaVuSans-69" x="388.134766"/>
     <use xlink:href="#DejaVuSans-74" x="415.917969"/>
     <use xlink:href="#DejaVuSans-79" x="455.126953"/>
    </g>
   </g>
  </g>
  <g id="axes_5">
   <g id="patch_34">
    <path d="M 135 1153.44 
L 515.454545 1153.44 
L 515.454545 890.829474 
L 135 890.829474 
z
" style="fill: #ffffff"/>
   </g>
   <g id="matplotlib.axis_9">
    <g id="xtick_16">
     <g id="line2d_44">
      <g>
       <use xlink:href="#me394547663" x="152.141492" y="1153.44" style="stroke: #000000; stroke-width: 0.8"/>
      </g>
     </g>
     <g id="text_46">
      <!-- 0 -->
      <g transform="translate(145.142742 1177.156562) scale(0.22 -0.22)">
       <use xlink:href="#DejaVuSans-30"/>
      </g>
     </g>
    </g>
    <g id="xtick_17">
     <g id="line2d_45">
      <g>
       <use xlink:href="#me394547663" x="304.037745" y="1153.44" style="stroke: #000000; stroke-width: 0.8"/>
      </g>
     </g>
     <g id="text_47">
      <!-- 1000 -->
      <g transform="translate(276.042745 1177.156562) scale(0.22 -0.22)">
       <use xlink:href="#DejaVuSans-31"/>
       <use xlink:href="#DejaVuSans-30" x="63.623047"/>
       <use xlink:href="#DejaVuSans-30" x="127.246094"/>
       <use xlink:href="#DejaVuSans-30" x="190.869141"/>
      </g>
     </g>
    </g>
    <g id="xtick_18">
     <g id="line2d_46">
      <g>
       <use xlink:href="#me394547663" x="455.933999" y="1153.44" style="stroke: #000000; stroke-width: 0.8"/>
      </g>
     </g>
     <g id="text_48">
      <!-- 2000 -->
      <g transform="translate(427.938999 1177.156562) scale(0.22 -0.22)">
       <use xlink:href="#DejaVuSans-32"/>
       <use xlink:href="#DejaVuSans-30" x="63.623047"/>
       <use xlink:href="#DejaVuSans-30" x="127.246094"/>
       <use xlink:href="#DejaVuSans-30" x="190.869141"/>
      </g>
     </g>
    </g>
    <g id="text_49">
     <!-- k -->
     <g transform="translate(318.278523 1203.968125) scale(0.24 -0.24)">
      <use xlink:href="#DejaVuSans-6b"/>
     </g>
    </g>
   </g>
   <g id="matplotlib.axis_10">
    <g id="ytick_17">
     <g id="line2d_47">
      <g>
       <use xlink:href="#mcdb1f4bc4e" x="135" y="1118.457599" style="stroke: #000000; stroke-width: 0.8"/>
      </g>
     </g>
     <g id="text_50">
      <!-- 0.2 -->
      <g transform="translate(93.013125 1126.815881) scale(0.22 -0.22)">
       <use xlink:href="#DejaVuSans-30"/>
       <use xlink:href="#DejaVuSans-2e" x="63.623047"/>
       <use xlink:href="#DejaVuSans-32" x="95.410156"/>
      </g>
     </g>
    </g>
    <g id="ytick_18">
     <g id="line2d_48">
      <g>
       <use xlink:href="#mcdb1f4bc4e" x="135" y="1064.534779" style="stroke: #000000; stroke-width: 0.8"/>
      </g>
     </g>
     <g id="text_51">
      <!-- 0.4 -->
      <g transform="translate(93.013125 1072.89306) scale(0.22 -0.22)">
       <use xlink:href="#DejaVuSans-30"/>
       <use xlink:href="#DejaVuSans-2e" x="63.623047"/>
       <use xlink:href="#DejaVuSans-34" x="95.410156"/>
      </g>
     </g>
    </g>
    <g id="ytick_19">
     <g id="line2d_49">
      <g>
       <use xlink:href="#mcdb1f4bc4e" x="135" y="1010.611958" style="stroke: #000000; stroke-width: 0.8"/>
      </g>
     </g>
     <g id="text_52">
      <!-- 0.6 -->
      <g transform="translate(93.013125 1018.970239) scale(0.22 -0.22)">
       <use xlink:href="#DejaVuSans-30"/>
       <use xlink:href="#DejaVuSans-2e" x="63.623047"/>
       <use xlink:href="#DejaVuSans-36" x="95.410156"/>
      </g>
     </g>
    </g>
    <g id="ytick_20">
     <g id="line2d_50">
      <g>
       <use xlink:href="#mcdb1f4bc4e" x="135" y="956.689137" style="stroke: #000000; stroke-width: 0.8"/>
      </g>
     </g>
     <g id="text_53">
      <!-- 0.8 -->
      <g transform="translate(93.013125 965.047418) scale(0.22 -0.22)">
       <use xlink:href="#DejaVuSans-30"/>
       <use xlink:href="#DejaVuSans-2e" x="63.623047"/>
       <use xlink:href="#DejaVuSans-38" x="95.410156"/>
      </g>
     </g>
    </g>
    <g id="ytick_21">
     <g id="line2d_51">
      <g>
       <use xlink:href="#mcdb1f4bc4e" x="135" y="902.766316" style="stroke: #000000; stroke-width: 0.8"/>
      </g>
     </g>
     <g id="text_54">
      <!-- 1.0 -->
      <g transform="translate(93.013125 911.124597) scale(0.22 -0.22)">
       <use xlink:href="#DejaVuSans-31"/>
       <use xlink:href="#DejaVuSans-2e" x="63.623047"/>
       <use xlink:href="#DejaVuSans-30" x="95.410156"/>
      </g>
     </g>
    </g>
    <g id="text_55">
     <!-- Metric Value -->
     <g transform="translate(84.021875 1096.210362) rotate(-90) scale(0.24 -0.24)">
      <use xlink:href="#DejaVuSans-4d"/>
      <use xlink:href="#DejaVuSans-65" x="86.279297"/>
      <use xlink:href="#DejaVuSans-74" x="147.802734"/>
      <use xlink:href="#DejaVuSans-72" x="187.011719"/>
      <use xlink:href="#DejaVuSans-69" x="228.125"/>
      <use xlink:href="#DejaVuSans-63" x="255.908203"/>
      <use xlink:href="#DejaVuSans-20" x="310.888672"/>
      <use xlink:href="#DejaVuSans-56" x="342.675781"/>
      <use xlink:href="#DejaVuSans-61" x="403.333984"/>
      <use xlink:href="#DejaVuSans-6c" x="464.613281"/>
      <use xlink:href="#DejaVuSans-75" x="492.396484"/>
      <use xlink:href="#DejaVuSans-65" x="555.775391"/>
     </g>
    </g>
   </g>
   <g id="line2d_52">
    <path d="M 152.293388 1141.503158 
L 152.597181 1129.436182 
L 153.356662 1120.947892 
L 154.723728 1112.539631 
L 155.635106 1108.558153 
L 155.938899 1107.796071 
L 156.394587 1106.079654 
L 158.369239 1099.182178 
L 159.736305 1095.270077 
L 163.381815 1087.492728 
L 164.596985 1084.965537 
L 166.41974 1081.326854 
L 173.558864 1066.7411 
L 177.204374 1060.268676 
L 178.115751 1058.661519 
L 178.723336 1057.642744 
L 181.913158 1052.512227 
L 184.799187 1048.373394 
L 186.166253 1046.344213 
L 189.963659 1040.970204 
L 192.849688 1037.126198 
L 194.520547 1035.008637 
L 196.950887 1031.999259 
L 200.444501 1027.889951 
L 201.659671 1026.527578 
L 203.33053 1024.784459 
L 206.368455 1021.954133 
L 210.165861 1018.921026 
L 211.077238 1018.275231 
L 212.596201 1017.230781 
L 213.963267 1016.277106 
L 214.874645 1015.666418 
L 219.887221 1012.642855 
L 224.899797 1009.995889 
L 226.874449 1009.132873 
L 228.393411 1008.388414 
L 233.102195 1006.456502 
L 238.114772 1004.643557 
L 243.583037 1002.688912 
L 245.253895 1002.062866 
L 275.936939 991.420341 
L 279.734345 990.14387 
L 294.316385 985.265949 
L 299.632754 983.518756 
L 322.265296 975.921936 
L 341.252327 969.142096 
L 346.113008 967.388756 
L 352.188858 965.236681 
L 366.619002 960.100036 
L 382.11242 954.40525 
L 387.884477 952.470177 
L 413.403048 944.533158 
L 422.668719 941.80268 
L 436.946967 936.900999 
L 446.668327 932.962615 
L 457.604857 927.91135 
L 464.592085 924.300463 
L 470.364143 921.027944 
L 482.515843 913.677179 
L 488.287901 909.877046 
L 495.578921 904.73023 
L 498.161157 902.766316 
L 498.161157 902.766316 
" clip-path="url(#pb7d60fc62c)" style="fill: none; stroke: #1f77b4; stroke-width: 1.5; stroke-linecap: square"/>
   </g>
   <g id="line2d_53">
    <path d="M 152.293388 1043.784312 
L 152.597181 1018.309584 
L 153.05287 1006.262325 
L 153.204766 1006.383446 
L 153.660455 1005.039854 
L 154.116143 1004.8988 
L 154.419936 1005.556447 
L 154.571832 1005.505675 
L 154.875625 1005.743104 
L 155.027521 1006.138833 
L 156.242691 1012.622244 
L 156.546484 1013.959544 
L 157.305965 1018.422089 
L 158.521135 1023.374109 
L 161.103371 1030.825045 
L 161.55906 1031.700162 
L 162.470437 1033.011717 
L 162.77423 1033.231623 
L 163.078022 1033.477103 
L 163.381815 1033.734893 
L 163.533711 1033.946177 
L 163.685607 1033.881048 
L 164.293192 1034.234247 
L 164.596985 1034.357528 
L 165.812155 1035.645018 
L 166.115947 1035.856679 
L 166.875429 1036.486072 
L 168.394391 1037.03879 
L 169.001976 1037.192345 
L 169.457665 1037.523556 
L 170.217146 1037.830356 
L 172.039901 1038.700865 
L 173.103175 1038.831845 
L 174.014553 1039.011908 
L 176.900581 1038.84604 
L 177.204374 1038.826312 
L 177.508166 1038.785804 
L 178.267648 1038.734395 
L 178.723336 1038.802036 
L 179.027129 1038.874374 
L 179.482818 1038.941747 
L 180.697988 1039.204449 
L 182.520743 1039.023771 
L 183.280224 1038.787856 
L 183.735913 1038.549942 
L 185.710564 1037.559182 
L 191.482622 1035.116169 
L 192.393999 1034.83966 
L 193.912962 1034.321737 
L 194.672443 1033.948628 
L 200.596397 1031.419537 
L 208.495002 1027.636337 
L 209.102587 1027.470075 
L 212.140512 1026.462256 
L 213.203786 1026.26948 
L 214.418956 1026.070787 
L 219.583429 1024.599663 
L 220.34291 1024.367225 
L 222.469457 1023.754705 
L 226.874449 1023.04053 
L 230.368063 1022.72258 
L 231.583233 1022.472004 
L 233.70978 1022.145752 
L 242.21597 1020.406266 
L 244.342518 1019.730463 
L 248.139924 1018.616512 
L 255.582841 1016.320484 
L 256.646114 1015.888715 
L 263.025757 1013.846672 
L 268.19023 1012.302214 
L 270.772466 1011.642215 
L 277.607797 1009.736625 
L 280.949515 1008.802413 
L 287.329158 1006.978041 
L 291.734149 1005.718588 
L 305.252915 1001.262469 
L 309.050322 999.828365 
L 314.974276 997.679202 
L 318.619786 996.20313 
L 320.594437 995.499979 
L 323.176673 994.704777 
L 330.61959 992.151447 
L 333.201826 991.188894 
L 336.391647 990.055517 
L 340.948535 988.113242 
L 363.581077 978.878251 
L 369.201238 976.356756 
L 372.542956 974.883217 
L 378.770702 972.236509 
L 385.909826 969.040903 
L 387.884477 968.150752 
L 398.669111 963.213377 
L 415.985284 954.937016 
L 426.314229 949.86652 
L 434.516627 945.301042 
L 438.921618 942.739114 
L 449.706252 936.289378 
L 456.69348 931.842884 
L 460.490886 929.437037 
L 468.389491 924.422482 
L 471.579313 922.413391 
L 476.288097 919.270013 
L 480.99688 915.943926 
L 487.376523 911.14331 
L 496.945987 903.703416 
L 498.161157 902.766316 
L 498.161157 902.766316 
" clip-path="url(#pb7d60fc62c)" style="fill: none; stroke: #ff7f0e; stroke-width: 1.5; stroke-linecap: square"/>
   </g>
   <g id="line2d_54">
    <path d="M 152.293388 1112.163843 
L 152.597181 1063.501593 
L 153.05287 1035.069273 
L 153.508558 1024.500811 
L 153.964247 1018.27015 
L 154.26804 1015.839291 
L 154.723728 1013.428977 
L 154.875625 1013.360547 
L 155.027521 1013.467435 
L 155.48321 1015.138687 
L 155.635106 1015.381139 
L 156.850276 1020.650216 
L 157.609757 1025.131764 
L 158.521135 1028.573838 
L 159.12872 1030.390277 
L 159.736305 1032.164523 
L 161.255267 1036.538211 
L 163.837504 1041.115565 
L 164.141296 1041.38679 
L 164.900777 1042.299882 
L 165.812155 1043.343959 
L 166.571636 1044.053297 
L 166.875429 1044.205083 
L 167.63491 1044.766696 
L 168.394391 1044.980616 
L 170.06525 1044.953313 
L 170.369043 1044.987066 
L 171.584213 1044.962727 
L 172.039901 1045.079331 
L 172.647486 1045.102302 
L 173.103175 1045.03936 
L 173.862656 1045.11378 
L 174.470241 1045.074385 
L 174.92593 1045.013881 
L 175.685411 1045.058939 
L 177.052478 1044.721363 
L 177.811959 1044.69924 
L 179.938507 1044.429487 
L 180.697988 1044.205926 
L 182.065054 1043.819743 
L 182.520743 1043.685528 
L 183.887809 1043.333739 
L 186.166253 1042.440192 
L 186.925734 1042.103263 
L 187.837112 1041.713745 
L 190.115555 1040.343567 
L 190.875037 1039.785647 
L 192.697792 1038.432288 
L 195.280028 1037.001428 
L 198.317953 1035.423276 
L 203.634322 1032.320021 
L 209.102587 1028.586231 
L 209.862068 1028.106271 
L 211.532927 1026.97248 
L 215.026541 1025.027462 
L 218.064466 1023.494957 
L 221.254287 1022.082995 
L 223.228939 1021.280827 
L 227.785826 1019.587644 
L 233.70978 1018.236884 
L 234.92495 1017.967191 
L 240.545112 1016.935269 
L 242.064074 1016.644407 
L 254.063878 1013.933171 
L 271.076258 1008.624244 
L 273.05091 1007.952859 
L 284.746921 1004.042945 
L 289.151913 1002.608857 
L 293.7088 1001.184829 
L 296.291036 1000.417097 
L 307.683255 997.343182 
L 309.657907 996.779188 
L 316.797031 994.741321 
L 325.303221 991.970202 
L 336.087855 988.155397 
L 356.13816 980.172251 
L 367.986068 974.514464 
L 372.087267 972.577093 
L 378.770702 969.588156 
L 390.011025 964.214732 
L 393.808431 962.211651 
L 402.618414 958.337339 
L 406.567716 956.789924 
L 413.858736 953.883122 
L 416.13718 953.099294 
L 420.390275 951.370173 
L 426.466126 948.439924 
L 433.149561 945.308642 
L 440.440581 941.530906 
L 443.630402 939.667203 
L 453.04797 933.976214 
L 483.275324 914.125912 
L 489.351174 909.610184 
L 498.161157 902.766316 
L 498.161157 902.766316 
" clip-path="url(#pb7d60fc62c)" style="fill: none; stroke: #2ca02c; stroke-width: 1.5; stroke-linecap: square"/>
   </g>
   <g id="line2d_55">
    <path d="M 152.293388 1092.762038 
L 152.597181 1064.014242 
L 153.356662 1037.928279 
L 153.812351 1031.297895 
L 155.027521 1021.568124 
L 155.179417 1021.087749 
L 155.331313 1020.168642 
L 155.938899 1019.427948 
L 156.242691 1019.610925 
L 156.394587 1019.485579 
L 156.69838 1019.871193 
L 157.154069 1020.926605 
L 157.457861 1021.634481 
L 158.673031 1022.470389 
L 158.976824 1022.797237 
L 160.191994 1024.159292 
L 160.495786 1024.468546 
L 160.799579 1024.942893 
L 161.103371 1025.158499 
L 161.55906 1025.8842 
L 162.926126 1027.386754 
L 163.685607 1028.535589 
L 164.141296 1029.051759 
L 164.445089 1029.349801 
L 165.356466 1030.512542 
L 165.812155 1030.949676 
L 167.786806 1032.913007 
L 168.546288 1033.551043 
L 169.153873 1034.050665 
L 171.736109 1036.329345 
L 173.255071 1037.3091 
L 174.774034 1038.651202 
L 176.1411 1039.706578 
L 176.748685 1040.111055 
L 177.35627 1040.476084 
L 179.482818 1041.415609 
L 182.065054 1042.09383 
L 183.128328 1042.231286 
L 183.735913 1042.225888 
L 184.64729 1042.307174 
L 186.621942 1042.317763 
L 190.571244 1042.286578 
L 194.520547 1041.644669 
L 205.001388 1039.36968 
L 207.887417 1038.332349 
L 208.646898 1038.057396 
L 210.469653 1037.278533 
L 212.140512 1036.730117 
L 214.115163 1036.136906 
L 215.178437 1035.835159 
L 218.672051 1034.829695 
L 221.254287 1034.165312 
L 224.899797 1033.049302 
L 226.874449 1032.645971 
L 228.545308 1032.26793 
L 229.456685 1032.084565 
L 232.038921 1031.513116 
L 232.950299 1031.242787 
L 234.317365 1030.817047 
L 235.532535 1030.456507 
L 236.747705 1030.147741 
L 249.658887 1027.035126 
L 251.025953 1026.72223 
L 254.063878 1026.210131 
L 257.557492 1025.50196 
L 259.532143 1024.977874 
L 264.240927 1023.782813 
L 267.278852 1022.943041 
L 270.012985 1022.201054 
L 276.240731 1020.392617 
L 277.607797 1019.923632 
L 280.190034 1019.045369 
L 281.5571 1018.576601 
L 283.98744 1017.883164 
L 287.025365 1017.001316 
L 294.772074 1014.643808 
L 314.670483 1008.004965 
L 328.341146 1002.994628 
L 331.83476 1001.762502 
L 341.100431 998.271533 
L 345.049734 996.539874 
L 348.543348 994.987838 
L 351.27748 993.776865 
L 359.935567 989.857201 
L 369.960719 985.57997 
L 374.061918 983.670248 
L 378.315013 981.726758 
L 382.11242 979.978538 
L 402.466517 969.727495 
L 409.453745 965.703808 
L 419.78269 959.29265 
L 427.985088 953.819243 
L 452.896074 936.69187 
L 458.364339 933.115378 
L 461.857953 930.706235 
L 472.035001 923.323295 
L 481.908258 915.665559 
L 498.161157 902.766316 
L 498.161157 902.766316 
" clip-path="url(#pb7d60fc62c)" style="fill: none; stroke: #d62728; stroke-width: 1.5; stroke-linecap: square"/>
   </g>
   <g id="patch_35">
    <path d="M 135 1153.44 
L 135 890.829474 
" style="fill: none; stroke: #000000; stroke-width: 0.8; stroke-linejoin: miter; stroke-linecap: square"/>
   </g>
   <g id="patch_36">
    <path d="M 515.454545 1153.44 
L 515.454545 890.829474 
" style="fill: none; stroke: #000000; stroke-width: 0.8; stroke-linejoin: miter; stroke-linecap: square"/>
   </g>
   <g id="patch_37">
    <path d="M 135 1153.44 
L 515.454545 1153.44 
" style="fill: none; stroke: #000000; stroke-width: 0.8; stroke-linejoin: miter; stroke-linecap: square"/>
   </g>
   <g id="patch_38">
    <path d="M 135 890.829474 
L 515.454545 890.829474 
" style="fill: none; stroke: #000000; stroke-width: 0.8; stroke-linejoin: miter; stroke-linecap: square"/>
   </g>
   <g id="text_56">
    <!-- e -->
    <g transform="translate(89.376307 872.71352) scale(0.28 -0.28)">
     <defs>
      <path id="DejaVuSans-Bold-65" d="M 4031 1759 
L 4031 1441 
L 1416 1441 
Q 1456 1047 1700 850 
Q 1944 653 2381 653 
Q 2734 653 3104 758 
Q 3475 863 3866 1075 
L 3866 213 
Q 3469 63 3072 -14 
Q 2675 -91 2278 -91 
Q 1328 -91 801 392 
Q 275 875 275 1747 
Q 275 2603 792 3093 
Q 1309 3584 2216 3584 
Q 3041 3584 3536 3087 
Q 4031 2591 4031 1759 
z
M 2881 2131 
Q 2881 2450 2695 2645 
Q 2509 2841 2209 2841 
Q 1884 2841 1681 2658 
Q 1478 2475 1428 2131 
L 2881 2131 
z
" transform="scale(0.015625)"/>
     </defs>
     <use xlink:href="#DejaVuSans-Bold-65"/>
    </g>
   </g>
   <g id="text_57">
    <!-- $Q_{NN}$ -->
    <g transform="translate(302.787273 884.829474) scale(0.24 -0.24)">
     <use xlink:href="#DejaVuSans-Oblique-51" transform="translate(0 0.78125)"/>
     <use xlink:href="#DejaVuSans-Oblique-4e" transform="translate(78.710938 -15.625) scale(0.7)"/>
     <use xlink:href="#DejaVuSans-Oblique-4e" transform="translate(131.074219 -15.625) scale(0.7)"/>
    </g>
   </g>
  </g>
  <g id="axes_6">
   <g id="patch_39">
    <path d="M 591.545455 1153.44 
L 972 1153.44 
L 972 890.829474 
L 591.545455 890.829474 
z
" style="fill: #ffffff"/>
   </g>
   <g id="matplotlib.axis_11">
    <g id="xtick_19">
     <g id="line2d_56">
      <g>
       <use xlink:href="#me394547663" x="608.686947" y="1153.44" style="stroke: #000000; stroke-width: 0.8"/>
      </g>
     </g>
     <g id="text_58">
      <!-- 0 -->
      <g transform="translate(601.688197 1177.156562) scale(0.22 -0.22)">
       <use xlink:href="#DejaVuSans-30"/>
      </g>
     </g>
    </g>
    <g id="xtick_20">
     <g id="line2d_57">
      <g>
       <use xlink:href="#me394547663" x="760.5832" y="1153.44" style="stroke: #000000; stroke-width: 0.8"/>
      </g>
     </g>
     <g id="text_59">
      <!-- 1000 -->
      <g transform="translate(732.5882 1177.156562) scale(0.22 -0.22)">
       <use xlink:href="#DejaVuSans-31"/>
       <use xlink:href="#DejaVuSans-30" x="63.623047"/>
       <use xlink:href="#DejaVuSans-30" x="127.246094"/>
       <use xlink:href="#DejaVuSans-30" x="190.869141"/>
      </g>
     </g>
    </g>
    <g id="xtick_21">
     <g id="line2d_58">
      <g>
       <use xlink:href="#me394547663" x="912.479453" y="1153.44" style="stroke: #000000; stroke-width: 0.8"/>
      </g>
     </g>
     <g id="text_60">
      <!-- 2000 -->
      <g transform="translate(884.484453 1177.156562) scale(0.22 -0.22)">
       <use xlink:href="#DejaVuSans-32"/>
       <use xlink:href="#DejaVuSans-30" x="63.623047"/>
       <use xlink:href="#DejaVuSans-30" x="127.246094"/>
       <use xlink:href="#DejaVuSans-30" x="190.869141"/>
      </g>
     </g>
    </g>
    <g id="text_61">
     <!-- k -->
     <g transform="translate(774.823977 1203.968125) scale(0.24 -0.24)">
      <use xlink:href="#DejaVuSans-6b"/>
     </g>
    </g>
   </g>
   <g id="matplotlib.axis_12">
    <g id="ytick_22">
     <g id="line2d_59">
      <g>
       <use xlink:href="#mcdb1f4bc4e" x="591.545455" y="1141.121359" style="stroke: #000000; stroke-width: 0.8"/>
      </g>
     </g>
     <g id="text_62">
      <!-- 0.0 -->
      <g transform="translate(549.55858 1149.479641) scale(0.22 -0.22)">
       <use xlink:href="#DejaVuSans-30"/>
       <use xlink:href="#DejaVuSans-2e" x="63.623047"/>
       <use xlink:href="#DejaVuSans-30" x="95.410156"/>
      </g>
     </g>
    </g>
    <g id="ytick_23">
     <g id="line2d_60">
      <g>
       <use xlink:href="#mcdb1f4bc4e" x="591.545455" y="1063.76816" style="stroke: #000000; stroke-width: 0.8"/>
      </g>
     </g>
     <g id="text_63">
      <!-- 0.2 -->
      <g transform="translate(549.55858 1072.126441) scale(0.22 -0.22)">
       <use xlink:href="#DejaVuSans-30"/>
       <use xlink:href="#DejaVuSans-2e" x="63.623047"/>
       <use xlink:href="#DejaVuSans-32" x="95.410156"/>
      </g>
     </g>
    </g>
    <g id="ytick_24">
     <g id="line2d_61">
      <g>
       <use xlink:href="#mcdb1f4bc4e" x="591.545455" y="986.414961" style="stroke: #000000; stroke-width: 0.8"/>
      </g>
     </g>
     <g id="text_64">
      <!-- 0.4 -->
      <g transform="translate(549.55858 994.773242) scale(0.22 -0.22)">
       <use xlink:href="#DejaVuSans-30"/>
       <use xlink:href="#DejaVuSans-2e" x="63.623047"/>
       <use xlink:href="#DejaVuSans-34" x="95.410156"/>
      </g>
     </g>
    </g>
    <g id="ytick_25">
     <g id="line2d_62">
      <g>
       <use xlink:href="#mcdb1f4bc4e" x="591.545455" y="909.061761" style="stroke: #000000; stroke-width: 0.8"/>
      </g>
     </g>
     <g id="text_65">
      <!-- 0.6 -->
      <g transform="translate(549.55858 917.420043) scale(0.22 -0.22)">
       <use xlink:href="#DejaVuSans-30"/>
       <use xlink:href="#DejaVuSans-2e" x="63.623047"/>
       <use xlink:href="#DejaVuSans-36" x="95.410156"/>
      </g>
     </g>
    </g>
   </g>
   <g id="line2d_63">
    <path d="M 608.838843 1096.997187 
L 609.142635 1080.026472 
L 609.902117 1068.698792 
L 611.117287 1059.153277 
L 611.876768 1054.733143 
L 612.180561 1053.472248 
L 612.484353 1052.718596 
L 612.940042 1050.765715 
L 614.762797 1043.435802 
L 615.066589 1042.584377 
L 615.977967 1039.702808 
L 617.041241 1037.399534 
L 619.775373 1032.285438 
L 620.382958 1031.080959 
L 621.901921 1028.394486 
L 623.117091 1026.180307 
L 624.180365 1024.091556 
L 624.939846 1022.731383 
L 627.673978 1017.789146 
L 629.192941 1015.090694 
L 630.408111 1013.075568 
L 632.382762 1010.3072 
L 633.29414 1008.995346 
L 634.661206 1007.022588 
L 634.964999 1006.657315 
L 636.028272 1005.288658 
L 636.635857 1004.483639 
L 637.395339 1003.580748 
L 637.851027 1003.09978 
L 640.281367 1000.64176 
L 641.344641 999.734557 
L 642.256019 998.789132 
L 642.559811 998.518787 
L 644.078774 997.002181 
L 648.787558 993.018167 
L 649.850831 992.299554 
L 651.673586 991.01266 
L 655.774785 988.450471 
L 656.534266 988.140902 
L 657.293748 987.660172 
L 658.357022 987.165488 
L 660.179777 986.524019 
L 661.24305 986.321843 
L 662.913909 985.944886 
L 665.951834 985.78591 
L 666.559419 985.837383 
L 667.926485 985.931408 
L 669.445448 986.188076 
L 670.812514 986.321531 
L 674.306128 987.056917 
L 676.736468 987.805551 
L 682.508526 990.021893 
L 690.103338 993.852606 
L 700.280387 999.979386 
L 701.343661 1000.600752 
L 703.166416 1001.698025 
L 708.786578 1005.169193 
L 711.368814 1006.830008 
L 713.191569 1007.921483 
L 721.393967 1012.907781 
L 722.761033 1013.799108 
L 726.10275 1015.907623 
L 731.571016 1019.339424 
L 734.305148 1021.04813 
L 738.254451 1023.585373 
L 742.051857 1026.136487 
L 746.608745 1028.904122 
L 748.735292 1030.277903 
L 761.494577 1038.519371 
L 764.532503 1040.460664 
L 770.000768 1043.981555 
L 774.861448 1047.033955 
L 832.430128 1081.817172 
L 837.290808 1084.660512 
L 842.759073 1088.082006 
L 845.796998 1090.068703 
L 854.151292 1095.615959 
L 862.809378 1101.390332 
L 875.568664 1110.248504 
L 879.214174 1112.737463 
L 892.884837 1121.310321 
L 901.23913 1125.900397 
L 910.656698 1130.365512 
L 919.92237 1134.078659 
L 926.757701 1136.203526 
L 930.555107 1137.196685 
L 941.491638 1139.777967 
L 943.921978 1140.155259 
L 949.694035 1140.85795 
L 953.795234 1141.117178 
L 954.706612 1141.121359 
L 954.706612 1141.121359 
" clip-path="url(#p6f9d3b28d2)" style="fill: none; stroke: #1f77b4; stroke-width: 1.5; stroke-linecap: square"/>
   </g>
   <g id="line2d_64">
    <path d="M 608.838843 956.817848 
L 609.142635 920.613487 
L 609.598324 903.840839 
L 609.75022 904.184372 
L 610.205909 902.766316 
L 610.661598 903.07332 
L 610.965391 904.356293 
L 611.117287 904.453242 
L 611.421079 905.133405 
L 611.572976 905.870868 
L 612.788146 916.529696 
L 613.091938 918.787642 
L 613.851419 926.038154 
L 615.066589 934.500175 
L 617.648826 948.074983 
L 618.256411 950.368151 
L 619.015892 952.739849 
L 619.319684 953.394874 
L 620.079166 955.26883 
L 620.231062 955.345184 
L 621.750024 958.661375 
L 622.509506 960.513385 
L 623.57278 962.906878 
L 624.636053 964.632193 
L 626.458808 967.741512 
L 627.066393 968.906958 
L 627.370186 969.350883 
L 627.825875 970.325732 
L 628.585356 971.597367 
L 629.64863 972.973741 
L 630.711903 974.413902 
L 631.471385 975.240073 
L 632.230866 975.911142 
L 632.686555 976.460967 
L 633.29414 977.122596 
L 633.749829 977.549948 
L 634.357414 978.165452 
L 634.964999 978.76624 
L 638.306716 983.117123 
L 639.36999 983.935797 
L 639.673782 984.176028 
L 640.129471 984.423557 
L 640.888952 984.681795 
L 641.952226 985.078566 
L 642.711707 985.450823 
L 643.319292 985.658432 
L 644.23067 986.134606 
L 644.686359 986.334659 
L 647.572388 987.895516 
L 647.87618 988.043651 
L 648.483765 988.500261 
L 651.066001 990.045491 
L 651.52169 990.254534 
L 652.129275 990.64967 
L 655.926681 992.642372 
L 658.053229 993.4625 
L 658.964607 993.940434 
L 664.432872 996.018678 
L 665.799938 997.003093 
L 666.255627 997.250547 
L 670.053033 1000.058464 
L 670.964411 1000.848802 
L 676.128883 1004.511077 
L 676.736468 1004.906727 
L 678.103534 1005.863453 
L 679.014912 1006.52485 
L 683.419903 1010.424064 
L 686.913517 1013.872972 
L 687.976791 1014.737388 
L 693.445056 1019.433475 
L 700.432284 1024.903574 
L 708.178993 1030.311289 
L 709.546059 1031.31464 
L 715.014324 1034.585814 
L 717.900353 1036.567367 
L 725.343269 1041.660587 
L 727.014128 1042.930072 
L 730.659638 1045.595061 
L 732.634289 1046.970353 
L 734.001356 1047.930905 
L 737.343073 1050.352868 
L 738.254451 1050.992423 
L 740.229102 1052.3775 
L 741.596168 1053.307726 
L 745.241678 1055.938152 
L 747.064433 1057.234679 
L 748.583396 1058.276153 
L 749.798566 1059.047384 
L 753.595972 1061.522585 
L 756.330105 1063.370836 
L 757.849067 1064.43281 
L 761.79837 1066.791168 
L 765.140088 1068.683567 
L 767.87422 1070.377168 
L 769.241286 1071.14929 
L 778.506958 1076.598482 
L 779.570232 1077.32548 
L 782.608157 1079.31177 
L 785.038497 1080.931173 
L 788.228318 1082.631794 
L 790.202969 1083.876131 
L 793.240894 1085.66924 
L 795.215546 1086.634379 
L 808.582416 1093.81356 
L 811.924134 1095.661118 
L 814.658266 1097.086869 
L 819.822739 1099.722115 
L 824.835315 1102.133083 
L 829.392203 1104.332985 
L 835.619949 1107.456438 
L 837.5946 1108.445965 
L 852.480433 1115.413918 
L 855.062669 1116.5521 
L 857.948698 1117.8323 
L 867.062473 1121.779677 
L 869.340917 1122.762331 
L 872.834531 1124.240427 
L 882.555891 1128.289018 
L 886.049505 1129.403348 
L 888.479845 1130.201083 
L 890.910185 1130.953678 
L 901.23913 1133.924549 
L 904.580848 1134.689315 
L 910.049113 1135.807438 
L 923.719776 1138.649068 
L 933.744929 1140.463331 
L 943.466289 1141.086663 
L 954.706612 1141.121359 
L 954.706612 1141.121359 
" clip-path="url(#p6f9d3b28d2)" style="fill: none; stroke: #ff7f0e; stroke-width: 1.5; stroke-linecap: square"/>
   </g>
   <g id="line2d_65">
    <path d="M 608.838843 1054.909443 
L 609.142635 985.442188 
L 609.598324 945.164894 
L 610.054013 930.513604 
L 610.509702 922.084965 
L 610.813494 918.937423 
L 611.269183 915.989137 
L 611.421079 916.060755 
L 611.572976 916.383872 
L 612.332457 920.862543 
L 613.243834 927.137967 
L 614.307108 937.093047 
L 615.370382 943.657061 
L 617.193137 953.485352 
L 617.800722 956.440399 
L 620.382958 965.893004 
L 620.838647 967.105956 
L 623.57278 974.090331 
L 624.484157 975.84268 
L 625.243638 976.8484 
L 625.851223 977.422513 
L 626.155016 977.861358 
L 628.129667 980.070764 
L 628.585356 980.747383 
L 629.192941 981.459469 
L 629.64863 981.878526 
L 630.408111 982.834199 
L 631.319488 983.747626 
L 631.927073 984.388524 
L 632.382762 984.89877 
L 632.686555 985.157998 
L 632.990347 985.483937 
L 633.901725 986.163155 
L 637.091546 989.096313 
L 637.851027 989.5664 
L 640.58516 991.580051 
L 642.256019 992.612045 
L 642.559811 992.67259 
L 644.686359 993.678675 
L 645.142047 993.829309 
L 645.749633 994.149596 
L 649.09135 994.273658 
L 650.30652 994.603314 
L 651.369794 994.971817 
L 653.648238 995.802292 
L 655.622889 996.489456 
L 656.230474 996.653221 
L 656.989955 996.935931 
L 657.293748 996.994148 
L 658.357022 997.379146 
L 660.331673 997.77533 
L 663.217702 998.122482 
L 665.192353 998.495729 
L 665.648042 998.514839 
L 666.255627 998.657024 
L 668.382174 999.005615 
L 671.116307 999.828861 
L 672.027684 1000.248671 
L 672.635269 1000.488445 
L 674.002336 1001.005234 
L 676.432676 1002.014047 
L 677.799742 1002.768488 
L 679.318704 1003.575942 
L 681.749045 1004.944309 
L 682.660422 1005.479937 
L 683.875592 1006.13324 
L 685.394555 1007.352286 
L 687.672998 1009.290283 
L 691.166612 1011.884457 
L 696.331085 1016.332315 
L 697.546255 1017.323758 
L 699.217114 1018.720406 
L 701.495557 1020.645411 
L 705.44486 1023.811692 
L 712.280191 1028.909403 
L 719.267419 1033.646986 
L 720.634485 1034.665785 
L 722.45724 1035.891866 
L 728.684987 1039.792404 
L 733.697563 1043.172322 
L 736.583592 1045.018746 
L 740.836687 1047.591272 
L 742.203753 1048.475534 
L 745.697367 1050.725572 
L 749.494773 1053.272006 
L 750.86184 1054.181687 
L 759.823719 1060.63829 
L 762.254059 1062.428871 
L 774.253863 1070.948479 
L 789.747281 1080.806414 
L 805.088802 1089.35273 
L 807.367246 1090.599828 
L 810.557067 1092.321166 
L 813.139304 1093.623404 
L 816.93671 1095.334949 
L 821.949286 1097.467235 
L 825.594796 1098.99513 
L 830.759269 1101.369988 
L 836.075638 1103.868415 
L 840.480629 1105.929086 
L 843.974243 1107.401851 
L 852.632329 1110.76985 
L 854.151292 1111.486028 
L 856.277839 1112.55818 
L 869.64471 1119.737346 
L 875.264871 1123.104691 
L 879.821759 1125.19087 
L 881.492618 1125.863927 
L 884.834335 1127.353199 
L 889.695015 1129.481861 
L 896.074658 1131.917124 
L 906.251707 1134.786321 
L 909.137736 1135.376105 
L 914.757897 1136.472047 
L 919.618577 1137.206986 
L 921.289436 1137.521874 
L 922.960295 1137.914873 
L 934.200617 1139.850881 
L 935.71958 1140.162609 
L 939.820779 1140.778144 
L 944.377666 1141.045031 
L 948.478865 1141.097594 
L 954.706612 1141.121359 
L 954.706612 1141.121359 
" clip-path="url(#p6f9d3b28d2)" style="fill: none; stroke: #2ca02c; stroke-width: 1.5; stroke-linecap: square"/>
   </g>
   <g id="line2d_66">
    <path d="M 608.838843 1027.077226 
L 609.142635 986.177592 
L 609.902117 949.605752 
L 610.357806 940.603704 
L 611.572976 928.004448 
L 611.724872 927.485125 
L 611.876768 926.336433 
L 612.484353 925.953028 
L 612.788146 926.555077 
L 612.940042 926.54505 
L 613.243834 927.437785 
L 613.699523 929.461142 
L 614.155212 931.119024 
L 615.522278 934.181993 
L 617.496929 939.602519 
L 617.800722 940.530214 
L 620.231062 947.677033 
L 620.686751 948.926836 
L 621.142439 950.172131 
L 621.901921 952.380619 
L 622.509506 953.920857 
L 624.332261 958.540658 
L 625.395535 960.982287 
L 626.458808 963.59743 
L 627.21829 965.551556 
L 630.711903 973.168592 
L 631.927073 975.991829 
L 634.813102 981.768878 
L 635.72448 983.307489 
L 637.243442 985.703011 
L 638.458612 987.502883 
L 639.36999 988.645631 
L 640.129471 989.545151 
L 644.078774 994.158651 
L 644.686359 994.81651 
L 646.509114 996.819407 
L 648.028076 998.30626 
L 656.230474 1005.254684 
L 657.749437 1006.397811 
L 658.964607 1007.427401 
L 659.724088 1008.050873 
L 660.483569 1008.647612 
L 662.306324 1009.829225 
L 666.407523 1012.209508 
L 667.167004 1012.595524 
L 675.369402 1018.290033 
L 678.559223 1020.622279 
L 679.622497 1021.356385 
L 682.35663 1023.369546 
L 684.179385 1024.760452 
L 685.242658 1025.675543 
L 687.21731 1027.283407 
L 689.343857 1028.879955 
L 693.29316 1031.655383 
L 705.44486 1041.04045 
L 707.115719 1042.327445 
L 708.938474 1043.925934 
L 714.102946 1048.251222 
L 715.621909 1049.364083 
L 722.001552 1054.189199 
L 725.950854 1056.977006 
L 729.292572 1059.440793 
L 731.115327 1060.729402 
L 732.330497 1061.527561 
L 736.583592 1064.185341 
L 742.051857 1067.970441 
L 747.520122 1071.757264 
L 749.039085 1072.77539 
L 767.114739 1084.473582 
L 768.937494 1085.58024 
L 776.684203 1090.258326 
L 785.190393 1095.275597 
L 787.924526 1096.946953 
L 799.772433 1103.660229 
L 801.595188 1104.499709 
L 803.873632 1105.585407 
L 806.152076 1106.701298 
L 811.468445 1109.21491 
L 813.594992 1110.187947 
L 818.303776 1112.535168 
L 824.683419 1115.74379 
L 843.822347 1124.364487 
L 851.872848 1127.640514 
L 862.505586 1131.28788 
L 871.315569 1133.574312 
L 874.50539 1134.234135 
L 876.631937 1134.657902 
L 884.682439 1135.936634 
L 895.315177 1137.33139 
L 898.80879 1137.797598 
L 911.112387 1139.471849 
L 917.947718 1140.582368 
L 924.78305 1141.168988 
L 935.71958 1141.496709 
L 945.137148 1141.297408 
L 953.187649 1141.128696 
L 954.706612 1141.121359 
L 954.706612 1141.121359 
" clip-path="url(#p6f9d3b28d2)" style="fill: none; stroke: #d62728; stroke-width: 1.5; stroke-linecap: square"/>
   </g>
   <g id="patch_40">
    <path d="M 591.545455 1153.44 
L 591.545455 890.829474 
" style="fill: none; stroke: #000000; stroke-width: 0.8; stroke-linejoin: miter; stroke-linecap: square"/>
   </g>
   <g id="patch_41">
    <path d="M 972 1153.44 
L 972 890.829474 
" style="fill: none; stroke: #000000; stroke-width: 0.8; stroke-linejoin: miter; stroke-linecap: square"/>
   </g>
   <g id="patch_42">
    <path d="M 591.545455 1153.44 
L 972 1153.44 
" style="fill: none; stroke: #000000; stroke-width: 0.8; stroke-linejoin: miter; stroke-linecap: square"/>
   </g>
   <g id="patch_43">
    <path d="M 591.545455 890.829474 
L 972 890.829474 
" style="fill: none; stroke: #000000; stroke-width: 0.8; stroke-linejoin: miter; stroke-linecap: square"/>
   </g>
   <g id="text_66">
    <!-- f -->
    <g transform="translate(552.733636 872.71352) scale(0.28 -0.28)">
     <defs>
      <path id="DejaVuSans-Bold-66" d="M 2841 4863 
L 2841 4128 
L 2222 4128 
Q 1984 4128 1890 4042 
Q 1797 3956 1797 3744 
L 1797 3500 
L 2753 3500 
L 2753 2700 
L 1797 2700 
L 1797 0 
L 678 0 
L 678 2700 
L 122 2700 
L 122 3500 
L 678 3500 
L 678 3744 
Q 678 4316 997 4589 
Q 1316 4863 1984 4863 
L 2841 4863 
z
" transform="scale(0.015625)"/>
     </defs>
     <use xlink:href="#DejaVuSans-Bold-66"/>
    </g>
   </g>
   <g id="text_67">
    <!-- LCMC -->
    <g transform="translate(747.973977 884.829474) scale(0.24 -0.24)">
     <defs>
      <path id="DejaVuSans-4c" d="M 628 4666 
L 1259 4666 
L 1259 531 
L 3531 531 
L 3531 0 
L 628 0 
L 628 4666 
z
" transform="scale(0.015625)"/>
     </defs>
     <use xlink:href="#DejaVuSans-4c"/>
     <use xlink:href="#DejaVuSans-43" x="55.712891"/>
     <use xlink:href="#DejaVuSans-4d" x="125.537109"/>
     <use xlink:href="#DejaVuSans-43" x="211.816406"/>
    </g>
   </g>
  </g>
 </g>
 <defs>
  <clipPath id="p56c1e58eb6">
   <rect x="135" y="155.52" width="380.454545" height="262.610526"/>
  </clipPath>
  <clipPath id="p3df73233e6">
   <rect x="591.545455" y="155.52" width="380.454545" height="262.610526"/>
  </clipPath>
  <clipPath id="pddc0b3e5fc">
   <rect x="135" y="523.174737" width="380.454545" height="262.610526"/>
  </clipPath>
  <clipPath id="pe15d751d79">
   <rect x="591.545455" y="523.174737" width="380.454545" height="262.610526"/>
  </clipPath>
  <clipPath id="pb7d60fc62c">
   <rect x="135" y="890.829474" width="380.454545" height="262.610526"/>
  </clipPath>
  <clipPath id="p6f9d3b28d2">
   <rect x="591.545455" y="890.829474" width="380.454545" height="262.610526"/>
  </clipPath>
 </defs>
</svg>
