<?xml version="1.0" encoding="utf-8" standalone="no"?>
<!DOCTYPE svg PUBLIC "-//W3C//DTD SVG 1.1//EN"
  "http://www.w3.org/Graphics/SVG/1.1/DTD/svg11.dtd">
<svg xmlns:xlink="http://www.w3.org/1999/xlink" width="1080pt" height="1296pt" viewBox="0 0 1080 1296" xmlns="http://www.w3.org/2000/svg" version="1.1">
 <metadata>
  <rdf:RDF xmlns:dc="http://purl.org/dc/elements/1.1/" xmlns:cc="http://creativecommons.org/ns#" xmlns:rdf="http://www.w3.org/1999/02/22-rdf-syntax-ns#">
   <cc:Work>
    <dc:type rdf:resource="http://purl.org/dc/dcmitype/StillImage"/>
    <dc:date>2024-07-24T12:43:29.070801</dc:date>
    <dc:format>image/svg+xml</dc:format>
    <dc:creator>
     <cc:Agent>
      <dc:title>Matplotlib v3.8.4, https://matplotlib.org/</dc:title>
     </cc:Agent>
    </dc:creator>
   </cc:Work>
  </rdf:RDF>
 </metadata>
 <defs>
  <style type="text/css">*{stroke-linejoin: round; stroke-linecap: butt}</style>
 </defs>
 <g id="figure_1">
  <g id="patch_1">
   <path d="M 0 1296 
L 1080 1296 
L 1080 0 
L 0 0 
z
" style="fill: #ffffff"/>
  </g>
  <g id="axes_1">
   <g id="patch_2">
    <path d="M 135 418.130526 
L 515.454545 418.130526 
L 515.454545 155.52 
L 135 155.52 
z
" style="fill: #ffffff"/>
   </g>
   <g id="matplotlib.axis_1">
    <g id="xtick_1">
     <g id="line2d_1">
      <defs>
       <path id="meed541807a" d="M 0 0 
L 0 3.5 
" style="stroke: #000000; stroke-width: 0.8"/>
      </defs>
      <g>
       <use xlink:href="#meed541807a" x="137.882231" y="418.130526" style="stroke: #000000; stroke-width: 0.8"/>
      </g>
     </g>
     <g id="text_1">
      <!-- 0 -->
      <g transform="translate(131.519731 440.327401) scale(0.2 -0.2)">
       <defs>
        <path id="DejaVuSans-30" d="M 2034 4250 
Q 1547 4250 1301 3770 
Q 1056 3291 1056 2328 
Q 1056 1369 1301 889 
Q 1547 409 2034 409 
Q 2525 409 2770 889 
Q 3016 1369 3016 2328 
Q 3016 3291 2770 3770 
Q 2525 4250 2034 4250 
z
M 2034 4750 
Q 2819 4750 3233 4129 
Q 3647 3509 3647 2328 
Q 3647 1150 3233 529 
Q 2819 -91 2034 -91 
Q 1250 -91 836 529 
Q 422 1150 422 2328 
Q 422 3509 836 4129 
Q 1250 4750 2034 4750 
z
" transform="scale(0.015625)"/>
       </defs>
       <use xlink:href="#DejaVuSans-30"/>
      </g>
     </g>
    </g>
    <g id="xtick_2">
     <g id="line2d_2">
      <g>
       <use xlink:href="#meed541807a" x="209.938017" y="418.130526" style="stroke: #000000; stroke-width: 0.8"/>
      </g>
     </g>
     <g id="text_2">
      <!-- 10 -->
      <g transform="translate(197.213017 440.327401) scale(0.2 -0.2)">
       <defs>
        <path id="DejaVuSans-31" d="M 794 531 
L 1825 531 
L 1825 4091 
L 703 3866 
L 703 4441 
L 1819 4666 
L 2450 4666 
L 2450 531 
L 3481 531 
L 3481 0 
L 794 0 
L 794 531 
z
" transform="scale(0.015625)"/>
       </defs>
       <use xlink:href="#DejaVuSans-31"/>
       <use xlink:href="#DejaVuSans-30" x="63.623047"/>
      </g>
     </g>
    </g>
    <g id="xtick_3">
     <g id="line2d_3">
      <g>
       <use xlink:href="#meed541807a" x="281.993802" y="418.130526" style="stroke: #000000; stroke-width: 0.8"/>
      </g>
     </g>
     <g id="text_3">
      <!-- 20 -->
      <g transform="translate(269.268802 440.327401) scale(0.2 -0.2)">
       <defs>
        <path id="DejaVuSans-32" d="M 1228 531 
L 3431 531 
L 3431 0 
L 469 0 
L 469 531 
Q 828 903 1448 1529 
Q 2069 2156 2228 2338 
Q 2531 2678 2651 2914 
Q 2772 3150 2772 3378 
Q 2772 3750 2511 3984 
Q 2250 4219 1831 4219 
Q 1534 4219 1204 4116 
Q 875 4013 500 3803 
L 500 4441 
Q 881 4594 1212 4672 
Q 1544 4750 1819 4750 
Q 2544 4750 2975 4387 
Q 3406 4025 3406 3419 
Q 3406 3131 3298 2873 
Q 3191 2616 2906 2266 
Q 2828 2175 2409 1742 
Q 1991 1309 1228 531 
z
" transform="scale(0.015625)"/>
       </defs>
       <use xlink:href="#DejaVuSans-32"/>
       <use xlink:href="#DejaVuSans-30" x="63.623047"/>
      </g>
     </g>
    </g>
    <g id="xtick_4">
     <g id="line2d_4">
      <g>
       <use xlink:href="#meed541807a" x="354.049587" y="418.130526" style="stroke: #000000; stroke-width: 0.8"/>
      </g>
     </g>
     <g id="text_4">
      <!-- 30 -->
      <g transform="translate(341.324587 440.327401) scale(0.2 -0.2)">
       <defs>
        <path id="DejaVuSans-33" d="M 2597 2516 
Q 3050 2419 3304 2112 
Q 3559 1806 3559 1356 
Q 3559 666 3084 287 
Q 2609 -91 1734 -91 
Q 1441 -91 1130 -33 
Q 819 25 488 141 
L 488 750 
Q 750 597 1062 519 
Q 1375 441 1716 441 
Q 2309 441 2620 675 
Q 2931 909 2931 1356 
Q 2931 1769 2642 2001 
Q 2353 2234 1838 2234 
L 1294 2234 
L 1294 2753 
L 1863 2753 
Q 2328 2753 2575 2939 
Q 2822 3125 2822 3475 
Q 2822 3834 2567 4026 
Q 2313 4219 1838 4219 
Q 1578 4219 1281 4162 
Q 984 4106 628 3988 
L 628 4550 
Q 988 4650 1302 4700 
Q 1616 4750 1894 4750 
Q 2613 4750 3031 4423 
Q 3450 4097 3450 3541 
Q 3450 3153 3228 2886 
Q 3006 2619 2597 2516 
z
" transform="scale(0.015625)"/>
       </defs>
       <use xlink:href="#DejaVuSans-33"/>
       <use xlink:href="#DejaVuSans-30" x="63.623047"/>
      </g>
     </g>
    </g>
    <g id="xtick_5">
     <g id="line2d_5">
      <g>
       <use xlink:href="#meed541807a" x="426.105372" y="418.130526" style="stroke: #000000; stroke-width: 0.8"/>
      </g>
     </g>
     <g id="text_5">
      <!-- 40 -->
      <g transform="translate(413.380372 440.327401) scale(0.2 -0.2)">
       <defs>
        <path id="DejaVuSans-34" d="M 2419 4116 
L 825 1625 
L 2419 1625 
L 2419 4116 
z
M 2253 4666 
L 3047 4666 
L 3047 1625 
L 3713 1625 
L 3713 1100 
L 3047 1100 
L 3047 0 
L 2419 0 
L 2419 1100 
L 313 1100 
L 313 1709 
L 2253 4666 
z
" transform="scale(0.015625)"/>
       </defs>
       <use xlink:href="#DejaVuSans-34"/>
       <use xlink:href="#DejaVuSans-30" x="63.623047"/>
      </g>
     </g>
    </g>
    <g id="xtick_6">
     <g id="line2d_6">
      <g>
       <use xlink:href="#meed541807a" x="498.161157" y="418.130526" style="stroke: #000000; stroke-width: 0.8"/>
      </g>
     </g>
     <g id="text_6">
      <!-- 50 -->
      <g transform="translate(485.436157 440.327401) scale(0.2 -0.2)">
       <defs>
        <path id="DejaVuSans-35" d="M 691 4666 
L 3169 4666 
L 3169 4134 
L 1269 4134 
L 1269 2991 
Q 1406 3038 1543 3061 
Q 1681 3084 1819 3084 
Q 2600 3084 3056 2656 
Q 3513 2228 3513 1497 
Q 3513 744 3044 326 
Q 2575 -91 1722 -91 
Q 1428 -91 1123 -41 
Q 819 9 494 109 
L 494 744 
Q 775 591 1075 516 
Q 1375 441 1709 441 
Q 2250 441 2565 725 
Q 2881 1009 2881 1497 
Q 2881 1984 2565 2268 
Q 2250 2553 1709 2553 
Q 1456 2553 1204 2497 
Q 953 2441 691 2322 
L 691 4666 
z
" transform="scale(0.015625)"/>
       </defs>
       <use xlink:href="#DejaVuSans-35"/>
       <use xlink:href="#DejaVuSans-30" x="63.623047"/>
      </g>
     </g>
    </g>
    <g id="text_7">
     <!-- k -->
     <g transform="translate(318.278523 466.723026) scale(0.24 -0.24)">
      <defs>
       <path id="DejaVuSans-6b" d="M 581 4863 
L 1159 4863 
L 1159 1991 
L 2875 3500 
L 3609 3500 
L 1753 1863 
L 3688 0 
L 2938 0 
L 1159 1709 
L 1159 0 
L 581 0 
L 581 4863 
z
" transform="scale(0.015625)"/>
      </defs>
      <use xlink:href="#DejaVuSans-6b"/>
     </g>
    </g>
   </g>
   <g id="matplotlib.axis_2">
    <g id="ytick_1">
     <g id="line2d_7">
      <defs>
       <path id="m98623a2e32" d="M 0 0 
L -3.5 0 
" style="stroke: #000000; stroke-width: 0.8"/>
      </defs>
      <g>
       <use xlink:href="#m98623a2e32" x="135" y="418.130526" style="stroke: #000000; stroke-width: 0.8"/>
      </g>
     </g>
     <g id="text_8">
      <!-- 0.0 -->
      <g transform="translate(96.19375 425.728964) scale(0.2 -0.2)">
       <defs>
        <path id="DejaVuSans-2e" d="M 684 794 
L 1344 794 
L 1344 0 
L 684 0 
L 684 794 
z
" transform="scale(0.015625)"/>
       </defs>
       <use xlink:href="#DejaVuSans-30"/>
       <use xlink:href="#DejaVuSans-2e" x="63.623047"/>
       <use xlink:href="#DejaVuSans-30" x="95.410156"/>
      </g>
     </g>
    </g>
    <g id="ytick_2">
     <g id="line2d_8">
      <g>
       <use xlink:href="#m98623a2e32" x="135" y="352.477895" style="stroke: #000000; stroke-width: 0.8"/>
      </g>
     </g>
     <g id="text_9">
      <!-- 0.2 -->
      <g transform="translate(96.19375 360.076332) scale(0.2 -0.2)">
       <use xlink:href="#DejaVuSans-30"/>
       <use xlink:href="#DejaVuSans-2e" x="63.623047"/>
       <use xlink:href="#DejaVuSans-32" x="95.410156"/>
      </g>
     </g>
    </g>
    <g id="ytick_3">
     <g id="line2d_9">
      <g>
       <use xlink:href="#m98623a2e32" x="135" y="286.825263" style="stroke: #000000; stroke-width: 0.8"/>
      </g>
     </g>
     <g id="text_10">
      <!-- 0.4 -->
      <g transform="translate(96.19375 294.423701) scale(0.2 -0.2)">
       <use xlink:href="#DejaVuSans-30"/>
       <use xlink:href="#DejaVuSans-2e" x="63.623047"/>
       <use xlink:href="#DejaVuSans-34" x="95.410156"/>
      </g>
     </g>
    </g>
    <g id="ytick_4">
     <g id="line2d_10">
      <g>
       <use xlink:href="#m98623a2e32" x="135" y="221.172632" style="stroke: #000000; stroke-width: 0.8"/>
      </g>
     </g>
     <g id="text_11">
      <!-- 0.6 -->
      <g transform="translate(96.19375 228.771069) scale(0.2 -0.2)">
       <defs>
        <path id="DejaVuSans-36" d="M 2113 2584 
Q 1688 2584 1439 2293 
Q 1191 2003 1191 1497 
Q 1191 994 1439 701 
Q 1688 409 2113 409 
Q 2538 409 2786 701 
Q 3034 994 3034 1497 
Q 3034 2003 2786 2293 
Q 2538 2584 2113 2584 
z
M 3366 4563 
L 3366 3988 
Q 3128 4100 2886 4159 
Q 2644 4219 2406 4219 
Q 1781 4219 1451 3797 
Q 1122 3375 1075 2522 
Q 1259 2794 1537 2939 
Q 1816 3084 2150 3084 
Q 2853 3084 3261 2657 
Q 3669 2231 3669 1497 
Q 3669 778 3244 343 
Q 2819 -91 2113 -91 
Q 1303 -91 875 529 
Q 447 1150 447 2328 
Q 447 3434 972 4092 
Q 1497 4750 2381 4750 
Q 2619 4750 2861 4703 
Q 3103 4656 3366 4563 
z
" transform="scale(0.015625)"/>
       </defs>
       <use xlink:href="#DejaVuSans-30"/>
       <use xlink:href="#DejaVuSans-2e" x="63.623047"/>
       <use xlink:href="#DejaVuSans-36" x="95.410156"/>
      </g>
     </g>
    </g>
    <g id="ytick_5">
     <g id="line2d_11">
      <g>
       <use xlink:href="#m98623a2e32" x="135" y="155.52" style="stroke: #000000; stroke-width: 0.8"/>
      </g>
     </g>
     <g id="text_12">
      <!-- 0.8 -->
      <g transform="translate(96.19375 163.118438) scale(0.2 -0.2)">
       <defs>
        <path id="DejaVuSans-38" d="M 2034 2216 
Q 1584 2216 1326 1975 
Q 1069 1734 1069 1313 
Q 1069 891 1326 650 
Q 1584 409 2034 409 
Q 2484 409 2743 651 
Q 3003 894 3003 1313 
Q 3003 1734 2745 1975 
Q 2488 2216 2034 2216 
z
M 1403 2484 
Q 997 2584 770 2862 
Q 544 3141 544 3541 
Q 544 4100 942 4425 
Q 1341 4750 2034 4750 
Q 2731 4750 3128 4425 
Q 3525 4100 3525 3541 
Q 3525 3141 3298 2862 
Q 3072 2584 2669 2484 
Q 3125 2378 3379 2068 
Q 3634 1759 3634 1313 
Q 3634 634 3220 271 
Q 2806 -91 2034 -91 
Q 1263 -91 848 271 
Q 434 634 434 1313 
Q 434 1759 690 2068 
Q 947 2378 1403 2484 
z
M 1172 3481 
Q 1172 3119 1398 2916 
Q 1625 2713 2034 2713 
Q 2441 2713 2670 2916 
Q 2900 3119 2900 3481 
Q 2900 3844 2670 4047 
Q 2441 4250 2034 4250 
Q 1625 4250 1398 4047 
Q 1172 3844 1172 3481 
z
" transform="scale(0.015625)"/>
       </defs>
       <use xlink:href="#DejaVuSans-30"/>
       <use xlink:href="#DejaVuSans-2e" x="63.623047"/>
       <use xlink:href="#DejaVuSans-38" x="95.410156"/>
      </g>
     </g>
    </g>
    <g id="text_13">
     <!-- $P_{NN}$ -->
     <g transform="translate(87.2025 306.985263) rotate(-90) scale(0.24 -0.24)">
      <defs>
       <path id="DejaVuSans-Oblique-50" d="M 1081 4666 
L 2541 4666 
Q 3178 4666 3512 4369 
Q 3847 4072 3847 3500 
Q 3847 2731 3353 2303 
Q 2859 1875 1966 1875 
L 1172 1875 
L 806 0 
L 172 0 
L 1081 4666 
z
M 1613 4147 
L 1275 2394 
L 2069 2394 
Q 2606 2394 2893 2669 
Q 3181 2944 3181 3456 
Q 3181 3784 2986 3965 
Q 2791 4147 2438 4147 
L 1613 4147 
z
" transform="scale(0.015625)"/>
       <path id="DejaVuSans-Oblique-4e" d="M 1081 4666 
L 1931 4666 
L 3219 666 
L 4000 4666 
L 4616 4666 
L 3706 0 
L 2853 0 
L 1569 4025 
L 788 0 
L 172 0 
L 1081 4666 
z
" transform="scale(0.015625)"/>
      </defs>
      <use xlink:href="#DejaVuSans-Oblique-50" transform="translate(0 0.09375)"/>
      <use xlink:href="#DejaVuSans-Oblique-4e" transform="translate(60.302734 -16.3125) scale(0.7)"/>
      <use xlink:href="#DejaVuSans-Oblique-4e" transform="translate(112.666016 -16.3125) scale(0.7)"/>
     </g>
    </g>
   </g>
   <g id="line2d_12">
    <path d="M 152.293388 376.007491 
L 173.910124 366.501464 
L 209.938017 358.094299 
L 281.993802 352.094165 
L 498.161157 334.512377 
" clip-path="url(#pe428932c17)" style="fill: none; stroke: #1f77b4; stroke-width: 1.5; stroke-linecap: square"/>
    <defs>
     <path id="mdc1135b5ec" d="M 0 3 
C 0.795609 3 1.55874 2.683901 2.12132 2.12132 
C 2.683901 1.55874 3 0.795609 3 0 
C 3 -0.795609 2.683901 -1.55874 2.12132 -2.12132 
C 1.55874 -2.683901 0.795609 -3 0 -3 
C -0.795609 -3 -1.55874 -2.683901 -2.12132 -2.12132 
C -2.683901 -1.55874 -3 -0.795609 -3 0 
C -3 0.795609 -2.683901 1.55874 -2.12132 2.12132 
C -1.55874 2.683901 -0.795609 3 0 3 
z
" style="stroke: #1f77b4"/>
    </defs>
    <g clip-path="url(#pe428932c17)">
     <use xlink:href="#mdc1135b5ec" x="152.293388" y="376.007491" style="fill: #1f77b4; stroke: #1f77b4"/>
     <use xlink:href="#mdc1135b5ec" x="173.910124" y="366.501464" style="fill: #1f77b4; stroke: #1f77b4"/>
     <use xlink:href="#mdc1135b5ec" x="209.938017" y="358.094299" style="fill: #1f77b4; stroke: #1f77b4"/>
     <use xlink:href="#mdc1135b5ec" x="281.993802" y="352.094165" style="fill: #1f77b4; stroke: #1f77b4"/>
     <use xlink:href="#mdc1135b5ec" x="498.161157" y="334.512377" style="fill: #1f77b4; stroke: #1f77b4"/>
    </g>
   </g>
   <g id="line2d_13">
    <path d="M 152.293388 246.062723 
L 173.910124 229.335605 
L 209.938017 221.033094 
L 281.993802 226.754152 
L 498.161157 245.644109 
" clip-path="url(#pe428932c17)" style="fill: none; stroke: #ff7f0e; stroke-width: 1.5; stroke-linecap: square"/>
    <defs>
     <path id="medbfa778f6" d="M 0 3 
C 0.795609 3 1.55874 2.683901 2.12132 2.12132 
C 2.683901 1.55874 3 0.795609 3 0 
C 3 -0.795609 2.683901 -1.55874 2.12132 -2.12132 
C 1.55874 -2.683901 0.795609 -3 0 -3 
C -0.795609 -3 -1.55874 -2.683901 -2.12132 -2.12132 
C -2.683901 -1.55874 -3 -0.795609 -3 0 
C -3 0.795609 -2.683901 1.55874 -2.12132 2.12132 
C -1.55874 2.683901 -0.795609 3 0 3 
z
" style="stroke: #ff7f0e"/>
    </defs>
    <g clip-path="url(#pe428932c17)">
     <use xlink:href="#medbfa778f6" x="152.293388" y="246.062723" style="fill: #ff7f0e; stroke: #ff7f0e"/>
     <use xlink:href="#medbfa778f6" x="173.910124" y="229.335605" style="fill: #ff7f0e; stroke: #ff7f0e"/>
     <use xlink:href="#medbfa778f6" x="209.938017" y="221.033094" style="fill: #ff7f0e; stroke: #ff7f0e"/>
     <use xlink:href="#medbfa778f6" x="281.993802" y="226.754152" style="fill: #ff7f0e; stroke: #ff7f0e"/>
     <use xlink:href="#medbfa778f6" x="498.161157" y="245.644109" style="fill: #ff7f0e; stroke: #ff7f0e"/>
    </g>
   </g>
   <g id="line2d_14">
    <path d="M 152.293388 314.436346 
L 173.910124 269.871395 
L 209.938017 243.254521 
L 281.993802 232.152528 
L 498.161157 251.208187 
" clip-path="url(#pe428932c17)" style="fill: none; stroke: #2ca02c; stroke-width: 1.5; stroke-linecap: square"/>
    <defs>
     <path id="m14fa7fd6a1" d="M 0 3 
C 0.795609 3 1.55874 2.683901 2.12132 2.12132 
C 2.683901 1.55874 3 0.795609 3 0 
C 3 -0.795609 2.683901 -1.55874 2.12132 -2.12132 
C 1.55874 -2.683901 0.795609 -3 0 -3 
C -0.795609 -3 -1.55874 -2.683901 -2.12132 -2.12132 
C -2.683901 -1.55874 -3 -0.795609 -3 0 
C -3 0.795609 -2.683901 1.55874 -2.12132 2.12132 
C -1.55874 2.683901 -0.795609 3 0 3 
z
" style="stroke: #2ca02c"/>
    </defs>
    <g clip-path="url(#pe428932c17)">
     <use xlink:href="#m14fa7fd6a1" x="152.293388" y="314.436346" style="fill: #2ca02c; stroke: #2ca02c"/>
     <use xlink:href="#m14fa7fd6a1" x="173.910124" y="269.871395" style="fill: #2ca02c; stroke: #2ca02c"/>
     <use xlink:href="#m14fa7fd6a1" x="209.938017" y="243.254521" style="fill: #2ca02c; stroke: #2ca02c"/>
     <use xlink:href="#m14fa7fd6a1" x="281.993802" y="232.152528" style="fill: #2ca02c; stroke: #2ca02c"/>
     <use xlink:href="#m14fa7fd6a1" x="498.161157" y="251.208187" style="fill: #2ca02c; stroke: #2ca02c"/>
    </g>
   </g>
   <g id="line2d_15">
    <path d="M 152.293388 294.377758 
L 173.910124 271.929581 
L 209.938017 254.278023 
L 281.993802 237.315435 
L 498.161157 234.620607 
" clip-path="url(#pe428932c17)" style="fill: none; stroke: #d62728; stroke-width: 1.5; stroke-linecap: square"/>
    <defs>
     <path id="m078fb2f29a" d="M 0 3 
C 0.795609 3 1.55874 2.683901 2.12132 2.12132 
C 2.683901 1.55874 3 0.795609 3 0 
C 3 -0.795609 2.683901 -1.55874 2.12132 -2.12132 
C 1.55874 -2.683901 0.795609 -3 0 -3 
C -0.795609 -3 -1.55874 -2.683901 -2.12132 -2.12132 
C -2.683901 -1.55874 -3 -0.795609 -3 0 
C -3 0.795609 -2.683901 1.55874 -2.12132 2.12132 
C -1.55874 2.683901 -0.795609 3 0 3 
z
" style="stroke: #d62728"/>
    </defs>
    <g clip-path="url(#pe428932c17)">
     <use xlink:href="#m078fb2f29a" x="152.293388" y="294.377758" style="fill: #d62728; stroke: #d62728"/>
     <use xlink:href="#m078fb2f29a" x="173.910124" y="271.929581" style="fill: #d62728; stroke: #d62728"/>
     <use xlink:href="#m078fb2f29a" x="209.938017" y="254.278023" style="fill: #d62728; stroke: #d62728"/>
     <use xlink:href="#m078fb2f29a" x="281.993802" y="237.315435" style="fill: #d62728; stroke: #d62728"/>
     <use xlink:href="#m078fb2f29a" x="498.161157" y="234.620607" style="fill: #d62728; stroke: #d62728"/>
    </g>
   </g>
   <g id="patch_3">
    <path d="M 135 418.130526 
L 135 155.52 
" style="fill: none; stroke: #000000; stroke-width: 0.8; stroke-linejoin: miter; stroke-linecap: square"/>
   </g>
   <g id="patch_4">
    <path d="M 515.454545 418.130526 
L 515.454545 155.52 
" style="fill: none; stroke: #000000; stroke-width: 0.8; stroke-linejoin: miter; stroke-linecap: square"/>
   </g>
   <g id="patch_5">
    <path d="M 135 418.130526 
L 515.454545 418.130526 
" style="fill: none; stroke: #000000; stroke-width: 0.8; stroke-linejoin: miter; stroke-linecap: square"/>
   </g>
   <g id="patch_6">
    <path d="M 135 155.52 
L 515.454545 155.52 
" style="fill: none; stroke: #000000; stroke-width: 0.8; stroke-linejoin: miter; stroke-linecap: square"/>
   </g>
   <g id="text_14">
    <!-- a -->
    <g transform="translate(89.472557 137.404046) scale(0.28 -0.28)">
     <defs>
      <path id="DejaVuSans-Bold-61" d="M 2106 1575 
Q 1756 1575 1579 1456 
Q 1403 1338 1403 1106 
Q 1403 894 1545 773 
Q 1688 653 1941 653 
Q 2256 653 2472 879 
Q 2688 1106 2688 1447 
L 2688 1575 
L 2106 1575 
z
M 3816 1997 
L 3816 0 
L 2688 0 
L 2688 519 
Q 2463 200 2181 54 
Q 1900 -91 1497 -91 
Q 953 -91 614 226 
Q 275 544 275 1050 
Q 275 1666 698 1953 
Q 1122 2241 2028 2241 
L 2688 2241 
L 2688 2328 
Q 2688 2594 2478 2717 
Q 2269 2841 1825 2841 
Q 1466 2841 1156 2769 
Q 847 2697 581 2553 
L 581 3406 
Q 941 3494 1303 3539 
Q 1666 3584 2028 3584 
Q 2975 3584 3395 3211 
Q 3816 2838 3816 1997 
z
" transform="scale(0.015625)"/>
     </defs>
     <use xlink:href="#DejaVuSans-Bold-61"/>
    </g>
   </g>
   <g id="text_15">
    <!-- $P_{NN}$ -->
    <g transform="translate(303.387273 149.52) scale(0.26 -0.26)">
     <use xlink:href="#DejaVuSans-Oblique-50" transform="translate(0 0.09375)"/>
     <use xlink:href="#DejaVuSans-Oblique-4e" transform="translate(60.302734 -16.3125) scale(0.7)"/>
     <use xlink:href="#DejaVuSans-Oblique-4e" transform="translate(112.666016 -16.3125) scale(0.7)"/>
    </g>
   </g>
  </g>
  <g id="axes_2">
   <g id="patch_7">
    <path d="M 591.545455 418.130526 
L 972 418.130526 
L 972 155.52 
L 591.545455 155.52 
z
" style="fill: #ffffff"/>
   </g>
   <g id="patch_8">
    <path d="M 608.838843 418.130526 
L 628.792753 418.130526 
L 628.792753 192.682974 
L 608.838843 192.682974 
z
" clip-path="url(#p52ac20e1c5)" style="fill: #1f77b4"/>
   </g>
   <g id="patch_9">
    <path d="M 741.864908 418.130526 
L 761.818818 418.130526 
L 761.818818 279.473101 
L 741.864908 279.473101 
z
" clip-path="url(#p52ac20e1c5)" style="fill: #1f77b4"/>
   </g>
   <g id="patch_10">
    <path d="M 874.890973 418.130526 
L 894.844882 418.130526 
L 894.844882 168.025263 
L 874.890973 168.025263 
z
" clip-path="url(#p52ac20e1c5)" style="fill: #1f77b4"/>
   </g>
   <g id="patch_11">
    <path d="M 628.792753 418.130526 
L 648.746662 418.130526 
L 648.746662 194.862423 
L 628.792753 194.862423 
z
" clip-path="url(#p52ac20e1c5)" style="fill: #ff7f0e"/>
   </g>
   <g id="patch_12">
    <path d="M 761.818818 418.130526 
L 781.772727 418.130526 
L 781.772727 240.198008 
L 761.818818 240.198008 
z
" clip-path="url(#p52ac20e1c5)" style="fill: #ff7f0e"/>
   </g>
   <g id="patch_13">
    <path d="M 894.844882 418.130526 
L 914.798792 418.130526 
L 914.798792 194.567654 
L 894.844882 194.567654 
z
" clip-path="url(#p52ac20e1c5)" style="fill: #ff7f0e"/>
   </g>
   <g id="patch_14">
    <path d="M 648.746662 418.130526 
L 668.700572 418.130526 
L 668.700572 202.441948 
L 648.746662 202.441948 
z
" clip-path="url(#p52ac20e1c5)" style="fill: #2ca02c"/>
   </g>
   <g id="patch_15">
    <path d="M 781.772727 418.130526 
L 801.726637 418.130526 
L 801.726637 263.137518 
L 781.772727 263.137518 
z
" clip-path="url(#p52ac20e1c5)" style="fill: #2ca02c"/>
   </g>
   <g id="patch_16">
    <path d="M 914.798792 418.130526 
L 934.752702 418.130526 
L 934.752702 201.77928 
L 914.798792 201.77928 
z
" clip-path="url(#p52ac20e1c5)" style="fill: #2ca02c"/>
   </g>
   <g id="patch_17">
    <path d="M 668.700572 418.130526 
L 688.654482 418.130526 
L 688.654482 200.403445 
L 668.700572 200.403445 
z
" clip-path="url(#p52ac20e1c5)" style="fill: #d62728"/>
   </g>
   <g id="patch_18">
    <path d="M 801.726637 418.130526 
L 821.680547 418.130526 
L 821.680547 255.02415 
L 801.726637 255.02415 
z
" clip-path="url(#p52ac20e1c5)" style="fill: #d62728"/>
   </g>
   <g id="patch_19">
    <path d="M 934.752702 418.130526 
L 954.706612 418.130526 
L 954.706612 199.291884 
L 934.752702 199.291884 
z
" clip-path="url(#p52ac20e1c5)" style="fill: #d62728"/>
   </g>
   <g id="matplotlib.axis_3">
    <g id="xtick_7">
     <g id="line2d_16">
      <g>
       <use xlink:href="#meed541807a" x="648.746662" y="418.130526" style="stroke: #000000; stroke-width: 0.8"/>
      </g>
     </g>
     <g id="text_16">
      <!-- AUC -->
      <g transform="translate(625.490256 441.847089) scale(0.22 -0.22)">
       <defs>
        <path id="DejaVuSans-41" d="M 2188 4044 
L 1331 1722 
L 3047 1722 
L 2188 4044 
z
M 1831 4666 
L 2547 4666 
L 4325 0 
L 3669 0 
L 3244 1197 
L 1141 1197 
L 716 0 
L 50 0 
L 1831 4666 
z
" transform="scale(0.015625)"/>
        <path id="DejaVuSans-55" d="M 556 4666 
L 1191 4666 
L 1191 1831 
Q 1191 1081 1462 751 
Q 1734 422 2344 422 
Q 2950 422 3222 751 
Q 3494 1081 3494 1831 
L 3494 4666 
L 4128 4666 
L 4128 1753 
Q 4128 841 3676 375 
Q 3225 -91 2344 -91 
Q 1459 -91 1007 375 
Q 556 841 556 1753 
L 556 4666 
z
" transform="scale(0.015625)"/>
        <path id="DejaVuSans-43" d="M 4122 4306 
L 4122 3641 
Q 3803 3938 3442 4084 
Q 3081 4231 2675 4231 
Q 1875 4231 1450 3742 
Q 1025 3253 1025 2328 
Q 1025 1406 1450 917 
Q 1875 428 2675 428 
Q 3081 428 3442 575 
Q 3803 722 4122 1019 
L 4122 359 
Q 3791 134 3420 21 
Q 3050 -91 2638 -91 
Q 1578 -91 968 557 
Q 359 1206 359 2328 
Q 359 3453 968 4101 
Q 1578 4750 2638 4750 
Q 3056 4750 3426 4639 
Q 3797 4528 4122 4306 
z
" transform="scale(0.015625)"/>
       </defs>
       <use xlink:href="#DejaVuSans-41"/>
       <use xlink:href="#DejaVuSans-55" x="68.408203"/>
       <use xlink:href="#DejaVuSans-43" x="141.601562"/>
      </g>
     </g>
    </g>
    <g id="xtick_8">
     <g id="line2d_17">
      <g>
       <use xlink:href="#meed541807a" x="781.772727" y="418.130526" style="stroke: #000000; stroke-width: 0.8"/>
      </g>
     </g>
     <g id="text_17">
      <!-- $Q_{local}$ -->
      <g transform="translate(754.822727 441.847089) scale(0.22 -0.22)">
       <defs>
        <path id="DejaVuSans-Oblique-51" d="M 2309 -84 
Q 2275 -88 2237 -89 
Q 2200 -91 2125 -91 
Q 1250 -91 756 411 
Q 263 913 263 1797 
Q 263 2319 452 2844 
Q 641 3369 978 3788 
Q 1369 4269 1858 4509 
Q 2347 4750 2938 4750 
Q 3794 4750 4287 4245 
Q 4781 3741 4781 2869 
Q 4781 1928 4265 1147 
Q 3750 366 2919 44 
L 3553 -825 
L 2847 -825 
L 2309 -84 
z
M 2919 4238 
Q 2400 4238 2003 3986 
Q 1606 3734 1313 3219 
Q 1125 2891 1026 2522 
Q 928 2153 928 1778 
Q 928 1128 1239 775 
Q 1550 422 2119 422 
Q 2631 422 3032 676 
Q 3434 931 3719 1434 
Q 3909 1772 4009 2142 
Q 4109 2513 4109 2881 
Q 4109 3528 3796 3883 
Q 3484 4238 2919 4238 
z
" transform="scale(0.015625)"/>
        <path id="DejaVuSans-Oblique-6c" d="M 1172 4863 
L 1747 4863 
L 800 0 
L 225 0 
L 1172 4863 
z
" transform="scale(0.015625)"/>
        <path id="DejaVuSans-Oblique-6f" d="M 1625 -91 
Q 1009 -91 651 289 
Q 294 669 294 1325 
Q 294 1706 417 2101 
Q 541 2497 738 2766 
Q 1047 3184 1428 3384 
Q 1809 3584 2291 3584 
Q 2888 3584 3255 3212 
Q 3622 2841 3622 2241 
Q 3622 1825 3500 1412 
Q 3378 1000 3181 728 
Q 2875 309 2494 109 
Q 2113 -91 1625 -91 
z
M 891 1344 
Q 891 869 1089 633 
Q 1288 397 1691 397 
Q 2269 397 2648 901 
Q 3028 1406 3028 2181 
Q 3028 2634 2825 2865 
Q 2622 3097 2228 3097 
Q 1903 3097 1650 2945 
Q 1397 2794 1197 2484 
Q 1050 2253 970 1956 
Q 891 1659 891 1344 
z
" transform="scale(0.015625)"/>
        <path id="DejaVuSans-Oblique-63" d="M 3431 3366 
L 3316 2797 
Q 3109 2947 2876 3022 
Q 2644 3097 2394 3097 
Q 2119 3097 1870 3000 
Q 1622 2903 1453 2725 
Q 1184 2453 1037 2087 
Q 891 1722 891 1331 
Q 891 859 1127 628 
Q 1363 397 1844 397 
Q 2081 397 2348 469 
Q 2616 541 2906 684 
L 2797 116 
Q 2547 13 2283 -39 
Q 2019 -91 1741 -91 
Q 1044 -91 669 257 
Q 294 606 294 1253 
Q 294 1797 489 2255 
Q 684 2713 1069 3078 
Q 1331 3328 1684 3456 
Q 2038 3584 2456 3584 
Q 2700 3584 2940 3529 
Q 3181 3475 3431 3366 
z
" transform="scale(0.015625)"/>
        <path id="DejaVuSans-Oblique-61" d="M 3438 1997 
L 3047 0 
L 2472 0 
L 2578 531 
Q 2325 219 2001 64 
Q 1678 -91 1281 -91 
Q 834 -91 548 182 
Q 263 456 263 884 
Q 263 1497 752 1853 
Q 1241 2209 2100 2209 
L 2900 2209 
L 2931 2363 
Q 2938 2388 2941 2417 
Q 2944 2447 2944 2509 
Q 2944 2788 2717 2942 
Q 2491 3097 2081 3097 
Q 1800 3097 1504 3025 
Q 1209 2953 897 2809 
L 997 3341 
Q 1322 3463 1633 3523 
Q 1944 3584 2234 3584 
Q 2853 3584 3176 3315 
Q 3500 3047 3500 2534 
Q 3500 2431 3484 2292 
Q 3469 2153 3438 1997 
z
M 2816 1759 
L 2241 1759 
Q 1534 1759 1195 1570 
Q 856 1381 856 984 
Q 856 709 1029 553 
Q 1203 397 1509 397 
Q 1978 397 2328 733 
Q 2678 1069 2791 1631 
L 2816 1759 
z
" transform="scale(0.015625)"/>
       </defs>
       <use xlink:href="#DejaVuSans-Oblique-51" transform="translate(0 0.78125)"/>
       <use xlink:href="#DejaVuSans-Oblique-6c" transform="translate(78.710938 -15.625) scale(0.7)"/>
       <use xlink:href="#DejaVuSans-Oblique-6f" transform="translate(98.15918 -15.625) scale(0.7)"/>
       <use xlink:href="#DejaVuSans-Oblique-63" transform="translate(140.986328 -15.625) scale(0.7)"/>
       <use xlink:href="#DejaVuSans-Oblique-61" transform="translate(179.472656 -15.625) scale(0.7)"/>
       <use xlink:href="#DejaVuSans-Oblique-6c" transform="translate(222.368164 -15.625) scale(0.7)"/>
      </g>
     </g>
    </g>
    <g id="xtick_9">
     <g id="line2d_18">
      <g>
       <use xlink:href="#meed541807a" x="914.798792" y="418.130526" style="stroke: #000000; stroke-width: 0.8"/>
      </g>
     </g>
     <g id="text_18">
      <!-- $Q_{global}$ -->
      <g transform="translate(882.348792 441.630526) scale(0.22 -0.22)">
       <defs>
        <path id="DejaVuSans-Oblique-67" d="M 3816 3500 
L 3219 434 
Q 3047 -456 2561 -893 
Q 2075 -1331 1253 -1331 
Q 950 -1331 690 -1286 
Q 431 -1241 206 -1147 
L 313 -588 
Q 525 -725 762 -790 
Q 1000 -856 1269 -856 
Q 1816 -856 2167 -557 
Q 2519 -259 2631 300 
L 2681 563 
Q 2441 288 2122 144 
Q 1803 0 1434 0 
Q 903 0 598 351 
Q 294 703 294 1319 
Q 294 1803 478 2267 
Q 663 2731 997 3091 
Q 1219 3328 1514 3456 
Q 1809 3584 2131 3584 
Q 2484 3584 2746 3420 
Q 3009 3256 3138 2956 
L 3238 3500 
L 3816 3500 
z
M 2950 2216 
Q 2950 2641 2750 2872 
Q 2550 3103 2181 3103 
Q 1953 3103 1747 3012 
Q 1541 2922 1394 2759 
Q 1156 2491 1023 2127 
Q 891 1763 891 1375 
Q 891 944 1092 712 
Q 1294 481 1672 481 
Q 2219 481 2584 976 
Q 2950 1472 2950 2216 
z
" transform="scale(0.015625)"/>
        <path id="DejaVuSans-Oblique-62" d="M 3169 2138 
Q 3169 2591 2961 2847 
Q 2753 3103 2388 3103 
Q 2122 3103 1889 2973 
Q 1656 2844 1484 2597 
Q 1303 2338 1198 1995 
Q 1094 1653 1094 1313 
Q 1094 881 1298 636 
Q 1503 391 1863 391 
Q 2134 391 2365 517 
Q 2597 644 2772 891 
Q 2950 1147 3059 1487 
Q 3169 1828 3169 2138 
z
M 1381 2969 
Q 1594 3256 1914 3420 
Q 2234 3584 2584 3584 
Q 3122 3584 3439 3221 
Q 3756 2859 3756 2241 
Q 3756 1734 3570 1259 
Q 3384 784 3041 416 
Q 2816 172 2522 40 
Q 2228 -91 1906 -91 
Q 1566 -91 1316 65 
Q 1066 222 909 531 
L 806 0 
L 231 0 
L 1178 4863 
L 1753 4863 
L 1381 2969 
z
" transform="scale(0.015625)"/>
       </defs>
       <use xlink:href="#DejaVuSans-Oblique-51" transform="translate(0 0.78125)"/>
       <use xlink:href="#DejaVuSans-Oblique-67" transform="translate(78.710938 -15.625) scale(0.7)"/>
       <use xlink:href="#DejaVuSans-Oblique-6c" transform="translate(123.144531 -15.625) scale(0.7)"/>
       <use xlink:href="#DejaVuSans-Oblique-6f" transform="translate(142.592773 -15.625) scale(0.7)"/>
       <use xlink:href="#DejaVuSans-Oblique-62" transform="translate(185.419922 -15.625) scale(0.7)"/>
       <use xlink:href="#DejaVuSans-Oblique-61" transform="translate(229.853516 -15.625) scale(0.7)"/>
       <use xlink:href="#DejaVuSans-Oblique-6c" transform="translate(272.749023 -15.625) scale(0.7)"/>
      </g>
     </g>
    </g>
   </g>
   <g id="matplotlib.axis_4">
    <g id="ytick_6">
     <g id="line2d_19">
      <g>
       <use xlink:href="#m98623a2e32" x="591.545455" y="418.130526" style="stroke: #000000; stroke-width: 0.8"/>
      </g>
     </g>
     <g id="text_19">
      <!-- 0.0 -->
      <g transform="translate(549.55858 426.488808) scale(0.22 -0.22)">
       <use xlink:href="#DejaVuSans-30"/>
       <use xlink:href="#DejaVuSans-2e" x="63.623047"/>
       <use xlink:href="#DejaVuSans-30" x="95.410156"/>
      </g>
     </g>
    </g>
    <g id="ytick_7">
     <g id="line2d_20">
      <g>
       <use xlink:href="#m98623a2e32" x="591.545455" y="355.277166" style="stroke: #000000; stroke-width: 0.8"/>
      </g>
     </g>
     <g id="text_20">
      <!-- 0.2 -->
      <g transform="translate(549.55858 363.635447) scale(0.22 -0.22)">
       <use xlink:href="#DejaVuSans-30"/>
       <use xlink:href="#DejaVuSans-2e" x="63.623047"/>
       <use xlink:href="#DejaVuSans-32" x="95.410156"/>
      </g>
     </g>
    </g>
    <g id="ytick_8">
     <g id="line2d_21">
      <g>
       <use xlink:href="#m98623a2e32" x="591.545455" y="292.423805" style="stroke: #000000; stroke-width: 0.8"/>
      </g>
     </g>
     <g id="text_21">
      <!-- 0.4 -->
      <g transform="translate(549.55858 300.782086) scale(0.22 -0.22)">
       <use xlink:href="#DejaVuSans-30"/>
       <use xlink:href="#DejaVuSans-2e" x="63.623047"/>
       <use xlink:href="#DejaVuSans-34" x="95.410156"/>
      </g>
     </g>
    </g>
    <g id="ytick_9">
     <g id="line2d_22">
      <g>
       <use xlink:href="#m98623a2e32" x="591.545455" y="229.570444" style="stroke: #000000; stroke-width: 0.8"/>
      </g>
     </g>
     <g id="text_22">
      <!-- 0.6 -->
      <g transform="translate(549.55858 237.928726) scale(0.22 -0.22)">
       <use xlink:href="#DejaVuSans-30"/>
       <use xlink:href="#DejaVuSans-2e" x="63.623047"/>
       <use xlink:href="#DejaVuSans-36" x="95.410156"/>
      </g>
     </g>
    </g>
    <g id="ytick_10">
     <g id="line2d_23">
      <g>
       <use xlink:href="#m98623a2e32" x="591.545455" y="166.717084" style="stroke: #000000; stroke-width: 0.8"/>
      </g>
     </g>
     <g id="text_23">
      <!-- 0.8 -->
      <g transform="translate(549.55858 175.075365) scale(0.22 -0.22)">
       <use xlink:href="#DejaVuSans-30"/>
       <use xlink:href="#DejaVuSans-2e" x="63.623047"/>
       <use xlink:href="#DejaVuSans-38" x="95.410156"/>
      </g>
     </g>
    </g>
    <g id="text_24">
     <!-- Metric Value -->
     <g transform="translate(540.983267 354.727919) rotate(-90) scale(0.22 -0.22)">
      <defs>
       <path id="DejaVuSans-4d" d="M 628 4666 
L 1569 4666 
L 2759 1491 
L 3956 4666 
L 4897 4666 
L 4897 0 
L 4281 0 
L 4281 4097 
L 3078 897 
L 2444 897 
L 1241 4097 
L 1241 0 
L 628 0 
L 628 4666 
z
" transform="scale(0.015625)"/>
       <path id="DejaVuSans-65" d="M 3597 1894 
L 3597 1613 
L 953 1613 
Q 991 1019 1311 708 
Q 1631 397 2203 397 
Q 2534 397 2845 478 
Q 3156 559 3463 722 
L 3463 178 
Q 3153 47 2828 -22 
Q 2503 -91 2169 -91 
Q 1331 -91 842 396 
Q 353 884 353 1716 
Q 353 2575 817 3079 
Q 1281 3584 2069 3584 
Q 2775 3584 3186 3129 
Q 3597 2675 3597 1894 
z
M 3022 2063 
Q 3016 2534 2758 2815 
Q 2500 3097 2075 3097 
Q 1594 3097 1305 2825 
Q 1016 2553 972 2059 
L 3022 2063 
z
" transform="scale(0.015625)"/>
       <path id="DejaVuSans-74" d="M 1172 4494 
L 1172 3500 
L 2356 3500 
L 2356 3053 
L 1172 3053 
L 1172 1153 
Q 1172 725 1289 603 
Q 1406 481 1766 481 
L 2356 481 
L 2356 0 
L 1766 0 
Q 1100 0 847 248 
Q 594 497 594 1153 
L 594 3053 
L 172 3053 
L 172 3500 
L 594 3500 
L 594 4494 
L 1172 4494 
z
" transform="scale(0.015625)"/>
       <path id="DejaVuSans-72" d="M 2631 2963 
Q 2534 3019 2420 3045 
Q 2306 3072 2169 3072 
Q 1681 3072 1420 2755 
Q 1159 2438 1159 1844 
L 1159 0 
L 581 0 
L 581 3500 
L 1159 3500 
L 1159 2956 
Q 1341 3275 1631 3429 
Q 1922 3584 2338 3584 
Q 2397 3584 2469 3576 
Q 2541 3569 2628 3553 
L 2631 2963 
z
" transform="scale(0.015625)"/>
       <path id="DejaVuSans-69" d="M 603 3500 
L 1178 3500 
L 1178 0 
L 603 0 
L 603 3500 
z
M 603 4863 
L 1178 4863 
L 1178 4134 
L 603 4134 
L 603 4863 
z
" transform="scale(0.015625)"/>
       <path id="DejaVuSans-63" d="M 3122 3366 
L 3122 2828 
Q 2878 2963 2633 3030 
Q 2388 3097 2138 3097 
Q 1578 3097 1268 2742 
Q 959 2388 959 1747 
Q 959 1106 1268 751 
Q 1578 397 2138 397 
Q 2388 397 2633 464 
Q 2878 531 3122 666 
L 3122 134 
Q 2881 22 2623 -34 
Q 2366 -91 2075 -91 
Q 1284 -91 818 406 
Q 353 903 353 1747 
Q 353 2603 823 3093 
Q 1294 3584 2113 3584 
Q 2378 3584 2631 3529 
Q 2884 3475 3122 3366 
z
" transform="scale(0.015625)"/>
       <path id="DejaVuSans-20" transform="scale(0.015625)"/>
       <path id="DejaVuSans-56" d="M 1831 0 
L 50 4666 
L 709 4666 
L 2188 738 
L 3669 4666 
L 4325 4666 
L 2547 0 
L 1831 0 
z
" transform="scale(0.015625)"/>
       <path id="DejaVuSans-61" d="M 2194 1759 
Q 1497 1759 1228 1600 
Q 959 1441 959 1056 
Q 959 750 1161 570 
Q 1363 391 1709 391 
Q 2188 391 2477 730 
Q 2766 1069 2766 1631 
L 2766 1759 
L 2194 1759 
z
M 3341 1997 
L 3341 0 
L 2766 0 
L 2766 531 
Q 2569 213 2275 61 
Q 1981 -91 1556 -91 
Q 1019 -91 701 211 
Q 384 513 384 1019 
Q 384 1609 779 1909 
Q 1175 2209 1959 2209 
L 2766 2209 
L 2766 2266 
Q 2766 2663 2505 2880 
Q 2244 3097 1772 3097 
Q 1472 3097 1187 3025 
Q 903 2953 641 2809 
L 641 3341 
Q 956 3463 1253 3523 
Q 1550 3584 1831 3584 
Q 2591 3584 2966 3190 
Q 3341 2797 3341 1997 
z
" transform="scale(0.015625)"/>
       <path id="DejaVuSans-6c" d="M 603 4863 
L 1178 4863 
L 1178 0 
L 603 0 
L 603 4863 
z
" transform="scale(0.015625)"/>
       <path id="DejaVuSans-75" d="M 544 1381 
L 544 3500 
L 1119 3500 
L 1119 1403 
Q 1119 906 1312 657 
Q 1506 409 1894 409 
Q 2359 409 2629 706 
Q 2900 1003 2900 1516 
L 2900 3500 
L 3475 3500 
L 3475 0 
L 2900 0 
L 2900 538 
Q 2691 219 2414 64 
Q 2138 -91 1772 -91 
Q 1169 -91 856 284 
Q 544 659 544 1381 
z
M 1991 3584 
L 1991 3584 
z
" transform="scale(0.015625)"/>
      </defs>
      <use xlink:href="#DejaVuSans-4d"/>
      <use xlink:href="#DejaVuSans-65" x="86.279297"/>
      <use xlink:href="#DejaVuSans-74" x="147.802734"/>
      <use xlink:href="#DejaVuSans-72" x="187.011719"/>
      <use xlink:href="#DejaVuSans-69" x="228.125"/>
      <use xlink:href="#DejaVuSans-63" x="255.908203"/>
      <use xlink:href="#DejaVuSans-20" x="310.888672"/>
      <use xlink:href="#DejaVuSans-56" x="342.675781"/>
      <use xlink:href="#DejaVuSans-61" x="403.333984"/>
      <use xlink:href="#DejaVuSans-6c" x="464.613281"/>
      <use xlink:href="#DejaVuSans-75" x="492.396484"/>
      <use xlink:href="#DejaVuSans-65" x="555.775391"/>
     </g>
    </g>
   </g>
   <g id="patch_20">
    <path d="M 591.545455 418.130526 
L 591.545455 155.52 
" style="fill: none; stroke: #000000; stroke-width: 0.8; stroke-linejoin: miter; stroke-linecap: square"/>
   </g>
   <g id="patch_21">
    <path d="M 972 418.130526 
L 972 155.52 
" style="fill: none; stroke: #000000; stroke-width: 0.8; stroke-linejoin: miter; stroke-linecap: square"/>
   </g>
   <g id="patch_22">
    <path d="M 591.545455 418.130526 
L 972 418.130526 
" style="fill: none; stroke: #000000; stroke-width: 0.8; stroke-linejoin: miter; stroke-linecap: square"/>
   </g>
   <g id="patch_23">
    <path d="M 591.545455 155.52 
L 972 155.52 
" style="fill: none; stroke: #000000; stroke-width: 0.8; stroke-linejoin: miter; stroke-linecap: square"/>
   </g>
   <g id="text_25">
    <!-- b -->
    <g transform="translate(544.871761 137.404046) scale(0.28 -0.28)">
     <defs>
      <path id="DejaVuSans-Bold-62" d="M 2400 722 
Q 2759 722 2948 984 
Q 3138 1247 3138 1747 
Q 3138 2247 2948 2509 
Q 2759 2772 2400 2772 
Q 2041 2772 1848 2508 
Q 1656 2244 1656 1747 
Q 1656 1250 1848 986 
Q 2041 722 2400 722 
z
M 1656 2988 
Q 1888 3294 2169 3439 
Q 2450 3584 2816 3584 
Q 3463 3584 3878 3070 
Q 4294 2556 4294 1747 
Q 4294 938 3878 423 
Q 3463 -91 2816 -91 
Q 2450 -91 2169 54 
Q 1888 200 1656 506 
L 1656 0 
L 538 0 
L 538 4863 
L 1656 4863 
L 1656 2988 
z
" transform="scale(0.015625)"/>
     </defs>
     <use xlink:href="#DejaVuSans-Bold-62"/>
    </g>
   </g>
   <g id="text_26">
    <!-- Metrics -->
    <g transform="translate(734.584759 149.52) scale(0.26 -0.26)">
     <defs>
      <path id="DejaVuSans-73" d="M 2834 3397 
L 2834 2853 
Q 2591 2978 2328 3040 
Q 2066 3103 1784 3103 
Q 1356 3103 1142 2972 
Q 928 2841 928 2578 
Q 928 2378 1081 2264 
Q 1234 2150 1697 2047 
L 1894 2003 
Q 2506 1872 2764 1633 
Q 3022 1394 3022 966 
Q 3022 478 2636 193 
Q 2250 -91 1575 -91 
Q 1294 -91 989 -36 
Q 684 19 347 128 
L 347 722 
Q 666 556 975 473 
Q 1284 391 1588 391 
Q 1994 391 2212 530 
Q 2431 669 2431 922 
Q 2431 1156 2273 1281 
Q 2116 1406 1581 1522 
L 1381 1569 
Q 847 1681 609 1914 
Q 372 2147 372 2553 
Q 372 3047 722 3315 
Q 1072 3584 1716 3584 
Q 2034 3584 2315 3537 
Q 2597 3491 2834 3397 
z
" transform="scale(0.015625)"/>
     </defs>
     <use xlink:href="#DejaVuSans-4d"/>
     <use xlink:href="#DejaVuSans-65" x="86.279297"/>
     <use xlink:href="#DejaVuSans-74" x="147.802734"/>
     <use xlink:href="#DejaVuSans-72" x="187.011719"/>
     <use xlink:href="#DejaVuSans-69" x="228.125"/>
     <use xlink:href="#DejaVuSans-63" x="255.908203"/>
     <use xlink:href="#DejaVuSans-73" x="310.888672"/>
    </g>
   </g>
  </g>
  <g id="axes_3">
   <g id="patch_24">
    <path d="M 135 785.785263 
L 515.454545 785.785263 
L 515.454545 523.174737 
L 135 523.174737 
z
" style="fill: #ffffff"/>
   </g>
   <g id="matplotlib.axis_5">
    <g id="xtick_10">
     <g id="line2d_24">
      <g>
       <use xlink:href="#meed541807a" x="137.882231" y="785.785263" style="stroke: #000000; stroke-width: 0.8"/>
      </g>
     </g>
     <g id="text_27">
      <!-- 0 -->
      <g transform="translate(130.883481 809.501826) scale(0.22 -0.22)">
       <use xlink:href="#DejaVuSans-30"/>
      </g>
     </g>
    </g>
    <g id="xtick_11">
     <g id="line2d_25">
      <g>
       <use xlink:href="#meed541807a" x="281.993802" y="785.785263" style="stroke: #000000; stroke-width: 0.8"/>
      </g>
     </g>
     <g id="text_28">
      <!-- 20 -->
      <g transform="translate(267.996302 809.501826) scale(0.22 -0.22)">
       <use xlink:href="#DejaVuSans-32"/>
       <use xlink:href="#DejaVuSans-30" x="63.623047"/>
      </g>
     </g>
    </g>
    <g id="xtick_12">
     <g id="line2d_26">
      <g>
       <use xlink:href="#meed541807a" x="426.105372" y="785.785263" style="stroke: #000000; stroke-width: 0.8"/>
      </g>
     </g>
     <g id="text_29">
      <!-- 40 -->
      <g transform="translate(412.107872 809.501826) scale(0.22 -0.22)">
       <use xlink:href="#DejaVuSans-34"/>
       <use xlink:href="#DejaVuSans-30" x="63.623047"/>
      </g>
     </g>
    </g>
    <g id="text_30">
     <!-- k -->
     <g transform="translate(318.278523 836.313388) scale(0.24 -0.24)">
      <use xlink:href="#DejaVuSans-6b"/>
     </g>
    </g>
   </g>
   <g id="matplotlib.axis_6">
    <g id="ytick_11">
     <g id="line2d_27">
      <g>
       <use xlink:href="#m98623a2e32" x="135" y="753.433475" style="stroke: #000000; stroke-width: 0.8"/>
      </g>
     </g>
     <g id="text_31">
      <!-- 0.85 -->
      <g transform="translate(79.015625 761.791756) scale(0.22 -0.22)">
       <use xlink:href="#DejaVuSans-30"/>
       <use xlink:href="#DejaVuSans-2e" x="63.623047"/>
       <use xlink:href="#DejaVuSans-38" x="95.410156"/>
       <use xlink:href="#DejaVuSans-35" x="159.033203"/>
      </g>
     </g>
    </g>
    <g id="ytick_12">
     <g id="line2d_28">
      <g>
       <use xlink:href="#m98623a2e32" x="135" y="677.322349" style="stroke: #000000; stroke-width: 0.8"/>
      </g>
     </g>
     <g id="text_32">
      <!-- 0.90 -->
      <g transform="translate(79.015625 685.680631) scale(0.22 -0.22)">
       <defs>
        <path id="DejaVuSans-39" d="M 703 97 
L 703 672 
Q 941 559 1184 500 
Q 1428 441 1663 441 
Q 2288 441 2617 861 
Q 2947 1281 2994 2138 
Q 2813 1869 2534 1725 
Q 2256 1581 1919 1581 
Q 1219 1581 811 2004 
Q 403 2428 403 3163 
Q 403 3881 828 4315 
Q 1253 4750 1959 4750 
Q 2769 4750 3195 4129 
Q 3622 3509 3622 2328 
Q 3622 1225 3098 567 
Q 2575 -91 1691 -91 
Q 1453 -91 1209 -44 
Q 966 3 703 97 
z
M 1959 2075 
Q 2384 2075 2632 2365 
Q 2881 2656 2881 3163 
Q 2881 3666 2632 3958 
Q 2384 4250 1959 4250 
Q 1534 4250 1286 3958 
Q 1038 3666 1038 3163 
Q 1038 2656 1286 2365 
Q 1534 2075 1959 2075 
z
" transform="scale(0.015625)"/>
       </defs>
       <use xlink:href="#DejaVuSans-30"/>
       <use xlink:href="#DejaVuSans-2e" x="63.623047"/>
       <use xlink:href="#DejaVuSans-39" x="95.410156"/>
       <use xlink:href="#DejaVuSans-30" x="159.033203"/>
      </g>
     </g>
    </g>
    <g id="ytick_13">
     <g id="line2d_29">
      <g>
       <use xlink:href="#m98623a2e32" x="135" y="601.211224" style="stroke: #000000; stroke-width: 0.8"/>
      </g>
     </g>
     <g id="text_33">
      <!-- 0.95 -->
      <g transform="translate(79.015625 609.569505) scale(0.22 -0.22)">
       <use xlink:href="#DejaVuSans-30"/>
       <use xlink:href="#DejaVuSans-2e" x="63.623047"/>
       <use xlink:href="#DejaVuSans-39" x="95.410156"/>
       <use xlink:href="#DejaVuSans-35" x="159.033203"/>
      </g>
     </g>
    </g>
    <g id="ytick_14">
     <g id="line2d_30">
      <g>
       <use xlink:href="#m98623a2e32" x="135" y="525.100099" style="stroke: #000000; stroke-width: 0.8"/>
      </g>
     </g>
     <g id="text_34">
      <!-- 1.00 -->
      <g transform="translate(79.015625 533.45838) scale(0.22 -0.22)">
       <use xlink:href="#DejaVuSans-31"/>
       <use xlink:href="#DejaVuSans-2e" x="63.623047"/>
       <use xlink:href="#DejaVuSans-30" x="95.410156"/>
       <use xlink:href="#DejaVuSans-30" x="159.033203"/>
      </g>
     </g>
    </g>
    <g id="text_35">
     <!-- Metric Value -->
     <g transform="translate(70.024375 728.555625) rotate(-90) scale(0.24 -0.24)">
      <use xlink:href="#DejaVuSans-4d"/>
      <use xlink:href="#DejaVuSans-65" x="86.279297"/>
      <use xlink:href="#DejaVuSans-74" x="147.802734"/>
      <use xlink:href="#DejaVuSans-72" x="187.011719"/>
      <use xlink:href="#DejaVuSans-69" x="228.125"/>
      <use xlink:href="#DejaVuSans-63" x="255.908203"/>
      <use xlink:href="#DejaVuSans-20" x="310.888672"/>
      <use xlink:href="#DejaVuSans-56" x="342.675781"/>
      <use xlink:href="#DejaVuSans-61" x="403.333984"/>
      <use xlink:href="#DejaVuSans-6c" x="464.613281"/>
      <use xlink:href="#DejaVuSans-75" x="492.396484"/>
      <use xlink:href="#DejaVuSans-65" x="555.775391"/>
     </g>
    </g>
   </g>
   <g id="line2d_31">
    <path d="M 152.293388 768.998686 
L 173.910124 765.225077 
L 209.938017 767.359713 
L 281.993802 773.848421 
L 498.161157 772.955223 
" clip-path="url(#p56040f9d9a)" style="fill: none; stroke: #1f77b4; stroke-width: 1.5; stroke-linecap: square"/>
    <g clip-path="url(#p56040f9d9a)">
     <use xlink:href="#mdc1135b5ec" x="152.293388" y="768.998686" style="fill: #1f77b4; stroke: #1f77b4"/>
     <use xlink:href="#mdc1135b5ec" x="173.910124" y="765.225077" style="fill: #1f77b4; stroke: #1f77b4"/>
     <use xlink:href="#mdc1135b5ec" x="209.938017" y="767.359713" style="fill: #1f77b4; stroke: #1f77b4"/>
     <use xlink:href="#mdc1135b5ec" x="281.993802" y="773.848421" style="fill: #1f77b4; stroke: #1f77b4"/>
     <use xlink:href="#mdc1135b5ec" x="498.161157" y="772.955223" style="fill: #1f77b4; stroke: #1f77b4"/>
    </g>
   </g>
   <g id="line2d_32">
    <path d="M 152.293388 535.111579 
L 173.910124 542.438288 
L 209.938017 555.542269 
L 281.993802 575.450667 
L 498.161157 630.633778 
" clip-path="url(#p56040f9d9a)" style="fill: none; stroke: #ff7f0e; stroke-width: 1.5; stroke-linecap: square"/>
    <g clip-path="url(#p56040f9d9a)">
     <use xlink:href="#medbfa778f6" x="152.293388" y="535.111579" style="fill: #ff7f0e; stroke: #ff7f0e"/>
     <use xlink:href="#medbfa778f6" x="173.910124" y="542.438288" style="fill: #ff7f0e; stroke: #ff7f0e"/>
     <use xlink:href="#medbfa778f6" x="209.938017" y="555.542269" style="fill: #ff7f0e; stroke: #ff7f0e"/>
     <use xlink:href="#medbfa778f6" x="281.993802" y="575.450667" style="fill: #ff7f0e; stroke: #ff7f0e"/>
     <use xlink:href="#medbfa778f6" x="498.161157" y="630.633778" style="fill: #ff7f0e; stroke: #ff7f0e"/>
    </g>
   </g>
   <g id="line2d_33">
    <path d="M 152.293388 549.970241 
L 173.910124 556.031592 
L 209.938017 564.072732 
L 281.993802 582.593161 
L 498.161157 648.151552 
" clip-path="url(#p56040f9d9a)" style="fill: none; stroke: #2ca02c; stroke-width: 1.5; stroke-linecap: square"/>
    <g clip-path="url(#p56040f9d9a)">
     <use xlink:href="#m14fa7fd6a1" x="152.293388" y="549.970241" style="fill: #2ca02c; stroke: #2ca02c"/>
     <use xlink:href="#m14fa7fd6a1" x="173.910124" y="556.031592" style="fill: #2ca02c; stroke: #2ca02c"/>
     <use xlink:href="#m14fa7fd6a1" x="209.938017" y="564.072732" style="fill: #2ca02c; stroke: #2ca02c"/>
     <use xlink:href="#m14fa7fd6a1" x="281.993802" y="582.593161" style="fill: #2ca02c; stroke: #2ca02c"/>
     <use xlink:href="#m14fa7fd6a1" x="498.161157" y="648.151552" style="fill: #2ca02c; stroke: #2ca02c"/>
    </g>
   </g>
   <g id="line2d_34">
    <path d="M 152.293388 551.216105 
L 173.910124 557.351706 
L 209.938017 561.994511 
L 281.993802 574.673135 
L 498.161157 603.424729 
" clip-path="url(#p56040f9d9a)" style="fill: none; stroke: #d62728; stroke-width: 1.5; stroke-linecap: square"/>
    <g clip-path="url(#p56040f9d9a)">
     <use xlink:href="#m078fb2f29a" x="152.293388" y="551.216105" style="fill: #d62728; stroke: #d62728"/>
     <use xlink:href="#m078fb2f29a" x="173.910124" y="557.351706" style="fill: #d62728; stroke: #d62728"/>
     <use xlink:href="#m078fb2f29a" x="209.938017" y="561.994511" style="fill: #d62728; stroke: #d62728"/>
     <use xlink:href="#m078fb2f29a" x="281.993802" y="574.673135" style="fill: #d62728; stroke: #d62728"/>
     <use xlink:href="#m078fb2f29a" x="498.161157" y="603.424729" style="fill: #d62728; stroke: #d62728"/>
    </g>
   </g>
   <g id="patch_25">
    <path d="M 135 785.785263 
L 135 523.174737 
" style="fill: none; stroke: #000000; stroke-width: 0.8; stroke-linejoin: miter; stroke-linecap: square"/>
   </g>
   <g id="patch_26">
    <path d="M 515.454545 785.785263 
L 515.454545 523.174737 
" style="fill: none; stroke: #000000; stroke-width: 0.8; stroke-linejoin: miter; stroke-linecap: square"/>
   </g>
   <g id="patch_27">
    <path d="M 135 785.785263 
L 515.454545 785.785263 
" style="fill: none; stroke: #000000; stroke-width: 0.8; stroke-linejoin: miter; stroke-linecap: square"/>
   </g>
   <g id="patch_28">
    <path d="M 135 523.174737 
L 515.454545 523.174737 
" style="fill: none; stroke: #000000; stroke-width: 0.8; stroke-linejoin: miter; stroke-linecap: square"/>
   </g>
   <g id="text_36">
    <!-- c -->
    <g transform="translate(91.769432 505.058783) scale(0.28 -0.28)">
     <defs>
      <path id="DejaVuSans-Bold-63" d="M 3366 3391 
L 3366 2478 
Q 3138 2634 2908 2709 
Q 2678 2784 2431 2784 
Q 1963 2784 1702 2511 
Q 1441 2238 1441 1747 
Q 1441 1256 1702 982 
Q 1963 709 2431 709 
Q 2694 709 2930 787 
Q 3166 866 3366 1019 
L 3366 103 
Q 3103 6 2833 -42 
Q 2563 -91 2291 -91 
Q 1344 -91 809 395 
Q 275 881 275 1747 
Q 275 2613 809 3098 
Q 1344 3584 2291 3584 
Q 2566 3584 2833 3536 
Q 3100 3488 3366 3391 
z
" transform="scale(0.015625)"/>
     </defs>
     <use xlink:href="#DejaVuSans-Bold-63"/>
    </g>
   </g>
   <g id="text_37">
    <!-- Trustworthiness -->
    <g transform="translate(230.950398 517.174737) scale(0.24 -0.24)">
     <defs>
      <path id="DejaVuSans-54" d="M -19 4666 
L 3928 4666 
L 3928 4134 
L 2272 4134 
L 2272 0 
L 1638 0 
L 1638 4134 
L -19 4134 
L -19 4666 
z
" transform="scale(0.015625)"/>
      <path id="DejaVuSans-77" d="M 269 3500 
L 844 3500 
L 1563 769 
L 2278 3500 
L 2956 3500 
L 3675 769 
L 4391 3500 
L 4966 3500 
L 4050 0 
L 3372 0 
L 2619 2869 
L 1863 0 
L 1184 0 
L 269 3500 
z
" transform="scale(0.015625)"/>
      <path id="DejaVuSans-6f" d="M 1959 3097 
Q 1497 3097 1228 2736 
Q 959 2375 959 1747 
Q 959 1119 1226 758 
Q 1494 397 1959 397 
Q 2419 397 2687 759 
Q 2956 1122 2956 1747 
Q 2956 2369 2687 2733 
Q 2419 3097 1959 3097 
z
M 1959 3584 
Q 2709 3584 3137 3096 
Q 3566 2609 3566 1747 
Q 3566 888 3137 398 
Q 2709 -91 1959 -91 
Q 1206 -91 779 398 
Q 353 888 353 1747 
Q 353 2609 779 3096 
Q 1206 3584 1959 3584 
z
" transform="scale(0.015625)"/>
      <path id="DejaVuSans-68" d="M 3513 2113 
L 3513 0 
L 2938 0 
L 2938 2094 
Q 2938 2591 2744 2837 
Q 2550 3084 2163 3084 
Q 1697 3084 1428 2787 
Q 1159 2491 1159 1978 
L 1159 0 
L 581 0 
L 581 4863 
L 1159 4863 
L 1159 2956 
Q 1366 3272 1645 3428 
Q 1925 3584 2291 3584 
Q 2894 3584 3203 3211 
Q 3513 2838 3513 2113 
z
" transform="scale(0.015625)"/>
      <path id="DejaVuSans-6e" d="M 3513 2113 
L 3513 0 
L 2938 0 
L 2938 2094 
Q 2938 2591 2744 2837 
Q 2550 3084 2163 3084 
Q 1697 3084 1428 2787 
Q 1159 2491 1159 1978 
L 1159 0 
L 581 0 
L 581 3500 
L 1159 3500 
L 1159 2956 
Q 1366 3272 1645 3428 
Q 1925 3584 2291 3584 
Q 2894 3584 3203 3211 
Q 3513 2838 3513 2113 
z
" transform="scale(0.015625)"/>
     </defs>
     <use xlink:href="#DejaVuSans-54"/>
     <use xlink:href="#DejaVuSans-72" x="46.333984"/>
     <use xlink:href="#DejaVuSans-75" x="87.447266"/>
     <use xlink:href="#DejaVuSans-73" x="150.826172"/>
     <use xlink:href="#DejaVuSans-74" x="202.925781"/>
     <use xlink:href="#DejaVuSans-77" x="242.134766"/>
     <use xlink:href="#DejaVuSans-6f" x="323.921875"/>
     <use xlink:href="#DejaVuSans-72" x="385.103516"/>
     <use xlink:href="#DejaVuSans-74" x="426.216797"/>
     <use xlink:href="#DejaVuSans-68" x="465.425781"/>
     <use xlink:href="#DejaVuSans-69" x="528.804688"/>
     <use xlink:href="#DejaVuSans-6e" x="556.587891"/>
     <use xlink:href="#DejaVuSans-65" x="619.966797"/>
     <use xlink:href="#DejaVuSans-73" x="681.490234"/>
     <use xlink:href="#DejaVuSans-73" x="733.589844"/>
    </g>
   </g>
  </g>
  <g id="axes_4">
   <g id="patch_29">
    <path d="M 591.545455 785.785263 
L 972 785.785263 
L 972 523.174737 
L 591.545455 523.174737 
z
" style="fill: #ffffff"/>
   </g>
   <g id="matplotlib.axis_7">
    <g id="xtick_13">
     <g id="line2d_35">
      <g>
       <use xlink:href="#meed541807a" x="594.427686" y="785.785263" style="stroke: #000000; stroke-width: 0.8"/>
      </g>
     </g>
     <g id="text_38">
      <!-- 0 -->
      <g transform="translate(587.428936 809.501826) scale(0.22 -0.22)">
       <use xlink:href="#DejaVuSans-30"/>
      </g>
     </g>
    </g>
    <g id="xtick_14">
     <g id="line2d_36">
      <g>
       <use xlink:href="#meed541807a" x="738.539256" y="785.785263" style="stroke: #000000; stroke-width: 0.8"/>
      </g>
     </g>
     <g id="text_39">
      <!-- 20 -->
      <g transform="translate(724.541756 809.501826) scale(0.22 -0.22)">
       <use xlink:href="#DejaVuSans-32"/>
       <use xlink:href="#DejaVuSans-30" x="63.623047"/>
      </g>
     </g>
    </g>
    <g id="xtick_15">
     <g id="line2d_37">
      <g>
       <use xlink:href="#meed541807a" x="882.650826" y="785.785263" style="stroke: #000000; stroke-width: 0.8"/>
      </g>
     </g>
     <g id="text_40">
      <!-- 40 -->
      <g transform="translate(868.653326 809.501826) scale(0.22 -0.22)">
       <use xlink:href="#DejaVuSans-34"/>
       <use xlink:href="#DejaVuSans-30" x="63.623047"/>
      </g>
     </g>
    </g>
    <g id="text_41">
     <!-- k -->
     <g transform="translate(774.823977 836.313388) scale(0.24 -0.24)">
      <use xlink:href="#DejaVuSans-6b"/>
     </g>
    </g>
   </g>
   <g id="matplotlib.axis_8">
    <g id="ytick_15">
     <g id="line2d_38">
      <g>
       <use xlink:href="#m98623a2e32" x="591.545455" y="745.427383" style="stroke: #000000; stroke-width: 0.8"/>
      </g>
     </g>
     <g id="text_42">
      <!-- 0.900 -->
      <g transform="translate(521.56358 753.785665) scale(0.22 -0.22)">
       <use xlink:href="#DejaVuSans-30"/>
       <use xlink:href="#DejaVuSans-2e" x="63.623047"/>
       <use xlink:href="#DejaVuSans-39" x="95.410156"/>
       <use xlink:href="#DejaVuSans-30" x="159.033203"/>
       <use xlink:href="#DejaVuSans-30" x="222.65625"/>
      </g>
     </g>
    </g>
    <g id="ytick_16">
     <g id="line2d_39">
      <g>
       <use xlink:href="#m98623a2e32" x="591.545455" y="683.591309" style="stroke: #000000; stroke-width: 0.8"/>
      </g>
     </g>
     <g id="text_43">
      <!-- 0.925 -->
      <g transform="translate(521.56358 691.94959) scale(0.22 -0.22)">
       <use xlink:href="#DejaVuSans-30"/>
       <use xlink:href="#DejaVuSans-2e" x="63.623047"/>
       <use xlink:href="#DejaVuSans-39" x="95.410156"/>
       <use xlink:href="#DejaVuSans-32" x="159.033203"/>
       <use xlink:href="#DejaVuSans-35" x="222.65625"/>
      </g>
     </g>
    </g>
    <g id="ytick_17">
     <g id="line2d_40">
      <g>
       <use xlink:href="#m98623a2e32" x="591.545455" y="621.755234" style="stroke: #000000; stroke-width: 0.8"/>
      </g>
     </g>
     <g id="text_44">
      <!-- 0.950 -->
      <g transform="translate(521.56358 630.113515) scale(0.22 -0.22)">
       <use xlink:href="#DejaVuSans-30"/>
       <use xlink:href="#DejaVuSans-2e" x="63.623047"/>
       <use xlink:href="#DejaVuSans-39" x="95.410156"/>
       <use xlink:href="#DejaVuSans-35" x="159.033203"/>
       <use xlink:href="#DejaVuSans-30" x="222.65625"/>
      </g>
     </g>
    </g>
    <g id="ytick_18">
     <g id="line2d_41">
      <g>
       <use xlink:href="#m98623a2e32" x="591.545455" y="559.919159" style="stroke: #000000; stroke-width: 0.8"/>
      </g>
     </g>
     <g id="text_45">
      <!-- 0.975 -->
      <g transform="translate(521.56358 568.27744) scale(0.22 -0.22)">
       <defs>
        <path id="DejaVuSans-37" d="M 525 4666 
L 3525 4666 
L 3525 4397 
L 1831 0 
L 1172 0 
L 2766 4134 
L 525 4134 
L 525 4666 
z
" transform="scale(0.015625)"/>
       </defs>
       <use xlink:href="#DejaVuSans-30"/>
       <use xlink:href="#DejaVuSans-2e" x="63.623047"/>
       <use xlink:href="#DejaVuSans-39" x="95.410156"/>
       <use xlink:href="#DejaVuSans-37" x="159.033203"/>
       <use xlink:href="#DejaVuSans-35" x="222.65625"/>
      </g>
     </g>
    </g>
   </g>
   <g id="line2d_42">
    <path d="M 608.838843 580.327194 
L 630.455579 613.789005 
L 666.483471 643.821791 
L 738.539256 679.01767 
L 954.706612 723.592386 
" clip-path="url(#p1b381ac22b)" style="fill: none; stroke: #1f77b4; stroke-width: 1.5; stroke-linecap: square"/>
    <g clip-path="url(#p1b381ac22b)">
     <use xlink:href="#mdc1135b5ec" x="608.838843" y="580.327194" style="fill: #1f77b4; stroke: #1f77b4"/>
     <use xlink:href="#mdc1135b5ec" x="630.455579" y="613.789005" style="fill: #1f77b4; stroke: #1f77b4"/>
     <use xlink:href="#mdc1135b5ec" x="666.483471" y="643.821791" style="fill: #1f77b4; stroke: #1f77b4"/>
     <use xlink:href="#mdc1135b5ec" x="738.539256" y="679.01767" style="fill: #1f77b4; stroke: #1f77b4"/>
     <use xlink:href="#mdc1135b5ec" x="954.706612" y="723.592386" style="fill: #1f77b4; stroke: #1f77b4"/>
    </g>
   </g>
   <g id="line2d_43">
    <path d="M 608.838843 535.111579 
L 630.455579 558.86319 
L 666.483471 576.850356 
L 738.539256 610.019536 
L 954.706612 683.715442 
" clip-path="url(#p1b381ac22b)" style="fill: none; stroke: #ff7f0e; stroke-width: 1.5; stroke-linecap: square"/>
    <g clip-path="url(#p1b381ac22b)">
     <use xlink:href="#medbfa778f6" x="608.838843" y="535.111579" style="fill: #ff7f0e; stroke: #ff7f0e"/>
     <use xlink:href="#medbfa778f6" x="630.455579" y="558.86319" style="fill: #ff7f0e; stroke: #ff7f0e"/>
     <use xlink:href="#medbfa778f6" x="666.483471" y="576.850356" style="fill: #ff7f0e; stroke: #ff7f0e"/>
     <use xlink:href="#medbfa778f6" x="738.539256" y="610.019536" style="fill: #ff7f0e; stroke: #ff7f0e"/>
     <use xlink:href="#medbfa778f6" x="954.706612" y="683.715442" style="fill: #ff7f0e; stroke: #ff7f0e"/>
    </g>
   </g>
   <g id="line2d_44">
    <path d="M 608.838843 552.564656 
L 630.455579 580.968898 
L 666.483471 605.005158 
L 738.539256 650.803712 
L 954.706612 750.137923 
" clip-path="url(#p1b381ac22b)" style="fill: none; stroke: #2ca02c; stroke-width: 1.5; stroke-linecap: square"/>
    <g clip-path="url(#p1b381ac22b)">
     <use xlink:href="#m14fa7fd6a1" x="608.838843" y="552.564656" style="fill: #2ca02c; stroke: #2ca02c"/>
     <use xlink:href="#m14fa7fd6a1" x="630.455579" y="580.968898" style="fill: #2ca02c; stroke: #2ca02c"/>
     <use xlink:href="#m14fa7fd6a1" x="666.483471" y="605.005158" style="fill: #2ca02c; stroke: #2ca02c"/>
     <use xlink:href="#m14fa7fd6a1" x="738.539256" y="650.803712" style="fill: #2ca02c; stroke: #2ca02c"/>
     <use xlink:href="#m14fa7fd6a1" x="954.706612" y="750.137923" style="fill: #2ca02c; stroke: #2ca02c"/>
    </g>
   </g>
   <g id="line2d_45">
    <path d="M 608.838843 579.260602 
L 630.455579 609.621514 
L 666.483471 643.708778 
L 738.539256 686.541657 
L 954.706612 773.848421 
" clip-path="url(#p1b381ac22b)" style="fill: none; stroke: #d62728; stroke-width: 1.5; stroke-linecap: square"/>
    <g clip-path="url(#p1b381ac22b)">
     <use xlink:href="#m078fb2f29a" x="608.838843" y="579.260602" style="fill: #d62728; stroke: #d62728"/>
     <use xlink:href="#m078fb2f29a" x="630.455579" y="609.621514" style="fill: #d62728; stroke: #d62728"/>
     <use xlink:href="#m078fb2f29a" x="666.483471" y="643.708778" style="fill: #d62728; stroke: #d62728"/>
     <use xlink:href="#m078fb2f29a" x="738.539256" y="686.541657" style="fill: #d62728; stroke: #d62728"/>
     <use xlink:href="#m078fb2f29a" x="954.706612" y="773.848421" style="fill: #d62728; stroke: #d62728"/>
    </g>
   </g>
   <g id="patch_30">
    <path d="M 591.545455 785.785263 
L 591.545455 523.174737 
" style="fill: none; stroke: #000000; stroke-width: 0.8; stroke-linejoin: miter; stroke-linecap: square"/>
   </g>
   <g id="patch_31">
    <path d="M 972 785.785263 
L 972 523.174737 
" style="fill: none; stroke: #000000; stroke-width: 0.8; stroke-linejoin: miter; stroke-linecap: square"/>
   </g>
   <g id="patch_32">
    <path d="M 591.545455 785.785263 
L 972 785.785263 
" style="fill: none; stroke: #000000; stroke-width: 0.8; stroke-linejoin: miter; stroke-linecap: square"/>
   </g>
   <g id="patch_33">
    <path d="M 591.545455 523.174737 
L 972 523.174737 
" style="fill: none; stroke: #000000; stroke-width: 0.8; stroke-linejoin: miter; stroke-linecap: square"/>
   </g>
   <g id="text_46">
    <!-- d -->
    <g transform="translate(544.871761 505.058783) scale(0.28 -0.28)">
     <defs>
      <path id="DejaVuSans-Bold-64" d="M 2919 2988 
L 2919 4863 
L 4044 4863 
L 4044 0 
L 2919 0 
L 2919 506 
Q 2688 197 2409 53 
Q 2131 -91 1766 -91 
Q 1119 -91 703 423 
Q 288 938 288 1747 
Q 288 2556 703 3070 
Q 1119 3584 1766 3584 
Q 2128 3584 2408 3439 
Q 2688 3294 2919 2988 
z
M 2181 722 
Q 2541 722 2730 984 
Q 2919 1247 2919 1747 
Q 2919 2247 2730 2509 
Q 2541 2772 2181 2772 
Q 1825 2772 1636 2509 
Q 1447 2247 1447 1747 
Q 1447 1247 1636 984 
Q 1825 722 2181 722 
z
" transform="scale(0.015625)"/>
     </defs>
     <use xlink:href="#DejaVuSans-Bold-64"/>
    </g>
   </g>
   <g id="text_47">
    <!-- Continuity -->
    <g transform="translate(720.057102 517.174737) scale(0.24 -0.24)">
     <defs>
      <path id="DejaVuSans-79" d="M 2059 -325 
Q 1816 -950 1584 -1140 
Q 1353 -1331 966 -1331 
L 506 -1331 
L 506 -850 
L 844 -850 
Q 1081 -850 1212 -737 
Q 1344 -625 1503 -206 
L 1606 56 
L 191 3500 
L 800 3500 
L 1894 763 
L 2988 3500 
L 3597 3500 
L 2059 -325 
z
" transform="scale(0.015625)"/>
     </defs>
     <use xlink:href="#DejaVuSans-43"/>
     <use xlink:href="#DejaVuSans-6f" x="69.824219"/>
     <use xlink:href="#DejaVuSans-6e" x="131.005859"/>
     <use xlink:href="#DejaVuSans-74" x="194.384766"/>
     <use xlink:href="#DejaVuSans-69" x="233.59375"/>
     <use xlink:href="#DejaVuSans-6e" x="261.376953"/>
     <use xlink:href="#DejaVuSans-75" x="324.755859"/>
     <use xlink:href="#DejaVuSans-69" x="388.134766"/>
     <use xlink:href="#DejaVuSans-74" x="415.917969"/>
     <use xlink:href="#DejaVuSans-79" x="455.126953"/>
    </g>
   </g>
  </g>
  <g id="axes_5">
   <g id="patch_34">
    <path d="M 135 1153.44 
L 515.454545 1153.44 
L 515.454545 890.829474 
L 135 890.829474 
z
" style="fill: #ffffff"/>
   </g>
   <g id="matplotlib.axis_9">
    <g id="xtick_16">
     <g id="line2d_46">
      <g>
       <use xlink:href="#meed541807a" x="152.109416" y="1153.44" style="stroke: #000000; stroke-width: 0.8"/>
      </g>
     </g>
     <g id="text_48">
      <!-- 0 -->
      <g transform="translate(145.110666 1177.156562) scale(0.22 -0.22)">
       <use xlink:href="#DejaVuSans-30"/>
      </g>
     </g>
    </g>
    <g id="xtick_17">
     <g id="line2d_47">
      <g>
       <use xlink:href="#meed541807a" x="244.095525" y="1153.44" style="stroke: #000000; stroke-width: 0.8"/>
      </g>
     </g>
     <g id="text_49">
      <!-- 500 -->
      <g transform="translate(223.099275 1177.156562) scale(0.22 -0.22)">
       <use xlink:href="#DejaVuSans-35"/>
       <use xlink:href="#DejaVuSans-30" x="63.623047"/>
       <use xlink:href="#DejaVuSans-30" x="127.246094"/>
      </g>
     </g>
    </g>
    <g id="xtick_18">
     <g id="line2d_48">
      <g>
       <use xlink:href="#meed541807a" x="336.081634" y="1153.44" style="stroke: #000000; stroke-width: 0.8"/>
      </g>
     </g>
     <g id="text_50">
      <!-- 1000 -->
      <g transform="translate(308.086634 1177.156562) scale(0.22 -0.22)">
       <use xlink:href="#DejaVuSans-31"/>
       <use xlink:href="#DejaVuSans-30" x="63.623047"/>
       <use xlink:href="#DejaVuSans-30" x="127.246094"/>
       <use xlink:href="#DejaVuSans-30" x="190.869141"/>
      </g>
     </g>
    </g>
    <g id="xtick_19">
     <g id="line2d_49">
      <g>
       <use xlink:href="#meed541807a" x="428.067742" y="1153.44" style="stroke: #000000; stroke-width: 0.8"/>
      </g>
     </g>
     <g id="text_51">
      <!-- 1500 -->
      <g transform="translate(400.072742 1177.156562) scale(0.22 -0.22)">
       <use xlink:href="#DejaVuSans-31"/>
       <use xlink:href="#DejaVuSans-35" x="63.623047"/>
       <use xlink:href="#DejaVuSans-30" x="127.246094"/>
       <use xlink:href="#DejaVuSans-30" x="190.869141"/>
      </g>
     </g>
    </g>
    <g id="text_52">
     <!-- k -->
     <g transform="translate(318.278523 1203.968125) scale(0.24 -0.24)">
      <use xlink:href="#DejaVuSans-6b"/>
     </g>
    </g>
   </g>
   <g id="matplotlib.axis_10">
    <g id="ytick_19">
     <g id="line2d_50">
      <g>
       <use xlink:href="#m98623a2e32" x="135" y="1114.951788" style="stroke: #000000; stroke-width: 0.8"/>
      </g>
     </g>
     <g id="text_53">
      <!-- 0.2 -->
      <g transform="translate(93.013125 1123.310069) scale(0.22 -0.22)">
       <use xlink:href="#DejaVuSans-30"/>
       <use xlink:href="#DejaVuSans-2e" x="63.623047"/>
       <use xlink:href="#DejaVuSans-32" x="95.410156"/>
      </g>
     </g>
    </g>
    <g id="ytick_20">
     <g id="line2d_51">
      <g>
       <use xlink:href="#m98623a2e32" x="135" y="1061.90542" style="stroke: #000000; stroke-width: 0.8"/>
      </g>
     </g>
     <g id="text_54">
      <!-- 0.4 -->
      <g transform="translate(93.013125 1070.263701) scale(0.22 -0.22)">
       <use xlink:href="#DejaVuSans-30"/>
       <use xlink:href="#DejaVuSans-2e" x="63.623047"/>
       <use xlink:href="#DejaVuSans-34" x="95.410156"/>
      </g>
     </g>
    </g>
    <g id="ytick_21">
     <g id="line2d_52">
      <g>
       <use xlink:href="#m98623a2e32" x="135" y="1008.859052" style="stroke: #000000; stroke-width: 0.8"/>
      </g>
     </g>
     <g id="text_55">
      <!-- 0.6 -->
      <g transform="translate(93.013125 1017.217333) scale(0.22 -0.22)">
       <use xlink:href="#DejaVuSans-30"/>
       <use xlink:href="#DejaVuSans-2e" x="63.623047"/>
       <use xlink:href="#DejaVuSans-36" x="95.410156"/>
      </g>
     </g>
    </g>
    <g id="ytick_22">
     <g id="line2d_53">
      <g>
       <use xlink:href="#m98623a2e32" x="135" y="955.812684" style="stroke: #000000; stroke-width: 0.8"/>
      </g>
     </g>
     <g id="text_56">
      <!-- 0.8 -->
      <g transform="translate(93.013125 964.170965) scale(0.22 -0.22)">
       <use xlink:href="#DejaVuSans-30"/>
       <use xlink:href="#DejaVuSans-2e" x="63.623047"/>
       <use xlink:href="#DejaVuSans-38" x="95.410156"/>
      </g>
     </g>
    </g>
    <g id="ytick_23">
     <g id="line2d_54">
      <g>
       <use xlink:href="#m98623a2e32" x="135" y="902.766316" style="stroke: #000000; stroke-width: 0.8"/>
      </g>
     </g>
     <g id="text_57">
      <!-- 1.0 -->
      <g transform="translate(93.013125 911.124597) scale(0.22 -0.22)">
       <use xlink:href="#DejaVuSans-31"/>
       <use xlink:href="#DejaVuSans-2e" x="63.623047"/>
       <use xlink:href="#DejaVuSans-30" x="95.410156"/>
      </g>
     </g>
    </g>
    <g id="text_58">
     <!-- Metric Value -->
     <g transform="translate(84.021875 1096.210362) rotate(-90) scale(0.24 -0.24)">
      <use xlink:href="#DejaVuSans-4d"/>
      <use xlink:href="#DejaVuSans-65" x="86.279297"/>
      <use xlink:href="#DejaVuSans-74" x="147.802734"/>
      <use xlink:href="#DejaVuSans-72" x="187.011719"/>
      <use xlink:href="#DejaVuSans-69" x="228.125"/>
      <use xlink:href="#DejaVuSans-63" x="255.908203"/>
      <use xlink:href="#DejaVuSans-20" x="310.888672"/>
      <use xlink:href="#DejaVuSans-56" x="342.675781"/>
      <use xlink:href="#DejaVuSans-61" x="403.333984"/>
      <use xlink:href="#DejaVuSans-6c" x="464.613281"/>
      <use xlink:href="#DejaVuSans-75" x="492.396484"/>
      <use xlink:href="#DejaVuSans-65" x="555.775391"/>
     </g>
    </g>
   </g>
   <g id="line2d_55">
    <path d="M 152.293388 1141.503158 
L 152.477361 1134.315685 
L 153.21325 1124.520992 
L 153.581194 1121.737608 
L 153.949138 1119.475668 
L 154.317083 1118.014685 
L 154.685027 1117.152322 
L 155.052972 1116.126799 
L 155.236944 1115.928356 
L 160.204194 1102.27634 
L 160.572138 1101.435907 
L 165.72336 1088.707418 
L 168.298971 1083.29712 
L 169.770749 1080.157138 
L 170.69061 1078.313118 
L 175.473888 1069.144604 
L 176.393749 1067.53155 
L 183.93661 1054.02095 
L 186.512221 1049.914692 
L 188.719887 1046.657411 
L 189.823721 1045.015031 
L 190.191665 1044.510742 
L 192.21536 1041.718305 
L 195.158915 1038.028604 
L 196.814665 1035.916961 
L 200.310137 1031.576027 
L 205.829304 1024.936461 
L 212.820248 1017.773568 
L 215.947776 1014.835169 
L 218.523387 1012.328917 
L 221.098998 1010.078573 
L 222.570775 1008.738948 
L 224.410498 1007.108569 
L 225.514331 1006.250878 
L 232.137331 1001.147705 
L 235.264858 999.288663 
L 236.920608 998.481284 
L 239.496219 997.283734 
L 240.967997 996.621295 
L 243.359636 995.630363 
L 244.463469 995.203752 
L 250.718525 992.87292 
L 252.926191 992.083293 
L 254.397969 991.591019 
L 255.685775 991.133707 
L 263.780552 987.922905 
L 265.988219 987.034078 
L 271.87533 984.877472 
L 281.993802 981.935113 
L 289.536663 980.222433 
L 292.66419 979.567352 
L 295.607746 978.80808 
L 298.735273 977.776711 
L 304.990329 976.015586 
L 306.830051 975.472217 
L 309.037718 974.848227 
L 324.123439 970.736581 
L 327.066995 969.80227 
L 340.312995 965.827012 
L 347.855855 963.628835 
L 351.719272 962.456436 
L 359.446105 959.91771 
L 362.205688 958.981925 
L 366.253077 957.626067 
L 421.444742 940.157366 
L 426.595964 938.413695 
L 432.667048 936.218214 
L 444.44127 931.821927 
L 457.503297 926.458233 
L 464.494241 923.162112 
L 468.54163 921.13239 
L 474.428741 918.074606 
L 477.924213 916.090925 
L 484.363241 912.223509 
L 493.009935 906.464286 
L 496.321435 904.1119 
L 498.161157 902.766316 
L 498.161157 902.766316 
" clip-path="url(#pbcad00748a)" style="fill: none; stroke: #1f77b4; stroke-width: 1.5; stroke-linecap: square"/>
   </g>
   <g id="line2d_56">
    <path d="M 152.293388 1047.079495 
L 152.661333 1020.114728 
L 153.029277 1015.398243 
L 153.397222 1010.719339 
L 153.581194 1009.081018 
L 153.765166 1009.184759 
L 153.949138 1008.605376 
L 154.133111 1009.386902 
L 154.501055 1010.014685 
L 154.868999 1011.546133 
L 155.052972 1011.124515 
L 155.236944 1011.531764 
L 156.340777 1015.878633 
L 156.708722 1017.230344 
L 157.260638 1019.190289 
L 157.812555 1020.648144 
L 157.996527 1021.011694 
L 158.180499 1021.020102 
L 158.732416 1021.923341 
L 159.284333 1023.236888 
L 159.836249 1024.79229 
L 160.388166 1025.795807 
L 160.75611 1026.119781 
L 161.675972 1027.910191 
L 162.595833 1029.453251 
L 162.963777 1030.112856 
L 163.515694 1030.745157 
L 163.883638 1031.196149 
L 164.987471 1032.68643 
L 165.355416 1032.923776 
L 166.459249 1033.380295 
L 167.747055 1034.090646 
L 168.298971 1034.182722 
L 168.666916 1034.109161 
L 169.03486 1034.175132 
L 169.586777 1034.406104 
L 170.138694 1034.627249 
L 170.69061 1034.920373 
L 171.426499 1035.178222 
L 171.794443 1035.163595 
L 171.978416 1035.078191 
L 172.34636 1035.06322 
L 173.082249 1035.137461 
L 175.473888 1035.671865 
L 176.945666 1036.076451 
L 177.31361 1036.004595 
L 178.049499 1036.017924 
L 178.785388 1035.802112 
L 180.257165 1034.969576 
L 180.993054 1034.551911 
L 181.544971 1034.297068 
L 182.28086 1033.882697 
L 183.016749 1033.342094 
L 185.408388 1031.774873 
L 186.328249 1031.135368 
L 190.55961 1028.48067 
L 191.847415 1027.383758 
L 194.055082 1025.994264 
L 196.262748 1024.926929 
L 197.550554 1023.961132 
L 201.046026 1021.493131 
L 203.437665 1020.119274 
L 204.72547 1019.401861 
L 206.197248 1018.770612 
L 206.565193 1018.646699 
L 208.772859 1017.740715 
L 209.508748 1017.40723 
L 216.867637 1012.459354 
L 219.811192 1010.4999 
L 226.25022 1006.104641 
L 228.641859 1004.532949 
L 230.665553 1003.344728 
L 232.87322 1002.191257 
L 234.52897 1001.684665 
L 236.18472 1001.272655 
L 238.576358 1000.551329 
L 254.397969 997.283256 
L 259.917136 996.681088 
L 263.59658 996.180672 
L 265.25233 995.990118 
L 267.827941 995.861554 
L 269.851635 995.805333 
L 271.323413 995.724559 
L 272.243274 995.647509 
L 273.715052 995.501153 
L 282.545718 994.433975 
L 284.201468 994.292063 
L 286.04119 994.091242 
L 288.248857 993.85106 
L 294.135968 993.012985 
L 299.839107 992.317246 
L 304.622384 991.410794 
L 306.094162 991.084154 
L 309.589634 990.406858 
L 316.028662 989.002387 
L 320.260023 987.829179 
L 322.651662 987.121101 
L 333.138078 983.67494 
L 336.817522 982.478567 
L 340.496967 981.16405 
L 360.181994 975.072808 
L 367.172938 972.710448 
L 369.564577 971.805973 
L 381.338799 967.599252 
L 404.335326 958.893076 
L 415.557631 953.840361 
L 437.266353 943.407042 
L 441.313742 941.111517 
L 450.696325 935.547715 
L 455.663575 932.154154 
L 457.135353 931.225505 
L 458.791103 930.215957 
L 470.565324 922.700661 
L 489.882407 909.207914 
L 494.849657 905.327127 
L 498.161157 902.766316 
L 498.161157 902.766316 
" clip-path="url(#pbcad00748a)" style="fill: none; stroke: #ff7f0e; stroke-width: 1.5; stroke-linecap: square"/>
   </g>
   <g id="line2d_57">
    <path d="M 152.293388 1106.129517 
L 152.661333 1064.507943 
L 153.029277 1048.488804 
L 153.765166 1030.418338 
L 154.133111 1024.018085 
L 154.501055 1020.508612 
L 154.868999 1018.9497 
L 155.052972 1018.197482 
L 155.420916 1017.820687 
L 155.604888 1017.276332 
L 156.524749 1019.821122 
L 156.892694 1021.516809 
L 157.444611 1022.732478 
L 157.996527 1024.605431 
L 158.180499 1024.846588 
L 159.284333 1027.388928 
L 159.652277 1028.153515 
L 162.41186 1033.816897 
L 164.619527 1036.596728 
L 165.171444 1037.289764 
L 166.091305 1038.056213 
L 166.643221 1038.616509 
L 167.747055 1039.661559 
L 168.666916 1040.20207 
L 169.03486 1040.533871 
L 169.770749 1041.109019 
L 170.138694 1041.268255 
L 171.610471 1041.467523 
L 172.162388 1041.474585 
L 172.714305 1041.482528 
L 173.082249 1041.619044 
L 173.450193 1041.650013 
L 174.370055 1041.804489 
L 175.289916 1041.761034 
L 175.841832 1041.777655 
L 176.393749 1041.830889 
L 177.681554 1041.565957 
L 179.889221 1041.137067 
L 182.096888 1040.314815 
L 182.464832 1040.137157 
L 183.93661 1039.342148 
L 184.304554 1039.251794 
L 185.960304 1038.61522 
L 186.880165 1038.313448 
L 187.616054 1038.08913 
L 188.167971 1037.943438 
L 190.191665 1037.122425 
L 190.743582 1036.90496 
L 191.663443 1036.512304 
L 192.583304 1036.191307 
L 196.262748 1034.452679 
L 200.126165 1032.341153 
L 202.333832 1030.907036 
L 203.437665 1030.199618 
L 209.140804 1026.686348 
L 219.443248 1019.574493 
L 220.363109 1018.895227 
L 226.618164 1013.84522 
L 229.929664 1011.602239 
L 231.21747 1010.87043 
L 232.689247 1009.992161 
L 233.793081 1009.612841 
L 235.448831 1009.078257 
L 236.552664 1008.68582 
L 241.151969 1007.329719 
L 243.911553 1006.830325 
L 256.237691 1005.764599 
L 260.653024 1004.915855 
L 263.228635 1004.60028 
L 266.540135 1004.251021 
L 267.643969 1004.040608 
L 270.587524 1003.652007 
L 276.290663 1003.241444 
L 278.314357 1003.183853 
L 286.409135 1002.5106 
L 289.168718 1002.234735 
L 290.272551 1002.17285 
L 295.423774 1001.550693 
L 297.447468 1001.241294 
L 299.103218 1000.985233 
L 307.014023 999.594171 
L 310.87744 998.562053 
L 312.901134 998.007345 
L 319.892078 996.368654 
L 321.547828 995.958325 
L 334.9778 992.226916 
L 337.737384 991.311388 
L 350.247494 987.712805 
L 352.639133 987.042441 
L 360.733911 984.317052 
L 373.427994 979.601622 
L 377.843327 977.764724 
L 379.867021 976.945571 
L 381.706743 976.107605 
L 389.801521 971.535439 
L 391.825215 970.5176 
L 394.216854 969.241765 
L 402.12766 964.873158 
L 408.014771 961.518569 
L 412.614076 958.895705 
L 416.661465 956.574161 
L 419.788992 954.952279 
L 422.548576 953.4972 
L 427.88377 950.44635 
L 433.034992 947.792381 
L 436.16252 945.849622 
L 444.993186 940.23524 
L 447.016881 938.902812 
L 461.550686 929.031903 
L 495.769518 904.482081 
L 497.977185 902.907397 
L 498.161157 902.766316 
L 498.161157 902.766316 
" clip-path="url(#pbcad00748a)" style="fill: none; stroke: #2ca02c; stroke-width: 1.5; stroke-linecap: square"/>
   </g>
   <g id="line2d_58">
    <path d="M 152.293388 1089.640609 
L 152.661333 1059.01164 
L 153.397222 1043.133432 
L 154.685027 1029.020215 
L 155.420916 1023.786759 
L 156.156805 1020.392319 
L 156.524749 1019.715424 
L 157.076666 1018.449656 
L 157.628583 1017.897416 
L 157.812555 1017.693142 
L 158.364472 1016.547244 
L 158.732416 1016.15692 
L 158.916388 1016.143272 
L 159.836249 1016.963917 
L 160.572138 1017.392108 
L 161.308027 1018.115389 
L 161.675972 1018.261849 
L 162.043916 1018.538391 
L 162.779805 1019.250514 
L 165.355416 1020.780235 
L 166.091305 1021.209415 
L 169.770749 1023.733421 
L 170.138694 1023.902125 
L 171.794443 1024.916475 
L 172.162388 1025.047739 
L 172.714305 1025.296873 
L 174.00211 1026.154226 
L 179.889221 1029.034748 
L 180.809082 1029.258068 
L 182.832777 1029.577911 
L 192.031387 1030.955579 
L 195.894804 1031.001537 
L 197.182609 1030.779262 
L 198.654387 1030.676928 
L 200.310137 1030.438898 
L 203.06972 1029.799441 
L 207.669026 1028.17143 
L 211.900387 1026.369167 
L 213.188192 1025.894025 
L 215.211887 1025.114007 
L 225.698303 1021.19508 
L 230.481581 1020.019782 
L 231.401442 1019.802675 
L 238.576358 1017.922404 
L 240.600053 1017.38528 
L 242.439775 1016.866334 
L 247.407025 1015.428823 
L 249.062775 1014.977483 
L 250.902497 1014.551503 
L 252.926191 1013.969235 
L 255.133858 1013.443834 
L 260.836997 1012.057109 
L 265.068358 1011.093471 
L 269.667663 1009.877724 
L 276.84258 1008.098192 
L 279.418191 1007.449825 
L 292.112274 1004.523197 
L 297.263496 1002.949566 
L 299.655135 1002.044185 
L 302.59869 1000.892428 
L 305.91019 999.688635 
L 319.708106 994.091047 
L 321.731801 993.235814 
L 328.170828 990.707601 
L 331.482328 989.426062 
L 334.609856 988.115567 
L 341.232856 985.236082 
L 360.181994 977.201599 
L 376.555521 969.922633 
L 382.994549 967.270305 
L 389.617549 964.62895 
L 392.745076 963.370994 
L 403.047521 959.045869 
L 408.014771 956.742726 
L 416.477493 952.798529 
L 423.652409 949.322284 
L 431.011298 945.552584 
L 436.16252 942.965286 
L 444.073325 938.727035 
L 452.168103 934.198991 
L 464.862186 927.04928 
L 470.565324 923.462307 
L 475.348602 920.23789 
L 479.763935 917.021379 
L 488.778574 910.019325 
L 498.161157 902.766316 
L 498.161157 902.766316 
" clip-path="url(#pbcad00748a)" style="fill: none; stroke: #d62728; stroke-width: 1.5; stroke-linecap: square"/>
   </g>
   <g id="patch_35">
    <path d="M 135 1153.44 
L 135 890.829474 
" style="fill: none; stroke: #000000; stroke-width: 0.8; stroke-linejoin: miter; stroke-linecap: square"/>
   </g>
   <g id="patch_36">
    <path d="M 515.454545 1153.44 
L 515.454545 890.829474 
" style="fill: none; stroke: #000000; stroke-width: 0.8; stroke-linejoin: miter; stroke-linecap: square"/>
   </g>
   <g id="patch_37">
    <path d="M 135 1153.44 
L 515.454545 1153.44 
" style="fill: none; stroke: #000000; stroke-width: 0.8; stroke-linejoin: miter; stroke-linecap: square"/>
   </g>
   <g id="patch_38">
    <path d="M 135 890.829474 
L 515.454545 890.829474 
" style="fill: none; stroke: #000000; stroke-width: 0.8; stroke-linejoin: miter; stroke-linecap: square"/>
   </g>
   <g id="text_59">
    <!-- e -->
    <g transform="translate(89.376307 872.71352) scale(0.28 -0.28)">
     <defs>
      <path id="DejaVuSans-Bold-65" d="M 4031 1759 
L 4031 1441 
L 1416 1441 
Q 1456 1047 1700 850 
Q 1944 653 2381 653 
Q 2734 653 3104 758 
Q 3475 863 3866 1075 
L 3866 213 
Q 3469 63 3072 -14 
Q 2675 -91 2278 -91 
Q 1328 -91 801 392 
Q 275 875 275 1747 
Q 275 2603 792 3093 
Q 1309 3584 2216 3584 
Q 3041 3584 3536 3087 
Q 4031 2591 4031 1759 
z
M 2881 2131 
Q 2881 2450 2695 2645 
Q 2509 2841 2209 2841 
Q 1884 2841 1681 2658 
Q 1478 2475 1428 2131 
L 2881 2131 
z
" transform="scale(0.015625)"/>
     </defs>
     <use xlink:href="#DejaVuSans-Bold-65"/>
    </g>
   </g>
   <g id="text_60">
    <!-- $Q_{NN}$ -->
    <g transform="translate(302.787273 884.829474) scale(0.24 -0.24)">
     <use xlink:href="#DejaVuSans-Oblique-51" transform="translate(0 0.78125)"/>
     <use xlink:href="#DejaVuSans-Oblique-4e" transform="translate(78.710938 -15.625) scale(0.7)"/>
     <use xlink:href="#DejaVuSans-Oblique-4e" transform="translate(131.074219 -15.625) scale(0.7)"/>
    </g>
   </g>
  </g>
  <g id="axes_6">
   <g id="patch_39">
    <path d="M 591.545455 1153.44 
L 972 1153.44 
L 972 890.829474 
L 591.545455 890.829474 
z
" style="fill: #ffffff"/>
   </g>
   <g id="matplotlib.axis_11">
    <g id="xtick_20">
     <g id="line2d_59">
      <g>
       <use xlink:href="#meed541807a" x="608.654871" y="1153.44" style="stroke: #000000; stroke-width: 0.8"/>
      </g>
     </g>
     <g id="text_61">
      <!-- 0 -->
      <g transform="translate(601.656121 1177.156562) scale(0.22 -0.22)">
       <use xlink:href="#DejaVuSans-30"/>
      </g>
     </g>
    </g>
    <g id="xtick_21">
     <g id="line2d_60">
      <g>
       <use xlink:href="#meed541807a" x="700.640979" y="1153.44" style="stroke: #000000; stroke-width: 0.8"/>
      </g>
     </g>
     <g id="text_62">
      <!-- 500 -->
      <g transform="translate(679.644729 1177.156562) scale(0.22 -0.22)">
       <use xlink:href="#DejaVuSans-35"/>
       <use xlink:href="#DejaVuSans-30" x="63.623047"/>
       <use xlink:href="#DejaVuSans-30" x="127.246094"/>
      </g>
     </g>
    </g>
    <g id="xtick_22">
     <g id="line2d_61">
      <g>
       <use xlink:href="#meed541807a" x="792.627088" y="1153.44" style="stroke: #000000; stroke-width: 0.8"/>
      </g>
     </g>
     <g id="text_63">
      <!-- 1000 -->
      <g transform="translate(764.632088 1177.156562) scale(0.22 -0.22)">
       <use xlink:href="#DejaVuSans-31"/>
       <use xlink:href="#DejaVuSans-30" x="63.623047"/>
       <use xlink:href="#DejaVuSans-30" x="127.246094"/>
       <use xlink:href="#DejaVuSans-30" x="190.869141"/>
      </g>
     </g>
    </g>
    <g id="xtick_23">
     <g id="line2d_62">
      <g>
       <use xlink:href="#meed541807a" x="884.613197" y="1153.44" style="stroke: #000000; stroke-width: 0.8"/>
      </g>
     </g>
     <g id="text_64">
      <!-- 1500 -->
      <g transform="translate(856.618197 1177.156562) scale(0.22 -0.22)">
       <use xlink:href="#DejaVuSans-31"/>
       <use xlink:href="#DejaVuSans-35" x="63.623047"/>
       <use xlink:href="#DejaVuSans-30" x="127.246094"/>
       <use xlink:href="#DejaVuSans-30" x="190.869141"/>
      </g>
     </g>
    </g>
    <g id="text_65">
     <!-- k -->
     <g transform="translate(774.823977 1203.968125) scale(0.24 -0.24)">
      <use xlink:href="#DejaVuSans-6b"/>
     </g>
    </g>
   </g>
   <g id="matplotlib.axis_12">
    <g id="ytick_24">
     <g id="line2d_63">
      <g>
       <use xlink:href="#m98623a2e32" x="591.545455" y="1141.265288" style="stroke: #000000; stroke-width: 0.8"/>
      </g>
     </g>
     <g id="text_66">
      <!-- 0.0 -->
      <g transform="translate(549.55858 1149.62357) scale(0.22 -0.22)">
       <use xlink:href="#DejaVuSans-30"/>
       <use xlink:href="#DejaVuSans-2e" x="63.623047"/>
       <use xlink:href="#DejaVuSans-30" x="95.410156"/>
      </g>
     </g>
    </g>
    <g id="ytick_25">
     <g id="line2d_64">
      <g>
       <use xlink:href="#m98623a2e32" x="591.545455" y="1061.183719" style="stroke: #000000; stroke-width: 0.8"/>
      </g>
     </g>
     <g id="text_67">
      <!-- 0.2 -->
      <g transform="translate(549.55858 1069.542) scale(0.22 -0.22)">
       <use xlink:href="#DejaVuSans-30"/>
       <use xlink:href="#DejaVuSans-2e" x="63.623047"/>
       <use xlink:href="#DejaVuSans-32" x="95.410156"/>
      </g>
     </g>
    </g>
    <g id="ytick_26">
     <g id="line2d_65">
      <g>
       <use xlink:href="#m98623a2e32" x="591.545455" y="981.10215" style="stroke: #000000; stroke-width: 0.8"/>
      </g>
     </g>
     <g id="text_68">
      <!-- 0.4 -->
      <g transform="translate(549.55858 989.460431) scale(0.22 -0.22)">
       <use xlink:href="#DejaVuSans-30"/>
       <use xlink:href="#DejaVuSans-2e" x="63.623047"/>
       <use xlink:href="#DejaVuSans-34" x="95.410156"/>
      </g>
     </g>
    </g>
    <g id="ytick_27">
     <g id="line2d_66">
      <g>
       <use xlink:href="#m98623a2e32" x="591.545455" y="901.020581" style="stroke: #000000; stroke-width: 0.8"/>
      </g>
     </g>
     <g id="text_69">
      <!-- 0.6 -->
      <g transform="translate(549.55858 909.378862) scale(0.22 -0.22)">
       <use xlink:href="#DejaVuSans-30"/>
       <use xlink:href="#DejaVuSans-2e" x="63.623047"/>
       <use xlink:href="#DejaVuSans-36" x="95.410156"/>
      </g>
     </g>
    </g>
   </g>
   <g id="line2d_67">
    <path d="M 608.838843 1101.479925 
L 609.022815 1090.84221 
L 609.758704 1076.907108 
L 610.126648 1073.130905 
L 610.494593 1070.141901 
L 610.862537 1068.362064 
L 611.04651 1068.04577 
L 611.598426 1066.363492 
L 611.782398 1066.276781 
L 611.966371 1065.715106 
L 612.150343 1065.582091 
L 612.70226 1063.543937 
L 613.254176 1061.714183 
L 613.438148 1061.40269 
L 613.806093 1060.124623 
L 614.541982 1058.034552 
L 614.725954 1057.668587 
L 615.277871 1055.599385 
L 616.565676 1052.006406 
L 617.117593 1050.571445 
L 618.58937 1046.878402 
L 618.957315 1045.884498 
L 619.693204 1043.701916 
L 620.797037 1040.870999 
L 621.348954 1039.646376 
L 622.268815 1037.316203 
L 624.476481 1032.771644 
L 625.764287 1030.333556 
L 627.236065 1027.371906 
L 630.915509 1020.869311 
L 631.283453 1020.217259 
L 632.019342 1019.065249 
L 632.387287 1018.578718 
L 633.49112 1016.794331 
L 639.746175 1007.076559 
L 643.609592 1002.178702 
L 645.08137 1000.576083 
L 645.449314 1000.203716 
L 647.105064 998.554726 
L 647.840953 997.779587 
L 648.39287 997.392411 
L 649.312731 996.601384 
L 650.600536 995.719866 
L 653.728064 993.336878 
L 654.463953 992.824406 
L 655.935731 991.690898 
L 657.775453 990.504476 
L 658.695314 989.875959 
L 659.983119 989.009665 
L 661.270925 988.195488 
L 664.582425 986.367407 
L 667.52598 985.194681 
L 668.445841 984.959363 
L 670.101591 984.525688 
L 670.653508 984.427325 
L 671.021452 984.328202 
L 671.757341 984.15018 
L 673.045147 983.706366 
L 673.781036 983.407507 
L 674.516925 983.219931 
L 682.059785 982.018142 
L 687.946896 981.914948 
L 689.786619 982.159271 
L 692.36223 982.990335 
L 693.650035 983.558095 
L 695.121813 984.186413 
L 697.145507 985.203265 
L 698.065368 985.628861 
L 701.376868 987.51281 
L 710.391507 992.931099 
L 711.863285 993.914235 
L 716.278618 996.286399 
L 727.316951 1002.644716 
L 729.524618 1004.119715 
L 731.36434 1005.489767 
L 733.02009 1006.618694 
L 735.227756 1008.160902 
L 738.539256 1010.660782 
L 745.346228 1016.177743 
L 747.737867 1018.218783 
L 752.1532 1021.692404 
L 754.912784 1023.484061 
L 766.687005 1032.155423 
L 768.894672 1033.856279 
L 777.173422 1040.073314 
L 779.565061 1041.783349 
L 785.084227 1045.476457 
L 788.947644 1048.148598 
L 795.754616 1053.000366 
L 802.009671 1057.573061 
L 815.99156 1067.04029 
L 818.015254 1068.338301 
L 823.534421 1071.967356 
L 834.572754 1079.580559 
L 838.988087 1082.578012 
L 871.183225 1104.446413 
L 873.942808 1106.282246 
L 877.43828 1108.602246 
L 881.485669 1111.188026 
L 884.797169 1113.310234 
L 888.476613 1115.523689 
L 894.915641 1119.477452 
L 912.393002 1129.178386 
L 916.624363 1131.197325 
L 924.351196 1134.428373 
L 929.502418 1136.403237 
L 934.101723 1137.868721 
L 942.380473 1139.846644 
L 951.211139 1141.058495 
L 954.706612 1141.265288 
L 954.706612 1141.265288 
" clip-path="url(#pf8931a9060)" style="fill: none; stroke: #1f77b4; stroke-width: 1.5; stroke-linecap: square"/>
   </g>
   <g id="line2d_68">
    <path d="M 608.838843 958.93303 
L 609.206787 918.651347 
L 609.574732 911.956834 
L 609.942676 905.319055 
L 610.126648 903.05863 
L 610.310621 903.428112 
L 610.494593 902.766316 
L 610.862537 904.73454 
L 611.04651 905.53249 
L 611.414454 908.270184 
L 611.598426 907.846557 
L 611.782398 908.674231 
L 613.622121 921.632654 
L 614.541982 926.178674 
L 614.725954 926.404237 
L 615.277871 928.406422 
L 615.829787 931.028031 
L 616.565676 934.87155 
L 617.117593 936.58018 
L 617.485537 937.893176 
L 618.405398 941.492873 
L 619.141287 944.244231 
L 619.509232 945.665744 
L 620.061148 947.258908 
L 620.429093 948.36549 
L 621.532926 951.892513 
L 621.90087 952.676562 
L 623.188676 955.026054 
L 624.844426 957.983048 
L 625.028398 958.075223 
L 625.580315 958.823069 
L 626.132231 959.810365 
L 626.684148 960.782826 
L 627.420037 962.219236 
L 628.155926 963.36663 
L 629.259759 964.346182 
L 629.811676 965.223168 
L 630.17962 965.765271 
L 632.019342 968.533053 
L 633.49112 970.846794 
L 633.859065 971.164055 
L 634.594953 972.035657 
L 635.330842 972.561335 
L 636.618648 973.010238 
L 637.170564 973.103564 
L 637.538509 973.228401 
L 637.906453 973.378204 
L 638.45837 973.611743 
L 639.746175 973.787081 
L 639.930148 973.777523 
L 640.298092 973.938102 
L 640.666037 973.973944 
L 641.033981 974.146785 
L 642.137814 974.129358 
L 642.689731 974.251613 
L 643.42562 974.288526 
L 643.977536 974.452619 
L 644.713425 974.805449 
L 647.105064 975.132163 
L 648.024925 974.904916 
L 650.600536 975.423077 
L 652.624231 976.329431 
L 653.544092 976.434455 
L 653.912036 976.411103 
L 655.199842 976.398321 
L 658.143397 976.97014 
L 659.247231 977.27269 
L 660.719008 977.583005 
L 661.270925 977.817282 
L 662.55873 978.424206 
L 663.294619 978.890409 
L 663.662564 979.003565 
L 665.686258 980.181868 
L 666.238175 980.371765 
L 666.974064 980.474634 
L 667.709953 980.590858 
L 668.629814 980.826284 
L 669.365702 980.900931 
L 671.021452 981.201497 
L 675.252813 981.569549 
L 680.404036 982.542273 
L 684.08348 982.793496 
L 686.291146 983.347324 
L 687.762924 983.768187 
L 688.498813 984.003942 
L 689.786619 984.636607 
L 692.178257 986.422834 
L 694.385924 988.06342 
L 695.305785 988.681315 
L 697.881396 990.889414 
L 705.240285 996.903086 
L 708.18384 999.47999 
L 709.287674 1000.438753 
L 714.622868 1005.480573 
L 716.46259 1007.377716 
L 719.958062 1010.710686 
L 721.981757 1012.718096 
L 723.269562 1014.071133 
L 729.892562 1021.19694 
L 732.100229 1023.256537 
L 736.147617 1027.171073 
L 739.091173 1030.168326 
L 740.746923 1031.869916 
L 742.402673 1033.509207 
L 745.898145 1036.914145 
L 748.473756 1039.28605 
L 753.992922 1044.789828 
L 756.936478 1047.47089 
L 764.111394 1053.624843 
L 766.687005 1055.863042 
L 769.998505 1058.735368 
L 777.725338 1064.534947 
L 786.372033 1070.312759 
L 801.641727 1080.359111 
L 804.769254 1082.56965 
L 806.608977 1083.913458 
L 808.448699 1085.213143 
L 822.062643 1094.25716 
L 839.172059 1104.696743 
L 849.842448 1111.096818 
L 857.569281 1115.646318 
L 860.696809 1117.343503 
L 871.551169 1122.541909 
L 892.524002 1131.748291 
L 904.850141 1135.37577 
L 908.161641 1136.008585 
L 914.232724 1136.905346 
L 920.487779 1138.192982 
L 923.799279 1138.807597 
L 927.846668 1139.533478 
L 932.262001 1140.114288 
L 945.140056 1141.394575 
L 947.531695 1141.398557 
L 954.706612 1141.265288 
L 954.706612 1141.265288 
" clip-path="url(#pf8931a9060)" style="fill: none; stroke: #ff7f0e; stroke-width: 1.5; stroke-linecap: square"/>
   </g>
   <g id="line2d_69">
    <path d="M 608.838843 1048.078028 
L 609.206787 985.669664 
L 609.574732 961.912074 
L 610.310621 935.483434 
L 610.678565 926.247017 
L 611.04651 921.374671 
L 611.414454 919.446996 
L 611.598426 918.524277 
L 611.966371 918.381188 
L 612.150343 917.77227 
L 613.070204 922.678367 
L 613.438148 925.664005 
L 614.174037 929.37024 
L 614.909926 933.099355 
L 615.829787 937.296167 
L 616.381704 939.683198 
L 617.117593 943.097006 
L 618.957315 950.618949 
L 623.188676 962.760698 
L 624.292509 965.615578 
L 625.21237 967.49591 
L 625.764287 968.805732 
L 626.500176 970.566538 
L 632.939203 978.895386 
L 634.043037 979.888088 
L 634.410981 980.154502 
L 634.962898 980.828797 
L 636.434676 981.89248 
L 637.906453 982.759564 
L 638.45837 983.096483 
L 639.194259 983.409725 
L 641.033981 984.24426 
L 647.473009 988.131656 
L 648.760814 988.903548 
L 649.496703 989.29692 
L 650.968481 989.87986 
L 653.728064 991.13463 
L 654.463953 991.506853 
L 657.591481 992.209015 
L 659.247231 992.448809 
L 659.983119 992.628052 
L 662.006814 993.262809 
L 662.55873 993.484175 
L 663.846536 993.641913 
L 670.653508 994.408575 
L 677.092536 995.128738 
L 680.036091 994.937596 
L 683.163619 994.760176 
L 686.107174 995.102657 
L 686.843063 995.33833 
L 688.314841 995.689032 
L 688.866758 995.80522 
L 689.602646 996.164794 
L 691.074424 997.199036 
L 692.178257 997.87045 
L 694.753868 999.658723 
L 696.593591 1000.967679 
L 697.513452 1001.592159 
L 699.905091 1003.661462 
L 712.231229 1016.332789 
L 714.990812 1018.765218 
L 716.278618 1019.794726 
L 721.981757 1025.42063 
L 722.901618 1026.310288 
L 725.845173 1028.992189 
L 727.500923 1030.618986 
L 730.444479 1033.51437 
L 733.02009 1036.445212 
L 736.699534 1040.425566 
L 741.298839 1045.175268 
L 745.898145 1049.829552 
L 748.657728 1052.641104 
L 750.49745 1054.3897 
L 752.705117 1056.493602 
L 759.696061 1062.813404 
L 762.639617 1065.524066 
L 766.870978 1068.779919 
L 770.918366 1071.888454 
L 783.612449 1081.808624 
L 788.395727 1085.295387 
L 791.15531 1087.293573 
L 792.81106 1088.308394 
L 802.74556 1095.280977 
L 804.953227 1096.881769 
L 806.241032 1097.912321 
L 807.528838 1098.933276 
L 811.02431 1101.285289 
L 812.496088 1102.236877 
L 815.807587 1104.451799 
L 821.878671 1108.142843 
L 822.798532 1108.672648 
L 829.789476 1112.847969 
L 831.997143 1114.002045 
L 837.884254 1117.096308 
L 839.356031 1117.57398 
L 843.955337 1118.864412 
L 847.082864 1120.020813 
L 848.37067 1120.507499 
L 850.210392 1121.124634 
L 852.786003 1122.103436 
L 855.361614 1122.961565 
L 857.937225 1123.678578 
L 862.168586 1124.875855 
L 868.239669 1126.762625 
L 873.758836 1128.381029 
L 878.358141 1130.14688 
L 880.197864 1130.63239 
L 882.037586 1131.083462 
L 883.509363 1131.558181 
L 887.924697 1133.290569 
L 890.68428 1134.176232 
L 893.811808 1134.769109 
L 899.882891 1135.936323 
L 904.298224 1136.750787 
L 909.633418 1137.425125 
L 911.841085 1137.689979 
L 920.855724 1138.855259 
L 936.493362 1139.855533 
L 941.092667 1140.105301 
L 947.531695 1140.624687 
L 949.371417 1140.823973 
L 952.866889 1141.155903 
L 953.970723 1141.265516 
L 954.706612 1141.265288 
L 954.706612 1141.265288 
" clip-path="url(#pf8931a9060)" style="fill: none; stroke: #2ca02c; stroke-width: 1.5; stroke-linecap: square"/>
   </g>
   <g id="line2d_70">
    <path d="M 608.838843 1023.185511 
L 609.206787 977.372158 
L 609.942676 954.253064 
L 611.04651 937.167754 
L 611.598426 929.48124 
L 612.70226 923.114937 
L 613.070204 922.5188 
L 613.438148 921.711642 
L 613.622121 921.24654 
L 613.990065 921.24894 
L 614.358009 920.955945 
L 614.725954 919.879702 
L 615.093898 919.78359 
L 615.277871 919.701133 
L 615.461843 919.893398 
L 616.565676 922.531669 
L 616.933621 923.303647 
L 617.301565 924.231753 
L 617.669509 925.262135 
L 618.957315 928.097148 
L 619.693204 929.990627 
L 620.24512 930.876439 
L 622.820731 936.237462 
L 623.188676 936.982143 
L 623.740593 938.154319 
L 625.028398 940.978202 
L 626.500176 944.347033 
L 626.86812 944.994591 
L 627.604009 946.656326 
L 628.339898 948.03876 
L 628.707842 948.662662 
L 629.259759 949.677377 
L 630.915509 953.225034 
L 636.434676 963.622186 
L 637.722481 965.583945 
L 638.090426 966.045115 
L 638.826314 967.142594 
L 641.033981 970.184194 
L 641.953842 971.464885 
L 643.241648 973.16134 
L 646.001231 977.223596 
L 647.105064 978.68082 
L 648.576842 980.571371 
L 652.440258 985.111014 
L 653.176147 985.808057 
L 658.511342 990.720037 
L 659.063258 991.189539 
L 659.615175 991.598185 
L 664.030508 994.363009 
L 666.606119 995.644399 
L 667.709953 996.174448 
L 668.813786 996.882862 
L 670.653508 997.949046 
L 672.861175 999.173627 
L 673.413091 999.465381 
L 675.252813 1000.54426 
L 676.908563 1001.437878 
L 682.611702 1005.070348 
L 695.121813 1014.751835 
L 696.961535 1016.118993 
L 698.249341 1017.128208 
L 701.560841 1019.522016 
L 705.424257 1022.315802 
L 706.712063 1023.297177 
L 708.367813 1024.615881 
L 711.49534 1026.991085 
L 713.703007 1028.748491 
L 717.382451 1031.654509 
L 721.245868 1034.810569 
L 729.70859 1041.279786 
L 739.64309 1049.344446 
L 741.298839 1050.746185 
L 743.322534 1052.324868 
L 745.5302 1054.063489 
L 748.8417 1056.602889 
L 752.337172 1059.084396 
L 756.936478 1061.858355 
L 759.328117 1063.241976 
L 760.615922 1064.024282 
L 763.007561 1065.449203 
L 765.767144 1067.071976 
L 772.0222 1070.427468 
L 784.900255 1077.430084 
L 786.18806 1078.183314 
L 790.787366 1080.680398 
L 802.377616 1086.61665 
L 807.528838 1089.41178 
L 810.840338 1091.061149 
L 814.151838 1092.77209 
L 817.463337 1094.33304 
L 832.181115 1101.462968 
L 858.857086 1115.807137 
L 861.61667 1117.094614 
L 876.702391 1123.899647 
L 883.325391 1126.579105 
L 889.396474 1128.899197 
L 893.99578 1130.710985 
L 898.595085 1132.302845 
L 907.057807 1134.976465 
L 910.185335 1136.009089 
L 914.416696 1137.401299 
L 918.648057 1138.646858 
L 924.351196 1140.081424 
L 930.606251 1141.083062 
L 934.101723 1141.472112 
L 937.413223 1141.488843 
L 946.427862 1141.336216 
L 953.050862 1141.274499 
L 954.706612 1141.265288 
L 954.706612 1141.265288 
" clip-path="url(#pf8931a9060)" style="fill: none; stroke: #d62728; stroke-width: 1.5; stroke-linecap: square"/>
   </g>
   <g id="patch_40">
    <path d="M 591.545455 1153.44 
L 591.545455 890.829474 
" style="fill: none; stroke: #000000; stroke-width: 0.8; stroke-linejoin: miter; stroke-linecap: square"/>
   </g>
   <g id="patch_41">
    <path d="M 972 1153.44 
L 972 890.829474 
" style="fill: none; stroke: #000000; stroke-width: 0.8; stroke-linejoin: miter; stroke-linecap: square"/>
   </g>
   <g id="patch_42">
    <path d="M 591.545455 1153.44 
L 972 1153.44 
" style="fill: none; stroke: #000000; stroke-width: 0.8; stroke-linejoin: miter; stroke-linecap: square"/>
   </g>
   <g id="patch_43">
    <path d="M 591.545455 890.829474 
L 972 890.829474 
" style="fill: none; stroke: #000000; stroke-width: 0.8; stroke-linejoin: miter; stroke-linecap: square"/>
   </g>
   <g id="text_70">
    <!-- f -->
    <g transform="translate(552.733636 872.71352) scale(0.28 -0.28)">
     <defs>
      <path id="DejaVuSans-Bold-66" d="M 2841 4863 
L 2841 4128 
L 2222 4128 
Q 1984 4128 1890 4042 
Q 1797 3956 1797 3744 
L 1797 3500 
L 2753 3500 
L 2753 2700 
L 1797 2700 
L 1797 0 
L 678 0 
L 678 2700 
L 122 2700 
L 122 3500 
L 678 3500 
L 678 3744 
Q 678 4316 997 4589 
Q 1316 4863 1984 4863 
L 2841 4863 
z
" transform="scale(0.015625)"/>
     </defs>
     <use xlink:href="#DejaVuSans-Bold-66"/>
    </g>
   </g>
   <g id="text_71">
    <!-- LCMC -->
    <g transform="translate(747.973977 884.829474) scale(0.24 -0.24)">
     <defs>
      <path id="DejaVuSans-4c" d="M 628 4666 
L 1259 4666 
L 1259 531 
L 3531 531 
L 3531 0 
L 628 0 
L 628 4666 
z
" transform="scale(0.015625)"/>
     </defs>
     <use xlink:href="#DejaVuSans-4c"/>
     <use xlink:href="#DejaVuSans-43" x="55.712891"/>
     <use xlink:href="#DejaVuSans-4d" x="125.537109"/>
     <use xlink:href="#DejaVuSans-43" x="211.816406"/>
    </g>
   </g>
  </g>
 </g>
 <defs>
  <clipPath id="pe428932c17">
   <rect x="135" y="155.52" width="380.454545" height="262.610526"/>
  </clipPath>
  <clipPath id="p52ac20e1c5">
   <rect x="591.545455" y="155.52" width="380.454545" height="262.610526"/>
  </clipPath>
  <clipPath id="p56040f9d9a">
   <rect x="135" y="523.174737" width="380.454545" height="262.610526"/>
  </clipPath>
  <clipPath id="p1b381ac22b">
   <rect x="591.545455" y="523.174737" width="380.454545" height="262.610526"/>
  </clipPath>
  <clipPath id="pbcad00748a">
   <rect x="135" y="890.829474" width="380.454545" height="262.610526"/>
  </clipPath>
  <clipPath id="pf8931a9060">
   <rect x="591.545455" y="890.829474" width="380.454545" height="262.610526"/>
  </clipPath>
 </defs>
</svg>
