<?xml version="1.0" encoding="utf-8" standalone="no"?>
<!DOCTYPE svg PUBLIC "-//W3C//DTD SVG 1.1//EN"
  "http://www.w3.org/Graphics/SVG/1.1/DTD/svg11.dtd">
<svg xmlns:xlink="http://www.w3.org/1999/xlink" width="1080pt" height="1296pt" viewBox="0 0 1080 1296" xmlns="http://www.w3.org/2000/svg" version="1.1">
 <metadata>
  <rdf:RDF xmlns:dc="http://purl.org/dc/elements/1.1/" xmlns:cc="http://creativecommons.org/ns#" xmlns:rdf="http://www.w3.org/1999/02/22-rdf-syntax-ns#">
   <cc:Work>
    <dc:type rdf:resource="http://purl.org/dc/dcmitype/StillImage"/>
    <dc:date>2024-07-24T02:46:39.410736</dc:date>
    <dc:format>image/svg+xml</dc:format>
    <dc:creator>
     <cc:Agent>
      <dc:title>Matplotlib v3.8.4, https://matplotlib.org/</dc:title>
     </cc:Agent>
    </dc:creator>
   </cc:Work>
  </rdf:RDF>
 </metadata>
 <defs>
  <style type="text/css">*{stroke-linejoin: round; stroke-linecap: butt}</style>
 </defs>
 <g id="figure_1">
  <g id="patch_1">
   <path d="M 0 1296 
L 1080 1296 
L 1080 0 
L 0 0 
z
" style="fill: #ffffff"/>
  </g>
  <g id="axes_1">
   <g id="patch_2">
    <path d="M 135 418.130526 
L 515.454545 418.130526 
L 515.454545 155.52 
L 135 155.52 
z
" style="fill: #ffffff"/>
   </g>
   <g id="matplotlib.axis_1">
    <g id="xtick_1">
     <g id="line2d_1">
      <defs>
       <path id="m7e655cb5bd" d="M 0 0 
L 0 3.5 
" style="stroke: #000000; stroke-width: 0.8"/>
      </defs>
      <g>
       <use xlink:href="#m7e655cb5bd" x="137.882231" y="418.130526" style="stroke: #000000; stroke-width: 0.8"/>
      </g>
     </g>
     <g id="text_1">
      <!-- 0 -->
      <g transform="translate(131.519731 440.327401) scale(0.2 -0.2)">
       <defs>
        <path id="DejaVuSans-30" d="M 2034 4250 
Q 1547 4250 1301 3770 
Q 1056 3291 1056 2328 
Q 1056 1369 1301 889 
Q 1547 409 2034 409 
Q 2525 409 2770 889 
Q 3016 1369 3016 2328 
Q 3016 3291 2770 3770 
Q 2525 4250 2034 4250 
z
M 2034 4750 
Q 2819 4750 3233 4129 
Q 3647 3509 3647 2328 
Q 3647 1150 3233 529 
Q 2819 -91 2034 -91 
Q 1250 -91 836 529 
Q 422 1150 422 2328 
Q 422 3509 836 4129 
Q 1250 4750 2034 4750 
z
" transform="scale(0.015625)"/>
       </defs>
       <use xlink:href="#DejaVuSans-30"/>
      </g>
     </g>
    </g>
    <g id="xtick_2">
     <g id="line2d_2">
      <g>
       <use xlink:href="#m7e655cb5bd" x="209.938017" y="418.130526" style="stroke: #000000; stroke-width: 0.8"/>
      </g>
     </g>
     <g id="text_2">
      <!-- 10 -->
      <g transform="translate(197.213017 440.327401) scale(0.2 -0.2)">
       <defs>
        <path id="DejaVuSans-31" d="M 794 531 
L 1825 531 
L 1825 4091 
L 703 3866 
L 703 4441 
L 1819 4666 
L 2450 4666 
L 2450 531 
L 3481 531 
L 3481 0 
L 794 0 
L 794 531 
z
" transform="scale(0.015625)"/>
       </defs>
       <use xlink:href="#DejaVuSans-31"/>
       <use xlink:href="#DejaVuSans-30" x="63.623047"/>
      </g>
     </g>
    </g>
    <g id="xtick_3">
     <g id="line2d_3">
      <g>
       <use xlink:href="#m7e655cb5bd" x="281.993802" y="418.130526" style="stroke: #000000; stroke-width: 0.8"/>
      </g>
     </g>
     <g id="text_3">
      <!-- 20 -->
      <g transform="translate(269.268802 440.327401) scale(0.2 -0.2)">
       <defs>
        <path id="DejaVuSans-32" d="M 1228 531 
L 3431 531 
L 3431 0 
L 469 0 
L 469 531 
Q 828 903 1448 1529 
Q 2069 2156 2228 2338 
Q 2531 2678 2651 2914 
Q 2772 3150 2772 3378 
Q 2772 3750 2511 3984 
Q 2250 4219 1831 4219 
Q 1534 4219 1204 4116 
Q 875 4013 500 3803 
L 500 4441 
Q 881 4594 1212 4672 
Q 1544 4750 1819 4750 
Q 2544 4750 2975 4387 
Q 3406 4025 3406 3419 
Q 3406 3131 3298 2873 
Q 3191 2616 2906 2266 
Q 2828 2175 2409 1742 
Q 1991 1309 1228 531 
z
" transform="scale(0.015625)"/>
       </defs>
       <use xlink:href="#DejaVuSans-32"/>
       <use xlink:href="#DejaVuSans-30" x="63.623047"/>
      </g>
     </g>
    </g>
    <g id="xtick_4">
     <g id="line2d_4">
      <g>
       <use xlink:href="#m7e655cb5bd" x="354.049587" y="418.130526" style="stroke: #000000; stroke-width: 0.8"/>
      </g>
     </g>
     <g id="text_4">
      <!-- 30 -->
      <g transform="translate(341.324587 440.327401) scale(0.2 -0.2)">
       <defs>
        <path id="DejaVuSans-33" d="M 2597 2516 
Q 3050 2419 3304 2112 
Q 3559 1806 3559 1356 
Q 3559 666 3084 287 
Q 2609 -91 1734 -91 
Q 1441 -91 1130 -33 
Q 819 25 488 141 
L 488 750 
Q 750 597 1062 519 
Q 1375 441 1716 441 
Q 2309 441 2620 675 
Q 2931 909 2931 1356 
Q 2931 1769 2642 2001 
Q 2353 2234 1838 2234 
L 1294 2234 
L 1294 2753 
L 1863 2753 
Q 2328 2753 2575 2939 
Q 2822 3125 2822 3475 
Q 2822 3834 2567 4026 
Q 2313 4219 1838 4219 
Q 1578 4219 1281 4162 
Q 984 4106 628 3988 
L 628 4550 
Q 988 4650 1302 4700 
Q 1616 4750 1894 4750 
Q 2613 4750 3031 4423 
Q 3450 4097 3450 3541 
Q 3450 3153 3228 2886 
Q 3006 2619 2597 2516 
z
" transform="scale(0.015625)"/>
       </defs>
       <use xlink:href="#DejaVuSans-33"/>
       <use xlink:href="#DejaVuSans-30" x="63.623047"/>
      </g>
     </g>
    </g>
    <g id="xtick_5">
     <g id="line2d_5">
      <g>
       <use xlink:href="#m7e655cb5bd" x="426.105372" y="418.130526" style="stroke: #000000; stroke-width: 0.8"/>
      </g>
     </g>
     <g id="text_5">
      <!-- 40 -->
      <g transform="translate(413.380372 440.327401) scale(0.2 -0.2)">
       <defs>
        <path id="DejaVuSans-34" d="M 2419 4116 
L 825 1625 
L 2419 1625 
L 2419 4116 
z
M 2253 4666 
L 3047 4666 
L 3047 1625 
L 3713 1625 
L 3713 1100 
L 3047 1100 
L 3047 0 
L 2419 0 
L 2419 1100 
L 313 1100 
L 313 1709 
L 2253 4666 
z
" transform="scale(0.015625)"/>
       </defs>
       <use xlink:href="#DejaVuSans-34"/>
       <use xlink:href="#DejaVuSans-30" x="63.623047"/>
      </g>
     </g>
    </g>
    <g id="xtick_6">
     <g id="line2d_6">
      <g>
       <use xlink:href="#m7e655cb5bd" x="498.161157" y="418.130526" style="stroke: #000000; stroke-width: 0.8"/>
      </g>
     </g>
     <g id="text_6">
      <!-- 50 -->
      <g transform="translate(485.436157 440.327401) scale(0.2 -0.2)">
       <defs>
        <path id="DejaVuSans-35" d="M 691 4666 
L 3169 4666 
L 3169 4134 
L 1269 4134 
L 1269 2991 
Q 1406 3038 1543 3061 
Q 1681 3084 1819 3084 
Q 2600 3084 3056 2656 
Q 3513 2228 3513 1497 
Q 3513 744 3044 326 
Q 2575 -91 1722 -91 
Q 1428 -91 1123 -41 
Q 819 9 494 109 
L 494 744 
Q 775 591 1075 516 
Q 1375 441 1709 441 
Q 2250 441 2565 725 
Q 2881 1009 2881 1497 
Q 2881 1984 2565 2268 
Q 2250 2553 1709 2553 
Q 1456 2553 1204 2497 
Q 953 2441 691 2322 
L 691 4666 
z
" transform="scale(0.015625)"/>
       </defs>
       <use xlink:href="#DejaVuSans-35"/>
       <use xlink:href="#DejaVuSans-30" x="63.623047"/>
      </g>
     </g>
    </g>
    <g id="text_7">
     <!-- k -->
     <g transform="translate(318.278523 466.723026) scale(0.24 -0.24)">
      <defs>
       <path id="DejaVuSans-6b" d="M 581 4863 
L 1159 4863 
L 1159 1991 
L 2875 3500 
L 3609 3500 
L 1753 1863 
L 3688 0 
L 2938 0 
L 1159 1709 
L 1159 0 
L 581 0 
L 581 4863 
z
" transform="scale(0.015625)"/>
      </defs>
      <use xlink:href="#DejaVuSans-6b"/>
     </g>
    </g>
   </g>
   <g id="matplotlib.axis_2">
    <g id="ytick_1">
     <g id="line2d_7">
      <defs>
       <path id="m3f3475974b" d="M 0 0 
L -3.5 0 
" style="stroke: #000000; stroke-width: 0.8"/>
      </defs>
      <g>
       <use xlink:href="#m3f3475974b" x="135" y="418.130526" style="stroke: #000000; stroke-width: 0.8"/>
      </g>
     </g>
     <g id="text_8">
      <!-- 0.0 -->
      <g transform="translate(96.19375 425.728964) scale(0.2 -0.2)">
       <defs>
        <path id="DejaVuSans-2e" d="M 684 794 
L 1344 794 
L 1344 0 
L 684 0 
L 684 794 
z
" transform="scale(0.015625)"/>
       </defs>
       <use xlink:href="#DejaVuSans-30"/>
       <use xlink:href="#DejaVuSans-2e" x="63.623047"/>
       <use xlink:href="#DejaVuSans-30" x="95.410156"/>
      </g>
     </g>
    </g>
    <g id="ytick_2">
     <g id="line2d_8">
      <g>
       <use xlink:href="#m3f3475974b" x="135" y="352.477895" style="stroke: #000000; stroke-width: 0.8"/>
      </g>
     </g>
     <g id="text_9">
      <!-- 0.2 -->
      <g transform="translate(96.19375 360.076332) scale(0.2 -0.2)">
       <use xlink:href="#DejaVuSans-30"/>
       <use xlink:href="#DejaVuSans-2e" x="63.623047"/>
       <use xlink:href="#DejaVuSans-32" x="95.410156"/>
      </g>
     </g>
    </g>
    <g id="ytick_3">
     <g id="line2d_9">
      <g>
       <use xlink:href="#m3f3475974b" x="135" y="286.825263" style="stroke: #000000; stroke-width: 0.8"/>
      </g>
     </g>
     <g id="text_10">
      <!-- 0.4 -->
      <g transform="translate(96.19375 294.423701) scale(0.2 -0.2)">
       <use xlink:href="#DejaVuSans-30"/>
       <use xlink:href="#DejaVuSans-2e" x="63.623047"/>
       <use xlink:href="#DejaVuSans-34" x="95.410156"/>
      </g>
     </g>
    </g>
    <g id="ytick_4">
     <g id="line2d_10">
      <g>
       <use xlink:href="#m3f3475974b" x="135" y="221.172632" style="stroke: #000000; stroke-width: 0.8"/>
      </g>
     </g>
     <g id="text_11">
      <!-- 0.6 -->
      <g transform="translate(96.19375 228.771069) scale(0.2 -0.2)">
       <defs>
        <path id="DejaVuSans-36" d="M 2113 2584 
Q 1688 2584 1439 2293 
Q 1191 2003 1191 1497 
Q 1191 994 1439 701 
Q 1688 409 2113 409 
Q 2538 409 2786 701 
Q 3034 994 3034 1497 
Q 3034 2003 2786 2293 
Q 2538 2584 2113 2584 
z
M 3366 4563 
L 3366 3988 
Q 3128 4100 2886 4159 
Q 2644 4219 2406 4219 
Q 1781 4219 1451 3797 
Q 1122 3375 1075 2522 
Q 1259 2794 1537 2939 
Q 1816 3084 2150 3084 
Q 2853 3084 3261 2657 
Q 3669 2231 3669 1497 
Q 3669 778 3244 343 
Q 2819 -91 2113 -91 
Q 1303 -91 875 529 
Q 447 1150 447 2328 
Q 447 3434 972 4092 
Q 1497 4750 2381 4750 
Q 2619 4750 2861 4703 
Q 3103 4656 3366 4563 
z
" transform="scale(0.015625)"/>
       </defs>
       <use xlink:href="#DejaVuSans-30"/>
       <use xlink:href="#DejaVuSans-2e" x="63.623047"/>
       <use xlink:href="#DejaVuSans-36" x="95.410156"/>
      </g>
     </g>
    </g>
    <g id="ytick_5">
     <g id="line2d_11">
      <g>
       <use xlink:href="#m3f3475974b" x="135" y="155.52" style="stroke: #000000; stroke-width: 0.8"/>
      </g>
     </g>
     <g id="text_12">
      <!-- 0.8 -->
      <g transform="translate(96.19375 163.118438) scale(0.2 -0.2)">
       <defs>
        <path id="DejaVuSans-38" d="M 2034 2216 
Q 1584 2216 1326 1975 
Q 1069 1734 1069 1313 
Q 1069 891 1326 650 
Q 1584 409 2034 409 
Q 2484 409 2743 651 
Q 3003 894 3003 1313 
Q 3003 1734 2745 1975 
Q 2488 2216 2034 2216 
z
M 1403 2484 
Q 997 2584 770 2862 
Q 544 3141 544 3541 
Q 544 4100 942 4425 
Q 1341 4750 2034 4750 
Q 2731 4750 3128 4425 
Q 3525 4100 3525 3541 
Q 3525 3141 3298 2862 
Q 3072 2584 2669 2484 
Q 3125 2378 3379 2068 
Q 3634 1759 3634 1313 
Q 3634 634 3220 271 
Q 2806 -91 2034 -91 
Q 1263 -91 848 271 
Q 434 634 434 1313 
Q 434 1759 690 2068 
Q 947 2378 1403 2484 
z
M 1172 3481 
Q 1172 3119 1398 2916 
Q 1625 2713 2034 2713 
Q 2441 2713 2670 2916 
Q 2900 3119 2900 3481 
Q 2900 3844 2670 4047 
Q 2441 4250 2034 4250 
Q 1625 4250 1398 4047 
Q 1172 3844 1172 3481 
z
" transform="scale(0.015625)"/>
       </defs>
       <use xlink:href="#DejaVuSans-30"/>
       <use xlink:href="#DejaVuSans-2e" x="63.623047"/>
       <use xlink:href="#DejaVuSans-38" x="95.410156"/>
      </g>
     </g>
    </g>
    <g id="text_13">
     <!-- $P_{NN}$ -->
     <g transform="translate(87.2025 306.985263) rotate(-90) scale(0.24 -0.24)">
      <defs>
       <path id="DejaVuSans-Oblique-50" d="M 1081 4666 
L 2541 4666 
Q 3178 4666 3512 4369 
Q 3847 4072 3847 3500 
Q 3847 2731 3353 2303 
Q 2859 1875 1966 1875 
L 1172 1875 
L 806 0 
L 172 0 
L 1081 4666 
z
M 1613 4147 
L 1275 2394 
L 2069 2394 
Q 2606 2394 2893 2669 
Q 3181 2944 3181 3456 
Q 3181 3784 2986 3965 
Q 2791 4147 2438 4147 
L 1613 4147 
z
" transform="scale(0.015625)"/>
       <path id="DejaVuSans-Oblique-4e" d="M 1081 4666 
L 1931 4666 
L 3219 666 
L 4000 4666 
L 4616 4666 
L 3706 0 
L 2853 0 
L 1569 4025 
L 788 0 
L 172 0 
L 1081 4666 
z
" transform="scale(0.015625)"/>
      </defs>
      <use xlink:href="#DejaVuSans-Oblique-50" transform="translate(0 0.09375)"/>
      <use xlink:href="#DejaVuSans-Oblique-4e" transform="translate(60.302734 -16.3125) scale(0.7)"/>
      <use xlink:href="#DejaVuSans-Oblique-4e" transform="translate(112.666016 -16.3125) scale(0.7)"/>
     </g>
    </g>
   </g>
   <g id="line2d_12">
    <path d="M 152.293388 326.557517 
L 173.910124 310.461267 
L 209.938017 298.00945 
L 281.993802 285.359567 
L 498.161157 270.372492 
" clip-path="url(#pebbb89d2ec)" style="fill: none; stroke: #1f77b4; stroke-width: 1.5; stroke-linecap: square"/>
    <defs>
     <path id="m9ce27e6185" d="M 0 3 
C 0.795609 3 1.55874 2.683901 2.12132 2.12132 
C 2.683901 1.55874 3 0.795609 3 0 
C 3 -0.795609 2.683901 -1.55874 2.12132 -2.12132 
C 1.55874 -2.683901 0.795609 -3 0 -3 
C -0.795609 -3 -1.55874 -2.683901 -2.12132 -2.12132 
C -2.683901 -1.55874 -3 -0.795609 -3 0 
C -3 0.795609 -2.683901 1.55874 -2.12132 2.12132 
C -1.55874 2.683901 -0.795609 3 0 3 
z
" style="stroke: #1f77b4"/>
    </defs>
    <g clip-path="url(#pebbb89d2ec)">
     <use xlink:href="#m9ce27e6185" x="152.293388" y="326.557517" style="fill: #1f77b4; stroke: #1f77b4"/>
     <use xlink:href="#m9ce27e6185" x="173.910124" y="310.461267" style="fill: #1f77b4; stroke: #1f77b4"/>
     <use xlink:href="#m9ce27e6185" x="209.938017" y="298.00945" style="fill: #1f77b4; stroke: #1f77b4"/>
     <use xlink:href="#m9ce27e6185" x="281.993802" y="285.359567" style="fill: #1f77b4; stroke: #1f77b4"/>
     <use xlink:href="#m9ce27e6185" x="498.161157" y="270.372492" style="fill: #1f77b4; stroke: #1f77b4"/>
    </g>
   </g>
   <g id="line2d_13">
    <path d="M 152.293388 194.644849 
L 173.910124 179.49932 
L 209.938017 175.485161 
L 281.993802 179.532331 
L 498.161157 196.527806 
" clip-path="url(#pebbb89d2ec)" style="fill: none; stroke: #ff7f0e; stroke-width: 1.5; stroke-linecap: square"/>
    <defs>
     <path id="mcecc870842" d="M 0 3 
C 0.795609 3 1.55874 2.683901 2.12132 2.12132 
C 2.683901 1.55874 3 0.795609 3 0 
C 3 -0.795609 2.683901 -1.55874 2.12132 -2.12132 
C 1.55874 -2.683901 0.795609 -3 0 -3 
C -0.795609 -3 -1.55874 -2.683901 -2.12132 -2.12132 
C -2.683901 -1.55874 -3 -0.795609 -3 0 
C -3 0.795609 -2.683901 1.55874 -2.12132 2.12132 
C -1.55874 2.683901 -0.795609 3 0 3 
z
" style="stroke: #ff7f0e"/>
    </defs>
    <g clip-path="url(#pebbb89d2ec)">
     <use xlink:href="#mcecc870842" x="152.293388" y="194.644849" style="fill: #ff7f0e; stroke: #ff7f0e"/>
     <use xlink:href="#mcecc870842" x="173.910124" y="179.49932" style="fill: #ff7f0e; stroke: #ff7f0e"/>
     <use xlink:href="#mcecc870842" x="209.938017" y="175.485161" style="fill: #ff7f0e; stroke: #ff7f0e"/>
     <use xlink:href="#mcecc870842" x="281.993802" y="179.532331" style="fill: #ff7f0e; stroke: #ff7f0e"/>
     <use xlink:href="#mcecc870842" x="498.161157" y="196.527806" style="fill: #ff7f0e; stroke: #ff7f0e"/>
    </g>
   </g>
   <g id="line2d_14">
    <path d="M 152.293388 281.266181 
L 173.910124 232.000298 
L 209.938017 204.759474 
L 281.993802 197.04146 
L 498.161157 210.461164 
" clip-path="url(#pebbb89d2ec)" style="fill: none; stroke: #2ca02c; stroke-width: 1.5; stroke-linecap: square"/>
    <defs>
     <path id="m542d2491f6" d="M 0 3 
C 0.795609 3 1.55874 2.683901 2.12132 2.12132 
C 2.683901 1.55874 3 0.795609 3 0 
C 3 -0.795609 2.683901 -1.55874 2.12132 -2.12132 
C 1.55874 -2.683901 0.795609 -3 0 -3 
C -0.795609 -3 -1.55874 -2.683901 -2.12132 -2.12132 
C -2.683901 -1.55874 -3 -0.795609 -3 0 
C -3 0.795609 -2.683901 1.55874 -2.12132 2.12132 
C -1.55874 2.683901 -0.795609 3 0 3 
z
" style="stroke: #2ca02c"/>
    </defs>
    <g clip-path="url(#pebbb89d2ec)">
     <use xlink:href="#m542d2491f6" x="152.293388" y="281.266181" style="fill: #2ca02c; stroke: #2ca02c"/>
     <use xlink:href="#m542d2491f6" x="173.910124" y="232.000298" style="fill: #2ca02c; stroke: #2ca02c"/>
     <use xlink:href="#m542d2491f6" x="209.938017" y="204.759474" style="fill: #2ca02c; stroke: #2ca02c"/>
     <use xlink:href="#m542d2491f6" x="281.993802" y="197.04146" style="fill: #2ca02c; stroke: #2ca02c"/>
     <use xlink:href="#m542d2491f6" x="498.161157" y="210.461164" style="fill: #2ca02c; stroke: #2ca02c"/>
    </g>
   </g>
   <g id="line2d_15">
    <path d="M 152.293388 292.093847 
L 173.910124 259.940959 
L 209.938017 235.169371 
L 281.993802 214.808076 
L 498.161157 210.057108 
" clip-path="url(#pebbb89d2ec)" style="fill: none; stroke: #d62728; stroke-width: 1.5; stroke-linecap: square"/>
    <defs>
     <path id="m76d897f358" d="M 0 3 
C 0.795609 3 1.55874 2.683901 2.12132 2.12132 
C 2.683901 1.55874 3 0.795609 3 0 
C 3 -0.795609 2.683901 -1.55874 2.12132 -2.12132 
C 1.55874 -2.683901 0.795609 -3 0 -3 
C -0.795609 -3 -1.55874 -2.683901 -2.12132 -2.12132 
C -2.683901 -1.55874 -3 -0.795609 -3 0 
C -3 0.795609 -2.683901 1.55874 -2.12132 2.12132 
C -1.55874 2.683901 -0.795609 3 0 3 
z
" style="stroke: #d62728"/>
    </defs>
    <g clip-path="url(#pebbb89d2ec)">
     <use xlink:href="#m76d897f358" x="152.293388" y="292.093847" style="fill: #d62728; stroke: #d62728"/>
     <use xlink:href="#m76d897f358" x="173.910124" y="259.940959" style="fill: #d62728; stroke: #d62728"/>
     <use xlink:href="#m76d897f358" x="209.938017" y="235.169371" style="fill: #d62728; stroke: #d62728"/>
     <use xlink:href="#m76d897f358" x="281.993802" y="214.808076" style="fill: #d62728; stroke: #d62728"/>
     <use xlink:href="#m76d897f358" x="498.161157" y="210.057108" style="fill: #d62728; stroke: #d62728"/>
    </g>
   </g>
   <g id="patch_3">
    <path d="M 135 418.130526 
L 135 155.52 
" style="fill: none; stroke: #000000; stroke-width: 0.8; stroke-linejoin: miter; stroke-linecap: square"/>
   </g>
   <g id="patch_4">
    <path d="M 515.454545 418.130526 
L 515.454545 155.52 
" style="fill: none; stroke: #000000; stroke-width: 0.8; stroke-linejoin: miter; stroke-linecap: square"/>
   </g>
   <g id="patch_5">
    <path d="M 135 418.130526 
L 515.454545 418.130526 
" style="fill: none; stroke: #000000; stroke-width: 0.8; stroke-linejoin: miter; stroke-linecap: square"/>
   </g>
   <g id="patch_6">
    <path d="M 135 155.52 
L 515.454545 155.52 
" style="fill: none; stroke: #000000; stroke-width: 0.8; stroke-linejoin: miter; stroke-linecap: square"/>
   </g>
   <g id="text_14">
    <!-- a -->
    <g transform="translate(89.472557 137.404046) scale(0.28 -0.28)">
     <defs>
      <path id="DejaVuSans-Bold-61" d="M 2106 1575 
Q 1756 1575 1579 1456 
Q 1403 1338 1403 1106 
Q 1403 894 1545 773 
Q 1688 653 1941 653 
Q 2256 653 2472 879 
Q 2688 1106 2688 1447 
L 2688 1575 
L 2106 1575 
z
M 3816 1997 
L 3816 0 
L 2688 0 
L 2688 519 
Q 2463 200 2181 54 
Q 1900 -91 1497 -91 
Q 953 -91 614 226 
Q 275 544 275 1050 
Q 275 1666 698 1953 
Q 1122 2241 2028 2241 
L 2688 2241 
L 2688 2328 
Q 2688 2594 2478 2717 
Q 2269 2841 1825 2841 
Q 1466 2841 1156 2769 
Q 847 2697 581 2553 
L 581 3406 
Q 941 3494 1303 3539 
Q 1666 3584 2028 3584 
Q 2975 3584 3395 3211 
Q 3816 2838 3816 1997 
z
" transform="scale(0.015625)"/>
     </defs>
     <use xlink:href="#DejaVuSans-Bold-61"/>
    </g>
   </g>
   <g id="text_15">
    <!-- $P_{NN}$ -->
    <g transform="translate(303.387273 149.52) scale(0.26 -0.26)">
     <use xlink:href="#DejaVuSans-Oblique-50" transform="translate(0 0.09375)"/>
     <use xlink:href="#DejaVuSans-Oblique-4e" transform="translate(60.302734 -16.3125) scale(0.7)"/>
     <use xlink:href="#DejaVuSans-Oblique-4e" transform="translate(112.666016 -16.3125) scale(0.7)"/>
    </g>
   </g>
  </g>
  <g id="axes_2">
   <g id="patch_7">
    <path d="M 591.545455 418.130526 
L 972 418.130526 
L 972 155.52 
L 591.545455 155.52 
z
" style="fill: #ffffff"/>
   </g>
   <g id="patch_8">
    <path d="M 608.838843 418.130526 
L 628.792753 418.130526 
L 628.792753 184.375908 
L 608.838843 184.375908 
z
" clip-path="url(#p80d2eed603)" style="fill: #1f77b4"/>
   </g>
   <g id="patch_9">
    <path d="M 741.864908 418.130526 
L 761.818818 418.130526 
L 761.818818 250.564937 
L 741.864908 250.564937 
z
" clip-path="url(#p80d2eed603)" style="fill: #1f77b4"/>
   </g>
   <g id="patch_10">
    <path d="M 874.890973 418.130526 
L 894.844882 418.130526 
L 894.844882 168.025263 
L 874.890973 168.025263 
z
" clip-path="url(#p80d2eed603)" style="fill: #1f77b4"/>
   </g>
   <g id="patch_11">
    <path d="M 628.792753 418.130526 
L 648.746662 418.130526 
L 648.746662 203.326156 
L 628.792753 203.326156 
z
" clip-path="url(#p80d2eed603)" style="fill: #ff7f0e"/>
   </g>
   <g id="patch_12">
    <path d="M 761.818818 418.130526 
L 781.772727 418.130526 
L 781.772727 227.090648 
L 761.818818 227.090648 
z
" clip-path="url(#p80d2eed603)" style="fill: #ff7f0e"/>
   </g>
   <g id="patch_13">
    <path d="M 894.844882 418.130526 
L 914.798792 418.130526 
L 914.798792 203.190819 
L 894.844882 203.190819 
z
" clip-path="url(#p80d2eed603)" style="fill: #ff7f0e"/>
   </g>
   <g id="patch_14">
    <path d="M 648.746662 418.130526 
L 668.700572 418.130526 
L 668.700572 202.175692 
L 648.746662 202.175692 
z
" clip-path="url(#p80d2eed603)" style="fill: #2ca02c"/>
   </g>
   <g id="patch_15">
    <path d="M 781.772727 418.130526 
L 801.726637 418.130526 
L 801.726637 260.042157 
L 781.772727 260.042157 
z
" clip-path="url(#p80d2eed603)" style="fill: #2ca02c"/>
   </g>
   <g id="patch_16">
    <path d="M 914.798792 418.130526 
L 934.752702 418.130526 
L 934.752702 201.772588 
L 914.798792 201.772588 
z
" clip-path="url(#p80d2eed603)" style="fill: #2ca02c"/>
   </g>
   <g id="patch_17">
    <path d="M 668.700572 418.130526 
L 688.654482 418.130526 
L 688.654482 239.383291 
L 668.700572 239.383291 
z
" clip-path="url(#p80d2eed603)" style="fill: #d62728"/>
   </g>
   <g id="patch_18">
    <path d="M 801.726637 418.130526 
L 821.680547 418.130526 
L 821.680547 260.236614 
L 801.726637 260.236614 
z
" clip-path="url(#p80d2eed603)" style="fill: #d62728"/>
   </g>
   <g id="patch_19">
    <path d="M 934.752702 418.130526 
L 954.706612 418.130526 
L 954.706612 239.008724 
L 934.752702 239.008724 
z
" clip-path="url(#p80d2eed603)" style="fill: #d62728"/>
   </g>
   <g id="matplotlib.axis_3">
    <g id="xtick_7">
     <g id="line2d_16">
      <g>
       <use xlink:href="#m7e655cb5bd" x="648.746662" y="418.130526" style="stroke: #000000; stroke-width: 0.8"/>
      </g>
     </g>
     <g id="text_16">
      <!-- AUC -->
      <g transform="translate(625.490256 441.847089) scale(0.22 -0.22)">
       <defs>
        <path id="DejaVuSans-41" d="M 2188 4044 
L 1331 1722 
L 3047 1722 
L 2188 4044 
z
M 1831 4666 
L 2547 4666 
L 4325 0 
L 3669 0 
L 3244 1197 
L 1141 1197 
L 716 0 
L 50 0 
L 1831 4666 
z
" transform="scale(0.015625)"/>
        <path id="DejaVuSans-55" d="M 556 4666 
L 1191 4666 
L 1191 1831 
Q 1191 1081 1462 751 
Q 1734 422 2344 422 
Q 2950 422 3222 751 
Q 3494 1081 3494 1831 
L 3494 4666 
L 4128 4666 
L 4128 1753 
Q 4128 841 3676 375 
Q 3225 -91 2344 -91 
Q 1459 -91 1007 375 
Q 556 841 556 1753 
L 556 4666 
z
" transform="scale(0.015625)"/>
        <path id="DejaVuSans-43" d="M 4122 4306 
L 4122 3641 
Q 3803 3938 3442 4084 
Q 3081 4231 2675 4231 
Q 1875 4231 1450 3742 
Q 1025 3253 1025 2328 
Q 1025 1406 1450 917 
Q 1875 428 2675 428 
Q 3081 428 3442 575 
Q 3803 722 4122 1019 
L 4122 359 
Q 3791 134 3420 21 
Q 3050 -91 2638 -91 
Q 1578 -91 968 557 
Q 359 1206 359 2328 
Q 359 3453 968 4101 
Q 1578 4750 2638 4750 
Q 3056 4750 3426 4639 
Q 3797 4528 4122 4306 
z
" transform="scale(0.015625)"/>
       </defs>
       <use xlink:href="#DejaVuSans-41"/>
       <use xlink:href="#DejaVuSans-55" x="68.408203"/>
       <use xlink:href="#DejaVuSans-43" x="141.601562"/>
      </g>
     </g>
    </g>
    <g id="xtick_8">
     <g id="line2d_17">
      <g>
       <use xlink:href="#m7e655cb5bd" x="781.772727" y="418.130526" style="stroke: #000000; stroke-width: 0.8"/>
      </g>
     </g>
     <g id="text_17">
      <!-- $Q_{local}$ -->
      <g transform="translate(754.822727 441.847089) scale(0.22 -0.22)">
       <defs>
        <path id="DejaVuSans-Oblique-51" d="M 2309 -84 
Q 2275 -88 2237 -89 
Q 2200 -91 2125 -91 
Q 1250 -91 756 411 
Q 263 913 263 1797 
Q 263 2319 452 2844 
Q 641 3369 978 3788 
Q 1369 4269 1858 4509 
Q 2347 4750 2938 4750 
Q 3794 4750 4287 4245 
Q 4781 3741 4781 2869 
Q 4781 1928 4265 1147 
Q 3750 366 2919 44 
L 3553 -825 
L 2847 -825 
L 2309 -84 
z
M 2919 4238 
Q 2400 4238 2003 3986 
Q 1606 3734 1313 3219 
Q 1125 2891 1026 2522 
Q 928 2153 928 1778 
Q 928 1128 1239 775 
Q 1550 422 2119 422 
Q 2631 422 3032 676 
Q 3434 931 3719 1434 
Q 3909 1772 4009 2142 
Q 4109 2513 4109 2881 
Q 4109 3528 3796 3883 
Q 3484 4238 2919 4238 
z
" transform="scale(0.015625)"/>
        <path id="DejaVuSans-Oblique-6c" d="M 1172 4863 
L 1747 4863 
L 800 0 
L 225 0 
L 1172 4863 
z
" transform="scale(0.015625)"/>
        <path id="DejaVuSans-Oblique-6f" d="M 1625 -91 
Q 1009 -91 651 289 
Q 294 669 294 1325 
Q 294 1706 417 2101 
Q 541 2497 738 2766 
Q 1047 3184 1428 3384 
Q 1809 3584 2291 3584 
Q 2888 3584 3255 3212 
Q 3622 2841 3622 2241 
Q 3622 1825 3500 1412 
Q 3378 1000 3181 728 
Q 2875 309 2494 109 
Q 2113 -91 1625 -91 
z
M 891 1344 
Q 891 869 1089 633 
Q 1288 397 1691 397 
Q 2269 397 2648 901 
Q 3028 1406 3028 2181 
Q 3028 2634 2825 2865 
Q 2622 3097 2228 3097 
Q 1903 3097 1650 2945 
Q 1397 2794 1197 2484 
Q 1050 2253 970 1956 
Q 891 1659 891 1344 
z
" transform="scale(0.015625)"/>
        <path id="DejaVuSans-Oblique-63" d="M 3431 3366 
L 3316 2797 
Q 3109 2947 2876 3022 
Q 2644 3097 2394 3097 
Q 2119 3097 1870 3000 
Q 1622 2903 1453 2725 
Q 1184 2453 1037 2087 
Q 891 1722 891 1331 
Q 891 859 1127 628 
Q 1363 397 1844 397 
Q 2081 397 2348 469 
Q 2616 541 2906 684 
L 2797 116 
Q 2547 13 2283 -39 
Q 2019 -91 1741 -91 
Q 1044 -91 669 257 
Q 294 606 294 1253 
Q 294 1797 489 2255 
Q 684 2713 1069 3078 
Q 1331 3328 1684 3456 
Q 2038 3584 2456 3584 
Q 2700 3584 2940 3529 
Q 3181 3475 3431 3366 
z
" transform="scale(0.015625)"/>
        <path id="DejaVuSans-Oblique-61" d="M 3438 1997 
L 3047 0 
L 2472 0 
L 2578 531 
Q 2325 219 2001 64 
Q 1678 -91 1281 -91 
Q 834 -91 548 182 
Q 263 456 263 884 
Q 263 1497 752 1853 
Q 1241 2209 2100 2209 
L 2900 2209 
L 2931 2363 
Q 2938 2388 2941 2417 
Q 2944 2447 2944 2509 
Q 2944 2788 2717 2942 
Q 2491 3097 2081 3097 
Q 1800 3097 1504 3025 
Q 1209 2953 897 2809 
L 997 3341 
Q 1322 3463 1633 3523 
Q 1944 3584 2234 3584 
Q 2853 3584 3176 3315 
Q 3500 3047 3500 2534 
Q 3500 2431 3484 2292 
Q 3469 2153 3438 1997 
z
M 2816 1759 
L 2241 1759 
Q 1534 1759 1195 1570 
Q 856 1381 856 984 
Q 856 709 1029 553 
Q 1203 397 1509 397 
Q 1978 397 2328 733 
Q 2678 1069 2791 1631 
L 2816 1759 
z
" transform="scale(0.015625)"/>
       </defs>
       <use xlink:href="#DejaVuSans-Oblique-51" transform="translate(0 0.78125)"/>
       <use xlink:href="#DejaVuSans-Oblique-6c" transform="translate(78.710938 -15.625) scale(0.7)"/>
       <use xlink:href="#DejaVuSans-Oblique-6f" transform="translate(98.15918 -15.625) scale(0.7)"/>
       <use xlink:href="#DejaVuSans-Oblique-63" transform="translate(140.986328 -15.625) scale(0.7)"/>
       <use xlink:href="#DejaVuSans-Oblique-61" transform="translate(179.472656 -15.625) scale(0.7)"/>
       <use xlink:href="#DejaVuSans-Oblique-6c" transform="translate(222.368164 -15.625) scale(0.7)"/>
      </g>
     </g>
    </g>
    <g id="xtick_9">
     <g id="line2d_18">
      <g>
       <use xlink:href="#m7e655cb5bd" x="914.798792" y="418.130526" style="stroke: #000000; stroke-width: 0.8"/>
      </g>
     </g>
     <g id="text_18">
      <!-- $Q_{global}$ -->
      <g transform="translate(882.348792 441.630526) scale(0.22 -0.22)">
       <defs>
        <path id="DejaVuSans-Oblique-67" d="M 3816 3500 
L 3219 434 
Q 3047 -456 2561 -893 
Q 2075 -1331 1253 -1331 
Q 950 -1331 690 -1286 
Q 431 -1241 206 -1147 
L 313 -588 
Q 525 -725 762 -790 
Q 1000 -856 1269 -856 
Q 1816 -856 2167 -557 
Q 2519 -259 2631 300 
L 2681 563 
Q 2441 288 2122 144 
Q 1803 0 1434 0 
Q 903 0 598 351 
Q 294 703 294 1319 
Q 294 1803 478 2267 
Q 663 2731 997 3091 
Q 1219 3328 1514 3456 
Q 1809 3584 2131 3584 
Q 2484 3584 2746 3420 
Q 3009 3256 3138 2956 
L 3238 3500 
L 3816 3500 
z
M 2950 2216 
Q 2950 2641 2750 2872 
Q 2550 3103 2181 3103 
Q 1953 3103 1747 3012 
Q 1541 2922 1394 2759 
Q 1156 2491 1023 2127 
Q 891 1763 891 1375 
Q 891 944 1092 712 
Q 1294 481 1672 481 
Q 2219 481 2584 976 
Q 2950 1472 2950 2216 
z
" transform="scale(0.015625)"/>
        <path id="DejaVuSans-Oblique-62" d="M 3169 2138 
Q 3169 2591 2961 2847 
Q 2753 3103 2388 3103 
Q 2122 3103 1889 2973 
Q 1656 2844 1484 2597 
Q 1303 2338 1198 1995 
Q 1094 1653 1094 1313 
Q 1094 881 1298 636 
Q 1503 391 1863 391 
Q 2134 391 2365 517 
Q 2597 644 2772 891 
Q 2950 1147 3059 1487 
Q 3169 1828 3169 2138 
z
M 1381 2969 
Q 1594 3256 1914 3420 
Q 2234 3584 2584 3584 
Q 3122 3584 3439 3221 
Q 3756 2859 3756 2241 
Q 3756 1734 3570 1259 
Q 3384 784 3041 416 
Q 2816 172 2522 40 
Q 2228 -91 1906 -91 
Q 1566 -91 1316 65 
Q 1066 222 909 531 
L 806 0 
L 231 0 
L 1178 4863 
L 1753 4863 
L 1381 2969 
z
" transform="scale(0.015625)"/>
       </defs>
       <use xlink:href="#DejaVuSans-Oblique-51" transform="translate(0 0.78125)"/>
       <use xlink:href="#DejaVuSans-Oblique-67" transform="translate(78.710938 -15.625) scale(0.7)"/>
       <use xlink:href="#DejaVuSans-Oblique-6c" transform="translate(123.144531 -15.625) scale(0.7)"/>
       <use xlink:href="#DejaVuSans-Oblique-6f" transform="translate(142.592773 -15.625) scale(0.7)"/>
       <use xlink:href="#DejaVuSans-Oblique-62" transform="translate(185.419922 -15.625) scale(0.7)"/>
       <use xlink:href="#DejaVuSans-Oblique-61" transform="translate(229.853516 -15.625) scale(0.7)"/>
       <use xlink:href="#DejaVuSans-Oblique-6c" transform="translate(272.749023 -15.625) scale(0.7)"/>
      </g>
     </g>
    </g>
   </g>
   <g id="matplotlib.axis_4">
    <g id="ytick_6">
     <g id="line2d_19">
      <g>
       <use xlink:href="#m3f3475974b" x="591.545455" y="418.130526" style="stroke: #000000; stroke-width: 0.8"/>
      </g>
     </g>
     <g id="text_19">
      <!-- 0.0 -->
      <g transform="translate(549.55858 426.488808) scale(0.22 -0.22)">
       <use xlink:href="#DejaVuSans-30"/>
       <use xlink:href="#DejaVuSans-2e" x="63.623047"/>
       <use xlink:href="#DejaVuSans-30" x="95.410156"/>
      </g>
     </g>
    </g>
    <g id="ytick_7">
     <g id="line2d_20">
      <g>
       <use xlink:href="#m3f3475974b" x="591.545455" y="364.012033" style="stroke: #000000; stroke-width: 0.8"/>
      </g>
     </g>
     <g id="text_20">
      <!-- 0.2 -->
      <g transform="translate(549.55858 372.370314) scale(0.22 -0.22)">
       <use xlink:href="#DejaVuSans-30"/>
       <use xlink:href="#DejaVuSans-2e" x="63.623047"/>
       <use xlink:href="#DejaVuSans-32" x="95.410156"/>
      </g>
     </g>
    </g>
    <g id="ytick_8">
     <g id="line2d_21">
      <g>
       <use xlink:href="#m3f3475974b" x="591.545455" y="309.893539" style="stroke: #000000; stroke-width: 0.8"/>
      </g>
     </g>
     <g id="text_21">
      <!-- 0.4 -->
      <g transform="translate(549.55858 318.25182) scale(0.22 -0.22)">
       <use xlink:href="#DejaVuSans-30"/>
       <use xlink:href="#DejaVuSans-2e" x="63.623047"/>
       <use xlink:href="#DejaVuSans-34" x="95.410156"/>
      </g>
     </g>
    </g>
    <g id="ytick_9">
     <g id="line2d_22">
      <g>
       <use xlink:href="#m3f3475974b" x="591.545455" y="255.775045" style="stroke: #000000; stroke-width: 0.8"/>
      </g>
     </g>
     <g id="text_22">
      <!-- 0.6 -->
      <g transform="translate(549.55858 264.133326) scale(0.22 -0.22)">
       <use xlink:href="#DejaVuSans-30"/>
       <use xlink:href="#DejaVuSans-2e" x="63.623047"/>
       <use xlink:href="#DejaVuSans-36" x="95.410156"/>
      </g>
     </g>
    </g>
    <g id="ytick_10">
     <g id="line2d_23">
      <g>
       <use xlink:href="#m3f3475974b" x="591.545455" y="201.656551" style="stroke: #000000; stroke-width: 0.8"/>
      </g>
     </g>
     <g id="text_23">
      <!-- 0.8 -->
      <g transform="translate(549.55858 210.014833) scale(0.22 -0.22)">
       <use xlink:href="#DejaVuSans-30"/>
       <use xlink:href="#DejaVuSans-2e" x="63.623047"/>
       <use xlink:href="#DejaVuSans-38" x="95.410156"/>
      </g>
     </g>
    </g>
    <g id="text_24">
     <!-- Metric Value -->
     <g transform="translate(540.983267 354.727919) rotate(-90) scale(0.22 -0.22)">
      <defs>
       <path id="DejaVuSans-4d" d="M 628 4666 
L 1569 4666 
L 2759 1491 
L 3956 4666 
L 4897 4666 
L 4897 0 
L 4281 0 
L 4281 4097 
L 3078 897 
L 2444 897 
L 1241 4097 
L 1241 0 
L 628 0 
L 628 4666 
z
" transform="scale(0.015625)"/>
       <path id="DejaVuSans-65" d="M 3597 1894 
L 3597 1613 
L 953 1613 
Q 991 1019 1311 708 
Q 1631 397 2203 397 
Q 2534 397 2845 478 
Q 3156 559 3463 722 
L 3463 178 
Q 3153 47 2828 -22 
Q 2503 -91 2169 -91 
Q 1331 -91 842 396 
Q 353 884 353 1716 
Q 353 2575 817 3079 
Q 1281 3584 2069 3584 
Q 2775 3584 3186 3129 
Q 3597 2675 3597 1894 
z
M 3022 2063 
Q 3016 2534 2758 2815 
Q 2500 3097 2075 3097 
Q 1594 3097 1305 2825 
Q 1016 2553 972 2059 
L 3022 2063 
z
" transform="scale(0.015625)"/>
       <path id="DejaVuSans-74" d="M 1172 4494 
L 1172 3500 
L 2356 3500 
L 2356 3053 
L 1172 3053 
L 1172 1153 
Q 1172 725 1289 603 
Q 1406 481 1766 481 
L 2356 481 
L 2356 0 
L 1766 0 
Q 1100 0 847 248 
Q 594 497 594 1153 
L 594 3053 
L 172 3053 
L 172 3500 
L 594 3500 
L 594 4494 
L 1172 4494 
z
" transform="scale(0.015625)"/>
       <path id="DejaVuSans-72" d="M 2631 2963 
Q 2534 3019 2420 3045 
Q 2306 3072 2169 3072 
Q 1681 3072 1420 2755 
Q 1159 2438 1159 1844 
L 1159 0 
L 581 0 
L 581 3500 
L 1159 3500 
L 1159 2956 
Q 1341 3275 1631 3429 
Q 1922 3584 2338 3584 
Q 2397 3584 2469 3576 
Q 2541 3569 2628 3553 
L 2631 2963 
z
" transform="scale(0.015625)"/>
       <path id="DejaVuSans-69" d="M 603 3500 
L 1178 3500 
L 1178 0 
L 603 0 
L 603 3500 
z
M 603 4863 
L 1178 4863 
L 1178 4134 
L 603 4134 
L 603 4863 
z
" transform="scale(0.015625)"/>
       <path id="DejaVuSans-63" d="M 3122 3366 
L 3122 2828 
Q 2878 2963 2633 3030 
Q 2388 3097 2138 3097 
Q 1578 3097 1268 2742 
Q 959 2388 959 1747 
Q 959 1106 1268 751 
Q 1578 397 2138 397 
Q 2388 397 2633 464 
Q 2878 531 3122 666 
L 3122 134 
Q 2881 22 2623 -34 
Q 2366 -91 2075 -91 
Q 1284 -91 818 406 
Q 353 903 353 1747 
Q 353 2603 823 3093 
Q 1294 3584 2113 3584 
Q 2378 3584 2631 3529 
Q 2884 3475 3122 3366 
z
" transform="scale(0.015625)"/>
       <path id="DejaVuSans-20" transform="scale(0.015625)"/>
       <path id="DejaVuSans-56" d="M 1831 0 
L 50 4666 
L 709 4666 
L 2188 738 
L 3669 4666 
L 4325 4666 
L 2547 0 
L 1831 0 
z
" transform="scale(0.015625)"/>
       <path id="DejaVuSans-61" d="M 2194 1759 
Q 1497 1759 1228 1600 
Q 959 1441 959 1056 
Q 959 750 1161 570 
Q 1363 391 1709 391 
Q 2188 391 2477 730 
Q 2766 1069 2766 1631 
L 2766 1759 
L 2194 1759 
z
M 3341 1997 
L 3341 0 
L 2766 0 
L 2766 531 
Q 2569 213 2275 61 
Q 1981 -91 1556 -91 
Q 1019 -91 701 211 
Q 384 513 384 1019 
Q 384 1609 779 1909 
Q 1175 2209 1959 2209 
L 2766 2209 
L 2766 2266 
Q 2766 2663 2505 2880 
Q 2244 3097 1772 3097 
Q 1472 3097 1187 3025 
Q 903 2953 641 2809 
L 641 3341 
Q 956 3463 1253 3523 
Q 1550 3584 1831 3584 
Q 2591 3584 2966 3190 
Q 3341 2797 3341 1997 
z
" transform="scale(0.015625)"/>
       <path id="DejaVuSans-6c" d="M 603 4863 
L 1178 4863 
L 1178 0 
L 603 0 
L 603 4863 
z
" transform="scale(0.015625)"/>
       <path id="DejaVuSans-75" d="M 544 1381 
L 544 3500 
L 1119 3500 
L 1119 1403 
Q 1119 906 1312 657 
Q 1506 409 1894 409 
Q 2359 409 2629 706 
Q 2900 1003 2900 1516 
L 2900 3500 
L 3475 3500 
L 3475 0 
L 2900 0 
L 2900 538 
Q 2691 219 2414 64 
Q 2138 -91 1772 -91 
Q 1169 -91 856 284 
Q 544 659 544 1381 
z
M 1991 3584 
L 1991 3584 
z
" transform="scale(0.015625)"/>
      </defs>
      <use xlink:href="#DejaVuSans-4d"/>
      <use xlink:href="#DejaVuSans-65" x="86.279297"/>
      <use xlink:href="#DejaVuSans-74" x="147.802734"/>
      <use xlink:href="#DejaVuSans-72" x="187.011719"/>
      <use xlink:href="#DejaVuSans-69" x="228.125"/>
      <use xlink:href="#DejaVuSans-63" x="255.908203"/>
      <use xlink:href="#DejaVuSans-20" x="310.888672"/>
      <use xlink:href="#DejaVuSans-56" x="342.675781"/>
      <use xlink:href="#DejaVuSans-61" x="403.333984"/>
      <use xlink:href="#DejaVuSans-6c" x="464.613281"/>
      <use xlink:href="#DejaVuSans-75" x="492.396484"/>
      <use xlink:href="#DejaVuSans-65" x="555.775391"/>
     </g>
    </g>
   </g>
   <g id="patch_20">
    <path d="M 591.545455 418.130526 
L 591.545455 155.52 
" style="fill: none; stroke: #000000; stroke-width: 0.8; stroke-linejoin: miter; stroke-linecap: square"/>
   </g>
   <g id="patch_21">
    <path d="M 972 418.130526 
L 972 155.52 
" style="fill: none; stroke: #000000; stroke-width: 0.8; stroke-linejoin: miter; stroke-linecap: square"/>
   </g>
   <g id="patch_22">
    <path d="M 591.545455 418.130526 
L 972 418.130526 
" style="fill: none; stroke: #000000; stroke-width: 0.8; stroke-linejoin: miter; stroke-linecap: square"/>
   </g>
   <g id="patch_23">
    <path d="M 591.545455 155.52 
L 972 155.52 
" style="fill: none; stroke: #000000; stroke-width: 0.8; stroke-linejoin: miter; stroke-linecap: square"/>
   </g>
   <g id="text_25">
    <!-- b -->
    <g transform="translate(544.871761 137.404046) scale(0.28 -0.28)">
     <defs>
      <path id="DejaVuSans-Bold-62" d="M 2400 722 
Q 2759 722 2948 984 
Q 3138 1247 3138 1747 
Q 3138 2247 2948 2509 
Q 2759 2772 2400 2772 
Q 2041 2772 1848 2508 
Q 1656 2244 1656 1747 
Q 1656 1250 1848 986 
Q 2041 722 2400 722 
z
M 1656 2988 
Q 1888 3294 2169 3439 
Q 2450 3584 2816 3584 
Q 3463 3584 3878 3070 
Q 4294 2556 4294 1747 
Q 4294 938 3878 423 
Q 3463 -91 2816 -91 
Q 2450 -91 2169 54 
Q 1888 200 1656 506 
L 1656 0 
L 538 0 
L 538 4863 
L 1656 4863 
L 1656 2988 
z
" transform="scale(0.015625)"/>
     </defs>
     <use xlink:href="#DejaVuSans-Bold-62"/>
    </g>
   </g>
   <g id="text_26">
    <!-- Metrics -->
    <g transform="translate(734.584759 149.52) scale(0.26 -0.26)">
     <defs>
      <path id="DejaVuSans-73" d="M 2834 3397 
L 2834 2853 
Q 2591 2978 2328 3040 
Q 2066 3103 1784 3103 
Q 1356 3103 1142 2972 
Q 928 2841 928 2578 
Q 928 2378 1081 2264 
Q 1234 2150 1697 2047 
L 1894 2003 
Q 2506 1872 2764 1633 
Q 3022 1394 3022 966 
Q 3022 478 2636 193 
Q 2250 -91 1575 -91 
Q 1294 -91 989 -36 
Q 684 19 347 128 
L 347 722 
Q 666 556 975 473 
Q 1284 391 1588 391 
Q 1994 391 2212 530 
Q 2431 669 2431 922 
Q 2431 1156 2273 1281 
Q 2116 1406 1581 1522 
L 1381 1569 
Q 847 1681 609 1914 
Q 372 2147 372 2553 
Q 372 3047 722 3315 
Q 1072 3584 1716 3584 
Q 2034 3584 2315 3537 
Q 2597 3491 2834 3397 
z
" transform="scale(0.015625)"/>
     </defs>
     <use xlink:href="#DejaVuSans-4d"/>
     <use xlink:href="#DejaVuSans-65" x="86.279297"/>
     <use xlink:href="#DejaVuSans-74" x="147.802734"/>
     <use xlink:href="#DejaVuSans-72" x="187.011719"/>
     <use xlink:href="#DejaVuSans-69" x="228.125"/>
     <use xlink:href="#DejaVuSans-63" x="255.908203"/>
     <use xlink:href="#DejaVuSans-73" x="310.888672"/>
    </g>
   </g>
  </g>
  <g id="axes_3">
   <g id="patch_24">
    <path d="M 135 785.785263 
L 515.454545 785.785263 
L 515.454545 523.174737 
L 135 523.174737 
z
" style="fill: #ffffff"/>
   </g>
   <g id="matplotlib.axis_5">
    <g id="xtick_10">
     <g id="line2d_24">
      <g>
       <use xlink:href="#m7e655cb5bd" x="137.882231" y="785.785263" style="stroke: #000000; stroke-width: 0.8"/>
      </g>
     </g>
     <g id="text_27">
      <!-- 0 -->
      <g transform="translate(130.883481 809.501826) scale(0.22 -0.22)">
       <use xlink:href="#DejaVuSans-30"/>
      </g>
     </g>
    </g>
    <g id="xtick_11">
     <g id="line2d_25">
      <g>
       <use xlink:href="#m7e655cb5bd" x="281.993802" y="785.785263" style="stroke: #000000; stroke-width: 0.8"/>
      </g>
     </g>
     <g id="text_28">
      <!-- 20 -->
      <g transform="translate(267.996302 809.501826) scale(0.22 -0.22)">
       <use xlink:href="#DejaVuSans-32"/>
       <use xlink:href="#DejaVuSans-30" x="63.623047"/>
      </g>
     </g>
    </g>
    <g id="xtick_12">
     <g id="line2d_26">
      <g>
       <use xlink:href="#m7e655cb5bd" x="426.105372" y="785.785263" style="stroke: #000000; stroke-width: 0.8"/>
      </g>
     </g>
     <g id="text_29">
      <!-- 40 -->
      <g transform="translate(412.107872 809.501826) scale(0.22 -0.22)">
       <use xlink:href="#DejaVuSans-34"/>
       <use xlink:href="#DejaVuSans-30" x="63.623047"/>
      </g>
     </g>
    </g>
    <g id="text_30">
     <!-- k -->
     <g transform="translate(318.278523 836.313388) scale(0.24 -0.24)">
      <use xlink:href="#DejaVuSans-6b"/>
     </g>
    </g>
   </g>
   <g id="matplotlib.axis_6">
    <g id="ytick_11">
     <g id="line2d_27">
      <g>
       <use xlink:href="#m3f3475974b" x="135" y="780.536126" style="stroke: #000000; stroke-width: 0.8"/>
      </g>
     </g>
     <g id="text_31">
      <!-- 0.94 -->
      <g transform="translate(79.015625 788.894408) scale(0.22 -0.22)">
       <defs>
        <path id="DejaVuSans-39" d="M 703 97 
L 703 672 
Q 941 559 1184 500 
Q 1428 441 1663 441 
Q 2288 441 2617 861 
Q 2947 1281 2994 2138 
Q 2813 1869 2534 1725 
Q 2256 1581 1919 1581 
Q 1219 1581 811 2004 
Q 403 2428 403 3163 
Q 403 3881 828 4315 
Q 1253 4750 1959 4750 
Q 2769 4750 3195 4129 
Q 3622 3509 3622 2328 
Q 3622 1225 3098 567 
Q 2575 -91 1691 -91 
Q 1453 -91 1209 -44 
Q 966 3 703 97 
z
M 1959 2075 
Q 2384 2075 2632 2365 
Q 2881 2656 2881 3163 
Q 2881 3666 2632 3958 
Q 2384 4250 1959 4250 
Q 1534 4250 1286 3958 
Q 1038 3666 1038 3163 
Q 1038 2656 1286 2365 
Q 1534 2075 1959 2075 
z
" transform="scale(0.015625)"/>
       </defs>
       <use xlink:href="#DejaVuSans-30"/>
       <use xlink:href="#DejaVuSans-2e" x="63.623047"/>
       <use xlink:href="#DejaVuSans-39" x="95.410156"/>
       <use xlink:href="#DejaVuSans-34" x="159.033203"/>
      </g>
     </g>
    </g>
    <g id="ytick_12">
     <g id="line2d_28">
      <g>
       <use xlink:href="#m3f3475974b" x="135" y="696.990655" style="stroke: #000000; stroke-width: 0.8"/>
      </g>
     </g>
     <g id="text_32">
      <!-- 0.96 -->
      <g transform="translate(79.015625 705.348936) scale(0.22 -0.22)">
       <use xlink:href="#DejaVuSans-30"/>
       <use xlink:href="#DejaVuSans-2e" x="63.623047"/>
       <use xlink:href="#DejaVuSans-39" x="95.410156"/>
       <use xlink:href="#DejaVuSans-36" x="159.033203"/>
      </g>
     </g>
    </g>
    <g id="ytick_13">
     <g id="line2d_29">
      <g>
       <use xlink:href="#m3f3475974b" x="135" y="613.445184" style="stroke: #000000; stroke-width: 0.8"/>
      </g>
     </g>
     <g id="text_33">
      <!-- 0.98 -->
      <g transform="translate(79.015625 621.803465) scale(0.22 -0.22)">
       <use xlink:href="#DejaVuSans-30"/>
       <use xlink:href="#DejaVuSans-2e" x="63.623047"/>
       <use xlink:href="#DejaVuSans-39" x="95.410156"/>
       <use xlink:href="#DejaVuSans-38" x="159.033203"/>
      </g>
     </g>
    </g>
    <g id="ytick_14">
     <g id="line2d_30">
      <g>
       <use xlink:href="#m3f3475974b" x="135" y="529.899713" style="stroke: #000000; stroke-width: 0.8"/>
      </g>
     </g>
     <g id="text_34">
      <!-- 1.00 -->
      <g transform="translate(79.015625 538.257994) scale(0.22 -0.22)">
       <use xlink:href="#DejaVuSans-31"/>
       <use xlink:href="#DejaVuSans-2e" x="63.623047"/>
       <use xlink:href="#DejaVuSans-30" x="95.410156"/>
       <use xlink:href="#DejaVuSans-30" x="159.033203"/>
      </g>
     </g>
    </g>
    <g id="text_35">
     <!-- Metric Value -->
     <g transform="translate(70.024375 728.555625) rotate(-90) scale(0.24 -0.24)">
      <use xlink:href="#DejaVuSans-4d"/>
      <use xlink:href="#DejaVuSans-65" x="86.279297"/>
      <use xlink:href="#DejaVuSans-74" x="147.802734"/>
      <use xlink:href="#DejaVuSans-72" x="187.011719"/>
      <use xlink:href="#DejaVuSans-69" x="228.125"/>
      <use xlink:href="#DejaVuSans-63" x="255.908203"/>
      <use xlink:href="#DejaVuSans-20" x="310.888672"/>
      <use xlink:href="#DejaVuSans-56" x="342.675781"/>
      <use xlink:href="#DejaVuSans-61" x="403.333984"/>
      <use xlink:href="#DejaVuSans-6c" x="464.613281"/>
      <use xlink:href="#DejaVuSans-75" x="492.396484"/>
      <use xlink:href="#DejaVuSans-65" x="555.775391"/>
     </g>
    </g>
   </g>
   <g id="line2d_31">
    <path d="M 152.293388 733.639348 
L 173.910124 750.272967 
L 209.938017 759.150822 
L 281.993802 767.645207 
L 498.161157 773.848421 
" clip-path="url(#p29b8eb9a68)" style="fill: none; stroke: #1f77b4; stroke-width: 1.5; stroke-linecap: square"/>
    <g clip-path="url(#p29b8eb9a68)">
     <use xlink:href="#m9ce27e6185" x="152.293388" y="733.639348" style="fill: #1f77b4; stroke: #1f77b4"/>
     <use xlink:href="#m9ce27e6185" x="173.910124" y="750.272967" style="fill: #1f77b4; stroke: #1f77b4"/>
     <use xlink:href="#m9ce27e6185" x="209.938017" y="759.150822" style="fill: #1f77b4; stroke: #1f77b4"/>
     <use xlink:href="#m9ce27e6185" x="281.993802" y="767.645207" style="fill: #1f77b4; stroke: #1f77b4"/>
     <use xlink:href="#m9ce27e6185" x="498.161157" y="773.848421" style="fill: #1f77b4; stroke: #1f77b4"/>
    </g>
   </g>
   <g id="line2d_32">
    <path d="M 152.293388 535.111579 
L 173.910124 539.023615 
L 209.938017 543.396067 
L 281.993802 555.443439 
L 498.161157 596.429103 
" clip-path="url(#p29b8eb9a68)" style="fill: none; stroke: #ff7f0e; stroke-width: 1.5; stroke-linecap: square"/>
    <g clip-path="url(#p29b8eb9a68)">
     <use xlink:href="#mcecc870842" x="152.293388" y="535.111579" style="fill: #ff7f0e; stroke: #ff7f0e"/>
     <use xlink:href="#mcecc870842" x="173.910124" y="539.023615" style="fill: #ff7f0e; stroke: #ff7f0e"/>
     <use xlink:href="#mcecc870842" x="209.938017" y="543.396067" style="fill: #ff7f0e; stroke: #ff7f0e"/>
     <use xlink:href="#mcecc870842" x="281.993802" y="555.443439" style="fill: #ff7f0e; stroke: #ff7f0e"/>
     <use xlink:href="#mcecc870842" x="498.161157" y="596.429103" style="fill: #ff7f0e; stroke: #ff7f0e"/>
    </g>
   </g>
   <g id="line2d_33">
    <path d="M 152.293388 549.886881 
L 173.910124 550.593678 
L 209.938017 558.121118 
L 281.993802 577.046438 
L 498.161157 624.924528 
" clip-path="url(#p29b8eb9a68)" style="fill: none; stroke: #2ca02c; stroke-width: 1.5; stroke-linecap: square"/>
    <g clip-path="url(#p29b8eb9a68)">
     <use xlink:href="#m542d2491f6" x="152.293388" y="549.886881" style="fill: #2ca02c; stroke: #2ca02c"/>
     <use xlink:href="#m542d2491f6" x="173.910124" y="550.593678" style="fill: #2ca02c; stroke: #2ca02c"/>
     <use xlink:href="#m542d2491f6" x="209.938017" y="558.121118" style="fill: #2ca02c; stroke: #2ca02c"/>
     <use xlink:href="#m542d2491f6" x="281.993802" y="577.046438" style="fill: #2ca02c; stroke: #2ca02c"/>
     <use xlink:href="#m542d2491f6" x="498.161157" y="624.924528" style="fill: #2ca02c; stroke: #2ca02c"/>
    </g>
   </g>
   <g id="line2d_34">
    <path d="M 152.293388 588.823583 
L 173.910124 586.728136 
L 209.938017 588.629743 
L 281.993802 599.106008 
L 498.161157 631.807974 
" clip-path="url(#p29b8eb9a68)" style="fill: none; stroke: #d62728; stroke-width: 1.5; stroke-linecap: square"/>
    <g clip-path="url(#p29b8eb9a68)">
     <use xlink:href="#m76d897f358" x="152.293388" y="588.823583" style="fill: #d62728; stroke: #d62728"/>
     <use xlink:href="#m76d897f358" x="173.910124" y="586.728136" style="fill: #d62728; stroke: #d62728"/>
     <use xlink:href="#m76d897f358" x="209.938017" y="588.629743" style="fill: #d62728; stroke: #d62728"/>
     <use xlink:href="#m76d897f358" x="281.993802" y="599.106008" style="fill: #d62728; stroke: #d62728"/>
     <use xlink:href="#m76d897f358" x="498.161157" y="631.807974" style="fill: #d62728; stroke: #d62728"/>
    </g>
   </g>
   <g id="patch_25">
    <path d="M 135 785.785263 
L 135 523.174737 
" style="fill: none; stroke: #000000; stroke-width: 0.8; stroke-linejoin: miter; stroke-linecap: square"/>
   </g>
   <g id="patch_26">
    <path d="M 515.454545 785.785263 
L 515.454545 523.174737 
" style="fill: none; stroke: #000000; stroke-width: 0.8; stroke-linejoin: miter; stroke-linecap: square"/>
   </g>
   <g id="patch_27">
    <path d="M 135 785.785263 
L 515.454545 785.785263 
" style="fill: none; stroke: #000000; stroke-width: 0.8; stroke-linejoin: miter; stroke-linecap: square"/>
   </g>
   <g id="patch_28">
    <path d="M 135 523.174737 
L 515.454545 523.174737 
" style="fill: none; stroke: #000000; stroke-width: 0.8; stroke-linejoin: miter; stroke-linecap: square"/>
   </g>
   <g id="text_36">
    <!-- c -->
    <g transform="translate(91.769432 505.058783) scale(0.28 -0.28)">
     <defs>
      <path id="DejaVuSans-Bold-63" d="M 3366 3391 
L 3366 2478 
Q 3138 2634 2908 2709 
Q 2678 2784 2431 2784 
Q 1963 2784 1702 2511 
Q 1441 2238 1441 1747 
Q 1441 1256 1702 982 
Q 1963 709 2431 709 
Q 2694 709 2930 787 
Q 3166 866 3366 1019 
L 3366 103 
Q 3103 6 2833 -42 
Q 2563 -91 2291 -91 
Q 1344 -91 809 395 
Q 275 881 275 1747 
Q 275 2613 809 3098 
Q 1344 3584 2291 3584 
Q 2566 3584 2833 3536 
Q 3100 3488 3366 3391 
z
" transform="scale(0.015625)"/>
     </defs>
     <use xlink:href="#DejaVuSans-Bold-63"/>
    </g>
   </g>
   <g id="text_37">
    <!-- Trustworthiness -->
    <g transform="translate(230.950398 517.174737) scale(0.24 -0.24)">
     <defs>
      <path id="DejaVuSans-54" d="M -19 4666 
L 3928 4666 
L 3928 4134 
L 2272 4134 
L 2272 0 
L 1638 0 
L 1638 4134 
L -19 4134 
L -19 4666 
z
" transform="scale(0.015625)"/>
      <path id="DejaVuSans-77" d="M 269 3500 
L 844 3500 
L 1563 769 
L 2278 3500 
L 2956 3500 
L 3675 769 
L 4391 3500 
L 4966 3500 
L 4050 0 
L 3372 0 
L 2619 2869 
L 1863 0 
L 1184 0 
L 269 3500 
z
" transform="scale(0.015625)"/>
      <path id="DejaVuSans-6f" d="M 1959 3097 
Q 1497 3097 1228 2736 
Q 959 2375 959 1747 
Q 959 1119 1226 758 
Q 1494 397 1959 397 
Q 2419 397 2687 759 
Q 2956 1122 2956 1747 
Q 2956 2369 2687 2733 
Q 2419 3097 1959 3097 
z
M 1959 3584 
Q 2709 3584 3137 3096 
Q 3566 2609 3566 1747 
Q 3566 888 3137 398 
Q 2709 -91 1959 -91 
Q 1206 -91 779 398 
Q 353 888 353 1747 
Q 353 2609 779 3096 
Q 1206 3584 1959 3584 
z
" transform="scale(0.015625)"/>
      <path id="DejaVuSans-68" d="M 3513 2113 
L 3513 0 
L 2938 0 
L 2938 2094 
Q 2938 2591 2744 2837 
Q 2550 3084 2163 3084 
Q 1697 3084 1428 2787 
Q 1159 2491 1159 1978 
L 1159 0 
L 581 0 
L 581 4863 
L 1159 4863 
L 1159 2956 
Q 1366 3272 1645 3428 
Q 1925 3584 2291 3584 
Q 2894 3584 3203 3211 
Q 3513 2838 3513 2113 
z
" transform="scale(0.015625)"/>
      <path id="DejaVuSans-6e" d="M 3513 2113 
L 3513 0 
L 2938 0 
L 2938 2094 
Q 2938 2591 2744 2837 
Q 2550 3084 2163 3084 
Q 1697 3084 1428 2787 
Q 1159 2491 1159 1978 
L 1159 0 
L 581 0 
L 581 3500 
L 1159 3500 
L 1159 2956 
Q 1366 3272 1645 3428 
Q 1925 3584 2291 3584 
Q 2894 3584 3203 3211 
Q 3513 2838 3513 2113 
z
" transform="scale(0.015625)"/>
     </defs>
     <use xlink:href="#DejaVuSans-54"/>
     <use xlink:href="#DejaVuSans-72" x="46.333984"/>
     <use xlink:href="#DejaVuSans-75" x="87.447266"/>
     <use xlink:href="#DejaVuSans-73" x="150.826172"/>
     <use xlink:href="#DejaVuSans-74" x="202.925781"/>
     <use xlink:href="#DejaVuSans-77" x="242.134766"/>
     <use xlink:href="#DejaVuSans-6f" x="323.921875"/>
     <use xlink:href="#DejaVuSans-72" x="385.103516"/>
     <use xlink:href="#DejaVuSans-74" x="426.216797"/>
     <use xlink:href="#DejaVuSans-68" x="465.425781"/>
     <use xlink:href="#DejaVuSans-69" x="528.804688"/>
     <use xlink:href="#DejaVuSans-6e" x="556.587891"/>
     <use xlink:href="#DejaVuSans-65" x="619.966797"/>
     <use xlink:href="#DejaVuSans-73" x="681.490234"/>
     <use xlink:href="#DejaVuSans-73" x="733.589844"/>
    </g>
   </g>
  </g>
  <g id="axes_4">
   <g id="patch_29">
    <path d="M 591.545455 785.785263 
L 972 785.785263 
L 972 523.174737 
L 591.545455 523.174737 
z
" style="fill: #ffffff"/>
   </g>
   <g id="matplotlib.axis_7">
    <g id="xtick_13">
     <g id="line2d_35">
      <g>
       <use xlink:href="#m7e655cb5bd" x="594.427686" y="785.785263" style="stroke: #000000; stroke-width: 0.8"/>
      </g>
     </g>
     <g id="text_38">
      <!-- 0 -->
      <g transform="translate(587.428936 809.501826) scale(0.22 -0.22)">
       <use xlink:href="#DejaVuSans-30"/>
      </g>
     </g>
    </g>
    <g id="xtick_14">
     <g id="line2d_36">
      <g>
       <use xlink:href="#m7e655cb5bd" x="738.539256" y="785.785263" style="stroke: #000000; stroke-width: 0.8"/>
      </g>
     </g>
     <g id="text_39">
      <!-- 20 -->
      <g transform="translate(724.541756 809.501826) scale(0.22 -0.22)">
       <use xlink:href="#DejaVuSans-32"/>
       <use xlink:href="#DejaVuSans-30" x="63.623047"/>
      </g>
     </g>
    </g>
    <g id="xtick_15">
     <g id="line2d_37">
      <g>
       <use xlink:href="#m7e655cb5bd" x="882.650826" y="785.785263" style="stroke: #000000; stroke-width: 0.8"/>
      </g>
     </g>
     <g id="text_40">
      <!-- 40 -->
      <g transform="translate(868.653326 809.501826) scale(0.22 -0.22)">
       <use xlink:href="#DejaVuSans-34"/>
       <use xlink:href="#DejaVuSans-30" x="63.623047"/>
      </g>
     </g>
    </g>
    <g id="text_41">
     <!-- k -->
     <g transform="translate(774.823977 836.313388) scale(0.24 -0.24)">
      <use xlink:href="#DejaVuSans-6b"/>
     </g>
    </g>
   </g>
   <g id="matplotlib.axis_8">
    <g id="ytick_15">
     <g id="line2d_38">
      <g>
       <use xlink:href="#m3f3475974b" x="591.545455" y="763.067252" style="stroke: #000000; stroke-width: 0.8"/>
      </g>
     </g>
     <g id="text_42">
      <!-- 0.92 -->
      <g transform="translate(535.56108 771.425533) scale(0.22 -0.22)">
       <use xlink:href="#DejaVuSans-30"/>
       <use xlink:href="#DejaVuSans-2e" x="63.623047"/>
       <use xlink:href="#DejaVuSans-39" x="95.410156"/>
       <use xlink:href="#DejaVuSans-32" x="159.033203"/>
      </g>
     </g>
    </g>
    <g id="ytick_16">
     <g id="line2d_39">
      <g>
       <use xlink:href="#m3f3475974b" x="591.545455" y="703.581589" style="stroke: #000000; stroke-width: 0.8"/>
      </g>
     </g>
     <g id="text_43">
      <!-- 0.94 -->
      <g transform="translate(535.56108 711.939871) scale(0.22 -0.22)">
       <use xlink:href="#DejaVuSans-30"/>
       <use xlink:href="#DejaVuSans-2e" x="63.623047"/>
       <use xlink:href="#DejaVuSans-39" x="95.410156"/>
       <use xlink:href="#DejaVuSans-34" x="159.033203"/>
      </g>
     </g>
    </g>
    <g id="ytick_17">
     <g id="line2d_40">
      <g>
       <use xlink:href="#m3f3475974b" x="591.545455" y="644.095927" style="stroke: #000000; stroke-width: 0.8"/>
      </g>
     </g>
     <g id="text_44">
      <!-- 0.96 -->
      <g transform="translate(535.56108 652.454208) scale(0.22 -0.22)">
       <use xlink:href="#DejaVuSans-30"/>
       <use xlink:href="#DejaVuSans-2e" x="63.623047"/>
       <use xlink:href="#DejaVuSans-39" x="95.410156"/>
       <use xlink:href="#DejaVuSans-36" x="159.033203"/>
      </g>
     </g>
    </g>
    <g id="ytick_18">
     <g id="line2d_41">
      <g>
       <use xlink:href="#m3f3475974b" x="591.545455" y="584.610264" style="stroke: #000000; stroke-width: 0.8"/>
      </g>
     </g>
     <g id="text_45">
      <!-- 0.98 -->
      <g transform="translate(535.56108 592.968545) scale(0.22 -0.22)">
       <use xlink:href="#DejaVuSans-30"/>
       <use xlink:href="#DejaVuSans-2e" x="63.623047"/>
       <use xlink:href="#DejaVuSans-39" x="95.410156"/>
       <use xlink:href="#DejaVuSans-38" x="159.033203"/>
      </g>
     </g>
    </g>
    <g id="ytick_19">
     <g id="line2d_42">
      <g>
       <use xlink:href="#m3f3475974b" x="591.545455" y="525.124601" style="stroke: #000000; stroke-width: 0.8"/>
      </g>
     </g>
     <g id="text_46">
      <!-- 1.00 -->
      <g transform="translate(535.56108 533.482883) scale(0.22 -0.22)">
       <use xlink:href="#DejaVuSans-31"/>
       <use xlink:href="#DejaVuSans-2e" x="63.623047"/>
       <use xlink:href="#DejaVuSans-30" x="95.410156"/>
       <use xlink:href="#DejaVuSans-30" x="159.033203"/>
      </g>
     </g>
    </g>
   </g>
   <g id="line2d_43">
    <path d="M 608.838843 542.628861 
L 630.455579 550.453412 
L 666.483471 558.761318 
L 738.539256 570.770358 
L 954.706612 586.938497 
" clip-path="url(#pebcd4382f9)" style="fill: none; stroke: #1f77b4; stroke-width: 1.5; stroke-linecap: square"/>
    <g clip-path="url(#pebcd4382f9)">
     <use xlink:href="#m9ce27e6185" x="608.838843" y="542.628861" style="fill: #1f77b4; stroke: #1f77b4"/>
     <use xlink:href="#m9ce27e6185" x="630.455579" y="550.453412" style="fill: #1f77b4; stroke: #1f77b4"/>
     <use xlink:href="#m9ce27e6185" x="666.483471" y="558.761318" style="fill: #1f77b4; stroke: #1f77b4"/>
     <use xlink:href="#m9ce27e6185" x="738.539256" y="570.770358" style="fill: #1f77b4; stroke: #1f77b4"/>
     <use xlink:href="#m9ce27e6185" x="954.706612" y="586.938497" style="fill: #1f77b4; stroke: #1f77b4"/>
    </g>
   </g>
   <g id="line2d_44">
    <path d="M 608.838843 535.33062 
L 630.455579 544.38386 
L 666.483471 556.993164 
L 738.539256 571.728268 
L 954.706612 601.891572 
" clip-path="url(#pebcd4382f9)" style="fill: none; stroke: #ff7f0e; stroke-width: 1.5; stroke-linecap: square"/>
    <g clip-path="url(#pebcd4382f9)">
     <use xlink:href="#mcecc870842" x="608.838843" y="535.33062" style="fill: #ff7f0e; stroke: #ff7f0e"/>
     <use xlink:href="#mcecc870842" x="630.455579" y="544.38386" style="fill: #ff7f0e; stroke: #ff7f0e"/>
     <use xlink:href="#mcecc870842" x="666.483471" y="556.993164" style="fill: #ff7f0e; stroke: #ff7f0e"/>
     <use xlink:href="#mcecc870842" x="738.539256" y="571.728268" style="fill: #ff7f0e; stroke: #ff7f0e"/>
     <use xlink:href="#mcecc870842" x="954.706612" y="601.891572" style="fill: #ff7f0e; stroke: #ff7f0e"/>
    </g>
   </g>
   <g id="line2d_45">
    <path d="M 608.838843 535.111579 
L 630.455579 540.487551 
L 666.483471 553.407993 
L 738.539256 578.102342 
L 954.706612 644.67489 
" clip-path="url(#pebcd4382f9)" style="fill: none; stroke: #2ca02c; stroke-width: 1.5; stroke-linecap: square"/>
    <g clip-path="url(#pebcd4382f9)">
     <use xlink:href="#m542d2491f6" x="608.838843" y="535.111579" style="fill: #2ca02c; stroke: #2ca02c"/>
     <use xlink:href="#m542d2491f6" x="630.455579" y="540.487551" style="fill: #2ca02c; stroke: #2ca02c"/>
     <use xlink:href="#m542d2491f6" x="666.483471" y="553.407993" style="fill: #2ca02c; stroke: #2ca02c"/>
     <use xlink:href="#m542d2491f6" x="738.539256" y="578.102342" style="fill: #2ca02c; stroke: #2ca02c"/>
     <use xlink:href="#m542d2491f6" x="954.706612" y="644.67489" style="fill: #2ca02c; stroke: #2ca02c"/>
    </g>
   </g>
   <g id="line2d_46">
    <path d="M 608.838843 594.324753 
L 630.455579 615.382629 
L 666.483471 632.413636 
L 738.539256 669.37115 
L 954.706612 773.848421 
" clip-path="url(#pebcd4382f9)" style="fill: none; stroke: #d62728; stroke-width: 1.5; stroke-linecap: square"/>
    <g clip-path="url(#pebcd4382f9)">
     <use xlink:href="#m76d897f358" x="608.838843" y="594.324753" style="fill: #d62728; stroke: #d62728"/>
     <use xlink:href="#m76d897f358" x="630.455579" y="615.382629" style="fill: #d62728; stroke: #d62728"/>
     <use xlink:href="#m76d897f358" x="666.483471" y="632.413636" style="fill: #d62728; stroke: #d62728"/>
     <use xlink:href="#m76d897f358" x="738.539256" y="669.37115" style="fill: #d62728; stroke: #d62728"/>
     <use xlink:href="#m76d897f358" x="954.706612" y="773.848421" style="fill: #d62728; stroke: #d62728"/>
    </g>
   </g>
   <g id="patch_30">
    <path d="M 591.545455 785.785263 
L 591.545455 523.174737 
" style="fill: none; stroke: #000000; stroke-width: 0.8; stroke-linejoin: miter; stroke-linecap: square"/>
   </g>
   <g id="patch_31">
    <path d="M 972 785.785263 
L 972 523.174737 
" style="fill: none; stroke: #000000; stroke-width: 0.8; stroke-linejoin: miter; stroke-linecap: square"/>
   </g>
   <g id="patch_32">
    <path d="M 591.545455 785.785263 
L 972 785.785263 
" style="fill: none; stroke: #000000; stroke-width: 0.8; stroke-linejoin: miter; stroke-linecap: square"/>
   </g>
   <g id="patch_33">
    <path d="M 591.545455 523.174737 
L 972 523.174737 
" style="fill: none; stroke: #000000; stroke-width: 0.8; stroke-linejoin: miter; stroke-linecap: square"/>
   </g>
   <g id="text_47">
    <!-- d -->
    <g transform="translate(544.871761 505.058783) scale(0.28 -0.28)">
     <defs>
      <path id="DejaVuSans-Bold-64" d="M 2919 2988 
L 2919 4863 
L 4044 4863 
L 4044 0 
L 2919 0 
L 2919 506 
Q 2688 197 2409 53 
Q 2131 -91 1766 -91 
Q 1119 -91 703 423 
Q 288 938 288 1747 
Q 288 2556 703 3070 
Q 1119 3584 1766 3584 
Q 2128 3584 2408 3439 
Q 2688 3294 2919 2988 
z
M 2181 722 
Q 2541 722 2730 984 
Q 2919 1247 2919 1747 
Q 2919 2247 2730 2509 
Q 2541 2772 2181 2772 
Q 1825 2772 1636 2509 
Q 1447 2247 1447 1747 
Q 1447 1247 1636 984 
Q 1825 722 2181 722 
z
" transform="scale(0.015625)"/>
     </defs>
     <use xlink:href="#DejaVuSans-Bold-64"/>
    </g>
   </g>
   <g id="text_48">
    <!-- Continuity -->
    <g transform="translate(720.057102 517.174737) scale(0.24 -0.24)">
     <defs>
      <path id="DejaVuSans-79" d="M 2059 -325 
Q 1816 -950 1584 -1140 
Q 1353 -1331 966 -1331 
L 506 -1331 
L 506 -850 
L 844 -850 
Q 1081 -850 1212 -737 
Q 1344 -625 1503 -206 
L 1606 56 
L 191 3500 
L 800 3500 
L 1894 763 
L 2988 3500 
L 3597 3500 
L 2059 -325 
z
" transform="scale(0.015625)"/>
     </defs>
     <use xlink:href="#DejaVuSans-43"/>
     <use xlink:href="#DejaVuSans-6f" x="69.824219"/>
     <use xlink:href="#DejaVuSans-6e" x="131.005859"/>
     <use xlink:href="#DejaVuSans-74" x="194.384766"/>
     <use xlink:href="#DejaVuSans-69" x="233.59375"/>
     <use xlink:href="#DejaVuSans-6e" x="261.376953"/>
     <use xlink:href="#DejaVuSans-75" x="324.755859"/>
     <use xlink:href="#DejaVuSans-69" x="388.134766"/>
     <use xlink:href="#DejaVuSans-74" x="415.917969"/>
     <use xlink:href="#DejaVuSans-79" x="455.126953"/>
    </g>
   </g>
  </g>
  <g id="axes_5">
   <g id="patch_34">
    <path d="M 135 1153.44 
L 515.454545 1153.44 
L 515.454545 890.829474 
L 135 890.829474 
z
" style="fill: #ffffff"/>
   </g>
   <g id="matplotlib.axis_9">
    <g id="xtick_16">
     <g id="line2d_47">
      <g>
       <use xlink:href="#m7e655cb5bd" x="152.15415" y="1153.44" style="stroke: #000000; stroke-width: 0.8"/>
      </g>
     </g>
     <g id="text_49">
      <!-- 0 -->
      <g transform="translate(145.1554 1177.156562) scale(0.22 -0.22)">
       <use xlink:href="#DejaVuSans-30"/>
      </g>
     </g>
    </g>
    <g id="xtick_17">
     <g id="line2d_48">
      <g>
       <use xlink:href="#m7e655cb5bd" x="291.392382" y="1153.44" style="stroke: #000000; stroke-width: 0.8"/>
      </g>
     </g>
     <g id="text_50">
      <!-- 1000 -->
      <g transform="translate(263.397382 1177.156562) scale(0.22 -0.22)">
       <use xlink:href="#DejaVuSans-31"/>
       <use xlink:href="#DejaVuSans-30" x="63.623047"/>
       <use xlink:href="#DejaVuSans-30" x="127.246094"/>
       <use xlink:href="#DejaVuSans-30" x="190.869141"/>
      </g>
     </g>
    </g>
    <g id="xtick_18">
     <g id="line2d_49">
      <g>
       <use xlink:href="#m7e655cb5bd" x="430.630614" y="1153.44" style="stroke: #000000; stroke-width: 0.8"/>
      </g>
     </g>
     <g id="text_51">
      <!-- 2000 -->
      <g transform="translate(402.635614 1177.156562) scale(0.22 -0.22)">
       <use xlink:href="#DejaVuSans-32"/>
       <use xlink:href="#DejaVuSans-30" x="63.623047"/>
       <use xlink:href="#DejaVuSans-30" x="127.246094"/>
       <use xlink:href="#DejaVuSans-30" x="190.869141"/>
      </g>
     </g>
    </g>
    <g id="text_52">
     <!-- k -->
     <g transform="translate(318.278523 1203.968125) scale(0.24 -0.24)">
      <use xlink:href="#DejaVuSans-6b"/>
     </g>
    </g>
   </g>
   <g id="matplotlib.axis_10">
    <g id="ytick_20">
     <g id="line2d_50">
      <g>
       <use xlink:href="#m3f3475974b" x="135" y="1151.613188" style="stroke: #000000; stroke-width: 0.8"/>
      </g>
     </g>
     <g id="text_53">
      <!-- 0.2 -->
      <g transform="translate(93.013125 1159.971469) scale(0.22 -0.22)">
       <use xlink:href="#DejaVuSans-30"/>
       <use xlink:href="#DejaVuSans-2e" x="63.623047"/>
       <use xlink:href="#DejaVuSans-32" x="95.410156"/>
      </g>
     </g>
    </g>
    <g id="ytick_21">
     <g id="line2d_51">
      <g>
       <use xlink:href="#m3f3475974b" x="135" y="1089.40147" style="stroke: #000000; stroke-width: 0.8"/>
      </g>
     </g>
     <g id="text_54">
      <!-- 0.4 -->
      <g transform="translate(93.013125 1097.759751) scale(0.22 -0.22)">
       <use xlink:href="#DejaVuSans-30"/>
       <use xlink:href="#DejaVuSans-2e" x="63.623047"/>
       <use xlink:href="#DejaVuSans-34" x="95.410156"/>
      </g>
     </g>
    </g>
    <g id="ytick_22">
     <g id="line2d_52">
      <g>
       <use xlink:href="#m3f3475974b" x="135" y="1027.189752" style="stroke: #000000; stroke-width: 0.8"/>
      </g>
     </g>
     <g id="text_55">
      <!-- 0.6 -->
      <g transform="translate(93.013125 1035.548033) scale(0.22 -0.22)">
       <use xlink:href="#DejaVuSans-30"/>
       <use xlink:href="#DejaVuSans-2e" x="63.623047"/>
       <use xlink:href="#DejaVuSans-36" x="95.410156"/>
      </g>
     </g>
    </g>
    <g id="ytick_23">
     <g id="line2d_53">
      <g>
       <use xlink:href="#m3f3475974b" x="135" y="964.978034" style="stroke: #000000; stroke-width: 0.8"/>
      </g>
     </g>
     <g id="text_56">
      <!-- 0.8 -->
      <g transform="translate(93.013125 973.336315) scale(0.22 -0.22)">
       <use xlink:href="#DejaVuSans-30"/>
       <use xlink:href="#DejaVuSans-2e" x="63.623047"/>
       <use xlink:href="#DejaVuSans-38" x="95.410156"/>
      </g>
     </g>
    </g>
    <g id="ytick_24">
     <g id="line2d_54">
      <g>
       <use xlink:href="#m3f3475974b" x="135" y="902.766316" style="stroke: #000000; stroke-width: 0.8"/>
      </g>
     </g>
     <g id="text_57">
      <!-- 1.0 -->
      <g transform="translate(93.013125 911.124597) scale(0.22 -0.22)">
       <use xlink:href="#DejaVuSans-31"/>
       <use xlink:href="#DejaVuSans-2e" x="63.623047"/>
       <use xlink:href="#DejaVuSans-30" x="95.410156"/>
      </g>
     </g>
    </g>
    <g id="text_58">
     <!-- Metric Value -->
     <g transform="translate(84.021875 1096.210362) rotate(-90) scale(0.24 -0.24)">
      <use xlink:href="#DejaVuSans-4d"/>
      <use xlink:href="#DejaVuSans-65" x="86.279297"/>
      <use xlink:href="#DejaVuSans-74" x="147.802734"/>
      <use xlink:href="#DejaVuSans-72" x="187.011719"/>
      <use xlink:href="#DejaVuSans-69" x="228.125"/>
      <use xlink:href="#DejaVuSans-63" x="255.908203"/>
      <use xlink:href="#DejaVuSans-20" x="310.888672"/>
      <use xlink:href="#DejaVuSans-56" x="342.675781"/>
      <use xlink:href="#DejaVuSans-61" x="403.333984"/>
      <use xlink:href="#DejaVuSans-6c" x="464.613281"/>
      <use xlink:href="#DejaVuSans-75" x="492.396484"/>
      <use xlink:href="#DejaVuSans-65" x="555.775391"/>
     </g>
    </g>
   </g>
   <g id="line2d_55">
    <path d="M 152.293388 1141.503158 
L 152.571865 1120.440596 
L 152.98958 1107.928183 
L 153.964247 1095.274604 
L 154.381962 1091.59427 
L 155.078153 1087.127786 
L 155.495868 1085.353704 
L 158.837585 1073.255765 
L 159.2553 1072.056812 
L 160.508444 1068.126197 
L 160.786921 1067.209696 
L 161.343874 1065.370812 
L 162.179303 1062.907825 
L 162.318541 1062.685239 
L 162.875494 1061.202716 
L 163.9894 1058.693064 
L 165.660259 1054.442561 
L 166.634926 1052.003311 
L 169.558929 1045.314733 
L 170.672835 1042.447181 
L 172.204456 1038.840546 
L 175.685411 1031.650834 
L 177.913223 1027.584062 
L 179.444844 1024.813415 
L 180.55875 1023.017353 
L 183.343514 1018.412294 
L 184.178944 1017.146636 
L 185.571326 1014.977637 
L 187.659899 1011.622838 
L 188.634567 1010.239348 
L 192.533238 1004.956057 
L 197.545814 998.55805 
L 200.609055 995.102891 
L 202.279914 993.242185 
L 203.811534 991.536322 
L 206.039346 989.17342 
L 212.02659 983.218513 
L 219.406216 976.342154 
L 220.937837 974.935838 
L 222.747934 973.392595 
L 225.254222 971.50141 
L 227.621272 969.852704 
L 229.709845 968.348882 
L 234.86166 965.110783 
L 236.254042 964.366956 
L 240.848904 962.012886 
L 251.987963 956.788354 
L 258.949874 953.891187 
L 273.569889 948.051924 
L 274.962271 947.464145 
L 277.190083 946.493995 
L 281.088753 944.802889 
L 283.595041 943.788209 
L 287.772188 942.047071 
L 293.341718 939.679415 
L 303.227632 935.673616 
L 306.151635 934.574884 
L 308.240208 933.766405 
L 311.581926 932.550777 
L 320.910888 929.571477 
L 324.391843 928.574154 
L 326.341179 928.029488 
L 329.265181 927.248741 
L 360.733022 920.124658 
L 364.492454 919.361222 
L 378.833992 916.332446 
L 387.884477 914.251499 
L 403.061444 911.755672 
L 407.517068 911.215401 
L 410.998024 910.701972 
L 414.339741 910.254759 
L 417.681459 909.854496 
L 420.605462 909.506989 
L 430.352138 908.644332 
L 443.858246 907.987068 
L 446.921488 907.84197 
L 452.351779 907.540591 
L 459.870643 906.92825 
L 462.51617 906.693103 
L 467.250269 906.251103 
L 477.553899 905.185757 
L 480.61714 904.897988 
L 482.98419 904.777886 
L 488.553719 904.131754 
L 490.224578 903.832396 
L 492.870104 903.360029 
L 494.123248 903.286783 
L 495.515631 903.180149 
L 496.908013 902.908116 
L 497.325728 902.892449 
L 498.161157 902.766316 
L 498.161157 902.766316 
" clip-path="url(#p8c6c59f1f5)" style="fill: none; stroke: #1f77b4; stroke-width: 1.5; stroke-linecap: square"/>
   </g>
   <g id="line2d_56">
    <path d="M 152.293388 1027.890447 
L 152.571865 993.06423 
L 152.98958 985.869593 
L 153.268056 983.033446 
L 153.407294 983.290645 
L 153.685771 984.188 
L 153.825009 984.086574 
L 153.964247 984.347249 
L 154.103485 984.365124 
L 154.381962 985.465546 
L 154.5212 985.598491 
L 154.660438 985.994717 
L 155.078153 988.524012 
L 155.217391 988.669719 
L 156.331297 993.706534 
L 157.305965 996.389601 
L 158.419871 1000.137915 
L 159.116062 1001.832095 
L 160.786921 1005.695041 
L 161.204635 1006.413371 
L 161.761588 1007.609457 
L 163.571685 1009.842054 
L 164.267876 1010.49244 
L 165.103306 1011.149376 
L 165.660259 1011.541754 
L 166.35645 1012.226623 
L 167.331117 1012.772238 
L 168.166547 1012.824413 
L 168.584262 1012.92857 
L 169.837406 1012.87161 
L 170.533597 1012.734313 
L 171.508264 1012.631604 
L 172.62217 1012.410804 
L 173.039885 1012.478491 
L 173.875314 1012.452856 
L 174.571506 1012.37894 
L 175.546173 1012.258868 
L 176.103126 1012.121896 
L 177.077794 1011.875956 
L 177.634747 1011.75969 
L 178.330938 1011.597022 
L 179.027129 1011.479088 
L 180.141035 1011.318658 
L 181.951132 1011.361198 
L 182.508085 1011.259269 
L 183.204276 1011.221444 
L 183.621991 1011.201324 
L 184.45742 1011.258106 
L 187.242185 1011.494717 
L 189.19152 1011.371239 
L 190.444664 1011.158848 
L 191.697808 1011.011466 
L 192.950952 1010.7399 
L 193.647143 1010.600223 
L 200.609055 1008.436521 
L 202.001437 1007.948876 
L 206.317822 1005.842867 
L 207.29249 1005.341878 
L 207.988681 1005.018629 
L 216.482213 1001.181591 
L 222.330219 999.857925 
L 224.140316 999.64434 
L 225.254222 999.501807 
L 232.49461 998.142781 
L 237.785663 996.743083 
L 245.86148 994.535663 
L 249.620913 993.214439 
L 253.519583 991.894056 
L 262.43083 989.505618 
L 265.911786 988.821854 
L 268.69655 988.405038 
L 273.43065 987.716981 
L 286.379806 985.907147 
L 294.455623 984.078881 
L 299.885914 982.416611 
L 316.455264 975.858743 
L 328.290514 970.545711 
L 332.885375 968.592405 
L 337.201761 966.916394 
L 343.049766 964.757702 
L 345.834531 963.864672 
L 354.745778 961.246755 
L 359.619116 959.64128 
L 374.099892 954.036439 
L 379.947898 951.325492 
L 383.428854 949.583833 
L 402.086777 940.061672 
L 405.846209 938.308024 
L 420.326985 931.687336 
L 427.149659 928.903385 
L 429.238232 928.416951 
L 433.276141 927.754082 
L 436.200144 927.060883 
L 438.567194 926.521287 
L 440.377291 926.234042 
L 450.959396 924.557739 
L 452.630255 924.283318 
L 459.174452 923.006577 
L 461.263026 922.425177 
L 468.085699 919.953651 
L 472.402084 918.267727 
L 476.161516 916.574546 
L 481.870284 913.671824 
L 486.604384 910.917095 
L 490.920769 908.131739 
L 498.161157 902.766316 
L 498.161157 902.766316 
" clip-path="url(#p8c6c59f1f5)" style="fill: none; stroke: #ff7f0e; stroke-width: 1.5; stroke-linecap: square"/>
   </g>
   <g id="line2d_57">
    <path d="M 152.293388 1116.978828 
L 152.571865 1065.969891 
L 152.850341 1037.44993 
L 153.268056 1017.536425 
L 153.685771 1009.349326 
L 153.964247 1006.234347 
L 154.242724 1004.717458 
L 154.381962 1004.750303 
L 154.799677 1004.321012 
L 154.938915 1004.323317 
L 155.217391 1004.691295 
L 155.495868 1005.899881 
L 155.774344 1006.912905 
L 156.192059 1008.940613 
L 156.470535 1009.767629 
L 156.88825 1011.587509 
L 157.027488 1012.024707 
L 157.305965 1012.009827 
L 157.862918 1013.238716 
L 158.002156 1013.316465 
L 158.698347 1014.749751 
L 158.837585 1014.804548 
L 159.2553 1015.539959 
L 159.673015 1016.742814 
L 162.040065 1022.399084 
L 162.457779 1023.120512 
L 163.014732 1024.31318 
L 163.571685 1025.729767 
L 165.799497 1029.12126 
L 166.217212 1029.73386 
L 166.495688 1029.995691 
L 166.913403 1030.263084 
L 167.191879 1030.487931 
L 167.748832 1030.628654 
L 168.862738 1031.137418 
L 169.976644 1031.115326 
L 171.369026 1030.332181 
L 172.343694 1029.795785 
L 173.318361 1029.104645 
L 174.710744 1028.196306 
L 175.128458 1027.982205 
L 176.103126 1027.456877 
L 177.077794 1026.966346 
L 177.495508 1026.815892 
L 178.1917 1026.475942 
L 181.254941 1025.401135 
L 182.786561 1025.072879 
L 185.710564 1023.742141 
L 188.634567 1022.607057 
L 191.55857 1021.048412 
L 193.647143 1019.800206 
L 195.039526 1019.15532 
L 196.988861 1018.551601 
L 197.545814 1018.343399 
L 205.76087 1013.617521 
L 207.710205 1012.202264 
L 209.381064 1011.169175 
L 210.077255 1010.784835 
L 212.722781 1009.288947 
L 213.697449 1008.780708 
L 216.342975 1007.576639 
L 217.596119 1007.302203 
L 218.710025 1006.951002 
L 222.608696 1005.877996 
L 224.001078 1005.703708 
L 226.089651 1005.588897 
L 231.241466 1005.585528 
L 235.140137 1004.935837 
L 238.481854 1003.966108 
L 242.798239 1002.332257 
L 246.557672 1000.551932 
L 251.709486 998.062954 
L 254.076536 997.003076 
L 258.53216 994.809854 
L 263.962451 991.87807 
L 277.607797 985.048694 
L 281.784944 983.304862 
L 284.430471 982.080263 
L 287.215235 980.776439 
L 291.531621 978.780038 
L 306.847826 971.846774 
L 311.442688 970.042411 
L 316.176788 968.463495 
L 320.910888 966.468229 
L 325.088034 964.652993 
L 326.619655 964.030705 
L 334.556234 960.820665 
L 348.619296 954.586506 
L 360.593784 950.244613 
L 368.391125 947.339914 
L 384.821236 939.448578 
L 388.859145 937.311543 
L 403.200683 930.006596 
L 412.11193 925.483148 
L 422.833273 920.661834 
L 424.504132 920.181023 
L 429.098994 919.293081 
L 435.643191 918.503134 
L 436.757097 918.338577 
L 438.149479 918.200749 
L 449.010061 917.008341 
L 458.617499 916.516156 
L 460.845311 916.14997 
L 467.528746 914.68664 
L 474.351419 913.802275 
L 476.857708 913.548346 
L 478.25009 913.283635 
L 483.541143 911.396832 
L 488.971434 909.13906 
L 490.224578 908.405302 
L 491.61696 907.584416 
L 492.870104 906.992668 
L 494.680201 905.688575 
L 498.161157 902.766316 
L 498.161157 902.766316 
" clip-path="url(#p8c6c59f1f5)" style="fill: none; stroke: #2ca02c; stroke-width: 1.5; stroke-linecap: square"/>
   </g>
   <g id="line2d_58">
    <path d="M 152.293388 1116.72858 
L 152.571865 1081.360159 
L 152.98958 1058.420735 
L 153.268056 1047.472373 
L 153.685771 1036.75151 
L 154.381962 1026.404598 
L 154.799677 1022.24669 
L 155.217391 1019.700504 
L 155.774344 1018.14039 
L 155.913582 1018.033446 
L 156.331297 1017.43424 
L 156.470535 1017.34773 
L 156.609774 1017.012468 
L 156.749012 1017.019814 
L 156.88825 1016.820641 
L 157.445203 1015.061931 
L 158.280632 1014.496477 
L 158.976824 1014.550682 
L 159.533777 1014.955445 
L 160.786921 1016.651475 
L 161.065397 1017.227525 
L 161.761588 1018.921404 
L 162.597018 1020.654935 
L 163.571685 1022.546731 
L 164.685591 1024.659464 
L 166.774165 1028.174062 
L 168.862738 1030.91428 
L 171.09055 1032.938654 
L 172.343694 1034.096604 
L 173.4576 1034.825431 
L 177.634747 1036.43034 
L 181.811894 1036.491115 
L 182.508085 1036.513681 
L 183.204276 1036.389349 
L 184.178944 1036.420649 
L 185.432088 1036.409358 
L 187.799138 1036.312865 
L 188.495329 1036.234932 
L 190.862379 1036.10003 
L 192.115523 1035.838227 
L 193.647143 1035.515041 
L 194.343335 1035.486679 
L 198.798958 1035.190973 
L 201.166008 1035.202744 
L 205.900108 1035.432255 
L 207.153252 1035.497994 
L 211.330399 1035.409082 
L 213.140496 1035.31705 
L 217.317643 1035.225983 
L 221.773266 1035.558804 
L 223.583363 1035.90083 
L 225.39346 1036.292318 
L 229.152893 1037.323856 
L 231.380704 1037.867392 
L 232.912325 1038.233466 
L 244.608336 1041.229923 
L 249.899389 1042.026978 
L 252.823392 1042.273492 
L 259.924542 1042.526414 
L 265.354833 1042.411464 
L 269.392742 1041.986676 
L 274.823033 1041.478842 
L 278.025512 1041.130213 
L 280.810277 1040.793941 
L 291.392382 1039.247964 
L 296.26572 1038.223645 
L 299.746676 1037.563368 
L 314.923644 1034.168382 
L 325.366511 1031.43848 
L 342.492814 1026.317654 
L 344.999102 1025.524381 
L 348.480057 1024.361769 
L 352.100252 1022.960591 
L 358.644448 1020.475977 
L 362.821595 1018.83313 
L 376.745419 1013.045512 
L 381.479519 1010.640182 
L 385.238951 1008.469522 
L 388.998383 1006.038889 
L 395.124865 1001.878825 
L 400.137442 998.15411 
L 405.706971 993.81525 
L 411.137262 989.240141 
L 417.959935 983.182461 
L 422.554797 978.911308 
L 433.972332 967.474656 
L 456.528926 944.219036 
L 470.870464 929.392064 
L 480.199425 919.797962 
L 487.439813 912.712957 
L 494.819439 905.799801 
L 498.161157 902.766316 
L 498.161157 902.766316 
" clip-path="url(#p8c6c59f1f5)" style="fill: none; stroke: #d62728; stroke-width: 1.5; stroke-linecap: square"/>
   </g>
   <g id="patch_35">
    <path d="M 135 1153.44 
L 135 890.829474 
" style="fill: none; stroke: #000000; stroke-width: 0.8; stroke-linejoin: miter; stroke-linecap: square"/>
   </g>
   <g id="patch_36">
    <path d="M 515.454545 1153.44 
L 515.454545 890.829474 
" style="fill: none; stroke: #000000; stroke-width: 0.8; stroke-linejoin: miter; stroke-linecap: square"/>
   </g>
   <g id="patch_37">
    <path d="M 135 1153.44 
L 515.454545 1153.44 
" style="fill: none; stroke: #000000; stroke-width: 0.8; stroke-linejoin: miter; stroke-linecap: square"/>
   </g>
   <g id="patch_38">
    <path d="M 135 890.829474 
L 515.454545 890.829474 
" style="fill: none; stroke: #000000; stroke-width: 0.8; stroke-linejoin: miter; stroke-linecap: square"/>
   </g>
   <g id="text_59">
    <!-- e -->
    <g transform="translate(89.376307 872.71352) scale(0.28 -0.28)">
     <defs>
      <path id="DejaVuSans-Bold-65" d="M 4031 1759 
L 4031 1441 
L 1416 1441 
Q 1456 1047 1700 850 
Q 1944 653 2381 653 
Q 2734 653 3104 758 
Q 3475 863 3866 1075 
L 3866 213 
Q 3469 63 3072 -14 
Q 2675 -91 2278 -91 
Q 1328 -91 801 392 
Q 275 875 275 1747 
Q 275 2603 792 3093 
Q 1309 3584 2216 3584 
Q 3041 3584 3536 3087 
Q 4031 2591 4031 1759 
z
M 2881 2131 
Q 2881 2450 2695 2645 
Q 2509 2841 2209 2841 
Q 1884 2841 1681 2658 
Q 1478 2475 1428 2131 
L 2881 2131 
z
" transform="scale(0.015625)"/>
     </defs>
     <use xlink:href="#DejaVuSans-Bold-65"/>
    </g>
   </g>
   <g id="text_60">
    <!-- $Q_{NN}$ -->
    <g transform="translate(302.787273 884.829474) scale(0.24 -0.24)">
     <use xlink:href="#DejaVuSans-Oblique-51" transform="translate(0 0.78125)"/>
     <use xlink:href="#DejaVuSans-Oblique-4e" transform="translate(78.710938 -15.625) scale(0.7)"/>
     <use xlink:href="#DejaVuSans-Oblique-4e" transform="translate(131.074219 -15.625) scale(0.7)"/>
    </g>
   </g>
  </g>
  <g id="axes_6">
   <g id="patch_39">
    <path d="M 591.545455 1153.44 
L 972 1153.44 
L 972 890.829474 
L 591.545455 890.829474 
z
" style="fill: #ffffff"/>
   </g>
   <g id="matplotlib.axis_11">
    <g id="xtick_19">
     <g id="line2d_59">
      <g>
       <use xlink:href="#m7e655cb5bd" x="608.699605" y="1153.44" style="stroke: #000000; stroke-width: 0.8"/>
      </g>
     </g>
     <g id="text_61">
      <!-- 0 -->
      <g transform="translate(601.700855 1177.156562) scale(0.22 -0.22)">
       <use xlink:href="#DejaVuSans-30"/>
      </g>
     </g>
    </g>
    <g id="xtick_20">
     <g id="line2d_60">
      <g>
       <use xlink:href="#m7e655cb5bd" x="747.937837" y="1153.44" style="stroke: #000000; stroke-width: 0.8"/>
      </g>
     </g>
     <g id="text_62">
      <!-- 1000 -->
      <g transform="translate(719.942837 1177.156562) scale(0.22 -0.22)">
       <use xlink:href="#DejaVuSans-31"/>
       <use xlink:href="#DejaVuSans-30" x="63.623047"/>
       <use xlink:href="#DejaVuSans-30" x="127.246094"/>
       <use xlink:href="#DejaVuSans-30" x="190.869141"/>
      </g>
     </g>
    </g>
    <g id="xtick_21">
     <g id="line2d_61">
      <g>
       <use xlink:href="#m7e655cb5bd" x="887.176069" y="1153.44" style="stroke: #000000; stroke-width: 0.8"/>
      </g>
     </g>
     <g id="text_63">
      <!-- 2000 -->
      <g transform="translate(859.181069 1177.156562) scale(0.22 -0.22)">
       <use xlink:href="#DejaVuSans-32"/>
       <use xlink:href="#DejaVuSans-30" x="63.623047"/>
       <use xlink:href="#DejaVuSans-30" x="127.246094"/>
       <use xlink:href="#DejaVuSans-30" x="190.869141"/>
      </g>
     </g>
    </g>
    <g id="text_64">
     <!-- k -->
     <g transform="translate(774.823977 1203.968125) scale(0.24 -0.24)">
      <use xlink:href="#DejaVuSans-6b"/>
     </g>
    </g>
   </g>
   <g id="matplotlib.axis_12">
    <g id="ytick_25">
     <g id="line2d_62">
      <g>
       <use xlink:href="#m3f3475974b" x="591.545455" y="1133.134502" style="stroke: #000000; stroke-width: 0.8"/>
      </g>
     </g>
     <g id="text_65">
      <!-- 0.0 -->
      <g transform="translate(549.55858 1141.492783) scale(0.22 -0.22)">
       <use xlink:href="#DejaVuSans-30"/>
       <use xlink:href="#DejaVuSans-2e" x="63.623047"/>
       <use xlink:href="#DejaVuSans-30" x="95.410156"/>
      </g>
     </g>
    </g>
    <g id="ytick_26">
     <g id="line2d_63">
      <g>
       <use xlink:href="#m3f3475974b" x="591.545455" y="1070.766267" style="stroke: #000000; stroke-width: 0.8"/>
      </g>
     </g>
     <g id="text_66">
      <!-- 0.2 -->
      <g transform="translate(549.55858 1079.124549) scale(0.22 -0.22)">
       <use xlink:href="#DejaVuSans-30"/>
       <use xlink:href="#DejaVuSans-2e" x="63.623047"/>
       <use xlink:href="#DejaVuSans-32" x="95.410156"/>
      </g>
     </g>
    </g>
    <g id="ytick_27">
     <g id="line2d_64">
      <g>
       <use xlink:href="#m3f3475974b" x="591.545455" y="1008.398033" style="stroke: #000000; stroke-width: 0.8"/>
      </g>
     </g>
     <g id="text_67">
      <!-- 0.4 -->
      <g transform="translate(549.55858 1016.756314) scale(0.22 -0.22)">
       <use xlink:href="#DejaVuSans-30"/>
       <use xlink:href="#DejaVuSans-2e" x="63.623047"/>
       <use xlink:href="#DejaVuSans-34" x="95.410156"/>
      </g>
     </g>
    </g>
    <g id="ytick_28">
     <g id="line2d_65">
      <g>
       <use xlink:href="#m3f3475974b" x="591.545455" y="946.029798" style="stroke: #000000; stroke-width: 0.8"/>
      </g>
     </g>
     <g id="text_68">
      <!-- 0.6 -->
      <g transform="translate(549.55858 954.388079) scale(0.22 -0.22)">
       <use xlink:href="#DejaVuSans-30"/>
       <use xlink:href="#DejaVuSans-2e" x="63.623047"/>
       <use xlink:href="#DejaVuSans-36" x="95.410156"/>
      </g>
     </g>
    </g>
   </g>
   <g id="line2d_66">
    <path d="M 608.838843 1060.756291 
L 609.117319 1039.891718 
L 609.395796 1031.479048 
L 609.674272 1025.812893 
L 610.788178 1013.315996 
L 612.041322 1007.351829 
L 615.38304 998.235199 
L 615.661516 997.743265 
L 618.167805 991.987782 
L 619.977902 988.95661 
L 620.395616 988.450913 
L 621.231046 987.288417 
L 624.155049 982.57723 
L 625.965146 980.092119 
L 626.939813 978.468214 
L 628.053719 976.717371 
L 632.230866 971.709814 
L 633.762487 970.298773 
L 635.711822 968.460441 
L 637.243442 967.331109 
L 638.078872 966.64192 
L 640.306683 965.092611 
L 642.11678 963.904416 
L 643.787639 962.652325 
L 644.205354 962.423518 
L 644.901545 962.047482 
L 647.68631 960.705055 
L 650.610313 959.451788 
L 651.58498 959.015568 
L 655.344413 957.906865 
L 656.458318 957.663123 
L 660.774704 956.752039 
L 664.394898 956.285179 
L 665.508803 956.172146 
L 668.432806 955.902473 
L 669.825189 955.860596 
L 671.356809 955.797724 
L 676.508624 955.65167 
L 677.483291 955.636186 
L 679.014912 955.676331 
L 680.825009 955.933365 
L 682.217391 956.176331 
L 690.9894 958.163447 
L 693.35645 959.066896 
L 694.609594 959.504906 
L 697.25512 960.562248 
L 701.710744 962.474197 
L 706.027129 964.287895 
L 719.393999 970.76483 
L 722.596479 972.418601 
L 728.166008 975.182367 
L 730.115343 976.119632 
L 731.507725 976.785268 
L 733.874775 977.881188 
L 737.216493 979.43007 
L 759.773087 990.439425 
L 762.836328 992.036574 
L 769.102048 995.402891 
L 783.304348 1003.869768 
L 791.658642 1009.413039 
L 817.278476 1026.678472 
L 821.455623 1029.58619 
L 825.772009 1032.576499 
L 834.265541 1038.432068 
L 846.100791 1046.475687 
L 864.201761 1060.011675 
L 867.40424 1062.427198 
L 878.264822 1070.877484 
L 886.897593 1077.913966 
L 907.087136 1095.144657 
L 913.492095 1100.418795 
L 925.048868 1109.789956 
L 932.289256 1115.650854 
L 937.719547 1119.948285 
L 942.732124 1124.025616 
L 945.516888 1126.164202 
L 947.048509 1127.233464 
L 948.997844 1128.629103 
L 951.921847 1131.075429 
L 953.453467 1132.147255 
L 954.01042 1132.61125 
L 954.706612 1133.134502 
L 954.706612 1133.134502 
" clip-path="url(#pba53c22316)" style="fill: none; stroke: #1f77b4; stroke-width: 1.5; stroke-linecap: square"/>
   </g>
   <g id="line2d_67">
    <path d="M 608.838843 946.857745 
L 609.117319 912.194889 
L 609.395796 907.06872 
L 609.813511 902.766316 
L 609.952749 903.149652 
L 610.231225 904.300243 
L 610.370464 904.324051 
L 610.788178 905.580682 
L 611.484369 908.98242 
L 611.762846 910.173621 
L 613.01599 916.709407 
L 613.433705 918.200306 
L 613.572943 918.567608 
L 614.269134 921.680985 
L 615.661516 926.882815 
L 617.332375 932.261352 
L 617.889328 933.82298 
L 619.142472 937.035432 
L 619.560187 937.801082 
L 620.11714 938.928587 
L 622.205713 942.514904 
L 623.041143 944.043563 
L 624.433525 945.741109 
L 625.965146 947.311083 
L 629.167625 949.660611 
L 629.58534 950.104936 
L 631.256198 951.477689 
L 631.813151 951.933505 
L 635.433345 954.393722 
L 637.661157 956.188066 
L 638.775063 957.205114 
L 639.610492 957.856108 
L 640.863636 959.042905 
L 642.256019 960.458383 
L 643.091448 961.291069 
L 646.85088 964.378039 
L 647.825548 965.124359 
L 648.800216 965.818302 
L 649.774883 966.513771 
L 650.888789 967.234253 
L 651.724218 967.647441 
L 652.559648 968.119764 
L 653.812792 968.797213 
L 658.68613 971.726351 
L 660.356989 972.465626 
L 661.470895 972.955877 
L 663.837945 973.820762 
L 664.673374 974.184981 
L 666.344233 974.860867 
L 673.166906 978.023515 
L 679.014912 981.976776 
L 682.913582 984.928132 
L 687.786921 988.498743 
L 702.128458 997.580109 
L 705.330938 999.344635 
L 709.508085 1001.665486 
L 711.45742 1002.822863 
L 715.356091 1005.228083 
L 721.761049 1009.559908 
L 731.090011 1016.647679 
L 739.165828 1022.878546 
L 750.722602 1030.880584 
L 754.899748 1033.410634 
L 761.722422 1037.102504 
L 763.950234 1038.201905 
L 777.038627 1044.451588 
L 782.468918 1046.869083 
L 785.949874 1048.522657 
L 793.051024 1052.017527 
L 802.101509 1056.927183 
L 805.303989 1058.850965 
L 807.5318 1060.209387 
L 812.544377 1063.25358 
L 816.582285 1065.517711 
L 820.480956 1067.573485 
L 825.911247 1070.428492 
L 829.252964 1072.058944 
L 834.544017 1074.449555 
L 841.923644 1077.384577 
L 858.492993 1083.878477 
L 864.758714 1086.58581 
L 882.024254 1094.412959 
L 884.252066 1095.685502 
L 886.062163 1096.940762 
L 888.289975 1098.604786 
L 891.770931 1101.027333 
L 894.555695 1102.841893 
L 900.125225 1106.940831 
L 915.719907 1118.288651 
L 917.947718 1119.660636 
L 927.972871 1124.997812 
L 938.554977 1129.433149 
L 943.428315 1130.97301 
L 947.326985 1131.96868 
L 949.972512 1132.443767 
L 951.504132 1132.749993 
L 954.706612 1133.134502 
L 954.706612 1133.134502 
" clip-path="url(#pba53c22316)" style="fill: none; stroke: #ff7f0e; stroke-width: 1.5; stroke-linecap: square"/>
   </g>
   <g id="line2d_68">
    <path d="M 608.838843 1036.170262 
L 609.117319 985.283971 
L 609.395796 956.943237 
L 609.813511 937.3561 
L 610.231225 929.524871 
L 610.509702 926.653035 
L 610.788178 925.383308 
L 610.927416 925.541725 
L 611.205893 925.533986 
L 611.345131 925.487822 
L 611.484369 925.615622 
L 611.762846 926.235505 
L 612.041322 927.69811 
L 612.319799 928.964662 
L 612.876752 931.84417 
L 613.712181 935.329584 
L 613.851419 935.454791 
L 614.408372 937.188729 
L 614.54761 937.392163 
L 615.243802 939.456502 
L 615.522278 939.976387 
L 615.661516 940.242061 
L 617.889328 947.961468 
L 618.446281 949.7069 
L 620.674093 956.237867 
L 621.091807 957.251068 
L 621.509522 958.168204 
L 622.205713 959.948329 
L 623.319619 962.199995 
L 624.572763 963.938548 
L 626.104384 965.728012 
L 626.522098 966.027892 
L 627.079051 966.225666 
L 627.496766 966.371657 
L 627.914481 966.497671 
L 628.889148 966.838352 
L 629.724578 966.977082 
L 631.11696 967.338857 
L 631.95239 967.613874 
L 633.762487 968.298719 
L 635.572584 969.284608 
L 635.990298 969.495875 
L 636.825728 969.884072 
L 637.939633 970.566695 
L 638.775063 971.146257 
L 639.471254 971.571805 
L 642.395257 972.893305 
L 643.230686 973.325688 
L 645.180022 974.313798 
L 648.104024 975.386509 
L 649.21793 975.764288 
L 651.167266 976.417865 
L 652.002695 976.882338 
L 653.395077 977.697486 
L 654.508983 978.235941 
L 656.597557 978.980861 
L 658.407654 979.525325 
L 659.939274 979.976468 
L 661.749371 980.555468 
L 662.863277 980.859349 
L 663.977183 981.016081 
L 665.508803 981.368461 
L 666.761948 981.827474 
L 668.432806 982.337923 
L 669.546712 982.78026 
L 671.496047 983.589843 
L 672.88843 984.217957 
L 674.280812 985.166976 
L 679.98958 988.789452 
L 683.609774 991.885718 
L 686.533777 994.597585 
L 689.179303 996.700449 
L 694.052641 999.986752 
L 696.280453 1001.213675 
L 699.62217 1002.933812 
L 702.685411 1004.244304 
L 715.077614 1009.442343 
L 720.368667 1011.339534 
L 725.381243 1013.298952 
L 728.444484 1014.429111 
L 730.811534 1015.373168 
L 741.39364 1020.209256 
L 756.292131 1026.826213 
L 759.076895 1028.048897 
L 760.608516 1028.704007 
L 764.924901 1030.664381 
L 768.823572 1032.789381 
L 774.253863 1035.786816 
L 776.481674 1036.836892 
L 780.519583 1038.660772 
L 782.886633 1039.813232 
L 794.16493 1045.245414 
L 798.342077 1047.114573 
L 800.43065 1048.176824 
L 808.36723 1051.927887 
L 824.658103 1060.735783 
L 829.670679 1062.973634 
L 844.012217 1068.733736 
L 847.493173 1070.029768 
L 850.974129 1071.395722 
L 854.594323 1072.859963 
L 861.556234 1075.536491 
L 864.340999 1076.566021 
L 869.77129 1078.856358 
L 873.948437 1080.657464 
L 876.593963 1081.831327 
L 880.074919 1083.583591 
L 885.365972 1087.229713 
L 889.125404 1090.321416 
L 896.226554 1095.786382 
L 899.289795 1098.135583 
L 901.23913 1099.673912 
L 907.922566 1105.191182 
L 910.011139 1106.962833 
L 915.023715 1111.171097 
L 917.669242 1113.107602 
L 923.238771 1116.890941 
L 926.302012 1119.14703 
L 929.64373 1121.727888 
L 934.656306 1125.647033 
L 936.187927 1126.468805 
L 938.415738 1127.692556 
L 939.808121 1128.456158 
L 942.035932 1129.593044 
L 946.491556 1131.5609 
L 948.301653 1132.137618 
L 950.11175 1132.783684 
L 952.896515 1133.133947 
L 954.706612 1133.134502 
L 954.706612 1133.134502 
" clip-path="url(#pba53c22316)" style="fill: none; stroke: #2ca02c; stroke-width: 1.5; stroke-linecap: square"/>
   </g>
   <g id="line2d_69">
    <path d="M 608.838843 1035.919384 
L 609.117319 1000.712959 
L 609.535034 978.092291 
L 609.813511 967.367363 
L 610.231225 956.995996 
L 610.927416 947.250499 
L 611.205893 943.966539 
L 611.345131 943.458599 
L 611.762846 941.282475 
L 612.180561 940.270904 
L 613.433705 939.90124 
L 613.990658 938.640062 
L 614.826087 938.826123 
L 615.661516 939.712709 
L 616.079231 940.41565 
L 617.471613 943.589507 
L 618.724757 947.594799 
L 623.041143 959.494472 
L 624.294287 962.478255 
L 625.268954 964.502102 
L 625.965146 965.880091 
L 626.522098 966.841285 
L 627.775243 969.127731 
L 629.446101 972.105381 
L 630.977722 974.195778 
L 631.813151 975.234919 
L 632.787819 976.586753 
L 634.319439 978.38215 
L 634.876392 978.922836 
L 636.547251 980.440892 
L 637.382681 981.121446 
L 638.078872 981.814085 
L 639.610492 983.133182 
L 640.306683 983.75704 
L 641.142113 984.487676 
L 647.68631 990.050596 
L 651.445742 992.79814 
L 660.774704 1001.062837 
L 663.837945 1004.053444 
L 673.306144 1012.285622 
L 680.546533 1019.581678 
L 684.445203 1024.11034 
L 687.647682 1027.820751 
L 693.774165 1034.920386 
L 697.25512 1039.088989 
L 703.242364 1045.706808 
L 711.875135 1054.262188 
L 715.356091 1057.512698 
L 722.318002 1063.648093 
L 724.545814 1065.436916 
L 727.748293 1067.97304 
L 733.596299 1072.694725 
L 740.001258 1077.632346 
L 743.76069 1080.500539 
L 746.12774 1082.275183 
L 749.190981 1084.472738 
L 757.545275 1090.321089 
L 773.000719 1100.722712 
L 778.987963 1104.54016 
L 783.722063 1107.516803 
L 796.53198 1115.27227 
L 805.303989 1120.281748 
L 815.607618 1125.619023 
L 818.810097 1127.237237 
L 833.012397 1134.139757 
L 835.797161 1135.290382 
L 841.227452 1137.168325 
L 845.683076 1138.316833 
L 851.113367 1139.524737 
L 855.986705 1140.321693 
L 862.391664 1141.098971 
L 867.543478 1141.388147 
L 871.999102 1141.502359 
L 878.125584 1141.391154 
L 882.163493 1141.106148 
L 887.315307 1140.575285 
L 903.60618 1138.453231 
L 910.428854 1137.513038 
L 923.795724 1135.791215 
L 934.517068 1134.26203 
L 940.504312 1133.682379 
L 946.770032 1133.302424 
L 953.174991 1133.14064 
L 954.706612 1133.134502 
L 954.706612 1133.134502 
" clip-path="url(#pba53c22316)" style="fill: none; stroke: #d62728; stroke-width: 1.5; stroke-linecap: square"/>
   </g>
   <g id="patch_40">
    <path d="M 591.545455 1153.44 
L 591.545455 890.829474 
" style="fill: none; stroke: #000000; stroke-width: 0.8; stroke-linejoin: miter; stroke-linecap: square"/>
   </g>
   <g id="patch_41">
    <path d="M 972 1153.44 
L 972 890.829474 
" style="fill: none; stroke: #000000; stroke-width: 0.8; stroke-linejoin: miter; stroke-linecap: square"/>
   </g>
   <g id="patch_42">
    <path d="M 591.545455 1153.44 
L 972 1153.44 
" style="fill: none; stroke: #000000; stroke-width: 0.8; stroke-linejoin: miter; stroke-linecap: square"/>
   </g>
   <g id="patch_43">
    <path d="M 591.545455 890.829474 
L 972 890.829474 
" style="fill: none; stroke: #000000; stroke-width: 0.8; stroke-linejoin: miter; stroke-linecap: square"/>
   </g>
   <g id="text_69">
    <!-- f -->
    <g transform="translate(552.733636 872.71352) scale(0.28 -0.28)">
     <defs>
      <path id="DejaVuSans-Bold-66" d="M 2841 4863 
L 2841 4128 
L 2222 4128 
Q 1984 4128 1890 4042 
Q 1797 3956 1797 3744 
L 1797 3500 
L 2753 3500 
L 2753 2700 
L 1797 2700 
L 1797 0 
L 678 0 
L 678 2700 
L 122 2700 
L 122 3500 
L 678 3500 
L 678 3744 
Q 678 4316 997 4589 
Q 1316 4863 1984 4863 
L 2841 4863 
z
" transform="scale(0.015625)"/>
     </defs>
     <use xlink:href="#DejaVuSans-Bold-66"/>
    </g>
   </g>
   <g id="text_70">
    <!-- LCMC -->
    <g transform="translate(747.973977 884.829474) scale(0.24 -0.24)">
     <defs>
      <path id="DejaVuSans-4c" d="M 628 4666 
L 1259 4666 
L 1259 531 
L 3531 531 
L 3531 0 
L 628 0 
L 628 4666 
z
" transform="scale(0.015625)"/>
     </defs>
     <use xlink:href="#DejaVuSans-4c"/>
     <use xlink:href="#DejaVuSans-43" x="55.712891"/>
     <use xlink:href="#DejaVuSans-4d" x="125.537109"/>
     <use xlink:href="#DejaVuSans-43" x="211.816406"/>
    </g>
   </g>
  </g>
 </g>
 <defs>
  <clipPath id="pebbb89d2ec">
   <rect x="135" y="155.52" width="380.454545" height="262.610526"/>
  </clipPath>
  <clipPath id="p80d2eed603">
   <rect x="591.545455" y="155.52" width="380.454545" height="262.610526"/>
  </clipPath>
  <clipPath id="p29b8eb9a68">
   <rect x="135" y="523.174737" width="380.454545" height="262.610526"/>
  </clipPath>
  <clipPath id="pebcd4382f9">
   <rect x="591.545455" y="523.174737" width="380.454545" height="262.610526"/>
  </clipPath>
  <clipPath id="p8c6c59f1f5">
   <rect x="135" y="890.829474" width="380.454545" height="262.610526"/>
  </clipPath>
  <clipPath id="pba53c22316">
   <rect x="591.545455" y="890.829474" width="380.454545" height="262.610526"/>
  </clipPath>
 </defs>
</svg>
