<?xml version="1.0" encoding="utf-8" standalone="no"?>
<!DOCTYPE svg PUBLIC "-//W3C//DTD SVG 1.1//EN"
  "http://www.w3.org/Graphics/SVG/1.1/DTD/svg11.dtd">
<svg xmlns:xlink="http://www.w3.org/1999/xlink" width="1080pt" height="1296pt" viewBox="0 0 1080 1296" xmlns="http://www.w3.org/2000/svg" version="1.1">
 <metadata>
  <rdf:RDF xmlns:dc="http://purl.org/dc/elements/1.1/" xmlns:cc="http://creativecommons.org/ns#" xmlns:rdf="http://www.w3.org/1999/02/22-rdf-syntax-ns#">
   <cc:Work>
    <dc:type rdf:resource="http://purl.org/dc/dcmitype/StillImage"/>
    <dc:date>2024-07-24T01:22:54.709711</dc:date>
    <dc:format>image/svg+xml</dc:format>
    <dc:creator>
     <cc:Agent>
      <dc:title>Matplotlib v3.8.4, https://matplotlib.org/</dc:title>
     </cc:Agent>
    </dc:creator>
   </cc:Work>
  </rdf:RDF>
 </metadata>
 <defs>
  <style type="text/css">*{stroke-linejoin: round; stroke-linecap: butt}</style>
 </defs>
 <g id="figure_1">
  <g id="patch_1">
   <path d="M 0 1296 
L 1080 1296 
L 1080 0 
L 0 0 
z
" style="fill: #ffffff"/>
  </g>
  <g id="axes_1">
   <g id="patch_2">
    <path d="M 135 418.130526 
L 515.454545 418.130526 
L 515.454545 155.52 
L 135 155.52 
z
" style="fill: #ffffff"/>
   </g>
   <g id="matplotlib.axis_1">
    <g id="xtick_1">
     <g id="line2d_1">
      <defs>
       <path id="mf75de1dd41" d="M 0 0 
L 0 3.5 
" style="stroke: #000000; stroke-width: 0.8"/>
      </defs>
      <g>
       <use xlink:href="#mf75de1dd41" x="137.882231" y="418.130526" style="stroke: #000000; stroke-width: 0.8"/>
      </g>
     </g>
     <g id="text_1">
      <!-- 0 -->
      <g transform="translate(131.519731 440.327401) scale(0.2 -0.2)">
       <defs>
        <path id="DejaVuSans-30" d="M 2034 4250 
Q 1547 4250 1301 3770 
Q 1056 3291 1056 2328 
Q 1056 1369 1301 889 
Q 1547 409 2034 409 
Q 2525 409 2770 889 
Q 3016 1369 3016 2328 
Q 3016 3291 2770 3770 
Q 2525 4250 2034 4250 
z
M 2034 4750 
Q 2819 4750 3233 4129 
Q 3647 3509 3647 2328 
Q 3647 1150 3233 529 
Q 2819 -91 2034 -91 
Q 1250 -91 836 529 
Q 422 1150 422 2328 
Q 422 3509 836 4129 
Q 1250 4750 2034 4750 
z
" transform="scale(0.015625)"/>
       </defs>
       <use xlink:href="#DejaVuSans-30"/>
      </g>
     </g>
    </g>
    <g id="xtick_2">
     <g id="line2d_2">
      <g>
       <use xlink:href="#mf75de1dd41" x="209.938017" y="418.130526" style="stroke: #000000; stroke-width: 0.8"/>
      </g>
     </g>
     <g id="text_2">
      <!-- 10 -->
      <g transform="translate(197.213017 440.327401) scale(0.2 -0.2)">
       <defs>
        <path id="DejaVuSans-31" d="M 794 531 
L 1825 531 
L 1825 4091 
L 703 3866 
L 703 4441 
L 1819 4666 
L 2450 4666 
L 2450 531 
L 3481 531 
L 3481 0 
L 794 0 
L 794 531 
z
" transform="scale(0.015625)"/>
       </defs>
       <use xlink:href="#DejaVuSans-31"/>
       <use xlink:href="#DejaVuSans-30" x="63.623047"/>
      </g>
     </g>
    </g>
    <g id="xtick_3">
     <g id="line2d_3">
      <g>
       <use xlink:href="#mf75de1dd41" x="281.993802" y="418.130526" style="stroke: #000000; stroke-width: 0.8"/>
      </g>
     </g>
     <g id="text_3">
      <!-- 20 -->
      <g transform="translate(269.268802 440.327401) scale(0.2 -0.2)">
       <defs>
        <path id="DejaVuSans-32" d="M 1228 531 
L 3431 531 
L 3431 0 
L 469 0 
L 469 531 
Q 828 903 1448 1529 
Q 2069 2156 2228 2338 
Q 2531 2678 2651 2914 
Q 2772 3150 2772 3378 
Q 2772 3750 2511 3984 
Q 2250 4219 1831 4219 
Q 1534 4219 1204 4116 
Q 875 4013 500 3803 
L 500 4441 
Q 881 4594 1212 4672 
Q 1544 4750 1819 4750 
Q 2544 4750 2975 4387 
Q 3406 4025 3406 3419 
Q 3406 3131 3298 2873 
Q 3191 2616 2906 2266 
Q 2828 2175 2409 1742 
Q 1991 1309 1228 531 
z
" transform="scale(0.015625)"/>
       </defs>
       <use xlink:href="#DejaVuSans-32"/>
       <use xlink:href="#DejaVuSans-30" x="63.623047"/>
      </g>
     </g>
    </g>
    <g id="xtick_4">
     <g id="line2d_4">
      <g>
       <use xlink:href="#mf75de1dd41" x="354.049587" y="418.130526" style="stroke: #000000; stroke-width: 0.8"/>
      </g>
     </g>
     <g id="text_4">
      <!-- 30 -->
      <g transform="translate(341.324587 440.327401) scale(0.2 -0.2)">
       <defs>
        <path id="DejaVuSans-33" d="M 2597 2516 
Q 3050 2419 3304 2112 
Q 3559 1806 3559 1356 
Q 3559 666 3084 287 
Q 2609 -91 1734 -91 
Q 1441 -91 1130 -33 
Q 819 25 488 141 
L 488 750 
Q 750 597 1062 519 
Q 1375 441 1716 441 
Q 2309 441 2620 675 
Q 2931 909 2931 1356 
Q 2931 1769 2642 2001 
Q 2353 2234 1838 2234 
L 1294 2234 
L 1294 2753 
L 1863 2753 
Q 2328 2753 2575 2939 
Q 2822 3125 2822 3475 
Q 2822 3834 2567 4026 
Q 2313 4219 1838 4219 
Q 1578 4219 1281 4162 
Q 984 4106 628 3988 
L 628 4550 
Q 988 4650 1302 4700 
Q 1616 4750 1894 4750 
Q 2613 4750 3031 4423 
Q 3450 4097 3450 3541 
Q 3450 3153 3228 2886 
Q 3006 2619 2597 2516 
z
" transform="scale(0.015625)"/>
       </defs>
       <use xlink:href="#DejaVuSans-33"/>
       <use xlink:href="#DejaVuSans-30" x="63.623047"/>
      </g>
     </g>
    </g>
    <g id="xtick_5">
     <g id="line2d_5">
      <g>
       <use xlink:href="#mf75de1dd41" x="426.105372" y="418.130526" style="stroke: #000000; stroke-width: 0.8"/>
      </g>
     </g>
     <g id="text_5">
      <!-- 40 -->
      <g transform="translate(413.380372 440.327401) scale(0.2 -0.2)">
       <defs>
        <path id="DejaVuSans-34" d="M 2419 4116 
L 825 1625 
L 2419 1625 
L 2419 4116 
z
M 2253 4666 
L 3047 4666 
L 3047 1625 
L 3713 1625 
L 3713 1100 
L 3047 1100 
L 3047 0 
L 2419 0 
L 2419 1100 
L 313 1100 
L 313 1709 
L 2253 4666 
z
" transform="scale(0.015625)"/>
       </defs>
       <use xlink:href="#DejaVuSans-34"/>
       <use xlink:href="#DejaVuSans-30" x="63.623047"/>
      </g>
     </g>
    </g>
    <g id="xtick_6">
     <g id="line2d_6">
      <g>
       <use xlink:href="#mf75de1dd41" x="498.161157" y="418.130526" style="stroke: #000000; stroke-width: 0.8"/>
      </g>
     </g>
     <g id="text_6">
      <!-- 50 -->
      <g transform="translate(485.436157 440.327401) scale(0.2 -0.2)">
       <defs>
        <path id="DejaVuSans-35" d="M 691 4666 
L 3169 4666 
L 3169 4134 
L 1269 4134 
L 1269 2991 
Q 1406 3038 1543 3061 
Q 1681 3084 1819 3084 
Q 2600 3084 3056 2656 
Q 3513 2228 3513 1497 
Q 3513 744 3044 326 
Q 2575 -91 1722 -91 
Q 1428 -91 1123 -41 
Q 819 9 494 109 
L 494 744 
Q 775 591 1075 516 
Q 1375 441 1709 441 
Q 2250 441 2565 725 
Q 2881 1009 2881 1497 
Q 2881 1984 2565 2268 
Q 2250 2553 1709 2553 
Q 1456 2553 1204 2497 
Q 953 2441 691 2322 
L 691 4666 
z
" transform="scale(0.015625)"/>
       </defs>
       <use xlink:href="#DejaVuSans-35"/>
       <use xlink:href="#DejaVuSans-30" x="63.623047"/>
      </g>
     </g>
    </g>
    <g id="text_7">
     <!-- k -->
     <g transform="translate(318.278523 466.723026) scale(0.24 -0.24)">
      <defs>
       <path id="DejaVuSans-6b" d="M 581 4863 
L 1159 4863 
L 1159 1991 
L 2875 3500 
L 3609 3500 
L 1753 1863 
L 3688 0 
L 2938 0 
L 1159 1709 
L 1159 0 
L 581 0 
L 581 4863 
z
" transform="scale(0.015625)"/>
      </defs>
      <use xlink:href="#DejaVuSans-6b"/>
     </g>
    </g>
   </g>
   <g id="matplotlib.axis_2">
    <g id="ytick_1">
     <g id="line2d_7">
      <defs>
       <path id="m3cfeb10d3c" d="M 0 0 
L -3.5 0 
" style="stroke: #000000; stroke-width: 0.8"/>
      </defs>
      <g>
       <use xlink:href="#m3cfeb10d3c" x="135" y="418.130526" style="stroke: #000000; stroke-width: 0.8"/>
      </g>
     </g>
     <g id="text_8">
      <!-- 0.0 -->
      <g transform="translate(96.19375 425.728964) scale(0.2 -0.2)">
       <defs>
        <path id="DejaVuSans-2e" d="M 684 794 
L 1344 794 
L 1344 0 
L 684 0 
L 684 794 
z
" transform="scale(0.015625)"/>
       </defs>
       <use xlink:href="#DejaVuSans-30"/>
       <use xlink:href="#DejaVuSans-2e" x="63.623047"/>
       <use xlink:href="#DejaVuSans-30" x="95.410156"/>
      </g>
     </g>
    </g>
    <g id="ytick_2">
     <g id="line2d_8">
      <g>
       <use xlink:href="#m3cfeb10d3c" x="135" y="352.477895" style="stroke: #000000; stroke-width: 0.8"/>
      </g>
     </g>
     <g id="text_9">
      <!-- 0.2 -->
      <g transform="translate(96.19375 360.076332) scale(0.2 -0.2)">
       <use xlink:href="#DejaVuSans-30"/>
       <use xlink:href="#DejaVuSans-2e" x="63.623047"/>
       <use xlink:href="#DejaVuSans-32" x="95.410156"/>
      </g>
     </g>
    </g>
    <g id="ytick_3">
     <g id="line2d_9">
      <g>
       <use xlink:href="#m3cfeb10d3c" x="135" y="286.825263" style="stroke: #000000; stroke-width: 0.8"/>
      </g>
     </g>
     <g id="text_10">
      <!-- 0.4 -->
      <g transform="translate(96.19375 294.423701) scale(0.2 -0.2)">
       <use xlink:href="#DejaVuSans-30"/>
       <use xlink:href="#DejaVuSans-2e" x="63.623047"/>
       <use xlink:href="#DejaVuSans-34" x="95.410156"/>
      </g>
     </g>
    </g>
    <g id="ytick_4">
     <g id="line2d_10">
      <g>
       <use xlink:href="#m3cfeb10d3c" x="135" y="221.172632" style="stroke: #000000; stroke-width: 0.8"/>
      </g>
     </g>
     <g id="text_11">
      <!-- 0.6 -->
      <g transform="translate(96.19375 228.771069) scale(0.2 -0.2)">
       <defs>
        <path id="DejaVuSans-36" d="M 2113 2584 
Q 1688 2584 1439 2293 
Q 1191 2003 1191 1497 
Q 1191 994 1439 701 
Q 1688 409 2113 409 
Q 2538 409 2786 701 
Q 3034 994 3034 1497 
Q 3034 2003 2786 2293 
Q 2538 2584 2113 2584 
z
M 3366 4563 
L 3366 3988 
Q 3128 4100 2886 4159 
Q 2644 4219 2406 4219 
Q 1781 4219 1451 3797 
Q 1122 3375 1075 2522 
Q 1259 2794 1537 2939 
Q 1816 3084 2150 3084 
Q 2853 3084 3261 2657 
Q 3669 2231 3669 1497 
Q 3669 778 3244 343 
Q 2819 -91 2113 -91 
Q 1303 -91 875 529 
Q 447 1150 447 2328 
Q 447 3434 972 4092 
Q 1497 4750 2381 4750 
Q 2619 4750 2861 4703 
Q 3103 4656 3366 4563 
z
" transform="scale(0.015625)"/>
       </defs>
       <use xlink:href="#DejaVuSans-30"/>
       <use xlink:href="#DejaVuSans-2e" x="63.623047"/>
       <use xlink:href="#DejaVuSans-36" x="95.410156"/>
      </g>
     </g>
    </g>
    <g id="ytick_5">
     <g id="line2d_11">
      <g>
       <use xlink:href="#m3cfeb10d3c" x="135" y="155.52" style="stroke: #000000; stroke-width: 0.8"/>
      </g>
     </g>
     <g id="text_12">
      <!-- 0.8 -->
      <g transform="translate(96.19375 163.118438) scale(0.2 -0.2)">
       <defs>
        <path id="DejaVuSans-38" d="M 2034 2216 
Q 1584 2216 1326 1975 
Q 1069 1734 1069 1313 
Q 1069 891 1326 650 
Q 1584 409 2034 409 
Q 2484 409 2743 651 
Q 3003 894 3003 1313 
Q 3003 1734 2745 1975 
Q 2488 2216 2034 2216 
z
M 1403 2484 
Q 997 2584 770 2862 
Q 544 3141 544 3541 
Q 544 4100 942 4425 
Q 1341 4750 2034 4750 
Q 2731 4750 3128 4425 
Q 3525 4100 3525 3541 
Q 3525 3141 3298 2862 
Q 3072 2584 2669 2484 
Q 3125 2378 3379 2068 
Q 3634 1759 3634 1313 
Q 3634 634 3220 271 
Q 2806 -91 2034 -91 
Q 1263 -91 848 271 
Q 434 634 434 1313 
Q 434 1759 690 2068 
Q 947 2378 1403 2484 
z
M 1172 3481 
Q 1172 3119 1398 2916 
Q 1625 2713 2034 2713 
Q 2441 2713 2670 2916 
Q 2900 3119 2900 3481 
Q 2900 3844 2670 4047 
Q 2441 4250 2034 4250 
Q 1625 4250 1398 4047 
Q 1172 3844 1172 3481 
z
" transform="scale(0.015625)"/>
       </defs>
       <use xlink:href="#DejaVuSans-30"/>
       <use xlink:href="#DejaVuSans-2e" x="63.623047"/>
       <use xlink:href="#DejaVuSans-38" x="95.410156"/>
      </g>
     </g>
    </g>
    <g id="text_13">
     <!-- $P_{NN}$ -->
     <g transform="translate(87.2025 306.985263) rotate(-90) scale(0.24 -0.24)">
      <defs>
       <path id="DejaVuSans-Oblique-50" d="M 1081 4666 
L 2541 4666 
Q 3178 4666 3512 4369 
Q 3847 4072 3847 3500 
Q 3847 2731 3353 2303 
Q 2859 1875 1966 1875 
L 1172 1875 
L 806 0 
L 172 0 
L 1081 4666 
z
M 1613 4147 
L 1275 2394 
L 2069 2394 
Q 2606 2394 2893 2669 
Q 3181 2944 3181 3456 
Q 3181 3784 2986 3965 
Q 2791 4147 2438 4147 
L 1613 4147 
z
" transform="scale(0.015625)"/>
       <path id="DejaVuSans-Oblique-4e" d="M 1081 4666 
L 1931 4666 
L 3219 666 
L 4000 4666 
L 4616 4666 
L 3706 0 
L 2853 0 
L 1569 4025 
L 788 0 
L 172 0 
L 1081 4666 
z
" transform="scale(0.015625)"/>
      </defs>
      <use xlink:href="#DejaVuSans-Oblique-50" transform="translate(0 0.09375)"/>
      <use xlink:href="#DejaVuSans-Oblique-4e" transform="translate(60.302734 -16.3125) scale(0.7)"/>
      <use xlink:href="#DejaVuSans-Oblique-4e" transform="translate(112.666016 -16.3125) scale(0.7)"/>
     </g>
    </g>
   </g>
   <g id="line2d_12">
    <path d="M 152.293388 344.003804 
L 173.910124 329.868813 
L 209.938017 324.55309 
L 281.993802 313.239919 
L 498.161157 282.655527 
" clip-path="url(#p1ea25a4732)" style="fill: none; stroke: #1f77b4; stroke-width: 1.5; stroke-linecap: square"/>
    <defs>
     <path id="mbc6050e036" d="M 0 3 
C 0.795609 3 1.55874 2.683901 2.12132 2.12132 
C 2.683901 1.55874 3 0.795609 3 0 
C 3 -0.795609 2.683901 -1.55874 2.12132 -2.12132 
C 1.55874 -2.683901 0.795609 -3 0 -3 
C -0.795609 -3 -1.55874 -2.683901 -2.12132 -2.12132 
C -2.683901 -1.55874 -3 -0.795609 -3 0 
C -3 0.795609 -2.683901 1.55874 -2.12132 2.12132 
C -1.55874 2.683901 -0.795609 3 0 3 
z
" style="stroke: #1f77b4"/>
    </defs>
    <g clip-path="url(#p1ea25a4732)">
     <use xlink:href="#mbc6050e036" x="152.293388" y="344.003804" style="fill: #1f77b4; stroke: #1f77b4"/>
     <use xlink:href="#mbc6050e036" x="173.910124" y="329.868813" style="fill: #1f77b4; stroke: #1f77b4"/>
     <use xlink:href="#mbc6050e036" x="209.938017" y="324.55309" style="fill: #1f77b4; stroke: #1f77b4"/>
     <use xlink:href="#mbc6050e036" x="281.993802" y="313.239919" style="fill: #1f77b4; stroke: #1f77b4"/>
     <use xlink:href="#mbc6050e036" x="498.161157" y="282.655527" style="fill: #1f77b4; stroke: #1f77b4"/>
    </g>
   </g>
   <g id="line2d_13">
    <path d="M 152.293388 190.745295 
L 173.910124 186.931091 
L 209.938017 201.204152 
L 281.993802 217.62594 
L 498.161157 228.597385 
" clip-path="url(#p1ea25a4732)" style="fill: none; stroke: #ff7f0e; stroke-width: 1.5; stroke-linecap: square"/>
    <defs>
     <path id="mc74a493cc0" d="M 0 3 
C 0.795609 3 1.55874 2.683901 2.12132 2.12132 
C 2.683901 1.55874 3 0.795609 3 0 
C 3 -0.795609 2.683901 -1.55874 2.12132 -2.12132 
C 1.55874 -2.683901 0.795609 -3 0 -3 
C -0.795609 -3 -1.55874 -2.683901 -2.12132 -2.12132 
C -2.683901 -1.55874 -3 -0.795609 -3 0 
C -3 0.795609 -2.683901 1.55874 -2.12132 2.12132 
C -1.55874 2.683901 -0.795609 3 0 3 
z
" style="stroke: #ff7f0e"/>
    </defs>
    <g clip-path="url(#p1ea25a4732)">
     <use xlink:href="#mc74a493cc0" x="152.293388" y="190.745295" style="fill: #ff7f0e; stroke: #ff7f0e"/>
     <use xlink:href="#mc74a493cc0" x="173.910124" y="186.931091" style="fill: #ff7f0e; stroke: #ff7f0e"/>
     <use xlink:href="#mc74a493cc0" x="209.938017" y="201.204152" style="fill: #ff7f0e; stroke: #ff7f0e"/>
     <use xlink:href="#mc74a493cc0" x="281.993802" y="217.62594" style="fill: #ff7f0e; stroke: #ff7f0e"/>
     <use xlink:href="#mc74a493cc0" x="498.161157" y="228.597385" style="fill: #ff7f0e; stroke: #ff7f0e"/>
    </g>
   </g>
   <g id="line2d_14">
    <path d="M 152.293388 284.029331 
L 173.910124 241.192887 
L 209.938017 227.351297 
L 281.993802 233.624885 
L 498.161157 241.39309 
" clip-path="url(#p1ea25a4732)" style="fill: none; stroke: #2ca02c; stroke-width: 1.5; stroke-linecap: square"/>
    <defs>
     <path id="m7494f2bf3a" d="M 0 3 
C 0.795609 3 1.55874 2.683901 2.12132 2.12132 
C 2.683901 1.55874 3 0.795609 3 0 
C 3 -0.795609 2.683901 -1.55874 2.12132 -2.12132 
C 1.55874 -2.683901 0.795609 -3 0 -3 
C -0.795609 -3 -1.55874 -2.683901 -2.12132 -2.12132 
C -2.683901 -1.55874 -3 -0.795609 -3 0 
C -3 0.795609 -2.683901 1.55874 -2.12132 2.12132 
C -1.55874 2.683901 -0.795609 3 0 3 
z
" style="stroke: #2ca02c"/>
    </defs>
    <g clip-path="url(#p1ea25a4732)">
     <use xlink:href="#m7494f2bf3a" x="152.293388" y="284.029331" style="fill: #2ca02c; stroke: #2ca02c"/>
     <use xlink:href="#m7494f2bf3a" x="173.910124" y="241.192887" style="fill: #2ca02c; stroke: #2ca02c"/>
     <use xlink:href="#m7494f2bf3a" x="209.938017" y="227.351297" style="fill: #2ca02c; stroke: #2ca02c"/>
     <use xlink:href="#m7494f2bf3a" x="281.993802" y="233.624885" style="fill: #2ca02c; stroke: #2ca02c"/>
     <use xlink:href="#m7494f2bf3a" x="498.161157" y="241.39309" style="fill: #2ca02c; stroke: #2ca02c"/>
    </g>
   </g>
   <g id="line2d_15">
    <path d="M 152.293388 293.780576 
L 173.910124 268.530892 
L 209.938017 258.779646 
L 281.993802 249.78779 
L 498.161157 251.185756 
" clip-path="url(#p1ea25a4732)" style="fill: none; stroke: #d62728; stroke-width: 1.5; stroke-linecap: square"/>
    <defs>
     <path id="m4792c15279" d="M 0 3 
C 0.795609 3 1.55874 2.683901 2.12132 2.12132 
C 2.683901 1.55874 3 0.795609 3 0 
C 3 -0.795609 2.683901 -1.55874 2.12132 -2.12132 
C 1.55874 -2.683901 0.795609 -3 0 -3 
C -0.795609 -3 -1.55874 -2.683901 -2.12132 -2.12132 
C -2.683901 -1.55874 -3 -0.795609 -3 0 
C -3 0.795609 -2.683901 1.55874 -2.12132 2.12132 
C -1.55874 2.683901 -0.795609 3 0 3 
z
" style="stroke: #d62728"/>
    </defs>
    <g clip-path="url(#p1ea25a4732)">
     <use xlink:href="#m4792c15279" x="152.293388" y="293.780576" style="fill: #d62728; stroke: #d62728"/>
     <use xlink:href="#m4792c15279" x="173.910124" y="268.530892" style="fill: #d62728; stroke: #d62728"/>
     <use xlink:href="#m4792c15279" x="209.938017" y="258.779646" style="fill: #d62728; stroke: #d62728"/>
     <use xlink:href="#m4792c15279" x="281.993802" y="249.78779" style="fill: #d62728; stroke: #d62728"/>
     <use xlink:href="#m4792c15279" x="498.161157" y="251.185756" style="fill: #d62728; stroke: #d62728"/>
    </g>
   </g>
   <g id="patch_3">
    <path d="M 135 418.130526 
L 135 155.52 
" style="fill: none; stroke: #000000; stroke-width: 0.8; stroke-linejoin: miter; stroke-linecap: square"/>
   </g>
   <g id="patch_4">
    <path d="M 515.454545 418.130526 
L 515.454545 155.52 
" style="fill: none; stroke: #000000; stroke-width: 0.8; stroke-linejoin: miter; stroke-linecap: square"/>
   </g>
   <g id="patch_5">
    <path d="M 135 418.130526 
L 515.454545 418.130526 
" style="fill: none; stroke: #000000; stroke-width: 0.8; stroke-linejoin: miter; stroke-linecap: square"/>
   </g>
   <g id="patch_6">
    <path d="M 135 155.52 
L 515.454545 155.52 
" style="fill: none; stroke: #000000; stroke-width: 0.8; stroke-linejoin: miter; stroke-linecap: square"/>
   </g>
   <g id="text_14">
    <!-- a -->
    <g transform="translate(89.472557 137.404046) scale(0.28 -0.28)">
     <defs>
      <path id="DejaVuSans-Bold-61" d="M 2106 1575 
Q 1756 1575 1579 1456 
Q 1403 1338 1403 1106 
Q 1403 894 1545 773 
Q 1688 653 1941 653 
Q 2256 653 2472 879 
Q 2688 1106 2688 1447 
L 2688 1575 
L 2106 1575 
z
M 3816 1997 
L 3816 0 
L 2688 0 
L 2688 519 
Q 2463 200 2181 54 
Q 1900 -91 1497 -91 
Q 953 -91 614 226 
Q 275 544 275 1050 
Q 275 1666 698 1953 
Q 1122 2241 2028 2241 
L 2688 2241 
L 2688 2328 
Q 2688 2594 2478 2717 
Q 2269 2841 1825 2841 
Q 1466 2841 1156 2769 
Q 847 2697 581 2553 
L 581 3406 
Q 941 3494 1303 3539 
Q 1666 3584 2028 3584 
Q 2975 3584 3395 3211 
Q 3816 2838 3816 1997 
z
" transform="scale(0.015625)"/>
     </defs>
     <use xlink:href="#DejaVuSans-Bold-61"/>
    </g>
   </g>
   <g id="text_15">
    <!-- $P_{NN}$ -->
    <g transform="translate(303.387273 149.52) scale(0.26 -0.26)">
     <use xlink:href="#DejaVuSans-Oblique-50" transform="translate(0 0.09375)"/>
     <use xlink:href="#DejaVuSans-Oblique-4e" transform="translate(60.302734 -16.3125) scale(0.7)"/>
     <use xlink:href="#DejaVuSans-Oblique-4e" transform="translate(112.666016 -16.3125) scale(0.7)"/>
    </g>
   </g>
  </g>
  <g id="axes_2">
   <g id="patch_7">
    <path d="M 591.545455 418.130526 
L 972 418.130526 
L 972 155.52 
L 591.545455 155.52 
z
" style="fill: #ffffff"/>
   </g>
   <g id="patch_8">
    <path d="M 608.838843 418.130526 
L 628.792753 418.130526 
L 628.792753 186.736386 
L 608.838843 186.736386 
z
" clip-path="url(#p9c7a2149c1)" style="fill: #1f77b4"/>
   </g>
   <g id="patch_9">
    <path d="M 741.864908 418.130526 
L 761.818818 418.130526 
L 761.818818 257.612371 
L 741.864908 257.612371 
z
" clip-path="url(#p9c7a2149c1)" style="fill: #1f77b4"/>
   </g>
   <g id="patch_10">
    <path d="M 874.890973 418.130526 
L 894.844882 418.130526 
L 894.844882 168.025263 
L 874.890973 168.025263 
z
" clip-path="url(#p9c7a2149c1)" style="fill: #1f77b4"/>
   </g>
   <g id="patch_11">
    <path d="M 628.792753 418.130526 
L 648.746662 418.130526 
L 648.746662 193.761025 
L 628.792753 193.761025 
z
" clip-path="url(#p9c7a2149c1)" style="fill: #ff7f0e"/>
   </g>
   <g id="patch_12">
    <path d="M 761.818818 418.130526 
L 781.772727 418.130526 
L 781.772727 229.922015 
L 761.818818 229.922015 
z
" clip-path="url(#p9c7a2149c1)" style="fill: #ff7f0e"/>
   </g>
   <g id="patch_13">
    <path d="M 894.844882 418.130526 
L 914.798792 418.130526 
L 914.798792 193.607282 
L 894.844882 193.607282 
z
" clip-path="url(#p9c7a2149c1)" style="fill: #ff7f0e"/>
   </g>
   <g id="patch_14">
    <path d="M 648.746662 418.130526 
L 668.700572 418.130526 
L 668.700572 198.005067 
L 648.746662 198.005067 
z
" clip-path="url(#p9c7a2149c1)" style="fill: #2ca02c"/>
   </g>
   <g id="patch_15">
    <path d="M 781.772727 418.130526 
L 801.726637 418.130526 
L 801.726637 280.236331 
L 781.772727 280.236331 
z
" clip-path="url(#p9c7a2149c1)" style="fill: #2ca02c"/>
   </g>
   <g id="patch_16">
    <path d="M 914.798792 418.130526 
L 934.752702 418.130526 
L 934.752702 197.513572 
L 914.798792 197.513572 
z
" clip-path="url(#p9c7a2149c1)" style="fill: #2ca02c"/>
   </g>
   <g id="patch_17">
    <path d="M 668.700572 418.130526 
L 688.654482 418.130526 
L 688.654482 236.511917 
L 668.700572 236.511917 
z
" clip-path="url(#p9c7a2149c1)" style="fill: #d62728"/>
   </g>
   <g id="patch_18">
    <path d="M 801.726637 418.130526 
L 821.680547 418.130526 
L 821.680547 286.554314 
L 801.726637 286.554314 
z
" clip-path="url(#p9c7a2149c1)" style="fill: #d62728"/>
   </g>
   <g id="patch_19">
    <path d="M 934.752702 418.130526 
L 954.706612 418.130526 
L 954.706612 235.708622 
L 934.752702 235.708622 
z
" clip-path="url(#p9c7a2149c1)" style="fill: #d62728"/>
   </g>
   <g id="matplotlib.axis_3">
    <g id="xtick_7">
     <g id="line2d_16">
      <g>
       <use xlink:href="#mf75de1dd41" x="648.746662" y="418.130526" style="stroke: #000000; stroke-width: 0.8"/>
      </g>
     </g>
     <g id="text_16">
      <!-- AUC -->
      <g transform="translate(625.490256 441.847089) scale(0.22 -0.22)">
       <defs>
        <path id="DejaVuSans-41" d="M 2188 4044 
L 1331 1722 
L 3047 1722 
L 2188 4044 
z
M 1831 4666 
L 2547 4666 
L 4325 0 
L 3669 0 
L 3244 1197 
L 1141 1197 
L 716 0 
L 50 0 
L 1831 4666 
z
" transform="scale(0.015625)"/>
        <path id="DejaVuSans-55" d="M 556 4666 
L 1191 4666 
L 1191 1831 
Q 1191 1081 1462 751 
Q 1734 422 2344 422 
Q 2950 422 3222 751 
Q 3494 1081 3494 1831 
L 3494 4666 
L 4128 4666 
L 4128 1753 
Q 4128 841 3676 375 
Q 3225 -91 2344 -91 
Q 1459 -91 1007 375 
Q 556 841 556 1753 
L 556 4666 
z
" transform="scale(0.015625)"/>
        <path id="DejaVuSans-43" d="M 4122 4306 
L 4122 3641 
Q 3803 3938 3442 4084 
Q 3081 4231 2675 4231 
Q 1875 4231 1450 3742 
Q 1025 3253 1025 2328 
Q 1025 1406 1450 917 
Q 1875 428 2675 428 
Q 3081 428 3442 575 
Q 3803 722 4122 1019 
L 4122 359 
Q 3791 134 3420 21 
Q 3050 -91 2638 -91 
Q 1578 -91 968 557 
Q 359 1206 359 2328 
Q 359 3453 968 4101 
Q 1578 4750 2638 4750 
Q 3056 4750 3426 4639 
Q 3797 4528 4122 4306 
z
" transform="scale(0.015625)"/>
       </defs>
       <use xlink:href="#DejaVuSans-41"/>
       <use xlink:href="#DejaVuSans-55" x="68.408203"/>
       <use xlink:href="#DejaVuSans-43" x="141.601562"/>
      </g>
     </g>
    </g>
    <g id="xtick_8">
     <g id="line2d_17">
      <g>
       <use xlink:href="#mf75de1dd41" x="781.772727" y="418.130526" style="stroke: #000000; stroke-width: 0.8"/>
      </g>
     </g>
     <g id="text_17">
      <!-- $Q_{local}$ -->
      <g transform="translate(754.822727 441.847089) scale(0.22 -0.22)">
       <defs>
        <path id="DejaVuSans-Oblique-51" d="M 2309 -84 
Q 2275 -88 2237 -89 
Q 2200 -91 2125 -91 
Q 1250 -91 756 411 
Q 263 913 263 1797 
Q 263 2319 452 2844 
Q 641 3369 978 3788 
Q 1369 4269 1858 4509 
Q 2347 4750 2938 4750 
Q 3794 4750 4287 4245 
Q 4781 3741 4781 2869 
Q 4781 1928 4265 1147 
Q 3750 366 2919 44 
L 3553 -825 
L 2847 -825 
L 2309 -84 
z
M 2919 4238 
Q 2400 4238 2003 3986 
Q 1606 3734 1313 3219 
Q 1125 2891 1026 2522 
Q 928 2153 928 1778 
Q 928 1128 1239 775 
Q 1550 422 2119 422 
Q 2631 422 3032 676 
Q 3434 931 3719 1434 
Q 3909 1772 4009 2142 
Q 4109 2513 4109 2881 
Q 4109 3528 3796 3883 
Q 3484 4238 2919 4238 
z
" transform="scale(0.015625)"/>
        <path id="DejaVuSans-Oblique-6c" d="M 1172 4863 
L 1747 4863 
L 800 0 
L 225 0 
L 1172 4863 
z
" transform="scale(0.015625)"/>
        <path id="DejaVuSans-Oblique-6f" d="M 1625 -91 
Q 1009 -91 651 289 
Q 294 669 294 1325 
Q 294 1706 417 2101 
Q 541 2497 738 2766 
Q 1047 3184 1428 3384 
Q 1809 3584 2291 3584 
Q 2888 3584 3255 3212 
Q 3622 2841 3622 2241 
Q 3622 1825 3500 1412 
Q 3378 1000 3181 728 
Q 2875 309 2494 109 
Q 2113 -91 1625 -91 
z
M 891 1344 
Q 891 869 1089 633 
Q 1288 397 1691 397 
Q 2269 397 2648 901 
Q 3028 1406 3028 2181 
Q 3028 2634 2825 2865 
Q 2622 3097 2228 3097 
Q 1903 3097 1650 2945 
Q 1397 2794 1197 2484 
Q 1050 2253 970 1956 
Q 891 1659 891 1344 
z
" transform="scale(0.015625)"/>
        <path id="DejaVuSans-Oblique-63" d="M 3431 3366 
L 3316 2797 
Q 3109 2947 2876 3022 
Q 2644 3097 2394 3097 
Q 2119 3097 1870 3000 
Q 1622 2903 1453 2725 
Q 1184 2453 1037 2087 
Q 891 1722 891 1331 
Q 891 859 1127 628 
Q 1363 397 1844 397 
Q 2081 397 2348 469 
Q 2616 541 2906 684 
L 2797 116 
Q 2547 13 2283 -39 
Q 2019 -91 1741 -91 
Q 1044 -91 669 257 
Q 294 606 294 1253 
Q 294 1797 489 2255 
Q 684 2713 1069 3078 
Q 1331 3328 1684 3456 
Q 2038 3584 2456 3584 
Q 2700 3584 2940 3529 
Q 3181 3475 3431 3366 
z
" transform="scale(0.015625)"/>
        <path id="DejaVuSans-Oblique-61" d="M 3438 1997 
L 3047 0 
L 2472 0 
L 2578 531 
Q 2325 219 2001 64 
Q 1678 -91 1281 -91 
Q 834 -91 548 182 
Q 263 456 263 884 
Q 263 1497 752 1853 
Q 1241 2209 2100 2209 
L 2900 2209 
L 2931 2363 
Q 2938 2388 2941 2417 
Q 2944 2447 2944 2509 
Q 2944 2788 2717 2942 
Q 2491 3097 2081 3097 
Q 1800 3097 1504 3025 
Q 1209 2953 897 2809 
L 997 3341 
Q 1322 3463 1633 3523 
Q 1944 3584 2234 3584 
Q 2853 3584 3176 3315 
Q 3500 3047 3500 2534 
Q 3500 2431 3484 2292 
Q 3469 2153 3438 1997 
z
M 2816 1759 
L 2241 1759 
Q 1534 1759 1195 1570 
Q 856 1381 856 984 
Q 856 709 1029 553 
Q 1203 397 1509 397 
Q 1978 397 2328 733 
Q 2678 1069 2791 1631 
L 2816 1759 
z
" transform="scale(0.015625)"/>
       </defs>
       <use xlink:href="#DejaVuSans-Oblique-51" transform="translate(0 0.78125)"/>
       <use xlink:href="#DejaVuSans-Oblique-6c" transform="translate(78.710938 -15.625) scale(0.7)"/>
       <use xlink:href="#DejaVuSans-Oblique-6f" transform="translate(98.15918 -15.625) scale(0.7)"/>
       <use xlink:href="#DejaVuSans-Oblique-63" transform="translate(140.986328 -15.625) scale(0.7)"/>
       <use xlink:href="#DejaVuSans-Oblique-61" transform="translate(179.472656 -15.625) scale(0.7)"/>
       <use xlink:href="#DejaVuSans-Oblique-6c" transform="translate(222.368164 -15.625) scale(0.7)"/>
      </g>
     </g>
    </g>
    <g id="xtick_9">
     <g id="line2d_18">
      <g>
       <use xlink:href="#mf75de1dd41" x="914.798792" y="418.130526" style="stroke: #000000; stroke-width: 0.8"/>
      </g>
     </g>
     <g id="text_18">
      <!-- $Q_{global}$ -->
      <g transform="translate(882.348792 441.630526) scale(0.22 -0.22)">
       <defs>
        <path id="DejaVuSans-Oblique-67" d="M 3816 3500 
L 3219 434 
Q 3047 -456 2561 -893 
Q 2075 -1331 1253 -1331 
Q 950 -1331 690 -1286 
Q 431 -1241 206 -1147 
L 313 -588 
Q 525 -725 762 -790 
Q 1000 -856 1269 -856 
Q 1816 -856 2167 -557 
Q 2519 -259 2631 300 
L 2681 563 
Q 2441 288 2122 144 
Q 1803 0 1434 0 
Q 903 0 598 351 
Q 294 703 294 1319 
Q 294 1803 478 2267 
Q 663 2731 997 3091 
Q 1219 3328 1514 3456 
Q 1809 3584 2131 3584 
Q 2484 3584 2746 3420 
Q 3009 3256 3138 2956 
L 3238 3500 
L 3816 3500 
z
M 2950 2216 
Q 2950 2641 2750 2872 
Q 2550 3103 2181 3103 
Q 1953 3103 1747 3012 
Q 1541 2922 1394 2759 
Q 1156 2491 1023 2127 
Q 891 1763 891 1375 
Q 891 944 1092 712 
Q 1294 481 1672 481 
Q 2219 481 2584 976 
Q 2950 1472 2950 2216 
z
" transform="scale(0.015625)"/>
        <path id="DejaVuSans-Oblique-62" d="M 3169 2138 
Q 3169 2591 2961 2847 
Q 2753 3103 2388 3103 
Q 2122 3103 1889 2973 
Q 1656 2844 1484 2597 
Q 1303 2338 1198 1995 
Q 1094 1653 1094 1313 
Q 1094 881 1298 636 
Q 1503 391 1863 391 
Q 2134 391 2365 517 
Q 2597 644 2772 891 
Q 2950 1147 3059 1487 
Q 3169 1828 3169 2138 
z
M 1381 2969 
Q 1594 3256 1914 3420 
Q 2234 3584 2584 3584 
Q 3122 3584 3439 3221 
Q 3756 2859 3756 2241 
Q 3756 1734 3570 1259 
Q 3384 784 3041 416 
Q 2816 172 2522 40 
Q 2228 -91 1906 -91 
Q 1566 -91 1316 65 
Q 1066 222 909 531 
L 806 0 
L 231 0 
L 1178 4863 
L 1753 4863 
L 1381 2969 
z
" transform="scale(0.015625)"/>
       </defs>
       <use xlink:href="#DejaVuSans-Oblique-51" transform="translate(0 0.78125)"/>
       <use xlink:href="#DejaVuSans-Oblique-67" transform="translate(78.710938 -15.625) scale(0.7)"/>
       <use xlink:href="#DejaVuSans-Oblique-6c" transform="translate(123.144531 -15.625) scale(0.7)"/>
       <use xlink:href="#DejaVuSans-Oblique-6f" transform="translate(142.592773 -15.625) scale(0.7)"/>
       <use xlink:href="#DejaVuSans-Oblique-62" transform="translate(185.419922 -15.625) scale(0.7)"/>
       <use xlink:href="#DejaVuSans-Oblique-61" transform="translate(229.853516 -15.625) scale(0.7)"/>
       <use xlink:href="#DejaVuSans-Oblique-6c" transform="translate(272.749023 -15.625) scale(0.7)"/>
      </g>
     </g>
    </g>
   </g>
   <g id="matplotlib.axis_4">
    <g id="ytick_6">
     <g id="line2d_19">
      <g>
       <use xlink:href="#m3cfeb10d3c" x="591.545455" y="418.130526" style="stroke: #000000; stroke-width: 0.8"/>
      </g>
     </g>
     <g id="text_19">
      <!-- 0.0 -->
      <g transform="translate(549.55858 426.488808) scale(0.22 -0.22)">
       <use xlink:href="#DejaVuSans-30"/>
       <use xlink:href="#DejaVuSans-2e" x="63.623047"/>
       <use xlink:href="#DejaVuSans-30" x="95.410156"/>
      </g>
     </g>
    </g>
    <g id="ytick_7">
     <g id="line2d_20">
      <g>
       <use xlink:href="#m3cfeb10d3c" x="591.545455" y="363.924765" style="stroke: #000000; stroke-width: 0.8"/>
      </g>
     </g>
     <g id="text_20">
      <!-- 0.2 -->
      <g transform="translate(549.55858 372.283046) scale(0.22 -0.22)">
       <use xlink:href="#DejaVuSans-30"/>
       <use xlink:href="#DejaVuSans-2e" x="63.623047"/>
       <use xlink:href="#DejaVuSans-32" x="95.410156"/>
      </g>
     </g>
    </g>
    <g id="ytick_8">
     <g id="line2d_21">
      <g>
       <use xlink:href="#m3cfeb10d3c" x="591.545455" y="309.719004" style="stroke: #000000; stroke-width: 0.8"/>
      </g>
     </g>
     <g id="text_21">
      <!-- 0.4 -->
      <g transform="translate(549.55858 318.077285) scale(0.22 -0.22)">
       <use xlink:href="#DejaVuSans-30"/>
       <use xlink:href="#DejaVuSans-2e" x="63.623047"/>
       <use xlink:href="#DejaVuSans-34" x="95.410156"/>
      </g>
     </g>
    </g>
    <g id="ytick_9">
     <g id="line2d_22">
      <g>
       <use xlink:href="#m3cfeb10d3c" x="591.545455" y="255.513242" style="stroke: #000000; stroke-width: 0.8"/>
      </g>
     </g>
     <g id="text_22">
      <!-- 0.6 -->
      <g transform="translate(549.55858 263.871524) scale(0.22 -0.22)">
       <use xlink:href="#DejaVuSans-30"/>
       <use xlink:href="#DejaVuSans-2e" x="63.623047"/>
       <use xlink:href="#DejaVuSans-36" x="95.410156"/>
      </g>
     </g>
    </g>
    <g id="ytick_10">
     <g id="line2d_23">
      <g>
       <use xlink:href="#m3cfeb10d3c" x="591.545455" y="201.307481" style="stroke: #000000; stroke-width: 0.8"/>
      </g>
     </g>
     <g id="text_23">
      <!-- 0.8 -->
      <g transform="translate(549.55858 209.665762) scale(0.22 -0.22)">
       <use xlink:href="#DejaVuSans-30"/>
       <use xlink:href="#DejaVuSans-2e" x="63.623047"/>
       <use xlink:href="#DejaVuSans-38" x="95.410156"/>
      </g>
     </g>
    </g>
    <g id="text_24">
     <!-- Metric Value -->
     <g transform="translate(540.983267 354.727919) rotate(-90) scale(0.22 -0.22)">
      <defs>
       <path id="DejaVuSans-4d" d="M 628 4666 
L 1569 4666 
L 2759 1491 
L 3956 4666 
L 4897 4666 
L 4897 0 
L 4281 0 
L 4281 4097 
L 3078 897 
L 2444 897 
L 1241 4097 
L 1241 0 
L 628 0 
L 628 4666 
z
" transform="scale(0.015625)"/>
       <path id="DejaVuSans-65" d="M 3597 1894 
L 3597 1613 
L 953 1613 
Q 991 1019 1311 708 
Q 1631 397 2203 397 
Q 2534 397 2845 478 
Q 3156 559 3463 722 
L 3463 178 
Q 3153 47 2828 -22 
Q 2503 -91 2169 -91 
Q 1331 -91 842 396 
Q 353 884 353 1716 
Q 353 2575 817 3079 
Q 1281 3584 2069 3584 
Q 2775 3584 3186 3129 
Q 3597 2675 3597 1894 
z
M 3022 2063 
Q 3016 2534 2758 2815 
Q 2500 3097 2075 3097 
Q 1594 3097 1305 2825 
Q 1016 2553 972 2059 
L 3022 2063 
z
" transform="scale(0.015625)"/>
       <path id="DejaVuSans-74" d="M 1172 4494 
L 1172 3500 
L 2356 3500 
L 2356 3053 
L 1172 3053 
L 1172 1153 
Q 1172 725 1289 603 
Q 1406 481 1766 481 
L 2356 481 
L 2356 0 
L 1766 0 
Q 1100 0 847 248 
Q 594 497 594 1153 
L 594 3053 
L 172 3053 
L 172 3500 
L 594 3500 
L 594 4494 
L 1172 4494 
z
" transform="scale(0.015625)"/>
       <path id="DejaVuSans-72" d="M 2631 2963 
Q 2534 3019 2420 3045 
Q 2306 3072 2169 3072 
Q 1681 3072 1420 2755 
Q 1159 2438 1159 1844 
L 1159 0 
L 581 0 
L 581 3500 
L 1159 3500 
L 1159 2956 
Q 1341 3275 1631 3429 
Q 1922 3584 2338 3584 
Q 2397 3584 2469 3576 
Q 2541 3569 2628 3553 
L 2631 2963 
z
" transform="scale(0.015625)"/>
       <path id="DejaVuSans-69" d="M 603 3500 
L 1178 3500 
L 1178 0 
L 603 0 
L 603 3500 
z
M 603 4863 
L 1178 4863 
L 1178 4134 
L 603 4134 
L 603 4863 
z
" transform="scale(0.015625)"/>
       <path id="DejaVuSans-63" d="M 3122 3366 
L 3122 2828 
Q 2878 2963 2633 3030 
Q 2388 3097 2138 3097 
Q 1578 3097 1268 2742 
Q 959 2388 959 1747 
Q 959 1106 1268 751 
Q 1578 397 2138 397 
Q 2388 397 2633 464 
Q 2878 531 3122 666 
L 3122 134 
Q 2881 22 2623 -34 
Q 2366 -91 2075 -91 
Q 1284 -91 818 406 
Q 353 903 353 1747 
Q 353 2603 823 3093 
Q 1294 3584 2113 3584 
Q 2378 3584 2631 3529 
Q 2884 3475 3122 3366 
z
" transform="scale(0.015625)"/>
       <path id="DejaVuSans-20" transform="scale(0.015625)"/>
       <path id="DejaVuSans-56" d="M 1831 0 
L 50 4666 
L 709 4666 
L 2188 738 
L 3669 4666 
L 4325 4666 
L 2547 0 
L 1831 0 
z
" transform="scale(0.015625)"/>
       <path id="DejaVuSans-61" d="M 2194 1759 
Q 1497 1759 1228 1600 
Q 959 1441 959 1056 
Q 959 750 1161 570 
Q 1363 391 1709 391 
Q 2188 391 2477 730 
Q 2766 1069 2766 1631 
L 2766 1759 
L 2194 1759 
z
M 3341 1997 
L 3341 0 
L 2766 0 
L 2766 531 
Q 2569 213 2275 61 
Q 1981 -91 1556 -91 
Q 1019 -91 701 211 
Q 384 513 384 1019 
Q 384 1609 779 1909 
Q 1175 2209 1959 2209 
L 2766 2209 
L 2766 2266 
Q 2766 2663 2505 2880 
Q 2244 3097 1772 3097 
Q 1472 3097 1187 3025 
Q 903 2953 641 2809 
L 641 3341 
Q 956 3463 1253 3523 
Q 1550 3584 1831 3584 
Q 2591 3584 2966 3190 
Q 3341 2797 3341 1997 
z
" transform="scale(0.015625)"/>
       <path id="DejaVuSans-6c" d="M 603 4863 
L 1178 4863 
L 1178 0 
L 603 0 
L 603 4863 
z
" transform="scale(0.015625)"/>
       <path id="DejaVuSans-75" d="M 544 1381 
L 544 3500 
L 1119 3500 
L 1119 1403 
Q 1119 906 1312 657 
Q 1506 409 1894 409 
Q 2359 409 2629 706 
Q 2900 1003 2900 1516 
L 2900 3500 
L 3475 3500 
L 3475 0 
L 2900 0 
L 2900 538 
Q 2691 219 2414 64 
Q 2138 -91 1772 -91 
Q 1169 -91 856 284 
Q 544 659 544 1381 
z
M 1991 3584 
L 1991 3584 
z
" transform="scale(0.015625)"/>
      </defs>
      <use xlink:href="#DejaVuSans-4d"/>
      <use xlink:href="#DejaVuSans-65" x="86.279297"/>
      <use xlink:href="#DejaVuSans-74" x="147.802734"/>
      <use xlink:href="#DejaVuSans-72" x="187.011719"/>
      <use xlink:href="#DejaVuSans-69" x="228.125"/>
      <use xlink:href="#DejaVuSans-63" x="255.908203"/>
      <use xlink:href="#DejaVuSans-20" x="310.888672"/>
      <use xlink:href="#DejaVuSans-56" x="342.675781"/>
      <use xlink:href="#DejaVuSans-61" x="403.333984"/>
      <use xlink:href="#DejaVuSans-6c" x="464.613281"/>
      <use xlink:href="#DejaVuSans-75" x="492.396484"/>
      <use xlink:href="#DejaVuSans-65" x="555.775391"/>
     </g>
    </g>
   </g>
   <g id="patch_20">
    <path d="M 591.545455 418.130526 
L 591.545455 155.52 
" style="fill: none; stroke: #000000; stroke-width: 0.8; stroke-linejoin: miter; stroke-linecap: square"/>
   </g>
   <g id="patch_21">
    <path d="M 972 418.130526 
L 972 155.52 
" style="fill: none; stroke: #000000; stroke-width: 0.8; stroke-linejoin: miter; stroke-linecap: square"/>
   </g>
   <g id="patch_22">
    <path d="M 591.545455 418.130526 
L 972 418.130526 
" style="fill: none; stroke: #000000; stroke-width: 0.8; stroke-linejoin: miter; stroke-linecap: square"/>
   </g>
   <g id="patch_23">
    <path d="M 591.545455 155.52 
L 972 155.52 
" style="fill: none; stroke: #000000; stroke-width: 0.8; stroke-linejoin: miter; stroke-linecap: square"/>
   </g>
   <g id="text_25">
    <!-- b -->
    <g transform="translate(544.871761 137.404046) scale(0.28 -0.28)">
     <defs>
      <path id="DejaVuSans-Bold-62" d="M 2400 722 
Q 2759 722 2948 984 
Q 3138 1247 3138 1747 
Q 3138 2247 2948 2509 
Q 2759 2772 2400 2772 
Q 2041 2772 1848 2508 
Q 1656 2244 1656 1747 
Q 1656 1250 1848 986 
Q 2041 722 2400 722 
z
M 1656 2988 
Q 1888 3294 2169 3439 
Q 2450 3584 2816 3584 
Q 3463 3584 3878 3070 
Q 4294 2556 4294 1747 
Q 4294 938 3878 423 
Q 3463 -91 2816 -91 
Q 2450 -91 2169 54 
Q 1888 200 1656 506 
L 1656 0 
L 538 0 
L 538 4863 
L 1656 4863 
L 1656 2988 
z
" transform="scale(0.015625)"/>
     </defs>
     <use xlink:href="#DejaVuSans-Bold-62"/>
    </g>
   </g>
   <g id="text_26">
    <!-- Metrics -->
    <g transform="translate(734.584759 149.52) scale(0.26 -0.26)">
     <defs>
      <path id="DejaVuSans-73" d="M 2834 3397 
L 2834 2853 
Q 2591 2978 2328 3040 
Q 2066 3103 1784 3103 
Q 1356 3103 1142 2972 
Q 928 2841 928 2578 
Q 928 2378 1081 2264 
Q 1234 2150 1697 2047 
L 1894 2003 
Q 2506 1872 2764 1633 
Q 3022 1394 3022 966 
Q 3022 478 2636 193 
Q 2250 -91 1575 -91 
Q 1294 -91 989 -36 
Q 684 19 347 128 
L 347 722 
Q 666 556 975 473 
Q 1284 391 1588 391 
Q 1994 391 2212 530 
Q 2431 669 2431 922 
Q 2431 1156 2273 1281 
Q 2116 1406 1581 1522 
L 1381 1569 
Q 847 1681 609 1914 
Q 372 2147 372 2553 
Q 372 3047 722 3315 
Q 1072 3584 1716 3584 
Q 2034 3584 2315 3537 
Q 2597 3491 2834 3397 
z
" transform="scale(0.015625)"/>
     </defs>
     <use xlink:href="#DejaVuSans-4d"/>
     <use xlink:href="#DejaVuSans-65" x="86.279297"/>
     <use xlink:href="#DejaVuSans-74" x="147.802734"/>
     <use xlink:href="#DejaVuSans-72" x="187.011719"/>
     <use xlink:href="#DejaVuSans-69" x="228.125"/>
     <use xlink:href="#DejaVuSans-63" x="255.908203"/>
     <use xlink:href="#DejaVuSans-73" x="310.888672"/>
    </g>
   </g>
  </g>
  <g id="axes_3">
   <g id="patch_24">
    <path d="M 135 785.785263 
L 515.454545 785.785263 
L 515.454545 523.174737 
L 135 523.174737 
z
" style="fill: #ffffff"/>
   </g>
   <g id="matplotlib.axis_5">
    <g id="xtick_10">
     <g id="line2d_24">
      <g>
       <use xlink:href="#mf75de1dd41" x="137.882231" y="785.785263" style="stroke: #000000; stroke-width: 0.8"/>
      </g>
     </g>
     <g id="text_27">
      <!-- 0 -->
      <g transform="translate(130.883481 809.501826) scale(0.22 -0.22)">
       <use xlink:href="#DejaVuSans-30"/>
      </g>
     </g>
    </g>
    <g id="xtick_11">
     <g id="line2d_25">
      <g>
       <use xlink:href="#mf75de1dd41" x="281.993802" y="785.785263" style="stroke: #000000; stroke-width: 0.8"/>
      </g>
     </g>
     <g id="text_28">
      <!-- 20 -->
      <g transform="translate(267.996302 809.501826) scale(0.22 -0.22)">
       <use xlink:href="#DejaVuSans-32"/>
       <use xlink:href="#DejaVuSans-30" x="63.623047"/>
      </g>
     </g>
    </g>
    <g id="xtick_12">
     <g id="line2d_26">
      <g>
       <use xlink:href="#mf75de1dd41" x="426.105372" y="785.785263" style="stroke: #000000; stroke-width: 0.8"/>
      </g>
     </g>
     <g id="text_29">
      <!-- 40 -->
      <g transform="translate(412.107872 809.501826) scale(0.22 -0.22)">
       <use xlink:href="#DejaVuSans-34"/>
       <use xlink:href="#DejaVuSans-30" x="63.623047"/>
      </g>
     </g>
    </g>
    <g id="text_30">
     <!-- k -->
     <g transform="translate(318.278523 836.313388) scale(0.24 -0.24)">
      <use xlink:href="#DejaVuSans-6b"/>
     </g>
    </g>
   </g>
   <g id="matplotlib.axis_6">
    <g id="ytick_11">
     <g id="line2d_27">
      <g>
       <use xlink:href="#m3cfeb10d3c" x="135" y="736.856565" style="stroke: #000000; stroke-width: 0.8"/>
      </g>
     </g>
     <g id="text_31">
      <!-- 0.94 -->
      <g transform="translate(79.015625 745.214846) scale(0.22 -0.22)">
       <defs>
        <path id="DejaVuSans-39" d="M 703 97 
L 703 672 
Q 941 559 1184 500 
Q 1428 441 1663 441 
Q 2288 441 2617 861 
Q 2947 1281 2994 2138 
Q 2813 1869 2534 1725 
Q 2256 1581 1919 1581 
Q 1219 1581 811 2004 
Q 403 2428 403 3163 
Q 403 3881 828 4315 
Q 1253 4750 1959 4750 
Q 2769 4750 3195 4129 
Q 3622 3509 3622 2328 
Q 3622 1225 3098 567 
Q 2575 -91 1691 -91 
Q 1453 -91 1209 -44 
Q 966 3 703 97 
z
M 1959 2075 
Q 2384 2075 2632 2365 
Q 2881 2656 2881 3163 
Q 2881 3666 2632 3958 
Q 2384 4250 1959 4250 
Q 1534 4250 1286 3958 
Q 1038 3666 1038 3163 
Q 1038 2656 1286 2365 
Q 1534 2075 1959 2075 
z
" transform="scale(0.015625)"/>
       </defs>
       <use xlink:href="#DejaVuSans-30"/>
       <use xlink:href="#DejaVuSans-2e" x="63.623047"/>
       <use xlink:href="#DejaVuSans-39" x="95.410156"/>
       <use xlink:href="#DejaVuSans-34" x="159.033203"/>
      </g>
     </g>
    </g>
    <g id="ytick_12">
     <g id="line2d_28">
      <g>
       <use xlink:href="#m3cfeb10d3c" x="135" y="668.015879" style="stroke: #000000; stroke-width: 0.8"/>
      </g>
     </g>
     <g id="text_32">
      <!-- 0.96 -->
      <g transform="translate(79.015625 676.37416) scale(0.22 -0.22)">
       <use xlink:href="#DejaVuSans-30"/>
       <use xlink:href="#DejaVuSans-2e" x="63.623047"/>
       <use xlink:href="#DejaVuSans-39" x="95.410156"/>
       <use xlink:href="#DejaVuSans-36" x="159.033203"/>
      </g>
     </g>
    </g>
    <g id="ytick_13">
     <g id="line2d_29">
      <g>
       <use xlink:href="#m3cfeb10d3c" x="135" y="599.175193" style="stroke: #000000; stroke-width: 0.8"/>
      </g>
     </g>
     <g id="text_33">
      <!-- 0.98 -->
      <g transform="translate(79.015625 607.533474) scale(0.22 -0.22)">
       <use xlink:href="#DejaVuSans-30"/>
       <use xlink:href="#DejaVuSans-2e" x="63.623047"/>
       <use xlink:href="#DejaVuSans-39" x="95.410156"/>
       <use xlink:href="#DejaVuSans-38" x="159.033203"/>
      </g>
     </g>
    </g>
    <g id="ytick_14">
     <g id="line2d_30">
      <g>
       <use xlink:href="#m3cfeb10d3c" x="135" y="530.334507" style="stroke: #000000; stroke-width: 0.8"/>
      </g>
     </g>
     <g id="text_34">
      <!-- 1.00 -->
      <g transform="translate(79.015625 538.692788) scale(0.22 -0.22)">
       <use xlink:href="#DejaVuSans-31"/>
       <use xlink:href="#DejaVuSans-2e" x="63.623047"/>
       <use xlink:href="#DejaVuSans-30" x="95.410156"/>
       <use xlink:href="#DejaVuSans-30" x="159.033203"/>
      </g>
     </g>
    </g>
    <g id="text_35">
     <!-- Metric Value -->
     <g transform="translate(70.024375 728.555625) rotate(-90) scale(0.24 -0.24)">
      <use xlink:href="#DejaVuSans-4d"/>
      <use xlink:href="#DejaVuSans-65" x="86.279297"/>
      <use xlink:href="#DejaVuSans-74" x="147.802734"/>
      <use xlink:href="#DejaVuSans-72" x="187.011719"/>
      <use xlink:href="#DejaVuSans-69" x="228.125"/>
      <use xlink:href="#DejaVuSans-63" x="255.908203"/>
      <use xlink:href="#DejaVuSans-20" x="310.888672"/>
      <use xlink:href="#DejaVuSans-56" x="342.675781"/>
      <use xlink:href="#DejaVuSans-61" x="403.333984"/>
      <use xlink:href="#DejaVuSans-6c" x="464.613281"/>
      <use xlink:href="#DejaVuSans-75" x="492.396484"/>
      <use xlink:href="#DejaVuSans-65" x="555.775391"/>
     </g>
    </g>
   </g>
   <g id="line2d_31">
    <path d="M 152.293388 752.820346 
L 173.910124 762.860827 
L 209.938017 768.150587 
L 281.993802 773.848421 
L 498.161157 763.512056 
" clip-path="url(#pdd4124cf59)" style="fill: none; stroke: #1f77b4; stroke-width: 1.5; stroke-linecap: square"/>
    <g clip-path="url(#pdd4124cf59)">
     <use xlink:href="#mbc6050e036" x="152.293388" y="752.820346" style="fill: #1f77b4; stroke: #1f77b4"/>
     <use xlink:href="#mbc6050e036" x="173.910124" y="762.860827" style="fill: #1f77b4; stroke: #1f77b4"/>
     <use xlink:href="#mbc6050e036" x="209.938017" y="768.150587" style="fill: #1f77b4; stroke: #1f77b4"/>
     <use xlink:href="#mbc6050e036" x="281.993802" y="773.848421" style="fill: #1f77b4; stroke: #1f77b4"/>
     <use xlink:href="#mbc6050e036" x="498.161157" y="763.512056" style="fill: #1f77b4; stroke: #1f77b4"/>
    </g>
   </g>
   <g id="line2d_32">
    <path d="M 152.293388 535.111579 
L 173.910124 542.205284 
L 209.938017 555.453205 
L 281.993802 575.228843 
L 498.161157 615.424811 
" clip-path="url(#pdd4124cf59)" style="fill: none; stroke: #ff7f0e; stroke-width: 1.5; stroke-linecap: square"/>
    <g clip-path="url(#pdd4124cf59)">
     <use xlink:href="#mc74a493cc0" x="152.293388" y="535.111579" style="fill: #ff7f0e; stroke: #ff7f0e"/>
     <use xlink:href="#mc74a493cc0" x="173.910124" y="542.205284" style="fill: #ff7f0e; stroke: #ff7f0e"/>
     <use xlink:href="#mc74a493cc0" x="209.938017" y="555.453205" style="fill: #ff7f0e; stroke: #ff7f0e"/>
     <use xlink:href="#mc74a493cc0" x="281.993802" y="575.228843" style="fill: #ff7f0e; stroke: #ff7f0e"/>
     <use xlink:href="#mc74a493cc0" x="498.161157" y="615.424811" style="fill: #ff7f0e; stroke: #ff7f0e"/>
    </g>
   </g>
   <g id="line2d_33">
    <path d="M 152.293388 557.89025 
L 173.910124 564.110584 
L 209.938017 574.947901 
L 281.993802 596.946453 
L 498.161157 638.319947 
" clip-path="url(#pdd4124cf59)" style="fill: none; stroke: #2ca02c; stroke-width: 1.5; stroke-linecap: square"/>
    <g clip-path="url(#pdd4124cf59)">
     <use xlink:href="#m7494f2bf3a" x="152.293388" y="557.89025" style="fill: #2ca02c; stroke: #2ca02c"/>
     <use xlink:href="#m7494f2bf3a" x="173.910124" y="564.110584" style="fill: #2ca02c; stroke: #2ca02c"/>
     <use xlink:href="#m7494f2bf3a" x="209.938017" y="574.947901" style="fill: #2ca02c; stroke: #2ca02c"/>
     <use xlink:href="#m7494f2bf3a" x="281.993802" y="596.946453" style="fill: #2ca02c; stroke: #2ca02c"/>
     <use xlink:href="#m7494f2bf3a" x="498.161157" y="638.319947" style="fill: #2ca02c; stroke: #2ca02c"/>
    </g>
   </g>
   <g id="line2d_34">
    <path d="M 152.293388 610.236439 
L 173.910124 611.876326 
L 209.938017 619.210004 
L 281.993802 630.396989 
L 498.161157 675.886915 
" clip-path="url(#pdd4124cf59)" style="fill: none; stroke: #d62728; stroke-width: 1.5; stroke-linecap: square"/>
    <g clip-path="url(#pdd4124cf59)">
     <use xlink:href="#m4792c15279" x="152.293388" y="610.236439" style="fill: #d62728; stroke: #d62728"/>
     <use xlink:href="#m4792c15279" x="173.910124" y="611.876326" style="fill: #d62728; stroke: #d62728"/>
     <use xlink:href="#m4792c15279" x="209.938017" y="619.210004" style="fill: #d62728; stroke: #d62728"/>
     <use xlink:href="#m4792c15279" x="281.993802" y="630.396989" style="fill: #d62728; stroke: #d62728"/>
     <use xlink:href="#m4792c15279" x="498.161157" y="675.886915" style="fill: #d62728; stroke: #d62728"/>
    </g>
   </g>
   <g id="patch_25">
    <path d="M 135 785.785263 
L 135 523.174737 
" style="fill: none; stroke: #000000; stroke-width: 0.8; stroke-linejoin: miter; stroke-linecap: square"/>
   </g>
   <g id="patch_26">
    <path d="M 515.454545 785.785263 
L 515.454545 523.174737 
" style="fill: none; stroke: #000000; stroke-width: 0.8; stroke-linejoin: miter; stroke-linecap: square"/>
   </g>
   <g id="patch_27">
    <path d="M 135 785.785263 
L 515.454545 785.785263 
" style="fill: none; stroke: #000000; stroke-width: 0.8; stroke-linejoin: miter; stroke-linecap: square"/>
   </g>
   <g id="patch_28">
    <path d="M 135 523.174737 
L 515.454545 523.174737 
" style="fill: none; stroke: #000000; stroke-width: 0.8; stroke-linejoin: miter; stroke-linecap: square"/>
   </g>
   <g id="text_36">
    <!-- c -->
    <g transform="translate(91.769432 505.058783) scale(0.28 -0.28)">
     <defs>
      <path id="DejaVuSans-Bold-63" d="M 3366 3391 
L 3366 2478 
Q 3138 2634 2908 2709 
Q 2678 2784 2431 2784 
Q 1963 2784 1702 2511 
Q 1441 2238 1441 1747 
Q 1441 1256 1702 982 
Q 1963 709 2431 709 
Q 2694 709 2930 787 
Q 3166 866 3366 1019 
L 3366 103 
Q 3103 6 2833 -42 
Q 2563 -91 2291 -91 
Q 1344 -91 809 395 
Q 275 881 275 1747 
Q 275 2613 809 3098 
Q 1344 3584 2291 3584 
Q 2566 3584 2833 3536 
Q 3100 3488 3366 3391 
z
" transform="scale(0.015625)"/>
     </defs>
     <use xlink:href="#DejaVuSans-Bold-63"/>
    </g>
   </g>
   <g id="text_37">
    <!-- Trustworthiness -->
    <g transform="translate(230.950398 517.174737) scale(0.24 -0.24)">
     <defs>
      <path id="DejaVuSans-54" d="M -19 4666 
L 3928 4666 
L 3928 4134 
L 2272 4134 
L 2272 0 
L 1638 0 
L 1638 4134 
L -19 4134 
L -19 4666 
z
" transform="scale(0.015625)"/>
      <path id="DejaVuSans-77" d="M 269 3500 
L 844 3500 
L 1563 769 
L 2278 3500 
L 2956 3500 
L 3675 769 
L 4391 3500 
L 4966 3500 
L 4050 0 
L 3372 0 
L 2619 2869 
L 1863 0 
L 1184 0 
L 269 3500 
z
" transform="scale(0.015625)"/>
      <path id="DejaVuSans-6f" d="M 1959 3097 
Q 1497 3097 1228 2736 
Q 959 2375 959 1747 
Q 959 1119 1226 758 
Q 1494 397 1959 397 
Q 2419 397 2687 759 
Q 2956 1122 2956 1747 
Q 2956 2369 2687 2733 
Q 2419 3097 1959 3097 
z
M 1959 3584 
Q 2709 3584 3137 3096 
Q 3566 2609 3566 1747 
Q 3566 888 3137 398 
Q 2709 -91 1959 -91 
Q 1206 -91 779 398 
Q 353 888 353 1747 
Q 353 2609 779 3096 
Q 1206 3584 1959 3584 
z
" transform="scale(0.015625)"/>
      <path id="DejaVuSans-68" d="M 3513 2113 
L 3513 0 
L 2938 0 
L 2938 2094 
Q 2938 2591 2744 2837 
Q 2550 3084 2163 3084 
Q 1697 3084 1428 2787 
Q 1159 2491 1159 1978 
L 1159 0 
L 581 0 
L 581 4863 
L 1159 4863 
L 1159 2956 
Q 1366 3272 1645 3428 
Q 1925 3584 2291 3584 
Q 2894 3584 3203 3211 
Q 3513 2838 3513 2113 
z
" transform="scale(0.015625)"/>
      <path id="DejaVuSans-6e" d="M 3513 2113 
L 3513 0 
L 2938 0 
L 2938 2094 
Q 2938 2591 2744 2837 
Q 2550 3084 2163 3084 
Q 1697 3084 1428 2787 
Q 1159 2491 1159 1978 
L 1159 0 
L 581 0 
L 581 3500 
L 1159 3500 
L 1159 2956 
Q 1366 3272 1645 3428 
Q 1925 3584 2291 3584 
Q 2894 3584 3203 3211 
Q 3513 2838 3513 2113 
z
" transform="scale(0.015625)"/>
     </defs>
     <use xlink:href="#DejaVuSans-54"/>
     <use xlink:href="#DejaVuSans-72" x="46.333984"/>
     <use xlink:href="#DejaVuSans-75" x="87.447266"/>
     <use xlink:href="#DejaVuSans-73" x="150.826172"/>
     <use xlink:href="#DejaVuSans-74" x="202.925781"/>
     <use xlink:href="#DejaVuSans-77" x="242.134766"/>
     <use xlink:href="#DejaVuSans-6f" x="323.921875"/>
     <use xlink:href="#DejaVuSans-72" x="385.103516"/>
     <use xlink:href="#DejaVuSans-74" x="426.216797"/>
     <use xlink:href="#DejaVuSans-68" x="465.425781"/>
     <use xlink:href="#DejaVuSans-69" x="528.804688"/>
     <use xlink:href="#DejaVuSans-6e" x="556.587891"/>
     <use xlink:href="#DejaVuSans-65" x="619.966797"/>
     <use xlink:href="#DejaVuSans-73" x="681.490234"/>
     <use xlink:href="#DejaVuSans-73" x="733.589844"/>
    </g>
   </g>
  </g>
  <g id="axes_4">
   <g id="patch_29">
    <path d="M 591.545455 785.785263 
L 972 785.785263 
L 972 523.174737 
L 591.545455 523.174737 
z
" style="fill: #ffffff"/>
   </g>
   <g id="matplotlib.axis_7">
    <g id="xtick_13">
     <g id="line2d_35">
      <g>
       <use xlink:href="#mf75de1dd41" x="594.427686" y="785.785263" style="stroke: #000000; stroke-width: 0.8"/>
      </g>
     </g>
     <g id="text_38">
      <!-- 0 -->
      <g transform="translate(587.428936 809.501826) scale(0.22 -0.22)">
       <use xlink:href="#DejaVuSans-30"/>
      </g>
     </g>
    </g>
    <g id="xtick_14">
     <g id="line2d_36">
      <g>
       <use xlink:href="#mf75de1dd41" x="738.539256" y="785.785263" style="stroke: #000000; stroke-width: 0.8"/>
      </g>
     </g>
     <g id="text_39">
      <!-- 20 -->
      <g transform="translate(724.541756 809.501826) scale(0.22 -0.22)">
       <use xlink:href="#DejaVuSans-32"/>
       <use xlink:href="#DejaVuSans-30" x="63.623047"/>
      </g>
     </g>
    </g>
    <g id="xtick_15">
     <g id="line2d_37">
      <g>
       <use xlink:href="#mf75de1dd41" x="882.650826" y="785.785263" style="stroke: #000000; stroke-width: 0.8"/>
      </g>
     </g>
     <g id="text_40">
      <!-- 40 -->
      <g transform="translate(868.653326 809.501826) scale(0.22 -0.22)">
       <use xlink:href="#DejaVuSans-34"/>
       <use xlink:href="#DejaVuSans-30" x="63.623047"/>
      </g>
     </g>
    </g>
    <g id="text_41">
     <!-- k -->
     <g transform="translate(774.823977 836.313388) scale(0.24 -0.24)">
      <use xlink:href="#DejaVuSans-6b"/>
     </g>
    </g>
   </g>
   <g id="matplotlib.axis_8">
    <g id="ytick_15">
     <g id="line2d_38">
      <g>
       <use xlink:href="#m3cfeb10d3c" x="591.545455" y="700.525596" style="stroke: #000000; stroke-width: 0.8"/>
      </g>
     </g>
     <g id="text_42">
      <!-- 0.90 -->
      <g transform="translate(535.56108 708.883877) scale(0.22 -0.22)">
       <use xlink:href="#DejaVuSans-30"/>
       <use xlink:href="#DejaVuSans-2e" x="63.623047"/>
       <use xlink:href="#DejaVuSans-39" x="95.410156"/>
       <use xlink:href="#DejaVuSans-30" x="159.033203"/>
      </g>
     </g>
    </g>
    <g id="ytick_16">
     <g id="line2d_39">
      <g>
       <use xlink:href="#m3cfeb10d3c" x="591.545455" y="612.218161" style="stroke: #000000; stroke-width: 0.8"/>
      </g>
     </g>
     <g id="text_43">
      <!-- 0.95 -->
      <g transform="translate(535.56108 620.576442) scale(0.22 -0.22)">
       <use xlink:href="#DejaVuSans-30"/>
       <use xlink:href="#DejaVuSans-2e" x="63.623047"/>
       <use xlink:href="#DejaVuSans-39" x="95.410156"/>
       <use xlink:href="#DejaVuSans-35" x="159.033203"/>
      </g>
     </g>
    </g>
    <g id="ytick_17">
     <g id="line2d_40">
      <g>
       <use xlink:href="#m3cfeb10d3c" x="591.545455" y="523.910725" style="stroke: #000000; stroke-width: 0.8"/>
      </g>
     </g>
     <g id="text_44">
      <!-- 1.00 -->
      <g transform="translate(535.56108 532.269007) scale(0.22 -0.22)">
       <use xlink:href="#DejaVuSans-31"/>
       <use xlink:href="#DejaVuSans-2e" x="63.623047"/>
       <use xlink:href="#DejaVuSans-30" x="95.410156"/>
       <use xlink:href="#DejaVuSans-30" x="159.033203"/>
      </g>
     </g>
    </g>
   </g>
   <g id="line2d_41">
    <path d="M 608.838843 541.577363 
L 630.455579 548.82486 
L 666.483471 557.113675 
L 738.539256 566.791964 
L 954.706612 575.465121 
" clip-path="url(#pd38ef7d811)" style="fill: none; stroke: #1f77b4; stroke-width: 1.5; stroke-linecap: square"/>
    <g clip-path="url(#pd38ef7d811)">
     <use xlink:href="#mbc6050e036" x="608.838843" y="541.577363" style="fill: #1f77b4; stroke: #1f77b4"/>
     <use xlink:href="#mbc6050e036" x="630.455579" y="548.82486" style="fill: #1f77b4; stroke: #1f77b4"/>
     <use xlink:href="#mbc6050e036" x="666.483471" y="557.113675" style="fill: #1f77b4; stroke: #1f77b4"/>
     <use xlink:href="#mbc6050e036" x="738.539256" y="566.791964" style="fill: #1f77b4; stroke: #1f77b4"/>
     <use xlink:href="#mbc6050e036" x="954.706612" y="575.465121" style="fill: #1f77b4; stroke: #1f77b4"/>
    </g>
   </g>
   <g id="line2d_42">
    <path d="M 608.838843 535.111579 
L 630.455579 544.414474 
L 666.483471 555.464243 
L 738.539256 570.75943 
L 954.706612 590.279913 
" clip-path="url(#pd38ef7d811)" style="fill: none; stroke: #ff7f0e; stroke-width: 1.5; stroke-linecap: square"/>
    <g clip-path="url(#pd38ef7d811)">
     <use xlink:href="#mc74a493cc0" x="608.838843" y="535.111579" style="fill: #ff7f0e; stroke: #ff7f0e"/>
     <use xlink:href="#mc74a493cc0" x="630.455579" y="544.414474" style="fill: #ff7f0e; stroke: #ff7f0e"/>
     <use xlink:href="#mc74a493cc0" x="666.483471" y="555.464243" style="fill: #ff7f0e; stroke: #ff7f0e"/>
     <use xlink:href="#mc74a493cc0" x="738.539256" y="570.75943" style="fill: #ff7f0e; stroke: #ff7f0e"/>
     <use xlink:href="#mc74a493cc0" x="954.706612" y="590.279913" style="fill: #ff7f0e; stroke: #ff7f0e"/>
    </g>
   </g>
   <g id="line2d_43">
    <path d="M 608.838843 535.799267 
L 630.455579 542.862274 
L 666.483471 556.414672 
L 738.539256 577.537602 
L 954.706612 603.925317 
" clip-path="url(#pd38ef7d811)" style="fill: none; stroke: #2ca02c; stroke-width: 1.5; stroke-linecap: square"/>
    <g clip-path="url(#pd38ef7d811)">
     <use xlink:href="#m7494f2bf3a" x="608.838843" y="535.799267" style="fill: #2ca02c; stroke: #2ca02c"/>
     <use xlink:href="#m7494f2bf3a" x="630.455579" y="542.862274" style="fill: #2ca02c; stroke: #2ca02c"/>
     <use xlink:href="#m7494f2bf3a" x="666.483471" y="556.414672" style="fill: #2ca02c; stroke: #2ca02c"/>
     <use xlink:href="#m7494f2bf3a" x="738.539256" y="577.537602" style="fill: #2ca02c; stroke: #2ca02c"/>
     <use xlink:href="#m7494f2bf3a" x="954.706612" y="603.925317" style="fill: #2ca02c; stroke: #2ca02c"/>
    </g>
   </g>
   <g id="line2d_44">
    <path d="M 608.838843 602.640246 
L 630.455579 632.748482 
L 666.483471 662.781811 
L 738.539256 701.724605 
L 954.706612 773.848421 
" clip-path="url(#pd38ef7d811)" style="fill: none; stroke: #d62728; stroke-width: 1.5; stroke-linecap: square"/>
    <g clip-path="url(#pd38ef7d811)">
     <use xlink:href="#m4792c15279" x="608.838843" y="602.640246" style="fill: #d62728; stroke: #d62728"/>
     <use xlink:href="#m4792c15279" x="630.455579" y="632.748482" style="fill: #d62728; stroke: #d62728"/>
     <use xlink:href="#m4792c15279" x="666.483471" y="662.781811" style="fill: #d62728; stroke: #d62728"/>
     <use xlink:href="#m4792c15279" x="738.539256" y="701.724605" style="fill: #d62728; stroke: #d62728"/>
     <use xlink:href="#m4792c15279" x="954.706612" y="773.848421" style="fill: #d62728; stroke: #d62728"/>
    </g>
   </g>
   <g id="patch_30">
    <path d="M 591.545455 785.785263 
L 591.545455 523.174737 
" style="fill: none; stroke: #000000; stroke-width: 0.8; stroke-linejoin: miter; stroke-linecap: square"/>
   </g>
   <g id="patch_31">
    <path d="M 972 785.785263 
L 972 523.174737 
" style="fill: none; stroke: #000000; stroke-width: 0.8; stroke-linejoin: miter; stroke-linecap: square"/>
   </g>
   <g id="patch_32">
    <path d="M 591.545455 785.785263 
L 972 785.785263 
" style="fill: none; stroke: #000000; stroke-width: 0.8; stroke-linejoin: miter; stroke-linecap: square"/>
   </g>
   <g id="patch_33">
    <path d="M 591.545455 523.174737 
L 972 523.174737 
" style="fill: none; stroke: #000000; stroke-width: 0.8; stroke-linejoin: miter; stroke-linecap: square"/>
   </g>
   <g id="text_45">
    <!-- d -->
    <g transform="translate(544.871761 505.058783) scale(0.28 -0.28)">
     <defs>
      <path id="DejaVuSans-Bold-64" d="M 2919 2988 
L 2919 4863 
L 4044 4863 
L 4044 0 
L 2919 0 
L 2919 506 
Q 2688 197 2409 53 
Q 2131 -91 1766 -91 
Q 1119 -91 703 423 
Q 288 938 288 1747 
Q 288 2556 703 3070 
Q 1119 3584 1766 3584 
Q 2128 3584 2408 3439 
Q 2688 3294 2919 2988 
z
M 2181 722 
Q 2541 722 2730 984 
Q 2919 1247 2919 1747 
Q 2919 2247 2730 2509 
Q 2541 2772 2181 2772 
Q 1825 2772 1636 2509 
Q 1447 2247 1447 1747 
Q 1447 1247 1636 984 
Q 1825 722 2181 722 
z
" transform="scale(0.015625)"/>
     </defs>
     <use xlink:href="#DejaVuSans-Bold-64"/>
    </g>
   </g>
   <g id="text_46">
    <!-- Continuity -->
    <g transform="translate(720.057102 517.174737) scale(0.24 -0.24)">
     <defs>
      <path id="DejaVuSans-79" d="M 2059 -325 
Q 1816 -950 1584 -1140 
Q 1353 -1331 966 -1331 
L 506 -1331 
L 506 -850 
L 844 -850 
Q 1081 -850 1212 -737 
Q 1344 -625 1503 -206 
L 1606 56 
L 191 3500 
L 800 3500 
L 1894 763 
L 2988 3500 
L 3597 3500 
L 2059 -325 
z
" transform="scale(0.015625)"/>
     </defs>
     <use xlink:href="#DejaVuSans-43"/>
     <use xlink:href="#DejaVuSans-6f" x="69.824219"/>
     <use xlink:href="#DejaVuSans-6e" x="131.005859"/>
     <use xlink:href="#DejaVuSans-74" x="194.384766"/>
     <use xlink:href="#DejaVuSans-69" x="233.59375"/>
     <use xlink:href="#DejaVuSans-6e" x="261.376953"/>
     <use xlink:href="#DejaVuSans-75" x="324.755859"/>
     <use xlink:href="#DejaVuSans-69" x="388.134766"/>
     <use xlink:href="#DejaVuSans-74" x="415.917969"/>
     <use xlink:href="#DejaVuSans-79" x="455.126953"/>
    </g>
   </g>
  </g>
  <g id="axes_5">
   <g id="patch_34">
    <path d="M 135 1153.44 
L 515.454545 1153.44 
L 515.454545 890.829474 
L 135 890.829474 
z
" style="fill: #ffffff"/>
   </g>
   <g id="matplotlib.axis_9">
    <g id="xtick_16">
     <g id="line2d_45">
      <g>
       <use xlink:href="#mf75de1dd41" x="152.111353" y="1153.44" style="stroke: #000000; stroke-width: 0.8"/>
      </g>
     </g>
     <g id="text_47">
      <!-- 0 -->
      <g transform="translate(145.112603 1177.156562) scale(0.22 -0.22)">
       <use xlink:href="#DejaVuSans-30"/>
      </g>
     </g>
    </g>
    <g id="xtick_17">
     <g id="line2d_46">
      <g>
       <use xlink:href="#mf75de1dd41" x="243.129187" y="1153.44" style="stroke: #000000; stroke-width: 0.8"/>
      </g>
     </g>
     <g id="text_48">
      <!-- 500 -->
      <g transform="translate(222.132937 1177.156562) scale(0.22 -0.22)">
       <use xlink:href="#DejaVuSans-35"/>
       <use xlink:href="#DejaVuSans-30" x="63.623047"/>
       <use xlink:href="#DejaVuSans-30" x="127.246094"/>
      </g>
     </g>
    </g>
    <g id="xtick_18">
     <g id="line2d_47">
      <g>
       <use xlink:href="#mf75de1dd41" x="334.14702" y="1153.44" style="stroke: #000000; stroke-width: 0.8"/>
      </g>
     </g>
     <g id="text_49">
      <!-- 1000 -->
      <g transform="translate(306.15202 1177.156562) scale(0.22 -0.22)">
       <use xlink:href="#DejaVuSans-31"/>
       <use xlink:href="#DejaVuSans-30" x="63.623047"/>
       <use xlink:href="#DejaVuSans-30" x="127.246094"/>
       <use xlink:href="#DejaVuSans-30" x="190.869141"/>
      </g>
     </g>
    </g>
    <g id="xtick_19">
     <g id="line2d_48">
      <g>
       <use xlink:href="#mf75de1dd41" x="425.164854" y="1153.44" style="stroke: #000000; stroke-width: 0.8"/>
      </g>
     </g>
     <g id="text_50">
      <!-- 1500 -->
      <g transform="translate(397.169854 1177.156562) scale(0.22 -0.22)">
       <use xlink:href="#DejaVuSans-31"/>
       <use xlink:href="#DejaVuSans-35" x="63.623047"/>
       <use xlink:href="#DejaVuSans-30" x="127.246094"/>
       <use xlink:href="#DejaVuSans-30" x="190.869141"/>
      </g>
     </g>
    </g>
    <g id="text_51">
     <!-- k -->
     <g transform="translate(318.278523 1203.968125) scale(0.24 -0.24)">
      <use xlink:href="#DejaVuSans-6b"/>
     </g>
    </g>
   </g>
   <g id="matplotlib.axis_10">
    <g id="ytick_18">
     <g id="line2d_49">
      <g>
       <use xlink:href="#m3cfeb10d3c" x="135" y="1143.496587" style="stroke: #000000; stroke-width: 0.8"/>
      </g>
     </g>
     <g id="text_52">
      <!-- 0.2 -->
      <g transform="translate(93.013125 1151.854868) scale(0.22 -0.22)">
       <use xlink:href="#DejaVuSans-30"/>
       <use xlink:href="#DejaVuSans-2e" x="63.623047"/>
       <use xlink:href="#DejaVuSans-32" x="95.410156"/>
      </g>
     </g>
    </g>
    <g id="ytick_19">
     <g id="line2d_50">
      <g>
       <use xlink:href="#m3cfeb10d3c" x="135" y="1083.314019" style="stroke: #000000; stroke-width: 0.8"/>
      </g>
     </g>
     <g id="text_53">
      <!-- 0.4 -->
      <g transform="translate(93.013125 1091.6723) scale(0.22 -0.22)">
       <use xlink:href="#DejaVuSans-30"/>
       <use xlink:href="#DejaVuSans-2e" x="63.623047"/>
       <use xlink:href="#DejaVuSans-34" x="95.410156"/>
      </g>
     </g>
    </g>
    <g id="ytick_20">
     <g id="line2d_51">
      <g>
       <use xlink:href="#m3cfeb10d3c" x="135" y="1023.131451" style="stroke: #000000; stroke-width: 0.8"/>
      </g>
     </g>
     <g id="text_54">
      <!-- 0.6 -->
      <g transform="translate(93.013125 1031.489733) scale(0.22 -0.22)">
       <use xlink:href="#DejaVuSans-30"/>
       <use xlink:href="#DejaVuSans-2e" x="63.623047"/>
       <use xlink:href="#DejaVuSans-36" x="95.410156"/>
      </g>
     </g>
    </g>
    <g id="ytick_21">
     <g id="line2d_52">
      <g>
       <use xlink:href="#m3cfeb10d3c" x="135" y="962.948884" style="stroke: #000000; stroke-width: 0.8"/>
      </g>
     </g>
     <g id="text_55">
      <!-- 0.8 -->
      <g transform="translate(93.013125 971.307165) scale(0.22 -0.22)">
       <use xlink:href="#DejaVuSans-30"/>
       <use xlink:href="#DejaVuSans-2e" x="63.623047"/>
       <use xlink:href="#DejaVuSans-38" x="95.410156"/>
      </g>
     </g>
    </g>
    <g id="ytick_22">
     <g id="line2d_53">
      <g>
       <use xlink:href="#m3cfeb10d3c" x="135" y="902.766316" style="stroke: #000000; stroke-width: 0.8"/>
      </g>
     </g>
     <g id="text_56">
      <!-- 1.0 -->
      <g transform="translate(93.013125 911.124597) scale(0.22 -0.22)">
       <use xlink:href="#DejaVuSans-31"/>
       <use xlink:href="#DejaVuSans-2e" x="63.623047"/>
       <use xlink:href="#DejaVuSans-30" x="95.410156"/>
      </g>
     </g>
    </g>
    <g id="text_57">
     <!-- Metric Value -->
     <g transform="translate(84.021875 1096.210362) rotate(-90) scale(0.24 -0.24)">
      <use xlink:href="#DejaVuSans-4d"/>
      <use xlink:href="#DejaVuSans-65" x="86.279297"/>
      <use xlink:href="#DejaVuSans-74" x="147.802734"/>
      <use xlink:href="#DejaVuSans-72" x="187.011719"/>
      <use xlink:href="#DejaVuSans-69" x="228.125"/>
      <use xlink:href="#DejaVuSans-63" x="255.908203"/>
      <use xlink:href="#DejaVuSans-20" x="310.888672"/>
      <use xlink:href="#DejaVuSans-56" x="342.675781"/>
      <use xlink:href="#DejaVuSans-61" x="403.333984"/>
      <use xlink:href="#DejaVuSans-6c" x="464.613281"/>
      <use xlink:href="#DejaVuSans-75" x="492.396484"/>
      <use xlink:href="#DejaVuSans-65" x="555.775391"/>
     </g>
    </g>
   </g>
   <g id="line2d_54">
    <path d="M 152.293388 1141.503158 
L 152.839495 1126.15692 
L 153.021531 1122.771255 
L 153.203567 1122.307176 
L 156.84428 1100.563629 
L 157.208351 1097.464652 
L 157.754458 1094.0916 
L 159.210744 1086.008434 
L 161.0311 1078.771817 
L 162.30535 1074.241883 
L 163.033493 1071.561754 
L 169.586777 1050.210179 
L 172.317312 1042.950576 
L 174.50174 1038.118312 
L 177.778382 1031.228368 
L 181.055024 1025.556123 
L 185.241844 1019.195707 
L 186.516094 1017.333649 
L 187.426272 1016.025763 
L 194.889735 1006.296705 
L 200.714876 999.80332 
L 210.544802 989.750019 
L 224.92562 976.590028 
L 231.478904 971.03516 
L 232.753154 969.973204 
L 239.306438 964.931413 
L 240.944759 963.80146 
L 242.947151 962.395122 
L 248.772292 958.631248 
L 252.23097 956.484191 
L 262.424967 950.603545 
L 268.432144 947.329407 
L 274.07525 944.574248 
L 276.259678 943.533111 
L 279.172249 942.18792 
L 281.538712 941.135806 
L 284.451283 939.922497 
L 289.730318 937.800322 
L 293.735102 936.243915 
L 296.101566 935.382698 
L 300.106351 934.022545 
L 302.472814 933.22033 
L 311.392562 930.447585 
L 322.132666 927.7665 
L 329.050022 926.340868 
L 356.355372 921.652226 
L 358.175729 921.353036 
L 367.277512 920.092839 
L 377.653545 918.639022 
L 392.944541 916.407775 
L 401.864289 915.130114 
L 408.053502 914.324999 
L 424.800783 912.467737 
L 428.987603 911.803555 
L 438.271422 910.270659 
L 451.195955 908.204918 
L 459.569595 906.745792 
L 462.30013 906.626737 
L 465.030666 906.404286 
L 467.761201 906.122912 
L 469.217486 905.957553 
L 470.673771 905.840988 
L 473.222271 905.600349 
L 481.413876 904.276426 
L 483.780339 904.030943 
L 486.510874 903.762247 
L 488.877338 903.592935 
L 489.969552 903.412704 
L 490.697695 903.306692 
L 492.15398 903.169799 
L 495.430622 902.991214 
L 495.976729 903.002666 
L 496.704872 902.905218 
L 498.161157 902.766316 
L 498.161157 902.766316 
" clip-path="url(#p21465a359d)" style="fill: none; stroke: #1f77b4; stroke-width: 1.5; stroke-linecap: square"/>
   </g>
   <g id="line2d_55">
    <path d="M 152.293388 1004.969099 
L 152.65746 989.833806 
L 152.839495 988.831818 
L 153.931709 1004.826711 
L 154.659852 1012.902132 
L 155.387995 1017.942208 
L 156.480209 1023.294934 
L 156.84428 1024.477442 
L 157.208351 1025.293259 
L 157.390387 1025.279816 
L 158.482601 1026.883256 
L 158.664637 1026.582158 
L 159.028708 1026.964264 
L 159.392779 1027.094578 
L 159.756851 1027.464861 
L 159.938886 1027.427368 
L 160.484993 1027.895595 
L 161.213136 1027.931502 
L 161.577207 1027.866758 
L 162.30535 1027.923478 
L 162.669421 1027.813882 
L 163.215528 1027.662962 
L 163.5796 1027.520109 
L 163.761635 1027.486639 
L 164.125707 1027.207002 
L 164.307742 1027.141922 
L 164.671814 1027.189388 
L 165.399957 1027.27435 
L 165.764028 1027.179483 
L 166.128099 1027.169676 
L 167.220313 1027.141183 
L 167.76642 1027.074158 
L 168.312527 1026.693457 
L 168.676599 1026.664546 
L 169.04067 1026.539912 
L 169.586777 1026.220145 
L 170.678991 1025.433852 
L 171.225098 1024.947084 
L 172.499348 1023.88492 
L 173.773597 1023.218931 
L 174.50174 1022.640876 
L 175.411918 1022.121141 
L 176.504132 1021.205556 
L 178.506525 1019.995647 
L 179.052632 1019.749848 
L 179.780774 1019.152712 
L 180.326881 1018.693444 
L 182.511309 1017.404109 
L 183.785559 1016.479232 
L 186.152023 1014.970085 
L 186.880165 1014.491437 
L 187.244237 1014.307508 
L 188.154415 1013.622632 
L 190.338843 1011.986029 
L 191.431057 1011.049878 
L 192.341235 1010.397588 
L 193.797521 1009.490136 
L 197.62027 1006.703699 
L 200.350805 1004.542234 
L 202.899304 1002.696905 
L 205.447803 1000.944228 
L 207.26816 999.697044 
L 208.724445 998.806593 
L 210.544802 997.609686 
L 224.379513 988.99441 
L 226.017834 987.919195 
L 242.947151 976.652605 
L 252.595041 971.434312 
L 254.051327 970.780776 
L 256.41779 969.74683 
L 272.801 961.694621 
L 278.808177 959.107005 
L 282.266855 957.55762 
L 285.361462 956.264612 
L 286.453676 955.767712 
L 290.094389 954.23213 
L 295.91953 951.909725 
L 306.84167 948.094209 
L 311.210526 946.325644 
L 313.941061 945.255213 
L 320.494345 942.831757 
L 324.863201 941.775499 
L 330.142236 941.167015 
L 338.333841 940.639423 
L 340.700304 940.493885 
L 351.440409 939.233336 
L 361.816442 937.57002 
L 384.934972 933.349815 
L 395.128969 932.1251 
L 405.687038 930.510297 
L 418.975642 927.244948 
L 430.261853 924.810329 
L 432.810352 924.187274 
L 438.635494 922.935304 
L 442.094171 922.283681 
L 443.732492 921.905809 
L 446.463027 921.119692 
L 451.013919 919.562639 
L 454.654632 917.980714 
L 459.38756 915.89201 
L 460.843845 915.474406 
L 465.576773 914.170201 
L 467.761201 913.392389 
L 474.132449 911.379967 
L 479.229448 909.271271 
L 480.685733 908.750722 
L 482.50609 908.352606 
L 484.326446 907.904066 
L 492.336016 904.783836 
L 497.61505 903.180009 
L 498.161157 902.766316 
L 498.161157 902.766316 
" clip-path="url(#p21465a359d)" style="fill: none; stroke: #ff7f0e; stroke-width: 1.5; stroke-linecap: square"/>
   </g>
   <g id="line2d_56">
    <path d="M 152.293388 1115.082315 
L 152.65746 1059.551081 
L 153.021531 1041.483654 
L 153.385602 1032.791219 
L 153.749674 1030.563742 
L 153.931709 1028.795321 
L 154.477816 1029.893045 
L 154.841888 1030.461785 
L 155.205959 1032.320582 
L 155.57003 1034.012875 
L 155.934102 1035.224619 
L 156.298173 1036.542041 
L 157.208351 1039.656344 
L 157.936494 1040.902237 
L 158.300565 1041.077895 
L 158.482601 1041.320925 
L 159.210744 1041.263784 
L 159.392779 1041.123729 
L 159.574815 1041.171867 
L 159.756851 1041.10094 
L 160.120922 1040.623574 
L 160.849065 1040.03209 
L 161.0311 1040.097875 
L 161.577207 1039.546815 
L 161.759243 1039.580971 
L 161.941279 1039.482022 
L 162.30535 1039.108264 
L 162.851457 1038.833793 
L 163.215528 1038.688289 
L 164.125707 1037.773421 
L 165.217921 1037.065678 
L 168.130492 1033.230916 
L 168.858634 1032.223977 
L 169.950848 1030.952447 
L 171.043062 1029.778953 
L 171.589169 1029.142493 
L 171.953241 1028.800546 
L 172.499348 1028.258259 
L 173.045455 1027.952 
L 174.319704 1027.02105 
L 174.865811 1026.643683 
L 176.140061 1025.791514 
L 176.504132 1025.609424 
L 178.68856 1024.23046 
L 180.508917 1022.837548 
L 181.23706 1022.310744 
L 181.601131 1021.99606 
L 182.875381 1021.158805 
L 183.239452 1020.922267 
L 189.974772 1016.792913 
L 196.34602 1011.175696 
L 197.984341 1009.565939 
L 200.714876 1006.958854 
L 201.443019 1006.358533 
L 204.173554 1004.062442 
L 208.178338 1001.008746 
L 209.634624 1000.032589 
L 210.908873 999.327467 
L 212.72923 998.276826 
L 213.821444 997.630365 
L 214.731622 997.135472 
L 216.734015 995.984185 
L 218.918443 994.690279 
L 220.192692 994.089505 
L 225.835798 990.726024 
L 228.020226 989.391049 
L 230.750761 987.709342 
L 234.57351 985.207338 
L 235.119617 984.863764 
L 237.12201 983.661071 
L 238.214224 982.956691 
L 240.762723 981.43402 
L 242.036973 980.664216 
L 247.133971 977.915421 
L 256.41779 973.286507 
L 261.150718 971.281487 
L 265.701609 969.417031 
L 278.26207 963.486473 
L 286.453676 959.141329 
L 292.460853 956.943234 
L 297.739887 956.033584 
L 299.560244 955.763867 
L 305.203349 955.038752 
L 306.84167 954.631762 
L 307.933884 954.355456 
L 317.217703 952.109097 
L 318.309917 951.872684 
L 322.132666 951.648382 
L 323.042845 951.587414 
L 325.591344 951.08619 
L 327.229665 950.668176 
L 330.506307 949.993049 
L 332.508699 949.681005 
L 334.329056 949.342245 
L 336.69552 949.100697 
L 339.244019 948.828731 
L 343.794911 948.3271 
L 346.34341 948.040084 
L 352.532623 947.299678 
L 354.35298 947.063027 
L 355.627229 946.721149 
L 358.175729 946.082081 
L 361.998478 945.19148 
L 367.277512 944.228625 
L 369.826011 943.485596 
L 372.192475 942.674544 
L 376.015224 941.03943 
L 378.563723 940.155825 
L 382.022401 938.90603 
L 384.5709 937.992703 
L 386.391257 937.585985 
L 391.670291 936.655905 
L 393.126577 936.448028 
L 394.218791 936.256112 
L 403.50261 934.335184 
L 407.143323 933.43632 
L 418.61157 930.389718 
L 425.164854 928.906181 
L 433.538495 926.491882 
L 435.722923 925.938703 
L 440.091779 924.610609 
L 442.640278 923.69952 
L 453.92649 919.674316 
L 459.205524 917.039699 
L 464.84863 915.153647 
L 467.943236 914.160347 
L 470.855807 913.558657 
L 476.316877 912.327235 
L 481.23184 910.114967 
L 483.234232 909.406295 
L 484.872553 908.560664 
L 487.421053 907.541606 
L 490.151588 906.282347 
L 491.607873 905.615089 
L 492.700087 905.228316 
L 493.42823 905.053971 
L 493.974337 904.830947 
L 495.248586 904.056828 
L 495.794693 903.893133 
L 496.522836 903.801612 
L 497.61505 903.218019 
L 498.161157 902.766316 
L 498.161157 902.766316 
" clip-path="url(#p21465a359d)" style="fill: none; stroke: #2ca02c; stroke-width: 1.5; stroke-linecap: square"/>
   </g>
   <g id="line2d_57">
    <path d="M 152.293388 1107.013674 
L 152.65746 1080.012732 
L 153.203567 1063.928187 
L 153.567638 1059.293992 
L 153.931709 1057.605115 
L 154.295781 1054.593877 
L 154.659852 1053.279238 
L 155.205959 1050.253997 
L 155.387995 1050.137667 
L 155.752066 1049.362444 
L 155.934102 1049.327789 
L 157.390387 1046.970766 
L 157.572423 1047.020956 
L 157.754458 1046.930114 
L 157.936494 1047.037766 
L 158.11853 1046.947126 
L 158.482601 1047.156564 
L 158.664637 1047.144886 
L 160.302958 1048.212795 
L 160.667029 1048.644783 
L 162.123314 1049.230124 
L 162.30535 1049.502007 
L 162.669421 1049.493921 
L 163.033493 1049.639309 
L 163.5796 1049.897842 
L 164.853849 1050.630374 
L 165.399957 1051.029487 
L 166.674206 1051.771171 
L 167.220313 1052.059997 
L 167.402349 1052.081373 
L 168.858634 1053.282923 
L 169.586777 1053.743505 
L 170.496955 1054.273804 
L 170.861027 1054.52834 
L 172.681383 1055.32425 
L 173.591562 1056.018201 
L 174.319704 1056.37005 
L 174.865811 1056.690669 
L 177.050239 1057.824644 
L 178.324489 1058.345839 
L 179.780774 1058.931777 
L 180.326881 1059.173422 
L 181.601131 1059.540338 
L 182.693345 1059.70929 
L 183.967595 1060.01757 
L 184.695737 1060.240482 
L 185.42388 1060.399183 
L 186.334058 1060.550825 
L 188.518486 1060.785108 
L 189.6107 1060.928878 
L 192.523271 1061.066891 
L 193.797521 1061.126259 
L 195.435842 1061.066028 
L 200.168769 1060.605206 
L 202.535233 1060.069685 
L 209.998695 1058.136158 
L 214.549587 1056.634599 
L 224.743584 1052.859133 
L 226.928012 1051.974388 
L 231.478904 1050.042233 
L 234.209439 1048.861298 
L 236.575903 1047.890695 
L 237.668117 1047.446437 
L 240.762723 1046.145903 
L 242.401044 1045.380243 
L 243.857329 1044.723415 
L 245.677686 1043.907201 
L 252.23097 1040.867791 
L 279.354284 1027.744127 
L 296.101566 1019.07707 
L 298.650065 1017.736045 
L 302.836886 1015.597739 
L 311.756633 1011.162147 
L 316.489561 1008.792037 
L 320.494345 1006.87051 
L 324.49913 1004.997333 
L 334.14702 1000.455565 
L 336.877555 999.106183 
L 345.979339 994.765904 
L 352.168552 991.973533 
L 360.724228 988.360781 
L 363.818834 987.0971 
L 382.750544 980.1462 
L 388.029578 978.340485 
L 402.592431 973.222396 
L 411.330144 969.468813 
L 415.334928 967.57792 
L 419.339713 965.626985 
L 426.075033 962.293027 
L 433.720531 958.104263 
L 440.45585 953.894575 
L 446.645063 949.56234 
L 452.106133 945.364857 
L 456.110918 942.075574 
L 460.479774 938.175446 
L 467.761201 931.417865 
L 487.239017 912.573361 
L 494.702479 905.804224 
L 498.161157 902.766316 
L 498.161157 902.766316 
" clip-path="url(#p21465a359d)" style="fill: none; stroke: #d62728; stroke-width: 1.5; stroke-linecap: square"/>
   </g>
   <g id="patch_35">
    <path d="M 135 1153.44 
L 135 890.829474 
" style="fill: none; stroke: #000000; stroke-width: 0.8; stroke-linejoin: miter; stroke-linecap: square"/>
   </g>
   <g id="patch_36">
    <path d="M 515.454545 1153.44 
L 515.454545 890.829474 
" style="fill: none; stroke: #000000; stroke-width: 0.8; stroke-linejoin: miter; stroke-linecap: square"/>
   </g>
   <g id="patch_37">
    <path d="M 135 1153.44 
L 515.454545 1153.44 
" style="fill: none; stroke: #000000; stroke-width: 0.8; stroke-linejoin: miter; stroke-linecap: square"/>
   </g>
   <g id="patch_38">
    <path d="M 135 890.829474 
L 515.454545 890.829474 
" style="fill: none; stroke: #000000; stroke-width: 0.8; stroke-linejoin: miter; stroke-linecap: square"/>
   </g>
   <g id="text_58">
    <!-- e -->
    <g transform="translate(89.376307 872.71352) scale(0.28 -0.28)">
     <defs>
      <path id="DejaVuSans-Bold-65" d="M 4031 1759 
L 4031 1441 
L 1416 1441 
Q 1456 1047 1700 850 
Q 1944 653 2381 653 
Q 2734 653 3104 758 
Q 3475 863 3866 1075 
L 3866 213 
Q 3469 63 3072 -14 
Q 2675 -91 2278 -91 
Q 1328 -91 801 392 
Q 275 875 275 1747 
Q 275 2603 792 3093 
Q 1309 3584 2216 3584 
Q 3041 3584 3536 3087 
Q 4031 2591 4031 1759 
z
M 2881 2131 
Q 2881 2450 2695 2645 
Q 2509 2841 2209 2841 
Q 1884 2841 1681 2658 
Q 1478 2475 1428 2131 
L 2881 2131 
z
" transform="scale(0.015625)"/>
     </defs>
     <use xlink:href="#DejaVuSans-Bold-65"/>
    </g>
   </g>
   <g id="text_59">
    <!-- $Q_{NN}$ -->
    <g transform="translate(302.787273 884.829474) scale(0.24 -0.24)">
     <use xlink:href="#DejaVuSans-Oblique-51" transform="translate(0 0.78125)"/>
     <use xlink:href="#DejaVuSans-Oblique-4e" transform="translate(78.710938 -15.625) scale(0.7)"/>
     <use xlink:href="#DejaVuSans-Oblique-4e" transform="translate(131.074219 -15.625) scale(0.7)"/>
    </g>
   </g>
  </g>
  <g id="axes_6">
   <g id="patch_39">
    <path d="M 591.545455 1153.44 
L 972 1153.44 
L 972 890.829474 
L 591.545455 890.829474 
z
" style="fill: #ffffff"/>
   </g>
   <g id="matplotlib.axis_11">
    <g id="xtick_20">
     <g id="line2d_58">
      <g>
       <use xlink:href="#mf75de1dd41" x="608.656807" y="1153.44" style="stroke: #000000; stroke-width: 0.8"/>
      </g>
     </g>
     <g id="text_60">
      <!-- 0 -->
      <g transform="translate(601.658057 1177.156562) scale(0.22 -0.22)">
       <use xlink:href="#DejaVuSans-30"/>
      </g>
     </g>
    </g>
    <g id="xtick_21">
     <g id="line2d_59">
      <g>
       <use xlink:href="#mf75de1dd41" x="699.674641" y="1153.44" style="stroke: #000000; stroke-width: 0.8"/>
      </g>
     </g>
     <g id="text_61">
      <!-- 500 -->
      <g transform="translate(678.678391 1177.156562) scale(0.22 -0.22)">
       <use xlink:href="#DejaVuSans-35"/>
       <use xlink:href="#DejaVuSans-30" x="63.623047"/>
       <use xlink:href="#DejaVuSans-30" x="127.246094"/>
      </g>
     </g>
    </g>
    <g id="xtick_22">
     <g id="line2d_60">
      <g>
       <use xlink:href="#mf75de1dd41" x="790.692475" y="1153.44" style="stroke: #000000; stroke-width: 0.8"/>
      </g>
     </g>
     <g id="text_62">
      <!-- 1000 -->
      <g transform="translate(762.697475 1177.156562) scale(0.22 -0.22)">
       <use xlink:href="#DejaVuSans-31"/>
       <use xlink:href="#DejaVuSans-30" x="63.623047"/>
       <use xlink:href="#DejaVuSans-30" x="127.246094"/>
       <use xlink:href="#DejaVuSans-30" x="190.869141"/>
      </g>
     </g>
    </g>
    <g id="xtick_23">
     <g id="line2d_61">
      <g>
       <use xlink:href="#mf75de1dd41" x="881.710309" y="1153.44" style="stroke: #000000; stroke-width: 0.8"/>
      </g>
     </g>
     <g id="text_63">
      <!-- 1500 -->
      <g transform="translate(853.715309 1177.156562) scale(0.22 -0.22)">
       <use xlink:href="#DejaVuSans-31"/>
       <use xlink:href="#DejaVuSans-35" x="63.623047"/>
       <use xlink:href="#DejaVuSans-30" x="127.246094"/>
       <use xlink:href="#DejaVuSans-30" x="190.869141"/>
      </g>
     </g>
    </g>
    <g id="text_64">
     <!-- k -->
     <g transform="translate(774.823977 1203.968125) scale(0.24 -0.24)">
      <use xlink:href="#DejaVuSans-6b"/>
     </g>
    </g>
   </g>
   <g id="matplotlib.axis_12">
    <g id="ytick_23">
     <g id="line2d_62">
      <g>
       <use xlink:href="#m3cfeb10d3c" x="591.545455" y="1138.476695" style="stroke: #000000; stroke-width: 0.8"/>
      </g>
     </g>
     <g id="text_65">
      <!-- 0.0 -->
      <g transform="translate(549.55858 1146.834977) scale(0.22 -0.22)">
       <use xlink:href="#DejaVuSans-30"/>
       <use xlink:href="#DejaVuSans-2e" x="63.623047"/>
       <use xlink:href="#DejaVuSans-30" x="95.410156"/>
      </g>
     </g>
    </g>
    <g id="ytick_24">
     <g id="line2d_63">
      <g>
       <use xlink:href="#m3cfeb10d3c" x="591.545455" y="1072.254858" style="stroke: #000000; stroke-width: 0.8"/>
      </g>
     </g>
     <g id="text_66">
      <!-- 0.2 -->
      <g transform="translate(549.55858 1080.613139) scale(0.22 -0.22)">
       <use xlink:href="#DejaVuSans-30"/>
       <use xlink:href="#DejaVuSans-2e" x="63.623047"/>
       <use xlink:href="#DejaVuSans-32" x="95.410156"/>
      </g>
     </g>
    </g>
    <g id="ytick_25">
     <g id="line2d_64">
      <g>
       <use xlink:href="#m3cfeb10d3c" x="591.545455" y="1006.033021" style="stroke: #000000; stroke-width: 0.8"/>
      </g>
     </g>
     <g id="text_67">
      <!-- 0.4 -->
      <g transform="translate(549.55858 1014.391302) scale(0.22 -0.22)">
       <use xlink:href="#DejaVuSans-30"/>
       <use xlink:href="#DejaVuSans-2e" x="63.623047"/>
       <use xlink:href="#DejaVuSans-34" x="95.410156"/>
      </g>
     </g>
    </g>
    <g id="ytick_26">
     <g id="line2d_65">
      <g>
       <use xlink:href="#m3cfeb10d3c" x="591.545455" y="939.811183" style="stroke: #000000; stroke-width: 0.8"/>
      </g>
     </g>
     <g id="text_68">
      <!-- 0.6 -->
      <g transform="translate(549.55858 948.169465) scale(0.22 -0.22)">
       <use xlink:href="#DejaVuSans-30"/>
       <use xlink:href="#DejaVuSans-2e" x="63.623047"/>
       <use xlink:href="#DejaVuSans-36" x="95.410156"/>
      </g>
     </g>
    </g>
   </g>
   <g id="line2d_66">
    <path d="M 608.838843 1070.235567 
L 609.38495 1053.871875 
L 609.566986 1050.320638 
L 609.749021 1049.984166 
L 610.6592 1044.804284 
L 610.841235 1044.588088 
L 612.115485 1036.932054 
L 612.297521 1036.160217 
L 613.025663 1031.51107 
L 613.389735 1029.542199 
L 613.753806 1026.480595 
L 614.117877 1024.506159 
L 614.84602 1020.337708 
L 615.756198 1015.790694 
L 616.848412 1012.056605 
L 617.030448 1011.648817 
L 618.122662 1007.927941 
L 619.578947 1003.552005 
L 625.950196 986.668837 
L 627.04241 984.39509 
L 629.226838 980.311795 
L 630.137016 978.924079 
L 631.593301 976.936208 
L 633.595694 974.24219 
L 636.326229 971.263892 
L 640.695085 967.803708 
L 641.241192 967.501993 
L 641.787299 967.180581 
L 642.697477 966.637731 
L 643.243584 966.196008 
L 644.153763 965.690892 
L 644.69987 965.306882 
L 646.156155 964.553631 
L 647.61244 963.851059 
L 649.614833 962.971132 
L 650.16094 962.671981 
L 650.707047 962.489128 
L 652.709439 961.784856 
L 653.619617 961.504464 
L 654.711831 961.186637 
L 655.257938 961.104383 
L 656.168117 960.860787 
L 657.988473 960.529088 
L 659.444759 960.228858 
L 660.901044 960.007883 
L 662.721401 959.626249 
L 664.541757 959.359697 
L 665.633971 959.190284 
L 666.54415 959.049078 
L 669.638756 958.696538 
L 670.548934 958.636815 
L 671.459113 958.579846 
L 672.369291 958.572266 
L 674.371683 958.456457 
L 680.924967 958.258163 
L 684.565681 958.330073 
L 692.757286 958.840937 
L 693.667464 958.96577 
L 695.669856 959.158551 
L 698.03632 959.608986 
L 700.766855 960.182844 
L 706.774032 961.719902 
L 708.95846 962.329063 
L 709.868639 962.598068 
L 712.599174 963.374731 
L 714.601566 963.995677 
L 718.242279 965.279041 
L 720.790779 966.170555 
L 726.251849 968.220877 
L 727.89017 968.89282 
L 730.256633 969.903173 
L 733.533275 971.314369 
L 736.627882 972.735629 
L 738.994345 973.869278 
L 740.632666 974.695725 
L 755.741627 982.831452 
L 760.110483 985.403714 
L 770.30448 991.772619 
L 783.229013 1000.866024 
L 788.143976 1004.535682 
L 797.063723 1011.467241 
L 803.981079 1016.757979 
L 811.990648 1022.887905 
L 819.090039 1028.466124 
L 832.196607 1039.08058 
L 837.11157 1042.889678 
L 849.672031 1052.961132 
L 852.584602 1055.374036 
L 861.868421 1062.721274 
L 866.419313 1066.506021 
L 874.064811 1072.914235 
L 876.431274 1074.918279 
L 889.355807 1085.145438 
L 893.906699 1088.680646 
L 897.729448 1091.690821 
L 909.743802 1101.042591 
L 912.656372 1103.242784 
L 917.571335 1107.24863 
L 920.847977 1110.173784 
L 932.862331 1120.203327 
L 938.687473 1124.728905 
L 951.794041 1135.938118 
L 954.34254 1138.214514 
L 954.706612 1138.476695 
L 954.706612 1138.476695 
" clip-path="url(#pc1ae96d122)" style="fill: none; stroke: #1f77b4; stroke-width: 1.5; stroke-linecap: square"/>
   </g>
   <g id="line2d_67">
    <path d="M 608.838843 920.000431 
L 609.202914 903.694676 
L 609.38495 902.766316 
L 610.477164 921.411342 
L 611.205307 930.99383 
L 611.933449 937.236378 
L 613.207699 945.112612 
L 613.753806 947.066864 
L 613.935842 947.226248 
L 615.028056 950.03565 
L 615.210091 949.878513 
L 615.756198 950.870475 
L 615.938234 951.139059 
L 616.302305 951.894853 
L 616.484341 952.027773 
L 617.030448 953.065516 
L 617.758591 953.801731 
L 618.122662 954.078842 
L 619.03284 954.892753 
L 619.578947 955.33053 
L 621.035233 956.154752 
L 621.58134 956.64555 
L 621.945411 957.08469 
L 622.309482 957.328656 
L 623.037625 958.013138 
L 623.219661 958.119168 
L 623.583732 958.523037 
L 624.311875 959.128701 
L 624.857982 959.232326 
L 625.222053 959.548866 
L 625.404089 959.596014 
L 625.76816 959.850279 
L 626.496303 960.103873 
L 626.860374 960.120363 
L 627.224445 960.110613 
L 627.588517 960.18494 
L 627.952588 960.088953 
L 629.044802 960.14801 
L 630.319052 960.634424 
L 631.047194 960.695067 
L 631.957373 960.994058 
L 632.685515 960.950038 
L 633.231622 961.073491 
L 633.777729 961.211772 
L 635.962157 961.918595 
L 636.6903 961.914605 
L 637.418443 962.05958 
L 639.784906 962.706465 
L 640.513049 962.854144 
L 642.333406 963.32392 
L 645.974119 964.035379 
L 647.248369 964.110821 
L 648.704654 964.201612 
L 649.432797 964.462201 
L 650.707047 964.770316 
L 654.165724 965.279 
L 656.168117 965.439015 
L 658.352545 965.738846 
L 659.080687 965.818792 
L 660.719008 966.228987 
L 661.811222 966.421856 
L 663.085472 966.576468 
L 664.905829 967.104757 
L 665.998043 967.414501 
L 667.454328 967.729139 
L 668.728578 968.046825 
L 669.45672 968.255006 
L 680.924967 971.396518 
L 682.199217 971.68535 
L 684.019574 972.127435 
L 698.946498 975.420504 
L 706.227925 977.918636 
L 708.95846 979.004865 
L 710.414746 979.652354 
L 713.145281 980.946777 
L 714.601566 981.610242 
L 716.96803 982.588408 
L 717.878208 982.943399 
L 719.698565 983.635089 
L 720.790779 984.044763 
L 722.4291 984.686466 
L 726.433884 986.362199 
L 744.455415 994.953798 
L 748.096129 996.755726 
L 752.100913 998.843197 
L 758.472162 1002.594414 
L 760.474554 1003.738627 
L 777.403871 1012.795592 
L 779.224228 1014.009232 
L 781.408656 1015.584559 
L 786.869726 1020.124883 
L 789.054154 1022.033958 
L 793.787081 1026.179894 
L 797.60983 1029.633273 
L 814.721183 1043.55131 
L 825.643323 1051.780802 
L 836.747499 1060.034343 
L 841.298391 1063.638395 
L 849.489996 1070.394657 
L 854.040887 1074.071909 
L 857.499565 1076.910931 
L 863.324706 1081.281029 
L 884.440844 1096.070959 
L 886.625272 1097.636845 
L 897.001305 1105.075818 
L 900.277947 1107.4581 
L 903.008482 1109.205743 
L 907.559374 1111.846849 
L 911.200087 1113.589704 
L 915.933014 1115.819985 
L 917.3893 1116.753886 
L 922.122227 1119.847389 
L 924.306655 1121.081641 
L 930.859939 1125.059288 
L 937.595259 1128.577241 
L 940.689865 1130.796363 
L 947.061114 1134.056022 
L 947.607221 1134.361377 
L 947.971292 1134.587687 
L 949.063506 1135.240256 
L 950.519791 1136.10776 
L 952.522184 1137.46067 
L 953.250326 1138.007323 
L 953.796433 1138.261202 
L 954.524576 1138.476512 
L 954.706612 1138.476695 
L 954.706612 1138.476695 
" clip-path="url(#pc1ae96d122)" style="fill: none; stroke: #ff7f0e; stroke-width: 1.5; stroke-linecap: square"/>
   </g>
   <g id="line2d_68">
    <path d="M 608.838843 1041.163414 
L 609.202914 980.408021 
L 609.566986 960.875896 
L 609.931057 951.659535 
L 610.295128 949.556885 
L 610.477164 947.785181 
L 611.023271 949.51559 
L 611.387342 950.489755 
L 611.751414 952.883433 
L 612.297521 955.854924 
L 613.753806 962.871272 
L 614.663984 965.207367 
L 615.392127 966.296155 
L 615.574163 966.333267 
L 615.756198 966.555957 
L 615.938234 966.576024 
L 616.302305 966.8993 
L 616.484341 966.73591 
L 617.394519 966.76825 
L 617.576555 967.014813 
L 618.122662 966.930984 
L 618.486733 967.208041 
L 618.850805 967.14513 
L 619.214876 967.248649 
L 619.760983 967.553892 
L 620.489126 967.405551 
L 620.853197 967.484841 
L 621.217268 967.640281 
L 621.945411 967.603702 
L 622.855589 967.213462 
L 623.401696 967.017086 
L 623.765768 966.884977 
L 624.129839 966.736565 
L 624.675946 966.251637 
L 625.040017 966.011442 
L 626.496303 965.486289 
L 626.860374 965.407317 
L 627.04241 965.304371 
L 627.406481 965.303918 
L 628.134624 965.062294 
L 628.316659 965.106238 
L 628.862766 964.916527 
L 631.047194 965.331665 
L 632.321444 965.627804 
L 632.867551 965.854399 
L 633.777729 966.011717 
L 634.323836 966.223492 
L 634.869943 966.409529 
L 635.780122 966.520315 
L 636.508264 966.607621 
L 637.054371 966.659294 
L 637.782514 966.77633 
L 638.146585 966.778421 
L 639.420835 967.076382 
L 639.784906 967.16446 
L 645.428012 968.762566 
L 647.248369 969.050065 
L 649.432797 969.046692 
L 649.978904 969.127596 
L 654.893867 968.74334 
L 655.986081 968.692218 
L 657.806438 968.550865 
L 663.267508 968.833051 
L 666.362114 969.478223 
L 669.092649 970.393145 
L 671.459113 971.193169 
L 675.281862 972.370104 
L 680.014789 974.037591 
L 681.65311 974.458297 
L 682.563288 974.735718 
L 699.31057 979.371788 
L 701.677033 980.199716 
L 703.679426 980.977803 
L 705.681818 981.851193 
L 706.409961 982.174429 
L 709.504567 983.236922 
L 718.060244 987.28424 
L 718.970422 987.775662 
L 721.518921 989.058413 
L 723.521314 990.002395 
L 724.977599 990.692039 
L 727.344063 991.753859 
L 728.618312 992.354992 
L 734.079382 994.653569 
L 736.809917 995.55107 
L 738.81231 996.319073 
L 740.632666 997.001624 
L 743.727273 998.312108 
L 746.457808 999.783458 
L 749.552414 1001.678054 
L 751.008699 1002.820308 
L 763.569161 1012.591732 
L 773.581122 1019.51375 
L 775.583515 1021.033343 
L 781.044585 1025.862019 
L 782.136799 1026.526276 
L 783.957155 1027.761117 
L 788.508047 1031.200757 
L 794.333188 1035.880241 
L 801.432579 1041.843871 
L 810.716398 1049.484908 
L 812.536755 1050.696617 
L 819.090039 1055.282403 
L 820.546324 1056.474813 
L 823.094824 1058.364458 
L 825.279252 1059.805301 
L 827.281644 1061.052433 
L 829.102001 1062.030699 
L 834.745107 1064.955808 
L 837.293606 1066.449526 
L 842.754676 1069.714163 
L 847.669639 1073.416582 
L 849.672031 1075.038601 
L 850.946281 1076.007595 
L 861.868421 1083.933582 
L 865.873206 1086.52235 
L 873.882775 1091.804384 
L 879.889952 1096.177591 
L 883.530666 1098.579748 
L 896.273162 1106.745696 
L 899.73184 1108.662693 
L 901.00609 1109.410264 
L 906.46716 1112.598076 
L 911.746194 1115.229878 
L 913.566551 1115.8704 
L 914.658765 1116.349547 
L 916.661157 1117.428798 
L 918.299478 1118.410797 
L 922.122227 1120.638959 
L 923.760548 1121.600049 
L 926.309047 1123.410514 
L 931.770117 1127.418769 
L 933.590474 1128.411971 
L 935.956938 1129.32762 
L 936.867116 1129.87365 
L 937.595259 1130.241114 
L 939.23358 1131.238068 
L 940.143758 1131.625573 
L 941.600043 1132.222373 
L 943.602436 1133.25765 
L 944.876686 1133.897666 
L 946.150935 1134.439991 
L 947.061114 1134.826434 
L 947.789256 1135.151215 
L 949.063506 1135.839591 
L 950.519791 1136.742455 
L 951.794041 1137.109889 
L 952.340148 1137.452296 
L 953.068291 1138.048296 
L 954.160505 1138.451198 
L 954.706612 1138.476695 
L 954.706612 1138.476695 
" clip-path="url(#pc1ae96d122)" style="fill: none; stroke: #2ca02c; stroke-width: 1.5; stroke-linecap: square"/>
   </g>
   <g id="line2d_69">
    <path d="M 608.838843 1032.285092 
L 609.202914 1002.922981 
L 609.566986 988.450919 
L 610.113093 980.996015 
L 610.477164 979.486013 
L 610.841235 976.520952 
L 611.205307 975.422744 
L 611.751414 972.61645 
L 611.933449 972.662623 
L 612.297521 972.157961 
L 612.479556 972.294004 
L 613.207699 971.510823 
L 613.57177 971.138594 
L 613.753806 971.208688 
L 613.935842 971.093866 
L 614.481949 971.690119 
L 614.663984 971.764559 
L 615.028056 972.343367 
L 615.392127 972.807866 
L 616.12027 974.025563 
L 616.666377 974.805455 
L 617.394519 976.32115 
L 617.576555 976.504208 
L 617.940626 977.145767 
L 618.668769 978.108534 
L 618.850805 978.581876 
L 619.214876 978.921331 
L 619.760983 979.668478 
L 619.943019 979.82659 
L 620.30709 980.51697 
L 621.035233 981.540404 
L 621.945411 983.223634 
L 623.401696 985.568932 
L 623.765768 986.099319 
L 624.129839 986.655956 
L 626.496303 990.755223 
L 627.04241 991.670454 
L 627.406481 992.298885 
L 629.408873 995.268836 
L 633.595694 1001.847964 
L 635.41605 1004.416481 
L 635.962157 1005.139195 
L 637.600478 1007.502886 
L 638.328621 1008.278368 
L 638.692692 1008.649906 
L 641.787299 1012.441658 
L 642.697477 1013.527039 
L 646.520226 1017.639919 
L 650.16094 1021.328615 
L 653.255546 1024.180876 
L 657.078295 1027.284462 
L 662.721401 1031.197353 
L 663.99565 1032.084353 
L 667.090257 1034.043312 
L 668.000435 1034.62121 
L 670.184863 1035.902717 
L 671.459113 1036.627336 
L 672.551327 1037.254504 
L 686.568073 1044.632556 
L 690.572858 1046.585684 
L 700.220748 1051.28415 
L 702.041105 1052.108413 
L 704.953676 1053.433897 
L 707.138104 1054.438479 
L 708.412353 1054.987485 
L 710.414746 1055.822061 
L 723.885385 1061.716537 
L 728.982384 1063.811679 
L 730.074598 1064.287109 
L 765.753589 1078.390786 
L 768.120052 1079.33253 
L 770.30448 1080.171598 
L 775.401479 1082.315241 
L 777.767943 1083.360227 
L 779.770335 1084.22889 
L 784.867334 1086.528209 
L 788.872118 1088.260029 
L 792.14876 1089.638755 
L 799.248151 1092.644796 
L 803.0709 1094.339857 
L 805.801435 1095.586584 
L 811.444541 1098.269184 
L 815.631361 1100.345559 
L 820.910396 1103.01345 
L 835.655285 1111.147065 
L 857.863636 1123.890947 
L 861.140278 1125.586138 
L 866.783384 1128.279813 
L 877.523488 1132.900747 
L 887.53545 1136.839211 
L 894.816877 1138.995067 
L 898.639626 1139.888378 
L 904.282732 1140.815301 
L 912.656372 1141.495874 
L 916.11505 1141.424658 
L 926.127012 1140.705855 
L 941.964115 1138.942814 
L 947.971292 1138.604618 
L 954.160505 1138.477521 
L 954.706612 1138.476695 
L 954.706612 1138.476695 
" clip-path="url(#pc1ae96d122)" style="fill: none; stroke: #d62728; stroke-width: 1.5; stroke-linecap: square"/>
   </g>
   <g id="patch_40">
    <path d="M 591.545455 1153.44 
L 591.545455 890.829474 
" style="fill: none; stroke: #000000; stroke-width: 0.8; stroke-linejoin: miter; stroke-linecap: square"/>
   </g>
   <g id="patch_41">
    <path d="M 972 1153.44 
L 972 890.829474 
" style="fill: none; stroke: #000000; stroke-width: 0.8; stroke-linejoin: miter; stroke-linecap: square"/>
   </g>
   <g id="patch_42">
    <path d="M 591.545455 1153.44 
L 972 1153.44 
" style="fill: none; stroke: #000000; stroke-width: 0.8; stroke-linejoin: miter; stroke-linecap: square"/>
   </g>
   <g id="patch_43">
    <path d="M 591.545455 890.829474 
L 972 890.829474 
" style="fill: none; stroke: #000000; stroke-width: 0.8; stroke-linejoin: miter; stroke-linecap: square"/>
   </g>
   <g id="text_69">
    <!-- f -->
    <g transform="translate(552.733636 872.71352) scale(0.28 -0.28)">
     <defs>
      <path id="DejaVuSans-Bold-66" d="M 2841 4863 
L 2841 4128 
L 2222 4128 
Q 1984 4128 1890 4042 
Q 1797 3956 1797 3744 
L 1797 3500 
L 2753 3500 
L 2753 2700 
L 1797 2700 
L 1797 0 
L 678 0 
L 678 2700 
L 122 2700 
L 122 3500 
L 678 3500 
L 678 3744 
Q 678 4316 997 4589 
Q 1316 4863 1984 4863 
L 2841 4863 
z
" transform="scale(0.015625)"/>
     </defs>
     <use xlink:href="#DejaVuSans-Bold-66"/>
    </g>
   </g>
   <g id="text_70">
    <!-- LCMC -->
    <g transform="translate(747.973977 884.829474) scale(0.24 -0.24)">
     <defs>
      <path id="DejaVuSans-4c" d="M 628 4666 
L 1259 4666 
L 1259 531 
L 3531 531 
L 3531 0 
L 628 0 
L 628 4666 
z
" transform="scale(0.015625)"/>
     </defs>
     <use xlink:href="#DejaVuSans-4c"/>
     <use xlink:href="#DejaVuSans-43" x="55.712891"/>
     <use xlink:href="#DejaVuSans-4d" x="125.537109"/>
     <use xlink:href="#DejaVuSans-43" x="211.816406"/>
    </g>
   </g>
  </g>
 </g>
 <defs>
  <clipPath id="p1ea25a4732">
   <rect x="135" y="155.52" width="380.454545" height="262.610526"/>
  </clipPath>
  <clipPath id="p9c7a2149c1">
   <rect x="591.545455" y="155.52" width="380.454545" height="262.610526"/>
  </clipPath>
  <clipPath id="pdd4124cf59">
   <rect x="135" y="523.174737" width="380.454545" height="262.610526"/>
  </clipPath>
  <clipPath id="pd38ef7d811">
   <rect x="591.545455" y="523.174737" width="380.454545" height="262.610526"/>
  </clipPath>
  <clipPath id="p21465a359d">
   <rect x="135" y="890.829474" width="380.454545" height="262.610526"/>
  </clipPath>
  <clipPath id="pc1ae96d122">
   <rect x="591.545455" y="890.829474" width="380.454545" height="262.610526"/>
  </clipPath>
 </defs>
</svg>
