<?xml version="1.0" encoding="utf-8" standalone="no"?>
<!DOCTYPE svg PUBLIC "-//W3C//DTD SVG 1.1//EN"
  "http://www.w3.org/Graphics/SVG/1.1/DTD/svg11.dtd">
<svg xmlns:xlink="http://www.w3.org/1999/xlink" width="1080pt" height="1296pt" viewBox="0 0 1080 1296" xmlns="http://www.w3.org/2000/svg" version="1.1">
 <metadata>
  <rdf:RDF xmlns:dc="http://purl.org/dc/elements/1.1/" xmlns:cc="http://creativecommons.org/ns#" xmlns:rdf="http://www.w3.org/1999/02/22-rdf-syntax-ns#">
   <cc:Work>
    <dc:type rdf:resource="http://purl.org/dc/dcmitype/StillImage"/>
    <dc:date>2024-07-24T12:18:55.768117</dc:date>
    <dc:format>image/svg+xml</dc:format>
    <dc:creator>
     <cc:Agent>
      <dc:title>Matplotlib v3.8.4, https://matplotlib.org/</dc:title>
     </cc:Agent>
    </dc:creator>
   </cc:Work>
  </rdf:RDF>
 </metadata>
 <defs>
  <style type="text/css">*{stroke-linejoin: round; stroke-linecap: butt}</style>
 </defs>
 <g id="figure_1">
  <g id="patch_1">
   <path d="M 0 1296 
L 1080 1296 
L 1080 0 
L 0 0 
z
" style="fill: #ffffff"/>
  </g>
  <g id="axes_1">
   <g id="patch_2">
    <path d="M 135 418.130526 
L 515.454545 418.130526 
L 515.454545 155.52 
L 135 155.52 
z
" style="fill: #ffffff"/>
   </g>
   <g id="matplotlib.axis_1">
    <g id="xtick_1">
     <g id="line2d_1">
      <defs>
       <path id="m6b383f0f85" d="M 0 0 
L 0 3.5 
" style="stroke: #000000; stroke-width: 0.8"/>
      </defs>
      <g>
       <use xlink:href="#m6b383f0f85" x="137.882231" y="418.130526" style="stroke: #000000; stroke-width: 0.8"/>
      </g>
     </g>
     <g id="text_1">
      <!-- 0 -->
      <g transform="translate(131.519731 440.327401) scale(0.2 -0.2)">
       <defs>
        <path id="DejaVuSans-30" d="M 2034 4250 
Q 1547 4250 1301 3770 
Q 1056 3291 1056 2328 
Q 1056 1369 1301 889 
Q 1547 409 2034 409 
Q 2525 409 2770 889 
Q 3016 1369 3016 2328 
Q 3016 3291 2770 3770 
Q 2525 4250 2034 4250 
z
M 2034 4750 
Q 2819 4750 3233 4129 
Q 3647 3509 3647 2328 
Q 3647 1150 3233 529 
Q 2819 -91 2034 -91 
Q 1250 -91 836 529 
Q 422 1150 422 2328 
Q 422 3509 836 4129 
Q 1250 4750 2034 4750 
z
" transform="scale(0.015625)"/>
       </defs>
       <use xlink:href="#DejaVuSans-30"/>
      </g>
     </g>
    </g>
    <g id="xtick_2">
     <g id="line2d_2">
      <g>
       <use xlink:href="#m6b383f0f85" x="209.938017" y="418.130526" style="stroke: #000000; stroke-width: 0.8"/>
      </g>
     </g>
     <g id="text_2">
      <!-- 10 -->
      <g transform="translate(197.213017 440.327401) scale(0.2 -0.2)">
       <defs>
        <path id="DejaVuSans-31" d="M 794 531 
L 1825 531 
L 1825 4091 
L 703 3866 
L 703 4441 
L 1819 4666 
L 2450 4666 
L 2450 531 
L 3481 531 
L 3481 0 
L 794 0 
L 794 531 
z
" transform="scale(0.015625)"/>
       </defs>
       <use xlink:href="#DejaVuSans-31"/>
       <use xlink:href="#DejaVuSans-30" x="63.623047"/>
      </g>
     </g>
    </g>
    <g id="xtick_3">
     <g id="line2d_3">
      <g>
       <use xlink:href="#m6b383f0f85" x="281.993802" y="418.130526" style="stroke: #000000; stroke-width: 0.8"/>
      </g>
     </g>
     <g id="text_3">
      <!-- 20 -->
      <g transform="translate(269.268802 440.327401) scale(0.2 -0.2)">
       <defs>
        <path id="DejaVuSans-32" d="M 1228 531 
L 3431 531 
L 3431 0 
L 469 0 
L 469 531 
Q 828 903 1448 1529 
Q 2069 2156 2228 2338 
Q 2531 2678 2651 2914 
Q 2772 3150 2772 3378 
Q 2772 3750 2511 3984 
Q 2250 4219 1831 4219 
Q 1534 4219 1204 4116 
Q 875 4013 500 3803 
L 500 4441 
Q 881 4594 1212 4672 
Q 1544 4750 1819 4750 
Q 2544 4750 2975 4387 
Q 3406 4025 3406 3419 
Q 3406 3131 3298 2873 
Q 3191 2616 2906 2266 
Q 2828 2175 2409 1742 
Q 1991 1309 1228 531 
z
" transform="scale(0.015625)"/>
       </defs>
       <use xlink:href="#DejaVuSans-32"/>
       <use xlink:href="#DejaVuSans-30" x="63.623047"/>
      </g>
     </g>
    </g>
    <g id="xtick_4">
     <g id="line2d_4">
      <g>
       <use xlink:href="#m6b383f0f85" x="354.049587" y="418.130526" style="stroke: #000000; stroke-width: 0.8"/>
      </g>
     </g>
     <g id="text_4">
      <!-- 30 -->
      <g transform="translate(341.324587 440.327401) scale(0.2 -0.2)">
       <defs>
        <path id="DejaVuSans-33" d="M 2597 2516 
Q 3050 2419 3304 2112 
Q 3559 1806 3559 1356 
Q 3559 666 3084 287 
Q 2609 -91 1734 -91 
Q 1441 -91 1130 -33 
Q 819 25 488 141 
L 488 750 
Q 750 597 1062 519 
Q 1375 441 1716 441 
Q 2309 441 2620 675 
Q 2931 909 2931 1356 
Q 2931 1769 2642 2001 
Q 2353 2234 1838 2234 
L 1294 2234 
L 1294 2753 
L 1863 2753 
Q 2328 2753 2575 2939 
Q 2822 3125 2822 3475 
Q 2822 3834 2567 4026 
Q 2313 4219 1838 4219 
Q 1578 4219 1281 4162 
Q 984 4106 628 3988 
L 628 4550 
Q 988 4650 1302 4700 
Q 1616 4750 1894 4750 
Q 2613 4750 3031 4423 
Q 3450 4097 3450 3541 
Q 3450 3153 3228 2886 
Q 3006 2619 2597 2516 
z
" transform="scale(0.015625)"/>
       </defs>
       <use xlink:href="#DejaVuSans-33"/>
       <use xlink:href="#DejaVuSans-30" x="63.623047"/>
      </g>
     </g>
    </g>
    <g id="xtick_5">
     <g id="line2d_5">
      <g>
       <use xlink:href="#m6b383f0f85" x="426.105372" y="418.130526" style="stroke: #000000; stroke-width: 0.8"/>
      </g>
     </g>
     <g id="text_5">
      <!-- 40 -->
      <g transform="translate(413.380372 440.327401) scale(0.2 -0.2)">
       <defs>
        <path id="DejaVuSans-34" d="M 2419 4116 
L 825 1625 
L 2419 1625 
L 2419 4116 
z
M 2253 4666 
L 3047 4666 
L 3047 1625 
L 3713 1625 
L 3713 1100 
L 3047 1100 
L 3047 0 
L 2419 0 
L 2419 1100 
L 313 1100 
L 313 1709 
L 2253 4666 
z
" transform="scale(0.015625)"/>
       </defs>
       <use xlink:href="#DejaVuSans-34"/>
       <use xlink:href="#DejaVuSans-30" x="63.623047"/>
      </g>
     </g>
    </g>
    <g id="xtick_6">
     <g id="line2d_6">
      <g>
       <use xlink:href="#m6b383f0f85" x="498.161157" y="418.130526" style="stroke: #000000; stroke-width: 0.8"/>
      </g>
     </g>
     <g id="text_6">
      <!-- 50 -->
      <g transform="translate(485.436157 440.327401) scale(0.2 -0.2)">
       <defs>
        <path id="DejaVuSans-35" d="M 691 4666 
L 3169 4666 
L 3169 4134 
L 1269 4134 
L 1269 2991 
Q 1406 3038 1543 3061 
Q 1681 3084 1819 3084 
Q 2600 3084 3056 2656 
Q 3513 2228 3513 1497 
Q 3513 744 3044 326 
Q 2575 -91 1722 -91 
Q 1428 -91 1123 -41 
Q 819 9 494 109 
L 494 744 
Q 775 591 1075 516 
Q 1375 441 1709 441 
Q 2250 441 2565 725 
Q 2881 1009 2881 1497 
Q 2881 1984 2565 2268 
Q 2250 2553 1709 2553 
Q 1456 2553 1204 2497 
Q 953 2441 691 2322 
L 691 4666 
z
" transform="scale(0.015625)"/>
       </defs>
       <use xlink:href="#DejaVuSans-35"/>
       <use xlink:href="#DejaVuSans-30" x="63.623047"/>
      </g>
     </g>
    </g>
    <g id="text_7">
     <!-- k -->
     <g transform="translate(318.278523 466.723026) scale(0.24 -0.24)">
      <defs>
       <path id="DejaVuSans-6b" d="M 581 4863 
L 1159 4863 
L 1159 1991 
L 2875 3500 
L 3609 3500 
L 1753 1863 
L 3688 0 
L 2938 0 
L 1159 1709 
L 1159 0 
L 581 0 
L 581 4863 
z
" transform="scale(0.015625)"/>
      </defs>
      <use xlink:href="#DejaVuSans-6b"/>
     </g>
    </g>
   </g>
   <g id="matplotlib.axis_2">
    <g id="ytick_1">
     <g id="line2d_7">
      <defs>
       <path id="m98ce3073fe" d="M 0 0 
L -3.5 0 
" style="stroke: #000000; stroke-width: 0.8"/>
      </defs>
      <g>
       <use xlink:href="#m98ce3073fe" x="135" y="418.130526" style="stroke: #000000; stroke-width: 0.8"/>
      </g>
     </g>
     <g id="text_8">
      <!-- 0.0 -->
      <g transform="translate(96.19375 425.728964) scale(0.2 -0.2)">
       <defs>
        <path id="DejaVuSans-2e" d="M 684 794 
L 1344 794 
L 1344 0 
L 684 0 
L 684 794 
z
" transform="scale(0.015625)"/>
       </defs>
       <use xlink:href="#DejaVuSans-30"/>
       <use xlink:href="#DejaVuSans-2e" x="63.623047"/>
       <use xlink:href="#DejaVuSans-30" x="95.410156"/>
      </g>
     </g>
    </g>
    <g id="ytick_2">
     <g id="line2d_8">
      <g>
       <use xlink:href="#m98ce3073fe" x="135" y="352.477895" style="stroke: #000000; stroke-width: 0.8"/>
      </g>
     </g>
     <g id="text_9">
      <!-- 0.2 -->
      <g transform="translate(96.19375 360.076332) scale(0.2 -0.2)">
       <use xlink:href="#DejaVuSans-30"/>
       <use xlink:href="#DejaVuSans-2e" x="63.623047"/>
       <use xlink:href="#DejaVuSans-32" x="95.410156"/>
      </g>
     </g>
    </g>
    <g id="ytick_3">
     <g id="line2d_9">
      <g>
       <use xlink:href="#m98ce3073fe" x="135" y="286.825263" style="stroke: #000000; stroke-width: 0.8"/>
      </g>
     </g>
     <g id="text_10">
      <!-- 0.4 -->
      <g transform="translate(96.19375 294.423701) scale(0.2 -0.2)">
       <use xlink:href="#DejaVuSans-30"/>
       <use xlink:href="#DejaVuSans-2e" x="63.623047"/>
       <use xlink:href="#DejaVuSans-34" x="95.410156"/>
      </g>
     </g>
    </g>
    <g id="ytick_4">
     <g id="line2d_10">
      <g>
       <use xlink:href="#m98ce3073fe" x="135" y="221.172632" style="stroke: #000000; stroke-width: 0.8"/>
      </g>
     </g>
     <g id="text_11">
      <!-- 0.6 -->
      <g transform="translate(96.19375 228.771069) scale(0.2 -0.2)">
       <defs>
        <path id="DejaVuSans-36" d="M 2113 2584 
Q 1688 2584 1439 2293 
Q 1191 2003 1191 1497 
Q 1191 994 1439 701 
Q 1688 409 2113 409 
Q 2538 409 2786 701 
Q 3034 994 3034 1497 
Q 3034 2003 2786 2293 
Q 2538 2584 2113 2584 
z
M 3366 4563 
L 3366 3988 
Q 3128 4100 2886 4159 
Q 2644 4219 2406 4219 
Q 1781 4219 1451 3797 
Q 1122 3375 1075 2522 
Q 1259 2794 1537 2939 
Q 1816 3084 2150 3084 
Q 2853 3084 3261 2657 
Q 3669 2231 3669 1497 
Q 3669 778 3244 343 
Q 2819 -91 2113 -91 
Q 1303 -91 875 529 
Q 447 1150 447 2328 
Q 447 3434 972 4092 
Q 1497 4750 2381 4750 
Q 2619 4750 2861 4703 
Q 3103 4656 3366 4563 
z
" transform="scale(0.015625)"/>
       </defs>
       <use xlink:href="#DejaVuSans-30"/>
       <use xlink:href="#DejaVuSans-2e" x="63.623047"/>
       <use xlink:href="#DejaVuSans-36" x="95.410156"/>
      </g>
     </g>
    </g>
    <g id="ytick_5">
     <g id="line2d_11">
      <g>
       <use xlink:href="#m98ce3073fe" x="135" y="155.52" style="stroke: #000000; stroke-width: 0.8"/>
      </g>
     </g>
     <g id="text_12">
      <!-- 0.8 -->
      <g transform="translate(96.19375 163.118438) scale(0.2 -0.2)">
       <defs>
        <path id="DejaVuSans-38" d="M 2034 2216 
Q 1584 2216 1326 1975 
Q 1069 1734 1069 1313 
Q 1069 891 1326 650 
Q 1584 409 2034 409 
Q 2484 409 2743 651 
Q 3003 894 3003 1313 
Q 3003 1734 2745 1975 
Q 2488 2216 2034 2216 
z
M 1403 2484 
Q 997 2584 770 2862 
Q 544 3141 544 3541 
Q 544 4100 942 4425 
Q 1341 4750 2034 4750 
Q 2731 4750 3128 4425 
Q 3525 4100 3525 3541 
Q 3525 3141 3298 2862 
Q 3072 2584 2669 2484 
Q 3125 2378 3379 2068 
Q 3634 1759 3634 1313 
Q 3634 634 3220 271 
Q 2806 -91 2034 -91 
Q 1263 -91 848 271 
Q 434 634 434 1313 
Q 434 1759 690 2068 
Q 947 2378 1403 2484 
z
M 1172 3481 
Q 1172 3119 1398 2916 
Q 1625 2713 2034 2713 
Q 2441 2713 2670 2916 
Q 2900 3119 2900 3481 
Q 2900 3844 2670 4047 
Q 2441 4250 2034 4250 
Q 1625 4250 1398 4047 
Q 1172 3844 1172 3481 
z
" transform="scale(0.015625)"/>
       </defs>
       <use xlink:href="#DejaVuSans-30"/>
       <use xlink:href="#DejaVuSans-2e" x="63.623047"/>
       <use xlink:href="#DejaVuSans-38" x="95.410156"/>
      </g>
     </g>
    </g>
    <g id="text_13">
     <!-- $P_{NN}$ -->
     <g transform="translate(87.2025 306.985263) rotate(-90) scale(0.24 -0.24)">
      <defs>
       <path id="DejaVuSans-Oblique-50" d="M 1081 4666 
L 2541 4666 
Q 3178 4666 3512 4369 
Q 3847 4072 3847 3500 
Q 3847 2731 3353 2303 
Q 2859 1875 1966 1875 
L 1172 1875 
L 806 0 
L 172 0 
L 1081 4666 
z
M 1613 4147 
L 1275 2394 
L 2069 2394 
Q 2606 2394 2893 2669 
Q 3181 2944 3181 3456 
Q 3181 3784 2986 3965 
Q 2791 4147 2438 4147 
L 1613 4147 
z
" transform="scale(0.015625)"/>
       <path id="DejaVuSans-Oblique-4e" d="M 1081 4666 
L 1931 4666 
L 3219 666 
L 4000 4666 
L 4616 4666 
L 3706 0 
L 2853 0 
L 1569 4025 
L 788 0 
L 172 0 
L 1081 4666 
z
" transform="scale(0.015625)"/>
      </defs>
      <use xlink:href="#DejaVuSans-Oblique-50" transform="translate(0 0.09375)"/>
      <use xlink:href="#DejaVuSans-Oblique-4e" transform="translate(60.302734 -16.3125) scale(0.7)"/>
      <use xlink:href="#DejaVuSans-Oblique-4e" transform="translate(112.666016 -16.3125) scale(0.7)"/>
     </g>
    </g>
   </g>
   <g id="line2d_12">
    <path d="M 152.293388 396.19251 
L 173.910124 386.023249 
L 209.938017 373.872963 
L 281.993802 357.327737 
L 498.161157 334.892264 
" clip-path="url(#pab9528c0e5)" style="fill: none; stroke: #1f77b4; stroke-width: 1.5; stroke-linecap: square"/>
    <defs>
     <path id="mb4cb12028a" d="M 0 3 
C 0.795609 3 1.55874 2.683901 2.12132 2.12132 
C 2.683901 1.55874 3 0.795609 3 0 
C 3 -0.795609 2.683901 -1.55874 2.12132 -2.12132 
C 1.55874 -2.683901 0.795609 -3 0 -3 
C -0.795609 -3 -1.55874 -2.683901 -2.12132 -2.12132 
C -2.683901 -1.55874 -3 -0.795609 -3 0 
C -3 0.795609 -2.683901 1.55874 -2.12132 2.12132 
C -1.55874 2.683901 -0.795609 3 0 3 
z
" style="stroke: #1f77b4"/>
    </defs>
    <g clip-path="url(#pab9528c0e5)">
     <use xlink:href="#mb4cb12028a" x="152.293388" y="396.19251" style="fill: #1f77b4; stroke: #1f77b4"/>
     <use xlink:href="#mb4cb12028a" x="173.910124" y="386.023249" style="fill: #1f77b4; stroke: #1f77b4"/>
     <use xlink:href="#mb4cb12028a" x="209.938017" y="373.872963" style="fill: #1f77b4; stroke: #1f77b4"/>
     <use xlink:href="#mb4cb12028a" x="281.993802" y="357.327737" style="fill: #1f77b4; stroke: #1f77b4"/>
     <use xlink:href="#mb4cb12028a" x="498.161157" y="334.892264" style="fill: #1f77b4; stroke: #1f77b4"/>
    </g>
   </g>
   <g id="line2d_13">
    <path d="M 152.293388 305.87245 
L 173.910124 275.203251 
L 209.938017 261.409448 
L 281.993802 256.765045 
L 498.161157 281.298937 
" clip-path="url(#pab9528c0e5)" style="fill: none; stroke: #ff7f0e; stroke-width: 1.5; stroke-linecap: square"/>
    <defs>
     <path id="mb492a7fb61" d="M 0 3 
C 0.795609 3 1.55874 2.683901 2.12132 2.12132 
C 2.683901 1.55874 3 0.795609 3 0 
C 3 -0.795609 2.683901 -1.55874 2.12132 -2.12132 
C 1.55874 -2.683901 0.795609 -3 0 -3 
C -0.795609 -3 -1.55874 -2.683901 -2.12132 -2.12132 
C -2.683901 -1.55874 -3 -0.795609 -3 0 
C -3 0.795609 -2.683901 1.55874 -2.12132 2.12132 
C -1.55874 2.683901 -0.795609 3 0 3 
z
" style="stroke: #ff7f0e"/>
    </defs>
    <g clip-path="url(#pab9528c0e5)">
     <use xlink:href="#mb492a7fb61" x="152.293388" y="305.87245" style="fill: #ff7f0e; stroke: #ff7f0e"/>
     <use xlink:href="#mb492a7fb61" x="173.910124" y="275.203251" style="fill: #ff7f0e; stroke: #ff7f0e"/>
     <use xlink:href="#mb492a7fb61" x="209.938017" y="261.409448" style="fill: #ff7f0e; stroke: #ff7f0e"/>
     <use xlink:href="#mb492a7fb61" x="281.993802" y="256.765045" style="fill: #ff7f0e; stroke: #ff7f0e"/>
     <use xlink:href="#mb492a7fb61" x="498.161157" y="281.298937" style="fill: #ff7f0e; stroke: #ff7f0e"/>
    </g>
   </g>
   <g id="line2d_14">
    <path d="M 152.293388 346.300032 
L 173.910124 305.109389 
L 209.938017 275.951638 
L 281.993802 261.724944 
L 498.161157 283.186047 
" clip-path="url(#pab9528c0e5)" style="fill: none; stroke: #2ca02c; stroke-width: 1.5; stroke-linecap: square"/>
    <defs>
     <path id="m074b3194d4" d="M 0 3 
C 0.795609 3 1.55874 2.683901 2.12132 2.12132 
C 2.683901 1.55874 3 0.795609 3 0 
C 3 -0.795609 2.683901 -1.55874 2.12132 -2.12132 
C 1.55874 -2.683901 0.795609 -3 0 -3 
C -0.795609 -3 -1.55874 -2.683901 -2.12132 -2.12132 
C -2.683901 -1.55874 -3 -0.795609 -3 0 
C -3 0.795609 -2.683901 1.55874 -2.12132 2.12132 
C -1.55874 2.683901 -0.795609 3 0 3 
z
" style="stroke: #2ca02c"/>
    </defs>
    <g clip-path="url(#pab9528c0e5)">
     <use xlink:href="#m074b3194d4" x="152.293388" y="346.300032" style="fill: #2ca02c; stroke: #2ca02c"/>
     <use xlink:href="#m074b3194d4" x="173.910124" y="305.109389" style="fill: #2ca02c; stroke: #2ca02c"/>
     <use xlink:href="#m074b3194d4" x="209.938017" y="275.951638" style="fill: #2ca02c; stroke: #2ca02c"/>
     <use xlink:href="#m074b3194d4" x="281.993802" y="261.724944" style="fill: #2ca02c; stroke: #2ca02c"/>
     <use xlink:href="#m074b3194d4" x="498.161157" y="283.186047" style="fill: #2ca02c; stroke: #2ca02c"/>
    </g>
   </g>
   <g id="line2d_15">
    <path d="M 152.293388 338.375933 
L 173.910124 302.086492 
L 209.938017 270.75695 
L 281.993802 249.383893 
L 498.161157 263.173294 
" clip-path="url(#pab9528c0e5)" style="fill: none; stroke: #d62728; stroke-width: 1.5; stroke-linecap: square"/>
    <defs>
     <path id="mc259e4dd5b" d="M 0 3 
C 0.795609 3 1.55874 2.683901 2.12132 2.12132 
C 2.683901 1.55874 3 0.795609 3 0 
C 3 -0.795609 2.683901 -1.55874 2.12132 -2.12132 
C 1.55874 -2.683901 0.795609 -3 0 -3 
C -0.795609 -3 -1.55874 -2.683901 -2.12132 -2.12132 
C -2.683901 -1.55874 -3 -0.795609 -3 0 
C -3 0.795609 -2.683901 1.55874 -2.12132 2.12132 
C -1.55874 2.683901 -0.795609 3 0 3 
z
" style="stroke: #d62728"/>
    </defs>
    <g clip-path="url(#pab9528c0e5)">
     <use xlink:href="#mc259e4dd5b" x="152.293388" y="338.375933" style="fill: #d62728; stroke: #d62728"/>
     <use xlink:href="#mc259e4dd5b" x="173.910124" y="302.086492" style="fill: #d62728; stroke: #d62728"/>
     <use xlink:href="#mc259e4dd5b" x="209.938017" y="270.75695" style="fill: #d62728; stroke: #d62728"/>
     <use xlink:href="#mc259e4dd5b" x="281.993802" y="249.383893" style="fill: #d62728; stroke: #d62728"/>
     <use xlink:href="#mc259e4dd5b" x="498.161157" y="263.173294" style="fill: #d62728; stroke: #d62728"/>
    </g>
   </g>
   <g id="patch_3">
    <path d="M 135 418.130526 
L 135 155.52 
" style="fill: none; stroke: #000000; stroke-width: 0.8; stroke-linejoin: miter; stroke-linecap: square"/>
   </g>
   <g id="patch_4">
    <path d="M 515.454545 418.130526 
L 515.454545 155.52 
" style="fill: none; stroke: #000000; stroke-width: 0.8; stroke-linejoin: miter; stroke-linecap: square"/>
   </g>
   <g id="patch_5">
    <path d="M 135 418.130526 
L 515.454545 418.130526 
" style="fill: none; stroke: #000000; stroke-width: 0.8; stroke-linejoin: miter; stroke-linecap: square"/>
   </g>
   <g id="patch_6">
    <path d="M 135 155.52 
L 515.454545 155.52 
" style="fill: none; stroke: #000000; stroke-width: 0.8; stroke-linejoin: miter; stroke-linecap: square"/>
   </g>
   <g id="text_14">
    <!-- a -->
    <g transform="translate(89.472557 137.404046) scale(0.28 -0.28)">
     <defs>
      <path id="DejaVuSans-Bold-61" d="M 2106 1575 
Q 1756 1575 1579 1456 
Q 1403 1338 1403 1106 
Q 1403 894 1545 773 
Q 1688 653 1941 653 
Q 2256 653 2472 879 
Q 2688 1106 2688 1447 
L 2688 1575 
L 2106 1575 
z
M 3816 1997 
L 3816 0 
L 2688 0 
L 2688 519 
Q 2463 200 2181 54 
Q 1900 -91 1497 -91 
Q 953 -91 614 226 
Q 275 544 275 1050 
Q 275 1666 698 1953 
Q 1122 2241 2028 2241 
L 2688 2241 
L 2688 2328 
Q 2688 2594 2478 2717 
Q 2269 2841 1825 2841 
Q 1466 2841 1156 2769 
Q 847 2697 581 2553 
L 581 3406 
Q 941 3494 1303 3539 
Q 1666 3584 2028 3584 
Q 2975 3584 3395 3211 
Q 3816 2838 3816 1997 
z
" transform="scale(0.015625)"/>
     </defs>
     <use xlink:href="#DejaVuSans-Bold-61"/>
    </g>
   </g>
   <g id="text_15">
    <!-- $P_{NN}$ -->
    <g transform="translate(303.387273 149.52) scale(0.26 -0.26)">
     <use xlink:href="#DejaVuSans-Oblique-50" transform="translate(0 0.09375)"/>
     <use xlink:href="#DejaVuSans-Oblique-4e" transform="translate(60.302734 -16.3125) scale(0.7)"/>
     <use xlink:href="#DejaVuSans-Oblique-4e" transform="translate(112.666016 -16.3125) scale(0.7)"/>
    </g>
   </g>
  </g>
  <g id="axes_2">
   <g id="patch_7">
    <path d="M 591.545455 418.130526 
L 972 418.130526 
L 972 155.52 
L 591.545455 155.52 
z
" style="fill: #ffffff"/>
   </g>
   <g id="patch_8">
    <path d="M 608.838843 418.130526 
L 628.792753 418.130526 
L 628.792753 183.552631 
L 608.838843 183.552631 
z
" clip-path="url(#p08e6194992)" style="fill: #1f77b4"/>
   </g>
   <g id="patch_9">
    <path d="M 741.864908 418.130526 
L 761.818818 418.130526 
L 761.818818 303.045399 
L 741.864908 303.045399 
z
" clip-path="url(#p08e6194992)" style="fill: #1f77b4"/>
   </g>
   <g id="patch_10">
    <path d="M 874.890973 418.130526 
L 894.844882 418.130526 
L 894.844882 168.025263 
L 874.890973 168.025263 
z
" clip-path="url(#p08e6194992)" style="fill: #1f77b4"/>
   </g>
   <g id="patch_11">
    <path d="M 628.792753 418.130526 
L 648.746662 418.130526 
L 648.746662 186.200967 
L 628.792753 186.200967 
z
" clip-path="url(#p08e6194992)" style="fill: #ff7f0e"/>
   </g>
   <g id="patch_12">
    <path d="M 761.818818 418.130526 
L 781.772727 418.130526 
L 781.772727 248.586962 
L 761.818818 248.586962 
z
" clip-path="url(#p08e6194992)" style="fill: #ff7f0e"/>
   </g>
   <g id="patch_13">
    <path d="M 894.844882 418.130526 
L 914.798792 418.130526 
L 914.798792 185.704221 
L 894.844882 185.704221 
z
" clip-path="url(#p08e6194992)" style="fill: #ff7f0e"/>
   </g>
   <g id="patch_14">
    <path d="M 648.746662 418.130526 
L 668.700572 418.130526 
L 668.700572 196.915497 
L 648.746662 196.915497 
z
" clip-path="url(#p08e6194992)" style="fill: #2ca02c"/>
   </g>
   <g id="patch_15">
    <path d="M 781.772727 418.130526 
L 801.726637 418.130526 
L 801.726637 270.174985 
L 781.772727 270.174985 
z
" clip-path="url(#p08e6194992)" style="fill: #2ca02c"/>
   </g>
   <g id="patch_16">
    <path d="M 914.798792 418.130526 
L 934.752702 418.130526 
L 934.752702 196.310161 
L 914.798792 196.310161 
z
" clip-path="url(#p08e6194992)" style="fill: #2ca02c"/>
   </g>
   <g id="patch_17">
    <path d="M 668.700572 418.130526 
L 688.654482 418.130526 
L 688.654482 183.437734 
L 668.700572 183.437734 
z
" clip-path="url(#p08e6194992)" style="fill: #d62728"/>
   </g>
   <g id="patch_18">
    <path d="M 801.726637 418.130526 
L 821.680547 418.130526 
L 821.680547 260.541099 
L 801.726637 260.541099 
z
" clip-path="url(#p08e6194992)" style="fill: #d62728"/>
   </g>
   <g id="patch_19">
    <path d="M 934.752702 418.130526 
L 954.706612 418.130526 
L 954.706612 182.753739 
L 934.752702 182.753739 
z
" clip-path="url(#p08e6194992)" style="fill: #d62728"/>
   </g>
   <g id="matplotlib.axis_3">
    <g id="xtick_7">
     <g id="line2d_16">
      <g>
       <use xlink:href="#m6b383f0f85" x="648.746662" y="418.130526" style="stroke: #000000; stroke-width: 0.8"/>
      </g>
     </g>
     <g id="text_16">
      <!-- AUC -->
      <g transform="translate(625.490256 441.847089) scale(0.22 -0.22)">
       <defs>
        <path id="DejaVuSans-41" d="M 2188 4044 
L 1331 1722 
L 3047 1722 
L 2188 4044 
z
M 1831 4666 
L 2547 4666 
L 4325 0 
L 3669 0 
L 3244 1197 
L 1141 1197 
L 716 0 
L 50 0 
L 1831 4666 
z
" transform="scale(0.015625)"/>
        <path id="DejaVuSans-55" d="M 556 4666 
L 1191 4666 
L 1191 1831 
Q 1191 1081 1462 751 
Q 1734 422 2344 422 
Q 2950 422 3222 751 
Q 3494 1081 3494 1831 
L 3494 4666 
L 4128 4666 
L 4128 1753 
Q 4128 841 3676 375 
Q 3225 -91 2344 -91 
Q 1459 -91 1007 375 
Q 556 841 556 1753 
L 556 4666 
z
" transform="scale(0.015625)"/>
        <path id="DejaVuSans-43" d="M 4122 4306 
L 4122 3641 
Q 3803 3938 3442 4084 
Q 3081 4231 2675 4231 
Q 1875 4231 1450 3742 
Q 1025 3253 1025 2328 
Q 1025 1406 1450 917 
Q 1875 428 2675 428 
Q 3081 428 3442 575 
Q 3803 722 4122 1019 
L 4122 359 
Q 3791 134 3420 21 
Q 3050 -91 2638 -91 
Q 1578 -91 968 557 
Q 359 1206 359 2328 
Q 359 3453 968 4101 
Q 1578 4750 2638 4750 
Q 3056 4750 3426 4639 
Q 3797 4528 4122 4306 
z
" transform="scale(0.015625)"/>
       </defs>
       <use xlink:href="#DejaVuSans-41"/>
       <use xlink:href="#DejaVuSans-55" x="68.408203"/>
       <use xlink:href="#DejaVuSans-43" x="141.601562"/>
      </g>
     </g>
    </g>
    <g id="xtick_8">
     <g id="line2d_17">
      <g>
       <use xlink:href="#m6b383f0f85" x="781.772727" y="418.130526" style="stroke: #000000; stroke-width: 0.8"/>
      </g>
     </g>
     <g id="text_17">
      <!-- $Q_{local}$ -->
      <g transform="translate(754.822727 441.847089) scale(0.22 -0.22)">
       <defs>
        <path id="DejaVuSans-Oblique-51" d="M 2309 -84 
Q 2275 -88 2237 -89 
Q 2200 -91 2125 -91 
Q 1250 -91 756 411 
Q 263 913 263 1797 
Q 263 2319 452 2844 
Q 641 3369 978 3788 
Q 1369 4269 1858 4509 
Q 2347 4750 2938 4750 
Q 3794 4750 4287 4245 
Q 4781 3741 4781 2869 
Q 4781 1928 4265 1147 
Q 3750 366 2919 44 
L 3553 -825 
L 2847 -825 
L 2309 -84 
z
M 2919 4238 
Q 2400 4238 2003 3986 
Q 1606 3734 1313 3219 
Q 1125 2891 1026 2522 
Q 928 2153 928 1778 
Q 928 1128 1239 775 
Q 1550 422 2119 422 
Q 2631 422 3032 676 
Q 3434 931 3719 1434 
Q 3909 1772 4009 2142 
Q 4109 2513 4109 2881 
Q 4109 3528 3796 3883 
Q 3484 4238 2919 4238 
z
" transform="scale(0.015625)"/>
        <path id="DejaVuSans-Oblique-6c" d="M 1172 4863 
L 1747 4863 
L 800 0 
L 225 0 
L 1172 4863 
z
" transform="scale(0.015625)"/>
        <path id="DejaVuSans-Oblique-6f" d="M 1625 -91 
Q 1009 -91 651 289 
Q 294 669 294 1325 
Q 294 1706 417 2101 
Q 541 2497 738 2766 
Q 1047 3184 1428 3384 
Q 1809 3584 2291 3584 
Q 2888 3584 3255 3212 
Q 3622 2841 3622 2241 
Q 3622 1825 3500 1412 
Q 3378 1000 3181 728 
Q 2875 309 2494 109 
Q 2113 -91 1625 -91 
z
M 891 1344 
Q 891 869 1089 633 
Q 1288 397 1691 397 
Q 2269 397 2648 901 
Q 3028 1406 3028 2181 
Q 3028 2634 2825 2865 
Q 2622 3097 2228 3097 
Q 1903 3097 1650 2945 
Q 1397 2794 1197 2484 
Q 1050 2253 970 1956 
Q 891 1659 891 1344 
z
" transform="scale(0.015625)"/>
        <path id="DejaVuSans-Oblique-63" d="M 3431 3366 
L 3316 2797 
Q 3109 2947 2876 3022 
Q 2644 3097 2394 3097 
Q 2119 3097 1870 3000 
Q 1622 2903 1453 2725 
Q 1184 2453 1037 2087 
Q 891 1722 891 1331 
Q 891 859 1127 628 
Q 1363 397 1844 397 
Q 2081 397 2348 469 
Q 2616 541 2906 684 
L 2797 116 
Q 2547 13 2283 -39 
Q 2019 -91 1741 -91 
Q 1044 -91 669 257 
Q 294 606 294 1253 
Q 294 1797 489 2255 
Q 684 2713 1069 3078 
Q 1331 3328 1684 3456 
Q 2038 3584 2456 3584 
Q 2700 3584 2940 3529 
Q 3181 3475 3431 3366 
z
" transform="scale(0.015625)"/>
        <path id="DejaVuSans-Oblique-61" d="M 3438 1997 
L 3047 0 
L 2472 0 
L 2578 531 
Q 2325 219 2001 64 
Q 1678 -91 1281 -91 
Q 834 -91 548 182 
Q 263 456 263 884 
Q 263 1497 752 1853 
Q 1241 2209 2100 2209 
L 2900 2209 
L 2931 2363 
Q 2938 2388 2941 2417 
Q 2944 2447 2944 2509 
Q 2944 2788 2717 2942 
Q 2491 3097 2081 3097 
Q 1800 3097 1504 3025 
Q 1209 2953 897 2809 
L 997 3341 
Q 1322 3463 1633 3523 
Q 1944 3584 2234 3584 
Q 2853 3584 3176 3315 
Q 3500 3047 3500 2534 
Q 3500 2431 3484 2292 
Q 3469 2153 3438 1997 
z
M 2816 1759 
L 2241 1759 
Q 1534 1759 1195 1570 
Q 856 1381 856 984 
Q 856 709 1029 553 
Q 1203 397 1509 397 
Q 1978 397 2328 733 
Q 2678 1069 2791 1631 
L 2816 1759 
z
" transform="scale(0.015625)"/>
       </defs>
       <use xlink:href="#DejaVuSans-Oblique-51" transform="translate(0 0.78125)"/>
       <use xlink:href="#DejaVuSans-Oblique-6c" transform="translate(78.710938 -15.625) scale(0.7)"/>
       <use xlink:href="#DejaVuSans-Oblique-6f" transform="translate(98.15918 -15.625) scale(0.7)"/>
       <use xlink:href="#DejaVuSans-Oblique-63" transform="translate(140.986328 -15.625) scale(0.7)"/>
       <use xlink:href="#DejaVuSans-Oblique-61" transform="translate(179.472656 -15.625) scale(0.7)"/>
       <use xlink:href="#DejaVuSans-Oblique-6c" transform="translate(222.368164 -15.625) scale(0.7)"/>
      </g>
     </g>
    </g>
    <g id="xtick_9">
     <g id="line2d_18">
      <g>
       <use xlink:href="#m6b383f0f85" x="914.798792" y="418.130526" style="stroke: #000000; stroke-width: 0.8"/>
      </g>
     </g>
     <g id="text_18">
      <!-- $Q_{global}$ -->
      <g transform="translate(882.348792 441.630526) scale(0.22 -0.22)">
       <defs>
        <path id="DejaVuSans-Oblique-67" d="M 3816 3500 
L 3219 434 
Q 3047 -456 2561 -893 
Q 2075 -1331 1253 -1331 
Q 950 -1331 690 -1286 
Q 431 -1241 206 -1147 
L 313 -588 
Q 525 -725 762 -790 
Q 1000 -856 1269 -856 
Q 1816 -856 2167 -557 
Q 2519 -259 2631 300 
L 2681 563 
Q 2441 288 2122 144 
Q 1803 0 1434 0 
Q 903 0 598 351 
Q 294 703 294 1319 
Q 294 1803 478 2267 
Q 663 2731 997 3091 
Q 1219 3328 1514 3456 
Q 1809 3584 2131 3584 
Q 2484 3584 2746 3420 
Q 3009 3256 3138 2956 
L 3238 3500 
L 3816 3500 
z
M 2950 2216 
Q 2950 2641 2750 2872 
Q 2550 3103 2181 3103 
Q 1953 3103 1747 3012 
Q 1541 2922 1394 2759 
Q 1156 2491 1023 2127 
Q 891 1763 891 1375 
Q 891 944 1092 712 
Q 1294 481 1672 481 
Q 2219 481 2584 976 
Q 2950 1472 2950 2216 
z
" transform="scale(0.015625)"/>
        <path id="DejaVuSans-Oblique-62" d="M 3169 2138 
Q 3169 2591 2961 2847 
Q 2753 3103 2388 3103 
Q 2122 3103 1889 2973 
Q 1656 2844 1484 2597 
Q 1303 2338 1198 1995 
Q 1094 1653 1094 1313 
Q 1094 881 1298 636 
Q 1503 391 1863 391 
Q 2134 391 2365 517 
Q 2597 644 2772 891 
Q 2950 1147 3059 1487 
Q 3169 1828 3169 2138 
z
M 1381 2969 
Q 1594 3256 1914 3420 
Q 2234 3584 2584 3584 
Q 3122 3584 3439 3221 
Q 3756 2859 3756 2241 
Q 3756 1734 3570 1259 
Q 3384 784 3041 416 
Q 2816 172 2522 40 
Q 2228 -91 1906 -91 
Q 1566 -91 1316 65 
Q 1066 222 909 531 
L 806 0 
L 231 0 
L 1178 4863 
L 1753 4863 
L 1381 2969 
z
" transform="scale(0.015625)"/>
       </defs>
       <use xlink:href="#DejaVuSans-Oblique-51" transform="translate(0 0.78125)"/>
       <use xlink:href="#DejaVuSans-Oblique-67" transform="translate(78.710938 -15.625) scale(0.7)"/>
       <use xlink:href="#DejaVuSans-Oblique-6c" transform="translate(123.144531 -15.625) scale(0.7)"/>
       <use xlink:href="#DejaVuSans-Oblique-6f" transform="translate(142.592773 -15.625) scale(0.7)"/>
       <use xlink:href="#DejaVuSans-Oblique-62" transform="translate(185.419922 -15.625) scale(0.7)"/>
       <use xlink:href="#DejaVuSans-Oblique-61" transform="translate(229.853516 -15.625) scale(0.7)"/>
       <use xlink:href="#DejaVuSans-Oblique-6c" transform="translate(272.749023 -15.625) scale(0.7)"/>
      </g>
     </g>
    </g>
   </g>
   <g id="matplotlib.axis_4">
    <g id="ytick_6">
     <g id="line2d_19">
      <g>
       <use xlink:href="#m98ce3073fe" x="591.545455" y="418.130526" style="stroke: #000000; stroke-width: 0.8"/>
      </g>
     </g>
     <g id="text_19">
      <!-- 0.0 -->
      <g transform="translate(549.55858 426.488808) scale(0.22 -0.22)">
       <use xlink:href="#DejaVuSans-30"/>
       <use xlink:href="#DejaVuSans-2e" x="63.623047"/>
       <use xlink:href="#DejaVuSans-30" x="95.410156"/>
      </g>
     </g>
    </g>
    <g id="ytick_7">
     <g id="line2d_20">
      <g>
       <use xlink:href="#m98ce3073fe" x="591.545455" y="342.414629" style="stroke: #000000; stroke-width: 0.8"/>
      </g>
     </g>
     <g id="text_20">
      <!-- 0.2 -->
      <g transform="translate(549.55858 350.77291) scale(0.22 -0.22)">
       <use xlink:href="#DejaVuSans-30"/>
       <use xlink:href="#DejaVuSans-2e" x="63.623047"/>
       <use xlink:href="#DejaVuSans-32" x="95.410156"/>
      </g>
     </g>
    </g>
    <g id="ytick_8">
     <g id="line2d_21">
      <g>
       <use xlink:href="#m98ce3073fe" x="591.545455" y="266.698731" style="stroke: #000000; stroke-width: 0.8"/>
      </g>
     </g>
     <g id="text_21">
      <!-- 0.4 -->
      <g transform="translate(549.55858 275.057013) scale(0.22 -0.22)">
       <use xlink:href="#DejaVuSans-30"/>
       <use xlink:href="#DejaVuSans-2e" x="63.623047"/>
       <use xlink:href="#DejaVuSans-34" x="95.410156"/>
      </g>
     </g>
    </g>
    <g id="ytick_9">
     <g id="line2d_22">
      <g>
       <use xlink:href="#m98ce3073fe" x="591.545455" y="190.982834" style="stroke: #000000; stroke-width: 0.8"/>
      </g>
     </g>
     <g id="text_22">
      <!-- 0.6 -->
      <g transform="translate(549.55858 199.341115) scale(0.22 -0.22)">
       <use xlink:href="#DejaVuSans-30"/>
       <use xlink:href="#DejaVuSans-2e" x="63.623047"/>
       <use xlink:href="#DejaVuSans-36" x="95.410156"/>
      </g>
     </g>
    </g>
    <g id="text_23">
     <!-- Metric Value -->
     <g transform="translate(540.983267 354.727919) rotate(-90) scale(0.22 -0.22)">
      <defs>
       <path id="DejaVuSans-4d" d="M 628 4666 
L 1569 4666 
L 2759 1491 
L 3956 4666 
L 4897 4666 
L 4897 0 
L 4281 0 
L 4281 4097 
L 3078 897 
L 2444 897 
L 1241 4097 
L 1241 0 
L 628 0 
L 628 4666 
z
" transform="scale(0.015625)"/>
       <path id="DejaVuSans-65" d="M 3597 1894 
L 3597 1613 
L 953 1613 
Q 991 1019 1311 708 
Q 1631 397 2203 397 
Q 2534 397 2845 478 
Q 3156 559 3463 722 
L 3463 178 
Q 3153 47 2828 -22 
Q 2503 -91 2169 -91 
Q 1331 -91 842 396 
Q 353 884 353 1716 
Q 353 2575 817 3079 
Q 1281 3584 2069 3584 
Q 2775 3584 3186 3129 
Q 3597 2675 3597 1894 
z
M 3022 2063 
Q 3016 2534 2758 2815 
Q 2500 3097 2075 3097 
Q 1594 3097 1305 2825 
Q 1016 2553 972 2059 
L 3022 2063 
z
" transform="scale(0.015625)"/>
       <path id="DejaVuSans-74" d="M 1172 4494 
L 1172 3500 
L 2356 3500 
L 2356 3053 
L 1172 3053 
L 1172 1153 
Q 1172 725 1289 603 
Q 1406 481 1766 481 
L 2356 481 
L 2356 0 
L 1766 0 
Q 1100 0 847 248 
Q 594 497 594 1153 
L 594 3053 
L 172 3053 
L 172 3500 
L 594 3500 
L 594 4494 
L 1172 4494 
z
" transform="scale(0.015625)"/>
       <path id="DejaVuSans-72" d="M 2631 2963 
Q 2534 3019 2420 3045 
Q 2306 3072 2169 3072 
Q 1681 3072 1420 2755 
Q 1159 2438 1159 1844 
L 1159 0 
L 581 0 
L 581 3500 
L 1159 3500 
L 1159 2956 
Q 1341 3275 1631 3429 
Q 1922 3584 2338 3584 
Q 2397 3584 2469 3576 
Q 2541 3569 2628 3553 
L 2631 2963 
z
" transform="scale(0.015625)"/>
       <path id="DejaVuSans-69" d="M 603 3500 
L 1178 3500 
L 1178 0 
L 603 0 
L 603 3500 
z
M 603 4863 
L 1178 4863 
L 1178 4134 
L 603 4134 
L 603 4863 
z
" transform="scale(0.015625)"/>
       <path id="DejaVuSans-63" d="M 3122 3366 
L 3122 2828 
Q 2878 2963 2633 3030 
Q 2388 3097 2138 3097 
Q 1578 3097 1268 2742 
Q 959 2388 959 1747 
Q 959 1106 1268 751 
Q 1578 397 2138 397 
Q 2388 397 2633 464 
Q 2878 531 3122 666 
L 3122 134 
Q 2881 22 2623 -34 
Q 2366 -91 2075 -91 
Q 1284 -91 818 406 
Q 353 903 353 1747 
Q 353 2603 823 3093 
Q 1294 3584 2113 3584 
Q 2378 3584 2631 3529 
Q 2884 3475 3122 3366 
z
" transform="scale(0.015625)"/>
       <path id="DejaVuSans-20" transform="scale(0.015625)"/>
       <path id="DejaVuSans-56" d="M 1831 0 
L 50 4666 
L 709 4666 
L 2188 738 
L 3669 4666 
L 4325 4666 
L 2547 0 
L 1831 0 
z
" transform="scale(0.015625)"/>
       <path id="DejaVuSans-61" d="M 2194 1759 
Q 1497 1759 1228 1600 
Q 959 1441 959 1056 
Q 959 750 1161 570 
Q 1363 391 1709 391 
Q 2188 391 2477 730 
Q 2766 1069 2766 1631 
L 2766 1759 
L 2194 1759 
z
M 3341 1997 
L 3341 0 
L 2766 0 
L 2766 531 
Q 2569 213 2275 61 
Q 1981 -91 1556 -91 
Q 1019 -91 701 211 
Q 384 513 384 1019 
Q 384 1609 779 1909 
Q 1175 2209 1959 2209 
L 2766 2209 
L 2766 2266 
Q 2766 2663 2505 2880 
Q 2244 3097 1772 3097 
Q 1472 3097 1187 3025 
Q 903 2953 641 2809 
L 641 3341 
Q 956 3463 1253 3523 
Q 1550 3584 1831 3584 
Q 2591 3584 2966 3190 
Q 3341 2797 3341 1997 
z
" transform="scale(0.015625)"/>
       <path id="DejaVuSans-6c" d="M 603 4863 
L 1178 4863 
L 1178 0 
L 603 0 
L 603 4863 
z
" transform="scale(0.015625)"/>
       <path id="DejaVuSans-75" d="M 544 1381 
L 544 3500 
L 1119 3500 
L 1119 1403 
Q 1119 906 1312 657 
Q 1506 409 1894 409 
Q 2359 409 2629 706 
Q 2900 1003 2900 1516 
L 2900 3500 
L 3475 3500 
L 3475 0 
L 2900 0 
L 2900 538 
Q 2691 219 2414 64 
Q 2138 -91 1772 -91 
Q 1169 -91 856 284 
Q 544 659 544 1381 
z
M 1991 3584 
L 1991 3584 
z
" transform="scale(0.015625)"/>
      </defs>
      <use xlink:href="#DejaVuSans-4d"/>
      <use xlink:href="#DejaVuSans-65" x="86.279297"/>
      <use xlink:href="#DejaVuSans-74" x="147.802734"/>
      <use xlink:href="#DejaVuSans-72" x="187.011719"/>
      <use xlink:href="#DejaVuSans-69" x="228.125"/>
      <use xlink:href="#DejaVuSans-63" x="255.908203"/>
      <use xlink:href="#DejaVuSans-20" x="310.888672"/>
      <use xlink:href="#DejaVuSans-56" x="342.675781"/>
      <use xlink:href="#DejaVuSans-61" x="403.333984"/>
      <use xlink:href="#DejaVuSans-6c" x="464.613281"/>
      <use xlink:href="#DejaVuSans-75" x="492.396484"/>
      <use xlink:href="#DejaVuSans-65" x="555.775391"/>
     </g>
    </g>
   </g>
   <g id="patch_20">
    <path d="M 591.545455 418.130526 
L 591.545455 155.52 
" style="fill: none; stroke: #000000; stroke-width: 0.8; stroke-linejoin: miter; stroke-linecap: square"/>
   </g>
   <g id="patch_21">
    <path d="M 972 418.130526 
L 972 155.52 
" style="fill: none; stroke: #000000; stroke-width: 0.8; stroke-linejoin: miter; stroke-linecap: square"/>
   </g>
   <g id="patch_22">
    <path d="M 591.545455 418.130526 
L 972 418.130526 
" style="fill: none; stroke: #000000; stroke-width: 0.8; stroke-linejoin: miter; stroke-linecap: square"/>
   </g>
   <g id="patch_23">
    <path d="M 591.545455 155.52 
L 972 155.52 
" style="fill: none; stroke: #000000; stroke-width: 0.8; stroke-linejoin: miter; stroke-linecap: square"/>
   </g>
   <g id="text_24">
    <!-- b -->
    <g transform="translate(544.871761 137.404046) scale(0.28 -0.28)">
     <defs>
      <path id="DejaVuSans-Bold-62" d="M 2400 722 
Q 2759 722 2948 984 
Q 3138 1247 3138 1747 
Q 3138 2247 2948 2509 
Q 2759 2772 2400 2772 
Q 2041 2772 1848 2508 
Q 1656 2244 1656 1747 
Q 1656 1250 1848 986 
Q 2041 722 2400 722 
z
M 1656 2988 
Q 1888 3294 2169 3439 
Q 2450 3584 2816 3584 
Q 3463 3584 3878 3070 
Q 4294 2556 4294 1747 
Q 4294 938 3878 423 
Q 3463 -91 2816 -91 
Q 2450 -91 2169 54 
Q 1888 200 1656 506 
L 1656 0 
L 538 0 
L 538 4863 
L 1656 4863 
L 1656 2988 
z
" transform="scale(0.015625)"/>
     </defs>
     <use xlink:href="#DejaVuSans-Bold-62"/>
    </g>
   </g>
   <g id="text_25">
    <!-- Metrics -->
    <g transform="translate(734.584759 149.52) scale(0.26 -0.26)">
     <defs>
      <path id="DejaVuSans-73" d="M 2834 3397 
L 2834 2853 
Q 2591 2978 2328 3040 
Q 2066 3103 1784 3103 
Q 1356 3103 1142 2972 
Q 928 2841 928 2578 
Q 928 2378 1081 2264 
Q 1234 2150 1697 2047 
L 1894 2003 
Q 2506 1872 2764 1633 
Q 3022 1394 3022 966 
Q 3022 478 2636 193 
Q 2250 -91 1575 -91 
Q 1294 -91 989 -36 
Q 684 19 347 128 
L 347 722 
Q 666 556 975 473 
Q 1284 391 1588 391 
Q 1994 391 2212 530 
Q 2431 669 2431 922 
Q 2431 1156 2273 1281 
Q 2116 1406 1581 1522 
L 1381 1569 
Q 847 1681 609 1914 
Q 372 2147 372 2553 
Q 372 3047 722 3315 
Q 1072 3584 1716 3584 
Q 2034 3584 2315 3537 
Q 2597 3491 2834 3397 
z
" transform="scale(0.015625)"/>
     </defs>
     <use xlink:href="#DejaVuSans-4d"/>
     <use xlink:href="#DejaVuSans-65" x="86.279297"/>
     <use xlink:href="#DejaVuSans-74" x="147.802734"/>
     <use xlink:href="#DejaVuSans-72" x="187.011719"/>
     <use xlink:href="#DejaVuSans-69" x="228.125"/>
     <use xlink:href="#DejaVuSans-63" x="255.908203"/>
     <use xlink:href="#DejaVuSans-73" x="310.888672"/>
    </g>
   </g>
  </g>
  <g id="axes_3">
   <g id="patch_24">
    <path d="M 135 785.785263 
L 515.454545 785.785263 
L 515.454545 523.174737 
L 135 523.174737 
z
" style="fill: #ffffff"/>
   </g>
   <g id="matplotlib.axis_5">
    <g id="xtick_10">
     <g id="line2d_23">
      <g>
       <use xlink:href="#m6b383f0f85" x="137.882231" y="785.785263" style="stroke: #000000; stroke-width: 0.8"/>
      </g>
     </g>
     <g id="text_26">
      <!-- 0 -->
      <g transform="translate(130.883481 809.501826) scale(0.22 -0.22)">
       <use xlink:href="#DejaVuSans-30"/>
      </g>
     </g>
    </g>
    <g id="xtick_11">
     <g id="line2d_24">
      <g>
       <use xlink:href="#m6b383f0f85" x="281.993802" y="785.785263" style="stroke: #000000; stroke-width: 0.8"/>
      </g>
     </g>
     <g id="text_27">
      <!-- 20 -->
      <g transform="translate(267.996302 809.501826) scale(0.22 -0.22)">
       <use xlink:href="#DejaVuSans-32"/>
       <use xlink:href="#DejaVuSans-30" x="63.623047"/>
      </g>
     </g>
    </g>
    <g id="xtick_12">
     <g id="line2d_25">
      <g>
       <use xlink:href="#m6b383f0f85" x="426.105372" y="785.785263" style="stroke: #000000; stroke-width: 0.8"/>
      </g>
     </g>
     <g id="text_28">
      <!-- 40 -->
      <g transform="translate(412.107872 809.501826) scale(0.22 -0.22)">
       <use xlink:href="#DejaVuSans-34"/>
       <use xlink:href="#DejaVuSans-30" x="63.623047"/>
      </g>
     </g>
    </g>
    <g id="text_29">
     <!-- k -->
     <g transform="translate(318.278523 836.313388) scale(0.24 -0.24)">
      <use xlink:href="#DejaVuSans-6b"/>
     </g>
    </g>
   </g>
   <g id="matplotlib.axis_6">
    <g id="ytick_10">
     <g id="line2d_26">
      <g>
       <use xlink:href="#m98ce3073fe" x="135" y="740.102649" style="stroke: #000000; stroke-width: 0.8"/>
      </g>
     </g>
     <g id="text_30">
      <!-- 0.80 -->
      <g transform="translate(79.015625 748.460931) scale(0.22 -0.22)">
       <use xlink:href="#DejaVuSans-30"/>
       <use xlink:href="#DejaVuSans-2e" x="63.623047"/>
       <use xlink:href="#DejaVuSans-38" x="95.410156"/>
       <use xlink:href="#DejaVuSans-30" x="159.033203"/>
      </g>
     </g>
    </g>
    <g id="ytick_11">
     <g id="line2d_27">
      <g>
       <use xlink:href="#m98ce3073fe" x="135" y="679.75906" style="stroke: #000000; stroke-width: 0.8"/>
      </g>
     </g>
     <g id="text_31">
      <!-- 0.85 -->
      <g transform="translate(79.015625 688.117341) scale(0.22 -0.22)">
       <use xlink:href="#DejaVuSans-30"/>
       <use xlink:href="#DejaVuSans-2e" x="63.623047"/>
       <use xlink:href="#DejaVuSans-38" x="95.410156"/>
       <use xlink:href="#DejaVuSans-35" x="159.033203"/>
      </g>
     </g>
    </g>
    <g id="ytick_12">
     <g id="line2d_28">
      <g>
       <use xlink:href="#m98ce3073fe" x="135" y="619.415471" style="stroke: #000000; stroke-width: 0.8"/>
      </g>
     </g>
     <g id="text_32">
      <!-- 0.90 -->
      <g transform="translate(79.015625 627.773752) scale(0.22 -0.22)">
       <defs>
        <path id="DejaVuSans-39" d="M 703 97 
L 703 672 
Q 941 559 1184 500 
Q 1428 441 1663 441 
Q 2288 441 2617 861 
Q 2947 1281 2994 2138 
Q 2813 1869 2534 1725 
Q 2256 1581 1919 1581 
Q 1219 1581 811 2004 
Q 403 2428 403 3163 
Q 403 3881 828 4315 
Q 1253 4750 1959 4750 
Q 2769 4750 3195 4129 
Q 3622 3509 3622 2328 
Q 3622 1225 3098 567 
Q 2575 -91 1691 -91 
Q 1453 -91 1209 -44 
Q 966 3 703 97 
z
M 1959 2075 
Q 2384 2075 2632 2365 
Q 2881 2656 2881 3163 
Q 2881 3666 2632 3958 
Q 2384 4250 1959 4250 
Q 1534 4250 1286 3958 
Q 1038 3666 1038 3163 
Q 1038 2656 1286 2365 
Q 1534 2075 1959 2075 
z
" transform="scale(0.015625)"/>
       </defs>
       <use xlink:href="#DejaVuSans-30"/>
       <use xlink:href="#DejaVuSans-2e" x="63.623047"/>
       <use xlink:href="#DejaVuSans-39" x="95.410156"/>
       <use xlink:href="#DejaVuSans-30" x="159.033203"/>
      </g>
     </g>
    </g>
    <g id="ytick_13">
     <g id="line2d_29">
      <g>
       <use xlink:href="#m98ce3073fe" x="135" y="559.071882" style="stroke: #000000; stroke-width: 0.8"/>
      </g>
     </g>
     <g id="text_33">
      <!-- 0.95 -->
      <g transform="translate(79.015625 567.430163) scale(0.22 -0.22)">
       <use xlink:href="#DejaVuSans-30"/>
       <use xlink:href="#DejaVuSans-2e" x="63.623047"/>
       <use xlink:href="#DejaVuSans-39" x="95.410156"/>
       <use xlink:href="#DejaVuSans-35" x="159.033203"/>
      </g>
     </g>
    </g>
    <g id="text_34">
     <!-- Metric Value -->
     <g transform="translate(70.024375 728.555625) rotate(-90) scale(0.24 -0.24)">
      <use xlink:href="#DejaVuSans-4d"/>
      <use xlink:href="#DejaVuSans-65" x="86.279297"/>
      <use xlink:href="#DejaVuSans-74" x="147.802734"/>
      <use xlink:href="#DejaVuSans-72" x="187.011719"/>
      <use xlink:href="#DejaVuSans-69" x="228.125"/>
      <use xlink:href="#DejaVuSans-63" x="255.908203"/>
      <use xlink:href="#DejaVuSans-20" x="310.888672"/>
      <use xlink:href="#DejaVuSans-56" x="342.675781"/>
      <use xlink:href="#DejaVuSans-61" x="403.333984"/>
      <use xlink:href="#DejaVuSans-6c" x="464.613281"/>
      <use xlink:href="#DejaVuSans-75" x="492.396484"/>
      <use xlink:href="#DejaVuSans-65" x="555.775391"/>
     </g>
    </g>
   </g>
   <g id="line2d_30">
    <path d="M 152.293388 758.410684 
L 173.910124 763.239966 
L 209.938017 764.79224 
L 281.993802 767.246357 
L 498.161157 773.848421 
" clip-path="url(#p45190e883f)" style="fill: none; stroke: #1f77b4; stroke-width: 1.5; stroke-linecap: square"/>
    <g clip-path="url(#p45190e883f)">
     <use xlink:href="#mb4cb12028a" x="152.293388" y="758.410684" style="fill: #1f77b4; stroke: #1f77b4"/>
     <use xlink:href="#mb4cb12028a" x="173.910124" y="763.239966" style="fill: #1f77b4; stroke: #1f77b4"/>
     <use xlink:href="#mb4cb12028a" x="209.938017" y="764.79224" style="fill: #1f77b4; stroke: #1f77b4"/>
     <use xlink:href="#mb4cb12028a" x="281.993802" y="767.246357" style="fill: #1f77b4; stroke: #1f77b4"/>
     <use xlink:href="#mb4cb12028a" x="498.161157" y="773.848421" style="fill: #1f77b4; stroke: #1f77b4"/>
    </g>
   </g>
   <g id="line2d_31">
    <path d="M 152.293388 535.111579 
L 173.910124 547.760958 
L 209.938017 566.801363 
L 281.993802 601.208554 
L 498.161157 682.115537 
" clip-path="url(#p45190e883f)" style="fill: none; stroke: #ff7f0e; stroke-width: 1.5; stroke-linecap: square"/>
    <g clip-path="url(#p45190e883f)">
     <use xlink:href="#mb492a7fb61" x="152.293388" y="535.111579" style="fill: #ff7f0e; stroke: #ff7f0e"/>
     <use xlink:href="#mb492a7fb61" x="173.910124" y="547.760958" style="fill: #ff7f0e; stroke: #ff7f0e"/>
     <use xlink:href="#mb492a7fb61" x="209.938017" y="566.801363" style="fill: #ff7f0e; stroke: #ff7f0e"/>
     <use xlink:href="#mb492a7fb61" x="281.993802" y="601.208554" style="fill: #ff7f0e; stroke: #ff7f0e"/>
     <use xlink:href="#mb492a7fb61" x="498.161157" y="682.115537" style="fill: #ff7f0e; stroke: #ff7f0e"/>
    </g>
   </g>
   <g id="line2d_32">
    <path d="M 152.293388 557.444799 
L 173.910124 566.026565 
L 209.938017 580.307435 
L 281.993802 617.746955 
L 498.161157 701.206327 
" clip-path="url(#p45190e883f)" style="fill: none; stroke: #2ca02c; stroke-width: 1.5; stroke-linecap: square"/>
    <g clip-path="url(#p45190e883f)">
     <use xlink:href="#m074b3194d4" x="152.293388" y="557.444799" style="fill: #2ca02c; stroke: #2ca02c"/>
     <use xlink:href="#m074b3194d4" x="173.910124" y="566.026565" style="fill: #2ca02c; stroke: #2ca02c"/>
     <use xlink:href="#m074b3194d4" x="209.938017" y="580.307435" style="fill: #2ca02c; stroke: #2ca02c"/>
     <use xlink:href="#m074b3194d4" x="281.993802" y="617.746955" style="fill: #2ca02c; stroke: #2ca02c"/>
     <use xlink:href="#m074b3194d4" x="498.161157" y="701.206327" style="fill: #2ca02c; stroke: #2ca02c"/>
    </g>
   </g>
   <g id="line2d_33">
    <path d="M 152.293388 539.875331 
L 173.910124 545.991654 
L 209.938017 556.883172 
L 281.993802 579.847913 
L 498.161157 653.533744 
" clip-path="url(#p45190e883f)" style="fill: none; stroke: #d62728; stroke-width: 1.5; stroke-linecap: square"/>
    <g clip-path="url(#p45190e883f)">
     <use xlink:href="#mc259e4dd5b" x="152.293388" y="539.875331" style="fill: #d62728; stroke: #d62728"/>
     <use xlink:href="#mc259e4dd5b" x="173.910124" y="545.991654" style="fill: #d62728; stroke: #d62728"/>
     <use xlink:href="#mc259e4dd5b" x="209.938017" y="556.883172" style="fill: #d62728; stroke: #d62728"/>
     <use xlink:href="#mc259e4dd5b" x="281.993802" y="579.847913" style="fill: #d62728; stroke: #d62728"/>
     <use xlink:href="#mc259e4dd5b" x="498.161157" y="653.533744" style="fill: #d62728; stroke: #d62728"/>
    </g>
   </g>
   <g id="patch_25">
    <path d="M 135 785.785263 
L 135 523.174737 
" style="fill: none; stroke: #000000; stroke-width: 0.8; stroke-linejoin: miter; stroke-linecap: square"/>
   </g>
   <g id="patch_26">
    <path d="M 515.454545 785.785263 
L 515.454545 523.174737 
" style="fill: none; stroke: #000000; stroke-width: 0.8; stroke-linejoin: miter; stroke-linecap: square"/>
   </g>
   <g id="patch_27">
    <path d="M 135 785.785263 
L 515.454545 785.785263 
" style="fill: none; stroke: #000000; stroke-width: 0.8; stroke-linejoin: miter; stroke-linecap: square"/>
   </g>
   <g id="patch_28">
    <path d="M 135 523.174737 
L 515.454545 523.174737 
" style="fill: none; stroke: #000000; stroke-width: 0.8; stroke-linejoin: miter; stroke-linecap: square"/>
   </g>
   <g id="text_35">
    <!-- c -->
    <g transform="translate(91.769432 505.058783) scale(0.28 -0.28)">
     <defs>
      <path id="DejaVuSans-Bold-63" d="M 3366 3391 
L 3366 2478 
Q 3138 2634 2908 2709 
Q 2678 2784 2431 2784 
Q 1963 2784 1702 2511 
Q 1441 2238 1441 1747 
Q 1441 1256 1702 982 
Q 1963 709 2431 709 
Q 2694 709 2930 787 
Q 3166 866 3366 1019 
L 3366 103 
Q 3103 6 2833 -42 
Q 2563 -91 2291 -91 
Q 1344 -91 809 395 
Q 275 881 275 1747 
Q 275 2613 809 3098 
Q 1344 3584 2291 3584 
Q 2566 3584 2833 3536 
Q 3100 3488 3366 3391 
z
" transform="scale(0.015625)"/>
     </defs>
     <use xlink:href="#DejaVuSans-Bold-63"/>
    </g>
   </g>
   <g id="text_36">
    <!-- Trustworthiness -->
    <g transform="translate(230.950398 517.174737) scale(0.24 -0.24)">
     <defs>
      <path id="DejaVuSans-54" d="M -19 4666 
L 3928 4666 
L 3928 4134 
L 2272 4134 
L 2272 0 
L 1638 0 
L 1638 4134 
L -19 4134 
L -19 4666 
z
" transform="scale(0.015625)"/>
      <path id="DejaVuSans-77" d="M 269 3500 
L 844 3500 
L 1563 769 
L 2278 3500 
L 2956 3500 
L 3675 769 
L 4391 3500 
L 4966 3500 
L 4050 0 
L 3372 0 
L 2619 2869 
L 1863 0 
L 1184 0 
L 269 3500 
z
" transform="scale(0.015625)"/>
      <path id="DejaVuSans-6f" d="M 1959 3097 
Q 1497 3097 1228 2736 
Q 959 2375 959 1747 
Q 959 1119 1226 758 
Q 1494 397 1959 397 
Q 2419 397 2687 759 
Q 2956 1122 2956 1747 
Q 2956 2369 2687 2733 
Q 2419 3097 1959 3097 
z
M 1959 3584 
Q 2709 3584 3137 3096 
Q 3566 2609 3566 1747 
Q 3566 888 3137 398 
Q 2709 -91 1959 -91 
Q 1206 -91 779 398 
Q 353 888 353 1747 
Q 353 2609 779 3096 
Q 1206 3584 1959 3584 
z
" transform="scale(0.015625)"/>
      <path id="DejaVuSans-68" d="M 3513 2113 
L 3513 0 
L 2938 0 
L 2938 2094 
Q 2938 2591 2744 2837 
Q 2550 3084 2163 3084 
Q 1697 3084 1428 2787 
Q 1159 2491 1159 1978 
L 1159 0 
L 581 0 
L 581 4863 
L 1159 4863 
L 1159 2956 
Q 1366 3272 1645 3428 
Q 1925 3584 2291 3584 
Q 2894 3584 3203 3211 
Q 3513 2838 3513 2113 
z
" transform="scale(0.015625)"/>
      <path id="DejaVuSans-6e" d="M 3513 2113 
L 3513 0 
L 2938 0 
L 2938 2094 
Q 2938 2591 2744 2837 
Q 2550 3084 2163 3084 
Q 1697 3084 1428 2787 
Q 1159 2491 1159 1978 
L 1159 0 
L 581 0 
L 581 3500 
L 1159 3500 
L 1159 2956 
Q 1366 3272 1645 3428 
Q 1925 3584 2291 3584 
Q 2894 3584 3203 3211 
Q 3513 2838 3513 2113 
z
" transform="scale(0.015625)"/>
     </defs>
     <use xlink:href="#DejaVuSans-54"/>
     <use xlink:href="#DejaVuSans-72" x="46.333984"/>
     <use xlink:href="#DejaVuSans-75" x="87.447266"/>
     <use xlink:href="#DejaVuSans-73" x="150.826172"/>
     <use xlink:href="#DejaVuSans-74" x="202.925781"/>
     <use xlink:href="#DejaVuSans-77" x="242.134766"/>
     <use xlink:href="#DejaVuSans-6f" x="323.921875"/>
     <use xlink:href="#DejaVuSans-72" x="385.103516"/>
     <use xlink:href="#DejaVuSans-74" x="426.216797"/>
     <use xlink:href="#DejaVuSans-68" x="465.425781"/>
     <use xlink:href="#DejaVuSans-69" x="528.804688"/>
     <use xlink:href="#DejaVuSans-6e" x="556.587891"/>
     <use xlink:href="#DejaVuSans-65" x="619.966797"/>
     <use xlink:href="#DejaVuSans-73" x="681.490234"/>
     <use xlink:href="#DejaVuSans-73" x="733.589844"/>
    </g>
   </g>
  </g>
  <g id="axes_4">
   <g id="patch_29">
    <path d="M 591.545455 785.785263 
L 972 785.785263 
L 972 523.174737 
L 591.545455 523.174737 
z
" style="fill: #ffffff"/>
   </g>
   <g id="matplotlib.axis_7">
    <g id="xtick_13">
     <g id="line2d_34">
      <g>
       <use xlink:href="#m6b383f0f85" x="594.427686" y="785.785263" style="stroke: #000000; stroke-width: 0.8"/>
      </g>
     </g>
     <g id="text_37">
      <!-- 0 -->
      <g transform="translate(587.428936 809.501826) scale(0.22 -0.22)">
       <use xlink:href="#DejaVuSans-30"/>
      </g>
     </g>
    </g>
    <g id="xtick_14">
     <g id="line2d_35">
      <g>
       <use xlink:href="#m6b383f0f85" x="738.539256" y="785.785263" style="stroke: #000000; stroke-width: 0.8"/>
      </g>
     </g>
     <g id="text_38">
      <!-- 20 -->
      <g transform="translate(724.541756 809.501826) scale(0.22 -0.22)">
       <use xlink:href="#DejaVuSans-32"/>
       <use xlink:href="#DejaVuSans-30" x="63.623047"/>
      </g>
     </g>
    </g>
    <g id="xtick_15">
     <g id="line2d_36">
      <g>
       <use xlink:href="#m6b383f0f85" x="882.650826" y="785.785263" style="stroke: #000000; stroke-width: 0.8"/>
      </g>
     </g>
     <g id="text_39">
      <!-- 40 -->
      <g transform="translate(868.653326 809.501826) scale(0.22 -0.22)">
       <use xlink:href="#DejaVuSans-34"/>
       <use xlink:href="#DejaVuSans-30" x="63.623047"/>
      </g>
     </g>
    </g>
    <g id="text_40">
     <!-- k -->
     <g transform="translate(774.823977 836.313388) scale(0.24 -0.24)">
      <use xlink:href="#DejaVuSans-6b"/>
     </g>
    </g>
   </g>
   <g id="matplotlib.axis_8">
    <g id="ytick_14">
     <g id="line2d_37">
      <g>
       <use xlink:href="#m98ce3073fe" x="591.545455" y="748.211571" style="stroke: #000000; stroke-width: 0.8"/>
      </g>
     </g>
     <g id="text_41">
      <!-- 0.85 -->
      <g transform="translate(535.56108 756.569852) scale(0.22 -0.22)">
       <use xlink:href="#DejaVuSans-30"/>
       <use xlink:href="#DejaVuSans-2e" x="63.623047"/>
       <use xlink:href="#DejaVuSans-38" x="95.410156"/>
       <use xlink:href="#DejaVuSans-35" x="159.033203"/>
      </g>
     </g>
    </g>
    <g id="ytick_15">
     <g id="line2d_38">
      <g>
       <use xlink:href="#m98ce3073fe" x="591.545455" y="666.091211" style="stroke: #000000; stroke-width: 0.8"/>
      </g>
     </g>
     <g id="text_42">
      <!-- 0.90 -->
      <g transform="translate(535.56108 674.449492) scale(0.22 -0.22)">
       <use xlink:href="#DejaVuSans-30"/>
       <use xlink:href="#DejaVuSans-2e" x="63.623047"/>
       <use xlink:href="#DejaVuSans-39" x="95.410156"/>
       <use xlink:href="#DejaVuSans-30" x="159.033203"/>
      </g>
     </g>
    </g>
    <g id="ytick_16">
     <g id="line2d_39">
      <g>
       <use xlink:href="#m98ce3073fe" x="591.545455" y="583.970851" style="stroke: #000000; stroke-width: 0.8"/>
      </g>
     </g>
     <g id="text_43">
      <!-- 0.95 -->
      <g transform="translate(535.56108 592.329132) scale(0.22 -0.22)">
       <use xlink:href="#DejaVuSans-30"/>
       <use xlink:href="#DejaVuSans-2e" x="63.623047"/>
       <use xlink:href="#DejaVuSans-39" x="95.410156"/>
       <use xlink:href="#DejaVuSans-35" x="159.033203"/>
      </g>
     </g>
    </g>
   </g>
   <g id="line2d_40">
    <path d="M 608.838843 555.097718 
L 630.455579 573.9498 
L 666.483471 597.028 
L 738.539256 627.335757 
L 954.706612 697.566815 
" clip-path="url(#p2020da9971)" style="fill: none; stroke: #1f77b4; stroke-width: 1.5; stroke-linecap: square"/>
    <g clip-path="url(#p2020da9971)">
     <use xlink:href="#mb4cb12028a" x="608.838843" y="555.097718" style="fill: #1f77b4; stroke: #1f77b4"/>
     <use xlink:href="#mb4cb12028a" x="630.455579" y="573.9498" style="fill: #1f77b4; stroke: #1f77b4"/>
     <use xlink:href="#mb4cb12028a" x="666.483471" y="597.028" style="fill: #1f77b4; stroke: #1f77b4"/>
     <use xlink:href="#mb4cb12028a" x="738.539256" y="627.335757" style="fill: #1f77b4; stroke: #1f77b4"/>
     <use xlink:href="#mb4cb12028a" x="954.706612" y="697.566815" style="fill: #1f77b4; stroke: #1f77b4"/>
    </g>
   </g>
   <g id="line2d_41">
    <path d="M 608.838843 535.111579 
L 630.455579 555.51889 
L 666.483471 582.227285 
L 738.539256 632.477542 
L 954.706612 733.367112 
" clip-path="url(#p2020da9971)" style="fill: none; stroke: #ff7f0e; stroke-width: 1.5; stroke-linecap: square"/>
    <g clip-path="url(#p2020da9971)">
     <use xlink:href="#mb492a7fb61" x="608.838843" y="535.111579" style="fill: #ff7f0e; stroke: #ff7f0e"/>
     <use xlink:href="#mb492a7fb61" x="630.455579" y="555.51889" style="fill: #ff7f0e; stroke: #ff7f0e"/>
     <use xlink:href="#mb492a7fb61" x="666.483471" y="582.227285" style="fill: #ff7f0e; stroke: #ff7f0e"/>
     <use xlink:href="#mb492a7fb61" x="738.539256" y="632.477542" style="fill: #ff7f0e; stroke: #ff7f0e"/>
     <use xlink:href="#mb492a7fb61" x="954.706612" y="733.367112" style="fill: #ff7f0e; stroke: #ff7f0e"/>
    </g>
   </g>
   <g id="line2d_42">
    <path d="M 608.838843 540.608305 
L 630.455579 564.643534 
L 666.483471 598.188345 
L 738.539256 656.742421 
L 954.706612 773.848421 
" clip-path="url(#p2020da9971)" style="fill: none; stroke: #2ca02c; stroke-width: 1.5; stroke-linecap: square"/>
    <g clip-path="url(#p2020da9971)">
     <use xlink:href="#m074b3194d4" x="608.838843" y="540.608305" style="fill: #2ca02c; stroke: #2ca02c"/>
     <use xlink:href="#m074b3194d4" x="630.455579" y="564.643534" style="fill: #2ca02c; stroke: #2ca02c"/>
     <use xlink:href="#m074b3194d4" x="666.483471" y="598.188345" style="fill: #2ca02c; stroke: #2ca02c"/>
     <use xlink:href="#m074b3194d4" x="738.539256" y="656.742421" style="fill: #2ca02c; stroke: #2ca02c"/>
     <use xlink:href="#m074b3194d4" x="954.706612" y="773.848421" style="fill: #2ca02c; stroke: #2ca02c"/>
    </g>
   </g>
   <g id="line2d_43">
    <path d="M 608.838843 548.53396 
L 630.455579 569.325422 
L 666.483471 596.959124 
L 738.539256 643.447496 
L 954.706612 735.859958 
" clip-path="url(#p2020da9971)" style="fill: none; stroke: #d62728; stroke-width: 1.5; stroke-linecap: square"/>
    <g clip-path="url(#p2020da9971)">
     <use xlink:href="#mc259e4dd5b" x="608.838843" y="548.53396" style="fill: #d62728; stroke: #d62728"/>
     <use xlink:href="#mc259e4dd5b" x="630.455579" y="569.325422" style="fill: #d62728; stroke: #d62728"/>
     <use xlink:href="#mc259e4dd5b" x="666.483471" y="596.959124" style="fill: #d62728; stroke: #d62728"/>
     <use xlink:href="#mc259e4dd5b" x="738.539256" y="643.447496" style="fill: #d62728; stroke: #d62728"/>
     <use xlink:href="#mc259e4dd5b" x="954.706612" y="735.859958" style="fill: #d62728; stroke: #d62728"/>
    </g>
   </g>
   <g id="patch_30">
    <path d="M 591.545455 785.785263 
L 591.545455 523.174737 
" style="fill: none; stroke: #000000; stroke-width: 0.8; stroke-linejoin: miter; stroke-linecap: square"/>
   </g>
   <g id="patch_31">
    <path d="M 972 785.785263 
L 972 523.174737 
" style="fill: none; stroke: #000000; stroke-width: 0.8; stroke-linejoin: miter; stroke-linecap: square"/>
   </g>
   <g id="patch_32">
    <path d="M 591.545455 785.785263 
L 972 785.785263 
" style="fill: none; stroke: #000000; stroke-width: 0.8; stroke-linejoin: miter; stroke-linecap: square"/>
   </g>
   <g id="patch_33">
    <path d="M 591.545455 523.174737 
L 972 523.174737 
" style="fill: none; stroke: #000000; stroke-width: 0.8; stroke-linejoin: miter; stroke-linecap: square"/>
   </g>
   <g id="text_44">
    <!-- d -->
    <g transform="translate(544.871761 505.058783) scale(0.28 -0.28)">
     <defs>
      <path id="DejaVuSans-Bold-64" d="M 2919 2988 
L 2919 4863 
L 4044 4863 
L 4044 0 
L 2919 0 
L 2919 506 
Q 2688 197 2409 53 
Q 2131 -91 1766 -91 
Q 1119 -91 703 423 
Q 288 938 288 1747 
Q 288 2556 703 3070 
Q 1119 3584 1766 3584 
Q 2128 3584 2408 3439 
Q 2688 3294 2919 2988 
z
M 2181 722 
Q 2541 722 2730 984 
Q 2919 1247 2919 1747 
Q 2919 2247 2730 2509 
Q 2541 2772 2181 2772 
Q 1825 2772 1636 2509 
Q 1447 2247 1447 1747 
Q 1447 1247 1636 984 
Q 1825 722 2181 722 
z
" transform="scale(0.015625)"/>
     </defs>
     <use xlink:href="#DejaVuSans-Bold-64"/>
    </g>
   </g>
   <g id="text_45">
    <!-- Continuity -->
    <g transform="translate(720.057102 517.174737) scale(0.24 -0.24)">
     <defs>
      <path id="DejaVuSans-79" d="M 2059 -325 
Q 1816 -950 1584 -1140 
Q 1353 -1331 966 -1331 
L 506 -1331 
L 506 -850 
L 844 -850 
Q 1081 -850 1212 -737 
Q 1344 -625 1503 -206 
L 1606 56 
L 191 3500 
L 800 3500 
L 1894 763 
L 2988 3500 
L 3597 3500 
L 2059 -325 
z
" transform="scale(0.015625)"/>
     </defs>
     <use xlink:href="#DejaVuSans-43"/>
     <use xlink:href="#DejaVuSans-6f" x="69.824219"/>
     <use xlink:href="#DejaVuSans-6e" x="131.005859"/>
     <use xlink:href="#DejaVuSans-74" x="194.384766"/>
     <use xlink:href="#DejaVuSans-69" x="233.59375"/>
     <use xlink:href="#DejaVuSans-6e" x="261.376953"/>
     <use xlink:href="#DejaVuSans-75" x="324.755859"/>
     <use xlink:href="#DejaVuSans-69" x="388.134766"/>
     <use xlink:href="#DejaVuSans-74" x="415.917969"/>
     <use xlink:href="#DejaVuSans-79" x="455.126953"/>
    </g>
   </g>
  </g>
  <g id="axes_5">
   <g id="patch_34">
    <path d="M 135 1153.44 
L 515.454545 1153.44 
L 515.454545 890.829474 
L 135 890.829474 
z
" style="fill: #ffffff"/>
   </g>
   <g id="matplotlib.axis_9">
    <g id="xtick_16">
     <g id="line2d_44">
      <g>
       <use xlink:href="#m6b383f0f85" x="152.138638" y="1153.44" style="stroke: #000000; stroke-width: 0.8"/>
      </g>
     </g>
     <g id="text_46">
      <!-- 0 -->
      <g transform="translate(145.139888 1177.156562) scale(0.22 -0.22)">
       <use xlink:href="#DejaVuSans-30"/>
      </g>
     </g>
    </g>
    <g id="xtick_17">
     <g id="line2d_45">
      <g>
       <use xlink:href="#m6b383f0f85" x="229.513977" y="1153.44" style="stroke: #000000; stroke-width: 0.8"/>
      </g>
     </g>
     <g id="text_47">
      <!-- 500 -->
      <g transform="translate(208.517727 1177.156562) scale(0.22 -0.22)">
       <use xlink:href="#DejaVuSans-35"/>
       <use xlink:href="#DejaVuSans-30" x="63.623047"/>
       <use xlink:href="#DejaVuSans-30" x="127.246094"/>
      </g>
     </g>
    </g>
    <g id="xtick_18">
     <g id="line2d_46">
      <g>
       <use xlink:href="#m6b383f0f85" x="306.889317" y="1153.44" style="stroke: #000000; stroke-width: 0.8"/>
      </g>
     </g>
     <g id="text_48">
      <!-- 1000 -->
      <g transform="translate(278.894317 1177.156562) scale(0.22 -0.22)">
       <use xlink:href="#DejaVuSans-31"/>
       <use xlink:href="#DejaVuSans-30" x="63.623047"/>
       <use xlink:href="#DejaVuSans-30" x="127.246094"/>
       <use xlink:href="#DejaVuSans-30" x="190.869141"/>
      </g>
     </g>
    </g>
    <g id="xtick_19">
     <g id="line2d_47">
      <g>
       <use xlink:href="#m6b383f0f85" x="384.264657" y="1153.44" style="stroke: #000000; stroke-width: 0.8"/>
      </g>
     </g>
     <g id="text_49">
      <!-- 1500 -->
      <g transform="translate(356.269657 1177.156562) scale(0.22 -0.22)">
       <use xlink:href="#DejaVuSans-31"/>
       <use xlink:href="#DejaVuSans-35" x="63.623047"/>
       <use xlink:href="#DejaVuSans-30" x="127.246094"/>
       <use xlink:href="#DejaVuSans-30" x="190.869141"/>
      </g>
     </g>
    </g>
    <g id="xtick_20">
     <g id="line2d_48">
      <g>
       <use xlink:href="#m6b383f0f85" x="461.639997" y="1153.44" style="stroke: #000000; stroke-width: 0.8"/>
      </g>
     </g>
     <g id="text_50">
      <!-- 2000 -->
      <g transform="translate(433.644997 1177.156562) scale(0.22 -0.22)">
       <use xlink:href="#DejaVuSans-32"/>
       <use xlink:href="#DejaVuSans-30" x="63.623047"/>
       <use xlink:href="#DejaVuSans-30" x="127.246094"/>
       <use xlink:href="#DejaVuSans-30" x="190.869141"/>
      </g>
     </g>
    </g>
    <g id="text_51">
     <!-- k -->
     <g transform="translate(318.278523 1203.968125) scale(0.24 -0.24)">
      <use xlink:href="#DejaVuSans-6b"/>
     </g>
    </g>
   </g>
   <g id="matplotlib.axis_10">
    <g id="ytick_17">
     <g id="line2d_49">
      <g>
       <use xlink:href="#m98ce3073fe" x="135" y="1152.207846" style="stroke: #000000; stroke-width: 0.8"/>
      </g>
     </g>
     <g id="text_52">
      <!-- 0.00 -->
      <g transform="translate(79.015625 1160.566127) scale(0.22 -0.22)">
       <use xlink:href="#DejaVuSans-30"/>
       <use xlink:href="#DejaVuSans-2e" x="63.623047"/>
       <use xlink:href="#DejaVuSans-30" x="95.410156"/>
       <use xlink:href="#DejaVuSans-30" x="159.033203"/>
      </g>
     </g>
    </g>
    <g id="ytick_18">
     <g id="line2d_50">
      <g>
       <use xlink:href="#m98ce3073fe" x="135" y="1089.847463" style="stroke: #000000; stroke-width: 0.8"/>
      </g>
     </g>
     <g id="text_53">
      <!-- 0.25 -->
      <g transform="translate(79.015625 1098.205745) scale(0.22 -0.22)">
       <use xlink:href="#DejaVuSans-30"/>
       <use xlink:href="#DejaVuSans-2e" x="63.623047"/>
       <use xlink:href="#DejaVuSans-32" x="95.410156"/>
       <use xlink:href="#DejaVuSans-35" x="159.033203"/>
      </g>
     </g>
    </g>
    <g id="ytick_19">
     <g id="line2d_51">
      <g>
       <use xlink:href="#m98ce3073fe" x="135" y="1027.487081" style="stroke: #000000; stroke-width: 0.8"/>
      </g>
     </g>
     <g id="text_54">
      <!-- 0.50 -->
      <g transform="translate(79.015625 1035.845362) scale(0.22 -0.22)">
       <use xlink:href="#DejaVuSans-30"/>
       <use xlink:href="#DejaVuSans-2e" x="63.623047"/>
       <use xlink:href="#DejaVuSans-35" x="95.410156"/>
       <use xlink:href="#DejaVuSans-30" x="159.033203"/>
      </g>
     </g>
    </g>
    <g id="ytick_20">
     <g id="line2d_52">
      <g>
       <use xlink:href="#m98ce3073fe" x="135" y="965.126698" style="stroke: #000000; stroke-width: 0.8"/>
      </g>
     </g>
     <g id="text_55">
      <!-- 0.75 -->
      <g transform="translate(79.015625 973.48498) scale(0.22 -0.22)">
       <defs>
        <path id="DejaVuSans-37" d="M 525 4666 
L 3525 4666 
L 3525 4397 
L 1831 0 
L 1172 0 
L 2766 4134 
L 525 4134 
L 525 4666 
z
" transform="scale(0.015625)"/>
       </defs>
       <use xlink:href="#DejaVuSans-30"/>
       <use xlink:href="#DejaVuSans-2e" x="63.623047"/>
       <use xlink:href="#DejaVuSans-37" x="95.410156"/>
       <use xlink:href="#DejaVuSans-35" x="159.033203"/>
      </g>
     </g>
    </g>
    <g id="ytick_21">
     <g id="line2d_53">
      <g>
       <use xlink:href="#m98ce3073fe" x="135" y="902.766316" style="stroke: #000000; stroke-width: 0.8"/>
      </g>
     </g>
     <g id="text_56">
      <!-- 1.00 -->
      <g transform="translate(79.015625 911.124597) scale(0.22 -0.22)">
       <use xlink:href="#DejaVuSans-31"/>
       <use xlink:href="#DejaVuSans-2e" x="63.623047"/>
       <use xlink:href="#DejaVuSans-30" x="95.410156"/>
       <use xlink:href="#DejaVuSans-30" x="159.033203"/>
      </g>
     </g>
    </g>
    <g id="text_57">
     <!-- Metric Value -->
     <g transform="translate(70.024375 1096.210362) rotate(-90) scale(0.24 -0.24)">
      <use xlink:href="#DejaVuSans-4d"/>
      <use xlink:href="#DejaVuSans-65" x="86.279297"/>
      <use xlink:href="#DejaVuSans-74" x="147.802734"/>
      <use xlink:href="#DejaVuSans-72" x="187.011719"/>
      <use xlink:href="#DejaVuSans-69" x="228.125"/>
      <use xlink:href="#DejaVuSans-63" x="255.908203"/>
      <use xlink:href="#DejaVuSans-20" x="310.888672"/>
      <use xlink:href="#DejaVuSans-56" x="342.675781"/>
      <use xlink:href="#DejaVuSans-61" x="403.333984"/>
      <use xlink:href="#DejaVuSans-6c" x="464.613281"/>
      <use xlink:href="#DejaVuSans-75" x="492.396484"/>
      <use xlink:href="#DejaVuSans-65" x="555.775391"/>
     </g>
    </g>
   </g>
   <g id="line2d_54">
    <path d="M 152.293388 1141.503158 
L 152.60289 1132.842768 
L 153.221893 1123.805378 
L 154.150397 1114.003775 
L 155.078901 1106.930068 
L 155.852654 1103.019247 
L 157.24541 1096.8023 
L 158.173914 1093.420696 
L 158.792917 1091.381983 
L 159.56667 1089.03439 
L 160.804676 1086.456451 
L 164.05444 1081.270462 
L 164.518692 1080.754054 
L 165.137695 1079.949875 
L 165.447196 1079.582969 
L 166.22095 1078.533468 
L 167.768456 1076.771592 
L 168.387459 1076.089868 
L 169.161212 1075.333792 
L 172.720478 1071.796088 
L 175.815492 1068.935315 
L 177.208248 1067.70744 
L 178.910505 1066.03601 
L 181.077015 1063.997329 
L 182.469771 1062.808113 
L 183.707776 1061.738912 
L 184.63628 1061.029498 
L 185.719535 1060.107038 
L 187.731294 1058.374081 
L 188.505047 1057.729485 
L 189.743053 1056.697599 
L 191.135809 1055.589099 
L 195.778329 1052.374927 
L 198.873343 1050.418049 
L 204.599118 1046.780287 
L 207.22988 1045.384294 
L 210.015392 1043.855975 
L 211.717649 1043.018002 
L 213.729408 1042.085274 
L 215.895918 1041.06362 
L 225.799961 1036.704694 
L 227.966471 1035.96868 
L 233.692246 1034.09679 
L 244.679544 1030.761811 
L 251.179073 1029.088951 
L 253.655083 1028.438971 
L 259.535609 1026.960394 
L 261.547368 1026.465458 
L 264.33288 1025.727036 
L 287.235981 1019.41584 
L 296.675772 1016.254226 
L 298.223279 1015.715279 
L 302.401548 1014.211814 
L 313.234095 1010.003218 
L 324.530895 1005.307164 
L 338.148954 998.960449 
L 361.052055 987.071019 
L 380.39589 975.71884 
L 386.895418 971.727654 
L 430.844611 945.228628 
L 456.378474 930.299738 
L 463.342254 925.99302 
L 486.090604 911.187639 
L 493.054385 906.402624 
L 498.161157 902.766316 
L 498.161157 902.766316 
" clip-path="url(#pfc68897545)" style="fill: none; stroke: #1f77b4; stroke-width: 1.5; stroke-linecap: square"/>
   </g>
   <g id="line2d_55">
    <path d="M 152.293388 1084.299982 
L 152.60289 1056.980726 
L 153.067142 1039.901545 
L 153.221893 1038.757269 
L 153.686145 1033.07359 
L 153.995646 1029.299072 
L 154.459898 1028.769413 
L 154.769399 1028.421773 
L 154.92415 1028.602152 
L 155.388402 1030.176527 
L 155.852654 1032.360873 
L 156.935909 1035.474231 
L 157.400161 1037.194763 
L 158.019164 1040.363224 
L 158.792917 1043.560968 
L 159.41192 1046.188256 
L 159.721421 1046.947357 
L 160.649925 1049.90509 
L 161.423679 1051.959187 
L 162.971185 1055.306526 
L 163.280687 1055.873398 
L 163.590188 1056.293601 
L 164.05444 1056.976382 
L 164.363941 1057.3463 
L 165.137695 1058.152879 
L 165.447196 1058.427726 
L 165.756698 1058.731896 
L 168.851711 1061.042478 
L 170.399218 1061.643238 
L 171.637223 1062.021558 
L 173.958484 1062.840784 
L 174.886988 1063.040041 
L 176.279744 1063.010691 
L 176.743996 1062.916554 
L 177.208248 1062.869268 
L 181.077015 1061.553713 
L 181.850768 1061.311502 
L 183.862527 1060.658831 
L 184.326779 1060.641699 
L 184.945782 1060.563157 
L 186.80279 1060.199998 
L 190.362056 1058.463726 
L 191.135809 1058.182968 
L 193.147568 1057.270224 
L 195.159327 1056.410355 
L 198.873343 1054.57483 
L 201.194603 1053.339331 
L 202.74211 1052.611487 
L 203.515863 1052.199017 
L 208.003633 1049.940022 
L 209.086888 1049.399451 
L 211.562899 1048.24774 
L 213.265156 1047.502617 
L 214.967414 1046.877243 
L 217.907677 1045.961194 
L 219.764685 1045.33652 
L 221.776444 1044.627467 
L 223.1692 1044.010912 
L 227.656969 1042.322332 
L 230.751983 1041.232095 
L 234.930251 1039.93597 
L 236.94201 1039.262685 
L 238.334766 1038.849901 
L 241.739281 1037.673809 
L 244.524793 1036.861621 
L 248.084059 1035.808933 
L 249.631566 1035.343557 
L 250.869571 1034.933417 
L 262.166371 1031.128629 
L 264.487631 1030.313619 
L 267.273143 1029.466033 
L 268.82065 1028.980449 
L 273.927422 1027.214405 
L 275.62968 1026.548353 
L 277.641439 1025.822242 
L 286.771729 1022.890422 
L 293.580759 1020.639272 
L 296.830523 1019.40782 
L 301.318293 1017.770573 
L 304.722808 1016.547843 
L 315.555355 1012.2427 
L 321.900133 1009.715309 
L 330.875673 1005.951378 
L 336.756198 1003.433265 
L 339.232209 1002.463222 
L 341.70822 1001.440327 
L 345.267486 999.948295 
L 359.81405 993.379764 
L 370.337096 988.231734 
L 374.360613 986.197204 
L 393.859199 975.64817 
L 397.418465 973.504562 
L 415.679045 961.925942 
L 425.583088 955.188756 
L 454.676216 934.272423 
L 468.449027 923.798618 
L 478.972073 916.335661 
L 493.209135 906.385138 
L 498.161157 902.766316 
L 498.161157 902.766316 
" clip-path="url(#pfc68897545)" style="fill: none; stroke: #ff7f0e; stroke-width: 1.5; stroke-linecap: square"/>
   </g>
   <g id="line2d_56">
    <path d="M 152.293388 1119.870768 
L 152.60289 1085.229208 
L 153.067142 1059.303792 
L 153.531394 1046.845964 
L 154.150397 1036.62638 
L 154.769399 1033.465833 
L 155.078901 1033.03603 
L 155.543153 1033.777099 
L 155.697903 1033.893895 
L 156.626407 1036.121196 
L 157.090659 1038.014054 
L 158.019164 1042.431975 
L 159.56667 1047.788354 
L 160.959426 1052.048979 
L 161.887931 1054.449691 
L 162.352183 1055.37063 
L 165.756698 1061.190122 
L 166.3757 1062.154901 
L 167.768456 1063.789287 
L 168.851711 1064.635487 
L 169.934966 1065.362187 
L 173.494232 1067.403414 
L 175.041738 1067.92425 
L 176.898746 1068.239465 
L 178.291503 1068.254167 
L 178.755755 1068.215073 
L 179.374757 1068.125741 
L 179.99376 1068.046573 
L 182.934023 1067.390677 
L 185.874286 1066.925835 
L 186.957541 1066.697708 
L 188.040795 1066.47037 
L 188.969299 1066.223639 
L 190.362056 1065.825457 
L 191.909562 1065.240934 
L 193.921321 1064.433948 
L 195.468828 1063.69744 
L 198.563842 1061.991487 
L 200.5756 1060.943327 
L 201.349354 1060.490747 
L 204.753869 1058.727125 
L 206.920378 1057.964131 
L 208.467885 1057.332709 
L 213.265156 1055.719989 
L 216.205419 1054.628841 
L 217.907677 1054.061862 
L 220.538438 1053.166777 
L 222.859698 1052.369405 
L 223.942953 1051.919406 
L 227.037967 1050.815117 
L 228.121221 1050.432008 
L 239.882273 1046.224906 
L 243.441539 1045.227871 
L 244.989045 1044.825144 
L 249.322064 1043.779734 
L 251.024322 1043.429552 
L 253.964585 1042.721874 
L 255.20259 1042.456332 
L 261.702119 1041.119304 
L 264.023379 1040.583621 
L 280.426951 1036.13615 
L 284.450469 1034.879484 
L 298.997033 1030.474921 
L 301.627794 1029.700717 
L 303.794304 1029.024742 
L 305.806062 1028.388627 
L 319.733624 1023.312255 
L 323.292889 1021.904564 
L 325.459399 1021.006722 
L 332.423179 1017.993705 
L 344.493732 1012.155025 
L 348.052998 1010.247421 
L 350.993261 1008.604839 
L 357.183288 1005.154804 
L 366.158827 999.88035 
L 378.693632 992.432244 
L 388.133424 986.571153 
L 395.251955 981.782309 
L 400.049226 978.304346 
L 404.227495 975.294095 
L 410.881774 970.046485 
L 418.155056 964.12049 
L 423.880831 959.517621 
L 433.011121 952.081174 
L 438.427395 947.613835 
L 450.188446 938.378613 
L 484.388347 912.973247 
L 492.590133 906.845299 
L 498.161157 902.766316 
L 498.161157 902.766316 
" clip-path="url(#pfc68897545)" style="fill: none; stroke: #2ca02c; stroke-width: 1.5; stroke-linecap: square"/>
   </g>
   <g id="line2d_57">
    <path d="M 152.293388 1110.058137 
L 152.60289 1079.802526 
L 153.067142 1057.389586 
L 153.531394 1043.500749 
L 154.150397 1031.711487 
L 154.614649 1026.769253 
L 155.078901 1023.95113 
L 155.233651 1023.996907 
L 155.388402 1024.298507 
L 155.543153 1024.278716 
L 155.697903 1023.930972 
L 156.007405 1024.233302 
L 156.162155 1024.206197 
L 156.316906 1024.346296 
L 156.471657 1024.313109 
L 156.626407 1023.863098 
L 157.400161 1025.532426 
L 157.864413 1027.23845 
L 158.173914 1027.963131 
L 160.495174 1035.486687 
L 162.042681 1039.068145 
L 162.506933 1040.068251 
L 162.661684 1040.246452 
L 163.280687 1041.691855 
L 163.590188 1042.133698 
L 166.22095 1046.876461 
L 166.839952 1047.793709 
L 167.923207 1049.668261 
L 169.470714 1051.490989 
L 171.482473 1053.216244 
L 172.565727 1054.035923 
L 173.494232 1054.951781 
L 174.886988 1055.892962 
L 175.660741 1056.382109 
L 177.362999 1057.33235 
L 179.839009 1058.234092 
L 180.767513 1058.469498 
L 184.172028 1058.437322 
L 184.48153 1058.373232 
L 186.648039 1058.233307 
L 188.040795 1057.772812 
L 188.814549 1057.578725 
L 190.052554 1057.416287 
L 190.671557 1057.323756 
L 191.44531 1057.219106 
L 192.373814 1056.916824 
L 196.861584 1055.714406 
L 197.790088 1055.551544 
L 201.194603 1054.16561 
L 202.123107 1053.733209 
L 203.206362 1053.23814 
L 203.825365 1052.973145 
L 212.181901 1049.466925 
L 213.265156 1048.982981 
L 214.19366 1048.686373 
L 214.967414 1048.38259 
L 218.68143 1046.876621 
L 220.228937 1046.148819 
L 221.776444 1045.498709 
L 222.859698 1045.156087 
L 224.871457 1044.46725 
L 231.835238 1042.396238 
L 233.227994 1041.883848 
L 236.787259 1040.830126 
L 239.572772 1040.178669 
L 241.739281 1039.647428 
L 244.215292 1038.850411 
L 247.774558 1037.726073 
L 250.250569 1036.774186 
L 251.179073 1036.463408 
L 255.04784 1034.991681 
L 261.702119 1032.698151 
L 262.630623 1032.3859 
L 264.023379 1031.84149 
L 265.106634 1031.463915 
L 270.98716 1029.653775 
L 274.546425 1028.596161 
L 275.939181 1028.087408 
L 278.569943 1027.15331 
L 281.200704 1026.135892 
L 284.140967 1024.964051 
L 301.318293 1018.098501 
L 303.175301 1017.474628 
L 305.496561 1016.497661 
L 307.663071 1015.599585 
L 309.365328 1014.88743 
L 311.377087 1013.957924 
L 325.614149 1007.110464 
L 334.74444 1002.588759 
L 336.137196 1001.869927 
L 352.540768 993.790347 
L 353.778773 993.148051 
L 360.123551 989.775009 
L 362.599562 988.444978 
L 365.385074 986.943706 
L 379.931638 978.741405 
L 391.537939 972.020122 
L 393.085446 971.079172 
L 396.33521 969.195897 
L 400.203977 966.903179 
L 402.834738 965.312681 
L 406.858256 962.805744 
L 418.000305 955.542437 
L 421.559571 953.272849 
L 428.678102 948.836247 
L 445.700677 937.931926 
L 449.259942 935.598846 
L 467.05627 923.830814 
L 471.389289 920.994251 
L 477.269815 917.01052 
L 495.530395 904.666008 
L 498.161157 902.766316 
L 498.161157 902.766316 
" clip-path="url(#pfc68897545)" style="fill: none; stroke: #d62728; stroke-width: 1.5; stroke-linecap: square"/>
   </g>
   <g id="patch_35">
    <path d="M 135 1153.44 
L 135 890.829474 
" style="fill: none; stroke: #000000; stroke-width: 0.8; stroke-linejoin: miter; stroke-linecap: square"/>
   </g>
   <g id="patch_36">
    <path d="M 515.454545 1153.44 
L 515.454545 890.829474 
" style="fill: none; stroke: #000000; stroke-width: 0.8; stroke-linejoin: miter; stroke-linecap: square"/>
   </g>
   <g id="patch_37">
    <path d="M 135 1153.44 
L 515.454545 1153.44 
" style="fill: none; stroke: #000000; stroke-width: 0.8; stroke-linejoin: miter; stroke-linecap: square"/>
   </g>
   <g id="patch_38">
    <path d="M 135 890.829474 
L 515.454545 890.829474 
" style="fill: none; stroke: #000000; stroke-width: 0.8; stroke-linejoin: miter; stroke-linecap: square"/>
   </g>
   <g id="text_58">
    <!-- e -->
    <g transform="translate(89.376307 872.71352) scale(0.28 -0.28)">
     <defs>
      <path id="DejaVuSans-Bold-65" d="M 4031 1759 
L 4031 1441 
L 1416 1441 
Q 1456 1047 1700 850 
Q 1944 653 2381 653 
Q 2734 653 3104 758 
Q 3475 863 3866 1075 
L 3866 213 
Q 3469 63 3072 -14 
Q 2675 -91 2278 -91 
Q 1328 -91 801 392 
Q 275 875 275 1747 
Q 275 2603 792 3093 
Q 1309 3584 2216 3584 
Q 3041 3584 3536 3087 
Q 4031 2591 4031 1759 
z
M 2881 2131 
Q 2881 2450 2695 2645 
Q 2509 2841 2209 2841 
Q 1884 2841 1681 2658 
Q 1478 2475 1428 2131 
L 2881 2131 
z
" transform="scale(0.015625)"/>
     </defs>
     <use xlink:href="#DejaVuSans-Bold-65"/>
    </g>
   </g>
   <g id="text_59">
    <!-- $Q_{NN}$ -->
    <g transform="translate(302.787273 884.829474) scale(0.24 -0.24)">
     <use xlink:href="#DejaVuSans-Oblique-51" transform="translate(0 0.78125)"/>
     <use xlink:href="#DejaVuSans-Oblique-4e" transform="translate(78.710938 -15.625) scale(0.7)"/>
     <use xlink:href="#DejaVuSans-Oblique-4e" transform="translate(131.074219 -15.625) scale(0.7)"/>
    </g>
   </g>
  </g>
  <g id="axes_6">
   <g id="patch_39">
    <path d="M 591.545455 1153.44 
L 972 1153.44 
L 972 890.829474 
L 591.545455 890.829474 
z
" style="fill: #ffffff"/>
   </g>
   <g id="matplotlib.axis_11">
    <g id="xtick_21">
     <g id="line2d_58">
      <g>
       <use xlink:href="#m6b383f0f85" x="608.684092" y="1153.44" style="stroke: #000000; stroke-width: 0.8"/>
      </g>
     </g>
     <g id="text_60">
      <!-- 0 -->
      <g transform="translate(601.685342 1177.156562) scale(0.22 -0.22)">
       <use xlink:href="#DejaVuSans-30"/>
      </g>
     </g>
    </g>
    <g id="xtick_22">
     <g id="line2d_59">
      <g>
       <use xlink:href="#m6b383f0f85" x="686.059432" y="1153.44" style="stroke: #000000; stroke-width: 0.8"/>
      </g>
     </g>
     <g id="text_61">
      <!-- 500 -->
      <g transform="translate(665.063182 1177.156562) scale(0.22 -0.22)">
       <use xlink:href="#DejaVuSans-35"/>
       <use xlink:href="#DejaVuSans-30" x="63.623047"/>
       <use xlink:href="#DejaVuSans-30" x="127.246094"/>
      </g>
     </g>
    </g>
    <g id="xtick_23">
     <g id="line2d_60">
      <g>
       <use xlink:href="#m6b383f0f85" x="763.434772" y="1153.44" style="stroke: #000000; stroke-width: 0.8"/>
      </g>
     </g>
     <g id="text_62">
      <!-- 1000 -->
      <g transform="translate(735.439772 1177.156562) scale(0.22 -0.22)">
       <use xlink:href="#DejaVuSans-31"/>
       <use xlink:href="#DejaVuSans-30" x="63.623047"/>
       <use xlink:href="#DejaVuSans-30" x="127.246094"/>
       <use xlink:href="#DejaVuSans-30" x="190.869141"/>
      </g>
     </g>
    </g>
    <g id="xtick_24">
     <g id="line2d_61">
      <g>
       <use xlink:href="#m6b383f0f85" x="840.810111" y="1153.44" style="stroke: #000000; stroke-width: 0.8"/>
      </g>
     </g>
     <g id="text_63">
      <!-- 1500 -->
      <g transform="translate(812.815111 1177.156562) scale(0.22 -0.22)">
       <use xlink:href="#DejaVuSans-31"/>
       <use xlink:href="#DejaVuSans-35" x="63.623047"/>
       <use xlink:href="#DejaVuSans-30" x="127.246094"/>
       <use xlink:href="#DejaVuSans-30" x="190.869141"/>
      </g>
     </g>
    </g>
    <g id="xtick_25">
     <g id="line2d_62">
      <g>
       <use xlink:href="#m6b383f0f85" x="918.185451" y="1153.44" style="stroke: #000000; stroke-width: 0.8"/>
      </g>
     </g>
     <g id="text_64">
      <!-- 2000 -->
      <g transform="translate(890.190451 1177.156562) scale(0.22 -0.22)">
       <use xlink:href="#DejaVuSans-32"/>
       <use xlink:href="#DejaVuSans-30" x="63.623047"/>
       <use xlink:href="#DejaVuSans-30" x="127.246094"/>
       <use xlink:href="#DejaVuSans-30" x="190.869141"/>
      </g>
     </g>
    </g>
    <g id="text_65">
     <!-- k -->
     <g transform="translate(774.823977 1203.968125) scale(0.24 -0.24)">
      <use xlink:href="#DejaVuSans-6b"/>
     </g>
    </g>
   </g>
   <g id="matplotlib.axis_12">
    <g id="ytick_22">
     <g id="line2d_63">
      <g>
       <use xlink:href="#m98ce3073fe" x="591.545455" y="1132.670101" style="stroke: #000000; stroke-width: 0.8"/>
      </g>
     </g>
     <g id="text_66">
      <!-- 0.0 -->
      <g transform="translate(549.55858 1141.028382) scale(0.22 -0.22)">
       <use xlink:href="#DejaVuSans-30"/>
       <use xlink:href="#DejaVuSans-2e" x="63.623047"/>
       <use xlink:href="#DejaVuSans-30" x="95.410156"/>
      </g>
     </g>
    </g>
    <g id="ytick_23">
     <g id="line2d_64">
      <g>
       <use xlink:href="#m98ce3073fe" x="591.545455" y="1041.741203" style="stroke: #000000; stroke-width: 0.8"/>
      </g>
     </g>
     <g id="text_67">
      <!-- 0.2 -->
      <g transform="translate(549.55858 1050.099485) scale(0.22 -0.22)">
       <use xlink:href="#DejaVuSans-30"/>
       <use xlink:href="#DejaVuSans-2e" x="63.623047"/>
       <use xlink:href="#DejaVuSans-32" x="95.410156"/>
      </g>
     </g>
    </g>
    <g id="ytick_24">
     <g id="line2d_65">
      <g>
       <use xlink:href="#m98ce3073fe" x="591.545455" y="950.812306" style="stroke: #000000; stroke-width: 0.8"/>
      </g>
     </g>
     <g id="text_68">
      <!-- 0.4 -->
      <g transform="translate(549.55858 959.170587) scale(0.22 -0.22)">
       <use xlink:href="#DejaVuSans-30"/>
       <use xlink:href="#DejaVuSans-2e" x="63.623047"/>
       <use xlink:href="#DejaVuSans-34" x="95.410156"/>
      </g>
     </g>
    </g>
   </g>
   <g id="line2d_66">
    <path d="M 608.838843 1113.362536 
L 609.148344 1097.984339 
L 609.767347 1082.325661 
L 610.695851 1065.680752 
L 611.624355 1054.007838 
L 612.088607 1050.027943 
L 612.243358 1049.264885 
L 612.862361 1044.572436 
L 613.945615 1037.438029 
L 615.183621 1031.315983 
L 615.957374 1027.798991 
L 616.576377 1025.970547 
L 618.278634 1022.490976 
L 618.433385 1022.333461 
L 619.671391 1020.002284 
L 620.135643 1019.492217 
L 620.445144 1019.216451 
L 620.754645 1018.978287 
L 621.064147 1018.701231 
L 621.528399 1018.210303 
L 623.540158 1016.216824 
L 624.00441 1015.919617 
L 625.242415 1015.021839 
L 625.706667 1014.921874 
L 626.789922 1014.408098 
L 627.254174 1014.082885 
L 628.182678 1013.645096 
L 628.492179 1013.525235 
L 628.801681 1013.4888 
L 629.265933 1013.150455 
L 630.658689 1012.61057 
L 630.813439 1012.638796 
L 631.896694 1012.138926 
L 633.598952 1011.60888 
L 633.908453 1011.494931 
L 637.622469 1009.915838 
L 638.241472 1009.762229 
L 638.705724 1009.611118 
L 640.407982 1009.283318 
L 641.181735 1009.183098 
L 641.645987 1009.004054 
L 641.955488 1009.017608 
L 642.729242 1008.800537 
L 643.657746 1008.524519 
L 644.58625 1008.314492 
L 645.824255 1008.042366 
L 646.443258 1007.94633 
L 647.371762 1007.834481 
L 648.455017 1007.7959 
L 648.919269 1007.807593 
L 650.312025 1007.833591 
L 650.621526 1007.907054 
L 651.085778 1007.90806 
L 651.39528 1007.913386 
L 652.169033 1008.034508 
L 654.026041 1008.307844 
L 655.88305 1008.603737 
L 656.966304 1008.630485 
L 661.454074 1009.514138 
L 663.930085 1010.414467 
L 664.703838 1010.658856 
L 665.632342 1010.98358 
L 667.48935 1011.575039 
L 669.346359 1012.512462 
L 669.965361 1012.746633 
L 677.857646 1016.424672 
L 681.262161 1018.257396 
L 682.964418 1019.336718 
L 684.202424 1020.214043 
L 686.833185 1022.087862 
L 692.094709 1025.927262 
L 703.701009 1035.006927 
L 704.784264 1035.926445 
L 708.188779 1038.778633 
L 709.581535 1039.960036 
L 712.367048 1042.265304 
L 714.533557 1044.151492 
L 716.390565 1045.786713 
L 717.47382 1046.732609 
L 731.865633 1058.686281 
L 738.210411 1063.804383 
L 739.603167 1064.95375 
L 741.614926 1066.515856 
L 743.317183 1067.785282 
L 749.35246 1072.091961 
L 751.054717 1073.25875 
L 763.589522 1081.541942 
L 780.457346 1091.116808 
L 788.04013 1094.753367 
L 789.432886 1095.406137 
L 794.384908 1097.625182 
L 798.408425 1099.260946 
L 801.967691 1100.67813 
L 810.78848 1104.041456 
L 812.800239 1104.735221 
L 817.907011 1106.259093 
L 819.609268 1106.739203 
L 830.287065 1109.462749 
L 835.548588 1110.620827 
L 845.607383 1112.57422 
L 848.238144 1113.059647 
L 852.880664 1113.998387 
L 873.926757 1118.457027 
L 880.426285 1119.953464 
L 891.877836 1122.780463 
L 902.865134 1125.553353 
L 915.864191 1128.537364 
L 923.137473 1129.769013 
L 945.731072 1132.446567 
L 947.58808 1132.552143 
L 954.706612 1132.670101 
L 954.706612 1132.670101 
" clip-path="url(#pd19ee41864)" style="fill: none; stroke: #1f77b4; stroke-width: 1.5; stroke-linecap: square"/>
   </g>
   <g id="line2d_67">
    <path d="M 608.838843 1009.101194 
L 609.148344 959.714424 
L 609.612596 929.195051 
L 609.767347 927.312766 
L 610.231599 917.563399 
L 610.5411 911.090435 
L 610.695851 910.875562 
L 610.850602 910.996256 
L 611.005352 910.73504 
L 611.160103 910.697024 
L 611.314854 910.508073 
L 611.469605 911.040171 
L 611.933857 914.519692 
L 612.398109 919.110977 
L 613.790865 928.24598 
L 614.874119 939.068757 
L 616.112125 949.823341 
L 616.885878 954.948616 
L 617.504881 959.43052 
L 618.123884 963.011493 
L 619.980892 972.201857 
L 620.754645 975.433139 
L 621.218897 976.791037 
L 622.147401 979.805292 
L 623.230656 982.714589 
L 623.849659 984.441421 
L 625.551916 988.796485 
L 626.170919 990.238972 
L 627.563675 992.644877 
L 629.265933 996.098288 
L 631.587193 1000.248963 
L 632.360946 1001.289664 
L 632.825198 1001.814331 
L 633.28945 1002.252741 
L 633.753702 1002.776543 
L 635.765461 1004.195154 
L 637.158217 1005.183395 
L 637.467719 1005.310019 
L 638.241472 1005.931556 
L 640.407982 1007.490854 
L 640.872234 1008.069618 
L 641.336486 1008.569322 
L 643.193494 1010.455637 
L 646.90751 1012.029782 
L 647.526513 1012.458324 
L 652.169033 1014.867227 
L 653.71654 1015.590676 
L 654.490293 1015.868522 
L 656.966304 1016.621927 
L 657.585307 1016.854817 
L 663.930085 1019.535149 
L 665.477592 1020.040116 
L 670.120112 1022.2924 
L 671.512868 1023.241054 
L 673.988879 1025.13847 
L 675.845887 1026.373207 
L 676.929142 1027.140466 
L 678.167147 1027.972028 
L 679.095651 1028.530071 
L 682.035914 1030.287849 
L 682.809668 1030.758354 
L 683.892923 1031.413273 
L 687.91644 1034.161058 
L 690.392451 1036.02546 
L 693.642215 1038.377364 
L 695.189722 1039.509343 
L 695.963476 1040.065156 
L 697.820484 1041.314183 
L 699.21324 1042.343989 
L 707.260275 1048.551534 
L 708.188779 1049.20227 
L 709.272034 1049.988606 
L 719.176077 1056.855883 
L 723.354346 1059.805282 
L 725.056603 1061.176615 
L 725.520855 1061.491658 
L 727.223113 1062.66039 
L 729.080121 1063.989783 
L 730.318126 1064.791368 
L 731.710882 1065.602592 
L 732.639387 1066.1804 
L 733.41314 1066.667403 
L 740.376921 1071.691841 
L 752.137972 1080.007944 
L 753.99498 1081.104738 
L 756.470991 1082.749171 
L 759.101753 1084.481992 
L 760.80401 1085.607294 
L 762.042016 1086.357611 
L 766.994037 1089.475076 
L 772.565062 1092.533774 
L 773.957818 1093.346902 
L 786.183122 1100.314849 
L 788.504382 1101.479267 
L 797.634672 1106.599604 
L 804.907954 1110.617613 
L 807.383965 1111.760648 
L 814.811997 1115.336922 
L 817.75226 1116.618966 
L 821.930529 1118.374122 
L 825.025542 1119.713584 
L 826.418298 1120.306116 
L 828.275306 1121.019984 
L 832.298824 1122.54683 
L 846.845388 1127.434401 
L 853.499667 1129.155859 
L 863.094209 1130.808162 
L 865.879722 1131.171902 
L 869.593738 1131.833193 
L 872.224499 1132.122807 
L 879.343031 1132.71752 
L 893.270592 1133.116417 
L 894.663348 1133.111587 
L 896.829857 1133.116697 
L 901.162876 1133.135349 
L 904.567391 1133.164905 
L 909.055161 1133.043272 
L 914.161934 1132.614164 
L 921.899468 1132.033484 
L 930.256004 1132.008369 
L 934.279522 1132.089248 
L 938.612541 1132.404026 
L 943.719313 1132.711336 
L 949.445088 1132.771583 
L 954.706612 1132.670101 
L 954.706612 1132.670101 
" clip-path="url(#pd19ee41864)" style="fill: none; stroke: #ff7f0e; stroke-width: 1.5; stroke-linecap: square"/>
   </g>
   <g id="line2d_68">
    <path d="M 608.838843 1073.93427 
L 609.148344 1011.201506 
L 609.612596 964.558547 
L 610.076848 942.46228 
L 610.695851 924.648878 
L 611.160103 920.198423 
L 611.469605 919.293911 
L 611.624355 919.324904 
L 612.088607 921.285601 
L 612.243358 921.701809 
L 613.171862 926.981375 
L 613.636114 931.04138 
L 614.564618 940.313678 
L 616.421626 954.645863 
L 618.897637 969.589534 
L 622.456903 985.412499 
L 623.075905 987.804481 
L 625.861418 996.228436 
L 628.801681 1003.448819 
L 630.349187 1006.760617 
L 633.1347 1011.735697 
L 636.539215 1015.872885 
L 639.324727 1018.336684 
L 639.788979 1018.835385 
L 640.717483 1019.734465 
L 641.800738 1021.0271 
L 643.193494 1022.229799 
L 643.967247 1022.957197 
L 646.288507 1025.06612 
L 649.07402 1026.804238 
L 649.538272 1027.067824 
L 650.776277 1027.738586 
L 651.704781 1028.115279 
L 652.169033 1028.337382 
L 652.788036 1028.581566 
L 653.407039 1028.826033 
L 656.811554 1029.823754 
L 657.585307 1030.09812 
L 658.35906 1030.266449 
L 660.370819 1030.946739 
L 660.835071 1031.19487 
L 661.299323 1031.419497 
L 662.84683 1032.481533 
L 663.620584 1032.942615 
L 664.239586 1033.317415 
L 664.858589 1033.642531 
L 668.882107 1036.51723 
L 676.46489 1041.52822 
L 679.405153 1043.621138 
L 680.178906 1044.02621 
L 685.59518 1047.632367 
L 687.606939 1048.981404 
L 691.011454 1051.029957 
L 691.939958 1051.529005 
L 696.427728 1054.788103 
L 699.36799 1057.163389 
L 703.85576 1060.888302 
L 707.415026 1064.192761 
L 715.616812 1071.761363 
L 718.247573 1074.151822 
L 719.640329 1075.398209 
L 721.033086 1076.617073 
L 723.818598 1078.894279 
L 734.496395 1087.763046 
L 745.019441 1095.632049 
L 747.804953 1097.759076 
L 758.173249 1105.798719 
L 759.566005 1106.833413 
L 762.506268 1108.999949 
L 765.137029 1110.808017 
L 767.61304 1112.501937 
L 776.898081 1118.29821 
L 777.981336 1118.934831 
L 785.254618 1123.102438 
L 786.492623 1123.703628 
L 788.19488 1124.550686 
L 802.586694 1130.685914 
L 804.443702 1131.293166 
L 813.883493 1134.096962 
L 818.216512 1135.236836 
L 837.715098 1139.577546 
L 848.083393 1141.253059 
L 851.487908 1141.473211 
L 855.820927 1141.425087 
L 863.403711 1141.261765 
L 865.57022 1140.972439 
L 869.129486 1140.302928 
L 872.224499 1139.78059 
L 880.735787 1138.466003 
L 886.925814 1137.52576 
L 891.104082 1136.665441 
L 896.984608 1135.628592 
L 908.126657 1134.455923 
L 912.304925 1134.298969 
L 915.70944 1134.147616 
L 918.804454 1133.935785 
L 927.00624 1133.703518 
L 933.196267 1133.49213 
L 937.838788 1133.314818 
L 944.647817 1132.982297 
L 954.706612 1132.670101 
L 954.706612 1132.670101 
" clip-path="url(#pd19ee41864)" style="fill: none; stroke: #2ca02c; stroke-width: 1.5; stroke-linecap: square"/>
   </g>
   <g id="line2d_69">
    <path d="M 608.838843 1056.049283 
L 609.148344 1001.310567 
L 609.612596 961.06962 
L 610.076848 936.365126 
L 610.695851 915.690751 
L 611.005352 909.569806 
L 611.469605 904.028443 
L 611.624355 902.766316 
L 611.779106 903.05308 
L 611.933857 903.806121 
L 612.088607 903.973378 
L 612.243358 903.542892 
L 612.552859 904.500592 
L 612.70761 904.654519 
L 613.017111 905.256041 
L 613.171862 904.639158 
L 614.100366 910.045847 
L 615.647873 921.202291 
L 617.504881 933.683413 
L 618.588136 939.469159 
L 619.826141 945.877897 
L 620.135643 947.08988 
L 622.921155 959.764487 
L 623.385407 961.676015 
L 624.468662 966.515971 
L 626.170919 972.337798 
L 631.432442 987.011242 
L 632.670448 989.981927 
L 634.063204 993.207641 
L 635.610711 996.30355 
L 635.920212 997.003625 
L 636.229713 997.523554 
L 638.086721 1000.478598 
L 639.015225 1001.635387 
L 641.800738 1005.017796 
L 643.812497 1007.149338 
L 645.514754 1008.572796 
L 646.288507 1009.494539 
L 646.752759 1009.833145 
L 648.145516 1011.329618 
L 652.014283 1014.342524 
L 653.71654 1015.895883 
L 654.180792 1016.409847 
L 654.799795 1016.790553 
L 655.264047 1017.091899 
L 656.0378 1017.546709 
L 657.121055 1018.192171 
L 657.894808 1018.46236 
L 663.775334 1021.464214 
L 665.632342 1022.653225 
L 667.644101 1023.597138 
L 669.036857 1024.497733 
L 669.810611 1024.842453 
L 670.429613 1025.272162 
L 671.203367 1025.809416 
L 672.441372 1026.517908 
L 673.524627 1027.33558 
L 674.29838 1027.781021 
L 676.774391 1028.826591 
L 678.012397 1029.47293 
L 678.78615 1030.018414 
L 679.559903 1030.566198 
L 684.821427 1034.546089 
L 687.142687 1036.271306 
L 692.558961 1040.215107 
L 693.796966 1041.294184 
L 694.72547 1042.067501 
L 698.748988 1045.598993 
L 701.689251 1047.789641 
L 702.927256 1048.787294 
L 706.17702 1050.726443 
L 709.736286 1052.966286 
L 710.974291 1053.809696 
L 714.688308 1056.130147 
L 716.235815 1057.211606 
L 716.854817 1057.656351 
L 719.640329 1059.757916 
L 720.414083 1060.205766 
L 721.497338 1060.924316 
L 723.818598 1062.584937 
L 727.687365 1065.582497 
L 729.389622 1066.818511 
L 730.937129 1068.09509 
L 734.805896 1070.675645 
L 736.508154 1071.652331 
L 737.591408 1072.357879 
L 739.293666 1073.372041 
L 744.400438 1076.268983 
L 745.793194 1077.088292 
L 746.721698 1077.634132 
L 748.423956 1078.758262 
L 749.971463 1079.698493 
L 750.745216 1080.131379 
L 751.828471 1080.765114 
L 753.221227 1081.515397 
L 758.327999 1084.600773 
L 759.566005 1085.454184 
L 761.887265 1086.741555 
L 763.899024 1087.822868 
L 765.137029 1088.554307 
L 766.994037 1089.50289 
L 773.184065 1092.354383 
L 778.136086 1094.617033 
L 779.219341 1095.044076 
L 786.647374 1098.06397 
L 790.206639 1099.555111 
L 791.444645 1099.929908 
L 793.456404 1100.724481 
L 794.84916 1101.294206 
L 795.932414 1101.659064 
L 799.646431 1103.218311 
L 803.824699 1104.949104 
L 805.062705 1105.496394 
L 809.086222 1107.242065 
L 809.859976 1107.538695 
L 812.026485 1108.33611 
L 824.870792 1112.509456 
L 826.263548 1112.899751 
L 827.346802 1113.189832 
L 833.69158 1114.903576 
L 838.953103 1116.437414 
L 843.131372 1117.510722 
L 847.619141 1118.754209 
L 849.785651 1119.170472 
L 857.987437 1121.093417 
L 859.070692 1121.347759 
L 860.618198 1121.633468 
L 863.24896 1122.094807 
L 864.951217 1122.446008 
L 868.046231 1122.81452 
L 873.772006 1123.462238 
L 876.557518 1123.827648 
L 880.890537 1124.573694 
L 885.99731 1125.479764 
L 887.390066 1125.697207 
L 888.937573 1125.940649 
L 892.032586 1126.430908 
L 897.913112 1127.322203 
L 901.93663 1127.801816 
L 903.948389 1128.03536 
L 907.043402 1128.442406 
L 910.293167 1128.896355 
L 915.70944 1129.474668 
L 919.113955 1129.784911 
L 932.267763 1131.062116 
L 934.898525 1131.270891 
L 947.278579 1132.401751 
L 949.290338 1132.513544 
L 950.683094 1132.661944 
L 954.706612 1132.670101 
L 954.706612 1132.670101 
" clip-path="url(#pd19ee41864)" style="fill: none; stroke: #d62728; stroke-width: 1.5; stroke-linecap: square"/>
   </g>
   <g id="patch_40">
    <path d="M 591.545455 1153.44 
L 591.545455 890.829474 
" style="fill: none; stroke: #000000; stroke-width: 0.8; stroke-linejoin: miter; stroke-linecap: square"/>
   </g>
   <g id="patch_41">
    <path d="M 972 1153.44 
L 972 890.829474 
" style="fill: none; stroke: #000000; stroke-width: 0.8; stroke-linejoin: miter; stroke-linecap: square"/>
   </g>
   <g id="patch_42">
    <path d="M 591.545455 1153.44 
L 972 1153.44 
" style="fill: none; stroke: #000000; stroke-width: 0.8; stroke-linejoin: miter; stroke-linecap: square"/>
   </g>
   <g id="patch_43">
    <path d="M 591.545455 890.829474 
L 972 890.829474 
" style="fill: none; stroke: #000000; stroke-width: 0.8; stroke-linejoin: miter; stroke-linecap: square"/>
   </g>
   <g id="text_69">
    <!-- f -->
    <g transform="translate(552.733636 872.71352) scale(0.28 -0.28)">
     <defs>
      <path id="DejaVuSans-Bold-66" d="M 2841 4863 
L 2841 4128 
L 2222 4128 
Q 1984 4128 1890 4042 
Q 1797 3956 1797 3744 
L 1797 3500 
L 2753 3500 
L 2753 2700 
L 1797 2700 
L 1797 0 
L 678 0 
L 678 2700 
L 122 2700 
L 122 3500 
L 678 3500 
L 678 3744 
Q 678 4316 997 4589 
Q 1316 4863 1984 4863 
L 2841 4863 
z
" transform="scale(0.015625)"/>
     </defs>
     <use xlink:href="#DejaVuSans-Bold-66"/>
    </g>
   </g>
   <g id="text_70">
    <!-- LCMC -->
    <g transform="translate(747.973977 884.829474) scale(0.24 -0.24)">
     <defs>
      <path id="DejaVuSans-4c" d="M 628 4666 
L 1259 4666 
L 1259 531 
L 3531 531 
L 3531 0 
L 628 0 
L 628 4666 
z
" transform="scale(0.015625)"/>
     </defs>
     <use xlink:href="#DejaVuSans-4c"/>
     <use xlink:href="#DejaVuSans-43" x="55.712891"/>
     <use xlink:href="#DejaVuSans-4d" x="125.537109"/>
     <use xlink:href="#DejaVuSans-43" x="211.816406"/>
    </g>
   </g>
  </g>
 </g>
 <defs>
  <clipPath id="pab9528c0e5">
   <rect x="135" y="155.52" width="380.454545" height="262.610526"/>
  </clipPath>
  <clipPath id="p08e6194992">
   <rect x="591.545455" y="155.52" width="380.454545" height="262.610526"/>
  </clipPath>
  <clipPath id="p45190e883f">
   <rect x="135" y="523.174737" width="380.454545" height="262.610526"/>
  </clipPath>
  <clipPath id="p2020da9971">
   <rect x="591.545455" y="523.174737" width="380.454545" height="262.610526"/>
  </clipPath>
  <clipPath id="pfc68897545">
   <rect x="135" y="890.829474" width="380.454545" height="262.610526"/>
  </clipPath>
  <clipPath id="pd19ee41864">
   <rect x="591.545455" y="890.829474" width="380.454545" height="262.610526"/>
  </clipPath>
 </defs>
</svg>
