<?xml version="1.0" encoding="utf-8" standalone="no"?>
<!DOCTYPE svg PUBLIC "-//W3C//DTD SVG 1.1//EN"
  "http://www.w3.org/Graphics/SVG/1.1/DTD/svg11.dtd">
<svg xmlns:xlink="http://www.w3.org/1999/xlink" width="1080pt" height="1296pt" viewBox="0 0 1080 1296" xmlns="http://www.w3.org/2000/svg" version="1.1">
 <metadata>
  <rdf:RDF xmlns:dc="http://purl.org/dc/elements/1.1/" xmlns:cc="http://creativecommons.org/ns#" xmlns:rdf="http://www.w3.org/1999/02/22-rdf-syntax-ns#">
   <cc:Work>
    <dc:type rdf:resource="http://purl.org/dc/dcmitype/StillImage"/>
    <dc:date>2024-07-24T00:02:54.223326</dc:date>
    <dc:format>image/svg+xml</dc:format>
    <dc:creator>
     <cc:Agent>
      <dc:title>Matplotlib v3.8.4, https://matplotlib.org/</dc:title>
     </cc:Agent>
    </dc:creator>
   </cc:Work>
  </rdf:RDF>
 </metadata>
 <defs>
  <style type="text/css">*{stroke-linejoin: round; stroke-linecap: butt}</style>
 </defs>
 <g id="figure_1">
  <g id="patch_1">
   <path d="M 0 1296 
L 1080 1296 
L 1080 0 
L 0 0 
z
" style="fill: #ffffff"/>
  </g>
  <g id="axes_1">
   <g id="patch_2">
    <path d="M 135 418.130526 
L 515.454545 418.130526 
L 515.454545 155.52 
L 135 155.52 
z
" style="fill: #ffffff"/>
   </g>
   <g id="matplotlib.axis_1">
    <g id="xtick_1">
     <g id="line2d_1">
      <defs>
       <path id="mcfc8a2aebd" d="M 0 0 
L 0 3.5 
" style="stroke: #000000; stroke-width: 0.8"/>
      </defs>
      <g>
       <use xlink:href="#mcfc8a2aebd" x="137.882231" y="418.130526" style="stroke: #000000; stroke-width: 0.8"/>
      </g>
     </g>
     <g id="text_1">
      <!-- 0 -->
      <g transform="translate(131.519731 440.327401) scale(0.2 -0.2)">
       <defs>
        <path id="DejaVuSans-30" d="M 2034 4250 
Q 1547 4250 1301 3770 
Q 1056 3291 1056 2328 
Q 1056 1369 1301 889 
Q 1547 409 2034 409 
Q 2525 409 2770 889 
Q 3016 1369 3016 2328 
Q 3016 3291 2770 3770 
Q 2525 4250 2034 4250 
z
M 2034 4750 
Q 2819 4750 3233 4129 
Q 3647 3509 3647 2328 
Q 3647 1150 3233 529 
Q 2819 -91 2034 -91 
Q 1250 -91 836 529 
Q 422 1150 422 2328 
Q 422 3509 836 4129 
Q 1250 4750 2034 4750 
z
" transform="scale(0.015625)"/>
       </defs>
       <use xlink:href="#DejaVuSans-30"/>
      </g>
     </g>
    </g>
    <g id="xtick_2">
     <g id="line2d_2">
      <g>
       <use xlink:href="#mcfc8a2aebd" x="209.938017" y="418.130526" style="stroke: #000000; stroke-width: 0.8"/>
      </g>
     </g>
     <g id="text_2">
      <!-- 10 -->
      <g transform="translate(197.213017 440.327401) scale(0.2 -0.2)">
       <defs>
        <path id="DejaVuSans-31" d="M 794 531 
L 1825 531 
L 1825 4091 
L 703 3866 
L 703 4441 
L 1819 4666 
L 2450 4666 
L 2450 531 
L 3481 531 
L 3481 0 
L 794 0 
L 794 531 
z
" transform="scale(0.015625)"/>
       </defs>
       <use xlink:href="#DejaVuSans-31"/>
       <use xlink:href="#DejaVuSans-30" x="63.623047"/>
      </g>
     </g>
    </g>
    <g id="xtick_3">
     <g id="line2d_3">
      <g>
       <use xlink:href="#mcfc8a2aebd" x="281.993802" y="418.130526" style="stroke: #000000; stroke-width: 0.8"/>
      </g>
     </g>
     <g id="text_3">
      <!-- 20 -->
      <g transform="translate(269.268802 440.327401) scale(0.2 -0.2)">
       <defs>
        <path id="DejaVuSans-32" d="M 1228 531 
L 3431 531 
L 3431 0 
L 469 0 
L 469 531 
Q 828 903 1448 1529 
Q 2069 2156 2228 2338 
Q 2531 2678 2651 2914 
Q 2772 3150 2772 3378 
Q 2772 3750 2511 3984 
Q 2250 4219 1831 4219 
Q 1534 4219 1204 4116 
Q 875 4013 500 3803 
L 500 4441 
Q 881 4594 1212 4672 
Q 1544 4750 1819 4750 
Q 2544 4750 2975 4387 
Q 3406 4025 3406 3419 
Q 3406 3131 3298 2873 
Q 3191 2616 2906 2266 
Q 2828 2175 2409 1742 
Q 1991 1309 1228 531 
z
" transform="scale(0.015625)"/>
       </defs>
       <use xlink:href="#DejaVuSans-32"/>
       <use xlink:href="#DejaVuSans-30" x="63.623047"/>
      </g>
     </g>
    </g>
    <g id="xtick_4">
     <g id="line2d_4">
      <g>
       <use xlink:href="#mcfc8a2aebd" x="354.049587" y="418.130526" style="stroke: #000000; stroke-width: 0.8"/>
      </g>
     </g>
     <g id="text_4">
      <!-- 30 -->
      <g transform="translate(341.324587 440.327401) scale(0.2 -0.2)">
       <defs>
        <path id="DejaVuSans-33" d="M 2597 2516 
Q 3050 2419 3304 2112 
Q 3559 1806 3559 1356 
Q 3559 666 3084 287 
Q 2609 -91 1734 -91 
Q 1441 -91 1130 -33 
Q 819 25 488 141 
L 488 750 
Q 750 597 1062 519 
Q 1375 441 1716 441 
Q 2309 441 2620 675 
Q 2931 909 2931 1356 
Q 2931 1769 2642 2001 
Q 2353 2234 1838 2234 
L 1294 2234 
L 1294 2753 
L 1863 2753 
Q 2328 2753 2575 2939 
Q 2822 3125 2822 3475 
Q 2822 3834 2567 4026 
Q 2313 4219 1838 4219 
Q 1578 4219 1281 4162 
Q 984 4106 628 3988 
L 628 4550 
Q 988 4650 1302 4700 
Q 1616 4750 1894 4750 
Q 2613 4750 3031 4423 
Q 3450 4097 3450 3541 
Q 3450 3153 3228 2886 
Q 3006 2619 2597 2516 
z
" transform="scale(0.015625)"/>
       </defs>
       <use xlink:href="#DejaVuSans-33"/>
       <use xlink:href="#DejaVuSans-30" x="63.623047"/>
      </g>
     </g>
    </g>
    <g id="xtick_5">
     <g id="line2d_5">
      <g>
       <use xlink:href="#mcfc8a2aebd" x="426.105372" y="418.130526" style="stroke: #000000; stroke-width: 0.8"/>
      </g>
     </g>
     <g id="text_5">
      <!-- 40 -->
      <g transform="translate(413.380372 440.327401) scale(0.2 -0.2)">
       <defs>
        <path id="DejaVuSans-34" d="M 2419 4116 
L 825 1625 
L 2419 1625 
L 2419 4116 
z
M 2253 4666 
L 3047 4666 
L 3047 1625 
L 3713 1625 
L 3713 1100 
L 3047 1100 
L 3047 0 
L 2419 0 
L 2419 1100 
L 313 1100 
L 313 1709 
L 2253 4666 
z
" transform="scale(0.015625)"/>
       </defs>
       <use xlink:href="#DejaVuSans-34"/>
       <use xlink:href="#DejaVuSans-30" x="63.623047"/>
      </g>
     </g>
    </g>
    <g id="xtick_6">
     <g id="line2d_6">
      <g>
       <use xlink:href="#mcfc8a2aebd" x="498.161157" y="418.130526" style="stroke: #000000; stroke-width: 0.8"/>
      </g>
     </g>
     <g id="text_6">
      <!-- 50 -->
      <g transform="translate(485.436157 440.327401) scale(0.2 -0.2)">
       <defs>
        <path id="DejaVuSans-35" d="M 691 4666 
L 3169 4666 
L 3169 4134 
L 1269 4134 
L 1269 2991 
Q 1406 3038 1543 3061 
Q 1681 3084 1819 3084 
Q 2600 3084 3056 2656 
Q 3513 2228 3513 1497 
Q 3513 744 3044 326 
Q 2575 -91 1722 -91 
Q 1428 -91 1123 -41 
Q 819 9 494 109 
L 494 744 
Q 775 591 1075 516 
Q 1375 441 1709 441 
Q 2250 441 2565 725 
Q 2881 1009 2881 1497 
Q 2881 1984 2565 2268 
Q 2250 2553 1709 2553 
Q 1456 2553 1204 2497 
Q 953 2441 691 2322 
L 691 4666 
z
" transform="scale(0.015625)"/>
       </defs>
       <use xlink:href="#DejaVuSans-35"/>
       <use xlink:href="#DejaVuSans-30" x="63.623047"/>
      </g>
     </g>
    </g>
    <g id="text_7">
     <!-- k -->
     <g transform="translate(318.278523 466.723026) scale(0.24 -0.24)">
      <defs>
       <path id="DejaVuSans-6b" d="M 581 4863 
L 1159 4863 
L 1159 1991 
L 2875 3500 
L 3609 3500 
L 1753 1863 
L 3688 0 
L 2938 0 
L 1159 1709 
L 1159 0 
L 581 0 
L 581 4863 
z
" transform="scale(0.015625)"/>
      </defs>
      <use xlink:href="#DejaVuSans-6b"/>
     </g>
    </g>
   </g>
   <g id="matplotlib.axis_2">
    <g id="ytick_1">
     <g id="line2d_7">
      <defs>
       <path id="m9f822e8b93" d="M 0 0 
L -3.5 0 
" style="stroke: #000000; stroke-width: 0.8"/>
      </defs>
      <g>
       <use xlink:href="#m9f822e8b93" x="135" y="418.130526" style="stroke: #000000; stroke-width: 0.8"/>
      </g>
     </g>
     <g id="text_8">
      <!-- 0.0 -->
      <g transform="translate(96.19375 425.728964) scale(0.2 -0.2)">
       <defs>
        <path id="DejaVuSans-2e" d="M 684 794 
L 1344 794 
L 1344 0 
L 684 0 
L 684 794 
z
" transform="scale(0.015625)"/>
       </defs>
       <use xlink:href="#DejaVuSans-30"/>
       <use xlink:href="#DejaVuSans-2e" x="63.623047"/>
       <use xlink:href="#DejaVuSans-30" x="95.410156"/>
      </g>
     </g>
    </g>
    <g id="ytick_2">
     <g id="line2d_8">
      <g>
       <use xlink:href="#m9f822e8b93" x="135" y="352.477895" style="stroke: #000000; stroke-width: 0.8"/>
      </g>
     </g>
     <g id="text_9">
      <!-- 0.2 -->
      <g transform="translate(96.19375 360.076332) scale(0.2 -0.2)">
       <use xlink:href="#DejaVuSans-30"/>
       <use xlink:href="#DejaVuSans-2e" x="63.623047"/>
       <use xlink:href="#DejaVuSans-32" x="95.410156"/>
      </g>
     </g>
    </g>
    <g id="ytick_3">
     <g id="line2d_9">
      <g>
       <use xlink:href="#m9f822e8b93" x="135" y="286.825263" style="stroke: #000000; stroke-width: 0.8"/>
      </g>
     </g>
     <g id="text_10">
      <!-- 0.4 -->
      <g transform="translate(96.19375 294.423701) scale(0.2 -0.2)">
       <use xlink:href="#DejaVuSans-30"/>
       <use xlink:href="#DejaVuSans-2e" x="63.623047"/>
       <use xlink:href="#DejaVuSans-34" x="95.410156"/>
      </g>
     </g>
    </g>
    <g id="ytick_4">
     <g id="line2d_10">
      <g>
       <use xlink:href="#m9f822e8b93" x="135" y="221.172632" style="stroke: #000000; stroke-width: 0.8"/>
      </g>
     </g>
     <g id="text_11">
      <!-- 0.6 -->
      <g transform="translate(96.19375 228.771069) scale(0.2 -0.2)">
       <defs>
        <path id="DejaVuSans-36" d="M 2113 2584 
Q 1688 2584 1439 2293 
Q 1191 2003 1191 1497 
Q 1191 994 1439 701 
Q 1688 409 2113 409 
Q 2538 409 2786 701 
Q 3034 994 3034 1497 
Q 3034 2003 2786 2293 
Q 2538 2584 2113 2584 
z
M 3366 4563 
L 3366 3988 
Q 3128 4100 2886 4159 
Q 2644 4219 2406 4219 
Q 1781 4219 1451 3797 
Q 1122 3375 1075 2522 
Q 1259 2794 1537 2939 
Q 1816 3084 2150 3084 
Q 2853 3084 3261 2657 
Q 3669 2231 3669 1497 
Q 3669 778 3244 343 
Q 2819 -91 2113 -91 
Q 1303 -91 875 529 
Q 447 1150 447 2328 
Q 447 3434 972 4092 
Q 1497 4750 2381 4750 
Q 2619 4750 2861 4703 
Q 3103 4656 3366 4563 
z
" transform="scale(0.015625)"/>
       </defs>
       <use xlink:href="#DejaVuSans-30"/>
       <use xlink:href="#DejaVuSans-2e" x="63.623047"/>
       <use xlink:href="#DejaVuSans-36" x="95.410156"/>
      </g>
     </g>
    </g>
    <g id="ytick_5">
     <g id="line2d_11">
      <g>
       <use xlink:href="#m9f822e8b93" x="135" y="155.52" style="stroke: #000000; stroke-width: 0.8"/>
      </g>
     </g>
     <g id="text_12">
      <!-- 0.8 -->
      <g transform="translate(96.19375 163.118438) scale(0.2 -0.2)">
       <defs>
        <path id="DejaVuSans-38" d="M 2034 2216 
Q 1584 2216 1326 1975 
Q 1069 1734 1069 1313 
Q 1069 891 1326 650 
Q 1584 409 2034 409 
Q 2484 409 2743 651 
Q 3003 894 3003 1313 
Q 3003 1734 2745 1975 
Q 2488 2216 2034 2216 
z
M 1403 2484 
Q 997 2584 770 2862 
Q 544 3141 544 3541 
Q 544 4100 942 4425 
Q 1341 4750 2034 4750 
Q 2731 4750 3128 4425 
Q 3525 4100 3525 3541 
Q 3525 3141 3298 2862 
Q 3072 2584 2669 2484 
Q 3125 2378 3379 2068 
Q 3634 1759 3634 1313 
Q 3634 634 3220 271 
Q 2806 -91 2034 -91 
Q 1263 -91 848 271 
Q 434 634 434 1313 
Q 434 1759 690 2068 
Q 947 2378 1403 2484 
z
M 1172 3481 
Q 1172 3119 1398 2916 
Q 1625 2713 2034 2713 
Q 2441 2713 2670 2916 
Q 2900 3119 2900 3481 
Q 2900 3844 2670 4047 
Q 2441 4250 2034 4250 
Q 1625 4250 1398 4047 
Q 1172 3844 1172 3481 
z
" transform="scale(0.015625)"/>
       </defs>
       <use xlink:href="#DejaVuSans-30"/>
       <use xlink:href="#DejaVuSans-2e" x="63.623047"/>
       <use xlink:href="#DejaVuSans-38" x="95.410156"/>
      </g>
     </g>
    </g>
    <g id="text_13">
     <!-- $P_{NN}$ -->
     <g transform="translate(87.2025 306.985263) rotate(-90) scale(0.24 -0.24)">
      <defs>
       <path id="DejaVuSans-Oblique-50" d="M 1081 4666 
L 2541 4666 
Q 3178 4666 3512 4369 
Q 3847 4072 3847 3500 
Q 3847 2731 3353 2303 
Q 2859 1875 1966 1875 
L 1172 1875 
L 806 0 
L 172 0 
L 1081 4666 
z
M 1613 4147 
L 1275 2394 
L 2069 2394 
Q 2606 2394 2893 2669 
Q 3181 2944 3181 3456 
Q 3181 3784 2986 3965 
Q 2791 4147 2438 4147 
L 1613 4147 
z
" transform="scale(0.015625)"/>
       <path id="DejaVuSans-Oblique-4e" d="M 1081 4666 
L 1931 4666 
L 3219 666 
L 4000 4666 
L 4616 4666 
L 3706 0 
L 2853 0 
L 1569 4025 
L 788 0 
L 172 0 
L 1081 4666 
z
" transform="scale(0.015625)"/>
      </defs>
      <use xlink:href="#DejaVuSans-Oblique-50" transform="translate(0 0.09375)"/>
      <use xlink:href="#DejaVuSans-Oblique-4e" transform="translate(60.302734 -16.3125) scale(0.7)"/>
      <use xlink:href="#DejaVuSans-Oblique-4e" transform="translate(112.666016 -16.3125) scale(0.7)"/>
     </g>
    </g>
   </g>
   <g id="line2d_12">
    <path d="M 152.293388 383.173117 
L 173.910124 371.209084 
L 209.938017 360.890106 
L 281.993802 346.626735 
L 498.161157 326.4636 
" clip-path="url(#p6c9da6a302)" style="fill: none; stroke: #1f77b4; stroke-width: 1.5; stroke-linecap: square"/>
    <defs>
     <path id="ma754088b11" d="M 0 3 
C 0.795609 3 1.55874 2.683901 2.12132 2.12132 
C 2.683901 1.55874 3 0.795609 3 0 
C 3 -0.795609 2.683901 -1.55874 2.12132 -2.12132 
C 1.55874 -2.683901 0.795609 -3 0 -3 
C -0.795609 -3 -1.55874 -2.683901 -2.12132 -2.12132 
C -2.683901 -1.55874 -3 -0.795609 -3 0 
C -3 0.795609 -2.683901 1.55874 -2.12132 2.12132 
C -1.55874 2.683901 -0.795609 3 0 3 
z
" style="stroke: #1f77b4"/>
    </defs>
    <g clip-path="url(#p6c9da6a302)">
     <use xlink:href="#ma754088b11" x="152.293388" y="383.173117" style="fill: #1f77b4; stroke: #1f77b4"/>
     <use xlink:href="#ma754088b11" x="173.910124" y="371.209084" style="fill: #1f77b4; stroke: #1f77b4"/>
     <use xlink:href="#ma754088b11" x="209.938017" y="360.890106" style="fill: #1f77b4; stroke: #1f77b4"/>
     <use xlink:href="#ma754088b11" x="281.993802" y="346.626735" style="fill: #1f77b4; stroke: #1f77b4"/>
     <use xlink:href="#ma754088b11" x="498.161157" y="326.4636" style="fill: #1f77b4; stroke: #1f77b4"/>
    </g>
   </g>
   <g id="line2d_13">
    <path d="M 152.293388 187.916358 
L 173.910124 189.729657 
L 209.938017 197.244565 
L 281.993802 211.395773 
L 498.161157 233.966669 
" clip-path="url(#p6c9da6a302)" style="fill: none; stroke: #ff7f0e; stroke-width: 1.5; stroke-linecap: square"/>
    <defs>
     <path id="mff70f0d000" d="M 0 3 
C 0.795609 3 1.55874 2.683901 2.12132 2.12132 
C 2.683901 1.55874 3 0.795609 3 0 
C 3 -0.795609 2.683901 -1.55874 2.12132 -2.12132 
C 1.55874 -2.683901 0.795609 -3 0 -3 
C -0.795609 -3 -1.55874 -2.683901 -2.12132 -2.12132 
C -2.683901 -1.55874 -3 -0.795609 -3 0 
C -3 0.795609 -2.683901 1.55874 -2.12132 2.12132 
C -1.55874 2.683901 -0.795609 3 0 3 
z
" style="stroke: #ff7f0e"/>
    </defs>
    <g clip-path="url(#p6c9da6a302)">
     <use xlink:href="#mff70f0d000" x="152.293388" y="187.916358" style="fill: #ff7f0e; stroke: #ff7f0e"/>
     <use xlink:href="#mff70f0d000" x="173.910124" y="189.729657" style="fill: #ff7f0e; stroke: #ff7f0e"/>
     <use xlink:href="#mff70f0d000" x="209.938017" y="197.244565" style="fill: #ff7f0e; stroke: #ff7f0e"/>
     <use xlink:href="#mff70f0d000" x="281.993802" y="211.395773" style="fill: #ff7f0e; stroke: #ff7f0e"/>
     <use xlink:href="#mff70f0d000" x="498.161157" y="233.966669" style="fill: #ff7f0e; stroke: #ff7f0e"/>
    </g>
   </g>
   <g id="line2d_14">
    <path d="M 152.293388 298.209788 
L 173.910124 250.933164 
L 209.938017 222.705523 
L 281.993802 221.340876 
L 498.161157 241.350721 
" clip-path="url(#p6c9da6a302)" style="fill: none; stroke: #2ca02c; stroke-width: 1.5; stroke-linecap: square"/>
    <defs>
     <path id="mcaf6ad0970" d="M 0 3 
C 0.795609 3 1.55874 2.683901 2.12132 2.12132 
C 2.683901 1.55874 3 0.795609 3 0 
C 3 -0.795609 2.683901 -1.55874 2.12132 -2.12132 
C 1.55874 -2.683901 0.795609 -3 0 -3 
C -0.795609 -3 -1.55874 -2.683901 -2.12132 -2.12132 
C -2.683901 -1.55874 -3 -0.795609 -3 0 
C -3 0.795609 -2.683901 1.55874 -2.12132 2.12132 
C -1.55874 2.683901 -0.795609 3 0 3 
z
" style="stroke: #2ca02c"/>
    </defs>
    <g clip-path="url(#p6c9da6a302)">
     <use xlink:href="#mcaf6ad0970" x="152.293388" y="298.209788" style="fill: #2ca02c; stroke: #2ca02c"/>
     <use xlink:href="#mcaf6ad0970" x="173.910124" y="250.933164" style="fill: #2ca02c; stroke: #2ca02c"/>
     <use xlink:href="#mcaf6ad0970" x="209.938017" y="222.705523" style="fill: #2ca02c; stroke: #2ca02c"/>
     <use xlink:href="#mcaf6ad0970" x="281.993802" y="221.340876" style="fill: #2ca02c; stroke: #2ca02c"/>
     <use xlink:href="#mcaf6ad0970" x="498.161157" y="241.350721" style="fill: #2ca02c; stroke: #2ca02c"/>
    </g>
   </g>
   <g id="line2d_15">
    <path d="M 152.293388 295.592656 
L 173.910124 262.186833 
L 209.938017 237.940972 
L 281.993802 226.734038 
L 498.161157 246.140073 
" clip-path="url(#p6c9da6a302)" style="fill: none; stroke: #d62728; stroke-width: 1.5; stroke-linecap: square"/>
    <defs>
     <path id="mef49c8c0b9" d="M 0 3 
C 0.795609 3 1.55874 2.683901 2.12132 2.12132 
C 2.683901 1.55874 3 0.795609 3 0 
C 3 -0.795609 2.683901 -1.55874 2.12132 -2.12132 
C 1.55874 -2.683901 0.795609 -3 0 -3 
C -0.795609 -3 -1.55874 -2.683901 -2.12132 -2.12132 
C -2.683901 -1.55874 -3 -0.795609 -3 0 
C -3 0.795609 -2.683901 1.55874 -2.12132 2.12132 
C -1.55874 2.683901 -0.795609 3 0 3 
z
" style="stroke: #d62728"/>
    </defs>
    <g clip-path="url(#p6c9da6a302)">
     <use xlink:href="#mef49c8c0b9" x="152.293388" y="295.592656" style="fill: #d62728; stroke: #d62728"/>
     <use xlink:href="#mef49c8c0b9" x="173.910124" y="262.186833" style="fill: #d62728; stroke: #d62728"/>
     <use xlink:href="#mef49c8c0b9" x="209.938017" y="237.940972" style="fill: #d62728; stroke: #d62728"/>
     <use xlink:href="#mef49c8c0b9" x="281.993802" y="226.734038" style="fill: #d62728; stroke: #d62728"/>
     <use xlink:href="#mef49c8c0b9" x="498.161157" y="246.140073" style="fill: #d62728; stroke: #d62728"/>
    </g>
   </g>
   <g id="patch_3">
    <path d="M 135 418.130526 
L 135 155.52 
" style="fill: none; stroke: #000000; stroke-width: 0.8; stroke-linejoin: miter; stroke-linecap: square"/>
   </g>
   <g id="patch_4">
    <path d="M 515.454545 418.130526 
L 515.454545 155.52 
" style="fill: none; stroke: #000000; stroke-width: 0.8; stroke-linejoin: miter; stroke-linecap: square"/>
   </g>
   <g id="patch_5">
    <path d="M 135 418.130526 
L 515.454545 418.130526 
" style="fill: none; stroke: #000000; stroke-width: 0.8; stroke-linejoin: miter; stroke-linecap: square"/>
   </g>
   <g id="patch_6">
    <path d="M 135 155.52 
L 515.454545 155.52 
" style="fill: none; stroke: #000000; stroke-width: 0.8; stroke-linejoin: miter; stroke-linecap: square"/>
   </g>
   <g id="text_14">
    <!-- a -->
    <g transform="translate(89.472557 137.404046) scale(0.28 -0.28)">
     <defs>
      <path id="DejaVuSans-Bold-61" d="M 2106 1575 
Q 1756 1575 1579 1456 
Q 1403 1338 1403 1106 
Q 1403 894 1545 773 
Q 1688 653 1941 653 
Q 2256 653 2472 879 
Q 2688 1106 2688 1447 
L 2688 1575 
L 2106 1575 
z
M 3816 1997 
L 3816 0 
L 2688 0 
L 2688 519 
Q 2463 200 2181 54 
Q 1900 -91 1497 -91 
Q 953 -91 614 226 
Q 275 544 275 1050 
Q 275 1666 698 1953 
Q 1122 2241 2028 2241 
L 2688 2241 
L 2688 2328 
Q 2688 2594 2478 2717 
Q 2269 2841 1825 2841 
Q 1466 2841 1156 2769 
Q 847 2697 581 2553 
L 581 3406 
Q 941 3494 1303 3539 
Q 1666 3584 2028 3584 
Q 2975 3584 3395 3211 
Q 3816 2838 3816 1997 
z
" transform="scale(0.015625)"/>
     </defs>
     <use xlink:href="#DejaVuSans-Bold-61"/>
    </g>
   </g>
   <g id="text_15">
    <!-- $P_{NN}$ -->
    <g transform="translate(303.387273 149.52) scale(0.26 -0.26)">
     <use xlink:href="#DejaVuSans-Oblique-50" transform="translate(0 0.09375)"/>
     <use xlink:href="#DejaVuSans-Oblique-4e" transform="translate(60.302734 -16.3125) scale(0.7)"/>
     <use xlink:href="#DejaVuSans-Oblique-4e" transform="translate(112.666016 -16.3125) scale(0.7)"/>
    </g>
   </g>
  </g>
  <g id="axes_2">
   <g id="patch_7">
    <path d="M 591.545455 418.130526 
L 972 418.130526 
L 972 155.52 
L 591.545455 155.52 
z
" style="fill: #ffffff"/>
   </g>
   <g id="patch_8">
    <path d="M 608.838843 418.130526 
L 628.792753 418.130526 
L 628.792753 188.501179 
L 608.838843 188.501179 
z
" clip-path="url(#p6ff57ab315)" style="fill: #1f77b4"/>
   </g>
   <g id="patch_9">
    <path d="M 741.864908 418.130526 
L 761.818818 418.130526 
L 761.818818 294.269228 
L 741.864908 294.269228 
z
" clip-path="url(#p6ff57ab315)" style="fill: #1f77b4"/>
   </g>
   <g id="patch_10">
    <path d="M 874.890973 418.130526 
L 894.844882 418.130526 
L 894.844882 168.025263 
L 874.890973 168.025263 
z
" clip-path="url(#p6ff57ab315)" style="fill: #1f77b4"/>
   </g>
   <g id="patch_11">
    <path d="M 628.792753 418.130526 
L 648.746662 418.130526 
L 648.746662 186.603482 
L 628.792753 186.603482 
z
" clip-path="url(#p6ff57ab315)" style="fill: #ff7f0e"/>
   </g>
   <g id="patch_12">
    <path d="M 761.818818 418.130526 
L 781.772727 418.130526 
L 781.772727 185.460838 
L 761.818818 185.460838 
z
" clip-path="url(#p6ff57ab315)" style="fill: #ff7f0e"/>
   </g>
   <g id="patch_13">
    <path d="M 894.844882 418.130526 
L 914.798792 418.130526 
L 914.798792 186.529532 
L 894.844882 186.529532 
z
" clip-path="url(#p6ff57ab315)" style="fill: #ff7f0e"/>
   </g>
   <g id="patch_14">
    <path d="M 648.746662 418.130526 
L 668.700572 418.130526 
L 668.700572 181.687712 
L 648.746662 181.687712 
z
" clip-path="url(#p6ff57ab315)" style="fill: #2ca02c"/>
   </g>
   <g id="patch_15">
    <path d="M 781.772727 418.130526 
L 801.726637 418.130526 
L 801.726637 243.477423 
L 781.772727 243.477423 
z
" clip-path="url(#p6ff57ab315)" style="fill: #2ca02c"/>
   </g>
   <g id="patch_16">
    <path d="M 914.798792 418.130526 
L 934.752702 418.130526 
L 934.752702 181.130523 
L 914.798792 181.130523 
z
" clip-path="url(#p6ff57ab315)" style="fill: #2ca02c"/>
   </g>
   <g id="patch_17">
    <path d="M 668.700572 418.130526 
L 688.654482 418.130526 
L 688.654482 210.896464 
L 668.700572 210.896464 
z
" clip-path="url(#p6ff57ab315)" style="fill: #d62728"/>
   </g>
   <g id="patch_18">
    <path d="M 801.726637 418.130526 
L 821.680547 418.130526 
L 821.680547 245.518896 
L 801.726637 245.518896 
z
" clip-path="url(#p6ff57ab315)" style="fill: #d62728"/>
   </g>
   <g id="patch_19">
    <path d="M 934.752702 418.130526 
L 954.706612 418.130526 
L 954.706612 210.457861 
L 934.752702 210.457861 
z
" clip-path="url(#p6ff57ab315)" style="fill: #d62728"/>
   </g>
   <g id="matplotlib.axis_3">
    <g id="xtick_7">
     <g id="line2d_16">
      <g>
       <use xlink:href="#mcfc8a2aebd" x="648.746662" y="418.130526" style="stroke: #000000; stroke-width: 0.8"/>
      </g>
     </g>
     <g id="text_16">
      <!-- AUC -->
      <g transform="translate(625.490256 441.847089) scale(0.22 -0.22)">
       <defs>
        <path id="DejaVuSans-41" d="M 2188 4044 
L 1331 1722 
L 3047 1722 
L 2188 4044 
z
M 1831 4666 
L 2547 4666 
L 4325 0 
L 3669 0 
L 3244 1197 
L 1141 1197 
L 716 0 
L 50 0 
L 1831 4666 
z
" transform="scale(0.015625)"/>
        <path id="DejaVuSans-55" d="M 556 4666 
L 1191 4666 
L 1191 1831 
Q 1191 1081 1462 751 
Q 1734 422 2344 422 
Q 2950 422 3222 751 
Q 3494 1081 3494 1831 
L 3494 4666 
L 4128 4666 
L 4128 1753 
Q 4128 841 3676 375 
Q 3225 -91 2344 -91 
Q 1459 -91 1007 375 
Q 556 841 556 1753 
L 556 4666 
z
" transform="scale(0.015625)"/>
        <path id="DejaVuSans-43" d="M 4122 4306 
L 4122 3641 
Q 3803 3938 3442 4084 
Q 3081 4231 2675 4231 
Q 1875 4231 1450 3742 
Q 1025 3253 1025 2328 
Q 1025 1406 1450 917 
Q 1875 428 2675 428 
Q 3081 428 3442 575 
Q 3803 722 4122 1019 
L 4122 359 
Q 3791 134 3420 21 
Q 3050 -91 2638 -91 
Q 1578 -91 968 557 
Q 359 1206 359 2328 
Q 359 3453 968 4101 
Q 1578 4750 2638 4750 
Q 3056 4750 3426 4639 
Q 3797 4528 4122 4306 
z
" transform="scale(0.015625)"/>
       </defs>
       <use xlink:href="#DejaVuSans-41"/>
       <use xlink:href="#DejaVuSans-55" x="68.408203"/>
       <use xlink:href="#DejaVuSans-43" x="141.601562"/>
      </g>
     </g>
    </g>
    <g id="xtick_8">
     <g id="line2d_17">
      <g>
       <use xlink:href="#mcfc8a2aebd" x="781.772727" y="418.130526" style="stroke: #000000; stroke-width: 0.8"/>
      </g>
     </g>
     <g id="text_17">
      <!-- $Q_{local}$ -->
      <g transform="translate(754.822727 441.847089) scale(0.22 -0.22)">
       <defs>
        <path id="DejaVuSans-Oblique-51" d="M 2309 -84 
Q 2275 -88 2237 -89 
Q 2200 -91 2125 -91 
Q 1250 -91 756 411 
Q 263 913 263 1797 
Q 263 2319 452 2844 
Q 641 3369 978 3788 
Q 1369 4269 1858 4509 
Q 2347 4750 2938 4750 
Q 3794 4750 4287 4245 
Q 4781 3741 4781 2869 
Q 4781 1928 4265 1147 
Q 3750 366 2919 44 
L 3553 -825 
L 2847 -825 
L 2309 -84 
z
M 2919 4238 
Q 2400 4238 2003 3986 
Q 1606 3734 1313 3219 
Q 1125 2891 1026 2522 
Q 928 2153 928 1778 
Q 928 1128 1239 775 
Q 1550 422 2119 422 
Q 2631 422 3032 676 
Q 3434 931 3719 1434 
Q 3909 1772 4009 2142 
Q 4109 2513 4109 2881 
Q 4109 3528 3796 3883 
Q 3484 4238 2919 4238 
z
" transform="scale(0.015625)"/>
        <path id="DejaVuSans-Oblique-6c" d="M 1172 4863 
L 1747 4863 
L 800 0 
L 225 0 
L 1172 4863 
z
" transform="scale(0.015625)"/>
        <path id="DejaVuSans-Oblique-6f" d="M 1625 -91 
Q 1009 -91 651 289 
Q 294 669 294 1325 
Q 294 1706 417 2101 
Q 541 2497 738 2766 
Q 1047 3184 1428 3384 
Q 1809 3584 2291 3584 
Q 2888 3584 3255 3212 
Q 3622 2841 3622 2241 
Q 3622 1825 3500 1412 
Q 3378 1000 3181 728 
Q 2875 309 2494 109 
Q 2113 -91 1625 -91 
z
M 891 1344 
Q 891 869 1089 633 
Q 1288 397 1691 397 
Q 2269 397 2648 901 
Q 3028 1406 3028 2181 
Q 3028 2634 2825 2865 
Q 2622 3097 2228 3097 
Q 1903 3097 1650 2945 
Q 1397 2794 1197 2484 
Q 1050 2253 970 1956 
Q 891 1659 891 1344 
z
" transform="scale(0.015625)"/>
        <path id="DejaVuSans-Oblique-63" d="M 3431 3366 
L 3316 2797 
Q 3109 2947 2876 3022 
Q 2644 3097 2394 3097 
Q 2119 3097 1870 3000 
Q 1622 2903 1453 2725 
Q 1184 2453 1037 2087 
Q 891 1722 891 1331 
Q 891 859 1127 628 
Q 1363 397 1844 397 
Q 2081 397 2348 469 
Q 2616 541 2906 684 
L 2797 116 
Q 2547 13 2283 -39 
Q 2019 -91 1741 -91 
Q 1044 -91 669 257 
Q 294 606 294 1253 
Q 294 1797 489 2255 
Q 684 2713 1069 3078 
Q 1331 3328 1684 3456 
Q 2038 3584 2456 3584 
Q 2700 3584 2940 3529 
Q 3181 3475 3431 3366 
z
" transform="scale(0.015625)"/>
        <path id="DejaVuSans-Oblique-61" d="M 3438 1997 
L 3047 0 
L 2472 0 
L 2578 531 
Q 2325 219 2001 64 
Q 1678 -91 1281 -91 
Q 834 -91 548 182 
Q 263 456 263 884 
Q 263 1497 752 1853 
Q 1241 2209 2100 2209 
L 2900 2209 
L 2931 2363 
Q 2938 2388 2941 2417 
Q 2944 2447 2944 2509 
Q 2944 2788 2717 2942 
Q 2491 3097 2081 3097 
Q 1800 3097 1504 3025 
Q 1209 2953 897 2809 
L 997 3341 
Q 1322 3463 1633 3523 
Q 1944 3584 2234 3584 
Q 2853 3584 3176 3315 
Q 3500 3047 3500 2534 
Q 3500 2431 3484 2292 
Q 3469 2153 3438 1997 
z
M 2816 1759 
L 2241 1759 
Q 1534 1759 1195 1570 
Q 856 1381 856 984 
Q 856 709 1029 553 
Q 1203 397 1509 397 
Q 1978 397 2328 733 
Q 2678 1069 2791 1631 
L 2816 1759 
z
" transform="scale(0.015625)"/>
       </defs>
       <use xlink:href="#DejaVuSans-Oblique-51" transform="translate(0 0.78125)"/>
       <use xlink:href="#DejaVuSans-Oblique-6c" transform="translate(78.710938 -15.625) scale(0.7)"/>
       <use xlink:href="#DejaVuSans-Oblique-6f" transform="translate(98.15918 -15.625) scale(0.7)"/>
       <use xlink:href="#DejaVuSans-Oblique-63" transform="translate(140.986328 -15.625) scale(0.7)"/>
       <use xlink:href="#DejaVuSans-Oblique-61" transform="translate(179.472656 -15.625) scale(0.7)"/>
       <use xlink:href="#DejaVuSans-Oblique-6c" transform="translate(222.368164 -15.625) scale(0.7)"/>
      </g>
     </g>
    </g>
    <g id="xtick_9">
     <g id="line2d_18">
      <g>
       <use xlink:href="#mcfc8a2aebd" x="914.798792" y="418.130526" style="stroke: #000000; stroke-width: 0.8"/>
      </g>
     </g>
     <g id="text_18">
      <!-- $Q_{global}$ -->
      <g transform="translate(882.348792 441.630526) scale(0.22 -0.22)">
       <defs>
        <path id="DejaVuSans-Oblique-67" d="M 3816 3500 
L 3219 434 
Q 3047 -456 2561 -893 
Q 2075 -1331 1253 -1331 
Q 950 -1331 690 -1286 
Q 431 -1241 206 -1147 
L 313 -588 
Q 525 -725 762 -790 
Q 1000 -856 1269 -856 
Q 1816 -856 2167 -557 
Q 2519 -259 2631 300 
L 2681 563 
Q 2441 288 2122 144 
Q 1803 0 1434 0 
Q 903 0 598 351 
Q 294 703 294 1319 
Q 294 1803 478 2267 
Q 663 2731 997 3091 
Q 1219 3328 1514 3456 
Q 1809 3584 2131 3584 
Q 2484 3584 2746 3420 
Q 3009 3256 3138 2956 
L 3238 3500 
L 3816 3500 
z
M 2950 2216 
Q 2950 2641 2750 2872 
Q 2550 3103 2181 3103 
Q 1953 3103 1747 3012 
Q 1541 2922 1394 2759 
Q 1156 2491 1023 2127 
Q 891 1763 891 1375 
Q 891 944 1092 712 
Q 1294 481 1672 481 
Q 2219 481 2584 976 
Q 2950 1472 2950 2216 
z
" transform="scale(0.015625)"/>
        <path id="DejaVuSans-Oblique-62" d="M 3169 2138 
Q 3169 2591 2961 2847 
Q 2753 3103 2388 3103 
Q 2122 3103 1889 2973 
Q 1656 2844 1484 2597 
Q 1303 2338 1198 1995 
Q 1094 1653 1094 1313 
Q 1094 881 1298 636 
Q 1503 391 1863 391 
Q 2134 391 2365 517 
Q 2597 644 2772 891 
Q 2950 1147 3059 1487 
Q 3169 1828 3169 2138 
z
M 1381 2969 
Q 1594 3256 1914 3420 
Q 2234 3584 2584 3584 
Q 3122 3584 3439 3221 
Q 3756 2859 3756 2241 
Q 3756 1734 3570 1259 
Q 3384 784 3041 416 
Q 2816 172 2522 40 
Q 2228 -91 1906 -91 
Q 1566 -91 1316 65 
Q 1066 222 909 531 
L 806 0 
L 231 0 
L 1178 4863 
L 1753 4863 
L 1381 2969 
z
" transform="scale(0.015625)"/>
       </defs>
       <use xlink:href="#DejaVuSans-Oblique-51" transform="translate(0 0.78125)"/>
       <use xlink:href="#DejaVuSans-Oblique-67" transform="translate(78.710938 -15.625) scale(0.7)"/>
       <use xlink:href="#DejaVuSans-Oblique-6c" transform="translate(123.144531 -15.625) scale(0.7)"/>
       <use xlink:href="#DejaVuSans-Oblique-6f" transform="translate(142.592773 -15.625) scale(0.7)"/>
       <use xlink:href="#DejaVuSans-Oblique-62" transform="translate(185.419922 -15.625) scale(0.7)"/>
       <use xlink:href="#DejaVuSans-Oblique-61" transform="translate(229.853516 -15.625) scale(0.7)"/>
       <use xlink:href="#DejaVuSans-Oblique-6c" transform="translate(272.749023 -15.625) scale(0.7)"/>
      </g>
     </g>
    </g>
   </g>
   <g id="matplotlib.axis_4">
    <g id="ytick_6">
     <g id="line2d_19">
      <g>
       <use xlink:href="#m9f822e8b93" x="591.545455" y="418.130526" style="stroke: #000000; stroke-width: 0.8"/>
      </g>
     </g>
     <g id="text_19">
      <!-- 0.0 -->
      <g transform="translate(549.55858 426.488808) scale(0.22 -0.22)">
       <use xlink:href="#DejaVuSans-30"/>
       <use xlink:href="#DejaVuSans-2e" x="63.623047"/>
       <use xlink:href="#DejaVuSans-30" x="95.410156"/>
      </g>
     </g>
    </g>
    <g id="ytick_7">
     <g id="line2d_20">
      <g>
       <use xlink:href="#m9f822e8b93" x="591.545455" y="351.384686" style="stroke: #000000; stroke-width: 0.8"/>
      </g>
     </g>
     <g id="text_20">
      <!-- 0.2 -->
      <g transform="translate(549.55858 359.742968) scale(0.22 -0.22)">
       <use xlink:href="#DejaVuSans-30"/>
       <use xlink:href="#DejaVuSans-2e" x="63.623047"/>
       <use xlink:href="#DejaVuSans-32" x="95.410156"/>
      </g>
     </g>
    </g>
    <g id="ytick_8">
     <g id="line2d_21">
      <g>
       <use xlink:href="#m9f822e8b93" x="591.545455" y="284.638846" style="stroke: #000000; stroke-width: 0.8"/>
      </g>
     </g>
     <g id="text_21">
      <!-- 0.4 -->
      <g transform="translate(549.55858 292.997128) scale(0.22 -0.22)">
       <use xlink:href="#DejaVuSans-30"/>
       <use xlink:href="#DejaVuSans-2e" x="63.623047"/>
       <use xlink:href="#DejaVuSans-34" x="95.410156"/>
      </g>
     </g>
    </g>
    <g id="ytick_9">
     <g id="line2d_22">
      <g>
       <use xlink:href="#m9f822e8b93" x="591.545455" y="217.893006" style="stroke: #000000; stroke-width: 0.8"/>
      </g>
     </g>
     <g id="text_22">
      <!-- 0.6 -->
      <g transform="translate(549.55858 226.251288) scale(0.22 -0.22)">
       <use xlink:href="#DejaVuSans-30"/>
       <use xlink:href="#DejaVuSans-2e" x="63.623047"/>
       <use xlink:href="#DejaVuSans-36" x="95.410156"/>
      </g>
     </g>
    </g>
    <g id="text_23">
     <!-- Metric Value -->
     <g transform="translate(540.983267 354.727919) rotate(-90) scale(0.22 -0.22)">
      <defs>
       <path id="DejaVuSans-4d" d="M 628 4666 
L 1569 4666 
L 2759 1491 
L 3956 4666 
L 4897 4666 
L 4897 0 
L 4281 0 
L 4281 4097 
L 3078 897 
L 2444 897 
L 1241 4097 
L 1241 0 
L 628 0 
L 628 4666 
z
" transform="scale(0.015625)"/>
       <path id="DejaVuSans-65" d="M 3597 1894 
L 3597 1613 
L 953 1613 
Q 991 1019 1311 708 
Q 1631 397 2203 397 
Q 2534 397 2845 478 
Q 3156 559 3463 722 
L 3463 178 
Q 3153 47 2828 -22 
Q 2503 -91 2169 -91 
Q 1331 -91 842 396 
Q 353 884 353 1716 
Q 353 2575 817 3079 
Q 1281 3584 2069 3584 
Q 2775 3584 3186 3129 
Q 3597 2675 3597 1894 
z
M 3022 2063 
Q 3016 2534 2758 2815 
Q 2500 3097 2075 3097 
Q 1594 3097 1305 2825 
Q 1016 2553 972 2059 
L 3022 2063 
z
" transform="scale(0.015625)"/>
       <path id="DejaVuSans-74" d="M 1172 4494 
L 1172 3500 
L 2356 3500 
L 2356 3053 
L 1172 3053 
L 1172 1153 
Q 1172 725 1289 603 
Q 1406 481 1766 481 
L 2356 481 
L 2356 0 
L 1766 0 
Q 1100 0 847 248 
Q 594 497 594 1153 
L 594 3053 
L 172 3053 
L 172 3500 
L 594 3500 
L 594 4494 
L 1172 4494 
z
" transform="scale(0.015625)"/>
       <path id="DejaVuSans-72" d="M 2631 2963 
Q 2534 3019 2420 3045 
Q 2306 3072 2169 3072 
Q 1681 3072 1420 2755 
Q 1159 2438 1159 1844 
L 1159 0 
L 581 0 
L 581 3500 
L 1159 3500 
L 1159 2956 
Q 1341 3275 1631 3429 
Q 1922 3584 2338 3584 
Q 2397 3584 2469 3576 
Q 2541 3569 2628 3553 
L 2631 2963 
z
" transform="scale(0.015625)"/>
       <path id="DejaVuSans-69" d="M 603 3500 
L 1178 3500 
L 1178 0 
L 603 0 
L 603 3500 
z
M 603 4863 
L 1178 4863 
L 1178 4134 
L 603 4134 
L 603 4863 
z
" transform="scale(0.015625)"/>
       <path id="DejaVuSans-63" d="M 3122 3366 
L 3122 2828 
Q 2878 2963 2633 3030 
Q 2388 3097 2138 3097 
Q 1578 3097 1268 2742 
Q 959 2388 959 1747 
Q 959 1106 1268 751 
Q 1578 397 2138 397 
Q 2388 397 2633 464 
Q 2878 531 3122 666 
L 3122 134 
Q 2881 22 2623 -34 
Q 2366 -91 2075 -91 
Q 1284 -91 818 406 
Q 353 903 353 1747 
Q 353 2603 823 3093 
Q 1294 3584 2113 3584 
Q 2378 3584 2631 3529 
Q 2884 3475 3122 3366 
z
" transform="scale(0.015625)"/>
       <path id="DejaVuSans-20" transform="scale(0.015625)"/>
       <path id="DejaVuSans-56" d="M 1831 0 
L 50 4666 
L 709 4666 
L 2188 738 
L 3669 4666 
L 4325 4666 
L 2547 0 
L 1831 0 
z
" transform="scale(0.015625)"/>
       <path id="DejaVuSans-61" d="M 2194 1759 
Q 1497 1759 1228 1600 
Q 959 1441 959 1056 
Q 959 750 1161 570 
Q 1363 391 1709 391 
Q 2188 391 2477 730 
Q 2766 1069 2766 1631 
L 2766 1759 
L 2194 1759 
z
M 3341 1997 
L 3341 0 
L 2766 0 
L 2766 531 
Q 2569 213 2275 61 
Q 1981 -91 1556 -91 
Q 1019 -91 701 211 
Q 384 513 384 1019 
Q 384 1609 779 1909 
Q 1175 2209 1959 2209 
L 2766 2209 
L 2766 2266 
Q 2766 2663 2505 2880 
Q 2244 3097 1772 3097 
Q 1472 3097 1187 3025 
Q 903 2953 641 2809 
L 641 3341 
Q 956 3463 1253 3523 
Q 1550 3584 1831 3584 
Q 2591 3584 2966 3190 
Q 3341 2797 3341 1997 
z
" transform="scale(0.015625)"/>
       <path id="DejaVuSans-6c" d="M 603 4863 
L 1178 4863 
L 1178 0 
L 603 0 
L 603 4863 
z
" transform="scale(0.015625)"/>
       <path id="DejaVuSans-75" d="M 544 1381 
L 544 3500 
L 1119 3500 
L 1119 1403 
Q 1119 906 1312 657 
Q 1506 409 1894 409 
Q 2359 409 2629 706 
Q 2900 1003 2900 1516 
L 2900 3500 
L 3475 3500 
L 3475 0 
L 2900 0 
L 2900 538 
Q 2691 219 2414 64 
Q 2138 -91 1772 -91 
Q 1169 -91 856 284 
Q 544 659 544 1381 
z
M 1991 3584 
L 1991 3584 
z
" transform="scale(0.015625)"/>
      </defs>
      <use xlink:href="#DejaVuSans-4d"/>
      <use xlink:href="#DejaVuSans-65" x="86.279297"/>
      <use xlink:href="#DejaVuSans-74" x="147.802734"/>
      <use xlink:href="#DejaVuSans-72" x="187.011719"/>
      <use xlink:href="#DejaVuSans-69" x="228.125"/>
      <use xlink:href="#DejaVuSans-63" x="255.908203"/>
      <use xlink:href="#DejaVuSans-20" x="310.888672"/>
      <use xlink:href="#DejaVuSans-56" x="342.675781"/>
      <use xlink:href="#DejaVuSans-61" x="403.333984"/>
      <use xlink:href="#DejaVuSans-6c" x="464.613281"/>
      <use xlink:href="#DejaVuSans-75" x="492.396484"/>
      <use xlink:href="#DejaVuSans-65" x="555.775391"/>
     </g>
    </g>
   </g>
   <g id="patch_20">
    <path d="M 591.545455 418.130526 
L 591.545455 155.52 
" style="fill: none; stroke: #000000; stroke-width: 0.8; stroke-linejoin: miter; stroke-linecap: square"/>
   </g>
   <g id="patch_21">
    <path d="M 972 418.130526 
L 972 155.52 
" style="fill: none; stroke: #000000; stroke-width: 0.8; stroke-linejoin: miter; stroke-linecap: square"/>
   </g>
   <g id="patch_22">
    <path d="M 591.545455 418.130526 
L 972 418.130526 
" style="fill: none; stroke: #000000; stroke-width: 0.8; stroke-linejoin: miter; stroke-linecap: square"/>
   </g>
   <g id="patch_23">
    <path d="M 591.545455 155.52 
L 972 155.52 
" style="fill: none; stroke: #000000; stroke-width: 0.8; stroke-linejoin: miter; stroke-linecap: square"/>
   </g>
   <g id="text_24">
    <!-- b -->
    <g transform="translate(544.871761 137.404046) scale(0.28 -0.28)">
     <defs>
      <path id="DejaVuSans-Bold-62" d="M 2400 722 
Q 2759 722 2948 984 
Q 3138 1247 3138 1747 
Q 3138 2247 2948 2509 
Q 2759 2772 2400 2772 
Q 2041 2772 1848 2508 
Q 1656 2244 1656 1747 
Q 1656 1250 1848 986 
Q 2041 722 2400 722 
z
M 1656 2988 
Q 1888 3294 2169 3439 
Q 2450 3584 2816 3584 
Q 3463 3584 3878 3070 
Q 4294 2556 4294 1747 
Q 4294 938 3878 423 
Q 3463 -91 2816 -91 
Q 2450 -91 2169 54 
Q 1888 200 1656 506 
L 1656 0 
L 538 0 
L 538 4863 
L 1656 4863 
L 1656 2988 
z
" transform="scale(0.015625)"/>
     </defs>
     <use xlink:href="#DejaVuSans-Bold-62"/>
    </g>
   </g>
   <g id="text_25">
    <!-- Metrics -->
    <g transform="translate(734.584759 149.52) scale(0.26 -0.26)">
     <defs>
      <path id="DejaVuSans-73" d="M 2834 3397 
L 2834 2853 
Q 2591 2978 2328 3040 
Q 2066 3103 1784 3103 
Q 1356 3103 1142 2972 
Q 928 2841 928 2578 
Q 928 2378 1081 2264 
Q 1234 2150 1697 2047 
L 1894 2003 
Q 2506 1872 2764 1633 
Q 3022 1394 3022 966 
Q 3022 478 2636 193 
Q 2250 -91 1575 -91 
Q 1294 -91 989 -36 
Q 684 19 347 128 
L 347 722 
Q 666 556 975 473 
Q 1284 391 1588 391 
Q 1994 391 2212 530 
Q 2431 669 2431 922 
Q 2431 1156 2273 1281 
Q 2116 1406 1581 1522 
L 1381 1569 
Q 847 1681 609 1914 
Q 372 2147 372 2553 
Q 372 3047 722 3315 
Q 1072 3584 1716 3584 
Q 2034 3584 2315 3537 
Q 2597 3491 2834 3397 
z
" transform="scale(0.015625)"/>
     </defs>
     <use xlink:href="#DejaVuSans-4d"/>
     <use xlink:href="#DejaVuSans-65" x="86.279297"/>
     <use xlink:href="#DejaVuSans-74" x="147.802734"/>
     <use xlink:href="#DejaVuSans-72" x="187.011719"/>
     <use xlink:href="#DejaVuSans-69" x="228.125"/>
     <use xlink:href="#DejaVuSans-63" x="255.908203"/>
     <use xlink:href="#DejaVuSans-73" x="310.888672"/>
    </g>
   </g>
  </g>
  <g id="axes_3">
   <g id="patch_24">
    <path d="M 135 785.785263 
L 515.454545 785.785263 
L 515.454545 523.174737 
L 135 523.174737 
z
" style="fill: #ffffff"/>
   </g>
   <g id="matplotlib.axis_5">
    <g id="xtick_10">
     <g id="line2d_23">
      <g>
       <use xlink:href="#mcfc8a2aebd" x="137.882231" y="785.785263" style="stroke: #000000; stroke-width: 0.8"/>
      </g>
     </g>
     <g id="text_26">
      <!-- 0 -->
      <g transform="translate(130.883481 809.501826) scale(0.22 -0.22)">
       <use xlink:href="#DejaVuSans-30"/>
      </g>
     </g>
    </g>
    <g id="xtick_11">
     <g id="line2d_24">
      <g>
       <use xlink:href="#mcfc8a2aebd" x="281.993802" y="785.785263" style="stroke: #000000; stroke-width: 0.8"/>
      </g>
     </g>
     <g id="text_27">
      <!-- 20 -->
      <g transform="translate(267.996302 809.501826) scale(0.22 -0.22)">
       <use xlink:href="#DejaVuSans-32"/>
       <use xlink:href="#DejaVuSans-30" x="63.623047"/>
      </g>
     </g>
    </g>
    <g id="xtick_12">
     <g id="line2d_25">
      <g>
       <use xlink:href="#mcfc8a2aebd" x="426.105372" y="785.785263" style="stroke: #000000; stroke-width: 0.8"/>
      </g>
     </g>
     <g id="text_28">
      <!-- 40 -->
      <g transform="translate(412.107872 809.501826) scale(0.22 -0.22)">
       <use xlink:href="#DejaVuSans-34"/>
       <use xlink:href="#DejaVuSans-30" x="63.623047"/>
      </g>
     </g>
    </g>
    <g id="text_29">
     <!-- k -->
     <g transform="translate(318.278523 836.313388) scale(0.24 -0.24)">
      <use xlink:href="#DejaVuSans-6b"/>
     </g>
    </g>
   </g>
   <g id="matplotlib.axis_6">
    <g id="ytick_10">
     <g id="line2d_26">
      <g>
       <use xlink:href="#m9f822e8b93" x="135" y="782.621341" style="stroke: #000000; stroke-width: 0.8"/>
      </g>
     </g>
     <g id="text_30">
      <!-- 0.80 -->
      <g transform="translate(79.015625 790.979622) scale(0.22 -0.22)">
       <use xlink:href="#DejaVuSans-30"/>
       <use xlink:href="#DejaVuSans-2e" x="63.623047"/>
       <use xlink:href="#DejaVuSans-38" x="95.410156"/>
       <use xlink:href="#DejaVuSans-30" x="159.033203"/>
      </g>
     </g>
    </g>
    <g id="ytick_11">
     <g id="line2d_27">
      <g>
       <use xlink:href="#m9f822e8b93" x="135" y="719.023813" style="stroke: #000000; stroke-width: 0.8"/>
      </g>
     </g>
     <g id="text_31">
      <!-- 0.85 -->
      <g transform="translate(79.015625 727.382094) scale(0.22 -0.22)">
       <use xlink:href="#DejaVuSans-30"/>
       <use xlink:href="#DejaVuSans-2e" x="63.623047"/>
       <use xlink:href="#DejaVuSans-38" x="95.410156"/>
       <use xlink:href="#DejaVuSans-35" x="159.033203"/>
      </g>
     </g>
    </g>
    <g id="ytick_12">
     <g id="line2d_28">
      <g>
       <use xlink:href="#m9f822e8b93" x="135" y="655.426284" style="stroke: #000000; stroke-width: 0.8"/>
      </g>
     </g>
     <g id="text_32">
      <!-- 0.90 -->
      <g transform="translate(79.015625 663.784566) scale(0.22 -0.22)">
       <defs>
        <path id="DejaVuSans-39" d="M 703 97 
L 703 672 
Q 941 559 1184 500 
Q 1428 441 1663 441 
Q 2288 441 2617 861 
Q 2947 1281 2994 2138 
Q 2813 1869 2534 1725 
Q 2256 1581 1919 1581 
Q 1219 1581 811 2004 
Q 403 2428 403 3163 
Q 403 3881 828 4315 
Q 1253 4750 1959 4750 
Q 2769 4750 3195 4129 
Q 3622 3509 3622 2328 
Q 3622 1225 3098 567 
Q 2575 -91 1691 -91 
Q 1453 -91 1209 -44 
Q 966 3 703 97 
z
M 1959 2075 
Q 2384 2075 2632 2365 
Q 2881 2656 2881 3163 
Q 2881 3666 2632 3958 
Q 2384 4250 1959 4250 
Q 1534 4250 1286 3958 
Q 1038 3666 1038 3163 
Q 1038 2656 1286 2365 
Q 1534 2075 1959 2075 
z
" transform="scale(0.015625)"/>
       </defs>
       <use xlink:href="#DejaVuSans-30"/>
       <use xlink:href="#DejaVuSans-2e" x="63.623047"/>
       <use xlink:href="#DejaVuSans-39" x="95.410156"/>
       <use xlink:href="#DejaVuSans-30" x="159.033203"/>
      </g>
     </g>
    </g>
    <g id="ytick_13">
     <g id="line2d_29">
      <g>
       <use xlink:href="#m9f822e8b93" x="135" y="591.828756" style="stroke: #000000; stroke-width: 0.8"/>
      </g>
     </g>
     <g id="text_33">
      <!-- 0.95 -->
      <g transform="translate(79.015625 600.187037) scale(0.22 -0.22)">
       <use xlink:href="#DejaVuSans-30"/>
       <use xlink:href="#DejaVuSans-2e" x="63.623047"/>
       <use xlink:href="#DejaVuSans-39" x="95.410156"/>
       <use xlink:href="#DejaVuSans-35" x="159.033203"/>
      </g>
     </g>
    </g>
    <g id="ytick_14">
     <g id="line2d_30">
      <g>
       <use xlink:href="#m9f822e8b93" x="135" y="528.231227" style="stroke: #000000; stroke-width: 0.8"/>
      </g>
     </g>
     <g id="text_34">
      <!-- 1.00 -->
      <g transform="translate(79.015625 536.589509) scale(0.22 -0.22)">
       <use xlink:href="#DejaVuSans-31"/>
       <use xlink:href="#DejaVuSans-2e" x="63.623047"/>
       <use xlink:href="#DejaVuSans-30" x="95.410156"/>
       <use xlink:href="#DejaVuSans-30" x="159.033203"/>
      </g>
     </g>
    </g>
    <g id="text_35">
     <!-- Metric Value -->
     <g transform="translate(70.024375 728.555625) rotate(-90) scale(0.24 -0.24)">
      <use xlink:href="#DejaVuSans-4d"/>
      <use xlink:href="#DejaVuSans-65" x="86.279297"/>
      <use xlink:href="#DejaVuSans-74" x="147.802734"/>
      <use xlink:href="#DejaVuSans-72" x="187.011719"/>
      <use xlink:href="#DejaVuSans-69" x="228.125"/>
      <use xlink:href="#DejaVuSans-63" x="255.908203"/>
      <use xlink:href="#DejaVuSans-20" x="310.888672"/>
      <use xlink:href="#DejaVuSans-56" x="342.675781"/>
      <use xlink:href="#DejaVuSans-61" x="403.333984"/>
      <use xlink:href="#DejaVuSans-6c" x="464.613281"/>
      <use xlink:href="#DejaVuSans-75" x="492.396484"/>
      <use xlink:href="#DejaVuSans-65" x="555.775391"/>
     </g>
    </g>
   </g>
   <g id="line2d_31">
    <path d="M 152.293388 743.150405 
L 173.910124 756.193093 
L 209.938017 760.269927 
L 281.993802 764.539425 
L 498.161157 773.848421 
" clip-path="url(#p53339f95f2)" style="fill: none; stroke: #1f77b4; stroke-width: 1.5; stroke-linecap: square"/>
    <g clip-path="url(#p53339f95f2)">
     <use xlink:href="#ma754088b11" x="152.293388" y="743.150405" style="fill: #1f77b4; stroke: #1f77b4"/>
     <use xlink:href="#ma754088b11" x="173.910124" y="756.193093" style="fill: #1f77b4; stroke: #1f77b4"/>
     <use xlink:href="#ma754088b11" x="209.938017" y="760.269927" style="fill: #1f77b4; stroke: #1f77b4"/>
     <use xlink:href="#ma754088b11" x="281.993802" y="764.539425" style="fill: #1f77b4; stroke: #1f77b4"/>
     <use xlink:href="#ma754088b11" x="498.161157" y="773.848421" style="fill: #1f77b4; stroke: #1f77b4"/>
    </g>
   </g>
   <g id="line2d_32">
    <path d="M 152.293388 535.111579 
L 173.910124 544.441896 
L 209.938017 559.385114 
L 281.993802 582.418541 
L 498.161157 648.368552 
" clip-path="url(#p53339f95f2)" style="fill: none; stroke: #ff7f0e; stroke-width: 1.5; stroke-linecap: square"/>
    <g clip-path="url(#p53339f95f2)">
     <use xlink:href="#mff70f0d000" x="152.293388" y="535.111579" style="fill: #ff7f0e; stroke: #ff7f0e"/>
     <use xlink:href="#mff70f0d000" x="173.910124" y="544.441896" style="fill: #ff7f0e; stroke: #ff7f0e"/>
     <use xlink:href="#mff70f0d000" x="209.938017" y="559.385114" style="fill: #ff7f0e; stroke: #ff7f0e"/>
     <use xlink:href="#mff70f0d000" x="281.993802" y="582.418541" style="fill: #ff7f0e; stroke: #ff7f0e"/>
     <use xlink:href="#mff70f0d000" x="498.161157" y="648.368552" style="fill: #ff7f0e; stroke: #ff7f0e"/>
    </g>
   </g>
   <g id="line2d_33">
    <path d="M 152.293388 555.004316 
L 173.910124 557.666255 
L 209.938017 569.044274 
L 281.993802 595.621526 
L 498.161157 667.235447 
" clip-path="url(#p53339f95f2)" style="fill: none; stroke: #2ca02c; stroke-width: 1.5; stroke-linecap: square"/>
    <g clip-path="url(#p53339f95f2)">
     <use xlink:href="#mcaf6ad0970" x="152.293388" y="555.004316" style="fill: #2ca02c; stroke: #2ca02c"/>
     <use xlink:href="#mcaf6ad0970" x="173.910124" y="557.666255" style="fill: #2ca02c; stroke: #2ca02c"/>
     <use xlink:href="#mcaf6ad0970" x="209.938017" y="569.044274" style="fill: #2ca02c; stroke: #2ca02c"/>
     <use xlink:href="#mcaf6ad0970" x="281.993802" y="595.621526" style="fill: #2ca02c; stroke: #2ca02c"/>
     <use xlink:href="#mcaf6ad0970" x="498.161157" y="667.235447" style="fill: #2ca02c; stroke: #2ca02c"/>
    </g>
   </g>
   <g id="line2d_34">
    <path d="M 152.293388 547.274796 
L 173.910124 552.290601 
L 209.938017 559.925179 
L 281.993802 582.991616 
L 498.161157 661.330202 
" clip-path="url(#p53339f95f2)" style="fill: none; stroke: #d62728; stroke-width: 1.5; stroke-linecap: square"/>
    <g clip-path="url(#p53339f95f2)">
     <use xlink:href="#mef49c8c0b9" x="152.293388" y="547.274796" style="fill: #d62728; stroke: #d62728"/>
     <use xlink:href="#mef49c8c0b9" x="173.910124" y="552.290601" style="fill: #d62728; stroke: #d62728"/>
     <use xlink:href="#mef49c8c0b9" x="209.938017" y="559.925179" style="fill: #d62728; stroke: #d62728"/>
     <use xlink:href="#mef49c8c0b9" x="281.993802" y="582.991616" style="fill: #d62728; stroke: #d62728"/>
     <use xlink:href="#mef49c8c0b9" x="498.161157" y="661.330202" style="fill: #d62728; stroke: #d62728"/>
    </g>
   </g>
   <g id="patch_25">
    <path d="M 135 785.785263 
L 135 523.174737 
" style="fill: none; stroke: #000000; stroke-width: 0.8; stroke-linejoin: miter; stroke-linecap: square"/>
   </g>
   <g id="patch_26">
    <path d="M 515.454545 785.785263 
L 515.454545 523.174737 
" style="fill: none; stroke: #000000; stroke-width: 0.8; stroke-linejoin: miter; stroke-linecap: square"/>
   </g>
   <g id="patch_27">
    <path d="M 135 785.785263 
L 515.454545 785.785263 
" style="fill: none; stroke: #000000; stroke-width: 0.8; stroke-linejoin: miter; stroke-linecap: square"/>
   </g>
   <g id="patch_28">
    <path d="M 135 523.174737 
L 515.454545 523.174737 
" style="fill: none; stroke: #000000; stroke-width: 0.8; stroke-linejoin: miter; stroke-linecap: square"/>
   </g>
   <g id="text_36">
    <!-- c -->
    <g transform="translate(91.769432 505.058783) scale(0.28 -0.28)">
     <defs>
      <path id="DejaVuSans-Bold-63" d="M 3366 3391 
L 3366 2478 
Q 3138 2634 2908 2709 
Q 2678 2784 2431 2784 
Q 1963 2784 1702 2511 
Q 1441 2238 1441 1747 
Q 1441 1256 1702 982 
Q 1963 709 2431 709 
Q 2694 709 2930 787 
Q 3166 866 3366 1019 
L 3366 103 
Q 3103 6 2833 -42 
Q 2563 -91 2291 -91 
Q 1344 -91 809 395 
Q 275 881 275 1747 
Q 275 2613 809 3098 
Q 1344 3584 2291 3584 
Q 2566 3584 2833 3536 
Q 3100 3488 3366 3391 
z
" transform="scale(0.015625)"/>
     </defs>
     <use xlink:href="#DejaVuSans-Bold-63"/>
    </g>
   </g>
   <g id="text_37">
    <!-- Trustworthiness -->
    <g transform="translate(230.950398 517.174737) scale(0.24 -0.24)">
     <defs>
      <path id="DejaVuSans-54" d="M -19 4666 
L 3928 4666 
L 3928 4134 
L 2272 4134 
L 2272 0 
L 1638 0 
L 1638 4134 
L -19 4134 
L -19 4666 
z
" transform="scale(0.015625)"/>
      <path id="DejaVuSans-77" d="M 269 3500 
L 844 3500 
L 1563 769 
L 2278 3500 
L 2956 3500 
L 3675 769 
L 4391 3500 
L 4966 3500 
L 4050 0 
L 3372 0 
L 2619 2869 
L 1863 0 
L 1184 0 
L 269 3500 
z
" transform="scale(0.015625)"/>
      <path id="DejaVuSans-6f" d="M 1959 3097 
Q 1497 3097 1228 2736 
Q 959 2375 959 1747 
Q 959 1119 1226 758 
Q 1494 397 1959 397 
Q 2419 397 2687 759 
Q 2956 1122 2956 1747 
Q 2956 2369 2687 2733 
Q 2419 3097 1959 3097 
z
M 1959 3584 
Q 2709 3584 3137 3096 
Q 3566 2609 3566 1747 
Q 3566 888 3137 398 
Q 2709 -91 1959 -91 
Q 1206 -91 779 398 
Q 353 888 353 1747 
Q 353 2609 779 3096 
Q 1206 3584 1959 3584 
z
" transform="scale(0.015625)"/>
      <path id="DejaVuSans-68" d="M 3513 2113 
L 3513 0 
L 2938 0 
L 2938 2094 
Q 2938 2591 2744 2837 
Q 2550 3084 2163 3084 
Q 1697 3084 1428 2787 
Q 1159 2491 1159 1978 
L 1159 0 
L 581 0 
L 581 4863 
L 1159 4863 
L 1159 2956 
Q 1366 3272 1645 3428 
Q 1925 3584 2291 3584 
Q 2894 3584 3203 3211 
Q 3513 2838 3513 2113 
z
" transform="scale(0.015625)"/>
      <path id="DejaVuSans-6e" d="M 3513 2113 
L 3513 0 
L 2938 0 
L 2938 2094 
Q 2938 2591 2744 2837 
Q 2550 3084 2163 3084 
Q 1697 3084 1428 2787 
Q 1159 2491 1159 1978 
L 1159 0 
L 581 0 
L 581 3500 
L 1159 3500 
L 1159 2956 
Q 1366 3272 1645 3428 
Q 1925 3584 2291 3584 
Q 2894 3584 3203 3211 
Q 3513 2838 3513 2113 
z
" transform="scale(0.015625)"/>
     </defs>
     <use xlink:href="#DejaVuSans-54"/>
     <use xlink:href="#DejaVuSans-72" x="46.333984"/>
     <use xlink:href="#DejaVuSans-75" x="87.447266"/>
     <use xlink:href="#DejaVuSans-73" x="150.826172"/>
     <use xlink:href="#DejaVuSans-74" x="202.925781"/>
     <use xlink:href="#DejaVuSans-77" x="242.134766"/>
     <use xlink:href="#DejaVuSans-6f" x="323.921875"/>
     <use xlink:href="#DejaVuSans-72" x="385.103516"/>
     <use xlink:href="#DejaVuSans-74" x="426.216797"/>
     <use xlink:href="#DejaVuSans-68" x="465.425781"/>
     <use xlink:href="#DejaVuSans-69" x="528.804688"/>
     <use xlink:href="#DejaVuSans-6e" x="556.587891"/>
     <use xlink:href="#DejaVuSans-65" x="619.966797"/>
     <use xlink:href="#DejaVuSans-73" x="681.490234"/>
     <use xlink:href="#DejaVuSans-73" x="733.589844"/>
    </g>
   </g>
  </g>
  <g id="axes_4">
   <g id="patch_29">
    <path d="M 591.545455 785.785263 
L 972 785.785263 
L 972 523.174737 
L 591.545455 523.174737 
z
" style="fill: #ffffff"/>
   </g>
   <g id="matplotlib.axis_7">
    <g id="xtick_13">
     <g id="line2d_35">
      <g>
       <use xlink:href="#mcfc8a2aebd" x="594.427686" y="785.785263" style="stroke: #000000; stroke-width: 0.8"/>
      </g>
     </g>
     <g id="text_38">
      <!-- 0 -->
      <g transform="translate(587.428936 809.501826) scale(0.22 -0.22)">
       <use xlink:href="#DejaVuSans-30"/>
      </g>
     </g>
    </g>
    <g id="xtick_14">
     <g id="line2d_36">
      <g>
       <use xlink:href="#mcfc8a2aebd" x="738.539256" y="785.785263" style="stroke: #000000; stroke-width: 0.8"/>
      </g>
     </g>
     <g id="text_39">
      <!-- 20 -->
      <g transform="translate(724.541756 809.501826) scale(0.22 -0.22)">
       <use xlink:href="#DejaVuSans-32"/>
       <use xlink:href="#DejaVuSans-30" x="63.623047"/>
      </g>
     </g>
    </g>
    <g id="xtick_15">
     <g id="line2d_37">
      <g>
       <use xlink:href="#mcfc8a2aebd" x="882.650826" y="785.785263" style="stroke: #000000; stroke-width: 0.8"/>
      </g>
     </g>
     <g id="text_40">
      <!-- 40 -->
      <g transform="translate(868.653326 809.501826) scale(0.22 -0.22)">
       <use xlink:href="#DejaVuSans-34"/>
       <use xlink:href="#DejaVuSans-30" x="63.623047"/>
      </g>
     </g>
    </g>
    <g id="text_41">
     <!-- k -->
     <g transform="translate(774.823977 836.313388) scale(0.24 -0.24)">
      <use xlink:href="#DejaVuSans-6b"/>
     </g>
    </g>
   </g>
   <g id="matplotlib.axis_8">
    <g id="ytick_15">
     <g id="line2d_38">
      <g>
       <use xlink:href="#m9f822e8b93" x="591.545455" y="700.468082" style="stroke: #000000; stroke-width: 0.8"/>
      </g>
     </g>
     <g id="text_42">
      <!-- 0.90 -->
      <g transform="translate(535.56108 708.826363) scale(0.22 -0.22)">
       <use xlink:href="#DejaVuSans-30"/>
       <use xlink:href="#DejaVuSans-2e" x="63.623047"/>
       <use xlink:href="#DejaVuSans-39" x="95.410156"/>
       <use xlink:href="#DejaVuSans-30" x="159.033203"/>
      </g>
     </g>
    </g>
    <g id="ytick_16">
     <g id="line2d_39">
      <g>
       <use xlink:href="#m9f822e8b93" x="591.545455" y="612.733849" style="stroke: #000000; stroke-width: 0.8"/>
      </g>
     </g>
     <g id="text_43">
      <!-- 0.95 -->
      <g transform="translate(535.56108 621.09213) scale(0.22 -0.22)">
       <use xlink:href="#DejaVuSans-30"/>
       <use xlink:href="#DejaVuSans-2e" x="63.623047"/>
       <use xlink:href="#DejaVuSans-39" x="95.410156"/>
       <use xlink:href="#DejaVuSans-35" x="159.033203"/>
      </g>
     </g>
    </g>
    <g id="ytick_17">
     <g id="line2d_40">
      <g>
       <use xlink:href="#m9f822e8b93" x="591.545455" y="524.999616" style="stroke: #000000; stroke-width: 0.8"/>
      </g>
     </g>
     <g id="text_44">
      <!-- 1.00 -->
      <g transform="translate(535.56108 533.357897) scale(0.22 -0.22)">
       <use xlink:href="#DejaVuSans-31"/>
       <use xlink:href="#DejaVuSans-2e" x="63.623047"/>
       <use xlink:href="#DejaVuSans-30" x="95.410156"/>
       <use xlink:href="#DejaVuSans-30" x="159.033203"/>
      </g>
     </g>
    </g>
   </g>
   <g id="line2d_41">
    <path d="M 608.838843 599.798609 
L 630.455579 621.707213 
L 666.483471 643.061416 
L 738.539256 665.022354 
L 954.706612 699.730259 
" clip-path="url(#p8c5b13cc78)" style="fill: none; stroke: #1f77b4; stroke-width: 1.5; stroke-linecap: square"/>
    <g clip-path="url(#p8c5b13cc78)">
     <use xlink:href="#ma754088b11" x="608.838843" y="599.798609" style="fill: #1f77b4; stroke: #1f77b4"/>
     <use xlink:href="#ma754088b11" x="630.455579" y="621.707213" style="fill: #1f77b4; stroke: #1f77b4"/>
     <use xlink:href="#ma754088b11" x="666.483471" y="643.061416" style="fill: #1f77b4; stroke: #1f77b4"/>
     <use xlink:href="#ma754088b11" x="738.539256" y="665.022354" style="fill: #1f77b4; stroke: #1f77b4"/>
     <use xlink:href="#ma754088b11" x="954.706612" y="699.730259" style="fill: #1f77b4; stroke: #1f77b4"/>
    </g>
   </g>
   <g id="line2d_42">
    <path d="M 608.838843 536.318663 
L 630.455579 544.515878 
L 666.483471 557.248237 
L 738.539256 576.409904 
L 954.706612 631.663354 
" clip-path="url(#p8c5b13cc78)" style="fill: none; stroke: #ff7f0e; stroke-width: 1.5; stroke-linecap: square"/>
    <g clip-path="url(#p8c5b13cc78)">
     <use xlink:href="#mff70f0d000" x="608.838843" y="536.318663" style="fill: #ff7f0e; stroke: #ff7f0e"/>
     <use xlink:href="#mff70f0d000" x="630.455579" y="544.515878" style="fill: #ff7f0e; stroke: #ff7f0e"/>
     <use xlink:href="#mff70f0d000" x="666.483471" y="557.248237" style="fill: #ff7f0e; stroke: #ff7f0e"/>
     <use xlink:href="#mff70f0d000" x="738.539256" y="576.409904" style="fill: #ff7f0e; stroke: #ff7f0e"/>
     <use xlink:href="#mff70f0d000" x="954.706612" y="631.663354" style="fill: #ff7f0e; stroke: #ff7f0e"/>
    </g>
   </g>
   <g id="line2d_43">
    <path d="M 608.838843 535.111579 
L 630.455579 542.273852 
L 666.483471 556.094261 
L 738.539256 580.899497 
L 954.706612 648.056492 
" clip-path="url(#p8c5b13cc78)" style="fill: none; stroke: #2ca02c; stroke-width: 1.5; stroke-linecap: square"/>
    <g clip-path="url(#p8c5b13cc78)">
     <use xlink:href="#mcaf6ad0970" x="608.838843" y="535.111579" style="fill: #2ca02c; stroke: #2ca02c"/>
     <use xlink:href="#mcaf6ad0970" x="630.455579" y="542.273852" style="fill: #2ca02c; stroke: #2ca02c"/>
     <use xlink:href="#mcaf6ad0970" x="666.483471" y="556.094261" style="fill: #2ca02c; stroke: #2ca02c"/>
     <use xlink:href="#mcaf6ad0970" x="738.539256" y="580.899497" style="fill: #2ca02c; stroke: #2ca02c"/>
     <use xlink:href="#mcaf6ad0970" x="954.706612" y="648.056492" style="fill: #2ca02c; stroke: #2ca02c"/>
    </g>
   </g>
   <g id="line2d_44">
    <path d="M 608.838843 564.862173 
L 630.455579 584.859092 
L 666.483471 616.202492 
L 738.539256 659.163924 
L 954.706612 773.848421 
" clip-path="url(#p8c5b13cc78)" style="fill: none; stroke: #d62728; stroke-width: 1.5; stroke-linecap: square"/>
    <g clip-path="url(#p8c5b13cc78)">
     <use xlink:href="#mef49c8c0b9" x="608.838843" y="564.862173" style="fill: #d62728; stroke: #d62728"/>
     <use xlink:href="#mef49c8c0b9" x="630.455579" y="584.859092" style="fill: #d62728; stroke: #d62728"/>
     <use xlink:href="#mef49c8c0b9" x="666.483471" y="616.202492" style="fill: #d62728; stroke: #d62728"/>
     <use xlink:href="#mef49c8c0b9" x="738.539256" y="659.163924" style="fill: #d62728; stroke: #d62728"/>
     <use xlink:href="#mef49c8c0b9" x="954.706612" y="773.848421" style="fill: #d62728; stroke: #d62728"/>
    </g>
   </g>
   <g id="patch_30">
    <path d="M 591.545455 785.785263 
L 591.545455 523.174737 
" style="fill: none; stroke: #000000; stroke-width: 0.8; stroke-linejoin: miter; stroke-linecap: square"/>
   </g>
   <g id="patch_31">
    <path d="M 972 785.785263 
L 972 523.174737 
" style="fill: none; stroke: #000000; stroke-width: 0.8; stroke-linejoin: miter; stroke-linecap: square"/>
   </g>
   <g id="patch_32">
    <path d="M 591.545455 785.785263 
L 972 785.785263 
" style="fill: none; stroke: #000000; stroke-width: 0.8; stroke-linejoin: miter; stroke-linecap: square"/>
   </g>
   <g id="patch_33">
    <path d="M 591.545455 523.174737 
L 972 523.174737 
" style="fill: none; stroke: #000000; stroke-width: 0.8; stroke-linejoin: miter; stroke-linecap: square"/>
   </g>
   <g id="text_45">
    <!-- d -->
    <g transform="translate(544.871761 505.058783) scale(0.28 -0.28)">
     <defs>
      <path id="DejaVuSans-Bold-64" d="M 2919 2988 
L 2919 4863 
L 4044 4863 
L 4044 0 
L 2919 0 
L 2919 506 
Q 2688 197 2409 53 
Q 2131 -91 1766 -91 
Q 1119 -91 703 423 
Q 288 938 288 1747 
Q 288 2556 703 3070 
Q 1119 3584 1766 3584 
Q 2128 3584 2408 3439 
Q 2688 3294 2919 2988 
z
M 2181 722 
Q 2541 722 2730 984 
Q 2919 1247 2919 1747 
Q 2919 2247 2730 2509 
Q 2541 2772 2181 2772 
Q 1825 2772 1636 2509 
Q 1447 2247 1447 1747 
Q 1447 1247 1636 984 
Q 1825 722 2181 722 
z
" transform="scale(0.015625)"/>
     </defs>
     <use xlink:href="#DejaVuSans-Bold-64"/>
    </g>
   </g>
   <g id="text_46">
    <!-- Continuity -->
    <g transform="translate(720.057102 517.174737) scale(0.24 -0.24)">
     <defs>
      <path id="DejaVuSans-79" d="M 2059 -325 
Q 1816 -950 1584 -1140 
Q 1353 -1331 966 -1331 
L 506 -1331 
L 506 -850 
L 844 -850 
Q 1081 -850 1212 -737 
Q 1344 -625 1503 -206 
L 1606 56 
L 191 3500 
L 800 3500 
L 1894 763 
L 2988 3500 
L 3597 3500 
L 2059 -325 
z
" transform="scale(0.015625)"/>
     </defs>
     <use xlink:href="#DejaVuSans-43"/>
     <use xlink:href="#DejaVuSans-6f" x="69.824219"/>
     <use xlink:href="#DejaVuSans-6e" x="131.005859"/>
     <use xlink:href="#DejaVuSans-74" x="194.384766"/>
     <use xlink:href="#DejaVuSans-69" x="233.59375"/>
     <use xlink:href="#DejaVuSans-6e" x="261.376953"/>
     <use xlink:href="#DejaVuSans-75" x="324.755859"/>
     <use xlink:href="#DejaVuSans-69" x="388.134766"/>
     <use xlink:href="#DejaVuSans-74" x="415.917969"/>
     <use xlink:href="#DejaVuSans-79" x="455.126953"/>
    </g>
   </g>
  </g>
  <g id="axes_5">
   <g id="patch_34">
    <path d="M 135 1153.44 
L 515.454545 1153.44 
L 515.454545 890.829474 
L 135 890.829474 
z
" style="fill: #ffffff"/>
   </g>
   <g id="matplotlib.axis_9">
    <g id="xtick_16">
     <g id="line2d_45">
      <g>
       <use xlink:href="#mcfc8a2aebd" x="152.0962" y="1153.44" style="stroke: #000000; stroke-width: 0.8"/>
      </g>
     </g>
     <g id="text_47">
      <!-- 0 -->
      <g transform="translate(145.09745 1177.156562) scale(0.22 -0.22)">
       <use xlink:href="#DejaVuSans-30"/>
      </g>
     </g>
    </g>
    <g id="xtick_17">
     <g id="line2d_46">
      <g>
       <use xlink:href="#mcfc8a2aebd" x="250.690205" y="1153.44" style="stroke: #000000; stroke-width: 0.8"/>
      </g>
     </g>
     <g id="text_48">
      <!-- 500 -->
      <g transform="translate(229.693955 1177.156562) scale(0.22 -0.22)">
       <use xlink:href="#DejaVuSans-35"/>
       <use xlink:href="#DejaVuSans-30" x="63.623047"/>
       <use xlink:href="#DejaVuSans-30" x="127.246094"/>
      </g>
     </g>
    </g>
    <g id="xtick_18">
     <g id="line2d_47">
      <g>
       <use xlink:href="#mcfc8a2aebd" x="349.28421" y="1153.44" style="stroke: #000000; stroke-width: 0.8"/>
      </g>
     </g>
     <g id="text_49">
      <!-- 1000 -->
      <g transform="translate(321.28921 1177.156562) scale(0.22 -0.22)">
       <use xlink:href="#DejaVuSans-31"/>
       <use xlink:href="#DejaVuSans-30" x="63.623047"/>
       <use xlink:href="#DejaVuSans-30" x="127.246094"/>
       <use xlink:href="#DejaVuSans-30" x="190.869141"/>
      </g>
     </g>
    </g>
    <g id="xtick_19">
     <g id="line2d_48">
      <g>
       <use xlink:href="#mcfc8a2aebd" x="447.878215" y="1153.44" style="stroke: #000000; stroke-width: 0.8"/>
      </g>
     </g>
     <g id="text_50">
      <!-- 1500 -->
      <g transform="translate(419.883215 1177.156562) scale(0.22 -0.22)">
       <use xlink:href="#DejaVuSans-31"/>
       <use xlink:href="#DejaVuSans-35" x="63.623047"/>
       <use xlink:href="#DejaVuSans-30" x="127.246094"/>
       <use xlink:href="#DejaVuSans-30" x="190.869141"/>
      </g>
     </g>
    </g>
    <g id="text_51">
     <!-- k -->
     <g transform="translate(318.278523 1203.968125) scale(0.24 -0.24)">
      <use xlink:href="#DejaVuSans-6b"/>
     </g>
    </g>
   </g>
   <g id="matplotlib.axis_10">
    <g id="ytick_18">
     <g id="line2d_49">
      <g>
       <use xlink:href="#m9f822e8b93" x="135" y="1099.031248" style="stroke: #000000; stroke-width: 0.8"/>
      </g>
     </g>
     <g id="text_52">
      <!-- 0.25 -->
      <g transform="translate(79.015625 1107.389529) scale(0.22 -0.22)">
       <use xlink:href="#DejaVuSans-30"/>
       <use xlink:href="#DejaVuSans-2e" x="63.623047"/>
       <use xlink:href="#DejaVuSans-32" x="95.410156"/>
       <use xlink:href="#DejaVuSans-35" x="159.033203"/>
      </g>
     </g>
    </g>
    <g id="ytick_19">
     <g id="line2d_50">
      <g>
       <use xlink:href="#m9f822e8b93" x="135" y="1033.609604" style="stroke: #000000; stroke-width: 0.8"/>
      </g>
     </g>
     <g id="text_53">
      <!-- 0.50 -->
      <g transform="translate(79.015625 1041.967885) scale(0.22 -0.22)">
       <use xlink:href="#DejaVuSans-30"/>
       <use xlink:href="#DejaVuSans-2e" x="63.623047"/>
       <use xlink:href="#DejaVuSans-35" x="95.410156"/>
       <use xlink:href="#DejaVuSans-30" x="159.033203"/>
      </g>
     </g>
    </g>
    <g id="ytick_20">
     <g id="line2d_51">
      <g>
       <use xlink:href="#m9f822e8b93" x="135" y="968.18796" style="stroke: #000000; stroke-width: 0.8"/>
      </g>
     </g>
     <g id="text_54">
      <!-- 0.75 -->
      <g transform="translate(79.015625 976.546241) scale(0.22 -0.22)">
       <defs>
        <path id="DejaVuSans-37" d="M 525 4666 
L 3525 4666 
L 3525 4397 
L 1831 0 
L 1172 0 
L 2766 4134 
L 525 4134 
L 525 4666 
z
" transform="scale(0.015625)"/>
       </defs>
       <use xlink:href="#DejaVuSans-30"/>
       <use xlink:href="#DejaVuSans-2e" x="63.623047"/>
       <use xlink:href="#DejaVuSans-37" x="95.410156"/>
       <use xlink:href="#DejaVuSans-35" x="159.033203"/>
      </g>
     </g>
    </g>
    <g id="ytick_21">
     <g id="line2d_52">
      <g>
       <use xlink:href="#m9f822e8b93" x="135" y="902.766316" style="stroke: #000000; stroke-width: 0.8"/>
      </g>
     </g>
     <g id="text_55">
      <!-- 1.00 -->
      <g transform="translate(79.015625 911.124597) scale(0.22 -0.22)">
       <use xlink:href="#DejaVuSans-31"/>
       <use xlink:href="#DejaVuSans-2e" x="63.623047"/>
       <use xlink:href="#DejaVuSans-30" x="95.410156"/>
       <use xlink:href="#DejaVuSans-30" x="159.033203"/>
      </g>
     </g>
    </g>
    <g id="text_56">
     <!-- Metric Value -->
     <g transform="translate(70.024375 1096.210362) rotate(-90) scale(0.24 -0.24)">
      <use xlink:href="#DejaVuSans-4d"/>
      <use xlink:href="#DejaVuSans-65" x="86.279297"/>
      <use xlink:href="#DejaVuSans-74" x="147.802734"/>
      <use xlink:href="#DejaVuSans-72" x="187.011719"/>
      <use xlink:href="#DejaVuSans-69" x="228.125"/>
      <use xlink:href="#DejaVuSans-63" x="255.908203"/>
      <use xlink:href="#DejaVuSans-20" x="310.888672"/>
      <use xlink:href="#DejaVuSans-56" x="342.675781"/>
      <use xlink:href="#DejaVuSans-61" x="403.333984"/>
      <use xlink:href="#DejaVuSans-6c" x="464.613281"/>
      <use xlink:href="#DejaVuSans-75" x="492.396484"/>
      <use xlink:href="#DejaVuSans-65" x="555.775391"/>
     </g>
    </g>
   </g>
   <g id="line2d_53">
    <path d="M 152.293388 1141.503158 
L 152.884952 1128.836097 
L 154.068081 1118.821668 
L 154.856833 1113.220485 
L 155.251209 1111.12084 
L 156.237149 1106.603099 
L 156.434337 1105.696696 
L 156.631525 1105.361539 
L 158.011841 1100.516523 
L 159.983721 1094.664837 
L 160.575285 1093.465365 
L 161.955601 1090.498119 
L 162.547165 1088.80481 
L 163.335917 1087.164212 
L 164.321857 1085.270541 
L 166.293737 1081.342898 
L 167.082489 1080.285566 
L 168.462805 1077.914692 
L 169.251557 1077.059593 
L 171.026249 1074.765133 
L 172.800941 1072.563122 
L 173.984069 1071.081818 
L 176.153138 1068.7097 
L 176.94189 1067.886363 
L 177.92783 1066.595154 
L 179.110958 1065.324574 
L 195.674751 1046.099319 
L 198.632571 1043.069486 
L 201.590391 1040.247417 
L 202.773519 1039.110164 
L 210.069475 1033.234509 
L 211.252603 1032.489935 
L 213.224483 1031.366068 
L 214.013235 1030.921472 
L 215.985115 1029.637464 
L 236.887044 1017.530234 
L 238.858925 1016.619824 
L 249.704265 1011.45015 
L 250.887393 1010.911516 
L 252.464897 1010.227143 
L 255.817093 1008.996521 
L 257.394597 1008.321529 
L 259.366478 1007.359421 
L 261.732734 1006.367114 
L 264.690554 1005.032965 
L 266.859622 1004.067211 
L 274.747142 1000.365457 
L 275.733082 999.928698 
L 277.507774 999.121035 
L 281.648723 997.024718 
L 285.592483 995.143518 
L 293.085627 991.893236 
L 298.804079 989.069582 
L 303.73378 986.620263 
L 313.59318 981.82013 
L 317.53694 980.074553 
L 320.297572 978.790345 
L 322.663829 977.6771 
L 325.621649 976.291831 
L 339.819185 970.29011 
L 349.481398 967.207764 
L 368.805823 962.945805 
L 371.566455 962.384717 
L 373.538335 961.899349 
L 375.115839 961.43865 
L 387.538684 957.679753 
L 392.271196 955.783098 
L 402.524972 951.998881 
L 406.271545 950.714665 
L 409.426553 949.596129 
L 413.370313 947.985221 
L 419.877517 944.827147 
L 430.722858 939.11874 
L 438.807566 934.945509 
L 444.131642 931.615538 
L 455.962923 923.552539 
L 458.920743 921.755606 
L 462.272939 919.979895 
L 465.625135 918.542547 
L 471.1464 916.372745 
L 481.99174 912.811334 
L 484.555184 912.0623 
L 488.104569 909.753489 
L 497.569593 903.214409 
L 498.161157 902.766316 
L 498.161157 902.766316 
" clip-path="url(#p55a67b101f)" style="fill: none; stroke: #1f77b4; stroke-width: 1.5; stroke-linecap: square"/>
   </g>
   <g id="line2d_54">
    <path d="M 152.293388 983.090384 
L 152.490576 980.929533 
L 152.884952 982.084471 
L 153.279328 982.668149 
L 153.673704 986.238522 
L 153.870893 987.01469 
L 155.251209 996.018238 
L 156.039961 999.646978 
L 156.631525 1000.850187 
L 159.194969 1009.976842 
L 161.166849 1015.470761 
L 161.561225 1016.00301 
L 163.927481 1018.692277 
L 164.519045 1019.480686 
L 164.716233 1019.636252 
L 165.110609 1020.120652 
L 166.293737 1021.190917 
L 166.490925 1021.332456 
L 167.082489 1022.09552 
L 167.674053 1022.785539 
L 171.026249 1028.213684 
L 172.406565 1029.836252 
L 174.181257 1031.432785 
L 175.364386 1032.278489 
L 175.758762 1032.526694 
L 177.139078 1033.367879 
L 177.92783 1033.711987 
L 178.322206 1034.008496 
L 179.505334 1034.54985 
L 180.096898 1034.750374 
L 180.88565 1035.043707 
L 183.84347 1035.562654 
L 186.998478 1035.502296 
L 189.956298 1034.817321 
L 191.139426 1034.415689 
L 197.055067 1032.871672 
L 207.111655 1029.526126 
L 208.097595 1029.22021 
L 209.477911 1028.741478 
L 211.844167 1028.124725 
L 212.830107 1027.915233 
L 217.168244 1026.916609 
L 219.140124 1026.498079 
L 232.548908 1023.174985 
L 237.478609 1021.583726 
L 240.830805 1020.379894 
L 242.999873 1019.662421 
L 248.126761 1017.863524 
L 250.493017 1016.895893 
L 254.831153 1015.388029 
L 257.986162 1014.179007 
L 259.16929 1013.744919 
L 264.09899 1011.864395 
L 266.859622 1010.86241 
L 274.94433 1007.739664 
L 276.719022 1007.000759 
L 282.831851 1004.565835 
L 292.099687 1000.544692 
L 296.043447 998.918392 
L 299.987208 997.334122 
L 303.73378 995.703766 
L 308.269104 993.988723 
L 310.832548 993.097224 
L 327.593529 987.314971 
L 329.959785 986.418648 
L 338.438869 983.346328 
L 340.805125 982.521383 
L 352.439218 978.611736 
L 355.988602 977.401232 
L 361.11549 975.51461 
L 366.045191 973.643621 
L 368.411447 972.66317 
L 372.158019 971.082983 
L 387.538684 964.162558 
L 398.384024 959.181717 
L 401.144656 957.960153 
L 407.651861 955.1795 
L 411.989997 953.302609 
L 423.624089 948.019362 
L 431.708798 943.859174 
L 436.638498 941.026096 
L 457.146051 928.377004 
L 464.442007 924.350653 
L 469.963272 921.282763 
L 476.470476 917.323946 
L 478.245168 916.365995 
L 483.96362 913.173928 
L 486.724252 911.245242 
L 494.414585 905.630054 
L 498.161157 902.766316 
L 498.161157 902.766316 
" clip-path="url(#p55a67b101f)" style="fill: none; stroke: #ff7f0e; stroke-width: 1.5; stroke-linecap: square"/>
   </g>
   <g id="line2d_55">
    <path d="M 152.293388 1094.113448 
L 152.687764 1052.585358 
L 153.08214 1031.165606 
L 153.476516 1016.642129 
L 153.870893 1010.27903 
L 154.265269 1007.665837 
L 154.659645 1006.441337 
L 154.856833 1006.263655 
L 155.251209 1006.412679 
L 155.645585 1006.909426 
L 155.842773 1007.655855 
L 156.039961 1007.575068 
L 156.237149 1007.878084 
L 156.434337 1007.950338 
L 156.631525 1007.808971 
L 156.828713 1008.10783 
L 158.800593 1014.074278 
L 159.392157 1016.302653 
L 159.983721 1017.809308 
L 160.772473 1020.136457 
L 162.349977 1023.286809 
L 163.138729 1024.750645 
L 163.533105 1025.192303 
L 164.124669 1025.652686 
L 164.716233 1025.916227 
L 165.110609 1026.20355 
L 165.504985 1026.32714 
L 166.096549 1026.399769 
L 166.885301 1026.281585 
L 167.674053 1027.203448 
L 168.462805 1028.400937 
L 170.237497 1031.105349 
L 172.603753 1033.496403 
L 173.392505 1034.111871 
L 174.181257 1034.64479 
L 174.97001 1034.964954 
L 175.95595 1035.500118 
L 176.744702 1035.744823 
L 179.505334 1036.136583 
L 180.096898 1036.049613 
L 181.280026 1035.861078 
L 183.251906 1035.740273 
L 183.84347 1035.707976 
L 184.237846 1035.644745 
L 186.998478 1035.160466 
L 188.378794 1034.793699 
L 190.350674 1034.093549 
L 191.533802 1033.652821 
L 195.280374 1032.335072 
L 196.463503 1031.956428 
L 198.041007 1031.244404 
L 199.618511 1030.625409 
L 214.013235 1025.340182 
L 215.787927 1024.888225 
L 218.154184 1024.09207 
L 223.281072 1022.682535 
L 227.816396 1021.491682 
L 228.605148 1021.211401 
L 229.788276 1020.864627 
L 241.816745 1016.65916 
L 243.197061 1016.102803 
L 244.577377 1015.462645 
L 245.366129 1015.079557 
L 253.450837 1012.000508 
L 257.394597 1010.602102 
L 259.366478 1009.887355 
L 260.943982 1009.312982 
L 268.04275 1006.488205 
L 271.197758 1005.000156 
L 273.169638 1004.139695 
L 278.888091 1001.832443 
L 284.803731 999.425479 
L 286.184047 998.842685 
L 290.522183 997.205018 
L 292.296875 996.513885 
L 295.649071 995.406788 
L 299.198455 993.855089 
L 304.325344 991.415087 
L 306.888788 990.278289 
L 310.438172 988.642326 
L 313.59318 987.337484 
L 315.367872 986.564917 
L 320.691949 984.513174 
L 323.452581 983.560265 
L 330.748537 980.988583 
L 338.044493 977.920681 
L 341.791066 976.481113 
L 358.15767 969.471565 
L 367.425507 965.13965 
L 373.538335 962.648451 
L 376.298967 961.653699 
L 387.144308 956.882245 
L 395.031828 953.332468 
L 399.172776 951.415774 
L 406.863109 947.471859 
L 414.947817 943.307395 
L 419.088765 941.185295 
L 423.229713 938.891744 
L 429.145354 935.503495 
L 439.990694 929.486261 
L 448.666967 925.222506 
L 455.962923 922.012783 
L 463.061691 919.247245 
L 465.822323 918.450017 
L 468.385768 917.917641 
L 471.1464 917.108011 
L 472.329528 916.834058 
L 478.04798 915.819145 
L 482.386116 914.115735 
L 483.766432 913.273234 
L 487.315817 910.78794 
L 490.470825 908.477436 
L 492.442705 907.085774 
L 498.161157 902.766316 
L 498.161157 902.766316 
" clip-path="url(#p55a67b101f)" style="fill: none; stroke: #2ca02c; stroke-width: 1.5; stroke-linecap: square"/>
   </g>
   <g id="line2d_56">
    <path d="M 152.293388 1088.599551 
L 152.687764 1053.330479 
L 153.476516 1029.585949 
L 154.068081 1020.853128 
L 154.659645 1016.758401 
L 154.856833 1016.280213 
L 156.039961 1011.874418 
L 156.237149 1011.809486 
L 156.631525 1012.882275 
L 156.828713 1012.982164 
L 157.223089 1013.62316 
L 157.420277 1013.651394 
L 158.011841 1014.956736 
L 158.406217 1015.684781 
L 158.997781 1017.927995 
L 159.392157 1019.347581 
L 159.983721 1021.188433 
L 160.378097 1022.120544 
L 161.561225 1025.521934 
L 162.744353 1027.408539 
L 164.716233 1032.226473 
L 165.110609 1033.004475 
L 166.688113 1035.897327 
L 167.476865 1037.176633 
L 168.462805 1039.11991 
L 171.815001 1044.601632 
L 172.998129 1046.25417 
L 173.984069 1047.66353 
L 179.110958 1053.508148 
L 181.082838 1055.281987 
L 183.84347 1057.056394 
L 185.026598 1057.636417 
L 188.575982 1058.772146 
L 188.970358 1058.844907 
L 189.956298 1059.103616 
L 191.139426 1059.268117 
L 193.505682 1059.878321 
L 196.463503 1059.918675 
L 197.055067 1059.94245 
L 199.026947 1059.773377 
L 200.210075 1059.455538 
L 201.787579 1059.079148 
L 202.970707 1058.732319 
L 204.745399 1058.396187 
L 205.731339 1058.239696 
L 207.703219 1057.530638 
L 208.886347 1057.05298 
L 210.661039 1056.29842 
L 212.435731 1055.685647 
L 213.224483 1055.328686 
L 219.928876 1052.174819 
L 222.295132 1050.806416 
L 223.281072 1050.211152 
L 224.858576 1049.149723 
L 226.830456 1047.963509 
L 228.40796 1047.006383 
L 234.717976 1044.35571 
L 235.506728 1044.085691 
L 237.478609 1043.16402 
L 243.197061 1040.756639 
L 251.084581 1038.168499 
L 255.028341 1036.941523 
L 255.817093 1036.630886 
L 258.577726 1035.925275 
L 274.747142 1032.088934 
L 277.113398 1031.585319 
L 294.465943 1025.581077 
L 301.564712 1023.479101 
L 302.945028 1023.011934 
L 306.494412 1021.730297 
L 308.466292 1021.33305 
L 310.043796 1020.913892 
L 313.395992 1019.76711 
L 315.762248 1018.747218 
L 324.044145 1015.579892 
L 327.001965 1014.610945 
L 331.931665 1012.285737 
L 337.847305 1009.166938 
L 342.974194 1006.780159 
L 345.34045 1005.862354 
L 347.115142 1005.227793 
L 348.29827 1004.650973 
L 350.467338 1003.640621 
L 362.692995 998.228625 
L 370.974891 994.688767 
L 372.355207 994.088694 
L 380.834291 990.008064 
L 385.369616 987.554813 
L 387.538684 986.376531 
L 392.468384 983.432932 
L 395.623392 981.662044 
L 402.130596 977.512082 
L 412.778749 969.812459 
L 430.722858 955.295939 
L 433.48349 952.972762 
L 445.511958 942.637312 
L 457.343239 932.475185 
L 460.103871 930.377875 
L 477.850792 917.619306 
L 482.583304 914.041654 
L 498.161157 902.76759 
L 498.161157 902.76759 
" clip-path="url(#p55a67b101f)" style="fill: none; stroke: #d62728; stroke-width: 1.5; stroke-linecap: square"/>
   </g>
   <g id="patch_35">
    <path d="M 135 1153.44 
L 135 890.829474 
" style="fill: none; stroke: #000000; stroke-width: 0.8; stroke-linejoin: miter; stroke-linecap: square"/>
   </g>
   <g id="patch_36">
    <path d="M 515.454545 1153.44 
L 515.454545 890.829474 
" style="fill: none; stroke: #000000; stroke-width: 0.8; stroke-linejoin: miter; stroke-linecap: square"/>
   </g>
   <g id="patch_37">
    <path d="M 135 1153.44 
L 515.454545 1153.44 
" style="fill: none; stroke: #000000; stroke-width: 0.8; stroke-linejoin: miter; stroke-linecap: square"/>
   </g>
   <g id="patch_38">
    <path d="M 135 890.829474 
L 515.454545 890.829474 
" style="fill: none; stroke: #000000; stroke-width: 0.8; stroke-linejoin: miter; stroke-linecap: square"/>
   </g>
   <g id="text_57">
    <!-- e -->
    <g transform="translate(89.376307 872.71352) scale(0.28 -0.28)">
     <defs>
      <path id="DejaVuSans-Bold-65" d="M 4031 1759 
L 4031 1441 
L 1416 1441 
Q 1456 1047 1700 850 
Q 1944 653 2381 653 
Q 2734 653 3104 758 
Q 3475 863 3866 1075 
L 3866 213 
Q 3469 63 3072 -14 
Q 2675 -91 2278 -91 
Q 1328 -91 801 392 
Q 275 875 275 1747 
Q 275 2603 792 3093 
Q 1309 3584 2216 3584 
Q 3041 3584 3536 3087 
Q 4031 2591 4031 1759 
z
M 2881 2131 
Q 2881 2450 2695 2645 
Q 2509 2841 2209 2841 
Q 1884 2841 1681 2658 
Q 1478 2475 1428 2131 
L 2881 2131 
z
" transform="scale(0.015625)"/>
     </defs>
     <use xlink:href="#DejaVuSans-Bold-65"/>
    </g>
   </g>
   <g id="text_58">
    <!-- $Q_{NN}$ -->
    <g transform="translate(302.787273 884.829474) scale(0.24 -0.24)">
     <use xlink:href="#DejaVuSans-Oblique-51" transform="translate(0 0.78125)"/>
     <use xlink:href="#DejaVuSans-Oblique-4e" transform="translate(78.710938 -15.625) scale(0.7)"/>
     <use xlink:href="#DejaVuSans-Oblique-4e" transform="translate(131.074219 -15.625) scale(0.7)"/>
    </g>
   </g>
  </g>
  <g id="axes_6">
   <g id="patch_39">
    <path d="M 591.545455 1153.44 
L 972 1153.44 
L 972 890.829474 
L 591.545455 890.829474 
z
" style="fill: #ffffff"/>
   </g>
   <g id="matplotlib.axis_11">
    <g id="xtick_20">
     <g id="line2d_57">
      <g>
       <use xlink:href="#mcfc8a2aebd" x="608.641655" y="1153.44" style="stroke: #000000; stroke-width: 0.8"/>
      </g>
     </g>
     <g id="text_59">
      <!-- 0 -->
      <g transform="translate(601.642905 1177.156562) scale(0.22 -0.22)">
       <use xlink:href="#DejaVuSans-30"/>
      </g>
     </g>
    </g>
    <g id="xtick_21">
     <g id="line2d_58">
      <g>
       <use xlink:href="#mcfc8a2aebd" x="707.23566" y="1153.44" style="stroke: #000000; stroke-width: 0.8"/>
      </g>
     </g>
     <g id="text_60">
      <!-- 500 -->
      <g transform="translate(686.23941 1177.156562) scale(0.22 -0.22)">
       <use xlink:href="#DejaVuSans-35"/>
       <use xlink:href="#DejaVuSans-30" x="63.623047"/>
       <use xlink:href="#DejaVuSans-30" x="127.246094"/>
      </g>
     </g>
    </g>
    <g id="xtick_22">
     <g id="line2d_59">
      <g>
       <use xlink:href="#mcfc8a2aebd" x="805.829664" y="1153.44" style="stroke: #000000; stroke-width: 0.8"/>
      </g>
     </g>
     <g id="text_61">
      <!-- 1000 -->
      <g transform="translate(777.834664 1177.156562) scale(0.22 -0.22)">
       <use xlink:href="#DejaVuSans-31"/>
       <use xlink:href="#DejaVuSans-30" x="63.623047"/>
       <use xlink:href="#DejaVuSans-30" x="127.246094"/>
       <use xlink:href="#DejaVuSans-30" x="190.869141"/>
      </g>
     </g>
    </g>
    <g id="xtick_23">
     <g id="line2d_60">
      <g>
       <use xlink:href="#mcfc8a2aebd" x="904.423669" y="1153.44" style="stroke: #000000; stroke-width: 0.8"/>
      </g>
     </g>
     <g id="text_62">
      <!-- 1500 -->
      <g transform="translate(876.428669 1177.156562) scale(0.22 -0.22)">
       <use xlink:href="#DejaVuSans-31"/>
       <use xlink:href="#DejaVuSans-35" x="63.623047"/>
       <use xlink:href="#DejaVuSans-30" x="127.246094"/>
       <use xlink:href="#DejaVuSans-30" x="190.869141"/>
      </g>
     </g>
    </g>
    <g id="text_63">
     <!-- k -->
     <g transform="translate(774.823977 1203.968125) scale(0.24 -0.24)">
      <use xlink:href="#DejaVuSans-6b"/>
     </g>
    </g>
   </g>
   <g id="matplotlib.axis_12">
    <g id="ytick_22">
     <g id="line2d_61">
      <g>
       <use xlink:href="#m9f822e8b93" x="591.545455" y="1138.210789" style="stroke: #000000; stroke-width: 0.8"/>
      </g>
     </g>
     <g id="text_64">
      <!-- 0.0 -->
      <g transform="translate(549.55858 1146.569071) scale(0.22 -0.22)">
       <use xlink:href="#DejaVuSans-30"/>
       <use xlink:href="#DejaVuSans-2e" x="63.623047"/>
       <use xlink:href="#DejaVuSans-30" x="95.410156"/>
      </g>
     </g>
    </g>
    <g id="ytick_23">
     <g id="line2d_62">
      <g>
       <use xlink:href="#m9f822e8b93" x="591.545455" y="1070.957291" style="stroke: #000000; stroke-width: 0.8"/>
      </g>
     </g>
     <g id="text_65">
      <!-- 0.2 -->
      <g transform="translate(549.55858 1079.315573) scale(0.22 -0.22)">
       <use xlink:href="#DejaVuSans-30"/>
       <use xlink:href="#DejaVuSans-2e" x="63.623047"/>
       <use xlink:href="#DejaVuSans-32" x="95.410156"/>
      </g>
     </g>
    </g>
    <g id="ytick_24">
     <g id="line2d_63">
      <g>
       <use xlink:href="#m9f822e8b93" x="591.545455" y="1003.703793" style="stroke: #000000; stroke-width: 0.8"/>
      </g>
     </g>
     <g id="text_66">
      <!-- 0.4 -->
      <g transform="translate(549.55858 1012.062075) scale(0.22 -0.22)">
       <use xlink:href="#DejaVuSans-30"/>
       <use xlink:href="#DejaVuSans-2e" x="63.623047"/>
       <use xlink:href="#DejaVuSans-34" x="95.410156"/>
      </g>
     </g>
    </g>
    <g id="ytick_25">
     <g id="line2d_64">
      <g>
       <use xlink:href="#m9f822e8b93" x="591.545455" y="936.450295" style="stroke: #000000; stroke-width: 0.8"/>
      </g>
     </g>
     <g id="text_67">
      <!-- 0.6 -->
      <g transform="translate(549.55858 944.808577) scale(0.22 -0.22)">
       <use xlink:href="#DejaVuSans-30"/>
       <use xlink:href="#DejaVuSans-2e" x="63.623047"/>
       <use xlink:href="#DejaVuSans-36" x="95.410156"/>
      </g>
     </g>
    </g>
   </g>
   <g id="line2d_65">
    <path d="M 608.838843 1108.911966 
L 609.430407 1093.209597 
L 610.613535 1081.490679 
L 611.402287 1075.059575 
L 611.599475 1074.163299 
L 612.191039 1070.657117 
L 612.979791 1066.924343 
L 613.176979 1066.685271 
L 614.360107 1062.480472 
L 615.346047 1059.425039 
L 615.740423 1058.488428 
L 616.923551 1055.662232 
L 617.515115 1054.612674 
L 618.501055 1052.75911 
L 618.895431 1051.568074 
L 619.684183 1050.183318 
L 620.472936 1048.820484 
L 621.0645 1047.998593 
L 621.853252 1046.731461 
L 623.03638 1045.091222 
L 623.430756 1044.730483 
L 623.627944 1044.61771 
L 625.00826 1042.912372 
L 625.797012 1042.57999 
L 626.585764 1042.043284 
L 626.782952 1041.971045 
L 627.177328 1041.627464 
L 631.121088 1039.217965 
L 631.712652 1039.003925 
L 632.501404 1038.57945 
L 633.092968 1038.448574 
L 634.276096 1037.736558 
L 634.670472 1037.514101 
L 636.445164 1036.639428 
L 637.233916 1036.237006 
L 638.614232 1035.558905 
L 639.79736 1034.863664 
L 641.177677 1034.202204 
L 643.346745 1032.953819 
L 643.741121 1032.695314 
L 644.135497 1032.538307 
L 645.121437 1032.077852 
L 646.107377 1031.547929 
L 647.882069 1030.523056 
L 650.642701 1029.297813 
L 651.431453 1028.848608 
L 653.600521 1027.916165 
L 654.783649 1027.532643 
L 658.135845 1026.699597 
L 658.924597 1026.473868 
L 660.107725 1026.286574 
L 662.079606 1026.067343 
L 663.65711 1025.8686 
L 667.009306 1025.955743 
L 670.755878 1026.798574 
L 673.319322 1027.21843 
L 674.108074 1027.461796 
L 674.699638 1027.623078 
L 675.882766 1027.890537 
L 676.868706 1028.030251 
L 678.44621 1028.400867 
L 679.234962 1028.673855 
L 685.347791 1029.916546 
L 686.925295 1030.331717 
L 689.488739 1030.806022 
L 691.460619 1031.284965 
L 692.446559 1031.492798 
L 693.038123 1031.62627 
L 695.798755 1032.686939 
L 698.165011 1033.470519 
L 699.150951 1033.80486 
L 703.2919 1035.371807 
L 705.855344 1036.273191 
L 707.038472 1036.762225 
L 710.785044 1038.411976 
L 712.954112 1039.524841 
L 715.12318 1040.314393 
L 716.503496 1040.840522 
L 720.250068 1042.362002 
L 721.236008 1042.762725 
L 723.207888 1043.562624 
L 726.757273 1044.875191 
L 736.419485 1048.431021 
L 740.363245 1049.704029 
L 751.602962 1054.142729 
L 753.77203 1054.861939 
L 755.74391 1055.511884 
L 758.110166 1056.284579 
L 772.110515 1061.265914 
L 774.279583 1062.104019 
L 776.645839 1062.987499 
L 778.814907 1063.814673 
L 781.772727 1064.881068 
L 786.308051 1066.730933 
L 796.36464 1071.119784 
L 806.026852 1076.547633 
L 825.351277 1089.848341 
L 828.111909 1091.809818 
L 829.689414 1092.847698 
L 831.858482 1094.160071 
L 832.844422 1094.747635 
L 838.168498 1097.996407 
L 844.675702 1101.536196 
L 849.802591 1103.909508 
L 851.774471 1104.747591 
L 859.267615 1108.643141 
L 867.943887 1113.0756 
L 871.887648 1114.643192 
L 877.211724 1116.402568 
L 882.732988 1117.834607 
L 886.47956 1119.105632 
L 890.817697 1120.670454 
L 895.550209 1121.926929 
L 900.874285 1122.79837 
L 905.212421 1123.157945 
L 910.536497 1123.735695 
L 913.691506 1124.095848 
L 917.043702 1124.89871 
L 919.607146 1125.739615 
L 921.381838 1126.523391 
L 927.494666 1129.346282 
L 928.874982 1130.156599 
L 931.635614 1131.511085 
L 936.959691 1134.34528 
L 938.340007 1135.25072 
L 939.325947 1135.905693 
L 941.100639 1136.935364 
L 944.058459 1137.363709 
L 948.199407 1137.826865 
L 949.579723 1137.995302 
L 950.960039 1138.11727 
L 951.748791 1138.231494 
L 954.706612 1138.210789 
L 954.706612 1138.210789 
" clip-path="url(#pf5ec5d8fc6)" style="fill: none; stroke: #1f77b4; stroke-width: 1.5; stroke-linecap: square"/>
   </g>
   <g id="line2d_66">
    <path d="M 608.838843 905.351407 
L 609.036031 902.766316 
L 609.430407 904.633623 
L 609.824783 905.766861 
L 610.219159 910.738004 
L 610.416347 911.926986 
L 611.993851 926.282571 
L 612.782603 930.913785 
L 613.176979 932.388088 
L 615.740423 946.606719 
L 617.712303 955.582464 
L 618.106679 956.649615 
L 620.472936 962.40459 
L 621.0645 963.992513 
L 621.656064 965.389685 
L 624.416696 971.919351 
L 626.585764 978.719038 
L 627.374516 980.974478 
L 628.557644 984.057814 
L 629.543584 986.261014 
L 630.9239 989.128851 
L 631.712652 990.602828 
L 633.684532 994.100315 
L 634.86766 996.07314 
L 636.247976 998.165677 
L 638.81142 1001.590498 
L 641.966429 1005.088316 
L 643.543933 1006.423313 
L 646.304565 1008.300894 
L 649.656761 1010.401424 
L 655.178025 1013.711208 
L 656.558341 1014.397519 
L 658.530221 1015.41888 
L 662.868358 1017.784753 
L 663.65711 1018.28768 
L 664.248674 1018.600516 
L 667.995246 1020.834775 
L 670.164314 1022.260684 
L 672.136194 1023.628851 
L 676.868706 1026.84087 
L 678.44621 1027.795544 
L 682.981535 1030.843839 
L 685.150603 1032.272267 
L 685.742167 1032.705202 
L 686.530919 1033.19563 
L 689.094363 1034.843555 
L 693.629687 1037.379704 
L 705.26378 1043.382141 
L 708.813164 1045.163587 
L 711.376608 1046.488721 
L 714.334428 1047.895172 
L 716.700684 1049.065111 
L 718.081 1049.717942 
L 720.644444 1050.966303 
L 723.207888 1052.271585 
L 728.137589 1054.632533 
L 731.686973 1056.275193 
L 734.447605 1057.555413 
L 735.827921 1058.21642 
L 762.448302 1069.707573 
L 771.124575 1074.232176 
L 773.490831 1075.543681 
L 775.068335 1076.431655 
L 778.223343 1078.126473 
L 781.772727 1079.924651 
L 787.688368 1082.835203 
L 800.111212 1089.248526 
L 802.083092 1090.287789 
L 805.632476 1092.225736 
L 811.942493 1095.680721 
L 818.646885 1099.022427 
L 827.323157 1102.967837 
L 831.464106 1104.74208 
L 835.01349 1106.238572 
L 844.87289 1109.917257 
L 849.013838 1111.479494 
L 860.253555 1115.925594 
L 870.901708 1120.382329 
L 882.338612 1124.674533 
L 886.282372 1125.901931 
L 893.972705 1127.748111 
L 898.902405 1128.610949 
L 904.226481 1129.409796 
L 907.775865 1130.077344 
L 917.832454 1132.308225 
L 927.691854 1134.846431 
L 934.001871 1136.107496 
L 936.959691 1136.886948 
L 941.495015 1137.888213 
L 944.847211 1138.06393 
L 952.537543 1138.224083 
L 954.706612 1138.210789 
L 954.706612 1138.210789 
" clip-path="url(#pf5ec5d8fc6)" style="fill: none; stroke: #ff7f0e; stroke-width: 1.5; stroke-linecap: square"/>
   </g>
   <g id="line2d_67">
    <path d="M 608.838843 1048.016145 
L 609.233219 995.035722 
L 609.627595 967.894532 
L 610.021971 949.615062 
L 610.416347 941.821685 
L 610.810723 938.84694 
L 611.205099 937.656668 
L 611.402287 937.61995 
L 611.796663 938.194658 
L 612.191039 939.216189 
L 612.388227 940.366956 
L 612.585415 940.45475 
L 612.979791 941.320184 
L 613.176979 941.330132 
L 613.374167 941.905771 
L 615.740423 953.739956 
L 616.134799 955.658496 
L 616.923551 959.335038 
L 617.317927 961.194677 
L 619.092619 967.474142 
L 619.684183 969.423177 
L 621.261688 972.453794 
L 622.642004 974.416384 
L 623.430756 975.030939 
L 624.416696 977.513436 
L 625.9942 982.27495 
L 626.98014 984.945657 
L 628.163268 987.86025 
L 631.121088 993.394918 
L 631.90984 994.723159 
L 633.487344 997.002101 
L 636.642352 1000.420427 
L 637.82548 1001.327791 
L 639.79736 1003.088611 
L 640.586112 1003.829985 
L 641.177677 1004.210403 
L 642.360805 1005.076812 
L 643.149557 1005.772446 
L 645.121437 1006.969065 
L 645.515813 1007.275379 
L 645.910189 1007.436405 
L 646.896129 1007.870363 
L 647.684881 1008.199641 
L 648.276445 1008.548764 
L 649.065197 1008.985304 
L 649.656761 1009.214699 
L 650.248325 1009.475699 
L 652.023017 1010.532881 
L 652.811769 1010.965427 
L 653.994897 1011.472001 
L 654.980837 1011.818728 
L 655.572401 1012.150933 
L 660.699289 1014.546773 
L 662.276794 1015.390669 
L 670.55869 1019.614928 
L 672.136194 1020.670769 
L 673.319322 1021.298976 
L 678.44621 1024.29127 
L 682.389971 1026.910841 
L 686.925295 1029.544508 
L 688.502799 1030.467628 
L 689.685927 1031.061509 
L 691.657807 1032.100916 
L 694.615627 1033.628918 
L 699.742515 1036.102488 
L 701.122831 1036.621122 
L 701.714395 1036.83133 
L 703.2919 1037.452734 
L 705.460968 1038.471785 
L 706.446908 1038.942038 
L 708.2216 1039.868272 
L 709.20754 1040.405825 
L 710.982232 1041.30425 
L 713.1513 1042.471335 
L 714.334428 1043.03774 
L 718.869752 1045.358742 
L 723.602264 1047.42173 
L 725.574145 1048.257705 
L 728.137589 1049.223237 
L 734.841981 1052.174913 
L 741.349185 1055.100852 
L 742.335125 1055.508661 
L 747.659202 1058.064622 
L 749.236706 1058.870537 
L 754.363594 1061.369515 
L 769.744259 1067.356771 
L 772.504891 1068.535285 
L 775.462711 1069.796773 
L 776.645839 1070.479005 
L 779.012095 1071.72996 
L 780.786787 1072.689063 
L 787.688368 1076.219723 
L 793.209632 1078.534366 
L 801.491528 1082.44895 
L 805.632476 1084.236565 
L 809.181861 1085.659902 
L 813.125621 1087.237088 
L 815.689065 1088.247985 
L 820.027201 1089.811853 
L 824.365337 1091.502316 
L 827.125969 1092.640811 
L 829.09785 1093.559816 
L 833.435986 1095.730279 
L 838.760062 1097.899754 
L 858.084487 1105.36786 
L 861.436683 1106.385731 
L 864.788879 1107.352685 
L 867.943887 1108.324598 
L 876.817348 1111.054912 
L 879.972356 1111.86291 
L 891.014885 1114.501281 
L 894.761457 1115.510317 
L 903.832105 1118.446495 
L 906.987113 1119.690499 
L 918.818394 1124.863251 
L 921.776214 1126.491517 
L 923.945282 1128.09644 
L 925.917162 1129.338542 
L 928.283418 1130.726041 
L 934.199059 1135.231655 
L 938.340007 1137.294989 
L 939.917511 1137.668582 
L 943.664083 1137.979257 
L 947.213467 1138.106043 
L 949.382535 1138.202746 
L 954.706612 1138.210789 
L 954.706612 1138.210789 
" clip-path="url(#pf5ec5d8fc6)" style="fill: none; stroke: #2ca02c; stroke-width: 1.5; stroke-linecap: square"/>
   </g>
   <g id="line2d_68">
    <path d="M 608.838843 1040.930782 
L 609.233219 995.993203 
L 610.021971 966.247882 
L 610.613535 955.601016 
L 611.205099 950.914103 
L 611.402287 950.491237 
L 612.585415 945.979418 
L 612.782603 946.087586 
L 613.176979 947.849332 
L 613.374167 948.169296 
L 613.768543 949.376186 
L 613.965731 949.604072 
L 614.557295 951.856254 
L 614.951671 953.175004 
L 615.543235 956.632352 
L 616.134799 959.901651 
L 616.529175 961.780045 
L 617.120739 964.354661 
L 618.303867 969.437557 
L 619.092619 971.781002 
L 619.684183 974.114836 
L 621.656064 981.94541 
L 623.233568 987.195571 
L 624.02232 989.605902 
L 625.00826 993.061042 
L 628.557644 1003.872941 
L 629.93796 1007.733808 
L 630.529524 1009.404553 
L 636.445164 1023.739912 
L 637.628292 1026.092072 
L 640.586112 1031.388902 
L 643.149557 1035.2771 
L 643.938309 1036.340386 
L 645.121437 1037.857935 
L 645.713001 1038.615543 
L 646.501753 1039.625112 
L 647.882069 1041.252622 
L 648.868009 1042.487719 
L 650.248325 1044.255419 
L 651.431453 1045.423186 
L 653.797709 1047.779283 
L 656.361153 1049.772238 
L 656.755529 1050.040813 
L 658.135845 1050.96317 
L 661.290853 1053.08647 
L 662.276794 1053.843406 
L 664.248674 1054.84832 
L 665.234614 1055.267496 
L 665.826178 1055.536504 
L 666.220554 1055.679549 
L 669.967126 1057.459766 
L 671.741818 1058.187689 
L 672.924946 1058.674364 
L 674.305262 1059.029766 
L 675.685578 1059.644292 
L 680.41809 1060.645582 
L 681.601218 1060.803333 
L 684.756227 1061.401873 
L 685.544979 1061.668575 
L 687.911235 1062.581225 
L 691.263431 1064.168467 
L 692.052183 1064.587914 
L 693.629687 1065.14089 
L 694.418439 1065.48306 
L 696.784695 1066.444598 
L 698.362199 1067.190481 
L 701.517207 1068.636001 
L 705.066592 1070.707466 
L 711.376608 1074.288763 
L 712.954112 1075.093196 
L 714.925992 1076.385035 
L 719.658504 1079.515852 
L 720.250068 1079.847909 
L 722.221948 1081.114656 
L 724.588205 1082.721809 
L 733.856041 1089.05588 
L 736.419485 1090.443771 
L 741.743561 1093.139545 
L 742.926689 1093.68052 
L 744.701381 1094.574968 
L 749.236706 1097.046518 
L 754.166406 1099.918884 
L 758.110166 1102.296237 
L 759.490482 1103.037166 
L 762.842678 1104.713006 
L 764.814558 1106.086903 
L 765.800499 1106.782798 
L 767.378003 1107.724638 
L 768.561131 1108.352189 
L 770.335823 1109.175078 
L 776.448651 1111.872882 
L 781.969915 1114.783811 
L 783.547419 1115.617746 
L 788.279932 1117.359111 
L 791.632128 1118.278193 
L 794.195572 1119.094239 
L 797.744956 1120.390459 
L 801.885904 1122.195102 
L 803.463408 1123.01963 
L 804.843724 1123.512557 
L 806.618416 1124.149996 
L 808.393109 1124.900136 
L 811.350929 1125.924878 
L 814.703125 1127.292612 
L 817.660945 1128.57676 
L 818.844073 1129.060733 
L 821.604705 1130.28047 
L 834.02755 1135.267378 
L 838.365686 1136.594059 
L 845.267266 1138.34428 
L 847.436334 1138.793125 
L 852.760411 1140.058667 
L 855.718231 1140.620401 
L 857.690111 1140.90325 
L 861.831059 1141.279414 
L 863.802939 1141.402458 
L 865.774819 1141.492057 
L 867.549511 1141.475315 
L 872.873588 1141.227447 
L 876.225784 1140.937778 
L 879.775168 1140.684403 
L 885.49362 1140.35001 
L 889.831756 1139.908832 
L 894.367081 1139.345012 
L 899.888345 1138.58899 
L 909.156181 1137.163768 
L 915.663386 1136.691037 
L 920.790274 1136.976026 
L 924.734034 1137.274114 
L 930.846862 1137.556765 
L 937.354067 1137.532156 
L 940.706263 1137.657323 
L 943.664083 1137.810866 
L 946.621903 1137.997837 
L 949.382535 1138.17626 
L 953.326296 1138.217804 
L 954.706612 1138.212426 
L 954.706612 1138.212426 
" clip-path="url(#pf5ec5d8fc6)" style="fill: none; stroke: #d62728; stroke-width: 1.5; stroke-linecap: square"/>
   </g>
   <g id="patch_40">
    <path d="M 591.545455 1153.44 
L 591.545455 890.829474 
" style="fill: none; stroke: #000000; stroke-width: 0.8; stroke-linejoin: miter; stroke-linecap: square"/>
   </g>
   <g id="patch_41">
    <path d="M 972 1153.44 
L 972 890.829474 
" style="fill: none; stroke: #000000; stroke-width: 0.8; stroke-linejoin: miter; stroke-linecap: square"/>
   </g>
   <g id="patch_42">
    <path d="M 591.545455 1153.44 
L 972 1153.44 
" style="fill: none; stroke: #000000; stroke-width: 0.8; stroke-linejoin: miter; stroke-linecap: square"/>
   </g>
   <g id="patch_43">
    <path d="M 591.545455 890.829474 
L 972 890.829474 
" style="fill: none; stroke: #000000; stroke-width: 0.8; stroke-linejoin: miter; stroke-linecap: square"/>
   </g>
   <g id="text_68">
    <!-- f -->
    <g transform="translate(552.733636 872.71352) scale(0.28 -0.28)">
     <defs>
      <path id="DejaVuSans-Bold-66" d="M 2841 4863 
L 2841 4128 
L 2222 4128 
Q 1984 4128 1890 4042 
Q 1797 3956 1797 3744 
L 1797 3500 
L 2753 3500 
L 2753 2700 
L 1797 2700 
L 1797 0 
L 678 0 
L 678 2700 
L 122 2700 
L 122 3500 
L 678 3500 
L 678 3744 
Q 678 4316 997 4589 
Q 1316 4863 1984 4863 
L 2841 4863 
z
" transform="scale(0.015625)"/>
     </defs>
     <use xlink:href="#DejaVuSans-Bold-66"/>
    </g>
   </g>
   <g id="text_69">
    <!-- LCMC -->
    <g transform="translate(747.973977 884.829474) scale(0.24 -0.24)">
     <defs>
      <path id="DejaVuSans-4c" d="M 628 4666 
L 1259 4666 
L 1259 531 
L 3531 531 
L 3531 0 
L 628 0 
L 628 4666 
z
" transform="scale(0.015625)"/>
     </defs>
     <use xlink:href="#DejaVuSans-4c"/>
     <use xlink:href="#DejaVuSans-43" x="55.712891"/>
     <use xlink:href="#DejaVuSans-4d" x="125.537109"/>
     <use xlink:href="#DejaVuSans-43" x="211.816406"/>
    </g>
   </g>
  </g>
 </g>
 <defs>
  <clipPath id="p6c9da6a302">
   <rect x="135" y="155.52" width="380.454545" height="262.610526"/>
  </clipPath>
  <clipPath id="p6ff57ab315">
   <rect x="591.545455" y="155.52" width="380.454545" height="262.610526"/>
  </clipPath>
  <clipPath id="p53339f95f2">
   <rect x="135" y="523.174737" width="380.454545" height="262.610526"/>
  </clipPath>
  <clipPath id="p8c5b13cc78">
   <rect x="591.545455" y="523.174737" width="380.454545" height="262.610526"/>
  </clipPath>
  <clipPath id="p55a67b101f">
   <rect x="135" y="890.829474" width="380.454545" height="262.610526"/>
  </clipPath>
  <clipPath id="pf5ec5d8fc6">
   <rect x="591.545455" y="890.829474" width="380.454545" height="262.610526"/>
  </clipPath>
 </defs>
</svg>
