<?xml version="1.0" encoding="utf-8" standalone="no"?>
<!DOCTYPE svg PUBLIC "-//W3C//DTD SVG 1.1//EN"
  "http://www.w3.org/Graphics/SVG/1.1/DTD/svg11.dtd">
<svg xmlns:xlink="http://www.w3.org/1999/xlink" width="1080pt" height="1296pt" viewBox="0 0 1080 1296" xmlns="http://www.w3.org/2000/svg" version="1.1">
 <metadata>
  <rdf:RDF xmlns:dc="http://purl.org/dc/elements/1.1/" xmlns:cc="http://creativecommons.org/ns#" xmlns:rdf="http://www.w3.org/1999/02/22-rdf-syntax-ns#">
   <cc:Work>
    <dc:type rdf:resource="http://purl.org/dc/dcmitype/StillImage"/>
    <dc:date>2024-07-24T03:16:43.928884</dc:date>
    <dc:format>image/svg+xml</dc:format>
    <dc:creator>
     <cc:Agent>
      <dc:title>Matplotlib v3.8.4, https://matplotlib.org/</dc:title>
     </cc:Agent>
    </dc:creator>
   </cc:Work>
  </rdf:RDF>
 </metadata>
 <defs>
  <style type="text/css">*{stroke-linejoin: round; stroke-linecap: butt}</style>
 </defs>
 <g id="figure_1">
  <g id="patch_1">
   <path d="M 0 1296 
L 1080 1296 
L 1080 0 
L 0 0 
z
" style="fill: #ffffff"/>
  </g>
  <g id="axes_1">
   <g id="patch_2">
    <path d="M 135 418.130526 
L 515.454545 418.130526 
L 515.454545 155.52 
L 135 155.52 
z
" style="fill: #ffffff"/>
   </g>
   <g id="matplotlib.axis_1">
    <g id="xtick_1">
     <g id="line2d_1">
      <defs>
       <path id="m2deffcbf5e" d="M 0 0 
L 0 3.5 
" style="stroke: #000000; stroke-width: 0.8"/>
      </defs>
      <g>
       <use xlink:href="#m2deffcbf5e" x="137.882231" y="418.130526" style="stroke: #000000; stroke-width: 0.8"/>
      </g>
     </g>
     <g id="text_1">
      <!-- 0 -->
      <g transform="translate(131.519731 440.327401) scale(0.2 -0.2)">
       <defs>
        <path id="DejaVuSans-30" d="M 2034 4250 
Q 1547 4250 1301 3770 
Q 1056 3291 1056 2328 
Q 1056 1369 1301 889 
Q 1547 409 2034 409 
Q 2525 409 2770 889 
Q 3016 1369 3016 2328 
Q 3016 3291 2770 3770 
Q 2525 4250 2034 4250 
z
M 2034 4750 
Q 2819 4750 3233 4129 
Q 3647 3509 3647 2328 
Q 3647 1150 3233 529 
Q 2819 -91 2034 -91 
Q 1250 -91 836 529 
Q 422 1150 422 2328 
Q 422 3509 836 4129 
Q 1250 4750 2034 4750 
z
" transform="scale(0.015625)"/>
       </defs>
       <use xlink:href="#DejaVuSans-30"/>
      </g>
     </g>
    </g>
    <g id="xtick_2">
     <g id="line2d_2">
      <g>
       <use xlink:href="#m2deffcbf5e" x="209.938017" y="418.130526" style="stroke: #000000; stroke-width: 0.8"/>
      </g>
     </g>
     <g id="text_2">
      <!-- 10 -->
      <g transform="translate(197.213017 440.327401) scale(0.2 -0.2)">
       <defs>
        <path id="DejaVuSans-31" d="M 794 531 
L 1825 531 
L 1825 4091 
L 703 3866 
L 703 4441 
L 1819 4666 
L 2450 4666 
L 2450 531 
L 3481 531 
L 3481 0 
L 794 0 
L 794 531 
z
" transform="scale(0.015625)"/>
       </defs>
       <use xlink:href="#DejaVuSans-31"/>
       <use xlink:href="#DejaVuSans-30" x="63.623047"/>
      </g>
     </g>
    </g>
    <g id="xtick_3">
     <g id="line2d_3">
      <g>
       <use xlink:href="#m2deffcbf5e" x="281.993802" y="418.130526" style="stroke: #000000; stroke-width: 0.8"/>
      </g>
     </g>
     <g id="text_3">
      <!-- 20 -->
      <g transform="translate(269.268802 440.327401) scale(0.2 -0.2)">
       <defs>
        <path id="DejaVuSans-32" d="M 1228 531 
L 3431 531 
L 3431 0 
L 469 0 
L 469 531 
Q 828 903 1448 1529 
Q 2069 2156 2228 2338 
Q 2531 2678 2651 2914 
Q 2772 3150 2772 3378 
Q 2772 3750 2511 3984 
Q 2250 4219 1831 4219 
Q 1534 4219 1204 4116 
Q 875 4013 500 3803 
L 500 4441 
Q 881 4594 1212 4672 
Q 1544 4750 1819 4750 
Q 2544 4750 2975 4387 
Q 3406 4025 3406 3419 
Q 3406 3131 3298 2873 
Q 3191 2616 2906 2266 
Q 2828 2175 2409 1742 
Q 1991 1309 1228 531 
z
" transform="scale(0.015625)"/>
       </defs>
       <use xlink:href="#DejaVuSans-32"/>
       <use xlink:href="#DejaVuSans-30" x="63.623047"/>
      </g>
     </g>
    </g>
    <g id="xtick_4">
     <g id="line2d_4">
      <g>
       <use xlink:href="#m2deffcbf5e" x="354.049587" y="418.130526" style="stroke: #000000; stroke-width: 0.8"/>
      </g>
     </g>
     <g id="text_4">
      <!-- 30 -->
      <g transform="translate(341.324587 440.327401) scale(0.2 -0.2)">
       <defs>
        <path id="DejaVuSans-33" d="M 2597 2516 
Q 3050 2419 3304 2112 
Q 3559 1806 3559 1356 
Q 3559 666 3084 287 
Q 2609 -91 1734 -91 
Q 1441 -91 1130 -33 
Q 819 25 488 141 
L 488 750 
Q 750 597 1062 519 
Q 1375 441 1716 441 
Q 2309 441 2620 675 
Q 2931 909 2931 1356 
Q 2931 1769 2642 2001 
Q 2353 2234 1838 2234 
L 1294 2234 
L 1294 2753 
L 1863 2753 
Q 2328 2753 2575 2939 
Q 2822 3125 2822 3475 
Q 2822 3834 2567 4026 
Q 2313 4219 1838 4219 
Q 1578 4219 1281 4162 
Q 984 4106 628 3988 
L 628 4550 
Q 988 4650 1302 4700 
Q 1616 4750 1894 4750 
Q 2613 4750 3031 4423 
Q 3450 4097 3450 3541 
Q 3450 3153 3228 2886 
Q 3006 2619 2597 2516 
z
" transform="scale(0.015625)"/>
       </defs>
       <use xlink:href="#DejaVuSans-33"/>
       <use xlink:href="#DejaVuSans-30" x="63.623047"/>
      </g>
     </g>
    </g>
    <g id="xtick_5">
     <g id="line2d_5">
      <g>
       <use xlink:href="#m2deffcbf5e" x="426.105372" y="418.130526" style="stroke: #000000; stroke-width: 0.8"/>
      </g>
     </g>
     <g id="text_5">
      <!-- 40 -->
      <g transform="translate(413.380372 440.327401) scale(0.2 -0.2)">
       <defs>
        <path id="DejaVuSans-34" d="M 2419 4116 
L 825 1625 
L 2419 1625 
L 2419 4116 
z
M 2253 4666 
L 3047 4666 
L 3047 1625 
L 3713 1625 
L 3713 1100 
L 3047 1100 
L 3047 0 
L 2419 0 
L 2419 1100 
L 313 1100 
L 313 1709 
L 2253 4666 
z
" transform="scale(0.015625)"/>
       </defs>
       <use xlink:href="#DejaVuSans-34"/>
       <use xlink:href="#DejaVuSans-30" x="63.623047"/>
      </g>
     </g>
    </g>
    <g id="xtick_6">
     <g id="line2d_6">
      <g>
       <use xlink:href="#m2deffcbf5e" x="498.161157" y="418.130526" style="stroke: #000000; stroke-width: 0.8"/>
      </g>
     </g>
     <g id="text_6">
      <!-- 50 -->
      <g transform="translate(485.436157 440.327401) scale(0.2 -0.2)">
       <defs>
        <path id="DejaVuSans-35" d="M 691 4666 
L 3169 4666 
L 3169 4134 
L 1269 4134 
L 1269 2991 
Q 1406 3038 1543 3061 
Q 1681 3084 1819 3084 
Q 2600 3084 3056 2656 
Q 3513 2228 3513 1497 
Q 3513 744 3044 326 
Q 2575 -91 1722 -91 
Q 1428 -91 1123 -41 
Q 819 9 494 109 
L 494 744 
Q 775 591 1075 516 
Q 1375 441 1709 441 
Q 2250 441 2565 725 
Q 2881 1009 2881 1497 
Q 2881 1984 2565 2268 
Q 2250 2553 1709 2553 
Q 1456 2553 1204 2497 
Q 953 2441 691 2322 
L 691 4666 
z
" transform="scale(0.015625)"/>
       </defs>
       <use xlink:href="#DejaVuSans-35"/>
       <use xlink:href="#DejaVuSans-30" x="63.623047"/>
      </g>
     </g>
    </g>
    <g id="text_7">
     <!-- k -->
     <g transform="translate(318.278523 466.723026) scale(0.24 -0.24)">
      <defs>
       <path id="DejaVuSans-6b" d="M 581 4863 
L 1159 4863 
L 1159 1991 
L 2875 3500 
L 3609 3500 
L 1753 1863 
L 3688 0 
L 2938 0 
L 1159 1709 
L 1159 0 
L 581 0 
L 581 4863 
z
" transform="scale(0.015625)"/>
      </defs>
      <use xlink:href="#DejaVuSans-6b"/>
     </g>
    </g>
   </g>
   <g id="matplotlib.axis_2">
    <g id="ytick_1">
     <g id="line2d_7">
      <defs>
       <path id="mf2b50ff4e7" d="M 0 0 
L -3.5 0 
" style="stroke: #000000; stroke-width: 0.8"/>
      </defs>
      <g>
       <use xlink:href="#mf2b50ff4e7" x="135" y="418.130526" style="stroke: #000000; stroke-width: 0.8"/>
      </g>
     </g>
     <g id="text_8">
      <!-- 0.0 -->
      <g transform="translate(96.19375 425.728964) scale(0.2 -0.2)">
       <defs>
        <path id="DejaVuSans-2e" d="M 684 794 
L 1344 794 
L 1344 0 
L 684 0 
L 684 794 
z
" transform="scale(0.015625)"/>
       </defs>
       <use xlink:href="#DejaVuSans-30"/>
       <use xlink:href="#DejaVuSans-2e" x="63.623047"/>
       <use xlink:href="#DejaVuSans-30" x="95.410156"/>
      </g>
     </g>
    </g>
    <g id="ytick_2">
     <g id="line2d_8">
      <g>
       <use xlink:href="#mf2b50ff4e7" x="135" y="352.477895" style="stroke: #000000; stroke-width: 0.8"/>
      </g>
     </g>
     <g id="text_9">
      <!-- 0.2 -->
      <g transform="translate(96.19375 360.076332) scale(0.2 -0.2)">
       <use xlink:href="#DejaVuSans-30"/>
       <use xlink:href="#DejaVuSans-2e" x="63.623047"/>
       <use xlink:href="#DejaVuSans-32" x="95.410156"/>
      </g>
     </g>
    </g>
    <g id="ytick_3">
     <g id="line2d_9">
      <g>
       <use xlink:href="#mf2b50ff4e7" x="135" y="286.825263" style="stroke: #000000; stroke-width: 0.8"/>
      </g>
     </g>
     <g id="text_10">
      <!-- 0.4 -->
      <g transform="translate(96.19375 294.423701) scale(0.2 -0.2)">
       <use xlink:href="#DejaVuSans-30"/>
       <use xlink:href="#DejaVuSans-2e" x="63.623047"/>
       <use xlink:href="#DejaVuSans-34" x="95.410156"/>
      </g>
     </g>
    </g>
    <g id="ytick_4">
     <g id="line2d_10">
      <g>
       <use xlink:href="#mf2b50ff4e7" x="135" y="221.172632" style="stroke: #000000; stroke-width: 0.8"/>
      </g>
     </g>
     <g id="text_11">
      <!-- 0.6 -->
      <g transform="translate(96.19375 228.771069) scale(0.2 -0.2)">
       <defs>
        <path id="DejaVuSans-36" d="M 2113 2584 
Q 1688 2584 1439 2293 
Q 1191 2003 1191 1497 
Q 1191 994 1439 701 
Q 1688 409 2113 409 
Q 2538 409 2786 701 
Q 3034 994 3034 1497 
Q 3034 2003 2786 2293 
Q 2538 2584 2113 2584 
z
M 3366 4563 
L 3366 3988 
Q 3128 4100 2886 4159 
Q 2644 4219 2406 4219 
Q 1781 4219 1451 3797 
Q 1122 3375 1075 2522 
Q 1259 2794 1537 2939 
Q 1816 3084 2150 3084 
Q 2853 3084 3261 2657 
Q 3669 2231 3669 1497 
Q 3669 778 3244 343 
Q 2819 -91 2113 -91 
Q 1303 -91 875 529 
Q 447 1150 447 2328 
Q 447 3434 972 4092 
Q 1497 4750 2381 4750 
Q 2619 4750 2861 4703 
Q 3103 4656 3366 4563 
z
" transform="scale(0.015625)"/>
       </defs>
       <use xlink:href="#DejaVuSans-30"/>
       <use xlink:href="#DejaVuSans-2e" x="63.623047"/>
       <use xlink:href="#DejaVuSans-36" x="95.410156"/>
      </g>
     </g>
    </g>
    <g id="ytick_5">
     <g id="line2d_11">
      <g>
       <use xlink:href="#mf2b50ff4e7" x="135" y="155.52" style="stroke: #000000; stroke-width: 0.8"/>
      </g>
     </g>
     <g id="text_12">
      <!-- 0.8 -->
      <g transform="translate(96.19375 163.118438) scale(0.2 -0.2)">
       <defs>
        <path id="DejaVuSans-38" d="M 2034 2216 
Q 1584 2216 1326 1975 
Q 1069 1734 1069 1313 
Q 1069 891 1326 650 
Q 1584 409 2034 409 
Q 2484 409 2743 651 
Q 3003 894 3003 1313 
Q 3003 1734 2745 1975 
Q 2488 2216 2034 2216 
z
M 1403 2484 
Q 997 2584 770 2862 
Q 544 3141 544 3541 
Q 544 4100 942 4425 
Q 1341 4750 2034 4750 
Q 2731 4750 3128 4425 
Q 3525 4100 3525 3541 
Q 3525 3141 3298 2862 
Q 3072 2584 2669 2484 
Q 3125 2378 3379 2068 
Q 3634 1759 3634 1313 
Q 3634 634 3220 271 
Q 2806 -91 2034 -91 
Q 1263 -91 848 271 
Q 434 634 434 1313 
Q 434 1759 690 2068 
Q 947 2378 1403 2484 
z
M 1172 3481 
Q 1172 3119 1398 2916 
Q 1625 2713 2034 2713 
Q 2441 2713 2670 2916 
Q 2900 3119 2900 3481 
Q 2900 3844 2670 4047 
Q 2441 4250 2034 4250 
Q 1625 4250 1398 4047 
Q 1172 3844 1172 3481 
z
" transform="scale(0.015625)"/>
       </defs>
       <use xlink:href="#DejaVuSans-30"/>
       <use xlink:href="#DejaVuSans-2e" x="63.623047"/>
       <use xlink:href="#DejaVuSans-38" x="95.410156"/>
      </g>
     </g>
    </g>
    <g id="text_13">
     <!-- $P_{NN}$ -->
     <g transform="translate(87.2025 306.985263) rotate(-90) scale(0.24 -0.24)">
      <defs>
       <path id="DejaVuSans-Oblique-50" d="M 1081 4666 
L 2541 4666 
Q 3178 4666 3512 4369 
Q 3847 4072 3847 3500 
Q 3847 2731 3353 2303 
Q 2859 1875 1966 1875 
L 1172 1875 
L 806 0 
L 172 0 
L 1081 4666 
z
M 1613 4147 
L 1275 2394 
L 2069 2394 
Q 2606 2394 2893 2669 
Q 3181 2944 3181 3456 
Q 3181 3784 2986 3965 
Q 2791 4147 2438 4147 
L 1613 4147 
z
" transform="scale(0.015625)"/>
       <path id="DejaVuSans-Oblique-4e" d="M 1081 4666 
L 1931 4666 
L 3219 666 
L 4000 4666 
L 4616 4666 
L 3706 0 
L 2853 0 
L 1569 4025 
L 788 0 
L 172 0 
L 1081 4666 
z
" transform="scale(0.015625)"/>
      </defs>
      <use xlink:href="#DejaVuSans-Oblique-50" transform="translate(0 0.09375)"/>
      <use xlink:href="#DejaVuSans-Oblique-4e" transform="translate(60.302734 -16.3125) scale(0.7)"/>
      <use xlink:href="#DejaVuSans-Oblique-4e" transform="translate(112.666016 -16.3125) scale(0.7)"/>
     </g>
    </g>
   </g>
   <g id="line2d_12">
    <path d="M 152.293388 367.293312 
L 173.910124 360.08367 
L 209.938017 352.491099 
L 281.993802 347.678069 
L 498.161157 338.28837 
" clip-path="url(#p31a7dcd88b)" style="fill: none; stroke: #1f77b4; stroke-width: 1.5; stroke-linecap: square"/>
    <defs>
     <path id="m86682a52f1" d="M 0 3 
C 0.795609 3 1.55874 2.683901 2.12132 2.12132 
C 2.683901 1.55874 3 0.795609 3 0 
C 3 -0.795609 2.683901 -1.55874 2.12132 -2.12132 
C 1.55874 -2.683901 0.795609 -3 0 -3 
C -0.795609 -3 -1.55874 -2.683901 -2.12132 -2.12132 
C -2.683901 -1.55874 -3 -0.795609 -3 0 
C -3 0.795609 -2.683901 1.55874 -2.12132 2.12132 
C -1.55874 2.683901 -0.795609 3 0 3 
z
" style="stroke: #1f77b4"/>
    </defs>
    <g clip-path="url(#p31a7dcd88b)">
     <use xlink:href="#m86682a52f1" x="152.293388" y="367.293312" style="fill: #1f77b4; stroke: #1f77b4"/>
     <use xlink:href="#m86682a52f1" x="173.910124" y="360.08367" style="fill: #1f77b4; stroke: #1f77b4"/>
     <use xlink:href="#m86682a52f1" x="209.938017" y="352.491099" style="fill: #1f77b4; stroke: #1f77b4"/>
     <use xlink:href="#m86682a52f1" x="281.993802" y="347.678069" style="fill: #1f77b4; stroke: #1f77b4"/>
     <use xlink:href="#m86682a52f1" x="498.161157" y="338.28837" style="fill: #1f77b4; stroke: #1f77b4"/>
    </g>
   </g>
   <g id="line2d_13">
    <path d="M 152.293388 176.356656 
L 173.910124 183.566297 
L 209.938017 195.767229 
L 281.993802 211.348505 
L 498.161157 238.547075 
" clip-path="url(#p31a7dcd88b)" style="fill: none; stroke: #ff7f0e; stroke-width: 1.5; stroke-linecap: square"/>
    <defs>
     <path id="mc0506813b4" d="M 0 3 
C 0.795609 3 1.55874 2.683901 2.12132 2.12132 
C 2.683901 1.55874 3 0.795609 3 0 
C 3 -0.795609 2.683901 -1.55874 2.12132 -2.12132 
C 1.55874 -2.683901 0.795609 -3 0 -3 
C -0.795609 -3 -1.55874 -2.683901 -2.12132 -2.12132 
C -2.683901 -1.55874 -3 -0.795609 -3 0 
C -3 0.795609 -2.683901 1.55874 -2.12132 2.12132 
C -1.55874 2.683901 -0.795609 3 0 3 
z
" style="stroke: #ff7f0e"/>
    </defs>
    <g clip-path="url(#p31a7dcd88b)">
     <use xlink:href="#mc0506813b4" x="152.293388" y="176.356656" style="fill: #ff7f0e; stroke: #ff7f0e"/>
     <use xlink:href="#mc0506813b4" x="173.910124" y="183.566297" style="fill: #ff7f0e; stroke: #ff7f0e"/>
     <use xlink:href="#mc0506813b4" x="209.938017" y="195.767229" style="fill: #ff7f0e; stroke: #ff7f0e"/>
     <use xlink:href="#mc0506813b4" x="281.993802" y="211.348505" style="fill: #ff7f0e; stroke: #ff7f0e"/>
     <use xlink:href="#mc0506813b4" x="498.161157" y="238.547075" style="fill: #ff7f0e; stroke: #ff7f0e"/>
    </g>
   </g>
   <g id="line2d_14">
    <path d="M 152.293388 306.288654 
L 173.910124 254.764807 
L 209.938017 225.490494 
L 281.993802 220.037047 
L 498.161157 238.67912 
" clip-path="url(#p31a7dcd88b)" style="fill: none; stroke: #2ca02c; stroke-width: 1.5; stroke-linecap: square"/>
    <defs>
     <path id="m8f5f9c13d4" d="M 0 3 
C 0.795609 3 1.55874 2.683901 2.12132 2.12132 
C 2.683901 1.55874 3 0.795609 3 0 
C 3 -0.795609 2.683901 -1.55874 2.12132 -2.12132 
C 1.55874 -2.683901 0.795609 -3 0 -3 
C -0.795609 -3 -1.55874 -2.683901 -2.12132 -2.12132 
C -2.683901 -1.55874 -3 -0.795609 -3 0 
C -3 0.795609 -2.683901 1.55874 -2.12132 2.12132 
C -1.55874 2.683901 -0.795609 3 0 3 
z
" style="stroke: #2ca02c"/>
    </defs>
    <g clip-path="url(#p31a7dcd88b)">
     <use xlink:href="#m8f5f9c13d4" x="152.293388" y="306.288654" style="fill: #2ca02c; stroke: #2ca02c"/>
     <use xlink:href="#m8f5f9c13d4" x="173.910124" y="254.764807" style="fill: #2ca02c; stroke: #2ca02c"/>
     <use xlink:href="#m8f5f9c13d4" x="209.938017" y="225.490494" style="fill: #2ca02c; stroke: #2ca02c"/>
     <use xlink:href="#m8f5f9c13d4" x="281.993802" y="220.037047" style="fill: #2ca02c; stroke: #2ca02c"/>
     <use xlink:href="#m8f5f9c13d4" x="498.161157" y="238.67912" style="fill: #2ca02c; stroke: #2ca02c"/>
    </g>
   </g>
   <g id="line2d_15">
    <path d="M 152.293388 311.50442 
L 173.910124 276.288095 
L 209.938017 254.936465 
L 281.993802 239.665494 
L 498.161157 244.576237 
" clip-path="url(#p31a7dcd88b)" style="fill: none; stroke: #d62728; stroke-width: 1.5; stroke-linecap: square"/>
    <defs>
     <path id="mf06efe28e2" d="M 0 3 
C 0.795609 3 1.55874 2.683901 2.12132 2.12132 
C 2.683901 1.55874 3 0.795609 3 0 
C 3 -0.795609 2.683901 -1.55874 2.12132 -2.12132 
C 1.55874 -2.683901 0.795609 -3 0 -3 
C -0.795609 -3 -1.55874 -2.683901 -2.12132 -2.12132 
C -2.683901 -1.55874 -3 -0.795609 -3 0 
C -3 0.795609 -2.683901 1.55874 -2.12132 2.12132 
C -1.55874 2.683901 -0.795609 3 0 3 
z
" style="stroke: #d62728"/>
    </defs>
    <g clip-path="url(#p31a7dcd88b)">
     <use xlink:href="#mf06efe28e2" x="152.293388" y="311.50442" style="fill: #d62728; stroke: #d62728"/>
     <use xlink:href="#mf06efe28e2" x="173.910124" y="276.288095" style="fill: #d62728; stroke: #d62728"/>
     <use xlink:href="#mf06efe28e2" x="209.938017" y="254.936465" style="fill: #d62728; stroke: #d62728"/>
     <use xlink:href="#mf06efe28e2" x="281.993802" y="239.665494" style="fill: #d62728; stroke: #d62728"/>
     <use xlink:href="#mf06efe28e2" x="498.161157" y="244.576237" style="fill: #d62728; stroke: #d62728"/>
    </g>
   </g>
   <g id="patch_3">
    <path d="M 135 418.130526 
L 135 155.52 
" style="fill: none; stroke: #000000; stroke-width: 0.8; stroke-linejoin: miter; stroke-linecap: square"/>
   </g>
   <g id="patch_4">
    <path d="M 515.454545 418.130526 
L 515.454545 155.52 
" style="fill: none; stroke: #000000; stroke-width: 0.8; stroke-linejoin: miter; stroke-linecap: square"/>
   </g>
   <g id="patch_5">
    <path d="M 135 418.130526 
L 515.454545 418.130526 
" style="fill: none; stroke: #000000; stroke-width: 0.8; stroke-linejoin: miter; stroke-linecap: square"/>
   </g>
   <g id="patch_6">
    <path d="M 135 155.52 
L 515.454545 155.52 
" style="fill: none; stroke: #000000; stroke-width: 0.8; stroke-linejoin: miter; stroke-linecap: square"/>
   </g>
   <g id="text_14">
    <!-- a -->
    <g transform="translate(89.472557 137.404046) scale(0.28 -0.28)">
     <defs>
      <path id="DejaVuSans-Bold-61" d="M 2106 1575 
Q 1756 1575 1579 1456 
Q 1403 1338 1403 1106 
Q 1403 894 1545 773 
Q 1688 653 1941 653 
Q 2256 653 2472 879 
Q 2688 1106 2688 1447 
L 2688 1575 
L 2106 1575 
z
M 3816 1997 
L 3816 0 
L 2688 0 
L 2688 519 
Q 2463 200 2181 54 
Q 1900 -91 1497 -91 
Q 953 -91 614 226 
Q 275 544 275 1050 
Q 275 1666 698 1953 
Q 1122 2241 2028 2241 
L 2688 2241 
L 2688 2328 
Q 2688 2594 2478 2717 
Q 2269 2841 1825 2841 
Q 1466 2841 1156 2769 
Q 847 2697 581 2553 
L 581 3406 
Q 941 3494 1303 3539 
Q 1666 3584 2028 3584 
Q 2975 3584 3395 3211 
Q 3816 2838 3816 1997 
z
" transform="scale(0.015625)"/>
     </defs>
     <use xlink:href="#DejaVuSans-Bold-61"/>
    </g>
   </g>
   <g id="text_15">
    <!-- $P_{NN}$ -->
    <g transform="translate(303.387273 149.52) scale(0.26 -0.26)">
     <use xlink:href="#DejaVuSans-Oblique-50" transform="translate(0 0.09375)"/>
     <use xlink:href="#DejaVuSans-Oblique-4e" transform="translate(60.302734 -16.3125) scale(0.7)"/>
     <use xlink:href="#DejaVuSans-Oblique-4e" transform="translate(112.666016 -16.3125) scale(0.7)"/>
    </g>
   </g>
  </g>
  <g id="axes_2">
   <g id="patch_7">
    <path d="M 591.545455 418.130526 
L 972 418.130526 
L 972 155.52 
L 591.545455 155.52 
z
" style="fill: #ffffff"/>
   </g>
   <g id="patch_8">
    <path d="M 608.838843 418.130526 
L 628.792753 418.130526 
L 628.792753 190.852914 
L 608.838843 190.852914 
z
" clip-path="url(#pd6fe33f988)" style="fill: #1f77b4"/>
   </g>
   <g id="patch_9">
    <path d="M 741.864908 418.130526 
L 761.818818 418.130526 
L 761.818818 298.241802 
L 741.864908 298.241802 
z
" clip-path="url(#pd6fe33f988)" style="fill: #1f77b4"/>
   </g>
   <g id="patch_10">
    <path d="M 874.890973 418.130526 
L 894.844882 418.130526 
L 894.844882 168.025263 
L 874.890973 168.025263 
z
" clip-path="url(#pd6fe33f988)" style="fill: #1f77b4"/>
   </g>
   <g id="patch_11">
    <path d="M 628.792753 418.130526 
L 648.746662 418.130526 
L 648.746662 200.411314 
L 628.792753 200.411314 
z
" clip-path="url(#pd6fe33f988)" style="fill: #ff7f0e"/>
   </g>
   <g id="patch_12">
    <path d="M 761.818818 418.130526 
L 781.772727 418.130526 
L 781.772727 178.8172 
L 761.818818 178.8172 
z
" clip-path="url(#pd6fe33f988)" style="fill: #ff7f0e"/>
   </g>
   <g id="patch_13">
    <path d="M 894.844882 418.130526 
L 914.798792 418.130526 
L 914.798792 200.375582 
L 894.844882 200.375582 
z
" clip-path="url(#pd6fe33f988)" style="fill: #ff7f0e"/>
   </g>
   <g id="patch_14">
    <path d="M 648.746662 418.130526 
L 668.700572 418.130526 
L 668.700572 188.858593 
L 648.746662 188.858593 
z
" clip-path="url(#pd6fe33f988)" style="fill: #2ca02c"/>
   </g>
   <g id="patch_15">
    <path d="M 781.772727 418.130526 
L 801.726637 418.130526 
L 801.726637 249.316434 
L 781.772727 249.316434 
z
" clip-path="url(#pd6fe33f988)" style="fill: #2ca02c"/>
   </g>
   <g id="patch_16">
    <path d="M 914.798792 418.130526 
L 934.752702 418.130526 
L 934.752702 188.450214 
L 914.798792 188.450214 
z
" clip-path="url(#pd6fe33f988)" style="fill: #2ca02c"/>
   </g>
   <g id="patch_17">
    <path d="M 668.700572 418.130526 
L 688.654482 418.130526 
L 688.654482 222.292409 
L 668.700572 222.292409 
z
" clip-path="url(#pd6fe33f988)" style="fill: #d62728"/>
   </g>
   <g id="patch_18">
    <path d="M 801.726637 418.130526 
L 821.680547 418.130526 
L 821.680547 263.00838 
L 801.726637 263.00838 
z
" clip-path="url(#pd6fe33f988)" style="fill: #d62728"/>
   </g>
   <g id="patch_19">
    <path d="M 934.752702 418.130526 
L 954.706612 418.130526 
L 954.706612 221.92598 
L 934.752702 221.92598 
z
" clip-path="url(#pd6fe33f988)" style="fill: #d62728"/>
   </g>
   <g id="matplotlib.axis_3">
    <g id="xtick_7">
     <g id="line2d_16">
      <g>
       <use xlink:href="#m2deffcbf5e" x="648.746662" y="418.130526" style="stroke: #000000; stroke-width: 0.8"/>
      </g>
     </g>
     <g id="text_16">
      <!-- AUC -->
      <g transform="translate(625.490256 441.847089) scale(0.22 -0.22)">
       <defs>
        <path id="DejaVuSans-41" d="M 2188 4044 
L 1331 1722 
L 3047 1722 
L 2188 4044 
z
M 1831 4666 
L 2547 4666 
L 4325 0 
L 3669 0 
L 3244 1197 
L 1141 1197 
L 716 0 
L 50 0 
L 1831 4666 
z
" transform="scale(0.015625)"/>
        <path id="DejaVuSans-55" d="M 556 4666 
L 1191 4666 
L 1191 1831 
Q 1191 1081 1462 751 
Q 1734 422 2344 422 
Q 2950 422 3222 751 
Q 3494 1081 3494 1831 
L 3494 4666 
L 4128 4666 
L 4128 1753 
Q 4128 841 3676 375 
Q 3225 -91 2344 -91 
Q 1459 -91 1007 375 
Q 556 841 556 1753 
L 556 4666 
z
" transform="scale(0.015625)"/>
        <path id="DejaVuSans-43" d="M 4122 4306 
L 4122 3641 
Q 3803 3938 3442 4084 
Q 3081 4231 2675 4231 
Q 1875 4231 1450 3742 
Q 1025 3253 1025 2328 
Q 1025 1406 1450 917 
Q 1875 428 2675 428 
Q 3081 428 3442 575 
Q 3803 722 4122 1019 
L 4122 359 
Q 3791 134 3420 21 
Q 3050 -91 2638 -91 
Q 1578 -91 968 557 
Q 359 1206 359 2328 
Q 359 3453 968 4101 
Q 1578 4750 2638 4750 
Q 3056 4750 3426 4639 
Q 3797 4528 4122 4306 
z
" transform="scale(0.015625)"/>
       </defs>
       <use xlink:href="#DejaVuSans-41"/>
       <use xlink:href="#DejaVuSans-55" x="68.408203"/>
       <use xlink:href="#DejaVuSans-43" x="141.601562"/>
      </g>
     </g>
    </g>
    <g id="xtick_8">
     <g id="line2d_17">
      <g>
       <use xlink:href="#m2deffcbf5e" x="781.772727" y="418.130526" style="stroke: #000000; stroke-width: 0.8"/>
      </g>
     </g>
     <g id="text_17">
      <!-- $Q_{local}$ -->
      <g transform="translate(754.822727 441.847089) scale(0.22 -0.22)">
       <defs>
        <path id="DejaVuSans-Oblique-51" d="M 2309 -84 
Q 2275 -88 2237 -89 
Q 2200 -91 2125 -91 
Q 1250 -91 756 411 
Q 263 913 263 1797 
Q 263 2319 452 2844 
Q 641 3369 978 3788 
Q 1369 4269 1858 4509 
Q 2347 4750 2938 4750 
Q 3794 4750 4287 4245 
Q 4781 3741 4781 2869 
Q 4781 1928 4265 1147 
Q 3750 366 2919 44 
L 3553 -825 
L 2847 -825 
L 2309 -84 
z
M 2919 4238 
Q 2400 4238 2003 3986 
Q 1606 3734 1313 3219 
Q 1125 2891 1026 2522 
Q 928 2153 928 1778 
Q 928 1128 1239 775 
Q 1550 422 2119 422 
Q 2631 422 3032 676 
Q 3434 931 3719 1434 
Q 3909 1772 4009 2142 
Q 4109 2513 4109 2881 
Q 4109 3528 3796 3883 
Q 3484 4238 2919 4238 
z
" transform="scale(0.015625)"/>
        <path id="DejaVuSans-Oblique-6c" d="M 1172 4863 
L 1747 4863 
L 800 0 
L 225 0 
L 1172 4863 
z
" transform="scale(0.015625)"/>
        <path id="DejaVuSans-Oblique-6f" d="M 1625 -91 
Q 1009 -91 651 289 
Q 294 669 294 1325 
Q 294 1706 417 2101 
Q 541 2497 738 2766 
Q 1047 3184 1428 3384 
Q 1809 3584 2291 3584 
Q 2888 3584 3255 3212 
Q 3622 2841 3622 2241 
Q 3622 1825 3500 1412 
Q 3378 1000 3181 728 
Q 2875 309 2494 109 
Q 2113 -91 1625 -91 
z
M 891 1344 
Q 891 869 1089 633 
Q 1288 397 1691 397 
Q 2269 397 2648 901 
Q 3028 1406 3028 2181 
Q 3028 2634 2825 2865 
Q 2622 3097 2228 3097 
Q 1903 3097 1650 2945 
Q 1397 2794 1197 2484 
Q 1050 2253 970 1956 
Q 891 1659 891 1344 
z
" transform="scale(0.015625)"/>
        <path id="DejaVuSans-Oblique-63" d="M 3431 3366 
L 3316 2797 
Q 3109 2947 2876 3022 
Q 2644 3097 2394 3097 
Q 2119 3097 1870 3000 
Q 1622 2903 1453 2725 
Q 1184 2453 1037 2087 
Q 891 1722 891 1331 
Q 891 859 1127 628 
Q 1363 397 1844 397 
Q 2081 397 2348 469 
Q 2616 541 2906 684 
L 2797 116 
Q 2547 13 2283 -39 
Q 2019 -91 1741 -91 
Q 1044 -91 669 257 
Q 294 606 294 1253 
Q 294 1797 489 2255 
Q 684 2713 1069 3078 
Q 1331 3328 1684 3456 
Q 2038 3584 2456 3584 
Q 2700 3584 2940 3529 
Q 3181 3475 3431 3366 
z
" transform="scale(0.015625)"/>
        <path id="DejaVuSans-Oblique-61" d="M 3438 1997 
L 3047 0 
L 2472 0 
L 2578 531 
Q 2325 219 2001 64 
Q 1678 -91 1281 -91 
Q 834 -91 548 182 
Q 263 456 263 884 
Q 263 1497 752 1853 
Q 1241 2209 2100 2209 
L 2900 2209 
L 2931 2363 
Q 2938 2388 2941 2417 
Q 2944 2447 2944 2509 
Q 2944 2788 2717 2942 
Q 2491 3097 2081 3097 
Q 1800 3097 1504 3025 
Q 1209 2953 897 2809 
L 997 3341 
Q 1322 3463 1633 3523 
Q 1944 3584 2234 3584 
Q 2853 3584 3176 3315 
Q 3500 3047 3500 2534 
Q 3500 2431 3484 2292 
Q 3469 2153 3438 1997 
z
M 2816 1759 
L 2241 1759 
Q 1534 1759 1195 1570 
Q 856 1381 856 984 
Q 856 709 1029 553 
Q 1203 397 1509 397 
Q 1978 397 2328 733 
Q 2678 1069 2791 1631 
L 2816 1759 
z
" transform="scale(0.015625)"/>
       </defs>
       <use xlink:href="#DejaVuSans-Oblique-51" transform="translate(0 0.78125)"/>
       <use xlink:href="#DejaVuSans-Oblique-6c" transform="translate(78.710938 -15.625) scale(0.7)"/>
       <use xlink:href="#DejaVuSans-Oblique-6f" transform="translate(98.15918 -15.625) scale(0.7)"/>
       <use xlink:href="#DejaVuSans-Oblique-63" transform="translate(140.986328 -15.625) scale(0.7)"/>
       <use xlink:href="#DejaVuSans-Oblique-61" transform="translate(179.472656 -15.625) scale(0.7)"/>
       <use xlink:href="#DejaVuSans-Oblique-6c" transform="translate(222.368164 -15.625) scale(0.7)"/>
      </g>
     </g>
    </g>
    <g id="xtick_9">
     <g id="line2d_18">
      <g>
       <use xlink:href="#m2deffcbf5e" x="914.798792" y="418.130526" style="stroke: #000000; stroke-width: 0.8"/>
      </g>
     </g>
     <g id="text_18">
      <!-- $Q_{global}$ -->
      <g transform="translate(882.348792 441.630526) scale(0.22 -0.22)">
       <defs>
        <path id="DejaVuSans-Oblique-67" d="M 3816 3500 
L 3219 434 
Q 3047 -456 2561 -893 
Q 2075 -1331 1253 -1331 
Q 950 -1331 690 -1286 
Q 431 -1241 206 -1147 
L 313 -588 
Q 525 -725 762 -790 
Q 1000 -856 1269 -856 
Q 1816 -856 2167 -557 
Q 2519 -259 2631 300 
L 2681 563 
Q 2441 288 2122 144 
Q 1803 0 1434 0 
Q 903 0 598 351 
Q 294 703 294 1319 
Q 294 1803 478 2267 
Q 663 2731 997 3091 
Q 1219 3328 1514 3456 
Q 1809 3584 2131 3584 
Q 2484 3584 2746 3420 
Q 3009 3256 3138 2956 
L 3238 3500 
L 3816 3500 
z
M 2950 2216 
Q 2950 2641 2750 2872 
Q 2550 3103 2181 3103 
Q 1953 3103 1747 3012 
Q 1541 2922 1394 2759 
Q 1156 2491 1023 2127 
Q 891 1763 891 1375 
Q 891 944 1092 712 
Q 1294 481 1672 481 
Q 2219 481 2584 976 
Q 2950 1472 2950 2216 
z
" transform="scale(0.015625)"/>
        <path id="DejaVuSans-Oblique-62" d="M 3169 2138 
Q 3169 2591 2961 2847 
Q 2753 3103 2388 3103 
Q 2122 3103 1889 2973 
Q 1656 2844 1484 2597 
Q 1303 2338 1198 1995 
Q 1094 1653 1094 1313 
Q 1094 881 1298 636 
Q 1503 391 1863 391 
Q 2134 391 2365 517 
Q 2597 644 2772 891 
Q 2950 1147 3059 1487 
Q 3169 1828 3169 2138 
z
M 1381 2969 
Q 1594 3256 1914 3420 
Q 2234 3584 2584 3584 
Q 3122 3584 3439 3221 
Q 3756 2859 3756 2241 
Q 3756 1734 3570 1259 
Q 3384 784 3041 416 
Q 2816 172 2522 40 
Q 2228 -91 1906 -91 
Q 1566 -91 1316 65 
Q 1066 222 909 531 
L 806 0 
L 231 0 
L 1178 4863 
L 1753 4863 
L 1381 2969 
z
" transform="scale(0.015625)"/>
       </defs>
       <use xlink:href="#DejaVuSans-Oblique-51" transform="translate(0 0.78125)"/>
       <use xlink:href="#DejaVuSans-Oblique-67" transform="translate(78.710938 -15.625) scale(0.7)"/>
       <use xlink:href="#DejaVuSans-Oblique-6c" transform="translate(123.144531 -15.625) scale(0.7)"/>
       <use xlink:href="#DejaVuSans-Oblique-6f" transform="translate(142.592773 -15.625) scale(0.7)"/>
       <use xlink:href="#DejaVuSans-Oblique-62" transform="translate(185.419922 -15.625) scale(0.7)"/>
       <use xlink:href="#DejaVuSans-Oblique-61" transform="translate(229.853516 -15.625) scale(0.7)"/>
       <use xlink:href="#DejaVuSans-Oblique-6c" transform="translate(272.749023 -15.625) scale(0.7)"/>
      </g>
     </g>
    </g>
   </g>
   <g id="matplotlib.axis_4">
    <g id="ytick_6">
     <g id="line2d_19">
      <g>
       <use xlink:href="#mf2b50ff4e7" x="591.545455" y="418.130526" style="stroke: #000000; stroke-width: 0.8"/>
      </g>
     </g>
     <g id="text_19">
      <!-- 0.0 -->
      <g transform="translate(549.55858 426.488808) scale(0.22 -0.22)">
       <use xlink:href="#DejaVuSans-30"/>
       <use xlink:href="#DejaVuSans-2e" x="63.623047"/>
       <use xlink:href="#DejaVuSans-30" x="95.410156"/>
      </g>
     </g>
    </g>
    <g id="ytick_7">
     <g id="line2d_20">
      <g>
       <use xlink:href="#mf2b50ff4e7" x="591.545455" y="352.968103" style="stroke: #000000; stroke-width: 0.8"/>
      </g>
     </g>
     <g id="text_20">
      <!-- 0.2 -->
      <g transform="translate(549.55858 361.326384) scale(0.22 -0.22)">
       <use xlink:href="#DejaVuSans-30"/>
       <use xlink:href="#DejaVuSans-2e" x="63.623047"/>
       <use xlink:href="#DejaVuSans-32" x="95.410156"/>
      </g>
     </g>
    </g>
    <g id="ytick_8">
     <g id="line2d_21">
      <g>
       <use xlink:href="#mf2b50ff4e7" x="591.545455" y="287.805679" style="stroke: #000000; stroke-width: 0.8"/>
      </g>
     </g>
     <g id="text_21">
      <!-- 0.4 -->
      <g transform="translate(549.55858 296.16396) scale(0.22 -0.22)">
       <use xlink:href="#DejaVuSans-30"/>
       <use xlink:href="#DejaVuSans-2e" x="63.623047"/>
       <use xlink:href="#DejaVuSans-34" x="95.410156"/>
      </g>
     </g>
    </g>
    <g id="ytick_9">
     <g id="line2d_22">
      <g>
       <use xlink:href="#mf2b50ff4e7" x="591.545455" y="222.643255" style="stroke: #000000; stroke-width: 0.8"/>
      </g>
     </g>
     <g id="text_22">
      <!-- 0.6 -->
      <g transform="translate(549.55858 231.001536) scale(0.22 -0.22)">
       <use xlink:href="#DejaVuSans-30"/>
       <use xlink:href="#DejaVuSans-2e" x="63.623047"/>
       <use xlink:href="#DejaVuSans-36" x="95.410156"/>
      </g>
     </g>
    </g>
    <g id="ytick_10">
     <g id="line2d_23">
      <g>
       <use xlink:href="#mf2b50ff4e7" x="591.545455" y="157.480831" style="stroke: #000000; stroke-width: 0.8"/>
      </g>
     </g>
     <g id="text_23">
      <!-- 0.8 -->
      <g transform="translate(549.55858 165.839113) scale(0.22 -0.22)">
       <use xlink:href="#DejaVuSans-30"/>
       <use xlink:href="#DejaVuSans-2e" x="63.623047"/>
       <use xlink:href="#DejaVuSans-38" x="95.410156"/>
      </g>
     </g>
    </g>
    <g id="text_24">
     <!-- Metric Value -->
     <g transform="translate(540.983267 354.727919) rotate(-90) scale(0.22 -0.22)">
      <defs>
       <path id="DejaVuSans-4d" d="M 628 4666 
L 1569 4666 
L 2759 1491 
L 3956 4666 
L 4897 4666 
L 4897 0 
L 4281 0 
L 4281 4097 
L 3078 897 
L 2444 897 
L 1241 4097 
L 1241 0 
L 628 0 
L 628 4666 
z
" transform="scale(0.015625)"/>
       <path id="DejaVuSans-65" d="M 3597 1894 
L 3597 1613 
L 953 1613 
Q 991 1019 1311 708 
Q 1631 397 2203 397 
Q 2534 397 2845 478 
Q 3156 559 3463 722 
L 3463 178 
Q 3153 47 2828 -22 
Q 2503 -91 2169 -91 
Q 1331 -91 842 396 
Q 353 884 353 1716 
Q 353 2575 817 3079 
Q 1281 3584 2069 3584 
Q 2775 3584 3186 3129 
Q 3597 2675 3597 1894 
z
M 3022 2063 
Q 3016 2534 2758 2815 
Q 2500 3097 2075 3097 
Q 1594 3097 1305 2825 
Q 1016 2553 972 2059 
L 3022 2063 
z
" transform="scale(0.015625)"/>
       <path id="DejaVuSans-74" d="M 1172 4494 
L 1172 3500 
L 2356 3500 
L 2356 3053 
L 1172 3053 
L 1172 1153 
Q 1172 725 1289 603 
Q 1406 481 1766 481 
L 2356 481 
L 2356 0 
L 1766 0 
Q 1100 0 847 248 
Q 594 497 594 1153 
L 594 3053 
L 172 3053 
L 172 3500 
L 594 3500 
L 594 4494 
L 1172 4494 
z
" transform="scale(0.015625)"/>
       <path id="DejaVuSans-72" d="M 2631 2963 
Q 2534 3019 2420 3045 
Q 2306 3072 2169 3072 
Q 1681 3072 1420 2755 
Q 1159 2438 1159 1844 
L 1159 0 
L 581 0 
L 581 3500 
L 1159 3500 
L 1159 2956 
Q 1341 3275 1631 3429 
Q 1922 3584 2338 3584 
Q 2397 3584 2469 3576 
Q 2541 3569 2628 3553 
L 2631 2963 
z
" transform="scale(0.015625)"/>
       <path id="DejaVuSans-69" d="M 603 3500 
L 1178 3500 
L 1178 0 
L 603 0 
L 603 3500 
z
M 603 4863 
L 1178 4863 
L 1178 4134 
L 603 4134 
L 603 4863 
z
" transform="scale(0.015625)"/>
       <path id="DejaVuSans-63" d="M 3122 3366 
L 3122 2828 
Q 2878 2963 2633 3030 
Q 2388 3097 2138 3097 
Q 1578 3097 1268 2742 
Q 959 2388 959 1747 
Q 959 1106 1268 751 
Q 1578 397 2138 397 
Q 2388 397 2633 464 
Q 2878 531 3122 666 
L 3122 134 
Q 2881 22 2623 -34 
Q 2366 -91 2075 -91 
Q 1284 -91 818 406 
Q 353 903 353 1747 
Q 353 2603 823 3093 
Q 1294 3584 2113 3584 
Q 2378 3584 2631 3529 
Q 2884 3475 3122 3366 
z
" transform="scale(0.015625)"/>
       <path id="DejaVuSans-20" transform="scale(0.015625)"/>
       <path id="DejaVuSans-56" d="M 1831 0 
L 50 4666 
L 709 4666 
L 2188 738 
L 3669 4666 
L 4325 4666 
L 2547 0 
L 1831 0 
z
" transform="scale(0.015625)"/>
       <path id="DejaVuSans-61" d="M 2194 1759 
Q 1497 1759 1228 1600 
Q 959 1441 959 1056 
Q 959 750 1161 570 
Q 1363 391 1709 391 
Q 2188 391 2477 730 
Q 2766 1069 2766 1631 
L 2766 1759 
L 2194 1759 
z
M 3341 1997 
L 3341 0 
L 2766 0 
L 2766 531 
Q 2569 213 2275 61 
Q 1981 -91 1556 -91 
Q 1019 -91 701 211 
Q 384 513 384 1019 
Q 384 1609 779 1909 
Q 1175 2209 1959 2209 
L 2766 2209 
L 2766 2266 
Q 2766 2663 2505 2880 
Q 2244 3097 1772 3097 
Q 1472 3097 1187 3025 
Q 903 2953 641 2809 
L 641 3341 
Q 956 3463 1253 3523 
Q 1550 3584 1831 3584 
Q 2591 3584 2966 3190 
Q 3341 2797 3341 1997 
z
" transform="scale(0.015625)"/>
       <path id="DejaVuSans-6c" d="M 603 4863 
L 1178 4863 
L 1178 0 
L 603 0 
L 603 4863 
z
" transform="scale(0.015625)"/>
       <path id="DejaVuSans-75" d="M 544 1381 
L 544 3500 
L 1119 3500 
L 1119 1403 
Q 1119 906 1312 657 
Q 1506 409 1894 409 
Q 2359 409 2629 706 
Q 2900 1003 2900 1516 
L 2900 3500 
L 3475 3500 
L 3475 0 
L 2900 0 
L 2900 538 
Q 2691 219 2414 64 
Q 2138 -91 1772 -91 
Q 1169 -91 856 284 
Q 544 659 544 1381 
z
M 1991 3584 
L 1991 3584 
z
" transform="scale(0.015625)"/>
      </defs>
      <use xlink:href="#DejaVuSans-4d"/>
      <use xlink:href="#DejaVuSans-65" x="86.279297"/>
      <use xlink:href="#DejaVuSans-74" x="147.802734"/>
      <use xlink:href="#DejaVuSans-72" x="187.011719"/>
      <use xlink:href="#DejaVuSans-69" x="228.125"/>
      <use xlink:href="#DejaVuSans-63" x="255.908203"/>
      <use xlink:href="#DejaVuSans-20" x="310.888672"/>
      <use xlink:href="#DejaVuSans-56" x="342.675781"/>
      <use xlink:href="#DejaVuSans-61" x="403.333984"/>
      <use xlink:href="#DejaVuSans-6c" x="464.613281"/>
      <use xlink:href="#DejaVuSans-75" x="492.396484"/>
      <use xlink:href="#DejaVuSans-65" x="555.775391"/>
     </g>
    </g>
   </g>
   <g id="patch_20">
    <path d="M 591.545455 418.130526 
L 591.545455 155.52 
" style="fill: none; stroke: #000000; stroke-width: 0.8; stroke-linejoin: miter; stroke-linecap: square"/>
   </g>
   <g id="patch_21">
    <path d="M 972 418.130526 
L 972 155.52 
" style="fill: none; stroke: #000000; stroke-width: 0.8; stroke-linejoin: miter; stroke-linecap: square"/>
   </g>
   <g id="patch_22">
    <path d="M 591.545455 418.130526 
L 972 418.130526 
" style="fill: none; stroke: #000000; stroke-width: 0.8; stroke-linejoin: miter; stroke-linecap: square"/>
   </g>
   <g id="patch_23">
    <path d="M 591.545455 155.52 
L 972 155.52 
" style="fill: none; stroke: #000000; stroke-width: 0.8; stroke-linejoin: miter; stroke-linecap: square"/>
   </g>
   <g id="text_25">
    <!-- b -->
    <g transform="translate(544.871761 137.404046) scale(0.28 -0.28)">
     <defs>
      <path id="DejaVuSans-Bold-62" d="M 2400 722 
Q 2759 722 2948 984 
Q 3138 1247 3138 1747 
Q 3138 2247 2948 2509 
Q 2759 2772 2400 2772 
Q 2041 2772 1848 2508 
Q 1656 2244 1656 1747 
Q 1656 1250 1848 986 
Q 2041 722 2400 722 
z
M 1656 2988 
Q 1888 3294 2169 3439 
Q 2450 3584 2816 3584 
Q 3463 3584 3878 3070 
Q 4294 2556 4294 1747 
Q 4294 938 3878 423 
Q 3463 -91 2816 -91 
Q 2450 -91 2169 54 
Q 1888 200 1656 506 
L 1656 0 
L 538 0 
L 538 4863 
L 1656 4863 
L 1656 2988 
z
" transform="scale(0.015625)"/>
     </defs>
     <use xlink:href="#DejaVuSans-Bold-62"/>
    </g>
   </g>
   <g id="text_26">
    <!-- Metrics -->
    <g transform="translate(734.584759 149.52) scale(0.26 -0.26)">
     <defs>
      <path id="DejaVuSans-73" d="M 2834 3397 
L 2834 2853 
Q 2591 2978 2328 3040 
Q 2066 3103 1784 3103 
Q 1356 3103 1142 2972 
Q 928 2841 928 2578 
Q 928 2378 1081 2264 
Q 1234 2150 1697 2047 
L 1894 2003 
Q 2506 1872 2764 1633 
Q 3022 1394 3022 966 
Q 3022 478 2636 193 
Q 2250 -91 1575 -91 
Q 1294 -91 989 -36 
Q 684 19 347 128 
L 347 722 
Q 666 556 975 473 
Q 1284 391 1588 391 
Q 1994 391 2212 530 
Q 2431 669 2431 922 
Q 2431 1156 2273 1281 
Q 2116 1406 1581 1522 
L 1381 1569 
Q 847 1681 609 1914 
Q 372 2147 372 2553 
Q 372 3047 722 3315 
Q 1072 3584 1716 3584 
Q 2034 3584 2315 3537 
Q 2597 3491 2834 3397 
z
" transform="scale(0.015625)"/>
     </defs>
     <use xlink:href="#DejaVuSans-4d"/>
     <use xlink:href="#DejaVuSans-65" x="86.279297"/>
     <use xlink:href="#DejaVuSans-74" x="147.802734"/>
     <use xlink:href="#DejaVuSans-72" x="187.011719"/>
     <use xlink:href="#DejaVuSans-69" x="228.125"/>
     <use xlink:href="#DejaVuSans-63" x="255.908203"/>
     <use xlink:href="#DejaVuSans-73" x="310.888672"/>
    </g>
   </g>
  </g>
  <g id="axes_3">
   <g id="patch_24">
    <path d="M 135 785.785263 
L 515.454545 785.785263 
L 515.454545 523.174737 
L 135 523.174737 
z
" style="fill: #ffffff"/>
   </g>
   <g id="matplotlib.axis_5">
    <g id="xtick_10">
     <g id="line2d_24">
      <g>
       <use xlink:href="#m2deffcbf5e" x="137.882231" y="785.785263" style="stroke: #000000; stroke-width: 0.8"/>
      </g>
     </g>
     <g id="text_27">
      <!-- 0 -->
      <g transform="translate(130.883481 809.501826) scale(0.22 -0.22)">
       <use xlink:href="#DejaVuSans-30"/>
      </g>
     </g>
    </g>
    <g id="xtick_11">
     <g id="line2d_25">
      <g>
       <use xlink:href="#m2deffcbf5e" x="281.993802" y="785.785263" style="stroke: #000000; stroke-width: 0.8"/>
      </g>
     </g>
     <g id="text_28">
      <!-- 20 -->
      <g transform="translate(267.996302 809.501826) scale(0.22 -0.22)">
       <use xlink:href="#DejaVuSans-32"/>
       <use xlink:href="#DejaVuSans-30" x="63.623047"/>
      </g>
     </g>
    </g>
    <g id="xtick_12">
     <g id="line2d_26">
      <g>
       <use xlink:href="#m2deffcbf5e" x="426.105372" y="785.785263" style="stroke: #000000; stroke-width: 0.8"/>
      </g>
     </g>
     <g id="text_29">
      <!-- 40 -->
      <g transform="translate(412.107872 809.501826) scale(0.22 -0.22)">
       <use xlink:href="#DejaVuSans-34"/>
       <use xlink:href="#DejaVuSans-30" x="63.623047"/>
      </g>
     </g>
    </g>
    <g id="text_30">
     <!-- k -->
     <g transform="translate(318.278523 836.313388) scale(0.24 -0.24)">
      <use xlink:href="#DejaVuSans-6b"/>
     </g>
    </g>
   </g>
   <g id="matplotlib.axis_6">
    <g id="ytick_11">
     <g id="line2d_27">
      <g>
       <use xlink:href="#mf2b50ff4e7" x="135" y="775.274211" style="stroke: #000000; stroke-width: 0.8"/>
      </g>
     </g>
     <g id="text_31">
      <!-- 0.80 -->
      <g transform="translate(79.015625 783.632493) scale(0.22 -0.22)">
       <use xlink:href="#DejaVuSans-30"/>
       <use xlink:href="#DejaVuSans-2e" x="63.623047"/>
       <use xlink:href="#DejaVuSans-38" x="95.410156"/>
       <use xlink:href="#DejaVuSans-30" x="159.033203"/>
      </g>
     </g>
    </g>
    <g id="ytick_12">
     <g id="line2d_28">
      <g>
       <use xlink:href="#mf2b50ff4e7" x="135" y="714.436122" style="stroke: #000000; stroke-width: 0.8"/>
      </g>
     </g>
     <g id="text_32">
      <!-- 0.85 -->
      <g transform="translate(79.015625 722.794403) scale(0.22 -0.22)">
       <use xlink:href="#DejaVuSans-30"/>
       <use xlink:href="#DejaVuSans-2e" x="63.623047"/>
       <use xlink:href="#DejaVuSans-38" x="95.410156"/>
       <use xlink:href="#DejaVuSans-35" x="159.033203"/>
      </g>
     </g>
    </g>
    <g id="ytick_13">
     <g id="line2d_29">
      <g>
       <use xlink:href="#mf2b50ff4e7" x="135" y="653.598032" style="stroke: #000000; stroke-width: 0.8"/>
      </g>
     </g>
     <g id="text_33">
      <!-- 0.90 -->
      <g transform="translate(79.015625 661.956313) scale(0.22 -0.22)">
       <defs>
        <path id="DejaVuSans-39" d="M 703 97 
L 703 672 
Q 941 559 1184 500 
Q 1428 441 1663 441 
Q 2288 441 2617 861 
Q 2947 1281 2994 2138 
Q 2813 1869 2534 1725 
Q 2256 1581 1919 1581 
Q 1219 1581 811 2004 
Q 403 2428 403 3163 
Q 403 3881 828 4315 
Q 1253 4750 1959 4750 
Q 2769 4750 3195 4129 
Q 3622 3509 3622 2328 
Q 3622 1225 3098 567 
Q 2575 -91 1691 -91 
Q 1453 -91 1209 -44 
Q 966 3 703 97 
z
M 1959 2075 
Q 2384 2075 2632 2365 
Q 2881 2656 2881 3163 
Q 2881 3666 2632 3958 
Q 2384 4250 1959 4250 
Q 1534 4250 1286 3958 
Q 1038 3666 1038 3163 
Q 1038 2656 1286 2365 
Q 1534 2075 1959 2075 
z
" transform="scale(0.015625)"/>
       </defs>
       <use xlink:href="#DejaVuSans-30"/>
       <use xlink:href="#DejaVuSans-2e" x="63.623047"/>
       <use xlink:href="#DejaVuSans-39" x="95.410156"/>
       <use xlink:href="#DejaVuSans-30" x="159.033203"/>
      </g>
     </g>
    </g>
    <g id="ytick_14">
     <g id="line2d_30">
      <g>
       <use xlink:href="#mf2b50ff4e7" x="135" y="592.759942" style="stroke: #000000; stroke-width: 0.8"/>
      </g>
     </g>
     <g id="text_34">
      <!-- 0.95 -->
      <g transform="translate(79.015625 601.118223) scale(0.22 -0.22)">
       <use xlink:href="#DejaVuSans-30"/>
       <use xlink:href="#DejaVuSans-2e" x="63.623047"/>
       <use xlink:href="#DejaVuSans-39" x="95.410156"/>
       <use xlink:href="#DejaVuSans-35" x="159.033203"/>
      </g>
     </g>
    </g>
    <g id="ytick_15">
     <g id="line2d_31">
      <g>
       <use xlink:href="#mf2b50ff4e7" x="135" y="531.921853" style="stroke: #000000; stroke-width: 0.8"/>
      </g>
     </g>
     <g id="text_35">
      <!-- 1.00 -->
      <g transform="translate(79.015625 540.280134) scale(0.22 -0.22)">
       <use xlink:href="#DejaVuSans-31"/>
       <use xlink:href="#DejaVuSans-2e" x="63.623047"/>
       <use xlink:href="#DejaVuSans-30" x="95.410156"/>
       <use xlink:href="#DejaVuSans-30" x="159.033203"/>
      </g>
     </g>
    </g>
    <g id="text_36">
     <!-- Metric Value -->
     <g transform="translate(70.024375 728.555625) rotate(-90) scale(0.24 -0.24)">
      <use xlink:href="#DejaVuSans-4d"/>
      <use xlink:href="#DejaVuSans-65" x="86.279297"/>
      <use xlink:href="#DejaVuSans-74" x="147.802734"/>
      <use xlink:href="#DejaVuSans-72" x="187.011719"/>
      <use xlink:href="#DejaVuSans-69" x="228.125"/>
      <use xlink:href="#DejaVuSans-63" x="255.908203"/>
      <use xlink:href="#DejaVuSans-20" x="310.888672"/>
      <use xlink:href="#DejaVuSans-56" x="342.675781"/>
      <use xlink:href="#DejaVuSans-61" x="403.333984"/>
      <use xlink:href="#DejaVuSans-6c" x="464.613281"/>
      <use xlink:href="#DejaVuSans-75" x="492.396484"/>
      <use xlink:href="#DejaVuSans-65" x="555.775391"/>
     </g>
    </g>
   </g>
   <g id="line2d_32">
    <path d="M 152.293388 744.512086 
L 173.910124 753.311929 
L 209.938017 761.14957 
L 281.993802 765.988727 
L 498.161157 773.848421 
" clip-path="url(#pd7db652288)" style="fill: none; stroke: #1f77b4; stroke-width: 1.5; stroke-linecap: square"/>
    <g clip-path="url(#pd7db652288)">
     <use xlink:href="#m86682a52f1" x="152.293388" y="744.512086" style="fill: #1f77b4; stroke: #1f77b4"/>
     <use xlink:href="#m86682a52f1" x="173.910124" y="753.311929" style="fill: #1f77b4; stroke: #1f77b4"/>
     <use xlink:href="#m86682a52f1" x="209.938017" y="761.14957" style="fill: #1f77b4; stroke: #1f77b4"/>
     <use xlink:href="#m86682a52f1" x="281.993802" y="765.988727" style="fill: #1f77b4; stroke: #1f77b4"/>
     <use xlink:href="#m86682a52f1" x="498.161157" y="773.848421" style="fill: #1f77b4; stroke: #1f77b4"/>
    </g>
   </g>
   <g id="line2d_33">
    <path d="M 152.293388 535.111579 
L 173.910124 538.556705 
L 209.938017 550.55613 
L 281.993802 571.479503 
L 498.161157 626.118957 
" clip-path="url(#pd7db652288)" style="fill: none; stroke: #ff7f0e; stroke-width: 1.5; stroke-linecap: square"/>
    <g clip-path="url(#pd7db652288)">
     <use xlink:href="#mc0506813b4" x="152.293388" y="535.111579" style="fill: #ff7f0e; stroke: #ff7f0e"/>
     <use xlink:href="#mc0506813b4" x="173.910124" y="538.556705" style="fill: #ff7f0e; stroke: #ff7f0e"/>
     <use xlink:href="#mc0506813b4" x="209.938017" y="550.55613" style="fill: #ff7f0e; stroke: #ff7f0e"/>
     <use xlink:href="#mc0506813b4" x="281.993802" y="571.479503" style="fill: #ff7f0e; stroke: #ff7f0e"/>
     <use xlink:href="#mc0506813b4" x="498.161157" y="626.118957" style="fill: #ff7f0e; stroke: #ff7f0e"/>
    </g>
   </g>
   <g id="line2d_34">
    <path d="M 152.293388 545.93715 
L 173.910124 547.832983 
L 209.938017 555.329755 
L 281.993802 577.51271 
L 498.161157 623.2772 
" clip-path="url(#pd7db652288)" style="fill: none; stroke: #2ca02c; stroke-width: 1.5; stroke-linecap: square"/>
    <g clip-path="url(#pd7db652288)">
     <use xlink:href="#m8f5f9c13d4" x="152.293388" y="545.93715" style="fill: #2ca02c; stroke: #2ca02c"/>
     <use xlink:href="#m8f5f9c13d4" x="173.910124" y="547.832983" style="fill: #2ca02c; stroke: #2ca02c"/>
     <use xlink:href="#m8f5f9c13d4" x="209.938017" y="555.329755" style="fill: #2ca02c; stroke: #2ca02c"/>
     <use xlink:href="#m8f5f9c13d4" x="281.993802" y="577.51271" style="fill: #2ca02c; stroke: #2ca02c"/>
     <use xlink:href="#m8f5f9c13d4" x="498.161157" y="623.2772" style="fill: #2ca02c; stroke: #2ca02c"/>
    </g>
   </g>
   <g id="line2d_35">
    <path d="M 152.293388 547.563213 
L 173.910124 549.528463 
L 209.938017 556.955495 
L 281.993802 575.609403 
L 498.161157 616.960755 
" clip-path="url(#pd7db652288)" style="fill: none; stroke: #d62728; stroke-width: 1.5; stroke-linecap: square"/>
    <g clip-path="url(#pd7db652288)">
     <use xlink:href="#mf06efe28e2" x="152.293388" y="547.563213" style="fill: #d62728; stroke: #d62728"/>
     <use xlink:href="#mf06efe28e2" x="173.910124" y="549.528463" style="fill: #d62728; stroke: #d62728"/>
     <use xlink:href="#mf06efe28e2" x="209.938017" y="556.955495" style="fill: #d62728; stroke: #d62728"/>
     <use xlink:href="#mf06efe28e2" x="281.993802" y="575.609403" style="fill: #d62728; stroke: #d62728"/>
     <use xlink:href="#mf06efe28e2" x="498.161157" y="616.960755" style="fill: #d62728; stroke: #d62728"/>
    </g>
   </g>
   <g id="patch_25">
    <path d="M 135 785.785263 
L 135 523.174737 
" style="fill: none; stroke: #000000; stroke-width: 0.8; stroke-linejoin: miter; stroke-linecap: square"/>
   </g>
   <g id="patch_26">
    <path d="M 515.454545 785.785263 
L 515.454545 523.174737 
" style="fill: none; stroke: #000000; stroke-width: 0.8; stroke-linejoin: miter; stroke-linecap: square"/>
   </g>
   <g id="patch_27">
    <path d="M 135 785.785263 
L 515.454545 785.785263 
" style="fill: none; stroke: #000000; stroke-width: 0.8; stroke-linejoin: miter; stroke-linecap: square"/>
   </g>
   <g id="patch_28">
    <path d="M 135 523.174737 
L 515.454545 523.174737 
" style="fill: none; stroke: #000000; stroke-width: 0.8; stroke-linejoin: miter; stroke-linecap: square"/>
   </g>
   <g id="text_37">
    <!-- c -->
    <g transform="translate(91.769432 505.058783) scale(0.28 -0.28)">
     <defs>
      <path id="DejaVuSans-Bold-63" d="M 3366 3391 
L 3366 2478 
Q 3138 2634 2908 2709 
Q 2678 2784 2431 2784 
Q 1963 2784 1702 2511 
Q 1441 2238 1441 1747 
Q 1441 1256 1702 982 
Q 1963 709 2431 709 
Q 2694 709 2930 787 
Q 3166 866 3366 1019 
L 3366 103 
Q 3103 6 2833 -42 
Q 2563 -91 2291 -91 
Q 1344 -91 809 395 
Q 275 881 275 1747 
Q 275 2613 809 3098 
Q 1344 3584 2291 3584 
Q 2566 3584 2833 3536 
Q 3100 3488 3366 3391 
z
" transform="scale(0.015625)"/>
     </defs>
     <use xlink:href="#DejaVuSans-Bold-63"/>
    </g>
   </g>
   <g id="text_38">
    <!-- Trustworthiness -->
    <g transform="translate(230.950398 517.174737) scale(0.24 -0.24)">
     <defs>
      <path id="DejaVuSans-54" d="M -19 4666 
L 3928 4666 
L 3928 4134 
L 2272 4134 
L 2272 0 
L 1638 0 
L 1638 4134 
L -19 4134 
L -19 4666 
z
" transform="scale(0.015625)"/>
      <path id="DejaVuSans-77" d="M 269 3500 
L 844 3500 
L 1563 769 
L 2278 3500 
L 2956 3500 
L 3675 769 
L 4391 3500 
L 4966 3500 
L 4050 0 
L 3372 0 
L 2619 2869 
L 1863 0 
L 1184 0 
L 269 3500 
z
" transform="scale(0.015625)"/>
      <path id="DejaVuSans-6f" d="M 1959 3097 
Q 1497 3097 1228 2736 
Q 959 2375 959 1747 
Q 959 1119 1226 758 
Q 1494 397 1959 397 
Q 2419 397 2687 759 
Q 2956 1122 2956 1747 
Q 2956 2369 2687 2733 
Q 2419 3097 1959 3097 
z
M 1959 3584 
Q 2709 3584 3137 3096 
Q 3566 2609 3566 1747 
Q 3566 888 3137 398 
Q 2709 -91 1959 -91 
Q 1206 -91 779 398 
Q 353 888 353 1747 
Q 353 2609 779 3096 
Q 1206 3584 1959 3584 
z
" transform="scale(0.015625)"/>
      <path id="DejaVuSans-68" d="M 3513 2113 
L 3513 0 
L 2938 0 
L 2938 2094 
Q 2938 2591 2744 2837 
Q 2550 3084 2163 3084 
Q 1697 3084 1428 2787 
Q 1159 2491 1159 1978 
L 1159 0 
L 581 0 
L 581 4863 
L 1159 4863 
L 1159 2956 
Q 1366 3272 1645 3428 
Q 1925 3584 2291 3584 
Q 2894 3584 3203 3211 
Q 3513 2838 3513 2113 
z
" transform="scale(0.015625)"/>
      <path id="DejaVuSans-6e" d="M 3513 2113 
L 3513 0 
L 2938 0 
L 2938 2094 
Q 2938 2591 2744 2837 
Q 2550 3084 2163 3084 
Q 1697 3084 1428 2787 
Q 1159 2491 1159 1978 
L 1159 0 
L 581 0 
L 581 3500 
L 1159 3500 
L 1159 2956 
Q 1366 3272 1645 3428 
Q 1925 3584 2291 3584 
Q 2894 3584 3203 3211 
Q 3513 2838 3513 2113 
z
" transform="scale(0.015625)"/>
     </defs>
     <use xlink:href="#DejaVuSans-54"/>
     <use xlink:href="#DejaVuSans-72" x="46.333984"/>
     <use xlink:href="#DejaVuSans-75" x="87.447266"/>
     <use xlink:href="#DejaVuSans-73" x="150.826172"/>
     <use xlink:href="#DejaVuSans-74" x="202.925781"/>
     <use xlink:href="#DejaVuSans-77" x="242.134766"/>
     <use xlink:href="#DejaVuSans-6f" x="323.921875"/>
     <use xlink:href="#DejaVuSans-72" x="385.103516"/>
     <use xlink:href="#DejaVuSans-74" x="426.216797"/>
     <use xlink:href="#DejaVuSans-68" x="465.425781"/>
     <use xlink:href="#DejaVuSans-69" x="528.804688"/>
     <use xlink:href="#DejaVuSans-6e" x="556.587891"/>
     <use xlink:href="#DejaVuSans-65" x="619.966797"/>
     <use xlink:href="#DejaVuSans-73" x="681.490234"/>
     <use xlink:href="#DejaVuSans-73" x="733.589844"/>
    </g>
   </g>
  </g>
  <g id="axes_4">
   <g id="patch_29">
    <path d="M 591.545455 785.785263 
L 972 785.785263 
L 972 523.174737 
L 591.545455 523.174737 
z
" style="fill: #ffffff"/>
   </g>
   <g id="matplotlib.axis_7">
    <g id="xtick_13">
     <g id="line2d_36">
      <g>
       <use xlink:href="#m2deffcbf5e" x="594.427686" y="785.785263" style="stroke: #000000; stroke-width: 0.8"/>
      </g>
     </g>
     <g id="text_39">
      <!-- 0 -->
      <g transform="translate(587.428936 809.501826) scale(0.22 -0.22)">
       <use xlink:href="#DejaVuSans-30"/>
      </g>
     </g>
    </g>
    <g id="xtick_14">
     <g id="line2d_37">
      <g>
       <use xlink:href="#m2deffcbf5e" x="738.539256" y="785.785263" style="stroke: #000000; stroke-width: 0.8"/>
      </g>
     </g>
     <g id="text_40">
      <!-- 20 -->
      <g transform="translate(724.541756 809.501826) scale(0.22 -0.22)">
       <use xlink:href="#DejaVuSans-32"/>
       <use xlink:href="#DejaVuSans-30" x="63.623047"/>
      </g>
     </g>
    </g>
    <g id="xtick_15">
     <g id="line2d_38">
      <g>
       <use xlink:href="#m2deffcbf5e" x="882.650826" y="785.785263" style="stroke: #000000; stroke-width: 0.8"/>
      </g>
     </g>
     <g id="text_41">
      <!-- 40 -->
      <g transform="translate(868.653326 809.501826) scale(0.22 -0.22)">
       <use xlink:href="#DejaVuSans-34"/>
       <use xlink:href="#DejaVuSans-30" x="63.623047"/>
      </g>
     </g>
    </g>
    <g id="text_42">
     <!-- k -->
     <g transform="translate(774.823977 836.313388) scale(0.24 -0.24)">
      <use xlink:href="#DejaVuSans-6b"/>
     </g>
    </g>
   </g>
   <g id="matplotlib.axis_8">
    <g id="ytick_16">
     <g id="line2d_39">
      <g>
       <use xlink:href="#mf2b50ff4e7" x="591.545455" y="770.240326" style="stroke: #000000; stroke-width: 0.8"/>
      </g>
     </g>
     <g id="text_43">
      <!-- 0.85 -->
      <g transform="translate(535.56108 778.598607) scale(0.22 -0.22)">
       <use xlink:href="#DejaVuSans-30"/>
       <use xlink:href="#DejaVuSans-2e" x="63.623047"/>
       <use xlink:href="#DejaVuSans-38" x="95.410156"/>
       <use xlink:href="#DejaVuSans-35" x="159.033203"/>
      </g>
     </g>
    </g>
    <g id="ytick_17">
     <g id="line2d_40">
      <g>
       <use xlink:href="#mf2b50ff4e7" x="591.545455" y="689.601107" style="stroke: #000000; stroke-width: 0.8"/>
      </g>
     </g>
     <g id="text_44">
      <!-- 0.90 -->
      <g transform="translate(535.56108 697.959389) scale(0.22 -0.22)">
       <use xlink:href="#DejaVuSans-30"/>
       <use xlink:href="#DejaVuSans-2e" x="63.623047"/>
       <use xlink:href="#DejaVuSans-39" x="95.410156"/>
       <use xlink:href="#DejaVuSans-30" x="159.033203"/>
      </g>
     </g>
    </g>
    <g id="ytick_18">
     <g id="line2d_41">
      <g>
       <use xlink:href="#mf2b50ff4e7" x="591.545455" y="608.961889" style="stroke: #000000; stroke-width: 0.8"/>
      </g>
     </g>
     <g id="text_45">
      <!-- 0.95 -->
      <g transform="translate(535.56108 617.32017) scale(0.22 -0.22)">
       <use xlink:href="#DejaVuSans-30"/>
       <use xlink:href="#DejaVuSans-2e" x="63.623047"/>
       <use xlink:href="#DejaVuSans-39" x="95.410156"/>
       <use xlink:href="#DejaVuSans-35" x="159.033203"/>
      </g>
     </g>
    </g>
    <g id="ytick_19">
     <g id="line2d_42">
      <g>
       <use xlink:href="#mf2b50ff4e7" x="591.545455" y="528.32267" style="stroke: #000000; stroke-width: 0.8"/>
      </g>
     </g>
     <g id="text_46">
      <!-- 1.00 -->
      <g transform="translate(535.56108 536.680951) scale(0.22 -0.22)">
       <use xlink:href="#DejaVuSans-31"/>
       <use xlink:href="#DejaVuSans-2e" x="63.623047"/>
       <use xlink:href="#DejaVuSans-30" x="95.410156"/>
       <use xlink:href="#DejaVuSans-30" x="159.033203"/>
      </g>
     </g>
    </g>
   </g>
   <g id="line2d_43">
    <path d="M 608.838843 580.058948 
L 630.455579 600.493309 
L 666.483471 623.263793 
L 738.539256 646.854021 
L 954.706612 679.352206 
" clip-path="url(#pb64dc39033)" style="fill: none; stroke: #1f77b4; stroke-width: 1.5; stroke-linecap: square"/>
    <g clip-path="url(#pb64dc39033)">
     <use xlink:href="#m86682a52f1" x="608.838843" y="580.058948" style="fill: #1f77b4; stroke: #1f77b4"/>
     <use xlink:href="#m86682a52f1" x="630.455579" y="600.493309" style="fill: #1f77b4; stroke: #1f77b4"/>
     <use xlink:href="#m86682a52f1" x="666.483471" y="623.263793" style="fill: #1f77b4; stroke: #1f77b4"/>
     <use xlink:href="#m86682a52f1" x="738.539256" y="646.854021" style="fill: #1f77b4; stroke: #1f77b4"/>
     <use xlink:href="#m86682a52f1" x="954.706612" y="679.352206" style="fill: #1f77b4; stroke: #1f77b4"/>
    </g>
   </g>
   <g id="line2d_44">
    <path d="M 608.838843 535.111579 
L 630.455579 545.294282 
L 666.483471 558.692184 
L 738.539256 579.413952 
L 954.706612 622.455387 
" clip-path="url(#pb64dc39033)" style="fill: none; stroke: #ff7f0e; stroke-width: 1.5; stroke-linecap: square"/>
    <g clip-path="url(#pb64dc39033)">
     <use xlink:href="#mc0506813b4" x="608.838843" y="535.111579" style="fill: #ff7f0e; stroke: #ff7f0e"/>
     <use xlink:href="#mc0506813b4" x="630.455579" y="545.294282" style="fill: #ff7f0e; stroke: #ff7f0e"/>
     <use xlink:href="#mc0506813b4" x="666.483471" y="558.692184" style="fill: #ff7f0e; stroke: #ff7f0e"/>
     <use xlink:href="#mc0506813b4" x="738.539256" y="579.413952" style="fill: #ff7f0e; stroke: #ff7f0e"/>
     <use xlink:href="#mc0506813b4" x="954.706612" y="622.455387" style="fill: #ff7f0e; stroke: #ff7f0e"/>
    </g>
   </g>
   <g id="line2d_45">
    <path d="M 608.838843 535.290981 
L 630.455579 541.725966 
L 666.483471 554.054137 
L 738.539256 579.481627 
L 954.706612 627.177408 
" clip-path="url(#pb64dc39033)" style="fill: none; stroke: #2ca02c; stroke-width: 1.5; stroke-linecap: square"/>
    <g clip-path="url(#pb64dc39033)">
     <use xlink:href="#m8f5f9c13d4" x="608.838843" y="535.290981" style="fill: #2ca02c; stroke: #2ca02c"/>
     <use xlink:href="#m8f5f9c13d4" x="630.455579" y="541.725966" style="fill: #2ca02c; stroke: #2ca02c"/>
     <use xlink:href="#m8f5f9c13d4" x="666.483471" y="554.054137" style="fill: #2ca02c; stroke: #2ca02c"/>
     <use xlink:href="#m8f5f9c13d4" x="738.539256" y="579.481627" style="fill: #2ca02c; stroke: #2ca02c"/>
     <use xlink:href="#m8f5f9c13d4" x="954.706612" y="627.177408" style="fill: #2ca02c; stroke: #2ca02c"/>
    </g>
   </g>
   <g id="line2d_46">
    <path d="M 608.838843 575.19681 
L 630.455579 592.352087 
L 666.483471 625.246351 
L 738.539256 678.211342 
L 954.706612 773.848421 
" clip-path="url(#pb64dc39033)" style="fill: none; stroke: #d62728; stroke-width: 1.5; stroke-linecap: square"/>
    <g clip-path="url(#pb64dc39033)">
     <use xlink:href="#mf06efe28e2" x="608.838843" y="575.19681" style="fill: #d62728; stroke: #d62728"/>
     <use xlink:href="#mf06efe28e2" x="630.455579" y="592.352087" style="fill: #d62728; stroke: #d62728"/>
     <use xlink:href="#mf06efe28e2" x="666.483471" y="625.246351" style="fill: #d62728; stroke: #d62728"/>
     <use xlink:href="#mf06efe28e2" x="738.539256" y="678.211342" style="fill: #d62728; stroke: #d62728"/>
     <use xlink:href="#mf06efe28e2" x="954.706612" y="773.848421" style="fill: #d62728; stroke: #d62728"/>
    </g>
   </g>
   <g id="patch_30">
    <path d="M 591.545455 785.785263 
L 591.545455 523.174737 
" style="fill: none; stroke: #000000; stroke-width: 0.8; stroke-linejoin: miter; stroke-linecap: square"/>
   </g>
   <g id="patch_31">
    <path d="M 972 785.785263 
L 972 523.174737 
" style="fill: none; stroke: #000000; stroke-width: 0.8; stroke-linejoin: miter; stroke-linecap: square"/>
   </g>
   <g id="patch_32">
    <path d="M 591.545455 785.785263 
L 972 785.785263 
" style="fill: none; stroke: #000000; stroke-width: 0.8; stroke-linejoin: miter; stroke-linecap: square"/>
   </g>
   <g id="patch_33">
    <path d="M 591.545455 523.174737 
L 972 523.174737 
" style="fill: none; stroke: #000000; stroke-width: 0.8; stroke-linejoin: miter; stroke-linecap: square"/>
   </g>
   <g id="text_47">
    <!-- d -->
    <g transform="translate(544.871761 505.058783) scale(0.28 -0.28)">
     <defs>
      <path id="DejaVuSans-Bold-64" d="M 2919 2988 
L 2919 4863 
L 4044 4863 
L 4044 0 
L 2919 0 
L 2919 506 
Q 2688 197 2409 53 
Q 2131 -91 1766 -91 
Q 1119 -91 703 423 
Q 288 938 288 1747 
Q 288 2556 703 3070 
Q 1119 3584 1766 3584 
Q 2128 3584 2408 3439 
Q 2688 3294 2919 2988 
z
M 2181 722 
Q 2541 722 2730 984 
Q 2919 1247 2919 1747 
Q 2919 2247 2730 2509 
Q 2541 2772 2181 2772 
Q 1825 2772 1636 2509 
Q 1447 2247 1447 1747 
Q 1447 1247 1636 984 
Q 1825 722 2181 722 
z
" transform="scale(0.015625)"/>
     </defs>
     <use xlink:href="#DejaVuSans-Bold-64"/>
    </g>
   </g>
   <g id="text_48">
    <!-- Continuity -->
    <g transform="translate(720.057102 517.174737) scale(0.24 -0.24)">
     <defs>
      <path id="DejaVuSans-79" d="M 2059 -325 
Q 1816 -950 1584 -1140 
Q 1353 -1331 966 -1331 
L 506 -1331 
L 506 -850 
L 844 -850 
Q 1081 -850 1212 -737 
Q 1344 -625 1503 -206 
L 1606 56 
L 191 3500 
L 800 3500 
L 1894 763 
L 2988 3500 
L 3597 3500 
L 2059 -325 
z
" transform="scale(0.015625)"/>
     </defs>
     <use xlink:href="#DejaVuSans-43"/>
     <use xlink:href="#DejaVuSans-6f" x="69.824219"/>
     <use xlink:href="#DejaVuSans-6e" x="131.005859"/>
     <use xlink:href="#DejaVuSans-74" x="194.384766"/>
     <use xlink:href="#DejaVuSans-69" x="233.59375"/>
     <use xlink:href="#DejaVuSans-6e" x="261.376953"/>
     <use xlink:href="#DejaVuSans-75" x="324.755859"/>
     <use xlink:href="#DejaVuSans-69" x="388.134766"/>
     <use xlink:href="#DejaVuSans-74" x="415.917969"/>
     <use xlink:href="#DejaVuSans-79" x="455.126953"/>
    </g>
   </g>
  </g>
  <g id="axes_5">
   <g id="patch_34">
    <path d="M 135 1153.44 
L 515.454545 1153.44 
L 515.454545 890.829474 
L 135 890.829474 
z
" style="fill: #ffffff"/>
   </g>
   <g id="matplotlib.axis_9">
    <g id="xtick_16">
     <g id="line2d_47">
      <g>
       <use xlink:href="#m2deffcbf5e" x="152.15415" y="1153.44" style="stroke: #000000; stroke-width: 0.8"/>
      </g>
     </g>
     <g id="text_49">
      <!-- 0 -->
      <g transform="translate(145.1554 1177.156562) scale(0.22 -0.22)">
       <use xlink:href="#DejaVuSans-30"/>
      </g>
     </g>
    </g>
    <g id="xtick_17">
     <g id="line2d_48">
      <g>
       <use xlink:href="#m2deffcbf5e" x="291.392382" y="1153.44" style="stroke: #000000; stroke-width: 0.8"/>
      </g>
     </g>
     <g id="text_50">
      <!-- 1000 -->
      <g transform="translate(263.397382 1177.156562) scale(0.22 -0.22)">
       <use xlink:href="#DejaVuSans-31"/>
       <use xlink:href="#DejaVuSans-30" x="63.623047"/>
       <use xlink:href="#DejaVuSans-30" x="127.246094"/>
       <use xlink:href="#DejaVuSans-30" x="190.869141"/>
      </g>
     </g>
    </g>
    <g id="xtick_18">
     <g id="line2d_49">
      <g>
       <use xlink:href="#m2deffcbf5e" x="430.630614" y="1153.44" style="stroke: #000000; stroke-width: 0.8"/>
      </g>
     </g>
     <g id="text_51">
      <!-- 2000 -->
      <g transform="translate(402.635614 1177.156562) scale(0.22 -0.22)">
       <use xlink:href="#DejaVuSans-32"/>
       <use xlink:href="#DejaVuSans-30" x="63.623047"/>
       <use xlink:href="#DejaVuSans-30" x="127.246094"/>
       <use xlink:href="#DejaVuSans-30" x="190.869141"/>
      </g>
     </g>
    </g>
    <g id="text_52">
     <!-- k -->
     <g transform="translate(318.278523 1203.968125) scale(0.24 -0.24)">
      <use xlink:href="#DejaVuSans-6b"/>
     </g>
    </g>
   </g>
   <g id="matplotlib.axis_10">
    <g id="ytick_20">
     <g id="line2d_50">
      <g>
       <use xlink:href="#mf2b50ff4e7" x="135" y="1120.864539" style="stroke: #000000; stroke-width: 0.8"/>
      </g>
     </g>
     <g id="text_53">
      <!-- 0.2 -->
      <g transform="translate(93.013125 1129.22282) scale(0.22 -0.22)">
       <use xlink:href="#DejaVuSans-30"/>
       <use xlink:href="#DejaVuSans-2e" x="63.623047"/>
       <use xlink:href="#DejaVuSans-32" x="95.410156"/>
      </g>
     </g>
    </g>
    <g id="ytick_21">
     <g id="line2d_51">
      <g>
       <use xlink:href="#mf2b50ff4e7" x="135" y="1066.339983" style="stroke: #000000; stroke-width: 0.8"/>
      </g>
     </g>
     <g id="text_54">
      <!-- 0.4 -->
      <g transform="translate(93.013125 1074.698264) scale(0.22 -0.22)">
       <use xlink:href="#DejaVuSans-30"/>
       <use xlink:href="#DejaVuSans-2e" x="63.623047"/>
       <use xlink:href="#DejaVuSans-34" x="95.410156"/>
      </g>
     </g>
    </g>
    <g id="ytick_22">
     <g id="line2d_52">
      <g>
       <use xlink:href="#mf2b50ff4e7" x="135" y="1011.815427" style="stroke: #000000; stroke-width: 0.8"/>
      </g>
     </g>
     <g id="text_55">
      <!-- 0.6 -->
      <g transform="translate(93.013125 1020.173709) scale(0.22 -0.22)">
       <use xlink:href="#DejaVuSans-30"/>
       <use xlink:href="#DejaVuSans-2e" x="63.623047"/>
       <use xlink:href="#DejaVuSans-36" x="95.410156"/>
      </g>
     </g>
    </g>
    <g id="ytick_23">
     <g id="line2d_53">
      <g>
       <use xlink:href="#mf2b50ff4e7" x="135" y="957.290872" style="stroke: #000000; stroke-width: 0.8"/>
      </g>
     </g>
     <g id="text_56">
      <!-- 0.8 -->
      <g transform="translate(93.013125 965.649153) scale(0.22 -0.22)">
       <use xlink:href="#DejaVuSans-30"/>
       <use xlink:href="#DejaVuSans-2e" x="63.623047"/>
       <use xlink:href="#DejaVuSans-38" x="95.410156"/>
      </g>
     </g>
    </g>
    <g id="ytick_24">
     <g id="line2d_54">
      <g>
       <use xlink:href="#mf2b50ff4e7" x="135" y="902.766316" style="stroke: #000000; stroke-width: 0.8"/>
      </g>
     </g>
     <g id="text_57">
      <!-- 1.0 -->
      <g transform="translate(93.013125 911.124597) scale(0.22 -0.22)">
       <use xlink:href="#DejaVuSans-31"/>
       <use xlink:href="#DejaVuSans-2e" x="63.623047"/>
       <use xlink:href="#DejaVuSans-30" x="95.410156"/>
      </g>
     </g>
    </g>
    <g id="text_58">
     <!-- Metric Value -->
     <g transform="translate(84.021875 1096.210362) rotate(-90) scale(0.24 -0.24)">
      <use xlink:href="#DejaVuSans-4d"/>
      <use xlink:href="#DejaVuSans-65" x="86.279297"/>
      <use xlink:href="#DejaVuSans-74" x="147.802734"/>
      <use xlink:href="#DejaVuSans-72" x="187.011719"/>
      <use xlink:href="#DejaVuSans-69" x="228.125"/>
      <use xlink:href="#DejaVuSans-63" x="255.908203"/>
      <use xlink:href="#DejaVuSans-20" x="310.888672"/>
      <use xlink:href="#DejaVuSans-56" x="342.675781"/>
      <use xlink:href="#DejaVuSans-61" x="403.333984"/>
      <use xlink:href="#DejaVuSans-6c" x="464.613281"/>
      <use xlink:href="#DejaVuSans-75" x="492.396484"/>
      <use xlink:href="#DejaVuSans-65" x="555.775391"/>
     </g>
    </g>
   </g>
   <g id="line2d_55">
    <path d="M 152.293388 1141.503158 
L 152.571865 1131.012043 
L 152.98958 1125.528881 
L 153.268056 1123.367602 
L 153.685771 1119.979258 
L 153.964247 1118.819741 
L 154.103485 1118.552211 
L 154.381962 1117.706238 
L 154.660438 1117.249308 
L 154.938915 1116.878281 
L 155.35663 1116.123273 
L 155.495868 1116.052151 
L 159.394538 1107.809132 
L 159.812253 1106.909395 
L 161.62235 1103.164572 
L 162.040065 1102.305505 
L 165.52102 1095.194434 
L 166.913403 1092.52094 
L 167.748832 1091.094302 
L 169.419691 1088.416429 
L 174.98922 1080.311747 
L 176.660079 1078.173268 
L 177.773985 1076.697556 
L 184.875135 1067.81087 
L 189.748473 1062.733281 
L 203.950773 1050.424901 
L 205.621631 1048.970528 
L 208.267158 1046.713041 
L 209.241825 1045.92069 
L 210.077255 1045.234135 
L 212.444305 1043.229712 
L 214.254402 1041.826416 
L 218.849263 1038.529618 
L 225.254222 1034.374719 
L 226.925081 1033.3017 
L 232.773087 1029.789476 
L 234.443945 1028.779382 
L 235.697089 1028.131305 
L 241.545095 1025.238787 
L 245.165289 1023.184417 
L 247.810816 1021.717234 
L 262.43083 1012.894087 
L 267.721883 1009.448551 
L 271.202839 1007.104526 
L 274.126842 1005.072967 
L 283.038088 998.761887 
L 285.822853 996.820695 
L 290.556953 993.489136 
L 292.784765 991.969641 
L 303.088394 985.311363 
L 306.56935 983.080834 
L 312.138879 979.663429 
L 328.986705 970.067587 
L 342.77129 963.093826 
L 351.961013 958.764256 
L 355.998922 957.074781 
L 362.821595 954.245264 
L 368.948078 952.071663 
L 371.732842 951.299004 
L 373.542939 950.851364 
L 374.656845 950.57811 
L 375.631513 950.318818 
L 377.720086 949.805273 
L 380.365613 949.080595 
L 385.517427 947.193728 
L 387.745239 946.487527 
L 398.188106 943.704336 
L 407.238591 940.837413 
L 410.719547 939.860655 
L 415.314409 938.663789 
L 418.238412 938.087458 
L 422.415559 937.11633 
L 425.339562 936.514642 
L 429.238232 935.374924 
L 434.11157 933.582711 
L 439.6811 931.521925 
L 449.567014 928.157152 
L 460.566834 923.998106 
L 473.376752 918.765643 
L 478.667805 916.229125 
L 480.338663 915.18157 
L 489.389148 908.975192 
L 498.161157 902.766316 
L 498.161157 902.766316 
" clip-path="url(#pc9c41b9666)" style="fill: none; stroke: #1f77b4; stroke-width: 1.5; stroke-linecap: square"/>
   </g>
   <g id="line2d_56">
    <path d="M 152.293388 975.692361 
L 152.432627 974.595729 
L 153.407294 988.571697 
L 153.825009 993.320724 
L 155.495868 1008.308032 
L 156.192059 1012.391726 
L 156.470535 1013.607537 
L 157.305965 1017.391061 
L 158.419871 1022.350408 
L 158.698347 1023.570858 
L 159.394538 1025.880158 
L 160.090729 1027.655414 
L 161.900826 1032.11409 
L 163.710923 1034.778378 
L 165.52102 1036.933561 
L 166.077973 1037.568739 
L 167.052641 1038.278291 
L 167.331117 1038.51128 
L 168.305785 1039.307431 
L 168.862738 1039.620538 
L 169.837406 1040.480013 
L 170.951312 1041.616206 
L 171.229788 1041.911339 
L 171.647503 1042.262639 
L 172.065217 1042.530946 
L 173.318361 1043.499586 
L 175.406935 1044.629816 
L 178.052461 1045.623303 
L 178.887891 1045.849409 
L 179.72332 1045.998673 
L 180.697988 1046.15553 
L 181.115702 1046.218468 
L 181.672655 1046.414278 
L 185.292849 1046.682712 
L 187.102946 1046.559271 
L 189.052282 1046.473972 
L 191.55857 1046.087627 
L 194.761049 1045.359688 
L 204.229249 1042.739695 
L 205.064678 1042.501218 
L 206.735537 1041.948812 
L 209.798778 1041.010586 
L 212.583543 1040.171558 
L 219.545455 1038.371238 
L 220.65936 1038.100321 
L 222.051743 1037.778786 
L 230.266798 1035.868736 
L 231.937657 1035.458053 
L 238.621092 1033.912585 
L 242.798239 1033.02197 
L 244.190622 1032.661494 
L 246.836148 1031.917664 
L 252.266439 1030.341405 
L 253.79806 1029.884021 
L 255.051204 1029.558522 
L 258.392921 1028.633972 
L 272.455983 1023.640068 
L 285.2659 1018.529616 
L 288.329141 1017.323011 
L 290.835429 1016.31587 
L 293.620194 1015.204906 
L 304.2023 1011.19814 
L 309.493352 1009.28046 
L 334.277758 999.59601 
L 336.923284 998.516856 
L 339.986525 997.241794 
L 344.859863 995.032548 
L 349.315487 992.957658 
L 351.961013 991.66223 
L 374.656845 980.274541 
L 377.859324 978.701503 
L 391.086957 971.862328 
L 410.023356 960.914471 
L 417.959935 956.122042 
L 433.833094 946.831309 
L 447.896155 937.841458 
L 455.275782 932.935339 
L 461.123787 928.924726 
L 471.984369 921.463872 
L 480.61714 915.416868 
L 489.528387 909.505286 
L 498.161157 902.766316 
L 498.161157 902.766316 
" clip-path="url(#pc9c41b9666)" style="fill: none; stroke: #ff7f0e; stroke-width: 1.5; stroke-linecap: square"/>
   </g>
   <g id="line2d_57">
    <path d="M 152.293388 1107.288232 
L 152.711103 1050.592344 
L 153.128818 1024.210505 
L 153.546533 1015.401415 
L 154.103485 1010.103114 
L 154.242724 1009.746448 
L 154.381962 1009.900433 
L 154.660438 1010.662745 
L 154.799677 1010.57681 
L 155.35663 1011.914601 
L 156.052821 1015.135873 
L 156.609774 1016.641295 
L 157.445203 1019.358526 
L 158.280632 1023.041951 
L 158.698347 1024.067843 
L 159.2553 1025.303144 
L 160.647682 1028.463743 
L 160.926159 1028.892951 
L 161.204635 1029.660165 
L 162.179303 1031.611467 
L 163.571685 1033.459471 
L 164.128638 1034.150511 
L 164.407115 1034.551605 
L 165.52102 1035.221215 
L 165.938735 1035.310386 
L 166.35645 1035.530852 
L 166.634926 1035.700289 
L 166.913403 1035.921267 
L 167.191879 1035.892395 
L 168.584262 1036.82775 
L 169.280453 1037.622661 
L 169.976644 1038.435147 
L 170.533597 1039.044474 
L 171.229788 1039.614815 
L 171.647503 1039.977727 
L 172.482932 1040.996812 
L 173.596838 1042.369738 
L 175.685411 1044.308446 
L 176.381603 1044.703933 
L 176.799317 1045.037932 
L 177.913223 1045.642087 
L 180.280273 1046.592351 
L 180.837226 1046.832918 
L 181.115702 1046.907554 
L 181.811894 1047.143873 
L 182.368847 1047.202891 
L 183.065038 1047.309857 
L 183.621991 1047.356793 
L 189.609235 1047.797358 
L 191.419332 1047.699879 
L 192.115523 1047.565333 
L 193.92562 1047.167927 
L 195.874955 1046.797787 
L 196.431908 1046.647571 
L 197.685052 1046.314807 
L 198.65972 1045.87387 
L 199.634387 1045.417269 
L 200.469817 1045.0839 
L 202.697628 1044.234294 
L 205.900108 1042.666761 
L 206.735537 1042.303818 
L 209.241825 1041.271237 
L 210.077255 1040.92669 
L 212.165828 1040.144314 
L 219.266978 1036.239885 
L 220.241646 1035.762691 
L 223.02641 1034.67631 
L 225.950413 1033.493985 
L 226.785843 1033.254506 
L 230.406037 1032.307269 
L 231.937657 1031.707494 
L 232.912325 1031.324515 
L 234.722422 1030.899381 
L 237.367948 1030.385461 
L 239.734998 1029.726692 
L 240.988142 1029.329194 
L 242.659001 1028.699178 
L 244.469098 1027.926626 
L 246.69691 1026.866972 
L 254.355013 1022.679467 
L 264.937118 1016.219015 
L 271.89903 1011.532471 
L 278.443227 1007.929843 
L 291.949335 999.787687 
L 296.126482 997.582583 
L 302.949156 993.785477 
L 306.708588 991.571892 
L 313.948976 988.030229 
L 320.771649 985.235416 
L 327.315846 982.224645 
L 328.986705 981.364281 
L 332.189184 979.66373 
L 336.923284 977.295411 
L 346.252246 973.08782 
L 352.935681 970.167372 
L 354.467301 969.436198 
L 358.644448 967.620023 
L 368.391125 963.467842 
L 374.378369 960.609338 
L 376.327704 959.704961 
L 383.568092 956.408855 
L 389.555336 953.508809 
L 392.618577 952.291168 
L 394.846389 951.468616 
L 397.213439 950.668023 
L 411.2765 946.434849 
L 416.428315 944.398417 
L 427.01042 939.712879 
L 436.617858 935.196893 
L 440.795005 933.349183 
L 447.756917 930.502589 
L 453.187208 927.786625 
L 468.642652 919.720936 
L 484.237334 911.508245 
L 489.389148 908.836189 
L 492.591628 906.626461 
L 495.654869 904.416109 
L 497.464966 903.315958 
L 498.161157 902.766316 
L 498.161157 902.766316 
" clip-path="url(#pc9c41b9666)" style="fill: none; stroke: #2ca02c; stroke-width: 1.5; stroke-linecap: square"/>
   </g>
   <g id="line2d_58">
    <path d="M 152.293388 1106.410926 
L 152.711103 1063.285862 
L 153.268056 1044.739069 
L 153.685771 1037.891348 
L 154.103485 1032.631074 
L 154.799677 1027.972861 
L 155.078153 1026.905087 
L 155.217391 1026.890133 
L 155.35663 1027.243613 
L 155.635106 1026.628736 
L 155.774344 1026.424256 
L 156.052821 1026.497767 
L 156.470535 1026.278946 
L 156.88825 1027.127639 
L 157.305965 1027.210366 
L 157.584441 1027.172216 
L 157.723679 1027.11893 
L 158.280632 1028.335694 
L 159.394538 1030.464924 
L 163.432447 1041.099029 
L 166.495688 1046.798848 
L 166.913403 1047.500048 
L 167.609594 1048.907877 
L 169.001976 1051.05728 
L 169.976644 1052.161899 
L 170.672835 1052.875483 
L 171.508264 1053.576919 
L 172.065217 1054.228868 
L 174.293029 1056.672101 
L 176.938556 1058.656287 
L 177.634747 1059.11851 
L 178.887891 1060.050226 
L 181.254941 1061.865619 
L 182.368847 1062.585559 
L 183.900467 1063.475849 
L 185.014373 1063.965217 
L 185.710564 1064.149631 
L 186.406755 1064.306934 
L 187.102946 1064.502971 
L 189.469996 1065.534368 
L 190.444664 1065.977097 
L 191.697808 1066.383076 
L 196.153432 1066.730884 
L 197.963529 1066.96983 
L 199.773626 1067.046317 
L 201.583723 1067.054184 
L 204.090011 1066.822795 
L 208.545634 1066.701466 
L 211.051922 1066.63247 
L 213.975925 1066.488078 
L 215.507546 1066.473025 
L 218.431549 1066.342609 
L 220.798599 1066.216128 
L 224.697269 1065.872367 
L 227.76051 1065.302767 
L 228.735178 1065.07766 
L 231.241466 1064.57846 
L 232.773087 1064.251192 
L 235.557851 1063.515578 
L 239.456522 1062.586562 
L 241.266619 1062.228126 
L 242.937478 1061.780852 
L 246.279195 1060.626367 
L 250.59558 1059.189351 
L 257.975207 1056.636519 
L 260.481495 1055.623462 
L 265.911786 1053.683451 
L 269.253503 1052.204041 
L 277.050844 1048.800689 
L 280.392562 1047.134202 
L 283.455803 1045.690177 
L 284.987424 1045.013543 
L 292.506288 1041.527068 
L 295.987244 1039.575595 
L 297.936579 1038.562592 
L 300.721344 1037.186708 
L 304.759253 1035.240893 
L 309.493352 1033.108047 
L 316.037549 1029.878852 
L 318.543838 1028.680163 
L 320.353935 1027.83668 
L 329.543658 1023.554505 
L 342.77129 1017.475412 
L 345.416816 1016.141499 
L 354.328063 1011.694299 
L 367.694934 1004.392743 
L 388.44143 991.447612 
L 399.858965 983.383211 
L 413.225835 973.209234 
L 421.162415 966.893874 
L 444.275961 947.751133 
L 460.427596 934.09592 
L 468.224937 927.510253 
L 490.920769 908.593206 
L 498.161157 902.766492 
L 498.161157 902.766492 
" clip-path="url(#pc9c41b9666)" style="fill: none; stroke: #d62728; stroke-width: 1.5; stroke-linecap: square"/>
   </g>
   <g id="patch_35">
    <path d="M 135 1153.44 
L 135 890.829474 
" style="fill: none; stroke: #000000; stroke-width: 0.8; stroke-linejoin: miter; stroke-linecap: square"/>
   </g>
   <g id="patch_36">
    <path d="M 515.454545 1153.44 
L 515.454545 890.829474 
" style="fill: none; stroke: #000000; stroke-width: 0.8; stroke-linejoin: miter; stroke-linecap: square"/>
   </g>
   <g id="patch_37">
    <path d="M 135 1153.44 
L 515.454545 1153.44 
" style="fill: none; stroke: #000000; stroke-width: 0.8; stroke-linejoin: miter; stroke-linecap: square"/>
   </g>
   <g id="patch_38">
    <path d="M 135 890.829474 
L 515.454545 890.829474 
" style="fill: none; stroke: #000000; stroke-width: 0.8; stroke-linejoin: miter; stroke-linecap: square"/>
   </g>
   <g id="text_59">
    <!-- e -->
    <g transform="translate(89.376307 872.71352) scale(0.28 -0.28)">
     <defs>
      <path id="DejaVuSans-Bold-65" d="M 4031 1759 
L 4031 1441 
L 1416 1441 
Q 1456 1047 1700 850 
Q 1944 653 2381 653 
Q 2734 653 3104 758 
Q 3475 863 3866 1075 
L 3866 213 
Q 3469 63 3072 -14 
Q 2675 -91 2278 -91 
Q 1328 -91 801 392 
Q 275 875 275 1747 
Q 275 2603 792 3093 
Q 1309 3584 2216 3584 
Q 3041 3584 3536 3087 
Q 4031 2591 4031 1759 
z
M 2881 2131 
Q 2881 2450 2695 2645 
Q 2509 2841 2209 2841 
Q 1884 2841 1681 2658 
Q 1478 2475 1428 2131 
L 2881 2131 
z
" transform="scale(0.015625)"/>
     </defs>
     <use xlink:href="#DejaVuSans-Bold-65"/>
    </g>
   </g>
   <g id="text_60">
    <!-- $Q_{NN}$ -->
    <g transform="translate(302.787273 884.829474) scale(0.24 -0.24)">
     <use xlink:href="#DejaVuSans-Oblique-51" transform="translate(0 0.78125)"/>
     <use xlink:href="#DejaVuSans-Oblique-4e" transform="translate(78.710938 -15.625) scale(0.7)"/>
     <use xlink:href="#DejaVuSans-Oblique-4e" transform="translate(131.074219 -15.625) scale(0.7)"/>
    </g>
   </g>
  </g>
  <g id="axes_6">
   <g id="patch_39">
    <path d="M 591.545455 1153.44 
L 972 1153.44 
L 972 890.829474 
L 591.545455 890.829474 
z
" style="fill: #ffffff"/>
   </g>
   <g id="matplotlib.axis_11">
    <g id="xtick_19">
     <g id="line2d_59">
      <g>
       <use xlink:href="#m2deffcbf5e" x="608.699605" y="1153.44" style="stroke: #000000; stroke-width: 0.8"/>
      </g>
     </g>
     <g id="text_61">
      <!-- 0 -->
      <g transform="translate(601.700855 1177.156562) scale(0.22 -0.22)">
       <use xlink:href="#DejaVuSans-30"/>
      </g>
     </g>
    </g>
    <g id="xtick_20">
     <g id="line2d_60">
      <g>
       <use xlink:href="#m2deffcbf5e" x="747.937837" y="1153.44" style="stroke: #000000; stroke-width: 0.8"/>
      </g>
     </g>
     <g id="text_62">
      <!-- 1000 -->
      <g transform="translate(719.942837 1177.156562) scale(0.22 -0.22)">
       <use xlink:href="#DejaVuSans-31"/>
       <use xlink:href="#DejaVuSans-30" x="63.623047"/>
       <use xlink:href="#DejaVuSans-30" x="127.246094"/>
       <use xlink:href="#DejaVuSans-30" x="190.869141"/>
      </g>
     </g>
    </g>
    <g id="xtick_21">
     <g id="line2d_61">
      <g>
       <use xlink:href="#m2deffcbf5e" x="887.176069" y="1153.44" style="stroke: #000000; stroke-width: 0.8"/>
      </g>
     </g>
     <g id="text_63">
      <!-- 2000 -->
      <g transform="translate(859.181069 1177.156562) scale(0.22 -0.22)">
       <use xlink:href="#DejaVuSans-32"/>
       <use xlink:href="#DejaVuSans-30" x="63.623047"/>
       <use xlink:href="#DejaVuSans-30" x="127.246094"/>
       <use xlink:href="#DejaVuSans-30" x="190.869141"/>
      </g>
     </g>
    </g>
    <g id="text_64">
     <!-- k -->
     <g transform="translate(774.823977 1203.968125) scale(0.24 -0.24)">
      <use xlink:href="#DejaVuSans-6b"/>
     </g>
    </g>
   </g>
   <g id="matplotlib.axis_12">
    <g id="ytick_25">
     <g id="line2d_62">
      <g>
       <use xlink:href="#mf2b50ff4e7" x="591.545455" y="1137.364416" style="stroke: #000000; stroke-width: 0.8"/>
      </g>
     </g>
     <g id="text_65">
      <!-- 0.0 -->
      <g transform="translate(549.55858 1145.722697) scale(0.22 -0.22)">
       <use xlink:href="#DejaVuSans-30"/>
       <use xlink:href="#DejaVuSans-2e" x="63.623047"/>
       <use xlink:href="#DejaVuSans-30" x="95.410156"/>
      </g>
     </g>
    </g>
    <g id="ytick_26">
     <g id="line2d_63">
      <g>
       <use xlink:href="#mf2b50ff4e7" x="591.545455" y="1073.590645" style="stroke: #000000; stroke-width: 0.8"/>
      </g>
     </g>
     <g id="text_66">
      <!-- 0.2 -->
      <g transform="translate(549.55858 1081.948926) scale(0.22 -0.22)">
       <use xlink:href="#DejaVuSans-30"/>
       <use xlink:href="#DejaVuSans-2e" x="63.623047"/>
       <use xlink:href="#DejaVuSans-32" x="95.410156"/>
      </g>
     </g>
    </g>
    <g id="ytick_27">
     <g id="line2d_64">
      <g>
       <use xlink:href="#mf2b50ff4e7" x="591.545455" y="1009.816874" style="stroke: #000000; stroke-width: 0.8"/>
      </g>
     </g>
     <g id="text_67">
      <!-- 0.4 -->
      <g transform="translate(549.55858 1018.175155) scale(0.22 -0.22)">
       <use xlink:href="#DejaVuSans-30"/>
       <use xlink:href="#DejaVuSans-2e" x="63.623047"/>
       <use xlink:href="#DejaVuSans-34" x="95.410156"/>
      </g>
     </g>
    </g>
    <g id="ytick_28">
     <g id="line2d_65">
      <g>
       <use xlink:href="#mf2b50ff4e7" x="591.545455" y="946.043104" style="stroke: #000000; stroke-width: 0.8"/>
      </g>
     </g>
     <g id="text_68">
      <!-- 0.6 -->
      <g transform="translate(549.55858 954.401385) scale(0.22 -0.22)">
       <use xlink:href="#DejaVuSans-30"/>
       <use xlink:href="#DejaVuSans-2e" x="63.623047"/>
       <use xlink:href="#DejaVuSans-36" x="95.410156"/>
      </g>
     </g>
    </g>
   </g>
   <g id="line2d_66">
    <path d="M 608.838843 1097.858592 
L 609.117319 1085.844462 
L 609.535034 1079.816123 
L 609.813511 1077.544852 
L 610.231225 1073.966682 
L 610.509702 1072.867107 
L 610.64894 1072.682513 
L 610.927416 1071.949668 
L 611.066655 1071.655463 
L 611.345131 1071.59878 
L 611.484369 1071.494531 
L 611.762846 1071.022966 
L 612.180561 1070.831655 
L 612.737513 1070.00866 
L 613.572943 1068.751333 
L 613.851419 1068.376642 
L 614.129896 1067.87266 
L 614.826087 1066.817565 
L 615.243802 1065.974626 
L 615.522278 1065.600904 
L 616.775422 1063.621192 
L 617.193137 1062.977588 
L 620.11714 1058.408516 
L 620.813331 1057.412116 
L 621.370284 1056.860457 
L 622.066475 1055.884494 
L 623.319619 1054.281674 
L 623.737334 1053.748982 
L 625.408193 1052.125139 
L 625.825907 1051.703789 
L 626.800575 1050.768997 
L 627.496766 1050.243731 
L 628.74991 1049.191762 
L 631.256198 1047.361835 
L 639.471254 1042.605947 
L 641.142113 1041.779313 
L 642.395257 1041.337071 
L 643.926877 1040.837412 
L 649.078692 1039.879662 
L 650.610313 1039.764542 
L 651.445742 1039.60535 
L 652.281171 1039.581769 
L 656.458318 1039.056451 
L 659.382321 1038.990979 
L 661.331656 1038.88527 
L 663.141754 1038.698639 
L 665.508803 1038.573629 
L 668.850521 1038.353616 
L 670.799856 1038.374556 
L 674.698527 1038.678313 
L 676.090909 1038.893166 
L 684.584441 1040.296254 
L 686.2553 1040.728168 
L 687.647682 1040.981212 
L 691.685591 1041.911814 
L 693.077973 1042.409768 
L 694.331117 1042.862783 
L 695.027309 1043.122688 
L 696.976644 1043.798084 
L 698.508264 1044.225608 
L 700.875314 1044.850914 
L 703.103126 1045.460432 
L 705.609414 1046.075622 
L 709.508085 1047.044355 
L 710.761229 1047.292792 
L 713.406755 1047.893808 
L 714.381423 1048.115703 
L 719.115523 1048.958374 
L 722.874955 1049.542927 
L 724.545814 1049.80889 
L 729.001437 1050.389554 
L 736.520302 1051.09658 
L 742.925261 1051.73526 
L 746.963169 1052.136719 
L 755.456701 1053.400076 
L 769.241286 1056.016621 
L 772.722242 1056.856965 
L 781.215774 1058.943034 
L 796.253503 1063.578725 
L 799.873697 1064.933234 
L 806.974847 1067.500613 
L 811.291232 1069.3137 
L 813.10133 1070.098705 
L 816.164571 1071.409299 
L 818.392382 1072.407626 
L 819.506288 1072.918835 
L 822.569529 1074.38242 
L 826.328962 1076.43167 
L 832.455444 1080.226755 
L 833.430111 1080.856426 
L 836.911067 1082.978609 
L 841.784405 1085.372902 
L 845.961552 1087.74251 
L 850.974129 1090.855399 
L 855.708229 1093.662745 
L 864.480237 1098.527936 
L 871.581387 1102.809847 
L 877.290155 1106.61768 
L 878.682537 1107.531263 
L 881.885016 1109.727579 
L 885.644448 1111.914901 
L 890.100072 1114.112101 
L 902.770751 1120.569183 
L 905.137801 1121.794787 
L 910.568092 1124.470708 
L 931.314589 1133.808256 
L 934.517068 1134.961539 
L 936.605641 1135.412803 
L 940.365074 1135.909458 
L 943.985268 1136.328562 
L 946.630794 1136.581046 
L 949.833273 1136.842583 
L 950.947179 1137.022528 
L 951.364894 1137.122281 
L 954.706612 1137.364416 
L 954.706612 1137.364416 
" clip-path="url(#pcb0c436775)" style="fill: none; stroke: #1f77b4; stroke-width: 1.5; stroke-linecap: square"/>
   </g>
   <g id="line2d_67">
    <path d="M 608.838843 903.920657 
L 608.978081 902.766316 
L 610.927416 933.454638 
L 611.205893 935.93811 
L 612.041322 945.020353 
L 612.876752 951.141081 
L 613.851419 957.3123 
L 616.079231 969.784214 
L 616.496946 971.292832 
L 618.028566 977.410812 
L 618.863996 979.831388 
L 620.952569 985.126163 
L 623.041143 989.769385 
L 623.737334 990.942669 
L 624.572763 992.567179 
L 630.003054 1002.831517 
L 630.560007 1003.695015 
L 634.319439 1009.154091 
L 635.572584 1010.666346 
L 640.167445 1015.801641 
L 644.066116 1019.277521 
L 649.496407 1023.3661 
L 658.68613 1028.927219 
L 661.192418 1030.485703 
L 663.698706 1031.862616 
L 665.369565 1032.787003 
L 666.622709 1033.472374 
L 667.597377 1034.047655 
L 669.964427 1035.369441 
L 675.394718 1038.711211 
L 676.926338 1039.745381 
L 678.597197 1040.826087 
L 686.812253 1046.162757 
L 688.343874 1047.125068 
L 690.293209 1048.359571 
L 692.381782 1049.773015 
L 695.584262 1051.851743 
L 696.419691 1052.397204 
L 698.786741 1053.998853 
L 700.596838 1055.173672 
L 701.710744 1055.844293 
L 710.343514 1060.84848 
L 711.45742 1061.530141 
L 713.685232 1062.879696 
L 715.773805 1064.080755 
L 725.520481 1069.099211 
L 726.773626 1069.684433 
L 728.862199 1070.674612 
L 740.140496 1075.840651 
L 743.482213 1077.327934 
L 747.520122 1079.167752 
L 750.444125 1080.509645 
L 757.96299 1084.043694 
L 760.747754 1085.443754 
L 765.481854 1087.798012 
L 770.076716 1089.951494 
L 774.810816 1092.257606 
L 782.051204 1095.71323 
L 800.291412 1103.58659 
L 811.151994 1107.505802 
L 817.139238 1109.500297 
L 841.366691 1117.644303 
L 848.050126 1119.616135 
L 857.93604 1122.176765 
L 875.480057 1126.086816 
L 880.214157 1127.298586 
L 886.201401 1128.787751 
L 892.60636 1130.029928 
L 900.542939 1131.431502 
L 906.80866 1132.432 
L 911.264283 1133.06938 
L 921.289436 1134.315584 
L 928.8083 1135.136078 
L 933.960115 1135.540962 
L 935.90945 1135.780869 
L 941.061265 1136.68439 
L 944.263744 1137.129506 
L 946.909271 1137.314105 
L 954.706612 1137.364416 
L 954.706612 1137.364416 
" clip-path="url(#pcb0c436775)" style="fill: none; stroke: #ff7f0e; stroke-width: 1.5; stroke-linecap: square"/>
   </g>
   <g id="line2d_68">
    <path d="M 608.838843 1057.839653 
L 609.256558 991.911171 
L 609.674272 961.439029 
L 610.091987 951.520571 
L 610.509702 946.702864 
L 610.788178 945.547917 
L 611.066655 946.377472 
L 611.205893 947.004601 
L 611.345131 947.032406 
L 611.902084 949.110402 
L 612.598275 953.519698 
L 613.294466 956.421901 
L 615.522278 967.401632 
L 616.079231 969.312293 
L 618.724757 978.43608 
L 620.256378 982.18559 
L 621.787999 985.412466 
L 622.48419 986.227031 
L 623.458857 987.83976 
L 623.737334 988.062626 
L 625.268954 990.796128 
L 629.446101 999.964969 
L 630.560007 1002.454023 
L 632.787819 1006.630428 
L 633.48401 1007.845292 
L 634.458678 1009.34664 
L 639.332016 1015.757026 
L 640.028207 1016.449855 
L 641.559828 1018.077418 
L 643.230686 1019.772966 
L 643.926877 1020.415261 
L 646.711642 1023.148623 
L 648.800216 1024.767672 
L 650.471074 1025.887821 
L 652.42041 1027.251336 
L 652.838124 1027.488927 
L 654.230507 1028.354554 
L 654.926698 1028.631059 
L 657.432986 1029.695621 
L 658.268415 1030.118329 
L 662.445562 1031.658404 
L 663.280992 1032.003799 
L 665.508803 1032.979919 
L 666.901186 1033.604512 
L 668.15433 1034.234595 
L 668.850521 1034.523753 
L 669.825189 1034.900924 
L 670.799856 1035.156119 
L 671.913762 1035.417927 
L 673.166906 1035.849703 
L 676.647862 1036.748239 
L 677.901006 1037.300912 
L 679.014912 1037.845276 
L 682.635106 1039.468955 
L 684.027488 1040.375243 
L 684.723679 1040.814771 
L 686.951491 1042.125462 
L 688.483112 1042.835437 
L 689.318541 1043.215282 
L 690.432447 1043.898976 
L 691.546353 1044.656992 
L 694.470356 1046.641057 
L 698.786741 1049.012544 
L 701.432267 1050.136428 
L 704.913223 1051.307537 
L 712.432088 1053.29423 
L 716.330758 1054.127102 
L 720.09019 1054.939277 
L 721.064858 1055.072917 
L 725.381243 1055.598101 
L 727.609055 1055.87153 
L 736.65954 1058.284953 
L 739.02659 1058.802219 
L 740.975925 1059.198298 
L 742.925261 1059.523018 
L 746.823931 1060.355654 
L 750.02641 1061.293374 
L 759.633848 1063.949724 
L 765.760331 1065.601392 
L 771.190622 1067.654415 
L 775.646245 1069.653591 
L 777.038627 1070.22242 
L 778.848724 1070.980962 
L 782.190442 1072.310247 
L 784.557492 1073.070322 
L 791.380165 1075.196226 
L 797.228171 1077.31249 
L 798.481315 1077.768478 
L 800.012936 1078.415411 
L 802.936939 1079.680569 
L 811.708947 1083.206539 
L 814.493712 1084.3357 
L 820.620194 1086.939779 
L 823.961912 1088.380294 
L 825.63277 1089.017979 
L 833.56935 1091.970192 
L 839.138879 1094.153574 
L 848.328602 1097.595441 
L 856.682896 1102.040787 
L 862.113187 1105.248552 
L 869.77129 1109.398137 
L 877.429393 1112.666196 
L 879.935681 1113.648804 
L 885.783687 1115.868648 
L 889.125404 1117.120977 
L 894.694934 1119.127797 
L 897.897413 1120.50984 
L 907.365613 1124.43854 
L 912.238951 1125.946076 
L 929.086777 1131.182049 
L 934.37783 1132.611921 
L 936.466403 1133.27358 
L 940.365074 1134.605261 
L 943.0106 1135.481875 
L 944.820697 1136.11348 
L 945.795365 1136.359039 
L 948.997844 1136.740126 
L 952.200323 1136.984356 
L 953.871182 1137.366279 
L 954.706612 1137.364416 
L 954.706612 1137.364416 
" clip-path="url(#pcb0c436775)" style="fill: none; stroke: #2ca02c; stroke-width: 1.5; stroke-linecap: square"/>
   </g>
   <g id="line2d_69">
    <path d="M 608.838843 1056.813526 
L 609.117319 1019.017965 
L 609.395796 1000.351114 
L 609.813511 985.578252 
L 610.231225 977.953878 
L 610.64894 972.186235 
L 611.345131 967.379417 
L 611.623608 966.387148 
L 611.762846 966.497975 
L 611.902084 967.039734 
L 612.041322 966.622457 
L 612.319799 966.466339 
L 612.598275 966.808954 
L 613.01599 966.937966 
L 613.572943 968.524413 
L 613.851419 968.797292 
L 614.129896 969.009305 
L 614.269134 969.075298 
L 615.104563 972.076749 
L 615.38304 972.903377 
L 616.496946 976.599831 
L 616.91466 978.3874 
L 617.75009 982.006277 
L 619.977902 990.68791 
L 624.294287 1004.075659 
L 625.825907 1008.045438 
L 626.38286 1009.290975 
L 627.079051 1010.870026 
L 628.610672 1014.000698 
L 631.395437 1020.054448 
L 631.95239 1020.995221 
L 640.167445 1035.347991 
L 641.002875 1036.477623 
L 641.977542 1037.868228 
L 643.648401 1039.875922 
L 646.433166 1043.884919 
L 647.407833 1045.212384 
L 649.635645 1047.709996 
L 650.610313 1048.614884 
L 651.167266 1049.19677 
L 654.091268 1052.288668 
L 654.926698 1053.16499 
L 657.15451 1055.329842 
L 661.888609 1059.402873 
L 669.825189 1066.380105 
L 671.913762 1068.20595 
L 672.88843 1069.102933 
L 678.179483 1073.649252 
L 680.407294 1075.480195 
L 681.799677 1076.55784 
L 687.786921 1080.640846 
L 689.179303 1081.571096 
L 690.850162 1082.62362 
L 696.419691 1086.181406 
L 698.09055 1087.307549 
L 700.039885 1088.452934 
L 701.293029 1089.093829 
L 702.685411 1089.812823 
L 705.052461 1090.99756 
L 706.72332 1091.935618 
L 709.647323 1093.462741 
L 710.900467 1094.078858 
L 712.014373 1094.692095 
L 713.82447 1095.627799 
L 719.254761 1098.369293 
L 720.647143 1099.06544 
L 734.014014 1104.532347 
L 740.836687 1107.003585 
L 743.76069 1108.153345 
L 749.051743 1110.138833 
L 752.254222 1111.008307 
L 753.368128 1111.312924 
L 764.22871 1115.282837 
L 766.734998 1116.211787 
L 769.798239 1117.316 
L 775.089292 1119.108019 
L 776.620913 1119.681098 
L 779.127201 1120.61953 
L 780.937298 1121.269673 
L 792.215595 1125.653107 
L 794.443406 1126.465389 
L 799.038268 1128.234552 
L 812.405138 1132.683836 
L 818.253144 1134.362439 
L 819.924003 1134.857615 
L 822.848006 1135.653 
L 825.63277 1136.256934 
L 833.56935 1137.88658 
L 835.379447 1138.251762 
L 838.442688 1138.922151 
L 841.923644 1139.540189 
L 845.126123 1139.990106 
L 847.493173 1140.222133 
L 857.100611 1141.099205 
L 859.606899 1141.202406 
L 861.834711 1141.323655 
L 869.214337 1141.471576 
L 880.631872 1141.312408 
L 883.695113 1141.176325 
L 893.998742 1140.655727 
L 902.213798 1140.216395 
L 905.555516 1140.002176 
L 910.568092 1139.714108 
L 928.529824 1138.52407 
L 930.618397 1138.379172 
L 944.263744 1137.57865 
L 954.288897 1137.365088 
L 954.706612 1137.364622 
L 954.706612 1137.364622 
" clip-path="url(#pcb0c436775)" style="fill: none; stroke: #d62728; stroke-width: 1.5; stroke-linecap: square"/>
   </g>
   <g id="patch_40">
    <path d="M 591.545455 1153.44 
L 591.545455 890.829474 
" style="fill: none; stroke: #000000; stroke-width: 0.8; stroke-linejoin: miter; stroke-linecap: square"/>
   </g>
   <g id="patch_41">
    <path d="M 972 1153.44 
L 972 890.829474 
" style="fill: none; stroke: #000000; stroke-width: 0.8; stroke-linejoin: miter; stroke-linecap: square"/>
   </g>
   <g id="patch_42">
    <path d="M 591.545455 1153.44 
L 972 1153.44 
" style="fill: none; stroke: #000000; stroke-width: 0.8; stroke-linejoin: miter; stroke-linecap: square"/>
   </g>
   <g id="patch_43">
    <path d="M 591.545455 890.829474 
L 972 890.829474 
" style="fill: none; stroke: #000000; stroke-width: 0.8; stroke-linejoin: miter; stroke-linecap: square"/>
   </g>
   <g id="text_69">
    <!-- f -->
    <g transform="translate(552.733636 872.71352) scale(0.28 -0.28)">
     <defs>
      <path id="DejaVuSans-Bold-66" d="M 2841 4863 
L 2841 4128 
L 2222 4128 
Q 1984 4128 1890 4042 
Q 1797 3956 1797 3744 
L 1797 3500 
L 2753 3500 
L 2753 2700 
L 1797 2700 
L 1797 0 
L 678 0 
L 678 2700 
L 122 2700 
L 122 3500 
L 678 3500 
L 678 3744 
Q 678 4316 997 4589 
Q 1316 4863 1984 4863 
L 2841 4863 
z
" transform="scale(0.015625)"/>
     </defs>
     <use xlink:href="#DejaVuSans-Bold-66"/>
    </g>
   </g>
   <g id="text_70">
    <!-- LCMC -->
    <g transform="translate(747.973977 884.829474) scale(0.24 -0.24)">
     <defs>
      <path id="DejaVuSans-4c" d="M 628 4666 
L 1259 4666 
L 1259 531 
L 3531 531 
L 3531 0 
L 628 0 
L 628 4666 
z
" transform="scale(0.015625)"/>
     </defs>
     <use xlink:href="#DejaVuSans-4c"/>
     <use xlink:href="#DejaVuSans-43" x="55.712891"/>
     <use xlink:href="#DejaVuSans-4d" x="125.537109"/>
     <use xlink:href="#DejaVuSans-43" x="211.816406"/>
    </g>
   </g>
  </g>
 </g>
 <defs>
  <clipPath id="p31a7dcd88b">
   <rect x="135" y="155.52" width="380.454545" height="262.610526"/>
  </clipPath>
  <clipPath id="pd6fe33f988">
   <rect x="591.545455" y="155.52" width="380.454545" height="262.610526"/>
  </clipPath>
  <clipPath id="pd7db652288">
   <rect x="135" y="523.174737" width="380.454545" height="262.610526"/>
  </clipPath>
  <clipPath id="pb64dc39033">
   <rect x="591.545455" y="523.174737" width="380.454545" height="262.610526"/>
  </clipPath>
  <clipPath id="pc9c41b9666">
   <rect x="135" y="890.829474" width="380.454545" height="262.610526"/>
  </clipPath>
  <clipPath id="pcb0c436775">
   <rect x="591.545455" y="890.829474" width="380.454545" height="262.610526"/>
  </clipPath>
 </defs>
</svg>
