<?xml version="1.0" encoding="utf-8" standalone="no"?>
<!DOCTYPE svg PUBLIC "-//W3C//DTD SVG 1.1//EN"
  "http://www.w3.org/Graphics/SVG/1.1/DTD/svg11.dtd">
<svg xmlns:xlink="http://www.w3.org/1999/xlink" width="1080pt" height="1296pt" viewBox="0 0 1080 1296" xmlns="http://www.w3.org/2000/svg" version="1.1">
 <metadata>
  <rdf:RDF xmlns:dc="http://purl.org/dc/elements/1.1/" xmlns:cc="http://creativecommons.org/ns#" xmlns:rdf="http://www.w3.org/1999/02/22-rdf-syntax-ns#">
   <cc:Work>
    <dc:type rdf:resource="http://purl.org/dc/dcmitype/StillImage"/>
    <dc:date>2024-07-23T22:04:11.951967</dc:date>
    <dc:format>image/svg+xml</dc:format>
    <dc:creator>
     <cc:Agent>
      <dc:title>Matplotlib v3.8.4, https://matplotlib.org/</dc:title>
     </cc:Agent>
    </dc:creator>
   </cc:Work>
  </rdf:RDF>
 </metadata>
 <defs>
  <style type="text/css">*{stroke-linejoin: round; stroke-linecap: butt}</style>
 </defs>
 <g id="figure_1">
  <g id="patch_1">
   <path d="M 0 1296 
L 1080 1296 
L 1080 0 
L 0 0 
z
" style="fill: #ffffff"/>
  </g>
  <g id="axes_1">
   <g id="patch_2">
    <path d="M 135 418.130526 
L 515.454545 418.130526 
L 515.454545 155.52 
L 135 155.52 
z
" style="fill: #ffffff"/>
   </g>
   <g id="matplotlib.axis_1">
    <g id="xtick_1">
     <g id="line2d_1">
      <defs>
       <path id="mc963864732" d="M 0 0 
L 0 3.5 
" style="stroke: #000000; stroke-width: 0.8"/>
      </defs>
      <g>
       <use xlink:href="#mc963864732" x="137.882231" y="418.130526" style="stroke: #000000; stroke-width: 0.8"/>
      </g>
     </g>
     <g id="text_1">
      <!-- 0 -->
      <g transform="translate(131.519731 440.327401) scale(0.2 -0.2)">
       <defs>
        <path id="DejaVuSans-30" d="M 2034 4250 
Q 1547 4250 1301 3770 
Q 1056 3291 1056 2328 
Q 1056 1369 1301 889 
Q 1547 409 2034 409 
Q 2525 409 2770 889 
Q 3016 1369 3016 2328 
Q 3016 3291 2770 3770 
Q 2525 4250 2034 4250 
z
M 2034 4750 
Q 2819 4750 3233 4129 
Q 3647 3509 3647 2328 
Q 3647 1150 3233 529 
Q 2819 -91 2034 -91 
Q 1250 -91 836 529 
Q 422 1150 422 2328 
Q 422 3509 836 4129 
Q 1250 4750 2034 4750 
z
" transform="scale(0.015625)"/>
       </defs>
       <use xlink:href="#DejaVuSans-30"/>
      </g>
     </g>
    </g>
    <g id="xtick_2">
     <g id="line2d_2">
      <g>
       <use xlink:href="#mc963864732" x="209.938017" y="418.130526" style="stroke: #000000; stroke-width: 0.8"/>
      </g>
     </g>
     <g id="text_2">
      <!-- 10 -->
      <g transform="translate(197.213017 440.327401) scale(0.2 -0.2)">
       <defs>
        <path id="DejaVuSans-31" d="M 794 531 
L 1825 531 
L 1825 4091 
L 703 3866 
L 703 4441 
L 1819 4666 
L 2450 4666 
L 2450 531 
L 3481 531 
L 3481 0 
L 794 0 
L 794 531 
z
" transform="scale(0.015625)"/>
       </defs>
       <use xlink:href="#DejaVuSans-31"/>
       <use xlink:href="#DejaVuSans-30" x="63.623047"/>
      </g>
     </g>
    </g>
    <g id="xtick_3">
     <g id="line2d_3">
      <g>
       <use xlink:href="#mc963864732" x="281.993802" y="418.130526" style="stroke: #000000; stroke-width: 0.8"/>
      </g>
     </g>
     <g id="text_3">
      <!-- 20 -->
      <g transform="translate(269.268802 440.327401) scale(0.2 -0.2)">
       <defs>
        <path id="DejaVuSans-32" d="M 1228 531 
L 3431 531 
L 3431 0 
L 469 0 
L 469 531 
Q 828 903 1448 1529 
Q 2069 2156 2228 2338 
Q 2531 2678 2651 2914 
Q 2772 3150 2772 3378 
Q 2772 3750 2511 3984 
Q 2250 4219 1831 4219 
Q 1534 4219 1204 4116 
Q 875 4013 500 3803 
L 500 4441 
Q 881 4594 1212 4672 
Q 1544 4750 1819 4750 
Q 2544 4750 2975 4387 
Q 3406 4025 3406 3419 
Q 3406 3131 3298 2873 
Q 3191 2616 2906 2266 
Q 2828 2175 2409 1742 
Q 1991 1309 1228 531 
z
" transform="scale(0.015625)"/>
       </defs>
       <use xlink:href="#DejaVuSans-32"/>
       <use xlink:href="#DejaVuSans-30" x="63.623047"/>
      </g>
     </g>
    </g>
    <g id="xtick_4">
     <g id="line2d_4">
      <g>
       <use xlink:href="#mc963864732" x="354.049587" y="418.130526" style="stroke: #000000; stroke-width: 0.8"/>
      </g>
     </g>
     <g id="text_4">
      <!-- 30 -->
      <g transform="translate(341.324587 440.327401) scale(0.2 -0.2)">
       <defs>
        <path id="DejaVuSans-33" d="M 2597 2516 
Q 3050 2419 3304 2112 
Q 3559 1806 3559 1356 
Q 3559 666 3084 287 
Q 2609 -91 1734 -91 
Q 1441 -91 1130 -33 
Q 819 25 488 141 
L 488 750 
Q 750 597 1062 519 
Q 1375 441 1716 441 
Q 2309 441 2620 675 
Q 2931 909 2931 1356 
Q 2931 1769 2642 2001 
Q 2353 2234 1838 2234 
L 1294 2234 
L 1294 2753 
L 1863 2753 
Q 2328 2753 2575 2939 
Q 2822 3125 2822 3475 
Q 2822 3834 2567 4026 
Q 2313 4219 1838 4219 
Q 1578 4219 1281 4162 
Q 984 4106 628 3988 
L 628 4550 
Q 988 4650 1302 4700 
Q 1616 4750 1894 4750 
Q 2613 4750 3031 4423 
Q 3450 4097 3450 3541 
Q 3450 3153 3228 2886 
Q 3006 2619 2597 2516 
z
" transform="scale(0.015625)"/>
       </defs>
       <use xlink:href="#DejaVuSans-33"/>
       <use xlink:href="#DejaVuSans-30" x="63.623047"/>
      </g>
     </g>
    </g>
    <g id="xtick_5">
     <g id="line2d_5">
      <g>
       <use xlink:href="#mc963864732" x="426.105372" y="418.130526" style="stroke: #000000; stroke-width: 0.8"/>
      </g>
     </g>
     <g id="text_5">
      <!-- 40 -->
      <g transform="translate(413.380372 440.327401) scale(0.2 -0.2)">
       <defs>
        <path id="DejaVuSans-34" d="M 2419 4116 
L 825 1625 
L 2419 1625 
L 2419 4116 
z
M 2253 4666 
L 3047 4666 
L 3047 1625 
L 3713 1625 
L 3713 1100 
L 3047 1100 
L 3047 0 
L 2419 0 
L 2419 1100 
L 313 1100 
L 313 1709 
L 2253 4666 
z
" transform="scale(0.015625)"/>
       </defs>
       <use xlink:href="#DejaVuSans-34"/>
       <use xlink:href="#DejaVuSans-30" x="63.623047"/>
      </g>
     </g>
    </g>
    <g id="xtick_6">
     <g id="line2d_6">
      <g>
       <use xlink:href="#mc963864732" x="498.161157" y="418.130526" style="stroke: #000000; stroke-width: 0.8"/>
      </g>
     </g>
     <g id="text_6">
      <!-- 50 -->
      <g transform="translate(485.436157 440.327401) scale(0.2 -0.2)">
       <defs>
        <path id="DejaVuSans-35" d="M 691 4666 
L 3169 4666 
L 3169 4134 
L 1269 4134 
L 1269 2991 
Q 1406 3038 1543 3061 
Q 1681 3084 1819 3084 
Q 2600 3084 3056 2656 
Q 3513 2228 3513 1497 
Q 3513 744 3044 326 
Q 2575 -91 1722 -91 
Q 1428 -91 1123 -41 
Q 819 9 494 109 
L 494 744 
Q 775 591 1075 516 
Q 1375 441 1709 441 
Q 2250 441 2565 725 
Q 2881 1009 2881 1497 
Q 2881 1984 2565 2268 
Q 2250 2553 1709 2553 
Q 1456 2553 1204 2497 
Q 953 2441 691 2322 
L 691 4666 
z
" transform="scale(0.015625)"/>
       </defs>
       <use xlink:href="#DejaVuSans-35"/>
       <use xlink:href="#DejaVuSans-30" x="63.623047"/>
      </g>
     </g>
    </g>
    <g id="text_7">
     <!-- k -->
     <g transform="translate(318.278523 466.723026) scale(0.24 -0.24)">
      <defs>
       <path id="DejaVuSans-6b" d="M 581 4863 
L 1159 4863 
L 1159 1991 
L 2875 3500 
L 3609 3500 
L 1753 1863 
L 3688 0 
L 2938 0 
L 1159 1709 
L 1159 0 
L 581 0 
L 581 4863 
z
" transform="scale(0.015625)"/>
      </defs>
      <use xlink:href="#DejaVuSans-6b"/>
     </g>
    </g>
   </g>
   <g id="matplotlib.axis_2">
    <g id="ytick_1">
     <g id="line2d_7">
      <defs>
       <path id="ma649cffb5f" d="M 0 0 
L -3.5 0 
" style="stroke: #000000; stroke-width: 0.8"/>
      </defs>
      <g>
       <use xlink:href="#ma649cffb5f" x="135" y="418.130526" style="stroke: #000000; stroke-width: 0.8"/>
      </g>
     </g>
     <g id="text_8">
      <!-- 0.0 -->
      <g transform="translate(96.19375 425.728964) scale(0.2 -0.2)">
       <defs>
        <path id="DejaVuSans-2e" d="M 684 794 
L 1344 794 
L 1344 0 
L 684 0 
L 684 794 
z
" transform="scale(0.015625)"/>
       </defs>
       <use xlink:href="#DejaVuSans-30"/>
       <use xlink:href="#DejaVuSans-2e" x="63.623047"/>
       <use xlink:href="#DejaVuSans-30" x="95.410156"/>
      </g>
     </g>
    </g>
    <g id="ytick_2">
     <g id="line2d_8">
      <g>
       <use xlink:href="#ma649cffb5f" x="135" y="352.477895" style="stroke: #000000; stroke-width: 0.8"/>
      </g>
     </g>
     <g id="text_9">
      <!-- 0.2 -->
      <g transform="translate(96.19375 360.076332) scale(0.2 -0.2)">
       <use xlink:href="#DejaVuSans-30"/>
       <use xlink:href="#DejaVuSans-2e" x="63.623047"/>
       <use xlink:href="#DejaVuSans-32" x="95.410156"/>
      </g>
     </g>
    </g>
    <g id="ytick_3">
     <g id="line2d_9">
      <g>
       <use xlink:href="#ma649cffb5f" x="135" y="286.825263" style="stroke: #000000; stroke-width: 0.8"/>
      </g>
     </g>
     <g id="text_10">
      <!-- 0.4 -->
      <g transform="translate(96.19375 294.423701) scale(0.2 -0.2)">
       <use xlink:href="#DejaVuSans-30"/>
       <use xlink:href="#DejaVuSans-2e" x="63.623047"/>
       <use xlink:href="#DejaVuSans-34" x="95.410156"/>
      </g>
     </g>
    </g>
    <g id="ytick_4">
     <g id="line2d_10">
      <g>
       <use xlink:href="#ma649cffb5f" x="135" y="221.172632" style="stroke: #000000; stroke-width: 0.8"/>
      </g>
     </g>
     <g id="text_11">
      <!-- 0.6 -->
      <g transform="translate(96.19375 228.771069) scale(0.2 -0.2)">
       <defs>
        <path id="DejaVuSans-36" d="M 2113 2584 
Q 1688 2584 1439 2293 
Q 1191 2003 1191 1497 
Q 1191 994 1439 701 
Q 1688 409 2113 409 
Q 2538 409 2786 701 
Q 3034 994 3034 1497 
Q 3034 2003 2786 2293 
Q 2538 2584 2113 2584 
z
M 3366 4563 
L 3366 3988 
Q 3128 4100 2886 4159 
Q 2644 4219 2406 4219 
Q 1781 4219 1451 3797 
Q 1122 3375 1075 2522 
Q 1259 2794 1537 2939 
Q 1816 3084 2150 3084 
Q 2853 3084 3261 2657 
Q 3669 2231 3669 1497 
Q 3669 778 3244 343 
Q 2819 -91 2113 -91 
Q 1303 -91 875 529 
Q 447 1150 447 2328 
Q 447 3434 972 4092 
Q 1497 4750 2381 4750 
Q 2619 4750 2861 4703 
Q 3103 4656 3366 4563 
z
" transform="scale(0.015625)"/>
       </defs>
       <use xlink:href="#DejaVuSans-30"/>
       <use xlink:href="#DejaVuSans-2e" x="63.623047"/>
       <use xlink:href="#DejaVuSans-36" x="95.410156"/>
      </g>
     </g>
    </g>
    <g id="ytick_5">
     <g id="line2d_11">
      <g>
       <use xlink:href="#ma649cffb5f" x="135" y="155.52" style="stroke: #000000; stroke-width: 0.8"/>
      </g>
     </g>
     <g id="text_12">
      <!-- 0.8 -->
      <g transform="translate(96.19375 163.118438) scale(0.2 -0.2)">
       <defs>
        <path id="DejaVuSans-38" d="M 2034 2216 
Q 1584 2216 1326 1975 
Q 1069 1734 1069 1313 
Q 1069 891 1326 650 
Q 1584 409 2034 409 
Q 2484 409 2743 651 
Q 3003 894 3003 1313 
Q 3003 1734 2745 1975 
Q 2488 2216 2034 2216 
z
M 1403 2484 
Q 997 2584 770 2862 
Q 544 3141 544 3541 
Q 544 4100 942 4425 
Q 1341 4750 2034 4750 
Q 2731 4750 3128 4425 
Q 3525 4100 3525 3541 
Q 3525 3141 3298 2862 
Q 3072 2584 2669 2484 
Q 3125 2378 3379 2068 
Q 3634 1759 3634 1313 
Q 3634 634 3220 271 
Q 2806 -91 2034 -91 
Q 1263 -91 848 271 
Q 434 634 434 1313 
Q 434 1759 690 2068 
Q 947 2378 1403 2484 
z
M 1172 3481 
Q 1172 3119 1398 2916 
Q 1625 2713 2034 2713 
Q 2441 2713 2670 2916 
Q 2900 3119 2900 3481 
Q 2900 3844 2670 4047 
Q 2441 4250 2034 4250 
Q 1625 4250 1398 4047 
Q 1172 3844 1172 3481 
z
" transform="scale(0.015625)"/>
       </defs>
       <use xlink:href="#DejaVuSans-30"/>
       <use xlink:href="#DejaVuSans-2e" x="63.623047"/>
       <use xlink:href="#DejaVuSans-38" x="95.410156"/>
      </g>
     </g>
    </g>
    <g id="text_13">
     <!-- $P_{NN}$ -->
     <g transform="translate(87.2025 306.985263) rotate(-90) scale(0.24 -0.24)">
      <defs>
       <path id="DejaVuSans-Oblique-50" d="M 1081 4666 
L 2541 4666 
Q 3178 4666 3512 4369 
Q 3847 4072 3847 3500 
Q 3847 2731 3353 2303 
Q 2859 1875 1966 1875 
L 1172 1875 
L 806 0 
L 172 0 
L 1081 4666 
z
M 1613 4147 
L 1275 2394 
L 2069 2394 
Q 2606 2394 2893 2669 
Q 3181 2944 3181 3456 
Q 3181 3784 2986 3965 
Q 2791 4147 2438 4147 
L 1613 4147 
z
" transform="scale(0.015625)"/>
       <path id="DejaVuSans-Oblique-4e" d="M 1081 4666 
L 1931 4666 
L 3219 666 
L 4000 4666 
L 4616 4666 
L 3706 0 
L 2853 0 
L 1569 4025 
L 788 0 
L 172 0 
L 1081 4666 
z
" transform="scale(0.015625)"/>
      </defs>
      <use xlink:href="#DejaVuSans-Oblique-50" transform="translate(0 0.09375)"/>
      <use xlink:href="#DejaVuSans-Oblique-4e" transform="translate(60.302734 -16.3125) scale(0.7)"/>
      <use xlink:href="#DejaVuSans-Oblique-4e" transform="translate(112.666016 -16.3125) scale(0.7)"/>
     </g>
    </g>
   </g>
   <g id="line2d_12">
    <path d="M 152.293388 380.107473 
L 173.910124 373.11245 
L 209.938017 367.50424 
L 281.993802 360.653994 
L 498.161157 346.278384 
" clip-path="url(#p76eb7eedd8)" style="fill: none; stroke: #1f77b4; stroke-width: 1.5; stroke-linecap: square"/>
    <defs>
     <path id="m9fd9c7f145" d="M 0 3 
C 0.795609 3 1.55874 2.683901 2.12132 2.12132 
C 2.683901 1.55874 3 0.795609 3 0 
C 3 -0.795609 2.683901 -1.55874 2.12132 -2.12132 
C 1.55874 -2.683901 0.795609 -3 0 -3 
C -0.795609 -3 -1.55874 -2.683901 -2.12132 -2.12132 
C -2.683901 -1.55874 -3 -0.795609 -3 0 
C -3 0.795609 -2.683901 1.55874 -2.12132 2.12132 
C -1.55874 2.683901 -0.795609 3 0 3 
z
" style="stroke: #1f77b4"/>
    </defs>
    <g clip-path="url(#p76eb7eedd8)">
     <use xlink:href="#m9fd9c7f145" x="152.293388" y="380.107473" style="fill: #1f77b4; stroke: #1f77b4"/>
     <use xlink:href="#m9fd9c7f145" x="173.910124" y="373.11245" style="fill: #1f77b4; stroke: #1f77b4"/>
     <use xlink:href="#m9fd9c7f145" x="209.938017" y="367.50424" style="fill: #1f77b4; stroke: #1f77b4"/>
     <use xlink:href="#m9fd9c7f145" x="281.993802" y="360.653994" style="fill: #1f77b4; stroke: #1f77b4"/>
     <use xlink:href="#m9fd9c7f145" x="498.161157" y="346.278384" style="fill: #1f77b4; stroke: #1f77b4"/>
    </g>
   </g>
   <g id="line2d_13">
    <path d="M 152.293388 190.601792 
L 173.910124 197.916848 
L 209.938017 206.45108 
L 281.993802 221.27169 
L 498.161157 243.123897 
" clip-path="url(#p76eb7eedd8)" style="fill: none; stroke: #ff7f0e; stroke-width: 1.5; stroke-linecap: square"/>
    <defs>
     <path id="m7b7e58285b" d="M 0 3 
C 0.795609 3 1.55874 2.683901 2.12132 2.12132 
C 2.683901 1.55874 3 0.795609 3 0 
C 3 -0.795609 2.683901 -1.55874 2.12132 -2.12132 
C 1.55874 -2.683901 0.795609 -3 0 -3 
C -0.795609 -3 -1.55874 -2.683901 -2.12132 -2.12132 
C -2.683901 -1.55874 -3 -0.795609 -3 0 
C -3 0.795609 -2.683901 1.55874 -2.12132 2.12132 
C -1.55874 2.683901 -0.795609 3 0 3 
z
" style="stroke: #ff7f0e"/>
    </defs>
    <g clip-path="url(#p76eb7eedd8)">
     <use xlink:href="#m7b7e58285b" x="152.293388" y="190.601792" style="fill: #ff7f0e; stroke: #ff7f0e"/>
     <use xlink:href="#m7b7e58285b" x="173.910124" y="197.916848" style="fill: #ff7f0e; stroke: #ff7f0e"/>
     <use xlink:href="#m7b7e58285b" x="209.938017" y="206.45108" style="fill: #ff7f0e; stroke: #ff7f0e"/>
     <use xlink:href="#m7b7e58285b" x="281.993802" y="221.27169" style="fill: #ff7f0e; stroke: #ff7f0e"/>
     <use xlink:href="#m7b7e58285b" x="498.161157" y="243.123897" style="fill: #ff7f0e; stroke: #ff7f0e"/>
    </g>
   </g>
   <g id="line2d_14">
    <path d="M 152.293388 307.642695 
L 173.910124 263.813315 
L 209.938017 235.269355 
L 281.993802 230.674585 
L 498.161157 248.951558 
" clip-path="url(#p76eb7eedd8)" style="fill: none; stroke: #2ca02c; stroke-width: 1.5; stroke-linecap: square"/>
    <defs>
     <path id="m3ff40664e8" d="M 0 3 
C 0.795609 3 1.55874 2.683901 2.12132 2.12132 
C 2.683901 1.55874 3 0.795609 3 0 
C 3 -0.795609 2.683901 -1.55874 2.12132 -2.12132 
C 1.55874 -2.683901 0.795609 -3 0 -3 
C -0.795609 -3 -1.55874 -2.683901 -2.12132 -2.12132 
C -2.683901 -1.55874 -3 -0.795609 -3 0 
C -3 0.795609 -2.683901 1.55874 -2.12132 2.12132 
C -1.55874 2.683901 -0.795609 3 0 3 
z
" style="stroke: #2ca02c"/>
    </defs>
    <g clip-path="url(#p76eb7eedd8)">
     <use xlink:href="#m3ff40664e8" x="152.293388" y="307.642695" style="fill: #2ca02c; stroke: #2ca02c"/>
     <use xlink:href="#m3ff40664e8" x="173.910124" y="263.813315" style="fill: #2ca02c; stroke: #2ca02c"/>
     <use xlink:href="#m3ff40664e8" x="209.938017" y="235.269355" style="fill: #2ca02c; stroke: #2ca02c"/>
     <use xlink:href="#m3ff40664e8" x="281.993802" y="230.674585" style="fill: #2ca02c; stroke: #2ca02c"/>
     <use xlink:href="#m3ff40664e8" x="498.161157" y="248.951558" style="fill: #2ca02c; stroke: #2ca02c"/>
    </g>
   </g>
   <g id="line2d_15">
    <path d="M 152.293388 313.281384 
L 173.910124 282.070476 
L 209.938017 255.141925 
L 281.993802 239.437413 
L 498.161157 241.148832 
" clip-path="url(#p76eb7eedd8)" style="fill: none; stroke: #d62728; stroke-width: 1.5; stroke-linecap: square"/>
    <defs>
     <path id="m2ba09be2d2" d="M 0 3 
C 0.795609 3 1.55874 2.683901 2.12132 2.12132 
C 2.683901 1.55874 3 0.795609 3 0 
C 3 -0.795609 2.683901 -1.55874 2.12132 -2.12132 
C 1.55874 -2.683901 0.795609 -3 0 -3 
C -0.795609 -3 -1.55874 -2.683901 -2.12132 -2.12132 
C -2.683901 -1.55874 -3 -0.795609 -3 0 
C -3 0.795609 -2.683901 1.55874 -2.12132 2.12132 
C -1.55874 2.683901 -0.795609 3 0 3 
z
" style="stroke: #d62728"/>
    </defs>
    <g clip-path="url(#p76eb7eedd8)">
     <use xlink:href="#m2ba09be2d2" x="152.293388" y="313.281384" style="fill: #d62728; stroke: #d62728"/>
     <use xlink:href="#m2ba09be2d2" x="173.910124" y="282.070476" style="fill: #d62728; stroke: #d62728"/>
     <use xlink:href="#m2ba09be2d2" x="209.938017" y="255.141925" style="fill: #d62728; stroke: #d62728"/>
     <use xlink:href="#m2ba09be2d2" x="281.993802" y="239.437413" style="fill: #d62728; stroke: #d62728"/>
     <use xlink:href="#m2ba09be2d2" x="498.161157" y="241.148832" style="fill: #d62728; stroke: #d62728"/>
    </g>
   </g>
   <g id="patch_3">
    <path d="M 135 418.130526 
L 135 155.52 
" style="fill: none; stroke: #000000; stroke-width: 0.8; stroke-linejoin: miter; stroke-linecap: square"/>
   </g>
   <g id="patch_4">
    <path d="M 515.454545 418.130526 
L 515.454545 155.52 
" style="fill: none; stroke: #000000; stroke-width: 0.8; stroke-linejoin: miter; stroke-linecap: square"/>
   </g>
   <g id="patch_5">
    <path d="M 135 418.130526 
L 515.454545 418.130526 
" style="fill: none; stroke: #000000; stroke-width: 0.8; stroke-linejoin: miter; stroke-linecap: square"/>
   </g>
   <g id="patch_6">
    <path d="M 135 155.52 
L 515.454545 155.52 
" style="fill: none; stroke: #000000; stroke-width: 0.8; stroke-linejoin: miter; stroke-linecap: square"/>
   </g>
   <g id="text_14">
    <!-- a -->
    <g transform="translate(89.472557 137.404046) scale(0.28 -0.28)">
     <defs>
      <path id="DejaVuSans-Bold-61" d="M 2106 1575 
Q 1756 1575 1579 1456 
Q 1403 1338 1403 1106 
Q 1403 894 1545 773 
Q 1688 653 1941 653 
Q 2256 653 2472 879 
Q 2688 1106 2688 1447 
L 2688 1575 
L 2106 1575 
z
M 3816 1997 
L 3816 0 
L 2688 0 
L 2688 519 
Q 2463 200 2181 54 
Q 1900 -91 1497 -91 
Q 953 -91 614 226 
Q 275 544 275 1050 
Q 275 1666 698 1953 
Q 1122 2241 2028 2241 
L 2688 2241 
L 2688 2328 
Q 2688 2594 2478 2717 
Q 2269 2841 1825 2841 
Q 1466 2841 1156 2769 
Q 847 2697 581 2553 
L 581 3406 
Q 941 3494 1303 3539 
Q 1666 3584 2028 3584 
Q 2975 3584 3395 3211 
Q 3816 2838 3816 1997 
z
" transform="scale(0.015625)"/>
     </defs>
     <use xlink:href="#DejaVuSans-Bold-61"/>
    </g>
   </g>
   <g id="text_15">
    <!-- $P_{NN}$ -->
    <g transform="translate(303.387273 149.52) scale(0.26 -0.26)">
     <use xlink:href="#DejaVuSans-Oblique-50" transform="translate(0 0.09375)"/>
     <use xlink:href="#DejaVuSans-Oblique-4e" transform="translate(60.302734 -16.3125) scale(0.7)"/>
     <use xlink:href="#DejaVuSans-Oblique-4e" transform="translate(112.666016 -16.3125) scale(0.7)"/>
    </g>
   </g>
  </g>
  <g id="axes_2">
   <g id="patch_7">
    <path d="M 591.545455 418.130526 
L 972 418.130526 
L 972 155.52 
L 591.545455 155.52 
z
" style="fill: #ffffff"/>
   </g>
   <g id="patch_8">
    <path d="M 608.838843 418.130526 
L 628.792753 418.130526 
L 628.792753 195.335559 
L 608.838843 195.335559 
z
" clip-path="url(#p94804b8332)" style="fill: #1f77b4"/>
   </g>
   <g id="patch_9">
    <path d="M 741.864908 418.130526 
L 761.818818 418.130526 
L 761.818818 302.721448 
L 741.864908 302.721448 
z
" clip-path="url(#p94804b8332)" style="fill: #1f77b4"/>
   </g>
   <g id="patch_10">
    <path d="M 874.890973 418.130526 
L 894.844882 418.130526 
L 894.844882 168.025263 
L 874.890973 168.025263 
z
" clip-path="url(#p94804b8332)" style="fill: #1f77b4"/>
   </g>
   <g id="patch_11">
    <path d="M 628.792753 418.130526 
L 648.746662 418.130526 
L 648.746662 190.265485 
L 628.792753 190.265485 
z
" clip-path="url(#p94804b8332)" style="fill: #ff7f0e"/>
   </g>
   <g id="patch_12">
    <path d="M 761.818818 418.130526 
L 781.772727 418.130526 
L 781.772727 183.077465 
L 761.818818 183.077465 
z
" clip-path="url(#p94804b8332)" style="fill: #ff7f0e"/>
   </g>
   <g id="patch_13">
    <path d="M 894.844882 418.130526 
L 914.798792 418.130526 
L 914.798792 190.209601 
L 894.844882 190.209601 
z
" clip-path="url(#p94804b8332)" style="fill: #ff7f0e"/>
   </g>
   <g id="patch_14">
    <path d="M 648.746662 418.130526 
L 668.700572 418.130526 
L 668.700572 191.695714 
L 648.746662 191.695714 
z
" clip-path="url(#p94804b8332)" style="fill: #2ca02c"/>
   </g>
   <g id="patch_15">
    <path d="M 781.772727 418.130526 
L 801.726637 418.130526 
L 801.726637 255.746273 
L 781.772727 255.746273 
z
" clip-path="url(#p94804b8332)" style="fill: #2ca02c"/>
   </g>
   <g id="patch_16">
    <path d="M 914.798792 418.130526 
L 934.752702 418.130526 
L 934.752702 191.237199 
L 914.798792 191.237199 
z
" clip-path="url(#p94804b8332)" style="fill: #2ca02c"/>
   </g>
   <g id="patch_17">
    <path d="M 668.700572 418.130526 
L 688.654482 418.130526 
L 688.654482 217.43683 
L 668.700572 217.43683 
z
" clip-path="url(#p94804b8332)" style="fill: #d62728"/>
   </g>
   <g id="patch_18">
    <path d="M 801.726637 418.130526 
L 821.680547 418.130526 
L 821.680547 254.140417 
L 801.726637 254.140417 
z
" clip-path="url(#p94804b8332)" style="fill: #d62728"/>
   </g>
   <g id="patch_19">
    <path d="M 934.752702 418.130526 
L 954.706612 418.130526 
L 954.706612 216.946885 
L 934.752702 216.946885 
z
" clip-path="url(#p94804b8332)" style="fill: #d62728"/>
   </g>
   <g id="matplotlib.axis_3">
    <g id="xtick_7">
     <g id="line2d_16">
      <g>
       <use xlink:href="#mc963864732" x="648.746662" y="418.130526" style="stroke: #000000; stroke-width: 0.8"/>
      </g>
     </g>
     <g id="text_16">
      <!-- AUC -->
      <g transform="translate(625.490256 441.847089) scale(0.22 -0.22)">
       <defs>
        <path id="DejaVuSans-41" d="M 2188 4044 
L 1331 1722 
L 3047 1722 
L 2188 4044 
z
M 1831 4666 
L 2547 4666 
L 4325 0 
L 3669 0 
L 3244 1197 
L 1141 1197 
L 716 0 
L 50 0 
L 1831 4666 
z
" transform="scale(0.015625)"/>
        <path id="DejaVuSans-55" d="M 556 4666 
L 1191 4666 
L 1191 1831 
Q 1191 1081 1462 751 
Q 1734 422 2344 422 
Q 2950 422 3222 751 
Q 3494 1081 3494 1831 
L 3494 4666 
L 4128 4666 
L 4128 1753 
Q 4128 841 3676 375 
Q 3225 -91 2344 -91 
Q 1459 -91 1007 375 
Q 556 841 556 1753 
L 556 4666 
z
" transform="scale(0.015625)"/>
        <path id="DejaVuSans-43" d="M 4122 4306 
L 4122 3641 
Q 3803 3938 3442 4084 
Q 3081 4231 2675 4231 
Q 1875 4231 1450 3742 
Q 1025 3253 1025 2328 
Q 1025 1406 1450 917 
Q 1875 428 2675 428 
Q 3081 428 3442 575 
Q 3803 722 4122 1019 
L 4122 359 
Q 3791 134 3420 21 
Q 3050 -91 2638 -91 
Q 1578 -91 968 557 
Q 359 1206 359 2328 
Q 359 3453 968 4101 
Q 1578 4750 2638 4750 
Q 3056 4750 3426 4639 
Q 3797 4528 4122 4306 
z
" transform="scale(0.015625)"/>
       </defs>
       <use xlink:href="#DejaVuSans-41"/>
       <use xlink:href="#DejaVuSans-55" x="68.408203"/>
       <use xlink:href="#DejaVuSans-43" x="141.601562"/>
      </g>
     </g>
    </g>
    <g id="xtick_8">
     <g id="line2d_17">
      <g>
       <use xlink:href="#mc963864732" x="781.772727" y="418.130526" style="stroke: #000000; stroke-width: 0.8"/>
      </g>
     </g>
     <g id="text_17">
      <!-- $Q_{local}$ -->
      <g transform="translate(754.822727 441.847089) scale(0.22 -0.22)">
       <defs>
        <path id="DejaVuSans-Oblique-51" d="M 2309 -84 
Q 2275 -88 2237 -89 
Q 2200 -91 2125 -91 
Q 1250 -91 756 411 
Q 263 913 263 1797 
Q 263 2319 452 2844 
Q 641 3369 978 3788 
Q 1369 4269 1858 4509 
Q 2347 4750 2938 4750 
Q 3794 4750 4287 4245 
Q 4781 3741 4781 2869 
Q 4781 1928 4265 1147 
Q 3750 366 2919 44 
L 3553 -825 
L 2847 -825 
L 2309 -84 
z
M 2919 4238 
Q 2400 4238 2003 3986 
Q 1606 3734 1313 3219 
Q 1125 2891 1026 2522 
Q 928 2153 928 1778 
Q 928 1128 1239 775 
Q 1550 422 2119 422 
Q 2631 422 3032 676 
Q 3434 931 3719 1434 
Q 3909 1772 4009 2142 
Q 4109 2513 4109 2881 
Q 4109 3528 3796 3883 
Q 3484 4238 2919 4238 
z
" transform="scale(0.015625)"/>
        <path id="DejaVuSans-Oblique-6c" d="M 1172 4863 
L 1747 4863 
L 800 0 
L 225 0 
L 1172 4863 
z
" transform="scale(0.015625)"/>
        <path id="DejaVuSans-Oblique-6f" d="M 1625 -91 
Q 1009 -91 651 289 
Q 294 669 294 1325 
Q 294 1706 417 2101 
Q 541 2497 738 2766 
Q 1047 3184 1428 3384 
Q 1809 3584 2291 3584 
Q 2888 3584 3255 3212 
Q 3622 2841 3622 2241 
Q 3622 1825 3500 1412 
Q 3378 1000 3181 728 
Q 2875 309 2494 109 
Q 2113 -91 1625 -91 
z
M 891 1344 
Q 891 869 1089 633 
Q 1288 397 1691 397 
Q 2269 397 2648 901 
Q 3028 1406 3028 2181 
Q 3028 2634 2825 2865 
Q 2622 3097 2228 3097 
Q 1903 3097 1650 2945 
Q 1397 2794 1197 2484 
Q 1050 2253 970 1956 
Q 891 1659 891 1344 
z
" transform="scale(0.015625)"/>
        <path id="DejaVuSans-Oblique-63" d="M 3431 3366 
L 3316 2797 
Q 3109 2947 2876 3022 
Q 2644 3097 2394 3097 
Q 2119 3097 1870 3000 
Q 1622 2903 1453 2725 
Q 1184 2453 1037 2087 
Q 891 1722 891 1331 
Q 891 859 1127 628 
Q 1363 397 1844 397 
Q 2081 397 2348 469 
Q 2616 541 2906 684 
L 2797 116 
Q 2547 13 2283 -39 
Q 2019 -91 1741 -91 
Q 1044 -91 669 257 
Q 294 606 294 1253 
Q 294 1797 489 2255 
Q 684 2713 1069 3078 
Q 1331 3328 1684 3456 
Q 2038 3584 2456 3584 
Q 2700 3584 2940 3529 
Q 3181 3475 3431 3366 
z
" transform="scale(0.015625)"/>
        <path id="DejaVuSans-Oblique-61" d="M 3438 1997 
L 3047 0 
L 2472 0 
L 2578 531 
Q 2325 219 2001 64 
Q 1678 -91 1281 -91 
Q 834 -91 548 182 
Q 263 456 263 884 
Q 263 1497 752 1853 
Q 1241 2209 2100 2209 
L 2900 2209 
L 2931 2363 
Q 2938 2388 2941 2417 
Q 2944 2447 2944 2509 
Q 2944 2788 2717 2942 
Q 2491 3097 2081 3097 
Q 1800 3097 1504 3025 
Q 1209 2953 897 2809 
L 997 3341 
Q 1322 3463 1633 3523 
Q 1944 3584 2234 3584 
Q 2853 3584 3176 3315 
Q 3500 3047 3500 2534 
Q 3500 2431 3484 2292 
Q 3469 2153 3438 1997 
z
M 2816 1759 
L 2241 1759 
Q 1534 1759 1195 1570 
Q 856 1381 856 984 
Q 856 709 1029 553 
Q 1203 397 1509 397 
Q 1978 397 2328 733 
Q 2678 1069 2791 1631 
L 2816 1759 
z
" transform="scale(0.015625)"/>
       </defs>
       <use xlink:href="#DejaVuSans-Oblique-51" transform="translate(0 0.78125)"/>
       <use xlink:href="#DejaVuSans-Oblique-6c" transform="translate(78.710938 -15.625) scale(0.7)"/>
       <use xlink:href="#DejaVuSans-Oblique-6f" transform="translate(98.15918 -15.625) scale(0.7)"/>
       <use xlink:href="#DejaVuSans-Oblique-63" transform="translate(140.986328 -15.625) scale(0.7)"/>
       <use xlink:href="#DejaVuSans-Oblique-61" transform="translate(179.472656 -15.625) scale(0.7)"/>
       <use xlink:href="#DejaVuSans-Oblique-6c" transform="translate(222.368164 -15.625) scale(0.7)"/>
      </g>
     </g>
    </g>
    <g id="xtick_9">
     <g id="line2d_18">
      <g>
       <use xlink:href="#mc963864732" x="914.798792" y="418.130526" style="stroke: #000000; stroke-width: 0.8"/>
      </g>
     </g>
     <g id="text_18">
      <!-- $Q_{global}$ -->
      <g transform="translate(882.348792 441.630526) scale(0.22 -0.22)">
       <defs>
        <path id="DejaVuSans-Oblique-67" d="M 3816 3500 
L 3219 434 
Q 3047 -456 2561 -893 
Q 2075 -1331 1253 -1331 
Q 950 -1331 690 -1286 
Q 431 -1241 206 -1147 
L 313 -588 
Q 525 -725 762 -790 
Q 1000 -856 1269 -856 
Q 1816 -856 2167 -557 
Q 2519 -259 2631 300 
L 2681 563 
Q 2441 288 2122 144 
Q 1803 0 1434 0 
Q 903 0 598 351 
Q 294 703 294 1319 
Q 294 1803 478 2267 
Q 663 2731 997 3091 
Q 1219 3328 1514 3456 
Q 1809 3584 2131 3584 
Q 2484 3584 2746 3420 
Q 3009 3256 3138 2956 
L 3238 3500 
L 3816 3500 
z
M 2950 2216 
Q 2950 2641 2750 2872 
Q 2550 3103 2181 3103 
Q 1953 3103 1747 3012 
Q 1541 2922 1394 2759 
Q 1156 2491 1023 2127 
Q 891 1763 891 1375 
Q 891 944 1092 712 
Q 1294 481 1672 481 
Q 2219 481 2584 976 
Q 2950 1472 2950 2216 
z
" transform="scale(0.015625)"/>
        <path id="DejaVuSans-Oblique-62" d="M 3169 2138 
Q 3169 2591 2961 2847 
Q 2753 3103 2388 3103 
Q 2122 3103 1889 2973 
Q 1656 2844 1484 2597 
Q 1303 2338 1198 1995 
Q 1094 1653 1094 1313 
Q 1094 881 1298 636 
Q 1503 391 1863 391 
Q 2134 391 2365 517 
Q 2597 644 2772 891 
Q 2950 1147 3059 1487 
Q 3169 1828 3169 2138 
z
M 1381 2969 
Q 1594 3256 1914 3420 
Q 2234 3584 2584 3584 
Q 3122 3584 3439 3221 
Q 3756 2859 3756 2241 
Q 3756 1734 3570 1259 
Q 3384 784 3041 416 
Q 2816 172 2522 40 
Q 2228 -91 1906 -91 
Q 1566 -91 1316 65 
Q 1066 222 909 531 
L 806 0 
L 231 0 
L 1178 4863 
L 1753 4863 
L 1381 2969 
z
" transform="scale(0.015625)"/>
       </defs>
       <use xlink:href="#DejaVuSans-Oblique-51" transform="translate(0 0.78125)"/>
       <use xlink:href="#DejaVuSans-Oblique-67" transform="translate(78.710938 -15.625) scale(0.7)"/>
       <use xlink:href="#DejaVuSans-Oblique-6c" transform="translate(123.144531 -15.625) scale(0.7)"/>
       <use xlink:href="#DejaVuSans-Oblique-6f" transform="translate(142.592773 -15.625) scale(0.7)"/>
       <use xlink:href="#DejaVuSans-Oblique-62" transform="translate(185.419922 -15.625) scale(0.7)"/>
       <use xlink:href="#DejaVuSans-Oblique-61" transform="translate(229.853516 -15.625) scale(0.7)"/>
       <use xlink:href="#DejaVuSans-Oblique-6c" transform="translate(272.749023 -15.625) scale(0.7)"/>
      </g>
     </g>
    </g>
   </g>
   <g id="matplotlib.axis_4">
    <g id="ytick_6">
     <g id="line2d_19">
      <g>
       <use xlink:href="#ma649cffb5f" x="591.545455" y="418.130526" style="stroke: #000000; stroke-width: 0.8"/>
      </g>
     </g>
     <g id="text_19">
      <!-- 0.0 -->
      <g transform="translate(549.55858 426.488808) scale(0.22 -0.22)">
       <use xlink:href="#DejaVuSans-30"/>
       <use xlink:href="#DejaVuSans-2e" x="63.623047"/>
       <use xlink:href="#DejaVuSans-30" x="95.410156"/>
      </g>
     </g>
    </g>
    <g id="ytick_7">
     <g id="line2d_20">
      <g>
       <use xlink:href="#ma649cffb5f" x="591.545455" y="351.025915" style="stroke: #000000; stroke-width: 0.8"/>
      </g>
     </g>
     <g id="text_20">
      <!-- 0.2 -->
      <g transform="translate(549.55858 359.384196) scale(0.22 -0.22)">
       <use xlink:href="#DejaVuSans-30"/>
       <use xlink:href="#DejaVuSans-2e" x="63.623047"/>
       <use xlink:href="#DejaVuSans-32" x="95.410156"/>
      </g>
     </g>
    </g>
    <g id="ytick_8">
     <g id="line2d_21">
      <g>
       <use xlink:href="#ma649cffb5f" x="591.545455" y="283.921303" style="stroke: #000000; stroke-width: 0.8"/>
      </g>
     </g>
     <g id="text_21">
      <!-- 0.4 -->
      <g transform="translate(549.55858 292.279584) scale(0.22 -0.22)">
       <use xlink:href="#DejaVuSans-30"/>
       <use xlink:href="#DejaVuSans-2e" x="63.623047"/>
       <use xlink:href="#DejaVuSans-34" x="95.410156"/>
      </g>
     </g>
    </g>
    <g id="ytick_9">
     <g id="line2d_22">
      <g>
       <use xlink:href="#ma649cffb5f" x="591.545455" y="216.816692" style="stroke: #000000; stroke-width: 0.8"/>
      </g>
     </g>
     <g id="text_22">
      <!-- 0.6 -->
      <g transform="translate(549.55858 225.174973) scale(0.22 -0.22)">
       <use xlink:href="#DejaVuSans-30"/>
       <use xlink:href="#DejaVuSans-2e" x="63.623047"/>
       <use xlink:href="#DejaVuSans-36" x="95.410156"/>
      </g>
     </g>
    </g>
    <g id="text_23">
     <!-- Metric Value -->
     <g transform="translate(540.983267 354.727919) rotate(-90) scale(0.22 -0.22)">
      <defs>
       <path id="DejaVuSans-4d" d="M 628 4666 
L 1569 4666 
L 2759 1491 
L 3956 4666 
L 4897 4666 
L 4897 0 
L 4281 0 
L 4281 4097 
L 3078 897 
L 2444 897 
L 1241 4097 
L 1241 0 
L 628 0 
L 628 4666 
z
" transform="scale(0.015625)"/>
       <path id="DejaVuSans-65" d="M 3597 1894 
L 3597 1613 
L 953 1613 
Q 991 1019 1311 708 
Q 1631 397 2203 397 
Q 2534 397 2845 478 
Q 3156 559 3463 722 
L 3463 178 
Q 3153 47 2828 -22 
Q 2503 -91 2169 -91 
Q 1331 -91 842 396 
Q 353 884 353 1716 
Q 353 2575 817 3079 
Q 1281 3584 2069 3584 
Q 2775 3584 3186 3129 
Q 3597 2675 3597 1894 
z
M 3022 2063 
Q 3016 2534 2758 2815 
Q 2500 3097 2075 3097 
Q 1594 3097 1305 2825 
Q 1016 2553 972 2059 
L 3022 2063 
z
" transform="scale(0.015625)"/>
       <path id="DejaVuSans-74" d="M 1172 4494 
L 1172 3500 
L 2356 3500 
L 2356 3053 
L 1172 3053 
L 1172 1153 
Q 1172 725 1289 603 
Q 1406 481 1766 481 
L 2356 481 
L 2356 0 
L 1766 0 
Q 1100 0 847 248 
Q 594 497 594 1153 
L 594 3053 
L 172 3053 
L 172 3500 
L 594 3500 
L 594 4494 
L 1172 4494 
z
" transform="scale(0.015625)"/>
       <path id="DejaVuSans-72" d="M 2631 2963 
Q 2534 3019 2420 3045 
Q 2306 3072 2169 3072 
Q 1681 3072 1420 2755 
Q 1159 2438 1159 1844 
L 1159 0 
L 581 0 
L 581 3500 
L 1159 3500 
L 1159 2956 
Q 1341 3275 1631 3429 
Q 1922 3584 2338 3584 
Q 2397 3584 2469 3576 
Q 2541 3569 2628 3553 
L 2631 2963 
z
" transform="scale(0.015625)"/>
       <path id="DejaVuSans-69" d="M 603 3500 
L 1178 3500 
L 1178 0 
L 603 0 
L 603 3500 
z
M 603 4863 
L 1178 4863 
L 1178 4134 
L 603 4134 
L 603 4863 
z
" transform="scale(0.015625)"/>
       <path id="DejaVuSans-63" d="M 3122 3366 
L 3122 2828 
Q 2878 2963 2633 3030 
Q 2388 3097 2138 3097 
Q 1578 3097 1268 2742 
Q 959 2388 959 1747 
Q 959 1106 1268 751 
Q 1578 397 2138 397 
Q 2388 397 2633 464 
Q 2878 531 3122 666 
L 3122 134 
Q 2881 22 2623 -34 
Q 2366 -91 2075 -91 
Q 1284 -91 818 406 
Q 353 903 353 1747 
Q 353 2603 823 3093 
Q 1294 3584 2113 3584 
Q 2378 3584 2631 3529 
Q 2884 3475 3122 3366 
z
" transform="scale(0.015625)"/>
       <path id="DejaVuSans-20" transform="scale(0.015625)"/>
       <path id="DejaVuSans-56" d="M 1831 0 
L 50 4666 
L 709 4666 
L 2188 738 
L 3669 4666 
L 4325 4666 
L 2547 0 
L 1831 0 
z
" transform="scale(0.015625)"/>
       <path id="DejaVuSans-61" d="M 2194 1759 
Q 1497 1759 1228 1600 
Q 959 1441 959 1056 
Q 959 750 1161 570 
Q 1363 391 1709 391 
Q 2188 391 2477 730 
Q 2766 1069 2766 1631 
L 2766 1759 
L 2194 1759 
z
M 3341 1997 
L 3341 0 
L 2766 0 
L 2766 531 
Q 2569 213 2275 61 
Q 1981 -91 1556 -91 
Q 1019 -91 701 211 
Q 384 513 384 1019 
Q 384 1609 779 1909 
Q 1175 2209 1959 2209 
L 2766 2209 
L 2766 2266 
Q 2766 2663 2505 2880 
Q 2244 3097 1772 3097 
Q 1472 3097 1187 3025 
Q 903 2953 641 2809 
L 641 3341 
Q 956 3463 1253 3523 
Q 1550 3584 1831 3584 
Q 2591 3584 2966 3190 
Q 3341 2797 3341 1997 
z
" transform="scale(0.015625)"/>
       <path id="DejaVuSans-6c" d="M 603 4863 
L 1178 4863 
L 1178 0 
L 603 0 
L 603 4863 
z
" transform="scale(0.015625)"/>
       <path id="DejaVuSans-75" d="M 544 1381 
L 544 3500 
L 1119 3500 
L 1119 1403 
Q 1119 906 1312 657 
Q 1506 409 1894 409 
Q 2359 409 2629 706 
Q 2900 1003 2900 1516 
L 2900 3500 
L 3475 3500 
L 3475 0 
L 2900 0 
L 2900 538 
Q 2691 219 2414 64 
Q 2138 -91 1772 -91 
Q 1169 -91 856 284 
Q 544 659 544 1381 
z
M 1991 3584 
L 1991 3584 
z
" transform="scale(0.015625)"/>
      </defs>
      <use xlink:href="#DejaVuSans-4d"/>
      <use xlink:href="#DejaVuSans-65" x="86.279297"/>
      <use xlink:href="#DejaVuSans-74" x="147.802734"/>
      <use xlink:href="#DejaVuSans-72" x="187.011719"/>
      <use xlink:href="#DejaVuSans-69" x="228.125"/>
      <use xlink:href="#DejaVuSans-63" x="255.908203"/>
      <use xlink:href="#DejaVuSans-20" x="310.888672"/>
      <use xlink:href="#DejaVuSans-56" x="342.675781"/>
      <use xlink:href="#DejaVuSans-61" x="403.333984"/>
      <use xlink:href="#DejaVuSans-6c" x="464.613281"/>
      <use xlink:href="#DejaVuSans-75" x="492.396484"/>
      <use xlink:href="#DejaVuSans-65" x="555.775391"/>
     </g>
    </g>
   </g>
   <g id="patch_20">
    <path d="M 591.545455 418.130526 
L 591.545455 155.52 
" style="fill: none; stroke: #000000; stroke-width: 0.8; stroke-linejoin: miter; stroke-linecap: square"/>
   </g>
   <g id="patch_21">
    <path d="M 972 418.130526 
L 972 155.52 
" style="fill: none; stroke: #000000; stroke-width: 0.8; stroke-linejoin: miter; stroke-linecap: square"/>
   </g>
   <g id="patch_22">
    <path d="M 591.545455 418.130526 
L 972 418.130526 
" style="fill: none; stroke: #000000; stroke-width: 0.8; stroke-linejoin: miter; stroke-linecap: square"/>
   </g>
   <g id="patch_23">
    <path d="M 591.545455 155.52 
L 972 155.52 
" style="fill: none; stroke: #000000; stroke-width: 0.8; stroke-linejoin: miter; stroke-linecap: square"/>
   </g>
   <g id="text_24">
    <!-- b -->
    <g transform="translate(544.871761 137.404046) scale(0.28 -0.28)">
     <defs>
      <path id="DejaVuSans-Bold-62" d="M 2400 722 
Q 2759 722 2948 984 
Q 3138 1247 3138 1747 
Q 3138 2247 2948 2509 
Q 2759 2772 2400 2772 
Q 2041 2772 1848 2508 
Q 1656 2244 1656 1747 
Q 1656 1250 1848 986 
Q 2041 722 2400 722 
z
M 1656 2988 
Q 1888 3294 2169 3439 
Q 2450 3584 2816 3584 
Q 3463 3584 3878 3070 
Q 4294 2556 4294 1747 
Q 4294 938 3878 423 
Q 3463 -91 2816 -91 
Q 2450 -91 2169 54 
Q 1888 200 1656 506 
L 1656 0 
L 538 0 
L 538 4863 
L 1656 4863 
L 1656 2988 
z
" transform="scale(0.015625)"/>
     </defs>
     <use xlink:href="#DejaVuSans-Bold-62"/>
    </g>
   </g>
   <g id="text_25">
    <!-- Metrics -->
    <g transform="translate(734.584759 149.52) scale(0.26 -0.26)">
     <defs>
      <path id="DejaVuSans-73" d="M 2834 3397 
L 2834 2853 
Q 2591 2978 2328 3040 
Q 2066 3103 1784 3103 
Q 1356 3103 1142 2972 
Q 928 2841 928 2578 
Q 928 2378 1081 2264 
Q 1234 2150 1697 2047 
L 1894 2003 
Q 2506 1872 2764 1633 
Q 3022 1394 3022 966 
Q 3022 478 2636 193 
Q 2250 -91 1575 -91 
Q 1294 -91 989 -36 
Q 684 19 347 128 
L 347 722 
Q 666 556 975 473 
Q 1284 391 1588 391 
Q 1994 391 2212 530 
Q 2431 669 2431 922 
Q 2431 1156 2273 1281 
Q 2116 1406 1581 1522 
L 1381 1569 
Q 847 1681 609 1914 
Q 372 2147 372 2553 
Q 372 3047 722 3315 
Q 1072 3584 1716 3584 
Q 2034 3584 2315 3537 
Q 2597 3491 2834 3397 
z
" transform="scale(0.015625)"/>
     </defs>
     <use xlink:href="#DejaVuSans-4d"/>
     <use xlink:href="#DejaVuSans-65" x="86.279297"/>
     <use xlink:href="#DejaVuSans-74" x="147.802734"/>
     <use xlink:href="#DejaVuSans-72" x="187.011719"/>
     <use xlink:href="#DejaVuSans-69" x="228.125"/>
     <use xlink:href="#DejaVuSans-63" x="255.908203"/>
     <use xlink:href="#DejaVuSans-73" x="310.888672"/>
    </g>
   </g>
  </g>
  <g id="axes_3">
   <g id="patch_24">
    <path d="M 135 785.785263 
L 515.454545 785.785263 
L 515.454545 523.174737 
L 135 523.174737 
z
" style="fill: #ffffff"/>
   </g>
   <g id="matplotlib.axis_5">
    <g id="xtick_10">
     <g id="line2d_23">
      <g>
       <use xlink:href="#mc963864732" x="137.882231" y="785.785263" style="stroke: #000000; stroke-width: 0.8"/>
      </g>
     </g>
     <g id="text_26">
      <!-- 0 -->
      <g transform="translate(130.883481 809.501826) scale(0.22 -0.22)">
       <use xlink:href="#DejaVuSans-30"/>
      </g>
     </g>
    </g>
    <g id="xtick_11">
     <g id="line2d_24">
      <g>
       <use xlink:href="#mc963864732" x="281.993802" y="785.785263" style="stroke: #000000; stroke-width: 0.8"/>
      </g>
     </g>
     <g id="text_27">
      <!-- 20 -->
      <g transform="translate(267.996302 809.501826) scale(0.22 -0.22)">
       <use xlink:href="#DejaVuSans-32"/>
       <use xlink:href="#DejaVuSans-30" x="63.623047"/>
      </g>
     </g>
    </g>
    <g id="xtick_12">
     <g id="line2d_25">
      <g>
       <use xlink:href="#mc963864732" x="426.105372" y="785.785263" style="stroke: #000000; stroke-width: 0.8"/>
      </g>
     </g>
     <g id="text_28">
      <!-- 40 -->
      <g transform="translate(412.107872 809.501826) scale(0.22 -0.22)">
       <use xlink:href="#DejaVuSans-34"/>
       <use xlink:href="#DejaVuSans-30" x="63.623047"/>
      </g>
     </g>
    </g>
    <g id="text_29">
     <!-- k -->
     <g transform="translate(318.278523 836.313388) scale(0.24 -0.24)">
      <use xlink:href="#DejaVuSans-6b"/>
     </g>
    </g>
   </g>
   <g id="matplotlib.axis_6">
    <g id="ytick_10">
     <g id="line2d_26">
      <g>
       <use xlink:href="#ma649cffb5f" x="135" y="737.621486" style="stroke: #000000; stroke-width: 0.8"/>
      </g>
     </g>
     <g id="text_30">
      <!-- 0.8 -->
      <g transform="translate(93.013125 745.979768) scale(0.22 -0.22)">
       <use xlink:href="#DejaVuSans-30"/>
       <use xlink:href="#DejaVuSans-2e" x="63.623047"/>
       <use xlink:href="#DejaVuSans-38" x="95.410156"/>
      </g>
     </g>
    </g>
    <g id="ytick_11">
     <g id="line2d_27">
      <g>
       <use xlink:href="#ma649cffb5f" x="135" y="634.348017" style="stroke: #000000; stroke-width: 0.8"/>
      </g>
     </g>
     <g id="text_31">
      <!-- 0.9 -->
      <g transform="translate(93.013125 642.706298) scale(0.22 -0.22)">
       <defs>
        <path id="DejaVuSans-39" d="M 703 97 
L 703 672 
Q 941 559 1184 500 
Q 1428 441 1663 441 
Q 2288 441 2617 861 
Q 2947 1281 2994 2138 
Q 2813 1869 2534 1725 
Q 2256 1581 1919 1581 
Q 1219 1581 811 2004 
Q 403 2428 403 3163 
Q 403 3881 828 4315 
Q 1253 4750 1959 4750 
Q 2769 4750 3195 4129 
Q 3622 3509 3622 2328 
Q 3622 1225 3098 567 
Q 2575 -91 1691 -91 
Q 1453 -91 1209 -44 
Q 966 3 703 97 
z
M 1959 2075 
Q 2384 2075 2632 2365 
Q 2881 2656 2881 3163 
Q 2881 3666 2632 3958 
Q 2384 4250 1959 4250 
Q 1534 4250 1286 3958 
Q 1038 3666 1038 3163 
Q 1038 2656 1286 2365 
Q 1534 2075 1959 2075 
z
" transform="scale(0.015625)"/>
       </defs>
       <use xlink:href="#DejaVuSans-30"/>
       <use xlink:href="#DejaVuSans-2e" x="63.623047"/>
       <use xlink:href="#DejaVuSans-39" x="95.410156"/>
      </g>
     </g>
    </g>
    <g id="ytick_12">
     <g id="line2d_28">
      <g>
       <use xlink:href="#ma649cffb5f" x="135" y="531.074548" style="stroke: #000000; stroke-width: 0.8"/>
      </g>
     </g>
     <g id="text_32">
      <!-- 1.0 -->
      <g transform="translate(93.013125 539.432829) scale(0.22 -0.22)">
       <use xlink:href="#DejaVuSans-31"/>
       <use xlink:href="#DejaVuSans-2e" x="63.623047"/>
       <use xlink:href="#DejaVuSans-30" x="95.410156"/>
      </g>
     </g>
    </g>
    <g id="text_33">
     <!-- Metric Value -->
     <g transform="translate(84.021875 728.555625) rotate(-90) scale(0.24 -0.24)">
      <use xlink:href="#DejaVuSans-4d"/>
      <use xlink:href="#DejaVuSans-65" x="86.279297"/>
      <use xlink:href="#DejaVuSans-74" x="147.802734"/>
      <use xlink:href="#DejaVuSans-72" x="187.011719"/>
      <use xlink:href="#DejaVuSans-69" x="228.125"/>
      <use xlink:href="#DejaVuSans-63" x="255.908203"/>
      <use xlink:href="#DejaVuSans-20" x="310.888672"/>
      <use xlink:href="#DejaVuSans-56" x="342.675781"/>
      <use xlink:href="#DejaVuSans-61" x="403.333984"/>
      <use xlink:href="#DejaVuSans-6c" x="464.613281"/>
      <use xlink:href="#DejaVuSans-75" x="492.396484"/>
      <use xlink:href="#DejaVuSans-65" x="555.775391"/>
     </g>
    </g>
   </g>
   <g id="line2d_29">
    <path d="M 152.293388 759.606747 
L 173.910124 762.505284 
L 209.938017 766.280944 
L 281.993802 770.520407 
L 498.161157 773.848421 
" clip-path="url(#pd92a986b4a)" style="fill: none; stroke: #1f77b4; stroke-width: 1.5; stroke-linecap: square"/>
    <g clip-path="url(#pd92a986b4a)">
     <use xlink:href="#m9fd9c7f145" x="152.293388" y="759.606747" style="fill: #1f77b4; stroke: #1f77b4"/>
     <use xlink:href="#m9fd9c7f145" x="173.910124" y="762.505284" style="fill: #1f77b4; stroke: #1f77b4"/>
     <use xlink:href="#m9fd9c7f145" x="209.938017" y="766.280944" style="fill: #1f77b4; stroke: #1f77b4"/>
     <use xlink:href="#m9fd9c7f145" x="281.993802" y="770.520407" style="fill: #1f77b4; stroke: #1f77b4"/>
     <use xlink:href="#m9fd9c7f145" x="498.161157" y="773.848421" style="fill: #1f77b4; stroke: #1f77b4"/>
    </g>
   </g>
   <g id="line2d_30">
    <path d="M 152.293388 535.111579 
L 173.910124 546.12775 
L 209.938017 559.479113 
L 281.993802 582.740623 
L 498.161157 618.734569 
" clip-path="url(#pd92a986b4a)" style="fill: none; stroke: #ff7f0e; stroke-width: 1.5; stroke-linecap: square"/>
    <g clip-path="url(#pd92a986b4a)">
     <use xlink:href="#m7b7e58285b" x="152.293388" y="535.111579" style="fill: #ff7f0e; stroke: #ff7f0e"/>
     <use xlink:href="#m7b7e58285b" x="173.910124" y="546.12775" style="fill: #ff7f0e; stroke: #ff7f0e"/>
     <use xlink:href="#m7b7e58285b" x="209.938017" y="559.479113" style="fill: #ff7f0e; stroke: #ff7f0e"/>
     <use xlink:href="#m7b7e58285b" x="281.993802" y="582.740623" style="fill: #ff7f0e; stroke: #ff7f0e"/>
     <use xlink:href="#m7b7e58285b" x="498.161157" y="618.734569" style="fill: #ff7f0e; stroke: #ff7f0e"/>
    </g>
   </g>
   <g id="line2d_31">
    <path d="M 152.293388 546.440683 
L 173.910124 550.401018 
L 209.938017 559.488507 
L 281.993802 580.077244 
L 498.161157 628.670119 
" clip-path="url(#pd92a986b4a)" style="fill: none; stroke: #2ca02c; stroke-width: 1.5; stroke-linecap: square"/>
    <g clip-path="url(#pd92a986b4a)">
     <use xlink:href="#m3ff40664e8" x="152.293388" y="546.440683" style="fill: #2ca02c; stroke: #2ca02c"/>
     <use xlink:href="#m3ff40664e8" x="173.910124" y="550.401018" style="fill: #2ca02c; stroke: #2ca02c"/>
     <use xlink:href="#m3ff40664e8" x="209.938017" y="559.488507" style="fill: #2ca02c; stroke: #2ca02c"/>
     <use xlink:href="#m3ff40664e8" x="281.993802" y="580.077244" style="fill: #2ca02c; stroke: #2ca02c"/>
     <use xlink:href="#m3ff40664e8" x="498.161157" y="628.670119" style="fill: #2ca02c; stroke: #2ca02c"/>
    </g>
   </g>
   <g id="line2d_32">
    <path d="M 152.293388 548.447215 
L 173.910124 553.125481 
L 209.938017 558.250659 
L 281.993802 570.772251 
L 498.161157 606.687037 
" clip-path="url(#pd92a986b4a)" style="fill: none; stroke: #d62728; stroke-width: 1.5; stroke-linecap: square"/>
    <g clip-path="url(#pd92a986b4a)">
     <use xlink:href="#m2ba09be2d2" x="152.293388" y="548.447215" style="fill: #d62728; stroke: #d62728"/>
     <use xlink:href="#m2ba09be2d2" x="173.910124" y="553.125481" style="fill: #d62728; stroke: #d62728"/>
     <use xlink:href="#m2ba09be2d2" x="209.938017" y="558.250659" style="fill: #d62728; stroke: #d62728"/>
     <use xlink:href="#m2ba09be2d2" x="281.993802" y="570.772251" style="fill: #d62728; stroke: #d62728"/>
     <use xlink:href="#m2ba09be2d2" x="498.161157" y="606.687037" style="fill: #d62728; stroke: #d62728"/>
    </g>
   </g>
   <g id="patch_25">
    <path d="M 135 785.785263 
L 135 523.174737 
" style="fill: none; stroke: #000000; stroke-width: 0.8; stroke-linejoin: miter; stroke-linecap: square"/>
   </g>
   <g id="patch_26">
    <path d="M 515.454545 785.785263 
L 515.454545 523.174737 
" style="fill: none; stroke: #000000; stroke-width: 0.8; stroke-linejoin: miter; stroke-linecap: square"/>
   </g>
   <g id="patch_27">
    <path d="M 135 785.785263 
L 515.454545 785.785263 
" style="fill: none; stroke: #000000; stroke-width: 0.8; stroke-linejoin: miter; stroke-linecap: square"/>
   </g>
   <g id="patch_28">
    <path d="M 135 523.174737 
L 515.454545 523.174737 
" style="fill: none; stroke: #000000; stroke-width: 0.8; stroke-linejoin: miter; stroke-linecap: square"/>
   </g>
   <g id="text_34">
    <!-- c -->
    <g transform="translate(91.769432 505.058783) scale(0.28 -0.28)">
     <defs>
      <path id="DejaVuSans-Bold-63" d="M 3366 3391 
L 3366 2478 
Q 3138 2634 2908 2709 
Q 2678 2784 2431 2784 
Q 1963 2784 1702 2511 
Q 1441 2238 1441 1747 
Q 1441 1256 1702 982 
Q 1963 709 2431 709 
Q 2694 709 2930 787 
Q 3166 866 3366 1019 
L 3366 103 
Q 3103 6 2833 -42 
Q 2563 -91 2291 -91 
Q 1344 -91 809 395 
Q 275 881 275 1747 
Q 275 2613 809 3098 
Q 1344 3584 2291 3584 
Q 2566 3584 2833 3536 
Q 3100 3488 3366 3391 
z
" transform="scale(0.015625)"/>
     </defs>
     <use xlink:href="#DejaVuSans-Bold-63"/>
    </g>
   </g>
   <g id="text_35">
    <!-- Trustworthiness -->
    <g transform="translate(230.950398 517.174737) scale(0.24 -0.24)">
     <defs>
      <path id="DejaVuSans-54" d="M -19 4666 
L 3928 4666 
L 3928 4134 
L 2272 4134 
L 2272 0 
L 1638 0 
L 1638 4134 
L -19 4134 
L -19 4666 
z
" transform="scale(0.015625)"/>
      <path id="DejaVuSans-77" d="M 269 3500 
L 844 3500 
L 1563 769 
L 2278 3500 
L 2956 3500 
L 3675 769 
L 4391 3500 
L 4966 3500 
L 4050 0 
L 3372 0 
L 2619 2869 
L 1863 0 
L 1184 0 
L 269 3500 
z
" transform="scale(0.015625)"/>
      <path id="DejaVuSans-6f" d="M 1959 3097 
Q 1497 3097 1228 2736 
Q 959 2375 959 1747 
Q 959 1119 1226 758 
Q 1494 397 1959 397 
Q 2419 397 2687 759 
Q 2956 1122 2956 1747 
Q 2956 2369 2687 2733 
Q 2419 3097 1959 3097 
z
M 1959 3584 
Q 2709 3584 3137 3096 
Q 3566 2609 3566 1747 
Q 3566 888 3137 398 
Q 2709 -91 1959 -91 
Q 1206 -91 779 398 
Q 353 888 353 1747 
Q 353 2609 779 3096 
Q 1206 3584 1959 3584 
z
" transform="scale(0.015625)"/>
      <path id="DejaVuSans-68" d="M 3513 2113 
L 3513 0 
L 2938 0 
L 2938 2094 
Q 2938 2591 2744 2837 
Q 2550 3084 2163 3084 
Q 1697 3084 1428 2787 
Q 1159 2491 1159 1978 
L 1159 0 
L 581 0 
L 581 4863 
L 1159 4863 
L 1159 2956 
Q 1366 3272 1645 3428 
Q 1925 3584 2291 3584 
Q 2894 3584 3203 3211 
Q 3513 2838 3513 2113 
z
" transform="scale(0.015625)"/>
      <path id="DejaVuSans-6e" d="M 3513 2113 
L 3513 0 
L 2938 0 
L 2938 2094 
Q 2938 2591 2744 2837 
Q 2550 3084 2163 3084 
Q 1697 3084 1428 2787 
Q 1159 2491 1159 1978 
L 1159 0 
L 581 0 
L 581 3500 
L 1159 3500 
L 1159 2956 
Q 1366 3272 1645 3428 
Q 1925 3584 2291 3584 
Q 2894 3584 3203 3211 
Q 3513 2838 3513 2113 
z
" transform="scale(0.015625)"/>
     </defs>
     <use xlink:href="#DejaVuSans-54"/>
     <use xlink:href="#DejaVuSans-72" x="46.333984"/>
     <use xlink:href="#DejaVuSans-75" x="87.447266"/>
     <use xlink:href="#DejaVuSans-73" x="150.826172"/>
     <use xlink:href="#DejaVuSans-74" x="202.925781"/>
     <use xlink:href="#DejaVuSans-77" x="242.134766"/>
     <use xlink:href="#DejaVuSans-6f" x="323.921875"/>
     <use xlink:href="#DejaVuSans-72" x="385.103516"/>
     <use xlink:href="#DejaVuSans-74" x="426.216797"/>
     <use xlink:href="#DejaVuSans-68" x="465.425781"/>
     <use xlink:href="#DejaVuSans-69" x="528.804688"/>
     <use xlink:href="#DejaVuSans-6e" x="556.587891"/>
     <use xlink:href="#DejaVuSans-65" x="619.966797"/>
     <use xlink:href="#DejaVuSans-73" x="681.490234"/>
     <use xlink:href="#DejaVuSans-73" x="733.589844"/>
    </g>
   </g>
  </g>
  <g id="axes_4">
   <g id="patch_29">
    <path d="M 591.545455 785.785263 
L 972 785.785263 
L 972 523.174737 
L 591.545455 523.174737 
z
" style="fill: #ffffff"/>
   </g>
   <g id="matplotlib.axis_7">
    <g id="xtick_13">
     <g id="line2d_33">
      <g>
       <use xlink:href="#mc963864732" x="594.427686" y="785.785263" style="stroke: #000000; stroke-width: 0.8"/>
      </g>
     </g>
     <g id="text_36">
      <!-- 0 -->
      <g transform="translate(587.428936 809.501826) scale(0.22 -0.22)">
       <use xlink:href="#DejaVuSans-30"/>
      </g>
     </g>
    </g>
    <g id="xtick_14">
     <g id="line2d_34">
      <g>
       <use xlink:href="#mc963864732" x="738.539256" y="785.785263" style="stroke: #000000; stroke-width: 0.8"/>
      </g>
     </g>
     <g id="text_37">
      <!-- 20 -->
      <g transform="translate(724.541756 809.501826) scale(0.22 -0.22)">
       <use xlink:href="#DejaVuSans-32"/>
       <use xlink:href="#DejaVuSans-30" x="63.623047"/>
      </g>
     </g>
    </g>
    <g id="xtick_15">
     <g id="line2d_35">
      <g>
       <use xlink:href="#mc963864732" x="882.650826" y="785.785263" style="stroke: #000000; stroke-width: 0.8"/>
      </g>
     </g>
     <g id="text_38">
      <!-- 40 -->
      <g transform="translate(868.653326 809.501826) scale(0.22 -0.22)">
       <use xlink:href="#DejaVuSans-34"/>
       <use xlink:href="#DejaVuSans-30" x="63.623047"/>
      </g>
     </g>
    </g>
    <g id="text_39">
     <!-- k -->
     <g transform="translate(774.823977 836.313388) scale(0.24 -0.24)">
      <use xlink:href="#DejaVuSans-6b"/>
     </g>
    </g>
   </g>
   <g id="matplotlib.axis_8">
    <g id="ytick_13">
     <g id="line2d_36">
      <g>
       <use xlink:href="#ma649cffb5f" x="591.545455" y="724.409274" style="stroke: #000000; stroke-width: 0.8"/>
      </g>
     </g>
     <g id="text_40">
      <!-- 0.85 -->
      <g transform="translate(535.56108 732.767555) scale(0.22 -0.22)">
       <use xlink:href="#DejaVuSans-30"/>
       <use xlink:href="#DejaVuSans-2e" x="63.623047"/>
       <use xlink:href="#DejaVuSans-38" x="95.410156"/>
       <use xlink:href="#DejaVuSans-35" x="159.033203"/>
      </g>
     </g>
    </g>
    <g id="ytick_14">
     <g id="line2d_37">
      <g>
       <use xlink:href="#ma649cffb5f" x="591.545455" y="655.509352" style="stroke: #000000; stroke-width: 0.8"/>
      </g>
     </g>
     <g id="text_41">
      <!-- 0.90 -->
      <g transform="translate(535.56108 663.867634) scale(0.22 -0.22)">
       <use xlink:href="#DejaVuSans-30"/>
       <use xlink:href="#DejaVuSans-2e" x="63.623047"/>
       <use xlink:href="#DejaVuSans-39" x="95.410156"/>
       <use xlink:href="#DejaVuSans-30" x="159.033203"/>
      </g>
     </g>
    </g>
    <g id="ytick_15">
     <g id="line2d_38">
      <g>
       <use xlink:href="#ma649cffb5f" x="591.545455" y="586.609431" style="stroke: #000000; stroke-width: 0.8"/>
      </g>
     </g>
     <g id="text_42">
      <!-- 0.95 -->
      <g transform="translate(535.56108 594.967713) scale(0.22 -0.22)">
       <use xlink:href="#DejaVuSans-30"/>
       <use xlink:href="#DejaVuSans-2e" x="63.623047"/>
       <use xlink:href="#DejaVuSans-39" x="95.410156"/>
       <use xlink:href="#DejaVuSans-35" x="159.033203"/>
      </g>
     </g>
    </g>
   </g>
   <g id="line2d_39">
    <path d="M 608.838843 584.88392 
L 630.455579 613.761147 
L 666.483471 639.173729 
L 738.539256 662.945587 
L 954.706612 695.90961 
" clip-path="url(#p30a6443290)" style="fill: none; stroke: #1f77b4; stroke-width: 1.5; stroke-linecap: square"/>
    <g clip-path="url(#p30a6443290)">
     <use xlink:href="#m9fd9c7f145" x="608.838843" y="584.88392" style="fill: #1f77b4; stroke: #1f77b4"/>
     <use xlink:href="#m9fd9c7f145" x="630.455579" y="613.761147" style="fill: #1f77b4; stroke: #1f77b4"/>
     <use xlink:href="#m9fd9c7f145" x="666.483471" y="639.173729" style="fill: #1f77b4; stroke: #1f77b4"/>
     <use xlink:href="#m9fd9c7f145" x="738.539256" y="662.945587" style="fill: #1f77b4; stroke: #1f77b4"/>
     <use xlink:href="#m9fd9c7f145" x="954.706612" y="695.90961" style="fill: #1f77b4; stroke: #1f77b4"/>
    </g>
   </g>
   <g id="line2d_40">
    <path d="M 608.838843 535.115892 
L 630.455579 550.688816 
L 666.483471 567.106687 
L 738.539256 586.728175 
L 954.706612 626.485983 
" clip-path="url(#p30a6443290)" style="fill: none; stroke: #ff7f0e; stroke-width: 1.5; stroke-linecap: square"/>
    <g clip-path="url(#p30a6443290)">
     <use xlink:href="#m7b7e58285b" x="608.838843" y="535.115892" style="fill: #ff7f0e; stroke: #ff7f0e"/>
     <use xlink:href="#m7b7e58285b" x="630.455579" y="550.688816" style="fill: #ff7f0e; stroke: #ff7f0e"/>
     <use xlink:href="#m7b7e58285b" x="666.483471" y="567.106687" style="fill: #ff7f0e; stroke: #ff7f0e"/>
     <use xlink:href="#m7b7e58285b" x="738.539256" y="586.728175" style="fill: #ff7f0e; stroke: #ff7f0e"/>
     <use xlink:href="#m7b7e58285b" x="954.706612" y="626.485983" style="fill: #ff7f0e; stroke: #ff7f0e"/>
    </g>
   </g>
   <g id="line2d_41">
    <path d="M 608.838843 535.111579 
L 630.455579 545.010399 
L 666.483471 562.695612 
L 738.539256 588.673709 
L 954.706612 646.920361 
" clip-path="url(#p30a6443290)" style="fill: none; stroke: #2ca02c; stroke-width: 1.5; stroke-linecap: square"/>
    <g clip-path="url(#p30a6443290)">
     <use xlink:href="#m3ff40664e8" x="608.838843" y="535.111579" style="fill: #2ca02c; stroke: #2ca02c"/>
     <use xlink:href="#m3ff40664e8" x="630.455579" y="545.010399" style="fill: #2ca02c; stroke: #2ca02c"/>
     <use xlink:href="#m3ff40664e8" x="666.483471" y="562.695612" style="fill: #2ca02c; stroke: #2ca02c"/>
     <use xlink:href="#m3ff40664e8" x="738.539256" y="588.673709" style="fill: #2ca02c; stroke: #2ca02c"/>
     <use xlink:href="#m3ff40664e8" x="954.706612" y="646.920361" style="fill: #2ca02c; stroke: #2ca02c"/>
    </g>
   </g>
   <g id="line2d_42">
    <path d="M 608.838843 579.658465 
L 630.455579 603.725289 
L 666.483471 634.9583 
L 738.539256 681.172553 
L 954.706612 773.848421 
" clip-path="url(#p30a6443290)" style="fill: none; stroke: #d62728; stroke-width: 1.5; stroke-linecap: square"/>
    <g clip-path="url(#p30a6443290)">
     <use xlink:href="#m2ba09be2d2" x="608.838843" y="579.658465" style="fill: #d62728; stroke: #d62728"/>
     <use xlink:href="#m2ba09be2d2" x="630.455579" y="603.725289" style="fill: #d62728; stroke: #d62728"/>
     <use xlink:href="#m2ba09be2d2" x="666.483471" y="634.9583" style="fill: #d62728; stroke: #d62728"/>
     <use xlink:href="#m2ba09be2d2" x="738.539256" y="681.172553" style="fill: #d62728; stroke: #d62728"/>
     <use xlink:href="#m2ba09be2d2" x="954.706612" y="773.848421" style="fill: #d62728; stroke: #d62728"/>
    </g>
   </g>
   <g id="patch_30">
    <path d="M 591.545455 785.785263 
L 591.545455 523.174737 
" style="fill: none; stroke: #000000; stroke-width: 0.8; stroke-linejoin: miter; stroke-linecap: square"/>
   </g>
   <g id="patch_31">
    <path d="M 972 785.785263 
L 972 523.174737 
" style="fill: none; stroke: #000000; stroke-width: 0.8; stroke-linejoin: miter; stroke-linecap: square"/>
   </g>
   <g id="patch_32">
    <path d="M 591.545455 785.785263 
L 972 785.785263 
" style="fill: none; stroke: #000000; stroke-width: 0.8; stroke-linejoin: miter; stroke-linecap: square"/>
   </g>
   <g id="patch_33">
    <path d="M 591.545455 523.174737 
L 972 523.174737 
" style="fill: none; stroke: #000000; stroke-width: 0.8; stroke-linejoin: miter; stroke-linecap: square"/>
   </g>
   <g id="text_43">
    <!-- d -->
    <g transform="translate(544.871761 505.058783) scale(0.28 -0.28)">
     <defs>
      <path id="DejaVuSans-Bold-64" d="M 2919 2988 
L 2919 4863 
L 4044 4863 
L 4044 0 
L 2919 0 
L 2919 506 
Q 2688 197 2409 53 
Q 2131 -91 1766 -91 
Q 1119 -91 703 423 
Q 288 938 288 1747 
Q 288 2556 703 3070 
Q 1119 3584 1766 3584 
Q 2128 3584 2408 3439 
Q 2688 3294 2919 2988 
z
M 2181 722 
Q 2541 722 2730 984 
Q 2919 1247 2919 1747 
Q 2919 2247 2730 2509 
Q 2541 2772 2181 2772 
Q 1825 2772 1636 2509 
Q 1447 2247 1447 1747 
Q 1447 1247 1636 984 
Q 1825 722 2181 722 
z
" transform="scale(0.015625)"/>
     </defs>
     <use xlink:href="#DejaVuSans-Bold-64"/>
    </g>
   </g>
   <g id="text_44">
    <!-- Continuity -->
    <g transform="translate(720.057102 517.174737) scale(0.24 -0.24)">
     <defs>
      <path id="DejaVuSans-79" d="M 2059 -325 
Q 1816 -950 1584 -1140 
Q 1353 -1331 966 -1331 
L 506 -1331 
L 506 -850 
L 844 -850 
Q 1081 -850 1212 -737 
Q 1344 -625 1503 -206 
L 1606 56 
L 191 3500 
L 800 3500 
L 1894 763 
L 2988 3500 
L 3597 3500 
L 2059 -325 
z
" transform="scale(0.015625)"/>
     </defs>
     <use xlink:href="#DejaVuSans-43"/>
     <use xlink:href="#DejaVuSans-6f" x="69.824219"/>
     <use xlink:href="#DejaVuSans-6e" x="131.005859"/>
     <use xlink:href="#DejaVuSans-74" x="194.384766"/>
     <use xlink:href="#DejaVuSans-69" x="233.59375"/>
     <use xlink:href="#DejaVuSans-6e" x="261.376953"/>
     <use xlink:href="#DejaVuSans-75" x="324.755859"/>
     <use xlink:href="#DejaVuSans-69" x="388.134766"/>
     <use xlink:href="#DejaVuSans-74" x="415.917969"/>
     <use xlink:href="#DejaVuSans-79" x="455.126953"/>
    </g>
   </g>
  </g>
  <g id="axes_5">
   <g id="patch_34">
    <path d="M 135 1153.44 
L 515.454545 1153.44 
L 515.454545 890.829474 
L 135 890.829474 
z
" style="fill: #ffffff"/>
   </g>
   <g id="matplotlib.axis_9">
    <g id="xtick_16">
     <g id="line2d_43">
      <g>
       <use xlink:href="#mc963864732" x="152.132669" y="1153.44" style="stroke: #000000; stroke-width: 0.8"/>
      </g>
     </g>
     <g id="text_45">
      <!-- 0 -->
      <g transform="translate(145.133919 1177.156562) scale(0.22 -0.22)">
       <use xlink:href="#DejaVuSans-30"/>
      </g>
     </g>
    </g>
    <g id="xtick_17">
     <g id="line2d_44">
      <g>
       <use xlink:href="#mc963864732" x="232.492281" y="1153.44" style="stroke: #000000; stroke-width: 0.8"/>
      </g>
     </g>
     <g id="text_46">
      <!-- 500 -->
      <g transform="translate(211.496031 1177.156562) scale(0.22 -0.22)">
       <use xlink:href="#DejaVuSans-35"/>
       <use xlink:href="#DejaVuSans-30" x="63.623047"/>
       <use xlink:href="#DejaVuSans-30" x="127.246094"/>
      </g>
     </g>
    </g>
    <g id="xtick_18">
     <g id="line2d_45">
      <g>
       <use xlink:href="#mc963864732" x="312.851893" y="1153.44" style="stroke: #000000; stroke-width: 0.8"/>
      </g>
     </g>
     <g id="text_47">
      <!-- 1000 -->
      <g transform="translate(284.856893 1177.156562) scale(0.22 -0.22)">
       <use xlink:href="#DejaVuSans-31"/>
       <use xlink:href="#DejaVuSans-30" x="63.623047"/>
       <use xlink:href="#DejaVuSans-30" x="127.246094"/>
       <use xlink:href="#DejaVuSans-30" x="190.869141"/>
      </g>
     </g>
    </g>
    <g id="xtick_19">
     <g id="line2d_46">
      <g>
       <use xlink:href="#mc963864732" x="393.211504" y="1153.44" style="stroke: #000000; stroke-width: 0.8"/>
      </g>
     </g>
     <g id="text_48">
      <!-- 1500 -->
      <g transform="translate(365.216504 1177.156562) scale(0.22 -0.22)">
       <use xlink:href="#DejaVuSans-31"/>
       <use xlink:href="#DejaVuSans-35" x="63.623047"/>
       <use xlink:href="#DejaVuSans-30" x="127.246094"/>
       <use xlink:href="#DejaVuSans-30" x="190.869141"/>
      </g>
     </g>
    </g>
    <g id="xtick_20">
     <g id="line2d_47">
      <g>
       <use xlink:href="#mc963864732" x="473.571116" y="1153.44" style="stroke: #000000; stroke-width: 0.8"/>
      </g>
     </g>
     <g id="text_49">
      <!-- 2000 -->
      <g transform="translate(445.576116 1177.156562) scale(0.22 -0.22)">
       <use xlink:href="#DejaVuSans-32"/>
       <use xlink:href="#DejaVuSans-30" x="63.623047"/>
       <use xlink:href="#DejaVuSans-30" x="127.246094"/>
       <use xlink:href="#DejaVuSans-30" x="190.869141"/>
      </g>
     </g>
    </g>
    <g id="text_50">
     <!-- k -->
     <g transform="translate(318.278523 1203.968125) scale(0.24 -0.24)">
      <use xlink:href="#DejaVuSans-6b"/>
     </g>
    </g>
   </g>
   <g id="matplotlib.axis_10">
    <g id="ytick_16">
     <g id="line2d_48">
      <g>
       <use xlink:href="#ma649cffb5f" x="135" y="1114.8237" style="stroke: #000000; stroke-width: 0.8"/>
      </g>
     </g>
     <g id="text_51">
      <!-- 0.2 -->
      <g transform="translate(93.013125 1123.181982) scale(0.22 -0.22)">
       <use xlink:href="#DejaVuSans-30"/>
       <use xlink:href="#DejaVuSans-2e" x="63.623047"/>
       <use xlink:href="#DejaVuSans-32" x="95.410156"/>
      </g>
     </g>
    </g>
    <g id="ytick_17">
     <g id="line2d_49">
      <g>
       <use xlink:href="#ma649cffb5f" x="135" y="1061.809354" style="stroke: #000000; stroke-width: 0.8"/>
      </g>
     </g>
     <g id="text_52">
      <!-- 0.4 -->
      <g transform="translate(93.013125 1070.167636) scale(0.22 -0.22)">
       <use xlink:href="#DejaVuSans-30"/>
       <use xlink:href="#DejaVuSans-2e" x="63.623047"/>
       <use xlink:href="#DejaVuSans-34" x="95.410156"/>
      </g>
     </g>
    </g>
    <g id="ytick_18">
     <g id="line2d_50">
      <g>
       <use xlink:href="#ma649cffb5f" x="135" y="1008.795008" style="stroke: #000000; stroke-width: 0.8"/>
      </g>
     </g>
     <g id="text_53">
      <!-- 0.6 -->
      <g transform="translate(93.013125 1017.153289) scale(0.22 -0.22)">
       <use xlink:href="#DejaVuSans-30"/>
       <use xlink:href="#DejaVuSans-2e" x="63.623047"/>
       <use xlink:href="#DejaVuSans-36" x="95.410156"/>
      </g>
     </g>
    </g>
    <g id="ytick_19">
     <g id="line2d_51">
      <g>
       <use xlink:href="#ma649cffb5f" x="135" y="955.780662" style="stroke: #000000; stroke-width: 0.8"/>
      </g>
     </g>
     <g id="text_54">
      <!-- 0.8 -->
      <g transform="translate(93.013125 964.138943) scale(0.22 -0.22)">
       <use xlink:href="#DejaVuSans-30"/>
       <use xlink:href="#DejaVuSans-2e" x="63.623047"/>
       <use xlink:href="#DejaVuSans-38" x="95.410156"/>
      </g>
     </g>
    </g>
    <g id="ytick_20">
     <g id="line2d_52">
      <g>
       <use xlink:href="#ma649cffb5f" x="135" y="902.766316" style="stroke: #000000; stroke-width: 0.8"/>
      </g>
     </g>
     <g id="text_55">
      <!-- 1.0 -->
      <g transform="translate(93.013125 911.124597) scale(0.22 -0.22)">
       <use xlink:href="#DejaVuSans-31"/>
       <use xlink:href="#DejaVuSans-2e" x="63.623047"/>
       <use xlink:href="#DejaVuSans-30" x="95.410156"/>
      </g>
     </g>
    </g>
    <g id="text_56">
     <!-- Metric Value -->
     <g transform="translate(84.021875 1096.210362) rotate(-90) scale(0.24 -0.24)">
      <use xlink:href="#DejaVuSans-4d"/>
      <use xlink:href="#DejaVuSans-65" x="86.279297"/>
      <use xlink:href="#DejaVuSans-74" x="147.802734"/>
      <use xlink:href="#DejaVuSans-72" x="187.011719"/>
      <use xlink:href="#DejaVuSans-69" x="228.125"/>
      <use xlink:href="#DejaVuSans-63" x="255.908203"/>
      <use xlink:href="#DejaVuSans-20" x="310.888672"/>
      <use xlink:href="#DejaVuSans-56" x="342.675781"/>
      <use xlink:href="#DejaVuSans-61" x="403.333984"/>
      <use xlink:href="#DejaVuSans-6c" x="464.613281"/>
      <use xlink:href="#DejaVuSans-75" x="492.396484"/>
      <use xlink:href="#DejaVuSans-65" x="555.775391"/>
     </g>
    </g>
   </g>
   <g id="line2d_53">
    <path d="M 152.293388 1141.503158 
L 152.614827 1134.078524 
L 153.257704 1129.619056 
L 153.739861 1126.957439 
L 154.382738 1124.714227 
L 154.704177 1123.728646 
L 155.186334 1121.975443 
L 155.668492 1119.995586 
L 156.15065 1118.166016 
L 157.436404 1114.575343 
L 157.597123 1114.368378 
L 158.722157 1111.809625 
L 159.043596 1111.296165 
L 159.365034 1110.601367 
L 159.686473 1110.135891 
L 162.418699 1104.64662 
L 169.490345 1092.14803 
L 170.133222 1091.077032 
L 171.418976 1089.054889 
L 173.829764 1085.50802 
L 175.758395 1083.367665 
L 177.687026 1081.551156 
L 180.579972 1079.118575 
L 192.312475 1068.785393 
L 194.080386 1067.229474 
L 196.330456 1065.239826 
L 197.616209 1064.122191 
L 199.384121 1062.505607 
L 201.152032 1060.951564 
L 211.598782 1052.1611 
L 216.09892 1048.612474 
L 218.509708 1046.744697 
L 221.884812 1044.127358 
L 223.331285 1043.014974 
L 227.188546 1040.262536 
L 228.956458 1039.016644 
L 246.153415 1027.560326 
L 248.082046 1026.347849 
L 250.332115 1024.898255 
L 256.278726 1021.223559 
L 260.457426 1018.7661 
L 262.386056 1017.606443 
L 264.153968 1016.543706 
L 266.725475 1014.999487 
L 268.654106 1013.893096 
L 276.529348 1009.497215 
L 278.618698 1008.368723 
L 286.49394 1004.162056 
L 293.565586 1000.482569 
L 309.637508 992.669598 
L 317.352031 989.14873 
L 318.798504 988.50227 
L 321.69145 987.179333 
L 327.316623 984.689203 
L 329.88813 983.507177 
L 384.532666 958.892418 
L 392.890066 954.92159 
L 399.640273 951.642162 
L 408.64055 947.176408 
L 417.319388 942.66371 
L 421.658807 940.313701 
L 426.801822 937.53245 
L 433.712748 933.942697 
L 438.373606 931.645324 
L 443.83806 929.217213 
L 460.713578 921.937241 
L 479.357008 914.103209 
L 484.017865 911.729212 
L 492.375265 906.895896 
L 495.750369 904.547351 
L 498.161157 902.766316 
L 498.161157 902.766316 
" clip-path="url(#p34ac0d10f0)" style="fill: none; stroke: #1f77b4; stroke-width: 1.5; stroke-linecap: square"/>
   </g>
   <g id="line2d_54">
    <path d="M 152.293388 982.140163 
L 153.096985 991.39019 
L 153.257704 992.072881 
L 153.900581 998.540735 
L 154.543458 1004.044883 
L 155.347054 1008.874997 
L 156.472088 1014.906088 
L 156.954246 1016.822637 
L 157.918561 1020.29567 
L 158.882877 1022.544938 
L 160.007911 1024.887268 
L 160.811507 1026.804189 
L 161.615103 1029.117883 
L 162.579419 1031.6312 
L 163.222296 1033.379588 
L 164.829488 1037.180797 
L 167.079557 1041.087335 
L 169.490345 1043.426435 
L 170.293941 1043.858679 
L 170.936818 1044.203538 
L 171.418976 1044.510163 
L 172.222572 1044.912693 
L 173.347607 1045.356761 
L 174.954799 1046.495462 
L 175.919114 1047.29307 
L 177.847745 1048.775738 
L 178.651341 1049.133405 
L 179.133499 1049.397705 
L 180.258533 1049.850713 
L 180.90141 1050.087971 
L 181.383568 1050.214106 
L 183.472918 1050.724468 
L 185.240829 1051.232507 
L 189.901687 1052.083931 
L 193.43751 1052.364937 
L 194.723263 1052.301675 
L 195.848298 1052.258704 
L 200.830594 1051.717522 
L 204.848574 1051.049388 
L 208.705836 1049.998439 
L 215.295324 1047.723123 
L 218.991866 1046.299506 
L 224.134881 1044.29217 
L 228.795739 1042.129573 
L 231.367246 1040.87309 
L 235.706665 1038.742898 
L 243.260469 1034.492849 
L 246.796292 1032.398879 
L 258.528795 1025.460337 
L 271.064894 1017.994425 
L 273.475683 1016.604198 
L 275.565033 1015.332615 
L 277.011506 1014.478237 
L 283.118836 1010.985933 
L 286.49394 1009.118615 
L 302.726581 1000.208083 
L 317.030592 992.896898 
L 324.905834 989.046303 
L 333.102515 985.173718 
L 335.352584 984.109558 
L 351.263787 976.725413 
L 372.800163 966.979196 
L 383.407632 962.180888 
L 398.836677 954.812936 
L 407.997673 950.142648 
L 432.426995 937.954626 
L 436.766414 936.095278 
L 448.177479 931.314284 
L 457.659913 927.157293 
L 463.927962 924.363766 
L 472.606801 919.990181 
L 479.035569 916.210797 
L 485.946496 911.723998 
L 489.964477 908.827003 
L 497.036122 903.630949 
L 498.161157 902.766316 
L 498.161157 902.766316 
" clip-path="url(#p34ac0d10f0)" style="fill: none; stroke: #ff7f0e; stroke-width: 1.5; stroke-linecap: square"/>
   </g>
   <g id="line2d_55">
    <path d="M 152.293388 1106.800174 
L 152.614827 1066.190298 
L 152.936265 1043.22726 
L 153.579142 1023.447379 
L 153.900581 1018.331057 
L 154.222019 1016.161583 
L 154.382738 1015.612545 
L 154.704177 1015.76637 
L 154.864896 1015.728366 
L 155.186334 1016.078878 
L 155.347054 1016.467813 
L 155.668492 1018.157654 
L 156.311369 1021.917015 
L 157.275684 1025.884228 
L 158.07928 1028.091517 
L 158.722157 1029.413299 
L 159.204315 1029.890328 
L 160.007911 1029.942783 
L 160.650788 1030.375128 
L 161.132946 1030.995073 
L 161.454384 1031.436393 
L 164.186611 1038.590351 
L 166.597399 1043.782398 
L 167.883153 1045.812529 
L 168.686749 1046.997682 
L 169.651065 1048.050769 
L 170.293941 1048.598131 
L 171.097538 1049.574039 
L 172.222572 1050.358846 
L 173.829764 1051.783136 
L 175.115518 1053.096862 
L 176.240553 1054.493014 
L 176.88343 1055.28908 
L 177.687026 1056.236351 
L 178.329903 1056.873205 
L 179.615656 1058.081277 
L 182.026445 1059.562248 
L 182.99076 1059.950119 
L 185.240829 1060.585084 
L 190.223125 1061.256466 
L 191.991037 1061.238613 
L 193.598229 1061.441032 
L 195.848298 1061.632546 
L 197.45549 1061.678963 
L 198.098367 1061.628034 
L 208.705836 1060.364865 
L 210.795186 1059.731154 
L 219.474024 1055.770416 
L 220.920497 1055.007919 
L 223.009847 1053.747821 
L 228.956458 1050.413102 
L 229.920773 1049.959315 
L 232.010123 1048.82494 
L 239.081769 1045.008699 
L 240.84968 1043.98038 
L 254.510814 1036.085169 
L 255.314411 1035.659286 
L 268.171948 1027.995438 
L 270.582737 1026.613996 
L 288.422571 1015.53897 
L 301.119389 1007.387157 
L 320.084258 995.346351 
L 322.495046 993.697492 
L 329.566692 988.864669 
L 335.513303 985.017248 
L 338.566968 982.982913 
L 341.620634 980.963941 
L 347.406526 977.026124 
L 351.906664 973.963043 
L 358.013994 969.853353 
L 374.568074 959.677492 
L 383.246912 954.490121 
L 394.0151 947.891152 
L 397.229485 945.843367 
L 400.443869 944.010529 
L 407.033357 939.866724 
L 413.462126 936.166875 
L 427.926856 928.817148 
L 429.373329 928.231294 
L 431.141241 927.522759 
L 436.605694 925.529538 
L 438.373606 925.118019 
L 439.337921 924.870605 
L 442.552306 924.026519 
L 444.641656 923.77033 
L 446.891725 922.939672 
L 448.659636 922.54593 
L 449.463232 922.543159 
L 452.195459 921.606922 
L 461.999332 918.499068 
L 464.249401 918.299153 
L 467.945943 917.671133 
L 469.713854 917.230252 
L 471.481766 916.752324 
L 474.053274 915.978794 
L 476.94622 914.969311 
L 480.482042 913.533333 
L 488.035846 910.00897 
L 490.928792 908.21716 
L 495.750369 904.619011 
L 498.161157 902.766316 
L 498.161157 902.766316 
" clip-path="url(#p34ac0d10f0)" style="fill: none; stroke: #2ca02c; stroke-width: 1.5; stroke-linecap: square"/>
   </g>
   <g id="line2d_56">
    <path d="M 152.293388 1097.447596 
L 152.775546 1063.513738 
L 153.579142 1038.597461 
L 154.222019 1030.739487 
L 154.704177 1027.341723 
L 154.864896 1026.695204 
L 155.347054 1023.543776 
L 156.15065 1022.006754 
L 156.311369 1021.997477 
L 156.472088 1021.710863 
L 156.954246 1022.458795 
L 157.436404 1022.895473 
L 157.597123 1022.905673 
L 157.757842 1022.760586 
L 157.918561 1022.408204 
L 158.07928 1022.63363 
L 158.24 1022.575163 
L 158.561438 1022.934628 
L 158.722157 1022.810067 
L 158.882877 1022.908258 
L 159.043596 1022.712834 
L 159.365034 1023.080933 
L 160.007911 1023.453239 
L 160.16863 1023.515473 
L 160.811507 1024.671145 
L 162.097261 1027.908643 
L 165.793803 1036.980144 
L 166.115242 1037.470587 
L 166.918838 1038.976599 
L 167.400995 1039.742712 
L 168.043872 1040.764066 
L 168.686749 1041.83871 
L 169.168907 1042.649806 
L 170.776099 1045.143817 
L 176.079833 1052.671017 
L 178.97278 1056.131783 
L 181.383568 1058.461169 
L 189.419529 1063.469713 
L 196.009017 1066.007286 
L 197.616209 1066.362061 
L 199.384121 1066.736954 
L 200.348436 1066.795755 
L 201.473471 1066.880558 
L 208.545117 1067.235434 
L 210.634466 1067.077752 
L 220.438339 1065.647096 
L 223.170566 1065.023175 
L 225.099197 1064.426254 
L 227.670704 1063.83147 
L 230.402931 1063.009432 
L 232.170842 1062.474769 
L 233.456596 1061.937668 
L 234.903069 1061.415323 
L 241.331838 1058.88429 
L 242.296153 1058.527441 
L 244.546223 1057.733814 
L 246.153415 1057.23488 
L 248.403484 1056.441217 
L 250.171395 1055.838916 
L 251.29643 1055.435792 
L 261.100303 1052.048355 
L 268.171948 1048.985899 
L 270.422018 1048.011995 
L 274.439998 1046.213791 
L 278.779417 1044.355853 
L 283.440275 1042.522367 
L 288.422571 1040.462294 
L 300.476512 1035.305248 
L 305.780247 1032.789616 
L 308.512474 1031.637946 
L 318.637785 1026.973403 
L 321.370011 1025.7715 
L 327.155903 1023.164307 
L 335.513303 1019.460523 
L 338.888407 1017.866284 
L 346.120772 1014.317507 
L 354.156733 1009.848196 
L 362.192694 1005.009781 
L 366.371394 1002.562806 
L 373.603759 998.052261 
L 375.693109 996.688253 
L 383.889789 991.184663 
L 390.157839 986.905859 
L 393.211504 984.851918 
L 397.229485 982.08989 
L 417.801545 967.411424 
L 422.623122 963.75008 
L 434.355625 954.607749 
L 444.320217 946.834265 
L 448.498917 943.55611 
L 459.588543 934.457895 
L 477.589096 919.173313 
L 484.017865 913.969206 
L 498.161157 902.766716 
L 498.161157 902.766716 
" clip-path="url(#p34ac0d10f0)" style="fill: none; stroke: #d62728; stroke-width: 1.5; stroke-linecap: square"/>
   </g>
   <g id="patch_35">
    <path d="M 135 1153.44 
L 135 890.829474 
" style="fill: none; stroke: #000000; stroke-width: 0.8; stroke-linejoin: miter; stroke-linecap: square"/>
   </g>
   <g id="patch_36">
    <path d="M 515.454545 1153.44 
L 515.454545 890.829474 
" style="fill: none; stroke: #000000; stroke-width: 0.8; stroke-linejoin: miter; stroke-linecap: square"/>
   </g>
   <g id="patch_37">
    <path d="M 135 1153.44 
L 515.454545 1153.44 
" style="fill: none; stroke: #000000; stroke-width: 0.8; stroke-linejoin: miter; stroke-linecap: square"/>
   </g>
   <g id="patch_38">
    <path d="M 135 890.829474 
L 515.454545 890.829474 
" style="fill: none; stroke: #000000; stroke-width: 0.8; stroke-linejoin: miter; stroke-linecap: square"/>
   </g>
   <g id="text_57">
    <!-- e -->
    <g transform="translate(89.376307 872.71352) scale(0.28 -0.28)">
     <defs>
      <path id="DejaVuSans-Bold-65" d="M 4031 1759 
L 4031 1441 
L 1416 1441 
Q 1456 1047 1700 850 
Q 1944 653 2381 653 
Q 2734 653 3104 758 
Q 3475 863 3866 1075 
L 3866 213 
Q 3469 63 3072 -14 
Q 2675 -91 2278 -91 
Q 1328 -91 801 392 
Q 275 875 275 1747 
Q 275 2603 792 3093 
Q 1309 3584 2216 3584 
Q 3041 3584 3536 3087 
Q 4031 2591 4031 1759 
z
M 2881 2131 
Q 2881 2450 2695 2645 
Q 2509 2841 2209 2841 
Q 1884 2841 1681 2658 
Q 1478 2475 1428 2131 
L 2881 2131 
z
" transform="scale(0.015625)"/>
     </defs>
     <use xlink:href="#DejaVuSans-Bold-65"/>
    </g>
   </g>
   <g id="text_58">
    <!-- $Q_{NN}$ -->
    <g transform="translate(302.787273 884.829474) scale(0.24 -0.24)">
     <use xlink:href="#DejaVuSans-Oblique-51" transform="translate(0 0.78125)"/>
     <use xlink:href="#DejaVuSans-Oblique-4e" transform="translate(78.710938 -15.625) scale(0.7)"/>
     <use xlink:href="#DejaVuSans-Oblique-4e" transform="translate(131.074219 -15.625) scale(0.7)"/>
    </g>
   </g>
  </g>
  <g id="axes_6">
   <g id="patch_39">
    <path d="M 591.545455 1153.44 
L 972 1153.44 
L 972 890.829474 
L 591.545455 890.829474 
z
" style="fill: #ffffff"/>
   </g>
   <g id="matplotlib.axis_11">
    <g id="xtick_21">
     <g id="line2d_57">
      <g>
       <use xlink:href="#mc963864732" x="608.678124" y="1153.44" style="stroke: #000000; stroke-width: 0.8"/>
      </g>
     </g>
     <g id="text_59">
      <!-- 0 -->
      <g transform="translate(601.679374 1177.156562) scale(0.22 -0.22)">
       <use xlink:href="#DejaVuSans-30"/>
      </g>
     </g>
    </g>
    <g id="xtick_22">
     <g id="line2d_58">
      <g>
       <use xlink:href="#mc963864732" x="689.037735" y="1153.44" style="stroke: #000000; stroke-width: 0.8"/>
      </g>
     </g>
     <g id="text_60">
      <!-- 500 -->
      <g transform="translate(668.041485 1177.156562) scale(0.22 -0.22)">
       <use xlink:href="#DejaVuSans-35"/>
       <use xlink:href="#DejaVuSans-30" x="63.623047"/>
       <use xlink:href="#DejaVuSans-30" x="127.246094"/>
      </g>
     </g>
    </g>
    <g id="xtick_23">
     <g id="line2d_59">
      <g>
       <use xlink:href="#mc963864732" x="769.397347" y="1153.44" style="stroke: #000000; stroke-width: 0.8"/>
      </g>
     </g>
     <g id="text_61">
      <!-- 1000 -->
      <g transform="translate(741.402347 1177.156562) scale(0.22 -0.22)">
       <use xlink:href="#DejaVuSans-31"/>
       <use xlink:href="#DejaVuSans-30" x="63.623047"/>
       <use xlink:href="#DejaVuSans-30" x="127.246094"/>
       <use xlink:href="#DejaVuSans-30" x="190.869141"/>
      </g>
     </g>
    </g>
    <g id="xtick_24">
     <g id="line2d_60">
      <g>
       <use xlink:href="#mc963864732" x="849.756959" y="1153.44" style="stroke: #000000; stroke-width: 0.8"/>
      </g>
     </g>
     <g id="text_62">
      <!-- 1500 -->
      <g transform="translate(821.761959 1177.156562) scale(0.22 -0.22)">
       <use xlink:href="#DejaVuSans-31"/>
       <use xlink:href="#DejaVuSans-35" x="63.623047"/>
       <use xlink:href="#DejaVuSans-30" x="127.246094"/>
       <use xlink:href="#DejaVuSans-30" x="190.869141"/>
      </g>
     </g>
    </g>
    <g id="xtick_25">
     <g id="line2d_61">
      <g>
       <use xlink:href="#mc963864732" x="930.11657" y="1153.44" style="stroke: #000000; stroke-width: 0.8"/>
      </g>
     </g>
     <g id="text_63">
      <!-- 2000 -->
      <g transform="translate(902.12157 1177.156562) scale(0.22 -0.22)">
       <use xlink:href="#DejaVuSans-32"/>
       <use xlink:href="#DejaVuSans-30" x="63.623047"/>
       <use xlink:href="#DejaVuSans-30" x="127.246094"/>
       <use xlink:href="#DejaVuSans-30" x="190.869141"/>
      </g>
     </g>
    </g>
    <g id="text_64">
     <!-- k -->
     <g transform="translate(774.823977 1203.968125) scale(0.24 -0.24)">
      <use xlink:href="#DejaVuSans-6b"/>
     </g>
    </g>
   </g>
   <g id="matplotlib.axis_12">
    <g id="ytick_21">
     <g id="line2d_62">
      <g>
       <use xlink:href="#ma649cffb5f" x="591.545455" y="1137.55744" style="stroke: #000000; stroke-width: 0.8"/>
      </g>
     </g>
     <g id="text_65">
      <!-- 0.0 -->
      <g transform="translate(549.55858 1145.915721) scale(0.22 -0.22)">
       <use xlink:href="#DejaVuSans-30"/>
       <use xlink:href="#DejaVuSans-2e" x="63.623047"/>
       <use xlink:href="#DejaVuSans-30" x="95.410156"/>
      </g>
     </g>
    </g>
    <g id="ytick_22">
     <g id="line2d_63">
      <g>
       <use xlink:href="#ma649cffb5f" x="591.545455" y="1070.483138" style="stroke: #000000; stroke-width: 0.8"/>
      </g>
     </g>
     <g id="text_66">
      <!-- 0.2 -->
      <g transform="translate(549.55858 1078.841419) scale(0.22 -0.22)">
       <use xlink:href="#DejaVuSans-30"/>
       <use xlink:href="#DejaVuSans-2e" x="63.623047"/>
       <use xlink:href="#DejaVuSans-32" x="95.410156"/>
      </g>
     </g>
    </g>
    <g id="ytick_23">
     <g id="line2d_64">
      <g>
       <use xlink:href="#ma649cffb5f" x="591.545455" y="1003.408836" style="stroke: #000000; stroke-width: 0.8"/>
      </g>
     </g>
     <g id="text_67">
      <!-- 0.4 -->
      <g transform="translate(549.55858 1011.767117) scale(0.22 -0.22)">
       <use xlink:href="#DejaVuSans-30"/>
       <use xlink:href="#DejaVuSans-2e" x="63.623047"/>
       <use xlink:href="#DejaVuSans-34" x="95.410156"/>
      </g>
     </g>
    </g>
    <g id="ytick_24">
     <g id="line2d_65">
      <g>
       <use xlink:href="#ma649cffb5f" x="591.545455" y="936.334534" style="stroke: #000000; stroke-width: 0.8"/>
      </g>
     </g>
     <g id="text_68">
      <!-- 0.6 -->
      <g transform="translate(549.55858 944.692815) scale(0.22 -0.22)">
       <use xlink:href="#DejaVuSans-30"/>
       <use xlink:href="#DejaVuSans-2e" x="63.623047"/>
       <use xlink:href="#DejaVuSans-36" x="95.410156"/>
      </g>
     </g>
    </g>
   </g>
   <g id="line2d_66">
    <path d="M 608.838843 1104.394034 
L 609.160281 1095.311849 
L 609.803158 1090.292761 
L 610.124597 1088.202117 
L 610.767474 1085.387882 
L 610.928193 1085.177506 
L 611.249631 1084.242078 
L 611.57107 1083.012865 
L 612.053227 1081.211444 
L 612.696104 1078.606106 
L 613.66042 1076.059335 
L 613.821139 1075.801534 
L 613.981858 1075.309303 
L 614.142577 1075.203218 
L 615.267612 1073.056244 
L 615.58905 1072.718147 
L 615.910489 1072.150621 
L 616.231927 1071.873235 
L 618.803435 1067.770162 
L 620.732066 1065.271672 
L 622.017819 1063.524791 
L 623.785731 1061.322359 
L 624.267888 1060.823451 
L 624.589327 1060.397038 
L 624.910765 1060.002933 
L 626.0358 1058.616739 
L 626.517958 1058.105252 
L 627.482273 1056.966713 
L 628.607307 1055.969837 
L 629.250184 1055.327012 
L 629.410904 1055.242843 
L 629.732342 1054.875125 
L 630.2145 1054.530624 
L 631.500253 1053.76869 
L 633.589603 1053.19389 
L 634.23248 1053.153703 
L 635.357515 1053.036247 
L 636.161111 1052.912478 
L 636.964707 1052.906342 
L 639.857653 1052.519933 
L 640.50053 1052.502177 
L 641.304126 1052.375905 
L 641.947003 1052.30607 
L 643.554195 1052.048798 
L 645.161387 1051.769675 
L 646.447141 1051.603807 
L 647.572176 1051.426846 
L 649.179368 1051.098911 
L 660.429714 1049.457629 
L 669.590709 1048.781231 
L 670.394306 1048.749078 
L 672.644375 1048.708226 
L 674.251567 1048.68811 
L 676.983794 1048.643012 
L 679.073144 1048.619609 
L 683.251843 1048.833928 
L 684.216159 1048.948443 
L 686.626947 1049.151115 
L 693.859312 1049.923623 
L 695.145066 1050.13163 
L 696.43082 1050.28223 
L 699.805923 1050.731006 
L 702.055993 1051.105842 
L 707.199008 1051.926213 
L 708.645481 1052.218593 
L 712.020584 1052.83039 
L 717.324319 1054.008971 
L 719.09223 1054.360856 
L 730.342576 1057.037608 
L 735.64631 1058.52538 
L 740.467887 1059.917061 
L 743.039394 1060.696089 
L 748.825286 1062.481303 
L 753.003986 1063.90068 
L 764.73649 1068.058163 
L 812.30938 1087.01372 
L 815.041607 1088.116069 
L 824.202602 1091.724823 
L 840.435244 1098.204387 
L 863.578812 1106.468711 
L 874.829158 1109.960295 
L 880.45433 1111.551529 
L 889.293888 1114.219102 
L 896.044095 1116.586478 
L 904.080056 1119.901161 
L 914.848244 1124.4831 
L 922.723486 1127.909989 
L 933.330955 1132.689071 
L 941.527635 1135.437984 
L 945.706335 1136.527809 
L 947.313527 1136.898811 
L 951.492227 1137.480882 
L 954.706612 1137.55744 
L 954.706612 1137.55744 
" clip-path="url(#pa3ee486230)" style="fill: none; stroke: #1f77b4; stroke-width: 1.5; stroke-linecap: square"/>
   </g>
   <g id="line2d_67">
    <path d="M 608.838843 902.766316 
L 609.642439 915.248393 
L 609.803158 916.267911 
L 610.606754 927.211553 
L 611.57107 937.228499 
L 612.213947 942.159196 
L 612.856824 947.411267 
L 613.821139 953.180353 
L 614.303297 955.88817 
L 617.517681 968.344169 
L 618.803435 974.02322 
L 619.285592 976.175112 
L 621.696381 985.722123 
L 622.982135 989.896567 
L 623.94645 992.454632 
L 625.232204 995.436129 
L 629.089465 1001.954468 
L 629.732342 1002.877054 
L 631.339534 1005.831343 
L 634.553919 1012.067566 
L 637.446865 1016.461541 
L 637.929022 1017.088437 
L 640.821968 1020.76484 
L 644.036353 1024.896788 
L 648.054333 1029.531552 
L 650.625841 1032.06619 
L 652.715191 1033.951188 
L 658.501083 1038.751388 
L 664.447694 1042.823586 
L 669.590709 1045.59663 
L 671.51934 1046.625172 
L 681.483932 1051.373199 
L 689.841332 1054.431371 
L 696.2701 1056.362972 
L 700.127362 1057.230984 
L 701.413116 1057.493424 
L 704.306062 1058.186846 
L 706.073973 1058.617625 
L 707.841885 1059.098683 
L 708.966919 1059.346319 
L 712.502742 1060.079543 
L 714.752811 1060.467881 
L 720.699422 1061.687983 
L 723.431649 1062.28854 
L 741.592921 1066.587937 
L 744.00371 1067.248243 
L 746.896656 1068.079523 
L 756.700528 1070.704559 
L 768.433032 1074.220825 
L 771.004539 1075.134288 
L 780.004816 1078.250261 
L 800.255438 1085.881285 
L 803.148384 1086.999771 
L 807.648522 1088.691806 
L 814.880887 1091.553207 
L 818.255991 1092.864711 
L 824.041883 1095.184363 
L 834.167194 1099.260649 
L 838.667332 1101.033051 
L 855.864289 1107.294673 
L 859.560831 1108.519962 
L 862.935935 1109.611038 
L 872.096931 1112.524666 
L 891.061799 1119.232845 
L 899.25848 1122.831517 
L 911.794579 1128.196885 
L 920.794855 1131.817067 
L 926.580747 1133.881968 
L 930.759447 1134.965931 
L 934.938147 1135.900074 
L 938.47397 1136.583555 
L 941.527635 1136.967289 
L 945.867054 1137.237616 
L 953.903015 1137.559253 
L 954.706612 1137.55744 
L 954.706612 1137.55744 
" clip-path="url(#pa3ee486230)" style="fill: none; stroke: #ff7f0e; stroke-width: 1.5; stroke-linecap: square"/>
   </g>
   <g id="line2d_68">
    <path d="M 608.838843 1060.487458 
L 609.160281 1009.41896 
L 609.48172 980.677424 
L 609.963878 960.627749 
L 610.446035 950.113106 
L 610.767474 947.679803 
L 610.928193 947.140924 
L 611.731789 948.509781 
L 612.053227 950.218301 
L 613.178262 959.047202 
L 613.66042 962.420557 
L 613.981858 963.721678 
L 615.428331 969.192621 
L 615.58905 969.429428 
L 615.910489 970.037556 
L 616.714085 970.986978 
L 617.356962 972.248529 
L 618.321277 975.348776 
L 619.928469 982.428156 
L 621.214223 987.682684 
L 623.303573 995.070395 
L 624.428608 998.434887 
L 625.392923 1001.123418 
L 626.357238 1003.292233 
L 627.160834 1005.114927 
L 627.803711 1006.586858 
L 628.928746 1008.711154 
L 629.893061 1010.619608 
L 630.857377 1012.850674 
L 631.982411 1015.438063 
L 633.911042 1020.311042 
L 635.036076 1022.918337 
L 636.32183 1025.619152 
L 637.446865 1027.595187 
L 640.179092 1031.879511 
L 646.447141 1039.285849 
L 649.018649 1041.891982 
L 650.304403 1043.312709 
L 654.322383 1047.475968 
L 656.090295 1048.972357 
L 657.858206 1050.39531 
L 658.340364 1050.756745 
L 661.394029 1053.349514 
L 662.358344 1054.149402 
L 664.286975 1055.762746 
L 666.376325 1057.12661 
L 667.34064 1057.635304 
L 675.858759 1061.014876 
L 676.340917 1061.151344 
L 677.305232 1061.46922 
L 677.78739 1061.577584 
L 678.912424 1061.852567 
L 681.001774 1062.153363 
L 681.644651 1062.34057 
L 685.341193 1063.386445 
L 687.430543 1064.074303 
L 690.16277 1064.893088 
L 691.769962 1065.419142 
L 699.323766 1067.370562 
L 700.4488 1067.554952 
L 705.109658 1068.549175 
L 706.71685 1068.988402 
L 707.520446 1069.192415 
L 708.645481 1069.527752 
L 709.931234 1069.820893 
L 710.89555 1070.045344 
L 715.234969 1071.069425 
L 717.00288 1071.350144 
L 722.306615 1072.434034 
L 727.288911 1073.712348 
L 729.53898 1074.030269 
L 738.057099 1075.766779 
L 739.182133 1075.944011 
L 745.610902 1077.032239 
L 746.414498 1077.149176 
L 755.736213 1078.62939 
L 756.539809 1078.742551 
L 759.914913 1079.38502 
L 760.879228 1079.508002 
L 763.772174 1079.91056 
L 765.379366 1080.233853 
L 770.200943 1081.170019 
L 771.808135 1081.500587 
L 774.058205 1081.82542 
L 787.880058 1083.325904 
L 790.290846 1083.716987 
L 794.630265 1084.300259 
L 806.202049 1085.650967 
L 807.648522 1085.802984 
L 816.166641 1086.961451 
L 818.095272 1087.35255 
L 822.273972 1088.072991 
L 823.720445 1088.374677 
L 828.059864 1089.142196 
L 831.595687 1089.894548 
L 834.006475 1090.469841 
L 836.256544 1090.951046 
L 837.542298 1091.219719 
L 842.363874 1092.157493 
L 845.25682 1092.865122 
L 847.185451 1093.251956 
L 849.917678 1093.626948 
L 853.61422 1094.192203 
L 857.310762 1095.082187 
L 864.382408 1096.351704 
L 870.007581 1097.725703 
L 872.739808 1098.704983 
L 873.864842 1099.03086 
L 881.740084 1101.310054 
L 883.990153 1102.21465 
L 891.865395 1105.980359 
L 893.151149 1106.698027 
L 894.758341 1107.756286 
L 895.561937 1108.320921 
L 898.776322 1110.340318 
L 899.901356 1111.248501 
L 901.347829 1112.33205 
L 903.437179 1113.390542 
L 905.205091 1114.605839 
L 906.008687 1115.38118 
L 908.098037 1116.510259 
L 913.56249 1119.436782 
L 915.330402 1120.447561 
L 918.544786 1122.414568 
L 920.955575 1124.469549 
L 924.491398 1127.130523 
L 926.259309 1128.286179 
L 927.545063 1129.103439 
L 931.241605 1131.296812 
L 933.170236 1132.280345 
L 937.509655 1134.236383 
L 945.867054 1137.2391 
L 948.76 1137.52077 
L 954.706612 1137.55744 
L 954.706612 1137.55744 
" clip-path="url(#pa3ee486230)" style="fill: none; stroke: #2ca02c; stroke-width: 1.5; stroke-linecap: square"/>
   </g>
   <g id="line2d_69">
    <path d="M 608.838843 1048.65448 
L 609.321001 1006.188318 
L 610.124597 975.442831 
L 610.606754 968.406405 
L 610.928193 964.690209 
L 611.892508 958.110217 
L 612.696104 956.944407 
L 612.856824 957.08844 
L 613.017543 956.881581 
L 613.4997 958.295182 
L 613.981858 959.314978 
L 614.142577 959.483653 
L 614.303297 959.455857 
L 614.464016 959.165789 
L 614.624735 959.606769 
L 614.785454 959.688566 
L 615.106893 960.454904 
L 615.267612 960.453078 
L 615.428331 960.733079 
L 615.58905 960.641596 
L 616.874804 963.229245 
L 617.356962 964.832735 
L 619.285592 972.7427 
L 620.732066 978.915843 
L 621.696381 982.740812 
L 623.625012 989.258511 
L 627.964431 1002.253678 
L 628.607307 1004.014726 
L 633.589603 1017.541268 
L 637.929022 1027.522708 
L 646.125703 1041.885404 
L 647.893614 1044.538423 
L 649.661526 1047.214791 
L 650.625841 1048.53906 
L 653.197349 1052.075605 
L 658.340364 1057.991873 
L 659.947556 1059.717815 
L 661.554748 1061.397562 
L 662.358344 1062.278748 
L 664.126256 1064.099686 
L 667.822798 1067.290629 
L 669.108552 1068.277898 
L 669.912148 1069.000633 
L 671.51934 1070.304667 
L 672.322936 1070.974856 
L 673.447971 1071.846099 
L 676.662355 1074.223735 
L 677.948109 1075.136378 
L 681.96609 1077.666503 
L 684.055439 1079.084112 
L 689.198455 1082.02877 
L 690.002051 1082.390494 
L 691.287805 1083.056407 
L 699.966643 1087.23051 
L 701.252396 1087.924698 
L 705.591815 1090.286434 
L 708.8062 1091.95001 
L 711.216988 1093.360227 
L 712.9849 1094.373604 
L 714.431373 1095.136161 
L 719.09223 1097.324185 
L 723.110211 1099.097082 
L 725.681718 1100.012236 
L 727.288911 1100.741614 
L 729.056822 1101.530833 
L 733.878399 1103.391996 
L 741.592921 1106.963371 
L 743.360833 1107.759131 
L 744.646587 1108.354562 
L 748.503848 1110.05714 
L 749.789602 1110.645262 
L 757.343405 1113.760262 
L 760.55779 1114.94574 
L 762.48642 1115.687025 
L 763.932893 1116.3026 
L 770.683101 1118.923979 
L 772.451012 1119.612746 
L 774.379643 1120.352039 
L 781.29057 1123.186448 
L 784.022796 1124.277927 
L 789.647969 1126.664575 
L 796.719615 1129.295888 
L 798.326807 1129.860426 
L 803.309103 1131.51343 
L 813.595133 1134.106344 
L 818.255991 1135.030919 
L 825.006198 1136.508334 
L 830.149213 1137.392927 
L 831.756406 1137.600382 
L 833.04216 1137.802938 
L 837.703017 1138.392103 
L 839.14949 1138.554391 
L 862.935935 1140.841097 
L 864.543127 1141.027977 
L 865.668162 1141.127621 
L 874.347 1141.462405 
L 878.204261 1141.454253 
L 879.972173 1141.501375 
L 890.579641 1141.327009 
L 894.758341 1141.188735 
L 903.115741 1141.134297 
L 915.491121 1140.34275 
L 920.473417 1139.751892 
L 926.420028 1139.143817 
L 931.723763 1138.613353 
L 937.188216 1138.157035 
L 950.045754 1137.61963 
L 954.706612 1137.557946 
L 954.706612 1137.557946 
" clip-path="url(#pa3ee486230)" style="fill: none; stroke: #d62728; stroke-width: 1.5; stroke-linecap: square"/>
   </g>
   <g id="patch_40">
    <path d="M 591.545455 1153.44 
L 591.545455 890.829474 
" style="fill: none; stroke: #000000; stroke-width: 0.8; stroke-linejoin: miter; stroke-linecap: square"/>
   </g>
   <g id="patch_41">
    <path d="M 972 1153.44 
L 972 890.829474 
" style="fill: none; stroke: #000000; stroke-width: 0.8; stroke-linejoin: miter; stroke-linecap: square"/>
   </g>
   <g id="patch_42">
    <path d="M 591.545455 1153.44 
L 972 1153.44 
" style="fill: none; stroke: #000000; stroke-width: 0.8; stroke-linejoin: miter; stroke-linecap: square"/>
   </g>
   <g id="patch_43">
    <path d="M 591.545455 890.829474 
L 972 890.829474 
" style="fill: none; stroke: #000000; stroke-width: 0.8; stroke-linejoin: miter; stroke-linecap: square"/>
   </g>
   <g id="text_69">
    <!-- f -->
    <g transform="translate(552.733636 872.71352) scale(0.28 -0.28)">
     <defs>
      <path id="DejaVuSans-Bold-66" d="M 2841 4863 
L 2841 4128 
L 2222 4128 
Q 1984 4128 1890 4042 
Q 1797 3956 1797 3744 
L 1797 3500 
L 2753 3500 
L 2753 2700 
L 1797 2700 
L 1797 0 
L 678 0 
L 678 2700 
L 122 2700 
L 122 3500 
L 678 3500 
L 678 3744 
Q 678 4316 997 4589 
Q 1316 4863 1984 4863 
L 2841 4863 
z
" transform="scale(0.015625)"/>
     </defs>
     <use xlink:href="#DejaVuSans-Bold-66"/>
    </g>
   </g>
   <g id="text_70">
    <!-- LCMC -->
    <g transform="translate(747.973977 884.829474) scale(0.24 -0.24)">
     <defs>
      <path id="DejaVuSans-4c" d="M 628 4666 
L 1259 4666 
L 1259 531 
L 3531 531 
L 3531 0 
L 628 0 
L 628 4666 
z
" transform="scale(0.015625)"/>
     </defs>
     <use xlink:href="#DejaVuSans-4c"/>
     <use xlink:href="#DejaVuSans-43" x="55.712891"/>
     <use xlink:href="#DejaVuSans-4d" x="125.537109"/>
     <use xlink:href="#DejaVuSans-43" x="211.816406"/>
    </g>
   </g>
  </g>
 </g>
 <defs>
  <clipPath id="p76eb7eedd8">
   <rect x="135" y="155.52" width="380.454545" height="262.610526"/>
  </clipPath>
  <clipPath id="p94804b8332">
   <rect x="591.545455" y="155.52" width="380.454545" height="262.610526"/>
  </clipPath>
  <clipPath id="pd92a986b4a">
   <rect x="135" y="523.174737" width="380.454545" height="262.610526"/>
  </clipPath>
  <clipPath id="p30a6443290">
   <rect x="591.545455" y="523.174737" width="380.454545" height="262.610526"/>
  </clipPath>
  <clipPath id="p34ac0d10f0">
   <rect x="135" y="890.829474" width="380.454545" height="262.610526"/>
  </clipPath>
  <clipPath id="pa3ee486230">
   <rect x="591.545455" y="890.829474" width="380.454545" height="262.610526"/>
  </clipPath>
 </defs>
</svg>
