<?xml version="1.0" encoding="utf-8" standalone="no"?>
<!DOCTYPE svg PUBLIC "-//W3C//DTD SVG 1.1//EN"
  "http://www.w3.org/Graphics/SVG/1.1/DTD/svg11.dtd">
<svg xmlns:xlink="http://www.w3.org/1999/xlink" width="1080pt" height="1296pt" viewBox="0 0 1080 1296" xmlns="http://www.w3.org/2000/svg" version="1.1">
 <metadata>
  <rdf:RDF xmlns:dc="http://purl.org/dc/elements/1.1/" xmlns:cc="http://creativecommons.org/ns#" xmlns:rdf="http://www.w3.org/1999/02/22-rdf-syntax-ns#">
   <cc:Work>
    <dc:type rdf:resource="http://purl.org/dc/dcmitype/StillImage"/>
    <dc:date>2024-07-24T02:42:57.608174</dc:date>
    <dc:format>image/svg+xml</dc:format>
    <dc:creator>
     <cc:Agent>
      <dc:title>Matplotlib v3.8.4, https://matplotlib.org/</dc:title>
     </cc:Agent>
    </dc:creator>
   </cc:Work>
  </rdf:RDF>
 </metadata>
 <defs>
  <style type="text/css">*{stroke-linejoin: round; stroke-linecap: butt}</style>
 </defs>
 <g id="figure_1">
  <g id="patch_1">
   <path d="M 0 1296 
L 1080 1296 
L 1080 0 
L 0 0 
z
" style="fill: #ffffff"/>
  </g>
  <g id="axes_1">
   <g id="patch_2">
    <path d="M 135 418.130526 
L 515.454545 418.130526 
L 515.454545 155.52 
L 135 155.52 
z
" style="fill: #ffffff"/>
   </g>
   <g id="matplotlib.axis_1">
    <g id="xtick_1">
     <g id="line2d_1">
      <defs>
       <path id="m6bc0dfcf14" d="M 0 0 
L 0 3.5 
" style="stroke: #000000; stroke-width: 0.8"/>
      </defs>
      <g>
       <use xlink:href="#m6bc0dfcf14" x="137.882231" y="418.130526" style="stroke: #000000; stroke-width: 0.8"/>
      </g>
     </g>
     <g id="text_1">
      <!-- 0 -->
      <g transform="translate(131.519731 440.327401) scale(0.2 -0.2)">
       <defs>
        <path id="DejaVuSans-30" d="M 2034 4250 
Q 1547 4250 1301 3770 
Q 1056 3291 1056 2328 
Q 1056 1369 1301 889 
Q 1547 409 2034 409 
Q 2525 409 2770 889 
Q 3016 1369 3016 2328 
Q 3016 3291 2770 3770 
Q 2525 4250 2034 4250 
z
M 2034 4750 
Q 2819 4750 3233 4129 
Q 3647 3509 3647 2328 
Q 3647 1150 3233 529 
Q 2819 -91 2034 -91 
Q 1250 -91 836 529 
Q 422 1150 422 2328 
Q 422 3509 836 4129 
Q 1250 4750 2034 4750 
z
" transform="scale(0.015625)"/>
       </defs>
       <use xlink:href="#DejaVuSans-30"/>
      </g>
     </g>
    </g>
    <g id="xtick_2">
     <g id="line2d_2">
      <g>
       <use xlink:href="#m6bc0dfcf14" x="209.938017" y="418.130526" style="stroke: #000000; stroke-width: 0.8"/>
      </g>
     </g>
     <g id="text_2">
      <!-- 10 -->
      <g transform="translate(197.213017 440.327401) scale(0.2 -0.2)">
       <defs>
        <path id="DejaVuSans-31" d="M 794 531 
L 1825 531 
L 1825 4091 
L 703 3866 
L 703 4441 
L 1819 4666 
L 2450 4666 
L 2450 531 
L 3481 531 
L 3481 0 
L 794 0 
L 794 531 
z
" transform="scale(0.015625)"/>
       </defs>
       <use xlink:href="#DejaVuSans-31"/>
       <use xlink:href="#DejaVuSans-30" x="63.623047"/>
      </g>
     </g>
    </g>
    <g id="xtick_3">
     <g id="line2d_3">
      <g>
       <use xlink:href="#m6bc0dfcf14" x="281.993802" y="418.130526" style="stroke: #000000; stroke-width: 0.8"/>
      </g>
     </g>
     <g id="text_3">
      <!-- 20 -->
      <g transform="translate(269.268802 440.327401) scale(0.2 -0.2)">
       <defs>
        <path id="DejaVuSans-32" d="M 1228 531 
L 3431 531 
L 3431 0 
L 469 0 
L 469 531 
Q 828 903 1448 1529 
Q 2069 2156 2228 2338 
Q 2531 2678 2651 2914 
Q 2772 3150 2772 3378 
Q 2772 3750 2511 3984 
Q 2250 4219 1831 4219 
Q 1534 4219 1204 4116 
Q 875 4013 500 3803 
L 500 4441 
Q 881 4594 1212 4672 
Q 1544 4750 1819 4750 
Q 2544 4750 2975 4387 
Q 3406 4025 3406 3419 
Q 3406 3131 3298 2873 
Q 3191 2616 2906 2266 
Q 2828 2175 2409 1742 
Q 1991 1309 1228 531 
z
" transform="scale(0.015625)"/>
       </defs>
       <use xlink:href="#DejaVuSans-32"/>
       <use xlink:href="#DejaVuSans-30" x="63.623047"/>
      </g>
     </g>
    </g>
    <g id="xtick_4">
     <g id="line2d_4">
      <g>
       <use xlink:href="#m6bc0dfcf14" x="354.049587" y="418.130526" style="stroke: #000000; stroke-width: 0.8"/>
      </g>
     </g>
     <g id="text_4">
      <!-- 30 -->
      <g transform="translate(341.324587 440.327401) scale(0.2 -0.2)">
       <defs>
        <path id="DejaVuSans-33" d="M 2597 2516 
Q 3050 2419 3304 2112 
Q 3559 1806 3559 1356 
Q 3559 666 3084 287 
Q 2609 -91 1734 -91 
Q 1441 -91 1130 -33 
Q 819 25 488 141 
L 488 750 
Q 750 597 1062 519 
Q 1375 441 1716 441 
Q 2309 441 2620 675 
Q 2931 909 2931 1356 
Q 2931 1769 2642 2001 
Q 2353 2234 1838 2234 
L 1294 2234 
L 1294 2753 
L 1863 2753 
Q 2328 2753 2575 2939 
Q 2822 3125 2822 3475 
Q 2822 3834 2567 4026 
Q 2313 4219 1838 4219 
Q 1578 4219 1281 4162 
Q 984 4106 628 3988 
L 628 4550 
Q 988 4650 1302 4700 
Q 1616 4750 1894 4750 
Q 2613 4750 3031 4423 
Q 3450 4097 3450 3541 
Q 3450 3153 3228 2886 
Q 3006 2619 2597 2516 
z
" transform="scale(0.015625)"/>
       </defs>
       <use xlink:href="#DejaVuSans-33"/>
       <use xlink:href="#DejaVuSans-30" x="63.623047"/>
      </g>
     </g>
    </g>
    <g id="xtick_5">
     <g id="line2d_5">
      <g>
       <use xlink:href="#m6bc0dfcf14" x="426.105372" y="418.130526" style="stroke: #000000; stroke-width: 0.8"/>
      </g>
     </g>
     <g id="text_5">
      <!-- 40 -->
      <g transform="translate(413.380372 440.327401) scale(0.2 -0.2)">
       <defs>
        <path id="DejaVuSans-34" d="M 2419 4116 
L 825 1625 
L 2419 1625 
L 2419 4116 
z
M 2253 4666 
L 3047 4666 
L 3047 1625 
L 3713 1625 
L 3713 1100 
L 3047 1100 
L 3047 0 
L 2419 0 
L 2419 1100 
L 313 1100 
L 313 1709 
L 2253 4666 
z
" transform="scale(0.015625)"/>
       </defs>
       <use xlink:href="#DejaVuSans-34"/>
       <use xlink:href="#DejaVuSans-30" x="63.623047"/>
      </g>
     </g>
    </g>
    <g id="xtick_6">
     <g id="line2d_6">
      <g>
       <use xlink:href="#m6bc0dfcf14" x="498.161157" y="418.130526" style="stroke: #000000; stroke-width: 0.8"/>
      </g>
     </g>
     <g id="text_6">
      <!-- 50 -->
      <g transform="translate(485.436157 440.327401) scale(0.2 -0.2)">
       <defs>
        <path id="DejaVuSans-35" d="M 691 4666 
L 3169 4666 
L 3169 4134 
L 1269 4134 
L 1269 2991 
Q 1406 3038 1543 3061 
Q 1681 3084 1819 3084 
Q 2600 3084 3056 2656 
Q 3513 2228 3513 1497 
Q 3513 744 3044 326 
Q 2575 -91 1722 -91 
Q 1428 -91 1123 -41 
Q 819 9 494 109 
L 494 744 
Q 775 591 1075 516 
Q 1375 441 1709 441 
Q 2250 441 2565 725 
Q 2881 1009 2881 1497 
Q 2881 1984 2565 2268 
Q 2250 2553 1709 2553 
Q 1456 2553 1204 2497 
Q 953 2441 691 2322 
L 691 4666 
z
" transform="scale(0.015625)"/>
       </defs>
       <use xlink:href="#DejaVuSans-35"/>
       <use xlink:href="#DejaVuSans-30" x="63.623047"/>
      </g>
     </g>
    </g>
    <g id="text_7">
     <!-- k -->
     <g transform="translate(318.278523 466.723026) scale(0.24 -0.24)">
      <defs>
       <path id="DejaVuSans-6b" d="M 581 4863 
L 1159 4863 
L 1159 1991 
L 2875 3500 
L 3609 3500 
L 1753 1863 
L 3688 0 
L 2938 0 
L 1159 1709 
L 1159 0 
L 581 0 
L 581 4863 
z
" transform="scale(0.015625)"/>
      </defs>
      <use xlink:href="#DejaVuSans-6b"/>
     </g>
    </g>
   </g>
   <g id="matplotlib.axis_2">
    <g id="ytick_1">
     <g id="line2d_7">
      <defs>
       <path id="mb1d9b98984" d="M 0 0 
L -3.5 0 
" style="stroke: #000000; stroke-width: 0.8"/>
      </defs>
      <g>
       <use xlink:href="#mb1d9b98984" x="135" y="418.130526" style="stroke: #000000; stroke-width: 0.8"/>
      </g>
     </g>
     <g id="text_8">
      <!-- 0.0 -->
      <g transform="translate(96.19375 425.728964) scale(0.2 -0.2)">
       <defs>
        <path id="DejaVuSans-2e" d="M 684 794 
L 1344 794 
L 1344 0 
L 684 0 
L 684 794 
z
" transform="scale(0.015625)"/>
       </defs>
       <use xlink:href="#DejaVuSans-30"/>
       <use xlink:href="#DejaVuSans-2e" x="63.623047"/>
       <use xlink:href="#DejaVuSans-30" x="95.410156"/>
      </g>
     </g>
    </g>
    <g id="ytick_2">
     <g id="line2d_8">
      <g>
       <use xlink:href="#mb1d9b98984" x="135" y="352.477895" style="stroke: #000000; stroke-width: 0.8"/>
      </g>
     </g>
     <g id="text_9">
      <!-- 0.2 -->
      <g transform="translate(96.19375 360.076332) scale(0.2 -0.2)">
       <use xlink:href="#DejaVuSans-30"/>
       <use xlink:href="#DejaVuSans-2e" x="63.623047"/>
       <use xlink:href="#DejaVuSans-32" x="95.410156"/>
      </g>
     </g>
    </g>
    <g id="ytick_3">
     <g id="line2d_9">
      <g>
       <use xlink:href="#mb1d9b98984" x="135" y="286.825263" style="stroke: #000000; stroke-width: 0.8"/>
      </g>
     </g>
     <g id="text_10">
      <!-- 0.4 -->
      <g transform="translate(96.19375 294.423701) scale(0.2 -0.2)">
       <use xlink:href="#DejaVuSans-30"/>
       <use xlink:href="#DejaVuSans-2e" x="63.623047"/>
       <use xlink:href="#DejaVuSans-34" x="95.410156"/>
      </g>
     </g>
    </g>
    <g id="ytick_4">
     <g id="line2d_10">
      <g>
       <use xlink:href="#mb1d9b98984" x="135" y="221.172632" style="stroke: #000000; stroke-width: 0.8"/>
      </g>
     </g>
     <g id="text_11">
      <!-- 0.6 -->
      <g transform="translate(96.19375 228.771069) scale(0.2 -0.2)">
       <defs>
        <path id="DejaVuSans-36" d="M 2113 2584 
Q 1688 2584 1439 2293 
Q 1191 2003 1191 1497 
Q 1191 994 1439 701 
Q 1688 409 2113 409 
Q 2538 409 2786 701 
Q 3034 994 3034 1497 
Q 3034 2003 2786 2293 
Q 2538 2584 2113 2584 
z
M 3366 4563 
L 3366 3988 
Q 3128 4100 2886 4159 
Q 2644 4219 2406 4219 
Q 1781 4219 1451 3797 
Q 1122 3375 1075 2522 
Q 1259 2794 1537 2939 
Q 1816 3084 2150 3084 
Q 2853 3084 3261 2657 
Q 3669 2231 3669 1497 
Q 3669 778 3244 343 
Q 2819 -91 2113 -91 
Q 1303 -91 875 529 
Q 447 1150 447 2328 
Q 447 3434 972 4092 
Q 1497 4750 2381 4750 
Q 2619 4750 2861 4703 
Q 3103 4656 3366 4563 
z
" transform="scale(0.015625)"/>
       </defs>
       <use xlink:href="#DejaVuSans-30"/>
       <use xlink:href="#DejaVuSans-2e" x="63.623047"/>
       <use xlink:href="#DejaVuSans-36" x="95.410156"/>
      </g>
     </g>
    </g>
    <g id="ytick_5">
     <g id="line2d_11">
      <g>
       <use xlink:href="#mb1d9b98984" x="135" y="155.52" style="stroke: #000000; stroke-width: 0.8"/>
      </g>
     </g>
     <g id="text_12">
      <!-- 0.8 -->
      <g transform="translate(96.19375 163.118438) scale(0.2 -0.2)">
       <defs>
        <path id="DejaVuSans-38" d="M 2034 2216 
Q 1584 2216 1326 1975 
Q 1069 1734 1069 1313 
Q 1069 891 1326 650 
Q 1584 409 2034 409 
Q 2484 409 2743 651 
Q 3003 894 3003 1313 
Q 3003 1734 2745 1975 
Q 2488 2216 2034 2216 
z
M 1403 2484 
Q 997 2584 770 2862 
Q 544 3141 544 3541 
Q 544 4100 942 4425 
Q 1341 4750 2034 4750 
Q 2731 4750 3128 4425 
Q 3525 4100 3525 3541 
Q 3525 3141 3298 2862 
Q 3072 2584 2669 2484 
Q 3125 2378 3379 2068 
Q 3634 1759 3634 1313 
Q 3634 634 3220 271 
Q 2806 -91 2034 -91 
Q 1263 -91 848 271 
Q 434 634 434 1313 
Q 434 1759 690 2068 
Q 947 2378 1403 2484 
z
M 1172 3481 
Q 1172 3119 1398 2916 
Q 1625 2713 2034 2713 
Q 2441 2713 2670 2916 
Q 2900 3119 2900 3481 
Q 2900 3844 2670 4047 
Q 2441 4250 2034 4250 
Q 1625 4250 1398 4047 
Q 1172 3844 1172 3481 
z
" transform="scale(0.015625)"/>
       </defs>
       <use xlink:href="#DejaVuSans-30"/>
       <use xlink:href="#DejaVuSans-2e" x="63.623047"/>
       <use xlink:href="#DejaVuSans-38" x="95.410156"/>
      </g>
     </g>
    </g>
    <g id="text_13">
     <!-- $P_{NN}$ -->
     <g transform="translate(87.2025 306.985263) rotate(-90) scale(0.24 -0.24)">
      <defs>
       <path id="DejaVuSans-Oblique-50" d="M 1081 4666 
L 2541 4666 
Q 3178 4666 3512 4369 
Q 3847 4072 3847 3500 
Q 3847 2731 3353 2303 
Q 2859 1875 1966 1875 
L 1172 1875 
L 806 0 
L 172 0 
L 1081 4666 
z
M 1613 4147 
L 1275 2394 
L 2069 2394 
Q 2606 2394 2893 2669 
Q 3181 2944 3181 3456 
Q 3181 3784 2986 3965 
Q 2791 4147 2438 4147 
L 1613 4147 
z
" transform="scale(0.015625)"/>
       <path id="DejaVuSans-Oblique-4e" d="M 1081 4666 
L 1931 4666 
L 3219 666 
L 4000 4666 
L 4616 4666 
L 3706 0 
L 2853 0 
L 1569 4025 
L 788 0 
L 172 0 
L 1081 4666 
z
" transform="scale(0.015625)"/>
      </defs>
      <use xlink:href="#DejaVuSans-Oblique-50" transform="translate(0 0.09375)"/>
      <use xlink:href="#DejaVuSans-Oblique-4e" transform="translate(60.302734 -16.3125) scale(0.7)"/>
      <use xlink:href="#DejaVuSans-Oblique-4e" transform="translate(112.666016 -16.3125) scale(0.7)"/>
     </g>
    </g>
   </g>
   <g id="line2d_12">
    <path d="M 152.293388 399.903374 
L 173.910124 388.060086 
L 209.938017 376.862161 
L 281.993802 366.501464 
L 498.161157 356.02216 
" clip-path="url(#p237f3dafed)" style="fill: none; stroke: #1f77b4; stroke-width: 1.5; stroke-linecap: square"/>
    <defs>
     <path id="m262e1752a8" d="M 0 3 
C 0.795609 3 1.55874 2.683901 2.12132 2.12132 
C 2.683901 1.55874 3 0.795609 3 0 
C 3 -0.795609 2.683901 -1.55874 2.12132 -2.12132 
C 1.55874 -2.683901 0.795609 -3 0 -3 
C -0.795609 -3 -1.55874 -2.683901 -2.12132 -2.12132 
C -2.683901 -1.55874 -3 -0.795609 -3 0 
C -3 0.795609 -2.683901 1.55874 -2.12132 2.12132 
C -1.55874 2.683901 -0.795609 3 0 3 
z
" style="stroke: #1f77b4"/>
    </defs>
    <g clip-path="url(#p237f3dafed)">
     <use xlink:href="#m262e1752a8" x="152.293388" y="399.903374" style="fill: #1f77b4; stroke: #1f77b4"/>
     <use xlink:href="#m262e1752a8" x="173.910124" y="388.060086" style="fill: #1f77b4; stroke: #1f77b4"/>
     <use xlink:href="#m262e1752a8" x="209.938017" y="376.862161" style="fill: #1f77b4; stroke: #1f77b4"/>
     <use xlink:href="#m262e1752a8" x="281.993802" y="366.501464" style="fill: #1f77b4; stroke: #1f77b4"/>
     <use xlink:href="#m262e1752a8" x="498.161157" y="356.02216" style="fill: #1f77b4; stroke: #1f77b4"/>
    </g>
   </g>
   <g id="line2d_13">
    <path d="M 152.293388 263.24334 
L 173.910124 240.84749 
L 209.938017 229.876315 
L 281.993802 241.911468 
L 498.161157 289.113686 
" clip-path="url(#p237f3dafed)" style="fill: none; stroke: #ff7f0e; stroke-width: 1.5; stroke-linecap: square"/>
    <defs>
     <path id="m183726b73f" d="M 0 3 
C 0.795609 3 1.55874 2.683901 2.12132 2.12132 
C 2.683901 1.55874 3 0.795609 3 0 
C 3 -0.795609 2.683901 -1.55874 2.12132 -2.12132 
C 1.55874 -2.683901 0.795609 -3 0 -3 
C -0.795609 -3 -1.55874 -2.683901 -2.12132 -2.12132 
C -2.683901 -1.55874 -3 -0.795609 -3 0 
C -3 0.795609 -2.683901 1.55874 -2.12132 2.12132 
C -1.55874 2.683901 -0.795609 3 0 3 
z
" style="stroke: #ff7f0e"/>
    </defs>
    <g clip-path="url(#p237f3dafed)">
     <use xlink:href="#m183726b73f" x="152.293388" y="263.24334" style="fill: #ff7f0e; stroke: #ff7f0e"/>
     <use xlink:href="#m183726b73f" x="173.910124" y="240.84749" style="fill: #ff7f0e; stroke: #ff7f0e"/>
     <use xlink:href="#m183726b73f" x="209.938017" y="229.876315" style="fill: #ff7f0e; stroke: #ff7f0e"/>
     <use xlink:href="#m183726b73f" x="281.993802" y="241.911468" style="fill: #ff7f0e; stroke: #ff7f0e"/>
     <use xlink:href="#m183726b73f" x="498.161157" y="289.113686" style="fill: #ff7f0e; stroke: #ff7f0e"/>
    </g>
   </g>
   <g id="line2d_14">
    <path d="M 152.293388 325.948231 
L 173.910124 282.255393 
L 209.938017 252.23728 
L 281.993802 251.260514 
L 498.161157 295.511504 
" clip-path="url(#p237f3dafed)" style="fill: none; stroke: #2ca02c; stroke-width: 1.5; stroke-linecap: square"/>
    <defs>
     <path id="maee02ae22e" d="M 0 3 
C 0.795609 3 1.55874 2.683901 2.12132 2.12132 
C 2.683901 1.55874 3 0.795609 3 0 
C 3 -0.795609 2.683901 -1.55874 2.12132 -2.12132 
C 1.55874 -2.683901 0.795609 -3 0 -3 
C -0.795609 -3 -1.55874 -2.683901 -2.12132 -2.12132 
C -2.683901 -1.55874 -3 -0.795609 -3 0 
C -3 0.795609 -2.683901 1.55874 -2.12132 2.12132 
C -1.55874 2.683901 -0.795609 3 0 3 
z
" style="stroke: #2ca02c"/>
    </defs>
    <g clip-path="url(#p237f3dafed)">
     <use xlink:href="#maee02ae22e" x="152.293388" y="325.948231" style="fill: #2ca02c; stroke: #2ca02c"/>
     <use xlink:href="#maee02ae22e" x="173.910124" y="282.255393" style="fill: #2ca02c; stroke: #2ca02c"/>
     <use xlink:href="#maee02ae22e" x="209.938017" y="252.23728" style="fill: #2ca02c; stroke: #2ca02c"/>
     <use xlink:href="#maee02ae22e" x="281.993802" y="251.260514" style="fill: #2ca02c; stroke: #2ca02c"/>
     <use xlink:href="#maee02ae22e" x="498.161157" y="295.511504" style="fill: #2ca02c; stroke: #2ca02c"/>
    </g>
   </g>
   <g id="line2d_15">
    <path d="M 152.293388 333.448399 
L 173.910124 295.337081 
L 209.938017 261.568884 
L 281.993802 253.780919 
L 498.161157 291.946308 
" clip-path="url(#p237f3dafed)" style="fill: none; stroke: #d62728; stroke-width: 1.5; stroke-linecap: square"/>
    <defs>
     <path id="mb3e37fcaa5" d="M 0 3 
C 0.795609 3 1.55874 2.683901 2.12132 2.12132 
C 2.683901 1.55874 3 0.795609 3 0 
C 3 -0.795609 2.683901 -1.55874 2.12132 -2.12132 
C 1.55874 -2.683901 0.795609 -3 0 -3 
C -0.795609 -3 -1.55874 -2.683901 -2.12132 -2.12132 
C -2.683901 -1.55874 -3 -0.795609 -3 0 
C -3 0.795609 -2.683901 1.55874 -2.12132 2.12132 
C -1.55874 2.683901 -0.795609 3 0 3 
z
" style="stroke: #d62728"/>
    </defs>
    <g clip-path="url(#p237f3dafed)">
     <use xlink:href="#mb3e37fcaa5" x="152.293388" y="333.448399" style="fill: #d62728; stroke: #d62728"/>
     <use xlink:href="#mb3e37fcaa5" x="173.910124" y="295.337081" style="fill: #d62728; stroke: #d62728"/>
     <use xlink:href="#mb3e37fcaa5" x="209.938017" y="261.568884" style="fill: #d62728; stroke: #d62728"/>
     <use xlink:href="#mb3e37fcaa5" x="281.993802" y="253.780919" style="fill: #d62728; stroke: #d62728"/>
     <use xlink:href="#mb3e37fcaa5" x="498.161157" y="291.946308" style="fill: #d62728; stroke: #d62728"/>
    </g>
   </g>
   <g id="patch_3">
    <path d="M 135 418.130526 
L 135 155.52 
" style="fill: none; stroke: #000000; stroke-width: 0.8; stroke-linejoin: miter; stroke-linecap: square"/>
   </g>
   <g id="patch_4">
    <path d="M 515.454545 418.130526 
L 515.454545 155.52 
" style="fill: none; stroke: #000000; stroke-width: 0.8; stroke-linejoin: miter; stroke-linecap: square"/>
   </g>
   <g id="patch_5">
    <path d="M 135 418.130526 
L 515.454545 418.130526 
" style="fill: none; stroke: #000000; stroke-width: 0.8; stroke-linejoin: miter; stroke-linecap: square"/>
   </g>
   <g id="patch_6">
    <path d="M 135 155.52 
L 515.454545 155.52 
" style="fill: none; stroke: #000000; stroke-width: 0.8; stroke-linejoin: miter; stroke-linecap: square"/>
   </g>
   <g id="text_14">
    <!-- a -->
    <g transform="translate(89.472557 137.404046) scale(0.28 -0.28)">
     <defs>
      <path id="DejaVuSans-Bold-61" d="M 2106 1575 
Q 1756 1575 1579 1456 
Q 1403 1338 1403 1106 
Q 1403 894 1545 773 
Q 1688 653 1941 653 
Q 2256 653 2472 879 
Q 2688 1106 2688 1447 
L 2688 1575 
L 2106 1575 
z
M 3816 1997 
L 3816 0 
L 2688 0 
L 2688 519 
Q 2463 200 2181 54 
Q 1900 -91 1497 -91 
Q 953 -91 614 226 
Q 275 544 275 1050 
Q 275 1666 698 1953 
Q 1122 2241 2028 2241 
L 2688 2241 
L 2688 2328 
Q 2688 2594 2478 2717 
Q 2269 2841 1825 2841 
Q 1466 2841 1156 2769 
Q 847 2697 581 2553 
L 581 3406 
Q 941 3494 1303 3539 
Q 1666 3584 2028 3584 
Q 2975 3584 3395 3211 
Q 3816 2838 3816 1997 
z
" transform="scale(0.015625)"/>
     </defs>
     <use xlink:href="#DejaVuSans-Bold-61"/>
    </g>
   </g>
   <g id="text_15">
    <!-- $P_{NN}$ -->
    <g transform="translate(303.387273 149.52) scale(0.26 -0.26)">
     <use xlink:href="#DejaVuSans-Oblique-50" transform="translate(0 0.09375)"/>
     <use xlink:href="#DejaVuSans-Oblique-4e" transform="translate(60.302734 -16.3125) scale(0.7)"/>
     <use xlink:href="#DejaVuSans-Oblique-4e" transform="translate(112.666016 -16.3125) scale(0.7)"/>
    </g>
   </g>
  </g>
  <g id="axes_2">
   <g id="patch_7">
    <path d="M 591.545455 418.130526 
L 972 418.130526 
L 972 155.52 
L 591.545455 155.52 
z
" style="fill: #ffffff"/>
   </g>
   <g id="patch_8">
    <path d="M 608.838843 418.130526 
L 628.792753 418.130526 
L 628.792753 179.529345 
L 608.838843 179.529345 
z
" clip-path="url(#p9dbff2eeba)" style="fill: #1f77b4"/>
   </g>
   <g id="patch_9">
    <path d="M 741.864908 418.130526 
L 761.818818 418.130526 
L 761.818818 352.438728 
L 741.864908 352.438728 
z
" clip-path="url(#p9dbff2eeba)" style="fill: #1f77b4"/>
   </g>
   <g id="patch_10">
    <path d="M 874.890973 418.130526 
L 894.844882 418.130526 
L 894.844882 175.254465 
L 874.890973 175.254465 
z
" clip-path="url(#p9dbff2eeba)" style="fill: #1f77b4"/>
   </g>
   <g id="patch_11">
    <path d="M 628.792753 418.130526 
L 648.746662 418.130526 
L 648.746662 168.173575 
L 628.792753 168.173575 
z
" clip-path="url(#p9dbff2eeba)" style="fill: #ff7f0e"/>
   </g>
   <g id="patch_12">
    <path d="M 761.818818 418.130526 
L 781.772727 418.130526 
L 781.772727 187.457507 
L 761.818818 187.457507 
z
" clip-path="url(#p9dbff2eeba)" style="fill: #ff7f0e"/>
   </g>
   <g id="patch_13">
    <path d="M 894.844882 418.130526 
L 914.798792 418.130526 
L 914.798792 168.025263 
L 894.844882 168.025263 
z
" clip-path="url(#p9dbff2eeba)" style="fill: #ff7f0e"/>
   </g>
   <g id="patch_14">
    <path d="M 648.746662 418.130526 
L 668.700572 418.130526 
L 668.700572 168.617714 
L 648.746662 168.617714 
z
" clip-path="url(#p9dbff2eeba)" style="fill: #2ca02c"/>
   </g>
   <g id="patch_15">
    <path d="M 781.772727 418.130526 
L 801.726637 418.130526 
L 801.726637 227.056093 
L 781.772727 227.056093 
z
" clip-path="url(#p9dbff2eeba)" style="fill: #2ca02c"/>
   </g>
   <g id="patch_16">
    <path d="M 914.798792 418.130526 
L 934.752702 418.130526 
L 934.752702 168.124074 
L 914.798792 168.124074 
z
" clip-path="url(#p9dbff2eeba)" style="fill: #2ca02c"/>
   </g>
   <g id="patch_17">
    <path d="M 668.700572 418.130526 
L 688.654482 418.130526 
L 688.654482 173.671858 
L 668.700572 173.671858 
z
" clip-path="url(#p9dbff2eeba)" style="fill: #d62728"/>
   </g>
   <g id="patch_18">
    <path d="M 801.726637 418.130526 
L 821.680547 418.130526 
L 821.680547 239.706554 
L 801.726637 239.706554 
z
" clip-path="url(#p9dbff2eeba)" style="fill: #d62728"/>
   </g>
   <g id="patch_19">
    <path d="M 934.752702 418.130526 
L 954.706612 418.130526 
L 954.706612 173.124244 
L 934.752702 173.124244 
z
" clip-path="url(#p9dbff2eeba)" style="fill: #d62728"/>
   </g>
   <g id="matplotlib.axis_3">
    <g id="xtick_7">
     <g id="line2d_16">
      <g>
       <use xlink:href="#m6bc0dfcf14" x="648.746662" y="418.130526" style="stroke: #000000; stroke-width: 0.8"/>
      </g>
     </g>
     <g id="text_16">
      <!-- AUC -->
      <g transform="translate(625.490256 441.847089) scale(0.22 -0.22)">
       <defs>
        <path id="DejaVuSans-41" d="M 2188 4044 
L 1331 1722 
L 3047 1722 
L 2188 4044 
z
M 1831 4666 
L 2547 4666 
L 4325 0 
L 3669 0 
L 3244 1197 
L 1141 1197 
L 716 0 
L 50 0 
L 1831 4666 
z
" transform="scale(0.015625)"/>
        <path id="DejaVuSans-55" d="M 556 4666 
L 1191 4666 
L 1191 1831 
Q 1191 1081 1462 751 
Q 1734 422 2344 422 
Q 2950 422 3222 751 
Q 3494 1081 3494 1831 
L 3494 4666 
L 4128 4666 
L 4128 1753 
Q 4128 841 3676 375 
Q 3225 -91 2344 -91 
Q 1459 -91 1007 375 
Q 556 841 556 1753 
L 556 4666 
z
" transform="scale(0.015625)"/>
        <path id="DejaVuSans-43" d="M 4122 4306 
L 4122 3641 
Q 3803 3938 3442 4084 
Q 3081 4231 2675 4231 
Q 1875 4231 1450 3742 
Q 1025 3253 1025 2328 
Q 1025 1406 1450 917 
Q 1875 428 2675 428 
Q 3081 428 3442 575 
Q 3803 722 4122 1019 
L 4122 359 
Q 3791 134 3420 21 
Q 3050 -91 2638 -91 
Q 1578 -91 968 557 
Q 359 1206 359 2328 
Q 359 3453 968 4101 
Q 1578 4750 2638 4750 
Q 3056 4750 3426 4639 
Q 3797 4528 4122 4306 
z
" transform="scale(0.015625)"/>
       </defs>
       <use xlink:href="#DejaVuSans-41"/>
       <use xlink:href="#DejaVuSans-55" x="68.408203"/>
       <use xlink:href="#DejaVuSans-43" x="141.601562"/>
      </g>
     </g>
    </g>
    <g id="xtick_8">
     <g id="line2d_17">
      <g>
       <use xlink:href="#m6bc0dfcf14" x="781.772727" y="418.130526" style="stroke: #000000; stroke-width: 0.8"/>
      </g>
     </g>
     <g id="text_17">
      <!-- $Q_{local}$ -->
      <g transform="translate(754.822727 441.847089) scale(0.22 -0.22)">
       <defs>
        <path id="DejaVuSans-Oblique-51" d="M 2309 -84 
Q 2275 -88 2237 -89 
Q 2200 -91 2125 -91 
Q 1250 -91 756 411 
Q 263 913 263 1797 
Q 263 2319 452 2844 
Q 641 3369 978 3788 
Q 1369 4269 1858 4509 
Q 2347 4750 2938 4750 
Q 3794 4750 4287 4245 
Q 4781 3741 4781 2869 
Q 4781 1928 4265 1147 
Q 3750 366 2919 44 
L 3553 -825 
L 2847 -825 
L 2309 -84 
z
M 2919 4238 
Q 2400 4238 2003 3986 
Q 1606 3734 1313 3219 
Q 1125 2891 1026 2522 
Q 928 2153 928 1778 
Q 928 1128 1239 775 
Q 1550 422 2119 422 
Q 2631 422 3032 676 
Q 3434 931 3719 1434 
Q 3909 1772 4009 2142 
Q 4109 2513 4109 2881 
Q 4109 3528 3796 3883 
Q 3484 4238 2919 4238 
z
" transform="scale(0.015625)"/>
        <path id="DejaVuSans-Oblique-6c" d="M 1172 4863 
L 1747 4863 
L 800 0 
L 225 0 
L 1172 4863 
z
" transform="scale(0.015625)"/>
        <path id="DejaVuSans-Oblique-6f" d="M 1625 -91 
Q 1009 -91 651 289 
Q 294 669 294 1325 
Q 294 1706 417 2101 
Q 541 2497 738 2766 
Q 1047 3184 1428 3384 
Q 1809 3584 2291 3584 
Q 2888 3584 3255 3212 
Q 3622 2841 3622 2241 
Q 3622 1825 3500 1412 
Q 3378 1000 3181 728 
Q 2875 309 2494 109 
Q 2113 -91 1625 -91 
z
M 891 1344 
Q 891 869 1089 633 
Q 1288 397 1691 397 
Q 2269 397 2648 901 
Q 3028 1406 3028 2181 
Q 3028 2634 2825 2865 
Q 2622 3097 2228 3097 
Q 1903 3097 1650 2945 
Q 1397 2794 1197 2484 
Q 1050 2253 970 1956 
Q 891 1659 891 1344 
z
" transform="scale(0.015625)"/>
        <path id="DejaVuSans-Oblique-63" d="M 3431 3366 
L 3316 2797 
Q 3109 2947 2876 3022 
Q 2644 3097 2394 3097 
Q 2119 3097 1870 3000 
Q 1622 2903 1453 2725 
Q 1184 2453 1037 2087 
Q 891 1722 891 1331 
Q 891 859 1127 628 
Q 1363 397 1844 397 
Q 2081 397 2348 469 
Q 2616 541 2906 684 
L 2797 116 
Q 2547 13 2283 -39 
Q 2019 -91 1741 -91 
Q 1044 -91 669 257 
Q 294 606 294 1253 
Q 294 1797 489 2255 
Q 684 2713 1069 3078 
Q 1331 3328 1684 3456 
Q 2038 3584 2456 3584 
Q 2700 3584 2940 3529 
Q 3181 3475 3431 3366 
z
" transform="scale(0.015625)"/>
        <path id="DejaVuSans-Oblique-61" d="M 3438 1997 
L 3047 0 
L 2472 0 
L 2578 531 
Q 2325 219 2001 64 
Q 1678 -91 1281 -91 
Q 834 -91 548 182 
Q 263 456 263 884 
Q 263 1497 752 1853 
Q 1241 2209 2100 2209 
L 2900 2209 
L 2931 2363 
Q 2938 2388 2941 2417 
Q 2944 2447 2944 2509 
Q 2944 2788 2717 2942 
Q 2491 3097 2081 3097 
Q 1800 3097 1504 3025 
Q 1209 2953 897 2809 
L 997 3341 
Q 1322 3463 1633 3523 
Q 1944 3584 2234 3584 
Q 2853 3584 3176 3315 
Q 3500 3047 3500 2534 
Q 3500 2431 3484 2292 
Q 3469 2153 3438 1997 
z
M 2816 1759 
L 2241 1759 
Q 1534 1759 1195 1570 
Q 856 1381 856 984 
Q 856 709 1029 553 
Q 1203 397 1509 397 
Q 1978 397 2328 733 
Q 2678 1069 2791 1631 
L 2816 1759 
z
" transform="scale(0.015625)"/>
       </defs>
       <use xlink:href="#DejaVuSans-Oblique-51" transform="translate(0 0.78125)"/>
       <use xlink:href="#DejaVuSans-Oblique-6c" transform="translate(78.710938 -15.625) scale(0.7)"/>
       <use xlink:href="#DejaVuSans-Oblique-6f" transform="translate(98.15918 -15.625) scale(0.7)"/>
       <use xlink:href="#DejaVuSans-Oblique-63" transform="translate(140.986328 -15.625) scale(0.7)"/>
       <use xlink:href="#DejaVuSans-Oblique-61" transform="translate(179.472656 -15.625) scale(0.7)"/>
       <use xlink:href="#DejaVuSans-Oblique-6c" transform="translate(222.368164 -15.625) scale(0.7)"/>
      </g>
     </g>
    </g>
    <g id="xtick_9">
     <g id="line2d_18">
      <g>
       <use xlink:href="#m6bc0dfcf14" x="914.798792" y="418.130526" style="stroke: #000000; stroke-width: 0.8"/>
      </g>
     </g>
     <g id="text_18">
      <!-- $Q_{global}$ -->
      <g transform="translate(882.348792 441.630526) scale(0.22 -0.22)">
       <defs>
        <path id="DejaVuSans-Oblique-67" d="M 3816 3500 
L 3219 434 
Q 3047 -456 2561 -893 
Q 2075 -1331 1253 -1331 
Q 950 -1331 690 -1286 
Q 431 -1241 206 -1147 
L 313 -588 
Q 525 -725 762 -790 
Q 1000 -856 1269 -856 
Q 1816 -856 2167 -557 
Q 2519 -259 2631 300 
L 2681 563 
Q 2441 288 2122 144 
Q 1803 0 1434 0 
Q 903 0 598 351 
Q 294 703 294 1319 
Q 294 1803 478 2267 
Q 663 2731 997 3091 
Q 1219 3328 1514 3456 
Q 1809 3584 2131 3584 
Q 2484 3584 2746 3420 
Q 3009 3256 3138 2956 
L 3238 3500 
L 3816 3500 
z
M 2950 2216 
Q 2950 2641 2750 2872 
Q 2550 3103 2181 3103 
Q 1953 3103 1747 3012 
Q 1541 2922 1394 2759 
Q 1156 2491 1023 2127 
Q 891 1763 891 1375 
Q 891 944 1092 712 
Q 1294 481 1672 481 
Q 2219 481 2584 976 
Q 2950 1472 2950 2216 
z
" transform="scale(0.015625)"/>
        <path id="DejaVuSans-Oblique-62" d="M 3169 2138 
Q 3169 2591 2961 2847 
Q 2753 3103 2388 3103 
Q 2122 3103 1889 2973 
Q 1656 2844 1484 2597 
Q 1303 2338 1198 1995 
Q 1094 1653 1094 1313 
Q 1094 881 1298 636 
Q 1503 391 1863 391 
Q 2134 391 2365 517 
Q 2597 644 2772 891 
Q 2950 1147 3059 1487 
Q 3169 1828 3169 2138 
z
M 1381 2969 
Q 1594 3256 1914 3420 
Q 2234 3584 2584 3584 
Q 3122 3584 3439 3221 
Q 3756 2859 3756 2241 
Q 3756 1734 3570 1259 
Q 3384 784 3041 416 
Q 2816 172 2522 40 
Q 2228 -91 1906 -91 
Q 1566 -91 1316 65 
Q 1066 222 909 531 
L 806 0 
L 231 0 
L 1178 4863 
L 1753 4863 
L 1381 2969 
z
" transform="scale(0.015625)"/>
       </defs>
       <use xlink:href="#DejaVuSans-Oblique-51" transform="translate(0 0.78125)"/>
       <use xlink:href="#DejaVuSans-Oblique-67" transform="translate(78.710938 -15.625) scale(0.7)"/>
       <use xlink:href="#DejaVuSans-Oblique-6c" transform="translate(123.144531 -15.625) scale(0.7)"/>
       <use xlink:href="#DejaVuSans-Oblique-6f" transform="translate(142.592773 -15.625) scale(0.7)"/>
       <use xlink:href="#DejaVuSans-Oblique-62" transform="translate(185.419922 -15.625) scale(0.7)"/>
       <use xlink:href="#DejaVuSans-Oblique-61" transform="translate(229.853516 -15.625) scale(0.7)"/>
       <use xlink:href="#DejaVuSans-Oblique-6c" transform="translate(272.749023 -15.625) scale(0.7)"/>
      </g>
     </g>
    </g>
   </g>
   <g id="matplotlib.axis_4">
    <g id="ytick_6">
     <g id="line2d_19">
      <g>
       <use xlink:href="#mb1d9b98984" x="591.545455" y="418.130526" style="stroke: #000000; stroke-width: 0.8"/>
      </g>
     </g>
     <g id="text_19">
      <!-- 0.0 -->
      <g transform="translate(549.55858 426.488808) scale(0.22 -0.22)">
       <use xlink:href="#DejaVuSans-30"/>
       <use xlink:href="#DejaVuSans-2e" x="63.623047"/>
       <use xlink:href="#DejaVuSans-30" x="95.410156"/>
      </g>
     </g>
    </g>
    <g id="ytick_7">
     <g id="line2d_20">
      <g>
       <use xlink:href="#mb1d9b98984" x="591.545455" y="331.280393" style="stroke: #000000; stroke-width: 0.8"/>
      </g>
     </g>
     <g id="text_20">
      <!-- 0.2 -->
      <g transform="translate(549.55858 339.638674) scale(0.22 -0.22)">
       <use xlink:href="#DejaVuSans-30"/>
       <use xlink:href="#DejaVuSans-2e" x="63.623047"/>
       <use xlink:href="#DejaVuSans-32" x="95.410156"/>
      </g>
     </g>
    </g>
    <g id="ytick_8">
     <g id="line2d_21">
      <g>
       <use xlink:href="#mb1d9b98984" x="591.545455" y="244.430259" style="stroke: #000000; stroke-width: 0.8"/>
      </g>
     </g>
     <g id="text_21">
      <!-- 0.4 -->
      <g transform="translate(549.55858 252.788541) scale(0.22 -0.22)">
       <use xlink:href="#DejaVuSans-30"/>
       <use xlink:href="#DejaVuSans-2e" x="63.623047"/>
       <use xlink:href="#DejaVuSans-34" x="95.410156"/>
      </g>
     </g>
    </g>
    <g id="ytick_9">
     <g id="line2d_22">
      <g>
       <use xlink:href="#mb1d9b98984" x="591.545455" y="157.580126" style="stroke: #000000; stroke-width: 0.8"/>
      </g>
     </g>
     <g id="text_22">
      <!-- 0.6 -->
      <g transform="translate(549.55858 165.938407) scale(0.22 -0.22)">
       <use xlink:href="#DejaVuSans-30"/>
       <use xlink:href="#DejaVuSans-2e" x="63.623047"/>
       <use xlink:href="#DejaVuSans-36" x="95.410156"/>
      </g>
     </g>
    </g>
    <g id="text_23">
     <!-- Metric Value -->
     <g transform="translate(540.983267 354.727919) rotate(-90) scale(0.22 -0.22)">
      <defs>
       <path id="DejaVuSans-4d" d="M 628 4666 
L 1569 4666 
L 2759 1491 
L 3956 4666 
L 4897 4666 
L 4897 0 
L 4281 0 
L 4281 4097 
L 3078 897 
L 2444 897 
L 1241 4097 
L 1241 0 
L 628 0 
L 628 4666 
z
" transform="scale(0.015625)"/>
       <path id="DejaVuSans-65" d="M 3597 1894 
L 3597 1613 
L 953 1613 
Q 991 1019 1311 708 
Q 1631 397 2203 397 
Q 2534 397 2845 478 
Q 3156 559 3463 722 
L 3463 178 
Q 3153 47 2828 -22 
Q 2503 -91 2169 -91 
Q 1331 -91 842 396 
Q 353 884 353 1716 
Q 353 2575 817 3079 
Q 1281 3584 2069 3584 
Q 2775 3584 3186 3129 
Q 3597 2675 3597 1894 
z
M 3022 2063 
Q 3016 2534 2758 2815 
Q 2500 3097 2075 3097 
Q 1594 3097 1305 2825 
Q 1016 2553 972 2059 
L 3022 2063 
z
" transform="scale(0.015625)"/>
       <path id="DejaVuSans-74" d="M 1172 4494 
L 1172 3500 
L 2356 3500 
L 2356 3053 
L 1172 3053 
L 1172 1153 
Q 1172 725 1289 603 
Q 1406 481 1766 481 
L 2356 481 
L 2356 0 
L 1766 0 
Q 1100 0 847 248 
Q 594 497 594 1153 
L 594 3053 
L 172 3053 
L 172 3500 
L 594 3500 
L 594 4494 
L 1172 4494 
z
" transform="scale(0.015625)"/>
       <path id="DejaVuSans-72" d="M 2631 2963 
Q 2534 3019 2420 3045 
Q 2306 3072 2169 3072 
Q 1681 3072 1420 2755 
Q 1159 2438 1159 1844 
L 1159 0 
L 581 0 
L 581 3500 
L 1159 3500 
L 1159 2956 
Q 1341 3275 1631 3429 
Q 1922 3584 2338 3584 
Q 2397 3584 2469 3576 
Q 2541 3569 2628 3553 
L 2631 2963 
z
" transform="scale(0.015625)"/>
       <path id="DejaVuSans-69" d="M 603 3500 
L 1178 3500 
L 1178 0 
L 603 0 
L 603 3500 
z
M 603 4863 
L 1178 4863 
L 1178 4134 
L 603 4134 
L 603 4863 
z
" transform="scale(0.015625)"/>
       <path id="DejaVuSans-63" d="M 3122 3366 
L 3122 2828 
Q 2878 2963 2633 3030 
Q 2388 3097 2138 3097 
Q 1578 3097 1268 2742 
Q 959 2388 959 1747 
Q 959 1106 1268 751 
Q 1578 397 2138 397 
Q 2388 397 2633 464 
Q 2878 531 3122 666 
L 3122 134 
Q 2881 22 2623 -34 
Q 2366 -91 2075 -91 
Q 1284 -91 818 406 
Q 353 903 353 1747 
Q 353 2603 823 3093 
Q 1294 3584 2113 3584 
Q 2378 3584 2631 3529 
Q 2884 3475 3122 3366 
z
" transform="scale(0.015625)"/>
       <path id="DejaVuSans-20" transform="scale(0.015625)"/>
       <path id="DejaVuSans-56" d="M 1831 0 
L 50 4666 
L 709 4666 
L 2188 738 
L 3669 4666 
L 4325 4666 
L 2547 0 
L 1831 0 
z
" transform="scale(0.015625)"/>
       <path id="DejaVuSans-61" d="M 2194 1759 
Q 1497 1759 1228 1600 
Q 959 1441 959 1056 
Q 959 750 1161 570 
Q 1363 391 1709 391 
Q 2188 391 2477 730 
Q 2766 1069 2766 1631 
L 2766 1759 
L 2194 1759 
z
M 3341 1997 
L 3341 0 
L 2766 0 
L 2766 531 
Q 2569 213 2275 61 
Q 1981 -91 1556 -91 
Q 1019 -91 701 211 
Q 384 513 384 1019 
Q 384 1609 779 1909 
Q 1175 2209 1959 2209 
L 2766 2209 
L 2766 2266 
Q 2766 2663 2505 2880 
Q 2244 3097 1772 3097 
Q 1472 3097 1187 3025 
Q 903 2953 641 2809 
L 641 3341 
Q 956 3463 1253 3523 
Q 1550 3584 1831 3584 
Q 2591 3584 2966 3190 
Q 3341 2797 3341 1997 
z
" transform="scale(0.015625)"/>
       <path id="DejaVuSans-6c" d="M 603 4863 
L 1178 4863 
L 1178 0 
L 603 0 
L 603 4863 
z
" transform="scale(0.015625)"/>
       <path id="DejaVuSans-75" d="M 544 1381 
L 544 3500 
L 1119 3500 
L 1119 1403 
Q 1119 906 1312 657 
Q 1506 409 1894 409 
Q 2359 409 2629 706 
Q 2900 1003 2900 1516 
L 2900 3500 
L 3475 3500 
L 3475 0 
L 2900 0 
L 2900 538 
Q 2691 219 2414 64 
Q 2138 -91 1772 -91 
Q 1169 -91 856 284 
Q 544 659 544 1381 
z
M 1991 3584 
L 1991 3584 
z
" transform="scale(0.015625)"/>
      </defs>
      <use xlink:href="#DejaVuSans-4d"/>
      <use xlink:href="#DejaVuSans-65" x="86.279297"/>
      <use xlink:href="#DejaVuSans-74" x="147.802734"/>
      <use xlink:href="#DejaVuSans-72" x="187.011719"/>
      <use xlink:href="#DejaVuSans-69" x="228.125"/>
      <use xlink:href="#DejaVuSans-63" x="255.908203"/>
      <use xlink:href="#DejaVuSans-20" x="310.888672"/>
      <use xlink:href="#DejaVuSans-56" x="342.675781"/>
      <use xlink:href="#DejaVuSans-61" x="403.333984"/>
      <use xlink:href="#DejaVuSans-6c" x="464.613281"/>
      <use xlink:href="#DejaVuSans-75" x="492.396484"/>
      <use xlink:href="#DejaVuSans-65" x="555.775391"/>
     </g>
    </g>
   </g>
   <g id="patch_20">
    <path d="M 591.545455 418.130526 
L 591.545455 155.52 
" style="fill: none; stroke: #000000; stroke-width: 0.8; stroke-linejoin: miter; stroke-linecap: square"/>
   </g>
   <g id="patch_21">
    <path d="M 972 418.130526 
L 972 155.52 
" style="fill: none; stroke: #000000; stroke-width: 0.8; stroke-linejoin: miter; stroke-linecap: square"/>
   </g>
   <g id="patch_22">
    <path d="M 591.545455 418.130526 
L 972 418.130526 
" style="fill: none; stroke: #000000; stroke-width: 0.8; stroke-linejoin: miter; stroke-linecap: square"/>
   </g>
   <g id="patch_23">
    <path d="M 591.545455 155.52 
L 972 155.52 
" style="fill: none; stroke: #000000; stroke-width: 0.8; stroke-linejoin: miter; stroke-linecap: square"/>
   </g>
   <g id="text_24">
    <!-- b -->
    <g transform="translate(544.871761 137.404046) scale(0.28 -0.28)">
     <defs>
      <path id="DejaVuSans-Bold-62" d="M 2400 722 
Q 2759 722 2948 984 
Q 3138 1247 3138 1747 
Q 3138 2247 2948 2509 
Q 2759 2772 2400 2772 
Q 2041 2772 1848 2508 
Q 1656 2244 1656 1747 
Q 1656 1250 1848 986 
Q 2041 722 2400 722 
z
M 1656 2988 
Q 1888 3294 2169 3439 
Q 2450 3584 2816 3584 
Q 3463 3584 3878 3070 
Q 4294 2556 4294 1747 
Q 4294 938 3878 423 
Q 3463 -91 2816 -91 
Q 2450 -91 2169 54 
Q 1888 200 1656 506 
L 1656 0 
L 538 0 
L 538 4863 
L 1656 4863 
L 1656 2988 
z
" transform="scale(0.015625)"/>
     </defs>
     <use xlink:href="#DejaVuSans-Bold-62"/>
    </g>
   </g>
   <g id="text_25">
    <!-- Metrics -->
    <g transform="translate(734.584759 149.52) scale(0.26 -0.26)">
     <defs>
      <path id="DejaVuSans-73" d="M 2834 3397 
L 2834 2853 
Q 2591 2978 2328 3040 
Q 2066 3103 1784 3103 
Q 1356 3103 1142 2972 
Q 928 2841 928 2578 
Q 928 2378 1081 2264 
Q 1234 2150 1697 2047 
L 1894 2003 
Q 2506 1872 2764 1633 
Q 3022 1394 3022 966 
Q 3022 478 2636 193 
Q 2250 -91 1575 -91 
Q 1294 -91 989 -36 
Q 684 19 347 128 
L 347 722 
Q 666 556 975 473 
Q 1284 391 1588 391 
Q 1994 391 2212 530 
Q 2431 669 2431 922 
Q 2431 1156 2273 1281 
Q 2116 1406 1581 1522 
L 1381 1569 
Q 847 1681 609 1914 
Q 372 2147 372 2553 
Q 372 3047 722 3315 
Q 1072 3584 1716 3584 
Q 2034 3584 2315 3537 
Q 2597 3491 2834 3397 
z
" transform="scale(0.015625)"/>
     </defs>
     <use xlink:href="#DejaVuSans-4d"/>
     <use xlink:href="#DejaVuSans-65" x="86.279297"/>
     <use xlink:href="#DejaVuSans-74" x="147.802734"/>
     <use xlink:href="#DejaVuSans-72" x="187.011719"/>
     <use xlink:href="#DejaVuSans-69" x="228.125"/>
     <use xlink:href="#DejaVuSans-63" x="255.908203"/>
     <use xlink:href="#DejaVuSans-73" x="310.888672"/>
    </g>
   </g>
  </g>
  <g id="axes_3">
   <g id="patch_24">
    <path d="M 135 785.785263 
L 515.454545 785.785263 
L 515.454545 523.174737 
L 135 523.174737 
z
" style="fill: #ffffff"/>
   </g>
   <g id="matplotlib.axis_5">
    <g id="xtick_10">
     <g id="line2d_23">
      <g>
       <use xlink:href="#m6bc0dfcf14" x="137.882231" y="785.785263" style="stroke: #000000; stroke-width: 0.8"/>
      </g>
     </g>
     <g id="text_26">
      <!-- 0 -->
      <g transform="translate(130.883481 809.501826) scale(0.22 -0.22)">
       <use xlink:href="#DejaVuSans-30"/>
      </g>
     </g>
    </g>
    <g id="xtick_11">
     <g id="line2d_24">
      <g>
       <use xlink:href="#m6bc0dfcf14" x="281.993802" y="785.785263" style="stroke: #000000; stroke-width: 0.8"/>
      </g>
     </g>
     <g id="text_27">
      <!-- 20 -->
      <g transform="translate(267.996302 809.501826) scale(0.22 -0.22)">
       <use xlink:href="#DejaVuSans-32"/>
       <use xlink:href="#DejaVuSans-30" x="63.623047"/>
      </g>
     </g>
    </g>
    <g id="xtick_12">
     <g id="line2d_25">
      <g>
       <use xlink:href="#m6bc0dfcf14" x="426.105372" y="785.785263" style="stroke: #000000; stroke-width: 0.8"/>
      </g>
     </g>
     <g id="text_28">
      <!-- 40 -->
      <g transform="translate(412.107872 809.501826) scale(0.22 -0.22)">
       <use xlink:href="#DejaVuSans-34"/>
       <use xlink:href="#DejaVuSans-30" x="63.623047"/>
      </g>
     </g>
    </g>
    <g id="text_29">
     <!-- k -->
     <g transform="translate(318.278523 836.313388) scale(0.24 -0.24)">
      <use xlink:href="#DejaVuSans-6b"/>
     </g>
    </g>
   </g>
   <g id="matplotlib.axis_6">
    <g id="ytick_10">
     <g id="line2d_26">
      <g>
       <use xlink:href="#mb1d9b98984" x="135" y="727.117905" style="stroke: #000000; stroke-width: 0.8"/>
      </g>
     </g>
     <g id="text_30">
      <!-- 0.7 -->
      <g transform="translate(93.013125 735.476187) scale(0.22 -0.22)">
       <defs>
        <path id="DejaVuSans-37" d="M 525 4666 
L 3525 4666 
L 3525 4397 
L 1831 0 
L 1172 0 
L 2766 4134 
L 525 4134 
L 525 4666 
z
" transform="scale(0.015625)"/>
       </defs>
       <use xlink:href="#DejaVuSans-30"/>
       <use xlink:href="#DejaVuSans-2e" x="63.623047"/>
       <use xlink:href="#DejaVuSans-37" x="95.410156"/>
      </g>
     </g>
    </g>
    <g id="ytick_11">
     <g id="line2d_27">
      <g>
       <use xlink:href="#mb1d9b98984" x="135" y="655.597948" style="stroke: #000000; stroke-width: 0.8"/>
      </g>
     </g>
     <g id="text_31">
      <!-- 0.8 -->
      <g transform="translate(93.013125 663.95623) scale(0.22 -0.22)">
       <use xlink:href="#DejaVuSans-30"/>
       <use xlink:href="#DejaVuSans-2e" x="63.623047"/>
       <use xlink:href="#DejaVuSans-38" x="95.410156"/>
      </g>
     </g>
    </g>
    <g id="ytick_12">
     <g id="line2d_28">
      <g>
       <use xlink:href="#mb1d9b98984" x="135" y="584.077991" style="stroke: #000000; stroke-width: 0.8"/>
      </g>
     </g>
     <g id="text_32">
      <!-- 0.9 -->
      <g transform="translate(93.013125 592.436272) scale(0.22 -0.22)">
       <defs>
        <path id="DejaVuSans-39" d="M 703 97 
L 703 672 
Q 941 559 1184 500 
Q 1428 441 1663 441 
Q 2288 441 2617 861 
Q 2947 1281 2994 2138 
Q 2813 1869 2534 1725 
Q 2256 1581 1919 1581 
Q 1219 1581 811 2004 
Q 403 2428 403 3163 
Q 403 3881 828 4315 
Q 1253 4750 1959 4750 
Q 2769 4750 3195 4129 
Q 3622 3509 3622 2328 
Q 3622 1225 3098 567 
Q 2575 -91 1691 -91 
Q 1453 -91 1209 -44 
Q 966 3 703 97 
z
M 1959 2075 
Q 2384 2075 2632 2365 
Q 2881 2656 2881 3163 
Q 2881 3666 2632 3958 
Q 2384 4250 1959 4250 
Q 1534 4250 1286 3958 
Q 1038 3666 1038 3163 
Q 1038 2656 1286 2365 
Q 1534 2075 1959 2075 
z
" transform="scale(0.015625)"/>
       </defs>
       <use xlink:href="#DejaVuSans-30"/>
       <use xlink:href="#DejaVuSans-2e" x="63.623047"/>
       <use xlink:href="#DejaVuSans-39" x="95.410156"/>
      </g>
     </g>
    </g>
    <g id="text_33">
     <!-- Metric Value -->
     <g transform="translate(84.021875 728.555625) rotate(-90) scale(0.24 -0.24)">
      <use xlink:href="#DejaVuSans-4d"/>
      <use xlink:href="#DejaVuSans-65" x="86.279297"/>
      <use xlink:href="#DejaVuSans-74" x="147.802734"/>
      <use xlink:href="#DejaVuSans-72" x="187.011719"/>
      <use xlink:href="#DejaVuSans-69" x="228.125"/>
      <use xlink:href="#DejaVuSans-63" x="255.908203"/>
      <use xlink:href="#DejaVuSans-20" x="310.888672"/>
      <use xlink:href="#DejaVuSans-56" x="342.675781"/>
      <use xlink:href="#DejaVuSans-61" x="403.333984"/>
      <use xlink:href="#DejaVuSans-6c" x="464.613281"/>
      <use xlink:href="#DejaVuSans-75" x="492.396484"/>
      <use xlink:href="#DejaVuSans-65" x="555.775391"/>
     </g>
    </g>
   </g>
   <g id="line2d_29">
    <path d="M 152.293388 758.078118 
L 173.910124 763.80056 
L 209.938017 765.377054 
L 281.993802 766.660217 
L 498.161157 773.848421 
" clip-path="url(#p81c47e2119)" style="fill: none; stroke: #1f77b4; stroke-width: 1.5; stroke-linecap: square"/>
    <g clip-path="url(#p81c47e2119)">
     <use xlink:href="#m262e1752a8" x="152.293388" y="758.078118" style="fill: #1f77b4; stroke: #1f77b4"/>
     <use xlink:href="#m262e1752a8" x="173.910124" y="763.80056" style="fill: #1f77b4; stroke: #1f77b4"/>
     <use xlink:href="#m262e1752a8" x="209.938017" y="765.377054" style="fill: #1f77b4; stroke: #1f77b4"/>
     <use xlink:href="#m262e1752a8" x="281.993802" y="766.660217" style="fill: #1f77b4; stroke: #1f77b4"/>
     <use xlink:href="#m262e1752a8" x="498.161157" y="773.848421" style="fill: #1f77b4; stroke: #1f77b4"/>
    </g>
   </g>
   <g id="line2d_30">
    <path d="M 152.293388 535.111579 
L 173.910124 549.418208 
L 209.938017 566.90947 
L 281.993802 609.21729 
L 498.161157 681.716658 
" clip-path="url(#p81c47e2119)" style="fill: none; stroke: #ff7f0e; stroke-width: 1.5; stroke-linecap: square"/>
    <g clip-path="url(#p81c47e2119)">
     <use xlink:href="#m183726b73f" x="152.293388" y="535.111579" style="fill: #ff7f0e; stroke: #ff7f0e"/>
     <use xlink:href="#m183726b73f" x="173.910124" y="549.418208" style="fill: #ff7f0e; stroke: #ff7f0e"/>
     <use xlink:href="#m183726b73f" x="209.938017" y="566.90947" style="fill: #ff7f0e; stroke: #ff7f0e"/>
     <use xlink:href="#m183726b73f" x="281.993802" y="609.21729" style="fill: #ff7f0e; stroke: #ff7f0e"/>
     <use xlink:href="#m183726b73f" x="498.161157" y="681.716658" style="fill: #ff7f0e; stroke: #ff7f0e"/>
    </g>
   </g>
   <g id="line2d_31">
    <path d="M 152.293388 556.789467 
L 173.910124 567.564638 
L 209.938017 582.983372 
L 281.993802 613.773314 
L 498.161157 687.382734 
" clip-path="url(#p81c47e2119)" style="fill: none; stroke: #2ca02c; stroke-width: 1.5; stroke-linecap: square"/>
    <g clip-path="url(#p81c47e2119)">
     <use xlink:href="#maee02ae22e" x="152.293388" y="556.789467" style="fill: #2ca02c; stroke: #2ca02c"/>
     <use xlink:href="#maee02ae22e" x="173.910124" y="567.564638" style="fill: #2ca02c; stroke: #2ca02c"/>
     <use xlink:href="#maee02ae22e" x="209.938017" y="582.983372" style="fill: #2ca02c; stroke: #2ca02c"/>
     <use xlink:href="#maee02ae22e" x="281.993802" y="613.773314" style="fill: #2ca02c; stroke: #2ca02c"/>
     <use xlink:href="#maee02ae22e" x="498.161157" y="687.382734" style="fill: #2ca02c; stroke: #2ca02c"/>
    </g>
   </g>
   <g id="line2d_32">
    <path d="M 152.293388 560.298567 
L 173.910124 569.23746 
L 209.938017 580.41173 
L 281.993802 613.776701 
L 498.161157 681.890859 
" clip-path="url(#p81c47e2119)" style="fill: none; stroke: #d62728; stroke-width: 1.5; stroke-linecap: square"/>
    <g clip-path="url(#p81c47e2119)">
     <use xlink:href="#mb3e37fcaa5" x="152.293388" y="560.298567" style="fill: #d62728; stroke: #d62728"/>
     <use xlink:href="#mb3e37fcaa5" x="173.910124" y="569.23746" style="fill: #d62728; stroke: #d62728"/>
     <use xlink:href="#mb3e37fcaa5" x="209.938017" y="580.41173" style="fill: #d62728; stroke: #d62728"/>
     <use xlink:href="#mb3e37fcaa5" x="281.993802" y="613.776701" style="fill: #d62728; stroke: #d62728"/>
     <use xlink:href="#mb3e37fcaa5" x="498.161157" y="681.890859" style="fill: #d62728; stroke: #d62728"/>
    </g>
   </g>
   <g id="patch_25">
    <path d="M 135 785.785263 
L 135 523.174737 
" style="fill: none; stroke: #000000; stroke-width: 0.8; stroke-linejoin: miter; stroke-linecap: square"/>
   </g>
   <g id="patch_26">
    <path d="M 515.454545 785.785263 
L 515.454545 523.174737 
" style="fill: none; stroke: #000000; stroke-width: 0.8; stroke-linejoin: miter; stroke-linecap: square"/>
   </g>
   <g id="patch_27">
    <path d="M 135 785.785263 
L 515.454545 785.785263 
" style="fill: none; stroke: #000000; stroke-width: 0.8; stroke-linejoin: miter; stroke-linecap: square"/>
   </g>
   <g id="patch_28">
    <path d="M 135 523.174737 
L 515.454545 523.174737 
" style="fill: none; stroke: #000000; stroke-width: 0.8; stroke-linejoin: miter; stroke-linecap: square"/>
   </g>
   <g id="text_34">
    <!-- c -->
    <g transform="translate(91.769432 505.058783) scale(0.28 -0.28)">
     <defs>
      <path id="DejaVuSans-Bold-63" d="M 3366 3391 
L 3366 2478 
Q 3138 2634 2908 2709 
Q 2678 2784 2431 2784 
Q 1963 2784 1702 2511 
Q 1441 2238 1441 1747 
Q 1441 1256 1702 982 
Q 1963 709 2431 709 
Q 2694 709 2930 787 
Q 3166 866 3366 1019 
L 3366 103 
Q 3103 6 2833 -42 
Q 2563 -91 2291 -91 
Q 1344 -91 809 395 
Q 275 881 275 1747 
Q 275 2613 809 3098 
Q 1344 3584 2291 3584 
Q 2566 3584 2833 3536 
Q 3100 3488 3366 3391 
z
" transform="scale(0.015625)"/>
     </defs>
     <use xlink:href="#DejaVuSans-Bold-63"/>
    </g>
   </g>
   <g id="text_35">
    <!-- Trustworthiness -->
    <g transform="translate(230.950398 517.174737) scale(0.24 -0.24)">
     <defs>
      <path id="DejaVuSans-54" d="M -19 4666 
L 3928 4666 
L 3928 4134 
L 2272 4134 
L 2272 0 
L 1638 0 
L 1638 4134 
L -19 4134 
L -19 4666 
z
" transform="scale(0.015625)"/>
      <path id="DejaVuSans-77" d="M 269 3500 
L 844 3500 
L 1563 769 
L 2278 3500 
L 2956 3500 
L 3675 769 
L 4391 3500 
L 4966 3500 
L 4050 0 
L 3372 0 
L 2619 2869 
L 1863 0 
L 1184 0 
L 269 3500 
z
" transform="scale(0.015625)"/>
      <path id="DejaVuSans-6f" d="M 1959 3097 
Q 1497 3097 1228 2736 
Q 959 2375 959 1747 
Q 959 1119 1226 758 
Q 1494 397 1959 397 
Q 2419 397 2687 759 
Q 2956 1122 2956 1747 
Q 2956 2369 2687 2733 
Q 2419 3097 1959 3097 
z
M 1959 3584 
Q 2709 3584 3137 3096 
Q 3566 2609 3566 1747 
Q 3566 888 3137 398 
Q 2709 -91 1959 -91 
Q 1206 -91 779 398 
Q 353 888 353 1747 
Q 353 2609 779 3096 
Q 1206 3584 1959 3584 
z
" transform="scale(0.015625)"/>
      <path id="DejaVuSans-68" d="M 3513 2113 
L 3513 0 
L 2938 0 
L 2938 2094 
Q 2938 2591 2744 2837 
Q 2550 3084 2163 3084 
Q 1697 3084 1428 2787 
Q 1159 2491 1159 1978 
L 1159 0 
L 581 0 
L 581 4863 
L 1159 4863 
L 1159 2956 
Q 1366 3272 1645 3428 
Q 1925 3584 2291 3584 
Q 2894 3584 3203 3211 
Q 3513 2838 3513 2113 
z
" transform="scale(0.015625)"/>
      <path id="DejaVuSans-6e" d="M 3513 2113 
L 3513 0 
L 2938 0 
L 2938 2094 
Q 2938 2591 2744 2837 
Q 2550 3084 2163 3084 
Q 1697 3084 1428 2787 
Q 1159 2491 1159 1978 
L 1159 0 
L 581 0 
L 581 3500 
L 1159 3500 
L 1159 2956 
Q 1366 3272 1645 3428 
Q 1925 3584 2291 3584 
Q 2894 3584 3203 3211 
Q 3513 2838 3513 2113 
z
" transform="scale(0.015625)"/>
     </defs>
     <use xlink:href="#DejaVuSans-54"/>
     <use xlink:href="#DejaVuSans-72" x="46.333984"/>
     <use xlink:href="#DejaVuSans-75" x="87.447266"/>
     <use xlink:href="#DejaVuSans-73" x="150.826172"/>
     <use xlink:href="#DejaVuSans-74" x="202.925781"/>
     <use xlink:href="#DejaVuSans-77" x="242.134766"/>
     <use xlink:href="#DejaVuSans-6f" x="323.921875"/>
     <use xlink:href="#DejaVuSans-72" x="385.103516"/>
     <use xlink:href="#DejaVuSans-74" x="426.216797"/>
     <use xlink:href="#DejaVuSans-68" x="465.425781"/>
     <use xlink:href="#DejaVuSans-69" x="528.804688"/>
     <use xlink:href="#DejaVuSans-6e" x="556.587891"/>
     <use xlink:href="#DejaVuSans-65" x="619.966797"/>
     <use xlink:href="#DejaVuSans-73" x="681.490234"/>
     <use xlink:href="#DejaVuSans-73" x="733.589844"/>
    </g>
   </g>
  </g>
  <g id="axes_4">
   <g id="patch_29">
    <path d="M 591.545455 785.785263 
L 972 785.785263 
L 972 523.174737 
L 591.545455 523.174737 
z
" style="fill: #ffffff"/>
   </g>
   <g id="matplotlib.axis_7">
    <g id="xtick_13">
     <g id="line2d_33">
      <g>
       <use xlink:href="#m6bc0dfcf14" x="594.427686" y="785.785263" style="stroke: #000000; stroke-width: 0.8"/>
      </g>
     </g>
     <g id="text_36">
      <!-- 0 -->
      <g transform="translate(587.428936 809.501826) scale(0.22 -0.22)">
       <use xlink:href="#DejaVuSans-30"/>
      </g>
     </g>
    </g>
    <g id="xtick_14">
     <g id="line2d_34">
      <g>
       <use xlink:href="#m6bc0dfcf14" x="738.539256" y="785.785263" style="stroke: #000000; stroke-width: 0.8"/>
      </g>
     </g>
     <g id="text_37">
      <!-- 20 -->
      <g transform="translate(724.541756 809.501826) scale(0.22 -0.22)">
       <use xlink:href="#DejaVuSans-32"/>
       <use xlink:href="#DejaVuSans-30" x="63.623047"/>
      </g>
     </g>
    </g>
    <g id="xtick_15">
     <g id="line2d_35">
      <g>
       <use xlink:href="#m6bc0dfcf14" x="882.650826" y="785.785263" style="stroke: #000000; stroke-width: 0.8"/>
      </g>
     </g>
     <g id="text_38">
      <!-- 40 -->
      <g transform="translate(868.653326 809.501826) scale(0.22 -0.22)">
       <use xlink:href="#DejaVuSans-34"/>
       <use xlink:href="#DejaVuSans-30" x="63.623047"/>
      </g>
     </g>
    </g>
    <g id="text_39">
     <!-- k -->
     <g transform="translate(774.823977 836.313388) scale(0.24 -0.24)">
      <use xlink:href="#DejaVuSans-6b"/>
     </g>
    </g>
   </g>
   <g id="matplotlib.axis_8">
    <g id="ytick_13">
     <g id="line2d_36">
      <g>
       <use xlink:href="#mb1d9b98984" x="591.545455" y="736.706421" style="stroke: #000000; stroke-width: 0.8"/>
      </g>
     </g>
     <g id="text_40">
      <!-- 0.80 -->
      <g transform="translate(535.56108 745.064702) scale(0.22 -0.22)">
       <use xlink:href="#DejaVuSans-30"/>
       <use xlink:href="#DejaVuSans-2e" x="63.623047"/>
       <use xlink:href="#DejaVuSans-38" x="95.410156"/>
       <use xlink:href="#DejaVuSans-30" x="159.033203"/>
      </g>
     </g>
    </g>
    <g id="ytick_14">
     <g id="line2d_37">
      <g>
       <use xlink:href="#mb1d9b98984" x="591.545455" y="683.380614" style="stroke: #000000; stroke-width: 0.8"/>
      </g>
     </g>
     <g id="text_41">
      <!-- 0.85 -->
      <g transform="translate(535.56108 691.738895) scale(0.22 -0.22)">
       <use xlink:href="#DejaVuSans-30"/>
       <use xlink:href="#DejaVuSans-2e" x="63.623047"/>
       <use xlink:href="#DejaVuSans-38" x="95.410156"/>
       <use xlink:href="#DejaVuSans-35" x="159.033203"/>
      </g>
     </g>
    </g>
    <g id="ytick_15">
     <g id="line2d_38">
      <g>
       <use xlink:href="#mb1d9b98984" x="591.545455" y="630.054807" style="stroke: #000000; stroke-width: 0.8"/>
      </g>
     </g>
     <g id="text_42">
      <!-- 0.90 -->
      <g transform="translate(535.56108 638.413088) scale(0.22 -0.22)">
       <use xlink:href="#DejaVuSans-30"/>
       <use xlink:href="#DejaVuSans-2e" x="63.623047"/>
       <use xlink:href="#DejaVuSans-39" x="95.410156"/>
       <use xlink:href="#DejaVuSans-30" x="159.033203"/>
      </g>
     </g>
    </g>
    <g id="ytick_16">
     <g id="line2d_39">
      <g>
       <use xlink:href="#mb1d9b98984" x="591.545455" y="576.729" style="stroke: #000000; stroke-width: 0.8"/>
      </g>
     </g>
     <g id="text_43">
      <!-- 0.95 -->
      <g transform="translate(535.56108 585.087281) scale(0.22 -0.22)">
       <use xlink:href="#DejaVuSans-30"/>
       <use xlink:href="#DejaVuSans-2e" x="63.623047"/>
       <use xlink:href="#DejaVuSans-39" x="95.410156"/>
       <use xlink:href="#DejaVuSans-35" x="159.033203"/>
      </g>
     </g>
    </g>
    <g id="ytick_17">
     <g id="line2d_40">
      <g>
       <use xlink:href="#mb1d9b98984" x="591.545455" y="523.403193" style="stroke: #000000; stroke-width: 0.8"/>
      </g>
     </g>
     <g id="text_44">
      <!-- 1.00 -->
      <g transform="translate(535.56108 531.761474) scale(0.22 -0.22)">
       <use xlink:href="#DejaVuSans-31"/>
       <use xlink:href="#DejaVuSans-2e" x="63.623047"/>
       <use xlink:href="#DejaVuSans-30" x="95.410156"/>
       <use xlink:href="#DejaVuSans-30" x="159.033203"/>
      </g>
     </g>
    </g>
   </g>
   <g id="line2d_41">
    <path d="M 608.838843 587.880844 
L 630.455579 605.674188 
L 666.483471 628.941975 
L 738.539256 672.980566 
L 954.706612 769.464592 
" clip-path="url(#p85956de888)" style="fill: none; stroke: #1f77b4; stroke-width: 1.5; stroke-linecap: square"/>
    <g clip-path="url(#p85956de888)">
     <use xlink:href="#m262e1752a8" x="608.838843" y="587.880844" style="fill: #1f77b4; stroke: #1f77b4"/>
     <use xlink:href="#m262e1752a8" x="630.455579" y="605.674188" style="fill: #1f77b4; stroke: #1f77b4"/>
     <use xlink:href="#m262e1752a8" x="666.483471" y="628.941975" style="fill: #1f77b4; stroke: #1f77b4"/>
     <use xlink:href="#m262e1752a8" x="738.539256" y="672.980566" style="fill: #1f77b4; stroke: #1f77b4"/>
     <use xlink:href="#m262e1752a8" x="954.706612" y="769.464592" style="fill: #1f77b4; stroke: #1f77b4"/>
    </g>
   </g>
   <g id="line2d_42">
    <path d="M 608.838843 535.111579 
L 630.455579 547.096764 
L 666.483471 563.69195 
L 738.539256 602.588303 
L 954.706612 693.308902 
" clip-path="url(#p85956de888)" style="fill: none; stroke: #ff7f0e; stroke-width: 1.5; stroke-linecap: square"/>
    <g clip-path="url(#p85956de888)">
     <use xlink:href="#m183726b73f" x="608.838843" y="535.111579" style="fill: #ff7f0e; stroke: #ff7f0e"/>
     <use xlink:href="#m183726b73f" x="630.455579" y="547.096764" style="fill: #ff7f0e; stroke: #ff7f0e"/>
     <use xlink:href="#m183726b73f" x="666.483471" y="563.69195" style="fill: #ff7f0e; stroke: #ff7f0e"/>
     <use xlink:href="#m183726b73f" x="738.539256" y="602.588303" style="fill: #ff7f0e; stroke: #ff7f0e"/>
     <use xlink:href="#m183726b73f" x="954.706612" y="693.308902" style="fill: #ff7f0e; stroke: #ff7f0e"/>
    </g>
   </g>
   <g id="line2d_43">
    <path d="M 608.838843 536.318422 
L 630.455579 545.081406 
L 666.483471 560.041767 
L 738.539256 598.875262 
L 954.706612 689.954098 
" clip-path="url(#p85956de888)" style="fill: none; stroke: #2ca02c; stroke-width: 1.5; stroke-linecap: square"/>
    <g clip-path="url(#p85956de888)">
     <use xlink:href="#maee02ae22e" x="608.838843" y="536.318422" style="fill: #2ca02c; stroke: #2ca02c"/>
     <use xlink:href="#maee02ae22e" x="630.455579" y="545.081406" style="fill: #2ca02c; stroke: #2ca02c"/>
     <use xlink:href="#maee02ae22e" x="666.483471" y="560.041767" style="fill: #2ca02c; stroke: #2ca02c"/>
     <use xlink:href="#maee02ae22e" x="738.539256" y="598.875262" style="fill: #2ca02c; stroke: #2ca02c"/>
     <use xlink:href="#maee02ae22e" x="954.706612" y="689.954098" style="fill: #2ca02c; stroke: #2ca02c"/>
    </g>
   </g>
   <g id="line2d_44">
    <path d="M 608.838843 553.94292 
L 630.455579 572.916493 
L 666.483471 601.815402 
L 738.539256 657.291772 
L 954.706612 773.848421 
" clip-path="url(#p85956de888)" style="fill: none; stroke: #d62728; stroke-width: 1.5; stroke-linecap: square"/>
    <g clip-path="url(#p85956de888)">
     <use xlink:href="#mb3e37fcaa5" x="608.838843" y="553.94292" style="fill: #d62728; stroke: #d62728"/>
     <use xlink:href="#mb3e37fcaa5" x="630.455579" y="572.916493" style="fill: #d62728; stroke: #d62728"/>
     <use xlink:href="#mb3e37fcaa5" x="666.483471" y="601.815402" style="fill: #d62728; stroke: #d62728"/>
     <use xlink:href="#mb3e37fcaa5" x="738.539256" y="657.291772" style="fill: #d62728; stroke: #d62728"/>
     <use xlink:href="#mb3e37fcaa5" x="954.706612" y="773.848421" style="fill: #d62728; stroke: #d62728"/>
    </g>
   </g>
   <g id="patch_30">
    <path d="M 591.545455 785.785263 
L 591.545455 523.174737 
" style="fill: none; stroke: #000000; stroke-width: 0.8; stroke-linejoin: miter; stroke-linecap: square"/>
   </g>
   <g id="patch_31">
    <path d="M 972 785.785263 
L 972 523.174737 
" style="fill: none; stroke: #000000; stroke-width: 0.8; stroke-linejoin: miter; stroke-linecap: square"/>
   </g>
   <g id="patch_32">
    <path d="M 591.545455 785.785263 
L 972 785.785263 
" style="fill: none; stroke: #000000; stroke-width: 0.8; stroke-linejoin: miter; stroke-linecap: square"/>
   </g>
   <g id="patch_33">
    <path d="M 591.545455 523.174737 
L 972 523.174737 
" style="fill: none; stroke: #000000; stroke-width: 0.8; stroke-linejoin: miter; stroke-linecap: square"/>
   </g>
   <g id="text_45">
    <!-- d -->
    <g transform="translate(544.871761 505.058783) scale(0.28 -0.28)">
     <defs>
      <path id="DejaVuSans-Bold-64" d="M 2919 2988 
L 2919 4863 
L 4044 4863 
L 4044 0 
L 2919 0 
L 2919 506 
Q 2688 197 2409 53 
Q 2131 -91 1766 -91 
Q 1119 -91 703 423 
Q 288 938 288 1747 
Q 288 2556 703 3070 
Q 1119 3584 1766 3584 
Q 2128 3584 2408 3439 
Q 2688 3294 2919 2988 
z
M 2181 722 
Q 2541 722 2730 984 
Q 2919 1247 2919 1747 
Q 2919 2247 2730 2509 
Q 2541 2772 2181 2772 
Q 1825 2772 1636 2509 
Q 1447 2247 1447 1747 
Q 1447 1247 1636 984 
Q 1825 722 2181 722 
z
" transform="scale(0.015625)"/>
     </defs>
     <use xlink:href="#DejaVuSans-Bold-64"/>
    </g>
   </g>
   <g id="text_46">
    <!-- Continuity -->
    <g transform="translate(720.057102 517.174737) scale(0.24 -0.24)">
     <defs>
      <path id="DejaVuSans-79" d="M 2059 -325 
Q 1816 -950 1584 -1140 
Q 1353 -1331 966 -1331 
L 506 -1331 
L 506 -850 
L 844 -850 
Q 1081 -850 1212 -737 
Q 1344 -625 1503 -206 
L 1606 56 
L 191 3500 
L 800 3500 
L 1894 763 
L 2988 3500 
L 3597 3500 
L 2059 -325 
z
" transform="scale(0.015625)"/>
     </defs>
     <use xlink:href="#DejaVuSans-43"/>
     <use xlink:href="#DejaVuSans-6f" x="69.824219"/>
     <use xlink:href="#DejaVuSans-6e" x="131.005859"/>
     <use xlink:href="#DejaVuSans-74" x="194.384766"/>
     <use xlink:href="#DejaVuSans-69" x="233.59375"/>
     <use xlink:href="#DejaVuSans-6e" x="261.376953"/>
     <use xlink:href="#DejaVuSans-75" x="324.755859"/>
     <use xlink:href="#DejaVuSans-69" x="388.134766"/>
     <use xlink:href="#DejaVuSans-74" x="415.917969"/>
     <use xlink:href="#DejaVuSans-79" x="455.126953"/>
    </g>
   </g>
  </g>
  <g id="axes_5">
   <g id="patch_34">
    <path d="M 135 1153.44 
L 515.454545 1153.44 
L 515.454545 890.829474 
L 135 890.829474 
z
" style="fill: #ffffff"/>
   </g>
   <g id="matplotlib.axis_9">
    <g id="xtick_16">
     <g id="line2d_45">
      <g>
       <use xlink:href="#m6bc0dfcf14" x="152.109416" y="1153.44" style="stroke: #000000; stroke-width: 0.8"/>
      </g>
     </g>
     <g id="text_47">
      <!-- 0 -->
      <g transform="translate(145.110666 1177.156562) scale(0.22 -0.22)">
       <use xlink:href="#DejaVuSans-30"/>
      </g>
     </g>
    </g>
    <g id="xtick_17">
     <g id="line2d_46">
      <g>
       <use xlink:href="#m6bc0dfcf14" x="244.095525" y="1153.44" style="stroke: #000000; stroke-width: 0.8"/>
      </g>
     </g>
     <g id="text_48">
      <!-- 500 -->
      <g transform="translate(223.099275 1177.156562) scale(0.22 -0.22)">
       <use xlink:href="#DejaVuSans-35"/>
       <use xlink:href="#DejaVuSans-30" x="63.623047"/>
       <use xlink:href="#DejaVuSans-30" x="127.246094"/>
      </g>
     </g>
    </g>
    <g id="xtick_18">
     <g id="line2d_47">
      <g>
       <use xlink:href="#m6bc0dfcf14" x="336.081634" y="1153.44" style="stroke: #000000; stroke-width: 0.8"/>
      </g>
     </g>
     <g id="text_49">
      <!-- 1000 -->
      <g transform="translate(308.086634 1177.156562) scale(0.22 -0.22)">
       <use xlink:href="#DejaVuSans-31"/>
       <use xlink:href="#DejaVuSans-30" x="63.623047"/>
       <use xlink:href="#DejaVuSans-30" x="127.246094"/>
       <use xlink:href="#DejaVuSans-30" x="190.869141"/>
      </g>
     </g>
    </g>
    <g id="xtick_19">
     <g id="line2d_48">
      <g>
       <use xlink:href="#m6bc0dfcf14" x="428.067742" y="1153.44" style="stroke: #000000; stroke-width: 0.8"/>
      </g>
     </g>
     <g id="text_50">
      <!-- 1500 -->
      <g transform="translate(400.072742 1177.156562) scale(0.22 -0.22)">
       <use xlink:href="#DejaVuSans-31"/>
       <use xlink:href="#DejaVuSans-35" x="63.623047"/>
       <use xlink:href="#DejaVuSans-30" x="127.246094"/>
       <use xlink:href="#DejaVuSans-30" x="190.869141"/>
      </g>
     </g>
    </g>
    <g id="text_51">
     <!-- k -->
     <g transform="translate(318.278523 1203.968125) scale(0.24 -0.24)">
      <use xlink:href="#DejaVuSans-6b"/>
     </g>
    </g>
   </g>
   <g id="matplotlib.axis_10">
    <g id="ytick_18">
     <g id="line2d_49">
      <g>
       <use xlink:href="#mb1d9b98984" x="135" y="1150.999872" style="stroke: #000000; stroke-width: 0.8"/>
      </g>
     </g>
     <g id="text_52">
      <!-- 0.00 -->
      <g transform="translate(79.015625 1159.358153) scale(0.22 -0.22)">
       <use xlink:href="#DejaVuSans-30"/>
       <use xlink:href="#DejaVuSans-2e" x="63.623047"/>
       <use xlink:href="#DejaVuSans-30" x="95.410156"/>
       <use xlink:href="#DejaVuSans-30" x="159.033203"/>
      </g>
     </g>
    </g>
    <g id="ytick_19">
     <g id="line2d_50">
      <g>
       <use xlink:href="#mb1d9b98984" x="135" y="1088.941483" style="stroke: #000000; stroke-width: 0.8"/>
      </g>
     </g>
     <g id="text_53">
      <!-- 0.25 -->
      <g transform="translate(79.015625 1097.299764) scale(0.22 -0.22)">
       <use xlink:href="#DejaVuSans-30"/>
       <use xlink:href="#DejaVuSans-2e" x="63.623047"/>
       <use xlink:href="#DejaVuSans-32" x="95.410156"/>
       <use xlink:href="#DejaVuSans-35" x="159.033203"/>
      </g>
     </g>
    </g>
    <g id="ytick_20">
     <g id="line2d_51">
      <g>
       <use xlink:href="#mb1d9b98984" x="135" y="1026.883094" style="stroke: #000000; stroke-width: 0.8"/>
      </g>
     </g>
     <g id="text_54">
      <!-- 0.50 -->
      <g transform="translate(79.015625 1035.241375) scale(0.22 -0.22)">
       <use xlink:href="#DejaVuSans-30"/>
       <use xlink:href="#DejaVuSans-2e" x="63.623047"/>
       <use xlink:href="#DejaVuSans-35" x="95.410156"/>
       <use xlink:href="#DejaVuSans-30" x="159.033203"/>
      </g>
     </g>
    </g>
    <g id="ytick_21">
     <g id="line2d_52">
      <g>
       <use xlink:href="#mb1d9b98984" x="135" y="964.824705" style="stroke: #000000; stroke-width: 0.8"/>
      </g>
     </g>
     <g id="text_55">
      <!-- 0.75 -->
      <g transform="translate(79.015625 973.182986) scale(0.22 -0.22)">
       <use xlink:href="#DejaVuSans-30"/>
       <use xlink:href="#DejaVuSans-2e" x="63.623047"/>
       <use xlink:href="#DejaVuSans-37" x="95.410156"/>
       <use xlink:href="#DejaVuSans-35" x="159.033203"/>
      </g>
     </g>
    </g>
    <g id="ytick_22">
     <g id="line2d_53">
      <g>
       <use xlink:href="#mb1d9b98984" x="135" y="902.766316" style="stroke: #000000; stroke-width: 0.8"/>
      </g>
     </g>
     <g id="text_56">
      <!-- 1.00 -->
      <g transform="translate(79.015625 911.124597) scale(0.22 -0.22)">
       <use xlink:href="#DejaVuSans-31"/>
       <use xlink:href="#DejaVuSans-2e" x="63.623047"/>
       <use xlink:href="#DejaVuSans-30" x="95.410156"/>
       <use xlink:href="#DejaVuSans-30" x="159.033203"/>
      </g>
     </g>
    </g>
    <g id="text_57">
     <!-- Metric Value -->
     <g transform="translate(70.024375 1096.210362) rotate(-90) scale(0.24 -0.24)">
      <use xlink:href="#DejaVuSans-4d"/>
      <use xlink:href="#DejaVuSans-65" x="86.279297"/>
      <use xlink:href="#DejaVuSans-74" x="147.802734"/>
      <use xlink:href="#DejaVuSans-72" x="187.011719"/>
      <use xlink:href="#DejaVuSans-69" x="228.125"/>
      <use xlink:href="#DejaVuSans-63" x="255.908203"/>
      <use xlink:href="#DejaVuSans-20" x="310.888672"/>
      <use xlink:href="#DejaVuSans-56" x="342.675781"/>
      <use xlink:href="#DejaVuSans-61" x="403.333984"/>
      <use xlink:href="#DejaVuSans-6c" x="464.613281"/>
      <use xlink:href="#DejaVuSans-75" x="492.396484"/>
      <use xlink:href="#DejaVuSans-65" x="555.775391"/>
     </g>
    </g>
   </g>
   <g id="line2d_54">
    <path d="M 152.293388 1141.503158 
L 152.845305 1130.555557 
L 153.581194 1122.163495 
L 154.685027 1116.197429 
L 155.420916 1113.203536 
L 155.972833 1111.423949 
L 157.076666 1108.552882 
L 158.364472 1106.452989 
L 160.572138 1104.155724 
L 160.940083 1103.953216 
L 161.308027 1103.724701 
L 161.859944 1103.536211 
L 162.779805 1102.993254 
L 163.331721 1102.926 
L 168.482944 1100.601189 
L 168.850888 1100.602932 
L 169.218832 1100.496811 
L 170.322666 1100.390699 
L 173.634166 1099.654034 
L 181.544971 1096.946916 
L 184.304554 1095.963399 
L 185.776332 1095.407768 
L 187.24811 1094.812361 
L 188.535915 1094.257405 
L 189.271804 1093.930131 
L 193.87111 1091.745349 
L 194.974943 1091.125739 
L 195.894804 1090.706599 
L 198.654387 1089.393745 
L 207.117109 1084.791523 
L 208.03697 1084.338475 
L 209.140804 1083.792749 
L 219.62722 1078.840083 
L 221.834887 1077.964822 
L 223.674609 1077.194182 
L 225.146386 1076.526549 
L 227.354053 1075.499576 
L 230.297609 1074.104729 
L 231.953359 1073.394747 
L 233.425136 1072.676152 
L 235.632803 1071.632234 
L 239.312247 1069.683422 
L 243.175664 1067.64702 
L 247.407025 1065.396273 
L 249.614691 1064.232606 
L 253.478108 1062.174284 
L 262.676719 1056.726242 
L 265.068358 1055.191929 
L 267.459996 1053.726079 
L 269.483691 1052.430115 
L 272.059302 1050.845385 
L 278.130385 1047.114253 
L 284.38544 1043.28239 
L 286.777079 1041.877394 
L 316.212634 1024.348774 
L 324.123439 1019.372338 
L 330.378495 1015.365156 
L 333.689995 1013.221611 
L 339.209161 1009.674515 
L 367.172938 991.59548 
L 403.967382 966.466503 
L 441.313742 942.277476 
L 451.616186 935.327254 
L 461.734658 928.259934 
L 468.909574 923.426326 
L 477.924213 917.249341 
L 484.363241 912.66603 
L 498.161157 902.766316 
L 498.161157 902.766316 
" clip-path="url(#pc295019f5b)" style="fill: none; stroke: #1f77b4; stroke-width: 1.5; stroke-linecap: square"/>
   </g>
   <g id="line2d_55">
    <path d="M 152.293388 1048.514498 
L 152.661333 1027.718453 
L 153.029277 1016.937924 
L 153.581194 1010.313306 
L 153.949138 1008.641489 
L 154.133111 1008.453233 
L 154.501055 1008.944856 
L 155.236944 1013.957011 
L 157.628583 1033.099924 
L 158.180499 1037.518934 
L 159.652277 1046.111366 
L 160.572138 1050.260724 
L 163.147749 1060.15237 
L 164.619527 1065.011548 
L 166.459249 1070.037678 
L 167.195138 1071.625743 
L 169.218832 1075.376471 
L 170.322666 1076.927367 
L 171.610471 1078.428153 
L 173.266221 1080.163331 
L 174.00211 1080.808647 
L 174.554027 1081.21351 
L 175.289916 1081.733108 
L 176.209777 1082.191989 
L 177.497582 1082.416315 
L 177.865527 1082.494458 
L 179.153332 1082.944574 
L 179.521277 1083.041888 
L 180.073193 1083.175249 
L 180.62511 1083.329827 
L 181.177027 1083.526953 
L 181.912915 1083.615051 
L 183.016749 1083.675737 
L 184.120582 1083.676901 
L 185.408388 1083.916576 
L 186.144276 1083.983157 
L 187.064138 1084.085524 
L 188.167971 1083.983165 
L 188.535915 1083.825408 
L 191.295499 1083.861521 
L 192.583304 1083.840596 
L 194.055082 1083.880734 
L 196.078776 1083.292737 
L 196.998637 1082.842785 
L 198.286443 1082.371504 
L 199.574248 1081.861891 
L 201.229998 1081.242693 
L 203.253693 1080.492368 
L 205.829304 1079.362558 
L 206.933137 1078.946386 
L 212.084359 1076.524788 
L 213.188192 1075.931573 
L 218.339414 1073.582966 
L 219.443248 1073.049118 
L 222.93872 1071.12675 
L 225.146386 1070.157531 
L 227.170081 1069.319272 
L 228.825831 1068.53117 
L 234.52897 1066.177162 
L 235.448831 1065.850311 
L 237.472525 1065.083433 
L 238.760331 1064.430848 
L 240.048136 1063.811449 
L 242.439775 1062.54735 
L 244.095525 1061.651883 
L 245.38333 1060.85289 
L 246.303191 1060.235202 
L 247.407025 1059.576429 
L 249.246747 1058.463366 
L 254.765913 1055.116767 
L 262.492747 1050.216213 
L 266.724108 1047.905816 
L 268.195885 1047.058804 
L 274.818885 1043.041192 
L 279.970107 1039.807849 
L 281.441885 1038.896768 
L 283.465579 1037.642638 
L 285.673246 1036.358915 
L 301.862801 1026.049085 
L 311.429356 1020.59612 
L 331.6663 1009.807469 
L 342.152717 1004.058088 
L 363.493494 992.409177 
L 375.267716 985.39869 
L 385.938104 978.652754 
L 391.089327 975.380316 
L 402.863548 968.357087 
L 405.255187 966.970361 
L 415.741604 960.564042 
L 428.435687 952.323824 
L 437.266353 946.564549 
L 447.568797 939.919894 
L 459.159047 931.779944 
L 464.310269 927.990311 
L 472.221074 921.969569 
L 479.947908 916.113557 
L 481.971602 914.620951 
L 491.354185 907.70122 
L 498.161157 902.766316 
L 498.161157 902.766316 
" clip-path="url(#pc295019f5b)" style="fill: none; stroke: #ff7f0e; stroke-width: 1.5; stroke-linecap: square"/>
   </g>
   <g id="line2d_56">
    <path d="M 152.293388 1103.911998 
L 152.661333 1067.332062 
L 153.029277 1048.250701 
L 153.581194 1031.713888 
L 153.949138 1025.550916 
L 154.317083 1022.15672 
L 154.501055 1020.886771 
L 154.868999 1020.209014 
L 156.524749 1029.66396 
L 157.076666 1033.780913 
L 157.812555 1039.090116 
L 158.916388 1046.532451 
L 160.020222 1052.769002 
L 160.75611 1056.004667 
L 161.124055 1057.087921 
L 162.043916 1060.720023 
L 164.987471 1069.492062 
L 165.72336 1071.299126 
L 167.37911 1074.864066 
L 167.931027 1075.751602 
L 169.218832 1077.761995 
L 171.058555 1080.080572 
L 174.186082 1083.004937 
L 174.554027 1083.304431 
L 175.473888 1083.966198 
L 176.025804 1084.333142 
L 177.31361 1085.158298 
L 178.417443 1085.622337 
L 178.96936 1085.771395 
L 179.705249 1086.059934 
L 180.809082 1086.249395 
L 181.728943 1086.52839 
L 182.832777 1086.761204 
L 183.752638 1086.940762 
L 184.304554 1087.010861 
L 187.24811 1087.405311 
L 189.823721 1087.311407 
L 192.399332 1086.923552 
L 194.606998 1086.34833 
L 195.710832 1086.048892 
L 196.630693 1085.799893 
L 197.182609 1085.587754 
L 198.102471 1085.215078 
L 199.942193 1084.565486 
L 200.494109 1084.392479 
L 203.621637 1083.287264 
L 204.541498 1082.895195 
L 205.461359 1082.487083 
L 206.197248 1082.098447 
L 209.140804 1080.606755 
L 211.34847 1079.251426 
L 213.556137 1078.263998 
L 219.259276 1075.005922 
L 219.995164 1074.531091 
L 221.098998 1073.895698 
L 225.330359 1071.311782 
L 228.089942 1069.424771 
L 230.297609 1068.00759 
L 233.241164 1066.10968 
L 235.080886 1064.855035 
L 239.496219 1062.223644 
L 257.157552 1052.719322 
L 261.204941 1050.154225 
L 263.228635 1048.958674 
L 264.700413 1048.026775 
L 272.611219 1043.581886 
L 284.569413 1035.760616 
L 286.777079 1034.353035 
L 288.984746 1033.020466 
L 290.824468 1031.894024 
L 293.400079 1030.415852 
L 305.174301 1023.470688 
L 306.462107 1022.729146 
L 311.245384 1020.033657 
L 322.467689 1014.080363 
L 367.35691 988.545973 
L 371.220327 986.314963 
L 375.819632 983.614428 
L 377.843327 982.447063 
L 383.178521 979.395743 
L 384.834271 978.483426 
L 387.593854 976.936313 
L 392.19316 974.375846 
L 404.151354 967.322214 
L 430.827325 950.65072 
L 435.426631 947.5702 
L 442.969492 942.662577 
L 450.880297 937.262808 
L 451.800158 936.67022 
L 464.126297 927.790693 
L 472.772991 921.346189 
L 477.740241 917.691523 
L 486.202963 911.536788 
L 498.161157 902.766316 
L 498.161157 902.766316 
" clip-path="url(#pc295019f5b)" style="fill: none; stroke: #2ca02c; stroke-width: 1.5; stroke-linecap: square"/>
   </g>
   <g id="line2d_57">
    <path d="M 152.293388 1107.605164 
L 152.661333 1075.685653 
L 153.029277 1058.143111 
L 153.765166 1036.11601 
L 154.133111 1030.324454 
L 154.501055 1027.055577 
L 154.685027 1025.337994 
L 154.868999 1024.913405 
L 155.052972 1025.160166 
L 155.420916 1026.025752 
L 155.788861 1026.71822 
L 156.340777 1028.804229 
L 158.548444 1042.571515 
L 159.284333 1046.120028 
L 159.836249 1048.222437 
L 160.572138 1052.09297 
L 161.124055 1054.33958 
L 162.41186 1059.60813 
L 162.963777 1061.228202 
L 164.803499 1066.80829 
L 166.459249 1071.064122 
L 167.011166 1072.127642 
L 168.298971 1074.741377 
L 169.586777 1076.889403 
L 172.34636 1080.298514 
L 175.105943 1082.491631 
L 175.65786 1082.880321 
L 179.153332 1084.836918 
L 179.705249 1085.12609 
L 184.304554 1087.555792 
L 185.224415 1087.85918 
L 185.776332 1087.932781 
L 186.512221 1088.16596 
L 188.535915 1088.487831 
L 190.375637 1088.339695 
L 190.743582 1088.298947 
L 191.847415 1088.325345 
L 192.767276 1088.272141 
L 193.503165 1088.277006 
L 197.550554 1088.116715 
L 198.286443 1087.994281 
L 199.758221 1087.66349 
L 201.229998 1087.297688 
L 201.965887 1087.054259 
L 202.701776 1086.865875 
L 205.093415 1086.079554 
L 205.645331 1085.886734 
L 206.749165 1085.429289 
L 215.947776 1082.378662 
L 224.59447 1078.658732 
L 226.066248 1078.16056 
L 226.618164 1077.95073 
L 227.721998 1077.665419 
L 233.057192 1075.61101 
L 235.632803 1074.260332 
L 238.392386 1072.767567 
L 244.831414 1069.064019 
L 246.671136 1067.865901 
L 248.142914 1067.000799 
L 249.062775 1066.433214 
L 252.926191 1063.838589 
L 256.421663 1061.283094 
L 257.341525 1060.682855 
L 259.549191 1059.442902 
L 261.020969 1058.569332 
L 263.228635 1057.16195 
L 265.068358 1056.030153 
L 268.56383 1053.882759 
L 270.403552 1052.997007 
L 279.786135 1047.953453 
L 292.66419 1040.667383 
L 294.687885 1039.521042 
L 296.527607 1038.447007 
L 301.494857 1035.264029 
L 302.966634 1034.276666 
L 306.646079 1031.878133 
L 312.53319 1027.94857 
L 319.892078 1023.133234 
L 323.939467 1020.466655 
L 325.779189 1019.250987 
L 330.378495 1015.962717 
L 331.6663 1014.979227 
L 333.873967 1013.415932 
L 335.529717 1012.199066 
L 339.393133 1009.644775 
L 342.888606 1007.359654 
L 349.327633 1002.987755 
L 353.926939 999.787327 
L 364.597327 992.554002 
L 366.804994 991.09715 
L 369.01266 989.585042 
L 372.140188 987.503911 
L 375.819632 985.020951 
L 378.395244 983.190595 
L 384.650299 978.798152 
L 387.22591 976.965794 
L 392.009188 973.627939 
L 405.991076 963.910111 
L 414.085854 958.608325 
L 443.705381 938.984147 
L 447.016881 936.838913 
L 458.60713 929.243141 
L 471.485186 920.669604 
L 476.268463 917.425498 
L 481.235713 914.022393 
L 485.835018 911.07325 
L 488.594602 909.349357 
L 496.505407 903.959746 
L 498.161157 902.766316 
L 498.161157 902.766316 
" clip-path="url(#pc295019f5b)" style="fill: none; stroke: #d62728; stroke-width: 1.5; stroke-linecap: square"/>
   </g>
   <g id="patch_35">
    <path d="M 135 1153.44 
L 135 890.829474 
" style="fill: none; stroke: #000000; stroke-width: 0.8; stroke-linejoin: miter; stroke-linecap: square"/>
   </g>
   <g id="patch_36">
    <path d="M 515.454545 1153.44 
L 515.454545 890.829474 
" style="fill: none; stroke: #000000; stroke-width: 0.8; stroke-linejoin: miter; stroke-linecap: square"/>
   </g>
   <g id="patch_37">
    <path d="M 135 1153.44 
L 515.454545 1153.44 
" style="fill: none; stroke: #000000; stroke-width: 0.8; stroke-linejoin: miter; stroke-linecap: square"/>
   </g>
   <g id="patch_38">
    <path d="M 135 890.829474 
L 515.454545 890.829474 
" style="fill: none; stroke: #000000; stroke-width: 0.8; stroke-linejoin: miter; stroke-linecap: square"/>
   </g>
   <g id="text_58">
    <!-- e -->
    <g transform="translate(89.376307 872.71352) scale(0.28 -0.28)">
     <defs>
      <path id="DejaVuSans-Bold-65" d="M 4031 1759 
L 4031 1441 
L 1416 1441 
Q 1456 1047 1700 850 
Q 1944 653 2381 653 
Q 2734 653 3104 758 
Q 3475 863 3866 1075 
L 3866 213 
Q 3469 63 3072 -14 
Q 2675 -91 2278 -91 
Q 1328 -91 801 392 
Q 275 875 275 1747 
Q 275 2603 792 3093 
Q 1309 3584 2216 3584 
Q 3041 3584 3536 3087 
Q 4031 2591 4031 1759 
z
M 2881 2131 
Q 2881 2450 2695 2645 
Q 2509 2841 2209 2841 
Q 1884 2841 1681 2658 
Q 1478 2475 1428 2131 
L 2881 2131 
z
" transform="scale(0.015625)"/>
     </defs>
     <use xlink:href="#DejaVuSans-Bold-65"/>
    </g>
   </g>
   <g id="text_59">
    <!-- $Q_{NN}$ -->
    <g transform="translate(302.787273 884.829474) scale(0.24 -0.24)">
     <use xlink:href="#DejaVuSans-Oblique-51" transform="translate(0 0.78125)"/>
     <use xlink:href="#DejaVuSans-Oblique-4e" transform="translate(78.710938 -15.625) scale(0.7)"/>
     <use xlink:href="#DejaVuSans-Oblique-4e" transform="translate(131.074219 -15.625) scale(0.7)"/>
    </g>
   </g>
  </g>
  <g id="axes_6">
   <g id="patch_39">
    <path d="M 591.545455 1153.44 
L 972 1153.44 
L 972 890.829474 
L 591.545455 890.829474 
z
" style="fill: #ffffff"/>
   </g>
   <g id="matplotlib.axis_11">
    <g id="xtick_20">
     <g id="line2d_58">
      <g>
       <use xlink:href="#m6bc0dfcf14" x="608.654871" y="1153.44" style="stroke: #000000; stroke-width: 0.8"/>
      </g>
     </g>
     <g id="text_60">
      <!-- 0 -->
      <g transform="translate(601.656121 1177.156562) scale(0.22 -0.22)">
       <use xlink:href="#DejaVuSans-30"/>
      </g>
     </g>
    </g>
    <g id="xtick_21">
     <g id="line2d_59">
      <g>
       <use xlink:href="#m6bc0dfcf14" x="700.640979" y="1153.44" style="stroke: #000000; stroke-width: 0.8"/>
      </g>
     </g>
     <g id="text_61">
      <!-- 500 -->
      <g transform="translate(679.644729 1177.156562) scale(0.22 -0.22)">
       <use xlink:href="#DejaVuSans-35"/>
       <use xlink:href="#DejaVuSans-30" x="63.623047"/>
       <use xlink:href="#DejaVuSans-30" x="127.246094"/>
      </g>
     </g>
    </g>
    <g id="xtick_22">
     <g id="line2d_60">
      <g>
       <use xlink:href="#m6bc0dfcf14" x="792.627088" y="1153.44" style="stroke: #000000; stroke-width: 0.8"/>
      </g>
     </g>
     <g id="text_62">
      <!-- 1000 -->
      <g transform="translate(764.632088 1177.156562) scale(0.22 -0.22)">
       <use xlink:href="#DejaVuSans-31"/>
       <use xlink:href="#DejaVuSans-30" x="63.623047"/>
       <use xlink:href="#DejaVuSans-30" x="127.246094"/>
       <use xlink:href="#DejaVuSans-30" x="190.869141"/>
      </g>
     </g>
    </g>
    <g id="xtick_23">
     <g id="line2d_61">
      <g>
       <use xlink:href="#m6bc0dfcf14" x="884.613197" y="1153.44" style="stroke: #000000; stroke-width: 0.8"/>
      </g>
     </g>
     <g id="text_63">
      <!-- 1500 -->
      <g transform="translate(856.618197 1177.156562) scale(0.22 -0.22)">
       <use xlink:href="#DejaVuSans-31"/>
       <use xlink:href="#DejaVuSans-35" x="63.623047"/>
       <use xlink:href="#DejaVuSans-30" x="127.246094"/>
       <use xlink:href="#DejaVuSans-30" x="190.869141"/>
      </g>
     </g>
    </g>
    <g id="text_64">
     <!-- k -->
     <g transform="translate(774.823977 1203.968125) scale(0.24 -0.24)">
      <use xlink:href="#DejaVuSans-6b"/>
     </g>
    </g>
   </g>
   <g id="matplotlib.axis_12">
    <g id="ytick_23">
     <g id="line2d_62">
      <g>
       <use xlink:href="#mb1d9b98984" x="591.545455" y="1139.659101" style="stroke: #000000; stroke-width: 0.8"/>
      </g>
     </g>
     <g id="text_65">
      <!-- 0.0 -->
      <g transform="translate(549.55858 1148.017382) scale(0.22 -0.22)">
       <use xlink:href="#DejaVuSans-30"/>
       <use xlink:href="#DejaVuSans-2e" x="63.623047"/>
       <use xlink:href="#DejaVuSans-30" x="95.410156"/>
      </g>
     </g>
    </g>
    <g id="ytick_24">
     <g id="line2d_63">
      <g>
       <use xlink:href="#mb1d9b98984" x="591.545455" y="1056.304274" style="stroke: #000000; stroke-width: 0.8"/>
      </g>
     </g>
     <g id="text_66">
      <!-- 0.2 -->
      <g transform="translate(549.55858 1064.662555) scale(0.22 -0.22)">
       <use xlink:href="#DejaVuSans-30"/>
       <use xlink:href="#DejaVuSans-2e" x="63.623047"/>
       <use xlink:href="#DejaVuSans-32" x="95.410156"/>
      </g>
     </g>
    </g>
    <g id="ytick_25">
     <g id="line2d_64">
      <g>
       <use xlink:href="#mb1d9b98984" x="591.545455" y="972.949447" style="stroke: #000000; stroke-width: 0.8"/>
      </g>
     </g>
     <g id="text_67">
      <!-- 0.4 -->
      <g transform="translate(549.55858 981.307728) scale(0.22 -0.22)">
       <use xlink:href="#DejaVuSans-30"/>
       <use xlink:href="#DejaVuSans-2e" x="63.623047"/>
       <use xlink:href="#DejaVuSans-34" x="95.410156"/>
      </g>
     </g>
    </g>
   </g>
   <g id="line2d_65">
    <path d="M 608.838843 1123.936071 
L 609.39076 1106.220202 
L 610.126648 1093.016551 
L 611.230482 1084.32919 
L 611.966371 1080.188845 
L 612.518287 1077.865702 
L 613.438148 1074.785015 
L 614.174037 1073.293234 
L 614.541982 1072.81181 
L 614.725954 1072.710429 
L 615.093898 1072.297286 
L 615.277871 1072.237119 
L 615.461843 1071.988684 
L 616.749648 1071.562518 
L 617.117593 1071.201908 
L 617.301565 1071.344095 
L 617.669509 1071.244999 
L 618.773343 1071.844655 
L 619.325259 1071.909015 
L 619.877176 1072.460809 
L 621.348954 1073.205714 
L 621.716898 1073.459316 
L 623.55662 1074.0612 
L 623.740593 1074.199751 
L 624.476481 1074.284005 
L 627.787981 1077.415432 
L 628.52387 1078.01362 
L 630.731537 1079.753642 
L 631.099481 1079.94656 
L 631.467426 1080.222557 
L 632.387287 1080.704331 
L 633.859065 1081.677232 
L 634.962898 1082.347541 
L 635.698787 1082.805224 
L 636.250703 1083.05719 
L 638.274398 1084.481294 
L 638.642342 1084.680561 
L 640.11412 1085.621444 
L 640.666037 1085.923833 
L 643.793564 1087.642503 
L 644.345481 1087.90765 
L 644.897398 1088.187216 
L 646.369175 1088.883048 
L 646.921092 1089.097599 
L 651.336425 1090.732941 
L 651.888342 1090.881402 
L 655.199842 1092.282236 
L 656.487647 1092.53049 
L 657.039564 1092.713446 
L 667.342008 1096.066294 
L 669.917619 1097.180702 
L 670.83748 1097.570451 
L 674.884869 1099.075972 
L 675.988702 1099.725728 
L 681.507869 1102.51284 
L 685.187313 1104.056841 
L 685.73923 1104.311397 
L 687.027035 1104.829922 
L 689.234702 1105.804123 
L 694.569896 1107.831994 
L 698.433313 1108.951408 
L 700.640979 1109.683655 
L 702.480702 1110.205567 
L 703.952479 1110.707634 
L 705.056313 1111.047306 
L 707.080007 1111.753222 
L 708.919729 1112.330978 
L 711.127396 1112.833471 
L 712.967118 1113.237837 
L 718.302312 1114.366237 
L 723.821479 1115.230784 
L 725.477229 1115.432992 
L 727.132979 1115.742024 
L 731.548312 1116.499459 
L 735.227756 1117.108785 
L 736.699534 1117.375266 
L 738.355284 1117.649595 
L 741.114867 1118.171291 
L 749.209645 1119.897429 
L 751.601284 1120.435165 
L 756.200589 1121.430927 
L 759.880033 1122.150919 
L 762.639617 1122.777744 
L 765.031255 1123.238274 
L 768.526728 1123.926389 
L 775.149727 1125.036958 
L 778.6452 1125.547932 
L 782.140672 1126.027838 
L 825.742087 1131.179007 
L 830.341393 1131.478018 
L 833.836865 1131.594073 
L 836.412476 1131.683367 
L 845.795059 1132.070661 
L 848.554642 1132.208335 
L 852.786003 1132.44097 
L 855.913531 1132.719309 
L 859.776947 1133.084557 
L 863.088447 1133.450393 
L 868.239669 1134.111079 
L 873.758836 1134.735953 
L 877.070336 1135.088382 
L 893.443863 1137.126407 
L 906.137946 1138.181661 
L 923.247362 1138.944436 
L 928.766529 1139.363649 
L 932.445973 1139.512865 
L 937.96514 1139.659646 
L 942.564445 1139.704894 
L 945.875945 1139.816066 
L 954.706612 1139.659101 
L 954.706612 1139.659101 
" clip-path="url(#pd1e0c50b18)" style="fill: none; stroke: #1f77b4; stroke-width: 1.5; stroke-linecap: square"/>
   </g>
   <g id="line2d_66">
    <path d="M 608.838843 967.81186 
L 609.206787 933.339279 
L 609.574732 915.682346 
L 610.126648 905.224592 
L 610.494593 902.860819 
L 610.678565 902.766316 
L 611.04651 904.034872 
L 611.782398 913.336359 
L 615.829787 969.468712 
L 618.405398 990.874142 
L 620.061148 1003.090755 
L 621.532926 1012.594573 
L 623.372648 1022.866018 
L 625.580315 1032.59992 
L 627.236065 1038.440759 
L 628.891815 1043.646099 
L 629.811676 1046.208012 
L 630.731537 1048.5694 
L 632.571259 1052.784852 
L 633.307148 1054.051977 
L 633.859065 1054.858815 
L 634.410981 1055.661144 
L 635.698787 1057.967864 
L 636.066731 1058.574392 
L 636.80262 1059.741344 
L 639.010287 1063.180683 
L 639.378231 1063.595808 
L 640.298092 1064.694409 
L 640.850009 1065.48543 
L 641.76987 1066.919521 
L 642.689731 1068.131283 
L 643.609592 1069.411006 
L 644.713425 1070.568571 
L 645.08137 1070.746845 
L 647.840953 1074.131035 
L 648.944786 1075.422118 
L 651.152453 1078.008342 
L 652.256286 1078.737031 
L 654.096008 1079.574061 
L 655.01587 1080.175092 
L 655.567786 1080.430964 
L 656.303675 1080.82847 
L 657.223536 1081.432163 
L 657.959425 1081.82124 
L 659.247231 1082.626719 
L 659.799147 1082.876446 
L 662.190786 1083.947379 
L 663.294619 1084.632853 
L 664.582425 1085.293996 
L 665.87023 1085.916869 
L 670.653508 1087.564718 
L 672.309258 1088.343272 
L 673.781036 1089.002479 
L 674.14898 1089.209779 
L 676.540619 1090.007099 
L 678.012397 1090.267236 
L 678.748286 1090.568758 
L 679.668147 1090.930431 
L 680.588008 1091.302126 
L 682.243758 1092.2317 
L 683.715535 1092.921436 
L 684.819369 1093.289413 
L 685.923202 1093.863077 
L 687.027035 1094.398768 
L 691.074424 1096.50878 
L 691.810313 1096.976828 
L 692.730174 1097.527361 
L 693.834007 1098.157972 
L 696.225646 1099.012027 
L 696.777563 1099.227546 
L 698.433313 1099.729805 
L 699.169202 1100.017113 
L 701.192896 1100.582374 
L 703.21659 1100.805105 
L 710.943424 1102.323336 
L 711.679312 1102.336288 
L 713.335062 1102.536812 
L 716.830535 1102.903893 
L 718.302312 1103.226717 
L 719.77409 1103.58721 
L 722.717646 1104.47824 
L 723.821479 1104.701872 
L 725.109284 1105.038656 
L 726.213118 1105.220274 
L 727.500923 1105.506303 
L 728.236812 1105.684025 
L 729.156673 1105.883354 
L 730.628451 1106.129777 
L 732.836117 1106.346443 
L 733.755979 1106.446338 
L 734.859812 1106.604912 
L 735.963645 1106.848753 
L 738.539256 1107.251081 
L 739.64309 1107.436013 
L 742.954589 1108.135846 
L 745.162256 1108.364927 
L 747.921839 1108.659413 
L 750.129506 1108.80269 
L 758.408256 1110.230164 
L 766.135089 1112.076988 
L 768.894672 1112.885007 
L 769.998505 1113.213016 
L 775.885616 1115.1566 
L 778.829172 1116.090032 
L 783.244505 1117.463603 
L 783.980394 1117.718738 
L 785.820116 1118.292247 
L 787.291894 1118.599476 
L 788.763672 1119.013445 
L 792.627088 1119.945072 
L 793.730921 1120.195698 
L 798.330227 1121.702761 
L 799.985977 1122.21991 
L 801.641727 1122.713849 
L 802.193643 1122.881182 
L 803.665421 1123.258714 
L 807.71281 1124.432563 
L 809.920477 1125.111693 
L 813.415949 1126.090108 
L 816.175532 1126.89267 
L 821.510726 1128.312502 
L 823.166476 1128.642829 
L 828.50167 1129.744907 
L 831.261254 1130.292447 
L 852.234087 1133.468616 
L 854.99367 1134.081795 
L 858.673114 1134.798687 
L 860.696809 1135.356746 
L 861.800642 1135.561996 
L 867.871725 1136.660835 
L 869.527475 1136.901243 
L 871.551169 1137.340993 
L 875.78253 1137.895996 
L 879.829919 1138.372311 
L 882.037586 1138.607863 
L 884.06128 1138.777638 
L 885.71703 1138.945888 
L 891.788113 1139.555811 
L 894.915641 1140.0071 
L 903.010418 1140.998334 
L 905.402057 1141.193782 
L 909.817391 1141.329352 
L 910.737252 1141.35727 
L 913.496835 1141.488549 
L 914.78464 1141.447097 
L 929.134473 1140.6244 
L 933.733779 1140.248001 
L 943.668279 1139.841263 
L 945.691973 1139.794158 
L 952.498945 1139.676172 
L 954.706612 1139.659101 
L 954.706612 1139.659101 
" clip-path="url(#pd1e0c50b18)" style="fill: none; stroke: #ff7f0e; stroke-width: 1.5; stroke-linecap: square"/>
   </g>
   <g id="line2d_67">
    <path d="M 608.838843 1060.822029 
L 609.206787 999.848931 
L 609.574732 968.255237 
L 610.126648 941.155306 
L 610.494593 931.251065 
L 610.862537 925.995488 
L 611.04651 924.084866 
L 611.230482 923.538652 
L 611.414454 923.39008 
L 613.070204 941.258689 
L 613.806093 951.039991 
L 615.093898 968.220805 
L 616.197732 980.639226 
L 617.117593 989.091068 
L 618.405398 998.871512 
L 621.532926 1018.320709 
L 622.452787 1023.166052 
L 623.004704 1025.949442 
L 625.21237 1035.222723 
L 627.052092 1041.651444 
L 628.891815 1047.267859 
L 629.443731 1048.75134 
L 630.547565 1051.613064 
L 632.571259 1056.532515 
L 634.043037 1059.840016 
L 635.14687 1061.826174 
L 639.010287 1068.228464 
L 641.033981 1071.273561 
L 641.76987 1072.465683 
L 643.977536 1075.428104 
L 644.529453 1076.077413 
L 645.449314 1077.206389 
L 646.921092 1078.642472 
L 647.656981 1079.280725 
L 648.760814 1080.415672 
L 649.496703 1081.001248 
L 651.336425 1082.456143 
L 651.888342 1082.851618 
L 652.808203 1083.470645 
L 653.36012 1083.969096 
L 655.383814 1085.068635 
L 655.935731 1085.412746 
L 656.855592 1085.963135 
L 658.143397 1086.801425 
L 658.695314 1087.122142 
L 659.431203 1087.686298 
L 664.766397 1090.038761 
L 665.134341 1090.049426 
L 668.629814 1090.849481 
L 669.365702 1091.2669 
L 672.125286 1092.157337 
L 673.781036 1092.590765 
L 674.884869 1092.780561 
L 675.80473 1092.94156 
L 676.356647 1092.970473 
L 677.828424 1093.335514 
L 678.564313 1093.536179 
L 680.588008 1093.891028 
L 686.659091 1094.415658 
L 687.211008 1094.531968 
L 693.834007 1095.308262 
L 697.145507 1096.170562 
L 697.881396 1096.374924 
L 698.801257 1096.588182 
L 709.471646 1100.216523 
L 714.622868 1101.282942 
L 717.566423 1101.674831 
L 719.038201 1102.084243 
L 720.509979 1102.233408 
L 723.269562 1102.94747 
L 724.189423 1103.184864 
L 728.604756 1104.309191 
L 730.628451 1104.647413 
L 731.916256 1104.710431 
L 733.02009 1104.817287 
L 736.883506 1105.380394 
L 743.322534 1106.003379 
L 744.426367 1106.200392 
L 746.634034 1106.586174 
L 750.129506 1107.406011 
L 756.384561 1108.524385 
L 758.592228 1109.07012 
L 767.974811 1111.491561 
L 778.277255 1114.744446 
L 784.716283 1116.289908 
L 786.923949 1116.776831 
L 815.623615 1124.370168 
L 817.095393 1124.740543 
L 819.487032 1125.297173 
L 826.477976 1126.708092 
L 829.237559 1127.400383 
L 836.044531 1128.926556 
L 840.09192 1129.917175 
L 841.563698 1130.360022 
L 842.851503 1130.679482 
L 844.139309 1131.023658 
L 846.898892 1131.774965 
L 852.234087 1133.097632 
L 869.159531 1136.379528 
L 871.551169 1136.764503 
L 875.230614 1137.319132 
L 876.334447 1137.520747 
L 881.485669 1138.32967 
L 883.325391 1138.574091 
L 885.901002 1138.857105 
L 892.156058 1139.35307 
L 899.514946 1140.172161 
L 905.953974 1140.483976 
L 911.841085 1140.863904 
L 915.336557 1140.847048 
L 920.855724 1140.679585 
L 923.431335 1140.557902 
L 925.455029 1140.464978 
L 935.205557 1140.14567 
L 954.706612 1139.659101 
L 954.706612 1139.659101 
" clip-path="url(#pd1e0c50b18)" style="fill: none; stroke: #2ca02c; stroke-width: 1.5; stroke-linecap: square"/>
   </g>
   <g id="line2d_68">
    <path d="M 608.838843 1067.022706 
L 609.206787 1013.874274 
L 609.574732 984.864195 
L 610.310621 948.767863 
L 610.678565 939.487213 
L 611.04651 934.442042 
L 611.230482 931.779859 
L 611.414454 931.288563 
L 611.598426 931.924435 
L 611.966371 933.82086 
L 612.334315 935.426628 
L 612.886232 939.593663 
L 615.093898 965.367228 
L 615.829787 972.21132 
L 616.381704 976.405891 
L 617.117593 983.790644 
L 617.853482 989.781316 
L 619.509232 1002.008746 
L 621.532926 1014.666738 
L 623.188676 1023.456149 
L 626.132231 1036.279809 
L 628.891815 1045.327127 
L 633.675092 1056.952729 
L 634.227009 1058.161724 
L 635.330842 1060.542693 
L 637.354537 1064.639044 
L 639.746175 1069.731368 
L 640.666037 1071.524311 
L 641.401925 1072.894626 
L 644.897398 1078.362356 
L 646.921092 1080.541856 
L 647.289036 1080.916584 
L 648.39287 1082.290327 
L 649.312731 1083.308853 
L 649.864647 1083.933747 
L 650.416564 1084.60652 
L 652.440258 1086.910643 
L 653.728064 1088.381403 
L 654.279981 1088.934536 
L 656.671619 1090.950702 
L 660.90298 1093.994508 
L 661.822842 1094.625569 
L 662.190786 1094.813786 
L 662.926675 1095.184826 
L 664.21448 1095.934266 
L 668.997758 1099.184011 
L 669.733647 1099.71262 
L 671.757341 1100.931042 
L 673.229119 1101.631367 
L 674.14898 1102.077057 
L 675.436786 1102.624663 
L 677.46048 1103.721793 
L 681.323897 1105.637758 
L 683.163619 1106.748594 
L 684.267452 1107.598991 
L 687.027035 1109.328636 
L 687.578952 1109.664815 
L 689.05073 1110.31662 
L 689.602646 1110.575266 
L 689.970591 1110.711847 
L 690.338535 1110.876626 
L 693.098119 1111.696709 
L 693.834007 1111.874174 
L 696.409618 1112.612131 
L 698.617285 1113.143244 
L 701.008924 1113.711617 
L 703.584535 1114.01459 
L 704.320424 1114.122509 
L 705.240285 1114.387134 
L 706.160146 1114.480478 
L 706.712063 1114.469587 
L 707.999868 1114.602549 
L 709.103701 1114.72112 
L 710.391507 1114.738486 
L 712.783146 1114.627625 
L 715.726701 1115.231214 
L 717.566423 1115.641693 
L 718.854229 1115.786843 
L 720.877923 1116.126955 
L 721.797784 1116.273355 
L 725.293257 1116.909785 
L 731.548312 1119.128713 
L 734.491867 1119.944859 
L 735.043784 1120.148664 
L 735.779673 1120.304527 
L 736.33159 1120.418254 
L 737.067478 1120.514227 
L 737.98734 1120.63109 
L 741.482812 1121.565345 
L 742.034728 1121.705676 
L 743.138562 1121.945933 
L 744.610339 1122.348127 
L 748.8417 1123.548176 
L 749.577589 1123.801503 
L 751.233339 1124.207787 
L 752.1532 1124.395453 
L 752.705117 1124.546275 
L 757.672367 1125.287856 
L 758.960172 1125.297701 
L 761.167839 1125.678554 
L 769.998505 1126.42847 
L 772.942061 1126.702241 
L 773.861922 1126.813782 
L 775.3337 1126.91466 
L 779.197116 1127.250542 
L 782.876561 1127.674407 
L 784.348338 1127.65772 
L 785.452172 1127.648335 
L 786.739977 1127.647382 
L 791.891199 1127.507744 
L 806.608977 1128.711083 
L 808.080754 1128.795391 
L 810.104449 1128.841171 
L 812.496088 1128.964944 
L 814.33581 1129.147918 
L 828.317698 1130.12456 
L 830.525365 1130.35023 
L 841.011781 1130.614437 
L 843.035476 1130.602113 
L 848.922587 1130.769581 
L 851.314225 1130.701246 
L 861.248725 1131.218604 
L 865.480086 1131.63335 
L 866.583919 1131.82485 
L 869.159531 1132.036958 
L 870.079392 1132.133524 
L 871.367197 1132.229747 
L 876.518419 1132.861752 
L 882.40553 1133.25946 
L 883.693336 1133.385427 
L 886.636891 1133.619901 
L 889.02853 1133.828493 
L 903.562335 1135.269016 
L 908.713557 1135.789615 
L 918.09614 1136.6429 
L 919.567918 1136.769391 
L 923.615307 1137.134408 
L 925.087085 1137.305622 
L 930.054334 1137.723392 
L 935.573501 1138.068897 
L 937.597195 1138.162263 
L 939.62089 1138.389542 
L 949.003473 1139.523657 
L 954.706612 1139.659101 
L 954.706612 1139.659101 
" clip-path="url(#pd1e0c50b18)" style="fill: none; stroke: #d62728; stroke-width: 1.5; stroke-linecap: square"/>
   </g>
   <g id="patch_40">
    <path d="M 591.545455 1153.44 
L 591.545455 890.829474 
" style="fill: none; stroke: #000000; stroke-width: 0.8; stroke-linejoin: miter; stroke-linecap: square"/>
   </g>
   <g id="patch_41">
    <path d="M 972 1153.44 
L 972 890.829474 
" style="fill: none; stroke: #000000; stroke-width: 0.8; stroke-linejoin: miter; stroke-linecap: square"/>
   </g>
   <g id="patch_42">
    <path d="M 591.545455 1153.44 
L 972 1153.44 
" style="fill: none; stroke: #000000; stroke-width: 0.8; stroke-linejoin: miter; stroke-linecap: square"/>
   </g>
   <g id="patch_43">
    <path d="M 591.545455 890.829474 
L 972 890.829474 
" style="fill: none; stroke: #000000; stroke-width: 0.8; stroke-linejoin: miter; stroke-linecap: square"/>
   </g>
   <g id="text_68">
    <!-- f -->
    <g transform="translate(552.733636 872.71352) scale(0.28 -0.28)">
     <defs>
      <path id="DejaVuSans-Bold-66" d="M 2841 4863 
L 2841 4128 
L 2222 4128 
Q 1984 4128 1890 4042 
Q 1797 3956 1797 3744 
L 1797 3500 
L 2753 3500 
L 2753 2700 
L 1797 2700 
L 1797 0 
L 678 0 
L 678 2700 
L 122 2700 
L 122 3500 
L 678 3500 
L 678 3744 
Q 678 4316 997 4589 
Q 1316 4863 1984 4863 
L 2841 4863 
z
" transform="scale(0.015625)"/>
     </defs>
     <use xlink:href="#DejaVuSans-Bold-66"/>
    </g>
   </g>
   <g id="text_69">
    <!-- LCMC -->
    <g transform="translate(747.973977 884.829474) scale(0.24 -0.24)">
     <defs>
      <path id="DejaVuSans-4c" d="M 628 4666 
L 1259 4666 
L 1259 531 
L 3531 531 
L 3531 0 
L 628 0 
L 628 4666 
z
" transform="scale(0.015625)"/>
     </defs>
     <use xlink:href="#DejaVuSans-4c"/>
     <use xlink:href="#DejaVuSans-43" x="55.712891"/>
     <use xlink:href="#DejaVuSans-4d" x="125.537109"/>
     <use xlink:href="#DejaVuSans-43" x="211.816406"/>
    </g>
   </g>
  </g>
 </g>
 <defs>
  <clipPath id="p237f3dafed">
   <rect x="135" y="155.52" width="380.454545" height="262.610526"/>
  </clipPath>
  <clipPath id="p9dbff2eeba">
   <rect x="591.545455" y="155.52" width="380.454545" height="262.610526"/>
  </clipPath>
  <clipPath id="p81c47e2119">
   <rect x="135" y="523.174737" width="380.454545" height="262.610526"/>
  </clipPath>
  <clipPath id="p85956de888">
   <rect x="591.545455" y="523.174737" width="380.454545" height="262.610526"/>
  </clipPath>
  <clipPath id="pc295019f5b">
   <rect x="135" y="890.829474" width="380.454545" height="262.610526"/>
  </clipPath>
  <clipPath id="pd1e0c50b18">
   <rect x="591.545455" y="890.829474" width="380.454545" height="262.610526"/>
  </clipPath>
 </defs>
</svg>
