<?xml version="1.0" encoding="utf-8" standalone="no"?>
<!DOCTYPE svg PUBLIC "-//W3C//DTD SVG 1.1//EN"
  "http://www.w3.org/Graphics/SVG/1.1/DTD/svg11.dtd">
<svg xmlns:xlink="http://www.w3.org/1999/xlink" width="1080pt" height="1296pt" viewBox="0 0 1080 1296" xmlns="http://www.w3.org/2000/svg" version="1.1">
 <metadata>
  <rdf:RDF xmlns:dc="http://purl.org/dc/elements/1.1/" xmlns:cc="http://creativecommons.org/ns#" xmlns:rdf="http://www.w3.org/1999/02/22-rdf-syntax-ns#">
   <cc:Work>
    <dc:type rdf:resource="http://purl.org/dc/dcmitype/StillImage"/>
    <dc:date>2024-07-24T00:04:35.571644</dc:date>
    <dc:format>image/svg+xml</dc:format>
    <dc:creator>
     <cc:Agent>
      <dc:title>Matplotlib v3.8.4, https://matplotlib.org/</dc:title>
     </cc:Agent>
    </dc:creator>
   </cc:Work>
  </rdf:RDF>
 </metadata>
 <defs>
  <style type="text/css">*{stroke-linejoin: round; stroke-linecap: butt}</style>
 </defs>
 <g id="figure_1">
  <g id="patch_1">
   <path d="M 0 1296 
L 1080 1296 
L 1080 0 
L 0 0 
z
" style="fill: #ffffff"/>
  </g>
  <g id="axes_1">
   <g id="patch_2">
    <path d="M 135 418.130526 
L 515.454545 418.130526 
L 515.454545 155.52 
L 135 155.52 
z
" style="fill: #ffffff"/>
   </g>
   <g id="matplotlib.axis_1">
    <g id="xtick_1">
     <g id="line2d_1">
      <defs>
       <path id="m2eace9cb19" d="M 0 0 
L 0 3.5 
" style="stroke: #000000; stroke-width: 0.8"/>
      </defs>
      <g>
       <use xlink:href="#m2eace9cb19" x="137.882231" y="418.130526" style="stroke: #000000; stroke-width: 0.8"/>
      </g>
     </g>
     <g id="text_1">
      <!-- 0 -->
      <g transform="translate(131.519731 440.327401) scale(0.2 -0.2)">
       <defs>
        <path id="DejaVuSans-30" d="M 2034 4250 
Q 1547 4250 1301 3770 
Q 1056 3291 1056 2328 
Q 1056 1369 1301 889 
Q 1547 409 2034 409 
Q 2525 409 2770 889 
Q 3016 1369 3016 2328 
Q 3016 3291 2770 3770 
Q 2525 4250 2034 4250 
z
M 2034 4750 
Q 2819 4750 3233 4129 
Q 3647 3509 3647 2328 
Q 3647 1150 3233 529 
Q 2819 -91 2034 -91 
Q 1250 -91 836 529 
Q 422 1150 422 2328 
Q 422 3509 836 4129 
Q 1250 4750 2034 4750 
z
" transform="scale(0.015625)"/>
       </defs>
       <use xlink:href="#DejaVuSans-30"/>
      </g>
     </g>
    </g>
    <g id="xtick_2">
     <g id="line2d_2">
      <g>
       <use xlink:href="#m2eace9cb19" x="209.938017" y="418.130526" style="stroke: #000000; stroke-width: 0.8"/>
      </g>
     </g>
     <g id="text_2">
      <!-- 10 -->
      <g transform="translate(197.213017 440.327401) scale(0.2 -0.2)">
       <defs>
        <path id="DejaVuSans-31" d="M 794 531 
L 1825 531 
L 1825 4091 
L 703 3866 
L 703 4441 
L 1819 4666 
L 2450 4666 
L 2450 531 
L 3481 531 
L 3481 0 
L 794 0 
L 794 531 
z
" transform="scale(0.015625)"/>
       </defs>
       <use xlink:href="#DejaVuSans-31"/>
       <use xlink:href="#DejaVuSans-30" x="63.623047"/>
      </g>
     </g>
    </g>
    <g id="xtick_3">
     <g id="line2d_3">
      <g>
       <use xlink:href="#m2eace9cb19" x="281.993802" y="418.130526" style="stroke: #000000; stroke-width: 0.8"/>
      </g>
     </g>
     <g id="text_3">
      <!-- 20 -->
      <g transform="translate(269.268802 440.327401) scale(0.2 -0.2)">
       <defs>
        <path id="DejaVuSans-32" d="M 1228 531 
L 3431 531 
L 3431 0 
L 469 0 
L 469 531 
Q 828 903 1448 1529 
Q 2069 2156 2228 2338 
Q 2531 2678 2651 2914 
Q 2772 3150 2772 3378 
Q 2772 3750 2511 3984 
Q 2250 4219 1831 4219 
Q 1534 4219 1204 4116 
Q 875 4013 500 3803 
L 500 4441 
Q 881 4594 1212 4672 
Q 1544 4750 1819 4750 
Q 2544 4750 2975 4387 
Q 3406 4025 3406 3419 
Q 3406 3131 3298 2873 
Q 3191 2616 2906 2266 
Q 2828 2175 2409 1742 
Q 1991 1309 1228 531 
z
" transform="scale(0.015625)"/>
       </defs>
       <use xlink:href="#DejaVuSans-32"/>
       <use xlink:href="#DejaVuSans-30" x="63.623047"/>
      </g>
     </g>
    </g>
    <g id="xtick_4">
     <g id="line2d_4">
      <g>
       <use xlink:href="#m2eace9cb19" x="354.049587" y="418.130526" style="stroke: #000000; stroke-width: 0.8"/>
      </g>
     </g>
     <g id="text_4">
      <!-- 30 -->
      <g transform="translate(341.324587 440.327401) scale(0.2 -0.2)">
       <defs>
        <path id="DejaVuSans-33" d="M 2597 2516 
Q 3050 2419 3304 2112 
Q 3559 1806 3559 1356 
Q 3559 666 3084 287 
Q 2609 -91 1734 -91 
Q 1441 -91 1130 -33 
Q 819 25 488 141 
L 488 750 
Q 750 597 1062 519 
Q 1375 441 1716 441 
Q 2309 441 2620 675 
Q 2931 909 2931 1356 
Q 2931 1769 2642 2001 
Q 2353 2234 1838 2234 
L 1294 2234 
L 1294 2753 
L 1863 2753 
Q 2328 2753 2575 2939 
Q 2822 3125 2822 3475 
Q 2822 3834 2567 4026 
Q 2313 4219 1838 4219 
Q 1578 4219 1281 4162 
Q 984 4106 628 3988 
L 628 4550 
Q 988 4650 1302 4700 
Q 1616 4750 1894 4750 
Q 2613 4750 3031 4423 
Q 3450 4097 3450 3541 
Q 3450 3153 3228 2886 
Q 3006 2619 2597 2516 
z
" transform="scale(0.015625)"/>
       </defs>
       <use xlink:href="#DejaVuSans-33"/>
       <use xlink:href="#DejaVuSans-30" x="63.623047"/>
      </g>
     </g>
    </g>
    <g id="xtick_5">
     <g id="line2d_5">
      <g>
       <use xlink:href="#m2eace9cb19" x="426.105372" y="418.130526" style="stroke: #000000; stroke-width: 0.8"/>
      </g>
     </g>
     <g id="text_5">
      <!-- 40 -->
      <g transform="translate(413.380372 440.327401) scale(0.2 -0.2)">
       <defs>
        <path id="DejaVuSans-34" d="M 2419 4116 
L 825 1625 
L 2419 1625 
L 2419 4116 
z
M 2253 4666 
L 3047 4666 
L 3047 1625 
L 3713 1625 
L 3713 1100 
L 3047 1100 
L 3047 0 
L 2419 0 
L 2419 1100 
L 313 1100 
L 313 1709 
L 2253 4666 
z
" transform="scale(0.015625)"/>
       </defs>
       <use xlink:href="#DejaVuSans-34"/>
       <use xlink:href="#DejaVuSans-30" x="63.623047"/>
      </g>
     </g>
    </g>
    <g id="xtick_6">
     <g id="line2d_6">
      <g>
       <use xlink:href="#m2eace9cb19" x="498.161157" y="418.130526" style="stroke: #000000; stroke-width: 0.8"/>
      </g>
     </g>
     <g id="text_6">
      <!-- 50 -->
      <g transform="translate(485.436157 440.327401) scale(0.2 -0.2)">
       <defs>
        <path id="DejaVuSans-35" d="M 691 4666 
L 3169 4666 
L 3169 4134 
L 1269 4134 
L 1269 2991 
Q 1406 3038 1543 3061 
Q 1681 3084 1819 3084 
Q 2600 3084 3056 2656 
Q 3513 2228 3513 1497 
Q 3513 744 3044 326 
Q 2575 -91 1722 -91 
Q 1428 -91 1123 -41 
Q 819 9 494 109 
L 494 744 
Q 775 591 1075 516 
Q 1375 441 1709 441 
Q 2250 441 2565 725 
Q 2881 1009 2881 1497 
Q 2881 1984 2565 2268 
Q 2250 2553 1709 2553 
Q 1456 2553 1204 2497 
Q 953 2441 691 2322 
L 691 4666 
z
" transform="scale(0.015625)"/>
       </defs>
       <use xlink:href="#DejaVuSans-35"/>
       <use xlink:href="#DejaVuSans-30" x="63.623047"/>
      </g>
     </g>
    </g>
    <g id="text_7">
     <!-- k -->
     <g transform="translate(318.278523 466.723026) scale(0.24 -0.24)">
      <defs>
       <path id="DejaVuSans-6b" d="M 581 4863 
L 1159 4863 
L 1159 1991 
L 2875 3500 
L 3609 3500 
L 1753 1863 
L 3688 0 
L 2938 0 
L 1159 1709 
L 1159 0 
L 581 0 
L 581 4863 
z
" transform="scale(0.015625)"/>
      </defs>
      <use xlink:href="#DejaVuSans-6b"/>
     </g>
    </g>
   </g>
   <g id="matplotlib.axis_2">
    <g id="ytick_1">
     <g id="line2d_7">
      <defs>
       <path id="m6ec3911361" d="M 0 0 
L -3.5 0 
" style="stroke: #000000; stroke-width: 0.8"/>
      </defs>
      <g>
       <use xlink:href="#m6ec3911361" x="135" y="418.130526" style="stroke: #000000; stroke-width: 0.8"/>
      </g>
     </g>
     <g id="text_8">
      <!-- 0.0 -->
      <g transform="translate(96.19375 425.728964) scale(0.2 -0.2)">
       <defs>
        <path id="DejaVuSans-2e" d="M 684 794 
L 1344 794 
L 1344 0 
L 684 0 
L 684 794 
z
" transform="scale(0.015625)"/>
       </defs>
       <use xlink:href="#DejaVuSans-30"/>
       <use xlink:href="#DejaVuSans-2e" x="63.623047"/>
       <use xlink:href="#DejaVuSans-30" x="95.410156"/>
      </g>
     </g>
    </g>
    <g id="ytick_2">
     <g id="line2d_8">
      <g>
       <use xlink:href="#m6ec3911361" x="135" y="352.477895" style="stroke: #000000; stroke-width: 0.8"/>
      </g>
     </g>
     <g id="text_9">
      <!-- 0.2 -->
      <g transform="translate(96.19375 360.076332) scale(0.2 -0.2)">
       <use xlink:href="#DejaVuSans-30"/>
       <use xlink:href="#DejaVuSans-2e" x="63.623047"/>
       <use xlink:href="#DejaVuSans-32" x="95.410156"/>
      </g>
     </g>
    </g>
    <g id="ytick_3">
     <g id="line2d_9">
      <g>
       <use xlink:href="#m6ec3911361" x="135" y="286.825263" style="stroke: #000000; stroke-width: 0.8"/>
      </g>
     </g>
     <g id="text_10">
      <!-- 0.4 -->
      <g transform="translate(96.19375 294.423701) scale(0.2 -0.2)">
       <use xlink:href="#DejaVuSans-30"/>
       <use xlink:href="#DejaVuSans-2e" x="63.623047"/>
       <use xlink:href="#DejaVuSans-34" x="95.410156"/>
      </g>
     </g>
    </g>
    <g id="ytick_4">
     <g id="line2d_10">
      <g>
       <use xlink:href="#m6ec3911361" x="135" y="221.172632" style="stroke: #000000; stroke-width: 0.8"/>
      </g>
     </g>
     <g id="text_11">
      <!-- 0.6 -->
      <g transform="translate(96.19375 228.771069) scale(0.2 -0.2)">
       <defs>
        <path id="DejaVuSans-36" d="M 2113 2584 
Q 1688 2584 1439 2293 
Q 1191 2003 1191 1497 
Q 1191 994 1439 701 
Q 1688 409 2113 409 
Q 2538 409 2786 701 
Q 3034 994 3034 1497 
Q 3034 2003 2786 2293 
Q 2538 2584 2113 2584 
z
M 3366 4563 
L 3366 3988 
Q 3128 4100 2886 4159 
Q 2644 4219 2406 4219 
Q 1781 4219 1451 3797 
Q 1122 3375 1075 2522 
Q 1259 2794 1537 2939 
Q 1816 3084 2150 3084 
Q 2853 3084 3261 2657 
Q 3669 2231 3669 1497 
Q 3669 778 3244 343 
Q 2819 -91 2113 -91 
Q 1303 -91 875 529 
Q 447 1150 447 2328 
Q 447 3434 972 4092 
Q 1497 4750 2381 4750 
Q 2619 4750 2861 4703 
Q 3103 4656 3366 4563 
z
" transform="scale(0.015625)"/>
       </defs>
       <use xlink:href="#DejaVuSans-30"/>
       <use xlink:href="#DejaVuSans-2e" x="63.623047"/>
       <use xlink:href="#DejaVuSans-36" x="95.410156"/>
      </g>
     </g>
    </g>
    <g id="ytick_5">
     <g id="line2d_11">
      <g>
       <use xlink:href="#m6ec3911361" x="135" y="155.52" style="stroke: #000000; stroke-width: 0.8"/>
      </g>
     </g>
     <g id="text_12">
      <!-- 0.8 -->
      <g transform="translate(96.19375 163.118438) scale(0.2 -0.2)">
       <defs>
        <path id="DejaVuSans-38" d="M 2034 2216 
Q 1584 2216 1326 1975 
Q 1069 1734 1069 1313 
Q 1069 891 1326 650 
Q 1584 409 2034 409 
Q 2484 409 2743 651 
Q 3003 894 3003 1313 
Q 3003 1734 2745 1975 
Q 2488 2216 2034 2216 
z
M 1403 2484 
Q 997 2584 770 2862 
Q 544 3141 544 3541 
Q 544 4100 942 4425 
Q 1341 4750 2034 4750 
Q 2731 4750 3128 4425 
Q 3525 4100 3525 3541 
Q 3525 3141 3298 2862 
Q 3072 2584 2669 2484 
Q 3125 2378 3379 2068 
Q 3634 1759 3634 1313 
Q 3634 634 3220 271 
Q 2806 -91 2034 -91 
Q 1263 -91 848 271 
Q 434 634 434 1313 
Q 434 1759 690 2068 
Q 947 2378 1403 2484 
z
M 1172 3481 
Q 1172 3119 1398 2916 
Q 1625 2713 2034 2713 
Q 2441 2713 2670 2916 
Q 2900 3119 2900 3481 
Q 2900 3844 2670 4047 
Q 2441 4250 2034 4250 
Q 1625 4250 1398 4047 
Q 1172 3844 1172 3481 
z
" transform="scale(0.015625)"/>
       </defs>
       <use xlink:href="#DejaVuSans-30"/>
       <use xlink:href="#DejaVuSans-2e" x="63.623047"/>
       <use xlink:href="#DejaVuSans-38" x="95.410156"/>
      </g>
     </g>
    </g>
    <g id="text_13">
     <!-- $P_{NN}$ -->
     <g transform="translate(87.2025 306.985263) rotate(-90) scale(0.24 -0.24)">
      <defs>
       <path id="DejaVuSans-Oblique-50" d="M 1081 4666 
L 2541 4666 
Q 3178 4666 3512 4369 
Q 3847 4072 3847 3500 
Q 3847 2731 3353 2303 
Q 2859 1875 1966 1875 
L 1172 1875 
L 806 0 
L 172 0 
L 1081 4666 
z
M 1613 4147 
L 1275 2394 
L 2069 2394 
Q 2606 2394 2893 2669 
Q 3181 2944 3181 3456 
Q 3181 3784 2986 3965 
Q 2791 4147 2438 4147 
L 1613 4147 
z
" transform="scale(0.015625)"/>
       <path id="DejaVuSans-Oblique-4e" d="M 1081 4666 
L 1931 4666 
L 3219 666 
L 4000 4666 
L 4616 4666 
L 3706 0 
L 2853 0 
L 1569 4025 
L 788 0 
L 172 0 
L 1081 4666 
z
" transform="scale(0.015625)"/>
      </defs>
      <use xlink:href="#DejaVuSans-Oblique-50" transform="translate(0 0.09375)"/>
      <use xlink:href="#DejaVuSans-Oblique-4e" transform="translate(60.302734 -16.3125) scale(0.7)"/>
      <use xlink:href="#DejaVuSans-Oblique-4e" transform="translate(112.666016 -16.3125) scale(0.7)"/>
     </g>
    </g>
   </g>
   <g id="line2d_12">
    <path d="M 152.293388 321.062503 
L 173.910124 304.113551 
L 209.938017 293.879885 
L 281.993802 285.914413 
L 498.161157 265.111316 
" clip-path="url(#p63f1eafce3)" style="fill: none; stroke: #1f77b4; stroke-width: 1.5; stroke-linecap: square"/>
    <defs>
     <path id="m17c6685615" d="M 0 3 
C 0.795609 3 1.55874 2.683901 2.12132 2.12132 
C 2.683901 1.55874 3 0.795609 3 0 
C 3 -0.795609 2.683901 -1.55874 2.12132 -2.12132 
C 1.55874 -2.683901 0.795609 -3 0 -3 
C -0.795609 -3 -1.55874 -2.683901 -2.12132 -2.12132 
C -2.683901 -1.55874 -3 -0.795609 -3 0 
C -3 0.795609 -2.683901 1.55874 -2.12132 2.12132 
C -1.55874 2.683901 -0.795609 3 0 3 
z
" style="stroke: #1f77b4"/>
    </defs>
    <g clip-path="url(#p63f1eafce3)">
     <use xlink:href="#m17c6685615" x="152.293388" y="321.062503" style="fill: #1f77b4; stroke: #1f77b4"/>
     <use xlink:href="#m17c6685615" x="173.910124" y="304.113551" style="fill: #1f77b4; stroke: #1f77b4"/>
     <use xlink:href="#m17c6685615" x="209.938017" y="293.879885" style="fill: #1f77b4; stroke: #1f77b4"/>
     <use xlink:href="#m17c6685615" x="281.993802" y="285.914413" style="fill: #1f77b4; stroke: #1f77b4"/>
     <use xlink:href="#m17c6685615" x="498.161157" y="265.111316" style="fill: #1f77b4; stroke: #1f77b4"/>
    </g>
   </g>
   <g id="line2d_13">
    <path d="M 152.293388 225.512563 
L 173.910124 193.597098 
L 209.938017 180.916638 
L 281.993802 172.879727 
L 498.161157 175.701576 
" clip-path="url(#p63f1eafce3)" style="fill: none; stroke: #ff7f0e; stroke-width: 1.5; stroke-linecap: square"/>
    <defs>
     <path id="m37fc042303" d="M 0 3 
C 0.795609 3 1.55874 2.683901 2.12132 2.12132 
C 2.683901 1.55874 3 0.795609 3 0 
C 3 -0.795609 2.683901 -1.55874 2.12132 -2.12132 
C 1.55874 -2.683901 0.795609 -3 0 -3 
C -0.795609 -3 -1.55874 -2.683901 -2.12132 -2.12132 
C -2.683901 -1.55874 -3 -0.795609 -3 0 
C -3 0.795609 -2.683901 1.55874 -2.12132 2.12132 
C -1.55874 2.683901 -0.795609 3 0 3 
z
" style="stroke: #ff7f0e"/>
    </defs>
    <g clip-path="url(#p63f1eafce3)">
     <use xlink:href="#m37fc042303" x="152.293388" y="225.512563" style="fill: #ff7f0e; stroke: #ff7f0e"/>
     <use xlink:href="#m37fc042303" x="173.910124" y="193.597098" style="fill: #ff7f0e; stroke: #ff7f0e"/>
     <use xlink:href="#m37fc042303" x="209.938017" y="180.916638" style="fill: #ff7f0e; stroke: #ff7f0e"/>
     <use xlink:href="#m37fc042303" x="281.993802" y="172.879727" style="fill: #ff7f0e; stroke: #ff7f0e"/>
     <use xlink:href="#m37fc042303" x="498.161157" y="175.701576" style="fill: #ff7f0e; stroke: #ff7f0e"/>
    </g>
   </g>
   <g id="line2d_14">
    <path d="M 152.293388 288.468365 
L 173.910124 230.138252 
L 209.938017 198.972898 
L 281.993802 191.927206 
L 498.161157 200.841033 
" clip-path="url(#p63f1eafce3)" style="fill: none; stroke: #2ca02c; stroke-width: 1.5; stroke-linecap: square"/>
    <defs>
     <path id="md799bfb0e9" d="M 0 3 
C 0.795609 3 1.55874 2.683901 2.12132 2.12132 
C 2.683901 1.55874 3 0.795609 3 0 
C 3 -0.795609 2.683901 -1.55874 2.12132 -2.12132 
C 1.55874 -2.683901 0.795609 -3 0 -3 
C -0.795609 -3 -1.55874 -2.683901 -2.12132 -2.12132 
C -2.683901 -1.55874 -3 -0.795609 -3 0 
C -3 0.795609 -2.683901 1.55874 -2.12132 2.12132 
C -1.55874 2.683901 -0.795609 3 0 3 
z
" style="stroke: #2ca02c"/>
    </defs>
    <g clip-path="url(#p63f1eafce3)">
     <use xlink:href="#md799bfb0e9" x="152.293388" y="288.468365" style="fill: #2ca02c; stroke: #2ca02c"/>
     <use xlink:href="#md799bfb0e9" x="173.910124" y="230.138252" style="fill: #2ca02c; stroke: #2ca02c"/>
     <use xlink:href="#md799bfb0e9" x="209.938017" y="198.972898" style="fill: #2ca02c; stroke: #2ca02c"/>
     <use xlink:href="#md799bfb0e9" x="281.993802" y="191.927206" style="fill: #2ca02c; stroke: #2ca02c"/>
     <use xlink:href="#md799bfb0e9" x="498.161157" y="200.841033" style="fill: #2ca02c; stroke: #2ca02c"/>
    </g>
   </g>
   <g id="line2d_15">
    <path d="M 152.293388 284.092713 
L 173.910124 250.391267 
L 209.938017 224.423116 
L 281.993802 207.947448 
L 498.161157 204.116521 
" clip-path="url(#p63f1eafce3)" style="fill: none; stroke: #d62728; stroke-width: 1.5; stroke-linecap: square"/>
    <defs>
     <path id="md747b9cbb6" d="M 0 3 
C 0.795609 3 1.55874 2.683901 2.12132 2.12132 
C 2.683901 1.55874 3 0.795609 3 0 
C 3 -0.795609 2.683901 -1.55874 2.12132 -2.12132 
C 1.55874 -2.683901 0.795609 -3 0 -3 
C -0.795609 -3 -1.55874 -2.683901 -2.12132 -2.12132 
C -2.683901 -1.55874 -3 -0.795609 -3 0 
C -3 0.795609 -2.683901 1.55874 -2.12132 2.12132 
C -1.55874 2.683901 -0.795609 3 0 3 
z
" style="stroke: #d62728"/>
    </defs>
    <g clip-path="url(#p63f1eafce3)">
     <use xlink:href="#md747b9cbb6" x="152.293388" y="284.092713" style="fill: #d62728; stroke: #d62728"/>
     <use xlink:href="#md747b9cbb6" x="173.910124" y="250.391267" style="fill: #d62728; stroke: #d62728"/>
     <use xlink:href="#md747b9cbb6" x="209.938017" y="224.423116" style="fill: #d62728; stroke: #d62728"/>
     <use xlink:href="#md747b9cbb6" x="281.993802" y="207.947448" style="fill: #d62728; stroke: #d62728"/>
     <use xlink:href="#md747b9cbb6" x="498.161157" y="204.116521" style="fill: #d62728; stroke: #d62728"/>
    </g>
   </g>
   <g id="patch_3">
    <path d="M 135 418.130526 
L 135 155.52 
" style="fill: none; stroke: #000000; stroke-width: 0.8; stroke-linejoin: miter; stroke-linecap: square"/>
   </g>
   <g id="patch_4">
    <path d="M 515.454545 418.130526 
L 515.454545 155.52 
" style="fill: none; stroke: #000000; stroke-width: 0.8; stroke-linejoin: miter; stroke-linecap: square"/>
   </g>
   <g id="patch_5">
    <path d="M 135 418.130526 
L 515.454545 418.130526 
" style="fill: none; stroke: #000000; stroke-width: 0.8; stroke-linejoin: miter; stroke-linecap: square"/>
   </g>
   <g id="patch_6">
    <path d="M 135 155.52 
L 515.454545 155.52 
" style="fill: none; stroke: #000000; stroke-width: 0.8; stroke-linejoin: miter; stroke-linecap: square"/>
   </g>
   <g id="text_14">
    <!-- a -->
    <g transform="translate(89.472557 137.404046) scale(0.28 -0.28)">
     <defs>
      <path id="DejaVuSans-Bold-61" d="M 2106 1575 
Q 1756 1575 1579 1456 
Q 1403 1338 1403 1106 
Q 1403 894 1545 773 
Q 1688 653 1941 653 
Q 2256 653 2472 879 
Q 2688 1106 2688 1447 
L 2688 1575 
L 2106 1575 
z
M 3816 1997 
L 3816 0 
L 2688 0 
L 2688 519 
Q 2463 200 2181 54 
Q 1900 -91 1497 -91 
Q 953 -91 614 226 
Q 275 544 275 1050 
Q 275 1666 698 1953 
Q 1122 2241 2028 2241 
L 2688 2241 
L 2688 2328 
Q 2688 2594 2478 2717 
Q 2269 2841 1825 2841 
Q 1466 2841 1156 2769 
Q 847 2697 581 2553 
L 581 3406 
Q 941 3494 1303 3539 
Q 1666 3584 2028 3584 
Q 2975 3584 3395 3211 
Q 3816 2838 3816 1997 
z
" transform="scale(0.015625)"/>
     </defs>
     <use xlink:href="#DejaVuSans-Bold-61"/>
    </g>
   </g>
   <g id="text_15">
    <!-- $P_{NN}$ -->
    <g transform="translate(303.387273 149.52) scale(0.26 -0.26)">
     <use xlink:href="#DejaVuSans-Oblique-50" transform="translate(0 0.09375)"/>
     <use xlink:href="#DejaVuSans-Oblique-4e" transform="translate(60.302734 -16.3125) scale(0.7)"/>
     <use xlink:href="#DejaVuSans-Oblique-4e" transform="translate(112.666016 -16.3125) scale(0.7)"/>
    </g>
   </g>
  </g>
  <g id="axes_2">
   <g id="patch_7">
    <path d="M 591.545455 418.130526 
L 972 418.130526 
L 972 155.52 
L 591.545455 155.52 
z
" style="fill: #ffffff"/>
   </g>
   <g id="patch_8">
    <path d="M 608.838843 418.130526 
L 628.792753 418.130526 
L 628.792753 184.951027 
L 608.838843 184.951027 
z
" clip-path="url(#p87cd75b5f5)" style="fill: #1f77b4"/>
   </g>
   <g id="patch_9">
    <path d="M 741.864908 418.130526 
L 761.818818 418.130526 
L 761.818818 260.616589 
L 741.864908 260.616589 
z
" clip-path="url(#p87cd75b5f5)" style="fill: #1f77b4"/>
   </g>
   <g id="patch_10">
    <path d="M 874.890973 418.130526 
L 894.844882 418.130526 
L 894.844882 168.025263 
L 874.890973 168.025263 
z
" clip-path="url(#p87cd75b5f5)" style="fill: #1f77b4"/>
   </g>
   <g id="patch_11">
    <path d="M 628.792753 418.130526 
L 648.746662 418.130526 
L 648.746662 200.671684 
L 628.792753 200.671684 
z
" clip-path="url(#p87cd75b5f5)" style="fill: #ff7f0e"/>
   </g>
   <g id="patch_12">
    <path d="M 761.818818 418.130526 
L 781.772727 418.130526 
L 781.772727 222.69719 
L 761.818818 222.69719 
z
" clip-path="url(#p87cd75b5f5)" style="fill: #ff7f0e"/>
   </g>
   <g id="patch_13">
    <path d="M 894.844882 418.130526 
L 914.798792 418.130526 
L 914.798792 200.335363 
L 894.844882 200.335363 
z
" clip-path="url(#p87cd75b5f5)" style="fill: #ff7f0e"/>
   </g>
   <g id="patch_14">
    <path d="M 648.746662 418.130526 
L 668.700572 418.130526 
L 668.700572 206.758291 
L 648.746662 206.758291 
z
" clip-path="url(#p87cd75b5f5)" style="fill: #2ca02c"/>
   </g>
   <g id="patch_15">
    <path d="M 781.772727 418.130526 
L 801.726637 418.130526 
L 801.726637 253.824822 
L 781.772727 253.824822 
z
" clip-path="url(#p87cd75b5f5)" style="fill: #2ca02c"/>
   </g>
   <g id="patch_16">
    <path d="M 914.798792 418.130526 
L 934.752702 418.130526 
L 934.752702 206.301419 
L 914.798792 206.301419 
z
" clip-path="url(#p87cd75b5f5)" style="fill: #2ca02c"/>
   </g>
   <g id="patch_17">
    <path d="M 668.700572 418.130526 
L 688.654482 418.130526 
L 688.654482 238.042778 
L 668.700572 238.042778 
z
" clip-path="url(#p87cd75b5f5)" style="fill: #d62728"/>
   </g>
   <g id="patch_18">
    <path d="M 801.726637 418.130526 
L 821.680547 418.130526 
L 821.680547 248.876153 
L 801.726637 248.876153 
z
" clip-path="url(#p87cd75b5f5)" style="fill: #d62728"/>
   </g>
   <g id="patch_19">
    <path d="M 934.752702 418.130526 
L 954.706612 418.130526 
L 954.706612 237.746851 
L 934.752702 237.746851 
z
" clip-path="url(#p87cd75b5f5)" style="fill: #d62728"/>
   </g>
   <g id="matplotlib.axis_3">
    <g id="xtick_7">
     <g id="line2d_16">
      <g>
       <use xlink:href="#m2eace9cb19" x="648.746662" y="418.130526" style="stroke: #000000; stroke-width: 0.8"/>
      </g>
     </g>
     <g id="text_16">
      <!-- AUC -->
      <g transform="translate(625.490256 441.847089) scale(0.22 -0.22)">
       <defs>
        <path id="DejaVuSans-41" d="M 2188 4044 
L 1331 1722 
L 3047 1722 
L 2188 4044 
z
M 1831 4666 
L 2547 4666 
L 4325 0 
L 3669 0 
L 3244 1197 
L 1141 1197 
L 716 0 
L 50 0 
L 1831 4666 
z
" transform="scale(0.015625)"/>
        <path id="DejaVuSans-55" d="M 556 4666 
L 1191 4666 
L 1191 1831 
Q 1191 1081 1462 751 
Q 1734 422 2344 422 
Q 2950 422 3222 751 
Q 3494 1081 3494 1831 
L 3494 4666 
L 4128 4666 
L 4128 1753 
Q 4128 841 3676 375 
Q 3225 -91 2344 -91 
Q 1459 -91 1007 375 
Q 556 841 556 1753 
L 556 4666 
z
" transform="scale(0.015625)"/>
        <path id="DejaVuSans-43" d="M 4122 4306 
L 4122 3641 
Q 3803 3938 3442 4084 
Q 3081 4231 2675 4231 
Q 1875 4231 1450 3742 
Q 1025 3253 1025 2328 
Q 1025 1406 1450 917 
Q 1875 428 2675 428 
Q 3081 428 3442 575 
Q 3803 722 4122 1019 
L 4122 359 
Q 3791 134 3420 21 
Q 3050 -91 2638 -91 
Q 1578 -91 968 557 
Q 359 1206 359 2328 
Q 359 3453 968 4101 
Q 1578 4750 2638 4750 
Q 3056 4750 3426 4639 
Q 3797 4528 4122 4306 
z
" transform="scale(0.015625)"/>
       </defs>
       <use xlink:href="#DejaVuSans-41"/>
       <use xlink:href="#DejaVuSans-55" x="68.408203"/>
       <use xlink:href="#DejaVuSans-43" x="141.601562"/>
      </g>
     </g>
    </g>
    <g id="xtick_8">
     <g id="line2d_17">
      <g>
       <use xlink:href="#m2eace9cb19" x="781.772727" y="418.130526" style="stroke: #000000; stroke-width: 0.8"/>
      </g>
     </g>
     <g id="text_17">
      <!-- $Q_{local}$ -->
      <g transform="translate(754.822727 441.847089) scale(0.22 -0.22)">
       <defs>
        <path id="DejaVuSans-Oblique-51" d="M 2309 -84 
Q 2275 -88 2237 -89 
Q 2200 -91 2125 -91 
Q 1250 -91 756 411 
Q 263 913 263 1797 
Q 263 2319 452 2844 
Q 641 3369 978 3788 
Q 1369 4269 1858 4509 
Q 2347 4750 2938 4750 
Q 3794 4750 4287 4245 
Q 4781 3741 4781 2869 
Q 4781 1928 4265 1147 
Q 3750 366 2919 44 
L 3553 -825 
L 2847 -825 
L 2309 -84 
z
M 2919 4238 
Q 2400 4238 2003 3986 
Q 1606 3734 1313 3219 
Q 1125 2891 1026 2522 
Q 928 2153 928 1778 
Q 928 1128 1239 775 
Q 1550 422 2119 422 
Q 2631 422 3032 676 
Q 3434 931 3719 1434 
Q 3909 1772 4009 2142 
Q 4109 2513 4109 2881 
Q 4109 3528 3796 3883 
Q 3484 4238 2919 4238 
z
" transform="scale(0.015625)"/>
        <path id="DejaVuSans-Oblique-6c" d="M 1172 4863 
L 1747 4863 
L 800 0 
L 225 0 
L 1172 4863 
z
" transform="scale(0.015625)"/>
        <path id="DejaVuSans-Oblique-6f" d="M 1625 -91 
Q 1009 -91 651 289 
Q 294 669 294 1325 
Q 294 1706 417 2101 
Q 541 2497 738 2766 
Q 1047 3184 1428 3384 
Q 1809 3584 2291 3584 
Q 2888 3584 3255 3212 
Q 3622 2841 3622 2241 
Q 3622 1825 3500 1412 
Q 3378 1000 3181 728 
Q 2875 309 2494 109 
Q 2113 -91 1625 -91 
z
M 891 1344 
Q 891 869 1089 633 
Q 1288 397 1691 397 
Q 2269 397 2648 901 
Q 3028 1406 3028 2181 
Q 3028 2634 2825 2865 
Q 2622 3097 2228 3097 
Q 1903 3097 1650 2945 
Q 1397 2794 1197 2484 
Q 1050 2253 970 1956 
Q 891 1659 891 1344 
z
" transform="scale(0.015625)"/>
        <path id="DejaVuSans-Oblique-63" d="M 3431 3366 
L 3316 2797 
Q 3109 2947 2876 3022 
Q 2644 3097 2394 3097 
Q 2119 3097 1870 3000 
Q 1622 2903 1453 2725 
Q 1184 2453 1037 2087 
Q 891 1722 891 1331 
Q 891 859 1127 628 
Q 1363 397 1844 397 
Q 2081 397 2348 469 
Q 2616 541 2906 684 
L 2797 116 
Q 2547 13 2283 -39 
Q 2019 -91 1741 -91 
Q 1044 -91 669 257 
Q 294 606 294 1253 
Q 294 1797 489 2255 
Q 684 2713 1069 3078 
Q 1331 3328 1684 3456 
Q 2038 3584 2456 3584 
Q 2700 3584 2940 3529 
Q 3181 3475 3431 3366 
z
" transform="scale(0.015625)"/>
        <path id="DejaVuSans-Oblique-61" d="M 3438 1997 
L 3047 0 
L 2472 0 
L 2578 531 
Q 2325 219 2001 64 
Q 1678 -91 1281 -91 
Q 834 -91 548 182 
Q 263 456 263 884 
Q 263 1497 752 1853 
Q 1241 2209 2100 2209 
L 2900 2209 
L 2931 2363 
Q 2938 2388 2941 2417 
Q 2944 2447 2944 2509 
Q 2944 2788 2717 2942 
Q 2491 3097 2081 3097 
Q 1800 3097 1504 3025 
Q 1209 2953 897 2809 
L 997 3341 
Q 1322 3463 1633 3523 
Q 1944 3584 2234 3584 
Q 2853 3584 3176 3315 
Q 3500 3047 3500 2534 
Q 3500 2431 3484 2292 
Q 3469 2153 3438 1997 
z
M 2816 1759 
L 2241 1759 
Q 1534 1759 1195 1570 
Q 856 1381 856 984 
Q 856 709 1029 553 
Q 1203 397 1509 397 
Q 1978 397 2328 733 
Q 2678 1069 2791 1631 
L 2816 1759 
z
" transform="scale(0.015625)"/>
       </defs>
       <use xlink:href="#DejaVuSans-Oblique-51" transform="translate(0 0.78125)"/>
       <use xlink:href="#DejaVuSans-Oblique-6c" transform="translate(78.710938 -15.625) scale(0.7)"/>
       <use xlink:href="#DejaVuSans-Oblique-6f" transform="translate(98.15918 -15.625) scale(0.7)"/>
       <use xlink:href="#DejaVuSans-Oblique-63" transform="translate(140.986328 -15.625) scale(0.7)"/>
       <use xlink:href="#DejaVuSans-Oblique-61" transform="translate(179.472656 -15.625) scale(0.7)"/>
       <use xlink:href="#DejaVuSans-Oblique-6c" transform="translate(222.368164 -15.625) scale(0.7)"/>
      </g>
     </g>
    </g>
    <g id="xtick_9">
     <g id="line2d_18">
      <g>
       <use xlink:href="#m2eace9cb19" x="914.798792" y="418.130526" style="stroke: #000000; stroke-width: 0.8"/>
      </g>
     </g>
     <g id="text_18">
      <!-- $Q_{global}$ -->
      <g transform="translate(882.348792 441.630526) scale(0.22 -0.22)">
       <defs>
        <path id="DejaVuSans-Oblique-67" d="M 3816 3500 
L 3219 434 
Q 3047 -456 2561 -893 
Q 2075 -1331 1253 -1331 
Q 950 -1331 690 -1286 
Q 431 -1241 206 -1147 
L 313 -588 
Q 525 -725 762 -790 
Q 1000 -856 1269 -856 
Q 1816 -856 2167 -557 
Q 2519 -259 2631 300 
L 2681 563 
Q 2441 288 2122 144 
Q 1803 0 1434 0 
Q 903 0 598 351 
Q 294 703 294 1319 
Q 294 1803 478 2267 
Q 663 2731 997 3091 
Q 1219 3328 1514 3456 
Q 1809 3584 2131 3584 
Q 2484 3584 2746 3420 
Q 3009 3256 3138 2956 
L 3238 3500 
L 3816 3500 
z
M 2950 2216 
Q 2950 2641 2750 2872 
Q 2550 3103 2181 3103 
Q 1953 3103 1747 3012 
Q 1541 2922 1394 2759 
Q 1156 2491 1023 2127 
Q 891 1763 891 1375 
Q 891 944 1092 712 
Q 1294 481 1672 481 
Q 2219 481 2584 976 
Q 2950 1472 2950 2216 
z
" transform="scale(0.015625)"/>
        <path id="DejaVuSans-Oblique-62" d="M 3169 2138 
Q 3169 2591 2961 2847 
Q 2753 3103 2388 3103 
Q 2122 3103 1889 2973 
Q 1656 2844 1484 2597 
Q 1303 2338 1198 1995 
Q 1094 1653 1094 1313 
Q 1094 881 1298 636 
Q 1503 391 1863 391 
Q 2134 391 2365 517 
Q 2597 644 2772 891 
Q 2950 1147 3059 1487 
Q 3169 1828 3169 2138 
z
M 1381 2969 
Q 1594 3256 1914 3420 
Q 2234 3584 2584 3584 
Q 3122 3584 3439 3221 
Q 3756 2859 3756 2241 
Q 3756 1734 3570 1259 
Q 3384 784 3041 416 
Q 2816 172 2522 40 
Q 2228 -91 1906 -91 
Q 1566 -91 1316 65 
Q 1066 222 909 531 
L 806 0 
L 231 0 
L 1178 4863 
L 1753 4863 
L 1381 2969 
z
" transform="scale(0.015625)"/>
       </defs>
       <use xlink:href="#DejaVuSans-Oblique-51" transform="translate(0 0.78125)"/>
       <use xlink:href="#DejaVuSans-Oblique-67" transform="translate(78.710938 -15.625) scale(0.7)"/>
       <use xlink:href="#DejaVuSans-Oblique-6c" transform="translate(123.144531 -15.625) scale(0.7)"/>
       <use xlink:href="#DejaVuSans-Oblique-6f" transform="translate(142.592773 -15.625) scale(0.7)"/>
       <use xlink:href="#DejaVuSans-Oblique-62" transform="translate(185.419922 -15.625) scale(0.7)"/>
       <use xlink:href="#DejaVuSans-Oblique-61" transform="translate(229.853516 -15.625) scale(0.7)"/>
       <use xlink:href="#DejaVuSans-Oblique-6c" transform="translate(272.749023 -15.625) scale(0.7)"/>
      </g>
     </g>
    </g>
   </g>
   <g id="matplotlib.axis_4">
    <g id="ytick_6">
     <g id="line2d_19">
      <g>
       <use xlink:href="#m6ec3911361" x="591.545455" y="418.130526" style="stroke: #000000; stroke-width: 0.8"/>
      </g>
     </g>
     <g id="text_19">
      <!-- 0.0 -->
      <g transform="translate(549.55858 426.488808) scale(0.22 -0.22)">
       <use xlink:href="#DejaVuSans-30"/>
       <use xlink:href="#DejaVuSans-2e" x="63.623047"/>
       <use xlink:href="#DejaVuSans-30" x="95.410156"/>
      </g>
     </g>
    </g>
    <g id="ytick_7">
     <g id="line2d_20">
      <g>
       <use xlink:href="#m6ec3911361" x="591.545455" y="362.688318" style="stroke: #000000; stroke-width: 0.8"/>
      </g>
     </g>
     <g id="text_20">
      <!-- 0.2 -->
      <g transform="translate(549.55858 371.046599) scale(0.22 -0.22)">
       <use xlink:href="#DejaVuSans-30"/>
       <use xlink:href="#DejaVuSans-2e" x="63.623047"/>
       <use xlink:href="#DejaVuSans-32" x="95.410156"/>
      </g>
     </g>
    </g>
    <g id="ytick_8">
     <g id="line2d_21">
      <g>
       <use xlink:href="#m6ec3911361" x="591.545455" y="307.24611" style="stroke: #000000; stroke-width: 0.8"/>
      </g>
     </g>
     <g id="text_21">
      <!-- 0.4 -->
      <g transform="translate(549.55858 315.604391) scale(0.22 -0.22)">
       <use xlink:href="#DejaVuSans-30"/>
       <use xlink:href="#DejaVuSans-2e" x="63.623047"/>
       <use xlink:href="#DejaVuSans-34" x="95.410156"/>
      </g>
     </g>
    </g>
    <g id="ytick_9">
     <g id="line2d_22">
      <g>
       <use xlink:href="#m6ec3911361" x="591.545455" y="251.803901" style="stroke: #000000; stroke-width: 0.8"/>
      </g>
     </g>
     <g id="text_22">
      <!-- 0.6 -->
      <g transform="translate(549.55858 260.162183) scale(0.22 -0.22)">
       <use xlink:href="#DejaVuSans-30"/>
       <use xlink:href="#DejaVuSans-2e" x="63.623047"/>
       <use xlink:href="#DejaVuSans-36" x="95.410156"/>
      </g>
     </g>
    </g>
    <g id="ytick_10">
     <g id="line2d_23">
      <g>
       <use xlink:href="#m6ec3911361" x="591.545455" y="196.361693" style="stroke: #000000; stroke-width: 0.8"/>
      </g>
     </g>
     <g id="text_23">
      <!-- 0.8 -->
      <g transform="translate(549.55858 204.719974) scale(0.22 -0.22)">
       <use xlink:href="#DejaVuSans-30"/>
       <use xlink:href="#DejaVuSans-2e" x="63.623047"/>
       <use xlink:href="#DejaVuSans-38" x="95.410156"/>
      </g>
     </g>
    </g>
    <g id="text_24">
     <!-- Metric Value -->
     <g transform="translate(540.983267 354.727919) rotate(-90) scale(0.22 -0.22)">
      <defs>
       <path id="DejaVuSans-4d" d="M 628 4666 
L 1569 4666 
L 2759 1491 
L 3956 4666 
L 4897 4666 
L 4897 0 
L 4281 0 
L 4281 4097 
L 3078 897 
L 2444 897 
L 1241 4097 
L 1241 0 
L 628 0 
L 628 4666 
z
" transform="scale(0.015625)"/>
       <path id="DejaVuSans-65" d="M 3597 1894 
L 3597 1613 
L 953 1613 
Q 991 1019 1311 708 
Q 1631 397 2203 397 
Q 2534 397 2845 478 
Q 3156 559 3463 722 
L 3463 178 
Q 3153 47 2828 -22 
Q 2503 -91 2169 -91 
Q 1331 -91 842 396 
Q 353 884 353 1716 
Q 353 2575 817 3079 
Q 1281 3584 2069 3584 
Q 2775 3584 3186 3129 
Q 3597 2675 3597 1894 
z
M 3022 2063 
Q 3016 2534 2758 2815 
Q 2500 3097 2075 3097 
Q 1594 3097 1305 2825 
Q 1016 2553 972 2059 
L 3022 2063 
z
" transform="scale(0.015625)"/>
       <path id="DejaVuSans-74" d="M 1172 4494 
L 1172 3500 
L 2356 3500 
L 2356 3053 
L 1172 3053 
L 1172 1153 
Q 1172 725 1289 603 
Q 1406 481 1766 481 
L 2356 481 
L 2356 0 
L 1766 0 
Q 1100 0 847 248 
Q 594 497 594 1153 
L 594 3053 
L 172 3053 
L 172 3500 
L 594 3500 
L 594 4494 
L 1172 4494 
z
" transform="scale(0.015625)"/>
       <path id="DejaVuSans-72" d="M 2631 2963 
Q 2534 3019 2420 3045 
Q 2306 3072 2169 3072 
Q 1681 3072 1420 2755 
Q 1159 2438 1159 1844 
L 1159 0 
L 581 0 
L 581 3500 
L 1159 3500 
L 1159 2956 
Q 1341 3275 1631 3429 
Q 1922 3584 2338 3584 
Q 2397 3584 2469 3576 
Q 2541 3569 2628 3553 
L 2631 2963 
z
" transform="scale(0.015625)"/>
       <path id="DejaVuSans-69" d="M 603 3500 
L 1178 3500 
L 1178 0 
L 603 0 
L 603 3500 
z
M 603 4863 
L 1178 4863 
L 1178 4134 
L 603 4134 
L 603 4863 
z
" transform="scale(0.015625)"/>
       <path id="DejaVuSans-63" d="M 3122 3366 
L 3122 2828 
Q 2878 2963 2633 3030 
Q 2388 3097 2138 3097 
Q 1578 3097 1268 2742 
Q 959 2388 959 1747 
Q 959 1106 1268 751 
Q 1578 397 2138 397 
Q 2388 397 2633 464 
Q 2878 531 3122 666 
L 3122 134 
Q 2881 22 2623 -34 
Q 2366 -91 2075 -91 
Q 1284 -91 818 406 
Q 353 903 353 1747 
Q 353 2603 823 3093 
Q 1294 3584 2113 3584 
Q 2378 3584 2631 3529 
Q 2884 3475 3122 3366 
z
" transform="scale(0.015625)"/>
       <path id="DejaVuSans-20" transform="scale(0.015625)"/>
       <path id="DejaVuSans-56" d="M 1831 0 
L 50 4666 
L 709 4666 
L 2188 738 
L 3669 4666 
L 4325 4666 
L 2547 0 
L 1831 0 
z
" transform="scale(0.015625)"/>
       <path id="DejaVuSans-61" d="M 2194 1759 
Q 1497 1759 1228 1600 
Q 959 1441 959 1056 
Q 959 750 1161 570 
Q 1363 391 1709 391 
Q 2188 391 2477 730 
Q 2766 1069 2766 1631 
L 2766 1759 
L 2194 1759 
z
M 3341 1997 
L 3341 0 
L 2766 0 
L 2766 531 
Q 2569 213 2275 61 
Q 1981 -91 1556 -91 
Q 1019 -91 701 211 
Q 384 513 384 1019 
Q 384 1609 779 1909 
Q 1175 2209 1959 2209 
L 2766 2209 
L 2766 2266 
Q 2766 2663 2505 2880 
Q 2244 3097 1772 3097 
Q 1472 3097 1187 3025 
Q 903 2953 641 2809 
L 641 3341 
Q 956 3463 1253 3523 
Q 1550 3584 1831 3584 
Q 2591 3584 2966 3190 
Q 3341 2797 3341 1997 
z
" transform="scale(0.015625)"/>
       <path id="DejaVuSans-6c" d="M 603 4863 
L 1178 4863 
L 1178 0 
L 603 0 
L 603 4863 
z
" transform="scale(0.015625)"/>
       <path id="DejaVuSans-75" d="M 544 1381 
L 544 3500 
L 1119 3500 
L 1119 1403 
Q 1119 906 1312 657 
Q 1506 409 1894 409 
Q 2359 409 2629 706 
Q 2900 1003 2900 1516 
L 2900 3500 
L 3475 3500 
L 3475 0 
L 2900 0 
L 2900 538 
Q 2691 219 2414 64 
Q 2138 -91 1772 -91 
Q 1169 -91 856 284 
Q 544 659 544 1381 
z
M 1991 3584 
L 1991 3584 
z
" transform="scale(0.015625)"/>
      </defs>
      <use xlink:href="#DejaVuSans-4d"/>
      <use xlink:href="#DejaVuSans-65" x="86.279297"/>
      <use xlink:href="#DejaVuSans-74" x="147.802734"/>
      <use xlink:href="#DejaVuSans-72" x="187.011719"/>
      <use xlink:href="#DejaVuSans-69" x="228.125"/>
      <use xlink:href="#DejaVuSans-63" x="255.908203"/>
      <use xlink:href="#DejaVuSans-20" x="310.888672"/>
      <use xlink:href="#DejaVuSans-56" x="342.675781"/>
      <use xlink:href="#DejaVuSans-61" x="403.333984"/>
      <use xlink:href="#DejaVuSans-6c" x="464.613281"/>
      <use xlink:href="#DejaVuSans-75" x="492.396484"/>
      <use xlink:href="#DejaVuSans-65" x="555.775391"/>
     </g>
    </g>
   </g>
   <g id="patch_20">
    <path d="M 591.545455 418.130526 
L 591.545455 155.52 
" style="fill: none; stroke: #000000; stroke-width: 0.8; stroke-linejoin: miter; stroke-linecap: square"/>
   </g>
   <g id="patch_21">
    <path d="M 972 418.130526 
L 972 155.52 
" style="fill: none; stroke: #000000; stroke-width: 0.8; stroke-linejoin: miter; stroke-linecap: square"/>
   </g>
   <g id="patch_22">
    <path d="M 591.545455 418.130526 
L 972 418.130526 
" style="fill: none; stroke: #000000; stroke-width: 0.8; stroke-linejoin: miter; stroke-linecap: square"/>
   </g>
   <g id="patch_23">
    <path d="M 591.545455 155.52 
L 972 155.52 
" style="fill: none; stroke: #000000; stroke-width: 0.8; stroke-linejoin: miter; stroke-linecap: square"/>
   </g>
   <g id="text_25">
    <!-- b -->
    <g transform="translate(544.871761 137.404046) scale(0.28 -0.28)">
     <defs>
      <path id="DejaVuSans-Bold-62" d="M 2400 722 
Q 2759 722 2948 984 
Q 3138 1247 3138 1747 
Q 3138 2247 2948 2509 
Q 2759 2772 2400 2772 
Q 2041 2772 1848 2508 
Q 1656 2244 1656 1747 
Q 1656 1250 1848 986 
Q 2041 722 2400 722 
z
M 1656 2988 
Q 1888 3294 2169 3439 
Q 2450 3584 2816 3584 
Q 3463 3584 3878 3070 
Q 4294 2556 4294 1747 
Q 4294 938 3878 423 
Q 3463 -91 2816 -91 
Q 2450 -91 2169 54 
Q 1888 200 1656 506 
L 1656 0 
L 538 0 
L 538 4863 
L 1656 4863 
L 1656 2988 
z
" transform="scale(0.015625)"/>
     </defs>
     <use xlink:href="#DejaVuSans-Bold-62"/>
    </g>
   </g>
   <g id="text_26">
    <!-- Metrics -->
    <g transform="translate(734.584759 149.52) scale(0.26 -0.26)">
     <defs>
      <path id="DejaVuSans-73" d="M 2834 3397 
L 2834 2853 
Q 2591 2978 2328 3040 
Q 2066 3103 1784 3103 
Q 1356 3103 1142 2972 
Q 928 2841 928 2578 
Q 928 2378 1081 2264 
Q 1234 2150 1697 2047 
L 1894 2003 
Q 2506 1872 2764 1633 
Q 3022 1394 3022 966 
Q 3022 478 2636 193 
Q 2250 -91 1575 -91 
Q 1294 -91 989 -36 
Q 684 19 347 128 
L 347 722 
Q 666 556 975 473 
Q 1284 391 1588 391 
Q 1994 391 2212 530 
Q 2431 669 2431 922 
Q 2431 1156 2273 1281 
Q 2116 1406 1581 1522 
L 1381 1569 
Q 847 1681 609 1914 
Q 372 2147 372 2553 
Q 372 3047 722 3315 
Q 1072 3584 1716 3584 
Q 2034 3584 2315 3537 
Q 2597 3491 2834 3397 
z
" transform="scale(0.015625)"/>
     </defs>
     <use xlink:href="#DejaVuSans-4d"/>
     <use xlink:href="#DejaVuSans-65" x="86.279297"/>
     <use xlink:href="#DejaVuSans-74" x="147.802734"/>
     <use xlink:href="#DejaVuSans-72" x="187.011719"/>
     <use xlink:href="#DejaVuSans-69" x="228.125"/>
     <use xlink:href="#DejaVuSans-63" x="255.908203"/>
     <use xlink:href="#DejaVuSans-73" x="310.888672"/>
    </g>
   </g>
  </g>
  <g id="axes_3">
   <g id="patch_24">
    <path d="M 135 785.785263 
L 515.454545 785.785263 
L 515.454545 523.174737 
L 135 523.174737 
z
" style="fill: #ffffff"/>
   </g>
   <g id="matplotlib.axis_5">
    <g id="xtick_10">
     <g id="line2d_24">
      <g>
       <use xlink:href="#m2eace9cb19" x="137.882231" y="785.785263" style="stroke: #000000; stroke-width: 0.8"/>
      </g>
     </g>
     <g id="text_27">
      <!-- 0 -->
      <g transform="translate(130.883481 809.501826) scale(0.22 -0.22)">
       <use xlink:href="#DejaVuSans-30"/>
      </g>
     </g>
    </g>
    <g id="xtick_11">
     <g id="line2d_25">
      <g>
       <use xlink:href="#m2eace9cb19" x="281.993802" y="785.785263" style="stroke: #000000; stroke-width: 0.8"/>
      </g>
     </g>
     <g id="text_28">
      <!-- 20 -->
      <g transform="translate(267.996302 809.501826) scale(0.22 -0.22)">
       <use xlink:href="#DejaVuSans-32"/>
       <use xlink:href="#DejaVuSans-30" x="63.623047"/>
      </g>
     </g>
    </g>
    <g id="xtick_12">
     <g id="line2d_26">
      <g>
       <use xlink:href="#m2eace9cb19" x="426.105372" y="785.785263" style="stroke: #000000; stroke-width: 0.8"/>
      </g>
     </g>
     <g id="text_29">
      <!-- 40 -->
      <g transform="translate(412.107872 809.501826) scale(0.22 -0.22)">
       <use xlink:href="#DejaVuSans-34"/>
       <use xlink:href="#DejaVuSans-30" x="63.623047"/>
      </g>
     </g>
    </g>
    <g id="text_30">
     <!-- k -->
     <g transform="translate(318.278523 836.313388) scale(0.24 -0.24)">
      <use xlink:href="#DejaVuSans-6b"/>
     </g>
    </g>
   </g>
   <g id="matplotlib.axis_6">
    <g id="ytick_11">
     <g id="line2d_27">
      <g>
       <use xlink:href="#m6ec3911361" x="135" y="723.849557" style="stroke: #000000; stroke-width: 0.8"/>
      </g>
     </g>
     <g id="text_31">
      <!-- 0.94 -->
      <g transform="translate(79.015625 732.207838) scale(0.22 -0.22)">
       <defs>
        <path id="DejaVuSans-39" d="M 703 97 
L 703 672 
Q 941 559 1184 500 
Q 1428 441 1663 441 
Q 2288 441 2617 861 
Q 2947 1281 2994 2138 
Q 2813 1869 2534 1725 
Q 2256 1581 1919 1581 
Q 1219 1581 811 2004 
Q 403 2428 403 3163 
Q 403 3881 828 4315 
Q 1253 4750 1959 4750 
Q 2769 4750 3195 4129 
Q 3622 3509 3622 2328 
Q 3622 1225 3098 567 
Q 2575 -91 1691 -91 
Q 1453 -91 1209 -44 
Q 966 3 703 97 
z
M 1959 2075 
Q 2384 2075 2632 2365 
Q 2881 2656 2881 3163 
Q 2881 3666 2632 3958 
Q 2384 4250 1959 4250 
Q 1534 4250 1286 3958 
Q 1038 3666 1038 3163 
Q 1038 2656 1286 2365 
Q 1534 2075 1959 2075 
z
" transform="scale(0.015625)"/>
       </defs>
       <use xlink:href="#DejaVuSans-30"/>
       <use xlink:href="#DejaVuSans-2e" x="63.623047"/>
       <use xlink:href="#DejaVuSans-39" x="95.410156"/>
       <use xlink:href="#DejaVuSans-34" x="159.033203"/>
      </g>
     </g>
    </g>
    <g id="ytick_12">
     <g id="line2d_28">
      <g>
       <use xlink:href="#m6ec3911361" x="135" y="658.944596" style="stroke: #000000; stroke-width: 0.8"/>
      </g>
     </g>
     <g id="text_32">
      <!-- 0.96 -->
      <g transform="translate(79.015625 667.302878) scale(0.22 -0.22)">
       <use xlink:href="#DejaVuSans-30"/>
       <use xlink:href="#DejaVuSans-2e" x="63.623047"/>
       <use xlink:href="#DejaVuSans-39" x="95.410156"/>
       <use xlink:href="#DejaVuSans-36" x="159.033203"/>
      </g>
     </g>
    </g>
    <g id="ytick_13">
     <g id="line2d_29">
      <g>
       <use xlink:href="#m6ec3911361" x="135" y="594.039636" style="stroke: #000000; stroke-width: 0.8"/>
      </g>
     </g>
     <g id="text_33">
      <!-- 0.98 -->
      <g transform="translate(79.015625 602.397917) scale(0.22 -0.22)">
       <use xlink:href="#DejaVuSans-30"/>
       <use xlink:href="#DejaVuSans-2e" x="63.623047"/>
       <use xlink:href="#DejaVuSans-39" x="95.410156"/>
       <use xlink:href="#DejaVuSans-38" x="159.033203"/>
      </g>
     </g>
    </g>
    <g id="ytick_14">
     <g id="line2d_30">
      <g>
       <use xlink:href="#m6ec3911361" x="135" y="529.134675" style="stroke: #000000; stroke-width: 0.8"/>
      </g>
     </g>
     <g id="text_34">
      <!-- 1.00 -->
      <g transform="translate(79.015625 537.492956) scale(0.22 -0.22)">
       <use xlink:href="#DejaVuSans-31"/>
       <use xlink:href="#DejaVuSans-2e" x="63.623047"/>
       <use xlink:href="#DejaVuSans-30" x="95.410156"/>
       <use xlink:href="#DejaVuSans-30" x="159.033203"/>
      </g>
     </g>
    </g>
    <g id="text_35">
     <!-- Metric Value -->
     <g transform="translate(70.024375 728.555625) rotate(-90) scale(0.24 -0.24)">
      <use xlink:href="#DejaVuSans-4d"/>
      <use xlink:href="#DejaVuSans-65" x="86.279297"/>
      <use xlink:href="#DejaVuSans-74" x="147.802734"/>
      <use xlink:href="#DejaVuSans-72" x="187.011719"/>
      <use xlink:href="#DejaVuSans-69" x="228.125"/>
      <use xlink:href="#DejaVuSans-63" x="255.908203"/>
      <use xlink:href="#DejaVuSans-20" x="310.888672"/>
      <use xlink:href="#DejaVuSans-56" x="342.675781"/>
      <use xlink:href="#DejaVuSans-61" x="403.333984"/>
      <use xlink:href="#DejaVuSans-6c" x="464.613281"/>
      <use xlink:href="#DejaVuSans-75" x="492.396484"/>
      <use xlink:href="#DejaVuSans-65" x="555.775391"/>
     </g>
    </g>
   </g>
   <g id="line2d_31">
    <path d="M 152.293388 747.161734 
L 173.910124 753.920641 
L 209.938017 760.75402 
L 281.993802 771.620963 
L 498.161157 773.848421 
" clip-path="url(#p4c9b952d8c)" style="fill: none; stroke: #1f77b4; stroke-width: 1.5; stroke-linecap: square"/>
    <g clip-path="url(#p4c9b952d8c)">
     <use xlink:href="#m17c6685615" x="152.293388" y="747.161734" style="fill: #1f77b4; stroke: #1f77b4"/>
     <use xlink:href="#m17c6685615" x="173.910124" y="753.920641" style="fill: #1f77b4; stroke: #1f77b4"/>
     <use xlink:href="#m17c6685615" x="209.938017" y="760.75402" style="fill: #1f77b4; stroke: #1f77b4"/>
     <use xlink:href="#m17c6685615" x="281.993802" y="771.620963" style="fill: #1f77b4; stroke: #1f77b4"/>
     <use xlink:href="#m17c6685615" x="498.161157" y="773.848421" style="fill: #1f77b4; stroke: #1f77b4"/>
    </g>
   </g>
   <g id="line2d_32">
    <path d="M 152.293388 535.111579 
L 173.910124 538.7058 
L 209.938017 543.346607 
L 281.993802 549.766934 
L 498.161157 568.681626 
" clip-path="url(#p4c9b952d8c)" style="fill: none; stroke: #ff7f0e; stroke-width: 1.5; stroke-linecap: square"/>
    <g clip-path="url(#p4c9b952d8c)">
     <use xlink:href="#m37fc042303" x="152.293388" y="535.111579" style="fill: #ff7f0e; stroke: #ff7f0e"/>
     <use xlink:href="#m37fc042303" x="173.910124" y="538.7058" style="fill: #ff7f0e; stroke: #ff7f0e"/>
     <use xlink:href="#m37fc042303" x="209.938017" y="543.346607" style="fill: #ff7f0e; stroke: #ff7f0e"/>
     <use xlink:href="#m37fc042303" x="281.993802" y="549.766934" style="fill: #ff7f0e; stroke: #ff7f0e"/>
     <use xlink:href="#m37fc042303" x="498.161157" y="568.681626" style="fill: #ff7f0e; stroke: #ff7f0e"/>
    </g>
   </g>
   <g id="line2d_33">
    <path d="M 152.293388 549.407063 
L 173.910124 548.248944 
L 209.938017 551.446951 
L 281.993802 563.567653 
L 498.161157 608.976888 
" clip-path="url(#p4c9b952d8c)" style="fill: none; stroke: #2ca02c; stroke-width: 1.5; stroke-linecap: square"/>
    <g clip-path="url(#p4c9b952d8c)">
     <use xlink:href="#md799bfb0e9" x="152.293388" y="549.407063" style="fill: #2ca02c; stroke: #2ca02c"/>
     <use xlink:href="#md799bfb0e9" x="173.910124" y="548.248944" style="fill: #2ca02c; stroke: #2ca02c"/>
     <use xlink:href="#md799bfb0e9" x="209.938017" y="551.446951" style="fill: #2ca02c; stroke: #2ca02c"/>
     <use xlink:href="#md799bfb0e9" x="281.993802" y="563.567653" style="fill: #2ca02c; stroke: #2ca02c"/>
     <use xlink:href="#md799bfb0e9" x="498.161157" y="608.976888" style="fill: #2ca02c; stroke: #2ca02c"/>
    </g>
   </g>
   <g id="line2d_34">
    <path d="M 152.293388 566.223241 
L 173.910124 570.01071 
L 209.938017 575.961216 
L 281.993802 587.780768 
L 498.161157 639.20995 
" clip-path="url(#p4c9b952d8c)" style="fill: none; stroke: #d62728; stroke-width: 1.5; stroke-linecap: square"/>
    <g clip-path="url(#p4c9b952d8c)">
     <use xlink:href="#md747b9cbb6" x="152.293388" y="566.223241" style="fill: #d62728; stroke: #d62728"/>
     <use xlink:href="#md747b9cbb6" x="173.910124" y="570.01071" style="fill: #d62728; stroke: #d62728"/>
     <use xlink:href="#md747b9cbb6" x="209.938017" y="575.961216" style="fill: #d62728; stroke: #d62728"/>
     <use xlink:href="#md747b9cbb6" x="281.993802" y="587.780768" style="fill: #d62728; stroke: #d62728"/>
     <use xlink:href="#md747b9cbb6" x="498.161157" y="639.20995" style="fill: #d62728; stroke: #d62728"/>
    </g>
   </g>
   <g id="patch_25">
    <path d="M 135 785.785263 
L 135 523.174737 
" style="fill: none; stroke: #000000; stroke-width: 0.8; stroke-linejoin: miter; stroke-linecap: square"/>
   </g>
   <g id="patch_26">
    <path d="M 515.454545 785.785263 
L 515.454545 523.174737 
" style="fill: none; stroke: #000000; stroke-width: 0.8; stroke-linejoin: miter; stroke-linecap: square"/>
   </g>
   <g id="patch_27">
    <path d="M 135 785.785263 
L 515.454545 785.785263 
" style="fill: none; stroke: #000000; stroke-width: 0.8; stroke-linejoin: miter; stroke-linecap: square"/>
   </g>
   <g id="patch_28">
    <path d="M 135 523.174737 
L 515.454545 523.174737 
" style="fill: none; stroke: #000000; stroke-width: 0.8; stroke-linejoin: miter; stroke-linecap: square"/>
   </g>
   <g id="text_36">
    <!-- c -->
    <g transform="translate(91.769432 505.058783) scale(0.28 -0.28)">
     <defs>
      <path id="DejaVuSans-Bold-63" d="M 3366 3391 
L 3366 2478 
Q 3138 2634 2908 2709 
Q 2678 2784 2431 2784 
Q 1963 2784 1702 2511 
Q 1441 2238 1441 1747 
Q 1441 1256 1702 982 
Q 1963 709 2431 709 
Q 2694 709 2930 787 
Q 3166 866 3366 1019 
L 3366 103 
Q 3103 6 2833 -42 
Q 2563 -91 2291 -91 
Q 1344 -91 809 395 
Q 275 881 275 1747 
Q 275 2613 809 3098 
Q 1344 3584 2291 3584 
Q 2566 3584 2833 3536 
Q 3100 3488 3366 3391 
z
" transform="scale(0.015625)"/>
     </defs>
     <use xlink:href="#DejaVuSans-Bold-63"/>
    </g>
   </g>
   <g id="text_37">
    <!-- Trustworthiness -->
    <g transform="translate(230.950398 517.174737) scale(0.24 -0.24)">
     <defs>
      <path id="DejaVuSans-54" d="M -19 4666 
L 3928 4666 
L 3928 4134 
L 2272 4134 
L 2272 0 
L 1638 0 
L 1638 4134 
L -19 4134 
L -19 4666 
z
" transform="scale(0.015625)"/>
      <path id="DejaVuSans-77" d="M 269 3500 
L 844 3500 
L 1563 769 
L 2278 3500 
L 2956 3500 
L 3675 769 
L 4391 3500 
L 4966 3500 
L 4050 0 
L 3372 0 
L 2619 2869 
L 1863 0 
L 1184 0 
L 269 3500 
z
" transform="scale(0.015625)"/>
      <path id="DejaVuSans-6f" d="M 1959 3097 
Q 1497 3097 1228 2736 
Q 959 2375 959 1747 
Q 959 1119 1226 758 
Q 1494 397 1959 397 
Q 2419 397 2687 759 
Q 2956 1122 2956 1747 
Q 2956 2369 2687 2733 
Q 2419 3097 1959 3097 
z
M 1959 3584 
Q 2709 3584 3137 3096 
Q 3566 2609 3566 1747 
Q 3566 888 3137 398 
Q 2709 -91 1959 -91 
Q 1206 -91 779 398 
Q 353 888 353 1747 
Q 353 2609 779 3096 
Q 1206 3584 1959 3584 
z
" transform="scale(0.015625)"/>
      <path id="DejaVuSans-68" d="M 3513 2113 
L 3513 0 
L 2938 0 
L 2938 2094 
Q 2938 2591 2744 2837 
Q 2550 3084 2163 3084 
Q 1697 3084 1428 2787 
Q 1159 2491 1159 1978 
L 1159 0 
L 581 0 
L 581 4863 
L 1159 4863 
L 1159 2956 
Q 1366 3272 1645 3428 
Q 1925 3584 2291 3584 
Q 2894 3584 3203 3211 
Q 3513 2838 3513 2113 
z
" transform="scale(0.015625)"/>
      <path id="DejaVuSans-6e" d="M 3513 2113 
L 3513 0 
L 2938 0 
L 2938 2094 
Q 2938 2591 2744 2837 
Q 2550 3084 2163 3084 
Q 1697 3084 1428 2787 
Q 1159 2491 1159 1978 
L 1159 0 
L 581 0 
L 581 3500 
L 1159 3500 
L 1159 2956 
Q 1366 3272 1645 3428 
Q 1925 3584 2291 3584 
Q 2894 3584 3203 3211 
Q 3513 2838 3513 2113 
z
" transform="scale(0.015625)"/>
     </defs>
     <use xlink:href="#DejaVuSans-54"/>
     <use xlink:href="#DejaVuSans-72" x="46.333984"/>
     <use xlink:href="#DejaVuSans-75" x="87.447266"/>
     <use xlink:href="#DejaVuSans-73" x="150.826172"/>
     <use xlink:href="#DejaVuSans-74" x="202.925781"/>
     <use xlink:href="#DejaVuSans-77" x="242.134766"/>
     <use xlink:href="#DejaVuSans-6f" x="323.921875"/>
     <use xlink:href="#DejaVuSans-72" x="385.103516"/>
     <use xlink:href="#DejaVuSans-74" x="426.216797"/>
     <use xlink:href="#DejaVuSans-68" x="465.425781"/>
     <use xlink:href="#DejaVuSans-69" x="528.804688"/>
     <use xlink:href="#DejaVuSans-6e" x="556.587891"/>
     <use xlink:href="#DejaVuSans-65" x="619.966797"/>
     <use xlink:href="#DejaVuSans-73" x="681.490234"/>
     <use xlink:href="#DejaVuSans-73" x="733.589844"/>
    </g>
   </g>
  </g>
  <g id="axes_4">
   <g id="patch_29">
    <path d="M 591.545455 785.785263 
L 972 785.785263 
L 972 523.174737 
L 591.545455 523.174737 
z
" style="fill: #ffffff"/>
   </g>
   <g id="matplotlib.axis_7">
    <g id="xtick_13">
     <g id="line2d_35">
      <g>
       <use xlink:href="#m2eace9cb19" x="594.427686" y="785.785263" style="stroke: #000000; stroke-width: 0.8"/>
      </g>
     </g>
     <g id="text_38">
      <!-- 0 -->
      <g transform="translate(587.428936 809.501826) scale(0.22 -0.22)">
       <use xlink:href="#DejaVuSans-30"/>
      </g>
     </g>
    </g>
    <g id="xtick_14">
     <g id="line2d_36">
      <g>
       <use xlink:href="#m2eace9cb19" x="738.539256" y="785.785263" style="stroke: #000000; stroke-width: 0.8"/>
      </g>
     </g>
     <g id="text_39">
      <!-- 20 -->
      <g transform="translate(724.541756 809.501826) scale(0.22 -0.22)">
       <use xlink:href="#DejaVuSans-32"/>
       <use xlink:href="#DejaVuSans-30" x="63.623047"/>
      </g>
     </g>
    </g>
    <g id="xtick_15">
     <g id="line2d_37">
      <g>
       <use xlink:href="#m2eace9cb19" x="882.650826" y="785.785263" style="stroke: #000000; stroke-width: 0.8"/>
      </g>
     </g>
     <g id="text_40">
      <!-- 40 -->
      <g transform="translate(868.653326 809.501826) scale(0.22 -0.22)">
       <use xlink:href="#DejaVuSans-34"/>
       <use xlink:href="#DejaVuSans-30" x="63.623047"/>
      </g>
     </g>
    </g>
    <g id="text_41">
     <!-- k -->
     <g transform="translate(774.823977 836.313388) scale(0.24 -0.24)">
      <use xlink:href="#DejaVuSans-6b"/>
     </g>
    </g>
   </g>
   <g id="matplotlib.axis_8">
    <g id="ytick_15">
     <g id="line2d_38">
      <g>
       <use xlink:href="#m6ec3911361" x="591.545455" y="773.336951" style="stroke: #000000; stroke-width: 0.8"/>
      </g>
     </g>
     <g id="text_42">
      <!-- 0.92 -->
      <g transform="translate(535.56108 781.695232) scale(0.22 -0.22)">
       <use xlink:href="#DejaVuSans-30"/>
       <use xlink:href="#DejaVuSans-2e" x="63.623047"/>
       <use xlink:href="#DejaVuSans-39" x="95.410156"/>
       <use xlink:href="#DejaVuSans-32" x="159.033203"/>
      </g>
     </g>
    </g>
    <g id="ytick_16">
     <g id="line2d_39">
      <g>
       <use xlink:href="#m6ec3911361" x="591.545455" y="711.445554" style="stroke: #000000; stroke-width: 0.8"/>
      </g>
     </g>
     <g id="text_43">
      <!-- 0.94 -->
      <g transform="translate(535.56108 719.803836) scale(0.22 -0.22)">
       <use xlink:href="#DejaVuSans-30"/>
       <use xlink:href="#DejaVuSans-2e" x="63.623047"/>
       <use xlink:href="#DejaVuSans-39" x="95.410156"/>
       <use xlink:href="#DejaVuSans-34" x="159.033203"/>
      </g>
     </g>
    </g>
    <g id="ytick_17">
     <g id="line2d_40">
      <g>
       <use xlink:href="#m6ec3911361" x="591.545455" y="649.554158" style="stroke: #000000; stroke-width: 0.8"/>
      </g>
     </g>
     <g id="text_44">
      <!-- 0.96 -->
      <g transform="translate(535.56108 657.912439) scale(0.22 -0.22)">
       <use xlink:href="#DejaVuSans-30"/>
       <use xlink:href="#DejaVuSans-2e" x="63.623047"/>
       <use xlink:href="#DejaVuSans-39" x="95.410156"/>
       <use xlink:href="#DejaVuSans-36" x="159.033203"/>
      </g>
     </g>
    </g>
    <g id="ytick_18">
     <g id="line2d_41">
      <g>
       <use xlink:href="#m6ec3911361" x="591.545455" y="587.662761" style="stroke: #000000; stroke-width: 0.8"/>
      </g>
     </g>
     <g id="text_45">
      <!-- 0.98 -->
      <g transform="translate(535.56108 596.021043) scale(0.22 -0.22)">
       <use xlink:href="#DejaVuSans-30"/>
       <use xlink:href="#DejaVuSans-2e" x="63.623047"/>
       <use xlink:href="#DejaVuSans-39" x="95.410156"/>
       <use xlink:href="#DejaVuSans-38" x="159.033203"/>
      </g>
     </g>
    </g>
    <g id="ytick_19">
     <g id="line2d_42">
      <g>
       <use xlink:href="#m6ec3911361" x="591.545455" y="525.771365" style="stroke: #000000; stroke-width: 0.8"/>
      </g>
     </g>
     <g id="text_46">
      <!-- 1.00 -->
      <g transform="translate(535.56108 534.129646) scale(0.22 -0.22)">
       <use xlink:href="#DejaVuSans-31"/>
       <use xlink:href="#DejaVuSans-2e" x="63.623047"/>
       <use xlink:href="#DejaVuSans-30" x="95.410156"/>
       <use xlink:href="#DejaVuSans-30" x="159.033203"/>
      </g>
     </g>
    </g>
   </g>
   <g id="line2d_43">
    <path d="M 608.838843 549.642739 
L 630.455579 560.011703 
L 666.483471 570.434539 
L 738.539256 587.286115 
L 954.706612 612.559783 
" clip-path="url(#pdf04bc484e)" style="fill: none; stroke: #1f77b4; stroke-width: 1.5; stroke-linecap: square"/>
    <g clip-path="url(#pdf04bc484e)">
     <use xlink:href="#m17c6685615" x="608.838843" y="549.642739" style="fill: #1f77b4; stroke: #1f77b4"/>
     <use xlink:href="#m17c6685615" x="630.455579" y="560.011703" style="fill: #1f77b4; stroke: #1f77b4"/>
     <use xlink:href="#m17c6685615" x="666.483471" y="570.434539" style="fill: #1f77b4; stroke: #1f77b4"/>
     <use xlink:href="#m17c6685615" x="738.539256" y="587.286115" style="fill: #1f77b4; stroke: #1f77b4"/>
     <use xlink:href="#m17c6685615" x="954.706612" y="612.559783" style="fill: #1f77b4; stroke: #1f77b4"/>
    </g>
   </g>
   <g id="line2d_44">
    <path d="M 608.838843 540.827952 
L 630.455579 547.094432 
L 666.483471 556.165866 
L 738.539256 570.46976 
L 954.706612 599.400762 
" clip-path="url(#pdf04bc484e)" style="fill: none; stroke: #ff7f0e; stroke-width: 1.5; stroke-linecap: square"/>
    <g clip-path="url(#pdf04bc484e)">
     <use xlink:href="#m37fc042303" x="608.838843" y="540.827952" style="fill: #ff7f0e; stroke: #ff7f0e"/>
     <use xlink:href="#m37fc042303" x="630.455579" y="547.094432" style="fill: #ff7f0e; stroke: #ff7f0e"/>
     <use xlink:href="#m37fc042303" x="666.483471" y="556.165866" style="fill: #ff7f0e; stroke: #ff7f0e"/>
     <use xlink:href="#m37fc042303" x="738.539256" y="570.46976" style="fill: #ff7f0e; stroke: #ff7f0e"/>
     <use xlink:href="#m37fc042303" x="954.706612" y="599.400762" style="fill: #ff7f0e; stroke: #ff7f0e"/>
    </g>
   </g>
   <g id="line2d_45">
    <path d="M 608.838843 535.111579 
L 630.455579 541.045947 
L 666.483471 548.669808 
L 738.539256 575.169388 
L 954.706612 647.795336 
" clip-path="url(#pdf04bc484e)" style="fill: none; stroke: #2ca02c; stroke-width: 1.5; stroke-linecap: square"/>
    <g clip-path="url(#pdf04bc484e)">
     <use xlink:href="#md799bfb0e9" x="608.838843" y="535.111579" style="fill: #2ca02c; stroke: #2ca02c"/>
     <use xlink:href="#md799bfb0e9" x="630.455579" y="541.045947" style="fill: #2ca02c; stroke: #2ca02c"/>
     <use xlink:href="#md799bfb0e9" x="666.483471" y="548.669808" style="fill: #2ca02c; stroke: #2ca02c"/>
     <use xlink:href="#md799bfb0e9" x="738.539256" y="575.169388" style="fill: #2ca02c; stroke: #2ca02c"/>
     <use xlink:href="#md799bfb0e9" x="954.706612" y="647.795336" style="fill: #2ca02c; stroke: #2ca02c"/>
    </g>
   </g>
   <g id="line2d_46">
    <path d="M 608.838843 565.519359 
L 630.455579 583.245312 
L 666.483471 611.274301 
L 738.539256 657.65222 
L 954.706612 773.848421 
" clip-path="url(#pdf04bc484e)" style="fill: none; stroke: #d62728; stroke-width: 1.5; stroke-linecap: square"/>
    <g clip-path="url(#pdf04bc484e)">
     <use xlink:href="#md747b9cbb6" x="608.838843" y="565.519359" style="fill: #d62728; stroke: #d62728"/>
     <use xlink:href="#md747b9cbb6" x="630.455579" y="583.245312" style="fill: #d62728; stroke: #d62728"/>
     <use xlink:href="#md747b9cbb6" x="666.483471" y="611.274301" style="fill: #d62728; stroke: #d62728"/>
     <use xlink:href="#md747b9cbb6" x="738.539256" y="657.65222" style="fill: #d62728; stroke: #d62728"/>
     <use xlink:href="#md747b9cbb6" x="954.706612" y="773.848421" style="fill: #d62728; stroke: #d62728"/>
    </g>
   </g>
   <g id="patch_30">
    <path d="M 591.545455 785.785263 
L 591.545455 523.174737 
" style="fill: none; stroke: #000000; stroke-width: 0.8; stroke-linejoin: miter; stroke-linecap: square"/>
   </g>
   <g id="patch_31">
    <path d="M 972 785.785263 
L 972 523.174737 
" style="fill: none; stroke: #000000; stroke-width: 0.8; stroke-linejoin: miter; stroke-linecap: square"/>
   </g>
   <g id="patch_32">
    <path d="M 591.545455 785.785263 
L 972 785.785263 
" style="fill: none; stroke: #000000; stroke-width: 0.8; stroke-linejoin: miter; stroke-linecap: square"/>
   </g>
   <g id="patch_33">
    <path d="M 591.545455 523.174737 
L 972 523.174737 
" style="fill: none; stroke: #000000; stroke-width: 0.8; stroke-linejoin: miter; stroke-linecap: square"/>
   </g>
   <g id="text_47">
    <!-- d -->
    <g transform="translate(544.871761 505.058783) scale(0.28 -0.28)">
     <defs>
      <path id="DejaVuSans-Bold-64" d="M 2919 2988 
L 2919 4863 
L 4044 4863 
L 4044 0 
L 2919 0 
L 2919 506 
Q 2688 197 2409 53 
Q 2131 -91 1766 -91 
Q 1119 -91 703 423 
Q 288 938 288 1747 
Q 288 2556 703 3070 
Q 1119 3584 1766 3584 
Q 2128 3584 2408 3439 
Q 2688 3294 2919 2988 
z
M 2181 722 
Q 2541 722 2730 984 
Q 2919 1247 2919 1747 
Q 2919 2247 2730 2509 
Q 2541 2772 2181 2772 
Q 1825 2772 1636 2509 
Q 1447 2247 1447 1747 
Q 1447 1247 1636 984 
Q 1825 722 2181 722 
z
" transform="scale(0.015625)"/>
     </defs>
     <use xlink:href="#DejaVuSans-Bold-64"/>
    </g>
   </g>
   <g id="text_48">
    <!-- Continuity -->
    <g transform="translate(720.057102 517.174737) scale(0.24 -0.24)">
     <defs>
      <path id="DejaVuSans-79" d="M 2059 -325 
Q 1816 -950 1584 -1140 
Q 1353 -1331 966 -1331 
L 506 -1331 
L 506 -850 
L 844 -850 
Q 1081 -850 1212 -737 
Q 1344 -625 1503 -206 
L 1606 56 
L 191 3500 
L 800 3500 
L 1894 763 
L 2988 3500 
L 3597 3500 
L 2059 -325 
z
" transform="scale(0.015625)"/>
     </defs>
     <use xlink:href="#DejaVuSans-43"/>
     <use xlink:href="#DejaVuSans-6f" x="69.824219"/>
     <use xlink:href="#DejaVuSans-6e" x="131.005859"/>
     <use xlink:href="#DejaVuSans-74" x="194.384766"/>
     <use xlink:href="#DejaVuSans-69" x="233.59375"/>
     <use xlink:href="#DejaVuSans-6e" x="261.376953"/>
     <use xlink:href="#DejaVuSans-75" x="324.755859"/>
     <use xlink:href="#DejaVuSans-69" x="388.134766"/>
     <use xlink:href="#DejaVuSans-74" x="415.917969"/>
     <use xlink:href="#DejaVuSans-79" x="455.126953"/>
    </g>
   </g>
  </g>
  <g id="axes_5">
   <g id="patch_34">
    <path d="M 135 1153.44 
L 515.454545 1153.44 
L 515.454545 890.829474 
L 135 890.829474 
z
" style="fill: #ffffff"/>
   </g>
   <g id="matplotlib.axis_9">
    <g id="xtick_16">
     <g id="line2d_47">
      <g>
       <use xlink:href="#m2eace9cb19" x="152.105007" y="1153.44" style="stroke: #000000; stroke-width: 0.8"/>
      </g>
     </g>
     <g id="text_49">
      <!-- 0 -->
      <g transform="translate(145.106257 1177.156562) scale(0.22 -0.22)">
       <use xlink:href="#DejaVuSans-30"/>
      </g>
     </g>
    </g>
    <g id="xtick_17">
     <g id="line2d_48">
      <g>
       <use xlink:href="#m2eace9cb19" x="246.295576" y="1153.44" style="stroke: #000000; stroke-width: 0.8"/>
      </g>
     </g>
     <g id="text_50">
      <!-- 500 -->
      <g transform="translate(225.299326 1177.156562) scale(0.22 -0.22)">
       <use xlink:href="#DejaVuSans-35"/>
       <use xlink:href="#DejaVuSans-30" x="63.623047"/>
       <use xlink:href="#DejaVuSans-30" x="127.246094"/>
      </g>
     </g>
    </g>
    <g id="xtick_18">
     <g id="line2d_49">
      <g>
       <use xlink:href="#m2eace9cb19" x="340.486145" y="1153.44" style="stroke: #000000; stroke-width: 0.8"/>
      </g>
     </g>
     <g id="text_51">
      <!-- 1000 -->
      <g transform="translate(312.491145 1177.156562) scale(0.22 -0.22)">
       <use xlink:href="#DejaVuSans-31"/>
       <use xlink:href="#DejaVuSans-30" x="63.623047"/>
       <use xlink:href="#DejaVuSans-30" x="127.246094"/>
       <use xlink:href="#DejaVuSans-30" x="190.869141"/>
      </g>
     </g>
    </g>
    <g id="xtick_19">
     <g id="line2d_50">
      <g>
       <use xlink:href="#m2eace9cb19" x="434.676714" y="1153.44" style="stroke: #000000; stroke-width: 0.8"/>
      </g>
     </g>
     <g id="text_52">
      <!-- 1500 -->
      <g transform="translate(406.681714 1177.156562) scale(0.22 -0.22)">
       <use xlink:href="#DejaVuSans-31"/>
       <use xlink:href="#DejaVuSans-35" x="63.623047"/>
       <use xlink:href="#DejaVuSans-30" x="127.246094"/>
       <use xlink:href="#DejaVuSans-30" x="190.869141"/>
      </g>
     </g>
    </g>
    <g id="text_53">
     <!-- k -->
     <g transform="translate(318.278523 1203.968125) scale(0.24 -0.24)">
      <use xlink:href="#DejaVuSans-6b"/>
     </g>
    </g>
   </g>
   <g id="matplotlib.axis_10">
    <g id="ytick_20">
     <g id="line2d_51">
      <g>
       <use xlink:href="#m6ec3911361" x="135" y="1096.781783" style="stroke: #000000; stroke-width: 0.8"/>
      </g>
     </g>
     <g id="text_54">
      <!-- 0.4 -->
      <g transform="translate(93.013125 1105.140065) scale(0.22 -0.22)">
       <use xlink:href="#DejaVuSans-30"/>
       <use xlink:href="#DejaVuSans-2e" x="63.623047"/>
       <use xlink:href="#DejaVuSans-34" x="95.410156"/>
      </g>
     </g>
    </g>
    <g id="ytick_21">
     <g id="line2d_52">
      <g>
       <use xlink:href="#m6ec3911361" x="135" y="1032.109961" style="stroke: #000000; stroke-width: 0.8"/>
      </g>
     </g>
     <g id="text_55">
      <!-- 0.6 -->
      <g transform="translate(93.013125 1040.468242) scale(0.22 -0.22)">
       <use xlink:href="#DejaVuSans-30"/>
       <use xlink:href="#DejaVuSans-2e" x="63.623047"/>
       <use xlink:href="#DejaVuSans-36" x="95.410156"/>
      </g>
     </g>
    </g>
    <g id="ytick_22">
     <g id="line2d_53">
      <g>
       <use xlink:href="#m6ec3911361" x="135" y="967.438138" style="stroke: #000000; stroke-width: 0.8"/>
      </g>
     </g>
     <g id="text_56">
      <!-- 0.8 -->
      <g transform="translate(93.013125 975.79642) scale(0.22 -0.22)">
       <use xlink:href="#DejaVuSans-30"/>
       <use xlink:href="#DejaVuSans-2e" x="63.623047"/>
       <use xlink:href="#DejaVuSans-38" x="95.410156"/>
      </g>
     </g>
    </g>
    <g id="ytick_23">
     <g id="line2d_54">
      <g>
       <use xlink:href="#m6ec3911361" x="135" y="902.766316" style="stroke: #000000; stroke-width: 0.8"/>
      </g>
     </g>
     <g id="text_57">
      <!-- 1.0 -->
      <g transform="translate(93.013125 911.124597) scale(0.22 -0.22)">
       <use xlink:href="#DejaVuSans-31"/>
       <use xlink:href="#DejaVuSans-2e" x="63.623047"/>
       <use xlink:href="#DejaVuSans-30" x="95.410156"/>
      </g>
     </g>
    </g>
    <g id="text_58">
     <!-- Metric Value -->
     <g transform="translate(84.021875 1096.210362) rotate(-90) scale(0.24 -0.24)">
      <use xlink:href="#DejaVuSans-4d"/>
      <use xlink:href="#DejaVuSans-65" x="86.279297"/>
      <use xlink:href="#DejaVuSans-74" x="147.802734"/>
      <use xlink:href="#DejaVuSans-72" x="187.011719"/>
      <use xlink:href="#DejaVuSans-69" x="228.125"/>
      <use xlink:href="#DejaVuSans-63" x="255.908203"/>
      <use xlink:href="#DejaVuSans-20" x="310.888672"/>
      <use xlink:href="#DejaVuSans-56" x="342.675781"/>
      <use xlink:href="#DejaVuSans-61" x="403.333984"/>
      <use xlink:href="#DejaVuSans-6c" x="464.613281"/>
      <use xlink:href="#DejaVuSans-75" x="492.396484"/>
      <use xlink:href="#DejaVuSans-65" x="555.775391"/>
     </g>
    </g>
   </g>
   <g id="line2d_55">
    <path d="M 152.293388 1141.503158 
L 152.670151 1121.212579 
L 153.235294 1110.18764 
L 154.553962 1100.673894 
L 156.814536 1092.390574 
L 157.191298 1091.434818 
L 157.56806 1089.476447 
L 157.756441 1088.94704 
L 158.133204 1086.948403 
L 160.393777 1077.632616 
L 161.147302 1075.349859 
L 161.900826 1072.420232 
L 163.973019 1067.06248 
L 165.85683 1063.840963 
L 166.045211 1063.704114 
L 166.610355 1062.697997 
L 166.987117 1062.437154 
L 167.740642 1061.448705 
L 168.494166 1060.215466 
L 169.05931 1059.592162 
L 169.624453 1058.782065 
L 170.189596 1058.006106 
L 171.696646 1056.15856 
L 172.073408 1055.81535 
L 173.392076 1054.378947 
L 173.768838 1054.024704 
L 177.34808 1049.237128 
L 178.101604 1048.083119 
L 180.927321 1044.108148 
L 181.680846 1043.036215 
L 182.245989 1042.271011 
L 183.753038 1040.293213 
L 188.650948 1032.556315 
L 191.288284 1028.412388 
L 195.432669 1022.286954 
L 198.635148 1017.845111 
L 207.112299 1007.659082 
L 212.575352 1001.891018 
L 213.89402 1000.634819 
L 216.154594 998.555476 
L 217.284881 997.553876 
L 219.357073 995.911083 
L 222.18279 993.913598 
L 223.501458 992.990491 
L 228.210987 989.821122 
L 230.659942 988.127745 
L 232.355372 987.051181 
L 235.557851 985.045899 
L 237.441663 983.922418 
L 240.644142 981.971818 
L 243.469859 980.275215 
L 244.976908 979.33007 
L 246.107195 978.627702 
L 268.901313 963.731977 
L 270.973505 962.282473 
L 279.073894 957.165713 
L 297.346864 947.472128 
L 299.795819 946.356309 
L 304.316966 944.408134 
L 309.026495 942.614116 
L 314.112786 940.866999 
L 315.431454 940.415918 
L 317.503646 939.65849 
L 348.774915 929.050644 
L 363.468644 924.280564 
L 369.120078 922.415942 
L 372.887701 921.364295 
L 374.771512 920.899447 
L 382.68352 918.911763 
L 391.349052 916.673503 
L 401.710015 914.06898 
L 404.724113 913.535035 
L 408.303354 912.818121 
L 430.343947 908.461465 
L 434.488333 908.026373 
L 444.095771 907.853867 
L 449.935586 907.918246 
L 452.007778 907.952711 
L 458.601118 907.701111 
L 479.699806 905.988797 
L 489.307244 904.460059 
L 491.944579 903.910835 
L 492.509723 903.839907 
L 494.770297 903.295653 
L 495.33544 903.374249 
L 495.712202 903.372618 
L 496.654108 903.157228 
L 498.161157 902.766316 
L 498.161157 902.766316 
" clip-path="url(#p9cf6c254dc)" style="fill: none; stroke: #1f77b4; stroke-width: 1.5; stroke-linecap: square"/>
   </g>
   <g id="line2d_56">
    <path d="M 152.293388 1058.464256 
L 152.670151 1022.281345 
L 153.046913 1004.946388 
L 153.423675 996.335877 
L 153.612056 995.987159 
L 154.553962 987.442719 
L 155.307487 985.111847 
L 155.495868 984.632352 
L 155.87263 984.538522 
L 156.061011 983.920254 
L 156.249392 983.933963 
L 156.626155 983.459486 
L 156.814536 983.48998 
L 157.002917 983.328666 
L 157.191298 983.394326 
L 157.379679 983.335916 
L 157.756441 983.957954 
L 157.944823 984.182122 
L 158.321585 984.221849 
L 158.698347 984.629001 
L 159.075109 984.236113 
L 159.828634 983.728387 
L 160.393777 984.173868 
L 160.582158 984.608894 
L 161.335683 984.846579 
L 161.900826 985.399225 
L 162.089208 985.489871 
L 162.46597 986.153878 
L 162.842732 986.607705 
L 163.219494 986.926398 
L 163.784638 987.575866 
L 164.538162 988.64142 
L 165.103306 989.226926 
L 165.668449 990.232786 
L 166.798736 992.973232 
L 167.929023 995.033158 
L 169.247691 997.109195 
L 171.319883 1000.890342 
L 172.45017 1002.339368 
L 172.638551 1002.486275 
L 175.464268 1006.960785 
L 176.029412 1007.710565 
L 176.782936 1008.676101 
L 177.159699 1009.078227 
L 178.855129 1010.790977 
L 180.550559 1011.841674 
L 182.245989 1013.162313 
L 183.376276 1013.758991 
L 183.94142 1014.11223 
L 184.694944 1014.409585 
L 186.767137 1015.312673 
L 188.650948 1015.638027 
L 189.02771 1015.676495 
L 189.781235 1015.897143 
L 190.72314 1016.084036 
L 192.795333 1016.550592 
L 193.360476 1016.647572 
L 193.737239 1016.786389 
L 196.374575 1016.859461 
L 201.460865 1014.679205 
L 203.721439 1014.13057 
L 207.112299 1012.651394 
L 207.865824 1012.162009 
L 209.372873 1011.407065 
L 210.314779 1010.976285 
L 212.575352 1010.4639 
L 213.705639 1010.275073 
L 214.459164 1010.033578 
L 216.342975 1009.601152 
L 217.284881 1009.356431 
L 218.415168 1009.276862 
L 222.936315 1009.32648 
L 225.762032 1009.03606 
L 228.964511 1009.242268 
L 230.283179 1009.32895 
L 231.601847 1009.29936 
L 236.311376 1009.229867 
L 238.383568 1008.833209 
L 239.890617 1008.537547 
L 241.586048 1008.256833 
L 242.904716 1007.990632 
L 244.976908 1007.484917 
L 254.584346 1004.244221 
L 255.526252 1003.945863 
L 257.786825 1003.335485 
L 259.293875 1002.914321 
L 261.742829 1002.312095 
L 263.626641 1001.849012 
L 265.510452 1001.365952 
L 278.885513 998.513994 
L 280.204181 998.210602 
L 281.899611 997.71304 
L 286.797521 995.662212 
L 288.681332 994.78298 
L 291.130287 993.39118 
L 293.202479 992.292778 
L 298.100389 990.056137 
L 309.214876 984.930631 
L 311.852212 983.880984 
L 313.924404 983.140463 
L 318.633933 981.39702 
L 321.082888 980.528498 
L 327.299465 978.560879 
L 328.806514 978.053424 
L 335.211473 975.867713 
L 340.297764 974.371008 
L 343.500243 973.403027 
L 345.384054 972.811098 
L 347.644628 972.069297 
L 350.281964 971.085138 
L 353.484443 969.903724 
L 359.324259 967.727623 
L 368.178172 963.911534 
L 371.945795 962.242524 
L 374.583131 961.022344 
L 386.07438 955.579416 
L 389.088478 954.11882 
L 393.232863 952.244944 
L 401.898396 948.466423 
L 414.331551 942.632885 
L 427.706612 936.222454 
L 448.805299 926.752651 
L 452.384541 925.489856 
L 455.963782 924.542028 
L 460.296548 923.204399 
L 463.122265 922.105176 
L 466.136364 920.783667 
L 469.338843 919.37278 
L 475.932183 916.491098 
L 483.467428 912.511471 
L 486.481526 910.69773 
L 498.161157 902.766316 
L 498.161157 902.766316 
" clip-path="url(#p9cf6c254dc)" style="fill: none; stroke: #ff7f0e; stroke-width: 1.5; stroke-linecap: square"/>
   </g>
   <g id="line2d_57">
    <path d="M 152.293388 1133.938173 
L 152.670151 1073.535582 
L 153.046913 1040.941641 
L 153.423675 1021.795444 
L 153.800438 1013.426208 
L 154.1772 1007.988375 
L 154.553962 1003.939528 
L 154.742343 1002.807583 
L 154.930724 1002.38954 
L 155.119105 1002.925393 
L 155.307487 1003.035996 
L 155.495868 1002.508782 
L 155.87263 1003.301444 
L 156.061011 1003.255786 
L 156.626155 1004.365819 
L 157.191298 1005.94593 
L 157.379679 1005.867506 
L 157.56806 1006.334414 
L 157.944823 1006.309561 
L 158.133204 1006.257066 
L 158.509966 1007.118604 
L 158.886728 1007.263775 
L 159.263491 1007.370516 
L 159.451872 1007.516769 
L 159.828634 1007.324445 
L 160.205396 1007.886463 
L 162.089208 1010.817135 
L 165.103306 1014.741857 
L 166.798736 1016.791431 
L 167.175498 1017.144926 
L 168.117404 1018.292221 
L 168.870929 1019.253638 
L 169.436072 1019.994894 
L 170.566359 1021.267654 
L 173.015314 1024.227668 
L 173.580457 1024.846217 
L 177.159699 1029.450377 
L 177.536461 1029.729043 
L 179.231891 1031.656941 
L 180.73894 1032.955582 
L 182.057608 1034.323137 
L 183.187895 1035.317216 
L 186.013612 1037.033065 
L 188.274186 1037.984919 
L 190.911522 1038.864302 
L 191.853427 1039.059441 
L 192.983714 1039.154939 
L 193.548858 1039.139959 
L 194.867526 1038.986416 
L 196.751337 1038.70889 
L 198.823529 1038.328798 
L 202.026009 1037.938219 
L 203.344677 1037.624974 
L 204.286582 1037.4454 
L 206.358775 1036.488293 
L 208.054205 1035.279423 
L 209.938017 1033.987081 
L 212.575352 1032.668881 
L 213.328877 1032.40011 
L 220.48736 1027.818532 
L 222.747934 1026.740581 
L 228.210987 1024.710977 
L 229.341274 1024.40552 
L 231.225085 1023.839162 
L 235.181089 1022.608072 
L 242.339572 1020.164432 
L 244.035002 1019.480287 
L 248.744531 1017.660871 
L 251.570248 1016.430011 
L 253.64244 1015.29126 
L 255.903014 1013.93484 
L 257.410063 1013.07781 
L 260.800924 1011.296755 
L 264.191784 1009.787564 
L 267.771026 1008.014215 
L 269.654837 1007.028168 
L 280.392562 1001.188619 
L 294.332766 994.263134 
L 297.723627 992.623923 
L 302.244774 990.510293 
L 305.447253 989.11244 
L 309.403257 987.331488 
L 319.952601 982.654868 
L 334.081186 977.6538 
L 338.602333 975.806536 
L 344.442149 973.477375 
L 345.760817 972.951212 
L 354.426349 969.910428 
L 359.701021 967.763784 
L 366.859504 964.93623 
L 369.685221 963.795704 
L 372.887701 962.399789 
L 375.713418 961.191783 
L 382.495139 958.22767 
L 390.407146 954.684822 
L 394.36315 952.868846 
L 397.188867 951.624382 
L 401.333252 950.006081 
L 403.782207 948.974113 
L 421.490034 940.794481 
L 434.11157 934.229911 
L 441.270053 930.609883 
L 445.60282 928.817714 
L 448.99368 928.023304 
L 453.89159 926.622824 
L 456.340544 925.741233 
L 462.933884 923.181645 
L 465.57122 922.12558 
L 469.338843 920.489579 
L 471.222654 919.64094 
L 475.555421 917.662054 
L 489.307244 910.356953 
L 490.249149 909.689426 
L 495.900583 904.737694 
L 498.161157 902.766316 
L 498.161157 902.766316 
" clip-path="url(#p9cf6c254dc)" style="fill: none; stroke: #2ca02c; stroke-width: 1.5; stroke-linecap: square"/>
   </g>
   <g id="line2d_58">
    <path d="M 152.293388 1112.474728 
L 152.670151 1081.100567 
L 153.046913 1060.892089 
L 153.423675 1046.350228 
L 154.553962 1026.187891 
L 154.930724 1022.879507 
L 155.307487 1021.301657 
L 156.061011 1018.603573 
L 156.437773 1018.451683 
L 156.814536 1017.13481 
L 157.002917 1016.762109 
L 157.944823 1013.698616 
L 158.321585 1013.196966 
L 158.509966 1012.92429 
L 158.886728 1012.825114 
L 160.205396 1010.995921 
L 160.77054 1011.907857 
L 160.958921 1012.187212 
L 161.335683 1012.941503 
L 161.900826 1014.001363 
L 162.654351 1014.783381 
L 163.219494 1015.456856 
L 163.407876 1015.736754 
L 163.784638 1015.93179 
L 163.973019 1016.176858 
L 164.726544 1016.419642 
L 165.480068 1017.450294 
L 166.610355 1019.293584 
L 166.987117 1019.810904 
L 167.929023 1021.942052 
L 168.305785 1022.670709 
L 170.377978 1027.959467 
L 172.073408 1031.444083 
L 173.580457 1033.554746 
L 174.522363 1035.00349 
L 175.652649 1036.812215 
L 176.594555 1038.366298 
L 177.34808 1039.68965 
L 181.304084 1045.941454 
L 181.869227 1046.703678 
L 185.448469 1050.821743 
L 186.390374 1051.66099 
L 187.897423 1052.723387 
L 188.462567 1053.221911 
L 189.216091 1053.863288 
L 191.476665 1055.07445 
L 192.418571 1055.495645 
L 192.983714 1055.657486 
L 193.737239 1055.900934 
L 194.114001 1055.947591 
L 195.244288 1056.320831 
L 196.374575 1056.758111 
L 198.446767 1057.537406 
L 199.577054 1057.865257 
L 200.707341 1058.060572 
L 201.649246 1058.21675 
L 202.779533 1058.391661 
L 205.60525 1058.653815 
L 208.054205 1058.320906 
L 212.19859 1057.543244 
L 213.517258 1057.53172 
L 216.719737 1057.145039 
L 219.357073 1056.495024 
L 220.298979 1056.37351 
L 221.052504 1056.265614 
L 222.371172 1056.141793 
L 224.066602 1055.968078 
L 230.471561 1056.024498 
L 232.543753 1055.901531 
L 235.746232 1055.910896 
L 239.702236 1055.701968 
L 240.644142 1055.572269 
L 242.339572 1055.330942 
L 252.888916 1053.03608 
L 257.975207 1052.125772 
L 260.047399 1051.849232 
L 261.177686 1051.681385 
L 265.322071 1050.991188 
L 269.089694 1050.391313 
L 272.292173 1049.568767 
L 274.364366 1049.031813 
L 278.697132 1047.878618 
L 288.30457 1045.361252 
L 293.202479 1044.016867 
L 297.723627 1042.908687 
L 303.751823 1041.584386 
L 305.070491 1041.258444 
L 310.533544 1039.983042 
L 318.257171 1038.615696 
L 322.966699 1037.461488 
L 330.690326 1035.718639 
L 335.211473 1034.772185 
L 339.73262 1033.599677 
L 348.398153 1031.107161 
L 352.730919 1030.010035 
L 365.352455 1025.758706 
L 372.134176 1023.009717 
L 376.466942 1021.249991 
L 381.741614 1018.596006 
L 389.842003 1013.846655 
L 394.174769 1010.76686 
L 397.000486 1008.535763 
L 400.95649 1005.311725 
L 411.505834 995.735993 
L 419.606223 987.851579 
L 434.488333 973.298587 
L 437.31405 970.225081 
L 444.660914 961.401602 
L 460.108167 942.680339 
L 466.889888 934.883573 
L 473.85999 927.188432 
L 480.830092 919.814677 
L 487.988576 912.559778 
L 495.33544 905.428631 
L 498.161157 902.766507 
L 498.161157 902.766507 
" clip-path="url(#p9cf6c254dc)" style="fill: none; stroke: #d62728; stroke-width: 1.5; stroke-linecap: square"/>
   </g>
   <g id="patch_35">
    <path d="M 135 1153.44 
L 135 890.829474 
" style="fill: none; stroke: #000000; stroke-width: 0.8; stroke-linejoin: miter; stroke-linecap: square"/>
   </g>
   <g id="patch_36">
    <path d="M 515.454545 1153.44 
L 515.454545 890.829474 
" style="fill: none; stroke: #000000; stroke-width: 0.8; stroke-linejoin: miter; stroke-linecap: square"/>
   </g>
   <g id="patch_37">
    <path d="M 135 1153.44 
L 515.454545 1153.44 
" style="fill: none; stroke: #000000; stroke-width: 0.8; stroke-linejoin: miter; stroke-linecap: square"/>
   </g>
   <g id="patch_38">
    <path d="M 135 890.829474 
L 515.454545 890.829474 
" style="fill: none; stroke: #000000; stroke-width: 0.8; stroke-linejoin: miter; stroke-linecap: square"/>
   </g>
   <g id="text_59">
    <!-- e -->
    <g transform="translate(89.376307 872.71352) scale(0.28 -0.28)">
     <defs>
      <path id="DejaVuSans-Bold-65" d="M 4031 1759 
L 4031 1441 
L 1416 1441 
Q 1456 1047 1700 850 
Q 1944 653 2381 653 
Q 2734 653 3104 758 
Q 3475 863 3866 1075 
L 3866 213 
Q 3469 63 3072 -14 
Q 2675 -91 2278 -91 
Q 1328 -91 801 392 
Q 275 875 275 1747 
Q 275 2603 792 3093 
Q 1309 3584 2216 3584 
Q 3041 3584 3536 3087 
Q 4031 2591 4031 1759 
z
M 2881 2131 
Q 2881 2450 2695 2645 
Q 2509 2841 2209 2841 
Q 1884 2841 1681 2658 
Q 1478 2475 1428 2131 
L 2881 2131 
z
" transform="scale(0.015625)"/>
     </defs>
     <use xlink:href="#DejaVuSans-Bold-65"/>
    </g>
   </g>
   <g id="text_60">
    <!-- $Q_{NN}$ -->
    <g transform="translate(302.787273 884.829474) scale(0.24 -0.24)">
     <use xlink:href="#DejaVuSans-Oblique-51" transform="translate(0 0.78125)"/>
     <use xlink:href="#DejaVuSans-Oblique-4e" transform="translate(78.710938 -15.625) scale(0.7)"/>
     <use xlink:href="#DejaVuSans-Oblique-4e" transform="translate(131.074219 -15.625) scale(0.7)"/>
    </g>
   </g>
  </g>
  <g id="axes_6">
   <g id="patch_39">
    <path d="M 591.545455 1153.44 
L 972 1153.44 
L 972 890.829474 
L 591.545455 890.829474 
z
" style="fill: #ffffff"/>
   </g>
   <g id="matplotlib.axis_11">
    <g id="xtick_20">
     <g id="line2d_59">
      <g>
       <use xlink:href="#m2eace9cb19" x="608.650462" y="1153.44" style="stroke: #000000; stroke-width: 0.8"/>
      </g>
     </g>
     <g id="text_61">
      <!-- 0 -->
      <g transform="translate(601.651712 1177.156562) scale(0.22 -0.22)">
       <use xlink:href="#DejaVuSans-30"/>
      </g>
     </g>
    </g>
    <g id="xtick_21">
     <g id="line2d_60">
      <g>
       <use xlink:href="#m2eace9cb19" x="702.841031" y="1153.44" style="stroke: #000000; stroke-width: 0.8"/>
      </g>
     </g>
     <g id="text_62">
      <!-- 500 -->
      <g transform="translate(681.844781 1177.156562) scale(0.22 -0.22)">
       <use xlink:href="#DejaVuSans-35"/>
       <use xlink:href="#DejaVuSans-30" x="63.623047"/>
       <use xlink:href="#DejaVuSans-30" x="127.246094"/>
      </g>
     </g>
    </g>
    <g id="xtick_22">
     <g id="line2d_61">
      <g>
       <use xlink:href="#m2eace9cb19" x="797.031599" y="1153.44" style="stroke: #000000; stroke-width: 0.8"/>
      </g>
     </g>
     <g id="text_63">
      <!-- 1000 -->
      <g transform="translate(769.036599 1177.156562) scale(0.22 -0.22)">
       <use xlink:href="#DejaVuSans-31"/>
       <use xlink:href="#DejaVuSans-30" x="63.623047"/>
       <use xlink:href="#DejaVuSans-30" x="127.246094"/>
       <use xlink:href="#DejaVuSans-30" x="190.869141"/>
      </g>
     </g>
    </g>
    <g id="xtick_23">
     <g id="line2d_62">
      <g>
       <use xlink:href="#m2eace9cb19" x="891.222168" y="1153.44" style="stroke: #000000; stroke-width: 0.8"/>
      </g>
     </g>
     <g id="text_64">
      <!-- 1500 -->
      <g transform="translate(863.227168 1177.156562) scale(0.22 -0.22)">
       <use xlink:href="#DejaVuSans-31"/>
       <use xlink:href="#DejaVuSans-35" x="63.623047"/>
       <use xlink:href="#DejaVuSans-30" x="127.246094"/>
       <use xlink:href="#DejaVuSans-30" x="190.869141"/>
      </g>
     </g>
    </g>
    <g id="text_65">
     <!-- k -->
     <g transform="translate(774.823977 1203.968125) scale(0.24 -0.24)">
      <use xlink:href="#DejaVuSans-6b"/>
     </g>
    </g>
   </g>
   <g id="matplotlib.axis_12">
    <g id="ytick_24">
     <g id="line2d_63">
      <g>
       <use xlink:href="#m6ec3911361" x="591.545455" y="1129.977711" style="stroke: #000000; stroke-width: 0.8"/>
      </g>
     </g>
     <g id="text_66">
      <!-- 0.0 -->
      <g transform="translate(549.55858 1138.335992) scale(0.22 -0.22)">
       <use xlink:href="#DejaVuSans-30"/>
       <use xlink:href="#DejaVuSans-2e" x="63.623047"/>
       <use xlink:href="#DejaVuSans-30" x="95.410156"/>
      </g>
     </g>
    </g>
    <g id="ytick_25">
     <g id="line2d_64">
      <g>
       <use xlink:href="#m6ec3911361" x="591.545455" y="1068.369145" style="stroke: #000000; stroke-width: 0.8"/>
      </g>
     </g>
     <g id="text_67">
      <!-- 0.2 -->
      <g transform="translate(549.55858 1076.727426) scale(0.22 -0.22)">
       <use xlink:href="#DejaVuSans-30"/>
       <use xlink:href="#DejaVuSans-2e" x="63.623047"/>
       <use xlink:href="#DejaVuSans-32" x="95.410156"/>
      </g>
     </g>
    </g>
    <g id="ytick_26">
     <g id="line2d_65">
      <g>
       <use xlink:href="#m6ec3911361" x="591.545455" y="1006.760579" style="stroke: #000000; stroke-width: 0.8"/>
      </g>
     </g>
     <g id="text_68">
      <!-- 0.4 -->
      <g transform="translate(549.55858 1015.11886) scale(0.22 -0.22)">
       <use xlink:href="#DejaVuSans-30"/>
       <use xlink:href="#DejaVuSans-2e" x="63.623047"/>
       <use xlink:href="#DejaVuSans-34" x="95.410156"/>
      </g>
     </g>
    </g>
    <g id="ytick_27">
     <g id="line2d_66">
      <g>
       <use xlink:href="#m6ec3911361" x="591.545455" y="945.152013" style="stroke: #000000; stroke-width: 0.8"/>
      </g>
     </g>
     <g id="text_69">
      <!-- 0.6 -->
      <g transform="translate(549.55858 953.510294) scale(0.22 -0.22)">
       <use xlink:href="#DejaVuSans-30"/>
       <use xlink:href="#DejaVuSans-2e" x="63.623047"/>
       <use xlink:href="#DejaVuSans-36" x="95.410156"/>
      </g>
     </g>
    </g>
   </g>
   <g id="line2d_67">
    <path d="M 608.838843 1049.531361 
L 609.215605 1030.537245 
L 609.592368 1023.822384 
L 609.780749 1020.537579 
L 610.911035 1013.429231 
L 611.66456 1010.755031 
L 611.852941 1010.591222 
L 612.229703 1009.627334 
L 612.606466 1008.918906 
L 613.171609 1007.243212 
L 613.548371 1006.448385 
L 613.736753 1006.194454 
L 614.113515 1004.66422 
L 614.301896 1004.327576 
L 614.678658 1002.758983 
L 615.055421 1001.305942 
L 615.432183 1000.06558 
L 615.808945 998.986674 
L 616.939232 995.896705 
L 617.692756 994.392826 
L 618.446281 992.272716 
L 620.518474 989.013308 
L 620.895236 988.642854 
L 621.460379 988.061506 
L 621.64876 988.041702 
L 622.025523 987.774803 
L 622.402285 987.621261 
L 622.590666 987.658582 
L 623.155809 987.203186 
L 623.532572 987.290073 
L 623.909334 987.238188 
L 624.286096 987.019196 
L 625.039621 986.515123 
L 625.416383 986.534309 
L 626.169908 986.155744 
L 626.54667 985.987249 
L 627.865338 985.554765 
L 628.053719 985.585421 
L 628.2421 985.501072 
L 628.618862 985.509495 
L 629.560768 985.379019 
L 630.125912 985.347704 
L 630.879436 985.12523 
L 634.83544 983.43487 
L 635.588965 983.011922 
L 641.052018 980.775779 
L 641.805542 980.347961 
L 643.312591 979.457091 
L 644.631259 978.48855 
L 650.847837 974.960677 
L 654.427078 973.256225 
L 656.687652 972.489604 
L 660.266894 971.575457 
L 666.483471 970.374999 
L 668.555664 970.215342 
L 673.076811 970.20394 
L 675.714147 970.487741 
L 689.654351 973.887705 
L 691.726544 974.49804 
L 694.363879 975.310108 
L 696.812834 976.093177 
L 699.073408 976.808393 
L 718.853427 982.351987 
L 730.344677 985.19336 
L 736.184492 986.98587 
L 739.952115 988.375878 
L 742.966213 989.46599 
L 748.240885 991.499571 
L 751.066602 992.614465 
L 760.485659 996.901448 
L 768.774429 1001.38098 
L 794.582645 1015.803112 
L 797.408362 1017.38975 
L 807.769324 1023.493234 
L 811.536947 1025.751738 
L 814.551045 1027.500397 
L 823.59334 1032.597784 
L 828.302868 1035.460056 
L 859.008994 1055.422564 
L 868.616432 1062.163048 
L 876.716821 1067.81266 
L 889.338357 1076.915741 
L 892.352455 1079.454817 
L 895.743316 1082.385768 
L 899.322557 1085.522434 
L 909.306757 1094.484963 
L 920.232863 1103.66707 
L 923.812105 1106.624825 
L 933.796305 1114.714823 
L 936.056879 1116.469329 
L 943.026981 1121.695135 
L 948.113272 1125.249721 
L 949.055177 1125.96981 
L 951.504132 1127.627135 
L 952.634419 1128.601881 
L 954.706612 1129.977711 
L 954.706612 1129.977711 
" clip-path="url(#pfbe276d22a)" style="fill: none; stroke: #1f77b4; stroke-width: 1.5; stroke-linecap: square"/>
   </g>
   <g id="line2d_68">
    <path d="M 608.838843 970.425694 
L 609.215605 936.292005 
L 609.592368 920.113514 
L 609.96913 912.246226 
L 610.157511 912.081713 
L 611.099417 904.78043 
L 611.852941 903.230715 
L 612.041322 902.94162 
L 612.418085 903.187611 
L 612.606466 902.766316 
L 612.794847 902.947063 
L 612.983228 902.813342 
L 613.171609 902.830436 
L 613.35999 903.027174 
L 613.548371 903.041189 
L 613.925134 903.383471 
L 614.301896 904.311421 
L 614.678658 904.861531 
L 615.055421 905.420882 
L 615.243802 905.789123 
L 615.432183 905.689986 
L 616.374088 905.937296 
L 616.939232 906.86474 
L 617.127613 907.446849 
L 617.881138 908.344028 
L 622.025523 916.796399 
L 622.779047 919.170186 
L 623.344191 920.948704 
L 624.85124 924.833491 
L 626.169908 928.059141 
L 626.923432 930.204321 
L 627.676957 932.093327 
L 634.458678 947.035723 
L 635.777346 949.214474 
L 636.719251 950.567171 
L 638.791444 953.93192 
L 640.110112 955.832825 
L 642.182304 958.533058 
L 644.254497 961.099105 
L 645.008021 961.79765 
L 647.456976 964.477627 
L 652.731648 969.913364 
L 653.673554 970.427773 
L 654.050316 970.569289 
L 654.992222 970.993076 
L 656.687652 971.691055 
L 658.194701 972.613698 
L 661.585561 974.738376 
L 662.339086 975.040815 
L 663.280992 975.477652 
L 664.976422 975.997027 
L 667.425377 977.16707 
L 668.178901 977.701932 
L 670.251094 979.185331 
L 671.004618 979.626027 
L 673.453573 981.258695 
L 674.207098 981.794213 
L 675.525766 982.9744 
L 676.656053 983.971201 
L 679.858532 986.773727 
L 681.1772 987.767596 
L 684.379679 990.672696 
L 688.900826 994.843108 
L 692.291687 997.836095 
L 693.233593 998.602292 
L 702.841031 1005.180507 
L 705.855129 1006.926922 
L 707.927321 1008.109172 
L 711.883325 1010.261172 
L 724.881624 1018.765513 
L 727.707341 1020.825933 
L 733.358775 1024.585826 
L 734.865824 1025.613053 
L 738.445066 1027.921364 
L 743.719737 1030.510056 
L 745.415168 1031.241275 
L 749.936315 1032.900355 
L 760.297278 1037.566686 
L 764.253281 1039.327226 
L 773.295576 1044.100066 
L 775.367769 1045.172686 
L 777.25158 1046.202002 
L 787.23578 1051.966412 
L 791.380165 1054.339429 
L 797.973505 1058.349998 
L 808.522849 1064.337883 
L 813.232377 1066.959329 
L 815.116189 1067.926374 
L 836.026495 1077.620327 
L 846.010695 1081.972313 
L 852.792416 1085.130621 
L 857.125182 1087.201412 
L 868.051288 1092.144805 
L 871.065386 1093.414827 
L 885.193972 1099.579807 
L 892.729217 1102.975843 
L 899.322557 1105.998564 
L 907.234565 1109.921145 
L 909.306757 1111.107494 
L 911.755712 1112.670174 
L 914.393048 1114.282675 
L 917.407146 1116.052695 
L 921.36315 1118.019991 
L 927.202965 1120.797909 
L 932.477637 1123.26522 
L 940.012883 1126.181612 
L 943.026981 1127.136789 
L 954.706612 1129.977711 
L 954.706612 1129.977711 
" clip-path="url(#pfbe276d22a)" style="fill: none; stroke: #ff7f0e; stroke-width: 1.5; stroke-linecap: square"/>
   </g>
   <g id="line2d_69">
    <path d="M 608.838843 1042.324701 
L 609.215605 985.118525 
L 609.592368 954.40381 
L 609.96913 936.49987 
L 610.345892 928.862429 
L 610.722654 924.017542 
L 611.099417 920.495849 
L 611.287798 919.585208 
L 611.476179 919.354654 
L 611.852941 920.305866 
L 612.041322 919.971312 
L 613.35999 923.527609 
L 613.736753 924.754848 
L 613.925134 924.847826 
L 614.113515 925.460306 
L 614.490277 925.772006 
L 614.678658 925.889686 
L 615.243802 927.303758 
L 616.185707 928.345708 
L 616.374088 928.415699 
L 616.939232 929.749315 
L 617.881138 932.135926 
L 618.446281 933.397911 
L 619.199806 935.040862 
L 620.330092 937.455247 
L 620.706855 938.354995 
L 625.793145 948.587392 
L 626.54667 950.149771 
L 627.111813 951.256687 
L 630.502674 958.127938 
L 631.444579 960.113513 
L 633.893534 965.194801 
L 634.647059 966.706129 
L 635.965727 969.177811 
L 636.53087 970.149208 
L 638.414682 973.544801 
L 639.544968 975.58599 
L 642.559067 980.025766 
L 645.573165 983.888849 
L 647.456976 986.130151 
L 651.224599 989.65978 
L 651.978123 990.172724 
L 653.10841 991.047331 
L 657.441176 994.236971 
L 658.759844 995.2523 
L 662.527467 997.526775 
L 666.483471 998.420433 
L 669.120807 999.512302 
L 670.062713 999.976536 
L 673.265192 1000.768454 
L 674.960622 1001.243622 
L 679.48177 1003.017359 
L 681.930724 1004.266952 
L 683.249392 1004.936299 
L 685.133204 1006.097594 
L 693.610355 1011.192388 
L 699.638551 1014.451845 
L 705.666748 1017.60112 
L 708.869227 1019.059871 
L 710.753038 1019.672429 
L 712.63685 1020.31353 
L 719.418571 1023.0157 
L 721.302382 1023.916059 
L 733.358775 1028.458526 
L 734.865824 1029.022272 
L 737.126398 1029.97091 
L 742.777832 1032.305987 
L 744.661643 1033.139929 
L 748.429266 1034.744517 
L 756.341274 1038.034987 
L 763.876519 1041.562209 
L 770.846621 1044.685865 
L 778.005105 1048.264685 
L 784.221682 1051.770062 
L 793.263977 1056.555935 
L 799.857316 1059.907873 
L 805.697132 1063.132339 
L 808.146087 1064.483542 
L 810.595041 1065.797782 
L 815.492951 1068.266433 
L 823.404959 1072.324348 
L 826.230676 1073.753165 
L 829.433155 1075.274064 
L 832.447253 1076.730937 
L 835.649733 1078.238915 
L 843.184978 1081.75074 
L 846.76422 1083.424097 
L 849.589937 1084.730715 
L 855.05299 1087.295679 
L 858.820613 1089.272275 
L 868.051288 1093.582462 
L 880.861206 1099.100317 
L 895.743316 1104.943917 
L 901.39475 1107.548067 
L 902.336655 1108.141442 
L 905.162372 1110.026313 
L 911.567331 1113.925897 
L 918.725814 1117.678274 
L 923.623724 1120.132987 
L 932.100875 1124.045336 
L 945.852698 1129.327473 
L 946.794604 1129.530004 
L 950.938989 1129.744645 
L 953.199562 1129.896435 
L 954.706612 1129.977711 
L 954.706612 1129.977711 
" clip-path="url(#pfbe276d22a)" style="fill: none; stroke: #2ca02c; stroke-width: 1.5; stroke-linecap: square"/>
   </g>
   <g id="line2d_70">
    <path d="M 608.838843 1021.877897 
L 609.215605 992.325185 
L 609.592368 973.409281 
L 609.96913 959.891588 
L 611.099417 941.690392 
L 611.476179 938.87409 
L 611.852941 937.706353 
L 612.418085 936.111993 
L 612.606466 935.806818 
L 612.983228 935.997499 
L 613.35999 935.078377 
L 613.548371 934.891017 
L 614.301896 933.171582 
L 614.490277 932.81107 
L 614.678658 932.797814 
L 615.055421 932.576485 
L 615.432183 932.817383 
L 615.808945 932.60954 
L 615.997326 932.672621 
L 616.374088 932.229547 
L 616.750851 932.248647 
L 618.446281 936.620925 
L 620.141711 939.843387 
L 620.895236 940.890672 
L 621.083617 941.048866 
L 622.402285 943.993301 
L 623.155809 945.854673 
L 623.532572 946.682866 
L 624.474477 949.551509 
L 625.039621 951.227338 
L 626.169908 955.152147 
L 626.735051 956.979485 
L 627.865338 960.18686 
L 629.184006 963.584069 
L 631.632961 969.270425 
L 635.400583 978.537494 
L 637.849538 984.319999 
L 639.168206 987.064532 
L 641.052018 990.960204 
L 644.442878 996.649777 
L 645.196403 997.972365 
L 646.326689 999.731382 
L 648.210501 1002.341616 
L 656.122509 1011.944751 
L 657.817939 1013.754232 
L 658.759844 1014.715576 
L 659.513369 1015.487208 
L 660.832037 1016.851578 
L 664.034516 1019.563974 
L 667.236996 1021.727805 
L 670.062713 1024.035924 
L 673.453573 1026.634054 
L 674.018717 1026.943162 
L 680.800438 1032.10902 
L 683.626155 1034.760534 
L 686.263491 1037.091443 
L 690.973019 1041.053235 
L 694.175498 1043.921283 
L 696.436072 1045.724454 
L 701.710744 1049.483041 
L 703.782936 1050.865681 
L 705.666748 1052.158269 
L 712.071706 1056.689108 
L 720.92562 1063.228189 
L 723.562956 1065.212709 
L 724.693243 1066.069903 
L 744.473262 1078.800493 
L 746.168692 1079.846788 
L 749.936315 1082.212459 
L 753.703938 1084.67299 
L 762.181089 1090.39559 
L 765.948712 1092.889964 
L 768.397667 1094.617258 
L 776.121293 1100.114048 
L 779.888916 1102.609622 
L 781.772727 1103.916097 
L 787.612543 1107.834879 
L 792.322071 1111.053801 
L 796.654837 1113.817251 
L 806.639037 1120.085246 
L 810.218279 1122.294926 
L 815.681332 1125.505895 
L 820.014098 1127.97705 
L 827.549344 1131.77325 
L 836.026495 1135.785286 
L 841.301167 1137.821684 
L 844.126884 1138.729421 
L 846.387457 1139.376008 
L 850.531842 1140.272311 
L 857.313563 1141.127021 
L 864.848809 1141.498984 
L 867.862907 1141.418465 
L 874.079485 1141.156345 
L 876.905202 1141.067561 
L 890.657025 1140.516034 
L 893.10598 1140.228772 
L 895.178172 1139.75555 
L 911.567331 1135.391414 
L 917.030384 1134.041986 
L 922.493437 1132.914871 
L 928.144871 1131.9432 
L 933.984686 1131.152595 
L 940.012883 1130.557898 
L 946.22946 1130.167389 
L 952.634419 1129.989006 
L 954.706612 1129.977893 
L 954.706612 1129.977893 
" clip-path="url(#pfbe276d22a)" style="fill: none; stroke: #d62728; stroke-width: 1.5; stroke-linecap: square"/>
   </g>
   <g id="patch_40">
    <path d="M 591.545455 1153.44 
L 591.545455 890.829474 
" style="fill: none; stroke: #000000; stroke-width: 0.8; stroke-linejoin: miter; stroke-linecap: square"/>
   </g>
   <g id="patch_41">
    <path d="M 972 1153.44 
L 972 890.829474 
" style="fill: none; stroke: #000000; stroke-width: 0.8; stroke-linejoin: miter; stroke-linecap: square"/>
   </g>
   <g id="patch_42">
    <path d="M 591.545455 1153.44 
L 972 1153.44 
" style="fill: none; stroke: #000000; stroke-width: 0.8; stroke-linejoin: miter; stroke-linecap: square"/>
   </g>
   <g id="patch_43">
    <path d="M 591.545455 890.829474 
L 972 890.829474 
" style="fill: none; stroke: #000000; stroke-width: 0.8; stroke-linejoin: miter; stroke-linecap: square"/>
   </g>
   <g id="text_70">
    <!-- f -->
    <g transform="translate(552.733636 872.71352) scale(0.28 -0.28)">
     <defs>
      <path id="DejaVuSans-Bold-66" d="M 2841 4863 
L 2841 4128 
L 2222 4128 
Q 1984 4128 1890 4042 
Q 1797 3956 1797 3744 
L 1797 3500 
L 2753 3500 
L 2753 2700 
L 1797 2700 
L 1797 0 
L 678 0 
L 678 2700 
L 122 2700 
L 122 3500 
L 678 3500 
L 678 3744 
Q 678 4316 997 4589 
Q 1316 4863 1984 4863 
L 2841 4863 
z
" transform="scale(0.015625)"/>
     </defs>
     <use xlink:href="#DejaVuSans-Bold-66"/>
    </g>
   </g>
   <g id="text_71">
    <!-- LCMC -->
    <g transform="translate(747.973977 884.829474) scale(0.24 -0.24)">
     <defs>
      <path id="DejaVuSans-4c" d="M 628 4666 
L 1259 4666 
L 1259 531 
L 3531 531 
L 3531 0 
L 628 0 
L 628 4666 
z
" transform="scale(0.015625)"/>
     </defs>
     <use xlink:href="#DejaVuSans-4c"/>
     <use xlink:href="#DejaVuSans-43" x="55.712891"/>
     <use xlink:href="#DejaVuSans-4d" x="125.537109"/>
     <use xlink:href="#DejaVuSans-43" x="211.816406"/>
    </g>
   </g>
  </g>
 </g>
 <defs>
  <clipPath id="p63f1eafce3">
   <rect x="135" y="155.52" width="380.454545" height="262.610526"/>
  </clipPath>
  <clipPath id="p87cd75b5f5">
   <rect x="591.545455" y="155.52" width="380.454545" height="262.610526"/>
  </clipPath>
  <clipPath id="p4c9b952d8c">
   <rect x="135" y="523.174737" width="380.454545" height="262.610526"/>
  </clipPath>
  <clipPath id="pdf04bc484e">
   <rect x="591.545455" y="523.174737" width="380.454545" height="262.610526"/>
  </clipPath>
  <clipPath id="p9cf6c254dc">
   <rect x="135" y="890.829474" width="380.454545" height="262.610526"/>
  </clipPath>
  <clipPath id="pfbe276d22a">
   <rect x="591.545455" y="890.829474" width="380.454545" height="262.610526"/>
  </clipPath>
 </defs>
</svg>
