<?xml version="1.0" encoding="utf-8" standalone="no"?>
<!DOCTYPE svg PUBLIC "-//W3C//DTD SVG 1.1//EN"
  "http://www.w3.org/Graphics/SVG/1.1/DTD/svg11.dtd">
<svg xmlns:xlink="http://www.w3.org/1999/xlink" width="1080pt" height="1296pt" viewBox="0 0 1080 1296" xmlns="http://www.w3.org/2000/svg" version="1.1">
 <metadata>
  <rdf:RDF xmlns:dc="http://purl.org/dc/elements/1.1/" xmlns:cc="http://creativecommons.org/ns#" xmlns:rdf="http://www.w3.org/1999/02/22-rdf-syntax-ns#">
   <cc:Work>
    <dc:type rdf:resource="http://purl.org/dc/dcmitype/StillImage"/>
    <dc:date>2024-07-24T00:15:37.547385</dc:date>
    <dc:format>image/svg+xml</dc:format>
    <dc:creator>
     <cc:Agent>
      <dc:title>Matplotlib v3.8.4, https://matplotlib.org/</dc:title>
     </cc:Agent>
    </dc:creator>
   </cc:Work>
  </rdf:RDF>
 </metadata>
 <defs>
  <style type="text/css">*{stroke-linejoin: round; stroke-linecap: butt}</style>
 </defs>
 <g id="figure_1">
  <g id="patch_1">
   <path d="M 0 1296 
L 1080 1296 
L 1080 0 
L 0 0 
z
" style="fill: #ffffff"/>
  </g>
  <g id="axes_1">
   <g id="patch_2">
    <path d="M 135 418.130526 
L 515.454545 418.130526 
L 515.454545 155.52 
L 135 155.52 
z
" style="fill: #ffffff"/>
   </g>
   <g id="matplotlib.axis_1">
    <g id="xtick_1">
     <g id="line2d_1">
      <defs>
       <path id="maf14f23b56" d="M 0 0 
L 0 3.5 
" style="stroke: #000000; stroke-width: 0.8"/>
      </defs>
      <g>
       <use xlink:href="#maf14f23b56" x="137.882231" y="418.130526" style="stroke: #000000; stroke-width: 0.8"/>
      </g>
     </g>
     <g id="text_1">
      <!-- 0 -->
      <g transform="translate(131.519731 440.327401) scale(0.2 -0.2)">
       <defs>
        <path id="DejaVuSans-30" d="M 2034 4250 
Q 1547 4250 1301 3770 
Q 1056 3291 1056 2328 
Q 1056 1369 1301 889 
Q 1547 409 2034 409 
Q 2525 409 2770 889 
Q 3016 1369 3016 2328 
Q 3016 3291 2770 3770 
Q 2525 4250 2034 4250 
z
M 2034 4750 
Q 2819 4750 3233 4129 
Q 3647 3509 3647 2328 
Q 3647 1150 3233 529 
Q 2819 -91 2034 -91 
Q 1250 -91 836 529 
Q 422 1150 422 2328 
Q 422 3509 836 4129 
Q 1250 4750 2034 4750 
z
" transform="scale(0.015625)"/>
       </defs>
       <use xlink:href="#DejaVuSans-30"/>
      </g>
     </g>
    </g>
    <g id="xtick_2">
     <g id="line2d_2">
      <g>
       <use xlink:href="#maf14f23b56" x="209.938017" y="418.130526" style="stroke: #000000; stroke-width: 0.8"/>
      </g>
     </g>
     <g id="text_2">
      <!-- 10 -->
      <g transform="translate(197.213017 440.327401) scale(0.2 -0.2)">
       <defs>
        <path id="DejaVuSans-31" d="M 794 531 
L 1825 531 
L 1825 4091 
L 703 3866 
L 703 4441 
L 1819 4666 
L 2450 4666 
L 2450 531 
L 3481 531 
L 3481 0 
L 794 0 
L 794 531 
z
" transform="scale(0.015625)"/>
       </defs>
       <use xlink:href="#DejaVuSans-31"/>
       <use xlink:href="#DejaVuSans-30" x="63.623047"/>
      </g>
     </g>
    </g>
    <g id="xtick_3">
     <g id="line2d_3">
      <g>
       <use xlink:href="#maf14f23b56" x="281.993802" y="418.130526" style="stroke: #000000; stroke-width: 0.8"/>
      </g>
     </g>
     <g id="text_3">
      <!-- 20 -->
      <g transform="translate(269.268802 440.327401) scale(0.2 -0.2)">
       <defs>
        <path id="DejaVuSans-32" d="M 1228 531 
L 3431 531 
L 3431 0 
L 469 0 
L 469 531 
Q 828 903 1448 1529 
Q 2069 2156 2228 2338 
Q 2531 2678 2651 2914 
Q 2772 3150 2772 3378 
Q 2772 3750 2511 3984 
Q 2250 4219 1831 4219 
Q 1534 4219 1204 4116 
Q 875 4013 500 3803 
L 500 4441 
Q 881 4594 1212 4672 
Q 1544 4750 1819 4750 
Q 2544 4750 2975 4387 
Q 3406 4025 3406 3419 
Q 3406 3131 3298 2873 
Q 3191 2616 2906 2266 
Q 2828 2175 2409 1742 
Q 1991 1309 1228 531 
z
" transform="scale(0.015625)"/>
       </defs>
       <use xlink:href="#DejaVuSans-32"/>
       <use xlink:href="#DejaVuSans-30" x="63.623047"/>
      </g>
     </g>
    </g>
    <g id="xtick_4">
     <g id="line2d_4">
      <g>
       <use xlink:href="#maf14f23b56" x="354.049587" y="418.130526" style="stroke: #000000; stroke-width: 0.8"/>
      </g>
     </g>
     <g id="text_4">
      <!-- 30 -->
      <g transform="translate(341.324587 440.327401) scale(0.2 -0.2)">
       <defs>
        <path id="DejaVuSans-33" d="M 2597 2516 
Q 3050 2419 3304 2112 
Q 3559 1806 3559 1356 
Q 3559 666 3084 287 
Q 2609 -91 1734 -91 
Q 1441 -91 1130 -33 
Q 819 25 488 141 
L 488 750 
Q 750 597 1062 519 
Q 1375 441 1716 441 
Q 2309 441 2620 675 
Q 2931 909 2931 1356 
Q 2931 1769 2642 2001 
Q 2353 2234 1838 2234 
L 1294 2234 
L 1294 2753 
L 1863 2753 
Q 2328 2753 2575 2939 
Q 2822 3125 2822 3475 
Q 2822 3834 2567 4026 
Q 2313 4219 1838 4219 
Q 1578 4219 1281 4162 
Q 984 4106 628 3988 
L 628 4550 
Q 988 4650 1302 4700 
Q 1616 4750 1894 4750 
Q 2613 4750 3031 4423 
Q 3450 4097 3450 3541 
Q 3450 3153 3228 2886 
Q 3006 2619 2597 2516 
z
" transform="scale(0.015625)"/>
       </defs>
       <use xlink:href="#DejaVuSans-33"/>
       <use xlink:href="#DejaVuSans-30" x="63.623047"/>
      </g>
     </g>
    </g>
    <g id="xtick_5">
     <g id="line2d_5">
      <g>
       <use xlink:href="#maf14f23b56" x="426.105372" y="418.130526" style="stroke: #000000; stroke-width: 0.8"/>
      </g>
     </g>
     <g id="text_5">
      <!-- 40 -->
      <g transform="translate(413.380372 440.327401) scale(0.2 -0.2)">
       <defs>
        <path id="DejaVuSans-34" d="M 2419 4116 
L 825 1625 
L 2419 1625 
L 2419 4116 
z
M 2253 4666 
L 3047 4666 
L 3047 1625 
L 3713 1625 
L 3713 1100 
L 3047 1100 
L 3047 0 
L 2419 0 
L 2419 1100 
L 313 1100 
L 313 1709 
L 2253 4666 
z
" transform="scale(0.015625)"/>
       </defs>
       <use xlink:href="#DejaVuSans-34"/>
       <use xlink:href="#DejaVuSans-30" x="63.623047"/>
      </g>
     </g>
    </g>
    <g id="xtick_6">
     <g id="line2d_6">
      <g>
       <use xlink:href="#maf14f23b56" x="498.161157" y="418.130526" style="stroke: #000000; stroke-width: 0.8"/>
      </g>
     </g>
     <g id="text_6">
      <!-- 50 -->
      <g transform="translate(485.436157 440.327401) scale(0.2 -0.2)">
       <defs>
        <path id="DejaVuSans-35" d="M 691 4666 
L 3169 4666 
L 3169 4134 
L 1269 4134 
L 1269 2991 
Q 1406 3038 1543 3061 
Q 1681 3084 1819 3084 
Q 2600 3084 3056 2656 
Q 3513 2228 3513 1497 
Q 3513 744 3044 326 
Q 2575 -91 1722 -91 
Q 1428 -91 1123 -41 
Q 819 9 494 109 
L 494 744 
Q 775 591 1075 516 
Q 1375 441 1709 441 
Q 2250 441 2565 725 
Q 2881 1009 2881 1497 
Q 2881 1984 2565 2268 
Q 2250 2553 1709 2553 
Q 1456 2553 1204 2497 
Q 953 2441 691 2322 
L 691 4666 
z
" transform="scale(0.015625)"/>
       </defs>
       <use xlink:href="#DejaVuSans-35"/>
       <use xlink:href="#DejaVuSans-30" x="63.623047"/>
      </g>
     </g>
    </g>
    <g id="text_7">
     <!-- k -->
     <g transform="translate(318.278523 466.723026) scale(0.24 -0.24)">
      <defs>
       <path id="DejaVuSans-6b" d="M 581 4863 
L 1159 4863 
L 1159 1991 
L 2875 3500 
L 3609 3500 
L 1753 1863 
L 3688 0 
L 2938 0 
L 1159 1709 
L 1159 0 
L 581 0 
L 581 4863 
z
" transform="scale(0.015625)"/>
      </defs>
      <use xlink:href="#DejaVuSans-6b"/>
     </g>
    </g>
   </g>
   <g id="matplotlib.axis_2">
    <g id="ytick_1">
     <g id="line2d_7">
      <defs>
       <path id="med0003f666" d="M 0 0 
L -3.5 0 
" style="stroke: #000000; stroke-width: 0.8"/>
      </defs>
      <g>
       <use xlink:href="#med0003f666" x="135" y="418.130526" style="stroke: #000000; stroke-width: 0.8"/>
      </g>
     </g>
     <g id="text_8">
      <!-- 0.0 -->
      <g transform="translate(96.19375 425.728964) scale(0.2 -0.2)">
       <defs>
        <path id="DejaVuSans-2e" d="M 684 794 
L 1344 794 
L 1344 0 
L 684 0 
L 684 794 
z
" transform="scale(0.015625)"/>
       </defs>
       <use xlink:href="#DejaVuSans-30"/>
       <use xlink:href="#DejaVuSans-2e" x="63.623047"/>
       <use xlink:href="#DejaVuSans-30" x="95.410156"/>
      </g>
     </g>
    </g>
    <g id="ytick_2">
     <g id="line2d_8">
      <g>
       <use xlink:href="#med0003f666" x="135" y="352.477895" style="stroke: #000000; stroke-width: 0.8"/>
      </g>
     </g>
     <g id="text_9">
      <!-- 0.2 -->
      <g transform="translate(96.19375 360.076332) scale(0.2 -0.2)">
       <use xlink:href="#DejaVuSans-30"/>
       <use xlink:href="#DejaVuSans-2e" x="63.623047"/>
       <use xlink:href="#DejaVuSans-32" x="95.410156"/>
      </g>
     </g>
    </g>
    <g id="ytick_3">
     <g id="line2d_9">
      <g>
       <use xlink:href="#med0003f666" x="135" y="286.825263" style="stroke: #000000; stroke-width: 0.8"/>
      </g>
     </g>
     <g id="text_10">
      <!-- 0.4 -->
      <g transform="translate(96.19375 294.423701) scale(0.2 -0.2)">
       <use xlink:href="#DejaVuSans-30"/>
       <use xlink:href="#DejaVuSans-2e" x="63.623047"/>
       <use xlink:href="#DejaVuSans-34" x="95.410156"/>
      </g>
     </g>
    </g>
    <g id="ytick_4">
     <g id="line2d_10">
      <g>
       <use xlink:href="#med0003f666" x="135" y="221.172632" style="stroke: #000000; stroke-width: 0.8"/>
      </g>
     </g>
     <g id="text_11">
      <!-- 0.6 -->
      <g transform="translate(96.19375 228.771069) scale(0.2 -0.2)">
       <defs>
        <path id="DejaVuSans-36" d="M 2113 2584 
Q 1688 2584 1439 2293 
Q 1191 2003 1191 1497 
Q 1191 994 1439 701 
Q 1688 409 2113 409 
Q 2538 409 2786 701 
Q 3034 994 3034 1497 
Q 3034 2003 2786 2293 
Q 2538 2584 2113 2584 
z
M 3366 4563 
L 3366 3988 
Q 3128 4100 2886 4159 
Q 2644 4219 2406 4219 
Q 1781 4219 1451 3797 
Q 1122 3375 1075 2522 
Q 1259 2794 1537 2939 
Q 1816 3084 2150 3084 
Q 2853 3084 3261 2657 
Q 3669 2231 3669 1497 
Q 3669 778 3244 343 
Q 2819 -91 2113 -91 
Q 1303 -91 875 529 
Q 447 1150 447 2328 
Q 447 3434 972 4092 
Q 1497 4750 2381 4750 
Q 2619 4750 2861 4703 
Q 3103 4656 3366 4563 
z
" transform="scale(0.015625)"/>
       </defs>
       <use xlink:href="#DejaVuSans-30"/>
       <use xlink:href="#DejaVuSans-2e" x="63.623047"/>
       <use xlink:href="#DejaVuSans-36" x="95.410156"/>
      </g>
     </g>
    </g>
    <g id="ytick_5">
     <g id="line2d_11">
      <g>
       <use xlink:href="#med0003f666" x="135" y="155.52" style="stroke: #000000; stroke-width: 0.8"/>
      </g>
     </g>
     <g id="text_12">
      <!-- 0.8 -->
      <g transform="translate(96.19375 163.118438) scale(0.2 -0.2)">
       <defs>
        <path id="DejaVuSans-38" d="M 2034 2216 
Q 1584 2216 1326 1975 
Q 1069 1734 1069 1313 
Q 1069 891 1326 650 
Q 1584 409 2034 409 
Q 2484 409 2743 651 
Q 3003 894 3003 1313 
Q 3003 1734 2745 1975 
Q 2488 2216 2034 2216 
z
M 1403 2484 
Q 997 2584 770 2862 
Q 544 3141 544 3541 
Q 544 4100 942 4425 
Q 1341 4750 2034 4750 
Q 2731 4750 3128 4425 
Q 3525 4100 3525 3541 
Q 3525 3141 3298 2862 
Q 3072 2584 2669 2484 
Q 3125 2378 3379 2068 
Q 3634 1759 3634 1313 
Q 3634 634 3220 271 
Q 2806 -91 2034 -91 
Q 1263 -91 848 271 
Q 434 634 434 1313 
Q 434 1759 690 2068 
Q 947 2378 1403 2484 
z
M 1172 3481 
Q 1172 3119 1398 2916 
Q 1625 2713 2034 2713 
Q 2441 2713 2670 2916 
Q 2900 3119 2900 3481 
Q 2900 3844 2670 4047 
Q 2441 4250 2034 4250 
Q 1625 4250 1398 4047 
Q 1172 3844 1172 3481 
z
" transform="scale(0.015625)"/>
       </defs>
       <use xlink:href="#DejaVuSans-30"/>
       <use xlink:href="#DejaVuSans-2e" x="63.623047"/>
       <use xlink:href="#DejaVuSans-38" x="95.410156"/>
      </g>
     </g>
    </g>
    <g id="text_13">
     <!-- $P_{NN}$ -->
     <g transform="translate(87.2025 306.985263) rotate(-90) scale(0.24 -0.24)">
      <defs>
       <path id="DejaVuSans-Oblique-50" d="M 1081 4666 
L 2541 4666 
Q 3178 4666 3512 4369 
Q 3847 4072 3847 3500 
Q 3847 2731 3353 2303 
Q 2859 1875 1966 1875 
L 1172 1875 
L 806 0 
L 172 0 
L 1081 4666 
z
M 1613 4147 
L 1275 2394 
L 2069 2394 
Q 2606 2394 2893 2669 
Q 3181 2944 3181 3456 
Q 3181 3784 2986 3965 
Q 2791 4147 2438 4147 
L 1613 4147 
z
" transform="scale(0.015625)"/>
       <path id="DejaVuSans-Oblique-4e" d="M 1081 4666 
L 1931 4666 
L 3219 666 
L 4000 4666 
L 4616 4666 
L 3706 0 
L 2853 0 
L 1569 4025 
L 788 0 
L 172 0 
L 1081 4666 
z
" transform="scale(0.015625)"/>
      </defs>
      <use xlink:href="#DejaVuSans-Oblique-50" transform="translate(0 0.09375)"/>
      <use xlink:href="#DejaVuSans-Oblique-4e" transform="translate(60.302734 -16.3125) scale(0.7)"/>
      <use xlink:href="#DejaVuSans-Oblique-4e" transform="translate(112.666016 -16.3125) scale(0.7)"/>
     </g>
    </g>
   </g>
   <g id="line2d_12">
    <path d="M 152.293388 373.277422 
L 173.910124 354.984392 
L 209.938017 344.628602 
L 281.993802 334.756521 
L 498.161157 314.502267 
" clip-path="url(#p0cbcafc2cb)" style="fill: none; stroke: #1f77b4; stroke-width: 1.5; stroke-linecap: square"/>
    <defs>
     <path id="mb1cf8b18b0" d="M 0 3 
C 0.795609 3 1.55874 2.683901 2.12132 2.12132 
C 2.683901 1.55874 3 0.795609 3 0 
C 3 -0.795609 2.683901 -1.55874 2.12132 -2.12132 
C 1.55874 -2.683901 0.795609 -3 0 -3 
C -0.795609 -3 -1.55874 -2.683901 -2.12132 -2.12132 
C -2.683901 -1.55874 -3 -0.795609 -3 0 
C -3 0.795609 -2.683901 1.55874 -2.12132 2.12132 
C -1.55874 2.683901 -0.795609 3 0 3 
z
" style="stroke: #1f77b4"/>
    </defs>
    <g clip-path="url(#p0cbcafc2cb)">
     <use xlink:href="#mb1cf8b18b0" x="152.293388" y="373.277422" style="fill: #1f77b4; stroke: #1f77b4"/>
     <use xlink:href="#mb1cf8b18b0" x="173.910124" y="354.984392" style="fill: #1f77b4; stroke: #1f77b4"/>
     <use xlink:href="#mb1cf8b18b0" x="209.938017" y="344.628602" style="fill: #1f77b4; stroke: #1f77b4"/>
     <use xlink:href="#mb1cf8b18b0" x="281.993802" y="334.756521" style="fill: #1f77b4; stroke: #1f77b4"/>
     <use xlink:href="#mb1cf8b18b0" x="498.161157" y="314.502267" style="fill: #1f77b4; stroke: #1f77b4"/>
    </g>
   </g>
   <g id="line2d_13">
    <path d="M 152.293388 178.254367 
L 173.910124 172.669716 
L 209.938017 171.020705 
L 281.993802 179.276754 
L 498.161157 206.28316 
" clip-path="url(#p0cbcafc2cb)" style="fill: none; stroke: #ff7f0e; stroke-width: 1.5; stroke-linecap: square"/>
    <defs>
     <path id="ma37c5f0b00" d="M 0 3 
C 0.795609 3 1.55874 2.683901 2.12132 2.12132 
C 2.683901 1.55874 3 0.795609 3 0 
C 3 -0.795609 2.683901 -1.55874 2.12132 -2.12132 
C 1.55874 -2.683901 0.795609 -3 0 -3 
C -0.795609 -3 -1.55874 -2.683901 -2.12132 -2.12132 
C -2.683901 -1.55874 -3 -0.795609 -3 0 
C -3 0.795609 -2.683901 1.55874 -2.12132 2.12132 
C -1.55874 2.683901 -0.795609 3 0 3 
z
" style="stroke: #ff7f0e"/>
    </defs>
    <g clip-path="url(#p0cbcafc2cb)">
     <use xlink:href="#ma37c5f0b00" x="152.293388" y="178.254367" style="fill: #ff7f0e; stroke: #ff7f0e"/>
     <use xlink:href="#ma37c5f0b00" x="173.910124" y="172.669716" style="fill: #ff7f0e; stroke: #ff7f0e"/>
     <use xlink:href="#ma37c5f0b00" x="209.938017" y="171.020705" style="fill: #ff7f0e; stroke: #ff7f0e"/>
     <use xlink:href="#ma37c5f0b00" x="281.993802" y="179.276754" style="fill: #ff7f0e; stroke: #ff7f0e"/>
     <use xlink:href="#ma37c5f0b00" x="498.161157" y="206.28316" style="fill: #ff7f0e; stroke: #ff7f0e"/>
    </g>
   </g>
   <g id="line2d_14">
    <path d="M 152.293388 301.820271 
L 173.910124 241.576397 
L 209.938017 201.868207 
L 281.993802 187.170021 
L 498.161157 217.417283 
" clip-path="url(#p0cbcafc2cb)" style="fill: none; stroke: #2ca02c; stroke-width: 1.5; stroke-linecap: square"/>
    <defs>
     <path id="m18ef6d1538" d="M 0 3 
C 0.795609 3 1.55874 2.683901 2.12132 2.12132 
C 2.683901 1.55874 3 0.795609 3 0 
C 3 -0.795609 2.683901 -1.55874 2.12132 -2.12132 
C 1.55874 -2.683901 0.795609 -3 0 -3 
C -0.795609 -3 -1.55874 -2.683901 -2.12132 -2.12132 
C -2.683901 -1.55874 -3 -0.795609 -3 0 
C -3 0.795609 -2.683901 1.55874 -2.12132 2.12132 
C -1.55874 2.683901 -0.795609 3 0 3 
z
" style="stroke: #2ca02c"/>
    </defs>
    <g clip-path="url(#p0cbcafc2cb)">
     <use xlink:href="#m18ef6d1538" x="152.293388" y="301.820271" style="fill: #2ca02c; stroke: #2ca02c"/>
     <use xlink:href="#m18ef6d1538" x="173.910124" y="241.576397" style="fill: #2ca02c; stroke: #2ca02c"/>
     <use xlink:href="#m18ef6d1538" x="209.938017" y="201.868207" style="fill: #2ca02c; stroke: #2ca02c"/>
     <use xlink:href="#m18ef6d1538" x="281.993802" y="187.170021" style="fill: #2ca02c; stroke: #2ca02c"/>
     <use xlink:href="#m18ef6d1538" x="498.161157" y="217.417283" style="fill: #2ca02c; stroke: #2ca02c"/>
    </g>
   </g>
   <g id="line2d_15">
    <path d="M 152.293388 277.854642 
L 173.910124 239.289768 
L 209.938017 218.072491 
L 281.993802 195.459051 
L 498.161157 202.378302 
" clip-path="url(#p0cbcafc2cb)" style="fill: none; stroke: #d62728; stroke-width: 1.5; stroke-linecap: square"/>
    <defs>
     <path id="m5aac74a10b" d="M 0 3 
C 0.795609 3 1.55874 2.683901 2.12132 2.12132 
C 2.683901 1.55874 3 0.795609 3 0 
C 3 -0.795609 2.683901 -1.55874 2.12132 -2.12132 
C 1.55874 -2.683901 0.795609 -3 0 -3 
C -0.795609 -3 -1.55874 -2.683901 -2.12132 -2.12132 
C -2.683901 -1.55874 -3 -0.795609 -3 0 
C -3 0.795609 -2.683901 1.55874 -2.12132 2.12132 
C -1.55874 2.683901 -0.795609 3 0 3 
z
" style="stroke: #d62728"/>
    </defs>
    <g clip-path="url(#p0cbcafc2cb)">
     <use xlink:href="#m5aac74a10b" x="152.293388" y="277.854642" style="fill: #d62728; stroke: #d62728"/>
     <use xlink:href="#m5aac74a10b" x="173.910124" y="239.289768" style="fill: #d62728; stroke: #d62728"/>
     <use xlink:href="#m5aac74a10b" x="209.938017" y="218.072491" style="fill: #d62728; stroke: #d62728"/>
     <use xlink:href="#m5aac74a10b" x="281.993802" y="195.459051" style="fill: #d62728; stroke: #d62728"/>
     <use xlink:href="#m5aac74a10b" x="498.161157" y="202.378302" style="fill: #d62728; stroke: #d62728"/>
    </g>
   </g>
   <g id="patch_3">
    <path d="M 135 418.130526 
L 135 155.52 
" style="fill: none; stroke: #000000; stroke-width: 0.8; stroke-linejoin: miter; stroke-linecap: square"/>
   </g>
   <g id="patch_4">
    <path d="M 515.454545 418.130526 
L 515.454545 155.52 
" style="fill: none; stroke: #000000; stroke-width: 0.8; stroke-linejoin: miter; stroke-linecap: square"/>
   </g>
   <g id="patch_5">
    <path d="M 135 418.130526 
L 515.454545 418.130526 
" style="fill: none; stroke: #000000; stroke-width: 0.8; stroke-linejoin: miter; stroke-linecap: square"/>
   </g>
   <g id="patch_6">
    <path d="M 135 155.52 
L 515.454545 155.52 
" style="fill: none; stroke: #000000; stroke-width: 0.8; stroke-linejoin: miter; stroke-linecap: square"/>
   </g>
   <g id="text_14">
    <!-- a -->
    <g transform="translate(89.472557 137.404046) scale(0.28 -0.28)">
     <defs>
      <path id="DejaVuSans-Bold-61" d="M 2106 1575 
Q 1756 1575 1579 1456 
Q 1403 1338 1403 1106 
Q 1403 894 1545 773 
Q 1688 653 1941 653 
Q 2256 653 2472 879 
Q 2688 1106 2688 1447 
L 2688 1575 
L 2106 1575 
z
M 3816 1997 
L 3816 0 
L 2688 0 
L 2688 519 
Q 2463 200 2181 54 
Q 1900 -91 1497 -91 
Q 953 -91 614 226 
Q 275 544 275 1050 
Q 275 1666 698 1953 
Q 1122 2241 2028 2241 
L 2688 2241 
L 2688 2328 
Q 2688 2594 2478 2717 
Q 2269 2841 1825 2841 
Q 1466 2841 1156 2769 
Q 847 2697 581 2553 
L 581 3406 
Q 941 3494 1303 3539 
Q 1666 3584 2028 3584 
Q 2975 3584 3395 3211 
Q 3816 2838 3816 1997 
z
" transform="scale(0.015625)"/>
     </defs>
     <use xlink:href="#DejaVuSans-Bold-61"/>
    </g>
   </g>
   <g id="text_15">
    <!-- $P_{NN}$ -->
    <g transform="translate(303.387273 149.52) scale(0.26 -0.26)">
     <use xlink:href="#DejaVuSans-Oblique-50" transform="translate(0 0.09375)"/>
     <use xlink:href="#DejaVuSans-Oblique-4e" transform="translate(60.302734 -16.3125) scale(0.7)"/>
     <use xlink:href="#DejaVuSans-Oblique-4e" transform="translate(112.666016 -16.3125) scale(0.7)"/>
    </g>
   </g>
  </g>
  <g id="axes_2">
   <g id="patch_7">
    <path d="M 591.545455 418.130526 
L 972 418.130526 
L 972 155.52 
L 591.545455 155.52 
z
" style="fill: #ffffff"/>
   </g>
   <g id="patch_8">
    <path d="M 608.838843 418.130526 
L 628.792753 418.130526 
L 628.792753 181.577811 
L 608.838843 181.577811 
z
" clip-path="url(#pb14833cd89)" style="fill: #1f77b4"/>
   </g>
   <g id="patch_9">
    <path d="M 741.864908 418.130526 
L 761.818818 418.130526 
L 761.818818 304.557919 
L 741.864908 304.557919 
z
" clip-path="url(#pb14833cd89)" style="fill: #1f77b4"/>
   </g>
   <g id="patch_10">
    <path d="M 874.890973 418.130526 
L 894.844882 418.130526 
L 894.844882 169.800096 
L 874.890973 169.800096 
z
" clip-path="url(#pb14833cd89)" style="fill: #1f77b4"/>
   </g>
   <g id="patch_11">
    <path d="M 628.792753 418.130526 
L 648.746662 418.130526 
L 648.746662 184.737925 
L 628.792753 184.737925 
z
" clip-path="url(#pb14833cd89)" style="fill: #ff7f0e"/>
   </g>
   <g id="patch_12">
    <path d="M 761.818818 418.130526 
L 781.772727 418.130526 
L 781.772727 168.025263 
L 761.818818 168.025263 
z
" clip-path="url(#pb14833cd89)" style="fill: #ff7f0e"/>
   </g>
   <g id="patch_13">
    <path d="M 894.844882 418.130526 
L 914.798792 418.130526 
L 914.798792 184.715612 
L 894.844882 184.715612 
z
" clip-path="url(#pb14833cd89)" style="fill: #ff7f0e"/>
   </g>
   <g id="patch_14">
    <path d="M 648.746662 418.130526 
L 668.700572 418.130526 
L 668.700572 182.339139 
L 648.746662 182.339139 
z
" clip-path="url(#pb14833cd89)" style="fill: #2ca02c"/>
   </g>
   <g id="patch_15">
    <path d="M 781.772727 418.130526 
L 801.726637 418.130526 
L 801.726637 218.685926 
L 781.772727 218.685926 
z
" clip-path="url(#pb14833cd89)" style="fill: #2ca02c"/>
   </g>
   <g id="patch_16">
    <path d="M 914.798792 418.130526 
L 934.752702 418.130526 
L 934.752702 181.828123 
L 914.798792 181.828123 
z
" clip-path="url(#pb14833cd89)" style="fill: #2ca02c"/>
   </g>
   <g id="patch_17">
    <path d="M 668.700572 418.130526 
L 688.654482 418.130526 
L 688.654482 184.244835 
L 668.700572 184.244835 
z
" clip-path="url(#pb14833cd89)" style="fill: #d62728"/>
   </g>
   <g id="patch_18">
    <path d="M 801.726637 418.130526 
L 821.680547 418.130526 
L 821.680547 216.37474 
L 801.726637 216.37474 
z
" clip-path="url(#pb14833cd89)" style="fill: #d62728"/>
   </g>
   <g id="patch_19">
    <path d="M 934.752702 418.130526 
L 954.706612 418.130526 
L 954.706612 183.677715 
L 934.752702 183.677715 
z
" clip-path="url(#pb14833cd89)" style="fill: #d62728"/>
   </g>
   <g id="matplotlib.axis_3">
    <g id="xtick_7">
     <g id="line2d_16">
      <g>
       <use xlink:href="#maf14f23b56" x="648.746662" y="418.130526" style="stroke: #000000; stroke-width: 0.8"/>
      </g>
     </g>
     <g id="text_16">
      <!-- AUC -->
      <g transform="translate(625.490256 441.847089) scale(0.22 -0.22)">
       <defs>
        <path id="DejaVuSans-41" d="M 2188 4044 
L 1331 1722 
L 3047 1722 
L 2188 4044 
z
M 1831 4666 
L 2547 4666 
L 4325 0 
L 3669 0 
L 3244 1197 
L 1141 1197 
L 716 0 
L 50 0 
L 1831 4666 
z
" transform="scale(0.015625)"/>
        <path id="DejaVuSans-55" d="M 556 4666 
L 1191 4666 
L 1191 1831 
Q 1191 1081 1462 751 
Q 1734 422 2344 422 
Q 2950 422 3222 751 
Q 3494 1081 3494 1831 
L 3494 4666 
L 4128 4666 
L 4128 1753 
Q 4128 841 3676 375 
Q 3225 -91 2344 -91 
Q 1459 -91 1007 375 
Q 556 841 556 1753 
L 556 4666 
z
" transform="scale(0.015625)"/>
        <path id="DejaVuSans-43" d="M 4122 4306 
L 4122 3641 
Q 3803 3938 3442 4084 
Q 3081 4231 2675 4231 
Q 1875 4231 1450 3742 
Q 1025 3253 1025 2328 
Q 1025 1406 1450 917 
Q 1875 428 2675 428 
Q 3081 428 3442 575 
Q 3803 722 4122 1019 
L 4122 359 
Q 3791 134 3420 21 
Q 3050 -91 2638 -91 
Q 1578 -91 968 557 
Q 359 1206 359 2328 
Q 359 3453 968 4101 
Q 1578 4750 2638 4750 
Q 3056 4750 3426 4639 
Q 3797 4528 4122 4306 
z
" transform="scale(0.015625)"/>
       </defs>
       <use xlink:href="#DejaVuSans-41"/>
       <use xlink:href="#DejaVuSans-55" x="68.408203"/>
       <use xlink:href="#DejaVuSans-43" x="141.601562"/>
      </g>
     </g>
    </g>
    <g id="xtick_8">
     <g id="line2d_17">
      <g>
       <use xlink:href="#maf14f23b56" x="781.772727" y="418.130526" style="stroke: #000000; stroke-width: 0.8"/>
      </g>
     </g>
     <g id="text_17">
      <!-- $Q_{local}$ -->
      <g transform="translate(754.822727 441.847089) scale(0.22 -0.22)">
       <defs>
        <path id="DejaVuSans-Oblique-51" d="M 2309 -84 
Q 2275 -88 2237 -89 
Q 2200 -91 2125 -91 
Q 1250 -91 756 411 
Q 263 913 263 1797 
Q 263 2319 452 2844 
Q 641 3369 978 3788 
Q 1369 4269 1858 4509 
Q 2347 4750 2938 4750 
Q 3794 4750 4287 4245 
Q 4781 3741 4781 2869 
Q 4781 1928 4265 1147 
Q 3750 366 2919 44 
L 3553 -825 
L 2847 -825 
L 2309 -84 
z
M 2919 4238 
Q 2400 4238 2003 3986 
Q 1606 3734 1313 3219 
Q 1125 2891 1026 2522 
Q 928 2153 928 1778 
Q 928 1128 1239 775 
Q 1550 422 2119 422 
Q 2631 422 3032 676 
Q 3434 931 3719 1434 
Q 3909 1772 4009 2142 
Q 4109 2513 4109 2881 
Q 4109 3528 3796 3883 
Q 3484 4238 2919 4238 
z
" transform="scale(0.015625)"/>
        <path id="DejaVuSans-Oblique-6c" d="M 1172 4863 
L 1747 4863 
L 800 0 
L 225 0 
L 1172 4863 
z
" transform="scale(0.015625)"/>
        <path id="DejaVuSans-Oblique-6f" d="M 1625 -91 
Q 1009 -91 651 289 
Q 294 669 294 1325 
Q 294 1706 417 2101 
Q 541 2497 738 2766 
Q 1047 3184 1428 3384 
Q 1809 3584 2291 3584 
Q 2888 3584 3255 3212 
Q 3622 2841 3622 2241 
Q 3622 1825 3500 1412 
Q 3378 1000 3181 728 
Q 2875 309 2494 109 
Q 2113 -91 1625 -91 
z
M 891 1344 
Q 891 869 1089 633 
Q 1288 397 1691 397 
Q 2269 397 2648 901 
Q 3028 1406 3028 2181 
Q 3028 2634 2825 2865 
Q 2622 3097 2228 3097 
Q 1903 3097 1650 2945 
Q 1397 2794 1197 2484 
Q 1050 2253 970 1956 
Q 891 1659 891 1344 
z
" transform="scale(0.015625)"/>
        <path id="DejaVuSans-Oblique-63" d="M 3431 3366 
L 3316 2797 
Q 3109 2947 2876 3022 
Q 2644 3097 2394 3097 
Q 2119 3097 1870 3000 
Q 1622 2903 1453 2725 
Q 1184 2453 1037 2087 
Q 891 1722 891 1331 
Q 891 859 1127 628 
Q 1363 397 1844 397 
Q 2081 397 2348 469 
Q 2616 541 2906 684 
L 2797 116 
Q 2547 13 2283 -39 
Q 2019 -91 1741 -91 
Q 1044 -91 669 257 
Q 294 606 294 1253 
Q 294 1797 489 2255 
Q 684 2713 1069 3078 
Q 1331 3328 1684 3456 
Q 2038 3584 2456 3584 
Q 2700 3584 2940 3529 
Q 3181 3475 3431 3366 
z
" transform="scale(0.015625)"/>
        <path id="DejaVuSans-Oblique-61" d="M 3438 1997 
L 3047 0 
L 2472 0 
L 2578 531 
Q 2325 219 2001 64 
Q 1678 -91 1281 -91 
Q 834 -91 548 182 
Q 263 456 263 884 
Q 263 1497 752 1853 
Q 1241 2209 2100 2209 
L 2900 2209 
L 2931 2363 
Q 2938 2388 2941 2417 
Q 2944 2447 2944 2509 
Q 2944 2788 2717 2942 
Q 2491 3097 2081 3097 
Q 1800 3097 1504 3025 
Q 1209 2953 897 2809 
L 997 3341 
Q 1322 3463 1633 3523 
Q 1944 3584 2234 3584 
Q 2853 3584 3176 3315 
Q 3500 3047 3500 2534 
Q 3500 2431 3484 2292 
Q 3469 2153 3438 1997 
z
M 2816 1759 
L 2241 1759 
Q 1534 1759 1195 1570 
Q 856 1381 856 984 
Q 856 709 1029 553 
Q 1203 397 1509 397 
Q 1978 397 2328 733 
Q 2678 1069 2791 1631 
L 2816 1759 
z
" transform="scale(0.015625)"/>
       </defs>
       <use xlink:href="#DejaVuSans-Oblique-51" transform="translate(0 0.78125)"/>
       <use xlink:href="#DejaVuSans-Oblique-6c" transform="translate(78.710938 -15.625) scale(0.7)"/>
       <use xlink:href="#DejaVuSans-Oblique-6f" transform="translate(98.15918 -15.625) scale(0.7)"/>
       <use xlink:href="#DejaVuSans-Oblique-63" transform="translate(140.986328 -15.625) scale(0.7)"/>
       <use xlink:href="#DejaVuSans-Oblique-61" transform="translate(179.472656 -15.625) scale(0.7)"/>
       <use xlink:href="#DejaVuSans-Oblique-6c" transform="translate(222.368164 -15.625) scale(0.7)"/>
      </g>
     </g>
    </g>
    <g id="xtick_9">
     <g id="line2d_18">
      <g>
       <use xlink:href="#maf14f23b56" x="914.798792" y="418.130526" style="stroke: #000000; stroke-width: 0.8"/>
      </g>
     </g>
     <g id="text_18">
      <!-- $Q_{global}$ -->
      <g transform="translate(882.348792 441.630526) scale(0.22 -0.22)">
       <defs>
        <path id="DejaVuSans-Oblique-67" d="M 3816 3500 
L 3219 434 
Q 3047 -456 2561 -893 
Q 2075 -1331 1253 -1331 
Q 950 -1331 690 -1286 
Q 431 -1241 206 -1147 
L 313 -588 
Q 525 -725 762 -790 
Q 1000 -856 1269 -856 
Q 1816 -856 2167 -557 
Q 2519 -259 2631 300 
L 2681 563 
Q 2441 288 2122 144 
Q 1803 0 1434 0 
Q 903 0 598 351 
Q 294 703 294 1319 
Q 294 1803 478 2267 
Q 663 2731 997 3091 
Q 1219 3328 1514 3456 
Q 1809 3584 2131 3584 
Q 2484 3584 2746 3420 
Q 3009 3256 3138 2956 
L 3238 3500 
L 3816 3500 
z
M 2950 2216 
Q 2950 2641 2750 2872 
Q 2550 3103 2181 3103 
Q 1953 3103 1747 3012 
Q 1541 2922 1394 2759 
Q 1156 2491 1023 2127 
Q 891 1763 891 1375 
Q 891 944 1092 712 
Q 1294 481 1672 481 
Q 2219 481 2584 976 
Q 2950 1472 2950 2216 
z
" transform="scale(0.015625)"/>
        <path id="DejaVuSans-Oblique-62" d="M 3169 2138 
Q 3169 2591 2961 2847 
Q 2753 3103 2388 3103 
Q 2122 3103 1889 2973 
Q 1656 2844 1484 2597 
Q 1303 2338 1198 1995 
Q 1094 1653 1094 1313 
Q 1094 881 1298 636 
Q 1503 391 1863 391 
Q 2134 391 2365 517 
Q 2597 644 2772 891 
Q 2950 1147 3059 1487 
Q 3169 1828 3169 2138 
z
M 1381 2969 
Q 1594 3256 1914 3420 
Q 2234 3584 2584 3584 
Q 3122 3584 3439 3221 
Q 3756 2859 3756 2241 
Q 3756 1734 3570 1259 
Q 3384 784 3041 416 
Q 2816 172 2522 40 
Q 2228 -91 1906 -91 
Q 1566 -91 1316 65 
Q 1066 222 909 531 
L 806 0 
L 231 0 
L 1178 4863 
L 1753 4863 
L 1381 2969 
z
" transform="scale(0.015625)"/>
       </defs>
       <use xlink:href="#DejaVuSans-Oblique-51" transform="translate(0 0.78125)"/>
       <use xlink:href="#DejaVuSans-Oblique-67" transform="translate(78.710938 -15.625) scale(0.7)"/>
       <use xlink:href="#DejaVuSans-Oblique-6c" transform="translate(123.144531 -15.625) scale(0.7)"/>
       <use xlink:href="#DejaVuSans-Oblique-6f" transform="translate(142.592773 -15.625) scale(0.7)"/>
       <use xlink:href="#DejaVuSans-Oblique-62" transform="translate(185.419922 -15.625) scale(0.7)"/>
       <use xlink:href="#DejaVuSans-Oblique-61" transform="translate(229.853516 -15.625) scale(0.7)"/>
       <use xlink:href="#DejaVuSans-Oblique-6c" transform="translate(272.749023 -15.625) scale(0.7)"/>
      </g>
     </g>
    </g>
   </g>
   <g id="matplotlib.axis_4">
    <g id="ytick_6">
     <g id="line2d_19">
      <g>
       <use xlink:href="#med0003f666" x="591.545455" y="418.130526" style="stroke: #000000; stroke-width: 0.8"/>
      </g>
     </g>
     <g id="text_19">
      <!-- 0.0 -->
      <g transform="translate(549.55858 426.488808) scale(0.22 -0.22)">
       <use xlink:href="#DejaVuSans-30"/>
       <use xlink:href="#DejaVuSans-2e" x="63.623047"/>
       <use xlink:href="#DejaVuSans-30" x="95.410156"/>
      </g>
     </g>
    </g>
    <g id="ytick_7">
     <g id="line2d_20">
      <g>
       <use xlink:href="#med0003f666" x="591.545455" y="350.468209" style="stroke: #000000; stroke-width: 0.8"/>
      </g>
     </g>
     <g id="text_20">
      <!-- 0.2 -->
      <g transform="translate(549.55858 358.82649) scale(0.22 -0.22)">
       <use xlink:href="#DejaVuSans-30"/>
       <use xlink:href="#DejaVuSans-2e" x="63.623047"/>
       <use xlink:href="#DejaVuSans-32" x="95.410156"/>
      </g>
     </g>
    </g>
    <g id="ytick_8">
     <g id="line2d_21">
      <g>
       <use xlink:href="#med0003f666" x="591.545455" y="282.805891" style="stroke: #000000; stroke-width: 0.8"/>
      </g>
     </g>
     <g id="text_21">
      <!-- 0.4 -->
      <g transform="translate(549.55858 291.164172) scale(0.22 -0.22)">
       <use xlink:href="#DejaVuSans-30"/>
       <use xlink:href="#DejaVuSans-2e" x="63.623047"/>
       <use xlink:href="#DejaVuSans-34" x="95.410156"/>
      </g>
     </g>
    </g>
    <g id="ytick_9">
     <g id="line2d_22">
      <g>
       <use xlink:href="#med0003f666" x="591.545455" y="215.143573" style="stroke: #000000; stroke-width: 0.8"/>
      </g>
     </g>
     <g id="text_22">
      <!-- 0.6 -->
      <g transform="translate(549.55858 223.501855) scale(0.22 -0.22)">
       <use xlink:href="#DejaVuSans-30"/>
       <use xlink:href="#DejaVuSans-2e" x="63.623047"/>
       <use xlink:href="#DejaVuSans-36" x="95.410156"/>
      </g>
     </g>
    </g>
    <g id="text_23">
     <!-- Metric Value -->
     <g transform="translate(540.983267 354.727919) rotate(-90) scale(0.22 -0.22)">
      <defs>
       <path id="DejaVuSans-4d" d="M 628 4666 
L 1569 4666 
L 2759 1491 
L 3956 4666 
L 4897 4666 
L 4897 0 
L 4281 0 
L 4281 4097 
L 3078 897 
L 2444 897 
L 1241 4097 
L 1241 0 
L 628 0 
L 628 4666 
z
" transform="scale(0.015625)"/>
       <path id="DejaVuSans-65" d="M 3597 1894 
L 3597 1613 
L 953 1613 
Q 991 1019 1311 708 
Q 1631 397 2203 397 
Q 2534 397 2845 478 
Q 3156 559 3463 722 
L 3463 178 
Q 3153 47 2828 -22 
Q 2503 -91 2169 -91 
Q 1331 -91 842 396 
Q 353 884 353 1716 
Q 353 2575 817 3079 
Q 1281 3584 2069 3584 
Q 2775 3584 3186 3129 
Q 3597 2675 3597 1894 
z
M 3022 2063 
Q 3016 2534 2758 2815 
Q 2500 3097 2075 3097 
Q 1594 3097 1305 2825 
Q 1016 2553 972 2059 
L 3022 2063 
z
" transform="scale(0.015625)"/>
       <path id="DejaVuSans-74" d="M 1172 4494 
L 1172 3500 
L 2356 3500 
L 2356 3053 
L 1172 3053 
L 1172 1153 
Q 1172 725 1289 603 
Q 1406 481 1766 481 
L 2356 481 
L 2356 0 
L 1766 0 
Q 1100 0 847 248 
Q 594 497 594 1153 
L 594 3053 
L 172 3053 
L 172 3500 
L 594 3500 
L 594 4494 
L 1172 4494 
z
" transform="scale(0.015625)"/>
       <path id="DejaVuSans-72" d="M 2631 2963 
Q 2534 3019 2420 3045 
Q 2306 3072 2169 3072 
Q 1681 3072 1420 2755 
Q 1159 2438 1159 1844 
L 1159 0 
L 581 0 
L 581 3500 
L 1159 3500 
L 1159 2956 
Q 1341 3275 1631 3429 
Q 1922 3584 2338 3584 
Q 2397 3584 2469 3576 
Q 2541 3569 2628 3553 
L 2631 2963 
z
" transform="scale(0.015625)"/>
       <path id="DejaVuSans-69" d="M 603 3500 
L 1178 3500 
L 1178 0 
L 603 0 
L 603 3500 
z
M 603 4863 
L 1178 4863 
L 1178 4134 
L 603 4134 
L 603 4863 
z
" transform="scale(0.015625)"/>
       <path id="DejaVuSans-63" d="M 3122 3366 
L 3122 2828 
Q 2878 2963 2633 3030 
Q 2388 3097 2138 3097 
Q 1578 3097 1268 2742 
Q 959 2388 959 1747 
Q 959 1106 1268 751 
Q 1578 397 2138 397 
Q 2388 397 2633 464 
Q 2878 531 3122 666 
L 3122 134 
Q 2881 22 2623 -34 
Q 2366 -91 2075 -91 
Q 1284 -91 818 406 
Q 353 903 353 1747 
Q 353 2603 823 3093 
Q 1294 3584 2113 3584 
Q 2378 3584 2631 3529 
Q 2884 3475 3122 3366 
z
" transform="scale(0.015625)"/>
       <path id="DejaVuSans-20" transform="scale(0.015625)"/>
       <path id="DejaVuSans-56" d="M 1831 0 
L 50 4666 
L 709 4666 
L 2188 738 
L 3669 4666 
L 4325 4666 
L 2547 0 
L 1831 0 
z
" transform="scale(0.015625)"/>
       <path id="DejaVuSans-61" d="M 2194 1759 
Q 1497 1759 1228 1600 
Q 959 1441 959 1056 
Q 959 750 1161 570 
Q 1363 391 1709 391 
Q 2188 391 2477 730 
Q 2766 1069 2766 1631 
L 2766 1759 
L 2194 1759 
z
M 3341 1997 
L 3341 0 
L 2766 0 
L 2766 531 
Q 2569 213 2275 61 
Q 1981 -91 1556 -91 
Q 1019 -91 701 211 
Q 384 513 384 1019 
Q 384 1609 779 1909 
Q 1175 2209 1959 2209 
L 2766 2209 
L 2766 2266 
Q 2766 2663 2505 2880 
Q 2244 3097 1772 3097 
Q 1472 3097 1187 3025 
Q 903 2953 641 2809 
L 641 3341 
Q 956 3463 1253 3523 
Q 1550 3584 1831 3584 
Q 2591 3584 2966 3190 
Q 3341 2797 3341 1997 
z
" transform="scale(0.015625)"/>
       <path id="DejaVuSans-6c" d="M 603 4863 
L 1178 4863 
L 1178 0 
L 603 0 
L 603 4863 
z
" transform="scale(0.015625)"/>
       <path id="DejaVuSans-75" d="M 544 1381 
L 544 3500 
L 1119 3500 
L 1119 1403 
Q 1119 906 1312 657 
Q 1506 409 1894 409 
Q 2359 409 2629 706 
Q 2900 1003 2900 1516 
L 2900 3500 
L 3475 3500 
L 3475 0 
L 2900 0 
L 2900 538 
Q 2691 219 2414 64 
Q 2138 -91 1772 -91 
Q 1169 -91 856 284 
Q 544 659 544 1381 
z
M 1991 3584 
L 1991 3584 
z
" transform="scale(0.015625)"/>
      </defs>
      <use xlink:href="#DejaVuSans-4d"/>
      <use xlink:href="#DejaVuSans-65" x="86.279297"/>
      <use xlink:href="#DejaVuSans-74" x="147.802734"/>
      <use xlink:href="#DejaVuSans-72" x="187.011719"/>
      <use xlink:href="#DejaVuSans-69" x="228.125"/>
      <use xlink:href="#DejaVuSans-63" x="255.908203"/>
      <use xlink:href="#DejaVuSans-20" x="310.888672"/>
      <use xlink:href="#DejaVuSans-56" x="342.675781"/>
      <use xlink:href="#DejaVuSans-61" x="403.333984"/>
      <use xlink:href="#DejaVuSans-6c" x="464.613281"/>
      <use xlink:href="#DejaVuSans-75" x="492.396484"/>
      <use xlink:href="#DejaVuSans-65" x="555.775391"/>
     </g>
    </g>
   </g>
   <g id="patch_20">
    <path d="M 591.545455 418.130526 
L 591.545455 155.52 
" style="fill: none; stroke: #000000; stroke-width: 0.8; stroke-linejoin: miter; stroke-linecap: square"/>
   </g>
   <g id="patch_21">
    <path d="M 972 418.130526 
L 972 155.52 
" style="fill: none; stroke: #000000; stroke-width: 0.8; stroke-linejoin: miter; stroke-linecap: square"/>
   </g>
   <g id="patch_22">
    <path d="M 591.545455 418.130526 
L 972 418.130526 
" style="fill: none; stroke: #000000; stroke-width: 0.8; stroke-linejoin: miter; stroke-linecap: square"/>
   </g>
   <g id="patch_23">
    <path d="M 591.545455 155.52 
L 972 155.52 
" style="fill: none; stroke: #000000; stroke-width: 0.8; stroke-linejoin: miter; stroke-linecap: square"/>
   </g>
   <g id="text_24">
    <!-- b -->
    <g transform="translate(544.871761 137.404046) scale(0.28 -0.28)">
     <defs>
      <path id="DejaVuSans-Bold-62" d="M 2400 722 
Q 2759 722 2948 984 
Q 3138 1247 3138 1747 
Q 3138 2247 2948 2509 
Q 2759 2772 2400 2772 
Q 2041 2772 1848 2508 
Q 1656 2244 1656 1747 
Q 1656 1250 1848 986 
Q 2041 722 2400 722 
z
M 1656 2988 
Q 1888 3294 2169 3439 
Q 2450 3584 2816 3584 
Q 3463 3584 3878 3070 
Q 4294 2556 4294 1747 
Q 4294 938 3878 423 
Q 3463 -91 2816 -91 
Q 2450 -91 2169 54 
Q 1888 200 1656 506 
L 1656 0 
L 538 0 
L 538 4863 
L 1656 4863 
L 1656 2988 
z
" transform="scale(0.015625)"/>
     </defs>
     <use xlink:href="#DejaVuSans-Bold-62"/>
    </g>
   </g>
   <g id="text_25">
    <!-- Metrics -->
    <g transform="translate(734.584759 149.52) scale(0.26 -0.26)">
     <defs>
      <path id="DejaVuSans-73" d="M 2834 3397 
L 2834 2853 
Q 2591 2978 2328 3040 
Q 2066 3103 1784 3103 
Q 1356 3103 1142 2972 
Q 928 2841 928 2578 
Q 928 2378 1081 2264 
Q 1234 2150 1697 2047 
L 1894 2003 
Q 2506 1872 2764 1633 
Q 3022 1394 3022 966 
Q 3022 478 2636 193 
Q 2250 -91 1575 -91 
Q 1294 -91 989 -36 
Q 684 19 347 128 
L 347 722 
Q 666 556 975 473 
Q 1284 391 1588 391 
Q 1994 391 2212 530 
Q 2431 669 2431 922 
Q 2431 1156 2273 1281 
Q 2116 1406 1581 1522 
L 1381 1569 
Q 847 1681 609 1914 
Q 372 2147 372 2553 
Q 372 3047 722 3315 
Q 1072 3584 1716 3584 
Q 2034 3584 2315 3537 
Q 2597 3491 2834 3397 
z
" transform="scale(0.015625)"/>
     </defs>
     <use xlink:href="#DejaVuSans-4d"/>
     <use xlink:href="#DejaVuSans-65" x="86.279297"/>
     <use xlink:href="#DejaVuSans-74" x="147.802734"/>
     <use xlink:href="#DejaVuSans-72" x="187.011719"/>
     <use xlink:href="#DejaVuSans-69" x="228.125"/>
     <use xlink:href="#DejaVuSans-63" x="255.908203"/>
     <use xlink:href="#DejaVuSans-73" x="310.888672"/>
    </g>
   </g>
  </g>
  <g id="axes_3">
   <g id="patch_24">
    <path d="M 135 785.785263 
L 515.454545 785.785263 
L 515.454545 523.174737 
L 135 523.174737 
z
" style="fill: #ffffff"/>
   </g>
   <g id="matplotlib.axis_5">
    <g id="xtick_10">
     <g id="line2d_23">
      <g>
       <use xlink:href="#maf14f23b56" x="137.882231" y="785.785263" style="stroke: #000000; stroke-width: 0.8"/>
      </g>
     </g>
     <g id="text_26">
      <!-- 0 -->
      <g transform="translate(130.883481 809.501826) scale(0.22 -0.22)">
       <use xlink:href="#DejaVuSans-30"/>
      </g>
     </g>
    </g>
    <g id="xtick_11">
     <g id="line2d_24">
      <g>
       <use xlink:href="#maf14f23b56" x="281.993802" y="785.785263" style="stroke: #000000; stroke-width: 0.8"/>
      </g>
     </g>
     <g id="text_27">
      <!-- 20 -->
      <g transform="translate(267.996302 809.501826) scale(0.22 -0.22)">
       <use xlink:href="#DejaVuSans-32"/>
       <use xlink:href="#DejaVuSans-30" x="63.623047"/>
      </g>
     </g>
    </g>
    <g id="xtick_12">
     <g id="line2d_25">
      <g>
       <use xlink:href="#maf14f23b56" x="426.105372" y="785.785263" style="stroke: #000000; stroke-width: 0.8"/>
      </g>
     </g>
     <g id="text_28">
      <!-- 40 -->
      <g transform="translate(412.107872 809.501826) scale(0.22 -0.22)">
       <use xlink:href="#DejaVuSans-34"/>
       <use xlink:href="#DejaVuSans-30" x="63.623047"/>
      </g>
     </g>
    </g>
    <g id="text_29">
     <!-- k -->
     <g transform="translate(318.278523 836.313388) scale(0.24 -0.24)">
      <use xlink:href="#DejaVuSans-6b"/>
     </g>
    </g>
   </g>
   <g id="matplotlib.axis_6">
    <g id="ytick_10">
     <g id="line2d_26">
      <g>
       <use xlink:href="#med0003f666" x="135" y="778.387646" style="stroke: #000000; stroke-width: 0.8"/>
      </g>
     </g>
     <g id="text_30">
      <!-- 0.80 -->
      <g transform="translate(79.015625 786.745928) scale(0.22 -0.22)">
       <use xlink:href="#DejaVuSans-30"/>
       <use xlink:href="#DejaVuSans-2e" x="63.623047"/>
       <use xlink:href="#DejaVuSans-38" x="95.410156"/>
       <use xlink:href="#DejaVuSans-30" x="159.033203"/>
      </g>
     </g>
    </g>
    <g id="ytick_11">
     <g id="line2d_27">
      <g>
       <use xlink:href="#med0003f666" x="135" y="716.57684" style="stroke: #000000; stroke-width: 0.8"/>
      </g>
     </g>
     <g id="text_31">
      <!-- 0.85 -->
      <g transform="translate(79.015625 724.935121) scale(0.22 -0.22)">
       <use xlink:href="#DejaVuSans-30"/>
       <use xlink:href="#DejaVuSans-2e" x="63.623047"/>
       <use xlink:href="#DejaVuSans-38" x="95.410156"/>
       <use xlink:href="#DejaVuSans-35" x="159.033203"/>
      </g>
     </g>
    </g>
    <g id="ytick_12">
     <g id="line2d_28">
      <g>
       <use xlink:href="#med0003f666" x="135" y="654.766034" style="stroke: #000000; stroke-width: 0.8"/>
      </g>
     </g>
     <g id="text_32">
      <!-- 0.90 -->
      <g transform="translate(79.015625 663.124315) scale(0.22 -0.22)">
       <defs>
        <path id="DejaVuSans-39" d="M 703 97 
L 703 672 
Q 941 559 1184 500 
Q 1428 441 1663 441 
Q 2288 441 2617 861 
Q 2947 1281 2994 2138 
Q 2813 1869 2534 1725 
Q 2256 1581 1919 1581 
Q 1219 1581 811 2004 
Q 403 2428 403 3163 
Q 403 3881 828 4315 
Q 1253 4750 1959 4750 
Q 2769 4750 3195 4129 
Q 3622 3509 3622 2328 
Q 3622 1225 3098 567 
Q 2575 -91 1691 -91 
Q 1453 -91 1209 -44 
Q 966 3 703 97 
z
M 1959 2075 
Q 2384 2075 2632 2365 
Q 2881 2656 2881 3163 
Q 2881 3666 2632 3958 
Q 2384 4250 1959 4250 
Q 1534 4250 1286 3958 
Q 1038 3666 1038 3163 
Q 1038 2656 1286 2365 
Q 1534 2075 1959 2075 
z
" transform="scale(0.015625)"/>
       </defs>
       <use xlink:href="#DejaVuSans-30"/>
       <use xlink:href="#DejaVuSans-2e" x="63.623047"/>
       <use xlink:href="#DejaVuSans-39" x="95.410156"/>
       <use xlink:href="#DejaVuSans-30" x="159.033203"/>
      </g>
     </g>
    </g>
    <g id="ytick_13">
     <g id="line2d_29">
      <g>
       <use xlink:href="#med0003f666" x="135" y="592.955228" style="stroke: #000000; stroke-width: 0.8"/>
      </g>
     </g>
     <g id="text_33">
      <!-- 0.95 -->
      <g transform="translate(79.015625 601.313509) scale(0.22 -0.22)">
       <use xlink:href="#DejaVuSans-30"/>
       <use xlink:href="#DejaVuSans-2e" x="63.623047"/>
       <use xlink:href="#DejaVuSans-39" x="95.410156"/>
       <use xlink:href="#DejaVuSans-35" x="159.033203"/>
      </g>
     </g>
    </g>
    <g id="ytick_14">
     <g id="line2d_30">
      <g>
       <use xlink:href="#med0003f666" x="135" y="531.144422" style="stroke: #000000; stroke-width: 0.8"/>
      </g>
     </g>
     <g id="text_34">
      <!-- 1.00 -->
      <g transform="translate(79.015625 539.502703) scale(0.22 -0.22)">
       <use xlink:href="#DejaVuSans-31"/>
       <use xlink:href="#DejaVuSans-2e" x="63.623047"/>
       <use xlink:href="#DejaVuSans-30" x="95.410156"/>
       <use xlink:href="#DejaVuSans-30" x="159.033203"/>
      </g>
     </g>
    </g>
    <g id="text_35">
     <!-- Metric Value -->
     <g transform="translate(70.024375 728.555625) rotate(-90) scale(0.24 -0.24)">
      <use xlink:href="#DejaVuSans-4d"/>
      <use xlink:href="#DejaVuSans-65" x="86.279297"/>
      <use xlink:href="#DejaVuSans-74" x="147.802734"/>
      <use xlink:href="#DejaVuSans-72" x="187.011719"/>
      <use xlink:href="#DejaVuSans-69" x="228.125"/>
      <use xlink:href="#DejaVuSans-63" x="255.908203"/>
      <use xlink:href="#DejaVuSans-20" x="310.888672"/>
      <use xlink:href="#DejaVuSans-56" x="342.675781"/>
      <use xlink:href="#DejaVuSans-61" x="403.333984"/>
      <use xlink:href="#DejaVuSans-6c" x="464.613281"/>
      <use xlink:href="#DejaVuSans-75" x="492.396484"/>
      <use xlink:href="#DejaVuSans-65" x="555.775391"/>
     </g>
    </g>
   </g>
   <g id="line2d_31">
    <path d="M 152.293388 762.391886 
L 173.910124 759.075821 
L 209.938017 763.893665 
L 281.993802 770.89982 
L 498.161157 773.848421 
" clip-path="url(#p5d8128690b)" style="fill: none; stroke: #1f77b4; stroke-width: 1.5; stroke-linecap: square"/>
    <g clip-path="url(#p5d8128690b)">
     <use xlink:href="#mb1cf8b18b0" x="152.293388" y="762.391886" style="fill: #1f77b4; stroke: #1f77b4"/>
     <use xlink:href="#mb1cf8b18b0" x="173.910124" y="759.075821" style="fill: #1f77b4; stroke: #1f77b4"/>
     <use xlink:href="#mb1cf8b18b0" x="209.938017" y="763.893665" style="fill: #1f77b4; stroke: #1f77b4"/>
     <use xlink:href="#mb1cf8b18b0" x="281.993802" y="770.89982" style="fill: #1f77b4; stroke: #1f77b4"/>
     <use xlink:href="#mb1cf8b18b0" x="498.161157" y="773.848421" style="fill: #1f77b4; stroke: #1f77b4"/>
    </g>
   </g>
   <g id="line2d_32">
    <path d="M 152.293388 535.111579 
L 173.910124 539.364731 
L 209.938017 544.765618 
L 281.993802 558.427672 
L 498.161157 610.94979 
" clip-path="url(#p5d8128690b)" style="fill: none; stroke: #ff7f0e; stroke-width: 1.5; stroke-linecap: square"/>
    <g clip-path="url(#p5d8128690b)">
     <use xlink:href="#ma37c5f0b00" x="152.293388" y="535.111579" style="fill: #ff7f0e; stroke: #ff7f0e"/>
     <use xlink:href="#ma37c5f0b00" x="173.910124" y="539.364731" style="fill: #ff7f0e; stroke: #ff7f0e"/>
     <use xlink:href="#ma37c5f0b00" x="209.938017" y="544.765618" style="fill: #ff7f0e; stroke: #ff7f0e"/>
     <use xlink:href="#ma37c5f0b00" x="281.993802" y="558.427672" style="fill: #ff7f0e; stroke: #ff7f0e"/>
     <use xlink:href="#ma37c5f0b00" x="498.161157" y="610.94979" style="fill: #ff7f0e; stroke: #ff7f0e"/>
    </g>
   </g>
   <g id="line2d_33">
    <path d="M 152.293388 549.583793 
L 173.910124 552.139028 
L 209.938017 551.455475 
L 281.993802 563.054298 
L 498.161157 620.795931 
" clip-path="url(#p5d8128690b)" style="fill: none; stroke: #2ca02c; stroke-width: 1.5; stroke-linecap: square"/>
    <g clip-path="url(#p5d8128690b)">
     <use xlink:href="#m18ef6d1538" x="152.293388" y="549.583793" style="fill: #2ca02c; stroke: #2ca02c"/>
     <use xlink:href="#m18ef6d1538" x="173.910124" y="552.139028" style="fill: #2ca02c; stroke: #2ca02c"/>
     <use xlink:href="#m18ef6d1538" x="209.938017" y="551.455475" style="fill: #2ca02c; stroke: #2ca02c"/>
     <use xlink:href="#m18ef6d1538" x="281.993802" y="563.054298" style="fill: #2ca02c; stroke: #2ca02c"/>
     <use xlink:href="#m18ef6d1538" x="498.161157" y="620.795931" style="fill: #2ca02c; stroke: #2ca02c"/>
    </g>
   </g>
   <g id="line2d_34">
    <path d="M 152.293388 548.355818 
L 173.910124 548.85454 
L 209.938017 552.006808 
L 281.993802 561.515845 
L 498.161157 601.225043 
" clip-path="url(#p5d8128690b)" style="fill: none; stroke: #d62728; stroke-width: 1.5; stroke-linecap: square"/>
    <g clip-path="url(#p5d8128690b)">
     <use xlink:href="#m5aac74a10b" x="152.293388" y="548.355818" style="fill: #d62728; stroke: #d62728"/>
     <use xlink:href="#m5aac74a10b" x="173.910124" y="548.85454" style="fill: #d62728; stroke: #d62728"/>
     <use xlink:href="#m5aac74a10b" x="209.938017" y="552.006808" style="fill: #d62728; stroke: #d62728"/>
     <use xlink:href="#m5aac74a10b" x="281.993802" y="561.515845" style="fill: #d62728; stroke: #d62728"/>
     <use xlink:href="#m5aac74a10b" x="498.161157" y="601.225043" style="fill: #d62728; stroke: #d62728"/>
    </g>
   </g>
   <g id="patch_25">
    <path d="M 135 785.785263 
L 135 523.174737 
" style="fill: none; stroke: #000000; stroke-width: 0.8; stroke-linejoin: miter; stroke-linecap: square"/>
   </g>
   <g id="patch_26">
    <path d="M 515.454545 785.785263 
L 515.454545 523.174737 
" style="fill: none; stroke: #000000; stroke-width: 0.8; stroke-linejoin: miter; stroke-linecap: square"/>
   </g>
   <g id="patch_27">
    <path d="M 135 785.785263 
L 515.454545 785.785263 
" style="fill: none; stroke: #000000; stroke-width: 0.8; stroke-linejoin: miter; stroke-linecap: square"/>
   </g>
   <g id="patch_28">
    <path d="M 135 523.174737 
L 515.454545 523.174737 
" style="fill: none; stroke: #000000; stroke-width: 0.8; stroke-linejoin: miter; stroke-linecap: square"/>
   </g>
   <g id="text_36">
    <!-- c -->
    <g transform="translate(91.769432 505.058783) scale(0.28 -0.28)">
     <defs>
      <path id="DejaVuSans-Bold-63" d="M 3366 3391 
L 3366 2478 
Q 3138 2634 2908 2709 
Q 2678 2784 2431 2784 
Q 1963 2784 1702 2511 
Q 1441 2238 1441 1747 
Q 1441 1256 1702 982 
Q 1963 709 2431 709 
Q 2694 709 2930 787 
Q 3166 866 3366 1019 
L 3366 103 
Q 3103 6 2833 -42 
Q 2563 -91 2291 -91 
Q 1344 -91 809 395 
Q 275 881 275 1747 
Q 275 2613 809 3098 
Q 1344 3584 2291 3584 
Q 2566 3584 2833 3536 
Q 3100 3488 3366 3391 
z
" transform="scale(0.015625)"/>
     </defs>
     <use xlink:href="#DejaVuSans-Bold-63"/>
    </g>
   </g>
   <g id="text_37">
    <!-- Trustworthiness -->
    <g transform="translate(230.950398 517.174737) scale(0.24 -0.24)">
     <defs>
      <path id="DejaVuSans-54" d="M -19 4666 
L 3928 4666 
L 3928 4134 
L 2272 4134 
L 2272 0 
L 1638 0 
L 1638 4134 
L -19 4134 
L -19 4666 
z
" transform="scale(0.015625)"/>
      <path id="DejaVuSans-77" d="M 269 3500 
L 844 3500 
L 1563 769 
L 2278 3500 
L 2956 3500 
L 3675 769 
L 4391 3500 
L 4966 3500 
L 4050 0 
L 3372 0 
L 2619 2869 
L 1863 0 
L 1184 0 
L 269 3500 
z
" transform="scale(0.015625)"/>
      <path id="DejaVuSans-6f" d="M 1959 3097 
Q 1497 3097 1228 2736 
Q 959 2375 959 1747 
Q 959 1119 1226 758 
Q 1494 397 1959 397 
Q 2419 397 2687 759 
Q 2956 1122 2956 1747 
Q 2956 2369 2687 2733 
Q 2419 3097 1959 3097 
z
M 1959 3584 
Q 2709 3584 3137 3096 
Q 3566 2609 3566 1747 
Q 3566 888 3137 398 
Q 2709 -91 1959 -91 
Q 1206 -91 779 398 
Q 353 888 353 1747 
Q 353 2609 779 3096 
Q 1206 3584 1959 3584 
z
" transform="scale(0.015625)"/>
      <path id="DejaVuSans-68" d="M 3513 2113 
L 3513 0 
L 2938 0 
L 2938 2094 
Q 2938 2591 2744 2837 
Q 2550 3084 2163 3084 
Q 1697 3084 1428 2787 
Q 1159 2491 1159 1978 
L 1159 0 
L 581 0 
L 581 4863 
L 1159 4863 
L 1159 2956 
Q 1366 3272 1645 3428 
Q 1925 3584 2291 3584 
Q 2894 3584 3203 3211 
Q 3513 2838 3513 2113 
z
" transform="scale(0.015625)"/>
      <path id="DejaVuSans-6e" d="M 3513 2113 
L 3513 0 
L 2938 0 
L 2938 2094 
Q 2938 2591 2744 2837 
Q 2550 3084 2163 3084 
Q 1697 3084 1428 2787 
Q 1159 2491 1159 1978 
L 1159 0 
L 581 0 
L 581 3500 
L 1159 3500 
L 1159 2956 
Q 1366 3272 1645 3428 
Q 1925 3584 2291 3584 
Q 2894 3584 3203 3211 
Q 3513 2838 3513 2113 
z
" transform="scale(0.015625)"/>
     </defs>
     <use xlink:href="#DejaVuSans-54"/>
     <use xlink:href="#DejaVuSans-72" x="46.333984"/>
     <use xlink:href="#DejaVuSans-75" x="87.447266"/>
     <use xlink:href="#DejaVuSans-73" x="150.826172"/>
     <use xlink:href="#DejaVuSans-74" x="202.925781"/>
     <use xlink:href="#DejaVuSans-77" x="242.134766"/>
     <use xlink:href="#DejaVuSans-6f" x="323.921875"/>
     <use xlink:href="#DejaVuSans-72" x="385.103516"/>
     <use xlink:href="#DejaVuSans-74" x="426.216797"/>
     <use xlink:href="#DejaVuSans-68" x="465.425781"/>
     <use xlink:href="#DejaVuSans-69" x="528.804688"/>
     <use xlink:href="#DejaVuSans-6e" x="556.587891"/>
     <use xlink:href="#DejaVuSans-65" x="619.966797"/>
     <use xlink:href="#DejaVuSans-73" x="681.490234"/>
     <use xlink:href="#DejaVuSans-73" x="733.589844"/>
    </g>
   </g>
  </g>
  <g id="axes_4">
   <g id="patch_29">
    <path d="M 591.545455 785.785263 
L 972 785.785263 
L 972 523.174737 
L 591.545455 523.174737 
z
" style="fill: #ffffff"/>
   </g>
   <g id="matplotlib.axis_7">
    <g id="xtick_13">
     <g id="line2d_35">
      <g>
       <use xlink:href="#maf14f23b56" x="594.427686" y="785.785263" style="stroke: #000000; stroke-width: 0.8"/>
      </g>
     </g>
     <g id="text_38">
      <!-- 0 -->
      <g transform="translate(587.428936 809.501826) scale(0.22 -0.22)">
       <use xlink:href="#DejaVuSans-30"/>
      </g>
     </g>
    </g>
    <g id="xtick_14">
     <g id="line2d_36">
      <g>
       <use xlink:href="#maf14f23b56" x="738.539256" y="785.785263" style="stroke: #000000; stroke-width: 0.8"/>
      </g>
     </g>
     <g id="text_39">
      <!-- 20 -->
      <g transform="translate(724.541756 809.501826) scale(0.22 -0.22)">
       <use xlink:href="#DejaVuSans-32"/>
       <use xlink:href="#DejaVuSans-30" x="63.623047"/>
      </g>
     </g>
    </g>
    <g id="xtick_15">
     <g id="line2d_37">
      <g>
       <use xlink:href="#maf14f23b56" x="882.650826" y="785.785263" style="stroke: #000000; stroke-width: 0.8"/>
      </g>
     </g>
     <g id="text_40">
      <!-- 40 -->
      <g transform="translate(868.653326 809.501826) scale(0.22 -0.22)">
       <use xlink:href="#DejaVuSans-34"/>
       <use xlink:href="#DejaVuSans-30" x="63.623047"/>
      </g>
     </g>
    </g>
    <g id="text_41">
     <!-- k -->
     <g transform="translate(774.823977 836.313388) scale(0.24 -0.24)">
      <use xlink:href="#DejaVuSans-6b"/>
     </g>
    </g>
   </g>
   <g id="matplotlib.axis_8">
    <g id="ytick_15">
     <g id="line2d_38">
      <g>
       <use xlink:href="#med0003f666" x="591.545455" y="774.413621" style="stroke: #000000; stroke-width: 0.8"/>
      </g>
     </g>
     <g id="text_42">
      <!-- 0.900 -->
      <g transform="translate(521.56358 782.771902) scale(0.22 -0.22)">
       <use xlink:href="#DejaVuSans-30"/>
       <use xlink:href="#DejaVuSans-2e" x="63.623047"/>
       <use xlink:href="#DejaVuSans-39" x="95.410156"/>
       <use xlink:href="#DejaVuSans-30" x="159.033203"/>
       <use xlink:href="#DejaVuSans-30" x="222.65625"/>
      </g>
     </g>
    </g>
    <g id="ytick_16">
     <g id="line2d_39">
      <g>
       <use xlink:href="#med0003f666" x="591.545455" y="711.752645" style="stroke: #000000; stroke-width: 0.8"/>
      </g>
     </g>
     <g id="text_43">
      <!-- 0.925 -->
      <g transform="translate(521.56358 720.110927) scale(0.22 -0.22)">
       <use xlink:href="#DejaVuSans-30"/>
       <use xlink:href="#DejaVuSans-2e" x="63.623047"/>
       <use xlink:href="#DejaVuSans-39" x="95.410156"/>
       <use xlink:href="#DejaVuSans-32" x="159.033203"/>
       <use xlink:href="#DejaVuSans-35" x="222.65625"/>
      </g>
     </g>
    </g>
    <g id="ytick_17">
     <g id="line2d_40">
      <g>
       <use xlink:href="#med0003f666" x="591.545455" y="649.09167" style="stroke: #000000; stroke-width: 0.8"/>
      </g>
     </g>
     <g id="text_44">
      <!-- 0.950 -->
      <g transform="translate(521.56358 657.449951) scale(0.22 -0.22)">
       <use xlink:href="#DejaVuSans-30"/>
       <use xlink:href="#DejaVuSans-2e" x="63.623047"/>
       <use xlink:href="#DejaVuSans-39" x="95.410156"/>
       <use xlink:href="#DejaVuSans-35" x="159.033203"/>
       <use xlink:href="#DejaVuSans-30" x="222.65625"/>
      </g>
     </g>
    </g>
    <g id="ytick_18">
     <g id="line2d_41">
      <g>
       <use xlink:href="#med0003f666" x="591.545455" y="586.430694" style="stroke: #000000; stroke-width: 0.8"/>
      </g>
     </g>
     <g id="text_45">
      <!-- 0.975 -->
      <g transform="translate(521.56358 594.788975) scale(0.22 -0.22)">
       <defs>
        <path id="DejaVuSans-37" d="M 525 4666 
L 3525 4666 
L 3525 4397 
L 1831 0 
L 1172 0 
L 2766 4134 
L 525 4134 
L 525 4666 
z
" transform="scale(0.015625)"/>
       </defs>
       <use xlink:href="#DejaVuSans-30"/>
       <use xlink:href="#DejaVuSans-2e" x="63.623047"/>
       <use xlink:href="#DejaVuSans-39" x="95.410156"/>
       <use xlink:href="#DejaVuSans-37" x="159.033203"/>
       <use xlink:href="#DejaVuSans-35" x="222.65625"/>
      </g>
     </g>
    </g>
    <g id="ytick_19">
     <g id="line2d_42">
      <g>
       <use xlink:href="#med0003f666" x="591.545455" y="523.769718" style="stroke: #000000; stroke-width: 0.8"/>
      </g>
     </g>
     <g id="text_46">
      <!-- 1.000 -->
      <g transform="translate(521.56358 532.128) scale(0.22 -0.22)">
       <use xlink:href="#DejaVuSans-31"/>
       <use xlink:href="#DejaVuSans-2e" x="63.623047"/>
       <use xlink:href="#DejaVuSans-30" x="95.410156"/>
       <use xlink:href="#DejaVuSans-30" x="159.033203"/>
       <use xlink:href="#DejaVuSans-30" x="222.65625"/>
      </g>
     </g>
    </g>
   </g>
   <g id="line2d_43">
    <path d="M 608.838843 597.532387 
L 630.455579 632.042982 
L 666.483471 666.038368 
L 738.539256 719.350392 
L 954.706612 773.848421 
" clip-path="url(#pa2f35cd7de)" style="fill: none; stroke: #1f77b4; stroke-width: 1.5; stroke-linecap: square"/>
    <g clip-path="url(#pa2f35cd7de)">
     <use xlink:href="#mb1cf8b18b0" x="608.838843" y="597.532387" style="fill: #1f77b4; stroke: #1f77b4"/>
     <use xlink:href="#mb1cf8b18b0" x="630.455579" y="632.042982" style="fill: #1f77b4; stroke: #1f77b4"/>
     <use xlink:href="#mb1cf8b18b0" x="666.483471" y="666.038368" style="fill: #1f77b4; stroke: #1f77b4"/>
     <use xlink:href="#mb1cf8b18b0" x="738.539256" y="719.350392" style="fill: #1f77b4; stroke: #1f77b4"/>
     <use xlink:href="#mb1cf8b18b0" x="954.706612" y="773.848421" style="fill: #1f77b4; stroke: #1f77b4"/>
    </g>
   </g>
   <g id="line2d_44">
    <path d="M 608.838843 535.111579 
L 630.455579 543.089299 
L 666.483471 555.588512 
L 738.539256 584.676699 
L 954.706612 669.089916 
" clip-path="url(#pa2f35cd7de)" style="fill: none; stroke: #ff7f0e; stroke-width: 1.5; stroke-linecap: square"/>
    <g clip-path="url(#pa2f35cd7de)">
     <use xlink:href="#ma37c5f0b00" x="608.838843" y="535.111579" style="fill: #ff7f0e; stroke: #ff7f0e"/>
     <use xlink:href="#ma37c5f0b00" x="630.455579" y="543.089299" style="fill: #ff7f0e; stroke: #ff7f0e"/>
     <use xlink:href="#ma37c5f0b00" x="666.483471" y="555.588512" style="fill: #ff7f0e; stroke: #ff7f0e"/>
     <use xlink:href="#ma37c5f0b00" x="738.539256" y="584.676699" style="fill: #ff7f0e; stroke: #ff7f0e"/>
     <use xlink:href="#ma37c5f0b00" x="954.706612" y="669.089916" style="fill: #ff7f0e; stroke: #ff7f0e"/>
    </g>
   </g>
   <g id="line2d_45">
    <path d="M 608.838843 538.636539 
L 630.455579 543.16233 
L 666.483471 553.406137 
L 738.539256 597.518294 
L 954.706612 727.904782 
" clip-path="url(#pa2f35cd7de)" style="fill: none; stroke: #2ca02c; stroke-width: 1.5; stroke-linecap: square"/>
    <g clip-path="url(#pa2f35cd7de)">
     <use xlink:href="#m18ef6d1538" x="608.838843" y="538.636539" style="fill: #2ca02c; stroke: #2ca02c"/>
     <use xlink:href="#m18ef6d1538" x="630.455579" y="543.16233" style="fill: #2ca02c; stroke: #2ca02c"/>
     <use xlink:href="#m18ef6d1538" x="666.483471" y="553.406137" style="fill: #2ca02c; stroke: #2ca02c"/>
     <use xlink:href="#m18ef6d1538" x="738.539256" y="597.518294" style="fill: #2ca02c; stroke: #2ca02c"/>
     <use xlink:href="#m18ef6d1538" x="954.706612" y="727.904782" style="fill: #2ca02c; stroke: #2ca02c"/>
    </g>
   </g>
   <g id="line2d_46">
    <path d="M 608.838843 558.168929 
L 630.455579 576.186972 
L 666.483471 597.966947 
L 738.539256 645.716261 
L 954.706612 769.703038 
" clip-path="url(#pa2f35cd7de)" style="fill: none; stroke: #d62728; stroke-width: 1.5; stroke-linecap: square"/>
    <g clip-path="url(#pa2f35cd7de)">
     <use xlink:href="#m5aac74a10b" x="608.838843" y="558.168929" style="fill: #d62728; stroke: #d62728"/>
     <use xlink:href="#m5aac74a10b" x="630.455579" y="576.186972" style="fill: #d62728; stroke: #d62728"/>
     <use xlink:href="#m5aac74a10b" x="666.483471" y="597.966947" style="fill: #d62728; stroke: #d62728"/>
     <use xlink:href="#m5aac74a10b" x="738.539256" y="645.716261" style="fill: #d62728; stroke: #d62728"/>
     <use xlink:href="#m5aac74a10b" x="954.706612" y="769.703038" style="fill: #d62728; stroke: #d62728"/>
    </g>
   </g>
   <g id="patch_30">
    <path d="M 591.545455 785.785263 
L 591.545455 523.174737 
" style="fill: none; stroke: #000000; stroke-width: 0.8; stroke-linejoin: miter; stroke-linecap: square"/>
   </g>
   <g id="patch_31">
    <path d="M 972 785.785263 
L 972 523.174737 
" style="fill: none; stroke: #000000; stroke-width: 0.8; stroke-linejoin: miter; stroke-linecap: square"/>
   </g>
   <g id="patch_32">
    <path d="M 591.545455 785.785263 
L 972 785.785263 
" style="fill: none; stroke: #000000; stroke-width: 0.8; stroke-linejoin: miter; stroke-linecap: square"/>
   </g>
   <g id="patch_33">
    <path d="M 591.545455 523.174737 
L 972 523.174737 
" style="fill: none; stroke: #000000; stroke-width: 0.8; stroke-linejoin: miter; stroke-linecap: square"/>
   </g>
   <g id="text_47">
    <!-- d -->
    <g transform="translate(544.871761 505.058783) scale(0.28 -0.28)">
     <defs>
      <path id="DejaVuSans-Bold-64" d="M 2919 2988 
L 2919 4863 
L 4044 4863 
L 4044 0 
L 2919 0 
L 2919 506 
Q 2688 197 2409 53 
Q 2131 -91 1766 -91 
Q 1119 -91 703 423 
Q 288 938 288 1747 
Q 288 2556 703 3070 
Q 1119 3584 1766 3584 
Q 2128 3584 2408 3439 
Q 2688 3294 2919 2988 
z
M 2181 722 
Q 2541 722 2730 984 
Q 2919 1247 2919 1747 
Q 2919 2247 2730 2509 
Q 2541 2772 2181 2772 
Q 1825 2772 1636 2509 
Q 1447 2247 1447 1747 
Q 1447 1247 1636 984 
Q 1825 722 2181 722 
z
" transform="scale(0.015625)"/>
     </defs>
     <use xlink:href="#DejaVuSans-Bold-64"/>
    </g>
   </g>
   <g id="text_48">
    <!-- Continuity -->
    <g transform="translate(720.057102 517.174737) scale(0.24 -0.24)">
     <defs>
      <path id="DejaVuSans-79" d="M 2059 -325 
Q 1816 -950 1584 -1140 
Q 1353 -1331 966 -1331 
L 506 -1331 
L 506 -850 
L 844 -850 
Q 1081 -850 1212 -737 
Q 1344 -625 1503 -206 
L 1606 56 
L 191 3500 
L 800 3500 
L 1894 763 
L 2988 3500 
L 3597 3500 
L 2059 -325 
z
" transform="scale(0.015625)"/>
     </defs>
     <use xlink:href="#DejaVuSans-43"/>
     <use xlink:href="#DejaVuSans-6f" x="69.824219"/>
     <use xlink:href="#DejaVuSans-6e" x="131.005859"/>
     <use xlink:href="#DejaVuSans-74" x="194.384766"/>
     <use xlink:href="#DejaVuSans-69" x="233.59375"/>
     <use xlink:href="#DejaVuSans-6e" x="261.376953"/>
     <use xlink:href="#DejaVuSans-75" x="324.755859"/>
     <use xlink:href="#DejaVuSans-69" x="388.134766"/>
     <use xlink:href="#DejaVuSans-74" x="415.917969"/>
     <use xlink:href="#DejaVuSans-79" x="455.126953"/>
    </g>
   </g>
  </g>
  <g id="axes_5">
   <g id="patch_34">
    <path d="M 135 1153.44 
L 515.454545 1153.44 
L 515.454545 890.829474 
L 135 890.829474 
z
" style="fill: #ffffff"/>
   </g>
   <g id="matplotlib.axis_9">
    <g id="xtick_16">
     <g id="line2d_47">
      <g>
       <use xlink:href="#maf14f23b56" x="152.061418" y="1153.44" style="stroke: #000000; stroke-width: 0.8"/>
      </g>
     </g>
     <g id="text_49">
      <!-- 0 -->
      <g transform="translate(145.062668 1177.156562) scale(0.22 -0.22)">
       <use xlink:href="#DejaVuSans-30"/>
      </g>
     </g>
    </g>
    <g id="xtick_17">
     <g id="line2d_48">
      <g>
       <use xlink:href="#maf14f23b56" x="268.046585" y="1153.44" style="stroke: #000000; stroke-width: 0.8"/>
      </g>
     </g>
     <g id="text_50">
      <!-- 500 -->
      <g transform="translate(247.050335 1177.156562) scale(0.22 -0.22)">
       <use xlink:href="#DejaVuSans-35"/>
       <use xlink:href="#DejaVuSans-30" x="63.623047"/>
       <use xlink:href="#DejaVuSans-30" x="127.246094"/>
      </g>
     </g>
    </g>
    <g id="xtick_18">
     <g id="line2d_49">
      <g>
       <use xlink:href="#maf14f23b56" x="384.031752" y="1153.44" style="stroke: #000000; stroke-width: 0.8"/>
      </g>
     </g>
     <g id="text_51">
      <!-- 1000 -->
      <g transform="translate(356.036752 1177.156562) scale(0.22 -0.22)">
       <use xlink:href="#DejaVuSans-31"/>
       <use xlink:href="#DejaVuSans-30" x="63.623047"/>
       <use xlink:href="#DejaVuSans-30" x="127.246094"/>
       <use xlink:href="#DejaVuSans-30" x="190.869141"/>
      </g>
     </g>
    </g>
    <g id="xtick_19">
     <g id="line2d_50">
      <g>
       <use xlink:href="#maf14f23b56" x="500.01692" y="1153.44" style="stroke: #000000; stroke-width: 0.8"/>
      </g>
     </g>
     <g id="text_52">
      <!-- 1500 -->
      <g transform="translate(472.02192 1177.156562) scale(0.22 -0.22)">
       <use xlink:href="#DejaVuSans-31"/>
       <use xlink:href="#DejaVuSans-35" x="63.623047"/>
       <use xlink:href="#DejaVuSans-30" x="127.246094"/>
       <use xlink:href="#DejaVuSans-30" x="190.869141"/>
      </g>
     </g>
    </g>
    <g id="text_53">
     <!-- k -->
     <g transform="translate(318.278523 1203.968125) scale(0.24 -0.24)">
      <use xlink:href="#DejaVuSans-6b"/>
     </g>
    </g>
   </g>
   <g id="matplotlib.axis_10">
    <g id="ytick_20">
     <g id="line2d_51">
      <g>
       <use xlink:href="#med0003f666" x="135" y="1114.45695" style="stroke: #000000; stroke-width: 0.8"/>
      </g>
     </g>
     <g id="text_54">
      <!-- 0.2 -->
      <g transform="translate(93.013125 1122.815231) scale(0.22 -0.22)">
       <use xlink:href="#DejaVuSans-30"/>
       <use xlink:href="#DejaVuSans-2e" x="63.623047"/>
       <use xlink:href="#DejaVuSans-32" x="95.410156"/>
      </g>
     </g>
    </g>
    <g id="ytick_21">
     <g id="line2d_52">
      <g>
       <use xlink:href="#med0003f666" x="135" y="1061.534291" style="stroke: #000000; stroke-width: 0.8"/>
      </g>
     </g>
     <g id="text_55">
      <!-- 0.4 -->
      <g transform="translate(93.013125 1069.892573) scale(0.22 -0.22)">
       <use xlink:href="#DejaVuSans-30"/>
       <use xlink:href="#DejaVuSans-2e" x="63.623047"/>
       <use xlink:href="#DejaVuSans-34" x="95.410156"/>
      </g>
     </g>
    </g>
    <g id="ytick_22">
     <g id="line2d_53">
      <g>
       <use xlink:href="#med0003f666" x="135" y="1008.611633" style="stroke: #000000; stroke-width: 0.8"/>
      </g>
     </g>
     <g id="text_56">
      <!-- 0.6 -->
      <g transform="translate(93.013125 1016.969914) scale(0.22 -0.22)">
       <use xlink:href="#DejaVuSans-30"/>
       <use xlink:href="#DejaVuSans-2e" x="63.623047"/>
       <use xlink:href="#DejaVuSans-36" x="95.410156"/>
      </g>
     </g>
    </g>
    <g id="ytick_23">
     <g id="line2d_54">
      <g>
       <use xlink:href="#med0003f666" x="135" y="955.688974" style="stroke: #000000; stroke-width: 0.8"/>
      </g>
     </g>
     <g id="text_57">
      <!-- 0.8 -->
      <g transform="translate(93.013125 964.047256) scale(0.22 -0.22)">
       <use xlink:href="#DejaVuSans-30"/>
       <use xlink:href="#DejaVuSans-2e" x="63.623047"/>
       <use xlink:href="#DejaVuSans-38" x="95.410156"/>
      </g>
     </g>
    </g>
    <g id="ytick_24">
     <g id="line2d_55">
      <g>
       <use xlink:href="#med0003f666" x="135" y="902.766316" style="stroke: #000000; stroke-width: 0.8"/>
      </g>
     </g>
     <g id="text_58">
      <!-- 1.0 -->
      <g transform="translate(93.013125 911.124597) scale(0.22 -0.22)">
       <use xlink:href="#DejaVuSans-31"/>
       <use xlink:href="#DejaVuSans-2e" x="63.623047"/>
       <use xlink:href="#DejaVuSans-30" x="95.410156"/>
      </g>
     </g>
    </g>
    <g id="text_59">
     <!-- Metric Value -->
     <g transform="translate(84.021875 1096.210362) rotate(-90) scale(0.24 -0.24)">
      <use xlink:href="#DejaVuSans-4d"/>
      <use xlink:href="#DejaVuSans-65" x="86.279297"/>
      <use xlink:href="#DejaVuSans-74" x="147.802734"/>
      <use xlink:href="#DejaVuSans-72" x="187.011719"/>
      <use xlink:href="#DejaVuSans-69" x="228.125"/>
      <use xlink:href="#DejaVuSans-63" x="255.908203"/>
      <use xlink:href="#DejaVuSans-20" x="310.888672"/>
      <use xlink:href="#DejaVuSans-56" x="342.675781"/>
      <use xlink:href="#DejaVuSans-61" x="403.333984"/>
      <use xlink:href="#DejaVuSans-6c" x="464.613281"/>
      <use xlink:href="#DejaVuSans-75" x="492.396484"/>
      <use xlink:href="#DejaVuSans-65" x="555.775391"/>
     </g>
    </g>
   </g>
   <g id="line2d_56">
    <path d="M 152.293388 1141.503158 
L 152.757329 1123.247854 
L 153.22127 1116.47744 
L 153.917181 1110.797027 
L 154.845062 1106.27751 
L 155.309003 1104.625418 
L 155.772943 1102.89895 
L 157.628706 1097.770184 
L 158.092647 1096.314804 
L 161.108261 1088.514149 
L 161.804172 1087.057958 
L 162.500083 1085.252402 
L 162.964024 1084.527452 
L 163.659935 1082.82742 
L 164.819786 1080.024836 
L 165.515697 1078.544666 
L 166.211608 1076.968929 
L 166.907519 1075.335988 
L 167.603431 1073.613848 
L 169.459193 1069.774582 
L 170.387075 1068.37874 
L 172.706778 1064.795831 
L 174.0986 1062.993223 
L 175.954363 1060.447818 
L 176.882244 1059.418061 
L 177.346185 1059.051037 
L 179.201947 1057.534212 
L 181.05771 1055.930799 
L 182.217562 1054.893396 
L 182.913473 1054.501622 
L 184.769235 1053.518701 
L 185.233176 1053.268155 
L 186.624998 1052.426028 
L 195.439871 1047.862859 
L 196.135782 1047.495337 
L 197.991544 1046.59688 
L 199.151396 1046.002659 
L 200.543218 1045.365792 
L 202.630951 1044.572159 
L 203.558832 1044.281249 
L 205.182625 1043.630982 
L 214.925379 1039.095434 
L 225.596014 1033.304796 
L 228.843599 1031.665052 
L 233.483005 1029.266338 
L 238.122412 1026.777507 
L 240.210145 1025.64121 
L 241.601967 1024.913576 
L 255.288217 1016.838966 
L 258.767772 1014.651526 
L 262.711268 1012.074459 
L 265.030971 1010.499214 
L 275.933577 1003.040051 
L 288.691945 994.829716 
L 297.506818 989.610807 
L 310.729127 982.099102 
L 313.512771 980.587164 
L 323.255525 975.379506 
L 329.054783 972.431664 
L 332.534338 970.648829 
L 336.477834 968.723286 
L 339.725419 967.10538 
L 350.164084 961.99405 
L 353.875609 960.183434 
L 357.355164 958.522146 
L 359.210927 957.632655 
L 364.082304 955.396671 
L 387.511308 945.341886 
L 397.254062 941.622744 
L 401.197557 940.345456 
L 407.228786 938.492413 
L 423.69868 933.066098 
L 428.338086 931.109486 
L 440.400544 925.963124 
L 445.271921 924.200229 
L 446.895713 923.759225 
L 448.751476 923.245315 
L 455.942556 921.163679 
L 460.349993 920.164379 
L 462.669696 919.632191 
L 466.845162 918.628608 
L 471.716539 917.514457 
L 475.196094 916.404451 
L 477.051857 915.640655 
L 479.13959 914.525482 
L 481.459293 913.045752 
L 489.810225 907.471225 
L 493.985691 905.036956 
L 497.233276 903.428092 
L 498.161157 902.766316 
L 498.161157 902.766316 
" clip-path="url(#pbd2e59d809)" style="fill: none; stroke: #1f77b4; stroke-width: 1.5; stroke-linecap: square"/>
   </g>
   <g id="line2d_57">
    <path d="M 152.293388 977.028184 
L 152.525359 974.015173 
L 152.757329 973.601622 
L 153.45324 968.43224 
L 153.68521 967.913192 
L 153.917181 968.277159 
L 154.149151 967.98915 
L 154.381121 968.18411 
L 154.613092 969.229802 
L 154.845062 969.082105 
L 155.309003 971.369293 
L 155.772943 972.863139 
L 156.004914 973.921342 
L 156.236884 973.877323 
L 156.468854 974.696132 
L 156.700825 974.83932 
L 157.164765 976.029218 
L 157.628706 978.446072 
L 158.092647 982.065776 
L 159.020528 986.982938 
L 159.716439 989.552859 
L 161.572202 993.921798 
L 162.268113 994.449674 
L 162.500083 994.389431 
L 163.427964 994.881995 
L 164.587816 994.935581 
L 164.819786 995.196482 
L 165.051757 995.277159 
L 165.283727 995.541569 
L 165.515697 995.604347 
L 168.299342 998.392714 
L 168.995253 999.444892 
L 169.691164 1000.255424 
L 170.387075 1001.473286 
L 170.851015 1002.197879 
L 173.634659 1006.108223 
L 174.794511 1007.319257 
L 176.186333 1008.468822 
L 178.042096 1010.603322 
L 178.506036 1011.049716 
L 179.201947 1011.567989 
L 181.753621 1013.398942 
L 188.480761 1018.747498 
L 191.496375 1020.77419 
L 193.816078 1022.172153 
L 197.527604 1024.024651 
L 198.687455 1024.433955 
L 200.079277 1024.785142 
L 201.239129 1025.156944 
L 209.590061 1027.218122 
L 211.213853 1027.596037 
L 213.533557 1028.20858 
L 214.925379 1028.420073 
L 217.013112 1028.739308 
L 218.636904 1028.878658 
L 219.796756 1028.926759 
L 223.740251 1028.999619 
L 229.307539 1028.790134 
L 230.699361 1028.693252 
L 238.818323 1027.839934 
L 245.545463 1026.519678 
L 246.705315 1026.295438 
L 251.576692 1025.287595 
L 253.432454 1024.919613 
L 263.871119 1022.725646 
L 271.758111 1020.342455 
L 273.845844 1019.587434 
L 284.052538 1016.415684 
L 285.44436 1015.961223 
L 288.228004 1015.021596 
L 303.538046 1008.750707 
L 307.481542 1006.991643 
L 324.415377 998.869475 
L 343.900885 989.143023 
L 359.210927 981.654777 
L 362.922452 979.759256 
L 365.938066 978.316125 
L 376.376731 973.192959 
L 382.871901 969.955312 
L 389.831011 966.612589 
L 406.996816 957.693982 
L 414.651837 953.65026 
L 421.378976 950.329518 
L 429.729908 946.273821 
L 433.209463 944.550571 
L 442.720247 939.746111 
L 445.967832 937.973883 
L 456.174526 932.002003 
L 472.876391 921.61702 
L 476.355946 919.256487 
L 482.851115 914.404479 
L 488.186433 910.38416 
L 492.825839 906.906447 
L 498.161157 902.766316 
L 498.161157 902.766316 
" clip-path="url(#pbd2e59d809)" style="fill: none; stroke: #ff7f0e; stroke-width: 1.5; stroke-linecap: square"/>
   </g>
   <g id="line2d_58">
    <path d="M 152.293388 1098.612055 
L 152.757329 1053.239648 
L 153.22127 1025.05913 
L 153.68521 1007.436812 
L 154.381121 993.050315 
L 155.309003 983.699852 
L 155.540973 982.191659 
L 156.004914 981.333976 
L 156.468854 981.356473 
L 156.700825 981.202091 
L 157.396736 982.306734 
L 159.716439 994.864567 
L 160.64432 998.176746 
L 161.108261 999.691665 
L 162.036142 1002.084403 
L 163.427964 1003.816134 
L 164.123875 1004.489533 
L 164.819786 1005.279597 
L 165.051757 1005.382773 
L 165.283727 1005.650238 
L 165.979638 1005.997402 
L 166.675549 1007.04858 
L 167.37146 1008.243197 
L 168.067371 1009.231188 
L 169.459193 1011.707354 
L 171.546926 1015.640305 
L 172.474808 1017.564869 
L 173.86663 1019.821242 
L 174.33057 1020.447303 
L 175.258452 1021.473647 
L 179.433918 1026.259228 
L 181.521651 1028.25496 
L 182.913473 1029.748554 
L 184.537265 1031.742192 
L 187.552879 1034.999403 
L 188.944701 1036.19267 
L 190.104553 1037.143597 
L 191.496375 1038.024462 
L 194.048049 1039.225278 
L 195.2079 1039.55627 
L 196.367752 1039.922825 
L 199.615337 1040.38615 
L 200.543218 1040.528692 
L 201.93504 1040.688045 
L 204.950654 1041.043793 
L 206.110506 1041.322241 
L 207.038387 1041.478509 
L 208.66218 1041.672823 
L 210.285972 1041.820286 
L 211.445824 1041.724157 
L 213.765527 1041.455456 
L 214.925379 1041.293552 
L 217.477052 1041.020423 
L 218.636904 1040.872654 
L 220.028726 1040.692189 
L 224.204192 1039.959489 
L 225.596014 1039.41748 
L 226.523895 1039.016048 
L 229.075569 1037.999491 
L 237.658471 1034.788856 
L 238.354382 1034.581752 
L 242.297878 1032.958204 
L 243.45773 1032.39283 
L 244.385611 1032.046591 
L 246.241374 1031.396407 
L 248.329107 1030.396282 
L 251.808662 1028.523887 
L 253.664425 1027.482974 
L 254.824276 1026.890302 
L 256.680039 1025.941773 
L 258.303831 1024.980187 
L 261.319446 1023.173881 
L 263.639149 1021.893939 
L 265.726882 1020.639082 
L 272.454022 1017.325632 
L 274.077814 1016.587858 
L 290.315737 1008.42155 
L 300.522432 1002.559302 
L 312.120949 996.002193 
L 315.832474 993.825685 
L 329.286754 986.288299 
L 332.070398 984.582182 
L 334.390101 983.166051 
L 336.477834 981.94063 
L 341.117241 979.2457 
L 343.204974 978.089234 
L 346.916499 975.963714 
L 350.859995 973.749216 
L 361.53063 967.582665 
L 363.386393 966.558811 
L 375.68082 959.522456 
L 392.150714 951.660153 
L 399.109824 948.750145 
L 403.981201 946.731769 
L 406.764845 945.615773 
L 412.100163 943.675095 
L 415.115777 942.723492 
L 427.642175 938.525312 
L 434.137345 935.732934 
L 450.375268 928.039944 
L 455.942556 925.893038 
L 459.190141 924.93741 
L 462.437726 924.099803 
L 464.061518 923.596351 
L 471.020628 921.231467 
L 473.804272 919.914247 
L 476.819886 918.251422 
L 479.60353 916.300641 
L 489.346284 908.922645 
L 492.361899 907.258831 
L 498.161157 902.766316 
L 498.161157 902.766316 
" clip-path="url(#pbd2e59d809)" style="fill: none; stroke: #2ca02c; stroke-width: 1.5; stroke-linecap: square"/>
   </g>
   <g id="line2d_59">
    <path d="M 152.293388 1075.748616 
L 152.525359 1054.303064 
L 153.45324 1017.644759 
L 154.845062 1000.733494 
L 155.077032 999.468984 
L 156.236884 989.79902 
L 156.700825 987.883887 
L 157.164765 986.961454 
L 157.628706 986.798317 
L 158.324617 989.053973 
L 158.556587 989.548639 
L 158.788558 989.666942 
L 159.484469 991.367681 
L 160.41235 991.640305 
L 161.572202 992.270477 
L 162.036142 992.167433 
L 162.268113 991.891837 
L 163.659935 991.632428 
L 163.891905 991.874303 
L 164.123875 991.80012 
L 164.819786 992.238252 
L 166.211608 993.406531 
L 166.907519 994.339153 
L 168.995253 996.745078 
L 169.459193 997.507209 
L 172.938748 1002.262647 
L 177.578155 1007.98164 
L 178.274066 1008.889878 
L 184.073324 1014.898886 
L 185.233176 1015.871367 
L 185.929087 1016.335722 
L 186.856968 1016.957084 
L 187.552879 1017.450726 
L 189.408642 1018.582862 
L 190.800464 1019.57649 
L 195.2079 1022.034684 
L 197.295633 1023.062272 
L 199.151396 1023.94071 
L 199.847307 1024.317492 
L 201.471099 1025.200586 
L 204.486714 1026.643275 
L 207.038387 1027.953984 
L 209.12612 1028.725609 
L 210.517942 1029.186196 
L 211.445824 1029.535723 
L 212.373705 1029.834958 
L 215.62129 1030.636241 
L 217.013112 1030.805373 
L 219.796756 1031.128855 
L 224.900103 1031.440754 
L 227.683747 1031.369492 
L 234.178916 1030.175942 
L 236.266649 1029.666289 
L 238.122412 1029.276486 
L 241.138027 1028.504154 
L 243.22576 1027.991867 
L 244.849552 1027.554613 
L 246.937285 1026.967125 
L 248.793048 1026.420064 
L 256.216098 1024.633606 
L 260.159594 1023.483784 
L 262.015357 1023.02316 
L 267.814615 1021.163136 
L 275.701606 1017.759203 
L 290.083767 1010.799231 
L 293.331352 1009.132631 
L 295.651055 1007.984636 
L 297.274847 1007.196803 
L 299.36258 1006.314822 
L 303.770017 1004.263173 
L 307.017601 1002.820262 
L 310.497156 1001.176649 
L 316.992326 998.22072 
L 319.312029 997.246358 
L 347.84438 984.898805 
L 351.555906 983.327892 
L 358.283045 980.424775 
L 374.752939 972.594516 
L 379.392346 970.241313 
L 382.63993 968.571854 
L 415.115777 953.287318 
L 429.497938 945.802794 
L 431.585671 944.765797 
L 438.08084 941.524788 
L 458.7262 930.844005 
L 463.365607 928.087154 
L 468.236984 924.835769 
L 481.227323 915.488461 
L 493.52175 906.292854 
L 498.161157 902.766316 
L 498.161157 902.766316 
" clip-path="url(#pbd2e59d809)" style="fill: none; stroke: #d62728; stroke-width: 1.5; stroke-linecap: square"/>
   </g>
   <g id="patch_35">
    <path d="M 135 1153.44 
L 135 890.829474 
" style="fill: none; stroke: #000000; stroke-width: 0.8; stroke-linejoin: miter; stroke-linecap: square"/>
   </g>
   <g id="patch_36">
    <path d="M 515.454545 1153.44 
L 515.454545 890.829474 
" style="fill: none; stroke: #000000; stroke-width: 0.8; stroke-linejoin: miter; stroke-linecap: square"/>
   </g>
   <g id="patch_37">
    <path d="M 135 1153.44 
L 515.454545 1153.44 
" style="fill: none; stroke: #000000; stroke-width: 0.8; stroke-linejoin: miter; stroke-linecap: square"/>
   </g>
   <g id="patch_38">
    <path d="M 135 890.829474 
L 515.454545 890.829474 
" style="fill: none; stroke: #000000; stroke-width: 0.8; stroke-linejoin: miter; stroke-linecap: square"/>
   </g>
   <g id="text_60">
    <!-- e -->
    <g transform="translate(89.376307 872.71352) scale(0.28 -0.28)">
     <defs>
      <path id="DejaVuSans-Bold-65" d="M 4031 1759 
L 4031 1441 
L 1416 1441 
Q 1456 1047 1700 850 
Q 1944 653 2381 653 
Q 2734 653 3104 758 
Q 3475 863 3866 1075 
L 3866 213 
Q 3469 63 3072 -14 
Q 2675 -91 2278 -91 
Q 1328 -91 801 392 
Q 275 875 275 1747 
Q 275 2603 792 3093 
Q 1309 3584 2216 3584 
Q 3041 3584 3536 3087 
Q 4031 2591 4031 1759 
z
M 2881 2131 
Q 2881 2450 2695 2645 
Q 2509 2841 2209 2841 
Q 1884 2841 1681 2658 
Q 1478 2475 1428 2131 
L 2881 2131 
z
" transform="scale(0.015625)"/>
     </defs>
     <use xlink:href="#DejaVuSans-Bold-65"/>
    </g>
   </g>
   <g id="text_61">
    <!-- $Q_{NN}$ -->
    <g transform="translate(302.787273 884.829474) scale(0.24 -0.24)">
     <use xlink:href="#DejaVuSans-Oblique-51" transform="translate(0 0.78125)"/>
     <use xlink:href="#DejaVuSans-Oblique-4e" transform="translate(78.710938 -15.625) scale(0.7)"/>
     <use xlink:href="#DejaVuSans-Oblique-4e" transform="translate(131.074219 -15.625) scale(0.7)"/>
    </g>
   </g>
  </g>
  <g id="axes_6">
   <g id="patch_39">
    <path d="M 591.545455 1153.44 
L 972 1153.44 
L 972 890.829474 
L 591.545455 890.829474 
z
" style="fill: #ffffff"/>
   </g>
   <g id="matplotlib.axis_11">
    <g id="xtick_20">
     <g id="line2d_60">
      <g>
       <use xlink:href="#maf14f23b56" x="608.606873" y="1153.44" style="stroke: #000000; stroke-width: 0.8"/>
      </g>
     </g>
     <g id="text_62">
      <!-- 0 -->
      <g transform="translate(601.608123 1177.156562) scale(0.22 -0.22)">
       <use xlink:href="#DejaVuSans-30"/>
      </g>
     </g>
    </g>
    <g id="xtick_21">
     <g id="line2d_61">
      <g>
       <use xlink:href="#maf14f23b56" x="724.59204" y="1153.44" style="stroke: #000000; stroke-width: 0.8"/>
      </g>
     </g>
     <g id="text_63">
      <!-- 500 -->
      <g transform="translate(703.59579 1177.156562) scale(0.22 -0.22)">
       <use xlink:href="#DejaVuSans-35"/>
       <use xlink:href="#DejaVuSans-30" x="63.623047"/>
       <use xlink:href="#DejaVuSans-30" x="127.246094"/>
      </g>
     </g>
    </g>
    <g id="xtick_22">
     <g id="line2d_62">
      <g>
       <use xlink:href="#maf14f23b56" x="840.577207" y="1153.44" style="stroke: #000000; stroke-width: 0.8"/>
      </g>
     </g>
     <g id="text_64">
      <!-- 1000 -->
      <g transform="translate(812.582207 1177.156562) scale(0.22 -0.22)">
       <use xlink:href="#DejaVuSans-31"/>
       <use xlink:href="#DejaVuSans-30" x="63.623047"/>
       <use xlink:href="#DejaVuSans-30" x="127.246094"/>
       <use xlink:href="#DejaVuSans-30" x="190.869141"/>
      </g>
     </g>
    </g>
    <g id="xtick_23">
     <g id="line2d_63">
      <g>
       <use xlink:href="#maf14f23b56" x="956.562374" y="1153.44" style="stroke: #000000; stroke-width: 0.8"/>
      </g>
     </g>
     <g id="text_65">
      <!-- 1500 -->
      <g transform="translate(928.567374 1177.156562) scale(0.22 -0.22)">
       <use xlink:href="#DejaVuSans-31"/>
       <use xlink:href="#DejaVuSans-35" x="63.623047"/>
       <use xlink:href="#DejaVuSans-30" x="127.246094"/>
       <use xlink:href="#DejaVuSans-30" x="190.869141"/>
      </g>
     </g>
    </g>
    <g id="text_66">
     <!-- k -->
     <g transform="translate(774.823977 1203.968125) scale(0.24 -0.24)">
      <use xlink:href="#DejaVuSans-6b"/>
     </g>
    </g>
   </g>
   <g id="matplotlib.axis_12">
    <g id="ytick_25">
     <g id="line2d_64">
      <g>
       <use xlink:href="#med0003f666" x="591.545455" y="1141.414968" style="stroke: #000000; stroke-width: 0.8"/>
      </g>
     </g>
     <g id="text_67">
      <!-- 0.0 -->
      <g transform="translate(549.55858 1149.773249) scale(0.22 -0.22)">
       <use xlink:href="#DejaVuSans-30"/>
       <use xlink:href="#DejaVuSans-2e" x="63.623047"/>
       <use xlink:href="#DejaVuSans-30" x="95.410156"/>
      </g>
     </g>
    </g>
    <g id="ytick_26">
     <g id="line2d_65">
      <g>
       <use xlink:href="#med0003f666" x="591.545455" y="1077.699869" style="stroke: #000000; stroke-width: 0.8"/>
      </g>
     </g>
     <g id="text_68">
      <!-- 0.2 -->
      <g transform="translate(549.55858 1086.058151) scale(0.22 -0.22)">
       <use xlink:href="#DejaVuSans-30"/>
       <use xlink:href="#DejaVuSans-2e" x="63.623047"/>
       <use xlink:href="#DejaVuSans-32" x="95.410156"/>
      </g>
     </g>
    </g>
    <g id="ytick_27">
     <g id="line2d_66">
      <g>
       <use xlink:href="#med0003f666" x="591.545455" y="1013.984771" style="stroke: #000000; stroke-width: 0.8"/>
      </g>
     </g>
     <g id="text_69">
      <!-- 0.4 -->
      <g transform="translate(549.55858 1022.343052) scale(0.22 -0.22)">
       <use xlink:href="#DejaVuSans-30"/>
       <use xlink:href="#DejaVuSans-2e" x="63.623047"/>
       <use xlink:href="#DejaVuSans-34" x="95.410156"/>
      </g>
     </g>
    </g>
    <g id="ytick_28">
     <g id="line2d_67">
      <g>
       <use xlink:href="#med0003f666" x="591.545455" y="950.269673" style="stroke: #000000; stroke-width: 0.8"/>
      </g>
     </g>
     <g id="text_70">
      <!-- 0.6 -->
      <g transform="translate(549.55858 958.627954) scale(0.22 -0.22)">
       <use xlink:href="#DejaVuSans-30"/>
       <use xlink:href="#DejaVuSans-2e" x="63.623047"/>
       <use xlink:href="#DejaVuSans-36" x="95.410156"/>
      </g>
     </g>
    </g>
   </g>
   <g id="line2d_68">
    <path d="M 608.838843 1110.475093 
L 609.302784 1088.924056 
L 609.766724 1081.200007 
L 610.462635 1075.001764 
L 611.158546 1071.331097 
L 612.318398 1067.201222 
L 613.246279 1064.771936 
L 613.47825 1064.174617 
L 613.71022 1063.971079 
L 614.870072 1060.887851 
L 615.102042 1060.555788 
L 616.029923 1058.481626 
L 616.725834 1056.81198 
L 617.421745 1055.220727 
L 619.277508 1052.001648 
L 619.741449 1051.313477 
L 622.757063 1045.591841 
L 623.221004 1044.766482 
L 624.612826 1041.996205 
L 626.004648 1039.919676 
L 626.700559 1039.419812 
L 627.164499 1038.854916 
L 627.86041 1038.29516 
L 628.324351 1037.852748 
L 629.252232 1036.91493 
L 629.948143 1036.480235 
L 632.499817 1034.669546 
L 633.195728 1034.361965 
L 633.427698 1034.283883 
L 633.891639 1034.269057 
L 635.515431 1034.086987 
L 636.211342 1034.207925 
L 637.371194 1034.068431 
L 637.835135 1033.872819 
L 638.531046 1033.777704 
L 638.763016 1033.747526 
L 639.226957 1033.87283 
L 641.082719 1034.303274 
L 641.54666 1034.553218 
L 642.242571 1034.67241 
L 648.2738 1036.339447 
L 648.969711 1036.59452 
L 649.665622 1036.724024 
L 655.928821 1038.739602 
L 658.248524 1039.64763 
L 658.944435 1039.985557 
L 661.496109 1041.249086 
L 663.119901 1041.898445 
L 667.295367 1043.531076 
L 668.455219 1043.848144 
L 671.006893 1044.699748 
L 678.893884 1046.791073 
L 680.285706 1047.139926 
L 686.084964 1048.91292 
L 686.780875 1049.096463 
L 688.868608 1049.694028 
L 692.812104 1050.891722 
L 699.075303 1052.513406 
L 701.858947 1053.201317 
L 703.250769 1053.439136 
L 706.498354 1054.182401 
L 707.890176 1054.498634 
L 711.369731 1055.132386 
L 717.400959 1056.036091 
L 721.808396 1056.546628 
L 723.432188 1056.717225 
L 726.215832 1056.974912 
L 727.839625 1057.095667 
L 731.31918 1057.482455 
L 732.942972 1057.647441 
L 735.030705 1057.891241 
L 736.886468 1058.109 
L 740.366023 1058.619329 
L 744.077548 1059.1987 
L 765.186848 1063.88375 
L 783.280534 1068.906776 
L 785.136297 1069.491841 
L 799.982399 1074.251964 
L 801.838161 1074.887993 
L 804.621805 1075.801315 
L 810.189093 1077.660469 
L 812.972737 1078.60808 
L 825.731106 1083.399972 
L 830.138542 1085.163966 
L 833.386127 1086.448146 
L 835.47386 1087.269844 
L 839.417355 1088.851691 
L 850.783902 1093.834935 
L 860.062715 1098.659078 
L 866.789855 1102.354698 
L 880.244134 1109.353034 
L 884.4196 1111.090239 
L 890.682799 1113.570365 
L 896.945998 1116.175177 
L 901.585405 1118.410392 
L 904.369049 1120.05235 
L 906.920723 1121.462571 
L 911.096189 1123.838113 
L 914.807714 1126.196783 
L 919.447121 1129.190474 
L 924.782438 1132.630741 
L 928.030023 1134.694657 
L 931.277608 1136.457821 
L 933.13337 1137.315733 
L 934.989133 1137.890922 
L 938.004747 1138.417058 
L 945.659769 1139.261057 
L 950.531146 1140.305252 
L 952.154938 1140.968049 
L 953.082819 1141.328471 
L 954.706612 1141.414968 
L 954.706612 1141.414968 
" clip-path="url(#p33c74484df)" style="fill: none; stroke: #1f77b4; stroke-width: 1.5; stroke-linecap: square"/>
   </g>
   <g id="line2d_69">
    <path d="M 608.838843 912.45898 
L 609.070813 909.045053 
L 609.302784 908.76069 
L 609.998695 903.17769 
L 610.230665 902.766316 
L 610.462635 903.418028 
L 610.694606 903.284809 
L 610.926576 903.733049 
L 611.158546 905.20551 
L 611.390517 905.241216 
L 611.854457 908.421872 
L 612.318398 910.647401 
L 612.550368 912.134924 
L 612.782339 912.29545 
L 613.014309 913.49476 
L 613.246279 913.880671 
L 613.71022 915.740268 
L 614.174161 919.077032 
L 614.638101 923.861942 
L 615.565983 930.635943 
L 616.261894 934.370512 
L 618.117656 941.338581 
L 618.813567 942.614674 
L 619.045538 942.755669 
L 619.973419 944.20277 
L 621.133271 945.334896 
L 621.829182 946.705029 
L 622.061152 946.994132 
L 624.844796 952.913396 
L 625.772677 955.355803 
L 626.236618 956.4371 
L 626.932529 958.543887 
L 627.62844 960.467926 
L 630.180114 967.113333 
L 631.571936 970.057423 
L 633.195728 973.502528 
L 634.81952 977.10253 
L 636.907253 980.888879 
L 638.299075 983.364124 
L 645.490156 996.842947 
L 650.129562 1004.642895 
L 651.985325 1007.583203 
L 657.552613 1015.180141 
L 662.887931 1021.685124 
L 665.207634 1024.576527 
L 666.599456 1026.160108 
L 669.615071 1029.933837 
L 672.398715 1033.036596 
L 674.950388 1035.705471 
L 677.038121 1037.751137 
L 678.429943 1039.069207 
L 680.053736 1040.576962 
L 684.229202 1044.329441 
L 686.780875 1046.43207 
L 690.02846 1049.197711 
L 698.843333 1055.666837 
L 700.467125 1056.771283 
L 701.858947 1057.737488 
L 704.17865 1059.268428 
L 706.730324 1060.982991 
L 710.441849 1063.531071 
L 714.385345 1066.319618 
L 723.664159 1072.066605 
L 746.861192 1084.294826 
L 750.804688 1085.92443 
L 752.892421 1086.816353 
L 754.284243 1087.462023 
L 756.371976 1088.329703 
L 758.459709 1089.206934 
L 774.465662 1095.138085 
L 781.888712 1097.443094 
L 801.14225 1103.63954 
L 803.461954 1104.52139 
L 807.405449 1105.903665 
L 809.725153 1106.635305 
L 815.06047 1108.312601 
L 817.380174 1108.968466 
L 823.875343 1111.121573 
L 827.586868 1112.365364 
L 850.783902 1119.92425 
L 854.263457 1120.974601 
L 857.279071 1121.874274 
L 860.294685 1122.704645 
L 865.630003 1124.18339 
L 869.341529 1125.224664 
L 871.893202 1126.030296 
L 875.604728 1127.199177 
L 879.084283 1128.419361 
L 895.322206 1133.701357 
L 904.83299 1136.312239 
L 911.328159 1137.718097 
L 931.277608 1141.07823 
L 934.293222 1141.262713 
L 939.164599 1141.336954 
L 944.035976 1141.38227 
L 952.618879 1141.42663 
L 954.706612 1141.414968 
L 954.706612 1141.414968 
" clip-path="url(#p33c74484df)" style="fill: none; stroke: #ff7f0e; stroke-width: 1.5; stroke-linecap: square"/>
   </g>
   <g id="line2d_70">
    <path d="M 608.838843 1058.837271 
L 609.302784 1004.639181 
L 609.766724 971.138896 
L 610.230665 950.349929 
L 610.926576 933.670183 
L 611.854457 923.266984 
L 612.086428 921.664749 
L 612.550368 921.059205 
L 613.014309 921.513335 
L 613.246279 921.540993 
L 613.94219 923.51147 
L 616.261894 940.765429 
L 617.189775 945.607145 
L 617.653716 947.858044 
L 618.581597 951.59282 
L 620.205389 955.406465 
L 622.061152 959.182512 
L 622.293122 959.43245 
L 622.989033 961.166397 
L 626.700559 972.15605 
L 627.39647 974.534859 
L 628.092381 976.667577 
L 629.252232 980.527617 
L 630.412084 983.836351 
L 632.963758 989.696886 
L 634.35558 993.189807 
L 636.443313 997.737086 
L 637.139224 999.051229 
L 638.067105 1001.036185 
L 639.690897 1004.699318 
L 641.082719 1008.010355 
L 644.330304 1015.135767 
L 646.418037 1019.191501 
L 647.577889 1021.233978 
L 648.969711 1023.374805 
L 650.129562 1025.040299 
L 651.289414 1026.653585 
L 653.145177 1028.993689 
L 653.609118 1029.512002 
L 654.536999 1030.483825 
L 656.160791 1032.296023 
L 657.552613 1033.807862 
L 663.119901 1039.948067 
L 664.743694 1041.691166 
L 666.599456 1043.60601 
L 667.527338 1044.405656 
L 670.079011 1046.492578 
L 670.774922 1046.941335 
L 676.11024 1051.131092 
L 677.502062 1052.150607 
L 680.749647 1054.415732 
L 682.141469 1055.044326 
L 682.83738 1055.302786 
L 686.316935 1056.865258 
L 687.012846 1057.207471 
L 690.492401 1058.874314 
L 691.652252 1059.352636 
L 694.203926 1060.574962 
L 694.899837 1060.96619 
L 698.843333 1062.641437 
L 699.771214 1062.939398 
L 700.931066 1063.465622 
L 702.786828 1064.391026 
L 704.642591 1065.031252 
L 706.498354 1065.534491 
L 709.977909 1066.468003 
L 711.13776 1066.773173 
L 712.761553 1067.307731 
L 715.313226 1067.83841 
L 717.400959 1068.257409 
L 724.36007 1070.064516 
L 727.143714 1070.921257 
L 730.159328 1072.015357 
L 735.030705 1073.580307 
L 736.886468 1074.139468 
L 738.27829 1074.664399 
L 739.902082 1075.220489 
L 741.293904 1075.689735 
L 743.381637 1076.409621 
L 752.42848 1078.611082 
L 756.603946 1079.512463 
L 757.995768 1079.865595 
L 760.779412 1080.634822 
L 765.882759 1081.866401 
L 767.274581 1082.16492 
L 773.769751 1083.545919 
L 778.177187 1084.68644 
L 780.03295 1085.129294 
L 781.424772 1085.488935 
L 784.672356 1086.289731 
L 789.311763 1087.142561 
L 790.239644 1087.325031 
L 793.487229 1088.000432 
L 797.894666 1089.008426 
L 799.518458 1089.414938 
L 805.317716 1090.786665 
L 809.261212 1091.713469 
L 818.540025 1093.820495 
L 821.55564 1094.532817 
L 824.339284 1095.106971 
L 826.890957 1095.661403 
L 830.834453 1096.576136 
L 838.953415 1099.264018 
L 840.577207 1099.802829 
L 843.360851 1100.793053 
L 847.536317 1102.277049 
L 849.62405 1103.071267 
L 866.325914 1110.239924 
L 869.805469 1112.089278 
L 883.027778 1119.040429 
L 889.754918 1121.834332 
L 895.090236 1123.673249 
L 902.049346 1126.097282 
L 909.008456 1128.767419 
L 912.488011 1130.396803 
L 915.735595 1132.23561 
L 918.75121 1134.071188 
L 920.606972 1135.105042 
L 927.334112 1138.581452 
L 931.741548 1140.043483 
L 933.829281 1140.47735 
L 936.380955 1140.625808 
L 943.804006 1140.641409 
L 945.891739 1140.712895 
L 948.675383 1141.423621 
L 949.139324 1141.478398 
L 954.706612 1141.414968 
L 954.706612 1141.414968 
" clip-path="url(#p33c74484df)" style="fill: none; stroke: #2ca02c; stroke-width: 1.5; stroke-linecap: square"/>
   </g>
   <g id="line2d_71">
    <path d="M 608.838843 1031.311324 
L 609.070813 1005.705935 
L 609.998695 962.426046 
L 611.390517 943.347226 
L 611.622487 942.038369 
L 612.782339 931.464036 
L 613.246279 929.585397 
L 613.71022 928.901899 
L 614.174161 929.132538 
L 614.870072 932.488754 
L 615.102042 933.297819 
L 615.334012 933.65377 
L 616.029923 936.341906 
L 616.957805 937.524215 
L 618.117656 939.350509 
L 618.581597 939.653497 
L 618.813567 939.535221 
L 620.205389 940.504046 
L 620.43736 941.008768 
L 620.66933 941.13298 
L 621.365241 942.301027 
L 622.757063 944.988686 
L 623.684944 947.278526 
L 626.236618 953.522786 
L 626.932529 955.421525 
L 627.86041 957.630022 
L 629.484203 961.842968 
L 634.123609 972.998675 
L 635.051491 975.242386 
L 636.907253 979.185342 
L 638.763016 983.316118 
L 641.77863 989.543583 
L 642.938482 991.508248 
L 644.330304 993.948852 
L 645.954096 996.651434 
L 647.577889 999.504839 
L 653.145177 1008.289216 
L 655.00094 1010.986587 
L 658.480495 1016.413309 
L 659.872317 1018.46278 
L 660.568228 1019.471128 
L 663.583842 1024.161301 
L 666.135516 1027.609067 
L 668.455219 1030.737714 
L 670.774922 1033.710218 
L 672.862655 1036.080579 
L 678.197973 1041.637552 
L 679.357825 1042.743665 
L 680.749647 1044.187241 
L 682.141469 1045.419366 
L 684.461172 1047.443624 
L 689.79649 1051.296972 
L 703.71471 1059.815898 
L 705.570472 1060.898489 
L 707.890176 1062.330357 
L 709.050027 1063.055271 
L 712.529582 1065.342114 
L 713.457464 1065.809222 
L 716.473078 1067.550315 
L 718.09687 1068.557338 
L 719.488692 1069.325816 
L 721.344455 1070.353605 
L 723.432188 1071.483081 
L 726.215832 1072.808339 
L 728.303565 1073.598541 
L 730.855239 1074.567745 
L 733.174942 1075.433548 
L 741.989815 1078.424468 
L 746.165281 1079.798936 
L 747.789073 1080.279017 
L 749.876806 1080.932088 
L 751.732569 1081.539784 
L 753.356361 1082.046578 
L 758.227738 1083.915608 
L 769.362314 1088.014035 
L 771.450047 1088.763835 
L 773.30581 1089.464249 
L 775.625513 1090.447646 
L 779.105068 1091.895286 
L 816.684263 1106.865408 
L 820.859729 1108.444264 
L 824.571254 1109.746329 
L 827.354898 1110.576098 
L 829.674601 1111.377216 
L 839.417355 1114.389027 
L 848.696169 1117.642227 
L 852.639664 1119.038272 
L 858.206952 1121.098507 
L 863.078329 1122.89639 
L 867.717736 1124.490799 
L 871.661232 1125.797607 
L 883.95566 1129.417606 
L 886.739304 1130.231953 
L 893.234473 1132.342615 
L 902.281316 1135.116943 
L 909.936337 1137.518118 
L 918.055299 1139.545535 
L 922.694705 1140.265928 
L 927.798053 1140.623172 
L 942.876125 1141.294691 
L 954.706612 1141.414968 
L 954.706612 1141.414968 
" clip-path="url(#p33c74484df)" style="fill: none; stroke: #d62728; stroke-width: 1.5; stroke-linecap: square"/>
   </g>
   <g id="patch_40">
    <path d="M 591.545455 1153.44 
L 591.545455 890.829474 
" style="fill: none; stroke: #000000; stroke-width: 0.8; stroke-linejoin: miter; stroke-linecap: square"/>
   </g>
   <g id="patch_41">
    <path d="M 972 1153.44 
L 972 890.829474 
" style="fill: none; stroke: #000000; stroke-width: 0.8; stroke-linejoin: miter; stroke-linecap: square"/>
   </g>
   <g id="patch_42">
    <path d="M 591.545455 1153.44 
L 972 1153.44 
" style="fill: none; stroke: #000000; stroke-width: 0.8; stroke-linejoin: miter; stroke-linecap: square"/>
   </g>
   <g id="patch_43">
    <path d="M 591.545455 890.829474 
L 972 890.829474 
" style="fill: none; stroke: #000000; stroke-width: 0.8; stroke-linejoin: miter; stroke-linecap: square"/>
   </g>
   <g id="text_71">
    <!-- f -->
    <g transform="translate(552.733636 872.71352) scale(0.28 -0.28)">
     <defs>
      <path id="DejaVuSans-Bold-66" d="M 2841 4863 
L 2841 4128 
L 2222 4128 
Q 1984 4128 1890 4042 
Q 1797 3956 1797 3744 
L 1797 3500 
L 2753 3500 
L 2753 2700 
L 1797 2700 
L 1797 0 
L 678 0 
L 678 2700 
L 122 2700 
L 122 3500 
L 678 3500 
L 678 3744 
Q 678 4316 997 4589 
Q 1316 4863 1984 4863 
L 2841 4863 
z
" transform="scale(0.015625)"/>
     </defs>
     <use xlink:href="#DejaVuSans-Bold-66"/>
    </g>
   </g>
   <g id="text_72">
    <!-- LCMC -->
    <g transform="translate(747.973977 884.829474) scale(0.24 -0.24)">
     <defs>
      <path id="DejaVuSans-4c" d="M 628 4666 
L 1259 4666 
L 1259 531 
L 3531 531 
L 3531 0 
L 628 0 
L 628 4666 
z
" transform="scale(0.015625)"/>
     </defs>
     <use xlink:href="#DejaVuSans-4c"/>
     <use xlink:href="#DejaVuSans-43" x="55.712891"/>
     <use xlink:href="#DejaVuSans-4d" x="125.537109"/>
     <use xlink:href="#DejaVuSans-43" x="211.816406"/>
    </g>
   </g>
  </g>
 </g>
 <defs>
  <clipPath id="p0cbcafc2cb">
   <rect x="135" y="155.52" width="380.454545" height="262.610526"/>
  </clipPath>
  <clipPath id="pb14833cd89">
   <rect x="591.545455" y="155.52" width="380.454545" height="262.610526"/>
  </clipPath>
  <clipPath id="p5d8128690b">
   <rect x="135" y="523.174737" width="380.454545" height="262.610526"/>
  </clipPath>
  <clipPath id="pa2f35cd7de">
   <rect x="591.545455" y="523.174737" width="380.454545" height="262.610526"/>
  </clipPath>
  <clipPath id="pbd2e59d809">
   <rect x="135" y="890.829474" width="380.454545" height="262.610526"/>
  </clipPath>
  <clipPath id="p33c74484df">
   <rect x="591.545455" y="890.829474" width="380.454545" height="262.610526"/>
  </clipPath>
 </defs>
</svg>
