<?xml version="1.0" encoding="utf-8" standalone="no"?>
<!DOCTYPE svg PUBLIC "-//W3C//DTD SVG 1.1//EN"
  "http://www.w3.org/Graphics/SVG/1.1/DTD/svg11.dtd">
<svg xmlns:xlink="http://www.w3.org/1999/xlink" width="1080pt" height="1296pt" viewBox="0 0 1080 1296" xmlns="http://www.w3.org/2000/svg" version="1.1">
 <metadata>
  <rdf:RDF xmlns:dc="http://purl.org/dc/elements/1.1/" xmlns:cc="http://creativecommons.org/ns#" xmlns:rdf="http://www.w3.org/1999/02/22-rdf-syntax-ns#">
   <cc:Work>
    <dc:type rdf:resource="http://purl.org/dc/dcmitype/StillImage"/>
    <dc:date>2024-07-24T00:05:01.494304</dc:date>
    <dc:format>image/svg+xml</dc:format>
    <dc:creator>
     <cc:Agent>
      <dc:title>Matplotlib v3.8.4, https://matplotlib.org/</dc:title>
     </cc:Agent>
    </dc:creator>
   </cc:Work>
  </rdf:RDF>
 </metadata>
 <defs>
  <style type="text/css">*{stroke-linejoin: round; stroke-linecap: butt}</style>
 </defs>
 <g id="figure_1">
  <g id="patch_1">
   <path d="M 0 1296 
L 1080 1296 
L 1080 0 
L 0 0 
z
" style="fill: #ffffff"/>
  </g>
  <g id="axes_1">
   <g id="patch_2">
    <path d="M 135 418.130526 
L 515.454545 418.130526 
L 515.454545 155.52 
L 135 155.52 
z
" style="fill: #ffffff"/>
   </g>
   <g id="matplotlib.axis_1">
    <g id="xtick_1">
     <g id="line2d_1">
      <defs>
       <path id="m128101bfa4" d="M 0 0 
L 0 3.5 
" style="stroke: #000000; stroke-width: 0.8"/>
      </defs>
      <g>
       <use xlink:href="#m128101bfa4" x="137.882231" y="418.130526" style="stroke: #000000; stroke-width: 0.8"/>
      </g>
     </g>
     <g id="text_1">
      <!-- 0 -->
      <g transform="translate(131.519731 440.327401) scale(0.2 -0.2)">
       <defs>
        <path id="DejaVuSans-30" d="M 2034 4250 
Q 1547 4250 1301 3770 
Q 1056 3291 1056 2328 
Q 1056 1369 1301 889 
Q 1547 409 2034 409 
Q 2525 409 2770 889 
Q 3016 1369 3016 2328 
Q 3016 3291 2770 3770 
Q 2525 4250 2034 4250 
z
M 2034 4750 
Q 2819 4750 3233 4129 
Q 3647 3509 3647 2328 
Q 3647 1150 3233 529 
Q 2819 -91 2034 -91 
Q 1250 -91 836 529 
Q 422 1150 422 2328 
Q 422 3509 836 4129 
Q 1250 4750 2034 4750 
z
" transform="scale(0.015625)"/>
       </defs>
       <use xlink:href="#DejaVuSans-30"/>
      </g>
     </g>
    </g>
    <g id="xtick_2">
     <g id="line2d_2">
      <g>
       <use xlink:href="#m128101bfa4" x="209.938017" y="418.130526" style="stroke: #000000; stroke-width: 0.8"/>
      </g>
     </g>
     <g id="text_2">
      <!-- 10 -->
      <g transform="translate(197.213017 440.327401) scale(0.2 -0.2)">
       <defs>
        <path id="DejaVuSans-31" d="M 794 531 
L 1825 531 
L 1825 4091 
L 703 3866 
L 703 4441 
L 1819 4666 
L 2450 4666 
L 2450 531 
L 3481 531 
L 3481 0 
L 794 0 
L 794 531 
z
" transform="scale(0.015625)"/>
       </defs>
       <use xlink:href="#DejaVuSans-31"/>
       <use xlink:href="#DejaVuSans-30" x="63.623047"/>
      </g>
     </g>
    </g>
    <g id="xtick_3">
     <g id="line2d_3">
      <g>
       <use xlink:href="#m128101bfa4" x="281.993802" y="418.130526" style="stroke: #000000; stroke-width: 0.8"/>
      </g>
     </g>
     <g id="text_3">
      <!-- 20 -->
      <g transform="translate(269.268802 440.327401) scale(0.2 -0.2)">
       <defs>
        <path id="DejaVuSans-32" d="M 1228 531 
L 3431 531 
L 3431 0 
L 469 0 
L 469 531 
Q 828 903 1448 1529 
Q 2069 2156 2228 2338 
Q 2531 2678 2651 2914 
Q 2772 3150 2772 3378 
Q 2772 3750 2511 3984 
Q 2250 4219 1831 4219 
Q 1534 4219 1204 4116 
Q 875 4013 500 3803 
L 500 4441 
Q 881 4594 1212 4672 
Q 1544 4750 1819 4750 
Q 2544 4750 2975 4387 
Q 3406 4025 3406 3419 
Q 3406 3131 3298 2873 
Q 3191 2616 2906 2266 
Q 2828 2175 2409 1742 
Q 1991 1309 1228 531 
z
" transform="scale(0.015625)"/>
       </defs>
       <use xlink:href="#DejaVuSans-32"/>
       <use xlink:href="#DejaVuSans-30" x="63.623047"/>
      </g>
     </g>
    </g>
    <g id="xtick_4">
     <g id="line2d_4">
      <g>
       <use xlink:href="#m128101bfa4" x="354.049587" y="418.130526" style="stroke: #000000; stroke-width: 0.8"/>
      </g>
     </g>
     <g id="text_4">
      <!-- 30 -->
      <g transform="translate(341.324587 440.327401) scale(0.2 -0.2)">
       <defs>
        <path id="DejaVuSans-33" d="M 2597 2516 
Q 3050 2419 3304 2112 
Q 3559 1806 3559 1356 
Q 3559 666 3084 287 
Q 2609 -91 1734 -91 
Q 1441 -91 1130 -33 
Q 819 25 488 141 
L 488 750 
Q 750 597 1062 519 
Q 1375 441 1716 441 
Q 2309 441 2620 675 
Q 2931 909 2931 1356 
Q 2931 1769 2642 2001 
Q 2353 2234 1838 2234 
L 1294 2234 
L 1294 2753 
L 1863 2753 
Q 2328 2753 2575 2939 
Q 2822 3125 2822 3475 
Q 2822 3834 2567 4026 
Q 2313 4219 1838 4219 
Q 1578 4219 1281 4162 
Q 984 4106 628 3988 
L 628 4550 
Q 988 4650 1302 4700 
Q 1616 4750 1894 4750 
Q 2613 4750 3031 4423 
Q 3450 4097 3450 3541 
Q 3450 3153 3228 2886 
Q 3006 2619 2597 2516 
z
" transform="scale(0.015625)"/>
       </defs>
       <use xlink:href="#DejaVuSans-33"/>
       <use xlink:href="#DejaVuSans-30" x="63.623047"/>
      </g>
     </g>
    </g>
    <g id="xtick_5">
     <g id="line2d_5">
      <g>
       <use xlink:href="#m128101bfa4" x="426.105372" y="418.130526" style="stroke: #000000; stroke-width: 0.8"/>
      </g>
     </g>
     <g id="text_5">
      <!-- 40 -->
      <g transform="translate(413.380372 440.327401) scale(0.2 -0.2)">
       <defs>
        <path id="DejaVuSans-34" d="M 2419 4116 
L 825 1625 
L 2419 1625 
L 2419 4116 
z
M 2253 4666 
L 3047 4666 
L 3047 1625 
L 3713 1625 
L 3713 1100 
L 3047 1100 
L 3047 0 
L 2419 0 
L 2419 1100 
L 313 1100 
L 313 1709 
L 2253 4666 
z
" transform="scale(0.015625)"/>
       </defs>
       <use xlink:href="#DejaVuSans-34"/>
       <use xlink:href="#DejaVuSans-30" x="63.623047"/>
      </g>
     </g>
    </g>
    <g id="xtick_6">
     <g id="line2d_6">
      <g>
       <use xlink:href="#m128101bfa4" x="498.161157" y="418.130526" style="stroke: #000000; stroke-width: 0.8"/>
      </g>
     </g>
     <g id="text_6">
      <!-- 50 -->
      <g transform="translate(485.436157 440.327401) scale(0.2 -0.2)">
       <defs>
        <path id="DejaVuSans-35" d="M 691 4666 
L 3169 4666 
L 3169 4134 
L 1269 4134 
L 1269 2991 
Q 1406 3038 1543 3061 
Q 1681 3084 1819 3084 
Q 2600 3084 3056 2656 
Q 3513 2228 3513 1497 
Q 3513 744 3044 326 
Q 2575 -91 1722 -91 
Q 1428 -91 1123 -41 
Q 819 9 494 109 
L 494 744 
Q 775 591 1075 516 
Q 1375 441 1709 441 
Q 2250 441 2565 725 
Q 2881 1009 2881 1497 
Q 2881 1984 2565 2268 
Q 2250 2553 1709 2553 
Q 1456 2553 1204 2497 
Q 953 2441 691 2322 
L 691 4666 
z
" transform="scale(0.015625)"/>
       </defs>
       <use xlink:href="#DejaVuSans-35"/>
       <use xlink:href="#DejaVuSans-30" x="63.623047"/>
      </g>
     </g>
    </g>
    <g id="text_7">
     <!-- k -->
     <g transform="translate(318.278523 466.723026) scale(0.24 -0.24)">
      <defs>
       <path id="DejaVuSans-6b" d="M 581 4863 
L 1159 4863 
L 1159 1991 
L 2875 3500 
L 3609 3500 
L 1753 1863 
L 3688 0 
L 2938 0 
L 1159 1709 
L 1159 0 
L 581 0 
L 581 4863 
z
" transform="scale(0.015625)"/>
      </defs>
      <use xlink:href="#DejaVuSans-6b"/>
     </g>
    </g>
   </g>
   <g id="matplotlib.axis_2">
    <g id="ytick_1">
     <g id="line2d_7">
      <defs>
       <path id="m7930acb194" d="M 0 0 
L -3.5 0 
" style="stroke: #000000; stroke-width: 0.8"/>
      </defs>
      <g>
       <use xlink:href="#m7930acb194" x="135" y="418.130526" style="stroke: #000000; stroke-width: 0.8"/>
      </g>
     </g>
     <g id="text_8">
      <!-- 0.0 -->
      <g transform="translate(96.19375 425.728964) scale(0.2 -0.2)">
       <defs>
        <path id="DejaVuSans-2e" d="M 684 794 
L 1344 794 
L 1344 0 
L 684 0 
L 684 794 
z
" transform="scale(0.015625)"/>
       </defs>
       <use xlink:href="#DejaVuSans-30"/>
       <use xlink:href="#DejaVuSans-2e" x="63.623047"/>
       <use xlink:href="#DejaVuSans-30" x="95.410156"/>
      </g>
     </g>
    </g>
    <g id="ytick_2">
     <g id="line2d_8">
      <g>
       <use xlink:href="#m7930acb194" x="135" y="352.477895" style="stroke: #000000; stroke-width: 0.8"/>
      </g>
     </g>
     <g id="text_9">
      <!-- 0.2 -->
      <g transform="translate(96.19375 360.076332) scale(0.2 -0.2)">
       <use xlink:href="#DejaVuSans-30"/>
       <use xlink:href="#DejaVuSans-2e" x="63.623047"/>
       <use xlink:href="#DejaVuSans-32" x="95.410156"/>
      </g>
     </g>
    </g>
    <g id="ytick_3">
     <g id="line2d_9">
      <g>
       <use xlink:href="#m7930acb194" x="135" y="286.825263" style="stroke: #000000; stroke-width: 0.8"/>
      </g>
     </g>
     <g id="text_10">
      <!-- 0.4 -->
      <g transform="translate(96.19375 294.423701) scale(0.2 -0.2)">
       <use xlink:href="#DejaVuSans-30"/>
       <use xlink:href="#DejaVuSans-2e" x="63.623047"/>
       <use xlink:href="#DejaVuSans-34" x="95.410156"/>
      </g>
     </g>
    </g>
    <g id="ytick_4">
     <g id="line2d_10">
      <g>
       <use xlink:href="#m7930acb194" x="135" y="221.172632" style="stroke: #000000; stroke-width: 0.8"/>
      </g>
     </g>
     <g id="text_11">
      <!-- 0.6 -->
      <g transform="translate(96.19375 228.771069) scale(0.2 -0.2)">
       <defs>
        <path id="DejaVuSans-36" d="M 2113 2584 
Q 1688 2584 1439 2293 
Q 1191 2003 1191 1497 
Q 1191 994 1439 701 
Q 1688 409 2113 409 
Q 2538 409 2786 701 
Q 3034 994 3034 1497 
Q 3034 2003 2786 2293 
Q 2538 2584 2113 2584 
z
M 3366 4563 
L 3366 3988 
Q 3128 4100 2886 4159 
Q 2644 4219 2406 4219 
Q 1781 4219 1451 3797 
Q 1122 3375 1075 2522 
Q 1259 2794 1537 2939 
Q 1816 3084 2150 3084 
Q 2853 3084 3261 2657 
Q 3669 2231 3669 1497 
Q 3669 778 3244 343 
Q 2819 -91 2113 -91 
Q 1303 -91 875 529 
Q 447 1150 447 2328 
Q 447 3434 972 4092 
Q 1497 4750 2381 4750 
Q 2619 4750 2861 4703 
Q 3103 4656 3366 4563 
z
" transform="scale(0.015625)"/>
       </defs>
       <use xlink:href="#DejaVuSans-30"/>
       <use xlink:href="#DejaVuSans-2e" x="63.623047"/>
       <use xlink:href="#DejaVuSans-36" x="95.410156"/>
      </g>
     </g>
    </g>
    <g id="ytick_5">
     <g id="line2d_11">
      <g>
       <use xlink:href="#m7930acb194" x="135" y="155.52" style="stroke: #000000; stroke-width: 0.8"/>
      </g>
     </g>
     <g id="text_12">
      <!-- 0.8 -->
      <g transform="translate(96.19375 163.118438) scale(0.2 -0.2)">
       <defs>
        <path id="DejaVuSans-38" d="M 2034 2216 
Q 1584 2216 1326 1975 
Q 1069 1734 1069 1313 
Q 1069 891 1326 650 
Q 1584 409 2034 409 
Q 2484 409 2743 651 
Q 3003 894 3003 1313 
Q 3003 1734 2745 1975 
Q 2488 2216 2034 2216 
z
M 1403 2484 
Q 997 2584 770 2862 
Q 544 3141 544 3541 
Q 544 4100 942 4425 
Q 1341 4750 2034 4750 
Q 2731 4750 3128 4425 
Q 3525 4100 3525 3541 
Q 3525 3141 3298 2862 
Q 3072 2584 2669 2484 
Q 3125 2378 3379 2068 
Q 3634 1759 3634 1313 
Q 3634 634 3220 271 
Q 2806 -91 2034 -91 
Q 1263 -91 848 271 
Q 434 634 434 1313 
Q 434 1759 690 2068 
Q 947 2378 1403 2484 
z
M 1172 3481 
Q 1172 3119 1398 2916 
Q 1625 2713 2034 2713 
Q 2441 2713 2670 2916 
Q 2900 3119 2900 3481 
Q 2900 3844 2670 4047 
Q 2441 4250 2034 4250 
Q 1625 4250 1398 4047 
Q 1172 3844 1172 3481 
z
" transform="scale(0.015625)"/>
       </defs>
       <use xlink:href="#DejaVuSans-30"/>
       <use xlink:href="#DejaVuSans-2e" x="63.623047"/>
       <use xlink:href="#DejaVuSans-38" x="95.410156"/>
      </g>
     </g>
    </g>
    <g id="text_13">
     <!-- $P_{NN}$ -->
     <g transform="translate(87.2025 306.985263) rotate(-90) scale(0.24 -0.24)">
      <defs>
       <path id="DejaVuSans-Oblique-50" d="M 1081 4666 
L 2541 4666 
Q 3178 4666 3512 4369 
Q 3847 4072 3847 3500 
Q 3847 2731 3353 2303 
Q 2859 1875 1966 1875 
L 1172 1875 
L 806 0 
L 172 0 
L 1081 4666 
z
M 1613 4147 
L 1275 2394 
L 2069 2394 
Q 2606 2394 2893 2669 
Q 3181 2944 3181 3456 
Q 3181 3784 2986 3965 
Q 2791 4147 2438 4147 
L 1613 4147 
z
" transform="scale(0.015625)"/>
       <path id="DejaVuSans-Oblique-4e" d="M 1081 4666 
L 1931 4666 
L 3219 666 
L 4000 4666 
L 4616 4666 
L 3706 0 
L 2853 0 
L 1569 4025 
L 788 0 
L 172 0 
L 1081 4666 
z
" transform="scale(0.015625)"/>
      </defs>
      <use xlink:href="#DejaVuSans-Oblique-50" transform="translate(0 0.09375)"/>
      <use xlink:href="#DejaVuSans-Oblique-4e" transform="translate(60.302734 -16.3125) scale(0.7)"/>
      <use xlink:href="#DejaVuSans-Oblique-4e" transform="translate(112.666016 -16.3125) scale(0.7)"/>
     </g>
    </g>
   </g>
   <g id="line2d_12">
    <path d="M 152.293388 373.262613 
L 173.910124 363.050302 
L 209.938017 354.926545 
L 281.993802 345.744107 
L 498.161157 330.20094 
" clip-path="url(#pa73a5915c7)" style="fill: none; stroke: #1f77b4; stroke-width: 1.5; stroke-linecap: square"/>
    <defs>
     <path id="m8236e59ab3" d="M 0 3 
C 0.795609 3 1.55874 2.683901 2.12132 2.12132 
C 2.683901 1.55874 3 0.795609 3 0 
C 3 -0.795609 2.683901 -1.55874 2.12132 -2.12132 
C 1.55874 -2.683901 0.795609 -3 0 -3 
C -0.795609 -3 -1.55874 -2.683901 -2.12132 -2.12132 
C -2.683901 -1.55874 -3 -0.795609 -3 0 
C -3 0.795609 -2.683901 1.55874 -2.12132 2.12132 
C -1.55874 2.683901 -0.795609 3 0 3 
z
" style="stroke: #1f77b4"/>
    </defs>
    <g clip-path="url(#pa73a5915c7)">
     <use xlink:href="#m8236e59ab3" x="152.293388" y="373.262613" style="fill: #1f77b4; stroke: #1f77b4"/>
     <use xlink:href="#m8236e59ab3" x="173.910124" y="363.050302" style="fill: #1f77b4; stroke: #1f77b4"/>
     <use xlink:href="#m8236e59ab3" x="209.938017" y="354.926545" style="fill: #1f77b4; stroke: #1f77b4"/>
     <use xlink:href="#m8236e59ab3" x="281.993802" y="345.744107" style="fill: #1f77b4; stroke: #1f77b4"/>
     <use xlink:href="#m8236e59ab3" x="498.161157" y="330.20094" style="fill: #1f77b4; stroke: #1f77b4"/>
    </g>
   </g>
   <g id="line2d_13">
    <path d="M 152.293388 183.564246 
L 173.910124 179.689617 
L 209.938017 189.325776 
L 281.993802 201.533017 
L 498.161157 227.144457 
" clip-path="url(#pa73a5915c7)" style="fill: none; stroke: #ff7f0e; stroke-width: 1.5; stroke-linecap: square"/>
    <defs>
     <path id="mad5939460d" d="M 0 3 
C 0.795609 3 1.55874 2.683901 2.12132 2.12132 
C 2.683901 1.55874 3 0.795609 3 0 
C 3 -0.795609 2.683901 -1.55874 2.12132 -2.12132 
C 1.55874 -2.683901 0.795609 -3 0 -3 
C -0.795609 -3 -1.55874 -2.683901 -2.12132 -2.12132 
C -2.683901 -1.55874 -3 -0.795609 -3 0 
C -3 0.795609 -2.683901 1.55874 -2.12132 2.12132 
C -1.55874 2.683901 -0.795609 3 0 3 
z
" style="stroke: #ff7f0e"/>
    </defs>
    <g clip-path="url(#pa73a5915c7)">
     <use xlink:href="#mad5939460d" x="152.293388" y="183.564246" style="fill: #ff7f0e; stroke: #ff7f0e"/>
     <use xlink:href="#mad5939460d" x="173.910124" y="179.689617" style="fill: #ff7f0e; stroke: #ff7f0e"/>
     <use xlink:href="#mad5939460d" x="209.938017" y="189.325776" style="fill: #ff7f0e; stroke: #ff7f0e"/>
     <use xlink:href="#mad5939460d" x="281.993802" y="201.533017" style="fill: #ff7f0e; stroke: #ff7f0e"/>
     <use xlink:href="#mad5939460d" x="498.161157" y="227.144457" style="fill: #ff7f0e; stroke: #ff7f0e"/>
    </g>
   </g>
   <g id="line2d_14">
    <path d="M 152.293388 299.803109 
L 173.910124 245.889594 
L 209.938017 217.730118 
L 281.993802 210.448984 
L 498.161157 236.743166 
" clip-path="url(#pa73a5915c7)" style="fill: none; stroke: #2ca02c; stroke-width: 1.5; stroke-linecap: square"/>
    <defs>
     <path id="m98012e5f65" d="M 0 3 
C 0.795609 3 1.55874 2.683901 2.12132 2.12132 
C 2.683901 1.55874 3 0.795609 3 0 
C 3 -0.795609 2.683901 -1.55874 2.12132 -2.12132 
C 1.55874 -2.683901 0.795609 -3 0 -3 
C -0.795609 -3 -1.55874 -2.683901 -2.12132 -2.12132 
C -2.683901 -1.55874 -3 -0.795609 -3 0 
C -3 0.795609 -2.683901 1.55874 -2.12132 2.12132 
C -1.55874 2.683901 -0.795609 3 0 3 
z
" style="stroke: #2ca02c"/>
    </defs>
    <g clip-path="url(#pa73a5915c7)">
     <use xlink:href="#m98012e5f65" x="152.293388" y="299.803109" style="fill: #2ca02c; stroke: #2ca02c"/>
     <use xlink:href="#m98012e5f65" x="173.910124" y="245.889594" style="fill: #2ca02c; stroke: #2ca02c"/>
     <use xlink:href="#m98012e5f65" x="209.938017" y="217.730118" style="fill: #2ca02c; stroke: #2ca02c"/>
     <use xlink:href="#m98012e5f65" x="281.993802" y="210.448984" style="fill: #2ca02c; stroke: #2ca02c"/>
     <use xlink:href="#m98012e5f65" x="498.161157" y="236.743166" style="fill: #2ca02c; stroke: #2ca02c"/>
    </g>
   </g>
   <g id="line2d_15">
    <path d="M 152.293388 298.07465 
L 173.910124 263.46226 
L 209.938017 239.350258 
L 281.993802 223.362013 
L 498.161157 229.310792 
" clip-path="url(#pa73a5915c7)" style="fill: none; stroke: #d62728; stroke-width: 1.5; stroke-linecap: square"/>
    <defs>
     <path id="mc9d7a7e8bb" d="M 0 3 
C 0.795609 3 1.55874 2.683901 2.12132 2.12132 
C 2.683901 1.55874 3 0.795609 3 0 
C 3 -0.795609 2.683901 -1.55874 2.12132 -2.12132 
C 1.55874 -2.683901 0.795609 -3 0 -3 
C -0.795609 -3 -1.55874 -2.683901 -2.12132 -2.12132 
C -2.683901 -1.55874 -3 -0.795609 -3 0 
C -3 0.795609 -2.683901 1.55874 -2.12132 2.12132 
C -1.55874 2.683901 -0.795609 3 0 3 
z
" style="stroke: #d62728"/>
    </defs>
    <g clip-path="url(#pa73a5915c7)">
     <use xlink:href="#mc9d7a7e8bb" x="152.293388" y="298.07465" style="fill: #d62728; stroke: #d62728"/>
     <use xlink:href="#mc9d7a7e8bb" x="173.910124" y="263.46226" style="fill: #d62728; stroke: #d62728"/>
     <use xlink:href="#mc9d7a7e8bb" x="209.938017" y="239.350258" style="fill: #d62728; stroke: #d62728"/>
     <use xlink:href="#mc9d7a7e8bb" x="281.993802" y="223.362013" style="fill: #d62728; stroke: #d62728"/>
     <use xlink:href="#mc9d7a7e8bb" x="498.161157" y="229.310792" style="fill: #d62728; stroke: #d62728"/>
    </g>
   </g>
   <g id="patch_3">
    <path d="M 135 418.130526 
L 135 155.52 
" style="fill: none; stroke: #000000; stroke-width: 0.8; stroke-linejoin: miter; stroke-linecap: square"/>
   </g>
   <g id="patch_4">
    <path d="M 515.454545 418.130526 
L 515.454545 155.52 
" style="fill: none; stroke: #000000; stroke-width: 0.8; stroke-linejoin: miter; stroke-linecap: square"/>
   </g>
   <g id="patch_5">
    <path d="M 135 418.130526 
L 515.454545 418.130526 
" style="fill: none; stroke: #000000; stroke-width: 0.8; stroke-linejoin: miter; stroke-linecap: square"/>
   </g>
   <g id="patch_6">
    <path d="M 135 155.52 
L 515.454545 155.52 
" style="fill: none; stroke: #000000; stroke-width: 0.8; stroke-linejoin: miter; stroke-linecap: square"/>
   </g>
   <g id="text_14">
    <!-- a -->
    <g transform="translate(89.472557 137.404046) scale(0.28 -0.28)">
     <defs>
      <path id="DejaVuSans-Bold-61" d="M 2106 1575 
Q 1756 1575 1579 1456 
Q 1403 1338 1403 1106 
Q 1403 894 1545 773 
Q 1688 653 1941 653 
Q 2256 653 2472 879 
Q 2688 1106 2688 1447 
L 2688 1575 
L 2106 1575 
z
M 3816 1997 
L 3816 0 
L 2688 0 
L 2688 519 
Q 2463 200 2181 54 
Q 1900 -91 1497 -91 
Q 953 -91 614 226 
Q 275 544 275 1050 
Q 275 1666 698 1953 
Q 1122 2241 2028 2241 
L 2688 2241 
L 2688 2328 
Q 2688 2594 2478 2717 
Q 2269 2841 1825 2841 
Q 1466 2841 1156 2769 
Q 847 2697 581 2553 
L 581 3406 
Q 941 3494 1303 3539 
Q 1666 3584 2028 3584 
Q 2975 3584 3395 3211 
Q 3816 2838 3816 1997 
z
" transform="scale(0.015625)"/>
     </defs>
     <use xlink:href="#DejaVuSans-Bold-61"/>
    </g>
   </g>
   <g id="text_15">
    <!-- $P_{NN}$ -->
    <g transform="translate(303.387273 149.52) scale(0.26 -0.26)">
     <use xlink:href="#DejaVuSans-Oblique-50" transform="translate(0 0.09375)"/>
     <use xlink:href="#DejaVuSans-Oblique-4e" transform="translate(60.302734 -16.3125) scale(0.7)"/>
     <use xlink:href="#DejaVuSans-Oblique-4e" transform="translate(112.666016 -16.3125) scale(0.7)"/>
    </g>
   </g>
  </g>
  <g id="axes_2">
   <g id="patch_7">
    <path d="M 591.545455 418.130526 
L 972 418.130526 
L 972 155.52 
L 591.545455 155.52 
z
" style="fill: #ffffff"/>
   </g>
   <g id="patch_8">
    <path d="M 608.838843 418.130526 
L 628.792753 418.130526 
L 628.792753 187.090785 
L 608.838843 187.090785 
z
" clip-path="url(#pfcf1b1c096)" style="fill: #1f77b4"/>
   </g>
   <g id="patch_9">
    <path d="M 741.864908 418.130526 
L 761.818818 418.130526 
L 761.818818 290.804027 
L 741.864908 290.804027 
z
" clip-path="url(#pfcf1b1c096)" style="fill: #1f77b4"/>
   </g>
   <g id="patch_10">
    <path d="M 874.890973 418.130526 
L 894.844882 418.130526 
L 894.844882 168.025263 
L 874.890973 168.025263 
z
" clip-path="url(#pfcf1b1c096)" style="fill: #1f77b4"/>
   </g>
   <g id="patch_11">
    <path d="M 628.792753 418.130526 
L 648.746662 418.130526 
L 648.746662 183.850993 
L 628.792753 183.850993 
z
" clip-path="url(#pfcf1b1c096)" style="fill: #ff7f0e"/>
   </g>
   <g id="patch_12">
    <path d="M 761.818818 418.130526 
L 781.772727 418.130526 
L 781.772727 179.542445 
L 761.818818 179.542445 
z
" clip-path="url(#pfcf1b1c096)" style="fill: #ff7f0e"/>
   </g>
   <g id="patch_13">
    <path d="M 894.844882 418.130526 
L 914.798792 418.130526 
L 914.798792 183.794668 
L 894.844882 183.794668 
z
" clip-path="url(#pfcf1b1c096)" style="fill: #ff7f0e"/>
   </g>
   <g id="patch_14">
    <path d="M 648.746662 418.130526 
L 668.700572 418.130526 
L 668.700572 184.4162 
L 648.746662 184.4162 
z
" clip-path="url(#pfcf1b1c096)" style="fill: #2ca02c"/>
   </g>
   <g id="patch_15">
    <path d="M 781.772727 418.130526 
L 801.726637 418.130526 
L 801.726637 235.623995 
L 781.772727 235.623995 
z
" clip-path="url(#pfcf1b1c096)" style="fill: #2ca02c"/>
   </g>
   <g id="patch_16">
    <path d="M 914.798792 418.130526 
L 934.752702 418.130526 
L 934.752702 183.980712 
L 914.798792 183.980712 
z
" clip-path="url(#pfcf1b1c096)" style="fill: #2ca02c"/>
   </g>
   <g id="patch_17">
    <path d="M 668.700572 418.130526 
L 688.654482 418.130526 
L 688.654482 200.923827 
L 668.700572 200.923827 
z
" clip-path="url(#pfcf1b1c096)" style="fill: #d62728"/>
   </g>
   <g id="patch_18">
    <path d="M 801.726637 418.130526 
L 821.680547 418.130526 
L 821.680547 244.23266 
L 801.726637 244.23266 
z
" clip-path="url(#pfcf1b1c096)" style="fill: #d62728"/>
   </g>
   <g id="patch_19">
    <path d="M 934.752702 418.130526 
L 954.706612 418.130526 
L 954.706612 200.463945 
L 934.752702 200.463945 
z
" clip-path="url(#pfcf1b1c096)" style="fill: #d62728"/>
   </g>
   <g id="matplotlib.axis_3">
    <g id="xtick_7">
     <g id="line2d_16">
      <g>
       <use xlink:href="#m128101bfa4" x="648.746662" y="418.130526" style="stroke: #000000; stroke-width: 0.8"/>
      </g>
     </g>
     <g id="text_16">
      <!-- AUC -->
      <g transform="translate(625.490256 441.847089) scale(0.22 -0.22)">
       <defs>
        <path id="DejaVuSans-41" d="M 2188 4044 
L 1331 1722 
L 3047 1722 
L 2188 4044 
z
M 1831 4666 
L 2547 4666 
L 4325 0 
L 3669 0 
L 3244 1197 
L 1141 1197 
L 716 0 
L 50 0 
L 1831 4666 
z
" transform="scale(0.015625)"/>
        <path id="DejaVuSans-55" d="M 556 4666 
L 1191 4666 
L 1191 1831 
Q 1191 1081 1462 751 
Q 1734 422 2344 422 
Q 2950 422 3222 751 
Q 3494 1081 3494 1831 
L 3494 4666 
L 4128 4666 
L 4128 1753 
Q 4128 841 3676 375 
Q 3225 -91 2344 -91 
Q 1459 -91 1007 375 
Q 556 841 556 1753 
L 556 4666 
z
" transform="scale(0.015625)"/>
        <path id="DejaVuSans-43" d="M 4122 4306 
L 4122 3641 
Q 3803 3938 3442 4084 
Q 3081 4231 2675 4231 
Q 1875 4231 1450 3742 
Q 1025 3253 1025 2328 
Q 1025 1406 1450 917 
Q 1875 428 2675 428 
Q 3081 428 3442 575 
Q 3803 722 4122 1019 
L 4122 359 
Q 3791 134 3420 21 
Q 3050 -91 2638 -91 
Q 1578 -91 968 557 
Q 359 1206 359 2328 
Q 359 3453 968 4101 
Q 1578 4750 2638 4750 
Q 3056 4750 3426 4639 
Q 3797 4528 4122 4306 
z
" transform="scale(0.015625)"/>
       </defs>
       <use xlink:href="#DejaVuSans-41"/>
       <use xlink:href="#DejaVuSans-55" x="68.408203"/>
       <use xlink:href="#DejaVuSans-43" x="141.601562"/>
      </g>
     </g>
    </g>
    <g id="xtick_8">
     <g id="line2d_17">
      <g>
       <use xlink:href="#m128101bfa4" x="781.772727" y="418.130526" style="stroke: #000000; stroke-width: 0.8"/>
      </g>
     </g>
     <g id="text_17">
      <!-- $Q_{local}$ -->
      <g transform="translate(754.822727 441.847089) scale(0.22 -0.22)">
       <defs>
        <path id="DejaVuSans-Oblique-51" d="M 2309 -84 
Q 2275 -88 2237 -89 
Q 2200 -91 2125 -91 
Q 1250 -91 756 411 
Q 263 913 263 1797 
Q 263 2319 452 2844 
Q 641 3369 978 3788 
Q 1369 4269 1858 4509 
Q 2347 4750 2938 4750 
Q 3794 4750 4287 4245 
Q 4781 3741 4781 2869 
Q 4781 1928 4265 1147 
Q 3750 366 2919 44 
L 3553 -825 
L 2847 -825 
L 2309 -84 
z
M 2919 4238 
Q 2400 4238 2003 3986 
Q 1606 3734 1313 3219 
Q 1125 2891 1026 2522 
Q 928 2153 928 1778 
Q 928 1128 1239 775 
Q 1550 422 2119 422 
Q 2631 422 3032 676 
Q 3434 931 3719 1434 
Q 3909 1772 4009 2142 
Q 4109 2513 4109 2881 
Q 4109 3528 3796 3883 
Q 3484 4238 2919 4238 
z
" transform="scale(0.015625)"/>
        <path id="DejaVuSans-Oblique-6c" d="M 1172 4863 
L 1747 4863 
L 800 0 
L 225 0 
L 1172 4863 
z
" transform="scale(0.015625)"/>
        <path id="DejaVuSans-Oblique-6f" d="M 1625 -91 
Q 1009 -91 651 289 
Q 294 669 294 1325 
Q 294 1706 417 2101 
Q 541 2497 738 2766 
Q 1047 3184 1428 3384 
Q 1809 3584 2291 3584 
Q 2888 3584 3255 3212 
Q 3622 2841 3622 2241 
Q 3622 1825 3500 1412 
Q 3378 1000 3181 728 
Q 2875 309 2494 109 
Q 2113 -91 1625 -91 
z
M 891 1344 
Q 891 869 1089 633 
Q 1288 397 1691 397 
Q 2269 397 2648 901 
Q 3028 1406 3028 2181 
Q 3028 2634 2825 2865 
Q 2622 3097 2228 3097 
Q 1903 3097 1650 2945 
Q 1397 2794 1197 2484 
Q 1050 2253 970 1956 
Q 891 1659 891 1344 
z
" transform="scale(0.015625)"/>
        <path id="DejaVuSans-Oblique-63" d="M 3431 3366 
L 3316 2797 
Q 3109 2947 2876 3022 
Q 2644 3097 2394 3097 
Q 2119 3097 1870 3000 
Q 1622 2903 1453 2725 
Q 1184 2453 1037 2087 
Q 891 1722 891 1331 
Q 891 859 1127 628 
Q 1363 397 1844 397 
Q 2081 397 2348 469 
Q 2616 541 2906 684 
L 2797 116 
Q 2547 13 2283 -39 
Q 2019 -91 1741 -91 
Q 1044 -91 669 257 
Q 294 606 294 1253 
Q 294 1797 489 2255 
Q 684 2713 1069 3078 
Q 1331 3328 1684 3456 
Q 2038 3584 2456 3584 
Q 2700 3584 2940 3529 
Q 3181 3475 3431 3366 
z
" transform="scale(0.015625)"/>
        <path id="DejaVuSans-Oblique-61" d="M 3438 1997 
L 3047 0 
L 2472 0 
L 2578 531 
Q 2325 219 2001 64 
Q 1678 -91 1281 -91 
Q 834 -91 548 182 
Q 263 456 263 884 
Q 263 1497 752 1853 
Q 1241 2209 2100 2209 
L 2900 2209 
L 2931 2363 
Q 2938 2388 2941 2417 
Q 2944 2447 2944 2509 
Q 2944 2788 2717 2942 
Q 2491 3097 2081 3097 
Q 1800 3097 1504 3025 
Q 1209 2953 897 2809 
L 997 3341 
Q 1322 3463 1633 3523 
Q 1944 3584 2234 3584 
Q 2853 3584 3176 3315 
Q 3500 3047 3500 2534 
Q 3500 2431 3484 2292 
Q 3469 2153 3438 1997 
z
M 2816 1759 
L 2241 1759 
Q 1534 1759 1195 1570 
Q 856 1381 856 984 
Q 856 709 1029 553 
Q 1203 397 1509 397 
Q 1978 397 2328 733 
Q 2678 1069 2791 1631 
L 2816 1759 
z
" transform="scale(0.015625)"/>
       </defs>
       <use xlink:href="#DejaVuSans-Oblique-51" transform="translate(0 0.78125)"/>
       <use xlink:href="#DejaVuSans-Oblique-6c" transform="translate(78.710938 -15.625) scale(0.7)"/>
       <use xlink:href="#DejaVuSans-Oblique-6f" transform="translate(98.15918 -15.625) scale(0.7)"/>
       <use xlink:href="#DejaVuSans-Oblique-63" transform="translate(140.986328 -15.625) scale(0.7)"/>
       <use xlink:href="#DejaVuSans-Oblique-61" transform="translate(179.472656 -15.625) scale(0.7)"/>
       <use xlink:href="#DejaVuSans-Oblique-6c" transform="translate(222.368164 -15.625) scale(0.7)"/>
      </g>
     </g>
    </g>
    <g id="xtick_9">
     <g id="line2d_18">
      <g>
       <use xlink:href="#m128101bfa4" x="914.798792" y="418.130526" style="stroke: #000000; stroke-width: 0.8"/>
      </g>
     </g>
     <g id="text_18">
      <!-- $Q_{global}$ -->
      <g transform="translate(882.348792 441.630526) scale(0.22 -0.22)">
       <defs>
        <path id="DejaVuSans-Oblique-67" d="M 3816 3500 
L 3219 434 
Q 3047 -456 2561 -893 
Q 2075 -1331 1253 -1331 
Q 950 -1331 690 -1286 
Q 431 -1241 206 -1147 
L 313 -588 
Q 525 -725 762 -790 
Q 1000 -856 1269 -856 
Q 1816 -856 2167 -557 
Q 2519 -259 2631 300 
L 2681 563 
Q 2441 288 2122 144 
Q 1803 0 1434 0 
Q 903 0 598 351 
Q 294 703 294 1319 
Q 294 1803 478 2267 
Q 663 2731 997 3091 
Q 1219 3328 1514 3456 
Q 1809 3584 2131 3584 
Q 2484 3584 2746 3420 
Q 3009 3256 3138 2956 
L 3238 3500 
L 3816 3500 
z
M 2950 2216 
Q 2950 2641 2750 2872 
Q 2550 3103 2181 3103 
Q 1953 3103 1747 3012 
Q 1541 2922 1394 2759 
Q 1156 2491 1023 2127 
Q 891 1763 891 1375 
Q 891 944 1092 712 
Q 1294 481 1672 481 
Q 2219 481 2584 976 
Q 2950 1472 2950 2216 
z
" transform="scale(0.015625)"/>
        <path id="DejaVuSans-Oblique-62" d="M 3169 2138 
Q 3169 2591 2961 2847 
Q 2753 3103 2388 3103 
Q 2122 3103 1889 2973 
Q 1656 2844 1484 2597 
Q 1303 2338 1198 1995 
Q 1094 1653 1094 1313 
Q 1094 881 1298 636 
Q 1503 391 1863 391 
Q 2134 391 2365 517 
Q 2597 644 2772 891 
Q 2950 1147 3059 1487 
Q 3169 1828 3169 2138 
z
M 1381 2969 
Q 1594 3256 1914 3420 
Q 2234 3584 2584 3584 
Q 3122 3584 3439 3221 
Q 3756 2859 3756 2241 
Q 3756 1734 3570 1259 
Q 3384 784 3041 416 
Q 2816 172 2522 40 
Q 2228 -91 1906 -91 
Q 1566 -91 1316 65 
Q 1066 222 909 531 
L 806 0 
L 231 0 
L 1178 4863 
L 1753 4863 
L 1381 2969 
z
" transform="scale(0.015625)"/>
       </defs>
       <use xlink:href="#DejaVuSans-Oblique-51" transform="translate(0 0.78125)"/>
       <use xlink:href="#DejaVuSans-Oblique-67" transform="translate(78.710938 -15.625) scale(0.7)"/>
       <use xlink:href="#DejaVuSans-Oblique-6c" transform="translate(123.144531 -15.625) scale(0.7)"/>
       <use xlink:href="#DejaVuSans-Oblique-6f" transform="translate(142.592773 -15.625) scale(0.7)"/>
       <use xlink:href="#DejaVuSans-Oblique-62" transform="translate(185.419922 -15.625) scale(0.7)"/>
       <use xlink:href="#DejaVuSans-Oblique-61" transform="translate(229.853516 -15.625) scale(0.7)"/>
       <use xlink:href="#DejaVuSans-Oblique-6c" transform="translate(272.749023 -15.625) scale(0.7)"/>
      </g>
     </g>
    </g>
   </g>
   <g id="matplotlib.axis_4">
    <g id="ytick_6">
     <g id="line2d_19">
      <g>
       <use xlink:href="#m7930acb194" x="591.545455" y="418.130526" style="stroke: #000000; stroke-width: 0.8"/>
      </g>
     </g>
     <g id="text_19">
      <!-- 0.0 -->
      <g transform="translate(549.55858 426.488808) scale(0.22 -0.22)">
       <use xlink:href="#DejaVuSans-30"/>
       <use xlink:href="#DejaVuSans-2e" x="63.623047"/>
       <use xlink:href="#DejaVuSans-30" x="95.410156"/>
      </g>
     </g>
    </g>
    <g id="ytick_7">
     <g id="line2d_20">
      <g>
       <use xlink:href="#m7930acb194" x="591.545455" y="351.939896" style="stroke: #000000; stroke-width: 0.8"/>
      </g>
     </g>
     <g id="text_20">
      <!-- 0.2 -->
      <g transform="translate(549.55858 360.298177) scale(0.22 -0.22)">
       <use xlink:href="#DejaVuSans-30"/>
       <use xlink:href="#DejaVuSans-2e" x="63.623047"/>
       <use xlink:href="#DejaVuSans-32" x="95.410156"/>
      </g>
     </g>
    </g>
    <g id="ytick_8">
     <g id="line2d_21">
      <g>
       <use xlink:href="#m7930acb194" x="591.545455" y="285.749266" style="stroke: #000000; stroke-width: 0.8"/>
      </g>
     </g>
     <g id="text_21">
      <!-- 0.4 -->
      <g transform="translate(549.55858 294.107547) scale(0.22 -0.22)">
       <use xlink:href="#DejaVuSans-30"/>
       <use xlink:href="#DejaVuSans-2e" x="63.623047"/>
       <use xlink:href="#DejaVuSans-34" x="95.410156"/>
      </g>
     </g>
    </g>
    <g id="ytick_9">
     <g id="line2d_22">
      <g>
       <use xlink:href="#m7930acb194" x="591.545455" y="219.558636" style="stroke: #000000; stroke-width: 0.8"/>
      </g>
     </g>
     <g id="text_22">
      <!-- 0.6 -->
      <g transform="translate(549.55858 227.916917) scale(0.22 -0.22)">
       <use xlink:href="#DejaVuSans-30"/>
       <use xlink:href="#DejaVuSans-2e" x="63.623047"/>
       <use xlink:href="#DejaVuSans-36" x="95.410156"/>
      </g>
     </g>
    </g>
    <g id="text_23">
     <!-- Metric Value -->
     <g transform="translate(540.983267 354.727919) rotate(-90) scale(0.22 -0.22)">
      <defs>
       <path id="DejaVuSans-4d" d="M 628 4666 
L 1569 4666 
L 2759 1491 
L 3956 4666 
L 4897 4666 
L 4897 0 
L 4281 0 
L 4281 4097 
L 3078 897 
L 2444 897 
L 1241 4097 
L 1241 0 
L 628 0 
L 628 4666 
z
" transform="scale(0.015625)"/>
       <path id="DejaVuSans-65" d="M 3597 1894 
L 3597 1613 
L 953 1613 
Q 991 1019 1311 708 
Q 1631 397 2203 397 
Q 2534 397 2845 478 
Q 3156 559 3463 722 
L 3463 178 
Q 3153 47 2828 -22 
Q 2503 -91 2169 -91 
Q 1331 -91 842 396 
Q 353 884 353 1716 
Q 353 2575 817 3079 
Q 1281 3584 2069 3584 
Q 2775 3584 3186 3129 
Q 3597 2675 3597 1894 
z
M 3022 2063 
Q 3016 2534 2758 2815 
Q 2500 3097 2075 3097 
Q 1594 3097 1305 2825 
Q 1016 2553 972 2059 
L 3022 2063 
z
" transform="scale(0.015625)"/>
       <path id="DejaVuSans-74" d="M 1172 4494 
L 1172 3500 
L 2356 3500 
L 2356 3053 
L 1172 3053 
L 1172 1153 
Q 1172 725 1289 603 
Q 1406 481 1766 481 
L 2356 481 
L 2356 0 
L 1766 0 
Q 1100 0 847 248 
Q 594 497 594 1153 
L 594 3053 
L 172 3053 
L 172 3500 
L 594 3500 
L 594 4494 
L 1172 4494 
z
" transform="scale(0.015625)"/>
       <path id="DejaVuSans-72" d="M 2631 2963 
Q 2534 3019 2420 3045 
Q 2306 3072 2169 3072 
Q 1681 3072 1420 2755 
Q 1159 2438 1159 1844 
L 1159 0 
L 581 0 
L 581 3500 
L 1159 3500 
L 1159 2956 
Q 1341 3275 1631 3429 
Q 1922 3584 2338 3584 
Q 2397 3584 2469 3576 
Q 2541 3569 2628 3553 
L 2631 2963 
z
" transform="scale(0.015625)"/>
       <path id="DejaVuSans-69" d="M 603 3500 
L 1178 3500 
L 1178 0 
L 603 0 
L 603 3500 
z
M 603 4863 
L 1178 4863 
L 1178 4134 
L 603 4134 
L 603 4863 
z
" transform="scale(0.015625)"/>
       <path id="DejaVuSans-63" d="M 3122 3366 
L 3122 2828 
Q 2878 2963 2633 3030 
Q 2388 3097 2138 3097 
Q 1578 3097 1268 2742 
Q 959 2388 959 1747 
Q 959 1106 1268 751 
Q 1578 397 2138 397 
Q 2388 397 2633 464 
Q 2878 531 3122 666 
L 3122 134 
Q 2881 22 2623 -34 
Q 2366 -91 2075 -91 
Q 1284 -91 818 406 
Q 353 903 353 1747 
Q 353 2603 823 3093 
Q 1294 3584 2113 3584 
Q 2378 3584 2631 3529 
Q 2884 3475 3122 3366 
z
" transform="scale(0.015625)"/>
       <path id="DejaVuSans-20" transform="scale(0.015625)"/>
       <path id="DejaVuSans-56" d="M 1831 0 
L 50 4666 
L 709 4666 
L 2188 738 
L 3669 4666 
L 4325 4666 
L 2547 0 
L 1831 0 
z
" transform="scale(0.015625)"/>
       <path id="DejaVuSans-61" d="M 2194 1759 
Q 1497 1759 1228 1600 
Q 959 1441 959 1056 
Q 959 750 1161 570 
Q 1363 391 1709 391 
Q 2188 391 2477 730 
Q 2766 1069 2766 1631 
L 2766 1759 
L 2194 1759 
z
M 3341 1997 
L 3341 0 
L 2766 0 
L 2766 531 
Q 2569 213 2275 61 
Q 1981 -91 1556 -91 
Q 1019 -91 701 211 
Q 384 513 384 1019 
Q 384 1609 779 1909 
Q 1175 2209 1959 2209 
L 2766 2209 
L 2766 2266 
Q 2766 2663 2505 2880 
Q 2244 3097 1772 3097 
Q 1472 3097 1187 3025 
Q 903 2953 641 2809 
L 641 3341 
Q 956 3463 1253 3523 
Q 1550 3584 1831 3584 
Q 2591 3584 2966 3190 
Q 3341 2797 3341 1997 
z
" transform="scale(0.015625)"/>
       <path id="DejaVuSans-6c" d="M 603 4863 
L 1178 4863 
L 1178 0 
L 603 0 
L 603 4863 
z
" transform="scale(0.015625)"/>
       <path id="DejaVuSans-75" d="M 544 1381 
L 544 3500 
L 1119 3500 
L 1119 1403 
Q 1119 906 1312 657 
Q 1506 409 1894 409 
Q 2359 409 2629 706 
Q 2900 1003 2900 1516 
L 2900 3500 
L 3475 3500 
L 3475 0 
L 2900 0 
L 2900 538 
Q 2691 219 2414 64 
Q 2138 -91 1772 -91 
Q 1169 -91 856 284 
Q 544 659 544 1381 
z
M 1991 3584 
L 1991 3584 
z
" transform="scale(0.015625)"/>
      </defs>
      <use xlink:href="#DejaVuSans-4d"/>
      <use xlink:href="#DejaVuSans-65" x="86.279297"/>
      <use xlink:href="#DejaVuSans-74" x="147.802734"/>
      <use xlink:href="#DejaVuSans-72" x="187.011719"/>
      <use xlink:href="#DejaVuSans-69" x="228.125"/>
      <use xlink:href="#DejaVuSans-63" x="255.908203"/>
      <use xlink:href="#DejaVuSans-20" x="310.888672"/>
      <use xlink:href="#DejaVuSans-56" x="342.675781"/>
      <use xlink:href="#DejaVuSans-61" x="403.333984"/>
      <use xlink:href="#DejaVuSans-6c" x="464.613281"/>
      <use xlink:href="#DejaVuSans-75" x="492.396484"/>
      <use xlink:href="#DejaVuSans-65" x="555.775391"/>
     </g>
    </g>
   </g>
   <g id="patch_20">
    <path d="M 591.545455 418.130526 
L 591.545455 155.52 
" style="fill: none; stroke: #000000; stroke-width: 0.8; stroke-linejoin: miter; stroke-linecap: square"/>
   </g>
   <g id="patch_21">
    <path d="M 972 418.130526 
L 972 155.52 
" style="fill: none; stroke: #000000; stroke-width: 0.8; stroke-linejoin: miter; stroke-linecap: square"/>
   </g>
   <g id="patch_22">
    <path d="M 591.545455 418.130526 
L 972 418.130526 
" style="fill: none; stroke: #000000; stroke-width: 0.8; stroke-linejoin: miter; stroke-linecap: square"/>
   </g>
   <g id="patch_23">
    <path d="M 591.545455 155.52 
L 972 155.52 
" style="fill: none; stroke: #000000; stroke-width: 0.8; stroke-linejoin: miter; stroke-linecap: square"/>
   </g>
   <g id="text_24">
    <!-- b -->
    <g transform="translate(544.871761 137.404046) scale(0.28 -0.28)">
     <defs>
      <path id="DejaVuSans-Bold-62" d="M 2400 722 
Q 2759 722 2948 984 
Q 3138 1247 3138 1747 
Q 3138 2247 2948 2509 
Q 2759 2772 2400 2772 
Q 2041 2772 1848 2508 
Q 1656 2244 1656 1747 
Q 1656 1250 1848 986 
Q 2041 722 2400 722 
z
M 1656 2988 
Q 1888 3294 2169 3439 
Q 2450 3584 2816 3584 
Q 3463 3584 3878 3070 
Q 4294 2556 4294 1747 
Q 4294 938 3878 423 
Q 3463 -91 2816 -91 
Q 2450 -91 2169 54 
Q 1888 200 1656 506 
L 1656 0 
L 538 0 
L 538 4863 
L 1656 4863 
L 1656 2988 
z
" transform="scale(0.015625)"/>
     </defs>
     <use xlink:href="#DejaVuSans-Bold-62"/>
    </g>
   </g>
   <g id="text_25">
    <!-- Metrics -->
    <g transform="translate(734.584759 149.52) scale(0.26 -0.26)">
     <defs>
      <path id="DejaVuSans-73" d="M 2834 3397 
L 2834 2853 
Q 2591 2978 2328 3040 
Q 2066 3103 1784 3103 
Q 1356 3103 1142 2972 
Q 928 2841 928 2578 
Q 928 2378 1081 2264 
Q 1234 2150 1697 2047 
L 1894 2003 
Q 2506 1872 2764 1633 
Q 3022 1394 3022 966 
Q 3022 478 2636 193 
Q 2250 -91 1575 -91 
Q 1294 -91 989 -36 
Q 684 19 347 128 
L 347 722 
Q 666 556 975 473 
Q 1284 391 1588 391 
Q 1994 391 2212 530 
Q 2431 669 2431 922 
Q 2431 1156 2273 1281 
Q 2116 1406 1581 1522 
L 1381 1569 
Q 847 1681 609 1914 
Q 372 2147 372 2553 
Q 372 3047 722 3315 
Q 1072 3584 1716 3584 
Q 2034 3584 2315 3537 
Q 2597 3491 2834 3397 
z
" transform="scale(0.015625)"/>
     </defs>
     <use xlink:href="#DejaVuSans-4d"/>
     <use xlink:href="#DejaVuSans-65" x="86.279297"/>
     <use xlink:href="#DejaVuSans-74" x="147.802734"/>
     <use xlink:href="#DejaVuSans-72" x="187.011719"/>
     <use xlink:href="#DejaVuSans-69" x="228.125"/>
     <use xlink:href="#DejaVuSans-63" x="255.908203"/>
     <use xlink:href="#DejaVuSans-73" x="310.888672"/>
    </g>
   </g>
  </g>
  <g id="axes_3">
   <g id="patch_24">
    <path d="M 135 785.785263 
L 515.454545 785.785263 
L 515.454545 523.174737 
L 135 523.174737 
z
" style="fill: #ffffff"/>
   </g>
   <g id="matplotlib.axis_5">
    <g id="xtick_10">
     <g id="line2d_23">
      <g>
       <use xlink:href="#m128101bfa4" x="137.882231" y="785.785263" style="stroke: #000000; stroke-width: 0.8"/>
      </g>
     </g>
     <g id="text_26">
      <!-- 0 -->
      <g transform="translate(130.883481 809.501826) scale(0.22 -0.22)">
       <use xlink:href="#DejaVuSans-30"/>
      </g>
     </g>
    </g>
    <g id="xtick_11">
     <g id="line2d_24">
      <g>
       <use xlink:href="#m128101bfa4" x="281.993802" y="785.785263" style="stroke: #000000; stroke-width: 0.8"/>
      </g>
     </g>
     <g id="text_27">
      <!-- 20 -->
      <g transform="translate(267.996302 809.501826) scale(0.22 -0.22)">
       <use xlink:href="#DejaVuSans-32"/>
       <use xlink:href="#DejaVuSans-30" x="63.623047"/>
      </g>
     </g>
    </g>
    <g id="xtick_12">
     <g id="line2d_25">
      <g>
       <use xlink:href="#m128101bfa4" x="426.105372" y="785.785263" style="stroke: #000000; stroke-width: 0.8"/>
      </g>
     </g>
     <g id="text_28">
      <!-- 40 -->
      <g transform="translate(412.107872 809.501826) scale(0.22 -0.22)">
       <use xlink:href="#DejaVuSans-34"/>
       <use xlink:href="#DejaVuSans-30" x="63.623047"/>
      </g>
     </g>
    </g>
    <g id="text_29">
     <!-- k -->
     <g transform="translate(318.278523 836.313388) scale(0.24 -0.24)">
      <use xlink:href="#DejaVuSans-6b"/>
     </g>
    </g>
   </g>
   <g id="matplotlib.axis_6">
    <g id="ytick_10">
     <g id="line2d_26">
      <g>
       <use xlink:href="#m7930acb194" x="135" y="774.771677" style="stroke: #000000; stroke-width: 0.8"/>
      </g>
     </g>
     <g id="text_30">
      <!-- 0.80 -->
      <g transform="translate(79.015625 783.129958) scale(0.22 -0.22)">
       <use xlink:href="#DejaVuSans-30"/>
       <use xlink:href="#DejaVuSans-2e" x="63.623047"/>
       <use xlink:href="#DejaVuSans-38" x="95.410156"/>
       <use xlink:href="#DejaVuSans-30" x="159.033203"/>
      </g>
     </g>
    </g>
    <g id="ytick_11">
     <g id="line2d_27">
      <g>
       <use xlink:href="#m7930acb194" x="135" y="713.857999" style="stroke: #000000; stroke-width: 0.8"/>
      </g>
     </g>
     <g id="text_31">
      <!-- 0.85 -->
      <g transform="translate(79.015625 722.21628) scale(0.22 -0.22)">
       <use xlink:href="#DejaVuSans-30"/>
       <use xlink:href="#DejaVuSans-2e" x="63.623047"/>
       <use xlink:href="#DejaVuSans-38" x="95.410156"/>
       <use xlink:href="#DejaVuSans-35" x="159.033203"/>
      </g>
     </g>
    </g>
    <g id="ytick_12">
     <g id="line2d_28">
      <g>
       <use xlink:href="#m7930acb194" x="135" y="652.944321" style="stroke: #000000; stroke-width: 0.8"/>
      </g>
     </g>
     <g id="text_32">
      <!-- 0.90 -->
      <g transform="translate(79.015625 661.302602) scale(0.22 -0.22)">
       <defs>
        <path id="DejaVuSans-39" d="M 703 97 
L 703 672 
Q 941 559 1184 500 
Q 1428 441 1663 441 
Q 2288 441 2617 861 
Q 2947 1281 2994 2138 
Q 2813 1869 2534 1725 
Q 2256 1581 1919 1581 
Q 1219 1581 811 2004 
Q 403 2428 403 3163 
Q 403 3881 828 4315 
Q 1253 4750 1959 4750 
Q 2769 4750 3195 4129 
Q 3622 3509 3622 2328 
Q 3622 1225 3098 567 
Q 2575 -91 1691 -91 
Q 1453 -91 1209 -44 
Q 966 3 703 97 
z
M 1959 2075 
Q 2384 2075 2632 2365 
Q 2881 2656 2881 3163 
Q 2881 3666 2632 3958 
Q 2384 4250 1959 4250 
Q 1534 4250 1286 3958 
Q 1038 3666 1038 3163 
Q 1038 2656 1286 2365 
Q 1534 2075 1959 2075 
z
" transform="scale(0.015625)"/>
       </defs>
       <use xlink:href="#DejaVuSans-30"/>
       <use xlink:href="#DejaVuSans-2e" x="63.623047"/>
       <use xlink:href="#DejaVuSans-39" x="95.410156"/>
       <use xlink:href="#DejaVuSans-30" x="159.033203"/>
      </g>
     </g>
    </g>
    <g id="ytick_13">
     <g id="line2d_29">
      <g>
       <use xlink:href="#m7930acb194" x="135" y="592.030643" style="stroke: #000000; stroke-width: 0.8"/>
      </g>
     </g>
     <g id="text_33">
      <!-- 0.95 -->
      <g transform="translate(79.015625 600.388925) scale(0.22 -0.22)">
       <use xlink:href="#DejaVuSans-30"/>
       <use xlink:href="#DejaVuSans-2e" x="63.623047"/>
       <use xlink:href="#DejaVuSans-39" x="95.410156"/>
       <use xlink:href="#DejaVuSans-35" x="159.033203"/>
      </g>
     </g>
    </g>
    <g id="ytick_14">
     <g id="line2d_30">
      <g>
       <use xlink:href="#m7930acb194" x="135" y="531.116966" style="stroke: #000000; stroke-width: 0.8"/>
      </g>
     </g>
     <g id="text_34">
      <!-- 1.00 -->
      <g transform="translate(79.015625 539.475247) scale(0.22 -0.22)">
       <use xlink:href="#DejaVuSans-31"/>
       <use xlink:href="#DejaVuSans-2e" x="63.623047"/>
       <use xlink:href="#DejaVuSans-30" x="95.410156"/>
       <use xlink:href="#DejaVuSans-30" x="159.033203"/>
      </g>
     </g>
    </g>
    <g id="text_35">
     <!-- Metric Value -->
     <g transform="translate(70.024375 728.555625) rotate(-90) scale(0.24 -0.24)">
      <use xlink:href="#DejaVuSans-4d"/>
      <use xlink:href="#DejaVuSans-65" x="86.279297"/>
      <use xlink:href="#DejaVuSans-74" x="147.802734"/>
      <use xlink:href="#DejaVuSans-72" x="187.011719"/>
      <use xlink:href="#DejaVuSans-69" x="228.125"/>
      <use xlink:href="#DejaVuSans-63" x="255.908203"/>
      <use xlink:href="#DejaVuSans-20" x="310.888672"/>
      <use xlink:href="#DejaVuSans-56" x="342.675781"/>
      <use xlink:href="#DejaVuSans-61" x="403.333984"/>
      <use xlink:href="#DejaVuSans-6c" x="464.613281"/>
      <use xlink:href="#DejaVuSans-75" x="492.396484"/>
      <use xlink:href="#DejaVuSans-65" x="555.775391"/>
     </g>
    </g>
   </g>
   <g id="line2d_31">
    <path d="M 152.293388 743.913758 
L 173.910124 748.107736 
L 209.938017 756.23773 
L 281.993802 763.319719 
L 498.161157 773.848421 
" clip-path="url(#p5155de9bba)" style="fill: none; stroke: #1f77b4; stroke-width: 1.5; stroke-linecap: square"/>
    <g clip-path="url(#p5155de9bba)">
     <use xlink:href="#m8236e59ab3" x="152.293388" y="743.913758" style="fill: #1f77b4; stroke: #1f77b4"/>
     <use xlink:href="#m8236e59ab3" x="173.910124" y="748.107736" style="fill: #1f77b4; stroke: #1f77b4"/>
     <use xlink:href="#m8236e59ab3" x="209.938017" y="756.23773" style="fill: #1f77b4; stroke: #1f77b4"/>
     <use xlink:href="#m8236e59ab3" x="281.993802" y="763.319719" style="fill: #1f77b4; stroke: #1f77b4"/>
     <use xlink:href="#m8236e59ab3" x="498.161157" y="773.848421" style="fill: #1f77b4; stroke: #1f77b4"/>
    </g>
   </g>
   <g id="line2d_32">
    <path d="M 152.293388 535.111579 
L 173.910124 540.599644 
L 209.938017 548.437319 
L 281.993802 566.199286 
L 498.161157 607.983245 
" clip-path="url(#p5155de9bba)" style="fill: none; stroke: #ff7f0e; stroke-width: 1.5; stroke-linecap: square"/>
    <g clip-path="url(#p5155de9bba)">
     <use xlink:href="#mad5939460d" x="152.293388" y="535.111579" style="fill: #ff7f0e; stroke: #ff7f0e"/>
     <use xlink:href="#mad5939460d" x="173.910124" y="540.599644" style="fill: #ff7f0e; stroke: #ff7f0e"/>
     <use xlink:href="#mad5939460d" x="209.938017" y="548.437319" style="fill: #ff7f0e; stroke: #ff7f0e"/>
     <use xlink:href="#mad5939460d" x="281.993802" y="566.199286" style="fill: #ff7f0e; stroke: #ff7f0e"/>
     <use xlink:href="#mad5939460d" x="498.161157" y="607.983245" style="fill: #ff7f0e; stroke: #ff7f0e"/>
    </g>
   </g>
   <g id="line2d_33">
    <path d="M 152.293388 546.643312 
L 173.910124 547.77642 
L 209.938017 553.553816 
L 281.993802 569.345659 
L 498.161157 621.864729 
" clip-path="url(#p5155de9bba)" style="fill: none; stroke: #2ca02c; stroke-width: 1.5; stroke-linecap: square"/>
    <g clip-path="url(#p5155de9bba)">
     <use xlink:href="#m98012e5f65" x="152.293388" y="546.643312" style="fill: #2ca02c; stroke: #2ca02c"/>
     <use xlink:href="#m98012e5f65" x="173.910124" y="547.77642" style="fill: #2ca02c; stroke: #2ca02c"/>
     <use xlink:href="#m98012e5f65" x="209.938017" y="553.553816" style="fill: #2ca02c; stroke: #2ca02c"/>
     <use xlink:href="#m98012e5f65" x="281.993802" y="569.345659" style="fill: #2ca02c; stroke: #2ca02c"/>
     <use xlink:href="#m98012e5f65" x="498.161157" y="621.864729" style="fill: #2ca02c; stroke: #2ca02c"/>
    </g>
   </g>
   <g id="line2d_34">
    <path d="M 152.293388 548.036751 
L 173.910124 550.271339 
L 209.938017 553.104413 
L 281.993802 559.938802 
L 498.161157 594.259804 
" clip-path="url(#p5155de9bba)" style="fill: none; stroke: #d62728; stroke-width: 1.5; stroke-linecap: square"/>
    <g clip-path="url(#p5155de9bba)">
     <use xlink:href="#mc9d7a7e8bb" x="152.293388" y="548.036751" style="fill: #d62728; stroke: #d62728"/>
     <use xlink:href="#mc9d7a7e8bb" x="173.910124" y="550.271339" style="fill: #d62728; stroke: #d62728"/>
     <use xlink:href="#mc9d7a7e8bb" x="209.938017" y="553.104413" style="fill: #d62728; stroke: #d62728"/>
     <use xlink:href="#mc9d7a7e8bb" x="281.993802" y="559.938802" style="fill: #d62728; stroke: #d62728"/>
     <use xlink:href="#mc9d7a7e8bb" x="498.161157" y="594.259804" style="fill: #d62728; stroke: #d62728"/>
    </g>
   </g>
   <g id="patch_25">
    <path d="M 135 785.785263 
L 135 523.174737 
" style="fill: none; stroke: #000000; stroke-width: 0.8; stroke-linejoin: miter; stroke-linecap: square"/>
   </g>
   <g id="patch_26">
    <path d="M 515.454545 785.785263 
L 515.454545 523.174737 
" style="fill: none; stroke: #000000; stroke-width: 0.8; stroke-linejoin: miter; stroke-linecap: square"/>
   </g>
   <g id="patch_27">
    <path d="M 135 785.785263 
L 515.454545 785.785263 
" style="fill: none; stroke: #000000; stroke-width: 0.8; stroke-linejoin: miter; stroke-linecap: square"/>
   </g>
   <g id="patch_28">
    <path d="M 135 523.174737 
L 515.454545 523.174737 
" style="fill: none; stroke: #000000; stroke-width: 0.8; stroke-linejoin: miter; stroke-linecap: square"/>
   </g>
   <g id="text_36">
    <!-- c -->
    <g transform="translate(91.769432 505.058783) scale(0.28 -0.28)">
     <defs>
      <path id="DejaVuSans-Bold-63" d="M 3366 3391 
L 3366 2478 
Q 3138 2634 2908 2709 
Q 2678 2784 2431 2784 
Q 1963 2784 1702 2511 
Q 1441 2238 1441 1747 
Q 1441 1256 1702 982 
Q 1963 709 2431 709 
Q 2694 709 2930 787 
Q 3166 866 3366 1019 
L 3366 103 
Q 3103 6 2833 -42 
Q 2563 -91 2291 -91 
Q 1344 -91 809 395 
Q 275 881 275 1747 
Q 275 2613 809 3098 
Q 1344 3584 2291 3584 
Q 2566 3584 2833 3536 
Q 3100 3488 3366 3391 
z
" transform="scale(0.015625)"/>
     </defs>
     <use xlink:href="#DejaVuSans-Bold-63"/>
    </g>
   </g>
   <g id="text_37">
    <!-- Trustworthiness -->
    <g transform="translate(230.950398 517.174737) scale(0.24 -0.24)">
     <defs>
      <path id="DejaVuSans-54" d="M -19 4666 
L 3928 4666 
L 3928 4134 
L 2272 4134 
L 2272 0 
L 1638 0 
L 1638 4134 
L -19 4134 
L -19 4666 
z
" transform="scale(0.015625)"/>
      <path id="DejaVuSans-77" d="M 269 3500 
L 844 3500 
L 1563 769 
L 2278 3500 
L 2956 3500 
L 3675 769 
L 4391 3500 
L 4966 3500 
L 4050 0 
L 3372 0 
L 2619 2869 
L 1863 0 
L 1184 0 
L 269 3500 
z
" transform="scale(0.015625)"/>
      <path id="DejaVuSans-6f" d="M 1959 3097 
Q 1497 3097 1228 2736 
Q 959 2375 959 1747 
Q 959 1119 1226 758 
Q 1494 397 1959 397 
Q 2419 397 2687 759 
Q 2956 1122 2956 1747 
Q 2956 2369 2687 2733 
Q 2419 3097 1959 3097 
z
M 1959 3584 
Q 2709 3584 3137 3096 
Q 3566 2609 3566 1747 
Q 3566 888 3137 398 
Q 2709 -91 1959 -91 
Q 1206 -91 779 398 
Q 353 888 353 1747 
Q 353 2609 779 3096 
Q 1206 3584 1959 3584 
z
" transform="scale(0.015625)"/>
      <path id="DejaVuSans-68" d="M 3513 2113 
L 3513 0 
L 2938 0 
L 2938 2094 
Q 2938 2591 2744 2837 
Q 2550 3084 2163 3084 
Q 1697 3084 1428 2787 
Q 1159 2491 1159 1978 
L 1159 0 
L 581 0 
L 581 4863 
L 1159 4863 
L 1159 2956 
Q 1366 3272 1645 3428 
Q 1925 3584 2291 3584 
Q 2894 3584 3203 3211 
Q 3513 2838 3513 2113 
z
" transform="scale(0.015625)"/>
      <path id="DejaVuSans-6e" d="M 3513 2113 
L 3513 0 
L 2938 0 
L 2938 2094 
Q 2938 2591 2744 2837 
Q 2550 3084 2163 3084 
Q 1697 3084 1428 2787 
Q 1159 2491 1159 1978 
L 1159 0 
L 581 0 
L 581 3500 
L 1159 3500 
L 1159 2956 
Q 1366 3272 1645 3428 
Q 1925 3584 2291 3584 
Q 2894 3584 3203 3211 
Q 3513 2838 3513 2113 
z
" transform="scale(0.015625)"/>
     </defs>
     <use xlink:href="#DejaVuSans-54"/>
     <use xlink:href="#DejaVuSans-72" x="46.333984"/>
     <use xlink:href="#DejaVuSans-75" x="87.447266"/>
     <use xlink:href="#DejaVuSans-73" x="150.826172"/>
     <use xlink:href="#DejaVuSans-74" x="202.925781"/>
     <use xlink:href="#DejaVuSans-77" x="242.134766"/>
     <use xlink:href="#DejaVuSans-6f" x="323.921875"/>
     <use xlink:href="#DejaVuSans-72" x="385.103516"/>
     <use xlink:href="#DejaVuSans-74" x="426.216797"/>
     <use xlink:href="#DejaVuSans-68" x="465.425781"/>
     <use xlink:href="#DejaVuSans-69" x="528.804688"/>
     <use xlink:href="#DejaVuSans-6e" x="556.587891"/>
     <use xlink:href="#DejaVuSans-65" x="619.966797"/>
     <use xlink:href="#DejaVuSans-73" x="681.490234"/>
     <use xlink:href="#DejaVuSans-73" x="733.589844"/>
    </g>
   </g>
  </g>
  <g id="axes_4">
   <g id="patch_29">
    <path d="M 591.545455 785.785263 
L 972 785.785263 
L 972 523.174737 
L 591.545455 523.174737 
z
" style="fill: #ffffff"/>
   </g>
   <g id="matplotlib.axis_7">
    <g id="xtick_13">
     <g id="line2d_35">
      <g>
       <use xlink:href="#m128101bfa4" x="594.427686" y="785.785263" style="stroke: #000000; stroke-width: 0.8"/>
      </g>
     </g>
     <g id="text_38">
      <!-- 0 -->
      <g transform="translate(587.428936 809.501826) scale(0.22 -0.22)">
       <use xlink:href="#DejaVuSans-30"/>
      </g>
     </g>
    </g>
    <g id="xtick_14">
     <g id="line2d_36">
      <g>
       <use xlink:href="#m128101bfa4" x="738.539256" y="785.785263" style="stroke: #000000; stroke-width: 0.8"/>
      </g>
     </g>
     <g id="text_39">
      <!-- 20 -->
      <g transform="translate(724.541756 809.501826) scale(0.22 -0.22)">
       <use xlink:href="#DejaVuSans-32"/>
       <use xlink:href="#DejaVuSans-30" x="63.623047"/>
      </g>
     </g>
    </g>
    <g id="xtick_15">
     <g id="line2d_37">
      <g>
       <use xlink:href="#m128101bfa4" x="882.650826" y="785.785263" style="stroke: #000000; stroke-width: 0.8"/>
      </g>
     </g>
     <g id="text_40">
      <!-- 40 -->
      <g transform="translate(868.653326 809.501826) scale(0.22 -0.22)">
       <use xlink:href="#DejaVuSans-34"/>
       <use xlink:href="#DejaVuSans-30" x="63.623047"/>
      </g>
     </g>
    </g>
    <g id="text_41">
     <!-- k -->
     <g transform="translate(774.823977 836.313388) scale(0.24 -0.24)">
      <use xlink:href="#DejaVuSans-6b"/>
     </g>
    </g>
   </g>
   <g id="matplotlib.axis_8">
    <g id="ytick_15">
     <g id="line2d_38">
      <g>
       <use xlink:href="#m7930acb194" x="591.545455" y="735.9866" style="stroke: #000000; stroke-width: 0.8"/>
      </g>
     </g>
     <g id="text_42">
      <!-- 0.900 -->
      <g transform="translate(521.56358 744.344881) scale(0.22 -0.22)">
       <use xlink:href="#DejaVuSans-30"/>
       <use xlink:href="#DejaVuSans-2e" x="63.623047"/>
       <use xlink:href="#DejaVuSans-39" x="95.410156"/>
       <use xlink:href="#DejaVuSans-30" x="159.033203"/>
       <use xlink:href="#DejaVuSans-30" x="222.65625"/>
      </g>
     </g>
    </g>
    <g id="ytick_16">
     <g id="line2d_39">
      <g>
       <use xlink:href="#m7930acb194" x="591.545455" y="683.11706" style="stroke: #000000; stroke-width: 0.8"/>
      </g>
     </g>
     <g id="text_43">
      <!-- 0.925 -->
      <g transform="translate(521.56358 691.475341) scale(0.22 -0.22)">
       <use xlink:href="#DejaVuSans-30"/>
       <use xlink:href="#DejaVuSans-2e" x="63.623047"/>
       <use xlink:href="#DejaVuSans-39" x="95.410156"/>
       <use xlink:href="#DejaVuSans-32" x="159.033203"/>
       <use xlink:href="#DejaVuSans-35" x="222.65625"/>
      </g>
     </g>
    </g>
    <g id="ytick_17">
     <g id="line2d_40">
      <g>
       <use xlink:href="#m7930acb194" x="591.545455" y="630.24752" style="stroke: #000000; stroke-width: 0.8"/>
      </g>
     </g>
     <g id="text_44">
      <!-- 0.950 -->
      <g transform="translate(521.56358 638.605802) scale(0.22 -0.22)">
       <use xlink:href="#DejaVuSans-30"/>
       <use xlink:href="#DejaVuSans-2e" x="63.623047"/>
       <use xlink:href="#DejaVuSans-39" x="95.410156"/>
       <use xlink:href="#DejaVuSans-35" x="159.033203"/>
       <use xlink:href="#DejaVuSans-30" x="222.65625"/>
      </g>
     </g>
    </g>
    <g id="ytick_18">
     <g id="line2d_41">
      <g>
       <use xlink:href="#m7930acb194" x="591.545455" y="577.377981" style="stroke: #000000; stroke-width: 0.8"/>
      </g>
     </g>
     <g id="text_45">
      <!-- 0.975 -->
      <g transform="translate(521.56358 585.736262) scale(0.22 -0.22)">
       <defs>
        <path id="DejaVuSans-37" d="M 525 4666 
L 3525 4666 
L 3525 4397 
L 1831 0 
L 1172 0 
L 2766 4134 
L 525 4134 
L 525 4666 
z
" transform="scale(0.015625)"/>
       </defs>
       <use xlink:href="#DejaVuSans-30"/>
       <use xlink:href="#DejaVuSans-2e" x="63.623047"/>
       <use xlink:href="#DejaVuSans-39" x="95.410156"/>
       <use xlink:href="#DejaVuSans-37" x="159.033203"/>
       <use xlink:href="#DejaVuSans-35" x="222.65625"/>
      </g>
     </g>
    </g>
    <g id="ytick_19">
     <g id="line2d_42">
      <g>
       <use xlink:href="#m7930acb194" x="591.545455" y="524.508441" style="stroke: #000000; stroke-width: 0.8"/>
      </g>
     </g>
     <g id="text_46">
      <!-- 1.000 -->
      <g transform="translate(521.56358 532.866722) scale(0.22 -0.22)">
       <use xlink:href="#DejaVuSans-31"/>
       <use xlink:href="#DejaVuSans-2e" x="63.623047"/>
       <use xlink:href="#DejaVuSans-30" x="95.410156"/>
       <use xlink:href="#DejaVuSans-30" x="159.033203"/>
       <use xlink:href="#DejaVuSans-30" x="222.65625"/>
      </g>
     </g>
    </g>
   </g>
   <g id="line2d_43">
    <path d="M 608.838843 579.080081 
L 630.455579 603.561729 
L 666.483471 632.839068 
L 738.539256 664.288545 
L 954.706612 718.517469 
" clip-path="url(#p00ec66e234)" style="fill: none; stroke: #1f77b4; stroke-width: 1.5; stroke-linecap: square"/>
    <g clip-path="url(#p00ec66e234)">
     <use xlink:href="#m8236e59ab3" x="608.838843" y="579.080081" style="fill: #1f77b4; stroke: #1f77b4"/>
     <use xlink:href="#m8236e59ab3" x="630.455579" y="603.561729" style="fill: #1f77b4; stroke: #1f77b4"/>
     <use xlink:href="#m8236e59ab3" x="666.483471" y="632.839068" style="fill: #1f77b4; stroke: #1f77b4"/>
     <use xlink:href="#m8236e59ab3" x="738.539256" y="664.288545" style="fill: #1f77b4; stroke: #1f77b4"/>
     <use xlink:href="#m8236e59ab3" x="954.706612" y="718.517469" style="fill: #1f77b4; stroke: #1f77b4"/>
    </g>
   </g>
   <g id="line2d_44">
    <path d="M 608.838843 535.111579 
L 630.455579 545.509531 
L 666.483471 562.406305 
L 738.539256 585.452966 
L 954.706612 637.317562 
" clip-path="url(#p00ec66e234)" style="fill: none; stroke: #ff7f0e; stroke-width: 1.5; stroke-linecap: square"/>
    <g clip-path="url(#p00ec66e234)">
     <use xlink:href="#mad5939460d" x="608.838843" y="535.111579" style="fill: #ff7f0e; stroke: #ff7f0e"/>
     <use xlink:href="#mad5939460d" x="630.455579" y="545.509531" style="fill: #ff7f0e; stroke: #ff7f0e"/>
     <use xlink:href="#mad5939460d" x="666.483471" y="562.406305" style="fill: #ff7f0e; stroke: #ff7f0e"/>
     <use xlink:href="#mad5939460d" x="738.539256" y="585.452966" style="fill: #ff7f0e; stroke: #ff7f0e"/>
     <use xlink:href="#mad5939460d" x="954.706612" y="637.317562" style="fill: #ff7f0e; stroke: #ff7f0e"/>
    </g>
   </g>
   <g id="line2d_45">
    <path d="M 608.838843 535.115657 
L 630.455579 544.287719 
L 666.483471 561.145967 
L 738.539256 590.402696 
L 954.706612 666.091377 
" clip-path="url(#p00ec66e234)" style="fill: none; stroke: #2ca02c; stroke-width: 1.5; stroke-linecap: square"/>
    <g clip-path="url(#p00ec66e234)">
     <use xlink:href="#m98012e5f65" x="608.838843" y="535.115657" style="fill: #2ca02c; stroke: #2ca02c"/>
     <use xlink:href="#m98012e5f65" x="630.455579" y="544.287719" style="fill: #2ca02c; stroke: #2ca02c"/>
     <use xlink:href="#m98012e5f65" x="666.483471" y="561.145967" style="fill: #2ca02c; stroke: #2ca02c"/>
     <use xlink:href="#m98012e5f65" x="738.539256" y="590.402696" style="fill: #2ca02c; stroke: #2ca02c"/>
     <use xlink:href="#m98012e5f65" x="954.706612" y="666.091377" style="fill: #2ca02c; stroke: #2ca02c"/>
    </g>
   </g>
   <g id="line2d_46">
    <path d="M 608.838843 571.974009 
L 630.455579 590.287939 
L 666.483471 615.642712 
L 738.539256 660.93784 
L 954.706612 773.848421 
" clip-path="url(#p00ec66e234)" style="fill: none; stroke: #d62728; stroke-width: 1.5; stroke-linecap: square"/>
    <g clip-path="url(#p00ec66e234)">
     <use xlink:href="#mc9d7a7e8bb" x="608.838843" y="571.974009" style="fill: #d62728; stroke: #d62728"/>
     <use xlink:href="#mc9d7a7e8bb" x="630.455579" y="590.287939" style="fill: #d62728; stroke: #d62728"/>
     <use xlink:href="#mc9d7a7e8bb" x="666.483471" y="615.642712" style="fill: #d62728; stroke: #d62728"/>
     <use xlink:href="#mc9d7a7e8bb" x="738.539256" y="660.93784" style="fill: #d62728; stroke: #d62728"/>
     <use xlink:href="#mc9d7a7e8bb" x="954.706612" y="773.848421" style="fill: #d62728; stroke: #d62728"/>
    </g>
   </g>
   <g id="patch_30">
    <path d="M 591.545455 785.785263 
L 591.545455 523.174737 
" style="fill: none; stroke: #000000; stroke-width: 0.8; stroke-linejoin: miter; stroke-linecap: square"/>
   </g>
   <g id="patch_31">
    <path d="M 972 785.785263 
L 972 523.174737 
" style="fill: none; stroke: #000000; stroke-width: 0.8; stroke-linejoin: miter; stroke-linecap: square"/>
   </g>
   <g id="patch_32">
    <path d="M 591.545455 785.785263 
L 972 785.785263 
" style="fill: none; stroke: #000000; stroke-width: 0.8; stroke-linejoin: miter; stroke-linecap: square"/>
   </g>
   <g id="patch_33">
    <path d="M 591.545455 523.174737 
L 972 523.174737 
" style="fill: none; stroke: #000000; stroke-width: 0.8; stroke-linejoin: miter; stroke-linecap: square"/>
   </g>
   <g id="text_47">
    <!-- d -->
    <g transform="translate(544.871761 505.058783) scale(0.28 -0.28)">
     <defs>
      <path id="DejaVuSans-Bold-64" d="M 2919 2988 
L 2919 4863 
L 4044 4863 
L 4044 0 
L 2919 0 
L 2919 506 
Q 2688 197 2409 53 
Q 2131 -91 1766 -91 
Q 1119 -91 703 423 
Q 288 938 288 1747 
Q 288 2556 703 3070 
Q 1119 3584 1766 3584 
Q 2128 3584 2408 3439 
Q 2688 3294 2919 2988 
z
M 2181 722 
Q 2541 722 2730 984 
Q 2919 1247 2919 1747 
Q 2919 2247 2730 2509 
Q 2541 2772 2181 2772 
Q 1825 2772 1636 2509 
Q 1447 2247 1447 1747 
Q 1447 1247 1636 984 
Q 1825 722 2181 722 
z
" transform="scale(0.015625)"/>
     </defs>
     <use xlink:href="#DejaVuSans-Bold-64"/>
    </g>
   </g>
   <g id="text_48">
    <!-- Continuity -->
    <g transform="translate(720.057102 517.174737) scale(0.24 -0.24)">
     <defs>
      <path id="DejaVuSans-79" d="M 2059 -325 
Q 1816 -950 1584 -1140 
Q 1353 -1331 966 -1331 
L 506 -1331 
L 506 -850 
L 844 -850 
Q 1081 -850 1212 -737 
Q 1344 -625 1503 -206 
L 1606 56 
L 191 3500 
L 800 3500 
L 1894 763 
L 2988 3500 
L 3597 3500 
L 2059 -325 
z
" transform="scale(0.015625)"/>
     </defs>
     <use xlink:href="#DejaVuSans-43"/>
     <use xlink:href="#DejaVuSans-6f" x="69.824219"/>
     <use xlink:href="#DejaVuSans-6e" x="131.005859"/>
     <use xlink:href="#DejaVuSans-74" x="194.384766"/>
     <use xlink:href="#DejaVuSans-69" x="233.59375"/>
     <use xlink:href="#DejaVuSans-6e" x="261.376953"/>
     <use xlink:href="#DejaVuSans-75" x="324.755859"/>
     <use xlink:href="#DejaVuSans-69" x="388.134766"/>
     <use xlink:href="#DejaVuSans-74" x="415.917969"/>
     <use xlink:href="#DejaVuSans-79" x="455.126953"/>
    </g>
   </g>
  </g>
  <g id="axes_5">
   <g id="patch_34">
    <path d="M 135 1153.44 
L 515.454545 1153.44 
L 515.454545 890.829474 
L 135 890.829474 
z
" style="fill: #ffffff"/>
   </g>
   <g id="matplotlib.axis_9">
    <g id="xtick_16">
     <g id="line2d_47">
      <g>
       <use xlink:href="#m128101bfa4" x="152.141492" y="1153.44" style="stroke: #000000; stroke-width: 0.8"/>
      </g>
     </g>
     <g id="text_49">
      <!-- 0 -->
      <g transform="translate(145.142742 1177.156562) scale(0.22 -0.22)">
       <use xlink:href="#DejaVuSans-30"/>
      </g>
     </g>
    </g>
    <g id="xtick_17">
     <g id="line2d_48">
      <g>
       <use xlink:href="#m128101bfa4" x="304.037745" y="1153.44" style="stroke: #000000; stroke-width: 0.8"/>
      </g>
     </g>
     <g id="text_50">
      <!-- 1000 -->
      <g transform="translate(276.042745 1177.156562) scale(0.22 -0.22)">
       <use xlink:href="#DejaVuSans-31"/>
       <use xlink:href="#DejaVuSans-30" x="63.623047"/>
       <use xlink:href="#DejaVuSans-30" x="127.246094"/>
       <use xlink:href="#DejaVuSans-30" x="190.869141"/>
      </g>
     </g>
    </g>
    <g id="xtick_18">
     <g id="line2d_49">
      <g>
       <use xlink:href="#m128101bfa4" x="455.933999" y="1153.44" style="stroke: #000000; stroke-width: 0.8"/>
      </g>
     </g>
     <g id="text_51">
      <!-- 2000 -->
      <g transform="translate(427.938999 1177.156562) scale(0.22 -0.22)">
       <use xlink:href="#DejaVuSans-32"/>
       <use xlink:href="#DejaVuSans-30" x="63.623047"/>
       <use xlink:href="#DejaVuSans-30" x="127.246094"/>
       <use xlink:href="#DejaVuSans-30" x="190.869141"/>
      </g>
     </g>
    </g>
    <g id="text_52">
     <!-- k -->
     <g transform="translate(318.278523 1203.968125) scale(0.24 -0.24)">
      <use xlink:href="#DejaVuSans-6b"/>
     </g>
    </g>
   </g>
   <g id="matplotlib.axis_10">
    <g id="ytick_20">
     <g id="line2d_50">
      <g>
       <use xlink:href="#m7930acb194" x="135" y="1117.288253" style="stroke: #000000; stroke-width: 0.8"/>
      </g>
     </g>
     <g id="text_53">
      <!-- 0.2 -->
      <g transform="translate(93.013125 1125.646534) scale(0.22 -0.22)">
       <use xlink:href="#DejaVuSans-30"/>
       <use xlink:href="#DejaVuSans-2e" x="63.623047"/>
       <use xlink:href="#DejaVuSans-32" x="95.410156"/>
      </g>
     </g>
    </g>
    <g id="ytick_21">
     <g id="line2d_51">
      <g>
       <use xlink:href="#m7930acb194" x="135" y="1063.657769" style="stroke: #000000; stroke-width: 0.8"/>
      </g>
     </g>
     <g id="text_54">
      <!-- 0.4 -->
      <g transform="translate(93.013125 1072.01605) scale(0.22 -0.22)">
       <use xlink:href="#DejaVuSans-30"/>
       <use xlink:href="#DejaVuSans-2e" x="63.623047"/>
       <use xlink:href="#DejaVuSans-34" x="95.410156"/>
      </g>
     </g>
    </g>
    <g id="ytick_22">
     <g id="line2d_52">
      <g>
       <use xlink:href="#m7930acb194" x="135" y="1010.027284" style="stroke: #000000; stroke-width: 0.8"/>
      </g>
     </g>
     <g id="text_55">
      <!-- 0.6 -->
      <g transform="translate(93.013125 1018.385566) scale(0.22 -0.22)">
       <use xlink:href="#DejaVuSans-30"/>
       <use xlink:href="#DejaVuSans-2e" x="63.623047"/>
       <use xlink:href="#DejaVuSans-36" x="95.410156"/>
      </g>
     </g>
    </g>
    <g id="ytick_23">
     <g id="line2d_53">
      <g>
       <use xlink:href="#m7930acb194" x="135" y="956.3968" style="stroke: #000000; stroke-width: 0.8"/>
      </g>
     </g>
     <g id="text_56">
      <!-- 0.8 -->
      <g transform="translate(93.013125 964.755081) scale(0.22 -0.22)">
       <use xlink:href="#DejaVuSans-30"/>
       <use xlink:href="#DejaVuSans-2e" x="63.623047"/>
       <use xlink:href="#DejaVuSans-38" x="95.410156"/>
      </g>
     </g>
    </g>
    <g id="ytick_24">
     <g id="line2d_54">
      <g>
       <use xlink:href="#m7930acb194" x="135" y="902.766316" style="stroke: #000000; stroke-width: 0.8"/>
      </g>
     </g>
     <g id="text_57">
      <!-- 1.0 -->
      <g transform="translate(93.013125 911.124597) scale(0.22 -0.22)">
       <use xlink:href="#DejaVuSans-31"/>
       <use xlink:href="#DejaVuSans-2e" x="63.623047"/>
       <use xlink:href="#DejaVuSans-30" x="95.410156"/>
      </g>
     </g>
    </g>
    <g id="text_58">
     <!-- Metric Value -->
     <g transform="translate(84.021875 1096.210362) rotate(-90) scale(0.24 -0.24)">
      <use xlink:href="#DejaVuSans-4d"/>
      <use xlink:href="#DejaVuSans-65" x="86.279297"/>
      <use xlink:href="#DejaVuSans-74" x="147.802734"/>
      <use xlink:href="#DejaVuSans-72" x="187.011719"/>
      <use xlink:href="#DejaVuSans-69" x="228.125"/>
      <use xlink:href="#DejaVuSans-63" x="255.908203"/>
      <use xlink:href="#DejaVuSans-20" x="310.888672"/>
      <use xlink:href="#DejaVuSans-56" x="342.675781"/>
      <use xlink:href="#DejaVuSans-61" x="403.333984"/>
      <use xlink:href="#DejaVuSans-6c" x="464.613281"/>
      <use xlink:href="#DejaVuSans-75" x="492.396484"/>
      <use xlink:href="#DejaVuSans-65" x="555.775391"/>
     </g>
    </g>
   </g>
   <g id="line2d_55">
    <path d="M 152.293388 1141.503158 
L 152.597181 1130.639004 
L 152.900973 1125.924667 
L 153.812351 1118.291592 
L 155.635106 1110.348223 
L 155.938899 1109.546072 
L 156.69838 1107.349709 
L 157.457861 1105.004307 
L 158.217342 1102.44221 
L 158.521135 1101.696875 
L 159.280616 1099.455152 
L 160.647682 1096.339738 
L 164.900777 1087.737082 
L 165.356466 1086.920015 
L 166.267844 1085.244123 
L 166.723532 1084.495765 
L 167.786806 1082.561191 
L 170.520939 1077.784637 
L 175.229723 1069.859966 
L 179.179025 1063.619958 
L 181.153677 1060.85334 
L 182.976432 1058.404001 
L 184.191602 1056.872166 
L 186.318149 1053.941999 
L 189.659867 1049.556488 
L 193.912962 1044.131814 
L 196.191406 1041.440283 
L 197.406576 1040.058498 
L 199.988812 1037.288336 
L 201.659671 1035.659407 
L 204.241907 1033.433578 
L 208.646898 1030.04816 
L 217.001192 1024.695614 
L 220.950495 1022.5411 
L 222.013769 1021.967196 
L 223.380835 1021.252771 
L 225.963071 1019.946847 
L 227.482034 1019.135771 
L 230.368063 1017.724456 
L 250.266472 1008.876416 
L 251.785434 1008.236055 
L 271.531947 999.870062 
L 275.936939 998.060521 
L 278.367279 997.055743 
L 289.000016 992.811942 
L 294.620178 990.623815 
L 338.062506 973.779946 
L 372.694852 960.181232 
L 407.63099 945.939502 
L 421.757342 940.884465 
L 425.250955 939.627472 
L 451.984696 929.791753 
L 461.706056 925.601696 
L 467.781906 922.668404 
L 470.971728 921.003358 
L 476.439993 917.897855 
L 481.908258 914.474448 
L 486.920834 910.993602 
L 493.300477 906.375867 
L 495.730817 904.633828 
L 498.161157 902.766316 
L 498.161157 902.766316 
" clip-path="url(#p750da4a5b9)" style="fill: none; stroke: #1f77b4; stroke-width: 1.5; stroke-linecap: square"/>
   </g>
   <g id="line2d_56">
    <path d="M 152.293388 979.835134 
L 152.445285 979.305653 
L 152.749077 974.893316 
L 153.05287 978.10942 
L 153.508558 983.626475 
L 153.660455 984.012146 
L 153.964247 986.522275 
L 154.26804 989.651533 
L 154.419936 990.087444 
L 154.875625 992.568811 
L 155.48321 995.446784 
L 156.090795 999.077448 
L 156.546484 1001.200988 
L 158.065446 1008.113311 
L 160.647682 1016.091936 
L 162.166645 1019.298362 
L 162.622334 1020.075646 
L 163.9894 1022.264467 
L 165.356466 1024.093747 
L 166.115947 1024.916427 
L 166.41974 1025.32664 
L 167.179221 1026.025319 
L 168.394391 1026.883566 
L 168.85008 1027.212401 
L 169.457665 1027.455344 
L 171.28042 1028.460487 
L 172.647486 1029.103397 
L 173.558864 1029.578756 
L 174.318345 1030.018112 
L 174.774034 1030.140118 
L 175.685411 1030.540001 
L 177.660063 1030.941901 
L 178.419544 1031.013481 
L 179.482818 1031.177086 
L 180.697988 1031.206627 
L 181.457469 1031.248689 
L 183.735913 1031.024464 
L 185.710564 1030.769607 
L 187.685215 1030.478202 
L 188.140904 1030.276026 
L 189.50797 1029.768438 
L 192.090207 1029.107459 
L 196.495198 1027.871178 
L 207.431728 1023.960442 
L 209.558276 1023.387623 
L 211.532927 1022.971764 
L 216.241711 1021.905546 
L 217.608777 1021.554752 
L 220.494806 1020.855355 
L 222.317561 1020.42303 
L 225.20359 1019.742718 
L 227.937723 1019.060072 
L 234.317365 1017.688254 
L 237.659083 1016.708999 
L 239.329942 1016.227228 
L 241.304593 1015.637151 
L 246.317169 1014.169757 
L 247.532339 1013.749048 
L 250.874057 1012.470497 
L 253.152501 1011.55831 
L 265.304201 1007.173065 
L 266.671267 1006.719101 
L 269.861088 1005.681522 
L 278.519175 1002.98477 
L 286.41778 1000.422446 
L 288.696224 999.669807 
L 291.27846 998.780951 
L 305.404812 994.049651 
L 320.746333 988.506635 
L 324.239947 987.309547 
L 347.783866 979.04612 
L 351.733169 977.583073 
L 361.910218 973.841086 
L 382.264316 965.748042 
L 415.073907 951.461522 
L 425.85854 946.306009 
L 438.769722 939.418907 
L 454.566932 930.448873 
L 469.756558 921.639554 
L 477.199474 917.006425 
L 481.908258 913.811561 
L 487.984108 909.80099 
L 495.882713 904.543729 
L 498.161157 902.766316 
L 498.161157 902.766316 
" clip-path="url(#p750da4a5b9)" style="fill: none; stroke: #ff7f0e; stroke-width: 1.5; stroke-linecap: square"/>
   </g>
   <g id="line2d_57">
    <path d="M 152.293388 1105.498489 
L 152.597181 1053.413303 
L 152.900973 1030.218138 
L 153.508558 1009.642921 
L 153.812351 1005.742237 
L 154.571832 1000.242192 
L 154.723728 1000.031524 
L 155.027521 1000.463196 
L 157.91355 1015.378443 
L 160.34389 1023.156656 
L 161.255267 1025.452814 
L 161.55906 1026.230145 
L 162.318541 1028.30674 
L 163.078022 1030.072041 
L 164.293192 1032.472842 
L 165.20457 1033.922859 
L 166.723532 1036.842527 
L 167.938703 1038.453595 
L 169.457665 1039.853237 
L 169.913354 1040.224061 
L 170.976628 1041.362088 
L 171.584213 1041.903845 
L 173.255071 1043.106987 
L 174.470241 1043.274333 
L 174.92593 1043.321798 
L 175.229723 1043.418457 
L 176.1411 1043.468851 
L 176.596789 1043.51895 
L 177.204374 1043.561045 
L 177.963855 1043.547202 
L 180.242299 1043.452923 
L 180.849884 1043.311775 
L 181.305573 1043.262477 
L 182.21695 1042.985331 
L 183.735913 1042.399243 
L 186.014357 1041.234813 
L 187.229527 1040.710357 
L 188.900385 1040.112761 
L 189.50797 1039.845785 
L 191.938311 1038.851319 
L 193.001584 1038.497016 
L 193.912962 1037.988985 
L 194.672443 1037.522026 
L 196.798991 1036.242209 
L 198.317953 1035.371361 
L 206.216558 1031.694139 
L 212.899993 1028.086685 
L 215.634126 1026.656573 
L 216.545504 1026.290936 
L 217.91257 1025.744361 
L 220.039117 1024.964029 
L 221.55808 1024.432242 
L 227.026345 1022.799064 
L 228.697204 1022.293488 
L 231.735129 1021.316265 
L 238.114772 1019.476317 
L 240.545112 1018.855152 
L 243.43114 1017.999425 
L 246.165273 1016.936971 
L 247.836132 1016.422138 
L 250.418368 1015.645214 
L 253.760086 1014.661421 
L 257.557492 1013.134417 
L 260.139728 1011.725262 
L 263.177653 1010.147104 
L 264.54472 1009.574602 
L 270.164881 1007.419754 
L 276.088835 1004.658278 
L 277.91159 1003.809826 
L 280.038137 1002.999378 
L 309.657907 991.050724 
L 313.455313 989.468265 
L 318.012201 987.667975 
L 322.720985 985.741195 
L 325.75891 984.455155 
L 327.429768 983.713912 
L 330.771486 982.223299 
L 335.784062 980.157367 
L 349.454725 974.289697 
L 350.821791 973.693575 
L 352.49265 972.858534 
L 356.290057 970.97728 
L 360.391255 968.99604 
L 370.720201 964.235923 
L 372.239163 963.472357 
L 385.75793 955.855048 
L 392.441365 952.357859 
L 399.1248 949.494031 
L 404.289273 947.708926 
L 406.871509 946.844921 
L 410.972708 945.612317 
L 413.403048 944.792901 
L 421.149757 942.72905 
L 424.491474 941.984091 
L 433.605249 939.403237 
L 435.883693 938.496545 
L 440.288685 936.806824 
L 447.124016 934.067158 
L 449.250563 933.095884 
L 450.61763 932.486859 
L 470.667935 922.049638 
L 475.072927 919.115401 
L 480.541192 915.010054 
L 485.857561 911.076532 
L 489.503071 908.563874 
L 495.427024 904.87622 
L 498.161157 902.766316 
L 498.161157 902.766316 
" clip-path="url(#p750da4a5b9)" style="fill: none; stroke: #2ca02c; stroke-width: 1.5; stroke-linecap: square"/>
   </g>
   <g id="line2d_58">
    <path d="M 152.293388 1089.614076 
L 152.597181 1060.120055 
L 153.204766 1034.783436 
L 153.812351 1022.439589 
L 154.26804 1018.008151 
L 154.875625 1012.205345 
L 155.027521 1012.186078 
L 155.179417 1011.815752 
L 155.48321 1010.502212 
L 155.787002 1010.579317 
L 155.938899 1010.394391 
L 156.090795 1010.567626 
L 156.242691 1010.396831 
L 156.546484 1010.63426 
L 156.69838 1010.544999 
L 157.002172 1011.008294 
L 157.609757 1012.401448 
L 157.761654 1012.456216 
L 158.369239 1013.027386 
L 158.976824 1013.78202 
L 162.926126 1020.738533 
L 164.748881 1024.531221 
L 167.786806 1029.345838 
L 172.191798 1034.851181 
L 172.951279 1035.450762 
L 173.558864 1036.072715 
L 174.470241 1037.079852 
L 175.077826 1037.764734 
L 175.989204 1038.863396 
L 178.875233 1041.551693 
L 182.520743 1043.717536 
L 184.495394 1044.494168 
L 185.102979 1044.719124 
L 190.571244 1046.180403 
L 192.242103 1046.213171 
L 193.457273 1046.21831 
L 194.216754 1046.246804 
L 196.950887 1046.216225 
L 198.014161 1046.282005 
L 200.900189 1046.087449 
L 202.874841 1045.854967 
L 204.697596 1045.56008 
L 212.596201 1043.780464 
L 214.874645 1043.41552 
L 216.089815 1043.103364 
L 219.431532 1042.363227 
L 220.494806 1042.106739 
L 226.266864 1040.598076 
L 234.317365 1038.850289 
L 236.595809 1038.295106 
L 240.089423 1037.648381 
L 246.013377 1036.204332 
L 247.988028 1035.661708 
L 250.570264 1034.919438 
L 254.671463 1034.029003 
L 258.316973 1033.098289 
L 264.848512 1031.079769 
L 276.088835 1027.036036 
L 285.354506 1023.064028 
L 288.240535 1021.759032 
L 292.797423 1019.788479 
L 297.35431 1017.708861 
L 303.278264 1014.849902 
L 306.164293 1013.500713 
L 309.809803 1011.732164 
L 312.543936 1010.376862 
L 318.619786 1007.493508 
L 322.265296 1005.756878 
L 335.024581 999.771763 
L 342.163705 996.455618 
L 345.809215 994.741611 
L 349.606621 992.915563 
L 360.543152 987.798008 
L 376.796051 980.302919 
L 382.416212 977.599006 
L 395.47929 970.806644 
L 408.086679 964.222636 
L 420.542172 956.947249 
L 428.288881 952.234259 
L 449.098667 939.04862 
L 468.237595 925.822306 
L 479.022229 917.853227 
L 498.161157 902.766316 
L 498.161157 902.766316 
" clip-path="url(#p750da4a5b9)" style="fill: none; stroke: #d62728; stroke-width: 1.5; stroke-linecap: square"/>
   </g>
   <g id="patch_35">
    <path d="M 135 1153.44 
L 135 890.829474 
" style="fill: none; stroke: #000000; stroke-width: 0.8; stroke-linejoin: miter; stroke-linecap: square"/>
   </g>
   <g id="patch_36">
    <path d="M 515.454545 1153.44 
L 515.454545 890.829474 
" style="fill: none; stroke: #000000; stroke-width: 0.8; stroke-linejoin: miter; stroke-linecap: square"/>
   </g>
   <g id="patch_37">
    <path d="M 135 1153.44 
L 515.454545 1153.44 
" style="fill: none; stroke: #000000; stroke-width: 0.8; stroke-linejoin: miter; stroke-linecap: square"/>
   </g>
   <g id="patch_38">
    <path d="M 135 890.829474 
L 515.454545 890.829474 
" style="fill: none; stroke: #000000; stroke-width: 0.8; stroke-linejoin: miter; stroke-linecap: square"/>
   </g>
   <g id="text_59">
    <!-- e -->
    <g transform="translate(89.376307 872.71352) scale(0.28 -0.28)">
     <defs>
      <path id="DejaVuSans-Bold-65" d="M 4031 1759 
L 4031 1441 
L 1416 1441 
Q 1456 1047 1700 850 
Q 1944 653 2381 653 
Q 2734 653 3104 758 
Q 3475 863 3866 1075 
L 3866 213 
Q 3469 63 3072 -14 
Q 2675 -91 2278 -91 
Q 1328 -91 801 392 
Q 275 875 275 1747 
Q 275 2603 792 3093 
Q 1309 3584 2216 3584 
Q 3041 3584 3536 3087 
Q 4031 2591 4031 1759 
z
M 2881 2131 
Q 2881 2450 2695 2645 
Q 2509 2841 2209 2841 
Q 1884 2841 1681 2658 
Q 1478 2475 1428 2131 
L 2881 2131 
z
" transform="scale(0.015625)"/>
     </defs>
     <use xlink:href="#DejaVuSans-Bold-65"/>
    </g>
   </g>
   <g id="text_60">
    <!-- $Q_{NN}$ -->
    <g transform="translate(302.787273 884.829474) scale(0.24 -0.24)">
     <use xlink:href="#DejaVuSans-Oblique-51" transform="translate(0 0.78125)"/>
     <use xlink:href="#DejaVuSans-Oblique-4e" transform="translate(78.710938 -15.625) scale(0.7)"/>
     <use xlink:href="#DejaVuSans-Oblique-4e" transform="translate(131.074219 -15.625) scale(0.7)"/>
    </g>
   </g>
  </g>
  <g id="axes_6">
   <g id="patch_39">
    <path d="M 591.545455 1153.44 
L 972 1153.44 
L 972 890.829474 
L 591.545455 890.829474 
z
" style="fill: #ffffff"/>
   </g>
   <g id="matplotlib.axis_11">
    <g id="xtick_19">
     <g id="line2d_59">
      <g>
       <use xlink:href="#m128101bfa4" x="608.686947" y="1153.44" style="stroke: #000000; stroke-width: 0.8"/>
      </g>
     </g>
     <g id="text_61">
      <!-- 0 -->
      <g transform="translate(601.688197 1177.156562) scale(0.22 -0.22)">
       <use xlink:href="#DejaVuSans-30"/>
      </g>
     </g>
    </g>
    <g id="xtick_20">
     <g id="line2d_60">
      <g>
       <use xlink:href="#m128101bfa4" x="760.5832" y="1153.44" style="stroke: #000000; stroke-width: 0.8"/>
      </g>
     </g>
     <g id="text_62">
      <!-- 1000 -->
      <g transform="translate(732.5882 1177.156562) scale(0.22 -0.22)">
       <use xlink:href="#DejaVuSans-31"/>
       <use xlink:href="#DejaVuSans-30" x="63.623047"/>
       <use xlink:href="#DejaVuSans-30" x="127.246094"/>
       <use xlink:href="#DejaVuSans-30" x="190.869141"/>
      </g>
     </g>
    </g>
    <g id="xtick_21">
     <g id="line2d_61">
      <g>
       <use xlink:href="#m128101bfa4" x="912.479453" y="1153.44" style="stroke: #000000; stroke-width: 0.8"/>
      </g>
     </g>
     <g id="text_63">
      <!-- 2000 -->
      <g transform="translate(884.484453 1177.156562) scale(0.22 -0.22)">
       <use xlink:href="#DejaVuSans-32"/>
       <use xlink:href="#DejaVuSans-30" x="63.623047"/>
       <use xlink:href="#DejaVuSans-30" x="127.246094"/>
       <use xlink:href="#DejaVuSans-30" x="190.869141"/>
      </g>
     </g>
    </g>
    <g id="text_64">
     <!-- k -->
     <g transform="translate(774.823977 1203.968125) scale(0.24 -0.24)">
      <use xlink:href="#DejaVuSans-6b"/>
     </g>
    </g>
   </g>
   <g id="matplotlib.axis_12">
    <g id="ytick_25">
     <g id="line2d_62">
      <g>
       <use xlink:href="#m7930acb194" x="591.545455" y="1141.192313" style="stroke: #000000; stroke-width: 0.8"/>
      </g>
     </g>
     <g id="text_65">
      <!-- 0.0 -->
      <g transform="translate(549.55858 1149.550595) scale(0.22 -0.22)">
       <use xlink:href="#DejaVuSans-30"/>
       <use xlink:href="#DejaVuSans-2e" x="63.623047"/>
       <use xlink:href="#DejaVuSans-30" x="95.410156"/>
      </g>
     </g>
    </g>
    <g id="ytick_26">
     <g id="line2d_63">
      <g>
       <use xlink:href="#m7930acb194" x="591.545455" y="1075.804416" style="stroke: #000000; stroke-width: 0.8"/>
      </g>
     </g>
     <g id="text_66">
      <!-- 0.2 -->
      <g transform="translate(549.55858 1084.162698) scale(0.22 -0.22)">
       <use xlink:href="#DejaVuSans-30"/>
       <use xlink:href="#DejaVuSans-2e" x="63.623047"/>
       <use xlink:href="#DejaVuSans-32" x="95.410156"/>
      </g>
     </g>
    </g>
    <g id="ytick_27">
     <g id="line2d_64">
      <g>
       <use xlink:href="#m7930acb194" x="591.545455" y="1010.41652" style="stroke: #000000; stroke-width: 0.8"/>
      </g>
     </g>
     <g id="text_67">
      <!-- 0.4 -->
      <g transform="translate(549.55858 1018.774801) scale(0.22 -0.22)">
       <use xlink:href="#DejaVuSans-30"/>
       <use xlink:href="#DejaVuSans-2e" x="63.623047"/>
       <use xlink:href="#DejaVuSans-34" x="95.410156"/>
      </g>
     </g>
    </g>
    <g id="ytick_28">
     <g id="line2d_65">
      <g>
       <use xlink:href="#m7930acb194" x="591.545455" y="945.028623" style="stroke: #000000; stroke-width: 0.8"/>
      </g>
     </g>
     <g id="text_68">
      <!-- 0.6 -->
      <g transform="translate(549.55858 953.386904) scale(0.22 -0.22)">
       <use xlink:href="#DejaVuSans-30"/>
       <use xlink:href="#DejaVuSans-2e" x="63.623047"/>
       <use xlink:href="#DejaVuSans-36" x="95.410156"/>
      </g>
     </g>
    </g>
   </g>
   <g id="line2d_66">
    <path d="M 608.838843 1105.471476 
L 609.142635 1092.512614 
L 609.446428 1087.051794 
L 610.205909 1079.678397 
L 610.813494 1075.930311 
L 612.028664 1071.062578 
L 613.243834 1067.992658 
L 613.851419 1066.263263 
L 614.610901 1064.033064 
L 614.914693 1063.196041 
L 616.433656 1059.703266 
L 616.889344 1058.936161 
L 617.345033 1058.061064 
L 617.952618 1057.061899 
L 618.560203 1056.070974 
L 619.015892 1055.379517 
L 619.319684 1054.919373 
L 619.775373 1054.275464 
L 620.231062 1053.538947 
L 622.661402 1050.258571 
L 624.78795 1047.668804 
L 625.395535 1046.913801 
L 626.00312 1046.226898 
L 627.066393 1045.006391 
L 631.167592 1040.377231 
L 632.230866 1039.311203 
L 633.142243 1038.316743 
L 634.661206 1036.90953 
L 637.243442 1034.706087 
L 646.509114 1028.466009 
L 647.420491 1027.855061 
L 649.09135 1026.839516 
L 649.698935 1026.511382 
L 651.673586 1025.457224 
L 654.711511 1024.125038 
L 658.81271 1022.95331 
L 664.432872 1022.791512 
L 666.10373 1022.954442 
L 670.964411 1023.696057 
L 672.787166 1024.048163 
L 675.217506 1024.621431 
L 677.495949 1025.300587 
L 678.407327 1025.571714 
L 679.774393 1025.962936 
L 681.14146 1026.415205 
L 688.43248 1028.905585 
L 689.799546 1029.453261 
L 693.29316 1030.847844 
L 702.558831 1034.526527 
L 704.381586 1035.252014 
L 726.10275 1044.595411 
L 730.963431 1046.72167 
L 732.786186 1047.525325 
L 734.912733 1048.478787 
L 745.089782 1053.120793 
L 749.190981 1055.084294 
L 751.317529 1056.065691 
L 756.026312 1058.316518 
L 759.823719 1060.163895 
L 789.443488 1074.109165 
L 792.177621 1075.374874 
L 806.455868 1082.113542 
L 809.038105 1083.337935 
L 815.113955 1086.2217 
L 820.58222 1088.697102 
L 827.417551 1091.83103 
L 832.430128 1094.040736 
L 840.328733 1097.462905 
L 861.442312 1106.981207 
L 865.087822 1108.744317 
L 867.366266 1109.897124 
L 903.66947 1128.220612 
L 912.175661 1132.12882 
L 916.884445 1134.073616 
L 925.086842 1137.009575 
L 928.884249 1138.109727 
L 933.896825 1139.321821 
L 936.782854 1139.85013 
L 940.428364 1140.35928 
L 943.770081 1140.616225 
L 949.542139 1140.963479 
L 951.972479 1141.169915 
L 954.706612 1141.192313 
L 954.706612 1141.192313 
" clip-path="url(#p7235128ba0)" style="fill: none; stroke: #1f77b4; stroke-width: 1.5; stroke-linecap: square"/>
   </g>
   <g id="line2d_67">
    <path d="M 608.838843 908.360967 
L 608.990739 907.858929 
L 609.294532 902.766316 
L 609.598324 906.974526 
L 610.054013 914.131647 
L 610.205909 914.745389 
L 610.509702 918.092855 
L 610.813494 922.19518 
L 610.965391 922.870176 
L 611.421079 926.326095 
L 612.028664 930.409088 
L 612.636249 935.409784 
L 613.091938 938.429429 
L 614.762797 949.026431 
L 616.129863 955.75764 
L 618.104514 963.781025 
L 619.319684 967.652169 
L 622.509506 976.080118 
L 623.117091 977.519408 
L 623.876572 979.001336 
L 625.395535 981.768477 
L 626.155016 982.8974 
L 627.066393 984.508851 
L 628.129667 986.051163 
L 632.990347 993.335436 
L 634.661206 995.081202 
L 635.268791 995.759633 
L 635.876376 996.456641 
L 636.635857 997.275556 
L 637.395339 998.009411 
L 638.914301 999.456649 
L 642.711707 1002.378053 
L 643.471189 1003.078528 
L 647.87618 1005.551211 
L 649.395143 1006.513905 
L 650.762209 1007.361903 
L 653.344445 1008.827433 
L 655.319096 1009.70651 
L 657.59754 1010.924731 
L 661.394947 1012.838369 
L 664.129079 1014.341941 
L 667.926485 1016.816843 
L 670.508722 1018.569243 
L 674.002336 1020.83292 
L 676.584572 1022.533991 
L 684.635073 1027.765041 
L 686.154036 1028.824127 
L 688.43248 1030.313381 
L 691.470405 1032.33797 
L 693.748849 1033.691377 
L 695.7235 1034.884131 
L 699.672802 1037.19897 
L 702.558831 1038.895479 
L 708.482785 1041.77773 
L 713.343465 1044.13168 
L 719.267419 1047.179546 
L 727.31792 1051.463596 
L 729.748261 1052.879927 
L 741.444272 1059.28753 
L 744.178405 1060.872602 
L 747.21633 1062.466607 
L 749.798566 1063.872134 
L 758.000964 1068.232926 
L 761.950266 1070.360302 
L 776.684203 1077.776084 
L 793.696583 1086.693123 
L 798.557263 1089.183705 
L 805.088802 1092.487008 
L 810.405171 1095.144442 
L 816.025332 1097.935003 
L 831.366854 1105.213507 
L 840.936318 1109.412436 
L 843.974243 1110.755749 
L 862.201793 1118.161062 
L 866.151096 1119.801093 
L 871.011776 1121.823008 
L 882.403995 1125.961502 
L 894.100007 1129.428566 
L 902.909989 1131.70724 
L 907.011188 1132.74573 
L 918.099615 1135.438769 
L 932.377862 1138.543197 
L 937.542335 1139.204557 
L 942.251119 1139.760545 
L 944.377666 1140.120993 
L 947.719384 1140.726522 
L 951.212998 1141.168281 
L 954.402819 1141.192566 
L 954.706612 1141.192313 
L 954.706612 1141.192313 
" clip-path="url(#p7235128ba0)" style="fill: none; stroke: #ff7f0e; stroke-width: 1.5; stroke-linecap: square"/>
   </g>
   <g id="line2d_68">
    <path d="M 608.838843 1061.573502 
L 609.142635 998.356721 
L 609.446428 970.36352 
L 610.054013 945.851679 
L 610.357806 941.382889 
L 611.117287 935.394671 
L 611.269183 935.281339 
L 611.572976 936.094687 
L 614.610901 957.77157 
L 615.066589 960.500078 
L 615.674174 963.220674 
L 617.193137 969.992205 
L 619.471581 979.338413 
L 620.534854 982.904825 
L 621.598128 986.099931 
L 622.205713 987.975711 
L 623.268987 991.50053 
L 624.78795 995.339323 
L 625.547431 996.906977 
L 628.43346 1002.910848 
L 629.344837 1004.632569 
L 630.8638 1006.489085 
L 633.597932 1009.435242 
L 635.420687 1011.197546 
L 637.243442 1012.634246 
L 639.521886 1014.026905 
L 640.281367 1014.349731 
L 642.104122 1014.949935 
L 642.863604 1015.206228 
L 644.23067 1015.847939 
L 644.838255 1016.230563 
L 645.597736 1016.464001 
L 647.116699 1017.136848 
L 650.30652 1018.568649 
L 651.52169 1018.81087 
L 652.129275 1018.913868 
L 655.015304 1019.618884 
L 657.293748 1020.564766 
L 658.357022 1021.067528 
L 662.002532 1022.333166 
L 665.648042 1023.198283 
L 666.255627 1023.40205 
L 669.293552 1024.407857 
L 673.090958 1025.710408 
L 674.306128 1026.256984 
L 680.230082 1029.42965 
L 681.749045 1030.307344 
L 688.736272 1034.236746 
L 693.29316 1036.84627 
L 695.267811 1038.172921 
L 697.546255 1039.601948 
L 700.280387 1041.136017 
L 701.495557 1041.674152 
L 704.837275 1043.501859 
L 707.723304 1045.171461 
L 711.824503 1047.493566 
L 713.343465 1048.192628 
L 715.621909 1048.869829 
L 717.900353 1049.489483 
L 720.482589 1050.403601 
L 724.88758 1052.538979 
L 731.874808 1055.325652 
L 735.520318 1056.76359 
L 762.102162 1069.025954 
L 769.393183 1072.096731 
L 772.583004 1073.628661 
L 800.228122 1085.376 
L 803.417943 1086.721849 
L 809.038105 1089.014782 
L 812.227926 1090.086057 
L 817.088606 1091.824589 
L 826.65807 1095.482173 
L 828.480825 1096.166225 
L 832.278231 1097.0742 
L 845.493206 1100.603241 
L 850.657678 1102.390184 
L 851.720952 1102.909514 
L 853.239914 1103.543103 
L 856.581632 1105.099162 
L 859.315765 1106.544051 
L 863.113171 1108.494949 
L 868.125747 1111.346753 
L 870.404191 1112.625319 
L 873.594012 1114.559012 
L 875.72056 1115.827253 
L 887.416571 1123.337856 
L 889.543119 1124.537114 
L 891.213978 1125.366159 
L 896.37845 1127.79705 
L 902.606197 1130.777055 
L 905.644122 1131.894423 
L 908.226358 1132.856295 
L 911.871868 1134.040206 
L 912.783246 1134.317853 
L 920.985643 1136.934128 
L 928.42856 1138.931284 
L 930.707004 1139.238244 
L 934.808202 1139.446471 
L 939.668883 1139.550769 
L 945.289044 1139.952124 
L 947.415591 1140.379045 
L 951.364894 1141.174077 
L 954.706612 1141.192313 
L 954.706612 1141.192313 
" clip-path="url(#p7235128ba0)" style="fill: none; stroke: #2ca02c; stroke-width: 1.5; stroke-linecap: square"/>
   </g>
   <g id="line2d_69">
    <path d="M 608.838843 1042.206749 
L 609.142635 1006.533794 
L 609.75022 976.216709 
L 610.357806 961.740802 
L 610.813494 956.768421 
L 611.421079 950.267547 
L 611.572976 950.387577 
L 611.724872 950.079584 
L 612.028664 948.765118 
L 612.332457 949.146167 
L 612.484353 949.06422 
L 612.636249 949.418954 
L 612.788146 949.354236 
L 613.091938 949.930757 
L 613.243834 949.965448 
L 613.699523 951.387169 
L 614.003316 952.523404 
L 614.307108 953.300305 
L 615.066589 954.912069 
L 615.218486 955.18745 
L 616.433656 958.965208 
L 617.041241 960.606347 
L 618.104514 964.040174 
L 618.408307 964.86923 
L 618.863996 966.306937 
L 619.471581 968.278047 
L 621.446232 975.073899 
L 623.876572 982.22339 
L 626.155016 988.071847 
L 628.585356 993.930012 
L 631.167592 999.420135 
L 634.813102 1007.602575 
L 635.876376 1009.486423 
L 636.483961 1010.515686 
L 637.547235 1012.402912 
L 640.888952 1017.416789 
L 645.44584 1023.376837 
L 648.179973 1026.475848 
L 649.09135 1027.305483 
L 649.850831 1028.049523 
L 658.205125 1035.721466 
L 659.572192 1036.769977 
L 660.787362 1037.703313 
L 663.67339 1039.593354 
L 665.192353 1040.569169 
L 669.141656 1043.302635 
L 671.420099 1045.010489 
L 672.635269 1045.778063 
L 675.976987 1048.033114 
L 676.888364 1048.622173 
L 678.711119 1049.732536 
L 679.622497 1050.280463 
L 681.900941 1051.687373 
L 689.799546 1057.165261 
L 691.774197 1058.356098 
L 692.837471 1059.058203 
L 694.356434 1060.190662 
L 700.887972 1064.540371 
L 708.027096 1068.989302 
L 714.254843 1073.12786 
L 718.204145 1075.359122 
L 720.0269 1076.405501 
L 721.849655 1077.427247 
L 725.495165 1079.349214 
L 733.697563 1083.349394 
L 737.039281 1084.763536 
L 738.710139 1085.506305 
L 741.748065 1086.733165 
L 746.456848 1088.618744 
L 747.520122 1089.093051 
L 751.013736 1090.504748 
L 752.988387 1091.254054 
L 758.912341 1093.417562 
L 769.241286 1097.064353 
L 775.013344 1099.18239 
L 789.139696 1104.446991 
L 791.418139 1105.271705 
L 795.671234 1106.833992 
L 806.911557 1111.038177 
L 809.341897 1111.909083 
L 811.164652 1112.657739 
L 813.139304 1113.399441 
L 827.417551 1118.692437 
L 837.746497 1122.655984 
L 854.303188 1127.861578 
L 861.442312 1130.138892 
L 864.78403 1131.051323 
L 872.986427 1133.061992 
L 896.226554 1137.654005 
L 909.137736 1139.456791 
L 914.302208 1140.043161 
L 918.403407 1140.491565 
L 923.415983 1140.940683 
L 934.352514 1141.471392 
L 937.998024 1141.495461 
L 943.921978 1141.36003 
L 949.694035 1141.250366 
L 954.706612 1141.192313 
L 954.706612 1141.192313 
" clip-path="url(#p7235128ba0)" style="fill: none; stroke: #d62728; stroke-width: 1.5; stroke-linecap: square"/>
   </g>
   <g id="patch_40">
    <path d="M 591.545455 1153.44 
L 591.545455 890.829474 
" style="fill: none; stroke: #000000; stroke-width: 0.8; stroke-linejoin: miter; stroke-linecap: square"/>
   </g>
   <g id="patch_41">
    <path d="M 972 1153.44 
L 972 890.829474 
" style="fill: none; stroke: #000000; stroke-width: 0.8; stroke-linejoin: miter; stroke-linecap: square"/>
   </g>
   <g id="patch_42">
    <path d="M 591.545455 1153.44 
L 972 1153.44 
" style="fill: none; stroke: #000000; stroke-width: 0.8; stroke-linejoin: miter; stroke-linecap: square"/>
   </g>
   <g id="patch_43">
    <path d="M 591.545455 890.829474 
L 972 890.829474 
" style="fill: none; stroke: #000000; stroke-width: 0.8; stroke-linejoin: miter; stroke-linecap: square"/>
   </g>
   <g id="text_69">
    <!-- f -->
    <g transform="translate(552.733636 872.71352) scale(0.28 -0.28)">
     <defs>
      <path id="DejaVuSans-Bold-66" d="M 2841 4863 
L 2841 4128 
L 2222 4128 
Q 1984 4128 1890 4042 
Q 1797 3956 1797 3744 
L 1797 3500 
L 2753 3500 
L 2753 2700 
L 1797 2700 
L 1797 0 
L 678 0 
L 678 2700 
L 122 2700 
L 122 3500 
L 678 3500 
L 678 3744 
Q 678 4316 997 4589 
Q 1316 4863 1984 4863 
L 2841 4863 
z
" transform="scale(0.015625)"/>
     </defs>
     <use xlink:href="#DejaVuSans-Bold-66"/>
    </g>
   </g>
   <g id="text_70">
    <!-- LCMC -->
    <g transform="translate(747.973977 884.829474) scale(0.24 -0.24)">
     <defs>
      <path id="DejaVuSans-4c" d="M 628 4666 
L 1259 4666 
L 1259 531 
L 3531 531 
L 3531 0 
L 628 0 
L 628 4666 
z
" transform="scale(0.015625)"/>
     </defs>
     <use xlink:href="#DejaVuSans-4c"/>
     <use xlink:href="#DejaVuSans-43" x="55.712891"/>
     <use xlink:href="#DejaVuSans-4d" x="125.537109"/>
     <use xlink:href="#DejaVuSans-43" x="211.816406"/>
    </g>
   </g>
  </g>
 </g>
 <defs>
  <clipPath id="pa73a5915c7">
   <rect x="135" y="155.52" width="380.454545" height="262.610526"/>
  </clipPath>
  <clipPath id="pfcf1b1c096">
   <rect x="591.545455" y="155.52" width="380.454545" height="262.610526"/>
  </clipPath>
  <clipPath id="p5155de9bba">
   <rect x="135" y="523.174737" width="380.454545" height="262.610526"/>
  </clipPath>
  <clipPath id="p00ec66e234">
   <rect x="591.545455" y="523.174737" width="380.454545" height="262.610526"/>
  </clipPath>
  <clipPath id="p750da4a5b9">
   <rect x="135" y="890.829474" width="380.454545" height="262.610526"/>
  </clipPath>
  <clipPath id="p7235128ba0">
   <rect x="591.545455" y="890.829474" width="380.454545" height="262.610526"/>
  </clipPath>
 </defs>
</svg>
