<?xml version="1.0" encoding="utf-8" standalone="no"?>
<!DOCTYPE svg PUBLIC "-//W3C//DTD SVG 1.1//EN"
  "http://www.w3.org/Graphics/SVG/1.1/DTD/svg11.dtd">
<svg xmlns:xlink="http://www.w3.org/1999/xlink" width="1080pt" height="1296pt" viewBox="0 0 1080 1296" xmlns="http://www.w3.org/2000/svg" version="1.1">
 <metadata>
  <rdf:RDF xmlns:dc="http://purl.org/dc/elements/1.1/" xmlns:cc="http://creativecommons.org/ns#" xmlns:rdf="http://www.w3.org/1999/02/22-rdf-syntax-ns#">
   <cc:Work>
    <dc:type rdf:resource="http://purl.org/dc/dcmitype/StillImage"/>
    <dc:date>2024-07-23T23:13:28.016695</dc:date>
    <dc:format>image/svg+xml</dc:format>
    <dc:creator>
     <cc:Agent>
      <dc:title>Matplotlib v3.8.4, https://matplotlib.org/</dc:title>
     </cc:Agent>
    </dc:creator>
   </cc:Work>
  </rdf:RDF>
 </metadata>
 <defs>
  <style type="text/css">*{stroke-linejoin: round; stroke-linecap: butt}</style>
 </defs>
 <g id="figure_1">
  <g id="patch_1">
   <path d="M 0 1296 
L 1080 1296 
L 1080 0 
L 0 0 
z
" style="fill: #ffffff"/>
  </g>
  <g id="axes_1">
   <g id="patch_2">
    <path d="M 135 418.130526 
L 515.454545 418.130526 
L 515.454545 155.52 
L 135 155.52 
z
" style="fill: #ffffff"/>
   </g>
   <g id="matplotlib.axis_1">
    <g id="xtick_1">
     <g id="line2d_1">
      <defs>
       <path id="md5ee9475f6" d="M 0 0 
L 0 3.5 
" style="stroke: #000000; stroke-width: 0.8"/>
      </defs>
      <g>
       <use xlink:href="#md5ee9475f6" x="137.882231" y="418.130526" style="stroke: #000000; stroke-width: 0.8"/>
      </g>
     </g>
     <g id="text_1">
      <!-- 0 -->
      <g transform="translate(131.519731 440.327401) scale(0.2 -0.2)">
       <defs>
        <path id="DejaVuSans-30" d="M 2034 4250 
Q 1547 4250 1301 3770 
Q 1056 3291 1056 2328 
Q 1056 1369 1301 889 
Q 1547 409 2034 409 
Q 2525 409 2770 889 
Q 3016 1369 3016 2328 
Q 3016 3291 2770 3770 
Q 2525 4250 2034 4250 
z
M 2034 4750 
Q 2819 4750 3233 4129 
Q 3647 3509 3647 2328 
Q 3647 1150 3233 529 
Q 2819 -91 2034 -91 
Q 1250 -91 836 529 
Q 422 1150 422 2328 
Q 422 3509 836 4129 
Q 1250 4750 2034 4750 
z
" transform="scale(0.015625)"/>
       </defs>
       <use xlink:href="#DejaVuSans-30"/>
      </g>
     </g>
    </g>
    <g id="xtick_2">
     <g id="line2d_2">
      <g>
       <use xlink:href="#md5ee9475f6" x="209.938017" y="418.130526" style="stroke: #000000; stroke-width: 0.8"/>
      </g>
     </g>
     <g id="text_2">
      <!-- 10 -->
      <g transform="translate(197.213017 440.327401) scale(0.2 -0.2)">
       <defs>
        <path id="DejaVuSans-31" d="M 794 531 
L 1825 531 
L 1825 4091 
L 703 3866 
L 703 4441 
L 1819 4666 
L 2450 4666 
L 2450 531 
L 3481 531 
L 3481 0 
L 794 0 
L 794 531 
z
" transform="scale(0.015625)"/>
       </defs>
       <use xlink:href="#DejaVuSans-31"/>
       <use xlink:href="#DejaVuSans-30" x="63.623047"/>
      </g>
     </g>
    </g>
    <g id="xtick_3">
     <g id="line2d_3">
      <g>
       <use xlink:href="#md5ee9475f6" x="281.993802" y="418.130526" style="stroke: #000000; stroke-width: 0.8"/>
      </g>
     </g>
     <g id="text_3">
      <!-- 20 -->
      <g transform="translate(269.268802 440.327401) scale(0.2 -0.2)">
       <defs>
        <path id="DejaVuSans-32" d="M 1228 531 
L 3431 531 
L 3431 0 
L 469 0 
L 469 531 
Q 828 903 1448 1529 
Q 2069 2156 2228 2338 
Q 2531 2678 2651 2914 
Q 2772 3150 2772 3378 
Q 2772 3750 2511 3984 
Q 2250 4219 1831 4219 
Q 1534 4219 1204 4116 
Q 875 4013 500 3803 
L 500 4441 
Q 881 4594 1212 4672 
Q 1544 4750 1819 4750 
Q 2544 4750 2975 4387 
Q 3406 4025 3406 3419 
Q 3406 3131 3298 2873 
Q 3191 2616 2906 2266 
Q 2828 2175 2409 1742 
Q 1991 1309 1228 531 
z
" transform="scale(0.015625)"/>
       </defs>
       <use xlink:href="#DejaVuSans-32"/>
       <use xlink:href="#DejaVuSans-30" x="63.623047"/>
      </g>
     </g>
    </g>
    <g id="xtick_4">
     <g id="line2d_4">
      <g>
       <use xlink:href="#md5ee9475f6" x="354.049587" y="418.130526" style="stroke: #000000; stroke-width: 0.8"/>
      </g>
     </g>
     <g id="text_4">
      <!-- 30 -->
      <g transform="translate(341.324587 440.327401) scale(0.2 -0.2)">
       <defs>
        <path id="DejaVuSans-33" d="M 2597 2516 
Q 3050 2419 3304 2112 
Q 3559 1806 3559 1356 
Q 3559 666 3084 287 
Q 2609 -91 1734 -91 
Q 1441 -91 1130 -33 
Q 819 25 488 141 
L 488 750 
Q 750 597 1062 519 
Q 1375 441 1716 441 
Q 2309 441 2620 675 
Q 2931 909 2931 1356 
Q 2931 1769 2642 2001 
Q 2353 2234 1838 2234 
L 1294 2234 
L 1294 2753 
L 1863 2753 
Q 2328 2753 2575 2939 
Q 2822 3125 2822 3475 
Q 2822 3834 2567 4026 
Q 2313 4219 1838 4219 
Q 1578 4219 1281 4162 
Q 984 4106 628 3988 
L 628 4550 
Q 988 4650 1302 4700 
Q 1616 4750 1894 4750 
Q 2613 4750 3031 4423 
Q 3450 4097 3450 3541 
Q 3450 3153 3228 2886 
Q 3006 2619 2597 2516 
z
" transform="scale(0.015625)"/>
       </defs>
       <use xlink:href="#DejaVuSans-33"/>
       <use xlink:href="#DejaVuSans-30" x="63.623047"/>
      </g>
     </g>
    </g>
    <g id="xtick_5">
     <g id="line2d_5">
      <g>
       <use xlink:href="#md5ee9475f6" x="426.105372" y="418.130526" style="stroke: #000000; stroke-width: 0.8"/>
      </g>
     </g>
     <g id="text_5">
      <!-- 40 -->
      <g transform="translate(413.380372 440.327401) scale(0.2 -0.2)">
       <defs>
        <path id="DejaVuSans-34" d="M 2419 4116 
L 825 1625 
L 2419 1625 
L 2419 4116 
z
M 2253 4666 
L 3047 4666 
L 3047 1625 
L 3713 1625 
L 3713 1100 
L 3047 1100 
L 3047 0 
L 2419 0 
L 2419 1100 
L 313 1100 
L 313 1709 
L 2253 4666 
z
" transform="scale(0.015625)"/>
       </defs>
       <use xlink:href="#DejaVuSans-34"/>
       <use xlink:href="#DejaVuSans-30" x="63.623047"/>
      </g>
     </g>
    </g>
    <g id="xtick_6">
     <g id="line2d_6">
      <g>
       <use xlink:href="#md5ee9475f6" x="498.161157" y="418.130526" style="stroke: #000000; stroke-width: 0.8"/>
      </g>
     </g>
     <g id="text_6">
      <!-- 50 -->
      <g transform="translate(485.436157 440.327401) scale(0.2 -0.2)">
       <defs>
        <path id="DejaVuSans-35" d="M 691 4666 
L 3169 4666 
L 3169 4134 
L 1269 4134 
L 1269 2991 
Q 1406 3038 1543 3061 
Q 1681 3084 1819 3084 
Q 2600 3084 3056 2656 
Q 3513 2228 3513 1497 
Q 3513 744 3044 326 
Q 2575 -91 1722 -91 
Q 1428 -91 1123 -41 
Q 819 9 494 109 
L 494 744 
Q 775 591 1075 516 
Q 1375 441 1709 441 
Q 2250 441 2565 725 
Q 2881 1009 2881 1497 
Q 2881 1984 2565 2268 
Q 2250 2553 1709 2553 
Q 1456 2553 1204 2497 
Q 953 2441 691 2322 
L 691 4666 
z
" transform="scale(0.015625)"/>
       </defs>
       <use xlink:href="#DejaVuSans-35"/>
       <use xlink:href="#DejaVuSans-30" x="63.623047"/>
      </g>
     </g>
    </g>
    <g id="text_7">
     <!-- k -->
     <g transform="translate(318.278523 466.723026) scale(0.24 -0.24)">
      <defs>
       <path id="DejaVuSans-6b" d="M 581 4863 
L 1159 4863 
L 1159 1991 
L 2875 3500 
L 3609 3500 
L 1753 1863 
L 3688 0 
L 2938 0 
L 1159 1709 
L 1159 0 
L 581 0 
L 581 4863 
z
" transform="scale(0.015625)"/>
      </defs>
      <use xlink:href="#DejaVuSans-6b"/>
     </g>
    </g>
   </g>
   <g id="matplotlib.axis_2">
    <g id="ytick_1">
     <g id="line2d_7">
      <defs>
       <path id="m0970e32151" d="M 0 0 
L -3.5 0 
" style="stroke: #000000; stroke-width: 0.8"/>
      </defs>
      <g>
       <use xlink:href="#m0970e32151" x="135" y="418.130526" style="stroke: #000000; stroke-width: 0.8"/>
      </g>
     </g>
     <g id="text_8">
      <!-- 0.0 -->
      <g transform="translate(96.19375 425.728964) scale(0.2 -0.2)">
       <defs>
        <path id="DejaVuSans-2e" d="M 684 794 
L 1344 794 
L 1344 0 
L 684 0 
L 684 794 
z
" transform="scale(0.015625)"/>
       </defs>
       <use xlink:href="#DejaVuSans-30"/>
       <use xlink:href="#DejaVuSans-2e" x="63.623047"/>
       <use xlink:href="#DejaVuSans-30" x="95.410156"/>
      </g>
     </g>
    </g>
    <g id="ytick_2">
     <g id="line2d_8">
      <g>
       <use xlink:href="#m0970e32151" x="135" y="352.477895" style="stroke: #000000; stroke-width: 0.8"/>
      </g>
     </g>
     <g id="text_9">
      <!-- 0.2 -->
      <g transform="translate(96.19375 360.076332) scale(0.2 -0.2)">
       <use xlink:href="#DejaVuSans-30"/>
       <use xlink:href="#DejaVuSans-2e" x="63.623047"/>
       <use xlink:href="#DejaVuSans-32" x="95.410156"/>
      </g>
     </g>
    </g>
    <g id="ytick_3">
     <g id="line2d_9">
      <g>
       <use xlink:href="#m0970e32151" x="135" y="286.825263" style="stroke: #000000; stroke-width: 0.8"/>
      </g>
     </g>
     <g id="text_10">
      <!-- 0.4 -->
      <g transform="translate(96.19375 294.423701) scale(0.2 -0.2)">
       <use xlink:href="#DejaVuSans-30"/>
       <use xlink:href="#DejaVuSans-2e" x="63.623047"/>
       <use xlink:href="#DejaVuSans-34" x="95.410156"/>
      </g>
     </g>
    </g>
    <g id="ytick_4">
     <g id="line2d_10">
      <g>
       <use xlink:href="#m0970e32151" x="135" y="221.172632" style="stroke: #000000; stroke-width: 0.8"/>
      </g>
     </g>
     <g id="text_11">
      <!-- 0.6 -->
      <g transform="translate(96.19375 228.771069) scale(0.2 -0.2)">
       <defs>
        <path id="DejaVuSans-36" d="M 2113 2584 
Q 1688 2584 1439 2293 
Q 1191 2003 1191 1497 
Q 1191 994 1439 701 
Q 1688 409 2113 409 
Q 2538 409 2786 701 
Q 3034 994 3034 1497 
Q 3034 2003 2786 2293 
Q 2538 2584 2113 2584 
z
M 3366 4563 
L 3366 3988 
Q 3128 4100 2886 4159 
Q 2644 4219 2406 4219 
Q 1781 4219 1451 3797 
Q 1122 3375 1075 2522 
Q 1259 2794 1537 2939 
Q 1816 3084 2150 3084 
Q 2853 3084 3261 2657 
Q 3669 2231 3669 1497 
Q 3669 778 3244 343 
Q 2819 -91 2113 -91 
Q 1303 -91 875 529 
Q 447 1150 447 2328 
Q 447 3434 972 4092 
Q 1497 4750 2381 4750 
Q 2619 4750 2861 4703 
Q 3103 4656 3366 4563 
z
" transform="scale(0.015625)"/>
       </defs>
       <use xlink:href="#DejaVuSans-30"/>
       <use xlink:href="#DejaVuSans-2e" x="63.623047"/>
       <use xlink:href="#DejaVuSans-36" x="95.410156"/>
      </g>
     </g>
    </g>
    <g id="ytick_5">
     <g id="line2d_11">
      <g>
       <use xlink:href="#m0970e32151" x="135" y="155.52" style="stroke: #000000; stroke-width: 0.8"/>
      </g>
     </g>
     <g id="text_12">
      <!-- 0.8 -->
      <g transform="translate(96.19375 163.118438) scale(0.2 -0.2)">
       <defs>
        <path id="DejaVuSans-38" d="M 2034 2216 
Q 1584 2216 1326 1975 
Q 1069 1734 1069 1313 
Q 1069 891 1326 650 
Q 1584 409 2034 409 
Q 2484 409 2743 651 
Q 3003 894 3003 1313 
Q 3003 1734 2745 1975 
Q 2488 2216 2034 2216 
z
M 1403 2484 
Q 997 2584 770 2862 
Q 544 3141 544 3541 
Q 544 4100 942 4425 
Q 1341 4750 2034 4750 
Q 2731 4750 3128 4425 
Q 3525 4100 3525 3541 
Q 3525 3141 3298 2862 
Q 3072 2584 2669 2484 
Q 3125 2378 3379 2068 
Q 3634 1759 3634 1313 
Q 3634 634 3220 271 
Q 2806 -91 2034 -91 
Q 1263 -91 848 271 
Q 434 634 434 1313 
Q 434 1759 690 2068 
Q 947 2378 1403 2484 
z
M 1172 3481 
Q 1172 3119 1398 2916 
Q 1625 2713 2034 2713 
Q 2441 2713 2670 2916 
Q 2900 3119 2900 3481 
Q 2900 3844 2670 4047 
Q 2441 4250 2034 4250 
Q 1625 4250 1398 4047 
Q 1172 3844 1172 3481 
z
" transform="scale(0.015625)"/>
       </defs>
       <use xlink:href="#DejaVuSans-30"/>
       <use xlink:href="#DejaVuSans-2e" x="63.623047"/>
       <use xlink:href="#DejaVuSans-38" x="95.410156"/>
      </g>
     </g>
    </g>
    <g id="text_13">
     <!-- $P_{NN}$ -->
     <g transform="translate(87.2025 306.985263) rotate(-90) scale(0.24 -0.24)">
      <defs>
       <path id="DejaVuSans-Oblique-50" d="M 1081 4666 
L 2541 4666 
Q 3178 4666 3512 4369 
Q 3847 4072 3847 3500 
Q 3847 2731 3353 2303 
Q 2859 1875 1966 1875 
L 1172 1875 
L 806 0 
L 172 0 
L 1081 4666 
z
M 1613 4147 
L 1275 2394 
L 2069 2394 
Q 2606 2394 2893 2669 
Q 3181 2944 3181 3456 
Q 3181 3784 2986 3965 
Q 2791 4147 2438 4147 
L 1613 4147 
z
" transform="scale(0.015625)"/>
       <path id="DejaVuSans-Oblique-4e" d="M 1081 4666 
L 1931 4666 
L 3219 666 
L 4000 4666 
L 4616 4666 
L 3706 0 
L 2853 0 
L 1569 4025 
L 788 0 
L 172 0 
L 1081 4666 
z
" transform="scale(0.015625)"/>
      </defs>
      <use xlink:href="#DejaVuSans-Oblique-50" transform="translate(0 0.09375)"/>
      <use xlink:href="#DejaVuSans-Oblique-4e" transform="translate(60.302734 -16.3125) scale(0.7)"/>
      <use xlink:href="#DejaVuSans-Oblique-4e" transform="translate(112.666016 -16.3125) scale(0.7)"/>
     </g>
    </g>
   </g>
   <g id="line2d_12">
    <path d="M 152.293388 379.932632 
L 173.910124 363.459789 
L 209.938017 355.939579 
L 281.993802 347.534053 
L 498.161157 328.433116 
" clip-path="url(#p21359a5f6f)" style="fill: none; stroke: #1f77b4; stroke-width: 1.5; stroke-linecap: square"/>
    <defs>
     <path id="m7912c94c27" d="M 0 3 
C 0.795609 3 1.55874 2.683901 2.12132 2.12132 
C 2.683901 1.55874 3 0.795609 3 0 
C 3 -0.795609 2.683901 -1.55874 2.12132 -2.12132 
C 1.55874 -2.683901 0.795609 -3 0 -3 
C -0.795609 -3 -1.55874 -2.683901 -2.12132 -2.12132 
C -2.683901 -1.55874 -3 -0.795609 -3 0 
C -3 0.795609 -2.683901 1.55874 -2.12132 2.12132 
C -1.55874 2.683901 -0.795609 3 0 3 
z
" style="stroke: #1f77b4"/>
    </defs>
    <g clip-path="url(#p21359a5f6f)">
     <use xlink:href="#m7912c94c27" x="152.293388" y="379.932632" style="fill: #1f77b4; stroke: #1f77b4"/>
     <use xlink:href="#m7912c94c27" x="173.910124" y="363.459789" style="fill: #1f77b4; stroke: #1f77b4"/>
     <use xlink:href="#m7912c94c27" x="209.938017" y="355.939579" style="fill: #1f77b4; stroke: #1f77b4"/>
     <use xlink:href="#m7912c94c27" x="281.993802" y="347.534053" style="fill: #1f77b4; stroke: #1f77b4"/>
     <use xlink:href="#m7912c94c27" x="498.161157" y="328.433116" style="fill: #1f77b4; stroke: #1f77b4"/>
    </g>
   </g>
   <g id="line2d_13">
    <path d="M 152.293388 187.848947 
L 173.910124 193.877053 
L 209.938017 201.994105 
L 281.993802 217.691053 
L 498.161157 235.174547 
" clip-path="url(#p21359a5f6f)" style="fill: none; stroke: #ff7f0e; stroke-width: 1.5; stroke-linecap: square"/>
    <defs>
     <path id="m0f5e9cd6f9" d="M 0 3 
C 0.795609 3 1.55874 2.683901 2.12132 2.12132 
C 2.683901 1.55874 3 0.795609 3 0 
C 3 -0.795609 2.683901 -1.55874 2.12132 -2.12132 
C 1.55874 -2.683901 0.795609 -3 0 -3 
C -0.795609 -3 -1.55874 -2.683901 -2.12132 -2.12132 
C -2.683901 -1.55874 -3 -0.795609 -3 0 
C -3 0.795609 -2.683901 1.55874 -2.12132 2.12132 
C -1.55874 2.683901 -0.795609 3 0 3 
z
" style="stroke: #ff7f0e"/>
    </defs>
    <g clip-path="url(#p21359a5f6f)">
     <use xlink:href="#m0f5e9cd6f9" x="152.293388" y="187.848947" style="fill: #ff7f0e; stroke: #ff7f0e"/>
     <use xlink:href="#m0f5e9cd6f9" x="173.910124" y="193.877053" style="fill: #ff7f0e; stroke: #ff7f0e"/>
     <use xlink:href="#m0f5e9cd6f9" x="209.938017" y="201.994105" style="fill: #ff7f0e; stroke: #ff7f0e"/>
     <use xlink:href="#m0f5e9cd6f9" x="281.993802" y="217.691053" style="fill: #ff7f0e; stroke: #ff7f0e"/>
     <use xlink:href="#m0f5e9cd6f9" x="498.161157" y="235.174547" style="fill: #ff7f0e; stroke: #ff7f0e"/>
    </g>
   </g>
   <g id="line2d_14">
    <path d="M 152.293388 304.233158 
L 173.910124 254.038737 
L 209.938017 224.833263 
L 281.993802 225.897632 
L 498.161157 238.413411 
" clip-path="url(#p21359a5f6f)" style="fill: none; stroke: #2ca02c; stroke-width: 1.5; stroke-linecap: square"/>
    <defs>
     <path id="mdb6f222a3e" d="M 0 3 
C 0.795609 3 1.55874 2.683901 2.12132 2.12132 
C 2.683901 1.55874 3 0.795609 3 0 
C 3 -0.795609 2.683901 -1.55874 2.12132 -2.12132 
C 1.55874 -2.683901 0.795609 -3 0 -3 
C -0.795609 -3 -1.55874 -2.683901 -2.12132 -2.12132 
C -2.683901 -1.55874 -3 -0.795609 -3 0 
C -3 0.795609 -2.683901 1.55874 -2.12132 2.12132 
C -1.55874 2.683901 -0.795609 3 0 3 
z
" style="stroke: #2ca02c"/>
    </defs>
    <g clip-path="url(#p21359a5f6f)">
     <use xlink:href="#mdb6f222a3e" x="152.293388" y="304.233158" style="fill: #2ca02c; stroke: #2ca02c"/>
     <use xlink:href="#mdb6f222a3e" x="173.910124" y="254.038737" style="fill: #2ca02c; stroke: #2ca02c"/>
     <use xlink:href="#mdb6f222a3e" x="209.938017" y="224.833263" style="fill: #2ca02c; stroke: #2ca02c"/>
     <use xlink:href="#mdb6f222a3e" x="281.993802" y="225.897632" style="fill: #2ca02c; stroke: #2ca02c"/>
     <use xlink:href="#mdb6f222a3e" x="498.161157" y="238.413411" style="fill: #2ca02c; stroke: #2ca02c"/>
    </g>
   </g>
   <g id="line2d_15">
    <path d="M 152.293388 292.694211 
L 173.910124 264.941053 
L 209.938017 249.542526 
L 281.993802 236.770105 
L 498.161157 233.181095 
" clip-path="url(#p21359a5f6f)" style="fill: none; stroke: #d62728; stroke-width: 1.5; stroke-linecap: square"/>
    <defs>
     <path id="m08f99c8769" d="M 0 3 
C 0.795609 3 1.55874 2.683901 2.12132 2.12132 
C 2.683901 1.55874 3 0.795609 3 0 
C 3 -0.795609 2.683901 -1.55874 2.12132 -2.12132 
C 1.55874 -2.683901 0.795609 -3 0 -3 
C -0.795609 -3 -1.55874 -2.683901 -2.12132 -2.12132 
C -2.683901 -1.55874 -3 -0.795609 -3 0 
C -3 0.795609 -2.683901 1.55874 -2.12132 2.12132 
C -1.55874 2.683901 -0.795609 3 0 3 
z
" style="stroke: #d62728"/>
    </defs>
    <g clip-path="url(#p21359a5f6f)">
     <use xlink:href="#m08f99c8769" x="152.293388" y="292.694211" style="fill: #d62728; stroke: #d62728"/>
     <use xlink:href="#m08f99c8769" x="173.910124" y="264.941053" style="fill: #d62728; stroke: #d62728"/>
     <use xlink:href="#m08f99c8769" x="209.938017" y="249.542526" style="fill: #d62728; stroke: #d62728"/>
     <use xlink:href="#m08f99c8769" x="281.993802" y="236.770105" style="fill: #d62728; stroke: #d62728"/>
     <use xlink:href="#m08f99c8769" x="498.161157" y="233.181095" style="fill: #d62728; stroke: #d62728"/>
    </g>
   </g>
   <g id="patch_3">
    <path d="M 135 418.130526 
L 135 155.52 
" style="fill: none; stroke: #000000; stroke-width: 0.8; stroke-linejoin: miter; stroke-linecap: square"/>
   </g>
   <g id="patch_4">
    <path d="M 515.454545 418.130526 
L 515.454545 155.52 
" style="fill: none; stroke: #000000; stroke-width: 0.8; stroke-linejoin: miter; stroke-linecap: square"/>
   </g>
   <g id="patch_5">
    <path d="M 135 418.130526 
L 515.454545 418.130526 
" style="fill: none; stroke: #000000; stroke-width: 0.8; stroke-linejoin: miter; stroke-linecap: square"/>
   </g>
   <g id="patch_6">
    <path d="M 135 155.52 
L 515.454545 155.52 
" style="fill: none; stroke: #000000; stroke-width: 0.8; stroke-linejoin: miter; stroke-linecap: square"/>
   </g>
   <g id="text_14">
    <!-- a -->
    <g transform="translate(89.472557 137.404046) scale(0.28 -0.28)">
     <defs>
      <path id="DejaVuSans-Bold-61" d="M 2106 1575 
Q 1756 1575 1579 1456 
Q 1403 1338 1403 1106 
Q 1403 894 1545 773 
Q 1688 653 1941 653 
Q 2256 653 2472 879 
Q 2688 1106 2688 1447 
L 2688 1575 
L 2106 1575 
z
M 3816 1997 
L 3816 0 
L 2688 0 
L 2688 519 
Q 2463 200 2181 54 
Q 1900 -91 1497 -91 
Q 953 -91 614 226 
Q 275 544 275 1050 
Q 275 1666 698 1953 
Q 1122 2241 2028 2241 
L 2688 2241 
L 2688 2328 
Q 2688 2594 2478 2717 
Q 2269 2841 1825 2841 
Q 1466 2841 1156 2769 
Q 847 2697 581 2553 
L 581 3406 
Q 941 3494 1303 3539 
Q 1666 3584 2028 3584 
Q 2975 3584 3395 3211 
Q 3816 2838 3816 1997 
z
" transform="scale(0.015625)"/>
     </defs>
     <use xlink:href="#DejaVuSans-Bold-61"/>
    </g>
   </g>
   <g id="text_15">
    <!-- $P_{NN}$ -->
    <g transform="translate(303.387273 149.52) scale(0.26 -0.26)">
     <use xlink:href="#DejaVuSans-Oblique-50" transform="translate(0 0.09375)"/>
     <use xlink:href="#DejaVuSans-Oblique-4e" transform="translate(60.302734 -16.3125) scale(0.7)"/>
     <use xlink:href="#DejaVuSans-Oblique-4e" transform="translate(112.666016 -16.3125) scale(0.7)"/>
    </g>
   </g>
  </g>
  <g id="axes_2">
   <g id="patch_7">
    <path d="M 591.545455 418.130526 
L 972 418.130526 
L 972 155.52 
L 591.545455 155.52 
z
" style="fill: #ffffff"/>
   </g>
   <g id="patch_8">
    <path d="M 608.838843 418.130526 
L 628.792753 418.130526 
L 628.792753 189.059587 
L 608.838843 189.059587 
z
" clip-path="url(#pc3e9936e29)" style="fill: #1f77b4"/>
   </g>
   <g id="patch_9">
    <path d="M 741.864908 418.130526 
L 761.818818 418.130526 
L 761.818818 300.67709 
L 741.864908 300.67709 
z
" clip-path="url(#pc3e9936e29)" style="fill: #1f77b4"/>
   </g>
   <g id="patch_10">
    <path d="M 874.890973 418.130526 
L 894.844882 418.130526 
L 894.844882 168.025263 
L 874.890973 168.025263 
z
" clip-path="url(#pc3e9936e29)" style="fill: #1f77b4"/>
   </g>
   <g id="patch_11">
    <path d="M 628.792753 418.130526 
L 648.746662 418.130526 
L 648.746662 188.446406 
L 628.792753 188.446406 
z
" clip-path="url(#pc3e9936e29)" style="fill: #ff7f0e"/>
   </g>
   <g id="patch_12">
    <path d="M 761.818818 418.130526 
L 781.772727 418.130526 
L 781.772727 171.38914 
L 761.818818 171.38914 
z
" clip-path="url(#pc3e9936e29)" style="fill: #ff7f0e"/>
   </g>
   <g id="patch_13">
    <path d="M 894.844882 418.130526 
L 914.798792 418.130526 
L 914.798792 188.37383 
L 894.844882 188.37383 
z
" clip-path="url(#pc3e9936e29)" style="fill: #ff7f0e"/>
   </g>
   <g id="patch_14">
    <path d="M 648.746662 418.130526 
L 668.700572 418.130526 
L 668.700572 190.277653 
L 648.746662 190.277653 
z
" clip-path="url(#pc3e9936e29)" style="fill: #2ca02c"/>
   </g>
   <g id="patch_15">
    <path d="M 781.772727 418.130526 
L 801.726637 418.130526 
L 801.726637 244.390128 
L 781.772727 244.390128 
z
" clip-path="url(#pc3e9936e29)" style="fill: #2ca02c"/>
   </g>
   <g id="patch_16">
    <path d="M 914.798792 418.130526 
L 934.752702 418.130526 
L 934.752702 189.757912 
L 914.798792 189.757912 
z
" clip-path="url(#pc3e9936e29)" style="fill: #2ca02c"/>
   </g>
   <g id="patch_17">
    <path d="M 668.700572 418.130526 
L 688.654482 418.130526 
L 688.654482 186.204834 
L 668.700572 186.204834 
z
" clip-path="url(#pc3e9936e29)" style="fill: #d62728"/>
   </g>
   <g id="patch_18">
    <path d="M 801.726637 418.130526 
L 821.680547 418.130526 
L 821.680547 240.991917 
L 801.726637 240.991917 
z
" clip-path="url(#pc3e9936e29)" style="fill: #d62728"/>
   </g>
   <g id="patch_19">
    <path d="M 934.752702 418.130526 
L 954.706612 418.130526 
L 954.706612 185.066539 
L 934.752702 185.066539 
z
" clip-path="url(#pc3e9936e29)" style="fill: #d62728"/>
   </g>
   <g id="matplotlib.axis_3">
    <g id="xtick_7">
     <g id="line2d_16">
      <g>
       <use xlink:href="#md5ee9475f6" x="648.746662" y="418.130526" style="stroke: #000000; stroke-width: 0.8"/>
      </g>
     </g>
     <g id="text_16">
      <!-- AUC -->
      <g transform="translate(625.490256 441.847089) scale(0.22 -0.22)">
       <defs>
        <path id="DejaVuSans-41" d="M 2188 4044 
L 1331 1722 
L 3047 1722 
L 2188 4044 
z
M 1831 4666 
L 2547 4666 
L 4325 0 
L 3669 0 
L 3244 1197 
L 1141 1197 
L 716 0 
L 50 0 
L 1831 4666 
z
" transform="scale(0.015625)"/>
        <path id="DejaVuSans-55" d="M 556 4666 
L 1191 4666 
L 1191 1831 
Q 1191 1081 1462 751 
Q 1734 422 2344 422 
Q 2950 422 3222 751 
Q 3494 1081 3494 1831 
L 3494 4666 
L 4128 4666 
L 4128 1753 
Q 4128 841 3676 375 
Q 3225 -91 2344 -91 
Q 1459 -91 1007 375 
Q 556 841 556 1753 
L 556 4666 
z
" transform="scale(0.015625)"/>
        <path id="DejaVuSans-43" d="M 4122 4306 
L 4122 3641 
Q 3803 3938 3442 4084 
Q 3081 4231 2675 4231 
Q 1875 4231 1450 3742 
Q 1025 3253 1025 2328 
Q 1025 1406 1450 917 
Q 1875 428 2675 428 
Q 3081 428 3442 575 
Q 3803 722 4122 1019 
L 4122 359 
Q 3791 134 3420 21 
Q 3050 -91 2638 -91 
Q 1578 -91 968 557 
Q 359 1206 359 2328 
Q 359 3453 968 4101 
Q 1578 4750 2638 4750 
Q 3056 4750 3426 4639 
Q 3797 4528 4122 4306 
z
" transform="scale(0.015625)"/>
       </defs>
       <use xlink:href="#DejaVuSans-41"/>
       <use xlink:href="#DejaVuSans-55" x="68.408203"/>
       <use xlink:href="#DejaVuSans-43" x="141.601562"/>
      </g>
     </g>
    </g>
    <g id="xtick_8">
     <g id="line2d_17">
      <g>
       <use xlink:href="#md5ee9475f6" x="781.772727" y="418.130526" style="stroke: #000000; stroke-width: 0.8"/>
      </g>
     </g>
     <g id="text_17">
      <!-- $Q_{local}$ -->
      <g transform="translate(754.822727 441.847089) scale(0.22 -0.22)">
       <defs>
        <path id="DejaVuSans-Oblique-51" d="M 2309 -84 
Q 2275 -88 2237 -89 
Q 2200 -91 2125 -91 
Q 1250 -91 756 411 
Q 263 913 263 1797 
Q 263 2319 452 2844 
Q 641 3369 978 3788 
Q 1369 4269 1858 4509 
Q 2347 4750 2938 4750 
Q 3794 4750 4287 4245 
Q 4781 3741 4781 2869 
Q 4781 1928 4265 1147 
Q 3750 366 2919 44 
L 3553 -825 
L 2847 -825 
L 2309 -84 
z
M 2919 4238 
Q 2400 4238 2003 3986 
Q 1606 3734 1313 3219 
Q 1125 2891 1026 2522 
Q 928 2153 928 1778 
Q 928 1128 1239 775 
Q 1550 422 2119 422 
Q 2631 422 3032 676 
Q 3434 931 3719 1434 
Q 3909 1772 4009 2142 
Q 4109 2513 4109 2881 
Q 4109 3528 3796 3883 
Q 3484 4238 2919 4238 
z
" transform="scale(0.015625)"/>
        <path id="DejaVuSans-Oblique-6c" d="M 1172 4863 
L 1747 4863 
L 800 0 
L 225 0 
L 1172 4863 
z
" transform="scale(0.015625)"/>
        <path id="DejaVuSans-Oblique-6f" d="M 1625 -91 
Q 1009 -91 651 289 
Q 294 669 294 1325 
Q 294 1706 417 2101 
Q 541 2497 738 2766 
Q 1047 3184 1428 3384 
Q 1809 3584 2291 3584 
Q 2888 3584 3255 3212 
Q 3622 2841 3622 2241 
Q 3622 1825 3500 1412 
Q 3378 1000 3181 728 
Q 2875 309 2494 109 
Q 2113 -91 1625 -91 
z
M 891 1344 
Q 891 869 1089 633 
Q 1288 397 1691 397 
Q 2269 397 2648 901 
Q 3028 1406 3028 2181 
Q 3028 2634 2825 2865 
Q 2622 3097 2228 3097 
Q 1903 3097 1650 2945 
Q 1397 2794 1197 2484 
Q 1050 2253 970 1956 
Q 891 1659 891 1344 
z
" transform="scale(0.015625)"/>
        <path id="DejaVuSans-Oblique-63" d="M 3431 3366 
L 3316 2797 
Q 3109 2947 2876 3022 
Q 2644 3097 2394 3097 
Q 2119 3097 1870 3000 
Q 1622 2903 1453 2725 
Q 1184 2453 1037 2087 
Q 891 1722 891 1331 
Q 891 859 1127 628 
Q 1363 397 1844 397 
Q 2081 397 2348 469 
Q 2616 541 2906 684 
L 2797 116 
Q 2547 13 2283 -39 
Q 2019 -91 1741 -91 
Q 1044 -91 669 257 
Q 294 606 294 1253 
Q 294 1797 489 2255 
Q 684 2713 1069 3078 
Q 1331 3328 1684 3456 
Q 2038 3584 2456 3584 
Q 2700 3584 2940 3529 
Q 3181 3475 3431 3366 
z
" transform="scale(0.015625)"/>
        <path id="DejaVuSans-Oblique-61" d="M 3438 1997 
L 3047 0 
L 2472 0 
L 2578 531 
Q 2325 219 2001 64 
Q 1678 -91 1281 -91 
Q 834 -91 548 182 
Q 263 456 263 884 
Q 263 1497 752 1853 
Q 1241 2209 2100 2209 
L 2900 2209 
L 2931 2363 
Q 2938 2388 2941 2417 
Q 2944 2447 2944 2509 
Q 2944 2788 2717 2942 
Q 2491 3097 2081 3097 
Q 1800 3097 1504 3025 
Q 1209 2953 897 2809 
L 997 3341 
Q 1322 3463 1633 3523 
Q 1944 3584 2234 3584 
Q 2853 3584 3176 3315 
Q 3500 3047 3500 2534 
Q 3500 2431 3484 2292 
Q 3469 2153 3438 1997 
z
M 2816 1759 
L 2241 1759 
Q 1534 1759 1195 1570 
Q 856 1381 856 984 
Q 856 709 1029 553 
Q 1203 397 1509 397 
Q 1978 397 2328 733 
Q 2678 1069 2791 1631 
L 2816 1759 
z
" transform="scale(0.015625)"/>
       </defs>
       <use xlink:href="#DejaVuSans-Oblique-51" transform="translate(0 0.78125)"/>
       <use xlink:href="#DejaVuSans-Oblique-6c" transform="translate(78.710938 -15.625) scale(0.7)"/>
       <use xlink:href="#DejaVuSans-Oblique-6f" transform="translate(98.15918 -15.625) scale(0.7)"/>
       <use xlink:href="#DejaVuSans-Oblique-63" transform="translate(140.986328 -15.625) scale(0.7)"/>
       <use xlink:href="#DejaVuSans-Oblique-61" transform="translate(179.472656 -15.625) scale(0.7)"/>
       <use xlink:href="#DejaVuSans-Oblique-6c" transform="translate(222.368164 -15.625) scale(0.7)"/>
      </g>
     </g>
    </g>
    <g id="xtick_9">
     <g id="line2d_18">
      <g>
       <use xlink:href="#md5ee9475f6" x="914.798792" y="418.130526" style="stroke: #000000; stroke-width: 0.8"/>
      </g>
     </g>
     <g id="text_18">
      <!-- $Q_{global}$ -->
      <g transform="translate(882.348792 441.630526) scale(0.22 -0.22)">
       <defs>
        <path id="DejaVuSans-Oblique-67" d="M 3816 3500 
L 3219 434 
Q 3047 -456 2561 -893 
Q 2075 -1331 1253 -1331 
Q 950 -1331 690 -1286 
Q 431 -1241 206 -1147 
L 313 -588 
Q 525 -725 762 -790 
Q 1000 -856 1269 -856 
Q 1816 -856 2167 -557 
Q 2519 -259 2631 300 
L 2681 563 
Q 2441 288 2122 144 
Q 1803 0 1434 0 
Q 903 0 598 351 
Q 294 703 294 1319 
Q 294 1803 478 2267 
Q 663 2731 997 3091 
Q 1219 3328 1514 3456 
Q 1809 3584 2131 3584 
Q 2484 3584 2746 3420 
Q 3009 3256 3138 2956 
L 3238 3500 
L 3816 3500 
z
M 2950 2216 
Q 2950 2641 2750 2872 
Q 2550 3103 2181 3103 
Q 1953 3103 1747 3012 
Q 1541 2922 1394 2759 
Q 1156 2491 1023 2127 
Q 891 1763 891 1375 
Q 891 944 1092 712 
Q 1294 481 1672 481 
Q 2219 481 2584 976 
Q 2950 1472 2950 2216 
z
" transform="scale(0.015625)"/>
        <path id="DejaVuSans-Oblique-62" d="M 3169 2138 
Q 3169 2591 2961 2847 
Q 2753 3103 2388 3103 
Q 2122 3103 1889 2973 
Q 1656 2844 1484 2597 
Q 1303 2338 1198 1995 
Q 1094 1653 1094 1313 
Q 1094 881 1298 636 
Q 1503 391 1863 391 
Q 2134 391 2365 517 
Q 2597 644 2772 891 
Q 2950 1147 3059 1487 
Q 3169 1828 3169 2138 
z
M 1381 2969 
Q 1594 3256 1914 3420 
Q 2234 3584 2584 3584 
Q 3122 3584 3439 3221 
Q 3756 2859 3756 2241 
Q 3756 1734 3570 1259 
Q 3384 784 3041 416 
Q 2816 172 2522 40 
Q 2228 -91 1906 -91 
Q 1566 -91 1316 65 
Q 1066 222 909 531 
L 806 0 
L 231 0 
L 1178 4863 
L 1753 4863 
L 1381 2969 
z
" transform="scale(0.015625)"/>
       </defs>
       <use xlink:href="#DejaVuSans-Oblique-51" transform="translate(0 0.78125)"/>
       <use xlink:href="#DejaVuSans-Oblique-67" transform="translate(78.710938 -15.625) scale(0.7)"/>
       <use xlink:href="#DejaVuSans-Oblique-6c" transform="translate(123.144531 -15.625) scale(0.7)"/>
       <use xlink:href="#DejaVuSans-Oblique-6f" transform="translate(142.592773 -15.625) scale(0.7)"/>
       <use xlink:href="#DejaVuSans-Oblique-62" transform="translate(185.419922 -15.625) scale(0.7)"/>
       <use xlink:href="#DejaVuSans-Oblique-61" transform="translate(229.853516 -15.625) scale(0.7)"/>
       <use xlink:href="#DejaVuSans-Oblique-6c" transform="translate(272.749023 -15.625) scale(0.7)"/>
      </g>
     </g>
    </g>
   </g>
   <g id="matplotlib.axis_4">
    <g id="ytick_6">
     <g id="line2d_19">
      <g>
       <use xlink:href="#m0970e32151" x="591.545455" y="418.130526" style="stroke: #000000; stroke-width: 0.8"/>
      </g>
     </g>
     <g id="text_19">
      <!-- 0.0 -->
      <g transform="translate(549.55858 426.488808) scale(0.22 -0.22)">
       <use xlink:href="#DejaVuSans-30"/>
       <use xlink:href="#DejaVuSans-2e" x="63.623047"/>
       <use xlink:href="#DejaVuSans-30" x="95.410156"/>
      </g>
     </g>
    </g>
    <g id="ytick_7">
     <g id="line2d_20">
      <g>
       <use xlink:href="#m0970e32151" x="591.545455" y="350.163367" style="stroke: #000000; stroke-width: 0.8"/>
      </g>
     </g>
     <g id="text_20">
      <!-- 0.2 -->
      <g transform="translate(549.55858 358.521648) scale(0.22 -0.22)">
       <use xlink:href="#DejaVuSans-30"/>
       <use xlink:href="#DejaVuSans-2e" x="63.623047"/>
       <use xlink:href="#DejaVuSans-32" x="95.410156"/>
      </g>
     </g>
    </g>
    <g id="ytick_8">
     <g id="line2d_21">
      <g>
       <use xlink:href="#m0970e32151" x="591.545455" y="282.196207" style="stroke: #000000; stroke-width: 0.8"/>
      </g>
     </g>
     <g id="text_21">
      <!-- 0.4 -->
      <g transform="translate(549.55858 290.554488) scale(0.22 -0.22)">
       <use xlink:href="#DejaVuSans-30"/>
       <use xlink:href="#DejaVuSans-2e" x="63.623047"/>
       <use xlink:href="#DejaVuSans-34" x="95.410156"/>
      </g>
     </g>
    </g>
    <g id="ytick_9">
     <g id="line2d_22">
      <g>
       <use xlink:href="#m0970e32151" x="591.545455" y="214.229047" style="stroke: #000000; stroke-width: 0.8"/>
      </g>
     </g>
     <g id="text_22">
      <!-- 0.6 -->
      <g transform="translate(549.55858 222.587328) scale(0.22 -0.22)">
       <use xlink:href="#DejaVuSans-30"/>
       <use xlink:href="#DejaVuSans-2e" x="63.623047"/>
       <use xlink:href="#DejaVuSans-36" x="95.410156"/>
      </g>
     </g>
    </g>
    <g id="text_23">
     <!-- Metric Value -->
     <g transform="translate(540.983267 354.727919) rotate(-90) scale(0.22 -0.22)">
      <defs>
       <path id="DejaVuSans-4d" d="M 628 4666 
L 1569 4666 
L 2759 1491 
L 3956 4666 
L 4897 4666 
L 4897 0 
L 4281 0 
L 4281 4097 
L 3078 897 
L 2444 897 
L 1241 4097 
L 1241 0 
L 628 0 
L 628 4666 
z
" transform="scale(0.015625)"/>
       <path id="DejaVuSans-65" d="M 3597 1894 
L 3597 1613 
L 953 1613 
Q 991 1019 1311 708 
Q 1631 397 2203 397 
Q 2534 397 2845 478 
Q 3156 559 3463 722 
L 3463 178 
Q 3153 47 2828 -22 
Q 2503 -91 2169 -91 
Q 1331 -91 842 396 
Q 353 884 353 1716 
Q 353 2575 817 3079 
Q 1281 3584 2069 3584 
Q 2775 3584 3186 3129 
Q 3597 2675 3597 1894 
z
M 3022 2063 
Q 3016 2534 2758 2815 
Q 2500 3097 2075 3097 
Q 1594 3097 1305 2825 
Q 1016 2553 972 2059 
L 3022 2063 
z
" transform="scale(0.015625)"/>
       <path id="DejaVuSans-74" d="M 1172 4494 
L 1172 3500 
L 2356 3500 
L 2356 3053 
L 1172 3053 
L 1172 1153 
Q 1172 725 1289 603 
Q 1406 481 1766 481 
L 2356 481 
L 2356 0 
L 1766 0 
Q 1100 0 847 248 
Q 594 497 594 1153 
L 594 3053 
L 172 3053 
L 172 3500 
L 594 3500 
L 594 4494 
L 1172 4494 
z
" transform="scale(0.015625)"/>
       <path id="DejaVuSans-72" d="M 2631 2963 
Q 2534 3019 2420 3045 
Q 2306 3072 2169 3072 
Q 1681 3072 1420 2755 
Q 1159 2438 1159 1844 
L 1159 0 
L 581 0 
L 581 3500 
L 1159 3500 
L 1159 2956 
Q 1341 3275 1631 3429 
Q 1922 3584 2338 3584 
Q 2397 3584 2469 3576 
Q 2541 3569 2628 3553 
L 2631 2963 
z
" transform="scale(0.015625)"/>
       <path id="DejaVuSans-69" d="M 603 3500 
L 1178 3500 
L 1178 0 
L 603 0 
L 603 3500 
z
M 603 4863 
L 1178 4863 
L 1178 4134 
L 603 4134 
L 603 4863 
z
" transform="scale(0.015625)"/>
       <path id="DejaVuSans-63" d="M 3122 3366 
L 3122 2828 
Q 2878 2963 2633 3030 
Q 2388 3097 2138 3097 
Q 1578 3097 1268 2742 
Q 959 2388 959 1747 
Q 959 1106 1268 751 
Q 1578 397 2138 397 
Q 2388 397 2633 464 
Q 2878 531 3122 666 
L 3122 134 
Q 2881 22 2623 -34 
Q 2366 -91 2075 -91 
Q 1284 -91 818 406 
Q 353 903 353 1747 
Q 353 2603 823 3093 
Q 1294 3584 2113 3584 
Q 2378 3584 2631 3529 
Q 2884 3475 3122 3366 
z
" transform="scale(0.015625)"/>
       <path id="DejaVuSans-20" transform="scale(0.015625)"/>
       <path id="DejaVuSans-56" d="M 1831 0 
L 50 4666 
L 709 4666 
L 2188 738 
L 3669 4666 
L 4325 4666 
L 2547 0 
L 1831 0 
z
" transform="scale(0.015625)"/>
       <path id="DejaVuSans-61" d="M 2194 1759 
Q 1497 1759 1228 1600 
Q 959 1441 959 1056 
Q 959 750 1161 570 
Q 1363 391 1709 391 
Q 2188 391 2477 730 
Q 2766 1069 2766 1631 
L 2766 1759 
L 2194 1759 
z
M 3341 1997 
L 3341 0 
L 2766 0 
L 2766 531 
Q 2569 213 2275 61 
Q 1981 -91 1556 -91 
Q 1019 -91 701 211 
Q 384 513 384 1019 
Q 384 1609 779 1909 
Q 1175 2209 1959 2209 
L 2766 2209 
L 2766 2266 
Q 2766 2663 2505 2880 
Q 2244 3097 1772 3097 
Q 1472 3097 1187 3025 
Q 903 2953 641 2809 
L 641 3341 
Q 956 3463 1253 3523 
Q 1550 3584 1831 3584 
Q 2591 3584 2966 3190 
Q 3341 2797 3341 1997 
z
" transform="scale(0.015625)"/>
       <path id="DejaVuSans-6c" d="M 603 4863 
L 1178 4863 
L 1178 0 
L 603 0 
L 603 4863 
z
" transform="scale(0.015625)"/>
       <path id="DejaVuSans-75" d="M 544 1381 
L 544 3500 
L 1119 3500 
L 1119 1403 
Q 1119 906 1312 657 
Q 1506 409 1894 409 
Q 2359 409 2629 706 
Q 2900 1003 2900 1516 
L 2900 3500 
L 3475 3500 
L 3475 0 
L 2900 0 
L 2900 538 
Q 2691 219 2414 64 
Q 2138 -91 1772 -91 
Q 1169 -91 856 284 
Q 544 659 544 1381 
z
M 1991 3584 
L 1991 3584 
z
" transform="scale(0.015625)"/>
      </defs>
      <use xlink:href="#DejaVuSans-4d"/>
      <use xlink:href="#DejaVuSans-65" x="86.279297"/>
      <use xlink:href="#DejaVuSans-74" x="147.802734"/>
      <use xlink:href="#DejaVuSans-72" x="187.011719"/>
      <use xlink:href="#DejaVuSans-69" x="228.125"/>
      <use xlink:href="#DejaVuSans-63" x="255.908203"/>
      <use xlink:href="#DejaVuSans-20" x="310.888672"/>
      <use xlink:href="#DejaVuSans-56" x="342.675781"/>
      <use xlink:href="#DejaVuSans-61" x="403.333984"/>
      <use xlink:href="#DejaVuSans-6c" x="464.613281"/>
      <use xlink:href="#DejaVuSans-75" x="492.396484"/>
      <use xlink:href="#DejaVuSans-65" x="555.775391"/>
     </g>
    </g>
   </g>
   <g id="patch_20">
    <path d="M 591.545455 418.130526 
L 591.545455 155.52 
" style="fill: none; stroke: #000000; stroke-width: 0.8; stroke-linejoin: miter; stroke-linecap: square"/>
   </g>
   <g id="patch_21">
    <path d="M 972 418.130526 
L 972 155.52 
" style="fill: none; stroke: #000000; stroke-width: 0.8; stroke-linejoin: miter; stroke-linecap: square"/>
   </g>
   <g id="patch_22">
    <path d="M 591.545455 418.130526 
L 972 418.130526 
" style="fill: none; stroke: #000000; stroke-width: 0.8; stroke-linejoin: miter; stroke-linecap: square"/>
   </g>
   <g id="patch_23">
    <path d="M 591.545455 155.52 
L 972 155.52 
" style="fill: none; stroke: #000000; stroke-width: 0.8; stroke-linejoin: miter; stroke-linecap: square"/>
   </g>
   <g id="text_24">
    <!-- b -->
    <g transform="translate(544.871761 137.404046) scale(0.28 -0.28)">
     <defs>
      <path id="DejaVuSans-Bold-62" d="M 2400 722 
Q 2759 722 2948 984 
Q 3138 1247 3138 1747 
Q 3138 2247 2948 2509 
Q 2759 2772 2400 2772 
Q 2041 2772 1848 2508 
Q 1656 2244 1656 1747 
Q 1656 1250 1848 986 
Q 2041 722 2400 722 
z
M 1656 2988 
Q 1888 3294 2169 3439 
Q 2450 3584 2816 3584 
Q 3463 3584 3878 3070 
Q 4294 2556 4294 1747 
Q 4294 938 3878 423 
Q 3463 -91 2816 -91 
Q 2450 -91 2169 54 
Q 1888 200 1656 506 
L 1656 0 
L 538 0 
L 538 4863 
L 1656 4863 
L 1656 2988 
z
" transform="scale(0.015625)"/>
     </defs>
     <use xlink:href="#DejaVuSans-Bold-62"/>
    </g>
   </g>
   <g id="text_25">
    <!-- Metrics -->
    <g transform="translate(734.584759 149.52) scale(0.26 -0.26)">
     <defs>
      <path id="DejaVuSans-73" d="M 2834 3397 
L 2834 2853 
Q 2591 2978 2328 3040 
Q 2066 3103 1784 3103 
Q 1356 3103 1142 2972 
Q 928 2841 928 2578 
Q 928 2378 1081 2264 
Q 1234 2150 1697 2047 
L 1894 2003 
Q 2506 1872 2764 1633 
Q 3022 1394 3022 966 
Q 3022 478 2636 193 
Q 2250 -91 1575 -91 
Q 1294 -91 989 -36 
Q 684 19 347 128 
L 347 722 
Q 666 556 975 473 
Q 1284 391 1588 391 
Q 1994 391 2212 530 
Q 2431 669 2431 922 
Q 2431 1156 2273 1281 
Q 2116 1406 1581 1522 
L 1381 1569 
Q 847 1681 609 1914 
Q 372 2147 372 2553 
Q 372 3047 722 3315 
Q 1072 3584 1716 3584 
Q 2034 3584 2315 3537 
Q 2597 3491 2834 3397 
z
" transform="scale(0.015625)"/>
     </defs>
     <use xlink:href="#DejaVuSans-4d"/>
     <use xlink:href="#DejaVuSans-65" x="86.279297"/>
     <use xlink:href="#DejaVuSans-74" x="147.802734"/>
     <use xlink:href="#DejaVuSans-72" x="187.011719"/>
     <use xlink:href="#DejaVuSans-69" x="228.125"/>
     <use xlink:href="#DejaVuSans-63" x="255.908203"/>
     <use xlink:href="#DejaVuSans-73" x="310.888672"/>
    </g>
   </g>
  </g>
  <g id="axes_3">
   <g id="patch_24">
    <path d="M 135 785.785263 
L 515.454545 785.785263 
L 515.454545 523.174737 
L 135 523.174737 
z
" style="fill: #ffffff"/>
   </g>
   <g id="matplotlib.axis_5">
    <g id="xtick_10">
     <g id="line2d_23">
      <g>
       <use xlink:href="#md5ee9475f6" x="137.882231" y="785.785263" style="stroke: #000000; stroke-width: 0.8"/>
      </g>
     </g>
     <g id="text_26">
      <!-- 0 -->
      <g transform="translate(130.883481 809.501826) scale(0.22 -0.22)">
       <use xlink:href="#DejaVuSans-30"/>
      </g>
     </g>
    </g>
    <g id="xtick_11">
     <g id="line2d_24">
      <g>
       <use xlink:href="#md5ee9475f6" x="281.993802" y="785.785263" style="stroke: #000000; stroke-width: 0.8"/>
      </g>
     </g>
     <g id="text_27">
      <!-- 20 -->
      <g transform="translate(267.996302 809.501826) scale(0.22 -0.22)">
       <use xlink:href="#DejaVuSans-32"/>
       <use xlink:href="#DejaVuSans-30" x="63.623047"/>
      </g>
     </g>
    </g>
    <g id="xtick_12">
     <g id="line2d_25">
      <g>
       <use xlink:href="#md5ee9475f6" x="426.105372" y="785.785263" style="stroke: #000000; stroke-width: 0.8"/>
      </g>
     </g>
     <g id="text_28">
      <!-- 40 -->
      <g transform="translate(412.107872 809.501826) scale(0.22 -0.22)">
       <use xlink:href="#DejaVuSans-34"/>
       <use xlink:href="#DejaVuSans-30" x="63.623047"/>
      </g>
     </g>
    </g>
    <g id="text_29">
     <!-- k -->
     <g transform="translate(318.278523 836.313388) scale(0.24 -0.24)">
      <use xlink:href="#DejaVuSans-6b"/>
     </g>
    </g>
   </g>
   <g id="matplotlib.axis_6">
    <g id="ytick_10">
     <g id="line2d_26">
      <g>
       <use xlink:href="#m0970e32151" x="135" y="745.373304" style="stroke: #000000; stroke-width: 0.8"/>
      </g>
     </g>
     <g id="text_30">
      <!-- 0.80 -->
      <g transform="translate(79.015625 753.731585) scale(0.22 -0.22)">
       <use xlink:href="#DejaVuSans-30"/>
       <use xlink:href="#DejaVuSans-2e" x="63.623047"/>
       <use xlink:href="#DejaVuSans-38" x="95.410156"/>
       <use xlink:href="#DejaVuSans-30" x="159.033203"/>
      </g>
     </g>
    </g>
    <g id="ytick_11">
     <g id="line2d_27">
      <g>
       <use xlink:href="#m0970e32151" x="135" y="691.106185" style="stroke: #000000; stroke-width: 0.8"/>
      </g>
     </g>
     <g id="text_31">
      <!-- 0.85 -->
      <g transform="translate(79.015625 699.464467) scale(0.22 -0.22)">
       <use xlink:href="#DejaVuSans-30"/>
       <use xlink:href="#DejaVuSans-2e" x="63.623047"/>
       <use xlink:href="#DejaVuSans-38" x="95.410156"/>
       <use xlink:href="#DejaVuSans-35" x="159.033203"/>
      </g>
     </g>
    </g>
    <g id="ytick_12">
     <g id="line2d_28">
      <g>
       <use xlink:href="#m0970e32151" x="135" y="636.839067" style="stroke: #000000; stroke-width: 0.8"/>
      </g>
     </g>
     <g id="text_32">
      <!-- 0.90 -->
      <g transform="translate(79.015625 645.197348) scale(0.22 -0.22)">
       <defs>
        <path id="DejaVuSans-39" d="M 703 97 
L 703 672 
Q 941 559 1184 500 
Q 1428 441 1663 441 
Q 2288 441 2617 861 
Q 2947 1281 2994 2138 
Q 2813 1869 2534 1725 
Q 2256 1581 1919 1581 
Q 1219 1581 811 2004 
Q 403 2428 403 3163 
Q 403 3881 828 4315 
Q 1253 4750 1959 4750 
Q 2769 4750 3195 4129 
Q 3622 3509 3622 2328 
Q 3622 1225 3098 567 
Q 2575 -91 1691 -91 
Q 1453 -91 1209 -44 
Q 966 3 703 97 
z
M 1959 2075 
Q 2384 2075 2632 2365 
Q 2881 2656 2881 3163 
Q 2881 3666 2632 3958 
Q 2384 4250 1959 4250 
Q 1534 4250 1286 3958 
Q 1038 3666 1038 3163 
Q 1038 2656 1286 2365 
Q 1534 2075 1959 2075 
z
" transform="scale(0.015625)"/>
       </defs>
       <use xlink:href="#DejaVuSans-30"/>
       <use xlink:href="#DejaVuSans-2e" x="63.623047"/>
       <use xlink:href="#DejaVuSans-39" x="95.410156"/>
       <use xlink:href="#DejaVuSans-30" x="159.033203"/>
      </g>
     </g>
    </g>
    <g id="ytick_13">
     <g id="line2d_29">
      <g>
       <use xlink:href="#m0970e32151" x="135" y="582.571949" style="stroke: #000000; stroke-width: 0.8"/>
      </g>
     </g>
     <g id="text_33">
      <!-- 0.95 -->
      <g transform="translate(79.015625 590.93023) scale(0.22 -0.22)">
       <use xlink:href="#DejaVuSans-30"/>
       <use xlink:href="#DejaVuSans-2e" x="63.623047"/>
       <use xlink:href="#DejaVuSans-39" x="95.410156"/>
       <use xlink:href="#DejaVuSans-35" x="159.033203"/>
      </g>
     </g>
    </g>
    <g id="ytick_14">
     <g id="line2d_30">
      <g>
       <use xlink:href="#m0970e32151" x="135" y="528.304831" style="stroke: #000000; stroke-width: 0.8"/>
      </g>
     </g>
     <g id="text_34">
      <!-- 1.00 -->
      <g transform="translate(79.015625 536.663112) scale(0.22 -0.22)">
       <use xlink:href="#DejaVuSans-31"/>
       <use xlink:href="#DejaVuSans-2e" x="63.623047"/>
       <use xlink:href="#DejaVuSans-30" x="95.410156"/>
       <use xlink:href="#DejaVuSans-30" x="159.033203"/>
      </g>
     </g>
    </g>
    <g id="text_35">
     <!-- Metric Value -->
     <g transform="translate(70.024375 728.555625) rotate(-90) scale(0.24 -0.24)">
      <use xlink:href="#DejaVuSans-4d"/>
      <use xlink:href="#DejaVuSans-65" x="86.279297"/>
      <use xlink:href="#DejaVuSans-74" x="147.802734"/>
      <use xlink:href="#DejaVuSans-72" x="187.011719"/>
      <use xlink:href="#DejaVuSans-69" x="228.125"/>
      <use xlink:href="#DejaVuSans-63" x="255.908203"/>
      <use xlink:href="#DejaVuSans-20" x="310.888672"/>
      <use xlink:href="#DejaVuSans-56" x="342.675781"/>
      <use xlink:href="#DejaVuSans-61" x="403.333984"/>
      <use xlink:href="#DejaVuSans-6c" x="464.613281"/>
      <use xlink:href="#DejaVuSans-75" x="492.396484"/>
      <use xlink:href="#DejaVuSans-65" x="555.775391"/>
     </g>
    </g>
   </g>
   <g id="line2d_31">
    <path d="M 152.293388 759.65557 
L 173.910124 759.718507 
L 209.938017 763.78383 
L 281.993802 768.653896 
L 498.161157 773.848421 
" clip-path="url(#pe3610918e2)" style="fill: none; stroke: #1f77b4; stroke-width: 1.5; stroke-linecap: square"/>
    <g clip-path="url(#pe3610918e2)">
     <use xlink:href="#m7912c94c27" x="152.293388" y="759.65557" style="fill: #1f77b4; stroke: #1f77b4"/>
     <use xlink:href="#m7912c94c27" x="173.910124" y="759.718507" style="fill: #1f77b4; stroke: #1f77b4"/>
     <use xlink:href="#m7912c94c27" x="209.938017" y="763.78383" style="fill: #1f77b4; stroke: #1f77b4"/>
     <use xlink:href="#m7912c94c27" x="281.993802" y="768.653896" style="fill: #1f77b4; stroke: #1f77b4"/>
     <use xlink:href="#m7912c94c27" x="498.161157" y="773.848421" style="fill: #1f77b4; stroke: #1f77b4"/>
    </g>
   </g>
   <g id="line2d_32">
    <path d="M 152.293388 535.111579 
L 173.910124 546.211518 
L 209.938017 563.292179 
L 281.993802 585.188196 
L 498.161157 630.312688 
" clip-path="url(#pe3610918e2)" style="fill: none; stroke: #ff7f0e; stroke-width: 1.5; stroke-linecap: square"/>
    <g clip-path="url(#pe3610918e2)">
     <use xlink:href="#m0f5e9cd6f9" x="152.293388" y="535.111579" style="fill: #ff7f0e; stroke: #ff7f0e"/>
     <use xlink:href="#m0f5e9cd6f9" x="173.910124" y="546.211518" style="fill: #ff7f0e; stroke: #ff7f0e"/>
     <use xlink:href="#m0f5e9cd6f9" x="209.938017" y="563.292179" style="fill: #ff7f0e; stroke: #ff7f0e"/>
     <use xlink:href="#m0f5e9cd6f9" x="281.993802" y="585.188196" style="fill: #ff7f0e; stroke: #ff7f0e"/>
     <use xlink:href="#m0f5e9cd6f9" x="498.161157" y="630.312688" style="fill: #ff7f0e; stroke: #ff7f0e"/>
    </g>
   </g>
   <g id="line2d_33">
    <path d="M 152.293388 546.777294 
L 173.910124 551.711339 
L 209.938017 563.286545 
L 281.993802 589.953317 
L 498.161157 639.052787 
" clip-path="url(#pe3610918e2)" style="fill: none; stroke: #2ca02c; stroke-width: 1.5; stroke-linecap: square"/>
    <g clip-path="url(#pe3610918e2)">
     <use xlink:href="#mdb6f222a3e" x="152.293388" y="546.777294" style="fill: #2ca02c; stroke: #2ca02c"/>
     <use xlink:href="#mdb6f222a3e" x="173.910124" y="551.711339" style="fill: #2ca02c; stroke: #2ca02c"/>
     <use xlink:href="#mdb6f222a3e" x="209.938017" y="563.286545" style="fill: #2ca02c; stroke: #2ca02c"/>
     <use xlink:href="#mdb6f222a3e" x="281.993802" y="589.953317" style="fill: #2ca02c; stroke: #2ca02c"/>
     <use xlink:href="#mdb6f222a3e" x="498.161157" y="639.052787" style="fill: #2ca02c; stroke: #2ca02c"/>
    </g>
   </g>
   <g id="line2d_34">
    <path d="M 152.293388 556.787664 
L 173.910124 560.472194 
L 209.938017 567.154729 
L 281.993802 581.265095 
L 498.161157 618.826927 
" clip-path="url(#pe3610918e2)" style="fill: none; stroke: #d62728; stroke-width: 1.5; stroke-linecap: square"/>
    <g clip-path="url(#pe3610918e2)">
     <use xlink:href="#m08f99c8769" x="152.293388" y="556.787664" style="fill: #d62728; stroke: #d62728"/>
     <use xlink:href="#m08f99c8769" x="173.910124" y="560.472194" style="fill: #d62728; stroke: #d62728"/>
     <use xlink:href="#m08f99c8769" x="209.938017" y="567.154729" style="fill: #d62728; stroke: #d62728"/>
     <use xlink:href="#m08f99c8769" x="281.993802" y="581.265095" style="fill: #d62728; stroke: #d62728"/>
     <use xlink:href="#m08f99c8769" x="498.161157" y="618.826927" style="fill: #d62728; stroke: #d62728"/>
    </g>
   </g>
   <g id="patch_25">
    <path d="M 135 785.785263 
L 135 523.174737 
" style="fill: none; stroke: #000000; stroke-width: 0.8; stroke-linejoin: miter; stroke-linecap: square"/>
   </g>
   <g id="patch_26">
    <path d="M 515.454545 785.785263 
L 515.454545 523.174737 
" style="fill: none; stroke: #000000; stroke-width: 0.8; stroke-linejoin: miter; stroke-linecap: square"/>
   </g>
   <g id="patch_27">
    <path d="M 135 785.785263 
L 515.454545 785.785263 
" style="fill: none; stroke: #000000; stroke-width: 0.8; stroke-linejoin: miter; stroke-linecap: square"/>
   </g>
   <g id="patch_28">
    <path d="M 135 523.174737 
L 515.454545 523.174737 
" style="fill: none; stroke: #000000; stroke-width: 0.8; stroke-linejoin: miter; stroke-linecap: square"/>
   </g>
   <g id="text_36">
    <!-- c -->
    <g transform="translate(91.769432 505.058783) scale(0.28 -0.28)">
     <defs>
      <path id="DejaVuSans-Bold-63" d="M 3366 3391 
L 3366 2478 
Q 3138 2634 2908 2709 
Q 2678 2784 2431 2784 
Q 1963 2784 1702 2511 
Q 1441 2238 1441 1747 
Q 1441 1256 1702 982 
Q 1963 709 2431 709 
Q 2694 709 2930 787 
Q 3166 866 3366 1019 
L 3366 103 
Q 3103 6 2833 -42 
Q 2563 -91 2291 -91 
Q 1344 -91 809 395 
Q 275 881 275 1747 
Q 275 2613 809 3098 
Q 1344 3584 2291 3584 
Q 2566 3584 2833 3536 
Q 3100 3488 3366 3391 
z
" transform="scale(0.015625)"/>
     </defs>
     <use xlink:href="#DejaVuSans-Bold-63"/>
    </g>
   </g>
   <g id="text_37">
    <!-- Trustworthiness -->
    <g transform="translate(230.950398 517.174737) scale(0.24 -0.24)">
     <defs>
      <path id="DejaVuSans-54" d="M -19 4666 
L 3928 4666 
L 3928 4134 
L 2272 4134 
L 2272 0 
L 1638 0 
L 1638 4134 
L -19 4134 
L -19 4666 
z
" transform="scale(0.015625)"/>
      <path id="DejaVuSans-77" d="M 269 3500 
L 844 3500 
L 1563 769 
L 2278 3500 
L 2956 3500 
L 3675 769 
L 4391 3500 
L 4966 3500 
L 4050 0 
L 3372 0 
L 2619 2869 
L 1863 0 
L 1184 0 
L 269 3500 
z
" transform="scale(0.015625)"/>
      <path id="DejaVuSans-6f" d="M 1959 3097 
Q 1497 3097 1228 2736 
Q 959 2375 959 1747 
Q 959 1119 1226 758 
Q 1494 397 1959 397 
Q 2419 397 2687 759 
Q 2956 1122 2956 1747 
Q 2956 2369 2687 2733 
Q 2419 3097 1959 3097 
z
M 1959 3584 
Q 2709 3584 3137 3096 
Q 3566 2609 3566 1747 
Q 3566 888 3137 398 
Q 2709 -91 1959 -91 
Q 1206 -91 779 398 
Q 353 888 353 1747 
Q 353 2609 779 3096 
Q 1206 3584 1959 3584 
z
" transform="scale(0.015625)"/>
      <path id="DejaVuSans-68" d="M 3513 2113 
L 3513 0 
L 2938 0 
L 2938 2094 
Q 2938 2591 2744 2837 
Q 2550 3084 2163 3084 
Q 1697 3084 1428 2787 
Q 1159 2491 1159 1978 
L 1159 0 
L 581 0 
L 581 4863 
L 1159 4863 
L 1159 2956 
Q 1366 3272 1645 3428 
Q 1925 3584 2291 3584 
Q 2894 3584 3203 3211 
Q 3513 2838 3513 2113 
z
" transform="scale(0.015625)"/>
      <path id="DejaVuSans-6e" d="M 3513 2113 
L 3513 0 
L 2938 0 
L 2938 2094 
Q 2938 2591 2744 2837 
Q 2550 3084 2163 3084 
Q 1697 3084 1428 2787 
Q 1159 2491 1159 1978 
L 1159 0 
L 581 0 
L 581 3500 
L 1159 3500 
L 1159 2956 
Q 1366 3272 1645 3428 
Q 1925 3584 2291 3584 
Q 2894 3584 3203 3211 
Q 3513 2838 3513 2113 
z
" transform="scale(0.015625)"/>
     </defs>
     <use xlink:href="#DejaVuSans-54"/>
     <use xlink:href="#DejaVuSans-72" x="46.333984"/>
     <use xlink:href="#DejaVuSans-75" x="87.447266"/>
     <use xlink:href="#DejaVuSans-73" x="150.826172"/>
     <use xlink:href="#DejaVuSans-74" x="202.925781"/>
     <use xlink:href="#DejaVuSans-77" x="242.134766"/>
     <use xlink:href="#DejaVuSans-6f" x="323.921875"/>
     <use xlink:href="#DejaVuSans-72" x="385.103516"/>
     <use xlink:href="#DejaVuSans-74" x="426.216797"/>
     <use xlink:href="#DejaVuSans-68" x="465.425781"/>
     <use xlink:href="#DejaVuSans-69" x="528.804688"/>
     <use xlink:href="#DejaVuSans-6e" x="556.587891"/>
     <use xlink:href="#DejaVuSans-65" x="619.966797"/>
     <use xlink:href="#DejaVuSans-73" x="681.490234"/>
     <use xlink:href="#DejaVuSans-73" x="733.589844"/>
    </g>
   </g>
  </g>
  <g id="axes_4">
   <g id="patch_29">
    <path d="M 591.545455 785.785263 
L 972 785.785263 
L 972 523.174737 
L 591.545455 523.174737 
z
" style="fill: #ffffff"/>
   </g>
   <g id="matplotlib.axis_7">
    <g id="xtick_13">
     <g id="line2d_35">
      <g>
       <use xlink:href="#md5ee9475f6" x="594.427686" y="785.785263" style="stroke: #000000; stroke-width: 0.8"/>
      </g>
     </g>
     <g id="text_38">
      <!-- 0 -->
      <g transform="translate(587.428936 809.501826) scale(0.22 -0.22)">
       <use xlink:href="#DejaVuSans-30"/>
      </g>
     </g>
    </g>
    <g id="xtick_14">
     <g id="line2d_36">
      <g>
       <use xlink:href="#md5ee9475f6" x="738.539256" y="785.785263" style="stroke: #000000; stroke-width: 0.8"/>
      </g>
     </g>
     <g id="text_39">
      <!-- 20 -->
      <g transform="translate(724.541756 809.501826) scale(0.22 -0.22)">
       <use xlink:href="#DejaVuSans-32"/>
       <use xlink:href="#DejaVuSans-30" x="63.623047"/>
      </g>
     </g>
    </g>
    <g id="xtick_15">
     <g id="line2d_37">
      <g>
       <use xlink:href="#md5ee9475f6" x="882.650826" y="785.785263" style="stroke: #000000; stroke-width: 0.8"/>
      </g>
     </g>
     <g id="text_40">
      <!-- 40 -->
      <g transform="translate(868.653326 809.501826) scale(0.22 -0.22)">
       <use xlink:href="#DejaVuSans-34"/>
       <use xlink:href="#DejaVuSans-30" x="63.623047"/>
      </g>
     </g>
    </g>
    <g id="text_41">
     <!-- k -->
     <g transform="translate(774.823977 836.313388) scale(0.24 -0.24)">
      <use xlink:href="#DejaVuSans-6b"/>
     </g>
    </g>
   </g>
   <g id="matplotlib.axis_8">
    <g id="ytick_15">
     <g id="line2d_38">
      <g>
       <use xlink:href="#m0970e32151" x="591.545455" y="746.101185" style="stroke: #000000; stroke-width: 0.8"/>
      </g>
     </g>
     <g id="text_42">
      <!-- 0.900 -->
      <g transform="translate(521.56358 754.459467) scale(0.22 -0.22)">
       <use xlink:href="#DejaVuSans-30"/>
       <use xlink:href="#DejaVuSans-2e" x="63.623047"/>
       <use xlink:href="#DejaVuSans-39" x="95.410156"/>
       <use xlink:href="#DejaVuSans-30" x="159.033203"/>
       <use xlink:href="#DejaVuSans-30" x="222.65625"/>
      </g>
     </g>
    </g>
    <g id="ytick_16">
     <g id="line2d_39">
      <g>
       <use xlink:href="#m0970e32151" x="591.545455" y="688.152953" style="stroke: #000000; stroke-width: 0.8"/>
      </g>
     </g>
     <g id="text_43">
      <!-- 0.925 -->
      <g transform="translate(521.56358 696.511234) scale(0.22 -0.22)">
       <use xlink:href="#DejaVuSans-30"/>
       <use xlink:href="#DejaVuSans-2e" x="63.623047"/>
       <use xlink:href="#DejaVuSans-39" x="95.410156"/>
       <use xlink:href="#DejaVuSans-32" x="159.033203"/>
       <use xlink:href="#DejaVuSans-35" x="222.65625"/>
      </g>
     </g>
    </g>
    <g id="ytick_17">
     <g id="line2d_40">
      <g>
       <use xlink:href="#m0970e32151" x="591.545455" y="630.20472" style="stroke: #000000; stroke-width: 0.8"/>
      </g>
     </g>
     <g id="text_44">
      <!-- 0.950 -->
      <g transform="translate(521.56358 638.563001) scale(0.22 -0.22)">
       <use xlink:href="#DejaVuSans-30"/>
       <use xlink:href="#DejaVuSans-2e" x="63.623047"/>
       <use xlink:href="#DejaVuSans-39" x="95.410156"/>
       <use xlink:href="#DejaVuSans-35" x="159.033203"/>
       <use xlink:href="#DejaVuSans-30" x="222.65625"/>
      </g>
     </g>
    </g>
    <g id="ytick_18">
     <g id="line2d_41">
      <g>
       <use xlink:href="#m0970e32151" x="591.545455" y="572.256487" style="stroke: #000000; stroke-width: 0.8"/>
      </g>
     </g>
     <g id="text_45">
      <!-- 0.975 -->
      <g transform="translate(521.56358 580.614769) scale(0.22 -0.22)">
       <defs>
        <path id="DejaVuSans-37" d="M 525 4666 
L 3525 4666 
L 3525 4397 
L 1831 0 
L 1172 0 
L 2766 4134 
L 525 4134 
L 525 4666 
z
" transform="scale(0.015625)"/>
       </defs>
       <use xlink:href="#DejaVuSans-30"/>
       <use xlink:href="#DejaVuSans-2e" x="63.623047"/>
       <use xlink:href="#DejaVuSans-39" x="95.410156"/>
       <use xlink:href="#DejaVuSans-37" x="159.033203"/>
       <use xlink:href="#DejaVuSans-35" x="222.65625"/>
      </g>
     </g>
    </g>
   </g>
   <g id="line2d_42">
    <path d="M 608.838843 622.075149 
L 630.455579 654.93255 
L 666.483471 684.767431 
L 738.539256 718.620125 
L 954.706612 773.848421 
" clip-path="url(#p41a8f04d93)" style="fill: none; stroke: #1f77b4; stroke-width: 1.5; stroke-linecap: square"/>
    <g clip-path="url(#p41a8f04d93)">
     <use xlink:href="#m7912c94c27" x="608.838843" y="622.075149" style="fill: #1f77b4; stroke: #1f77b4"/>
     <use xlink:href="#m7912c94c27" x="630.455579" y="654.93255" style="fill: #1f77b4; stroke: #1f77b4"/>
     <use xlink:href="#m7912c94c27" x="666.483471" y="684.767431" style="fill: #1f77b4; stroke: #1f77b4"/>
     <use xlink:href="#m7912c94c27" x="738.539256" y="718.620125" style="fill: #1f77b4; stroke: #1f77b4"/>
     <use xlink:href="#m7912c94c27" x="954.706612" y="773.848421" style="fill: #1f77b4; stroke: #1f77b4"/>
    </g>
   </g>
   <g id="line2d_43">
    <path d="M 608.838843 535.111579 
L 630.455579 562.705948 
L 666.483471 585.520341 
L 738.539256 621.36481 
L 954.706612 687.625296 
" clip-path="url(#p41a8f04d93)" style="fill: none; stroke: #ff7f0e; stroke-width: 1.5; stroke-linecap: square"/>
    <g clip-path="url(#p41a8f04d93)">
     <use xlink:href="#m0f5e9cd6f9" x="608.838843" y="535.111579" style="fill: #ff7f0e; stroke: #ff7f0e"/>
     <use xlink:href="#m0f5e9cd6f9" x="630.455579" y="562.705948" style="fill: #ff7f0e; stroke: #ff7f0e"/>
     <use xlink:href="#m0f5e9cd6f9" x="666.483471" y="585.520341" style="fill: #ff7f0e; stroke: #ff7f0e"/>
     <use xlink:href="#m0f5e9cd6f9" x="738.539256" y="621.36481" style="fill: #ff7f0e; stroke: #ff7f0e"/>
     <use xlink:href="#m0f5e9cd6f9" x="954.706612" y="687.625296" style="fill: #ff7f0e; stroke: #ff7f0e"/>
    </g>
   </g>
   <g id="line2d_44">
    <path d="M 608.838843 536.68276 
L 630.455579 553.304872 
L 666.483471 576.768861 
L 738.539256 621.781438 
L 954.706612 712.330746 
" clip-path="url(#p41a8f04d93)" style="fill: none; stroke: #2ca02c; stroke-width: 1.5; stroke-linecap: square"/>
    <g clip-path="url(#p41a8f04d93)">
     <use xlink:href="#mdb6f222a3e" x="608.838843" y="536.68276" style="fill: #2ca02c; stroke: #2ca02c"/>
     <use xlink:href="#mdb6f222a3e" x="630.455579" y="553.304872" style="fill: #2ca02c; stroke: #2ca02c"/>
     <use xlink:href="#mdb6f222a3e" x="666.483471" y="576.768861" style="fill: #2ca02c; stroke: #2ca02c"/>
     <use xlink:href="#mdb6f222a3e" x="738.539256" y="621.781438" style="fill: #2ca02c; stroke: #2ca02c"/>
     <use xlink:href="#mdb6f222a3e" x="954.706612" y="712.330746" style="fill: #2ca02c; stroke: #2ca02c"/>
    </g>
   </g>
   <g id="line2d_45">
    <path d="M 608.838843 558.172916 
L 630.455579 584.216756 
L 666.483471 615.250824 
L 738.539256 671.451791 
L 954.706612 773.103165 
" clip-path="url(#p41a8f04d93)" style="fill: none; stroke: #d62728; stroke-width: 1.5; stroke-linecap: square"/>
    <g clip-path="url(#p41a8f04d93)">
     <use xlink:href="#m08f99c8769" x="608.838843" y="558.172916" style="fill: #d62728; stroke: #d62728"/>
     <use xlink:href="#m08f99c8769" x="630.455579" y="584.216756" style="fill: #d62728; stroke: #d62728"/>
     <use xlink:href="#m08f99c8769" x="666.483471" y="615.250824" style="fill: #d62728; stroke: #d62728"/>
     <use xlink:href="#m08f99c8769" x="738.539256" y="671.451791" style="fill: #d62728; stroke: #d62728"/>
     <use xlink:href="#m08f99c8769" x="954.706612" y="773.103165" style="fill: #d62728; stroke: #d62728"/>
    </g>
   </g>
   <g id="patch_30">
    <path d="M 591.545455 785.785263 
L 591.545455 523.174737 
" style="fill: none; stroke: #000000; stroke-width: 0.8; stroke-linejoin: miter; stroke-linecap: square"/>
   </g>
   <g id="patch_31">
    <path d="M 972 785.785263 
L 972 523.174737 
" style="fill: none; stroke: #000000; stroke-width: 0.8; stroke-linejoin: miter; stroke-linecap: square"/>
   </g>
   <g id="patch_32">
    <path d="M 591.545455 785.785263 
L 972 785.785263 
" style="fill: none; stroke: #000000; stroke-width: 0.8; stroke-linejoin: miter; stroke-linecap: square"/>
   </g>
   <g id="patch_33">
    <path d="M 591.545455 523.174737 
L 972 523.174737 
" style="fill: none; stroke: #000000; stroke-width: 0.8; stroke-linejoin: miter; stroke-linecap: square"/>
   </g>
   <g id="text_46">
    <!-- d -->
    <g transform="translate(544.871761 505.058783) scale(0.28 -0.28)">
     <defs>
      <path id="DejaVuSans-Bold-64" d="M 2919 2988 
L 2919 4863 
L 4044 4863 
L 4044 0 
L 2919 0 
L 2919 506 
Q 2688 197 2409 53 
Q 2131 -91 1766 -91 
Q 1119 -91 703 423 
Q 288 938 288 1747 
Q 288 2556 703 3070 
Q 1119 3584 1766 3584 
Q 2128 3584 2408 3439 
Q 2688 3294 2919 2988 
z
M 2181 722 
Q 2541 722 2730 984 
Q 2919 1247 2919 1747 
Q 2919 2247 2730 2509 
Q 2541 2772 2181 2772 
Q 1825 2772 1636 2509 
Q 1447 2247 1447 1747 
Q 1447 1247 1636 984 
Q 1825 722 2181 722 
z
" transform="scale(0.015625)"/>
     </defs>
     <use xlink:href="#DejaVuSans-Bold-64"/>
    </g>
   </g>
   <g id="text_47">
    <!-- Continuity -->
    <g transform="translate(720.057102 517.174737) scale(0.24 -0.24)">
     <defs>
      <path id="DejaVuSans-79" d="M 2059 -325 
Q 1816 -950 1584 -1140 
Q 1353 -1331 966 -1331 
L 506 -1331 
L 506 -850 
L 844 -850 
Q 1081 -850 1212 -737 
Q 1344 -625 1503 -206 
L 1606 56 
L 191 3500 
L 800 3500 
L 1894 763 
L 2988 3500 
L 3597 3500 
L 2059 -325 
z
" transform="scale(0.015625)"/>
     </defs>
     <use xlink:href="#DejaVuSans-43"/>
     <use xlink:href="#DejaVuSans-6f" x="69.824219"/>
     <use xlink:href="#DejaVuSans-6e" x="131.005859"/>
     <use xlink:href="#DejaVuSans-74" x="194.384766"/>
     <use xlink:href="#DejaVuSans-69" x="233.59375"/>
     <use xlink:href="#DejaVuSans-6e" x="261.376953"/>
     <use xlink:href="#DejaVuSans-75" x="324.755859"/>
     <use xlink:href="#DejaVuSans-69" x="388.134766"/>
     <use xlink:href="#DejaVuSans-74" x="415.917969"/>
     <use xlink:href="#DejaVuSans-79" x="455.126953"/>
    </g>
   </g>
  </g>
  <g id="axes_5">
   <g id="patch_34">
    <path d="M 135 1153.44 
L 515.454545 1153.44 
L 515.454545 890.829474 
L 135 890.829474 
z
" style="fill: #ffffff"/>
   </g>
   <g id="matplotlib.axis_9">
    <g id="xtick_16">
     <g id="line2d_46">
      <g>
       <use xlink:href="#md5ee9475f6" x="152.083517" y="1153.44" style="stroke: #000000; stroke-width: 0.8"/>
      </g>
     </g>
     <g id="text_48">
      <!-- 0 -->
      <g transform="translate(145.084767 1177.156562) scale(0.22 -0.22)">
       <use xlink:href="#DejaVuSans-30"/>
      </g>
     </g>
    </g>
    <g id="xtick_17">
     <g id="line2d_47">
      <g>
       <use xlink:href="#md5ee9475f6" x="257.019127" y="1153.44" style="stroke: #000000; stroke-width: 0.8"/>
      </g>
     </g>
     <g id="text_49">
      <!-- 500 -->
      <g transform="translate(236.022877 1177.156562) scale(0.22 -0.22)">
       <use xlink:href="#DejaVuSans-35"/>
       <use xlink:href="#DejaVuSans-30" x="63.623047"/>
       <use xlink:href="#DejaVuSans-30" x="127.246094"/>
      </g>
     </g>
    </g>
    <g id="xtick_18">
     <g id="line2d_48">
      <g>
       <use xlink:href="#md5ee9475f6" x="361.954736" y="1153.44" style="stroke: #000000; stroke-width: 0.8"/>
      </g>
     </g>
     <g id="text_50">
      <!-- 1000 -->
      <g transform="translate(333.959736 1177.156562) scale(0.22 -0.22)">
       <use xlink:href="#DejaVuSans-31"/>
       <use xlink:href="#DejaVuSans-30" x="63.623047"/>
       <use xlink:href="#DejaVuSans-30" x="127.246094"/>
       <use xlink:href="#DejaVuSans-30" x="190.869141"/>
      </g>
     </g>
    </g>
    <g id="xtick_19">
     <g id="line2d_49">
      <g>
       <use xlink:href="#md5ee9475f6" x="466.890345" y="1153.44" style="stroke: #000000; stroke-width: 0.8"/>
      </g>
     </g>
     <g id="text_51">
      <!-- 1500 -->
      <g transform="translate(438.895345 1177.156562) scale(0.22 -0.22)">
       <use xlink:href="#DejaVuSans-31"/>
       <use xlink:href="#DejaVuSans-35" x="63.623047"/>
       <use xlink:href="#DejaVuSans-30" x="127.246094"/>
       <use xlink:href="#DejaVuSans-30" x="190.869141"/>
      </g>
     </g>
    </g>
    <g id="text_52">
     <!-- k -->
     <g transform="translate(318.278523 1203.968125) scale(0.24 -0.24)">
      <use xlink:href="#DejaVuSans-6b"/>
     </g>
    </g>
   </g>
   <g id="matplotlib.axis_10">
    <g id="ytick_19">
     <g id="line2d_50">
      <g>
       <use xlink:href="#m0970e32151" x="135" y="1096.749797" style="stroke: #000000; stroke-width: 0.8"/>
      </g>
     </g>
     <g id="text_53">
      <!-- 0.25 -->
      <g transform="translate(79.015625 1105.108078) scale(0.22 -0.22)">
       <use xlink:href="#DejaVuSans-30"/>
       <use xlink:href="#DejaVuSans-2e" x="63.623047"/>
       <use xlink:href="#DejaVuSans-32" x="95.410156"/>
       <use xlink:href="#DejaVuSans-35" x="159.033203"/>
      </g>
     </g>
    </g>
    <g id="ytick_20">
     <g id="line2d_51">
      <g>
       <use xlink:href="#m0970e32151" x="135" y="1032.088637" style="stroke: #000000; stroke-width: 0.8"/>
      </g>
     </g>
     <g id="text_54">
      <!-- 0.50 -->
      <g transform="translate(79.015625 1040.446918) scale(0.22 -0.22)">
       <use xlink:href="#DejaVuSans-30"/>
       <use xlink:href="#DejaVuSans-2e" x="63.623047"/>
       <use xlink:href="#DejaVuSans-35" x="95.410156"/>
       <use xlink:href="#DejaVuSans-30" x="159.033203"/>
      </g>
     </g>
    </g>
    <g id="ytick_21">
     <g id="line2d_52">
      <g>
       <use xlink:href="#m0970e32151" x="135" y="967.427476" style="stroke: #000000; stroke-width: 0.8"/>
      </g>
     </g>
     <g id="text_55">
      <!-- 0.75 -->
      <g transform="translate(79.015625 975.785757) scale(0.22 -0.22)">
       <use xlink:href="#DejaVuSans-30"/>
       <use xlink:href="#DejaVuSans-2e" x="63.623047"/>
       <use xlink:href="#DejaVuSans-37" x="95.410156"/>
       <use xlink:href="#DejaVuSans-35" x="159.033203"/>
      </g>
     </g>
    </g>
    <g id="ytick_22">
     <g id="line2d_53">
      <g>
       <use xlink:href="#m0970e32151" x="135" y="902.766316" style="stroke: #000000; stroke-width: 0.8"/>
      </g>
     </g>
     <g id="text_56">
      <!-- 1.00 -->
      <g transform="translate(79.015625 911.124597) scale(0.22 -0.22)">
       <use xlink:href="#DejaVuSans-31"/>
       <use xlink:href="#DejaVuSans-2e" x="63.623047"/>
       <use xlink:href="#DejaVuSans-30" x="95.410156"/>
       <use xlink:href="#DejaVuSans-30" x="159.033203"/>
      </g>
     </g>
    </g>
    <g id="text_57">
     <!-- Metric Value -->
     <g transform="translate(70.024375 1096.210362) rotate(-90) scale(0.24 -0.24)">
      <use xlink:href="#DejaVuSans-4d"/>
      <use xlink:href="#DejaVuSans-65" x="86.279297"/>
      <use xlink:href="#DejaVuSans-74" x="147.802734"/>
      <use xlink:href="#DejaVuSans-72" x="187.011719"/>
      <use xlink:href="#DejaVuSans-69" x="228.125"/>
      <use xlink:href="#DejaVuSans-63" x="255.908203"/>
      <use xlink:href="#DejaVuSans-20" x="310.888672"/>
      <use xlink:href="#DejaVuSans-56" x="342.675781"/>
      <use xlink:href="#DejaVuSans-61" x="403.333984"/>
      <use xlink:href="#DejaVuSans-6c" x="464.613281"/>
      <use xlink:href="#DejaVuSans-75" x="492.396484"/>
      <use xlink:href="#DejaVuSans-65" x="555.775391"/>
     </g>
    </g>
   </g>
   <g id="line2d_54">
    <path d="M 152.293388 1141.503158 
L 152.713131 1125.096205 
L 153.132873 1118.334868 
L 153.552616 1115.459546 
L 154.182229 1112.409555 
L 155.021714 1109.760406 
L 155.651328 1107.82864 
L 155.861199 1107.269754 
L 156.280942 1105.786684 
L 156.490813 1105.375017 
L 157.959911 1100.646262 
L 158.799396 1098.474095 
L 159.219139 1097.65344 
L 161.737593 1091.71662 
L 162.577078 1089.921579 
L 163.206692 1088.656246 
L 163.626434 1088.126884 
L 164.465919 1086.604604 
L 164.885662 1086.132904 
L 167.613987 1082.103859 
L 168.243601 1081.18735 
L 169.292957 1079.8318 
L 170.342313 1078.424856 
L 171.391669 1077.039644 
L 177.058192 1070.929461 
L 177.477935 1070.472719 
L 178.107548 1069.770355 
L 178.737162 1069.141904 
L 179.366776 1068.493021 
L 180.416132 1067.417579 
L 182.724715 1065.227146 
L 188.601109 1059.968385 
L 189.230723 1059.409942 
L 194.267632 1054.925637 
L 195.107117 1054.235347 
L 195.946602 1053.556479 
L 199.514413 1050.586341 
L 206.02042 1045.45484 
L 209.37836 1043.071775 
L 215.254754 1038.938957 
L 216.513981 1038.176525 
L 218.822565 1036.645357 
L 219.66205 1036.081491 
L 223.859474 1033.40959 
L 245.056467 1021.363881 
L 245.895952 1020.934181 
L 256.599384 1015.417279 
L 260.796809 1013.338338 
L 263.525134 1011.901867 
L 270.660756 1008.306647 
L 280.734574 1003.435071 
L 282.833287 1002.392624 
L 293.116976 997.520109 
L 319.980492 985.490082 
L 323.338432 984.074555 
L 343.905811 975.318702 
L 348.313107 973.367795 
L 350.831561 972.281315 
L 363.004092 967.005799 
L 373.917395 962.280907 
L 387.139282 956.29512 
L 390.707093 954.663441 
L 396.793358 951.767369 
L 416.731124 941.995671 
L 445.483481 926.70398 
L 457.446141 920.065422 
L 468.149573 913.871413 
L 471.297641 912.451796 
L 474.445709 911.288506 
L 476.754293 910.650542 
L 479.062876 910.181158 
L 482.630687 909.658729 
L 487.667596 908.942868 
L 488.926823 908.645336 
L 490.395922 907.960407 
L 492.074892 907.174209 
L 493.963733 905.774286 
L 497.951286 902.775257 
L 498.161157 902.766316 
L 498.161157 902.766316 
" clip-path="url(#p237a789c00)" style="fill: none; stroke: #1f77b4; stroke-width: 1.5; stroke-linecap: square"/>
   </g>
   <g id="line2d_55">
    <path d="M 152.293388 973.619272 
L 152.50326 979.967823 
L 153.132873 984.717479 
L 153.342745 987.335276 
L 153.552616 987.816736 
L 155.021714 996.538994 
L 155.651328 1000.710108 
L 156.280942 1003.480972 
L 156.910555 1005.2632 
L 157.120426 1005.401212 
L 159.638881 1011.079202 
L 160.478366 1013.340819 
L 160.898108 1013.97978 
L 161.10798 1014.145734 
L 161.737593 1015.315924 
L 163.836305 1017.071012 
L 164.046177 1017.103473 
L 164.67579 1017.646338 
L 165.095533 1017.912483 
L 165.305404 1017.973283 
L 165.935018 1018.531762 
L 167.194245 1019.41113 
L 167.823859 1019.842989 
L 170.552184 1021.922762 
L 176.008836 1024.348548 
L 176.428579 1024.454971 
L 177.477935 1024.907734 
L 182.304973 1026.090606 
L 187.341882 1027.102356 
L 188.181367 1027.118978 
L 188.810981 1027.182674 
L 189.860337 1027.142167 
L 190.909693 1027.081819 
L 196.576216 1025.893144 
L 198.045314 1025.387568 
L 199.09467 1025.149458 
L 199.934155 1024.884813 
L 201.193382 1024.656874 
L 203.082223 1024.330265 
L 205.180936 1024.063187 
L 210.847458 1023.214662 
L 212.316557 1022.996886 
L 213.785656 1022.758022 
L 224.069345 1021.817801 
L 225.958186 1021.753539 
L 228.056898 1021.728994 
L 230.995095 1021.77662 
L 232.044452 1021.845297 
L 233.093808 1021.825289 
L 241.908399 1021.193845 
L 243.167626 1021.033122 
L 248.624278 1020.212111 
L 251.562475 1019.674289 
L 253.871058 1019.257729 
L 262.68565 1017.494719 
L 277.796377 1014.077067 
L 286.610968 1012.557439 
L 289.549166 1011.991775 
L 293.536719 1011.230078 
L 295.005817 1010.942455 
L 300.882211 1009.736221 
L 310.326416 1007.02021 
L 324.80753 1002.397691 
L 331.733281 999.834236 
L 333.622121 999.172946 
L 339.078773 996.970741 
L 346.424266 993.585812 
L 355.238857 989.224911 
L 364.892933 984.194315 
L 370.139714 981.413991 
L 373.917395 979.389374 
L 384.830699 973.459408 
L 396.793358 966.511149 
L 402.040139 963.349034 
L 414.21267 956.25531 
L 419.879192 952.876719 
L 432.891208 944.888594 
L 446.322966 936.248459 
L 452.19936 932.627796 
L 458.495497 928.688113 
L 464.371891 924.773865 
L 470.877899 920.32053 
L 480.322103 914.370346 
L 485.568884 911.461397 
L 488.087339 910.15482 
L 489.136695 909.450726 
L 498.161157 902.766316 
L 498.161157 902.766316 
" clip-path="url(#p237a789c00)" style="fill: none; stroke: #ff7f0e; stroke-width: 1.5; stroke-linecap: square"/>
   </g>
   <g id="line2d_56">
    <path d="M 152.293388 1097.611946 
L 152.713131 1056.019797 
L 153.132873 1032.119988 
L 153.762487 1015.041603 
L 154.182229 1009.108452 
L 154.392101 1008.546987 
L 154.601972 1006.994881 
L 155.021714 1006.40332 
L 155.231585 1006.746687 
L 155.861199 1009.080585 
L 156.280942 1009.947088 
L 156.490813 1011.098486 
L 156.700684 1010.976679 
L 156.910555 1011.124449 
L 157.330298 1011.723114 
L 157.540169 1011.698516 
L 157.75004 1012.08214 
L 158.589525 1012.484232 
L 159.638881 1014.26654 
L 160.268495 1015.906767 
L 160.898108 1017.017828 
L 161.10798 1017.105839 
L 161.947464 1018.037446 
L 162.367207 1018.361436 
L 163.206692 1019.353087 
L 163.626434 1019.508389 
L 164.046177 1019.795797 
L 164.256048 1019.75099 
L 165.725146 1020.375471 
L 166.35476 1020.873787 
L 168.03373 1021.788227 
L 169.292957 1022.67573 
L 169.7127 1022.856926 
L 171.181798 1023.744483 
L 172.650897 1024.677996 
L 173.700253 1025.301022 
L 174.329866 1025.543404 
L 176.008836 1026.446856 
L 176.63845 1026.619652 
L 177.268063 1026.893537 
L 178.527291 1027.194418 
L 178.947033 1027.325999 
L 179.786518 1027.520198 
L 180.626003 1027.724873 
L 182.934586 1028.139921 
L 184.403685 1028.158582 
L 185.24317 1028.134062 
L 185.662912 1028.159981 
L 186.292526 1028.204399 
L 186.712268 1028.307532 
L 193.008405 1028.718017 
L 194.477503 1028.402582 
L 195.52686 1028.306087 
L 196.156473 1028.248902 
L 198.255185 1028.146978 
L 200.144026 1028.035613 
L 203.711837 1027.886219 
L 211.686943 1027.358409 
L 212.316557 1027.354874 
L 219.871921 1026.976893 
L 221.970633 1026.53492 
L 232.044452 1025.540749 
L 234.772777 1025.523654 
L 236.032005 1025.574711 
L 242.328141 1025.481624 
L 244.846596 1025.261667 
L 245.686081 1025.227296 
L 249.673634 1025.011769 
L 251.352604 1024.894508 
L 253.871058 1024.635534 
L 258.907968 1024.245377 
L 268.142301 1023.398267 
L 273.598953 1022.448922 
L 275.277923 1021.933253 
L 282.413544 1019.84312 
L 287.660325 1018.132163 
L 293.74659 1015.626645 
L 301.301954 1012.630155 
L 304.869765 1011.065039 
L 309.906674 1008.978004 
L 314.733712 1007.000258 
L 326.4865 1001.523052 
L 330.893796 999.519981 
L 332.992508 998.500839 
L 343.066326 993.875549 
L 345.584781 992.598617 
L 361.115251 984.034779 
L 364.892933 981.990788 
L 370.769327 978.795926 
L 372.658168 977.730979 
L 374.337138 976.827777 
L 376.645721 975.580752 
L 390.497222 967.740019 
L 395.114389 965.573498 
L 397.842714 964.188043 
L 401.410525 962.185311 
L 418.619965 952.436949 
L 420.928549 951.148093 
L 429.113526 946.273717 
L 431.002367 945.297811 
L 433.101079 944.383595 
L 435.409663 942.867789 
L 467.310088 919.543621 
L 473.186482 915.742808 
L 476.754293 913.683692 
L 481.161588 911.659725 
L 485.778755 910.03528 
L 487.667596 910.275427 
L 488.716952 909.729179 
L 490.605793 908.290424 
L 493.54399 906.145831 
L 494.593346 905.421726 
L 495.852574 904.503246 
L 498.161157 902.766316 
L 498.161157 902.766316 
" clip-path="url(#p237a789c00)" style="fill: none; stroke: #2ca02c; stroke-width: 1.5; stroke-linecap: square"/>
   </g>
   <g id="line2d_57">
    <path d="M 152.293388 1078.487918 
L 152.713131 1052.675705 
L 153.132873 1040.710125 
L 153.342745 1039.299336 
L 154.392101 1026.944245 
L 154.811843 1023.672135 
L 155.231585 1020.666471 
L 155.441457 1019.900988 
L 156.490813 1018.092715 
L 156.910555 1016.392758 
L 157.120426 1016.191135 
L 157.330298 1015.710944 
L 157.959911 1015.125579 
L 158.589525 1014.264153 
L 158.799396 1013.601423 
L 159.009267 1013.719879 
L 159.219139 1013.683834 
L 159.848752 1013.888188 
L 160.058624 1013.863883 
L 160.478366 1014.336209 
L 160.688237 1014.119238 
L 160.898108 1014.188785 
L 161.10798 1014.021789 
L 161.317851 1014.204393 
L 161.527722 1014.194259 
L 161.737593 1014.303836 
L 162.577078 1014.29702 
L 162.996821 1014.523108 
L 163.206692 1014.390186 
L 163.836305 1014.688906 
L 164.465919 1014.691563 
L 166.144889 1015.877432 
L 166.984374 1016.70905 
L 167.823859 1017.37672 
L 170.971927 1020.523651 
L 172.021283 1021.369941 
L 172.441025 1021.721843 
L 174.119995 1023.514921 
L 175.798965 1024.99585 
L 177.897677 1026.622626 
L 178.947033 1027.414174 
L 179.996389 1028.010667 
L 182.514844 1029.651918 
L 184.193814 1030.51802 
L 185.453041 1031.002201 
L 188.391238 1031.969938 
L 191.329435 1032.530399 
L 192.378791 1032.709939 
L 194.897246 1032.812473 
L 196.366344 1032.81149 
L 198.465057 1032.888722 
L 199.934155 1032.779593 
L 201.193382 1032.80207 
L 204.551322 1032.610315 
L 205.600678 1032.593324 
L 220.291663 1031.192484 
L 220.921277 1031.056352 
L 221.970633 1030.915568 
L 224.279216 1030.620888 
L 225.328573 1030.452373 
L 232.044452 1029.341527 
L 232.883936 1029.13962 
L 235.822134 1028.524931 
L 241.068914 1027.39414 
L 242.747884 1026.946224 
L 247.784793 1025.534518 
L 259.32771 1021.783037 
L 267.93243 1018.558069 
L 272.969339 1016.51308 
L 274.648309 1015.840138 
L 276.327279 1015.166583 
L 281.574059 1012.926754 
L 285.351741 1011.318812 
L 293.326847 1007.981545 
L 298.573628 1005.739087 
L 306.548734 1002.144513 
L 309.27706 1000.896618 
L 330.054311 990.892934 
L 336.77019 987.381946 
L 341.387357 985.128377 
L 344.955167 983.352027 
L 351.880918 979.923859 
L 353.769758 978.993287 
L 358.596797 976.562239 
L 362.374478 974.64193 
L 364.683062 973.500739 
L 367.201516 972.259715 
L 373.917395 968.851538 
L 398.052586 956.776474 
L 404.558593 953.686194 
L 408.126404 951.903787 
L 420.089064 945.820113 
L 428.693784 941.35357 
L 432.681337 939.256894 
L 440.866314 935.14235 
L 466.050861 922.870373 
L 471.507512 919.909698 
L 480.112232 914.983225 
L 489.556437 908.805159 
L 492.914377 906.60699 
L 495.432831 904.798661 
L 498.161157 902.766316 
L 498.161157 902.766316 
" clip-path="url(#p237a789c00)" style="fill: none; stroke: #d62728; stroke-width: 1.5; stroke-linecap: square"/>
   </g>
   <g id="patch_35">
    <path d="M 135 1153.44 
L 135 890.829474 
" style="fill: none; stroke: #000000; stroke-width: 0.8; stroke-linejoin: miter; stroke-linecap: square"/>
   </g>
   <g id="patch_36">
    <path d="M 515.454545 1153.44 
L 515.454545 890.829474 
" style="fill: none; stroke: #000000; stroke-width: 0.8; stroke-linejoin: miter; stroke-linecap: square"/>
   </g>
   <g id="patch_37">
    <path d="M 135 1153.44 
L 515.454545 1153.44 
" style="fill: none; stroke: #000000; stroke-width: 0.8; stroke-linejoin: miter; stroke-linecap: square"/>
   </g>
   <g id="patch_38">
    <path d="M 135 890.829474 
L 515.454545 890.829474 
" style="fill: none; stroke: #000000; stroke-width: 0.8; stroke-linejoin: miter; stroke-linecap: square"/>
   </g>
   <g id="text_58">
    <!-- e -->
    <g transform="translate(89.376307 872.71352) scale(0.28 -0.28)">
     <defs>
      <path id="DejaVuSans-Bold-65" d="M 4031 1759 
L 4031 1441 
L 1416 1441 
Q 1456 1047 1700 850 
Q 1944 653 2381 653 
Q 2734 653 3104 758 
Q 3475 863 3866 1075 
L 3866 213 
Q 3469 63 3072 -14 
Q 2675 -91 2278 -91 
Q 1328 -91 801 392 
Q 275 875 275 1747 
Q 275 2603 792 3093 
Q 1309 3584 2216 3584 
Q 3041 3584 3536 3087 
Q 4031 2591 4031 1759 
z
M 2881 2131 
Q 2881 2450 2695 2645 
Q 2509 2841 2209 2841 
Q 1884 2841 1681 2658 
Q 1478 2475 1428 2131 
L 2881 2131 
z
" transform="scale(0.015625)"/>
     </defs>
     <use xlink:href="#DejaVuSans-Bold-65"/>
    </g>
   </g>
   <g id="text_59">
    <!-- $Q_{NN}$ -->
    <g transform="translate(302.787273 884.829474) scale(0.24 -0.24)">
     <use xlink:href="#DejaVuSans-Oblique-51" transform="translate(0 0.78125)"/>
     <use xlink:href="#DejaVuSans-Oblique-4e" transform="translate(78.710938 -15.625) scale(0.7)"/>
     <use xlink:href="#DejaVuSans-Oblique-4e" transform="translate(131.074219 -15.625) scale(0.7)"/>
    </g>
   </g>
  </g>
  <g id="axes_6">
   <g id="patch_39">
    <path d="M 591.545455 1153.44 
L 972 1153.44 
L 972 890.829474 
L 591.545455 890.829474 
z
" style="fill: #ffffff"/>
   </g>
   <g id="matplotlib.axis_11">
    <g id="xtick_20">
     <g id="line2d_58">
      <g>
       <use xlink:href="#md5ee9475f6" x="608.628972" y="1153.44" style="stroke: #000000; stroke-width: 0.8"/>
      </g>
     </g>
     <g id="text_60">
      <!-- 0 -->
      <g transform="translate(601.630222 1177.156562) scale(0.22 -0.22)">
       <use xlink:href="#DejaVuSans-30"/>
      </g>
     </g>
    </g>
    <g id="xtick_21">
     <g id="line2d_59">
      <g>
       <use xlink:href="#md5ee9475f6" x="713.564581" y="1153.44" style="stroke: #000000; stroke-width: 0.8"/>
      </g>
     </g>
     <g id="text_61">
      <!-- 500 -->
      <g transform="translate(692.568331 1177.156562) scale(0.22 -0.22)">
       <use xlink:href="#DejaVuSans-35"/>
       <use xlink:href="#DejaVuSans-30" x="63.623047"/>
       <use xlink:href="#DejaVuSans-30" x="127.246094"/>
      </g>
     </g>
    </g>
    <g id="xtick_22">
     <g id="line2d_60">
      <g>
       <use xlink:href="#md5ee9475f6" x="818.500191" y="1153.44" style="stroke: #000000; stroke-width: 0.8"/>
      </g>
     </g>
     <g id="text_62">
      <!-- 1000 -->
      <g transform="translate(790.505191 1177.156562) scale(0.22 -0.22)">
       <use xlink:href="#DejaVuSans-31"/>
       <use xlink:href="#DejaVuSans-30" x="63.623047"/>
       <use xlink:href="#DejaVuSans-30" x="127.246094"/>
       <use xlink:href="#DejaVuSans-30" x="190.869141"/>
      </g>
     </g>
    </g>
    <g id="xtick_23">
     <g id="line2d_61">
      <g>
       <use xlink:href="#md5ee9475f6" x="923.4358" y="1153.44" style="stroke: #000000; stroke-width: 0.8"/>
      </g>
     </g>
     <g id="text_63">
      <!-- 1500 -->
      <g transform="translate(895.4408 1177.156562) scale(0.22 -0.22)">
       <use xlink:href="#DejaVuSans-31"/>
       <use xlink:href="#DejaVuSans-35" x="63.623047"/>
       <use xlink:href="#DejaVuSans-30" x="127.246094"/>
       <use xlink:href="#DejaVuSans-30" x="190.869141"/>
      </g>
     </g>
    </g>
    <g id="text_64">
     <!-- k -->
     <g transform="translate(774.823977 1203.968125) scale(0.24 -0.24)">
      <use xlink:href="#DejaVuSans-6b"/>
     </g>
    </g>
   </g>
   <g id="matplotlib.axis_12">
    <g id="ytick_23">
     <g id="line2d_62">
      <g>
       <use xlink:href="#m0970e32151" x="591.545455" y="1141.479237" style="stroke: #000000; stroke-width: 0.8"/>
      </g>
     </g>
     <g id="text_65">
      <!-- 0.0 -->
      <g transform="translate(549.55858 1149.837518) scale(0.22 -0.22)">
       <use xlink:href="#DejaVuSans-30"/>
       <use xlink:href="#DejaVuSans-2e" x="63.623047"/>
       <use xlink:href="#DejaVuSans-30" x="95.410156"/>
      </g>
     </g>
    </g>
    <g id="ytick_24">
     <g id="line2d_63">
      <g>
       <use xlink:href="#m0970e32151" x="591.545455" y="1075.668624" style="stroke: #000000; stroke-width: 0.8"/>
      </g>
     </g>
     <g id="text_66">
      <!-- 0.2 -->
      <g transform="translate(549.55858 1084.026905) scale(0.22 -0.22)">
       <use xlink:href="#DejaVuSans-30"/>
       <use xlink:href="#DejaVuSans-2e" x="63.623047"/>
       <use xlink:href="#DejaVuSans-32" x="95.410156"/>
      </g>
     </g>
    </g>
    <g id="ytick_25">
     <g id="line2d_64">
      <g>
       <use xlink:href="#m0970e32151" x="591.545455" y="1009.858011" style="stroke: #000000; stroke-width: 0.8"/>
      </g>
     </g>
     <g id="text_67">
      <!-- 0.4 -->
      <g transform="translate(549.55858 1018.216292) scale(0.22 -0.22)">
       <use xlink:href="#DejaVuSans-30"/>
       <use xlink:href="#DejaVuSans-2e" x="63.623047"/>
       <use xlink:href="#DejaVuSans-34" x="95.410156"/>
      </g>
     </g>
    </g>
    <g id="ytick_26">
     <g id="line2d_65">
      <g>
       <use xlink:href="#m0970e32151" x="591.545455" y="944.047398" style="stroke: #000000; stroke-width: 0.8"/>
      </g>
     </g>
     <g id="text_68">
      <!-- 0.6 -->
      <g transform="translate(549.55858 952.405679) scale(0.22 -0.22)">
       <use xlink:href="#DejaVuSans-30"/>
       <use xlink:href="#DejaVuSans-2e" x="63.623047"/>
       <use xlink:href="#DejaVuSans-36" x="95.410156"/>
      </g>
     </g>
    </g>
   </g>
   <g id="line2d_66">
    <path d="M 608.838843 1116.351669 
L 609.258585 1095.877498 
L 609.678328 1087.67468 
L 609.888199 1085.441228 
L 611.147426 1079.741691 
L 611.357298 1079.321227 
L 611.986911 1077.452929 
L 612.826396 1074.703826 
L 613.036267 1074.379642 
L 614.295495 1070.16182 
L 615.13498 1068.409403 
L 615.344851 1067.795163 
L 615.554722 1067.586793 
L 618.70279 1061.232655 
L 619.752146 1059.49518 
L 620.171889 1059.220809 
L 621.011374 1058.082321 
L 621.431116 1057.881308 
L 621.640987 1057.666658 
L 622.06073 1057.045603 
L 623.949571 1055.396091 
L 624.369313 1055.216576 
L 624.998927 1054.590025 
L 625.418669 1054.314778 
L 625.838412 1054.055401 
L 626.468025 1053.582491 
L 627.727253 1052.554967 
L 628.356866 1052.285613 
L 629.406222 1051.713205 
L 633.603647 1050.112902 
L 633.813518 1050.086796 
L 634.443132 1049.728922 
L 635.282617 1049.435111 
L 635.702359 1049.335244 
L 636.331973 1049.030987 
L 640.529397 1047.986458 
L 644.51695 1047.261172 
L 645.776177 1047.03126 
L 648.084761 1046.639857 
L 649.343988 1046.351778 
L 650.813087 1046.115363 
L 651.4427 1046.09025 
L 652.282185 1045.966826 
L 653.331541 1045.873159 
L 654.80064 1045.70789 
L 661.516519 1045.247051 
L 663.195489 1045.241566 
L 663.825102 1045.271647 
L 672.639693 1045.873327 
L 673.269307 1045.968074 
L 673.898921 1046.016755 
L 674.948277 1046.168427 
L 675.577891 1046.259657 
L 678.516088 1046.556753 
L 685.651709 1047.972674 
L 700.552566 1051.438962 
L 703.07102 1052.114097 
L 704.74999 1052.621936 
L 705.589475 1052.861287 
L 723.218657 1058.138407 
L 724.897627 1058.670652 
L 729.304923 1060.160383 
L 731.823377 1060.976987 
L 744.835393 1065.357596 
L 746.934105 1066.096885 
L 749.032817 1066.834379 
L 751.131529 1067.602172 
L 753.440113 1068.424173 
L 756.168439 1069.4208 
L 757.427666 1069.889441 
L 763.933674 1072.390242 
L 765.192901 1072.869571 
L 767.501484 1073.744574 
L 769.600197 1074.543766 
L 771.90878 1075.455884 
L 774.637106 1076.528458 
L 775.686462 1076.942155 
L 781.143114 1079.224511 
L 785.550409 1081.036322 
L 792.686031 1083.922959 
L 795.834099 1085.241191 
L 801.500622 1087.519431 
L 804.019076 1088.499289 
L 810.944827 1091.263693 
L 813.463281 1092.272822 
L 818.290319 1094.186748 
L 822.697615 1095.963343 
L 831.092464 1099.307461 
L 834.450403 1100.58245 
L 857.116495 1108.726216 
L 859.634949 1109.570968 
L 871.387738 1113.387327 
L 875.16542 1114.543226 
L 880.202329 1115.985896 
L 894.683443 1119.945257 
L 915.460694 1125.097679 
L 920.497603 1126.115658 
L 923.645671 1126.780734 
L 925.324641 1127.282171 
L 927.423353 1128.085686 
L 929.522065 1129.01957 
L 931.620778 1130.129616 
L 934.978717 1132.305169 
L 937.916914 1134.4913 
L 943.373566 1138.758636 
L 945.682149 1140.232777 
L 946.731505 1140.612937 
L 948.410475 1141.230853 
L 949.040089 1141.330275 
L 954.706612 1141.479237 
L 954.706612 1141.479237 
" clip-path="url(#pd25f9d8dab)" style="fill: none; stroke: #1f77b4; stroke-width: 1.5; stroke-linecap: square"/>
   </g>
   <g id="line2d_67">
    <path d="M 608.838843 902.766316 
L 609.048714 911.04262 
L 609.678328 917.683872 
L 609.888199 921.213835 
L 610.09807 922.025905 
L 611.567169 934.519372 
L 612.196782 940.424591 
L 612.826396 944.548382 
L 613.45601 947.414411 
L 613.665881 947.789539 
L 616.184336 957.40776 
L 617.023821 961.083224 
L 617.443563 962.295217 
L 617.653434 962.705895 
L 618.283048 964.793275 
L 621.431116 970.983837 
L 622.06073 972.062041 
L 627.097639 981.579608 
L 632.764162 990.090583 
L 636.122101 994.728126 
L 637.171458 996.034873 
L 638.220814 997.349406 
L 645.566306 1005.793327 
L 647.245276 1007.349503 
L 652.911799 1011.263444 
L 656.269738 1013.151835 
L 657.948708 1014.33236 
L 663.615231 1018.695653 
L 665.504072 1020.122595 
L 666.343557 1020.731346 
L 671.800209 1024.934188 
L 673.898921 1026.74296 
L 675.787762 1028.303116 
L 678.725959 1030.74082 
L 680.195057 1031.986422 
L 681.874027 1033.496497 
L 692.78733 1043.746778 
L 697.614369 1047.840226 
L 705.169732 1053.63478 
L 707.898058 1055.579153 
L 710.206642 1057.254285 
L 716.502778 1061.779494 
L 730.144407 1070.793981 
L 733.292476 1072.85919 
L 735.391188 1074.355923 
L 755.538825 1088.729366 
L 761.205348 1092.332777 
L 764.773159 1094.352941 
L 776.735818 1101.04406 
L 785.340538 1105.35136 
L 787.019508 1106.118208 
L 789.747834 1107.494683 
L 794.994614 1109.807586 
L 797.932811 1110.982164 
L 802.96972 1112.749171 
L 810.315213 1115.136532 
L 812.623796 1115.81563 
L 816.61135 1117.025403 
L 821.438388 1118.361253 
L 825.845683 1119.594895 
L 831.722077 1121.185097 
L 845.573578 1124.647246 
L 855.437525 1126.599722 
L 861.104048 1127.654951 
L 865.931086 1128.687745 
L 869.708768 1129.498677 
L 879.992458 1131.47953 
L 894.473572 1133.687262 
L 905.386875 1135.198371 
L 914.621209 1136.688377 
L 920.497603 1137.3164 
L 923.4358 1137.477082 
L 925.744383 1137.667248 
L 934.349103 1138.809947 
L 937.916914 1139.513178 
L 941.694596 1140.436658 
L 945.052536 1141.389823 
L 946.941376 1141.390142 
L 954.706612 1141.479237 
L 954.706612 1141.479237 
" clip-path="url(#pd25f9d8dab)" style="fill: none; stroke: #ff7f0e; stroke-width: 1.5; stroke-linecap: square"/>
   </g>
   <g id="line2d_68">
    <path d="M 608.838843 1060.512361 
L 609.258585 1007.997063 
L 609.678328 977.990324 
L 610.307942 956.861492 
L 610.727684 949.712308 
L 610.937555 949.197547 
L 611.147426 947.422474 
L 611.357298 947.33183 
L 611.567169 947.068972 
L 611.77704 947.705357 
L 612.406654 951.273231 
L 612.826396 952.774708 
L 613.036267 954.439087 
L 613.246139 954.483669 
L 613.665881 955.484063 
L 613.875752 956.031941 
L 614.085623 956.200194 
L 614.505366 957.234274 
L 615.13498 958.197534 
L 616.184336 961.462758 
L 617.023821 964.862349 
L 618.492919 968.455199 
L 618.912661 969.26648 
L 619.752146 971.326267 
L 620.171889 971.92294 
L 620.591631 972.687681 
L 620.801502 972.830223 
L 622.270601 975.02153 
L 622.900215 976.254138 
L 624.998927 979.738762 
L 625.838412 981.340267 
L 626.468025 982.354527 
L 627.097639 983.45376 
L 628.776609 986.30618 
L 629.616094 987.795629 
L 633.393776 993.686656 
L 634.862874 995.552738 
L 635.702359 996.671295 
L 636.331973 997.480851 
L 637.381329 998.798424 
L 640.529397 1002.371674 
L 642.208367 1003.882113 
L 643.047852 1004.850847 
L 649.763731 1011.706056 
L 650.183473 1011.993053 
L 654.171026 1015.299086 
L 655.220382 1016.171272 
L 663.825102 1023.786707 
L 664.874458 1024.580982 
L 666.133686 1025.749889 
L 666.973171 1026.461214 
L 669.491625 1028.750539 
L 671.800209 1030.872581 
L 673.479178 1032.476998 
L 676.627247 1035.032885 
L 677.886474 1035.879515 
L 679.985186 1037.45747 
L 682.29377 1039.343934 
L 683.343126 1040.250804 
L 684.392482 1041.003854 
L 686.281323 1042.568214 
L 690.059005 1045.968677 
L 691.528103 1047.455949 
L 697.82424 1053.507708 
L 704.540119 1059.170217 
L 707.688187 1062.013894 
L 714.194195 1067.478845 
L 719.440975 1071.943005 
L 727.625953 1078.572071 
L 729.934536 1080.094502 
L 732.662862 1081.684413 
L 733.922089 1082.424771 
L 735.81093 1083.586663 
L 745.465006 1088.665209 
L 751.551272 1091.347216 
L 753.859855 1092.444162 
L 756.37831 1093.53328 
L 760.365863 1095.060122 
L 774.427235 1100.812083 
L 776.945689 1101.604475 
L 796.253841 1108.664872 
L 797.72294 1109.242218 
L 799.40191 1109.857822 
L 802.759849 1110.843049 
L 804.438819 1111.252586 
L 806.32766 1111.775147 
L 811.364569 1112.95096 
L 817.240963 1114.46185 
L 818.710062 1114.873612 
L 822.697615 1115.853555 
L 824.586456 1116.340523 
L 834.870146 1118.925351 
L 838.857699 1119.763022 
L 847.462419 1121.926953 
L 849.35126 1122.634917 
L 853.758555 1124.067239 
L 858.165851 1125.128531 
L 866.350828 1126.990554 
L 868.449541 1127.480819 
L 872.227223 1128.223699 
L 881.041814 1130.321318 
L 885.449109 1131.127834 
L 887.547822 1131.733633 
L 889.646534 1132.566019 
L 891.745246 1132.828457 
L 904.337519 1132.966889 
L 912.102754 1133.052586 
L 920.917345 1133.328997 
L 924.695027 1133.567132 
L 933.089876 1134.915517 
L 933.929361 1135.211975 
L 936.447816 1136.057654 
L 939.386013 1137.407608 
L 940.435369 1137.917545 
L 942.114338 1138.712897 
L 944.213051 1141.055131 
L 945.262407 1141.357918 
L 946.521634 1141.347804 
L 948.410475 1141.300202 
L 948.830217 1141.41323 
L 950.92893 1141.454195 
L 953.447384 1141.483609 
L 954.706612 1141.479237 
L 954.706612 1141.479237 
" clip-path="url(#pd25f9d8dab)" style="fill: none; stroke: #2ca02c; stroke-width: 1.5; stroke-linecap: square"/>
   </g>
   <g id="line2d_69">
    <path d="M 608.838843 1036.182377 
L 609.258585 1003.74264 
L 609.678328 988.918875 
L 609.888199 987.323587 
L 610.727684 974.48103 
L 611.77704 965.414394 
L 611.986911 964.640077 
L 612.826396 963.673345 
L 613.036267 963.33729 
L 613.45601 961.573664 
L 613.665881 961.516703 
L 613.875752 961.105341 
L 614.295495 961.179149 
L 614.925108 960.63663 
L 615.13498 960.461985 
L 615.344851 959.818394 
L 615.764593 960.322333 
L 616.813949 961.826604 
L 617.023821 962.34958 
L 617.233692 962.273092 
L 617.443563 962.561118 
L 617.653434 962.548209 
L 618.073177 963.166724 
L 618.492919 963.673215 
L 618.70279 963.709138 
L 619.542275 964.981921 
L 619.752146 965.012362 
L 620.38176 965.991041 
L 621.011374 966.593062 
L 623.110086 970.605426 
L 629.825965 985.167058 
L 631.504935 988.726537 
L 633.393776 992.420807 
L 634.23326 994.091949 
L 635.492488 996.547776 
L 636.751715 998.691472 
L 637.381329 999.849414 
L 638.220814 1001.339343 
L 640.319526 1004.802133 
L 641.159011 1006.128832 
L 642.83798 1008.540467 
L 643.467594 1009.423971 
L 648.714375 1015.812731 
L 649.763731 1016.929799 
L 650.603216 1017.705684 
L 652.701928 1019.773992 
L 658.158579 1024.903506 
L 659.417807 1025.98393 
L 660.04742 1026.578384 
L 661.72639 1028.131761 
L 662.565875 1028.863282 
L 662.985617 1029.195936 
L 664.454716 1030.406327 
L 665.294201 1031.042387 
L 676.837118 1040.665388 
L 677.466732 1041.090839 
L 678.516088 1041.909466 
L 680.824671 1043.729584 
L 681.664156 1044.350383 
L 687.120808 1048.446868 
L 689.849133 1050.306377 
L 691.108361 1051.212114 
L 699.50321 1056.745113 
L 708.947414 1062.22929 
L 711.046127 1063.284352 
L 716.712649 1066.234739 
L 727.416082 1071.189032 
L 730.354279 1072.455114 
L 733.502347 1073.840503 
L 741.687324 1077.148201 
L 748.193332 1079.918402 
L 750.292044 1080.737977 
L 753.230242 1081.967445 
L 755.748696 1082.975698 
L 760.785605 1084.890569 
L 763.30406 1085.789402 
L 771.069295 1088.524727 
L 773.58775 1089.40128 
L 777.575303 1090.815589 
L 782.19247 1092.357659 
L 790.167576 1094.751913 
L 793.525516 1095.752866 
L 799.611781 1097.733956 
L 807.377016 1100.185367 
L 810.525084 1101.239987 
L 813.463281 1102.165869 
L 816.821221 1103.158218 
L 822.697615 1105.034494 
L 827.734524 1106.629902 
L 847.042676 1112.564136 
L 850.400616 1113.652335 
L 854.388169 1114.931477 
L 860.894177 1117.200879 
L 868.449541 1119.53406 
L 872.856836 1120.876293 
L 876.004905 1121.830957 
L 878.523359 1122.569255 
L 885.239238 1124.520671 
L 888.387306 1125.391184 
L 906.436231 1131.204096 
L 909.5843 1132.290621 
L 918.189019 1135.180801 
L 924.485156 1137.024094 
L 935.188588 1139.620607 
L 937.497172 1139.976106 
L 944.003179 1140.762223 
L 950.299316 1141.411161 
L 954.706612 1141.479237 
L 954.706612 1141.479237 
" clip-path="url(#pd25f9d8dab)" style="fill: none; stroke: #d62728; stroke-width: 1.5; stroke-linecap: square"/>
   </g>
   <g id="patch_40">
    <path d="M 591.545455 1153.44 
L 591.545455 890.829474 
" style="fill: none; stroke: #000000; stroke-width: 0.8; stroke-linejoin: miter; stroke-linecap: square"/>
   </g>
   <g id="patch_41">
    <path d="M 972 1153.44 
L 972 890.829474 
" style="fill: none; stroke: #000000; stroke-width: 0.8; stroke-linejoin: miter; stroke-linecap: square"/>
   </g>
   <g id="patch_42">
    <path d="M 591.545455 1153.44 
L 972 1153.44 
" style="fill: none; stroke: #000000; stroke-width: 0.8; stroke-linejoin: miter; stroke-linecap: square"/>
   </g>
   <g id="patch_43">
    <path d="M 591.545455 890.829474 
L 972 890.829474 
" style="fill: none; stroke: #000000; stroke-width: 0.8; stroke-linejoin: miter; stroke-linecap: square"/>
   </g>
   <g id="text_69">
    <!-- f -->
    <g transform="translate(552.733636 872.71352) scale(0.28 -0.28)">
     <defs>
      <path id="DejaVuSans-Bold-66" d="M 2841 4863 
L 2841 4128 
L 2222 4128 
Q 1984 4128 1890 4042 
Q 1797 3956 1797 3744 
L 1797 3500 
L 2753 3500 
L 2753 2700 
L 1797 2700 
L 1797 0 
L 678 0 
L 678 2700 
L 122 2700 
L 122 3500 
L 678 3500 
L 678 3744 
Q 678 4316 997 4589 
Q 1316 4863 1984 4863 
L 2841 4863 
z
" transform="scale(0.015625)"/>
     </defs>
     <use xlink:href="#DejaVuSans-Bold-66"/>
    </g>
   </g>
   <g id="text_70">
    <!-- LCMC -->
    <g transform="translate(747.973977 884.829474) scale(0.24 -0.24)">
     <defs>
      <path id="DejaVuSans-4c" d="M 628 4666 
L 1259 4666 
L 1259 531 
L 3531 531 
L 3531 0 
L 628 0 
L 628 4666 
z
" transform="scale(0.015625)"/>
     </defs>
     <use xlink:href="#DejaVuSans-4c"/>
     <use xlink:href="#DejaVuSans-43" x="55.712891"/>
     <use xlink:href="#DejaVuSans-4d" x="125.537109"/>
     <use xlink:href="#DejaVuSans-43" x="211.816406"/>
    </g>
   </g>
  </g>
 </g>
 <defs>
  <clipPath id="p21359a5f6f">
   <rect x="135" y="155.52" width="380.454545" height="262.610526"/>
  </clipPath>
  <clipPath id="pc3e9936e29">
   <rect x="591.545455" y="155.52" width="380.454545" height="262.610526"/>
  </clipPath>
  <clipPath id="pe3610918e2">
   <rect x="135" y="523.174737" width="380.454545" height="262.610526"/>
  </clipPath>
  <clipPath id="p41a8f04d93">
   <rect x="591.545455" y="523.174737" width="380.454545" height="262.610526"/>
  </clipPath>
  <clipPath id="p237a789c00">
   <rect x="135" y="890.829474" width="380.454545" height="262.610526"/>
  </clipPath>
  <clipPath id="pd25f9d8dab">
   <rect x="591.545455" y="890.829474" width="380.454545" height="262.610526"/>
  </clipPath>
 </defs>
</svg>
