<?xml version="1.0" encoding="utf-8" standalone="no"?>
<!DOCTYPE svg PUBLIC "-//W3C//DTD SVG 1.1//EN"
  "http://www.w3.org/Graphics/SVG/1.1/DTD/svg11.dtd">
<svg xmlns:xlink="http://www.w3.org/1999/xlink" width="1080pt" height="1296pt" viewBox="0 0 1080 1296" xmlns="http://www.w3.org/2000/svg" version="1.1">
 <metadata>
  <rdf:RDF xmlns:dc="http://purl.org/dc/elements/1.1/" xmlns:cc="http://creativecommons.org/ns#" xmlns:rdf="http://www.w3.org/1999/02/22-rdf-syntax-ns#">
   <cc:Work>
    <dc:type rdf:resource="http://purl.org/dc/dcmitype/StillImage"/>
    <dc:date>2024-07-24T15:28:34.722028</dc:date>
    <dc:format>image/svg+xml</dc:format>
    <dc:creator>
     <cc:Agent>
      <dc:title>Matplotlib v3.8.4, https://matplotlib.org/</dc:title>
     </cc:Agent>
    </dc:creator>
   </cc:Work>
  </rdf:RDF>
 </metadata>
 <defs>
  <style type="text/css">*{stroke-linejoin: round; stroke-linecap: butt}</style>
 </defs>
 <g id="figure_1">
  <g id="patch_1">
   <path d="M 0 1296 
L 1080 1296 
L 1080 0 
L 0 0 
z
" style="fill: #ffffff"/>
  </g>
  <g id="axes_1">
   <g id="patch_2">
    <path d="M 135 418.130526 
L 515.454545 418.130526 
L 515.454545 155.52 
L 135 155.52 
z
" style="fill: #ffffff"/>
   </g>
   <g id="matplotlib.axis_1">
    <g id="xtick_1">
     <g id="line2d_1">
      <defs>
       <path id="m4c10aa97f4" d="M 0 0 
L 0 3.5 
" style="stroke: #000000; stroke-width: 0.8"/>
      </defs>
      <g>
       <use xlink:href="#m4c10aa97f4" x="137.882231" y="418.130526" style="stroke: #000000; stroke-width: 0.8"/>
      </g>
     </g>
     <g id="text_1">
      <!-- 0 -->
      <g transform="translate(131.519731 440.327401) scale(0.2 -0.2)">
       <defs>
        <path id="DejaVuSans-30" d="M 2034 4250 
Q 1547 4250 1301 3770 
Q 1056 3291 1056 2328 
Q 1056 1369 1301 889 
Q 1547 409 2034 409 
Q 2525 409 2770 889 
Q 3016 1369 3016 2328 
Q 3016 3291 2770 3770 
Q 2525 4250 2034 4250 
z
M 2034 4750 
Q 2819 4750 3233 4129 
Q 3647 3509 3647 2328 
Q 3647 1150 3233 529 
Q 2819 -91 2034 -91 
Q 1250 -91 836 529 
Q 422 1150 422 2328 
Q 422 3509 836 4129 
Q 1250 4750 2034 4750 
z
" transform="scale(0.015625)"/>
       </defs>
       <use xlink:href="#DejaVuSans-30"/>
      </g>
     </g>
    </g>
    <g id="xtick_2">
     <g id="line2d_2">
      <g>
       <use xlink:href="#m4c10aa97f4" x="209.938017" y="418.130526" style="stroke: #000000; stroke-width: 0.8"/>
      </g>
     </g>
     <g id="text_2">
      <!-- 10 -->
      <g transform="translate(197.213017 440.327401) scale(0.2 -0.2)">
       <defs>
        <path id="DejaVuSans-31" d="M 794 531 
L 1825 531 
L 1825 4091 
L 703 3866 
L 703 4441 
L 1819 4666 
L 2450 4666 
L 2450 531 
L 3481 531 
L 3481 0 
L 794 0 
L 794 531 
z
" transform="scale(0.015625)"/>
       </defs>
       <use xlink:href="#DejaVuSans-31"/>
       <use xlink:href="#DejaVuSans-30" x="63.623047"/>
      </g>
     </g>
    </g>
    <g id="xtick_3">
     <g id="line2d_3">
      <g>
       <use xlink:href="#m4c10aa97f4" x="281.993802" y="418.130526" style="stroke: #000000; stroke-width: 0.8"/>
      </g>
     </g>
     <g id="text_3">
      <!-- 20 -->
      <g transform="translate(269.268802 440.327401) scale(0.2 -0.2)">
       <defs>
        <path id="DejaVuSans-32" d="M 1228 531 
L 3431 531 
L 3431 0 
L 469 0 
L 469 531 
Q 828 903 1448 1529 
Q 2069 2156 2228 2338 
Q 2531 2678 2651 2914 
Q 2772 3150 2772 3378 
Q 2772 3750 2511 3984 
Q 2250 4219 1831 4219 
Q 1534 4219 1204 4116 
Q 875 4013 500 3803 
L 500 4441 
Q 881 4594 1212 4672 
Q 1544 4750 1819 4750 
Q 2544 4750 2975 4387 
Q 3406 4025 3406 3419 
Q 3406 3131 3298 2873 
Q 3191 2616 2906 2266 
Q 2828 2175 2409 1742 
Q 1991 1309 1228 531 
z
" transform="scale(0.015625)"/>
       </defs>
       <use xlink:href="#DejaVuSans-32"/>
       <use xlink:href="#DejaVuSans-30" x="63.623047"/>
      </g>
     </g>
    </g>
    <g id="xtick_4">
     <g id="line2d_4">
      <g>
       <use xlink:href="#m4c10aa97f4" x="354.049587" y="418.130526" style="stroke: #000000; stroke-width: 0.8"/>
      </g>
     </g>
     <g id="text_4">
      <!-- 30 -->
      <g transform="translate(341.324587 440.327401) scale(0.2 -0.2)">
       <defs>
        <path id="DejaVuSans-33" d="M 2597 2516 
Q 3050 2419 3304 2112 
Q 3559 1806 3559 1356 
Q 3559 666 3084 287 
Q 2609 -91 1734 -91 
Q 1441 -91 1130 -33 
Q 819 25 488 141 
L 488 750 
Q 750 597 1062 519 
Q 1375 441 1716 441 
Q 2309 441 2620 675 
Q 2931 909 2931 1356 
Q 2931 1769 2642 2001 
Q 2353 2234 1838 2234 
L 1294 2234 
L 1294 2753 
L 1863 2753 
Q 2328 2753 2575 2939 
Q 2822 3125 2822 3475 
Q 2822 3834 2567 4026 
Q 2313 4219 1838 4219 
Q 1578 4219 1281 4162 
Q 984 4106 628 3988 
L 628 4550 
Q 988 4650 1302 4700 
Q 1616 4750 1894 4750 
Q 2613 4750 3031 4423 
Q 3450 4097 3450 3541 
Q 3450 3153 3228 2886 
Q 3006 2619 2597 2516 
z
" transform="scale(0.015625)"/>
       </defs>
       <use xlink:href="#DejaVuSans-33"/>
       <use xlink:href="#DejaVuSans-30" x="63.623047"/>
      </g>
     </g>
    </g>
    <g id="xtick_5">
     <g id="line2d_5">
      <g>
       <use xlink:href="#m4c10aa97f4" x="426.105372" y="418.130526" style="stroke: #000000; stroke-width: 0.8"/>
      </g>
     </g>
     <g id="text_5">
      <!-- 40 -->
      <g transform="translate(413.380372 440.327401) scale(0.2 -0.2)">
       <defs>
        <path id="DejaVuSans-34" d="M 2419 4116 
L 825 1625 
L 2419 1625 
L 2419 4116 
z
M 2253 4666 
L 3047 4666 
L 3047 1625 
L 3713 1625 
L 3713 1100 
L 3047 1100 
L 3047 0 
L 2419 0 
L 2419 1100 
L 313 1100 
L 313 1709 
L 2253 4666 
z
" transform="scale(0.015625)"/>
       </defs>
       <use xlink:href="#DejaVuSans-34"/>
       <use xlink:href="#DejaVuSans-30" x="63.623047"/>
      </g>
     </g>
    </g>
    <g id="xtick_6">
     <g id="line2d_6">
      <g>
       <use xlink:href="#m4c10aa97f4" x="498.161157" y="418.130526" style="stroke: #000000; stroke-width: 0.8"/>
      </g>
     </g>
     <g id="text_6">
      <!-- 50 -->
      <g transform="translate(485.436157 440.327401) scale(0.2 -0.2)">
       <defs>
        <path id="DejaVuSans-35" d="M 691 4666 
L 3169 4666 
L 3169 4134 
L 1269 4134 
L 1269 2991 
Q 1406 3038 1543 3061 
Q 1681 3084 1819 3084 
Q 2600 3084 3056 2656 
Q 3513 2228 3513 1497 
Q 3513 744 3044 326 
Q 2575 -91 1722 -91 
Q 1428 -91 1123 -41 
Q 819 9 494 109 
L 494 744 
Q 775 591 1075 516 
Q 1375 441 1709 441 
Q 2250 441 2565 725 
Q 2881 1009 2881 1497 
Q 2881 1984 2565 2268 
Q 2250 2553 1709 2553 
Q 1456 2553 1204 2497 
Q 953 2441 691 2322 
L 691 4666 
z
" transform="scale(0.015625)"/>
       </defs>
       <use xlink:href="#DejaVuSans-35"/>
       <use xlink:href="#DejaVuSans-30" x="63.623047"/>
      </g>
     </g>
    </g>
    <g id="text_7">
     <!-- k -->
     <g transform="translate(318.278523 466.723026) scale(0.24 -0.24)">
      <defs>
       <path id="DejaVuSans-6b" d="M 581 4863 
L 1159 4863 
L 1159 1991 
L 2875 3500 
L 3609 3500 
L 1753 1863 
L 3688 0 
L 2938 0 
L 1159 1709 
L 1159 0 
L 581 0 
L 581 4863 
z
" transform="scale(0.015625)"/>
      </defs>
      <use xlink:href="#DejaVuSans-6b"/>
     </g>
    </g>
   </g>
   <g id="matplotlib.axis_2">
    <g id="ytick_1">
     <g id="line2d_7">
      <defs>
       <path id="mcffaa39991" d="M 0 0 
L -3.5 0 
" style="stroke: #000000; stroke-width: 0.8"/>
      </defs>
      <g>
       <use xlink:href="#mcffaa39991" x="135" y="418.130526" style="stroke: #000000; stroke-width: 0.8"/>
      </g>
     </g>
     <g id="text_8">
      <!-- 0.0 -->
      <g transform="translate(96.19375 425.728964) scale(0.2 -0.2)">
       <defs>
        <path id="DejaVuSans-2e" d="M 684 794 
L 1344 794 
L 1344 0 
L 684 0 
L 684 794 
z
" transform="scale(0.015625)"/>
       </defs>
       <use xlink:href="#DejaVuSans-30"/>
       <use xlink:href="#DejaVuSans-2e" x="63.623047"/>
       <use xlink:href="#DejaVuSans-30" x="95.410156"/>
      </g>
     </g>
    </g>
    <g id="ytick_2">
     <g id="line2d_8">
      <g>
       <use xlink:href="#mcffaa39991" x="135" y="352.477895" style="stroke: #000000; stroke-width: 0.8"/>
      </g>
     </g>
     <g id="text_9">
      <!-- 0.2 -->
      <g transform="translate(96.19375 360.076332) scale(0.2 -0.2)">
       <use xlink:href="#DejaVuSans-30"/>
       <use xlink:href="#DejaVuSans-2e" x="63.623047"/>
       <use xlink:href="#DejaVuSans-32" x="95.410156"/>
      </g>
     </g>
    </g>
    <g id="ytick_3">
     <g id="line2d_9">
      <g>
       <use xlink:href="#mcffaa39991" x="135" y="286.825263" style="stroke: #000000; stroke-width: 0.8"/>
      </g>
     </g>
     <g id="text_10">
      <!-- 0.4 -->
      <g transform="translate(96.19375 294.423701) scale(0.2 -0.2)">
       <use xlink:href="#DejaVuSans-30"/>
       <use xlink:href="#DejaVuSans-2e" x="63.623047"/>
       <use xlink:href="#DejaVuSans-34" x="95.410156"/>
      </g>
     </g>
    </g>
    <g id="ytick_4">
     <g id="line2d_10">
      <g>
       <use xlink:href="#mcffaa39991" x="135" y="221.172632" style="stroke: #000000; stroke-width: 0.8"/>
      </g>
     </g>
     <g id="text_11">
      <!-- 0.6 -->
      <g transform="translate(96.19375 228.771069) scale(0.2 -0.2)">
       <defs>
        <path id="DejaVuSans-36" d="M 2113 2584 
Q 1688 2584 1439 2293 
Q 1191 2003 1191 1497 
Q 1191 994 1439 701 
Q 1688 409 2113 409 
Q 2538 409 2786 701 
Q 3034 994 3034 1497 
Q 3034 2003 2786 2293 
Q 2538 2584 2113 2584 
z
M 3366 4563 
L 3366 3988 
Q 3128 4100 2886 4159 
Q 2644 4219 2406 4219 
Q 1781 4219 1451 3797 
Q 1122 3375 1075 2522 
Q 1259 2794 1537 2939 
Q 1816 3084 2150 3084 
Q 2853 3084 3261 2657 
Q 3669 2231 3669 1497 
Q 3669 778 3244 343 
Q 2819 -91 2113 -91 
Q 1303 -91 875 529 
Q 447 1150 447 2328 
Q 447 3434 972 4092 
Q 1497 4750 2381 4750 
Q 2619 4750 2861 4703 
Q 3103 4656 3366 4563 
z
" transform="scale(0.015625)"/>
       </defs>
       <use xlink:href="#DejaVuSans-30"/>
       <use xlink:href="#DejaVuSans-2e" x="63.623047"/>
       <use xlink:href="#DejaVuSans-36" x="95.410156"/>
      </g>
     </g>
    </g>
    <g id="ytick_5">
     <g id="line2d_11">
      <g>
       <use xlink:href="#mcffaa39991" x="135" y="155.52" style="stroke: #000000; stroke-width: 0.8"/>
      </g>
     </g>
     <g id="text_12">
      <!-- 0.8 -->
      <g transform="translate(96.19375 163.118438) scale(0.2 -0.2)">
       <defs>
        <path id="DejaVuSans-38" d="M 2034 2216 
Q 1584 2216 1326 1975 
Q 1069 1734 1069 1313 
Q 1069 891 1326 650 
Q 1584 409 2034 409 
Q 2484 409 2743 651 
Q 3003 894 3003 1313 
Q 3003 1734 2745 1975 
Q 2488 2216 2034 2216 
z
M 1403 2484 
Q 997 2584 770 2862 
Q 544 3141 544 3541 
Q 544 4100 942 4425 
Q 1341 4750 2034 4750 
Q 2731 4750 3128 4425 
Q 3525 4100 3525 3541 
Q 3525 3141 3298 2862 
Q 3072 2584 2669 2484 
Q 3125 2378 3379 2068 
Q 3634 1759 3634 1313 
Q 3634 634 3220 271 
Q 2806 -91 2034 -91 
Q 1263 -91 848 271 
Q 434 634 434 1313 
Q 434 1759 690 2068 
Q 947 2378 1403 2484 
z
M 1172 3481 
Q 1172 3119 1398 2916 
Q 1625 2713 2034 2713 
Q 2441 2713 2670 2916 
Q 2900 3119 2900 3481 
Q 2900 3844 2670 4047 
Q 2441 4250 2034 4250 
Q 1625 4250 1398 4047 
Q 1172 3844 1172 3481 
z
" transform="scale(0.015625)"/>
       </defs>
       <use xlink:href="#DejaVuSans-30"/>
       <use xlink:href="#DejaVuSans-2e" x="63.623047"/>
       <use xlink:href="#DejaVuSans-38" x="95.410156"/>
      </g>
     </g>
    </g>
    <g id="text_13">
     <!-- $P_{NN}$ -->
     <g transform="translate(87.2025 306.985263) rotate(-90) scale(0.24 -0.24)">
      <defs>
       <path id="DejaVuSans-Oblique-50" d="M 1081 4666 
L 2541 4666 
Q 3178 4666 3512 4369 
Q 3847 4072 3847 3500 
Q 3847 2731 3353 2303 
Q 2859 1875 1966 1875 
L 1172 1875 
L 806 0 
L 172 0 
L 1081 4666 
z
M 1613 4147 
L 1275 2394 
L 2069 2394 
Q 2606 2394 2893 2669 
Q 3181 2944 3181 3456 
Q 3181 3784 2986 3965 
Q 2791 4147 2438 4147 
L 1613 4147 
z
" transform="scale(0.015625)"/>
       <path id="DejaVuSans-Oblique-4e" d="M 1081 4666 
L 1931 4666 
L 3219 666 
L 4000 4666 
L 4616 4666 
L 3706 0 
L 2853 0 
L 1569 4025 
L 788 0 
L 172 0 
L 1081 4666 
z
" transform="scale(0.015625)"/>
      </defs>
      <use xlink:href="#DejaVuSans-Oblique-50" transform="translate(0 0.09375)"/>
      <use xlink:href="#DejaVuSans-Oblique-4e" transform="translate(60.302734 -16.3125) scale(0.7)"/>
      <use xlink:href="#DejaVuSans-Oblique-4e" transform="translate(112.666016 -16.3125) scale(0.7)"/>
     </g>
    </g>
   </g>
   <g id="line2d_12">
    <path d="M 152.293388 327.415808 
L 173.910124 312.045803 
L 209.938017 299.805259 
L 281.993802 286.389516 
L 498.161157 268.444639 
" clip-path="url(#pad6cbac9d5)" style="fill: none; stroke: #1f77b4; stroke-width: 1.5; stroke-linecap: square"/>
    <defs>
     <path id="m9980647867" d="M 0 3 
C 0.795609 3 1.55874 2.683901 2.12132 2.12132 
C 2.683901 1.55874 3 0.795609 3 0 
C 3 -0.795609 2.683901 -1.55874 2.12132 -2.12132 
C 1.55874 -2.683901 0.795609 -3 0 -3 
C -0.795609 -3 -1.55874 -2.683901 -2.12132 -2.12132 
C -2.683901 -1.55874 -3 -0.795609 -3 0 
C -3 0.795609 -2.683901 1.55874 -2.12132 2.12132 
C -1.55874 2.683901 -0.795609 3 0 3 
z
" style="stroke: #1f77b4"/>
    </defs>
    <g clip-path="url(#pad6cbac9d5)">
     <use xlink:href="#m9980647867" x="152.293388" y="327.415808" style="fill: #1f77b4; stroke: #1f77b4"/>
     <use xlink:href="#m9980647867" x="173.910124" y="312.045803" style="fill: #1f77b4; stroke: #1f77b4"/>
     <use xlink:href="#m9980647867" x="209.938017" y="299.805259" style="fill: #1f77b4; stroke: #1f77b4"/>
     <use xlink:href="#m9980647867" x="281.993802" y="286.389516" style="fill: #1f77b4; stroke: #1f77b4"/>
     <use xlink:href="#m9980647867" x="498.161157" y="268.444639" style="fill: #1f77b4; stroke: #1f77b4"/>
    </g>
   </g>
   <g id="line2d_13">
    <path d="M 152.293388 212.33884 
L 173.910124 193.284788 
L 209.938017 189.36306 
L 281.993802 192.743405 
L 498.161157 205.319343 
" clip-path="url(#pad6cbac9d5)" style="fill: none; stroke: #ff7f0e; stroke-width: 1.5; stroke-linecap: square"/>
    <defs>
     <path id="m9a4ae61f01" d="M 0 3 
C 0.795609 3 1.55874 2.683901 2.12132 2.12132 
C 2.683901 1.55874 3 0.795609 3 0 
C 3 -0.795609 2.683901 -1.55874 2.12132 -2.12132 
C 1.55874 -2.683901 0.795609 -3 0 -3 
C -0.795609 -3 -1.55874 -2.683901 -2.12132 -2.12132 
C -2.683901 -1.55874 -3 -0.795609 -3 0 
C -3 0.795609 -2.683901 1.55874 -2.12132 2.12132 
C -1.55874 2.683901 -0.795609 3 0 3 
z
" style="stroke: #ff7f0e"/>
    </defs>
    <g clip-path="url(#pad6cbac9d5)">
     <use xlink:href="#m9a4ae61f01" x="152.293388" y="212.33884" style="fill: #ff7f0e; stroke: #ff7f0e"/>
     <use xlink:href="#m9a4ae61f01" x="173.910124" y="193.284788" style="fill: #ff7f0e; stroke: #ff7f0e"/>
     <use xlink:href="#m9a4ae61f01" x="209.938017" y="189.36306" style="fill: #ff7f0e; stroke: #ff7f0e"/>
     <use xlink:href="#m9a4ae61f01" x="281.993802" y="192.743405" style="fill: #ff7f0e; stroke: #ff7f0e"/>
     <use xlink:href="#m9a4ae61f01" x="498.161157" y="205.319343" style="fill: #ff7f0e; stroke: #ff7f0e"/>
    </g>
   </g>
   <g id="line2d_14">
    <path d="M 152.293388 291.89578 
L 173.910124 242.114923 
L 209.938017 213.923377 
L 281.993802 207.433379 
L 498.161157 217.039632 
" clip-path="url(#pad6cbac9d5)" style="fill: none; stroke: #2ca02c; stroke-width: 1.5; stroke-linecap: square"/>
    <defs>
     <path id="md504a3eac7" d="M 0 3 
C 0.795609 3 1.55874 2.683901 2.12132 2.12132 
C 2.683901 1.55874 3 0.795609 3 0 
C 3 -0.795609 2.683901 -1.55874 2.12132 -2.12132 
C 1.55874 -2.683901 0.795609 -3 0 -3 
C -0.795609 -3 -1.55874 -2.683901 -2.12132 -2.12132 
C -2.683901 -1.55874 -3 -0.795609 -3 0 
C -3 0.795609 -2.683901 1.55874 -2.12132 2.12132 
C -1.55874 2.683901 -0.795609 3 0 3 
z
" style="stroke: #2ca02c"/>
    </defs>
    <g clip-path="url(#pad6cbac9d5)">
     <use xlink:href="#md504a3eac7" x="152.293388" y="291.89578" style="fill: #2ca02c; stroke: #2ca02c"/>
     <use xlink:href="#md504a3eac7" x="173.910124" y="242.114923" style="fill: #2ca02c; stroke: #2ca02c"/>
     <use xlink:href="#md504a3eac7" x="209.938017" y="213.923377" style="fill: #2ca02c; stroke: #2ca02c"/>
     <use xlink:href="#md504a3eac7" x="281.993802" y="207.433379" style="fill: #2ca02c; stroke: #2ca02c"/>
     <use xlink:href="#md504a3eac7" x="498.161157" y="217.039632" style="fill: #2ca02c; stroke: #2ca02c"/>
    </g>
   </g>
   <g id="line2d_15">
    <path d="M 152.293388 284.501276 
L 173.910124 259.993777 
L 209.938017 237.598994 
L 281.993802 224.803861 
L 498.161157 231.215952 
" clip-path="url(#pad6cbac9d5)" style="fill: none; stroke: #d62728; stroke-width: 1.5; stroke-linecap: square"/>
    <defs>
     <path id="mf237c39546" d="M 0 3 
C 0.795609 3 1.55874 2.683901 2.12132 2.12132 
C 2.683901 1.55874 3 0.795609 3 0 
C 3 -0.795609 2.683901 -1.55874 2.12132 -2.12132 
C 1.55874 -2.683901 0.795609 -3 0 -3 
C -0.795609 -3 -1.55874 -2.683901 -2.12132 -2.12132 
C -2.683901 -1.55874 -3 -0.795609 -3 0 
C -3 0.795609 -2.683901 1.55874 -2.12132 2.12132 
C -1.55874 2.683901 -0.795609 3 0 3 
z
" style="stroke: #d62728"/>
    </defs>
    <g clip-path="url(#pad6cbac9d5)">
     <use xlink:href="#mf237c39546" x="152.293388" y="284.501276" style="fill: #d62728; stroke: #d62728"/>
     <use xlink:href="#mf237c39546" x="173.910124" y="259.993777" style="fill: #d62728; stroke: #d62728"/>
     <use xlink:href="#mf237c39546" x="209.938017" y="237.598994" style="fill: #d62728; stroke: #d62728"/>
     <use xlink:href="#mf237c39546" x="281.993802" y="224.803861" style="fill: #d62728; stroke: #d62728"/>
     <use xlink:href="#mf237c39546" x="498.161157" y="231.215952" style="fill: #d62728; stroke: #d62728"/>
    </g>
   </g>
   <g id="patch_3">
    <path d="M 135 418.130526 
L 135 155.52 
" style="fill: none; stroke: #000000; stroke-width: 0.8; stroke-linejoin: miter; stroke-linecap: square"/>
   </g>
   <g id="patch_4">
    <path d="M 515.454545 418.130526 
L 515.454545 155.52 
" style="fill: none; stroke: #000000; stroke-width: 0.8; stroke-linejoin: miter; stroke-linecap: square"/>
   </g>
   <g id="patch_5">
    <path d="M 135 418.130526 
L 515.454545 418.130526 
" style="fill: none; stroke: #000000; stroke-width: 0.8; stroke-linejoin: miter; stroke-linecap: square"/>
   </g>
   <g id="patch_6">
    <path d="M 135 155.52 
L 515.454545 155.52 
" style="fill: none; stroke: #000000; stroke-width: 0.8; stroke-linejoin: miter; stroke-linecap: square"/>
   </g>
   <g id="text_14">
    <!-- a -->
    <g transform="translate(89.472557 137.404046) scale(0.28 -0.28)">
     <defs>
      <path id="DejaVuSans-Bold-61" d="M 2106 1575 
Q 1756 1575 1579 1456 
Q 1403 1338 1403 1106 
Q 1403 894 1545 773 
Q 1688 653 1941 653 
Q 2256 653 2472 879 
Q 2688 1106 2688 1447 
L 2688 1575 
L 2106 1575 
z
M 3816 1997 
L 3816 0 
L 2688 0 
L 2688 519 
Q 2463 200 2181 54 
Q 1900 -91 1497 -91 
Q 953 -91 614 226 
Q 275 544 275 1050 
Q 275 1666 698 1953 
Q 1122 2241 2028 2241 
L 2688 2241 
L 2688 2328 
Q 2688 2594 2478 2717 
Q 2269 2841 1825 2841 
Q 1466 2841 1156 2769 
Q 847 2697 581 2553 
L 581 3406 
Q 941 3494 1303 3539 
Q 1666 3584 2028 3584 
Q 2975 3584 3395 3211 
Q 3816 2838 3816 1997 
z
" transform="scale(0.015625)"/>
     </defs>
     <use xlink:href="#DejaVuSans-Bold-61"/>
    </g>
   </g>
   <g id="text_15">
    <!-- $P_{NN}$ -->
    <g transform="translate(303.387273 149.52) scale(0.26 -0.26)">
     <use xlink:href="#DejaVuSans-Oblique-50" transform="translate(0 0.09375)"/>
     <use xlink:href="#DejaVuSans-Oblique-4e" transform="translate(60.302734 -16.3125) scale(0.7)"/>
     <use xlink:href="#DejaVuSans-Oblique-4e" transform="translate(112.666016 -16.3125) scale(0.7)"/>
    </g>
   </g>
  </g>
  <g id="axes_2">
   <g id="patch_7">
    <path d="M 591.545455 418.130526 
L 972 418.130526 
L 972 155.52 
L 591.545455 155.52 
z
" style="fill: #ffffff"/>
   </g>
   <g id="patch_8">
    <path d="M 608.838843 418.130526 
L 628.792753 418.130526 
L 628.792753 183.40055 
L 608.838843 183.40055 
z
" clip-path="url(#p3e5ed9bfe0)" style="fill: #1f77b4"/>
   </g>
   <g id="patch_9">
    <path d="M 741.864908 418.130526 
L 761.818818 418.130526 
L 761.818818 245.287391 
L 741.864908 245.287391 
z
" clip-path="url(#p3e5ed9bfe0)" style="fill: #1f77b4"/>
   </g>
   <g id="patch_10">
    <path d="M 874.890973 418.130526 
L 894.844882 418.130526 
L 894.844882 168.025263 
L 874.890973 168.025263 
z
" clip-path="url(#p3e5ed9bfe0)" style="fill: #1f77b4"/>
   </g>
   <g id="patch_11">
    <path d="M 628.792753 418.130526 
L 648.746662 418.130526 
L 648.746662 203.539424 
L 628.792753 203.539424 
z
" clip-path="url(#p3e5ed9bfe0)" style="fill: #ff7f0e"/>
   </g>
   <g id="patch_12">
    <path d="M 761.818818 418.130526 
L 781.772727 418.130526 
L 781.772727 238.975356 
L 761.818818 238.975356 
z
" clip-path="url(#p3e5ed9bfe0)" style="fill: #ff7f0e"/>
   </g>
   <g id="patch_13">
    <path d="M 894.844882 418.130526 
L 914.798792 418.130526 
L 914.798792 203.371264 
L 894.844882 203.371264 
z
" clip-path="url(#p3e5ed9bfe0)" style="fill: #ff7f0e"/>
   </g>
   <g id="patch_14">
    <path d="M 648.746662 418.130526 
L 668.700572 418.130526 
L 668.700572 200.314421 
L 648.746662 200.314421 
z
" clip-path="url(#p3e5ed9bfe0)" style="fill: #2ca02c"/>
   </g>
   <g id="patch_15">
    <path d="M 781.772727 418.130526 
L 801.726637 418.130526 
L 801.726637 266.302052 
L 781.772727 266.302052 
z
" clip-path="url(#p3e5ed9bfe0)" style="fill: #2ca02c"/>
   </g>
   <g id="patch_16">
    <path d="M 914.798792 418.130526 
L 934.752702 418.130526 
L 934.752702 199.837822 
L 914.798792 199.837822 
z
" clip-path="url(#p3e5ed9bfe0)" style="fill: #2ca02c"/>
   </g>
   <g id="patch_17">
    <path d="M 668.700572 418.130526 
L 688.654482 418.130526 
L 688.654482 244.839307 
L 668.700572 244.839307 
z
" clip-path="url(#p3e5ed9bfe0)" style="fill: #d62728"/>
   </g>
   <g id="patch_18">
    <path d="M 801.726637 418.130526 
L 821.680547 418.130526 
L 821.680547 272.206952 
L 801.726637 272.206952 
z
" clip-path="url(#p3e5ed9bfe0)" style="fill: #d62728"/>
   </g>
   <g id="patch_19">
    <path d="M 934.752702 418.130526 
L 954.706612 418.130526 
L 954.706612 244.546623 
L 934.752702 244.546623 
z
" clip-path="url(#p3e5ed9bfe0)" style="fill: #d62728"/>
   </g>
   <g id="matplotlib.axis_3">
    <g id="xtick_7">
     <g id="line2d_16">
      <g>
       <use xlink:href="#m4c10aa97f4" x="648.746662" y="418.130526" style="stroke: #000000; stroke-width: 0.8"/>
      </g>
     </g>
     <g id="text_16">
      <!-- AUC -->
      <g transform="translate(625.490256 441.847089) scale(0.22 -0.22)">
       <defs>
        <path id="DejaVuSans-41" d="M 2188 4044 
L 1331 1722 
L 3047 1722 
L 2188 4044 
z
M 1831 4666 
L 2547 4666 
L 4325 0 
L 3669 0 
L 3244 1197 
L 1141 1197 
L 716 0 
L 50 0 
L 1831 4666 
z
" transform="scale(0.015625)"/>
        <path id="DejaVuSans-55" d="M 556 4666 
L 1191 4666 
L 1191 1831 
Q 1191 1081 1462 751 
Q 1734 422 2344 422 
Q 2950 422 3222 751 
Q 3494 1081 3494 1831 
L 3494 4666 
L 4128 4666 
L 4128 1753 
Q 4128 841 3676 375 
Q 3225 -91 2344 -91 
Q 1459 -91 1007 375 
Q 556 841 556 1753 
L 556 4666 
z
" transform="scale(0.015625)"/>
        <path id="DejaVuSans-43" d="M 4122 4306 
L 4122 3641 
Q 3803 3938 3442 4084 
Q 3081 4231 2675 4231 
Q 1875 4231 1450 3742 
Q 1025 3253 1025 2328 
Q 1025 1406 1450 917 
Q 1875 428 2675 428 
Q 3081 428 3442 575 
Q 3803 722 4122 1019 
L 4122 359 
Q 3791 134 3420 21 
Q 3050 -91 2638 -91 
Q 1578 -91 968 557 
Q 359 1206 359 2328 
Q 359 3453 968 4101 
Q 1578 4750 2638 4750 
Q 3056 4750 3426 4639 
Q 3797 4528 4122 4306 
z
" transform="scale(0.015625)"/>
       </defs>
       <use xlink:href="#DejaVuSans-41"/>
       <use xlink:href="#DejaVuSans-55" x="68.408203"/>
       <use xlink:href="#DejaVuSans-43" x="141.601562"/>
      </g>
     </g>
    </g>
    <g id="xtick_8">
     <g id="line2d_17">
      <g>
       <use xlink:href="#m4c10aa97f4" x="781.772727" y="418.130526" style="stroke: #000000; stroke-width: 0.8"/>
      </g>
     </g>
     <g id="text_17">
      <!-- $Q_{local}$ -->
      <g transform="translate(754.822727 441.847089) scale(0.22 -0.22)">
       <defs>
        <path id="DejaVuSans-Oblique-51" d="M 2309 -84 
Q 2275 -88 2237 -89 
Q 2200 -91 2125 -91 
Q 1250 -91 756 411 
Q 263 913 263 1797 
Q 263 2319 452 2844 
Q 641 3369 978 3788 
Q 1369 4269 1858 4509 
Q 2347 4750 2938 4750 
Q 3794 4750 4287 4245 
Q 4781 3741 4781 2869 
Q 4781 1928 4265 1147 
Q 3750 366 2919 44 
L 3553 -825 
L 2847 -825 
L 2309 -84 
z
M 2919 4238 
Q 2400 4238 2003 3986 
Q 1606 3734 1313 3219 
Q 1125 2891 1026 2522 
Q 928 2153 928 1778 
Q 928 1128 1239 775 
Q 1550 422 2119 422 
Q 2631 422 3032 676 
Q 3434 931 3719 1434 
Q 3909 1772 4009 2142 
Q 4109 2513 4109 2881 
Q 4109 3528 3796 3883 
Q 3484 4238 2919 4238 
z
" transform="scale(0.015625)"/>
        <path id="DejaVuSans-Oblique-6c" d="M 1172 4863 
L 1747 4863 
L 800 0 
L 225 0 
L 1172 4863 
z
" transform="scale(0.015625)"/>
        <path id="DejaVuSans-Oblique-6f" d="M 1625 -91 
Q 1009 -91 651 289 
Q 294 669 294 1325 
Q 294 1706 417 2101 
Q 541 2497 738 2766 
Q 1047 3184 1428 3384 
Q 1809 3584 2291 3584 
Q 2888 3584 3255 3212 
Q 3622 2841 3622 2241 
Q 3622 1825 3500 1412 
Q 3378 1000 3181 728 
Q 2875 309 2494 109 
Q 2113 -91 1625 -91 
z
M 891 1344 
Q 891 869 1089 633 
Q 1288 397 1691 397 
Q 2269 397 2648 901 
Q 3028 1406 3028 2181 
Q 3028 2634 2825 2865 
Q 2622 3097 2228 3097 
Q 1903 3097 1650 2945 
Q 1397 2794 1197 2484 
Q 1050 2253 970 1956 
Q 891 1659 891 1344 
z
" transform="scale(0.015625)"/>
        <path id="DejaVuSans-Oblique-63" d="M 3431 3366 
L 3316 2797 
Q 3109 2947 2876 3022 
Q 2644 3097 2394 3097 
Q 2119 3097 1870 3000 
Q 1622 2903 1453 2725 
Q 1184 2453 1037 2087 
Q 891 1722 891 1331 
Q 891 859 1127 628 
Q 1363 397 1844 397 
Q 2081 397 2348 469 
Q 2616 541 2906 684 
L 2797 116 
Q 2547 13 2283 -39 
Q 2019 -91 1741 -91 
Q 1044 -91 669 257 
Q 294 606 294 1253 
Q 294 1797 489 2255 
Q 684 2713 1069 3078 
Q 1331 3328 1684 3456 
Q 2038 3584 2456 3584 
Q 2700 3584 2940 3529 
Q 3181 3475 3431 3366 
z
" transform="scale(0.015625)"/>
        <path id="DejaVuSans-Oblique-61" d="M 3438 1997 
L 3047 0 
L 2472 0 
L 2578 531 
Q 2325 219 2001 64 
Q 1678 -91 1281 -91 
Q 834 -91 548 182 
Q 263 456 263 884 
Q 263 1497 752 1853 
Q 1241 2209 2100 2209 
L 2900 2209 
L 2931 2363 
Q 2938 2388 2941 2417 
Q 2944 2447 2944 2509 
Q 2944 2788 2717 2942 
Q 2491 3097 2081 3097 
Q 1800 3097 1504 3025 
Q 1209 2953 897 2809 
L 997 3341 
Q 1322 3463 1633 3523 
Q 1944 3584 2234 3584 
Q 2853 3584 3176 3315 
Q 3500 3047 3500 2534 
Q 3500 2431 3484 2292 
Q 3469 2153 3438 1997 
z
M 2816 1759 
L 2241 1759 
Q 1534 1759 1195 1570 
Q 856 1381 856 984 
Q 856 709 1029 553 
Q 1203 397 1509 397 
Q 1978 397 2328 733 
Q 2678 1069 2791 1631 
L 2816 1759 
z
" transform="scale(0.015625)"/>
       </defs>
       <use xlink:href="#DejaVuSans-Oblique-51" transform="translate(0 0.78125)"/>
       <use xlink:href="#DejaVuSans-Oblique-6c" transform="translate(78.710938 -15.625) scale(0.7)"/>
       <use xlink:href="#DejaVuSans-Oblique-6f" transform="translate(98.15918 -15.625) scale(0.7)"/>
       <use xlink:href="#DejaVuSans-Oblique-63" transform="translate(140.986328 -15.625) scale(0.7)"/>
       <use xlink:href="#DejaVuSans-Oblique-61" transform="translate(179.472656 -15.625) scale(0.7)"/>
       <use xlink:href="#DejaVuSans-Oblique-6c" transform="translate(222.368164 -15.625) scale(0.7)"/>
      </g>
     </g>
    </g>
    <g id="xtick_9">
     <g id="line2d_18">
      <g>
       <use xlink:href="#m4c10aa97f4" x="914.798792" y="418.130526" style="stroke: #000000; stroke-width: 0.8"/>
      </g>
     </g>
     <g id="text_18">
      <!-- $Q_{global}$ -->
      <g transform="translate(882.348792 441.630526) scale(0.22 -0.22)">
       <defs>
        <path id="DejaVuSans-Oblique-67" d="M 3816 3500 
L 3219 434 
Q 3047 -456 2561 -893 
Q 2075 -1331 1253 -1331 
Q 950 -1331 690 -1286 
Q 431 -1241 206 -1147 
L 313 -588 
Q 525 -725 762 -790 
Q 1000 -856 1269 -856 
Q 1816 -856 2167 -557 
Q 2519 -259 2631 300 
L 2681 563 
Q 2441 288 2122 144 
Q 1803 0 1434 0 
Q 903 0 598 351 
Q 294 703 294 1319 
Q 294 1803 478 2267 
Q 663 2731 997 3091 
Q 1219 3328 1514 3456 
Q 1809 3584 2131 3584 
Q 2484 3584 2746 3420 
Q 3009 3256 3138 2956 
L 3238 3500 
L 3816 3500 
z
M 2950 2216 
Q 2950 2641 2750 2872 
Q 2550 3103 2181 3103 
Q 1953 3103 1747 3012 
Q 1541 2922 1394 2759 
Q 1156 2491 1023 2127 
Q 891 1763 891 1375 
Q 891 944 1092 712 
Q 1294 481 1672 481 
Q 2219 481 2584 976 
Q 2950 1472 2950 2216 
z
" transform="scale(0.015625)"/>
        <path id="DejaVuSans-Oblique-62" d="M 3169 2138 
Q 3169 2591 2961 2847 
Q 2753 3103 2388 3103 
Q 2122 3103 1889 2973 
Q 1656 2844 1484 2597 
Q 1303 2338 1198 1995 
Q 1094 1653 1094 1313 
Q 1094 881 1298 636 
Q 1503 391 1863 391 
Q 2134 391 2365 517 
Q 2597 644 2772 891 
Q 2950 1147 3059 1487 
Q 3169 1828 3169 2138 
z
M 1381 2969 
Q 1594 3256 1914 3420 
Q 2234 3584 2584 3584 
Q 3122 3584 3439 3221 
Q 3756 2859 3756 2241 
Q 3756 1734 3570 1259 
Q 3384 784 3041 416 
Q 2816 172 2522 40 
Q 2228 -91 1906 -91 
Q 1566 -91 1316 65 
Q 1066 222 909 531 
L 806 0 
L 231 0 
L 1178 4863 
L 1753 4863 
L 1381 2969 
z
" transform="scale(0.015625)"/>
       </defs>
       <use xlink:href="#DejaVuSans-Oblique-51" transform="translate(0 0.78125)"/>
       <use xlink:href="#DejaVuSans-Oblique-67" transform="translate(78.710938 -15.625) scale(0.7)"/>
       <use xlink:href="#DejaVuSans-Oblique-6c" transform="translate(123.144531 -15.625) scale(0.7)"/>
       <use xlink:href="#DejaVuSans-Oblique-6f" transform="translate(142.592773 -15.625) scale(0.7)"/>
       <use xlink:href="#DejaVuSans-Oblique-62" transform="translate(185.419922 -15.625) scale(0.7)"/>
       <use xlink:href="#DejaVuSans-Oblique-61" transform="translate(229.853516 -15.625) scale(0.7)"/>
       <use xlink:href="#DejaVuSans-Oblique-6c" transform="translate(272.749023 -15.625) scale(0.7)"/>
      </g>
     </g>
    </g>
   </g>
   <g id="matplotlib.axis_4">
    <g id="ytick_6">
     <g id="line2d_19">
      <g>
       <use xlink:href="#mcffaa39991" x="591.545455" y="418.130526" style="stroke: #000000; stroke-width: 0.8"/>
      </g>
     </g>
     <g id="text_19">
      <!-- 0.0 -->
      <g transform="translate(549.55858 426.488808) scale(0.22 -0.22)">
       <use xlink:href="#DejaVuSans-30"/>
       <use xlink:href="#DejaVuSans-2e" x="63.623047"/>
       <use xlink:href="#DejaVuSans-30" x="95.410156"/>
      </g>
     </g>
    </g>
    <g id="ytick_7">
     <g id="line2d_20">
      <g>
       <use xlink:href="#mcffaa39991" x="591.545455" y="363.886759" style="stroke: #000000; stroke-width: 0.8"/>
      </g>
     </g>
     <g id="text_20">
      <!-- 0.2 -->
      <g transform="translate(549.55858 372.24504) scale(0.22 -0.22)">
       <use xlink:href="#DejaVuSans-30"/>
       <use xlink:href="#DejaVuSans-2e" x="63.623047"/>
       <use xlink:href="#DejaVuSans-32" x="95.410156"/>
      </g>
     </g>
    </g>
    <g id="ytick_8">
     <g id="line2d_21">
      <g>
       <use xlink:href="#mcffaa39991" x="591.545455" y="309.642992" style="stroke: #000000; stroke-width: 0.8"/>
      </g>
     </g>
     <g id="text_21">
      <!-- 0.4 -->
      <g transform="translate(549.55858 318.001273) scale(0.22 -0.22)">
       <use xlink:href="#DejaVuSans-30"/>
       <use xlink:href="#DejaVuSans-2e" x="63.623047"/>
       <use xlink:href="#DejaVuSans-34" x="95.410156"/>
      </g>
     </g>
    </g>
    <g id="ytick_9">
     <g id="line2d_22">
      <g>
       <use xlink:href="#mcffaa39991" x="591.545455" y="255.399224" style="stroke: #000000; stroke-width: 0.8"/>
      </g>
     </g>
     <g id="text_22">
      <!-- 0.6 -->
      <g transform="translate(549.55858 263.757506) scale(0.22 -0.22)">
       <use xlink:href="#DejaVuSans-30"/>
       <use xlink:href="#DejaVuSans-2e" x="63.623047"/>
       <use xlink:href="#DejaVuSans-36" x="95.410156"/>
      </g>
     </g>
    </g>
    <g id="ytick_10">
     <g id="line2d_23">
      <g>
       <use xlink:href="#mcffaa39991" x="591.545455" y="201.155457" style="stroke: #000000; stroke-width: 0.8"/>
      </g>
     </g>
     <g id="text_23">
      <!-- 0.8 -->
      <g transform="translate(549.55858 209.513738) scale(0.22 -0.22)">
       <use xlink:href="#DejaVuSans-30"/>
       <use xlink:href="#DejaVuSans-2e" x="63.623047"/>
       <use xlink:href="#DejaVuSans-38" x="95.410156"/>
      </g>
     </g>
    </g>
    <g id="text_24">
     <!-- Metric Value -->
     <g transform="translate(540.983267 354.727919) rotate(-90) scale(0.22 -0.22)">
      <defs>
       <path id="DejaVuSans-4d" d="M 628 4666 
L 1569 4666 
L 2759 1491 
L 3956 4666 
L 4897 4666 
L 4897 0 
L 4281 0 
L 4281 4097 
L 3078 897 
L 2444 897 
L 1241 4097 
L 1241 0 
L 628 0 
L 628 4666 
z
" transform="scale(0.015625)"/>
       <path id="DejaVuSans-65" d="M 3597 1894 
L 3597 1613 
L 953 1613 
Q 991 1019 1311 708 
Q 1631 397 2203 397 
Q 2534 397 2845 478 
Q 3156 559 3463 722 
L 3463 178 
Q 3153 47 2828 -22 
Q 2503 -91 2169 -91 
Q 1331 -91 842 396 
Q 353 884 353 1716 
Q 353 2575 817 3079 
Q 1281 3584 2069 3584 
Q 2775 3584 3186 3129 
Q 3597 2675 3597 1894 
z
M 3022 2063 
Q 3016 2534 2758 2815 
Q 2500 3097 2075 3097 
Q 1594 3097 1305 2825 
Q 1016 2553 972 2059 
L 3022 2063 
z
" transform="scale(0.015625)"/>
       <path id="DejaVuSans-74" d="M 1172 4494 
L 1172 3500 
L 2356 3500 
L 2356 3053 
L 1172 3053 
L 1172 1153 
Q 1172 725 1289 603 
Q 1406 481 1766 481 
L 2356 481 
L 2356 0 
L 1766 0 
Q 1100 0 847 248 
Q 594 497 594 1153 
L 594 3053 
L 172 3053 
L 172 3500 
L 594 3500 
L 594 4494 
L 1172 4494 
z
" transform="scale(0.015625)"/>
       <path id="DejaVuSans-72" d="M 2631 2963 
Q 2534 3019 2420 3045 
Q 2306 3072 2169 3072 
Q 1681 3072 1420 2755 
Q 1159 2438 1159 1844 
L 1159 0 
L 581 0 
L 581 3500 
L 1159 3500 
L 1159 2956 
Q 1341 3275 1631 3429 
Q 1922 3584 2338 3584 
Q 2397 3584 2469 3576 
Q 2541 3569 2628 3553 
L 2631 2963 
z
" transform="scale(0.015625)"/>
       <path id="DejaVuSans-69" d="M 603 3500 
L 1178 3500 
L 1178 0 
L 603 0 
L 603 3500 
z
M 603 4863 
L 1178 4863 
L 1178 4134 
L 603 4134 
L 603 4863 
z
" transform="scale(0.015625)"/>
       <path id="DejaVuSans-63" d="M 3122 3366 
L 3122 2828 
Q 2878 2963 2633 3030 
Q 2388 3097 2138 3097 
Q 1578 3097 1268 2742 
Q 959 2388 959 1747 
Q 959 1106 1268 751 
Q 1578 397 2138 397 
Q 2388 397 2633 464 
Q 2878 531 3122 666 
L 3122 134 
Q 2881 22 2623 -34 
Q 2366 -91 2075 -91 
Q 1284 -91 818 406 
Q 353 903 353 1747 
Q 353 2603 823 3093 
Q 1294 3584 2113 3584 
Q 2378 3584 2631 3529 
Q 2884 3475 3122 3366 
z
" transform="scale(0.015625)"/>
       <path id="DejaVuSans-20" transform="scale(0.015625)"/>
       <path id="DejaVuSans-56" d="M 1831 0 
L 50 4666 
L 709 4666 
L 2188 738 
L 3669 4666 
L 4325 4666 
L 2547 0 
L 1831 0 
z
" transform="scale(0.015625)"/>
       <path id="DejaVuSans-61" d="M 2194 1759 
Q 1497 1759 1228 1600 
Q 959 1441 959 1056 
Q 959 750 1161 570 
Q 1363 391 1709 391 
Q 2188 391 2477 730 
Q 2766 1069 2766 1631 
L 2766 1759 
L 2194 1759 
z
M 3341 1997 
L 3341 0 
L 2766 0 
L 2766 531 
Q 2569 213 2275 61 
Q 1981 -91 1556 -91 
Q 1019 -91 701 211 
Q 384 513 384 1019 
Q 384 1609 779 1909 
Q 1175 2209 1959 2209 
L 2766 2209 
L 2766 2266 
Q 2766 2663 2505 2880 
Q 2244 3097 1772 3097 
Q 1472 3097 1187 3025 
Q 903 2953 641 2809 
L 641 3341 
Q 956 3463 1253 3523 
Q 1550 3584 1831 3584 
Q 2591 3584 2966 3190 
Q 3341 2797 3341 1997 
z
" transform="scale(0.015625)"/>
       <path id="DejaVuSans-6c" d="M 603 4863 
L 1178 4863 
L 1178 0 
L 603 0 
L 603 4863 
z
" transform="scale(0.015625)"/>
       <path id="DejaVuSans-75" d="M 544 1381 
L 544 3500 
L 1119 3500 
L 1119 1403 
Q 1119 906 1312 657 
Q 1506 409 1894 409 
Q 2359 409 2629 706 
Q 2900 1003 2900 1516 
L 2900 3500 
L 3475 3500 
L 3475 0 
L 2900 0 
L 2900 538 
Q 2691 219 2414 64 
Q 2138 -91 1772 -91 
Q 1169 -91 856 284 
Q 544 659 544 1381 
z
M 1991 3584 
L 1991 3584 
z
" transform="scale(0.015625)"/>
      </defs>
      <use xlink:href="#DejaVuSans-4d"/>
      <use xlink:href="#DejaVuSans-65" x="86.279297"/>
      <use xlink:href="#DejaVuSans-74" x="147.802734"/>
      <use xlink:href="#DejaVuSans-72" x="187.011719"/>
      <use xlink:href="#DejaVuSans-69" x="228.125"/>
      <use xlink:href="#DejaVuSans-63" x="255.908203"/>
      <use xlink:href="#DejaVuSans-20" x="310.888672"/>
      <use xlink:href="#DejaVuSans-56" x="342.675781"/>
      <use xlink:href="#DejaVuSans-61" x="403.333984"/>
      <use xlink:href="#DejaVuSans-6c" x="464.613281"/>
      <use xlink:href="#DejaVuSans-75" x="492.396484"/>
      <use xlink:href="#DejaVuSans-65" x="555.775391"/>
     </g>
    </g>
   </g>
   <g id="patch_20">
    <path d="M 591.545455 418.130526 
L 591.545455 155.52 
" style="fill: none; stroke: #000000; stroke-width: 0.8; stroke-linejoin: miter; stroke-linecap: square"/>
   </g>
   <g id="patch_21">
    <path d="M 972 418.130526 
L 972 155.52 
" style="fill: none; stroke: #000000; stroke-width: 0.8; stroke-linejoin: miter; stroke-linecap: square"/>
   </g>
   <g id="patch_22">
    <path d="M 591.545455 418.130526 
L 972 418.130526 
" style="fill: none; stroke: #000000; stroke-width: 0.8; stroke-linejoin: miter; stroke-linecap: square"/>
   </g>
   <g id="patch_23">
    <path d="M 591.545455 155.52 
L 972 155.52 
" style="fill: none; stroke: #000000; stroke-width: 0.8; stroke-linejoin: miter; stroke-linecap: square"/>
   </g>
   <g id="text_25">
    <!-- b -->
    <g transform="translate(544.871761 137.404046) scale(0.28 -0.28)">
     <defs>
      <path id="DejaVuSans-Bold-62" d="M 2400 722 
Q 2759 722 2948 984 
Q 3138 1247 3138 1747 
Q 3138 2247 2948 2509 
Q 2759 2772 2400 2772 
Q 2041 2772 1848 2508 
Q 1656 2244 1656 1747 
Q 1656 1250 1848 986 
Q 2041 722 2400 722 
z
M 1656 2988 
Q 1888 3294 2169 3439 
Q 2450 3584 2816 3584 
Q 3463 3584 3878 3070 
Q 4294 2556 4294 1747 
Q 4294 938 3878 423 
Q 3463 -91 2816 -91 
Q 2450 -91 2169 54 
Q 1888 200 1656 506 
L 1656 0 
L 538 0 
L 538 4863 
L 1656 4863 
L 1656 2988 
z
" transform="scale(0.015625)"/>
     </defs>
     <use xlink:href="#DejaVuSans-Bold-62"/>
    </g>
   </g>
   <g id="text_26">
    <!-- Metrics -->
    <g transform="translate(734.584759 149.52) scale(0.26 -0.26)">
     <defs>
      <path id="DejaVuSans-73" d="M 2834 3397 
L 2834 2853 
Q 2591 2978 2328 3040 
Q 2066 3103 1784 3103 
Q 1356 3103 1142 2972 
Q 928 2841 928 2578 
Q 928 2378 1081 2264 
Q 1234 2150 1697 2047 
L 1894 2003 
Q 2506 1872 2764 1633 
Q 3022 1394 3022 966 
Q 3022 478 2636 193 
Q 2250 -91 1575 -91 
Q 1294 -91 989 -36 
Q 684 19 347 128 
L 347 722 
Q 666 556 975 473 
Q 1284 391 1588 391 
Q 1994 391 2212 530 
Q 2431 669 2431 922 
Q 2431 1156 2273 1281 
Q 2116 1406 1581 1522 
L 1381 1569 
Q 847 1681 609 1914 
Q 372 2147 372 2553 
Q 372 3047 722 3315 
Q 1072 3584 1716 3584 
Q 2034 3584 2315 3537 
Q 2597 3491 2834 3397 
z
" transform="scale(0.015625)"/>
     </defs>
     <use xlink:href="#DejaVuSans-4d"/>
     <use xlink:href="#DejaVuSans-65" x="86.279297"/>
     <use xlink:href="#DejaVuSans-74" x="147.802734"/>
     <use xlink:href="#DejaVuSans-72" x="187.011719"/>
     <use xlink:href="#DejaVuSans-69" x="228.125"/>
     <use xlink:href="#DejaVuSans-63" x="255.908203"/>
     <use xlink:href="#DejaVuSans-73" x="310.888672"/>
    </g>
   </g>
  </g>
  <g id="axes_3">
   <g id="patch_24">
    <path d="M 135 785.785263 
L 515.454545 785.785263 
L 515.454545 523.174737 
L 135 523.174737 
z
" style="fill: #ffffff"/>
   </g>
   <g id="matplotlib.axis_5">
    <g id="xtick_10">
     <g id="line2d_24">
      <g>
       <use xlink:href="#m4c10aa97f4" x="137.882231" y="785.785263" style="stroke: #000000; stroke-width: 0.8"/>
      </g>
     </g>
     <g id="text_27">
      <!-- 0 -->
      <g transform="translate(130.883481 809.501826) scale(0.22 -0.22)">
       <use xlink:href="#DejaVuSans-30"/>
      </g>
     </g>
    </g>
    <g id="xtick_11">
     <g id="line2d_25">
      <g>
       <use xlink:href="#m4c10aa97f4" x="281.993802" y="785.785263" style="stroke: #000000; stroke-width: 0.8"/>
      </g>
     </g>
     <g id="text_28">
      <!-- 20 -->
      <g transform="translate(267.996302 809.501826) scale(0.22 -0.22)">
       <use xlink:href="#DejaVuSans-32"/>
       <use xlink:href="#DejaVuSans-30" x="63.623047"/>
      </g>
     </g>
    </g>
    <g id="xtick_12">
     <g id="line2d_26">
      <g>
       <use xlink:href="#m4c10aa97f4" x="426.105372" y="785.785263" style="stroke: #000000; stroke-width: 0.8"/>
      </g>
     </g>
     <g id="text_29">
      <!-- 40 -->
      <g transform="translate(412.107872 809.501826) scale(0.22 -0.22)">
       <use xlink:href="#DejaVuSans-34"/>
       <use xlink:href="#DejaVuSans-30" x="63.623047"/>
      </g>
     </g>
    </g>
    <g id="text_30">
     <!-- k -->
     <g transform="translate(318.278523 836.313388) scale(0.24 -0.24)">
      <use xlink:href="#DejaVuSans-6b"/>
     </g>
    </g>
   </g>
   <g id="matplotlib.axis_6">
    <g id="ytick_11">
     <g id="line2d_27">
      <g>
       <use xlink:href="#mcffaa39991" x="135" y="725.062749" style="stroke: #000000; stroke-width: 0.8"/>
      </g>
     </g>
     <g id="text_31">
      <!-- 0.96 -->
      <g transform="translate(79.015625 733.42103) scale(0.22 -0.22)">
       <defs>
        <path id="DejaVuSans-39" d="M 703 97 
L 703 672 
Q 941 559 1184 500 
Q 1428 441 1663 441 
Q 2288 441 2617 861 
Q 2947 1281 2994 2138 
Q 2813 1869 2534 1725 
Q 2256 1581 1919 1581 
Q 1219 1581 811 2004 
Q 403 2428 403 3163 
Q 403 3881 828 4315 
Q 1253 4750 1959 4750 
Q 2769 4750 3195 4129 
Q 3622 3509 3622 2328 
Q 3622 1225 3098 567 
Q 2575 -91 1691 -91 
Q 1453 -91 1209 -44 
Q 966 3 703 97 
z
M 1959 2075 
Q 2384 2075 2632 2365 
Q 2881 2656 2881 3163 
Q 2881 3666 2632 3958 
Q 2384 4250 1959 4250 
Q 1534 4250 1286 3958 
Q 1038 3666 1038 3163 
Q 1038 2656 1286 2365 
Q 1534 2075 1959 2075 
z
" transform="scale(0.015625)"/>
       </defs>
       <use xlink:href="#DejaVuSans-30"/>
       <use xlink:href="#DejaVuSans-2e" x="63.623047"/>
       <use xlink:href="#DejaVuSans-39" x="95.410156"/>
       <use xlink:href="#DejaVuSans-36" x="159.033203"/>
      </g>
     </g>
    </g>
    <g id="ytick_12">
     <g id="line2d_28">
      <g>
       <use xlink:href="#mcffaa39991" x="135" y="626.564345" style="stroke: #000000; stroke-width: 0.8"/>
      </g>
     </g>
     <g id="text_32">
      <!-- 0.98 -->
      <g transform="translate(79.015625 634.922626) scale(0.22 -0.22)">
       <use xlink:href="#DejaVuSans-30"/>
       <use xlink:href="#DejaVuSans-2e" x="63.623047"/>
       <use xlink:href="#DejaVuSans-39" x="95.410156"/>
       <use xlink:href="#DejaVuSans-38" x="159.033203"/>
      </g>
     </g>
    </g>
    <g id="ytick_13">
     <g id="line2d_29">
      <g>
       <use xlink:href="#mcffaa39991" x="135" y="528.065941" style="stroke: #000000; stroke-width: 0.8"/>
      </g>
     </g>
     <g id="text_33">
      <!-- 1.00 -->
      <g transform="translate(79.015625 536.424222) scale(0.22 -0.22)">
       <use xlink:href="#DejaVuSans-31"/>
       <use xlink:href="#DejaVuSans-2e" x="63.623047"/>
       <use xlink:href="#DejaVuSans-30" x="95.410156"/>
       <use xlink:href="#DejaVuSans-30" x="159.033203"/>
      </g>
     </g>
    </g>
    <g id="text_34">
     <!-- Metric Value -->
     <g transform="translate(70.024375 728.555625) rotate(-90) scale(0.24 -0.24)">
      <use xlink:href="#DejaVuSans-4d"/>
      <use xlink:href="#DejaVuSans-65" x="86.279297"/>
      <use xlink:href="#DejaVuSans-74" x="147.802734"/>
      <use xlink:href="#DejaVuSans-72" x="187.011719"/>
      <use xlink:href="#DejaVuSans-69" x="228.125"/>
      <use xlink:href="#DejaVuSans-63" x="255.908203"/>
      <use xlink:href="#DejaVuSans-20" x="310.888672"/>
      <use xlink:href="#DejaVuSans-56" x="342.675781"/>
      <use xlink:href="#DejaVuSans-61" x="403.333984"/>
      <use xlink:href="#DejaVuSans-6c" x="464.613281"/>
      <use xlink:href="#DejaVuSans-75" x="492.396484"/>
      <use xlink:href="#DejaVuSans-65" x="555.775391"/>
     </g>
    </g>
   </g>
   <g id="line2d_30">
    <path d="M 152.293388 740.695144 
L 173.910124 756.359596 
L 209.938017 764.594804 
L 281.993802 770.731517 
L 498.161157 773.848421 
" clip-path="url(#p05a149a5cc)" style="fill: none; stroke: #1f77b4; stroke-width: 1.5; stroke-linecap: square"/>
    <g clip-path="url(#p05a149a5cc)">
     <use xlink:href="#m9980647867" x="152.293388" y="740.695144" style="fill: #1f77b4; stroke: #1f77b4"/>
     <use xlink:href="#m9980647867" x="173.910124" y="756.359596" style="fill: #1f77b4; stroke: #1f77b4"/>
     <use xlink:href="#m9980647867" x="209.938017" y="764.594804" style="fill: #1f77b4; stroke: #1f77b4"/>
     <use xlink:href="#m9980647867" x="281.993802" y="770.731517" style="fill: #1f77b4; stroke: #1f77b4"/>
     <use xlink:href="#m9980647867" x="498.161157" y="773.848421" style="fill: #1f77b4; stroke: #1f77b4"/>
    </g>
   </g>
   <g id="line2d_31">
    <path d="M 152.293388 535.111579 
L 173.910124 539.412837 
L 209.938017 551.328685 
L 281.993802 570.644736 
L 498.161157 622.365102 
" clip-path="url(#p05a149a5cc)" style="fill: none; stroke: #ff7f0e; stroke-width: 1.5; stroke-linecap: square"/>
    <g clip-path="url(#p05a149a5cc)">
     <use xlink:href="#m9a4ae61f01" x="152.293388" y="535.111579" style="fill: #ff7f0e; stroke: #ff7f0e"/>
     <use xlink:href="#m9a4ae61f01" x="173.910124" y="539.412837" style="fill: #ff7f0e; stroke: #ff7f0e"/>
     <use xlink:href="#m9a4ae61f01" x="209.938017" y="551.328685" style="fill: #ff7f0e; stroke: #ff7f0e"/>
     <use xlink:href="#m9a4ae61f01" x="281.993802" y="570.644736" style="fill: #ff7f0e; stroke: #ff7f0e"/>
     <use xlink:href="#m9a4ae61f01" x="498.161157" y="622.365102" style="fill: #ff7f0e; stroke: #ff7f0e"/>
    </g>
   </g>
   <g id="line2d_32">
    <path d="M 152.293388 551.013542 
L 173.910124 554.949384 
L 209.938017 560.352481 
L 281.993802 587.222889 
L 498.161157 661.683837 
" clip-path="url(#p05a149a5cc)" style="fill: none; stroke: #2ca02c; stroke-width: 1.5; stroke-linecap: square"/>
    <g clip-path="url(#p05a149a5cc)">
     <use xlink:href="#md504a3eac7" x="152.293388" y="551.013542" style="fill: #2ca02c; stroke: #2ca02c"/>
     <use xlink:href="#md504a3eac7" x="173.910124" y="554.949384" style="fill: #2ca02c; stroke: #2ca02c"/>
     <use xlink:href="#md504a3eac7" x="209.938017" y="560.352481" style="fill: #2ca02c; stroke: #2ca02c"/>
     <use xlink:href="#md504a3eac7" x="281.993802" y="587.222889" style="fill: #2ca02c; stroke: #2ca02c"/>
     <use xlink:href="#md504a3eac7" x="498.161157" y="661.683837" style="fill: #2ca02c; stroke: #2ca02c"/>
    </g>
   </g>
   <g id="line2d_33">
    <path d="M 152.293388 582.402103 
L 173.910124 588.173985 
L 209.938017 602.124302 
L 281.993802 625.259361 
L 498.161157 722.621814 
" clip-path="url(#p05a149a5cc)" style="fill: none; stroke: #d62728; stroke-width: 1.5; stroke-linecap: square"/>
    <g clip-path="url(#p05a149a5cc)">
     <use xlink:href="#mf237c39546" x="152.293388" y="582.402103" style="fill: #d62728; stroke: #d62728"/>
     <use xlink:href="#mf237c39546" x="173.910124" y="588.173985" style="fill: #d62728; stroke: #d62728"/>
     <use xlink:href="#mf237c39546" x="209.938017" y="602.124302" style="fill: #d62728; stroke: #d62728"/>
     <use xlink:href="#mf237c39546" x="281.993802" y="625.259361" style="fill: #d62728; stroke: #d62728"/>
     <use xlink:href="#mf237c39546" x="498.161157" y="722.621814" style="fill: #d62728; stroke: #d62728"/>
    </g>
   </g>
   <g id="patch_25">
    <path d="M 135 785.785263 
L 135 523.174737 
" style="fill: none; stroke: #000000; stroke-width: 0.8; stroke-linejoin: miter; stroke-linecap: square"/>
   </g>
   <g id="patch_26">
    <path d="M 515.454545 785.785263 
L 515.454545 523.174737 
" style="fill: none; stroke: #000000; stroke-width: 0.8; stroke-linejoin: miter; stroke-linecap: square"/>
   </g>
   <g id="patch_27">
    <path d="M 135 785.785263 
L 515.454545 785.785263 
" style="fill: none; stroke: #000000; stroke-width: 0.8; stroke-linejoin: miter; stroke-linecap: square"/>
   </g>
   <g id="patch_28">
    <path d="M 135 523.174737 
L 515.454545 523.174737 
" style="fill: none; stroke: #000000; stroke-width: 0.8; stroke-linejoin: miter; stroke-linecap: square"/>
   </g>
   <g id="text_35">
    <!-- c -->
    <g transform="translate(91.769432 505.058783) scale(0.28 -0.28)">
     <defs>
      <path id="DejaVuSans-Bold-63" d="M 3366 3391 
L 3366 2478 
Q 3138 2634 2908 2709 
Q 2678 2784 2431 2784 
Q 1963 2784 1702 2511 
Q 1441 2238 1441 1747 
Q 1441 1256 1702 982 
Q 1963 709 2431 709 
Q 2694 709 2930 787 
Q 3166 866 3366 1019 
L 3366 103 
Q 3103 6 2833 -42 
Q 2563 -91 2291 -91 
Q 1344 -91 809 395 
Q 275 881 275 1747 
Q 275 2613 809 3098 
Q 1344 3584 2291 3584 
Q 2566 3584 2833 3536 
Q 3100 3488 3366 3391 
z
" transform="scale(0.015625)"/>
     </defs>
     <use xlink:href="#DejaVuSans-Bold-63"/>
    </g>
   </g>
   <g id="text_36">
    <!-- Trustworthiness -->
    <g transform="translate(230.950398 517.174737) scale(0.24 -0.24)">
     <defs>
      <path id="DejaVuSans-54" d="M -19 4666 
L 3928 4666 
L 3928 4134 
L 2272 4134 
L 2272 0 
L 1638 0 
L 1638 4134 
L -19 4134 
L -19 4666 
z
" transform="scale(0.015625)"/>
      <path id="DejaVuSans-77" d="M 269 3500 
L 844 3500 
L 1563 769 
L 2278 3500 
L 2956 3500 
L 3675 769 
L 4391 3500 
L 4966 3500 
L 4050 0 
L 3372 0 
L 2619 2869 
L 1863 0 
L 1184 0 
L 269 3500 
z
" transform="scale(0.015625)"/>
      <path id="DejaVuSans-6f" d="M 1959 3097 
Q 1497 3097 1228 2736 
Q 959 2375 959 1747 
Q 959 1119 1226 758 
Q 1494 397 1959 397 
Q 2419 397 2687 759 
Q 2956 1122 2956 1747 
Q 2956 2369 2687 2733 
Q 2419 3097 1959 3097 
z
M 1959 3584 
Q 2709 3584 3137 3096 
Q 3566 2609 3566 1747 
Q 3566 888 3137 398 
Q 2709 -91 1959 -91 
Q 1206 -91 779 398 
Q 353 888 353 1747 
Q 353 2609 779 3096 
Q 1206 3584 1959 3584 
z
" transform="scale(0.015625)"/>
      <path id="DejaVuSans-68" d="M 3513 2113 
L 3513 0 
L 2938 0 
L 2938 2094 
Q 2938 2591 2744 2837 
Q 2550 3084 2163 3084 
Q 1697 3084 1428 2787 
Q 1159 2491 1159 1978 
L 1159 0 
L 581 0 
L 581 4863 
L 1159 4863 
L 1159 2956 
Q 1366 3272 1645 3428 
Q 1925 3584 2291 3584 
Q 2894 3584 3203 3211 
Q 3513 2838 3513 2113 
z
" transform="scale(0.015625)"/>
      <path id="DejaVuSans-6e" d="M 3513 2113 
L 3513 0 
L 2938 0 
L 2938 2094 
Q 2938 2591 2744 2837 
Q 2550 3084 2163 3084 
Q 1697 3084 1428 2787 
Q 1159 2491 1159 1978 
L 1159 0 
L 581 0 
L 581 3500 
L 1159 3500 
L 1159 2956 
Q 1366 3272 1645 3428 
Q 1925 3584 2291 3584 
Q 2894 3584 3203 3211 
Q 3513 2838 3513 2113 
z
" transform="scale(0.015625)"/>
     </defs>
     <use xlink:href="#DejaVuSans-54"/>
     <use xlink:href="#DejaVuSans-72" x="46.333984"/>
     <use xlink:href="#DejaVuSans-75" x="87.447266"/>
     <use xlink:href="#DejaVuSans-73" x="150.826172"/>
     <use xlink:href="#DejaVuSans-74" x="202.925781"/>
     <use xlink:href="#DejaVuSans-77" x="242.134766"/>
     <use xlink:href="#DejaVuSans-6f" x="323.921875"/>
     <use xlink:href="#DejaVuSans-72" x="385.103516"/>
     <use xlink:href="#DejaVuSans-74" x="426.216797"/>
     <use xlink:href="#DejaVuSans-68" x="465.425781"/>
     <use xlink:href="#DejaVuSans-69" x="528.804688"/>
     <use xlink:href="#DejaVuSans-6e" x="556.587891"/>
     <use xlink:href="#DejaVuSans-65" x="619.966797"/>
     <use xlink:href="#DejaVuSans-73" x="681.490234"/>
     <use xlink:href="#DejaVuSans-73" x="733.589844"/>
    </g>
   </g>
  </g>
  <g id="axes_4">
   <g id="patch_29">
    <path d="M 591.545455 785.785263 
L 972 785.785263 
L 972 523.174737 
L 591.545455 523.174737 
z
" style="fill: #ffffff"/>
   </g>
   <g id="matplotlib.axis_7">
    <g id="xtick_13">
     <g id="line2d_34">
      <g>
       <use xlink:href="#m4c10aa97f4" x="594.427686" y="785.785263" style="stroke: #000000; stroke-width: 0.8"/>
      </g>
     </g>
     <g id="text_37">
      <!-- 0 -->
      <g transform="translate(587.428936 809.501826) scale(0.22 -0.22)">
       <use xlink:href="#DejaVuSans-30"/>
      </g>
     </g>
    </g>
    <g id="xtick_14">
     <g id="line2d_35">
      <g>
       <use xlink:href="#m4c10aa97f4" x="738.539256" y="785.785263" style="stroke: #000000; stroke-width: 0.8"/>
      </g>
     </g>
     <g id="text_38">
      <!-- 20 -->
      <g transform="translate(724.541756 809.501826) scale(0.22 -0.22)">
       <use xlink:href="#DejaVuSans-32"/>
       <use xlink:href="#DejaVuSans-30" x="63.623047"/>
      </g>
     </g>
    </g>
    <g id="xtick_15">
     <g id="line2d_36">
      <g>
       <use xlink:href="#m4c10aa97f4" x="882.650826" y="785.785263" style="stroke: #000000; stroke-width: 0.8"/>
      </g>
     </g>
     <g id="text_39">
      <!-- 40 -->
      <g transform="translate(868.653326 809.501826) scale(0.22 -0.22)">
       <use xlink:href="#DejaVuSans-34"/>
       <use xlink:href="#DejaVuSans-30" x="63.623047"/>
      </g>
     </g>
    </g>
    <g id="text_40">
     <!-- k -->
     <g transform="translate(774.823977 836.313388) scale(0.24 -0.24)">
      <use xlink:href="#DejaVuSans-6b"/>
     </g>
    </g>
   </g>
   <g id="matplotlib.axis_8">
    <g id="ytick_14">
     <g id="line2d_37">
      <g>
       <use xlink:href="#mcffaa39991" x="591.545455" y="769.795406" style="stroke: #000000; stroke-width: 0.8"/>
      </g>
     </g>
     <g id="text_41">
      <!-- 0.900 -->
      <g transform="translate(521.56358 778.153688) scale(0.22 -0.22)">
       <use xlink:href="#DejaVuSans-30"/>
       <use xlink:href="#DejaVuSans-2e" x="63.623047"/>
       <use xlink:href="#DejaVuSans-39" x="95.410156"/>
       <use xlink:href="#DejaVuSans-30" x="159.033203"/>
       <use xlink:href="#DejaVuSans-30" x="222.65625"/>
      </g>
     </g>
    </g>
    <g id="ytick_15">
     <g id="line2d_38">
      <g>
       <use xlink:href="#mcffaa39991" x="591.545455" y="707.95032" style="stroke: #000000; stroke-width: 0.8"/>
      </g>
     </g>
     <g id="text_42">
      <!-- 0.925 -->
      <g transform="translate(521.56358 716.308602) scale(0.22 -0.22)">
       <use xlink:href="#DejaVuSans-30"/>
       <use xlink:href="#DejaVuSans-2e" x="63.623047"/>
       <use xlink:href="#DejaVuSans-39" x="95.410156"/>
       <use xlink:href="#DejaVuSans-32" x="159.033203"/>
       <use xlink:href="#DejaVuSans-35" x="222.65625"/>
      </g>
     </g>
    </g>
    <g id="ytick_16">
     <g id="line2d_39">
      <g>
       <use xlink:href="#mcffaa39991" x="591.545455" y="646.105234" style="stroke: #000000; stroke-width: 0.8"/>
      </g>
     </g>
     <g id="text_43">
      <!-- 0.950 -->
      <g transform="translate(521.56358 654.463516) scale(0.22 -0.22)">
       <use xlink:href="#DejaVuSans-30"/>
       <use xlink:href="#DejaVuSans-2e" x="63.623047"/>
       <use xlink:href="#DejaVuSans-39" x="95.410156"/>
       <use xlink:href="#DejaVuSans-35" x="159.033203"/>
       <use xlink:href="#DejaVuSans-30" x="222.65625"/>
      </g>
     </g>
    </g>
    <g id="ytick_17">
     <g id="line2d_40">
      <g>
       <use xlink:href="#mcffaa39991" x="591.545455" y="584.260149" style="stroke: #000000; stroke-width: 0.8"/>
      </g>
     </g>
     <g id="text_44">
      <!-- 0.975 -->
      <g transform="translate(521.56358 592.61843) scale(0.22 -0.22)">
       <defs>
        <path id="DejaVuSans-37" d="M 525 4666 
L 3525 4666 
L 3525 4397 
L 1831 0 
L 1172 0 
L 2766 4134 
L 525 4134 
L 525 4666 
z
" transform="scale(0.015625)"/>
       </defs>
       <use xlink:href="#DejaVuSans-30"/>
       <use xlink:href="#DejaVuSans-2e" x="63.623047"/>
       <use xlink:href="#DejaVuSans-39" x="95.410156"/>
       <use xlink:href="#DejaVuSans-37" x="159.033203"/>
       <use xlink:href="#DejaVuSans-35" x="222.65625"/>
      </g>
     </g>
    </g>
   </g>
   <g id="line2d_41">
    <path d="M 608.838843 538.261006 
L 630.455579 544.907799 
L 666.483471 551.741996 
L 738.539256 561.534228 
L 954.706612 574.294713 
" clip-path="url(#p1e2a682018)" style="fill: none; stroke: #1f77b4; stroke-width: 1.5; stroke-linecap: square"/>
    <g clip-path="url(#p1e2a682018)">
     <use xlink:href="#m9980647867" x="608.838843" y="538.261006" style="fill: #1f77b4; stroke: #1f77b4"/>
     <use xlink:href="#m9980647867" x="630.455579" y="544.907799" style="fill: #1f77b4; stroke: #1f77b4"/>
     <use xlink:href="#m9980647867" x="666.483471" y="551.741996" style="fill: #1f77b4; stroke: #1f77b4"/>
     <use xlink:href="#m9980647867" x="738.539256" y="561.534228" style="fill: #1f77b4; stroke: #1f77b4"/>
     <use xlink:href="#m9980647867" x="954.706612" y="574.294713" style="fill: #1f77b4; stroke: #1f77b4"/>
    </g>
   </g>
   <g id="line2d_42">
    <path d="M 608.838843 535.111579 
L 630.455579 542.756661 
L 666.483471 553.855599 
L 738.539256 566.59093 
L 954.706612 596.20543 
" clip-path="url(#p1e2a682018)" style="fill: none; stroke: #ff7f0e; stroke-width: 1.5; stroke-linecap: square"/>
    <g clip-path="url(#p1e2a682018)">
     <use xlink:href="#m9a4ae61f01" x="608.838843" y="535.111579" style="fill: #ff7f0e; stroke: #ff7f0e"/>
     <use xlink:href="#m9a4ae61f01" x="630.455579" y="542.756661" style="fill: #ff7f0e; stroke: #ff7f0e"/>
     <use xlink:href="#m9a4ae61f01" x="666.483471" y="553.855599" style="fill: #ff7f0e; stroke: #ff7f0e"/>
     <use xlink:href="#m9a4ae61f01" x="738.539256" y="566.59093" style="fill: #ff7f0e; stroke: #ff7f0e"/>
     <use xlink:href="#m9a4ae61f01" x="954.706612" y="596.20543" style="fill: #ff7f0e; stroke: #ff7f0e"/>
    </g>
   </g>
   <g id="line2d_43">
    <path d="M 608.838843 536.43797 
L 630.455579 542.95833 
L 666.483471 553.812783 
L 738.539256 576.328423 
L 954.706612 627.063298 
" clip-path="url(#p1e2a682018)" style="fill: none; stroke: #2ca02c; stroke-width: 1.5; stroke-linecap: square"/>
    <g clip-path="url(#p1e2a682018)">
     <use xlink:href="#md504a3eac7" x="608.838843" y="536.43797" style="fill: #2ca02c; stroke: #2ca02c"/>
     <use xlink:href="#md504a3eac7" x="630.455579" y="542.95833" style="fill: #2ca02c; stroke: #2ca02c"/>
     <use xlink:href="#md504a3eac7" x="666.483471" y="553.812783" style="fill: #2ca02c; stroke: #2ca02c"/>
     <use xlink:href="#md504a3eac7" x="738.539256" y="576.328423" style="fill: #2ca02c; stroke: #2ca02c"/>
     <use xlink:href="#md504a3eac7" x="954.706612" y="627.063298" style="fill: #2ca02c; stroke: #2ca02c"/>
    </g>
   </g>
   <g id="line2d_44">
    <path d="M 608.838843 581.637881 
L 630.455579 609.819324 
L 666.483471 643.666117 
L 738.539256 688.211039 
L 954.706612 773.848421 
" clip-path="url(#p1e2a682018)" style="fill: none; stroke: #d62728; stroke-width: 1.5; stroke-linecap: square"/>
    <g clip-path="url(#p1e2a682018)">
     <use xlink:href="#mf237c39546" x="608.838843" y="581.637881" style="fill: #d62728; stroke: #d62728"/>
     <use xlink:href="#mf237c39546" x="630.455579" y="609.819324" style="fill: #d62728; stroke: #d62728"/>
     <use xlink:href="#mf237c39546" x="666.483471" y="643.666117" style="fill: #d62728; stroke: #d62728"/>
     <use xlink:href="#mf237c39546" x="738.539256" y="688.211039" style="fill: #d62728; stroke: #d62728"/>
     <use xlink:href="#mf237c39546" x="954.706612" y="773.848421" style="fill: #d62728; stroke: #d62728"/>
    </g>
   </g>
   <g id="patch_30">
    <path d="M 591.545455 785.785263 
L 591.545455 523.174737 
" style="fill: none; stroke: #000000; stroke-width: 0.8; stroke-linejoin: miter; stroke-linecap: square"/>
   </g>
   <g id="patch_31">
    <path d="M 972 785.785263 
L 972 523.174737 
" style="fill: none; stroke: #000000; stroke-width: 0.8; stroke-linejoin: miter; stroke-linecap: square"/>
   </g>
   <g id="patch_32">
    <path d="M 591.545455 785.785263 
L 972 785.785263 
" style="fill: none; stroke: #000000; stroke-width: 0.8; stroke-linejoin: miter; stroke-linecap: square"/>
   </g>
   <g id="patch_33">
    <path d="M 591.545455 523.174737 
L 972 523.174737 
" style="fill: none; stroke: #000000; stroke-width: 0.8; stroke-linejoin: miter; stroke-linecap: square"/>
   </g>
   <g id="text_45">
    <!-- d -->
    <g transform="translate(544.871761 505.058783) scale(0.28 -0.28)">
     <defs>
      <path id="DejaVuSans-Bold-64" d="M 2919 2988 
L 2919 4863 
L 4044 4863 
L 4044 0 
L 2919 0 
L 2919 506 
Q 2688 197 2409 53 
Q 2131 -91 1766 -91 
Q 1119 -91 703 423 
Q 288 938 288 1747 
Q 288 2556 703 3070 
Q 1119 3584 1766 3584 
Q 2128 3584 2408 3439 
Q 2688 3294 2919 2988 
z
M 2181 722 
Q 2541 722 2730 984 
Q 2919 1247 2919 1747 
Q 2919 2247 2730 2509 
Q 2541 2772 2181 2772 
Q 1825 2772 1636 2509 
Q 1447 2247 1447 1747 
Q 1447 1247 1636 984 
Q 1825 722 2181 722 
z
" transform="scale(0.015625)"/>
     </defs>
     <use xlink:href="#DejaVuSans-Bold-64"/>
    </g>
   </g>
   <g id="text_46">
    <!-- Continuity -->
    <g transform="translate(720.057102 517.174737) scale(0.24 -0.24)">
     <defs>
      <path id="DejaVuSans-79" d="M 2059 -325 
Q 1816 -950 1584 -1140 
Q 1353 -1331 966 -1331 
L 506 -1331 
L 506 -850 
L 844 -850 
Q 1081 -850 1212 -737 
Q 1344 -625 1503 -206 
L 1606 56 
L 191 3500 
L 800 3500 
L 1894 763 
L 2988 3500 
L 3597 3500 
L 2059 -325 
z
" transform="scale(0.015625)"/>
     </defs>
     <use xlink:href="#DejaVuSans-43"/>
     <use xlink:href="#DejaVuSans-6f" x="69.824219"/>
     <use xlink:href="#DejaVuSans-6e" x="131.005859"/>
     <use xlink:href="#DejaVuSans-74" x="194.384766"/>
     <use xlink:href="#DejaVuSans-69" x="233.59375"/>
     <use xlink:href="#DejaVuSans-6e" x="261.376953"/>
     <use xlink:href="#DejaVuSans-75" x="324.755859"/>
     <use xlink:href="#DejaVuSans-69" x="388.134766"/>
     <use xlink:href="#DejaVuSans-74" x="415.917969"/>
     <use xlink:href="#DejaVuSans-79" x="455.126953"/>
    </g>
   </g>
  </g>
  <g id="axes_5">
   <g id="patch_34">
    <path d="M 135 1153.44 
L 515.454545 1153.44 
L 515.454545 890.829474 
L 135 890.829474 
z
" style="fill: #ffffff"/>
   </g>
   <g id="matplotlib.axis_9">
    <g id="xtick_16">
     <g id="line2d_45">
      <g>
       <use xlink:href="#m4c10aa97f4" x="152.15415" y="1153.44" style="stroke: #000000; stroke-width: 0.8"/>
      </g>
     </g>
     <g id="text_47">
      <!-- 0 -->
      <g transform="translate(145.1554 1177.156562) scale(0.22 -0.22)">
       <use xlink:href="#DejaVuSans-30"/>
      </g>
     </g>
    </g>
    <g id="xtick_17">
     <g id="line2d_46">
      <g>
       <use xlink:href="#m4c10aa97f4" x="291.392382" y="1153.44" style="stroke: #000000; stroke-width: 0.8"/>
      </g>
     </g>
     <g id="text_48">
      <!-- 1000 -->
      <g transform="translate(263.397382 1177.156562) scale(0.22 -0.22)">
       <use xlink:href="#DejaVuSans-31"/>
       <use xlink:href="#DejaVuSans-30" x="63.623047"/>
       <use xlink:href="#DejaVuSans-30" x="127.246094"/>
       <use xlink:href="#DejaVuSans-30" x="190.869141"/>
      </g>
     </g>
    </g>
    <g id="xtick_18">
     <g id="line2d_47">
      <g>
       <use xlink:href="#m4c10aa97f4" x="430.630614" y="1153.44" style="stroke: #000000; stroke-width: 0.8"/>
      </g>
     </g>
     <g id="text_49">
      <!-- 2000 -->
      <g transform="translate(402.635614 1177.156562) scale(0.22 -0.22)">
       <use xlink:href="#DejaVuSans-32"/>
       <use xlink:href="#DejaVuSans-30" x="63.623047"/>
       <use xlink:href="#DejaVuSans-30" x="127.246094"/>
       <use xlink:href="#DejaVuSans-30" x="190.869141"/>
      </g>
     </g>
    </g>
    <g id="text_50">
     <!-- k -->
     <g transform="translate(318.278523 1203.968125) scale(0.24 -0.24)">
      <use xlink:href="#DejaVuSans-6b"/>
     </g>
    </g>
   </g>
   <g id="matplotlib.axis_10">
    <g id="ytick_18">
     <g id="line2d_48">
      <g>
       <use xlink:href="#mcffaa39991" x="135" y="1150.315759" style="stroke: #000000; stroke-width: 0.8"/>
      </g>
     </g>
     <g id="text_51">
      <!-- 0.2 -->
      <g transform="translate(93.013125 1158.67404) scale(0.22 -0.22)">
       <use xlink:href="#DejaVuSans-30"/>
       <use xlink:href="#DejaVuSans-2e" x="63.623047"/>
       <use xlink:href="#DejaVuSans-32" x="95.410156"/>
      </g>
     </g>
    </g>
    <g id="ytick_19">
     <g id="line2d_49">
      <g>
       <use xlink:href="#mcffaa39991" x="135" y="1088.428398" style="stroke: #000000; stroke-width: 0.8"/>
      </g>
     </g>
     <g id="text_52">
      <!-- 0.4 -->
      <g transform="translate(93.013125 1096.786679) scale(0.22 -0.22)">
       <use xlink:href="#DejaVuSans-30"/>
       <use xlink:href="#DejaVuSans-2e" x="63.623047"/>
       <use xlink:href="#DejaVuSans-34" x="95.410156"/>
      </g>
     </g>
    </g>
    <g id="ytick_20">
     <g id="line2d_50">
      <g>
       <use xlink:href="#mcffaa39991" x="135" y="1026.541037" style="stroke: #000000; stroke-width: 0.8"/>
      </g>
     </g>
     <g id="text_53">
      <!-- 0.6 -->
      <g transform="translate(93.013125 1034.899319) scale(0.22 -0.22)">
       <use xlink:href="#DejaVuSans-30"/>
       <use xlink:href="#DejaVuSans-2e" x="63.623047"/>
       <use xlink:href="#DejaVuSans-36" x="95.410156"/>
      </g>
     </g>
    </g>
    <g id="ytick_21">
     <g id="line2d_51">
      <g>
       <use xlink:href="#mcffaa39991" x="135" y="964.653677" style="stroke: #000000; stroke-width: 0.8"/>
      </g>
     </g>
     <g id="text_54">
      <!-- 0.8 -->
      <g transform="translate(93.013125 973.011958) scale(0.22 -0.22)">
       <use xlink:href="#DejaVuSans-30"/>
       <use xlink:href="#DejaVuSans-2e" x="63.623047"/>
       <use xlink:href="#DejaVuSans-38" x="95.410156"/>
      </g>
     </g>
    </g>
    <g id="ytick_22">
     <g id="line2d_52">
      <g>
       <use xlink:href="#mcffaa39991" x="135" y="902.766316" style="stroke: #000000; stroke-width: 0.8"/>
      </g>
     </g>
     <g id="text_55">
      <!-- 1.0 -->
      <g transform="translate(93.013125 911.124597) scale(0.22 -0.22)">
       <use xlink:href="#DejaVuSans-31"/>
       <use xlink:href="#DejaVuSans-2e" x="63.623047"/>
       <use xlink:href="#DejaVuSans-30" x="95.410156"/>
      </g>
     </g>
    </g>
    <g id="text_56">
     <!-- Metric Value -->
     <g transform="translate(84.021875 1096.210362) rotate(-90) scale(0.24 -0.24)">
      <use xlink:href="#DejaVuSans-4d"/>
      <use xlink:href="#DejaVuSans-65" x="86.279297"/>
      <use xlink:href="#DejaVuSans-74" x="147.802734"/>
      <use xlink:href="#DejaVuSans-72" x="187.011719"/>
      <use xlink:href="#DejaVuSans-69" x="228.125"/>
      <use xlink:href="#DejaVuSans-63" x="255.908203"/>
      <use xlink:href="#DejaVuSans-20" x="310.888672"/>
      <use xlink:href="#DejaVuSans-56" x="342.675781"/>
      <use xlink:href="#DejaVuSans-61" x="403.333984"/>
      <use xlink:href="#DejaVuSans-6c" x="464.613281"/>
      <use xlink:href="#DejaVuSans-75" x="492.396484"/>
      <use xlink:href="#DejaVuSans-65" x="555.775391"/>
     </g>
    </g>
   </g>
   <g id="line2d_53">
    <path d="M 152.293388 1141.503158 
L 152.571865 1121.961091 
L 152.98958 1108.767084 
L 154.381962 1091.722232 
L 155.217391 1086.311246 
L 155.774344 1084.198273 
L 156.192059 1082.31898 
L 157.027488 1078.111467 
L 157.862918 1074.643606 
L 158.559109 1071.923442 
L 159.2553 1069.253401 
L 159.951491 1066.955685 
L 160.369206 1065.678757 
L 162.179303 1059.566162 
L 168.862738 1042.384218 
L 170.672835 1038.093327 
L 171.647503 1035.731499 
L 172.482932 1033.831672 
L 177.35627 1023.497049 
L 180.419511 1017.60654 
L 184.178944 1010.714182 
L 185.292849 1008.677143 
L 187.102946 1005.475357 
L 193.647143 995.303136 
L 196.153432 991.987361 
L 198.102767 989.522758 
L 200.609055 986.829466 
L 206.596299 980.763633 
L 220.65936 966.069568 
L 224.975746 962.893555 
L 228.317463 960.620655 
L 233.747754 957.687888 
L 237.089472 956.244079 
L 244.469098 953.094962 
L 247.950054 951.953649 
L 251.291771 951.001921 
L 255.051204 949.942967 
L 256.443586 949.596449 
L 258.949874 949.025021 
L 262.291592 948.285844 
L 276.63313 944.553046 
L 291.531621 940.308666 
L 293.620194 939.68518 
L 302.252964 937.448906 
L 309.632591 935.746381 
L 314.088214 934.518281 
L 317.429932 933.581204 
L 324.391843 931.711183 
L 334.416996 929.605528 
L 336.366331 929.200807 
L 343.049766 927.655493 
L 348.480057 926.51085 
L 351.821775 925.760087 
L 355.024254 924.981407 
L 358.087496 924.225197 
L 361.846928 923.355979 
L 366.441789 922.255569 
L 371.87208 921.077311 
L 374.378369 920.572329 
L 376.745419 920.058939 
L 379.947898 919.237141 
L 383.011139 918.255017 
L 386.90981 917.072964 
L 392.340101 915.723574 
L 397.770392 914.680395 
L 404.871542 913.510664 
L 413.225835 912.193243 
L 416.985268 911.783385 
L 421.301653 911.359504 
L 425.896515 910.902565 
L 428.402803 910.844935 
L 430.630614 910.882373 
L 433.415379 910.819269 
L 435.086238 910.734224 
L 442.465864 910.614007 
L 448.31387 910.544075 
L 451.237873 910.510859 
L 454.858067 910.268574 
L 458.060546 909.968681 
L 461.959217 909.676317 
L 471.427416 909.087614 
L 474.072943 908.854934 
L 476.439993 908.463798 
L 477.693137 908.02767 
L 479.503234 907.392684 
L 481.313331 907.046217 
L 485.490478 906.177383 
L 490.920769 904.644085 
L 492.313151 904.167553 
L 492.870104 904.046437 
L 493.705534 903.866823 
L 495.376392 903.608634 
L 498.021919 902.773131 
L 498.161157 902.766316 
L 498.161157 902.766316 
" clip-path="url(#p69ab86fd08)" style="fill: none; stroke: #1f77b4; stroke-width: 1.5; stroke-linecap: square"/>
   </g>
   <g id="line2d_54">
    <path d="M 152.293388 1042.050219 
L 152.571865 1007.861975 
L 152.850341 1000.252601 
L 153.268056 995.995667 
L 153.407294 996.106308 
L 153.825009 997.375229 
L 153.964247 997.307407 
L 154.103485 996.840296 
L 154.660438 998.429781 
L 155.495868 1002.037733 
L 155.913582 1003.846608 
L 156.052821 1003.939632 
L 156.609774 1005.050987 
L 156.749012 1005.221665 
L 156.88825 1005.107732 
L 157.305965 1005.425244 
L 157.862918 1006.730597 
L 158.976824 1009.387812 
L 159.812253 1010.837227 
L 160.786921 1013.162732 
L 162.040065 1014.997771 
L 162.318541 1015.515567 
L 163.014732 1016.709045 
L 163.432447 1017.473961 
L 163.9894 1018.132604 
L 164.546353 1018.469113 
L 164.824829 1018.53463 
L 166.077973 1019.640323 
L 166.217212 1019.699527 
L 166.634926 1020.24492 
L 167.191879 1020.487791 
L 167.88807 1020.624553 
L 168.305785 1020.770913 
L 169.280453 1020.762512 
L 169.837406 1020.811612 
L 170.672835 1020.708459 
L 170.951312 1020.736965 
L 171.369026 1020.666331 
L 172.343694 1020.659961 
L 174.014553 1020.447629 
L 174.432267 1020.499489 
L 174.849982 1020.475368 
L 175.406935 1020.492753 
L 176.103126 1020.392132 
L 176.938556 1020.026409 
L 177.495508 1019.693859 
L 179.027129 1019.169342 
L 180.141035 1018.699688 
L 181.394179 1018.247661 
L 181.951132 1017.962025 
L 184.178944 1016.807887 
L 184.735897 1016.653724 
L 185.989041 1016.188265 
L 189.330758 1014.83286 
L 192.393999 1013.32093 
L 198.102767 1010.202798 
L 199.495149 1009.604457 
L 200.330579 1009.120243 
L 213.418972 1001.900437 
L 215.646784 1000.799567 
L 216.899928 1000.224762 
L 222.608696 998.035183 
L 226.646604 996.991673 
L 228.59594 996.632989 
L 229.988322 996.40649 
L 237.924901 994.569697 
L 239.038807 994.29176 
L 241.545095 993.758083 
L 243.215954 993.386137 
L 250.734819 991.515562 
L 251.848724 991.119885 
L 253.101868 990.731799 
L 255.051204 990.08789 
L 256.582824 989.571928 
L 261.038448 987.990636 
L 264.519404 986.906297 
L 267.721883 985.999534 
L 273.012936 984.549283 
L 276.076177 983.993232 
L 281.784944 983.240586 
L 283.316565 983.106893 
L 293.480956 982.017549 
L 298.075817 981.032094 
L 303.227632 979.483483 
L 307.265541 978.136762 
L 316.594502 974.585258 
L 320.771649 972.940947 
L 323.556414 971.64268 
L 327.872799 969.831051 
L 331.910708 968.258132 
L 340.682716 965.293153 
L 342.492814 964.724754 
L 345.13834 963.87342 
L 361.70769 959.352503 
L 364.770931 958.287732 
L 377.302372 953.509767 
L 389.833812 947.657819 
L 396.517248 944.211441 
L 406.124686 938.989851 
L 423.11175 930.673448 
L 426.731944 929.439693 
L 428.402803 929.102508 
L 433.554617 928.384157 
L 435.643191 928.000092 
L 439.124147 927.32512 
L 448.174632 925.876788 
L 453.04797 925.023837 
L 454.718829 924.661546 
L 459.452928 923.582202 
L 461.263026 922.9165 
L 464.743981 921.5432 
L 467.807222 920.354884 
L 472.680561 918.44527 
L 475.465325 917.172931 
L 478.389328 915.660485 
L 486.186669 911.199369 
L 493.844772 906.3727 
L 497.047251 903.716763 
L 498.161157 902.766316 
L 498.161157 902.766316 
" clip-path="url(#p69ab86fd08)" style="fill: none; stroke: #ff7f0e; stroke-width: 1.5; stroke-linecap: square"/>
   </g>
   <g id="line2d_55">
    <path d="M 152.293388 1125.570772 
L 152.571865 1071.09363 
L 152.98958 1037.278801 
L 153.407294 1021.982605 
L 153.685771 1017.936644 
L 154.381962 1013.857365 
L 154.5212 1014.175866 
L 154.799677 1013.585492 
L 154.938915 1013.595974 
L 155.217391 1013.840391 
L 155.774344 1015.590395 
L 156.052821 1016.675761 
L 156.331297 1017.305232 
L 156.470535 1017.529282 
L 156.749012 1018.189359 
L 157.723679 1018.901583 
L 158.002156 1019.458594 
L 158.419871 1020.024249 
L 159.116062 1020.790442 
L 159.394538 1020.834964 
L 159.533777 1020.932293 
L 161.204635 1024.645237 
L 162.040065 1026.968098 
L 164.407115 1032.720495 
L 165.938735 1034.862289 
L 166.495688 1035.401252 
L 167.191879 1035.703312 
L 167.88807 1035.536931 
L 168.305785 1035.467165 
L 170.533597 1034.032163 
L 170.951312 1033.846147 
L 171.369026 1033.762925 
L 173.596838 1033.404281 
L 174.293029 1033.176713 
L 174.98922 1033.125442 
L 175.546173 1033.044539 
L 177.077794 1032.528477 
L 177.773985 1032.133743 
L 178.330938 1031.932916 
L 179.027129 1031.704874 
L 180.001797 1031.312662 
L 180.837226 1030.774648 
L 181.254941 1030.425509 
L 184.596658 1028.1206 
L 185.153611 1027.691324 
L 186.82447 1026.422764 
L 188.356091 1025.221637 
L 189.052282 1024.788099 
L 190.305426 1023.792846 
L 191.419332 1022.967638 
L 192.393999 1022.215277 
L 194.621811 1020.470896 
L 195.874955 1019.738854 
L 196.849623 1019.20015 
L 198.798958 1017.726579 
L 205.064678 1012.220233 
L 205.900108 1011.513361 
L 207.29249 1010.474624 
L 208.12792 1009.676723 
L 209.381064 1008.594268 
L 211.748114 1007.267922 
L 212.583543 1006.862281 
L 213.697449 1006.010011 
L 217.596119 1002.684832 
L 218.710025 1001.96979 
L 219.823931 1001.334122 
L 223.304887 999.967314 
L 225.254222 999.732665 
L 227.621272 999.112972 
L 230.12756 998.435758 
L 231.380704 998.170094 
L 232.912325 997.855876 
L 233.747754 997.613799 
L 234.583184 997.374948 
L 235.557851 997.119237 
L 236.950234 996.64153 
L 238.621092 995.931727 
L 241.684333 994.868839 
L 244.747575 993.527944 
L 246.69691 992.647944 
L 248.507007 991.883422 
L 251.570248 990.325751 
L 252.96263 989.616661 
L 258.253683 987.514272 
L 265.215595 985.150834 
L 270.367409 982.888599 
L 274.26608 981.289832 
L 276.63313 980.474984 
L 280.671038 979.247809 
L 282.341897 978.698351 
L 286.658282 977.300935 
L 295.430291 973.394667 
L 297.10115 972.737382 
L 299.4682 971.680143 
L 302.252964 970.352982 
L 303.227632 970.009978 
L 307.544017 968.945811 
L 309.771829 968.225708 
L 312.974308 966.858497 
L 314.784405 966.088022 
L 317.847646 964.678152 
L 322.164032 962.389004 
L 327.315846 959.561752 
L 330.93604 957.505488 
L 332.467661 956.637695 
L 335.252425 955.154825 
L 342.353575 951.689277 
L 344.163672 951.021735 
L 351.264822 948.700575 
L 355.302731 947.1646 
L 357.669781 946.115547 
L 365.188645 942.710932 
L 366.998742 942.116253 
L 368.112648 941.747084 
L 368.948078 941.49638 
L 372.568272 940.637105 
L 382.17571 937.526864 
L 383.985807 936.840853 
L 386.492095 935.920624 
L 414.339741 926.002081 
L 418.516888 924.172401 
L 421.858606 922.778445 
L 424.225656 922.146964 
L 427.149659 921.568989 
L 438.149479 920.909196 
L 448.870823 919.364926 
L 449.84549 919.25178 
L 457.642831 917.574711 
L 465.022458 916.2743 
L 467.389508 915.62006 
L 474.072943 913.29134 
L 482.009522 910.197054 
L 486.604384 908.686498 
L 487.996766 908.277391 
L 490.503054 907.12836 
L 492.034675 906.254483 
L 493.287819 905.779447 
L 496.35106 904.190792 
L 498.161157 902.766316 
L 498.161157 902.766316 
" clip-path="url(#p69ab86fd08)" style="fill: none; stroke: #2ca02c; stroke-width: 1.5; stroke-linecap: square"/>
   </g>
   <g id="line2d_56">
    <path d="M 152.293388 1109.513915 
L 152.571865 1075.865048 
L 152.98958 1056.758632 
L 153.268056 1045.6599 
L 154.242724 1033.768698 
L 155.078153 1029.389662 
L 155.635106 1028.288621 
L 155.774344 1028.243428 
L 156.192059 1029.1352 
L 156.609774 1029.451343 
L 156.749012 1029.289977 
L 156.88825 1029.449283 
L 157.027488 1029.361212 
L 157.584441 1029.737089 
L 158.837585 1033.479819 
L 159.2553 1034.579473 
L 159.533777 1035.042224 
L 159.812253 1035.65237 
L 160.786921 1037.462832 
L 161.900826 1040.444533 
L 163.293209 1043.307384 
L 164.964068 1046.100963 
L 165.660259 1047.511578 
L 166.35645 1048.685052 
L 168.027309 1050.27955 
L 168.166547 1050.305403 
L 168.584262 1050.617674 
L 169.280453 1050.932241 
L 169.837406 1051.147439 
L 170.812073 1051.732079 
L 172.204456 1052.113415 
L 172.62217 1052.220493 
L 174.293029 1052.321097 
L 174.98922 1052.470175 
L 176.660079 1052.289436 
L 178.748653 1052.203465 
L 179.584082 1052.191193 
L 181.951132 1052.282496 
L 182.647323 1052.346137 
L 183.761229 1052.248679 
L 184.596658 1051.991934 
L 185.432088 1051.842345 
L 191.55857 1050.361238 
L 192.115523 1050.146522 
L 202.001437 1047.189025 
L 203.115343 1046.859726 
L 204.786202 1046.262502 
L 211.469637 1043.620725 
L 213.558211 1042.74822 
L 215.368308 1042.23583 
L 218.29231 1041.237615 
L 220.937837 1040.630888 
L 222.190981 1040.529337 
L 223.86184 1040.199336 
L 225.39346 1040.089434 
L 227.76051 1039.888353 
L 229.709845 1039.995653 
L 232.216134 1040.283586 
L 240.431189 1041.341672 
L 242.241286 1041.423628 
L 243.355192 1041.439642 
L 247.114625 1041.601245 
L 249.620913 1041.803231 
L 253.79806 1042.176907 
L 256.861301 1042.410889 
L 258.392921 1042.494272 
L 259.924542 1042.493107 
L 264.519404 1042.646974 
L 269.53198 1043.04304 
L 270.645886 1043.103183 
L 277.468559 1043.390503 
L 283.73428 1043.533738 
L 287.63295 1043.55373 
L 292.227812 1043.449475 
L 294.455623 1043.474215 
L 297.240388 1043.412361 
L 300.442867 1043.277172 
L 317.151455 1041.724807 
L 320.075458 1041.25488 
L 322.30327 1040.982532 
L 323.83489 1040.75654 
L 328.012037 1040.104301 
L 335.252425 1038.535856 
L 338.176428 1037.809142 
L 342.214337 1036.572367 
L 347.50539 1034.802467 
L 349.733202 1033.953677 
L 354.745778 1032.030285 
L 365.049407 1027.080719 
L 366.859504 1026.229551 
L 371.732842 1023.845217 
L 375.631513 1021.679193 
L 379.947898 1019.112036 
L 385.238951 1015.638337 
L 388.719907 1013.098702 
L 394.150198 1008.949396 
L 399.580489 1004.515433 
L 401.8083 1002.551156 
L 410.719547 994.593901 
L 415.314409 990.270031 
L 420.048509 985.453089 
L 440.655767 963.0029 
L 446.782249 956.016407 
L 458.895976 942.297034 
L 467.389508 932.970456 
L 475.186849 924.773675 
L 482.287999 917.64434 
L 489.667625 910.553298 
L 497.186489 903.640431 
L 498.161157 902.766316 
L 498.161157 902.766316 
" clip-path="url(#p69ab86fd08)" style="fill: none; stroke: #d62728; stroke-width: 1.5; stroke-linecap: square"/>
   </g>
   <g id="patch_35">
    <path d="M 135 1153.44 
L 135 890.829474 
" style="fill: none; stroke: #000000; stroke-width: 0.8; stroke-linejoin: miter; stroke-linecap: square"/>
   </g>
   <g id="patch_36">
    <path d="M 515.454545 1153.44 
L 515.454545 890.829474 
" style="fill: none; stroke: #000000; stroke-width: 0.8; stroke-linejoin: miter; stroke-linecap: square"/>
   </g>
   <g id="patch_37">
    <path d="M 135 1153.44 
L 515.454545 1153.44 
" style="fill: none; stroke: #000000; stroke-width: 0.8; stroke-linejoin: miter; stroke-linecap: square"/>
   </g>
   <g id="patch_38">
    <path d="M 135 890.829474 
L 515.454545 890.829474 
" style="fill: none; stroke: #000000; stroke-width: 0.8; stroke-linejoin: miter; stroke-linecap: square"/>
   </g>
   <g id="text_57">
    <!-- e -->
    <g transform="translate(89.376307 872.71352) scale(0.28 -0.28)">
     <defs>
      <path id="DejaVuSans-Bold-65" d="M 4031 1759 
L 4031 1441 
L 1416 1441 
Q 1456 1047 1700 850 
Q 1944 653 2381 653 
Q 2734 653 3104 758 
Q 3475 863 3866 1075 
L 3866 213 
Q 3469 63 3072 -14 
Q 2675 -91 2278 -91 
Q 1328 -91 801 392 
Q 275 875 275 1747 
Q 275 2603 792 3093 
Q 1309 3584 2216 3584 
Q 3041 3584 3536 3087 
Q 4031 2591 4031 1759 
z
M 2881 2131 
Q 2881 2450 2695 2645 
Q 2509 2841 2209 2841 
Q 1884 2841 1681 2658 
Q 1478 2475 1428 2131 
L 2881 2131 
z
" transform="scale(0.015625)"/>
     </defs>
     <use xlink:href="#DejaVuSans-Bold-65"/>
    </g>
   </g>
   <g id="text_58">
    <!-- $Q_{NN}$ -->
    <g transform="translate(302.787273 884.829474) scale(0.24 -0.24)">
     <use xlink:href="#DejaVuSans-Oblique-51" transform="translate(0 0.78125)"/>
     <use xlink:href="#DejaVuSans-Oblique-4e" transform="translate(78.710938 -15.625) scale(0.7)"/>
     <use xlink:href="#DejaVuSans-Oblique-4e" transform="translate(131.074219 -15.625) scale(0.7)"/>
    </g>
   </g>
  </g>
  <g id="axes_6">
   <g id="patch_39">
    <path d="M 591.545455 1153.44 
L 972 1153.44 
L 972 890.829474 
L 591.545455 890.829474 
z
" style="fill: #ffffff"/>
   </g>
   <g id="matplotlib.axis_11">
    <g id="xtick_19">
     <g id="line2d_57">
      <g>
       <use xlink:href="#m4c10aa97f4" x="608.699605" y="1153.44" style="stroke: #000000; stroke-width: 0.8"/>
      </g>
     </g>
     <g id="text_59">
      <!-- 0 -->
      <g transform="translate(601.700855 1177.156562) scale(0.22 -0.22)">
       <use xlink:href="#DejaVuSans-30"/>
      </g>
     </g>
    </g>
    <g id="xtick_20">
     <g id="line2d_58">
      <g>
       <use xlink:href="#m4c10aa97f4" x="747.937837" y="1153.44" style="stroke: #000000; stroke-width: 0.8"/>
      </g>
     </g>
     <g id="text_60">
      <!-- 1000 -->
      <g transform="translate(719.942837 1177.156562) scale(0.22 -0.22)">
       <use xlink:href="#DejaVuSans-31"/>
       <use xlink:href="#DejaVuSans-30" x="63.623047"/>
       <use xlink:href="#DejaVuSans-30" x="127.246094"/>
       <use xlink:href="#DejaVuSans-30" x="190.869141"/>
      </g>
     </g>
    </g>
    <g id="xtick_21">
     <g id="line2d_59">
      <g>
       <use xlink:href="#m4c10aa97f4" x="887.176069" y="1153.44" style="stroke: #000000; stroke-width: 0.8"/>
      </g>
     </g>
     <g id="text_61">
      <!-- 2000 -->
      <g transform="translate(859.181069 1177.156562) scale(0.22 -0.22)">
       <use xlink:href="#DejaVuSans-32"/>
       <use xlink:href="#DejaVuSans-30" x="63.623047"/>
       <use xlink:href="#DejaVuSans-30" x="127.246094"/>
       <use xlink:href="#DejaVuSans-30" x="190.869141"/>
      </g>
     </g>
    </g>
    <g id="text_62">
     <!-- k -->
     <g transform="translate(774.823977 1203.968125) scale(0.24 -0.24)">
      <use xlink:href="#DejaVuSans-6b"/>
     </g>
    </g>
   </g>
   <g id="matplotlib.axis_12">
    <g id="ytick_23">
     <g id="line2d_60">
      <g>
       <use xlink:href="#mcffaa39991" x="591.545455" y="1127.198664" style="stroke: #000000; stroke-width: 0.8"/>
      </g>
     </g>
     <g id="text_63">
      <!-- 0.0 -->
      <g transform="translate(549.55858 1135.556945) scale(0.22 -0.22)">
       <use xlink:href="#DejaVuSans-30"/>
       <use xlink:href="#DejaVuSans-2e" x="63.623047"/>
       <use xlink:href="#DejaVuSans-30" x="95.410156"/>
      </g>
     </g>
    </g>
    <g id="ytick_24">
     <g id="line2d_61">
      <g>
       <use xlink:href="#mcffaa39991" x="591.545455" y="1062.659641" style="stroke: #000000; stroke-width: 0.8"/>
      </g>
     </g>
     <g id="text_64">
      <!-- 0.2 -->
      <g transform="translate(549.55858 1071.017922) scale(0.22 -0.22)">
       <use xlink:href="#DejaVuSans-30"/>
       <use xlink:href="#DejaVuSans-2e" x="63.623047"/>
       <use xlink:href="#DejaVuSans-32" x="95.410156"/>
      </g>
     </g>
    </g>
    <g id="ytick_25">
     <g id="line2d_62">
      <g>
       <use xlink:href="#mcffaa39991" x="591.545455" y="998.120617" style="stroke: #000000; stroke-width: 0.8"/>
      </g>
     </g>
     <g id="text_65">
      <!-- 0.4 -->
      <g transform="translate(549.55858 1006.478899) scale(0.22 -0.22)">
       <use xlink:href="#DejaVuSans-30"/>
       <use xlink:href="#DejaVuSans-2e" x="63.623047"/>
       <use xlink:href="#DejaVuSans-34" x="95.410156"/>
      </g>
     </g>
    </g>
    <g id="ytick_26">
     <g id="line2d_63">
      <g>
       <use xlink:href="#mcffaa39991" x="591.545455" y="933.581594" style="stroke: #000000; stroke-width: 0.8"/>
      </g>
     </g>
     <g id="text_66">
      <!-- 0.6 -->
      <g transform="translate(549.55858 941.939875) scale(0.22 -0.22)">
       <use xlink:href="#DejaVuSans-30"/>
       <use xlink:href="#DejaVuSans-2e" x="63.623047"/>
       <use xlink:href="#DejaVuSans-36" x="95.410156"/>
      </g>
     </g>
    </g>
   </g>
   <g id="line2d_64">
    <path d="M 608.838843 1053.599307 
L 609.117319 1033.479644 
L 609.535034 1020.10989 
L 610.927416 1003.633296 
L 611.762846 998.769611 
L 612.041322 998.071031 
L 612.737513 995.515291 
L 613.01599 994.480998 
L 613.155228 994.065073 
L 613.851419 990.761557 
L 615.243802 986.362744 
L 616.079231 983.943297 
L 618.028566 979.026902 
L 618.585519 977.586623 
L 619.420949 976.097919 
L 620.395616 974.308268 
L 625.408193 965.686464 
L 627.079051 963.144881 
L 628.471434 960.883885 
L 630.560007 958.047033 
L 631.256198 957.149014 
L 632.648581 955.316456 
L 633.205534 954.700023 
L 635.154869 952.591548 
L 636.129536 951.439868 
L 637.800395 949.730807 
L 638.914301 948.679136 
L 642.95221 944.781204 
L 643.926877 944.00527 
L 647.129357 941.591056 
L 650.331836 939.65003 
L 652.838124 938.514853 
L 655.622889 937.647879 
L 667.040424 935.987183 
L 668.572045 935.683651 
L 670.382142 935.392937 
L 672.88843 934.908961 
L 675.394718 934.566304 
L 676.369386 934.476513 
L 677.62253 934.449216 
L 678.597197 934.562012 
L 679.432627 934.680503 
L 685.837585 936.175094 
L 693.077973 939.199488 
L 697.533597 941.271744 
L 699.065217 942.088098 
L 701.153791 943.161321 
L 708.951132 947.972026 
L 732.203917 963.543535 
L 738.469637 967.609816 
L 740.279734 968.806863 
L 757.406037 979.721033 
L 763.671757 984.053131 
L 767.709666 986.770256 
L 776.760151 992.586222 
L 779.823392 994.579596 
L 782.32968 996.271657 
L 785.53216 998.517295 
L 789.987783 1001.757347 
L 795.278836 1005.507834 
L 797.785124 1007.240354 
L 807.253324 1013.930123 
L 811.987424 1017.143603 
L 815.607618 1019.623429 
L 821.316385 1023.556703 
L 825.772009 1026.642459 
L 837.189544 1034.550805 
L 843.455264 1038.362409 
L 849.30327 1042.309499 
L 854.03737 1045.777906 
L 858.910708 1049.483021 
L 869.214337 1057.367602 
L 874.226913 1061.48982 
L 877.150916 1063.922845 
L 884.252066 1069.912047 
L 892.884837 1077.820842 
L 903.745419 1087.776177 
L 909.454186 1092.984572 
L 916.137621 1098.588246 
L 924.352677 1105.697886 
L 931.314589 1111.648028 
L 933.124686 1112.974697 
L 934.656306 1113.809588 
L 935.90945 1114.52287 
L 945.516888 1121.266419 
L 950.529465 1124.430269 
L 951.921847 1125.479928 
L 954.567373 1127.075914 
L 954.706612 1127.198664 
L 954.706612 1127.198664 
" clip-path="url(#p715f5d66fd)" style="fill: none; stroke: #1f77b4; stroke-width: 1.5; stroke-linecap: square"/>
   </g>
   <g id="line2d_65">
    <path d="M 608.838843 949.885149 
L 609.117319 914.491769 
L 609.395796 906.816074 
L 609.813511 902.766316 
L 609.952749 903.011555 
L 610.370464 904.724416 
L 610.509702 904.783546 
L 610.64894 904.426278 
L 611.345131 907.316896 
L 611.902084 910.380442 
L 612.598275 913.647797 
L 613.294466 915.634046 
L 613.433705 915.645089 
L 613.851419 916.365777 
L 614.54761 918.755735 
L 615.522278 922.056414 
L 616.496946 924.856527 
L 617.471613 928.00492 
L 617.75009 928.496635 
L 620.674093 936.094039 
L 622.762666 939.562524 
L 623.319619 940.742422 
L 625.129716 942.858692 
L 625.686669 943.305464 
L 626.104384 943.802216 
L 626.522098 944.194562 
L 626.800575 944.377173 
L 627.079051 944.593589 
L 627.636004 945.126641 
L 628.332195 945.724894 
L 629.306863 946.581047 
L 630.142292 947.277655 
L 632.091628 949.091863 
L 633.48401 949.902416 
L 634.040963 950.075046 
L 635.572584 950.956485 
L 636.686489 951.505565 
L 638.078872 952.286744 
L 641.142113 953.525121 
L 641.699066 953.911571 
L 645.597736 955.959605 
L 646.433166 956.263048 
L 650.610313 957.955195 
L 651.167266 958.095764 
L 652.42041 958.583135 
L 654.648221 959.39619 
L 656.040604 960.070784 
L 656.736795 960.300306 
L 662.584801 962.284746 
L 664.951851 963.200283 
L 667.458139 964.05834 
L 670.242903 965.142646 
L 672.331477 966.001658 
L 673.584621 966.592717 
L 674.837765 967.184625 
L 676.230147 967.879451 
L 680.825009 970.647117 
L 685.280632 973.799825 
L 687.229968 975.249999 
L 690.014732 977.102183 
L 691.964068 978.467562 
L 707.280273 988.994287 
L 708.254941 989.545271 
L 710.900467 991.097073 
L 721.204096 997.137107 
L 724.267337 999.084493 
L 729.836867 1002.69909 
L 732.76087 1004.89158 
L 739.444305 1010.261102 
L 745.570787 1015.454405 
L 752.39346 1020.668868 
L 755.178225 1022.58122 
L 759.355372 1025.154828 
L 763.950234 1027.837022 
L 770.49443 1031.359752 
L 773.000719 1032.681772 
L 776.481674 1034.53972 
L 788.038448 1040.213077 
L 803.772368 1049.518585 
L 817.417715 1058.472026 
L 824.797341 1062.618549 
L 833.847826 1067.400258 
L 846.100791 1072.867931 
L 856.822134 1076.974481 
L 862.67014 1079.138652 
L 879.517966 1086.23271 
L 883.277398 1088.398166 
L 885.087496 1089.711294 
L 909.593424 1108.336115 
L 911.54276 1109.708576 
L 916.27686 1112.976275 
L 919.061624 1114.421138 
L 925.188106 1117.690299 
L 927.694395 1119.028779 
L 933.403162 1121.638449 
L 940.782788 1124.224581 
L 947.605462 1126.143961 
L 949.276321 1126.741938 
L 950.807941 1126.982867 
L 953.035753 1127.128489 
L 954.706612 1127.198664 
L 954.706612 1127.198664 
" clip-path="url(#p715f5d66fd)" style="fill: none; stroke: #ff7f0e; stroke-width: 1.5; stroke-linecap: square"/>
   </g>
   <g id="line2d_66">
    <path d="M 608.838843 1036.984273 
L 609.117319 980.432686 
L 609.535034 945.558578 
L 609.952749 929.996563 
L 610.231225 926.036961 
L 610.927416 922.432184 
L 611.066655 922.894189 
L 611.205893 922.562094 
L 611.345131 922.538234 
L 611.623608 922.967118 
L 611.762846 923.193627 
L 612.319799 925.538041 
L 612.737513 927.282645 
L 613.294466 929.157362 
L 614.269134 930.809103 
L 614.54761 931.649694 
L 615.38304 933.751225 
L 616.218469 935.056499 
L 617.610852 939.593284 
L 618.167805 941.764385 
L 618.724757 943.744756 
L 620.952569 951.453253 
L 622.623428 955.40703 
L 623.458857 956.868262 
L 623.876572 957.238465 
L 625.547431 958.121695 
L 627.357528 958.6394 
L 629.028387 959.860143 
L 633.066295 962.89031 
L 633.344772 962.95404 
L 633.623248 963.070012 
L 634.180201 963.253926 
L 634.876392 963.617648 
L 635.711822 964.112887 
L 637.104204 964.749511 
L 637.939633 964.797056 
L 640.724398 965.344464 
L 641.142113 965.485561 
L 641.699066 965.557321 
L 643.230686 965.757808 
L 644.205354 965.900568 
L 645.736974 966.194393 
L 646.433166 966.281021 
L 651.167266 966.857811 
L 652.42041 967.263118 
L 653.395077 967.610333 
L 655.065936 967.868978 
L 656.179842 967.977392 
L 657.015271 968.060578 
L 658.129177 968.044522 
L 662.863277 968.114815 
L 664.116421 968.247196 
L 665.508803 968.11378 
L 667.040424 968.482413 
L 668.432806 969.136491 
L 669.546712 969.515303 
L 670.242903 969.567761 
L 671.774524 969.679801 
L 672.749192 969.664592 
L 673.863097 969.65626 
L 676.090909 970.267764 
L 679.571865 972.056817 
L 680.128818 972.443806 
L 683.192059 974.760865 
L 693.634926 981.541703 
L 698.369026 984.121938 
L 699.204456 984.550412 
L 704.077794 986.856925 
L 707.001797 988.14126 
L 709.368847 989.02665 
L 713.82447 991.228127 
L 715.356091 992.195431 
L 719.811714 994.786917 
L 722.178764 996.081532 
L 732.064678 1000.967139 
L 733.178584 1001.634095 
L 737.355731 1004.192816 
L 740.140496 1005.868104 
L 743.899928 1007.997265 
L 746.963169 1009.400576 
L 749.051743 1010.349465 
L 750.583363 1011.045631 
L 752.254222 1011.937499 
L 755.317463 1013.500273 
L 759.076895 1015.104078 
L 760.33004 1015.898631 
L 764.089472 1018.439232 
L 766.317284 1019.765991 
L 769.519763 1021.326915 
L 771.190622 1022.139744 
L 773.975386 1023.452135 
L 779.823392 1025.612908 
L 782.190442 1026.490829 
L 790.962451 1029.557724 
L 798.202839 1032.555917 
L 800.569889 1033.814563 
L 807.671038 1038.02509 
L 813.10133 1040.89342 
L 820.202479 1044.091236 
L 822.012576 1044.992939 
L 826.189723 1047.571703 
L 827.442867 1048.442931 
L 829.670679 1049.904558 
L 832.176967 1051.356632 
L 834.404779 1052.731011 
L 841.923644 1056.998442 
L 850.974129 1062.021384 
L 856.543658 1065.248886 
L 859.606899 1066.905755 
L 865.454905 1070.365166 
L 868.657384 1072.070471 
L 870.328243 1072.978587 
L 875.619296 1075.499513 
L 878.264822 1076.829668 
L 879.796443 1077.79661 
L 883.416637 1080.353253 
L 884.669781 1081.429634 
L 888.429213 1084.760661 
L 889.821595 1086.024544 
L 892.884837 1088.707541 
L 910.011139 1101.929554 
L 914.327524 1104.959547 
L 916.27686 1106.470573 
L 917.669242 1107.554797 
L 924.352677 1112.143644 
L 927.415918 1113.930004 
L 930.896874 1115.853451 
L 936.187927 1118.555327 
L 942.453647 1122.158426 
L 945.795365 1124.105684 
L 947.187747 1124.6415 
L 948.440891 1125.036976 
L 949.972512 1125.855358 
L 953.314229 1127.079193 
L 954.706612 1127.198664 
L 954.706612 1127.198664 
" clip-path="url(#p715f5d66fd)" style="fill: none; stroke: #2ca02c; stroke-width: 1.5; stroke-linecap: square"/>
   </g>
   <g id="line2d_67">
    <path d="M 608.838843 1020.239434 
L 609.117319 985.408542 
L 609.535034 965.873053 
L 609.813511 954.558493 
L 610.788178 943.066793 
L 611.623608 939.279274 
L 612.180561 938.650485 
L 612.319799 938.733213 
L 612.737513 940.052767 
L 613.155228 940.772026 
L 613.294466 940.733604 
L 613.572943 941.067605 
L 614.129896 941.979016 
L 616.496946 950.599631 
L 618.167805 956.062019 
L 618.863996 958.459593 
L 619.977902 961.813755 
L 620.256378 962.438287 
L 621.091807 964.678759 
L 623.458857 971.096599 
L 624.01581 972.170093 
L 626.661337 976.167779 
L 627.079051 976.796035 
L 627.914481 977.984731 
L 628.74991 978.949097 
L 629.167625 979.450334 
L 630.838484 981.113534 
L 631.673913 982.023195 
L 633.48401 983.503668 
L 633.901725 983.823845 
L 640.167445 989.77172 
L 648.104024 995.171994 
L 648.660977 995.467507 
L 658.546892 1001.603152 
L 659.800036 1002.385789 
L 672.053 1008.978676 
L 673.863097 1010.024491 
L 676.7871 1011.892107 
L 678.318721 1013.139986 
L 679.432627 1013.961945 
L 680.825009 1015.078 
L 683.470535 1017.260888 
L 686.951491 1020.629743 
L 691.685591 1025.658073 
L 697.533597 1031.87662 
L 704.077794 1038.26575 
L 705.748653 1039.98845 
L 709.09037 1043.372963 
L 711.875135 1046.264129 
L 713.685232 1048.057544 
L 716.469996 1050.72662 
L 721.343335 1055.466163 
L 724.685052 1058.909451 
L 735.406396 1069.344915 
L 737.494969 1071.343286 
L 741.254402 1074.950085 
L 743.621452 1077.176985 
L 745.29231 1078.676258 
L 748.634028 1081.727594 
L 752.114984 1084.95004 
L 753.507366 1086.232876 
L 760.747754 1092.528838 
L 762.836328 1094.262461 
L 766.59576 1097.4648 
L 769.102048 1099.590665 
L 783.304348 1110.794982 
L 790.544736 1115.984686 
L 800.012936 1122.051879 
L 808.645706 1126.885705 
L 811.569709 1128.373792 
L 815.746856 1130.240291 
L 827.721344 1135.348047 
L 834.544017 1137.73789 
L 837.328782 1138.518255 
L 844.429932 1140.074535 
L 850.417176 1140.900845 
L 858.214517 1141.400446 
L 861.277758 1141.451318 
L 864.619475 1141.465235 
L 866.568811 1141.43335 
L 871.581387 1141.212197 
L 876.733202 1140.55119 
L 879.796443 1140.012318 
L 884.252066 1139.15771 
L 901.378369 1135.310981 
L 917.80848 1131.266953 
L 924.074201 1129.972735 
L 929.922206 1128.982104 
L 935.770212 1128.221158 
L 941.757456 1127.668202 
L 947.883938 1127.326655 
L 954.149659 1127.199501 
L 954.706612 1127.198664 
L 954.706612 1127.198664 
" clip-path="url(#p715f5d66fd)" style="fill: none; stroke: #d62728; stroke-width: 1.5; stroke-linecap: square"/>
   </g>
   <g id="patch_40">
    <path d="M 591.545455 1153.44 
L 591.545455 890.829474 
" style="fill: none; stroke: #000000; stroke-width: 0.8; stroke-linejoin: miter; stroke-linecap: square"/>
   </g>
   <g id="patch_41">
    <path d="M 972 1153.44 
L 972 890.829474 
" style="fill: none; stroke: #000000; stroke-width: 0.8; stroke-linejoin: miter; stroke-linecap: square"/>
   </g>
   <g id="patch_42">
    <path d="M 591.545455 1153.44 
L 972 1153.44 
" style="fill: none; stroke: #000000; stroke-width: 0.8; stroke-linejoin: miter; stroke-linecap: square"/>
   </g>
   <g id="patch_43">
    <path d="M 591.545455 890.829474 
L 972 890.829474 
" style="fill: none; stroke: #000000; stroke-width: 0.8; stroke-linejoin: miter; stroke-linecap: square"/>
   </g>
   <g id="text_67">
    <!-- f -->
    <g transform="translate(552.733636 872.71352) scale(0.28 -0.28)">
     <defs>
      <path id="DejaVuSans-Bold-66" d="M 2841 4863 
L 2841 4128 
L 2222 4128 
Q 1984 4128 1890 4042 
Q 1797 3956 1797 3744 
L 1797 3500 
L 2753 3500 
L 2753 2700 
L 1797 2700 
L 1797 0 
L 678 0 
L 678 2700 
L 122 2700 
L 122 3500 
L 678 3500 
L 678 3744 
Q 678 4316 997 4589 
Q 1316 4863 1984 4863 
L 2841 4863 
z
" transform="scale(0.015625)"/>
     </defs>
     <use xlink:href="#DejaVuSans-Bold-66"/>
    </g>
   </g>
   <g id="text_68">
    <!-- LCMC -->
    <g transform="translate(747.973977 884.829474) scale(0.24 -0.24)">
     <defs>
      <path id="DejaVuSans-4c" d="M 628 4666 
L 1259 4666 
L 1259 531 
L 3531 531 
L 3531 0 
L 628 0 
L 628 4666 
z
" transform="scale(0.015625)"/>
     </defs>
     <use xlink:href="#DejaVuSans-4c"/>
     <use xlink:href="#DejaVuSans-43" x="55.712891"/>
     <use xlink:href="#DejaVuSans-4d" x="125.537109"/>
     <use xlink:href="#DejaVuSans-43" x="211.816406"/>
    </g>
   </g>
  </g>
 </g>
 <defs>
  <clipPath id="pad6cbac9d5">
   <rect x="135" y="155.52" width="380.454545" height="262.610526"/>
  </clipPath>
  <clipPath id="p3e5ed9bfe0">
   <rect x="591.545455" y="155.52" width="380.454545" height="262.610526"/>
  </clipPath>
  <clipPath id="p05a149a5cc">
   <rect x="135" y="523.174737" width="380.454545" height="262.610526"/>
  </clipPath>
  <clipPath id="p1e2a682018">
   <rect x="591.545455" y="523.174737" width="380.454545" height="262.610526"/>
  </clipPath>
  <clipPath id="p69ab86fd08">
   <rect x="135" y="890.829474" width="380.454545" height="262.610526"/>
  </clipPath>
  <clipPath id="p715f5d66fd">
   <rect x="591.545455" y="890.829474" width="380.454545" height="262.610526"/>
  </clipPath>
 </defs>
</svg>
