<?xml version="1.0" encoding="utf-8" standalone="no"?>
<!DOCTYPE svg PUBLIC "-//W3C//DTD SVG 1.1//EN"
  "http://www.w3.org/Graphics/SVG/1.1/DTD/svg11.dtd">
<svg xmlns:xlink="http://www.w3.org/1999/xlink" width="1080pt" height="1296pt" viewBox="0 0 1080 1296" xmlns="http://www.w3.org/2000/svg" version="1.1">
 <metadata>
  <rdf:RDF xmlns:dc="http://purl.org/dc/elements/1.1/" xmlns:cc="http://creativecommons.org/ns#" xmlns:rdf="http://www.w3.org/1999/02/22-rdf-syntax-ns#">
   <cc:Work>
    <dc:type rdf:resource="http://purl.org/dc/dcmitype/StillImage"/>
    <dc:date>2024-07-24T02:18:20.928159</dc:date>
    <dc:format>image/svg+xml</dc:format>
    <dc:creator>
     <cc:Agent>
      <dc:title>Matplotlib v3.8.4, https://matplotlib.org/</dc:title>
     </cc:Agent>
    </dc:creator>
   </cc:Work>
  </rdf:RDF>
 </metadata>
 <defs>
  <style type="text/css">*{stroke-linejoin: round; stroke-linecap: butt}</style>
 </defs>
 <g id="figure_1">
  <g id="patch_1">
   <path d="M 0 1296 
L 1080 1296 
L 1080 0 
L 0 0 
z
" style="fill: #ffffff"/>
  </g>
  <g id="axes_1">
   <g id="patch_2">
    <path d="M 135 418.130526 
L 515.454545 418.130526 
L 515.454545 155.52 
L 135 155.52 
z
" style="fill: #ffffff"/>
   </g>
   <g id="matplotlib.axis_1">
    <g id="xtick_1">
     <g id="line2d_1">
      <defs>
       <path id="mb9c1b0fe39" d="M 0 0 
L 0 3.5 
" style="stroke: #000000; stroke-width: 0.8"/>
      </defs>
      <g>
       <use xlink:href="#mb9c1b0fe39" x="137.882231" y="418.130526" style="stroke: #000000; stroke-width: 0.8"/>
      </g>
     </g>
     <g id="text_1">
      <!-- 0 -->
      <g transform="translate(131.519731 440.327401) scale(0.2 -0.2)">
       <defs>
        <path id="DejaVuSans-30" d="M 2034 4250 
Q 1547 4250 1301 3770 
Q 1056 3291 1056 2328 
Q 1056 1369 1301 889 
Q 1547 409 2034 409 
Q 2525 409 2770 889 
Q 3016 1369 3016 2328 
Q 3016 3291 2770 3770 
Q 2525 4250 2034 4250 
z
M 2034 4750 
Q 2819 4750 3233 4129 
Q 3647 3509 3647 2328 
Q 3647 1150 3233 529 
Q 2819 -91 2034 -91 
Q 1250 -91 836 529 
Q 422 1150 422 2328 
Q 422 3509 836 4129 
Q 1250 4750 2034 4750 
z
" transform="scale(0.015625)"/>
       </defs>
       <use xlink:href="#DejaVuSans-30"/>
      </g>
     </g>
    </g>
    <g id="xtick_2">
     <g id="line2d_2">
      <g>
       <use xlink:href="#mb9c1b0fe39" x="209.938017" y="418.130526" style="stroke: #000000; stroke-width: 0.8"/>
      </g>
     </g>
     <g id="text_2">
      <!-- 10 -->
      <g transform="translate(197.213017 440.327401) scale(0.2 -0.2)">
       <defs>
        <path id="DejaVuSans-31" d="M 794 531 
L 1825 531 
L 1825 4091 
L 703 3866 
L 703 4441 
L 1819 4666 
L 2450 4666 
L 2450 531 
L 3481 531 
L 3481 0 
L 794 0 
L 794 531 
z
" transform="scale(0.015625)"/>
       </defs>
       <use xlink:href="#DejaVuSans-31"/>
       <use xlink:href="#DejaVuSans-30" x="63.623047"/>
      </g>
     </g>
    </g>
    <g id="xtick_3">
     <g id="line2d_3">
      <g>
       <use xlink:href="#mb9c1b0fe39" x="281.993802" y="418.130526" style="stroke: #000000; stroke-width: 0.8"/>
      </g>
     </g>
     <g id="text_3">
      <!-- 20 -->
      <g transform="translate(269.268802 440.327401) scale(0.2 -0.2)">
       <defs>
        <path id="DejaVuSans-32" d="M 1228 531 
L 3431 531 
L 3431 0 
L 469 0 
L 469 531 
Q 828 903 1448 1529 
Q 2069 2156 2228 2338 
Q 2531 2678 2651 2914 
Q 2772 3150 2772 3378 
Q 2772 3750 2511 3984 
Q 2250 4219 1831 4219 
Q 1534 4219 1204 4116 
Q 875 4013 500 3803 
L 500 4441 
Q 881 4594 1212 4672 
Q 1544 4750 1819 4750 
Q 2544 4750 2975 4387 
Q 3406 4025 3406 3419 
Q 3406 3131 3298 2873 
Q 3191 2616 2906 2266 
Q 2828 2175 2409 1742 
Q 1991 1309 1228 531 
z
" transform="scale(0.015625)"/>
       </defs>
       <use xlink:href="#DejaVuSans-32"/>
       <use xlink:href="#DejaVuSans-30" x="63.623047"/>
      </g>
     </g>
    </g>
    <g id="xtick_4">
     <g id="line2d_4">
      <g>
       <use xlink:href="#mb9c1b0fe39" x="354.049587" y="418.130526" style="stroke: #000000; stroke-width: 0.8"/>
      </g>
     </g>
     <g id="text_4">
      <!-- 30 -->
      <g transform="translate(341.324587 440.327401) scale(0.2 -0.2)">
       <defs>
        <path id="DejaVuSans-33" d="M 2597 2516 
Q 3050 2419 3304 2112 
Q 3559 1806 3559 1356 
Q 3559 666 3084 287 
Q 2609 -91 1734 -91 
Q 1441 -91 1130 -33 
Q 819 25 488 141 
L 488 750 
Q 750 597 1062 519 
Q 1375 441 1716 441 
Q 2309 441 2620 675 
Q 2931 909 2931 1356 
Q 2931 1769 2642 2001 
Q 2353 2234 1838 2234 
L 1294 2234 
L 1294 2753 
L 1863 2753 
Q 2328 2753 2575 2939 
Q 2822 3125 2822 3475 
Q 2822 3834 2567 4026 
Q 2313 4219 1838 4219 
Q 1578 4219 1281 4162 
Q 984 4106 628 3988 
L 628 4550 
Q 988 4650 1302 4700 
Q 1616 4750 1894 4750 
Q 2613 4750 3031 4423 
Q 3450 4097 3450 3541 
Q 3450 3153 3228 2886 
Q 3006 2619 2597 2516 
z
" transform="scale(0.015625)"/>
       </defs>
       <use xlink:href="#DejaVuSans-33"/>
       <use xlink:href="#DejaVuSans-30" x="63.623047"/>
      </g>
     </g>
    </g>
    <g id="xtick_5">
     <g id="line2d_5">
      <g>
       <use xlink:href="#mb9c1b0fe39" x="426.105372" y="418.130526" style="stroke: #000000; stroke-width: 0.8"/>
      </g>
     </g>
     <g id="text_5">
      <!-- 40 -->
      <g transform="translate(413.380372 440.327401) scale(0.2 -0.2)">
       <defs>
        <path id="DejaVuSans-34" d="M 2419 4116 
L 825 1625 
L 2419 1625 
L 2419 4116 
z
M 2253 4666 
L 3047 4666 
L 3047 1625 
L 3713 1625 
L 3713 1100 
L 3047 1100 
L 3047 0 
L 2419 0 
L 2419 1100 
L 313 1100 
L 313 1709 
L 2253 4666 
z
" transform="scale(0.015625)"/>
       </defs>
       <use xlink:href="#DejaVuSans-34"/>
       <use xlink:href="#DejaVuSans-30" x="63.623047"/>
      </g>
     </g>
    </g>
    <g id="xtick_6">
     <g id="line2d_6">
      <g>
       <use xlink:href="#mb9c1b0fe39" x="498.161157" y="418.130526" style="stroke: #000000; stroke-width: 0.8"/>
      </g>
     </g>
     <g id="text_6">
      <!-- 50 -->
      <g transform="translate(485.436157 440.327401) scale(0.2 -0.2)">
       <defs>
        <path id="DejaVuSans-35" d="M 691 4666 
L 3169 4666 
L 3169 4134 
L 1269 4134 
L 1269 2991 
Q 1406 3038 1543 3061 
Q 1681 3084 1819 3084 
Q 2600 3084 3056 2656 
Q 3513 2228 3513 1497 
Q 3513 744 3044 326 
Q 2575 -91 1722 -91 
Q 1428 -91 1123 -41 
Q 819 9 494 109 
L 494 744 
Q 775 591 1075 516 
Q 1375 441 1709 441 
Q 2250 441 2565 725 
Q 2881 1009 2881 1497 
Q 2881 1984 2565 2268 
Q 2250 2553 1709 2553 
Q 1456 2553 1204 2497 
Q 953 2441 691 2322 
L 691 4666 
z
" transform="scale(0.015625)"/>
       </defs>
       <use xlink:href="#DejaVuSans-35"/>
       <use xlink:href="#DejaVuSans-30" x="63.623047"/>
      </g>
     </g>
    </g>
    <g id="text_7">
     <!-- k -->
     <g transform="translate(318.278523 466.723026) scale(0.24 -0.24)">
      <defs>
       <path id="DejaVuSans-6b" d="M 581 4863 
L 1159 4863 
L 1159 1991 
L 2875 3500 
L 3609 3500 
L 1753 1863 
L 3688 0 
L 2938 0 
L 1159 1709 
L 1159 0 
L 581 0 
L 581 4863 
z
" transform="scale(0.015625)"/>
      </defs>
      <use xlink:href="#DejaVuSans-6b"/>
     </g>
    </g>
   </g>
   <g id="matplotlib.axis_2">
    <g id="ytick_1">
     <g id="line2d_7">
      <defs>
       <path id="m532bfa2c38" d="M 0 0 
L -3.5 0 
" style="stroke: #000000; stroke-width: 0.8"/>
      </defs>
      <g>
       <use xlink:href="#m532bfa2c38" x="135" y="418.130526" style="stroke: #000000; stroke-width: 0.8"/>
      </g>
     </g>
     <g id="text_8">
      <!-- 0.0 -->
      <g transform="translate(96.19375 425.728964) scale(0.2 -0.2)">
       <defs>
        <path id="DejaVuSans-2e" d="M 684 794 
L 1344 794 
L 1344 0 
L 684 0 
L 684 794 
z
" transform="scale(0.015625)"/>
       </defs>
       <use xlink:href="#DejaVuSans-30"/>
       <use xlink:href="#DejaVuSans-2e" x="63.623047"/>
       <use xlink:href="#DejaVuSans-30" x="95.410156"/>
      </g>
     </g>
    </g>
    <g id="ytick_2">
     <g id="line2d_8">
      <g>
       <use xlink:href="#m532bfa2c38" x="135" y="352.477895" style="stroke: #000000; stroke-width: 0.8"/>
      </g>
     </g>
     <g id="text_9">
      <!-- 0.2 -->
      <g transform="translate(96.19375 360.076332) scale(0.2 -0.2)">
       <use xlink:href="#DejaVuSans-30"/>
       <use xlink:href="#DejaVuSans-2e" x="63.623047"/>
       <use xlink:href="#DejaVuSans-32" x="95.410156"/>
      </g>
     </g>
    </g>
    <g id="ytick_3">
     <g id="line2d_9">
      <g>
       <use xlink:href="#m532bfa2c38" x="135" y="286.825263" style="stroke: #000000; stroke-width: 0.8"/>
      </g>
     </g>
     <g id="text_10">
      <!-- 0.4 -->
      <g transform="translate(96.19375 294.423701) scale(0.2 -0.2)">
       <use xlink:href="#DejaVuSans-30"/>
       <use xlink:href="#DejaVuSans-2e" x="63.623047"/>
       <use xlink:href="#DejaVuSans-34" x="95.410156"/>
      </g>
     </g>
    </g>
    <g id="ytick_4">
     <g id="line2d_10">
      <g>
       <use xlink:href="#m532bfa2c38" x="135" y="221.172632" style="stroke: #000000; stroke-width: 0.8"/>
      </g>
     </g>
     <g id="text_11">
      <!-- 0.6 -->
      <g transform="translate(96.19375 228.771069) scale(0.2 -0.2)">
       <defs>
        <path id="DejaVuSans-36" d="M 2113 2584 
Q 1688 2584 1439 2293 
Q 1191 2003 1191 1497 
Q 1191 994 1439 701 
Q 1688 409 2113 409 
Q 2538 409 2786 701 
Q 3034 994 3034 1497 
Q 3034 2003 2786 2293 
Q 2538 2584 2113 2584 
z
M 3366 4563 
L 3366 3988 
Q 3128 4100 2886 4159 
Q 2644 4219 2406 4219 
Q 1781 4219 1451 3797 
Q 1122 3375 1075 2522 
Q 1259 2794 1537 2939 
Q 1816 3084 2150 3084 
Q 2853 3084 3261 2657 
Q 3669 2231 3669 1497 
Q 3669 778 3244 343 
Q 2819 -91 2113 -91 
Q 1303 -91 875 529 
Q 447 1150 447 2328 
Q 447 3434 972 4092 
Q 1497 4750 2381 4750 
Q 2619 4750 2861 4703 
Q 3103 4656 3366 4563 
z
" transform="scale(0.015625)"/>
       </defs>
       <use xlink:href="#DejaVuSans-30"/>
       <use xlink:href="#DejaVuSans-2e" x="63.623047"/>
       <use xlink:href="#DejaVuSans-36" x="95.410156"/>
      </g>
     </g>
    </g>
    <g id="ytick_5">
     <g id="line2d_11">
      <g>
       <use xlink:href="#m532bfa2c38" x="135" y="155.52" style="stroke: #000000; stroke-width: 0.8"/>
      </g>
     </g>
     <g id="text_12">
      <!-- 0.8 -->
      <g transform="translate(96.19375 163.118438) scale(0.2 -0.2)">
       <defs>
        <path id="DejaVuSans-38" d="M 2034 2216 
Q 1584 2216 1326 1975 
Q 1069 1734 1069 1313 
Q 1069 891 1326 650 
Q 1584 409 2034 409 
Q 2484 409 2743 651 
Q 3003 894 3003 1313 
Q 3003 1734 2745 1975 
Q 2488 2216 2034 2216 
z
M 1403 2484 
Q 997 2584 770 2862 
Q 544 3141 544 3541 
Q 544 4100 942 4425 
Q 1341 4750 2034 4750 
Q 2731 4750 3128 4425 
Q 3525 4100 3525 3541 
Q 3525 3141 3298 2862 
Q 3072 2584 2669 2484 
Q 3125 2378 3379 2068 
Q 3634 1759 3634 1313 
Q 3634 634 3220 271 
Q 2806 -91 2034 -91 
Q 1263 -91 848 271 
Q 434 634 434 1313 
Q 434 1759 690 2068 
Q 947 2378 1403 2484 
z
M 1172 3481 
Q 1172 3119 1398 2916 
Q 1625 2713 2034 2713 
Q 2441 2713 2670 2916 
Q 2900 3119 2900 3481 
Q 2900 3844 2670 4047 
Q 2441 4250 2034 4250 
Q 1625 4250 1398 4047 
Q 1172 3844 1172 3481 
z
" transform="scale(0.015625)"/>
       </defs>
       <use xlink:href="#DejaVuSans-30"/>
       <use xlink:href="#DejaVuSans-2e" x="63.623047"/>
       <use xlink:href="#DejaVuSans-38" x="95.410156"/>
      </g>
     </g>
    </g>
    <g id="text_13">
     <!-- $P_{NN}$ -->
     <g transform="translate(87.2025 306.985263) rotate(-90) scale(0.24 -0.24)">
      <defs>
       <path id="DejaVuSans-Oblique-50" d="M 1081 4666 
L 2541 4666 
Q 3178 4666 3512 4369 
Q 3847 4072 3847 3500 
Q 3847 2731 3353 2303 
Q 2859 1875 1966 1875 
L 1172 1875 
L 806 0 
L 172 0 
L 1081 4666 
z
M 1613 4147 
L 1275 2394 
L 2069 2394 
Q 2606 2394 2893 2669 
Q 3181 2944 3181 3456 
Q 3181 3784 2986 3965 
Q 2791 4147 2438 4147 
L 1613 4147 
z
" transform="scale(0.015625)"/>
       <path id="DejaVuSans-Oblique-4e" d="M 1081 4666 
L 1931 4666 
L 3219 666 
L 4000 4666 
L 4616 4666 
L 3706 0 
L 2853 0 
L 1569 4025 
L 788 0 
L 172 0 
L 1081 4666 
z
" transform="scale(0.015625)"/>
      </defs>
      <use xlink:href="#DejaVuSans-Oblique-50" transform="translate(0 0.09375)"/>
      <use xlink:href="#DejaVuSans-Oblique-4e" transform="translate(60.302734 -16.3125) scale(0.7)"/>
      <use xlink:href="#DejaVuSans-Oblique-4e" transform="translate(112.666016 -16.3125) scale(0.7)"/>
     </g>
    </g>
   </g>
   <g id="line2d_12">
    <path d="M 152.293388 405.704161 
L 173.910124 398.86966 
L 209.938017 393.34683 
L 281.993802 387.142277 
L 498.161157 382.194167 
" clip-path="url(#p42a222e0f7)" style="fill: none; stroke: #1f77b4; stroke-width: 1.5; stroke-linecap: square"/>
    <defs>
     <path id="m6620fca9e9" d="M 0 3 
C 0.795609 3 1.55874 2.683901 2.12132 2.12132 
C 2.683901 1.55874 3 0.795609 3 0 
C 3 -0.795609 2.683901 -1.55874 2.12132 -2.12132 
C 1.55874 -2.683901 0.795609 -3 0 -3 
C -0.795609 -3 -1.55874 -2.683901 -2.12132 -2.12132 
C -2.683901 -1.55874 -3 -0.795609 -3 0 
C -3 0.795609 -2.683901 1.55874 -2.12132 2.12132 
C -1.55874 2.683901 -0.795609 3 0 3 
z
" style="stroke: #1f77b4"/>
    </defs>
    <g clip-path="url(#p42a222e0f7)">
     <use xlink:href="#m6620fca9e9" x="152.293388" y="405.704161" style="fill: #1f77b4; stroke: #1f77b4"/>
     <use xlink:href="#m6620fca9e9" x="173.910124" y="398.86966" style="fill: #1f77b4; stroke: #1f77b4"/>
     <use xlink:href="#m6620fca9e9" x="209.938017" y="393.34683" style="fill: #1f77b4; stroke: #1f77b4"/>
     <use xlink:href="#m6620fca9e9" x="281.993802" y="387.142277" style="fill: #1f77b4; stroke: #1f77b4"/>
     <use xlink:href="#m6620fca9e9" x="498.161157" y="382.194167" style="fill: #1f77b4; stroke: #1f77b4"/>
    </g>
   </g>
   <g id="line2d_13">
    <path d="M 152.293388 252.186769 
L 173.910124 239.397968 
L 209.938017 261.006037 
L 281.993802 300.105941 
L 498.161157 347.200141 
" clip-path="url(#p42a222e0f7)" style="fill: none; stroke: #ff7f0e; stroke-width: 1.5; stroke-linecap: square"/>
    <defs>
     <path id="mb7d10364b1" d="M 0 3 
C 0.795609 3 1.55874 2.683901 2.12132 2.12132 
C 2.683901 1.55874 3 0.795609 3 0 
C 3 -0.795609 2.683901 -1.55874 2.12132 -2.12132 
C 1.55874 -2.683901 0.795609 -3 0 -3 
C -0.795609 -3 -1.55874 -2.683901 -2.12132 -2.12132 
C -2.683901 -1.55874 -3 -0.795609 -3 0 
C -3 0.795609 -2.683901 1.55874 -2.12132 2.12132 
C -1.55874 2.683901 -0.795609 3 0 3 
z
" style="stroke: #ff7f0e"/>
    </defs>
    <g clip-path="url(#p42a222e0f7)">
     <use xlink:href="#mb7d10364b1" x="152.293388" y="252.186769" style="fill: #ff7f0e; stroke: #ff7f0e"/>
     <use xlink:href="#mb7d10364b1" x="173.910124" y="239.397968" style="fill: #ff7f0e; stroke: #ff7f0e"/>
     <use xlink:href="#mb7d10364b1" x="209.938017" y="261.006037" style="fill: #ff7f0e; stroke: #ff7f0e"/>
     <use xlink:href="#mb7d10364b1" x="281.993802" y="300.105941" style="fill: #ff7f0e; stroke: #ff7f0e"/>
     <use xlink:href="#mb7d10364b1" x="498.161157" y="347.200141" style="fill: #ff7f0e; stroke: #ff7f0e"/>
    </g>
   </g>
   <g id="line2d_14">
    <path d="M 152.293388 323.897254 
L 173.910124 279.507515 
L 209.938017 281.198881 
L 281.993802 303.264309 
L 498.161157 348.218413 
" clip-path="url(#p42a222e0f7)" style="fill: none; stroke: #2ca02c; stroke-width: 1.5; stroke-linecap: square"/>
    <defs>
     <path id="m20854018cf" d="M 0 3 
C 0.795609 3 1.55874 2.683901 2.12132 2.12132 
C 2.683901 1.55874 3 0.795609 3 0 
C 3 -0.795609 2.683901 -1.55874 2.12132 -2.12132 
C 1.55874 -2.683901 0.795609 -3 0 -3 
C -0.795609 -3 -1.55874 -2.683901 -2.12132 -2.12132 
C -2.683901 -1.55874 -3 -0.795609 -3 0 
C -3 0.795609 -2.683901 1.55874 -2.12132 2.12132 
C -1.55874 2.683901 -0.795609 3 0 3 
z
" style="stroke: #2ca02c"/>
    </defs>
    <g clip-path="url(#p42a222e0f7)">
     <use xlink:href="#m20854018cf" x="152.293388" y="323.897254" style="fill: #2ca02c; stroke: #2ca02c"/>
     <use xlink:href="#m20854018cf" x="173.910124" y="279.507515" style="fill: #2ca02c; stroke: #2ca02c"/>
     <use xlink:href="#m20854018cf" x="209.938017" y="281.198881" style="fill: #2ca02c; stroke: #2ca02c"/>
     <use xlink:href="#m20854018cf" x="281.993802" y="303.264309" style="fill: #2ca02c; stroke: #2ca02c"/>
     <use xlink:href="#m20854018cf" x="498.161157" y="348.218413" style="fill: #2ca02c; stroke: #2ca02c"/>
    </g>
   </g>
   <g id="line2d_15">
    <path d="M 152.293388 321.912487 
L 173.910124 291.657739 
L 209.938017 286.773487 
L 281.993802 306.275977 
L 498.161157 347.493541 
" clip-path="url(#p42a222e0f7)" style="fill: none; stroke: #d62728; stroke-width: 1.5; stroke-linecap: square"/>
    <defs>
     <path id="m5302017db7" d="M 0 3 
C 0.795609 3 1.55874 2.683901 2.12132 2.12132 
C 2.683901 1.55874 3 0.795609 3 0 
C 3 -0.795609 2.683901 -1.55874 2.12132 -2.12132 
C 1.55874 -2.683901 0.795609 -3 0 -3 
C -0.795609 -3 -1.55874 -2.683901 -2.12132 -2.12132 
C -2.683901 -1.55874 -3 -0.795609 -3 0 
C -3 0.795609 -2.683901 1.55874 -2.12132 2.12132 
C -1.55874 2.683901 -0.795609 3 0 3 
z
" style="stroke: #d62728"/>
    </defs>
    <g clip-path="url(#p42a222e0f7)">
     <use xlink:href="#m5302017db7" x="152.293388" y="321.912487" style="fill: #d62728; stroke: #d62728"/>
     <use xlink:href="#m5302017db7" x="173.910124" y="291.657739" style="fill: #d62728; stroke: #d62728"/>
     <use xlink:href="#m5302017db7" x="209.938017" y="286.773487" style="fill: #d62728; stroke: #d62728"/>
     <use xlink:href="#m5302017db7" x="281.993802" y="306.275977" style="fill: #d62728; stroke: #d62728"/>
     <use xlink:href="#m5302017db7" x="498.161157" y="347.493541" style="fill: #d62728; stroke: #d62728"/>
    </g>
   </g>
   <g id="patch_3">
    <path d="M 135 418.130526 
L 135 155.52 
" style="fill: none; stroke: #000000; stroke-width: 0.8; stroke-linejoin: miter; stroke-linecap: square"/>
   </g>
   <g id="patch_4">
    <path d="M 515.454545 418.130526 
L 515.454545 155.52 
" style="fill: none; stroke: #000000; stroke-width: 0.8; stroke-linejoin: miter; stroke-linecap: square"/>
   </g>
   <g id="patch_5">
    <path d="M 135 418.130526 
L 515.454545 418.130526 
" style="fill: none; stroke: #000000; stroke-width: 0.8; stroke-linejoin: miter; stroke-linecap: square"/>
   </g>
   <g id="patch_6">
    <path d="M 135 155.52 
L 515.454545 155.52 
" style="fill: none; stroke: #000000; stroke-width: 0.8; stroke-linejoin: miter; stroke-linecap: square"/>
   </g>
   <g id="text_14">
    <!-- a -->
    <g transform="translate(89.472557 137.404046) scale(0.28 -0.28)">
     <defs>
      <path id="DejaVuSans-Bold-61" d="M 2106 1575 
Q 1756 1575 1579 1456 
Q 1403 1338 1403 1106 
Q 1403 894 1545 773 
Q 1688 653 1941 653 
Q 2256 653 2472 879 
Q 2688 1106 2688 1447 
L 2688 1575 
L 2106 1575 
z
M 3816 1997 
L 3816 0 
L 2688 0 
L 2688 519 
Q 2463 200 2181 54 
Q 1900 -91 1497 -91 
Q 953 -91 614 226 
Q 275 544 275 1050 
Q 275 1666 698 1953 
Q 1122 2241 2028 2241 
L 2688 2241 
L 2688 2328 
Q 2688 2594 2478 2717 
Q 2269 2841 1825 2841 
Q 1466 2841 1156 2769 
Q 847 2697 581 2553 
L 581 3406 
Q 941 3494 1303 3539 
Q 1666 3584 2028 3584 
Q 2975 3584 3395 3211 
Q 3816 2838 3816 1997 
z
" transform="scale(0.015625)"/>
     </defs>
     <use xlink:href="#DejaVuSans-Bold-61"/>
    </g>
   </g>
   <g id="text_15">
    <!-- $P_{NN}$ -->
    <g transform="translate(303.387273 149.52) scale(0.26 -0.26)">
     <use xlink:href="#DejaVuSans-Oblique-50" transform="translate(0 0.09375)"/>
     <use xlink:href="#DejaVuSans-Oblique-4e" transform="translate(60.302734 -16.3125) scale(0.7)"/>
     <use xlink:href="#DejaVuSans-Oblique-4e" transform="translate(112.666016 -16.3125) scale(0.7)"/>
    </g>
   </g>
  </g>
  <g id="axes_2">
   <g id="patch_7">
    <path d="M 591.545455 418.130526 
L 972 418.130526 
L 972 155.52 
L 591.545455 155.52 
z
" style="fill: #ffffff"/>
   </g>
   <g id="patch_8">
    <path d="M 608.838843 418.130526 
L 628.792753 418.130526 
L 628.792753 171.766227 
L 608.838843 171.766227 
z
" clip-path="url(#p0463256080)" style="fill: #1f77b4"/>
   </g>
   <g id="patch_9">
    <path d="M 741.864908 418.130526 
L 761.818818 418.130526 
L 761.818818 380.357198 
L 741.864908 380.357198 
z
" clip-path="url(#p0463256080)" style="fill: #1f77b4"/>
   </g>
   <g id="patch_10">
    <path d="M 874.890973 418.130526 
L 894.844882 418.130526 
L 894.844882 168.394071 
L 874.890973 168.394071 
z
" clip-path="url(#p0463256080)" style="fill: #1f77b4"/>
   </g>
   <g id="patch_11">
    <path d="M 628.792753 418.130526 
L 648.746662 418.130526 
L 648.746662 171.513433 
L 628.792753 171.513433 
z
" clip-path="url(#p0463256080)" style="fill: #ff7f0e"/>
   </g>
   <g id="patch_12">
    <path d="M 761.818818 418.130526 
L 781.772727 418.130526 
L 781.772727 181.733852 
L 761.818818 181.733852 
z
" clip-path="url(#p0463256080)" style="fill: #ff7f0e"/>
   </g>
   <g id="patch_13">
    <path d="M 894.844882 418.130526 
L 914.798792 418.130526 
L 914.798792 171.466458 
L 894.844882 171.466458 
z
" clip-path="url(#p0463256080)" style="fill: #ff7f0e"/>
   </g>
   <g id="patch_14">
    <path d="M 648.746662 418.130526 
L 668.700572 418.130526 
L 668.700572 183.638879 
L 648.746662 183.638879 
z
" clip-path="url(#p0463256080)" style="fill: #2ca02c"/>
   </g>
   <g id="patch_15">
    <path d="M 781.772727 418.130526 
L 801.726637 418.130526 
L 801.726637 252.857316 
L 781.772727 252.857316 
z
" clip-path="url(#p0463256080)" style="fill: #2ca02c"/>
   </g>
   <g id="patch_16">
    <path d="M 914.798792 418.130526 
L 934.752702 418.130526 
L 934.752702 183.395769 
L 914.798792 183.395769 
z
" clip-path="url(#p0463256080)" style="fill: #2ca02c"/>
   </g>
   <g id="patch_17">
    <path d="M 668.700572 418.130526 
L 688.654482 418.130526 
L 688.654482 168.387697 
L 668.700572 168.387697 
z
" clip-path="url(#p0463256080)" style="fill: #d62728"/>
   </g>
   <g id="patch_18">
    <path d="M 801.726637 418.130526 
L 821.680547 418.130526 
L 821.680547 256.786153 
L 801.726637 256.786153 
z
" clip-path="url(#p0463256080)" style="fill: #d62728"/>
   </g>
   <g id="patch_19">
    <path d="M 934.752702 418.130526 
L 954.706612 418.130526 
L 954.706612 168.025263 
L 934.752702 168.025263 
z
" clip-path="url(#p0463256080)" style="fill: #d62728"/>
   </g>
   <g id="matplotlib.axis_3">
    <g id="xtick_7">
     <g id="line2d_16">
      <g>
       <use xlink:href="#mb9c1b0fe39" x="648.746662" y="418.130526" style="stroke: #000000; stroke-width: 0.8"/>
      </g>
     </g>
     <g id="text_16">
      <!-- AUC -->
      <g transform="translate(625.490256 441.847089) scale(0.22 -0.22)">
       <defs>
        <path id="DejaVuSans-41" d="M 2188 4044 
L 1331 1722 
L 3047 1722 
L 2188 4044 
z
M 1831 4666 
L 2547 4666 
L 4325 0 
L 3669 0 
L 3244 1197 
L 1141 1197 
L 716 0 
L 50 0 
L 1831 4666 
z
" transform="scale(0.015625)"/>
        <path id="DejaVuSans-55" d="M 556 4666 
L 1191 4666 
L 1191 1831 
Q 1191 1081 1462 751 
Q 1734 422 2344 422 
Q 2950 422 3222 751 
Q 3494 1081 3494 1831 
L 3494 4666 
L 4128 4666 
L 4128 1753 
Q 4128 841 3676 375 
Q 3225 -91 2344 -91 
Q 1459 -91 1007 375 
Q 556 841 556 1753 
L 556 4666 
z
" transform="scale(0.015625)"/>
        <path id="DejaVuSans-43" d="M 4122 4306 
L 4122 3641 
Q 3803 3938 3442 4084 
Q 3081 4231 2675 4231 
Q 1875 4231 1450 3742 
Q 1025 3253 1025 2328 
Q 1025 1406 1450 917 
Q 1875 428 2675 428 
Q 3081 428 3442 575 
Q 3803 722 4122 1019 
L 4122 359 
Q 3791 134 3420 21 
Q 3050 -91 2638 -91 
Q 1578 -91 968 557 
Q 359 1206 359 2328 
Q 359 3453 968 4101 
Q 1578 4750 2638 4750 
Q 3056 4750 3426 4639 
Q 3797 4528 4122 4306 
z
" transform="scale(0.015625)"/>
       </defs>
       <use xlink:href="#DejaVuSans-41"/>
       <use xlink:href="#DejaVuSans-55" x="68.408203"/>
       <use xlink:href="#DejaVuSans-43" x="141.601562"/>
      </g>
     </g>
    </g>
    <g id="xtick_8">
     <g id="line2d_17">
      <g>
       <use xlink:href="#mb9c1b0fe39" x="781.772727" y="418.130526" style="stroke: #000000; stroke-width: 0.8"/>
      </g>
     </g>
     <g id="text_17">
      <!-- $Q_{local}$ -->
      <g transform="translate(754.822727 441.847089) scale(0.22 -0.22)">
       <defs>
        <path id="DejaVuSans-Oblique-51" d="M 2309 -84 
Q 2275 -88 2237 -89 
Q 2200 -91 2125 -91 
Q 1250 -91 756 411 
Q 263 913 263 1797 
Q 263 2319 452 2844 
Q 641 3369 978 3788 
Q 1369 4269 1858 4509 
Q 2347 4750 2938 4750 
Q 3794 4750 4287 4245 
Q 4781 3741 4781 2869 
Q 4781 1928 4265 1147 
Q 3750 366 2919 44 
L 3553 -825 
L 2847 -825 
L 2309 -84 
z
M 2919 4238 
Q 2400 4238 2003 3986 
Q 1606 3734 1313 3219 
Q 1125 2891 1026 2522 
Q 928 2153 928 1778 
Q 928 1128 1239 775 
Q 1550 422 2119 422 
Q 2631 422 3032 676 
Q 3434 931 3719 1434 
Q 3909 1772 4009 2142 
Q 4109 2513 4109 2881 
Q 4109 3528 3796 3883 
Q 3484 4238 2919 4238 
z
" transform="scale(0.015625)"/>
        <path id="DejaVuSans-Oblique-6c" d="M 1172 4863 
L 1747 4863 
L 800 0 
L 225 0 
L 1172 4863 
z
" transform="scale(0.015625)"/>
        <path id="DejaVuSans-Oblique-6f" d="M 1625 -91 
Q 1009 -91 651 289 
Q 294 669 294 1325 
Q 294 1706 417 2101 
Q 541 2497 738 2766 
Q 1047 3184 1428 3384 
Q 1809 3584 2291 3584 
Q 2888 3584 3255 3212 
Q 3622 2841 3622 2241 
Q 3622 1825 3500 1412 
Q 3378 1000 3181 728 
Q 2875 309 2494 109 
Q 2113 -91 1625 -91 
z
M 891 1344 
Q 891 869 1089 633 
Q 1288 397 1691 397 
Q 2269 397 2648 901 
Q 3028 1406 3028 2181 
Q 3028 2634 2825 2865 
Q 2622 3097 2228 3097 
Q 1903 3097 1650 2945 
Q 1397 2794 1197 2484 
Q 1050 2253 970 1956 
Q 891 1659 891 1344 
z
" transform="scale(0.015625)"/>
        <path id="DejaVuSans-Oblique-63" d="M 3431 3366 
L 3316 2797 
Q 3109 2947 2876 3022 
Q 2644 3097 2394 3097 
Q 2119 3097 1870 3000 
Q 1622 2903 1453 2725 
Q 1184 2453 1037 2087 
Q 891 1722 891 1331 
Q 891 859 1127 628 
Q 1363 397 1844 397 
Q 2081 397 2348 469 
Q 2616 541 2906 684 
L 2797 116 
Q 2547 13 2283 -39 
Q 2019 -91 1741 -91 
Q 1044 -91 669 257 
Q 294 606 294 1253 
Q 294 1797 489 2255 
Q 684 2713 1069 3078 
Q 1331 3328 1684 3456 
Q 2038 3584 2456 3584 
Q 2700 3584 2940 3529 
Q 3181 3475 3431 3366 
z
" transform="scale(0.015625)"/>
        <path id="DejaVuSans-Oblique-61" d="M 3438 1997 
L 3047 0 
L 2472 0 
L 2578 531 
Q 2325 219 2001 64 
Q 1678 -91 1281 -91 
Q 834 -91 548 182 
Q 263 456 263 884 
Q 263 1497 752 1853 
Q 1241 2209 2100 2209 
L 2900 2209 
L 2931 2363 
Q 2938 2388 2941 2417 
Q 2944 2447 2944 2509 
Q 2944 2788 2717 2942 
Q 2491 3097 2081 3097 
Q 1800 3097 1504 3025 
Q 1209 2953 897 2809 
L 997 3341 
Q 1322 3463 1633 3523 
Q 1944 3584 2234 3584 
Q 2853 3584 3176 3315 
Q 3500 3047 3500 2534 
Q 3500 2431 3484 2292 
Q 3469 2153 3438 1997 
z
M 2816 1759 
L 2241 1759 
Q 1534 1759 1195 1570 
Q 856 1381 856 984 
Q 856 709 1029 553 
Q 1203 397 1509 397 
Q 1978 397 2328 733 
Q 2678 1069 2791 1631 
L 2816 1759 
z
" transform="scale(0.015625)"/>
       </defs>
       <use xlink:href="#DejaVuSans-Oblique-51" transform="translate(0 0.78125)"/>
       <use xlink:href="#DejaVuSans-Oblique-6c" transform="translate(78.710938 -15.625) scale(0.7)"/>
       <use xlink:href="#DejaVuSans-Oblique-6f" transform="translate(98.15918 -15.625) scale(0.7)"/>
       <use xlink:href="#DejaVuSans-Oblique-63" transform="translate(140.986328 -15.625) scale(0.7)"/>
       <use xlink:href="#DejaVuSans-Oblique-61" transform="translate(179.472656 -15.625) scale(0.7)"/>
       <use xlink:href="#DejaVuSans-Oblique-6c" transform="translate(222.368164 -15.625) scale(0.7)"/>
      </g>
     </g>
    </g>
    <g id="xtick_9">
     <g id="line2d_18">
      <g>
       <use xlink:href="#mb9c1b0fe39" x="914.798792" y="418.130526" style="stroke: #000000; stroke-width: 0.8"/>
      </g>
     </g>
     <g id="text_18">
      <!-- $Q_{global}$ -->
      <g transform="translate(882.348792 441.630526) scale(0.22 -0.22)">
       <defs>
        <path id="DejaVuSans-Oblique-67" d="M 3816 3500 
L 3219 434 
Q 3047 -456 2561 -893 
Q 2075 -1331 1253 -1331 
Q 950 -1331 690 -1286 
Q 431 -1241 206 -1147 
L 313 -588 
Q 525 -725 762 -790 
Q 1000 -856 1269 -856 
Q 1816 -856 2167 -557 
Q 2519 -259 2631 300 
L 2681 563 
Q 2441 288 2122 144 
Q 1803 0 1434 0 
Q 903 0 598 351 
Q 294 703 294 1319 
Q 294 1803 478 2267 
Q 663 2731 997 3091 
Q 1219 3328 1514 3456 
Q 1809 3584 2131 3584 
Q 2484 3584 2746 3420 
Q 3009 3256 3138 2956 
L 3238 3500 
L 3816 3500 
z
M 2950 2216 
Q 2950 2641 2750 2872 
Q 2550 3103 2181 3103 
Q 1953 3103 1747 3012 
Q 1541 2922 1394 2759 
Q 1156 2491 1023 2127 
Q 891 1763 891 1375 
Q 891 944 1092 712 
Q 1294 481 1672 481 
Q 2219 481 2584 976 
Q 2950 1472 2950 2216 
z
" transform="scale(0.015625)"/>
        <path id="DejaVuSans-Oblique-62" d="M 3169 2138 
Q 3169 2591 2961 2847 
Q 2753 3103 2388 3103 
Q 2122 3103 1889 2973 
Q 1656 2844 1484 2597 
Q 1303 2338 1198 1995 
Q 1094 1653 1094 1313 
Q 1094 881 1298 636 
Q 1503 391 1863 391 
Q 2134 391 2365 517 
Q 2597 644 2772 891 
Q 2950 1147 3059 1487 
Q 3169 1828 3169 2138 
z
M 1381 2969 
Q 1594 3256 1914 3420 
Q 2234 3584 2584 3584 
Q 3122 3584 3439 3221 
Q 3756 2859 3756 2241 
Q 3756 1734 3570 1259 
Q 3384 784 3041 416 
Q 2816 172 2522 40 
Q 2228 -91 1906 -91 
Q 1566 -91 1316 65 
Q 1066 222 909 531 
L 806 0 
L 231 0 
L 1178 4863 
L 1753 4863 
L 1381 2969 
z
" transform="scale(0.015625)"/>
       </defs>
       <use xlink:href="#DejaVuSans-Oblique-51" transform="translate(0 0.78125)"/>
       <use xlink:href="#DejaVuSans-Oblique-67" transform="translate(78.710938 -15.625) scale(0.7)"/>
       <use xlink:href="#DejaVuSans-Oblique-6c" transform="translate(123.144531 -15.625) scale(0.7)"/>
       <use xlink:href="#DejaVuSans-Oblique-6f" transform="translate(142.592773 -15.625) scale(0.7)"/>
       <use xlink:href="#DejaVuSans-Oblique-62" transform="translate(185.419922 -15.625) scale(0.7)"/>
       <use xlink:href="#DejaVuSans-Oblique-61" transform="translate(229.853516 -15.625) scale(0.7)"/>
       <use xlink:href="#DejaVuSans-Oblique-6c" transform="translate(272.749023 -15.625) scale(0.7)"/>
      </g>
     </g>
    </g>
   </g>
   <g id="matplotlib.axis_4">
    <g id="ytick_6">
     <g id="line2d_19">
      <g>
       <use xlink:href="#m532bfa2c38" x="591.545455" y="418.130526" style="stroke: #000000; stroke-width: 0.8"/>
      </g>
     </g>
     <g id="text_19">
      <!-- 0.0 -->
      <g transform="translate(549.55858 426.488808) scale(0.22 -0.22)">
       <use xlink:href="#DejaVuSans-30"/>
       <use xlink:href="#DejaVuSans-2e" x="63.623047"/>
       <use xlink:href="#DejaVuSans-30" x="95.410156"/>
      </g>
     </g>
    </g>
    <g id="ytick_7">
     <g id="line2d_20">
      <g>
       <use xlink:href="#m532bfa2c38" x="591.545455" y="326.49812" style="stroke: #000000; stroke-width: 0.8"/>
      </g>
     </g>
     <g id="text_20">
      <!-- 0.2 -->
      <g transform="translate(549.55858 334.856401) scale(0.22 -0.22)">
       <use xlink:href="#DejaVuSans-30"/>
       <use xlink:href="#DejaVuSans-2e" x="63.623047"/>
       <use xlink:href="#DejaVuSans-32" x="95.410156"/>
      </g>
     </g>
    </g>
    <g id="ytick_8">
     <g id="line2d_21">
      <g>
       <use xlink:href="#m532bfa2c38" x="591.545455" y="234.865713" style="stroke: #000000; stroke-width: 0.8"/>
      </g>
     </g>
     <g id="text_21">
      <!-- 0.4 -->
      <g transform="translate(549.55858 243.223994) scale(0.22 -0.22)">
       <use xlink:href="#DejaVuSans-30"/>
       <use xlink:href="#DejaVuSans-2e" x="63.623047"/>
       <use xlink:href="#DejaVuSans-34" x="95.410156"/>
      </g>
     </g>
    </g>
    <g id="text_22">
     <!-- Metric Value -->
     <g transform="translate(540.983267 354.727919) rotate(-90) scale(0.22 -0.22)">
      <defs>
       <path id="DejaVuSans-4d" d="M 628 4666 
L 1569 4666 
L 2759 1491 
L 3956 4666 
L 4897 4666 
L 4897 0 
L 4281 0 
L 4281 4097 
L 3078 897 
L 2444 897 
L 1241 4097 
L 1241 0 
L 628 0 
L 628 4666 
z
" transform="scale(0.015625)"/>
       <path id="DejaVuSans-65" d="M 3597 1894 
L 3597 1613 
L 953 1613 
Q 991 1019 1311 708 
Q 1631 397 2203 397 
Q 2534 397 2845 478 
Q 3156 559 3463 722 
L 3463 178 
Q 3153 47 2828 -22 
Q 2503 -91 2169 -91 
Q 1331 -91 842 396 
Q 353 884 353 1716 
Q 353 2575 817 3079 
Q 1281 3584 2069 3584 
Q 2775 3584 3186 3129 
Q 3597 2675 3597 1894 
z
M 3022 2063 
Q 3016 2534 2758 2815 
Q 2500 3097 2075 3097 
Q 1594 3097 1305 2825 
Q 1016 2553 972 2059 
L 3022 2063 
z
" transform="scale(0.015625)"/>
       <path id="DejaVuSans-74" d="M 1172 4494 
L 1172 3500 
L 2356 3500 
L 2356 3053 
L 1172 3053 
L 1172 1153 
Q 1172 725 1289 603 
Q 1406 481 1766 481 
L 2356 481 
L 2356 0 
L 1766 0 
Q 1100 0 847 248 
Q 594 497 594 1153 
L 594 3053 
L 172 3053 
L 172 3500 
L 594 3500 
L 594 4494 
L 1172 4494 
z
" transform="scale(0.015625)"/>
       <path id="DejaVuSans-72" d="M 2631 2963 
Q 2534 3019 2420 3045 
Q 2306 3072 2169 3072 
Q 1681 3072 1420 2755 
Q 1159 2438 1159 1844 
L 1159 0 
L 581 0 
L 581 3500 
L 1159 3500 
L 1159 2956 
Q 1341 3275 1631 3429 
Q 1922 3584 2338 3584 
Q 2397 3584 2469 3576 
Q 2541 3569 2628 3553 
L 2631 2963 
z
" transform="scale(0.015625)"/>
       <path id="DejaVuSans-69" d="M 603 3500 
L 1178 3500 
L 1178 0 
L 603 0 
L 603 3500 
z
M 603 4863 
L 1178 4863 
L 1178 4134 
L 603 4134 
L 603 4863 
z
" transform="scale(0.015625)"/>
       <path id="DejaVuSans-63" d="M 3122 3366 
L 3122 2828 
Q 2878 2963 2633 3030 
Q 2388 3097 2138 3097 
Q 1578 3097 1268 2742 
Q 959 2388 959 1747 
Q 959 1106 1268 751 
Q 1578 397 2138 397 
Q 2388 397 2633 464 
Q 2878 531 3122 666 
L 3122 134 
Q 2881 22 2623 -34 
Q 2366 -91 2075 -91 
Q 1284 -91 818 406 
Q 353 903 353 1747 
Q 353 2603 823 3093 
Q 1294 3584 2113 3584 
Q 2378 3584 2631 3529 
Q 2884 3475 3122 3366 
z
" transform="scale(0.015625)"/>
       <path id="DejaVuSans-20" transform="scale(0.015625)"/>
       <path id="DejaVuSans-56" d="M 1831 0 
L 50 4666 
L 709 4666 
L 2188 738 
L 3669 4666 
L 4325 4666 
L 2547 0 
L 1831 0 
z
" transform="scale(0.015625)"/>
       <path id="DejaVuSans-61" d="M 2194 1759 
Q 1497 1759 1228 1600 
Q 959 1441 959 1056 
Q 959 750 1161 570 
Q 1363 391 1709 391 
Q 2188 391 2477 730 
Q 2766 1069 2766 1631 
L 2766 1759 
L 2194 1759 
z
M 3341 1997 
L 3341 0 
L 2766 0 
L 2766 531 
Q 2569 213 2275 61 
Q 1981 -91 1556 -91 
Q 1019 -91 701 211 
Q 384 513 384 1019 
Q 384 1609 779 1909 
Q 1175 2209 1959 2209 
L 2766 2209 
L 2766 2266 
Q 2766 2663 2505 2880 
Q 2244 3097 1772 3097 
Q 1472 3097 1187 3025 
Q 903 2953 641 2809 
L 641 3341 
Q 956 3463 1253 3523 
Q 1550 3584 1831 3584 
Q 2591 3584 2966 3190 
Q 3341 2797 3341 1997 
z
" transform="scale(0.015625)"/>
       <path id="DejaVuSans-6c" d="M 603 4863 
L 1178 4863 
L 1178 0 
L 603 0 
L 603 4863 
z
" transform="scale(0.015625)"/>
       <path id="DejaVuSans-75" d="M 544 1381 
L 544 3500 
L 1119 3500 
L 1119 1403 
Q 1119 906 1312 657 
Q 1506 409 1894 409 
Q 2359 409 2629 706 
Q 2900 1003 2900 1516 
L 2900 3500 
L 3475 3500 
L 3475 0 
L 2900 0 
L 2900 538 
Q 2691 219 2414 64 
Q 2138 -91 1772 -91 
Q 1169 -91 856 284 
Q 544 659 544 1381 
z
M 1991 3584 
L 1991 3584 
z
" transform="scale(0.015625)"/>
      </defs>
      <use xlink:href="#DejaVuSans-4d"/>
      <use xlink:href="#DejaVuSans-65" x="86.279297"/>
      <use xlink:href="#DejaVuSans-74" x="147.802734"/>
      <use xlink:href="#DejaVuSans-72" x="187.011719"/>
      <use xlink:href="#DejaVuSans-69" x="228.125"/>
      <use xlink:href="#DejaVuSans-63" x="255.908203"/>
      <use xlink:href="#DejaVuSans-20" x="310.888672"/>
      <use xlink:href="#DejaVuSans-56" x="342.675781"/>
      <use xlink:href="#DejaVuSans-61" x="403.333984"/>
      <use xlink:href="#DejaVuSans-6c" x="464.613281"/>
      <use xlink:href="#DejaVuSans-75" x="492.396484"/>
      <use xlink:href="#DejaVuSans-65" x="555.775391"/>
     </g>
    </g>
   </g>
   <g id="patch_20">
    <path d="M 591.545455 418.130526 
L 591.545455 155.52 
" style="fill: none; stroke: #000000; stroke-width: 0.8; stroke-linejoin: miter; stroke-linecap: square"/>
   </g>
   <g id="patch_21">
    <path d="M 972 418.130526 
L 972 155.52 
" style="fill: none; stroke: #000000; stroke-width: 0.8; stroke-linejoin: miter; stroke-linecap: square"/>
   </g>
   <g id="patch_22">
    <path d="M 591.545455 418.130526 
L 972 418.130526 
" style="fill: none; stroke: #000000; stroke-width: 0.8; stroke-linejoin: miter; stroke-linecap: square"/>
   </g>
   <g id="patch_23">
    <path d="M 591.545455 155.52 
L 972 155.52 
" style="fill: none; stroke: #000000; stroke-width: 0.8; stroke-linejoin: miter; stroke-linecap: square"/>
   </g>
   <g id="text_23">
    <!-- b -->
    <g transform="translate(544.871761 137.404046) scale(0.28 -0.28)">
     <defs>
      <path id="DejaVuSans-Bold-62" d="M 2400 722 
Q 2759 722 2948 984 
Q 3138 1247 3138 1747 
Q 3138 2247 2948 2509 
Q 2759 2772 2400 2772 
Q 2041 2772 1848 2508 
Q 1656 2244 1656 1747 
Q 1656 1250 1848 986 
Q 2041 722 2400 722 
z
M 1656 2988 
Q 1888 3294 2169 3439 
Q 2450 3584 2816 3584 
Q 3463 3584 3878 3070 
Q 4294 2556 4294 1747 
Q 4294 938 3878 423 
Q 3463 -91 2816 -91 
Q 2450 -91 2169 54 
Q 1888 200 1656 506 
L 1656 0 
L 538 0 
L 538 4863 
L 1656 4863 
L 1656 2988 
z
" transform="scale(0.015625)"/>
     </defs>
     <use xlink:href="#DejaVuSans-Bold-62"/>
    </g>
   </g>
   <g id="text_24">
    <!-- Metrics -->
    <g transform="translate(734.584759 149.52) scale(0.26 -0.26)">
     <defs>
      <path id="DejaVuSans-73" d="M 2834 3397 
L 2834 2853 
Q 2591 2978 2328 3040 
Q 2066 3103 1784 3103 
Q 1356 3103 1142 2972 
Q 928 2841 928 2578 
Q 928 2378 1081 2264 
Q 1234 2150 1697 2047 
L 1894 2003 
Q 2506 1872 2764 1633 
Q 3022 1394 3022 966 
Q 3022 478 2636 193 
Q 2250 -91 1575 -91 
Q 1294 -91 989 -36 
Q 684 19 347 128 
L 347 722 
Q 666 556 975 473 
Q 1284 391 1588 391 
Q 1994 391 2212 530 
Q 2431 669 2431 922 
Q 2431 1156 2273 1281 
Q 2116 1406 1581 1522 
L 1381 1569 
Q 847 1681 609 1914 
Q 372 2147 372 2553 
Q 372 3047 722 3315 
Q 1072 3584 1716 3584 
Q 2034 3584 2315 3537 
Q 2597 3491 2834 3397 
z
" transform="scale(0.015625)"/>
     </defs>
     <use xlink:href="#DejaVuSans-4d"/>
     <use xlink:href="#DejaVuSans-65" x="86.279297"/>
     <use xlink:href="#DejaVuSans-74" x="147.802734"/>
     <use xlink:href="#DejaVuSans-72" x="187.011719"/>
     <use xlink:href="#DejaVuSans-69" x="228.125"/>
     <use xlink:href="#DejaVuSans-63" x="255.908203"/>
     <use xlink:href="#DejaVuSans-73" x="310.888672"/>
    </g>
   </g>
  </g>
  <g id="axes_3">
   <g id="patch_24">
    <path d="M 135 785.785263 
L 515.454545 785.785263 
L 515.454545 523.174737 
L 135 523.174737 
z
" style="fill: #ffffff"/>
   </g>
   <g id="matplotlib.axis_5">
    <g id="xtick_10">
     <g id="line2d_22">
      <g>
       <use xlink:href="#mb9c1b0fe39" x="137.882231" y="785.785263" style="stroke: #000000; stroke-width: 0.8"/>
      </g>
     </g>
     <g id="text_25">
      <!-- 0 -->
      <g transform="translate(130.883481 809.501826) scale(0.22 -0.22)">
       <use xlink:href="#DejaVuSans-30"/>
      </g>
     </g>
    </g>
    <g id="xtick_11">
     <g id="line2d_23">
      <g>
       <use xlink:href="#mb9c1b0fe39" x="281.993802" y="785.785263" style="stroke: #000000; stroke-width: 0.8"/>
      </g>
     </g>
     <g id="text_26">
      <!-- 20 -->
      <g transform="translate(267.996302 809.501826) scale(0.22 -0.22)">
       <use xlink:href="#DejaVuSans-32"/>
       <use xlink:href="#DejaVuSans-30" x="63.623047"/>
      </g>
     </g>
    </g>
    <g id="xtick_12">
     <g id="line2d_24">
      <g>
       <use xlink:href="#mb9c1b0fe39" x="426.105372" y="785.785263" style="stroke: #000000; stroke-width: 0.8"/>
      </g>
     </g>
     <g id="text_27">
      <!-- 40 -->
      <g transform="translate(412.107872 809.501826) scale(0.22 -0.22)">
       <use xlink:href="#DejaVuSans-34"/>
       <use xlink:href="#DejaVuSans-30" x="63.623047"/>
      </g>
     </g>
    </g>
    <g id="text_28">
     <!-- k -->
     <g transform="translate(318.278523 836.313388) scale(0.24 -0.24)">
      <use xlink:href="#DejaVuSans-6b"/>
     </g>
    </g>
   </g>
   <g id="matplotlib.axis_6">
    <g id="ytick_9">
     <g id="line2d_25">
      <g>
       <use xlink:href="#m532bfa2c38" x="135" y="750.274436" style="stroke: #000000; stroke-width: 0.8"/>
      </g>
     </g>
     <g id="text_29">
      <!-- 0.6 -->
      <g transform="translate(93.013125 758.632718) scale(0.22 -0.22)">
       <use xlink:href="#DejaVuSans-30"/>
       <use xlink:href="#DejaVuSans-2e" x="63.623047"/>
       <use xlink:href="#DejaVuSans-36" x="95.410156"/>
      </g>
     </g>
    </g>
    <g id="ytick_10">
     <g id="line2d_26">
      <g>
       <use xlink:href="#m532bfa2c38" x="135" y="683.452143" style="stroke: #000000; stroke-width: 0.8"/>
      </g>
     </g>
     <g id="text_30">
      <!-- 0.7 -->
      <g transform="translate(93.013125 691.810424) scale(0.22 -0.22)">
       <defs>
        <path id="DejaVuSans-37" d="M 525 4666 
L 3525 4666 
L 3525 4397 
L 1831 0 
L 1172 0 
L 2766 4134 
L 525 4134 
L 525 4666 
z
" transform="scale(0.015625)"/>
       </defs>
       <use xlink:href="#DejaVuSans-30"/>
       <use xlink:href="#DejaVuSans-2e" x="63.623047"/>
       <use xlink:href="#DejaVuSans-37" x="95.410156"/>
      </g>
     </g>
    </g>
    <g id="ytick_11">
     <g id="line2d_27">
      <g>
       <use xlink:href="#m532bfa2c38" x="135" y="616.629849" style="stroke: #000000; stroke-width: 0.8"/>
      </g>
     </g>
     <g id="text_31">
      <!-- 0.8 -->
      <g transform="translate(93.013125 624.98813) scale(0.22 -0.22)">
       <use xlink:href="#DejaVuSans-30"/>
       <use xlink:href="#DejaVuSans-2e" x="63.623047"/>
       <use xlink:href="#DejaVuSans-38" x="95.410156"/>
      </g>
     </g>
    </g>
    <g id="ytick_12">
     <g id="line2d_28">
      <g>
       <use xlink:href="#m532bfa2c38" x="135" y="549.807555" style="stroke: #000000; stroke-width: 0.8"/>
      </g>
     </g>
     <g id="text_32">
      <!-- 0.9 -->
      <g transform="translate(93.013125 558.165836) scale(0.22 -0.22)">
       <defs>
        <path id="DejaVuSans-39" d="M 703 97 
L 703 672 
Q 941 559 1184 500 
Q 1428 441 1663 441 
Q 2288 441 2617 861 
Q 2947 1281 2994 2138 
Q 2813 1869 2534 1725 
Q 2256 1581 1919 1581 
Q 1219 1581 811 2004 
Q 403 2428 403 3163 
Q 403 3881 828 4315 
Q 1253 4750 1959 4750 
Q 2769 4750 3195 4129 
Q 3622 3509 3622 2328 
Q 3622 1225 3098 567 
Q 2575 -91 1691 -91 
Q 1453 -91 1209 -44 
Q 966 3 703 97 
z
M 1959 2075 
Q 2384 2075 2632 2365 
Q 2881 2656 2881 3163 
Q 2881 3666 2632 3958 
Q 2384 4250 1959 4250 
Q 1534 4250 1286 3958 
Q 1038 3666 1038 3163 
Q 1038 2656 1286 2365 
Q 1534 2075 1959 2075 
z
" transform="scale(0.015625)"/>
       </defs>
       <use xlink:href="#DejaVuSans-30"/>
       <use xlink:href="#DejaVuSans-2e" x="63.623047"/>
       <use xlink:href="#DejaVuSans-39" x="95.410156"/>
      </g>
     </g>
    </g>
    <g id="text_33">
     <!-- Metric Value -->
     <g transform="translate(84.021875 728.555625) rotate(-90) scale(0.24 -0.24)">
      <use xlink:href="#DejaVuSans-4d"/>
      <use xlink:href="#DejaVuSans-65" x="86.279297"/>
      <use xlink:href="#DejaVuSans-74" x="147.802734"/>
      <use xlink:href="#DejaVuSans-72" x="187.011719"/>
      <use xlink:href="#DejaVuSans-69" x="228.125"/>
      <use xlink:href="#DejaVuSans-63" x="255.908203"/>
      <use xlink:href="#DejaVuSans-20" x="310.888672"/>
      <use xlink:href="#DejaVuSans-56" x="342.675781"/>
      <use xlink:href="#DejaVuSans-61" x="403.333984"/>
      <use xlink:href="#DejaVuSans-6c" x="464.613281"/>
      <use xlink:href="#DejaVuSans-75" x="492.396484"/>
      <use xlink:href="#DejaVuSans-65" x="555.775391"/>
     </g>
    </g>
   </g>
   <g id="line2d_29">
    <path d="M 152.293388 767.672674 
L 173.910124 766.788932 
L 209.938017 768.318724 
L 281.993802 769.236219 
L 498.161157 773.848421 
" clip-path="url(#p44a86fe56a)" style="fill: none; stroke: #1f77b4; stroke-width: 1.5; stroke-linecap: square"/>
    <g clip-path="url(#p44a86fe56a)">
     <use xlink:href="#m6620fca9e9" x="152.293388" y="767.672674" style="fill: #1f77b4; stroke: #1f77b4"/>
     <use xlink:href="#m6620fca9e9" x="173.910124" y="766.788932" style="fill: #1f77b4; stroke: #1f77b4"/>
     <use xlink:href="#m6620fca9e9" x="209.938017" y="768.318724" style="fill: #1f77b4; stroke: #1f77b4"/>
     <use xlink:href="#m6620fca9e9" x="281.993802" y="769.236219" style="fill: #1f77b4; stroke: #1f77b4"/>
     <use xlink:href="#m6620fca9e9" x="498.161157" y="773.848421" style="fill: #1f77b4; stroke: #1f77b4"/>
    </g>
   </g>
   <g id="line2d_30">
    <path d="M 152.293388 535.111579 
L 173.910124 568.452306 
L 209.938017 615.233147 
L 281.993802 673.365975 
L 498.161157 740.690481 
" clip-path="url(#p44a86fe56a)" style="fill: none; stroke: #ff7f0e; stroke-width: 1.5; stroke-linecap: square"/>
    <g clip-path="url(#p44a86fe56a)">
     <use xlink:href="#mb7d10364b1" x="152.293388" y="535.111579" style="fill: #ff7f0e; stroke: #ff7f0e"/>
     <use xlink:href="#mb7d10364b1" x="173.910124" y="568.452306" style="fill: #ff7f0e; stroke: #ff7f0e"/>
     <use xlink:href="#mb7d10364b1" x="209.938017" y="615.233147" style="fill: #ff7f0e; stroke: #ff7f0e"/>
     <use xlink:href="#mb7d10364b1" x="281.993802" y="673.365975" style="fill: #ff7f0e; stroke: #ff7f0e"/>
     <use xlink:href="#mb7d10364b1" x="498.161157" y="740.690481" style="fill: #ff7f0e; stroke: #ff7f0e"/>
    </g>
   </g>
   <g id="line2d_31">
    <path d="M 152.293388 589.146552 
L 173.910124 601.485489 
L 209.938017 634.402927 
L 281.993802 681.441678 
L 498.161157 743.452344 
" clip-path="url(#p44a86fe56a)" style="fill: none; stroke: #2ca02c; stroke-width: 1.5; stroke-linecap: square"/>
    <g clip-path="url(#p44a86fe56a)">
     <use xlink:href="#m20854018cf" x="152.293388" y="589.146552" style="fill: #2ca02c; stroke: #2ca02c"/>
     <use xlink:href="#m20854018cf" x="173.910124" y="601.485489" style="fill: #2ca02c; stroke: #2ca02c"/>
     <use xlink:href="#m20854018cf" x="209.938017" y="634.402927" style="fill: #2ca02c; stroke: #2ca02c"/>
     <use xlink:href="#m20854018cf" x="281.993802" y="681.441678" style="fill: #2ca02c; stroke: #2ca02c"/>
     <use xlink:href="#m20854018cf" x="498.161157" y="743.452344" style="fill: #2ca02c; stroke: #2ca02c"/>
    </g>
   </g>
   <g id="line2d_32">
    <path d="M 152.293388 568.355372 
L 173.910124 583.520538 
L 209.938017 609.330639 
L 281.993802 659.361603 
L 498.161157 718.417457 
" clip-path="url(#p44a86fe56a)" style="fill: none; stroke: #d62728; stroke-width: 1.5; stroke-linecap: square"/>
    <g clip-path="url(#p44a86fe56a)">
     <use xlink:href="#m5302017db7" x="152.293388" y="568.355372" style="fill: #d62728; stroke: #d62728"/>
     <use xlink:href="#m5302017db7" x="173.910124" y="583.520538" style="fill: #d62728; stroke: #d62728"/>
     <use xlink:href="#m5302017db7" x="209.938017" y="609.330639" style="fill: #d62728; stroke: #d62728"/>
     <use xlink:href="#m5302017db7" x="281.993802" y="659.361603" style="fill: #d62728; stroke: #d62728"/>
     <use xlink:href="#m5302017db7" x="498.161157" y="718.417457" style="fill: #d62728; stroke: #d62728"/>
    </g>
   </g>
   <g id="patch_25">
    <path d="M 135 785.785263 
L 135 523.174737 
" style="fill: none; stroke: #000000; stroke-width: 0.8; stroke-linejoin: miter; stroke-linecap: square"/>
   </g>
   <g id="patch_26">
    <path d="M 515.454545 785.785263 
L 515.454545 523.174737 
" style="fill: none; stroke: #000000; stroke-width: 0.8; stroke-linejoin: miter; stroke-linecap: square"/>
   </g>
   <g id="patch_27">
    <path d="M 135 785.785263 
L 515.454545 785.785263 
" style="fill: none; stroke: #000000; stroke-width: 0.8; stroke-linejoin: miter; stroke-linecap: square"/>
   </g>
   <g id="patch_28">
    <path d="M 135 523.174737 
L 515.454545 523.174737 
" style="fill: none; stroke: #000000; stroke-width: 0.8; stroke-linejoin: miter; stroke-linecap: square"/>
   </g>
   <g id="text_34">
    <!-- c -->
    <g transform="translate(91.769432 505.058783) scale(0.28 -0.28)">
     <defs>
      <path id="DejaVuSans-Bold-63" d="M 3366 3391 
L 3366 2478 
Q 3138 2634 2908 2709 
Q 2678 2784 2431 2784 
Q 1963 2784 1702 2511 
Q 1441 2238 1441 1747 
Q 1441 1256 1702 982 
Q 1963 709 2431 709 
Q 2694 709 2930 787 
Q 3166 866 3366 1019 
L 3366 103 
Q 3103 6 2833 -42 
Q 2563 -91 2291 -91 
Q 1344 -91 809 395 
Q 275 881 275 1747 
Q 275 2613 809 3098 
Q 1344 3584 2291 3584 
Q 2566 3584 2833 3536 
Q 3100 3488 3366 3391 
z
" transform="scale(0.015625)"/>
     </defs>
     <use xlink:href="#DejaVuSans-Bold-63"/>
    </g>
   </g>
   <g id="text_35">
    <!-- Trustworthiness -->
    <g transform="translate(230.950398 517.174737) scale(0.24 -0.24)">
     <defs>
      <path id="DejaVuSans-54" d="M -19 4666 
L 3928 4666 
L 3928 4134 
L 2272 4134 
L 2272 0 
L 1638 0 
L 1638 4134 
L -19 4134 
L -19 4666 
z
" transform="scale(0.015625)"/>
      <path id="DejaVuSans-77" d="M 269 3500 
L 844 3500 
L 1563 769 
L 2278 3500 
L 2956 3500 
L 3675 769 
L 4391 3500 
L 4966 3500 
L 4050 0 
L 3372 0 
L 2619 2869 
L 1863 0 
L 1184 0 
L 269 3500 
z
" transform="scale(0.015625)"/>
      <path id="DejaVuSans-6f" d="M 1959 3097 
Q 1497 3097 1228 2736 
Q 959 2375 959 1747 
Q 959 1119 1226 758 
Q 1494 397 1959 397 
Q 2419 397 2687 759 
Q 2956 1122 2956 1747 
Q 2956 2369 2687 2733 
Q 2419 3097 1959 3097 
z
M 1959 3584 
Q 2709 3584 3137 3096 
Q 3566 2609 3566 1747 
Q 3566 888 3137 398 
Q 2709 -91 1959 -91 
Q 1206 -91 779 398 
Q 353 888 353 1747 
Q 353 2609 779 3096 
Q 1206 3584 1959 3584 
z
" transform="scale(0.015625)"/>
      <path id="DejaVuSans-68" d="M 3513 2113 
L 3513 0 
L 2938 0 
L 2938 2094 
Q 2938 2591 2744 2837 
Q 2550 3084 2163 3084 
Q 1697 3084 1428 2787 
Q 1159 2491 1159 1978 
L 1159 0 
L 581 0 
L 581 4863 
L 1159 4863 
L 1159 2956 
Q 1366 3272 1645 3428 
Q 1925 3584 2291 3584 
Q 2894 3584 3203 3211 
Q 3513 2838 3513 2113 
z
" transform="scale(0.015625)"/>
      <path id="DejaVuSans-6e" d="M 3513 2113 
L 3513 0 
L 2938 0 
L 2938 2094 
Q 2938 2591 2744 2837 
Q 2550 3084 2163 3084 
Q 1697 3084 1428 2787 
Q 1159 2491 1159 1978 
L 1159 0 
L 581 0 
L 581 3500 
L 1159 3500 
L 1159 2956 
Q 1366 3272 1645 3428 
Q 1925 3584 2291 3584 
Q 2894 3584 3203 3211 
Q 3513 2838 3513 2113 
z
" transform="scale(0.015625)"/>
     </defs>
     <use xlink:href="#DejaVuSans-54"/>
     <use xlink:href="#DejaVuSans-72" x="46.333984"/>
     <use xlink:href="#DejaVuSans-75" x="87.447266"/>
     <use xlink:href="#DejaVuSans-73" x="150.826172"/>
     <use xlink:href="#DejaVuSans-74" x="202.925781"/>
     <use xlink:href="#DejaVuSans-77" x="242.134766"/>
     <use xlink:href="#DejaVuSans-6f" x="323.921875"/>
     <use xlink:href="#DejaVuSans-72" x="385.103516"/>
     <use xlink:href="#DejaVuSans-74" x="426.216797"/>
     <use xlink:href="#DejaVuSans-68" x="465.425781"/>
     <use xlink:href="#DejaVuSans-69" x="528.804688"/>
     <use xlink:href="#DejaVuSans-6e" x="556.587891"/>
     <use xlink:href="#DejaVuSans-65" x="619.966797"/>
     <use xlink:href="#DejaVuSans-73" x="681.490234"/>
     <use xlink:href="#DejaVuSans-73" x="733.589844"/>
    </g>
   </g>
  </g>
  <g id="axes_4">
   <g id="patch_29">
    <path d="M 591.545455 785.785263 
L 972 785.785263 
L 972 523.174737 
L 591.545455 523.174737 
z
" style="fill: #ffffff"/>
   </g>
   <g id="matplotlib.axis_7">
    <g id="xtick_13">
     <g id="line2d_33">
      <g>
       <use xlink:href="#mb9c1b0fe39" x="594.427686" y="785.785263" style="stroke: #000000; stroke-width: 0.8"/>
      </g>
     </g>
     <g id="text_36">
      <!-- 0 -->
      <g transform="translate(587.428936 809.501826) scale(0.22 -0.22)">
       <use xlink:href="#DejaVuSans-30"/>
      </g>
     </g>
    </g>
    <g id="xtick_14">
     <g id="line2d_34">
      <g>
       <use xlink:href="#mb9c1b0fe39" x="738.539256" y="785.785263" style="stroke: #000000; stroke-width: 0.8"/>
      </g>
     </g>
     <g id="text_37">
      <!-- 20 -->
      <g transform="translate(724.541756 809.501826) scale(0.22 -0.22)">
       <use xlink:href="#DejaVuSans-32"/>
       <use xlink:href="#DejaVuSans-30" x="63.623047"/>
      </g>
     </g>
    </g>
    <g id="xtick_15">
     <g id="line2d_35">
      <g>
       <use xlink:href="#mb9c1b0fe39" x="882.650826" y="785.785263" style="stroke: #000000; stroke-width: 0.8"/>
      </g>
     </g>
     <g id="text_38">
      <!-- 40 -->
      <g transform="translate(868.653326 809.501826) scale(0.22 -0.22)">
       <use xlink:href="#DejaVuSans-34"/>
       <use xlink:href="#DejaVuSans-30" x="63.623047"/>
      </g>
     </g>
    </g>
    <g id="text_39">
     <!-- k -->
     <g transform="translate(774.823977 836.313388) scale(0.24 -0.24)">
      <use xlink:href="#DejaVuSans-6b"/>
     </g>
    </g>
   </g>
   <g id="matplotlib.axis_8">
    <g id="ytick_13">
     <g id="line2d_36">
      <g>
       <use xlink:href="#m532bfa2c38" x="591.545455" y="695.709074" style="stroke: #000000; stroke-width: 0.8"/>
      </g>
     </g>
     <g id="text_40">
      <!-- 0.8 -->
      <g transform="translate(549.55858 704.067355) scale(0.22 -0.22)">
       <use xlink:href="#DejaVuSans-30"/>
       <use xlink:href="#DejaVuSans-2e" x="63.623047"/>
       <use xlink:href="#DejaVuSans-38" x="95.410156"/>
      </g>
     </g>
    </g>
    <g id="ytick_14">
     <g id="line2d_37">
      <g>
       <use xlink:href="#m532bfa2c38" x="591.545455" y="605.213654" style="stroke: #000000; stroke-width: 0.8"/>
      </g>
     </g>
     <g id="text_41">
      <!-- 0.9 -->
      <g transform="translate(549.55858 613.571935) scale(0.22 -0.22)">
       <use xlink:href="#DejaVuSans-30"/>
       <use xlink:href="#DejaVuSans-2e" x="63.623047"/>
       <use xlink:href="#DejaVuSans-39" x="95.410156"/>
      </g>
     </g>
    </g>
   </g>
   <g id="line2d_38">
    <path d="M 608.838843 629.034849 
L 630.455579 655.696018 
L 666.483471 687.16837 
L 738.539256 722.376713 
L 954.706612 767.904273 
" clip-path="url(#p838b9181cc)" style="fill: none; stroke: #1f77b4; stroke-width: 1.5; stroke-linecap: square"/>
    <g clip-path="url(#p838b9181cc)">
     <use xlink:href="#m6620fca9e9" x="608.838843" y="629.034849" style="fill: #1f77b4; stroke: #1f77b4"/>
     <use xlink:href="#m6620fca9e9" x="630.455579" y="655.696018" style="fill: #1f77b4; stroke: #1f77b4"/>
     <use xlink:href="#m6620fca9e9" x="666.483471" y="687.16837" style="fill: #1f77b4; stroke: #1f77b4"/>
     <use xlink:href="#m6620fca9e9" x="738.539256" y="722.376713" style="fill: #1f77b4; stroke: #1f77b4"/>
     <use xlink:href="#m6620fca9e9" x="954.706612" y="767.904273" style="fill: #1f77b4; stroke: #1f77b4"/>
    </g>
   </g>
   <g id="line2d_39">
    <path d="M 608.838843 535.111579 
L 630.455579 560.560657 
L 666.483471 598.85387 
L 738.539256 650.361337 
L 954.706612 713.209847 
" clip-path="url(#p838b9181cc)" style="fill: none; stroke: #ff7f0e; stroke-width: 1.5; stroke-linecap: square"/>
    <g clip-path="url(#p838b9181cc)">
     <use xlink:href="#mb7d10364b1" x="608.838843" y="535.111579" style="fill: #ff7f0e; stroke: #ff7f0e"/>
     <use xlink:href="#mb7d10364b1" x="630.455579" y="560.560657" style="fill: #ff7f0e; stroke: #ff7f0e"/>
     <use xlink:href="#mb7d10364b1" x="666.483471" y="598.85387" style="fill: #ff7f0e; stroke: #ff7f0e"/>
     <use xlink:href="#mb7d10364b1" x="738.539256" y="650.361337" style="fill: #ff7f0e; stroke: #ff7f0e"/>
     <use xlink:href="#mb7d10364b1" x="954.706612" y="713.209847" style="fill: #ff7f0e; stroke: #ff7f0e"/>
    </g>
   </g>
   <g id="line2d_40">
    <path d="M 608.838843 537.950661 
L 630.455579 559.357715 
L 666.483471 594.698461 
L 738.539256 649.185855 
L 954.706612 729.770661 
" clip-path="url(#p838b9181cc)" style="fill: none; stroke: #2ca02c; stroke-width: 1.5; stroke-linecap: square"/>
    <g clip-path="url(#p838b9181cc)">
     <use xlink:href="#m20854018cf" x="608.838843" y="537.950661" style="fill: #2ca02c; stroke: #2ca02c"/>
     <use xlink:href="#m20854018cf" x="630.455579" y="559.357715" style="fill: #2ca02c; stroke: #2ca02c"/>
     <use xlink:href="#m20854018cf" x="666.483471" y="594.698461" style="fill: #2ca02c; stroke: #2ca02c"/>
     <use xlink:href="#m20854018cf" x="738.539256" y="649.185855" style="fill: #2ca02c; stroke: #2ca02c"/>
     <use xlink:href="#m20854018cf" x="954.706612" y="729.770661" style="fill: #2ca02c; stroke: #2ca02c"/>
    </g>
   </g>
   <g id="line2d_41">
    <path d="M 608.838843 603.662177 
L 630.455579 633.347664 
L 666.483471 675.545655 
L 738.539256 725.840224 
L 954.706612 773.848421 
" clip-path="url(#p838b9181cc)" style="fill: none; stroke: #d62728; stroke-width: 1.5; stroke-linecap: square"/>
    <g clip-path="url(#p838b9181cc)">
     <use xlink:href="#m5302017db7" x="608.838843" y="603.662177" style="fill: #d62728; stroke: #d62728"/>
     <use xlink:href="#m5302017db7" x="630.455579" y="633.347664" style="fill: #d62728; stroke: #d62728"/>
     <use xlink:href="#m5302017db7" x="666.483471" y="675.545655" style="fill: #d62728; stroke: #d62728"/>
     <use xlink:href="#m5302017db7" x="738.539256" y="725.840224" style="fill: #d62728; stroke: #d62728"/>
     <use xlink:href="#m5302017db7" x="954.706612" y="773.848421" style="fill: #d62728; stroke: #d62728"/>
    </g>
   </g>
   <g id="patch_30">
    <path d="M 591.545455 785.785263 
L 591.545455 523.174737 
" style="fill: none; stroke: #000000; stroke-width: 0.8; stroke-linejoin: miter; stroke-linecap: square"/>
   </g>
   <g id="patch_31">
    <path d="M 972 785.785263 
L 972 523.174737 
" style="fill: none; stroke: #000000; stroke-width: 0.8; stroke-linejoin: miter; stroke-linecap: square"/>
   </g>
   <g id="patch_32">
    <path d="M 591.545455 785.785263 
L 972 785.785263 
" style="fill: none; stroke: #000000; stroke-width: 0.8; stroke-linejoin: miter; stroke-linecap: square"/>
   </g>
   <g id="patch_33">
    <path d="M 591.545455 523.174737 
L 972 523.174737 
" style="fill: none; stroke: #000000; stroke-width: 0.8; stroke-linejoin: miter; stroke-linecap: square"/>
   </g>
   <g id="text_42">
    <!-- d -->
    <g transform="translate(544.871761 505.058783) scale(0.28 -0.28)">
     <defs>
      <path id="DejaVuSans-Bold-64" d="M 2919 2988 
L 2919 4863 
L 4044 4863 
L 4044 0 
L 2919 0 
L 2919 506 
Q 2688 197 2409 53 
Q 2131 -91 1766 -91 
Q 1119 -91 703 423 
Q 288 938 288 1747 
Q 288 2556 703 3070 
Q 1119 3584 1766 3584 
Q 2128 3584 2408 3439 
Q 2688 3294 2919 2988 
z
M 2181 722 
Q 2541 722 2730 984 
Q 2919 1247 2919 1747 
Q 2919 2247 2730 2509 
Q 2541 2772 2181 2772 
Q 1825 2772 1636 2509 
Q 1447 2247 1447 1747 
Q 1447 1247 1636 984 
Q 1825 722 2181 722 
z
" transform="scale(0.015625)"/>
     </defs>
     <use xlink:href="#DejaVuSans-Bold-64"/>
    </g>
   </g>
   <g id="text_43">
    <!-- Continuity -->
    <g transform="translate(720.057102 517.174737) scale(0.24 -0.24)">
     <defs>
      <path id="DejaVuSans-79" d="M 2059 -325 
Q 1816 -950 1584 -1140 
Q 1353 -1331 966 -1331 
L 506 -1331 
L 506 -850 
L 844 -850 
Q 1081 -850 1212 -737 
Q 1344 -625 1503 -206 
L 1606 56 
L 191 3500 
L 800 3500 
L 1894 763 
L 2988 3500 
L 3597 3500 
L 2059 -325 
z
" transform="scale(0.015625)"/>
     </defs>
     <use xlink:href="#DejaVuSans-43"/>
     <use xlink:href="#DejaVuSans-6f" x="69.824219"/>
     <use xlink:href="#DejaVuSans-6e" x="131.005859"/>
     <use xlink:href="#DejaVuSans-74" x="194.384766"/>
     <use xlink:href="#DejaVuSans-69" x="233.59375"/>
     <use xlink:href="#DejaVuSans-6e" x="261.376953"/>
     <use xlink:href="#DejaVuSans-75" x="324.755859"/>
     <use xlink:href="#DejaVuSans-69" x="388.134766"/>
     <use xlink:href="#DejaVuSans-74" x="415.917969"/>
     <use xlink:href="#DejaVuSans-79" x="455.126953"/>
    </g>
   </g>
  </g>
  <g id="axes_5">
   <g id="patch_34">
    <path d="M 135 1153.44 
L 515.454545 1153.44 
L 515.454545 890.829474 
L 135 890.829474 
z
" style="fill: #ffffff"/>
   </g>
   <g id="matplotlib.axis_9">
    <g id="xtick_16">
     <g id="line2d_42">
      <g>
       <use xlink:href="#mb9c1b0fe39" x="152.111353" y="1153.44" style="stroke: #000000; stroke-width: 0.8"/>
      </g>
     </g>
     <g id="text_44">
      <!-- 0 -->
      <g transform="translate(145.112603 1177.156562) scale(0.22 -0.22)">
       <use xlink:href="#DejaVuSans-30"/>
      </g>
     </g>
    </g>
    <g id="xtick_17">
     <g id="line2d_43">
      <g>
       <use xlink:href="#mb9c1b0fe39" x="243.129187" y="1153.44" style="stroke: #000000; stroke-width: 0.8"/>
      </g>
     </g>
     <g id="text_45">
      <!-- 500 -->
      <g transform="translate(222.132937 1177.156562) scale(0.22 -0.22)">
       <use xlink:href="#DejaVuSans-35"/>
       <use xlink:href="#DejaVuSans-30" x="63.623047"/>
       <use xlink:href="#DejaVuSans-30" x="127.246094"/>
      </g>
     </g>
    </g>
    <g id="xtick_18">
     <g id="line2d_44">
      <g>
       <use xlink:href="#mb9c1b0fe39" x="334.14702" y="1153.44" style="stroke: #000000; stroke-width: 0.8"/>
      </g>
     </g>
     <g id="text_46">
      <!-- 1000 -->
      <g transform="translate(306.15202 1177.156562) scale(0.22 -0.22)">
       <use xlink:href="#DejaVuSans-31"/>
       <use xlink:href="#DejaVuSans-30" x="63.623047"/>
       <use xlink:href="#DejaVuSans-30" x="127.246094"/>
       <use xlink:href="#DejaVuSans-30" x="190.869141"/>
      </g>
     </g>
    </g>
    <g id="xtick_19">
     <g id="line2d_45">
      <g>
       <use xlink:href="#mb9c1b0fe39" x="425.164854" y="1153.44" style="stroke: #000000; stroke-width: 0.8"/>
      </g>
     </g>
     <g id="text_47">
      <!-- 1500 -->
      <g transform="translate(397.169854 1177.156562) scale(0.22 -0.22)">
       <use xlink:href="#DejaVuSans-31"/>
       <use xlink:href="#DejaVuSans-35" x="63.623047"/>
       <use xlink:href="#DejaVuSans-30" x="127.246094"/>
       <use xlink:href="#DejaVuSans-30" x="190.869141"/>
      </g>
     </g>
    </g>
    <g id="text_48">
     <!-- k -->
     <g transform="translate(318.278523 1203.968125) scale(0.24 -0.24)">
      <use xlink:href="#DejaVuSans-6b"/>
     </g>
    </g>
   </g>
   <g id="matplotlib.axis_10">
    <g id="ytick_15">
     <g id="line2d_46">
      <g>
       <use xlink:href="#m532bfa2c38" x="135" y="1148.479234" style="stroke: #000000; stroke-width: 0.8"/>
      </g>
     </g>
     <g id="text_49">
      <!-- 0.00 -->
      <g transform="translate(79.015625 1156.837516) scale(0.22 -0.22)">
       <use xlink:href="#DejaVuSans-30"/>
       <use xlink:href="#DejaVuSans-2e" x="63.623047"/>
       <use xlink:href="#DejaVuSans-30" x="95.410156"/>
       <use xlink:href="#DejaVuSans-30" x="159.033203"/>
      </g>
     </g>
    </g>
    <g id="ytick_16">
     <g id="line2d_47">
      <g>
       <use xlink:href="#m532bfa2c38" x="135" y="1087.051005" style="stroke: #000000; stroke-width: 0.8"/>
      </g>
     </g>
     <g id="text_50">
      <!-- 0.25 -->
      <g transform="translate(79.015625 1095.409286) scale(0.22 -0.22)">
       <use xlink:href="#DejaVuSans-30"/>
       <use xlink:href="#DejaVuSans-2e" x="63.623047"/>
       <use xlink:href="#DejaVuSans-32" x="95.410156"/>
       <use xlink:href="#DejaVuSans-35" x="159.033203"/>
      </g>
     </g>
    </g>
    <g id="ytick_17">
     <g id="line2d_48">
      <g>
       <use xlink:href="#m532bfa2c38" x="135" y="1025.622775" style="stroke: #000000; stroke-width: 0.8"/>
      </g>
     </g>
     <g id="text_51">
      <!-- 0.50 -->
      <g transform="translate(79.015625 1033.981056) scale(0.22 -0.22)">
       <use xlink:href="#DejaVuSans-30"/>
       <use xlink:href="#DejaVuSans-2e" x="63.623047"/>
       <use xlink:href="#DejaVuSans-35" x="95.410156"/>
       <use xlink:href="#DejaVuSans-30" x="159.033203"/>
      </g>
     </g>
    </g>
    <g id="ytick_18">
     <g id="line2d_49">
      <g>
       <use xlink:href="#m532bfa2c38" x="135" y="964.194545" style="stroke: #000000; stroke-width: 0.8"/>
      </g>
     </g>
     <g id="text_52">
      <!-- 0.75 -->
      <g transform="translate(79.015625 972.552827) scale(0.22 -0.22)">
       <use xlink:href="#DejaVuSans-30"/>
       <use xlink:href="#DejaVuSans-2e" x="63.623047"/>
       <use xlink:href="#DejaVuSans-37" x="95.410156"/>
       <use xlink:href="#DejaVuSans-35" x="159.033203"/>
      </g>
     </g>
    </g>
    <g id="ytick_19">
     <g id="line2d_50">
      <g>
       <use xlink:href="#m532bfa2c38" x="135" y="902.766316" style="stroke: #000000; stroke-width: 0.8"/>
      </g>
     </g>
     <g id="text_53">
      <!-- 1.00 -->
      <g transform="translate(79.015625 911.124597) scale(0.22 -0.22)">
       <use xlink:href="#DejaVuSans-31"/>
       <use xlink:href="#DejaVuSans-2e" x="63.623047"/>
       <use xlink:href="#DejaVuSans-30" x="95.410156"/>
       <use xlink:href="#DejaVuSans-30" x="159.033203"/>
      </g>
     </g>
    </g>
    <g id="text_54">
     <!-- Metric Value -->
     <g transform="translate(70.024375 1096.210362) rotate(-90) scale(0.24 -0.24)">
      <use xlink:href="#DejaVuSans-4d"/>
      <use xlink:href="#DejaVuSans-65" x="86.279297"/>
      <use xlink:href="#DejaVuSans-74" x="147.802734"/>
      <use xlink:href="#DejaVuSans-72" x="187.011719"/>
      <use xlink:href="#DejaVuSans-69" x="228.125"/>
      <use xlink:href="#DejaVuSans-63" x="255.908203"/>
      <use xlink:href="#DejaVuSans-20" x="310.888672"/>
      <use xlink:href="#DejaVuSans-56" x="342.675781"/>
      <use xlink:href="#DejaVuSans-61" x="403.333984"/>
      <use xlink:href="#DejaVuSans-6c" x="464.613281"/>
      <use xlink:href="#DejaVuSans-75" x="492.396484"/>
      <use xlink:href="#DejaVuSans-65" x="555.775391"/>
     </g>
    </g>
   </g>
   <g id="line2d_51">
    <path d="M 152.293388 1141.503158 
L 152.839495 1135.173014 
L 153.567638 1131.087488 
L 154.295781 1128.659856 
L 154.841888 1127.163445 
L 155.023923 1126.92122 
L 155.57003 1125.57241 
L 157.026316 1123.383541 
L 157.754458 1122.716925 
L 158.300565 1122.7711 
L 158.664637 1122.598852 
L 160.302958 1121.81512 
L 161.0311 1121.479234 
L 161.395172 1121.400709 
L 161.941279 1121.436172 
L 162.123314 1121.352397 
L 162.851457 1121.424494 
L 164.125707 1121.316773 
L 164.853849 1121.407259 
L 165.399957 1121.355357 
L 166.310135 1121.250674 
L 167.220313 1121.093231 
L 167.76642 1120.911414 
L 169.04067 1120.487415 
L 169.768813 1120.195359 
L 171.589169 1119.516081 
L 172.863419 1118.987293 
L 173.409526 1118.702275 
L 174.50174 1118.197054 
L 175.411918 1117.718693 
L 176.868204 1117.033695 
L 179.052632 1115.755744 
L 181.965202 1113.835956 
L 183.057416 1113.092744 
L 191.431057 1107.228636 
L 198.894519 1101.631246 
L 210.544802 1093.001839 
L 214.731622 1090.013284 
L 220.556764 1085.739898 
L 222.923227 1084.094159 
L 234.209439 1075.732568 
L 241.672901 1070.25202 
L 244.585472 1068.064897 
L 247.498043 1065.926283 
L 254.779469 1060.704497 
L 259.694432 1057.363115 
L 262.060896 1055.753625 
L 269.342323 1050.832217 
L 273.711179 1047.86163 
L 280.992605 1043.079206 
L 286.089604 1039.797845 
L 288.638104 1038.15577 
L 324.863201 1015.163153 
L 327.593736 1013.453102 
L 351.80448 998.304814 
L 359.267943 993.816307 
L 362.72662 991.766283 
L 374.740974 984.482388 
L 388.757721 975.78477 
L 391.852327 973.835623 
L 396.76729 970.704147 
L 402.774467 966.837242 
L 412.604393 960.360249 
L 424.254676 952.40145 
L 433.902566 945.782701 
L 460.115702 927.694902 
L 473.586342 918.482093 
L 477.409091 916.096465 
L 479.229448 915.130991 
L 483.598304 913.280232 
L 485.054589 912.262202 
L 491.607873 907.501265 
L 498.161157 902.766316 
L 498.161157 902.766316 
" clip-path="url(#p8b8736cd74)" style="fill: none; stroke: #1f77b4; stroke-width: 1.5; stroke-linecap: square"/>
   </g>
   <g id="line2d_52">
    <path d="M 152.293388 1034.019904 
L 152.65746 1019.292632 
L 153.021531 1014.693589 
L 153.203567 1016.536651 
L 154.295781 1038.121579 
L 154.841888 1048.006507 
L 155.752066 1060.134976 
L 156.480209 1067.570742 
L 158.300565 1082.297698 
L 158.846672 1085.5898 
L 160.120922 1091.381692 
L 161.0311 1094.632149 
L 163.033493 1100.174211 
L 164.853849 1103.967068 
L 166.492171 1106.269556 
L 167.220313 1107.039908 
L 168.494563 1107.967751 
L 169.222706 1108.427265 
L 170.132884 1108.924645 
L 171.953241 1109.518214 
L 175.77599 1109.750085 
L 178.870596 1108.812796 
L 180.326881 1108.206353 
L 181.23706 1107.795144 
L 181.783167 1107.519948 
L 183.239452 1107.028466 
L 184.877773 1106.339282 
L 185.42388 1106.074967 
L 189.792736 1103.987868 
L 191.431057 1103.078517 
L 192.705307 1102.333548 
L 193.251414 1101.979489 
L 194.343628 1101.3445 
L 196.892127 1099.819473 
L 205.99391 1094.851082 
L 208.54241 1093.279049 
L 232.207047 1077.82943 
L 245.131579 1068.920006 
L 247.680078 1067.049843 
L 252.23097 1063.905698 
L 254.415398 1062.437969 
L 255.871683 1061.538237 
L 258.238147 1060.022974 
L 259.512397 1059.179981 
L 264.973467 1055.660952 
L 270.434537 1052.276953 
L 272.801 1050.729402 
L 274.621357 1049.58641 
L 276.623749 1048.292002 
L 297.921923 1035.10162 
L 299.924315 1033.904877 
L 306.295563 1030.134392 
L 307.751849 1029.29515 
L 311.574598 1026.946938 
L 319.948238 1022.140622 
L 323.953023 1019.822379 
L 326.501522 1018.36594 
L 330.688343 1015.992513 
L 334.329056 1013.876345 
L 338.333841 1011.538026 
L 345.069161 1007.667665 
L 350.348195 1004.507468 
L 355.263158 1001.457588 
L 358.175729 999.774499 
L 364.546977 995.971406 
L 369.46194 992.980869 
L 372.192475 991.312032 
L 374.558939 989.871281 
L 377.835581 987.825901 
L 379.837973 986.521471 
L 386.573293 982.191002 
L 396.403219 975.777636 
L 399.133754 973.969459 
L 421.706177 958.230285 
L 440.637886 944.6826 
L 445.91692 940.853312 
L 465.576773 926.472658 
L 498.161157 902.766316 
L 498.161157 902.766316 
" clip-path="url(#p8b8736cd74)" style="fill: none; stroke: #ff7f0e; stroke-width: 1.5; stroke-linecap: square"/>
   </g>
   <g id="line2d_53">
    <path d="M 152.293388 1099.905072 
L 152.65746 1060.976842 
L 153.021531 1044.716555 
L 153.203567 1042.072536 
L 153.385602 1041.568093 
L 153.749674 1044.426603 
L 155.57003 1060.550753 
L 156.480209 1069.15866 
L 158.482601 1084.273493 
L 159.392779 1089.208421 
L 160.849065 1094.79951 
L 161.577207 1096.817015 
L 163.215528 1101.035984 
L 164.307742 1103.285133 
L 165.764028 1105.635789 
L 166.856242 1107.053397 
L 167.402349 1107.543999 
L 169.222706 1108.934391 
L 170.31492 1109.54756 
L 170.678991 1109.680191 
L 172.317312 1110.412249 
L 174.137669 1110.590192 
L 177.414311 1110.701912 
L 182.147238 1109.663749 
L 182.693345 1109.370297 
L 185.241844 1108.246835 
L 186.516094 1107.767683 
L 187.244237 1107.560549 
L 188.518486 1107.07622 
L 189.064593 1106.753234 
L 197.802305 1103.305613 
L 199.258591 1102.437927 
L 199.986733 1102.070789 
L 200.714876 1101.678364 
L 202.353197 1100.69751 
L 203.991518 1099.85929 
L 205.629839 1098.922111 
L 207.26816 1098.028668 
L 212.001087 1095.515476 
L 214.185515 1094.406875 
L 227.110048 1087.564302 
L 228.566333 1086.833541 
L 231.842975 1085.033275 
L 233.845368 1083.929667 
L 235.119617 1083.238583 
L 236.575903 1082.545344 
L 238.214224 1081.634044 
L 239.124402 1081.151123 
L 269.706394 1063.905605 
L 271.708786 1062.733347 
L 274.439321 1061.191961 
L 277.715963 1059.320071 
L 280.264463 1057.86676 
L 281.720748 1056.985726 
L 283.359069 1056.029646 
L 288.456068 1053.036034 
L 294.827316 1049.324068 
L 297.011744 1048.093292 
L 298.285994 1047.304888 
L 302.65485 1044.562437 
L 316.853632 1035.914023 
L 319.220096 1034.468117 
L 334.511092 1024.893167 
L 378.927795 994.709956 
L 382.932579 991.82051 
L 391.124184 986.013257 
L 400.408003 979.352188 
L 404.958895 975.995867 
L 428.441496 958.040055 
L 431.718138 955.322975 
L 436.086994 951.65094 
L 442.094171 946.647672 
L 446.098956 943.334989 
L 468.671379 924.749582 
L 483.598304 913.369124 
L 498.161157 902.766316 
L 498.161157 902.766316 
" clip-path="url(#p8b8736cd74)" style="fill: none; stroke: #2ca02c; stroke-width: 1.5; stroke-linecap: square"/>
   </g>
   <g id="line2d_54">
    <path d="M 152.293388 1093.962488 
L 152.65746 1065.928995 
L 153.021531 1053.811292 
L 153.385602 1049.116282 
L 153.567638 1048.214282 
L 153.931709 1050.155311 
L 154.477816 1054.163077 
L 157.208351 1075.857908 
L 158.664637 1085.278278 
L 159.574815 1089.472466 
L 161.213136 1095.298278 
L 163.215528 1099.763178 
L 165.581992 1103.68989 
L 167.220313 1105.232852 
L 169.404741 1106.492229 
L 169.768813 1106.614784 
L 170.496955 1106.785218 
L 171.225098 1106.902064 
L 171.953241 1107.007965 
L 173.22749 1107.146204 
L 174.319704 1107.329066 
L 175.77599 1107.355164 
L 176.504132 1107.367044 
L 177.050239 1107.217788 
L 177.596346 1107.097075 
L 178.324489 1106.901782 
L 179.052632 1106.774657 
L 181.055024 1106.366839 
L 181.783167 1106.228875 
L 183.603523 1105.880512 
L 185.42388 1105.321732 
L 185.969987 1105.101013 
L 187.244237 1104.591935 
L 189.6107 1103.477771 
L 190.88495 1102.992814 
L 191.613093 1102.785278 
L 192.341235 1102.498741 
L 194.161592 1101.653845 
L 195.253806 1101.130437 
L 195.981949 1100.768639 
L 197.074163 1100.277464 
L 197.984341 1099.718469 
L 198.894519 1099.188262 
L 199.986733 1098.457003 
L 205.083732 1095.368447 
L 205.629839 1095.046074 
L 206.540017 1094.553981 
L 212.547194 1091.026217 
L 214.367551 1089.715195 
L 226.928012 1081.831206 
L 228.566333 1080.813137 
L 230.568726 1079.426148 
L 232.207047 1078.299787 
L 238.032188 1074.410698 
L 246.7699 1068.96339 
L 248.590257 1067.745651 
L 251.320792 1065.988966 
L 259.876468 1059.42733 
L 270.980644 1051.553078 
L 280.082427 1045.103123 
L 285.725533 1041.359252 
L 287.909961 1039.92439 
L 289.912353 1038.647925 
L 292.824924 1036.707922 
L 296.283602 1034.238314 
L 298.103958 1032.956773 
L 303.747064 1029.220149 
L 311.938669 1023.438668 
L 331.962592 1010.856406 
L 337.969769 1007.244115 
L 340.518269 1005.68947 
L 343.430839 1003.853173 
L 349.073945 1000.251458 
L 350.530231 999.298694 
L 354.535015 996.803242 
L 356.537408 995.549791 
L 379.10983 981.538753 
L 391.30622 973.938892 
L 395.857112 971.106511 
L 409.327751 962.739802 
L 438.089387 944.361853 
L 464.120487 927.120628 
L 482.142018 914.415841 
L 487.785124 910.300543 
L 498.161157 902.766316 
L 498.161157 902.766316 
" clip-path="url(#p8b8736cd74)" style="fill: none; stroke: #d62728; stroke-width: 1.5; stroke-linecap: square"/>
   </g>
   <g id="patch_35">
    <path d="M 135 1153.44 
L 135 890.829474 
" style="fill: none; stroke: #000000; stroke-width: 0.8; stroke-linejoin: miter; stroke-linecap: square"/>
   </g>
   <g id="patch_36">
    <path d="M 515.454545 1153.44 
L 515.454545 890.829474 
" style="fill: none; stroke: #000000; stroke-width: 0.8; stroke-linejoin: miter; stroke-linecap: square"/>
   </g>
   <g id="patch_37">
    <path d="M 135 1153.44 
L 515.454545 1153.44 
" style="fill: none; stroke: #000000; stroke-width: 0.8; stroke-linejoin: miter; stroke-linecap: square"/>
   </g>
   <g id="patch_38">
    <path d="M 135 890.829474 
L 515.454545 890.829474 
" style="fill: none; stroke: #000000; stroke-width: 0.8; stroke-linejoin: miter; stroke-linecap: square"/>
   </g>
   <g id="text_55">
    <!-- e -->
    <g transform="translate(89.376307 872.71352) scale(0.28 -0.28)">
     <defs>
      <path id="DejaVuSans-Bold-65" d="M 4031 1759 
L 4031 1441 
L 1416 1441 
Q 1456 1047 1700 850 
Q 1944 653 2381 653 
Q 2734 653 3104 758 
Q 3475 863 3866 1075 
L 3866 213 
Q 3469 63 3072 -14 
Q 2675 -91 2278 -91 
Q 1328 -91 801 392 
Q 275 875 275 1747 
Q 275 2603 792 3093 
Q 1309 3584 2216 3584 
Q 3041 3584 3536 3087 
Q 4031 2591 4031 1759 
z
M 2881 2131 
Q 2881 2450 2695 2645 
Q 2509 2841 2209 2841 
Q 1884 2841 1681 2658 
Q 1478 2475 1428 2131 
L 2881 2131 
z
" transform="scale(0.015625)"/>
     </defs>
     <use xlink:href="#DejaVuSans-Bold-65"/>
    </g>
   </g>
   <g id="text_56">
    <!-- $Q_{NN}$ -->
    <g transform="translate(302.787273 884.829474) scale(0.24 -0.24)">
     <use xlink:href="#DejaVuSans-Oblique-51" transform="translate(0 0.78125)"/>
     <use xlink:href="#DejaVuSans-Oblique-4e" transform="translate(78.710938 -15.625) scale(0.7)"/>
     <use xlink:href="#DejaVuSans-Oblique-4e" transform="translate(131.074219 -15.625) scale(0.7)"/>
    </g>
   </g>
  </g>
  <g id="axes_6">
   <g id="patch_39">
    <path d="M 591.545455 1153.44 
L 972 1153.44 
L 972 890.829474 
L 591.545455 890.829474 
z
" style="fill: #ffffff"/>
   </g>
   <g id="matplotlib.axis_11">
    <g id="xtick_20">
     <g id="line2d_55">
      <g>
       <use xlink:href="#mb9c1b0fe39" x="608.656807" y="1153.44" style="stroke: #000000; stroke-width: 0.8"/>
      </g>
     </g>
     <g id="text_57">
      <!-- 0 -->
      <g transform="translate(601.658057 1177.156562) scale(0.22 -0.22)">
       <use xlink:href="#DejaVuSans-30"/>
      </g>
     </g>
    </g>
    <g id="xtick_21">
     <g id="line2d_56">
      <g>
       <use xlink:href="#mb9c1b0fe39" x="699.674641" y="1153.44" style="stroke: #000000; stroke-width: 0.8"/>
      </g>
     </g>
     <g id="text_58">
      <!-- 500 -->
      <g transform="translate(678.678391 1177.156562) scale(0.22 -0.22)">
       <use xlink:href="#DejaVuSans-35"/>
       <use xlink:href="#DejaVuSans-30" x="63.623047"/>
       <use xlink:href="#DejaVuSans-30" x="127.246094"/>
      </g>
     </g>
    </g>
    <g id="xtick_22">
     <g id="line2d_57">
      <g>
       <use xlink:href="#mb9c1b0fe39" x="790.692475" y="1153.44" style="stroke: #000000; stroke-width: 0.8"/>
      </g>
     </g>
     <g id="text_59">
      <!-- 1000 -->
      <g transform="translate(762.697475 1177.156562) scale(0.22 -0.22)">
       <use xlink:href="#DejaVuSans-31"/>
       <use xlink:href="#DejaVuSans-30" x="63.623047"/>
       <use xlink:href="#DejaVuSans-30" x="127.246094"/>
       <use xlink:href="#DejaVuSans-30" x="190.869141"/>
      </g>
     </g>
    </g>
    <g id="xtick_23">
     <g id="line2d_58">
      <g>
       <use xlink:href="#mb9c1b0fe39" x="881.710309" y="1153.44" style="stroke: #000000; stroke-width: 0.8"/>
      </g>
     </g>
     <g id="text_60">
      <!-- 1500 -->
      <g transform="translate(853.715309 1177.156562) scale(0.22 -0.22)">
       <use xlink:href="#DejaVuSans-31"/>
       <use xlink:href="#DejaVuSans-35" x="63.623047"/>
       <use xlink:href="#DejaVuSans-30" x="127.246094"/>
       <use xlink:href="#DejaVuSans-30" x="190.869141"/>
      </g>
     </g>
    </g>
    <g id="text_61">
     <!-- k -->
     <g transform="translate(774.823977 1203.968125) scale(0.24 -0.24)">
      <use xlink:href="#DejaVuSans-6b"/>
     </g>
    </g>
   </g>
   <g id="matplotlib.axis_12">
    <g id="ytick_20">
     <g id="line2d_59">
      <g>
       <use xlink:href="#m532bfa2c38" x="591.545455" y="1129.103411" style="stroke: #000000; stroke-width: 0.8"/>
      </g>
     </g>
     <g id="text_62">
      <!-- 0.0 -->
      <g transform="translate(549.55858 1137.461692) scale(0.22 -0.22)">
       <use xlink:href="#DejaVuSans-30"/>
       <use xlink:href="#DejaVuSans-2e" x="63.623047"/>
       <use xlink:href="#DejaVuSans-30" x="95.410156"/>
      </g>
     </g>
    </g>
    <g id="ytick_21">
     <g id="line2d_60">
      <g>
       <use xlink:href="#m532bfa2c38" x="591.545455" y="1045.560959" style="stroke: #000000; stroke-width: 0.8"/>
      </g>
     </g>
     <g id="text_63">
      <!-- 0.2 -->
      <g transform="translate(549.55858 1053.919241) scale(0.22 -0.22)">
       <use xlink:href="#DejaVuSans-30"/>
       <use xlink:href="#DejaVuSans-2e" x="63.623047"/>
       <use xlink:href="#DejaVuSans-32" x="95.410156"/>
      </g>
     </g>
    </g>
    <g id="ytick_22">
     <g id="line2d_61">
      <g>
       <use xlink:href="#m532bfa2c38" x="591.545455" y="962.018508" style="stroke: #000000; stroke-width: 0.8"/>
      </g>
     </g>
     <g id="text_64">
      <!-- 0.4 -->
      <g transform="translate(549.55858 970.376789) scale(0.22 -0.22)">
       <use xlink:href="#DejaVuSans-30"/>
       <use xlink:href="#DejaVuSans-2e" x="63.623047"/>
       <use xlink:href="#DejaVuSans-34" x="95.410156"/>
      </g>
     </g>
    </g>
   </g>
   <g id="line2d_62">
    <path d="M 608.838843 1117.463805 
L 609.38495 1107.361752 
L 610.113093 1101.295284 
L 610.6592 1098.617796 
L 612.115485 1094.336707 
L 613.207699 1092.711307 
L 613.389735 1092.67527 
L 613.753806 1092.26583 
L 613.935842 1092.165603 
L 614.117877 1092.225798 
L 614.299913 1092.119175 
L 614.84602 1092.870471 
L 615.028056 1093.033731 
L 615.392127 1093.066693 
L 617.030448 1093.778973 
L 617.212484 1094.012114 
L 617.758591 1094.018722 
L 618.486733 1094.99575 
L 618.668769 1095.073064 
L 619.396912 1096.074562 
L 620.489126 1097.208962 
L 623.219661 1100.359248 
L 624.311875 1101.135114 
L 625.586124 1101.952444 
L 625.950196 1102.140748 
L 630.319052 1104.40559 
L 631.593301 1104.794471 
L 633.595694 1105.584911 
L 635.598086 1105.993908 
L 637.96455 1106.133118 
L 639.238799 1106.333595 
L 639.784906 1106.308645 
L 641.787299 1106.451959 
L 642.697477 1106.42104 
L 643.42562 1106.469242 
L 644.153763 1106.494086 
L 645.245977 1106.477634 
L 646.884298 1106.529043 
L 648.704654 1106.435364 
L 649.796868 1106.404952 
L 651.435189 1106.268858 
L 652.163332 1106.211789 
L 652.891475 1106.176497 
L 656.896259 1105.833865 
L 659.444759 1105.707428 
L 659.80883 1105.65948 
L 660.354937 1105.610869 
L 660.901044 1105.547977 
L 661.447151 1105.449286 
L 662.175294 1105.407494 
L 664.541757 1105.307173 
L 666.180078 1105.373981 
L 666.54415 1105.313044 
L 672.915398 1105.222073 
L 674.189648 1105.211587 
L 674.735755 1105.144737 
L 677.102218 1105.066037 
L 678.558504 1105.134557 
L 680.014789 1105.080426 
L 682.92736 1104.93773 
L 684.201609 1104.86961 
L 688.206394 1104.575344 
L 689.480644 1104.556075 
L 693.485428 1104.424371 
L 694.759678 1104.347792 
L 695.669856 1104.353815 
L 697.854284 1104.219552 
L 699.128534 1104.142564 
L 706.227925 1103.827798 
L 708.776425 1103.83748 
L 711.871031 1103.835062 
L 714.41953 1103.958759 
L 716.421923 1104.060114 
L 719.334493 1104.227935 
L 724.613528 1104.53538 
L 726.433884 1104.608166 
L 728.800348 1104.76586 
L 730.620705 1104.884904 
L 732.805133 1105.011086 
L 735.171596 1105.217284 
L 737.53806 1105.494134 
L 739.904524 1105.755877 
L 740.814702 1105.851273 
L 742.635059 1106.068339 
L 743.727273 1106.184656 
L 748.4602 1106.759422 
L 753.011092 1107.338248 
L 765.207482 1109.005627 
L 768.120052 1109.34353 
L 769.758373 1109.571114 
L 772.670944 1109.934796 
L 775.401479 1110.299123 
L 779.770335 1110.818817 
L 785.595476 1111.58802 
L 788.508047 1112.049163 
L 810.170291 1115.165669 
L 812.354719 1115.574801 
L 814.903219 1116.058617 
L 818.543932 1116.772328 
L 827.827751 1118.460642 
L 853.676816 1122.251713 
L 859.137886 1122.86219 
L 862.960635 1123.218015 
L 867.693562 1123.629211 
L 872.244454 1123.921161 
L 877.159417 1124.16395 
L 879.161809 1124.243541 
L 883.34863 1124.371789 
L 889.173771 1124.616743 
L 892.450413 1124.753822 
L 895.54502 1124.899963 
L 903.736625 1125.211298 
L 913.020444 1125.452218 
L 921.212049 1125.729312 
L 929.767725 1126.122376 
L 933.77251 1126.681343 
L 935.046759 1127.025698 
L 935.774902 1127.271151 
L 939.961722 1129.334064 
L 940.507829 1129.434126 
L 942.328186 1129.381908 
L 950.701827 1129.160011 
L 954.706612 1129.103411 
L 954.706612 1129.103411 
" clip-path="url(#pe2eeff4d43)" style="fill: none; stroke: #1f77b4; stroke-width: 1.5; stroke-linecap: square"/>
   </g>
   <g id="line2d_63">
    <path d="M 608.838843 934.742144 
L 609.202914 910.145229 
L 609.566986 902.766316 
L 609.749021 906.119257 
L 610.841235 944.132058 
L 611.387342 961.595647 
L 612.297521 983.312723 
L 613.025663 996.832465 
L 615.028056 1026.420642 
L 615.938234 1035.567499 
L 617.394519 1047.113892 
L 618.668769 1054.923014 
L 619.578947 1060.168786 
L 621.58134 1069.5056 
L 623.401696 1075.881311 
L 624.129839 1077.748601 
L 625.586124 1081.256458 
L 627.04241 1084.32618 
L 629.226838 1087.875042 
L 629.95498 1088.654772 
L 632.139408 1091.660782 
L 634.141801 1093.365875 
L 635.051979 1093.858699 
L 636.508264 1094.398574 
L 637.054371 1094.816072 
L 637.782514 1095.097673 
L 638.146585 1095.161416 
L 639.966942 1096.319851 
L 640.695085 1096.620371 
L 644.335798 1098.435646 
L 645.063941 1098.560169 
L 646.338191 1098.952746 
L 647.430405 1099.209532 
L 649.068726 1099.679554 
L 649.614833 1099.638207 
L 650.16094 1099.828169 
L 650.525011 1099.883631 
L 654.529796 1100.723447 
L 656.350152 1101.41411 
L 659.080687 1102.063804 
L 659.444759 1102.152617 
L 659.990866 1102.362918 
L 660.901044 1102.579699 
L 661.811222 1102.834203 
L 662.357329 1102.950166 
L 665.998043 1103.565184 
L 666.726185 1103.706644 
L 669.820792 1104.019568 
L 671.095041 1104.125864 
L 673.279469 1104.216304 
L 673.825576 1104.266047 
L 675.099826 1104.342653 
L 679.104611 1104.842094 
L 680.014789 1105.024401 
L 680.924967 1105.080981 
L 682.017181 1105.248731 
L 684.565681 1105.475042 
L 685.475859 1105.530805 
L 687.660287 1105.769865 
L 689.662679 1105.641942 
L 691.483036 1105.678637 
L 692.757286 1105.803186 
L 694.031535 1105.980233 
L 694.577642 1106.0018 
L 695.487821 1106.095009 
L 696.944106 1106.142635 
L 697.854284 1106.179526 
L 707.866246 1106.175053 
L 708.412353 1106.195864 
L 710.960853 1106.32305 
L 711.688995 1106.452369 
L 718.242279 1107.121112 
L 720.608743 1107.370918 
L 727.526098 1108.423158 
L 729.346455 1108.611496 
L 730.438669 1108.78714 
L 746.093736 1110.86 
L 746.821879 1110.978768 
L 758.10809 1113.062935 
L 765.935624 1114.580623 
L 767.39191 1114.818961 
L 778.31405 1117.341376 
L 782.50087 1118.307149 
L 786.68769 1119.289601 
L 789.964332 1120.070618 
L 794.879295 1121.089956 
L 797.791866 1121.755819 
L 798.520009 1121.90094 
L 801.432579 1122.616287 
L 802.888865 1122.912936 
L 806.893649 1123.640371 
L 808.167899 1123.885472 
L 810.534363 1124.232215 
L 811.990648 1124.416012 
L 818.908003 1125.938781 
L 820.546324 1126.169468 
L 835.291214 1128.573926 
L 839.295998 1129.03034 
L 840.570248 1129.162504 
L 842.208569 1129.310859 
L 843.664854 1129.48153 
L 847.305568 1129.850062 
L 849.489996 1130.085255 
L 851.128317 1130.220016 
L 860.958243 1130.917159 
L 865.873206 1130.956291 
L 884.258808 1131.12853 
L 891.176164 1130.998329 
L 895.727055 1130.908705 
L 898.821662 1130.909479 
L 901.916268 1130.818668 
L 903.91866 1130.736724 
L 906.46716 1130.743956 
L 909.197695 1130.672774 
L 916.297086 1130.348397 
L 920.665942 1130.128129 
L 954.34254 1129.103874 
L 954.706612 1129.103411 
L 954.706612 1129.103411 
" clip-path="url(#pe2eeff4d43)" style="fill: none; stroke: #ff7f0e; stroke-width: 1.5; stroke-linecap: square"/>
   </g>
   <g id="line2d_64">
    <path d="M 608.838843 1046.747009 
L 609.202914 981.008437 
L 609.566986 953.805395 
L 609.749021 949.530292 
L 609.931057 948.892472 
L 610.295128 954.191408 
L 612.297521 987.331721 
L 613.025663 999.531929 
L 615.028056 1027.644224 
L 615.938234 1037.132273 
L 617.394519 1048.394993 
L 618.486733 1054.903377 
L 621.58134 1070.145893 
L 623.947803 1077.971025 
L 625.950196 1082.96006 
L 626.860374 1084.892808 
L 627.406481 1085.93171 
L 628.680731 1088.43699 
L 629.408873 1089.583526 
L 630.683123 1091.279675 
L 633.959765 1095.424791 
L 637.96455 1098.858463 
L 638.328621 1099.093944 
L 639.056764 1099.474358 
L 640.148978 1099.934597 
L 641.059156 1100.467608 
L 641.969334 1100.774709 
L 642.515441 1101.071731 
L 644.881905 1102.606774 
L 646.338191 1103.17428 
L 647.976512 1103.949639 
L 648.340583 1104.143593 
L 649.614833 1104.856316 
L 653.07351 1106.976346 
L 653.983689 1107.295683 
L 654.711831 1107.499893 
L 656.350152 1107.943955 
L 657.624402 1108.270837 
L 657.988473 1108.297811 
L 658.53458 1108.455765 
L 668.364506 1111.273957 
L 669.820792 1111.855857 
L 671.823184 1112.407642 
L 674.91779 1113.240096 
L 675.463897 1113.381231 
L 676.010004 1113.65126 
L 677.102218 1113.94185 
L 678.012397 1114.276852 
L 679.832753 1114.900413 
L 680.37886 1115.028757 
L 681.107003 1115.291976 
L 682.017181 1115.505898 
L 682.92736 1115.80879 
L 684.565681 1116.425364 
L 691.665072 1118.392432 
L 692.939321 1118.907457 
L 694.577642 1119.378918 
L 695.123749 1119.552453 
L 696.76207 1119.96852 
L 697.308177 1120.126048 
L 699.674641 1120.699756 
L 700.584819 1120.923709 
L 701.677033 1121.137601 
L 703.861462 1121.682144 
L 704.589604 1121.870246 
L 705.317747 1122.033602 
L 706.591997 1122.514995 
L 708.230318 1122.963116 
L 709.140496 1123.205684 
L 711.324924 1123.626345 
L 712.235102 1123.772502 
L 713.873423 1124.17674 
L 715.329709 1124.616111 
L 717.332101 1125.133923 
L 720.972814 1126.118913 
L 723.885385 1126.74132 
L 743.545237 1131.214179 
L 745.365594 1131.510045 
L 754.831448 1133.552426 
L 755.923662 1133.755358 
L 757.015876 1133.92163 
L 759.928447 1134.270171 
L 775.947586 1137.027625 
L 778.496085 1137.477803 
L 780.680513 1137.824142 
L 783.046977 1138.114092 
L 784.503262 1138.343227 
L 786.141583 1138.564768 
L 787.96194 1138.754174 
L 789.600261 1139.00094 
L 793.787081 1139.355694 
L 795.607438 1139.485054 
L 797.063723 1139.569613 
L 799.976294 1139.70503 
L 802.160722 1139.866813 
L 806.165507 1140.071784 
L 807.803828 1140.114509 
L 817.633754 1140.783549 
L 818.908003 1140.833213 
L 823.458895 1141.148579 
L 824.551109 1141.176242 
L 825.461288 1141.174655 
L 828.191823 1141.208242 
L 830.558286 1141.267885 
L 834.016964 1141.446729 
L 837.11157 1141.483973 
L 838.38582 1141.438667 
L 840.206177 1141.409084 
L 842.390605 1141.462235 
L 857.499565 1141.29563 
L 862.960635 1140.989573 
L 871.698347 1140.33648 
L 872.608525 1140.319952 
L 877.523488 1139.843038 
L 878.251631 1139.832157 
L 879.707916 1139.685502 
L 882.620487 1139.239007 
L 883.894737 1139.186289 
L 886.989343 1138.485453 
L 892.086342 1137.435084 
L 893.906699 1136.999501 
L 896.819269 1136.408387 
L 899.003697 1135.962393 
L 900.824054 1135.551827 
L 904.100696 1134.916662 
L 906.103088 1134.472277 
L 915.204872 1132.521014 
L 928.129404 1130.476078 
L 932.862331 1129.966661 
L 936.867116 1129.709771 
L 943.602436 1129.390221 
L 954.160505 1129.104453 
L 954.706612 1129.103411 
L 954.706612 1129.103411 
" clip-path="url(#pe2eeff4d43)" style="fill: none; stroke: #2ca02c; stroke-width: 1.5; stroke-linecap: square"/>
   </g>
   <g id="line2d_65">
    <path d="M 608.838843 1036.644609 
L 609.202914 989.427103 
L 609.38495 974.822663 
L 609.749021 964.53748 
L 610.113093 960.410734 
L 610.477164 964.149951 
L 611.023271 971.622357 
L 613.753806 1011.79959 
L 615.210091 1029.572093 
L 616.12027 1037.800882 
L 617.758591 1049.682365 
L 619.760983 1059.689764 
L 622.127447 1069.221707 
L 623.947803 1074.234915 
L 625.222053 1077.274569 
L 627.04241 1080.416556 
L 627.770552 1081.494127 
L 628.498695 1082.553089 
L 629.590909 1084.028293 
L 630.865159 1085.955489 
L 632.139408 1087.527208 
L 633.231622 1088.743572 
L 633.777729 1089.271531 
L 634.505872 1089.724788 
L 634.869943 1090.063231 
L 635.41605 1090.603688 
L 636.144193 1091.221586 
L 641.605263 1095.743693 
L 645.063941 1097.435728 
L 645.792084 1097.690473 
L 646.702262 1098.159404 
L 649.068726 1099.555896 
L 651.617225 1100.652071 
L 652.345368 1100.877362 
L 653.983689 1101.450685 
L 654.529796 1101.582744 
L 655.075903 1101.722899 
L 657.806438 1101.900421 
L 661.08308 1102.621697 
L 661.811222 1102.848493 
L 662.357329 1102.879442 
L 665.087864 1103.622519 
L 665.451936 1103.617382 
L 667.454328 1104.202255 
L 668.546542 1104.37472 
L 669.092649 1104.384537 
L 670.002827 1104.35295 
L 673.643541 1104.589339 
L 674.553719 1104.729482 
L 675.281862 1104.772965 
L 676.19204 1104.894238 
L 676.920183 1105.019275 
L 678.194432 1105.152331 
L 685.475859 1106.339538 
L 686.750109 1106.414638 
L 688.024358 1106.471234 
L 689.844715 1106.545179 
L 690.936929 1106.631243 
L 694.941714 1106.972182 
L 696.397999 1107.202369 
L 697.308177 1107.248893 
L 699.31057 1107.720025 
L 701.130926 1108.000581 
L 704.043497 1108.228208 
L 705.135711 1108.314664 
L 707.320139 1108.596549 
L 708.230318 1108.567538 
L 709.140496 1108.573278 
L 709.868639 1108.58365 
L 711.324924 1108.330617 
L 713.691388 1108.018671 
L 715.511744 1107.800621 
L 717.150065 1107.789049 
L 720.062636 1107.833189 
L 721.336886 1107.850749 
L 722.611135 1107.827238 
L 723.521314 1107.875859 
L 725.34167 1107.884171 
L 726.433884 1107.899711 
L 729.164419 1107.795726 
L 730.80274 1107.759234 
L 736.809917 1107.843174 
L 740.268595 1108.034715 
L 741.72488 1108.155066 
L 750.826664 1109.024551 
L 754.285341 1108.906756 
L 760.292518 1109.400334 
L 766.481731 1109.375695 
L 768.120052 1109.448325 
L 770.122445 1109.529949 
L 770.668552 1109.597113 
L 771.760766 1109.725195 
L 773.581122 1109.954713 
L 774.673336 1110.098688 
L 775.76555 1110.282657 
L 782.136799 1111.051174 
L 784.321227 1111.479824 
L 789.964332 1112.510577 
L 791.056546 1112.680578 
L 792.14876 1112.844206 
L 794.69726 1113.367125 
L 800.886472 1114.283315 
L 805.6194 1114.867018 
L 806.347542 1114.939588 
L 815.631361 1116.275988 
L 816.905611 1116.48452 
L 819.090039 1116.81262 
L 821.638538 1117.293833 
L 824.915181 1117.655841 
L 826.007395 1117.828604 
L 827.827751 1118.068833 
L 832.378643 1118.739142 
L 833.470857 1118.916957 
L 838.567856 1119.840204 
L 840.752284 1120.106185 
L 855.315137 1122.320365 
L 856.407351 1122.459282 
L 858.409743 1122.768795 
L 860.958243 1123.128823 
L 863.688778 1123.484829 
L 865.509134 1123.775986 
L 879.343845 1125.670787 
L 897.911483 1127.604264 
L 901.188125 1127.843989 
L 905.556981 1128.271443 
L 911.746194 1129.023518 
L 921.57612 1129.435127 
L 937.231187 1129.636071 
L 953.796433 1129.106308 
L 954.706612 1129.103411 
L 954.706612 1129.103411 
" clip-path="url(#pe2eeff4d43)" style="fill: none; stroke: #d62728; stroke-width: 1.5; stroke-linecap: square"/>
   </g>
   <g id="patch_40">
    <path d="M 591.545455 1153.44 
L 591.545455 890.829474 
" style="fill: none; stroke: #000000; stroke-width: 0.8; stroke-linejoin: miter; stroke-linecap: square"/>
   </g>
   <g id="patch_41">
    <path d="M 972 1153.44 
L 972 890.829474 
" style="fill: none; stroke: #000000; stroke-width: 0.8; stroke-linejoin: miter; stroke-linecap: square"/>
   </g>
   <g id="patch_42">
    <path d="M 591.545455 1153.44 
L 972 1153.44 
" style="fill: none; stroke: #000000; stroke-width: 0.8; stroke-linejoin: miter; stroke-linecap: square"/>
   </g>
   <g id="patch_43">
    <path d="M 591.545455 890.829474 
L 972 890.829474 
" style="fill: none; stroke: #000000; stroke-width: 0.8; stroke-linejoin: miter; stroke-linecap: square"/>
   </g>
   <g id="text_65">
    <!-- f -->
    <g transform="translate(552.733636 872.71352) scale(0.28 -0.28)">
     <defs>
      <path id="DejaVuSans-Bold-66" d="M 2841 4863 
L 2841 4128 
L 2222 4128 
Q 1984 4128 1890 4042 
Q 1797 3956 1797 3744 
L 1797 3500 
L 2753 3500 
L 2753 2700 
L 1797 2700 
L 1797 0 
L 678 0 
L 678 2700 
L 122 2700 
L 122 3500 
L 678 3500 
L 678 3744 
Q 678 4316 997 4589 
Q 1316 4863 1984 4863 
L 2841 4863 
z
" transform="scale(0.015625)"/>
     </defs>
     <use xlink:href="#DejaVuSans-Bold-66"/>
    </g>
   </g>
   <g id="text_66">
    <!-- LCMC -->
    <g transform="translate(747.973977 884.829474) scale(0.24 -0.24)">
     <defs>
      <path id="DejaVuSans-4c" d="M 628 4666 
L 1259 4666 
L 1259 531 
L 3531 531 
L 3531 0 
L 628 0 
L 628 4666 
z
" transform="scale(0.015625)"/>
     </defs>
     <use xlink:href="#DejaVuSans-4c"/>
     <use xlink:href="#DejaVuSans-43" x="55.712891"/>
     <use xlink:href="#DejaVuSans-4d" x="125.537109"/>
     <use xlink:href="#DejaVuSans-43" x="211.816406"/>
    </g>
   </g>
  </g>
 </g>
 <defs>
  <clipPath id="p42a222e0f7">
   <rect x="135" y="155.52" width="380.454545" height="262.610526"/>
  </clipPath>
  <clipPath id="p0463256080">
   <rect x="591.545455" y="155.52" width="380.454545" height="262.610526"/>
  </clipPath>
  <clipPath id="p44a86fe56a">
   <rect x="135" y="523.174737" width="380.454545" height="262.610526"/>
  </clipPath>
  <clipPath id="p838b9181cc">
   <rect x="591.545455" y="523.174737" width="380.454545" height="262.610526"/>
  </clipPath>
  <clipPath id="p8b8736cd74">
   <rect x="135" y="890.829474" width="380.454545" height="262.610526"/>
  </clipPath>
  <clipPath id="pe2eeff4d43">
   <rect x="591.545455" y="890.829474" width="380.454545" height="262.610526"/>
  </clipPath>
 </defs>
</svg>
